# FamiTracker text export 0.4.2

# Song information
TITLE           "Super Tilt Bro "
AUTHOR          "Tuï"
COPYRIGHT       "CC-BY"

# Song comment
COMMENT ""

# Global settings
MACHINE         0
FRAMERATE       0
EXPANSION       0
VIBRATO         1
SPLIT           21

# Macros
MACRO       0   0  -1  -1   0 : 15 7 2 0 0 0
MACRO       0   1  -1  -1   0 : 15 10 5 1 0 0 0 0
MACRO       0   2  -1  -1   0 : 15 9 6 2 1 0
MACRO       0   3  -1  -1   0 : 15 0 0
MACRO       0   4  -1  -1   0 : 15 14 13 12 11 10 9 8 7 7 6 6 5 4 4 3 3 3 2 2 2 2 1 1 1 1 1 1 1 1 0 0
MACRO       0   5  -1  -1   0 : 15 15 13 11 10 9 8 7 6 6 5 4 4 3 2 2 1 1 1 0 0 0 0 0
MACRO       0   6  -1  -1   0 : 15 13 11 7 4 2 1 0
MACRO       0   7  -1  -1   0 : 15 12 8 4 2 0 0
MACRO       0   8  -1  -1   0 : 15 12 10 8 7 6 5 4 4 3 3 2 2 1 1 0
MACRO       0   9  -1  -1   0 : 15 9 14 8 13 6 11 5 10 4 7 3 6 2 4 1 2 1 0 0 0 0 0 0 0
MACRO       0  10  -1  -1   0 : 15
MACRO       0  11  -1  -1   0 : 14 13 12 11 10 10 9 8 8 7 7 7 6 6 5 5 5 5 4 4 4 3 3 3 2 2 2 2 2 1 1 1 1 1 1 0 0
MACRO       0  12  -1  -1   0 : 15 13 11 9 7 6 4 3 2 1 1 0 0 0 0 0 0 0 0 0
MACRO       0  13  -1  -1   0 : 15
MACRO       0  14  -1  -1   0 : 5 8 10 11 12 12 13 14 14 15 15 15 15 15
MACRO       1   0   0  -1   0 : 0 0 4 4 7 7 4 4 7 7 12 12
MACRO       1   1   0  -1   0 : 19 19 16 16 14 14 12 12 7 7 4 4 2 2 0 0
MACRO       1   2   0  -1   0 : 21 21 16 16 14 14 12 12 9 9 4 4 2 2 0 0
MACRO       1   3   0  -1   0 : 19 19 16 16 12 12 7 7 4 4 0 0
MACRO       1   4   0  -1   0 : 24 24 24 19 19 19 16 16 16 14 14 14 12 12 12 7 7 7 4 4 4 2 2 2 0 0 0 2 2 2 4 4 4 7 7 7 12 12 12 14 14 14 16 16 16 19 19 19
MACRO       1   5   0  -1   0 : 0 4 7 12
MACRO       1   6  -1  -1   0 : 12 24 0
MACRO       1   7  -1  -1   0 : 12 0 0
MACRO       1   8  -1  -1   0 : 12 12 0
MACRO       1   9   0  -1   0 : 0 3 7 12
MACRO       1  10   0  -1   0 : 0 0 4 4 7 7
MACRO       1  11   0  -1   0 : 0 3 6 12
MACRO       1  12   0  -1   0 : 0 0 3 3 7 7
MACRO       1  13  -1  -1   0 : 12 12 0
MACRO       1  14   0  -1   0 : 24 24 24 19 19 19 15 15 15 14 14 14 12 12 12 7 7 7 3 3 3 2 2 2 0 0 0 2 2 2 3 3 3 7 7 7 12 12 12 14 14 14 15 15 15 19 19 19
MACRO       2   0   0  -1   0 : 67
MACRO       2   1   0  -1   0 : 40
MACRO       4   0   0  -1   0 : 1 2
MACRO       4   1   0  -1   0 : 2 0 0 2
MACRO       4   2   0  -1   0 : 2 0 0 0
MACRO       4   3  -1  -1   0 : 3
MACRO       4   4  -1  -1   0 : 3
MACRO       4   5  -1  -1   0 : 2 1 0 0 0 0 0 0
MACRO       4   6   0  -1   0 : 3
MACRO       4   7  -1  -1   0 : 2
MACRO       4   8  -1  -1   0 : 1
MACRO       4   9   0  -1   0 : 1 1 0 0

# DPCM samples

# Instruments
INST2A03   0     0  -1  -1  -1  -1 "hh"
INST2A03   1     1  -1   0  -1  -1 "sinekck"
INST2A03   2     2   4  -1  -1  -1 "snare"
INST2A03   3     3  -1  -1  -1  -1 "1tick"
INST2A03   4     4   0  -1  -1   2 "majarp"
INST2A03   5    -1  -1  -1  -1   5 "bassP"
INST2A03   6     8  -1  -1  -1  -1 "hhopen"
INST2A03   7    -1   1  -1  -1   1 "arp 1 2 3 5 2 oct desc"
INST2A03   8    -1   2  -1  -1  -1 "arp b3 4 5 1 sur 2 oct desc"
INST2A03   9    -1   3  -1  -1  -1 "Arp Maj "
INST2A03  10    -1   4  -1  -1  -1 "long arp 1 2 3 5"
INST2A03  11     9   5  -1  -1   0 "majHit"
INST2A03  12     7  -1  -1  -1   2 "bip1"
INST2A03  13     7   7  -1  -1   4 "bip2oct"
INST2A03  14     1  -1   1  -1  -1 "sinesn"
INST2A03  15     9   9  -1  -1   0 "minhit"
INST2A03  16    10   7  -1  -1  -1 "lead"
INST2A03  17     8  10  -1  -1   3 "majHit2"
INST2A03  18    10  -1  -1  -1   7 "lead2"
INST2A03  19     9  11  -1  -1   0 "dimhit"
INST2A03  20     9  11  -1  -1   1 "dimhit2"
INST2A03  21     8  -1  -1  -1   8 "ding"
INST2A03  22    11  -1  -1  -1  -1 "crash"
INST2A03  23     8  12  -1  -1   3 "minHit2"
INST2A03  24    10  13  -1  -1   9 "lead3"
INST2A03  25    10  -1  -1  -1   9 "lead4"
INST2A03  26    -1  14  -1  -1  -1 "long arp 1 2 b3 5"
INST2A03  27    12  -1  -1  -1   2 "bip1louder"
INST2A03  28    14  -1  -1  -1  -1 "leadpepperghost"

# Tracks

TRACK  64   3 150 "Kiki"
COLUMNS : 2 4 2 2 1

ORDER 00 : 00 00 00 00 00
ORDER 01 : 01 01 01 18 00
ORDER 02 : 02 02 02 01 00
ORDER 03 : 03 03 03 03 00
ORDER 04 : 04 04 04 04 00
ORDER 05 : 05 05 05 05 00
ORDER 06 : 06 06 06 06 00
ORDER 07 : 07 07 07 07 00
ORDER 08 : 08 08 08 08 00
ORDER 09 : 09 09 09 09 00
ORDER 0A : 0A 0A 0A 0A 00
ORDER 0B : 0B 0B 0B 0B 00
ORDER 0C : 0C 0C 0C 0C 00
ORDER 0D : 0D 0D 0D 0D 00
ORDER 0E : 0E 0E 0E 0E 00
ORDER 0F : 0F 0F 0F 0F 00
ORDER 10 : 10 10 10 10 00
ORDER 11 : 11 11 11 11 00
ORDER 12 : 12 12 12 12 00
ORDER 13 : 13 13 13 13 00
ORDER 14 : 14 14 14 14 00
ORDER 15 : 15 15 15 15 00
ORDER 16 : 16 16 16 16 00
ORDER 17 : 17 17 17 17 00

PATTERN 00
ROW 00 : A#2 07 8 200 ... : A#1 05 F ... ... ... ... : C-4 01 . 300 ... : A-# 16 F 100 F03 : ... .. . ...
ROW 01 : ... .. . ... ... : ... .. . ... ... ... ... : ... .. . ... ... : ... .. . ... F02 : ... .. . ...
ROW 02 : ... .. . ... ... : ... .. . ... ... ... ... : A#5 03 . ... ... : ... .. . ... F03 : ... .. . ...
ROW 03 : ... .. . ... ... : ... .. . ... ... ... ... : ... .. . ... ... : ... .. . ... F02 : ... .. . ...
ROW 04 : ... .. 6 ... ... : --- .. . ... ... ... ... : D-5 03 . ... ... : ... .. . ... F03 : ... .. . ...
ROW 05 : ... .. . ... ... : ... .. . ... ... ... ... : ... .. . ... ... : ... .. . ... F02 : ... .. . ...
ROW 06 : ... .. . ... ... : ... .. . ... ... ... ... : F-5 03 . ... ... : ... .. . ... F03 : ... .. . ...
ROW 07 : ... .. . ... ... : ... .. . ... ... ... ... : ... .. . ... ... : ... .. . ... F02 : ... .. . ...
ROW 08 : ... .. 4 ... ... : A#3 0B . 300 ... ... ... : C-4 01 . ... ... : D-# 06 F ... F03 : ... .. . ...
ROW 09 : ... .. . ... ... : ... .. . ... ... ... ... : ... .. . ... ... : ... .. . ... F02 : ... .. . ...
ROW 0A : ... .. . ... ... : ... .. . ... ... ... ... : D-5 03 . ... ... : D-# 00 5 ... F03 : ... .. . ...
ROW 0B : ... .. . ... ... : ... .. . ... ... ... ... : ... .. . ... ... : ... .. . ... F02 : ... .. . ...
ROW 0C : ... .. 2 ... ... : ... .. . ... ... ... ... : F-5 03 . ... ... : D-# 00 5 ... F03 : ... .. . ...
ROW 0D : ... .. . ... ... : ... .. . ... ... ... ... : ... .. . ... ... : ... .. . ... F02 : ... .. . ...
ROW 0E : ... .. . ... ... : F-1 05 7 ... ... ... ... : A#5 03 . ... ... : D-# 00 F ... F03 : ... .. . ...
ROW 0F : ... .. . ... ... : --- .. . ... ... ... ... : ... .. . ... ... : ... .. . ... F02 : ... .. . ...
ROW 10 : A#3 0C 1 ... ... : F-1 05 F ... ... ... ... : C-4 01 . ... ... : D-# 06 F ... F03 : ... .. . ...
ROW 11 : D-4 0C . ... ... : ... .. . ... ... ... ... : ... .. . ... ... : ... .. . ... F02 : ... .. . ...
ROW 12 : A#3 0C 2 ... ... : ... .. . ... ... ... ... : A#5 03 . ... ... : D-# 00 5 ... F03 : ... .. . ...
ROW 13 : D-4 0C . ... ... : ... .. . ... ... S01 ... : ... .. . ... ... : ... .. . ... F02 : ... .. . ...
ROW 14 : A#3 0C 3 ... ... : G#1 05 . ... ... ... ... : D-6 03 . ... ... : D-# 00 5 ... F03 : ... .. . ...
ROW 15 : D-4 0C 4 ... ... : ... .. . ... ... ... ... : ... .. . ... ... : ... .. . ... F02 : ... .. . ...
ROW 16 : A#3 0C 5 ... ... : ... .. . ... ... ... ... : F-5 03 . ... ... : D-# 00 F ... F03 : ... .. . ...
ROW 17 : D-4 0C 6 ... ... : ... .. . ... ... ... ... : ... .. . ... ... : ... .. . ... F02 : ... .. . ...
ROW 18 : A#3 0C 7 ... ... : --- .. . ... ... ... ... : C-4 01 . ... ... : D-# 06 F ... F03 : ... .. . ...
ROW 19 : D-4 0C 8 ... ... : ... .. . ... ... ... ... : ... .. . ... ... : ... .. . ... F02 : ... .. . ...
ROW 1A : A#3 0C 9 ... ... : ... .. . ... ... ... ... : F-5 03 . ... ... : D-# 00 5 ... F03 : ... .. . ...
ROW 1B : D-4 0C A S02 ... : ... .. . ... ... ... ... : ... .. . ... ... : ... .. . ... F02 : ... .. . ...
ROW 1C : G#2 07 8 ... ... : A#1 05 . ... ... ... ... : A#5 03 . ... ... : D-# 00 5 ... F03 : ... .. . ...
ROW 1D : ... .. . ... ... : ... .. . ... ... ... ... : ... .. . ... ... : ... .. . ... F02 : ... .. . ...
ROW 1E : ... .. . ... ... : ... .. . ... ... ... ... : D-5 03 . ... ... : D-# 00 F ... F03 : ... .. . ...
ROW 1F : ... .. . ... ... : ... .. . ... ... ... ... : ... .. . ... ... : ... .. . ... F02 : ... .. . ...
ROW 20 : ... .. 6 ... ... : ... .. . 2A0 ... ... ... : C-4 01 . ... ... : D-# 06 F ... F03 : ... .. . ...
ROW 21 : ... .. . ... ... : ... .. . ... ... ... ... : ... .. . ... ... : ... .. . ... F02 : ... .. . ...
ROW 22 : ... .. . ... ... : ... .. . ... ... ... ... : D#5 03 . ... ... : D-# 00 5 ... F03 : ... .. . ...
ROW 23 : ... .. . ... ... : --- .. . 200 ... ... ... : ... .. . ... ... : ... .. . ... F02 : ... .. . ...
ROW 24 : ... .. 4 ... ... : ... .. . ... ... ... ... : G#5 03 . ... ... : D-# 00 5 ... F03 : ... .. . ...
ROW 25 : ... .. . ... ... : ... .. . ... ... ... ... : ... .. . ... ... : ... .. . ... F02 : ... .. . ...
ROW 26 : ... .. . ... ... : ... .. . ... ... ... ... : D#5 03 . ... ... : D-# 00 F ... F03 : ... .. . ...
ROW 27 : ... .. . ... ... : ... .. . ... ... ... ... : ... .. . ... ... : ... .. . ... F02 : ... .. . ...
ROW 28 : ... .. 2 ... ... : G#3 0B . ... ... ... ... : C-4 01 . ... ... : D-# 06 F ... F03 : ... .. . ...
ROW 29 : ... .. . ... ... : ... .. . ... ... ... ... : ... .. . ... ... : ... .. . ... F02 : ... .. . ...
ROW 2A : ... .. . ... ... : ... .. . ... ... ... ... : C-5 03 . ... ... : D-# 00 5 ... F03 : ... .. . ...
ROW 2B : ... .. . ... ... : ... .. . ... ... ... ... : ... .. . ... ... : ... .. . ... F02 : ... .. . ...
ROW 2C : ... .. 1 ... ... : F-1 05 . ... ... ... ... : D#5 03 . ... ... : D-# 00 5 ... F03 : ... .. . ...
ROW 2D : ... .. . ... ... : ... .. . ... ... ... ... : ... .. . ... ... : ... .. . ... F02 : ... .. . ...
ROW 2E : ... .. . ... ... : ... .. . ... ... ... ... : G#5 03 . ... ... : D-# 00 F ... F03 : ... .. . ...
ROW 2F : ... .. . ... ... : ... .. . ... ... ... ... : ... .. . ... ... : ... .. . ... F02 : ... .. . ...
ROW 30 : G#3 0D 3 ... ... : --- .. . ... ... ... ... : C-4 01 . ... ... : D-# 06 F ... F03 : ... .. . ...
ROW 31 : ... .. . ... ... : ... .. . ... ... ... ... : ... .. . ... ... : ... .. . ... F02 : ... .. . ...
ROW 32 : A#3 0D 4 ... ... : F-1 05 7 ... ... ... ... : C-5 03 . ... ... : D-# 00 5 ... F03 : ... .. . ...
ROW 33 : ... .. . ... ... : --- .. . ... ... ... ... : ... .. . ... ... : ... .. . ... F02 : ... .. . ...
ROW 34 : C-4 0D 5 ... ... : F-1 05 F ... ... ... ... : D#5 03 . ... ... : D-# 00 5 ... F03 : ... .. . ...
ROW 35 : A#3 0D 1 ... ... : ... .. . ... ... ... ... : ... .. . ... ... : ... .. . ... F02 : ... .. . ...
ROW 36 : D#4 0D 6 ... ... : ... .. . ... ... ... ... : C-5 03 . ... ... : D-# 00 F ... F03 : ... .. . ...
ROW 37 : C-4 0D 2 ... ... : ... .. . ... ... S01 ... : ... .. . ... ... : ... .. . ... F02 : ... .. . ...
ROW 38 : A#3 0D 7 ... ... : G#1 05 . ... ... ... ... : C-4 01 . ... ... : D-# 06 F ... F03 : ... .. . ...
ROW 39 : D#4 0D 3 ... ... : ... .. . ... ... ... ... : ... .. . ... ... : ... .. . ... F02 : ... .. . ...
ROW 3A : C-4 0D 8 ... ... : ... .. . ... ... ... ... : D#5 03 . ... ... : D-# 00 5 ... F03 : ... .. . ...
ROW 3B : A#3 0D 4 ... ... : ... .. . ... ... S01 ... : ... .. . ... ... : ... .. . ... F02 : ... .. . ...
ROW 3C : D#4 0D 9 ... ... : C#2 05 . ... ... ... ... : G#5 03 . ... ... : D-# 00 5 ... F03 : ... .. . ...
ROW 3D : C-4 0D 5 ... ... : ... .. . ... ... ... ... : ... .. . ... ... : ... .. . ... F02 : ... .. . ...
ROW 3E : G#4 0D A ... ... : ... .. . ... ... ... ... : C-6 03 . ... ... : D-# 00 F ... F03 : ... .. . ...
ROW 3F : D#4 0D 6 S02 ... : ... .. . ... ... S01 ... : ... .. . ... ... : ... .. . ... F02 : ... .. . ...

PATTERN 01
ROW 00 : F#2 07 8 ... ... : A#1 05 F ... ... ... ... : C-4 01 . ... ... : D-# 06 F ... F03 : ... .. . ...
ROW 01 : ... .. . ... ... : ... .. . ... ... ... ... : ... .. . ... ... : ... .. . ... F02 : ... .. . ...
ROW 02 : ... .. . ... ... : ... .. . ... ... ... ... : A#5 03 . ... ... : D-# 00 5 ... F03 : ... .. . ...
ROW 03 : ... .. . ... ... : ... .. . ... ... ... ... : ... .. . ... ... : ... .. . ... F02 : ... .. . ...
ROW 04 : ... .. 6 ... ... : ... .. . 230 ... ... ... : C#5 03 . ... ... : D-# 00 5 ... F03 : ... .. . ...
ROW 05 : ... .. . ... ... : ... .. . ... ... ... ... : ... .. . ... ... : ... .. . ... F02 : ... .. . ...
ROW 06 : ... .. . ... ... : ... .. . ... ... ... ... : F#5 03 . ... ... : D-# 00 F ... F03 : ... .. . ...
ROW 07 : ... .. . ... ... : --- .. . ... ... ... ... : ... .. . ... ... : ... .. . ... F02 : ... .. . ...
ROW 08 : ... .. 4 ... ... : F#3 0B . 200 ... ... ... : C-4 01 . ... ... : D-# 06 F ... F03 : ... .. . ...
ROW 09 : ... .. . ... ... : ... .. . ... ... ... ... : ... .. . ... ... : ... .. . ... F02 : ... .. . ...
ROW 0A : ... .. . ... ... : ... .. . ... ... ... ... : C#5 03 . ... ... : D-# 00 5 ... F03 : ... .. . ...
ROW 0B : ... .. . ... ... : ... .. . ... ... ... ... : ... .. . ... ... : ... .. . ... F02 : ... .. . ...
ROW 0C : ... .. 2 ... ... : ... .. . ... ... ... ... : F#5 03 . ... ... : D-# 00 5 ... F03 : ... .. . ...
ROW 0D : ... .. . ... ... : ... .. . ... ... ... ... : ... .. . ... ... : ... .. . ... F02 : ... .. . ...
ROW 0E : ... .. . ... ... : D#1 05 7 ... ... ... ... : A#5 03 . ... ... : D-# 00 F ... F03 : ... .. . ...
ROW 0F : ... .. . ... ... : --- .. . ... ... ... ... : ... .. . ... ... : ... .. . ... F02 : ... .. . ...
ROW 10 : F#3 0C 1 ... ... : F-1 05 F 200 ... ... ... : C-4 01 . ... ... : D-# 06 F ... F03 : ... .. . ...
ROW 11 : A#3 0C . ... ... : ... .. . ... ... ... ... : ... .. . ... ... : ... .. . ... F02 : ... .. . ...
ROW 12 : F#3 0C 2 ... ... : ... .. . ... ... ... ... : A#5 03 . ... ... : D-# 00 5 ... F03 : ... .. . ...
ROW 13 : A#3 0C . ... ... : ... .. . ... ... ... ... : ... .. . ... ... : ... .. . ... F02 : ... .. . ...
ROW 14 : F#3 0C 3 ... ... : G#1 05 . 340 ... ... ... : C#6 03 . ... ... : D-# 00 5 ... F03 : ... .. . ...
ROW 15 : A#3 0C 4 ... ... : ... .. . ... ... ... ... : ... .. . ... ... : ... .. . ... F02 : ... .. . ...
ROW 16 : F#3 0C 5 ... ... : --- .. . 300 ... ... ... : F#5 03 . ... ... : D-# 00 F ... F03 : ... .. . ...
ROW 17 : A#3 0C 6 ... ... : ... .. . ... ... ... ... : ... .. . ... ... : ... .. . ... F02 : ... .. . ...
ROW 18 : F#3 0C 7 ... ... : ... .. . ... ... ... ... : C-4 01 . ... ... : D-# 06 F ... F03 : ... .. . ...
ROW 19 : A#3 0C 8 ... ... : ... .. . ... ... ... ... : ... .. . ... ... : ... .. . ... F02 : ... .. . ...
ROW 1A : F#3 0C 9 ... ... : ... .. . ... ... ... ... : F#5 03 . ... ... : D-# 00 5 ... F03 : ... .. . ...
ROW 1B : A#3 0C A S02 ... : ... .. . ... ... ... ... : ... .. . ... ... : ... .. . ... F02 : ... .. . ...
ROW 1C : G#2 07 8 ... ... : D#1 05 . ... ... ... ... : A#5 03 . ... ... : D-# 00 5 ... F03 : ... .. . ...
ROW 1D : ... .. . ... ... : ... .. . ... ... ... ... : ... .. . ... ... : ... .. . ... F02 : ... .. . ...
ROW 1E : ... .. . ... ... : ... .. . ... ... ... ... : F#5 03 . ... ... : D-# 00 F ... F03 : ... .. . ...
ROW 1F : ... .. . ... ... : ... .. . ... ... ... ... : ... .. . ... ... : ... .. . ... F02 : ... .. . ...
ROW 20 : ... .. 6 ... ... : ... .. . ... ... ... ... : C-4 01 . ... ... : D-# 06 F ... F03 : ... .. . ...
ROW 21 : ... .. . ... ... : ... .. . ... ... ... ... : ... .. . ... ... : ... .. . ... F02 : ... .. . ...
ROW 22 : ... .. . ... ... : ... .. . ... ... ... ... : D#6 03 . ... ... : D-# 00 5 ... F03 : ... .. . ...
ROW 23 : ... .. . ... ... : ... .. . ... ... ... ... : ... .. . ... ... : ... .. . ... F02 : ... .. . ...
ROW 24 : ... .. 4 ... ... : D#2 05 . 3A0 ... ... ... : G#5 03 . ... ... : D-# 00 5 ... F03 : ... .. . ...
ROW 25 : ... .. . ... ... : ... .. . ... ... ... ... : ... .. . ... ... : ... .. . ... F02 : ... .. . ...
ROW 26 : ... .. . ... ... : --- .. . ... ... ... ... : C-6 03 . ... ... : D-# 00 F ... F03 : ... .. . ...
ROW 27 : ... .. . ... ... : ... .. . ... ... ... ... : ... .. . ... ... : ... .. . ... F02 : ... .. . ...
ROW 28 : G#3 0B A ... ... : F-0 05 . 300 ... ... ... : C-4 01 . ... ... : D-# 06 F ... F03 : ... .. . ...
ROW 29 : ... .. . ... ... : ... .. . ... ... ... ... : ... .. . ... ... : ... .. . ... F02 : ... .. . ...
ROW 2A : ... .. . ... ... : ... .. . ... ... ... ... : D#5 03 . ... ... : D-# 00 5 ... F03 : ... .. . ...
ROW 2B : ... .. . ... ... : ... .. . ... ... ... ... : ... .. . ... ... : ... .. . ... F02 : ... .. . ...
ROW 2C : ... .. . ... ... : G-1 05 . ... ... ... ... : G#5 03 . ... ... : D-# 00 5 ... F03 : ... .. . ...
ROW 2D : ... .. . ... ... : ... .. . ... ... ... ... : ... .. . ... ... : ... .. . ... F02 : ... .. . ...
ROW 2E : ... .. . ... ... : ... .. . ... ... ... ... : D#5 03 . ... ... : D-# 00 F ... F03 : ... .. . ...
ROW 2F : ... .. . ... ... : ... .. . ... ... S01 ... : ... .. . ... ... : ... .. . ... F02 : ... .. . ...
ROW 30 : G#4 0D 3 ... ... : G#0 05 . ... ... ... ... : C-4 01 . ... ... : D-# 06 F ... F03 : ... .. . ...
ROW 31 : ... .. . ... ... : ... .. . ... ... ... ... : ... .. . ... ... : ... .. . ... F02 : ... .. . ...
ROW 32 : D#4 0D 4 ... ... : ... .. . ... ... ... ... : G#5 03 . ... ... : D-# 06 5 ... F03 : ... .. . ...
ROW 33 : ... .. . ... ... : ... .. . ... ... ... ... : ... .. . ... ... : ... .. . ... F02 : ... .. . ...
ROW 34 : C-4 0D 5 ... ... : G#1 05 . ... ... ... ... : C-6 03 . ... ... : D-# 06 5 ... F03 : ... .. . ...
ROW 35 : D#4 0D 1 ... ... : ... .. . ... ... ... ... : ... .. . ... ... : ... .. . ... F02 : ... .. . ...
ROW 36 : D#4 0D 6 ... ... : ... .. . ... ... ... ... : D#6 03 . ... ... : D-# 06 F ... F03 : ... .. . ...
ROW 37 : C-4 0D 2 ... ... : ... .. . ... ... S01 ... : ... .. . ... ... : ... .. . ... F02 : ... .. . ...
ROW 38 : C-4 0D 7 ... ... : A-0 05 . ... ... ... ... : C-4 01 . ... ... : A-# 06 8 ... F03 : ... .. . ...
ROW 39 : D#4 0D 3 ... ... : ... .. . ... ... S01 ... : ... .. . ... ... : ... .. . S02 F02 : ... .. . ...
ROW 3A : A#3 0D 8 ... ... : A-0 05 . ... ... ... ... : C-6 03 . ... ... : 8-# 06 A ... F03 : ... .. . ...
ROW 3B : C-4 0D 4 ... ... : ... .. . ... ... S01 ... : ... .. . ... ... : ... .. . S02 F02 : ... .. . ...
ROW 3C : G#3 0D 9 ... ... : A-1 05 . ... ... ... ... : C-4 01 . ... ... : 5-# 06 C ... F03 : ... .. . ...
ROW 3D : A#3 0D 5 ... ... : ... .. . ... ... S01 ... : ... .. . ... ... : ... .. . S02 F02 : ... .. . ...
ROW 3E : D#3 0D A ... ... : A-1 05 . ... ... ... ... : G#6 03 . ... ... : 4-# 06 F ... F03 : ... .. . ...
ROW 3F : G#3 0D 6 S02 ... : ... .. . ... ... S01 ... : ... .. . ... ... : ... .. . S02 F02 : ... .. . ...

PATTERN 02
ROW 00 : C#3 07 8 ... ... : A#1 05 F ... ... ... ... : C-4 01 . ... ... : D-# 00 A ... ... : ... .. . ...
ROW 01 : ... .. . ... ... : ... .. . ... ... ... ... : ... .. . ... ... : ... .. . ... ... : ... .. . ...
ROW 02 : ... .. . ... ... : ... .. . ... ... ... ... : A#5 03 . ... ... : ... .. . ... ... : ... .. . ...
ROW 03 : ... .. . ... ... : ... .. . ... ... ... ... : ... .. . ... ... : ... .. . ... ... : ... .. . ...
ROW 04 : ... .. 6 ... ... : --- .. . ... ... ... ... : C#5 03 . ... ... : D-# 00 A ... ... : ... .. . ...
ROW 05 : ... .. . ... ... : ... .. . ... ... ... ... : ... .. . ... ... : ... .. . ... ... : ... .. . ...
ROW 06 : ... .. . ... ... : ... .. . ... ... ... ... : F-5 03 . ... ... : ... .. . ... ... : ... .. . ...
ROW 07 : ... .. . ... ... : ... .. . ... ... ... ... : ... .. . ... ... : ... .. . ... ... : ... .. . ...
ROW 08 : ... .. 4 ... ... : A#3 0F . 300 ... ... ... : C-4 01 . ... ... : E-# 02 F ... ... : ... .. . ...
ROW 09 : ... .. . ... ... : ... .. . ... ... ... ... : ... .. . ... ... : ... .. . ... ... : ... .. . ...
ROW 0A : ... .. . ... ... : ... .. . ... ... ... ... : C#5 03 . ... ... : ... .. . ... ... : ... .. . ...
ROW 0B : ... .. . ... ... : ... .. . ... ... ... ... : ... .. . ... ... : ... .. . ... ... : ... .. . ...
ROW 0C : ... .. 2 ... ... : ... .. . ... ... ... ... : F-5 03 . ... ... : D-# 00 A ... ... : ... .. . ...
ROW 0D : ... .. . ... ... : ... .. . ... ... ... ... : ... .. . ... ... : ... .. . ... ... : ... .. . ...
ROW 0E : ... .. . ... ... : F-1 05 7 ... ... ... ... : A#5 03 . ... ... : ... .. . ... ... : ... .. . ...
ROW 0F : ... .. . ... ... : --- .. . ... ... ... ... : ... .. . ... ... : ... .. . ... ... : ... .. . ...
ROW 10 : A#3 0C 1 ... ... : F-1 05 F ... ... ... ... : C-4 01 . ... ... : D-# 00 A ... ... : ... .. . ...
ROW 11 : C#4 0C . ... ... : ... .. . ... ... ... ... : ... .. . ... ... : ... .. . ... ... : ... .. . ...
ROW 12 : A#3 0C 2 ... ... : ... .. . ... ... ... ... : A#5 03 . ... ... : ... .. . ... ... : ... .. . ...
ROW 13 : C#4 0C . ... ... : ... .. . ... ... S01 ... : ... .. . ... ... : ... .. . ... ... : ... .. . ...
ROW 14 : A#3 0C 3 ... ... : G#1 05 . ... ... ... ... : C#6 03 . ... ... : D-# 00 A ... ... : ... .. . ...
ROW 15 : C#4 0C 4 ... ... : ... .. . ... ... ... ... : ... .. . ... ... : ... .. . ... ... : ... .. . ...
ROW 16 : A#3 0C 5 ... ... : ... .. . ... ... ... ... : F-5 03 . ... ... : ... .. . ... ... : ... .. . ...
ROW 17 : C#4 0C 6 ... ... : ... .. . ... ... ... ... : ... .. . ... ... : ... .. . ... ... : ... .. . ...
ROW 18 : A#3 0C 7 ... ... : --- .. . ... ... ... ... : C-4 01 . ... ... : E-# 02 F ... ... : ... .. . ...
ROW 19 : C#4 0C 8 ... ... : ... .. . ... ... ... ... : ... .. . ... ... : ... .. . ... ... : ... .. . ...
ROW 1A : A#3 0C 9 ... ... : ... .. . ... ... ... ... : F-5 03 . ... ... : ... .. . ... ... : ... .. . ...
ROW 1B : C#4 0C A S02 ... : ... .. . ... ... ... ... : ... .. . ... ... : ... .. . ... ... : ... .. . ...
ROW 1C : D#3 07 8 ... ... : A#1 05 . ... ... ... ... : A#5 03 . ... ... : D-# 06 A ... ... : ... .. . ...
ROW 1D : ... .. . ... ... : ... .. . ... ... ... ... : ... .. . ... ... : ... .. . ... ... : ... .. . ...
ROW 1E : ... .. . ... ... : ... .. . ... ... ... ... : C#5 03 . ... ... : ... .. . ... ... : ... .. . ...
ROW 1F : ... .. . ... ... : ... .. . ... ... ... ... : ... .. . ... ... : ... .. . ... ... : ... .. . ...
ROW 20 : ... .. 6 ... ... : ... .. . 2A0 ... ... ... : C-4 01 . ... ... : D-# 00 A ... ... : ... .. . ...
ROW 21 : ... .. . ... ... : ... .. . ... ... ... ... : ... .. . ... ... : ... .. . ... ... : ... .. . ...
ROW 22 : ... .. . ... ... : ... .. . ... ... ... ... : D#5 03 . ... ... : ... .. . ... ... : ... .. . ...
ROW 23 : ... .. . ... ... : --- .. . 200 ... ... ... : ... .. . ... ... : ... .. . ... ... : ... .. . ...
ROW 24 : ... .. 4 ... ... : ... .. . ... ... ... ... : G-5 03 . ... ... : D-# 00 A ... ... : ... .. . ...
ROW 25 : ... .. . ... ... : ... .. . ... ... ... ... : ... .. . ... ... : ... .. . ... ... : ... .. . ...
ROW 26 : ... .. . ... ... : ... .. . ... ... ... ... : D#5 03 . ... ... : ... .. . ... ... : ... .. . ...
ROW 27 : ... .. . ... ... : ... .. . ... ... ... ... : ... .. . ... ... : ... .. . ... ... : ... .. . ...
ROW 28 : ... .. 2 ... ... : D#3 0B . ... ... ... ... : C-4 01 . ... ... : E-# 02 F ... ... : ... .. . ...
ROW 29 : ... .. . ... ... : ... .. . ... ... ... ... : ... .. . ... ... : ... .. . ... ... : ... .. . ...
ROW 2A : ... .. . ... ... : ... .. . ... ... ... ... : A#4 03 . ... ... : ... .. . ... ... : ... .. . ...
ROW 2B : ... .. . ... ... : ... .. . ... ... ... ... : ... .. . ... ... : ... .. . ... ... : ... .. . ...
ROW 2C : ... .. 1 ... ... : F-1 05 . ... ... ... ... : D#5 03 . ... ... : D-# 06 A ... ... : ... .. . ...
ROW 2D : ... .. . ... ... : ... .. . ... ... ... ... : ... .. . ... ... : ... .. . ... ... : ... .. . ...
ROW 2E : ... .. . ... ... : ... .. . ... ... ... ... : A#4 03 . ... ... : ... .. . ... ... : ... .. . ...
ROW 2F : ... .. . ... ... : ... .. . ... ... ... ... : ... .. . ... ... : ... .. . ... ... : ... .. . ...
ROW 30 : D#3 0D 6 ... ... : D#1 05 . ... ... ... ... : C-4 01 . ... ... : D-# 00 A ... ... : ... .. . ...
ROW 31 : ... .. . ... ... : ... .. . ... ... ... ... : ... .. . ... ... : ... .. . ... ... : ... .. . ...
ROW 32 : F-3 0D 7 ... ... : ... .. . ... ... ... ... : D#5 03 . ... ... : ... .. . ... ... : ... .. . ...
ROW 33 : ... .. . ... ... : ... .. . ... ... S01 ... : ... .. . ... ... : ... .. . ... ... : ... .. . ...
ROW 34 : G-3 0D 8 ... ... : F-1 05 . ... ... ... ... : G-5 03 . ... ... : D-# 00 A ... ... : ... .. . ...
ROW 35 : F-3 0D 1 ... ... : ... .. . ... ... ... ... : ... .. . ... ... : ... .. . ... ... : ... .. . ...
ROW 36 : A#3 0D 9 ... ... : ... .. . ... ... ... ... : A#5 03 . ... ... : ... .. . ... ... : ... .. . ...
ROW 37 : G-3 0D 2 ... ... : ... .. . ... ... S01 ... : ... .. . ... ... : ... .. . ... ... : ... .. . ...
ROW 38 : F-3 0D A ... ... : G#1 05 . ... ... ... ... : C-4 01 . ... ... : E-# 02 F ... ... : ... .. . ...
ROW 39 : A#3 0D 3 ... ... : ... .. . ... ... ... ... : ... .. . ... ... : ... .. . ... ... : ... .. . ...
ROW 3A : G-3 0D B ... ... : ... .. . ... ... ... ... : G-5 03 . ... ... : ... .. . ... ... : ... .. . ...
ROW 3B : F-3 0D 4 ... ... : ... .. . ... ... S01 ... : ... .. . ... ... : ... .. . ... ... : ... .. . ...
ROW 3C : A#3 0D C ... ... : C#2 05 . ... ... ... ... : C-4 01 . ... ... : D-# 00 A ... ... : ... .. . ...
ROW 3D : G-3 0D 5 ... ... : ... .. . ... ... ... ... : ... .. . ... ... : ... .. . ... ... : ... .. . ...
ROW 3E : D#4 0D D ... ... : ... .. . ... ... ... ... : D#6 03 . ... ... : D-# 00 A ... ... : ... .. . ...
ROW 3F : A#3 0D 6 S02 ... : ... .. . ... ... ... ... : ... .. . ... ... : ... .. . ... ... : ... .. . ...

PATTERN 03
ROW 00 : F#3 08 8 ... ... : B-1 05 F ... ... ... ... : E-4 0E . ... ... : 5-# 06 F ... F03 : ... .. . ...
ROW 01 : ... .. . ... ... : ... .. . ... ... ... ... : B-1 05 . ... ... : ... .. . ... F02 : ... .. . ...
ROW 02 : ... .. . ... ... : ... .. . ... ... ... ... : ... .. . ... ... : ... .. . ... F03 : ... .. . ...
ROW 03 : ... .. . ... ... : ... .. . ... ... S01 ... : ... .. . S01 ... : ... .. . ... F02 : ... .. . ...
ROW 04 : ... .. . ... ... : B-0 05 . ... ... ... ... : C-4 01 . ... ... : 9-# 06 F ... F03 : ... .. . ...
ROW 05 : ... .. . ... ... : ... .. . ... ... ... ... : B-0 05 . ... ... : --- .. . ... F02 : ... .. . ...
ROW 06 : F#2 07 8 ... ... : ... .. . ... ... ... ... : C-4 01 . ... ... : 9-# 06 5 ... F03 : ... .. . ...
ROW 07 : ... .. . ... ... : ... .. . ... ... S01 ... : ... .. . S01 ... : --- .. . ... F02 : ... .. . ...
ROW 08 : ... .. . ... ... : B-0 05 . ... ... ... ... : C-4 01 . ... ... : 9-# 06 5 ... F03 : ... .. . ...
ROW 09 : ... .. . ... ... : ... .. . ... ... ... ... : B-0 05 . ... ... : --- .. . ... F02 : ... .. . ...
ROW 0A : ... .. . ... ... : ... .. . ... ... ... ... : C-4 01 . ... ... : 9-# 00 A ... F03 : ... .. . ...
ROW 0B : ... .. . ... ... : ... .. . ... ... S01 ... : ... .. . S01 ... : --- .. . ... F02 : ... .. . ...
ROW 0C : B-3 04 A ... ... : B-1 05 . ... ... ... ... : E-4 0E . ... ... : 5-# 06 F ... F03 : ... .. . ...
ROW 0D : ... .. . ... ... : ... .. . ... ... ... ... : B-1 05 . ... ... : ... .. . ... F02 : ... .. . ...
ROW 0E : ... .. . ... ... : ... .. . ... ... ... ... : ... .. . ... ... : ... .. . ... F03 : ... .. . ...
ROW 0F : ... .. . ... ... : ... .. . ... ... S01 ... : ... .. . S01 ... : --- .. . ... F02 : ... .. . ...
ROW 10 : D#3 06 . ... ... : B-0 05 . ... ... ... ... : C-4 01 . ... ... : 7-# 06 A ... F03 : ... .. . ...
ROW 11 : ... .. . ... ... : ... .. . ... ... ... ... : B-0 05 . ... ... : --- .. . ... F02 : ... .. . ...
ROW 12 : F#3 06 . ... ... : ... .. . ... ... ... ... : ... .. . ... ... : 7-# 06 5 ... F03 : ... .. . ...
ROW 13 : ... .. . ... ... : ... .. . ... ... S01 ... : ... .. . S01 ... : --- .. . ... F02 : ... .. . ...
ROW 14 : B-3 06 . ... ... : B-0 05 . ... ... ... ... : C-4 01 . ... ... : 7-# 06 5 ... F03 : ... .. . ...
ROW 15 : ... .. . ... ... : ... .. . ... ... ... ... : B-0 05 . ... ... : --- .. . ... F02 : ... .. . ...
ROW 16 : D#4 06 . ... ... : ... .. . ... ... ... ... : ... .. . ... ... : 7-# 00 A ... F03 : ... .. . ...
ROW 17 : ... .. . ... ... : ... .. . ... ... S01 ... : ... .. . S01 ... : --- .. . ... F02 : ... .. . ...
ROW 18 : F-3 0A F ... ... : D#5 0C A ... ... ... ... : E-4 0E . ... ... : 5-# 05 F ... F03 : ... .. . ...
ROW 19 : ... .. . ... ... : ... .. . ... ... ... ... : F-1 05 . ... ... : ... .. . ... F02 : ... .. . ...
ROW 1A : ... .. . ... ... : D#5 0C 6 ... ... ... ... : ... .. . ... ... : ... .. . ... F03 : ... .. . ...
ROW 1B : ... .. . ... ... : ... .. . ... ... ... ... : ... .. . ... ... : ... .. . ... F02 : ... .. . ...
ROW 1C : ... .. . ... ... : C-5 0C A ... ... ... ... : ... .. . 10A ... : ... .. 8 101 F03 : ... .. . ...
ROW 1D : ... .. . ... ... : ... .. . ... ... ... ... : ... .. . ... ... : ... .. . ... F02 : ... .. . ...
ROW 1E : ... .. . ... ... : C-5 0C 6 ... ... ... ... : ... .. . ... ... : ... .. . ... F03 : ... .. . ...
ROW 1F : ... .. . ... ... : ... .. . ... ... ... ... : ... .. . ... ... : ... .. . ... F02 : ... .. . ...
ROW 20 : F-3 0A A ... ... : A#4 0C A ... ... ... ... : ... .. . ... ... : ... .. . ... F03 : ... .. . ...
ROW 21 : ... .. . ... ... : ... .. . ... ... ... ... : ... .. . ... ... : ... .. . ... F02 : ... .. . ...
ROW 22 : ... .. . ... ... : A#4 0C 6 ... ... ... ... : ... .. . ... ... : 5-# 05 9 ... F03 : ... .. . ...
ROW 23 : ... .. . ... ... : ... .. . ... ... ... ... : ... .. . ... ... : ... .. . ... F02 : ... .. . ...
ROW 24 : ... .. . ... ... : A-4 0C A ... ... ... ... : ... .. . ... ... : ... .. . ... F03 : ... .. . ...
ROW 25 : ... .. . ... ... : ... .. . ... ... ... ... : ... .. . ... ... : ... .. . ... F02 : ... .. . ...
ROW 26 : ... .. . ... ... : A-4 0C 6 ... ... ... ... : ... .. . ... ... : ... .. 3 101 F03 : ... .. . ...
ROW 27 : ... .. . ... ... : ... .. . ... ... ... ... : ... .. . ... ... : ... .. . ... F02 : ... .. . ...
ROW 28 : F-3 0A 6 ... ... : F-4 0C A ... ... ... ... : ... .. . ... ... : ... .. . ... F03 : ... .. . ...
ROW 29 : ... .. . ... ... : ... .. . ... ... ... ... : ... .. . ... ... : ... .. . ... F02 : ... .. . ...
ROW 2A : ... .. . ... ... : F-4 0C 6 ... ... ... ... : ... .. . ... ... : ... .. . ... F03 : ... .. . ...
ROW 2B : ... .. . ... ... : ... .. . ... ... ... ... : ... .. . ... ... : ... .. . ... F02 : ... .. . ...
ROW 2C : ... .. . ... ... : D#4 0C A ... ... ... ... : ... .. . ... ... : 5-# 05 4 ... F03 : ... .. . ...
ROW 2D : ... .. . ... ... : ... .. . ... ... ... ... : ... .. . ... ... : ... .. . ... F02 : ... .. . ...
ROW 2E : ... .. . ... ... : D#4 0C 6 ... ... ... ... : ... .. . ... ... : ... .. . ... F03 : ... .. . ...
ROW 2F : ... .. . ... ... : ... .. . ... ... ... ... : ... .. . ... ... : ... .. . ... F02 : ... .. . ...
ROW 30 : F-3 0A 4 ... ... : C-4 0C A ... ... ... ... : ... .. . ... ... : ... .. 1 101 F03 : ... .. . ...
ROW 31 : ... .. . ... ... : ... .. . ... ... ... ... : ... .. . ... ... : ... .. . ... F02 : ... .. . ...
ROW 32 : ... .. . ... ... : C-4 0C 6 ... ... ... ... : ... .. . ... ... : ... .. . ... F03 : ... .. . ...
ROW 33 : ... .. . ... ... : ... .. . ... ... ... ... : ... .. . ... ... : ... .. . ... F02 : ... .. . ...
ROW 34 : ... .. . ... ... : A-3 0C A ... ... ... ... : ... .. . ... ... : --- .. . ... F03 : ... .. . ...
ROW 35 : ... .. . ... ... : ... .. . ... ... ... ... : ... .. . ... ... : ... .. . ... F02 : ... .. . ...
ROW 36 : ... .. . ... ... : A-3 0C 6 ... ... ... ... : ... .. . ... ... : ... .. . ... F03 : ... .. . ...
ROW 37 : ... .. . ... ... : ... .. . ... ... ... ... : ... .. . ... ... : ... .. . ... F02 : ... .. . ...
ROW 38 : ... .. . ... ... : F-3 0C A ... ... ... ... : ... .. . ... ... : A-# 00 5 100 F03 : ... .. . ...
ROW 39 : ... .. . ... ... : ... .. . ... ... ... ... : ... .. . ... ... : ... .. . ... F02 : ... .. . ...
ROW 3A : ... .. . ... ... : F-3 0C 6 ... ... ... ... : ... .. . ... ... : 8-# 00 8 ... F03 : ... .. . ...
ROW 3B : ... .. . ... ... : ... .. . ... ... ... ... : ... .. . ... ... : ... .. . ... F02 : ... .. . ...
ROW 3C : ... .. . ... ... : C-3 0C A ... ... ... ... : ... .. . ... ... : 6-# 00 A ... F03 : ... .. . ...
ROW 3D : ... .. . ... ... : ... .. . ... ... ... ... : ... .. . ... ... : ... .. . ... F02 : ... .. . ...
ROW 3E : ... .. . ... ... : C-3 0C 6 ... ... ... ... : ... .. . ... ... : 4-# 00 A ... F03 : ... .. . ...
ROW 3F : ... .. . ... ... : ... .. . ... ... ... ... : --- .. . ... ... : --- .. . ... F02 : ... .. . B00

PATTERN 04
ROW 00 : A#4 10 . ... ... : A#3 0B A ... ... ... ... : C-4 01 . 100 ... : D-# 06 F 100 F03 : ... .. . ...
ROW 01 : ... .. . ... ... : ... .. . ... ... ... ... : A#2 05 . ... ... : ... .. . ... F02 : ... .. . ...
ROW 02 : ... .. . ... 220 : ... .. . ... ... ... ... : ... .. . ... ... : ... .. . ... F03 : ... .. . ...
ROW 03 : ... .. . ... ... : ... .. . ... ... ... ... : ... .. . ... ... : --- .. . ... F02 : ... .. . ...
ROW 04 : F-3 10 F ... 200 : A#2 11 A ... ... ... ... : ... .. . 220 ... : D-# 00 5 ... F03 : ... .. . ...
ROW 05 : ... .. . S01 ... : ... .. . ... ... ... ... : ... .. . ... ... : ... .. . ... F02 : ... .. . ...
ROW 06 : F-3 12 6 ... ... : ... .. . ... ... ... ... : ... .. . ... ... : D-# 00 A ... F03 : ... .. . ...
ROW 07 : ... .. . S01 ... : ... .. . ... ... ... ... : --- .. . ... ... : ... .. . ... F02 : ... .. . ...
ROW 08 : E-3 10 F ... ... : G#3 0C A ... ... ... ... : C-5 0E . ... ... : E-# 02 F ... F03 : ... .. . ...
ROW 09 : ... .. . S01 ... : G#3 0C 4 ... ... ... ... : G#3 0C . 200 ... : ... .. . ... F02 : ... .. . ...
ROW 0A : E-3 12 6 ... ... : A#3 0C A ... ... ... ... : ... .. . ... ... : ... .. . ... F03 : ... .. . ...
ROW 0B : ... .. . S01 ... : A#3 0C 4 ... ... ... ... : --- .. . ... ... : ... .. . ... F02 : ... .. . ...
ROW 0C : F-3 10 F ... ... : --- .. . ... ... ... ... : D#2 0C . ... ... : D-# 06 F ... F03 : ... .. . ...
ROW 0D : ... .. . S01 ... : ... .. . ... ... ... ... : --- .. . ... ... : ... .. . ... F02 : ... .. . ...
ROW 0E : F-3 12 6 ... ... : ... .. . ... ... ... ... : ... .. . ... ... : ... .. . ... F03 : ... .. . ...
ROW 0F : ... .. . S01 ... : ... .. . ... ... ... ... : ... .. . ... ... : ... .. . ... F02 : ... .. . ...
ROW 10 : A#3 10 F ... ... : G#3 0D A ... ... ... ... : C-4 01 . ... ... : D-# 00 F ... F03 : ... .. . ...
ROW 11 : ... .. . S01 ... : ... .. . ... ... ... ... : F-3 05 . ... ... : --- .. . ... F02 : ... .. . ...
ROW 12 : A#3 12 6 ... ... : G#3 0C 4 ... ... ... ... : ... .. . ... ... : B-# 00 5 ... F03 : ... .. . ...
ROW 13 : ... .. . S01 ... : ... .. . ... ... ... ... : --- .. . ... ... : --- .. . ... F02 : ... .. . ...
ROW 14 : G#3 10 F ... ... : D-3 0D A ... ... ... ... : C-4 01 . ... ... : D-# 06 F ... F03 : ... .. . ...
ROW 15 : ... .. . S01 ... : ... .. . ... ... ... ... : C#3 05 . ... ... : ... .. . ... F02 : ... .. . ...
ROW 16 : G#3 12 6 ... ... : D-3 0C 4 ... ... ... ... : ... .. . ... ... : ... .. . ... F03 : ... .. . ...
ROW 17 : ... .. . S01 ... : ... .. . ... ... ... ... : --- .. . ... ... : ... .. . ... F02 : ... .. . ...
ROW 18 : F-3 10 F ... ... : G#3 0D A ... ... ... ... : C-5 0E . ... ... : E-# 02 F ... F03 : ... .. . ...
ROW 19 : ... .. . S01 ... : ... .. . ... ... ... ... : A#2 12 . ... ... : ... .. . ... F02 : ... .. . ...
ROW 1A : F-3 12 6 ... ... : G#3 0C 4 ... ... ... ... : --- .. . ... ... : ... .. . ... F03 : ... .. . ...
ROW 1B : ... .. . S01 ... : ... .. . ... ... ... ... : ... .. . ... ... : ... .. . ... F02 : ... .. . ...
ROW 1C : A#2 10 F ... ... : D#3 0B A ... ... ... ... : C-4 01 . ... ... : D-# 06 F ... F03 : ... .. . ...
ROW 1D : ... .. . S01 ... : ... .. . ... ... ... ... : D-3 12 . ... ... : ... .. . ... F02 : ... .. . ...
ROW 1E : A#2 12 6 ... ... : ... .. . ... ... ... ... : D#3 12 . ... ... : --- .. . ... F03 : ... .. . ...
ROW 1F : ... .. . S01 ... : ... .. . ... ... ... ... : --- .. . ... ... : ... .. . ... F02 : ... .. . ...
ROW 20 : C#3 10 F ... ... : ... .. . ... ... ... ... : D#2 03 . ... ... : D-# 00 F ... F03 : ... .. . ...
ROW 21 : ... .. . S01 ... : ... .. . ... ... ... ... : ... .. . ... ... : ... .. . ... F02 : ... .. . ...
ROW 22 : C#3 12 6 ... ... : ... .. . ... ... ... ... : ... .. . ... ... : B-# 00 5 ... F03 : ... .. . ...
ROW 23 : ... .. . S01 ... : ... .. . ... ... ... ... : ... .. . ... ... : ... .. . ... F02 : ... .. . ...
ROW 24 : D#3 10 F ... ... : D#2 11 A ... ... ... ... : C-4 01 . ... ... : D-# 06 F ... F03 : ... .. . ...
ROW 25 : ... .. . S01 ... : ... .. . ... ... ... ... : D#2 05 . ... ... : ... .. . ... F02 : ... .. . ...
ROW 26 : D#3 12 6 ... ... : ... .. . ... ... ... ... : ... .. . ... ... : ... .. . ... F03 : ... .. . ...
ROW 27 : ... .. . S01 ... : ... .. . ... ... ... ... : ... .. . ... ... : ... .. . ... F02 : ... .. . ...
ROW 28 : F-3 10 F ... ... : C#3 0C A ... ... ... ... : ... .. . 210 ... : E-# 02 F ... F03 : ... .. . ...
ROW 29 : ... .. . S01 ... : C#3 0C 4 ... ... ... ... : ... .. . ... ... : ... .. . ... F02 : ... .. . ...
ROW 2A : F-3 12 6 ... ... : D#3 0C A ... ... ... ... : ... .. . ... ... : ... .. . ... F03 : ... .. . ...
ROW 2B : ... .. . S01 ... : D#3 0C 4 ... ... ... ... : ... .. . ... ... : ... .. . ... F02 : ... .. . ...
ROW 2C : C#3 10 F ... ... : --- .. . ... ... ... ... : D#3 05 . 200 ... : D-# 06 F ... F03 : ... .. . ...
ROW 2D : ... .. . S01 ... : ... .. . ... ... ... ... : --- .. . ... ... : ... .. . ... F02 : ... .. . ...
ROW 2E : C#3 12 6 ... ... : ... .. . ... ... ... ... : ... .. . ... ... : ... .. . ... F03 : ... .. . ...
ROW 2F : ... .. . S01 ... : ... .. . ... ... ... ... : ... .. . ... ... : ... .. . ... F02 : ... .. . ...
ROW 30 : --- .. . ... ... : D#3 0C A ... ... ... ... : C-4 01 . ... ... : D-# 00 F ... F03 : ... .. . ...
ROW 31 : ... .. . ... ... : D#3 0C 4 ... ... ... ... : G#1 05 . ... ... : ... .. . ... F02 : ... .. . ...
ROW 32 : ... .. . ... ... : G-3 0C A ... ... ... ... : ... .. . ... ... : B-# 00 5 ... F03 : ... .. . ...
ROW 33 : ... .. . ... ... : G-3 0C 4 ... ... ... ... : ... .. . ... ... : ... .. . ... F02 : ... .. . ...
ROW 34 : A#2 10 F ... ... : G-3 13 A ... ... ... ... : G#2 05 . 380 ... : D-# 06 F ... F03 : ... .. . ...
ROW 35 : ... .. . S01 ... : ... .. . ... ... ... ... : ... .. . ... ... : ... .. . ... F02 : ... .. . ...
ROW 36 : A#2 12 6 ... ... : ... .. . ... ... ... ... : ... .. . ... ... : ... .. . ... F03 : ... .. . ...
ROW 37 : ... .. . S01 ... : ... .. . ... ... ... ... : ... .. . ... ... : ... .. . ... F02 : ... .. . ...
ROW 38 : G#2 10 F ... ... : G-3 0C A ... ... ... ... : C-5 0E . 300 ... : E-# 02 F ... F03 : ... .. . ...
ROW 39 : ... .. . S01 ... : G-3 0C 4 ... ... ... ... : A-1 05 . ... ... : ... .. . ... F02 : ... .. . ...
ROW 3A : G#2 12 6 ... ... : A#3 0C A ... ... ... ... : ... .. . ... ... : ... .. . ... F03 : ... .. . ...
ROW 3B : ... .. . S01 ... : G#3 0C 4 ... ... ... ... : ... .. . ... ... : ... .. . ... F02 : ... .. . ...
ROW 3C : A#2 10 F ... ... : D#4 11 A ... ... ... ... : C-4 01 . ... ... : D-# 06 F ... F03 : ... .. . ...
ROW 3D : ... .. . S01 ... : ... .. . ... ... ... ... : A-2 05 . S01 ... : --- .. . ... F02 : ... .. . ...
ROW 3E : A#2 12 6 ... ... : ... .. . ... ... ... ... : A-2 05 . ... ... : D-# 06 F ... F03 : ... .. . ...
ROW 3F : ... .. . S01 ... : ... .. . ... ... ... ... : ... .. . S01 ... : ... .. . ... F02 : ... .. . ...

PATTERN 05
ROW 00 : A#2 10 6 ... ... : ... .. . ... ... ... ... : C-4 01 . 100 ... : D-# 06 F 100 F03 : ... .. . ...
ROW 01 : ... .. . S01 ... : ... .. . ... ... ... ... : A#2 05 . ... ... : ... .. . ... F02 : ... .. . ...
ROW 02 : A#2 12 2 ... ... : ... .. . ... ... ... ... : ... .. . ... ... : ... .. . ... F03 : ... .. . ...
ROW 03 : ... .. . S01 ... : ... .. . ... ... ... ... : ... .. . ... ... : --- .. . ... F02 : ... .. . ...
ROW 04 : G-3 12 8 ... ... : A#2 11 A ... ... ... ... : ... .. . 220 ... : D-# 00 5 ... F03 : ... .. . ...
ROW 05 : G#3 10 . ... ... : ... .. . ... ... ... ... : ... .. . ... ... : ... .. . ... F02 : ... .. . ...
ROW 06 : --- .. . ... ... : --- .. . ... ... ... ... : ... .. . ... ... : D-# 00 A ... F03 : ... .. . ...
ROW 07 : ... .. . ... ... : ... .. . ... ... ... ... : --- .. . ... ... : ... .. . ... F02 : ... .. . ...
ROW 08 : D-3 10 . ... ... : G#3 0C A ... ... ... ... : C-5 0E . ... ... : E-# 02 F ... F03 : ... .. . ...
ROW 09 : ... .. . ... ... : G#3 0C 4 ... ... ... ... : F-3 0C . 200 ... : ... .. . ... F02 : ... .. . ...
ROW 0A : ... .. . 4AA ... : A#3 0C A ... ... ... ... : ... .. . ... ... : ... .. . ... F03 : ... .. . ...
ROW 0B : ... .. . S01 ... : A#3 0C 4 ... ... ... ... : --- .. . ... ... : ... .. . ... F02 : ... .. . ...
ROW 0C : A#2 12 . 400 ... : --- .. . ... ... ... ... : D#2 0C . ... ... : D-# 06 F ... F03 : ... .. . ...
ROW 0D : ... .. . ... ... : ... .. . ... ... ... ... : --- .. . ... ... : ... .. . ... F02 : ... .. . ...
ROW 0E : ... .. . 220 ... : ... .. . ... ... ... ... : ... .. . ... ... : ... .. . ... F03 : ... .. . ...
ROW 0F : ... .. . S01 ... : ... .. . ... ... ... ... : ... .. . ... ... : ... .. . ... F02 : ... .. . ...
ROW 10 : G-3 12 . 200 ... : A#2 11 A ... ... ... ... : C-4 01 . ... ... : D-# 00 F ... F03 : ... .. . ...
ROW 11 : G#3 10 . ... ... : ... .. . ... ... ... ... : G#2 12 . S01 ... : --- .. . ... F02 : ... .. . ...
ROW 12 : ... .. . ... ... : ... .. . ... ... ... ... : G#2 12 . ... ... : B-# 00 5 ... F03 : ... .. . ...
ROW 13 : --- .. . ... ... : --- .. . ... ... ... ... : --- .. . ... ... : --- .. . ... F02 : ... .. . ...
ROW 14 : D-3 10 . ... ... : D-3 0D A ... ... ... ... : C-4 01 . ... ... : D-# 06 F ... F03 : ... .. . ...
ROW 15 : ... .. . ... ... : ... .. . ... ... ... ... : A#2 12 . S01 ... : ... .. . ... F02 : ... .. . ...
ROW 16 : --- .. . ... ... : D-3 0C 4 ... ... ... ... : A#2 12 . ... ... : ... .. . ... F03 : ... .. . ...
ROW 17 : ... .. . ... ... : ... .. . ... ... ... ... : ... .. . ... ... : ... .. . ... F02 : ... .. . ...
ROW 18 : ... .. . ... ... : G#3 0D A ... ... ... ... : C-5 0E . ... ... : E-# 02 F ... F03 : ... .. . ...
ROW 19 : ... .. . ... ... : ... .. . ... ... ... ... : D#2 12 . S01 ... : ... .. . ... F02 : ... .. . ...
ROW 1A : ... .. . ... ... : G#3 0C 4 ... ... ... ... : D#2 12 . ... ... : ... .. . ... F03 : ... .. . ...
ROW 1B : ... .. . ... ... : ... .. . ... ... ... ... : --- .. . ... ... : ... .. . ... F02 : ... .. . ...
ROW 1C : F#3 12 . ... ... : D#3 11 A ... ... ... ... : C-4 01 . ... ... : D-# 06 F ... F03 : ... .. . ...
ROW 1D : G-3 10 . ... ... : ... .. . ... ... ... ... : D#3 12 . ... ... : ... .. . ... F02 : ... .. . ...
ROW 1E : --- .. . ... ... : --- .. . ... ... ... ... : ... .. . ... ... : ... .. . ... F03 : ... .. . ...
ROW 1F : ... .. . ... ... : ... .. . ... ... ... ... : ... .. . 103 ... : ... .. . ... F02 : ... .. . ...
ROW 20 : C#3 10 . ... ... : ... .. . ... ... ... ... : D#2 03 . 100 ... : D-# 00 F ... F03 : ... .. . ...
ROW 21 : ... .. . ... ... : ... .. . ... ... ... ... : ... .. . ... ... : ... .. . ... F02 : ... .. . ...
ROW 22 : ... .. . 210 ... : ... .. . ... ... ... ... : ... .. . ... ... : B-# 00 5 ... F03 : ... .. . ...
ROW 23 : ... .. . S01 ... : ... .. . ... ... ... ... : ... .. . ... ... : ... .. . ... F02 : ... .. . ...
ROW 24 : A#2 10 . 200 ... : A#3 0D A ... ... ... ... : C-4 01 . ... ... : D-# 06 F ... F03 : ... .. . ...
ROW 25 : ... .. . S01 ... : ... .. . ... ... ... ... : D#3 12 . ... ... : ... .. . ... F02 : ... .. . ...
ROW 26 : A#2 10 . ... ... : A#3 0C 4 ... ... ... ... : ... .. . ... ... : ... .. . ... F03 : ... .. . ...
ROW 27 : ... .. . S01 ... : ... .. . ... ... ... ... : --- .. . ... ... : ... .. . ... F02 : ... .. . ...
ROW 28 : G-3 12 . ... ... : F-3 0C A ... ... ... ... : C#3 12 . ... ... : E-# 02 F ... F03 : ... .. . ...
ROW 29 : ... .. . S01 ... : F-3 0C 4 ... ... ... ... : ... .. . ... ... : ... .. . ... F02 : ... .. . ...
ROW 2A : G-3 12 . ... ... : G-3 0C A ... ... ... ... : ... .. . ... ... : ... .. . ... F03 : ... .. . ...
ROW 2B : ... .. . S01 ... : G-3 0C 4 ... ... ... ... : ... .. . ... ... : ... .. . ... F02 : ... .. . ...
ROW 2C : C#3 12 . ... ... : --- .. . ... ... ... ... : ... .. . 210 ... : D-# 06 F ... F03 : ... .. . ...
ROW 2D : ... .. . ... ... : ... .. . ... ... ... ... : ... .. . ... ... : ... .. . ... F02 : ... .. . ...
ROW 2E : ... .. . ... ... : ... .. . ... ... ... ... : ... .. . ... ... : ... .. . ... F03 : ... .. . ...
ROW 2F : ... .. . ... ... : ... .. . ... ... ... ... : ... .. . ... ... : ... .. . ... F02 : ... .. . ...
ROW 30 : ... .. . 4AA 103 : G-3 0C A ... ... ... ... : C-4 01 . 200 ... : D-# 00 F ... F03 : ... .. . ...
ROW 31 : ... .. . ... ... : G-3 0C 4 ... ... ... ... : G#1 05 . ... ... : ... .. . ... F02 : ... .. . ...
ROW 32 : ... .. . ... ... : A#3 0C A ... ... ... ... : ... .. . ... ... : B-# 00 5 ... F03 : ... .. . ...
ROW 33 : ... .. . ... ... : A#3 0C 4 ... ... ... ... : ... .. . ... ... : ... .. . ... F02 : ... .. . ...
ROW 34 : ... .. . ... ... : G-3 13 A ... ... ... ... : G#2 05 . 380 ... : D-# 06 F ... F03 : ... .. . ...
ROW 35 : ... .. . ... ... : ... .. . ... ... ... ... : ... .. . ... ... : ... .. . ... F02 : ... .. . ...
ROW 36 : ... .. . ... ... : ... .. . ... ... ... ... : ... .. . ... ... : ... .. . ... F03 : ... .. . ...
ROW 37 : ... .. . ... ... : ... .. . ... ... ... ... : ... .. . ... ... : ... .. . ... F02 : ... .. . ...
ROW 38 : ... .. . ... ... : A#3 0C A ... ... ... ... : C-5 0E . 300 ... : E-# 02 F ... F03 : ... .. . ...
ROW 39 : ... .. . ... ... : A#3 0C 4 ... ... ... ... : A-1 05 . ... ... : ... .. . ... F02 : ... .. . ...
ROW 3A : ... .. . ... ... : C#4 0C A ... ... ... ... : ... .. . ... ... : ... .. . ... F03 : ... .. . ...
ROW 3B : ... .. . ... ... : C#4 0C 4 ... ... ... ... : ... .. . ... ... : ... .. . ... F02 : ... .. . ...
ROW 3C : ... .. . ... ... : D#4 11 A ... ... ... ... : C-4 01 . ... ... : D-# 06 F ... F03 : ... .. . ...
ROW 3D : ... .. . ... ... : ... .. . ... ... ... ... : A-2 05 . S01 ... : --- .. . ... F02 : ... .. . ...
ROW 3E : ... .. . ... ... : ... .. . ... ... ... ... : A-2 05 . ... ... : D-# 06 F ... F03 : ... .. . ...
ROW 3F : ... .. . ... ... : ... .. . ... ... ... ... : ... .. . S01 ... : ... .. . ... F02 : ... .. . ...

PATTERN 06
ROW 00 : --- .. . 400 100 : A#3 0B A ... ... ... ... : C-4 01 . 100 ... : D-# 06 F 100 F03 : ... .. . ...
ROW 01 : ... .. . ... ... : ... .. . ... ... ... ... : A#2 05 . ... ... : ... .. . ... F02 : ... .. . ...
ROW 02 : ... .. . ... ... : ... .. . ... ... ... ... : ... .. . ... ... : ... .. . ... F03 : ... .. . ...
ROW 03 : ... .. . ... ... : ... .. . ... ... ... ... : ... .. . ... ... : --- .. . ... F02 : ... .. . ...
ROW 04 : F-3 10 F ... 200 : A#2 11 A ... ... ... ... : ... .. . 220 ... : D-# 00 5 ... F03 : ... .. . ...
ROW 05 : ... .. . S01 ... : ... .. . ... ... ... ... : ... .. . ... ... : ... .. . ... F02 : ... .. . ...
ROW 06 : F-3 12 6 ... ... : ... .. . ... ... ... ... : ... .. . ... ... : D-# 00 F ... F03 : ... .. . ...
ROW 07 : ... .. . S01 ... : ... .. . ... ... ... ... : --- .. . ... ... : ... .. . ... F02 : ... .. . ...
ROW 08 : E-3 10 F ... ... : G#3 0C A ... ... ... ... : C-5 0E . ... ... : E-# 02 F ... F03 : ... .. . ...
ROW 09 : ... .. . S01 ... : G#3 0C 4 ... ... ... ... : G#3 0C . 200 ... : ... .. . ... F02 : ... .. . ...
ROW 0A : E-3 12 6 ... ... : A#3 0C A ... ... ... ... : ... .. . ... ... : ... .. . ... F03 : ... .. . ...
ROW 0B : ... .. . S01 ... : A#3 0C 4 ... ... ... ... : --- .. . ... ... : ... .. . ... F02 : ... .. . ...
ROW 0C : F-3 10 F ... ... : --- .. . ... ... ... ... : D#2 0C . ... ... : D-# 06 F ... F03 : ... .. . ...
ROW 0D : ... .. . S01 ... : ... .. . ... ... ... ... : --- .. . ... ... : ... .. . ... F02 : ... .. . ...
ROW 0E : F-3 12 6 ... ... : ... .. . ... ... ... ... : ... .. . ... ... : ... .. . ... F03 : ... .. . ...
ROW 0F : ... .. . S01 ... : ... .. . ... ... ... ... : ... .. . ... ... : ... .. . ... F02 : ... .. . ...
ROW 10 : A#3 10 F ... ... : G#3 0D A ... ... ... ... : C-4 01 . ... ... : D-# 00 F ... F03 : ... .. . ...
ROW 11 : ... .. . S01 ... : ... .. . ... ... ... ... : F-3 05 . ... ... : --- .. . ... F02 : ... .. . ...
ROW 12 : A#3 12 6 ... ... : G#3 0C 4 ... ... ... ... : ... .. . ... ... : B-# 00 5 ... F03 : ... .. . ...
ROW 13 : ... .. . S01 ... : ... .. . ... ... ... ... : --- .. . ... ... : --- .. . ... F02 : ... .. . ...
ROW 14 : G#3 10 F ... ... : D-3 0D A ... ... ... ... : C-4 01 . ... ... : D-# 06 F ... F03 : ... .. . ...
ROW 15 : ... .. . S01 ... : ... .. . ... ... ... ... : G#2 12 . ... ... : ... .. . ... F02 : ... .. . ...
ROW 16 : G#3 12 6 ... ... : D-3 0C 4 ... ... ... ... : ... .. . ... ... : ... .. . ... F03 : ... .. . ...
ROW 17 : ... .. . S01 ... : ... .. . ... ... ... ... : --- .. . ... ... : ... .. . ... F02 : ... .. . ...
ROW 18 : F-3 10 F ... ... : G#3 0D A ... ... ... ... : C-5 0E . ... ... : E-# 02 F ... F03 : ... .. . ...
ROW 19 : ... .. . S01 ... : ... .. . ... ... ... ... : A#2 12 . ... ... : ... .. . ... F02 : ... .. . ...
ROW 1A : F-3 12 6 ... ... : G#3 0C 4 ... ... ... ... : --- .. . ... ... : ... .. . ... F03 : ... .. . ...
ROW 1B : ... .. . S01 ... : ... .. . ... ... ... ... : ... .. . ... ... : ... .. . ... F02 : ... .. . ...
ROW 1C : A#2 10 F ... ... : C#4 0B 8 ... ... ... ... : C-4 01 . ... ... : D-# 06 F ... F03 : ... .. . ...
ROW 1D : ... .. . S01 ... : ... .. . ... ... ... ... : C#3 12 . ... ... : ... .. . ... F02 : ... .. . ...
ROW 1E : A#2 12 6 ... ... : ... .. . ... ... ... ... : ... .. . ... ... : --- .. . ... F03 : ... .. . ...
ROW 1F : ... .. . S01 ... : ... .. . ... ... ... ... : --- .. . ... ... : ... .. . ... F02 : ... .. . ...
ROW 20 : C#3 10 F ... ... : ... .. . ... ... ... ... : D#2 03 . ... ... : D-# 00 F ... F03 : ... .. . ...
ROW 21 : ... .. . S01 ... : ... .. . ... ... ... ... : ... .. . ... ... : ... .. . ... F02 : ... .. . ...
ROW 22 : C#3 12 6 ... ... : ... .. . ... ... ... ... : ... .. . ... ... : B-# 00 5 ... F03 : ... .. . ...
ROW 23 : ... .. . S01 ... : ... .. . ... ... ... ... : ... .. . ... ... : ... .. . ... F02 : ... .. . ...
ROW 24 : D#3 10 F ... ... : C#3 11 A ... ... ... ... : C-4 01 . ... ... : D-# 06 F ... F03 : ... .. . ...
ROW 25 : ... .. . S01 ... : ... .. . ... ... ... ... : C#3 12 . ... ... : ... .. . ... F02 : ... .. . ...
ROW 26 : D#3 12 6 ... ... : ... .. . ... ... ... ... : ... .. . ... ... : ... .. . ... F03 : ... .. . ...
ROW 27 : ... .. . S01 ... : ... .. . ... ... ... ... : ... .. . ... ... : ... .. . ... F02 : ... .. . ...
ROW 28 : F-3 10 F ... ... : D#3 0C A ... ... ... ... : ... .. . 220 ... : D-# 00 F ... F03 : ... .. . ...
ROW 29 : ... .. . S01 ... : D#3 0C 4 ... ... ... ... : ... .. . ... ... : ... .. . ... F02 : ... .. . ...
ROW 2A : F-3 12 6 ... ... : F-3 0C A ... ... ... ... : ... .. . ... ... : B-# 00 5 ... F03 : ... .. . ...
ROW 2B : ... .. . S01 ... : F-3 0C 4 ... ... ... ... : ... .. . ... ... : ... .. . ... F02 : ... .. . ...
ROW 2C : C#3 10 F ... ... : --- .. . ... ... ... ... : C-5 0E . 200 ... : E-# 02 F ... F03 : ... .. . ...
ROW 2D : ... .. . S01 ... : ... .. . ... ... ... ... : A#2 12 . ... ... : ... .. . ... F02 : ... .. . ...
ROW 2E : C#3 12 6 ... ... : ... .. . ... ... ... ... : ... .. . ... ... : ... .. . ... F03 : ... .. . ...
ROW 2F : ... .. . S01 ... : ... .. . ... ... ... ... : ... .. . ... ... : ... .. . ... F02 : ... .. . ...
ROW 30 : --- .. . ... ... : F-3 0C A ... ... ... ... : C-4 01 . ... ... : D-# 00 F ... F03 : ... .. . ...
ROW 31 : ... .. . ... ... : F-3 0C 4 ... ... ... ... : C#3 12 . ... ... : ... .. . ... F02 : ... .. . ...
ROW 32 : ... .. . ... ... : G#3 0C A ... ... ... ... : ... .. . ... ... : B-# 00 5 ... F03 : ... .. . ...
ROW 33 : ... .. . ... ... : G#3 0C 4 ... ... ... ... : ... .. . ... ... : ... .. . ... F02 : ... .. . ...
ROW 34 : G#2 10 F ... ... : F-3 13 A ... ... ... ... : A#2 12 . ... ... : D-# 06 F ... F03 : ... .. . ...
ROW 35 : ... .. . S01 ... : ... .. . ... ... ... ... : ... .. . ... ... : ... .. . ... F02 : ... .. . ...
ROW 36 : G#2 12 6 ... ... : ... .. . ... ... ... ... : ... .. . ... ... : ... .. . ... F03 : ... .. . ...
ROW 37 : ... .. . S01 ... : ... .. . ... ... ... ... : ... .. . ... ... : ... .. . ... F02 : ... .. . ...
ROW 38 : A#2 10 F ... ... : G#3 0C A ... ... ... ... : C-5 0E . ... ... : E-# 02 F ... F03 : ... .. . ...
ROW 39 : ... .. . S01 ... : G#3 0C 4 ... ... ... ... : E-3 12 . ... ... : ... .. . ... F02 : ... .. . ...
ROW 3A : A#2 12 6 ... ... : B-3 0C A ... ... ... ... : F-3 12 . 305 ... : ... .. . ... F03 : ... .. . ...
ROW 3B : ... .. . S01 ... : B-3 0C 4 ... ... ... ... : ... .. . ... ... : ... .. . ... F02 : ... .. . ...
ROW 3C : D#3 10 F ... ... : C#4 11 A ... ... ... ... : C-5 0E F 300 ... : E-# 02 F ... F03 : ... .. . ...
ROW 3D : ... .. . ... ... : ... .. . ... ... ... ... : ... .. . ... ... : --- .. . ... F02 : ... .. . ...
ROW 3E : ... .. 8 ... 220 : ... .. . ... ... ... ... : C-5 0E F ... ... : E-# 02 F ... F03 : ... .. . ...
ROW 3F : ... .. . ... ... : ... .. . ... ... ... ... : ... .. . ... ... : ... .. . ... F02 : ... .. . ...

PATTERN 07
ROW 00 : --- .. . ... 200 : D#3 0B A ... ... ... ... : C-4 01 . 100 ... : D-# 06 F 100 F03 : ... .. . ...
ROW 01 : ... .. . ... ... : ... .. . ... ... ... ... : D#3 05 . ... ... : ... .. . ... F02 : ... .. . ...
ROW 02 : ... .. . ... ... : ... .. . ... ... ... ... : ... .. . ... ... : ... .. . ... F03 : ... .. . ...
ROW 03 : ... .. . ... ... : ... .. . ... ... ... ... : ... .. . ... ... : --- .. . ... F02 : ... .. . ...
ROW 04 : D#3 10 6 ... ... : ... .. . ... ... ... ... : C#4 05 . ... ... : D-# 00 5 ... F03 : ... .. . ...
ROW 05 : ... .. . ... ... : ... .. . ... ... ... ... : ... .. . ... ... : ... .. . ... F02 : ... .. . ...
ROW 06 : ... .. 3 ... 220 : ... .. . ... ... ... ... : G-4 05 . ... ... : D-# 00 F ... F03 : ... .. . ...
ROW 07 : ... .. . ... ... : ... .. . ... ... ... ... : --- .. . ... ... : ... .. . ... F02 : ... .. . ...
ROW 08 : F#3 12 8 ... 200 : D#3 11 A ... ... ... ... : C-5 0E . 400 ... : E-# 02 . ... F03 : ... .. . ...
ROW 09 : G-3 10 . ... ... : ... .. . ... ... ... ... : F-3 05 . 200 ... : ... .. . ... F02 : ... .. . ...
ROW 0A : --- .. . ... ... : --- .. . ... ... ... ... : G-3 05 . ... ... : ... .. . ... F03 : ... .. . ...
ROW 0B : ... .. . ... ... : ... .. . ... ... ... ... : --- .. . ... ... : ... .. . ... F02 : ... .. . ...
ROW 0C : C#3 12 . ... ... : G#3 0C A ... ... ... ... : A#2 05 . ... ... : D-# 06 F ... F03 : ... .. . ...
ROW 0D : ... .. . ... ... : G#3 0C 4 ... ... ... ... : --- .. . ... ... : ... .. . ... F02 : ... .. . ...
ROW 0E : ... .. . 4AA ... : A#3 0C A ... ... ... ... : ... .. . ... ... : ... .. . ... F03 : ... .. . ...
ROW 0F : ... .. . S01 ... : A#3 0C 4 ... ... ... ... : ... .. . ... ... : ... .. . ... F02 : ... .. . ...
ROW 10 : A#2 10 . 400 ... : --- .. . ... ... ... ... : C-4 01 . ... ... : D-# 00 F ... F03 : ... .. . ...
ROW 11 : ... .. . ... ... : ... .. . ... ... ... ... : ... .. . ... ... : --- .. . ... F02 : ... .. . ...
ROW 12 : ... .. . 220 ... : ... .. . ... ... ... ... : ... .. . ... ... : B-# 00 5 ... F03 : ... .. . ...
ROW 13 : ... .. . S01 ... : ... .. . ... ... ... ... : ... .. . ... ... : --- .. . ... F02 : ... .. . ...
ROW 14 : F#3 12 . 200 ... : D#3 11 A ... ... ... ... : C-4 01 . ... ... : D-# 06 F ... F03 : ... .. . ...
ROW 15 : G-3 10 . ... ... : ... .. . ... ... ... ... : D#2 05 . ... ... : ... .. . ... F02 : ... .. . ...
ROW 16 : ... .. . ... ... : ... .. . ... ... ... ... : ... .. . ... ... : ... .. . ... F03 : ... .. . ...
ROW 17 : --- .. . ... ... : --- .. . ... ... ... ... : ... .. . ... ... : ... .. . ... F02 : ... .. . ...
ROW 18 : D#3 10 . ... ... : C#3 0D A ... ... ... ... : C-5 0E . ... ... : B-# 06 . ... F03 : ... .. . ...
ROW 19 : ... .. . ... ... : ... .. . ... ... ... ... : D#2 12 . S01 ... : ... .. . ... F02 : ... .. . ...
ROW 1A : --- .. . ... ... : C#3 0C 4 ... ... ... ... : A#2 05 . ... ... : 8-# 06 . ... F03 : ... .. . ...
ROW 1B : ... .. . ... ... : ... .. . ... ... ... ... : ... .. . ... ... : ... .. . ... F02 : ... .. . ...
ROW 1C : D#2 0A 1 ... ... : G-3 0D A ... ... ... ... : C-4 01 . ... ... : 6-# 06 . ... F03 : ... .. . ...
ROW 1D : ... .. 6 ... ... : ... .. . ... ... ... ... : D#3 05 . ... ... : ... .. . ... F02 : ... .. . ...
ROW 1E : ... .. 7 ... ... : G-3 0C 4 ... ... ... ... : A#3 05 . ... ... : 4-# 06 . ... F03 : ... .. . ...
ROW 1F : --- .. 8 ... ... : ... .. . ... ... ... ... : --- .. . 103 ... : ... .. . ... F02 : ... .. . ...
ROW 20 : A#2 13 F ... ... : F#2 0B F ... ... ... ... : F#2 05 . 100 ... : E-# 02 . ... F03 : ... .. . ...
ROW 21 : ... .. . ... ... : ... .. . ... ... ... ... : ... .. . ... ... : ... .. . ... F02 : ... .. . ...
ROW 22 : ... .. . ... ... : ... .. . ... ... ... ... : ... .. . ... ... : ... .. . ... F03 : ... .. . ...
ROW 23 : --- .. . ... ... : --- .. . ... ... ... ... : --- .. . ... ... : ... .. . ... F02 : ... .. . ...
ROW 24 : A#2 13 F ... ... : F#2 0B F ... ... ... ... : F#1 05 . ... ... : E-# 02 6 ... F03 : ... .. . ...
ROW 25 : ... .. . ... ... : ... .. . ... ... ... ... : ... .. . ... ... : ... .. . ... F02 : ... .. . ...
ROW 26 : ... .. . ... ... : ... .. . ... ... ... ... : ... .. . ... ... : E-# 02 A ... F03 : ... .. . ...
ROW 27 : --- .. . ... ... : --- .. . ... ... ... ... : --- .. . ... ... : E-# 02 C ... F02 : ... .. . ...
ROW 28 : A#3 12 4 ... ... : E-4 12 4 ... ... ... ... : F#4 0B . ... ... : F-# 15 F A04 F03 : ... .. . ...
ROW 29 : ... .. . ... ... : ... .. . ... ... ... ... : ... .. . ... ... : ... .. . ... F02 : ... .. . ...
ROW 2A : ... .. . ... 110 : ... .. . ... ... 110 ... : ... .. . ... ... : ... .. . ... F03 : ... .. . ...
ROW 2B : ... .. . ... ... : ... .. . ... ... ... ... : --- .. . ... ... : ... .. . ... F02 : ... .. . ...
ROW 2C : F#3 0F F ... 100 : D#2 14 F ... ... 100 ... : B-2 05 . ... ... : ... .. . ... F03 : ... .. . ...
ROW 2D : ... .. . ... ... : ... .. . ... ... ... ... : ... .. . ... ... : ... .. . ... F02 : ... .. . ...
ROW 2E : ... .. . ... ... : ... .. . ... ... ... ... : ... .. . ... ... : ... .. . ... F03 : ... .. . ...
ROW 2F : --- .. . ... ... : --- .. . ... ... ... ... : ... .. . ... ... : ... .. . ... F02 : ... .. . ...
ROW 30 : ... .. . ... ... : ... .. . ... ... ... ... : ... .. . 220 ... : E-# 02 F A00 F03 : ... .. . ...
ROW 31 : ... .. . ... ... : ... .. . ... ... ... ... : ... .. . ... ... : ... .. . ... F02 : ... .. . ...
ROW 32 : A-3 13 8 S01 ... : D#2 14 8 S01 ... ... ... : ... .. . ... ... : 6-# 02 8 ... F03 : ... .. . ...
ROW 33 : ... .. . ... ... : ... .. . ... ... ... ... : --- .. . ... ... : ... .. . ... F02 : ... .. . ...
ROW 34 : A-3 13 F ... ... : D#2 14 F ... ... ... ... : F-2 05 . 200 ... : E-# 02 F ... F03 : ... .. . ...
ROW 35 : ... .. . ... ... : ... .. . ... ... ... ... : ... .. . S01 ... : ... .. . ... F02 : ... .. . ...
ROW 36 : ... .. . ... ... : ... .. . ... ... ... ... : F-2 05 . ... ... : ... .. . ... F03 : ... .. . ...
ROW 37 : --- .. . ... ... : --- .. . ... ... ... ... : ... .. . S01 ... : ... .. . ... F02 : ... .. . ...
ROW 38 : ... .. . ... ... : ... .. . ... ... ... ... : G-2 05 . ... ... : A-# 00 5 ... F03 : ... .. . ...
ROW 39 : ... .. . ... ... : ... .. . ... ... ... ... : ... .. . S01 ... : ... .. . ... F02 : ... .. . ...
ROW 3A : D-3 13 8 S01 ... : A#2 0B 8 S01 ... ... ... : G-2 05 . ... ... : 8-# 00 8 ... F03 : ... .. . ...
ROW 3B : ... .. . ... ... : ... .. . ... ... ... ... : ... .. . S01 ... : ... .. . ... F02 : ... .. . ...
ROW 3C : D-3 13 F ... ... : A#2 0B F ... ... ... ... : A#2 05 . ... ... : 6-# 06 F ... F03 : ... .. . ...
ROW 3D : ... .. . ... ... : ... .. . ... ... ... ... : ... .. . ... ... : ... .. . ... F02 : ... .. . ...
ROW 3E : ... .. . ... ... : ... .. . ... ... ... ... : ... .. . ... ... : 4-# 06 F ... F03 : ... .. . ...
ROW 3F : ... .. . ... ... : ... .. . ... ... ... ... : ... .. . 220 ... : ... .. . ... F02 : ... .. . ...

PATTERN 08
ROW 00 : ... .. . ... ... : ... .. . ... ... ... ... : ... .. . ... ... : D-# 06 F 100 F03 : ... .. . ...
ROW 01 : ... .. . ... ... : ... .. . ... ... ... ... : ... .. . ... ... : ... .. . ... F02 : ... .. . ...
ROW 02 : ... .. . ... ... : ... .. . ... ... ... ... : ... .. . ... ... : ... .. . ... F03 : ... .. . ...
ROW 03 : ... .. . ... ... : ... .. . ... ... ... ... : ... .. . ... ... : --- .. . ... F02 : ... .. . ...
ROW 04 : F-3 10 F ... 200 : A#2 11 A ... ... ... ... : ... .. . ... ... : D-# 00 5 ... F03 : ... .. . ...
ROW 05 : ... .. . S01 ... : ... .. . ... ... ... ... : ... .. . ... ... : ... .. . ... F02 : ... .. . ...
ROW 06 : F-3 12 6 ... ... : ... .. . ... ... ... ... : ... .. . ... ... : D-# 00 A ... F03 : ... .. . ...
ROW 07 : ... .. . S01 ... : ... .. . ... ... ... ... : --- .. . ... ... : ... .. . ... F02 : ... .. . ...
ROW 08 : E-3 10 F ... ... : G#3 0C A ... ... ... ... : C-5 0E . ... ... : E-# 02 F ... F03 : ... .. . ...
ROW 09 : ... .. . S01 ... : G#3 0C 4 ... ... ... ... : G#3 0C . 200 ... : ... .. . ... F02 : ... .. . ...
ROW 0A : E-3 12 6 ... ... : A#3 0C A ... ... ... ... : ... .. . ... ... : ... .. . ... F03 : ... .. . ...
ROW 0B : ... .. . S01 ... : A#3 0C 4 ... ... ... ... : --- .. . ... ... : ... .. . ... F02 : ... .. . ...
ROW 0C : F-3 10 F ... ... : --- .. . ... ... ... ... : D#2 0C . ... ... : D-# 06 F ... F03 : ... .. . ...
ROW 0D : ... .. . S01 ... : ... .. . ... ... ... ... : --- .. . ... ... : ... .. . ... F02 : ... .. . ...
ROW 0E : F-3 12 6 ... ... : ... .. . ... ... ... ... : ... .. . ... ... : ... .. . ... F03 : ... .. . ...
ROW 0F : ... .. . S01 ... : ... .. . ... ... ... ... : ... .. . ... ... : ... .. . ... F02 : ... .. . ...
ROW 10 : A#3 10 F ... ... : G#3 0D A ... ... ... ... : C-4 01 . ... ... : D-# 00 F ... F03 : ... .. . ...
ROW 11 : ... .. . S01 ... : ... .. . ... ... ... ... : F-3 05 . ... ... : --- .. . ... F02 : ... .. . ...
ROW 12 : A#3 12 6 ... ... : G#3 0C 4 ... ... ... ... : ... .. . ... ... : B-# 00 5 ... F03 : ... .. . ...
ROW 13 : ... .. . S01 ... : ... .. . ... ... ... ... : --- .. . ... ... : --- .. . ... F02 : ... .. . ...
ROW 14 : G#3 10 F ... ... : D-3 0D A ... ... ... ... : C-4 01 . ... ... : D-# 06 F ... F03 : ... .. . ...
ROW 15 : ... .. . S01 ... : ... .. . ... ... ... ... : C#3 05 . ... ... : ... .. . ... F02 : ... .. . ...
ROW 16 : G#3 12 6 ... ... : D-3 0C 4 ... ... ... ... : ... .. . ... ... : ... .. . ... F03 : ... .. . ...
ROW 17 : ... .. . S01 ... : ... .. . ... ... ... ... : --- .. . ... ... : ... .. . ... F02 : ... .. . ...
ROW 18 : F-3 10 F ... ... : G#3 0D A ... ... ... ... : C-5 0E . ... ... : E-# 02 . ... F03 : ... .. . ...
ROW 19 : ... .. . S01 ... : ... .. . ... ... ... ... : A#2 12 . ... ... : ... .. . ... F02 : ... .. . ...
ROW 1A : F-3 12 6 ... ... : G#3 0C 4 ... ... ... ... : --- .. . ... ... : ... .. . ... F03 : ... .. . ...
ROW 1B : ... .. . S01 ... : ... .. . ... ... ... ... : ... .. . ... ... : ... .. . ... F02 : ... .. . ...
ROW 1C : A#2 10 F ... ... : D#3 0B A ... ... ... ... : C-4 01 . ... ... : D-# 06 . ... F03 : ... .. . ...
ROW 1D : ... .. . S01 ... : ... .. . ... ... ... ... : D-3 12 . ... ... : ... .. . ... F02 : ... .. . ...
ROW 1E : A#2 12 6 ... ... : ... .. . ... ... ... ... : D#3 12 . ... ... : --- .. . ... F03 : ... .. . ...
ROW 1F : ... .. . S01 ... : ... .. . ... ... ... ... : --- .. . ... ... : ... .. . ... F02 : ... .. . ...
ROW 20 : C#3 10 F ... ... : ... .. . ... ... ... ... : D#2 03 . ... ... : D-# 00 . ... F03 : ... .. . ...
ROW 21 : ... .. . S01 ... : ... .. . ... ... ... ... : ... .. . ... ... : ... .. . ... F02 : ... .. . ...
ROW 22 : C#3 12 6 ... ... : ... .. . ... ... ... ... : ... .. . ... ... : B-# 00 5 ... F03 : ... .. . ...
ROW 23 : ... .. . S01 ... : ... .. . ... ... ... ... : ... .. . ... ... : ... .. . ... F02 : ... .. . ...
ROW 24 : D#3 10 F ... ... : D#2 11 A ... ... ... ... : C-4 01 . ... ... : D-# 06 F ... F03 : ... .. . ...
ROW 25 : ... .. . S01 ... : ... .. . ... ... ... ... : D#2 05 . ... ... : ... .. . ... F02 : ... .. . ...
ROW 26 : D#3 12 6 ... ... : ... .. . ... ... ... ... : ... .. . ... ... : ... .. . ... F03 : ... .. . ...
ROW 27 : ... .. . S01 ... : ... .. . ... ... ... ... : ... .. . ... ... : ... .. . ... F02 : ... .. . ...
ROW 28 : F-3 10 F ... ... : C#3 0C A ... ... ... ... : ... .. . 210 ... : E-# 02 . ... F03 : ... .. . ...
ROW 29 : ... .. . S01 ... : C#3 0C 4 ... ... ... ... : ... .. . ... ... : ... .. . ... F02 : ... .. . ...
ROW 2A : F-3 12 6 ... ... : D#3 0C A ... ... ... ... : ... .. . ... ... : ... .. . ... F03 : ... .. . ...
ROW 2B : ... .. . S01 ... : D#3 0C 4 ... ... ... ... : ... .. . ... ... : ... .. . ... F02 : ... .. . ...
ROW 2C : C#3 10 F ... ... : --- .. . ... ... ... ... : D#3 05 . 200 ... : D-# 06 . ... F03 : ... .. . ...
ROW 2D : ... .. . S01 ... : ... .. . ... ... ... ... : --- .. . ... ... : ... .. . ... F02 : ... .. . ...
ROW 2E : C#3 12 6 ... ... : ... .. . ... ... ... ... : ... .. . ... ... : ... .. . ... F03 : ... .. . ...
ROW 2F : ... .. . S01 ... : ... .. . ... ... ... ... : ... .. . ... ... : ... .. . ... F02 : ... .. . ...
ROW 30 : --- .. . ... ... : D#3 0C A ... ... ... ... : C-4 01 . ... ... : D-# 00 . ... F03 : ... .. . ...
ROW 31 : ... .. . ... ... : D#3 0C 4 ... ... ... ... : G#1 05 . ... ... : ... .. . ... F02 : ... .. . ...
ROW 32 : ... .. . ... ... : G-3 0C A ... ... ... ... : ... .. . ... ... : B-# 00 5 ... F03 : ... .. . ...
ROW 33 : ... .. . ... ... : G-3 0C 4 ... ... ... ... : ... .. . ... ... : ... .. . ... F02 : ... .. . ...
ROW 34 : A#2 10 F ... ... : G-3 13 A ... ... ... ... : G#2 05 . 380 ... : D-# 06 F ... F03 : ... .. . ...
ROW 35 : ... .. . S01 ... : ... .. . ... ... ... ... : ... .. . ... ... : ... .. . ... F02 : ... .. . ...
ROW 36 : A#2 12 6 ... ... : ... .. . ... ... ... ... : ... .. . ... ... : ... .. . ... F03 : ... .. . ...
ROW 37 : ... .. . S01 ... : ... .. . ... ... ... ... : ... .. . ... ... : ... .. . ... F02 : ... .. . ...
ROW 38 : G#2 10 F ... ... : G-3 0C A ... ... ... ... : C-5 0E . 300 ... : E-# 02 . ... F03 : ... .. . ...
ROW 39 : ... .. . S01 ... : G-3 0C 4 ... ... ... ... : A-1 05 . ... ... : ... .. . ... F02 : ... .. . ...
ROW 3A : G#2 12 6 ... ... : A#3 0C A ... ... ... ... : ... .. . ... ... : ... .. . ... F03 : ... .. . ...
ROW 3B : ... .. . S01 ... : G#3 0C 4 ... ... ... ... : ... .. . ... ... : ... .. . ... F02 : ... .. . ...
ROW 3C : A#2 10 F ... ... : D#4 11 A ... ... ... ... : C-4 01 . ... ... : D-# 06 . ... F03 : ... .. . ...
ROW 3D : ... .. . S01 ... : ... .. . ... ... ... ... : A-2 05 . S01 ... : --- .. . ... F02 : ... .. . ...
ROW 3E : A#2 12 6 ... ... : ... .. . ... ... ... ... : A-2 05 . ... ... : D-# 06 . ... F03 : ... .. . ...
ROW 3F : ... .. . S01 ... : ... .. . ... ... ... ... : ... .. . S01 ... : ... .. . ... F02 : ... .. . ...

PATTERN 09
ROW 00 : A#2 10 8 ... ... : ... .. . ... ... ... ... : C-4 01 . 100 ... : D-# 06 F 100 F03 : ... .. . ...
ROW 01 : ... .. . S01 ... : ... .. . ... ... ... ... : A#2 05 . ... ... : ... .. . ... F02 : ... .. . ...
ROW 02 : A#2 12 3 ... ... : ... .. . ... ... ... ... : ... .. . ... ... : ... .. . ... F03 : ... .. . ...
ROW 03 : ... .. . S01 ... : ... .. . ... ... ... ... : ... .. . ... ... : --- .. . ... F02 : ... .. . ...
ROW 04 : G-3 12 8 ... ... : A#2 11 A ... ... ... ... : ... .. . 220 ... : D-# 00 5 ... F03 : ... .. . ...
ROW 05 : G#3 10 . ... ... : ... .. . ... ... ... ... : ... .. . ... ... : ... .. . ... F02 : ... .. . ...
ROW 06 : --- .. . ... ... : --- .. . ... ... ... ... : ... .. . ... ... : D-# 00 F ... F03 : ... .. . ...
ROW 07 : ... .. . ... ... : ... .. . ... ... ... ... : --- .. . ... ... : ... .. . ... F02 : ... .. . ...
ROW 08 : D-3 10 . ... ... : G#3 0C A ... ... ... ... : C-5 0E . ... ... : E-# 02 . ... F03 : ... .. . ...
ROW 09 : ... .. . ... ... : G#3 0C 4 ... ... ... ... : F-3 0C . 200 ... : ... .. . ... F02 : ... .. . ...
ROW 0A : ... .. . 4AA ... : A#3 0C A ... ... ... ... : ... .. . ... ... : ... .. . ... F03 : ... .. . ...
ROW 0B : ... .. . S01 ... : A#3 0C 4 ... ... ... ... : --- .. . ... ... : ... .. . ... F02 : ... .. . ...
ROW 0C : A#2 12 . 400 ... : --- .. . ... ... ... ... : D#2 0C . ... ... : D-# 06 . ... F03 : ... .. . ...
ROW 0D : ... .. . ... ... : ... .. . ... ... ... ... : --- .. . ... ... : ... .. . ... F02 : ... .. . ...
ROW 0E : ... .. . 220 ... : ... .. . ... ... ... ... : ... .. . ... ... : ... .. . ... F03 : ... .. . ...
ROW 0F : ... .. . S01 ... : ... .. . ... ... ... ... : ... .. . ... ... : ... .. . ... F02 : ... .. . ...
ROW 10 : G-3 12 . 200 ... : A#2 11 A ... ... ... ... : C-4 01 . ... ... : D-# 00 . ... F03 : ... .. . ...
ROW 11 : G#3 10 . ... ... : ... .. . ... ... ... ... : G#2 12 . S01 ... : --- .. . ... F02 : ... .. . ...
ROW 12 : ... .. . ... ... : ... .. . ... ... ... ... : G#2 12 . ... ... : B-# 00 5 ... F03 : ... .. . ...
ROW 13 : --- .. . ... ... : --- .. . ... ... ... ... : ... .. . ... ... : --- .. . ... F02 : ... .. . ...
ROW 14 : D-3 10 . ... ... : D-3 0D A ... ... ... ... : C-4 01 . ... ... : D-# 06 F ... F03 : ... .. . ...
ROW 15 : ... .. . ... ... : ... .. . ... ... ... ... : A#2 12 . S01 ... : ... .. . ... F02 : ... .. . ...
ROW 16 : --- .. . ... ... : D-3 0C 4 ... ... ... ... : A#2 12 . ... ... : ... .. . ... F03 : ... .. . ...
ROW 17 : ... .. . ... ... : ... .. . ... ... ... ... : ... .. . ... ... : ... .. . ... F02 : ... .. . ...
ROW 18 : ... .. . ... ... : G#3 0D A ... ... ... ... : C-5 0E . ... ... : E-# 02 . ... F03 : ... .. . ...
ROW 19 : ... .. . ... ... : ... .. . ... ... ... ... : D#2 12 . S01 ... : ... .. . ... F02 : ... .. . ...
ROW 1A : ... .. . ... ... : G#3 0C 4 ... ... ... ... : D#2 12 . ... ... : ... .. . ... F03 : ... .. . ...
ROW 1B : ... .. . ... ... : ... .. . ... ... ... ... : ... .. . ... ... : ... .. . ... F02 : ... .. . ...
ROW 1C : F#3 12 . ... ... : D#3 11 A ... ... ... ... : C-4 01 . ... ... : D-# 06 F ... F03 : ... .. . ...
ROW 1D : G-3 10 . ... ... : ... .. . ... ... ... ... : D#3 12 . ... ... : ... .. . ... F02 : ... .. . ...
ROW 1E : --- .. . ... ... : ... .. . ... ... ... ... : ... .. . ... ... : --- .. . ... F03 : ... .. . ...
ROW 1F : ... .. . ... ... : --- .. . ... ... ... ... : ... .. . 103 ... : ... .. . ... F02 : ... .. . ...
ROW 20 : C#3 10 . ... ... : ... .. . ... ... ... ... : D#2 03 . 100 ... : D-# 00 . ... F03 : ... .. . ...
ROW 21 : ... .. . ... ... : ... .. . ... ... ... ... : ... .. . ... ... : ... .. . ... F02 : ... .. . ...
ROW 22 : ... .. . ... ... : ... .. . ... ... ... ... : ... .. . ... ... : B-# 00 5 ... F03 : ... .. . ...
ROW 23 : ... .. . S01 ... : ... .. . ... ... ... ... : ... .. . ... ... : ... .. . ... F02 : ... .. . ...
ROW 24 : A#2 10 . ... ... : A#3 0D A ... ... ... ... : C-4 01 . ... ... : D-# 06 F ... F03 : ... .. . ...
ROW 25 : ... .. . S01 ... : ... .. . ... ... ... ... : D#3 12 . ... ... : ... .. . ... F02 : ... .. . ...
ROW 26 : A#2 10 . ... ... : A#3 0C 4 ... ... ... ... : ... .. . ... ... : ... .. . ... F03 : ... .. . ...
ROW 27 : ... .. . S01 ... : ... .. . ... ... ... ... : --- .. . ... ... : ... .. . ... F02 : ... .. . ...
ROW 28 : G-3 10 . ... ... : F-3 0C A ... ... ... ... : C-5 0E . ... ... : E-# 02 . ... F03 : ... .. . ...
ROW 29 : ... .. . S01 ... : F-3 0C 4 ... ... ... ... : C#3 12 . ... ... : ... .. . ... F02 : ... .. . ...
ROW 2A : G-3 10 . ... ... : G-3 0C A ... ... ... ... : ... .. . ... ... : ... .. . ... F03 : ... .. . ...
ROW 2B : ... .. . S01 ... : G-3 0C 4 ... ... ... ... : ... .. . ... ... : ... .. . ... F02 : ... .. . ...
ROW 2C : C#3 10 . ... ... : ... .. . ... ... ... ... : ... .. . 220 ... : B-# 00 1 ... F03 : ... .. . ...
ROW 2D : ... .. . S01 ... : ... .. . ... ... ... ... : ... .. . ... ... : B-# 00 2 ... F02 : ... .. . ...
ROW 2E : C#3 12 . ... ... : ... .. . ... ... ... ... : ... .. . ... ... : B-# 00 3 ... F03 : ... .. . ...
ROW 2F : ... .. . S01 ... : ... .. . ... ... ... ... : ... .. . ... ... : B-# 00 4 S01 F02 : ... .. . ...
ROW 30 : C#3 10 6 ... ... : G-3 0C A ... ... ... ... : C-4 01 . ... ... : E-# 02 F ... F03 : ... .. . ...
ROW 31 : ... .. . S01 ... : G-3 0C 4 ... ... ... ... : D#2 00 . 200 ... : ... .. . ... F02 : ... .. . ...
ROW 32 : C#3 12 . ... ... : A#3 0C A ... ... ... ... : ... .. . ... ... : ... .. . ... F03 : ... .. . ...
ROW 33 : ... .. . S01 ... : A#3 0C 4 ... ... ... ... : ... .. . ... ... : ... .. . ... F02 : ... .. . ...
ROW 34 : G-2 0D 6 ... ... : D#3 0B A ... ... ... ... : D#3 00 . ... ... : D-# 06 . ... F03 : ... .. . ...
ROW 35 : G-2 0D 3 ... ... : ... .. . ... ... ... ... : ... .. . ... ... : ... .. . ... F02 : ... .. . ...
ROW 36 : A#2 0D 6 ... ... : ... .. . ... ... ... ... : ... .. . ... ... : ... .. . ... F03 : ... .. . ...
ROW 37 : A#2 0D 3 ... ... : ... .. . ... ... ... ... : ... .. . ... ... : ... .. . ... F02 : ... .. . ...
ROW 38 : C-3 0C 9 ... ... : C-4 0C A ... ... ... ... : C-4 01 . ... ... : E-# 02 . ... F03 : ... .. . ...
ROW 39 : C-3 0C 5 ... ... : C-4 0C 4 ... ... ... ... : F-2 05 . S01 ... : ... .. . ... F02 : ... .. . ...
ROW 3A : D#3 0C 9 ... ... : D#4 0C A ... ... ... ... : F-2 05 . ... ... : ... .. . ... F03 : ... .. . ...
ROW 3B : D#3 0C 5 ... ... : D#4 0C 4 ... ... ... ... : ... .. . S01 ... : ... .. . ... F02 : ... .. . ...
ROW 3C : F-3 0D A ... ... : F-3 11 A ... ... ... ... : F-3 05 . ... ... : E-# 02 . ... F03 : ... .. . ...
ROW 3D : F-3 0D 3 ... ... : ... .. . ... ... ... ... : ... .. . S01 ... : ... .. . ... F02 : ... .. . ...
ROW 3E : A-3 0D A ... ... : ... .. . ... ... ... ... : D#4 05 . ... ... : E-# 02 . ... F03 : ... .. . ...
ROW 3F : A-3 0D 3 S01 ... : --- .. . ... ... ... ... : --- .. . ... ... : ... .. . ... F02 : ... .. . ...

PATTERN 0A
ROW 00 : A#2 10 F ... ... : A#3 0D A ... ... ... ... : C-4 01 . ... ... : A-# 16 A ... F03 : ... .. . ...
ROW 01 : ... .. . ... ... : E-3 0C . ... ... ... ... : F#2 05 . ... ... : ... .. . ... F02 : ... .. . ...
ROW 02 : ... .. . ... ... : A#3 0D . ... ... ... ... : ... .. . ... ... : ... .. . ... F03 : ... .. . ...
ROW 03 : ... .. . ... ... : E-3 0C . ... ... ... ... : ... .. . ... ... : ... .. . ... F02 : ... .. . ...
ROW 04 : ... .. . 4FF ... : --- 0D . ... ... ... ... : E-3 00 . ... ... : ... .. 8 488 F03 : ... .. . ...
ROW 05 : ... .. . ... ... : ... .. . ... ... ... ... : ... .. . ... ... : ... .. . ... F02 : ... .. . ...
ROW 06 : ... .. . ... ... : ... .. . ... ... ... ... : E-3 00 . ... ... : ... .. . ... F03 : ... .. . ...
ROW 07 : --- .. . ... ... : ... .. . ... ... ... ... : ... .. . ... ... : --- .. . ... F02 : ... .. . ...
ROW 08 : A#2 10 F 400 ... : A#3 0D . ... ... ... ... : C-5 0E . 200 ... : E-# 02 F 400 F03 : ... .. . ...
ROW 09 : ... .. . ... ... : E-3 0C . ... ... ... ... : C#3 05 . S01 ... : ... .. . ... F02 : ... .. . ...
ROW 0A : ... .. . ... ... : A#3 0D . ... ... ... ... : C#3 05 . ... ... : ... .. . ... F03 : ... .. . ...
ROW 0B : ... .. . ... ... : E-3 0C . ... ... ... ... : ... .. . ... ... : ... .. . ... F02 : ... .. . ...
ROW 0C : ... .. . ... 222 : --- 0D . ... ... ... ... : A#2 05 . ... ... : D-# 06 A ... F03 : ... .. . ...
ROW 0D : ... .. . ... ... : ... .. . ... ... ... ... : ... .. . ... ... : ... .. . ... F02 : ... .. . ...
ROW 0E : ... .. . ... ... : ... .. . ... ... ... ... : --- .. . ... ... : ... .. . ... F03 : ... .. . ...
ROW 0F : --- .. . ... ... : ... .. . ... ... ... ... : ... .. . ... ... : ... .. . ... F02 : ... .. . ...
ROW 10 : A-2 10 . ... 200 : A#2 13 7 ... ... ... ... : C-4 01 . ... ... : D-# 00 A ... F03 : ... .. . ...
ROW 11 : A#2 10 . ... ... : ... .. . ... ... ... ... : A-3 00 . ... ... : --- .. . ... F02 : ... .. . ...
ROW 12 : ... .. . ... ... : ... .. . ... ... ... ... : A#3 00 . ... ... : ... .. . ... F03 : ... .. . ...
ROW 13 : ... .. . ... ... : --- .. . ... ... ... ... : --- .. . ... ... : --- .. . ... F02 : ... .. . ...
ROW 14 : C-3 10 . ... ... : D#3 05 . ... ... ... ... : C-4 01 . ... ... : D-# 06 A ... F03 : ... .. . ...
ROW 15 : ... .. . ... ... : ... .. . ... ... ... ... : D#3 05 . ... ... : ... .. . ... F02 : ... .. . ...
ROW 16 : ... .. . ... ... : ... .. . ... ... ... ... : ... .. . ... ... : D-# 06 A ... F03 : ... .. . ...
ROW 17 : ... .. . ... ... : --- .. . ... ... ... ... : --- .. . ... ... : ... .. . ... F02 : ... .. . ...
ROW 18 : A#2 10 . ... ... : C#3 05 . ... ... ... ... : C-5 0E . ... ... : E-# 02 F ... F03 : ... .. . ...
ROW 19 : ... .. . ... ... : ... .. . ... ... ... ... : C#3 05 . ... ... : ... .. . ... F02 : ... .. . ...
ROW 1A : ... .. . ... ... : ... .. . ... ... ... ... : ... .. . ... ... : E-# 02 F ... F03 : ... .. . ...
ROW 1B : --- .. . ... ... : --- .. . ... ... ... ... : --- .. . ... ... : ... .. . ... F02 : ... .. . ...
ROW 1C : G#2 10 . ... ... : F-3 0B A ... ... ... ... : C-4 01 . ... ... : D-# 06 A ... F03 : ... .. . ...
ROW 1D : A-2 10 . ... ... : ... .. . ... ... ... ... : F-2 05 . ... ... : ... .. . ... F02 : ... .. . ...
ROW 1E : ... .. . ... ... : ... .. . ... ... ... ... : ... .. . ... ... : ... .. . ... F03 : ... .. . ...
ROW 1F : ... .. . ... ... : C-3 12 0 ... ... ... ... : ... .. . ... ... : ... .. . ... F02 : ... .. . ...
ROW 20 : --- .. . ... ... : F-3 12 4 310 ... ... ... : --- .. . ... ... : --- .. . ... F03 : ... .. . ...
ROW 21 : ... .. . ... ... : ... .. . ... ... ... ... : ... .. . ... ... : ... .. . ... F02 : ... .. . ...
ROW 22 : ... .. . ... ... : ... .. . ... ... ... ... : ... .. . ... ... : B-# 00 5 ... F03 : ... .. . ...
ROW 23 : ... .. . ... ... : ... .. . ... ... ... ... : ... .. . ... ... : ... .. . ... F02 : ... .. . ...
ROW 24 : F-3 10 . ... ... : C-3 12 . 320 ... ... ... : C-4 01 . ... ... : D-# 06 A ... F03 : ... .. . ...
ROW 25 : ... .. . ... ... : ... .. . ... ... ... ... : C-3 05 . ... ... : ... .. . ... F02 : ... .. . ...
ROW 26 : ... .. . ... ... : F-3 12 . ... ... ... ... : ... .. . ... ... : ... .. . ... F03 : ... .. . ...
ROW 27 : --- .. . ... ... : --- .. . ... ... ... ... : ... .. . ... ... : ... .. . ... F02 : ... .. . ...
ROW 28 : F-3 0B A ... ... : A-3 10 5 ... ... ... ... : C-5 0E . ... ... : E-# 02 F ... F03 : ... .. . ...
ROW 29 : ... .. . ... ... : ... .. . ... ... ... ... : ... .. . ... ... : ... .. . ... F02 : ... .. . ...
ROW 2A : ... .. . ... ... : D#3 12 . ... ... ... ... : ... .. . ... ... : ... .. . ... F03 : ... .. . ...
ROW 2B : --- .. . ... ... : ... .. . ... ... ... ... : ... .. . ... ... : ... .. . ... F02 : ... .. . ...
ROW 2C : F-3 0B 4 ... ... : F-3 12 . ... ... ... ... : F-2 10 . ... ... : D-# 06 A ... F03 : ... .. . ...
ROW 2D : ... .. . ... ... : ... .. . ... ... ... ... : --- .. . ... ... : ... .. . ... F02 : ... .. . ...
ROW 2E : ... .. . ... ... : A-3 12 . ... ... ... ... : ... .. . ... ... : ... .. . ... F03 : ... .. . ...
ROW 2F : --- .. . ... ... : --- .. . ... ... ... ... : ... .. . ... ... : ... .. . ... F02 : ... .. . ...
ROW 30 : A-3 13 A ... ... : C-4 10 5 ... ... ... ... : C-4 01 . 200 ... : D-# 00 A ... F03 : ... .. . ...
ROW 31 : ... .. . ... ... : ... .. . ... ... ... ... : A-2 05 . ... ... : ... .. . ... F02 : ... .. . ...
ROW 32 : ... .. . ... ... : G-3 12 . ... ... ... ... : ... .. . ... ... : B-# 00 5 ... F03 : ... .. . ...
ROW 33 : --- .. . ... ... : ... .. . ... ... ... ... : ... .. . ... ... : ... .. . ... F02 : ... .. . ...
ROW 34 : A-3 13 4 ... ... : A-3 12 . ... ... ... ... : C-4 01 . ... ... : D-# 06 A ... F03 : ... .. . ...
ROW 35 : ... .. . ... ... : ... .. . ... ... ... ... : F-3 05 . ... ... : ... .. . ... F02 : ... .. . ...
ROW 36 : ... .. . ... ... : C-4 12 . ... ... ... ... : ... .. . ... ... : ... .. . ... F03 : ... .. . ...
ROW 37 : --- .. . ... ... : --- .. . ... ... ... ... : ... .. . ... ... : ... .. . ... F02 : ... .. . ...
ROW 38 : C-4 13 A ... ... : D#4 10 6 ... ... ... ... : C-5 0E . ... ... : E-# 02 F ... F03 : ... .. . ...
ROW 39 : ... .. . ... ... : ... .. . ... ... ... ... : C-3 05 . ... ... : ... .. . ... F02 : ... .. . ...
ROW 3A : ... .. . ... ... : A-3 12 . ... ... ... ... : ... .. . ... ... : ... .. . ... F03 : ... .. . ...
ROW 3B : --- .. . ... ... : ... .. . ... ... ... ... : ... .. . ... ... : ... .. . ... F02 : ... .. . ...
ROW 3C : C-4 13 4 ... ... : C-4 12 . ... ... ... ... : C-5 0E . ... ... : E-# 02 F ... F03 : ... .. . ...
ROW 3D : ... .. . ... ... : ... .. . ... ... ... ... : C#2 05 . ... ... : --- .. . ... F02 : ... .. . ...
ROW 3E : ... .. . ... ... : D#4 12 . ... ... ... ... : ... .. . ... ... : E-# 02 F ... F03 : ... .. . ...
ROW 3F : ... .. . ... ... : ... .. . ... ... ... ... : ... .. . ... ... : ... .. . ... F02 : ... .. . ...

PATTERN 0B
ROW 00 : F#3 0B A ... ... : A#3 0D A ... ... ... ... : C-4 01 . ... ... : D-# 06 F 100 F03 : ... .. . ...
ROW 01 : ... .. . ... ... : E-3 0C . ... ... ... ... : F#2 05 . ... ... : ... .. . ... F02 : ... .. . ...
ROW 02 : ... .. . ... ... : A#3 0D . ... ... ... ... : ... .. . ... ... : ... .. . ... F03 : ... .. . ...
ROW 03 : ... .. . ... ... : E-3 0C . ... ... ... ... : ... .. . ... ... : --- .. . ... F02 : ... .. . ...
ROW 04 : ... .. . ... ... : --- 0D . ... ... ... ... : ... .. . 210 ... : D-# 00 5 ... F03 : ... .. . ...
ROW 05 : ... .. . ... ... : ... .. . ... ... ... ... : ... .. . ... ... : ... .. . ... F02 : ... .. . ...
ROW 06 : A#2 10 F S01 ... : ... .. . ... ... ... ... : ... .. . ... ... : D-# 00 A ... F03 : ... .. . ...
ROW 07 : --- .. . ... ... : ... .. . ... ... ... ... : ... .. . ... ... : ... .. . ... F02 : ... .. . ...
ROW 08 : C#3 10 . ... ... : A#3 0D . ... ... ... ... : C-5 0E . 200 ... : E-# 02 F ... F03 : ... .. . ...
ROW 09 : ... .. . ... ... : E-3 0C . ... ... ... ... : C#3 05 . S01 ... : ... .. . ... F02 : ... .. . ...
ROW 0A : ... .. . ... ... : A#3 0D . ... ... ... ... : C#3 05 . ... ... : ... .. . ... F03 : ... .. . ...
ROW 0B : ... .. . ... ... : E-3 0C . ... ... ... ... : ... .. . ... ... : ... .. . ... F02 : ... .. . ...
ROW 0C : A#2 10 . ... ... : --- 0D . ... ... ... ... : A#2 05 . ... ... : D-# 06 . ... F03 : ... .. . ...
ROW 0D : ... .. . ... ... : ... .. . ... ... ... ... : ... .. . ... ... : ... .. . ... F02 : ... .. . ...
ROW 0E : ... .. . ... ... : ... .. . ... ... ... ... : --- .. . ... ... : ... .. . ... F03 : ... .. . ...
ROW 0F : ... .. . ... ... : ... .. . ... ... ... ... : ... .. . ... ... : ... .. . ... F02 : ... .. . ...
ROW 10 : C#3 10 . ... ... : F#3 0B 4 ... ... ... ... : C-4 01 . ... ... : E-# 02 . ... F03 : ... .. . ...
ROW 11 : ... .. . ... ... : ... .. . ... ... ... ... : D#3 05 . ... ... : --- .. . ... F02 : ... .. . ...
ROW 12 : ... .. . ... ... : ... .. . ... ... ... ... : E-3 05 . ... ... : E-# 02 . ... F03 : ... .. . ...
ROW 13 : ... .. . ... ... : --- .. . ... ... ... ... : --- .. . ... ... : --- .. . ... F02 : ... .. . ...
ROW 14 : D#3 10 . ... ... : F#3 0B 8 ... ... ... ... : C-4 01 . ... ... : B-# 02 . ... F03 : ... .. . ...
ROW 15 : ... .. . ... ... : ... .. . ... ... ... ... : D#3 05 . ... ... : ... .. . ... F02 : ... .. . ...
ROW 16 : ... .. . ... ... : ... .. . ... ... ... ... : ... .. . ... ... : B-# 02 . ... F03 : ... .. . ...
ROW 17 : ... .. . ... ... : --- .. . ... ... ... ... : --- .. . ... ... : ... .. . ... F02 : ... .. . ...
ROW 18 : G#3 10 . ... ... : F#3 0B A ... ... ... ... : C-5 0E . ... ... : 6-# 02 . ... F03 : ... .. . ...
ROW 19 : ... .. . ... ... : ... .. . ... ... ... ... : C#3 05 . ... ... : ... .. . ... F02 : ... .. . ...
ROW 1A : ... .. . ... ... : ... .. . ... ... ... ... : ... .. . ... ... : 6-# 02 . ... F03 : ... .. . ...
ROW 1B : ... .. . ... ... : --- .. . ... ... ... ... : --- .. . ... ... : ... .. . ... F02 : ... .. . ...
ROW 1C : D#3 10 . ... ... : F-3 0B A ... ... ... ... : C-4 01 . ... ... : D-# 06 . ... F03 : ... .. . ...
ROW 1D : F-3 10 . ... ... : ... .. . ... ... ... ... : F-3 05 . ... ... : ... .. . ... F02 : ... .. . ...
ROW 1E : ... .. . ... ... : --- .. . ... ... ... ... : ... .. . ... ... : ... .. . ... F03 : ... .. . ...
ROW 1F : ... .. . ... ... : ... .. . ... ... ... ... : ... .. . ... ... : ... .. . ... F02 : ... .. . ...
ROW 20 : --- .. . ... ... : --- .. . ... ... ... ... : ... .. . 204 ... : --- .. . ... F03 : ... .. . ...
ROW 21 : ... .. . ... ... : ... .. . ... ... ... ... : ... .. . ... ... : ... .. . ... F02 : ... .. . ...
ROW 22 : ... .. . ... ... : ... .. . ... ... ... ... : ... .. . ... ... : ... .. . ... F03 : ... .. . ...
ROW 23 : ... .. . ... ... : ... .. . ... ... ... ... : ... .. . ... ... : ... .. . ... F02 : ... .. . ...
ROW 24 : F-3 0B 4 ... ... : F-2 05 4 ... ... ... ... : ... .. . ... ... : D-# 00 2 ... F03 : ... .. . ...
ROW 25 : ... .. . ... ... : ... .. . ... ... ... ... : ... .. . ... ... : ... .. . ... F02 : ... .. . ...
ROW 26 : ... .. . ... ... : ... .. . ... ... ... ... : ... .. . ... ... : ... .. . ... F03 : ... .. . ...
ROW 27 : --- .. . ... ... : --- .. . ... ... ... ... : ... .. . ... ... : ... .. . ... F02 : ... .. . ...
ROW 28 : F-3 0B 5 ... ... : F-2 05 5 ... ... ... ... : ... .. . ... ... : D-# 00 A ... F03 : ... .. . ...
ROW 29 : ... .. . ... ... : ... .. . ... ... ... ... : ... .. . ... ... : ... .. . ... F02 : ... .. . ...
ROW 2A : ... .. . ... ... : ... .. . ... ... ... ... : ... .. . ... ... : ... .. . ... F03 : ... .. . ...
ROW 2B : --- .. . ... ... : --- .. . ... ... ... ... : ... .. . ... ... : ... .. . ... F02 : ... .. . ...
ROW 2C : F-3 0B 6 ... ... : F-2 05 6 ... ... ... ... : ... .. . ... ... : D-# 00 2 ... F03 : ... .. . ...
ROW 2D : ... .. . ... ... : ... .. . ... ... ... ... : ... .. . ... ... : ... .. . ... F02 : ... .. . ...
ROW 2E : ... .. . ... ... : ... .. . ... ... ... ... : ... .. . ... ... : ... .. . ... F03 : ... .. . ...
ROW 2F : --- .. . ... ... : --- .. . ... ... ... ... : ... .. . ... ... : ... .. . ... F02 : ... .. . ...
ROW 30 : F-3 0B 7 ... ... : F-1 05 7 ... ... ... ... : ... .. . ... ... : D-# 06 A ... F03 : ... .. . ...
ROW 31 : ... .. . ... ... : ... .. . ... ... ... ... : ... .. . ... ... : ... .. . ... F02 : ... .. . ...
ROW 32 : ... .. . ... ... : ... .. . ... ... ... ... : ... .. . ... ... : ... .. . ... F03 : ... .. . ...
ROW 33 : --- .. . ... ... : --- .. . ... ... ... ... : ... .. . ... ... : ... .. . ... F02 : ... .. . ...
ROW 34 : F-3 0B 8 ... ... : F-1 05 A ... ... ... ... : ... .. . ... ... : D-# 00 5 ... F03 : ... .. . ...
ROW 35 : ... .. . ... ... : ... .. . ... ... ... ... : ... .. . ... ... : ... .. . ... F02 : ... .. . ...
ROW 36 : ... .. . ... ... : ... .. . ... ... ... ... : ... .. . ... ... : D-# 00 A ... F03 : ... .. . ...
ROW 37 : --- .. . ... ... : --- .. . ... ... ... ... : ... .. . ... ... : ... .. . ... F02 : ... .. . ...
ROW 38 : F-3 0B 9 ... ... : F-1 05 C ... ... ... ... : ... .. . ... ... : D-# 06 A ... F03 : ... .. . ...
ROW 39 : ... .. . ... ... : ... .. . ... ... ... ... : ... .. . ... ... : ... .. . ... F02 : ... .. . ...
ROW 3A : ... .. . ... ... : ... .. . ... ... ... ... : ... .. . ... ... : D-# 00 5 ... F03 : ... .. . ...
ROW 3B : --- .. . ... ... : --- .. . ... ... ... ... : ... .. . ... ... : ... .. . ... F02 : ... .. . ...
ROW 3C : F-3 0B A ... ... : F-1 05 F ... ... ... ... : ... .. . ... ... : D-# 00 5 ... F03 : ... .. . ...
ROW 3D : ... .. . ... ... : ... .. . ... ... ... ... : ... .. . ... ... : ... .. . ... F02 : ... .. . ...
ROW 3E : ... .. . ... ... : ... .. . ... ... ... ... : ... .. . ... ... : D-# 00 A ... F03 : ... .. . ...
ROW 3F : --- .. . ... ... : --- .. . ... ... ... ... : ... .. . ... ... : ... .. . ... F02 : ... .. . ...

PATTERN 0C
ROW 00 : D#3 0B A ... ... : D#1 05 F ... ... ... ... : C-4 01 . ... ... : D-# 06 F ... F03 : ... .. . ...
ROW 01 : ... .. . ... ... : ... .. . ... ... ... ... : ... .. . ... ... : ... .. . ... F02 : ... .. . ...
ROW 02 : A#3 03 . ... ... : ... .. . ... ... ... ... : G-4 03 . ... ... : D-# 00 5 ... F03 : ... .. . ...
ROW 03 : ... .. . ... ... : ... .. . ... ... ... ... : ... .. . ... ... : ... .. . ... F02 : ... .. . ...
ROW 04 : D#4 03 . ... ... : ... .. . 210 ... ... ... : A#4 03 . ... ... : D-# 00 5 ... F03 : ... .. . ...
ROW 05 : ... .. . ... ... : ... .. . ... ... ... ... : ... .. . ... ... : ... .. . ... F02 : ... .. . ...
ROW 06 : G-4 03 . ... ... : ... .. . ... ... ... ... : D#5 03 . ... ... : D-# 00 F ... F03 : ... .. . ...
ROW 07 : ... .. . ... ... : ... .. . ... ... ... ... : ... .. . ... ... : ... .. . ... F02 : ... .. . ...
ROW 08 : D#3 0B . ... ... : A#1 05 . 200 ... ... ... : C-5 0E . 200 ... : E-# 02 . ... F03 : ... .. . ...
ROW 09 : ... .. . ... ... : ... .. . S01 ... ... ... : ... .. . ... ... : ... .. . ... F02 : ... .. . ...
ROW 0A : A#3 03 . ... ... : A#1 05 . ... ... ... ... : G-4 03 . ... ... : ... .. . ... F03 : ... .. . ...
ROW 0B : ... .. . ... ... : ... .. . ... ... ... ... : ... .. . ... ... : ... .. . ... F02 : ... .. . ...
ROW 0C : D#4 03 . ... ... : G-1 05 . ... ... ... ... : A#4 03 . ... ... : D-# 00 5 ... F03 : ... .. . ...
ROW 0D : ... .. . ... ... : ... .. . ... ... ... ... : ... .. . ... ... : ... .. . ... F02 : ... .. . ...
ROW 0E : F-4 03 . ... ... : --- .. . ... ... ... ... : C#5 03 . ... ... : D-# 00 F ... F03 : ... .. . ...
ROW 0F : ... .. . ... ... : ... .. . ... ... ... ... : ... .. . ... ... : ... .. . ... F02 : ... .. . ...
ROW 10 : D#3 0B . ... ... : C-2 05 . ... ... ... ... : C-4 01 . ... ... : D-# 06 . ... F03 : ... .. . ...
ROW 11 : ... .. . ... ... : C#2 05 . ... ... ... ... : ... .. . ... ... : ... .. . ... F02 : ... .. . ...
ROW 12 : A#3 03 . ... ... : ... .. . ... ... ... ... : G-4 03 . ... ... : ... .. . ... F03 : ... .. . ...
ROW 13 : ... .. . ... ... : --- .. . ... ... ... ... : --- .. . ... ... : ... .. . ... F02 : ... .. . ...
ROW 14 : D#4 03 . ... ... : C-2 05 . ... ... ... ... : A#4 03 . ... ... : D-# 00 5 ... F03 : ... .. . ...
ROW 15 : ... .. . ... ... : ... .. . ... ... ... ... : ... .. . ... ... : ... .. . ... F02 : ... .. . ...
ROW 16 : G-4 03 . ... ... : ... .. . ... ... ... ... : D#5 03 . ... ... : D-# 00 F ... F03 : ... .. . ...
ROW 17 : ... .. . ... ... : --- .. . ... ... ... ... : --- .. . ... ... : ... .. . ... F02 : ... .. . ...
ROW 18 : D#3 0B . ... ... : A#1 05 . ... ... ... ... : C-5 0E . ... ... : E-# 02 . ... F03 : ... .. . ...
ROW 19 : ... .. . ... ... : ... .. . ... ... ... ... : ... .. . ... ... : ... .. . ... F02 : ... .. . ...
ROW 1A : A#3 03 . ... ... : ... .. . ... ... ... ... : G-4 03 . ... ... : ... .. . ... F03 : ... .. . ...
ROW 1B : ... .. . ... ... : --- .. . ... ... ... ... : ... .. . ... ... : ... .. . ... F02 : ... .. . ...
ROW 1C : D#4 03 . ... ... : D#1 05 . ... ... ... ... : A#4 03 . ... ... : D-# 00 5 ... F03 : ... .. . ...
ROW 1D : ... .. . ... ... : ... .. . ... ... ... ... : ... .. . ... ... : ... .. . ... F02 : ... .. . ...
ROW 1E : F-4 03 . ... ... : ... .. . ... ... ... ... : C#5 03 . ... ... : D-# 00 F ... F03 : ... .. . ...
ROW 1F : ... .. . ... ... : --- .. . ... ... ... ... : ... .. . ... ... : ... .. . ... F02 : ... .. . ...
ROW 20 : D#3 0B . ... ... : A#1 05 . ... ... ... ... : C-4 01 . ... ... : D-# 06 . ... F03 : ... .. . ...
ROW 21 : ... .. . ... ... : ... .. . ... ... ... ... : ... .. . ... ... : ... .. . ... F02 : ... .. . ...
ROW 22 : A#3 03 . ... ... : ... .. . ... ... ... ... : G-4 03 . ... ... : ... .. . ... F03 : ... .. . ...
ROW 23 : ... .. . ... ... : --- .. . ... ... ... ... : ... .. . ... ... : ... .. . ... F02 : ... .. . ...
ROW 24 : D#4 03 . ... ... : C-2 05 . ... ... ... ... : A#4 03 . ... ... : D-# 00 5 ... F03 : ... .. . ...
ROW 25 : ... .. . ... ... : ... .. . ... ... ... ... : ... .. . ... ... : ... .. . ... F02 : ... .. . ...
ROW 26 : G-4 03 . ... ... : ... .. . ... ... ... ... : D#5 03 . ... ... : D-# 00 F ... F03 : ... .. . ...
ROW 27 : ... .. . ... ... : ... .. . ... ... ... ... : ... .. . ... ... : ... .. . ... F02 : ... .. . ...
ROW 28 : D#3 0B . ... ... : C#2 05 . ... ... ... ... : C-5 0E . ... ... : E-# 02 . ... F03 : ... .. . ...
ROW 29 : ... .. . ... ... : ... .. . ... ... ... ... : ... .. . ... ... : ... .. . ... F02 : ... .. . ...
ROW 2A : A#3 03 . ... ... : ... .. . ... ... ... ... : G-4 03 . ... ... : ... .. . ... F03 : ... .. . ...
ROW 2B : ... .. . ... ... : --- .. . ... ... ... ... : ... .. . ... ... : ... .. . ... F02 : ... .. . ...
ROW 2C : D#4 03 . ... ... : A#1 05 . ... ... ... ... : A#4 03 . ... ... : D-# 00 5 ... F03 : ... .. . ...
ROW 2D : ... .. . ... ... : ... .. . ... ... ... ... : ... .. . ... ... : ... .. . ... F02 : ... .. . ...
ROW 2E : F-4 03 . ... ... : ... .. . 220 ... ... ... : C#5 03 . ... ... : D-# 00 F ... F03 : ... .. . ...
ROW 2F : ... .. . ... ... : ... .. . S01 ... ... ... : ... .. . ... ... : ... .. . ... F02 : ... .. . ...
ROW 30 : D#3 0B 8 ... ... : ... .. . ... ... ... ... : C-4 01 . 200 ... : D-# 06 . ... F03 : ... .. . ...
ROW 31 : ... .. . ... ... : ... .. . ... ... ... ... : ... .. . ... ... : ... .. . ... F02 : ... .. . ...
ROW 32 : G-3 03 . ... ... : ... .. . ... ... ... ... : D#4 03 . ... ... : D-# 00 5 ... F03 : ... .. . ...
ROW 33 : ... .. . ... ... : ... .. . ... ... ... ... : ... .. . ... ... : ... .. . ... F02 : ... .. . ...
ROW 34 : A#3 03 . ... ... : A#1 05 . 200 ... ... ... : G-4 03 . ... ... : D-# 00 5 ... F03 : ... .. . ...
ROW 35 : ... .. . ... ... : ... .. . ... ... ... ... : ... .. . ... ... : ... .. . ... F02 : ... .. . ...
ROW 36 : D#4 03 . ... ... : ... .. . ... ... ... ... : A#4 03 . ... ... : D-# 06 F ... F03 : ... .. . ...
ROW 37 : ... .. . ... ... : ... .. . ... ... ... ... : ... .. . ... ... : ... .. . ... F02 : ... .. . ...
ROW 38 : G-3 0C 8 ... ... : G#1 05 . ... ... ... ... : C-5 0E . ... ... : E-# 02 . ... F03 : ... .. . ...
ROW 39 : G-3 0C 4 ... ... : ... .. . ... ... ... ... : ... .. . ... ... : ... .. . ... F02 : ... .. . ...
ROW 3A : A#3 0C 8 ... ... : ... .. . ... ... ... ... : A#4 03 . ... ... : ... .. . ... F03 : ... .. . ...
ROW 3B : A#3 0C 4 ... ... : --- .. . ... ... ... ... : ... .. . ... ... : ... .. . ... F02 : ... .. . ...
ROW 3C : D#4 0C 8 ... ... : A#1 05 . ... ... ... ... : C-5 0E . ... ... : D-# 06 F ... F03 : ... .. . ...
ROW 3D : D#4 0C 4 ... ... : ... .. . ... ... ... ... : ... .. . ... ... : ... .. . ... F02 : ... .. . ...
ROW 3E : G-4 0C 8 ... ... : ... .. . ... 220 ... ... : C-5 0E . ... ... : D-# 06 A ... F03 : ... .. . ...
ROW 3F : G-4 0C 4 ... ... : ... .. . ... ... ... ... : ... .. . ... ... : ... .. . ... F02 : ... .. . ...

PATTERN 0D
ROW 00 : A#2 07 8 ... ... : A#0 05 . ... 200 ... ... : C-4 01 . ... ... : A-# 16 A 100 F03 : ... .. . ...
ROW 01 : ... .. . ... ... : ... .. . ... ... ... ... : ... .. . ... ... : ... .. . ... F02 : ... .. . ...
ROW 02 : ... .. . ... ... : --- .. . ... ... ... ... : ... .. . ... ... : ... .. . ... F03 : ... .. . ...
ROW 03 : ... .. . ... ... : ... .. . ... ... ... ... : ... .. . ... ... : ... .. . ... F02 : ... .. . ...
ROW 04 : A#2 0B F ... ... : F-4 10 6 ... ... ... ... : D#5 12 . ... ... : D-# 00 . ... F03 : ... .. . ...
ROW 05 : ... .. . ... ... : D-4 10 . ... ... ... ... : E-5 12 . ... ... : --- .. . ... F02 : ... .. . ...
ROW 06 : ... .. . ... ... : F-4 12 . ... ... ... ... : F-5 12 . ... ... : ... .. . ... F03 : ... .. . ...
ROW 07 : --- .. . ... ... : --- .. . ... ... ... ... : ... .. . ... ... : ... .. . ... F02 : ... .. . ...
ROW 08 : A#2 0B . ... ... : F-1 05 F ... ... ... ... : A#5 12 . ... ... : E-# 02 F ... F03 : ... .. . ...
ROW 09 : ... .. . ... ... : ... .. . ... ... ... ... : ... .. . ... ... : ... .. . ... F02 : ... .. . ...
ROW 0A : ... .. . ... ... : --- .. . ... ... ... ... : --- .. . ... ... : ... .. . ... F03 : ... .. . ...
ROW 0B : --- .. . ... ... : ... .. . ... ... ... ... : ... .. . ... ... : ... .. . ... F02 : ... .. . ...
ROW 0C : A#2 0B . ... ... : F-4 10 6 ... ... ... ... : D-6 12 . ... ... : D-# 15 A ... F03 : ... .. . ...
ROW 0D : ... .. . ... ... : D-4 10 . ... ... ... ... : ... .. . ... ... : ... .. . ... F02 : ... .. . ...
ROW 0E : ... .. . ... ... : F-4 12 . ... ... ... ... : --- .. . ... ... : ... .. . ... F03 : ... .. . ...
ROW 0F : --- .. . ... ... : --- .. . ... ... ... ... : ... .. . ... ... : ... .. . ... F02 : ... .. . ...
ROW 10 : ... .. . ... ... : A#1 05 F ... ... ... ... : F-6 12 . ... ... : D-# 00 . ... F03 : ... .. . ...
ROW 11 : ... .. . ... ... : ... .. . ... ... ... ... : ... .. . ... ... : --- .. . ... F02 : ... .. . ...
ROW 12 : ... .. . ... ... : --- .. . ... ... ... ... : --- .. . ... ... : B-# 00 . ... F03 : ... .. . ...
ROW 13 : ... .. . ... ... : ... .. . ... ... ... ... : ... .. . ... ... : --- .. . ... F02 : ... .. . ...
ROW 14 : D-3 13 . ... ... : F-4 10 6 ... ... ... ... : F-6 12 . ... ... : F-# 15 . ... F03 : ... .. . ...
ROW 15 : ... .. . ... ... : D-4 10 . ... ... ... ... : --- .. . ... ... : ... .. . ... F02 : ... .. . ...
ROW 16 : ... .. . ... ... : F-4 12 . ... ... ... ... : G-6 12 . ... ... : ... .. . ... F03 : ... .. . ...
ROW 17 : --- .. . ... ... : --- .. . ... ... ... ... : --- .. . ... ... : ... .. . ... F02 : ... .. . ...
ROW 18 : D-3 13 . ... ... : F-1 05 F ... ... ... ... : F-6 12 . ... ... : E-# 02 F ... F03 : ... .. . ...
ROW 19 : ... .. . ... ... : ... .. . ... ... ... ... : G-6 12 . ... ... : ... .. . ... F02 : ... .. . ...
ROW 1A : ... .. . ... ... : --- .. . ... ... ... ... : F-6 12 . ... ... : ... .. . ... F03 : ... .. . ...
ROW 1B : --- .. . ... ... : ... .. . ... ... ... ... : G-6 12 . ... ... : ... .. . ... F02 : ... .. . ...
ROW 1C : D-3 13 . ... ... : F-4 10 6 ... ... ... ... : --- .. . ... ... : D-# 15 A ... F03 : ... .. . ...
ROW 1D : ... .. . ... ... : D-4 10 . ... ... ... ... : ... .. . ... ... : ... .. . ... F02 : ... .. . ...
ROW 1E : ... .. . ... ... : F-4 12 . ... ... ... ... : D#6 12 . ... ... : --- .. . ... F03 : ... .. . ...
ROW 1F : --- .. . ... ... : --- .. . ... ... ... ... : ... .. . ... ... : ... .. . ... F02 : ... .. . ...
ROW 20 : ... .. . ... ... : A#1 05 F ... ... ... ... : D-6 12 . ... ... : D-# 00 . ... F03 : ... .. . ...
ROW 21 : ... .. . ... ... : ... .. . ... ... ... ... : --- .. . ... ... : ... .. . ... F02 : ... .. . ...
ROW 22 : ... .. . ... ... : --- .. . ... ... ... ... : ... .. . ... ... : B-# 00 . ... F03 : ... .. . ...
ROW 23 : ... .. . ... ... : ... .. . ... ... ... ... : ... .. . ... ... : ... .. . ... F02 : ... .. . ...
ROW 24 : A#2 0B . ... ... : F-4 10 6 ... ... ... ... : D-6 12 . ... ... : D-# 06 . ... F03 : ... .. . ...
ROW 25 : ... .. . ... ... : D-4 10 . ... ... ... ... : ... .. . ... ... : ... .. . ... F02 : ... .. . ...
ROW 26 : ... .. . ... ... : F-4 12 . ... ... ... ... : D#6 12 . ... ... : ... .. . ... F03 : ... .. . ...
ROW 27 : --- .. . ... ... : --- .. . ... ... ... ... : --- .. . ... ... : ... .. . ... F02 : ... .. . ...
ROW 28 : A#2 0B . ... ... : F-1 05 F ... ... ... ... : D-6 12 . ... ... : E-# 02 F ... F03 : ... .. . ...
ROW 29 : ... .. . ... ... : ... .. . ... ... ... ... : D#6 12 . ... ... : ... .. . ... F02 : ... .. . ...
ROW 2A : ... .. . ... ... : --- .. . ... ... ... ... : D-6 12 . ... ... : ... .. . ... F03 : ... .. . ...
ROW 2B : --- .. . ... ... : ... .. . ... ... ... ... : D#6 12 . ... ... : ... .. . ... F02 : ... .. . ...
ROW 2C : A#2 0B . ... ... : F-4 10 6 ... ... ... ... : --- 12 . ... ... : D-# 15 A ... F03 : ... .. . ...
ROW 2D : ... .. . ... ... : D-4 10 . ... ... ... ... : ... .. . ... ... : ... .. . ... F02 : ... .. . ...
ROW 2E : ... .. . ... ... : F-4 12 . ... ... ... ... : C-6 12 . ... ... : ... .. . ... F03 : ... .. . ...
ROW 2F : --- .. . ... ... : --- .. . ... ... ... ... : ... .. . ... ... : ... .. . ... F02 : ... .. . ...
ROW 30 : ... .. . ... ... : A#1 05 F ... ... ... ... : A#5 12 . ... ... : D-# 00 A ... F03 : ... .. . ...
ROW 31 : ... .. . ... ... : ... .. . ... ... ... ... : ... .. . ... ... : ... .. . ... F02 : ... .. . ...
ROW 32 : ... .. . ... ... : --- .. . ... ... ... ... : ... .. . ... ... : B-# 00 . ... F03 : ... .. . ...
ROW 33 : ... .. . ... ... : ... .. . ... ... ... ... : ... .. . ... ... : ... .. . ... F02 : ... .. . ...
ROW 34 : F-4 10 6 100 ... : F-1 05 . ... ... ... ... : A#6 12 . 302 ... : D-# 15 . ... F03 : ... .. . ...
ROW 35 : D-4 10 . ... ... : ... .. . ... ... ... ... : ... .. . ... ... : ... .. . ... F02 : ... .. . ...
ROW 36 : F-4 12 . ... ... : --- .. . ... ... ... ... : ... .. . ... ... : ... .. . ... F03 : ... .. . ...
ROW 37 : --- .. . ... ... : ... .. . ... ... ... ... : ... .. . ... ... : ... .. . ... F02 : ... .. . ...
ROW 38 : A#3 03 . ... ... : C#1 16 . ... ... ... ... : ... .. . ... ... : E-# 02 F ... F03 : ... .. . ...
ROW 39 : ... .. . ... ... : ... .. . ... ... ... ... : ... .. . ... ... : ... .. . ... F02 : ... .. . ...
ROW 3A : C-4 03 . ... ... : --- .. . ... ... ... ... : ... .. . ... ... : ... .. . ... F03 : ... .. . ...
ROW 3B : ... .. . ... ... : ... .. . ... ... ... ... : ... .. . ... ... : ... .. . ... F02 : ... .. . ...
ROW 3C : D-4 03 . ... ... : D-1 16 . ... ... ... ... : F-5 03 . ... ... : F-# 15 5 ... F03 : ... .. . ...
ROW 3D : ... .. . ... ... : ... .. . ... ... ... ... : ... .. . ... ... : --- .. . ... F02 : ... .. . ...
ROW 3E : F-4 03 . ... ... : --- .. . ... ... ... ... : A#5 03 . ... ... : F-# 15 5 ... F03 : ... .. . ...
ROW 3F : ... .. . ... ... : ... .. . ... ... ... ... : ... .. . ... ... : ... .. . ... F02 : ... .. . ...

PATTERN 0E
ROW 00 : D#3 0B A ... ... : D#1 05 F ... ... ... ... : C-4 01 . ... ... : D-# 06 F ... F03 : ... .. . ...
ROW 01 : ... .. . ... ... : ... .. . ... ... ... ... : ... .. . ... ... : ... .. . ... F02 : ... .. . ...
ROW 02 : A#3 03 . ... ... : ... .. . ... ... ... ... : G-4 03 . ... ... : D-# 00 5 ... F03 : ... .. . ...
ROW 03 : ... .. . ... ... : ... .. . ... ... ... ... : ... .. . ... ... : ... .. . ... F02 : ... .. . ...
ROW 04 : D#4 03 . ... ... : ... .. . 220 ... ... ... : A#4 03 . ... ... : D-# 00 5 ... F03 : ... .. . ...
ROW 05 : ... .. . ... ... : ... .. . ... ... ... ... : ... .. . ... ... : ... .. . ... F02 : ... .. . ...
ROW 06 : G-4 03 . ... ... : ... .. . ... ... ... ... : D#5 03 . ... ... : D-# 00 F ... F03 : ... .. . ...
ROW 07 : ... .. . ... ... : ... .. . ... ... ... ... : ... .. . ... ... : ... .. . ... F02 : ... .. . ...
ROW 08 : D#3 0B . ... ... : A#1 05 . 200 ... ... ... : C-5 0E . 200 ... : E-# 02 . ... F03 : ... .. . ...
ROW 09 : ... .. . ... ... : ... .. . S01 ... ... ... : ... .. . ... ... : ... .. . ... F02 : ... .. . ...
ROW 0A : A#3 03 . ... ... : A#1 05 . ... ... ... ... : G-4 03 . ... ... : ... .. . ... F03 : ... .. . ...
ROW 0B : ... .. . ... ... : ... .. . ... ... ... ... : ... .. . ... ... : ... .. . ... F02 : ... .. . ...
ROW 0C : D#4 03 . ... ... : G-1 05 . ... ... ... ... : A#4 03 . ... ... : D-# 00 5 ... F03 : ... .. . ...
ROW 0D : ... .. . ... ... : ... .. . ... ... ... ... : ... .. . ... ... : ... .. . ... F02 : ... .. . ...
ROW 0E : F-4 03 . ... ... : --- .. . ... ... ... ... : C#5 03 . ... ... : D-# 00 F ... F03 : ... .. . ...
ROW 0F : ... .. . ... ... : ... .. . ... ... ... ... : ... .. . ... ... : ... .. . ... F02 : ... .. . ...
ROW 10 : D#3 0B . ... ... : C-2 05 . ... ... ... ... : C-4 01 . ... ... : D-# 06 . ... F03 : ... .. . ...
ROW 11 : ... .. . ... ... : C#2 05 . ... ... ... ... : ... .. . ... ... : ... .. . ... F02 : ... .. . ...
ROW 12 : A#3 03 . ... ... : ... .. . ... ... ... ... : G-4 03 . ... ... : ... .. . ... F03 : ... .. . ...
ROW 13 : ... .. . ... ... : --- .. . ... ... ... ... : --- .. . ... ... : ... .. . ... F02 : ... .. . ...
ROW 14 : D#4 03 . ... ... : C-2 05 . ... ... ... ... : A#4 03 . ... ... : D-# 00 5 ... F03 : ... .. . ...
ROW 15 : ... .. . ... ... : ... .. . ... ... ... ... : ... .. . ... ... : ... .. . ... F02 : ... .. . ...
ROW 16 : G-4 03 . ... ... : ... .. . ... ... ... ... : D#5 03 . ... ... : D-# 00 F ... F03 : ... .. . ...
ROW 17 : ... .. . ... ... : --- .. . ... ... ... ... : --- .. . ... ... : ... .. . ... F02 : ... .. . ...
ROW 18 : D#3 0B . ... ... : A#1 05 . ... ... ... ... : C-5 0E . ... ... : E-# 02 . ... F03 : ... .. . ...
ROW 19 : ... .. . ... ... : ... .. . ... ... ... ... : ... .. . ... ... : ... .. . ... F02 : ... .. . ...
ROW 1A : A#3 03 . ... ... : ... .. . ... ... ... ... : G-4 03 . ... ... : ... .. . ... F03 : ... .. . ...
ROW 1B : ... .. . ... ... : --- .. . ... ... ... ... : ... .. . ... ... : ... .. . ... F02 : ... .. . ...
ROW 1C : D#4 03 . ... ... : D#1 05 . ... ... ... ... : A#4 03 . ... ... : D-# 00 5 ... F03 : ... .. . ...
ROW 1D : ... .. . ... ... : ... .. . ... ... ... ... : ... .. . ... ... : ... .. . ... F02 : ... .. . ...
ROW 1E : F-4 03 . ... ... : ... .. . ... ... ... ... : C#5 03 . ... ... : D-# 00 F ... F03 : ... .. . ...
ROW 1F : ... .. . ... ... : --- .. . ... ... ... ... : ... .. . ... ... : ... .. . ... F02 : ... .. . ...
ROW 20 : D#3 0B . ... ... : A#1 05 . ... ... ... ... : C-4 01 . ... ... : D-# 06 . ... F03 : ... .. . ...
ROW 21 : ... .. . ... ... : ... .. . ... ... ... ... : ... .. . ... ... : ... .. . ... F02 : ... .. . ...
ROW 22 : A#3 03 . ... ... : ... .. . ... ... ... ... : G-4 03 . ... ... : ... .. . ... F03 : ... .. . ...
ROW 23 : ... .. . ... ... : --- .. . ... ... ... ... : ... .. . ... ... : ... .. . ... F02 : ... .. . ...
ROW 24 : D#4 03 . ... ... : C-2 05 . ... ... ... ... : A#4 03 . ... ... : D-# 00 5 ... F03 : ... .. . ...
ROW 25 : ... .. . ... ... : ... .. . ... ... ... ... : ... .. . ... ... : ... .. . ... F02 : ... .. . ...
ROW 26 : G-4 03 . ... ... : ... .. . ... ... ... ... : D#5 03 . ... ... : D-# 00 F ... F03 : ... .. . ...
ROW 27 : ... .. . ... ... : ... .. . ... ... ... ... : ... .. . ... ... : ... .. . ... F02 : ... .. . ...
ROW 28 : D#3 0B . ... ... : C#2 05 . ... ... ... ... : C-5 0E . ... ... : E-# 02 . ... F03 : ... .. . ...
ROW 29 : ... .. . ... ... : ... .. . ... ... ... ... : ... .. . ... ... : ... .. . ... F02 : ... .. . ...
ROW 2A : A#3 03 . ... ... : ... .. . ... ... ... ... : G-4 03 . ... ... : ... .. . ... F03 : ... .. . ...
ROW 2B : ... .. . ... ... : --- .. . ... ... ... ... : ... .. . ... ... : ... .. . ... F02 : ... .. . ...
ROW 2C : D#4 03 . ... ... : C#2 05 . Q22 ... ... ... : A#4 03 . ... ... : D-# 00 5 ... F03 : ... .. . ...
ROW 2D : ... .. . ... ... : ... .. . ... ... ... ... : ... .. . ... ... : ... .. . ... F02 : ... .. . ...
ROW 2E : F-4 03 . ... ... : ... .. . ... ... ... ... : C#5 03 . ... ... : D-# 00 F ... F03 : ... .. . ...
ROW 2F : ... .. . ... ... : ... .. . ... ... ... ... : ... .. . ... ... : ... .. . ... F02 : ... .. . ...
ROW 30 : D#3 0B . ... ... : --- .. . ... ... ... ... : C-4 01 . 200 ... : D-# 06 . ... F03 : ... .. . ...
ROW 31 : ... .. . ... ... : ... .. . ... ... ... ... : ... .. . ... ... : ... .. . ... F02 : ... .. . ...
ROW 32 : G-3 03 . ... ... : ... .. . ... ... ... ... : D#4 03 . ... ... : D-# 00 5 ... F03 : ... .. . ...
ROW 33 : ... .. . ... ... : ... .. . ... ... ... ... : ... .. . ... ... : ... .. . ... F02 : ... .. . ...
ROW 34 : A#3 03 . ... ... : C#2 05 . ... ... ... ... : G-4 03 . ... ... : D-# 00 5 ... F03 : ... .. . ...
ROW 35 : ... .. . ... ... : ... .. . ... ... ... ... : ... .. . ... ... : ... .. . ... F02 : ... .. . ...
ROW 36 : D#4 03 . ... ... : ... .. . ... ... ... ... : A#4 03 . ... ... : D-# 06 F ... F03 : ... .. . ...
ROW 37 : ... .. . ... ... : ... .. . ... ... ... ... : ... .. . ... ... : ... .. . ... F02 : ... .. . ...
ROW 38 : D#4 0C 8 ... ... : C-2 05 . ... ... ... ... : C-5 0E . ... ... : E-# 02 A ... F03 : ... .. . ...
ROW 39 : D#4 0C 4 ... ... : ... .. . ... ... ... ... : ... .. . ... ... : ... .. . ... F02 : ... .. . ...
ROW 3A : A#3 0C 8 ... ... : ... .. . ... ... ... ... : A#4 03 . ... ... : ... .. . ... F03 : ... .. . ...
ROW 3B : A#3 0C 4 ... ... : --- .. . ... ... ... ... : ... .. . ... ... : ... .. . ... F02 : ... .. . ...
ROW 3C : G-3 0C 8 ... ... : A#1 05 . ... ... ... ... : C-5 0E . ... ... : D-# 06 F ... F03 : ... .. . ...
ROW 3D : G-3 0C 4 ... ... : ... .. . ... ... ... ... : ... .. . ... ... : ... .. . ... F02 : ... .. . ...
ROW 3E : D#3 0C 8 ... ... : ... .. . ... ... ... ... : C-5 0E . ... ... : D-# 06 . ... F03 : ... .. . ...
ROW 3F : D#3 0C 4 ... ... : ... .. . ... ... ... ... : ... .. . ... ... : ... .. . ... F02 : ... .. . ...

PATTERN 0F
ROW 00 : A#2 07 8 ... ... : ... .. . ... 220 ... ... : C-4 01 . ... ... : A-# 16 A 100 F03 : ... .. . ...
ROW 01 : ... .. . ... ... : ... .. . ... ... ... ... : ... .. . ... ... : ... .. . ... F02 : ... .. . ...
ROW 02 : ... .. . ... ... : ... .. . ... ... ... ... : ... .. . ... ... : ... .. . ... F03 : ... .. . ...
ROW 03 : ... .. . ... ... : ... .. . ... ... ... ... : ... .. . ... ... : ... .. . ... F02 : ... .. . ...
ROW 04 : A#2 0B A ... ... : F-4 10 6 ... 200 ... ... : D-6 12 . ... ... : D-# 00 . ... F03 : ... .. . ...
ROW 05 : ... .. . ... ... : D-4 10 . ... ... ... ... : ... .. . ... ... : --- .. . ... F02 : ... .. . ...
ROW 06 : ... .. . ... ... : F-4 12 . ... ... ... ... : C#6 12 . ... ... : ... .. . ... F03 : ... .. . ...
ROW 07 : --- .. . ... ... : --- .. . ... ... ... ... : ... .. . ... ... : ... .. . ... F02 : ... .. . ...
ROW 08 : A#2 0B . ... ... : F-1 05 F ... ... ... ... : D-6 12 . ... ... : E-# 02 F ... F03 : ... .. . ...
ROW 09 : ... .. . ... ... : ... .. . ... ... ... ... : ... .. . ... ... : ... .. . ... F02 : ... .. . ...
ROW 0A : ... .. . ... ... : --- .. . ... ... ... ... : --- .. . ... ... : ... .. . ... F03 : ... .. . ...
ROW 0B : --- .. . ... ... : ... .. . ... ... ... ... : ... .. . ... ... : ... .. . ... F02 : ... .. . ...
ROW 0C : A#2 0B . ... ... : F-4 10 6 ... ... ... ... : A#5 12 . ... ... : D-# 15 A ... F03 : ... .. . ...
ROW 0D : ... .. . ... ... : D-4 10 . ... ... ... ... : ... .. . ... ... : ... .. . ... F02 : ... .. . ...
ROW 0E : ... .. . ... ... : F-4 12 . ... ... ... ... : --- .. . ... ... : ... .. . ... F03 : ... .. . ...
ROW 0F : --- .. . ... ... : --- .. . ... ... ... ... : ... .. . ... ... : ... .. . ... F02 : ... .. . ...
ROW 10 : ... .. . ... ... : A#1 05 F ... ... ... ... : ... .. . ... ... : D-# 00 . ... F03 : ... .. . ...
ROW 11 : ... .. . ... ... : ... .. . ... ... ... ... : ... .. . ... ... : --- .. . ... F02 : ... .. . ...
ROW 12 : ... .. . ... ... : --- .. . ... ... ... ... : --- .. . ... ... : B-# 00 . ... F03 : ... .. . ...
ROW 13 : ... .. . ... ... : ... .. . ... ... ... ... : ... .. . ... ... : --- .. . ... F02 : ... .. . ...
ROW 14 : D-3 13 . ... ... : F-4 10 6 ... ... ... ... : A#5 12 . ... ... : D-# 15 . ... F03 : ... .. . ...
ROW 15 : ... .. . ... ... : D-4 10 . ... ... ... ... : --- .. . ... ... : ... .. . ... F02 : ... .. . ...
ROW 16 : ... .. . ... ... : F-4 12 . ... ... ... ... : A-5 12 . ... ... : ... .. . ... F03 : ... .. . ...
ROW 17 : --- .. . ... ... : --- .. . ... ... ... ... : --- .. . ... ... : ... .. . ... F02 : ... .. . ...
ROW 18 : D-3 13 . ... ... : F-1 05 F ... ... ... ... : A#5 12 . ... ... : E-# 02 F ... F03 : ... .. . ...
ROW 19 : ... .. . ... ... : ... .. . ... ... ... ... : ... .. . ... ... : ... .. . ... F02 : ... .. . ...
ROW 1A : ... .. . ... ... : --- .. . ... ... ... ... : ... .. . ... ... : ... .. . ... F03 : ... .. . ...
ROW 1B : --- .. . ... ... : ... .. . ... ... ... ... : ... .. . ... ... : ... .. . ... F02 : ... .. . ...
ROW 1C : D-3 13 . ... ... : F-4 10 6 ... ... ... ... : F-5 12 . ... ... : D-# 15 A ... F03 : ... .. . ...
ROW 1D : ... .. . ... ... : D-4 10 . ... ... ... ... : ... .. . ... ... : ... .. . ... F02 : ... .. . ...
ROW 1E : ... .. . ... ... : F-4 12 . ... ... ... ... : ... .. . ... ... : --- .. . ... F03 : ... .. . ...
ROW 1F : --- .. . ... ... : --- .. . ... ... ... ... : ... .. . ... ... : ... .. . ... F02 : ... .. . ...
ROW 20 : ... .. . ... ... : A#1 05 F ... ... ... ... : --- 12 . ... ... : D-# 00 . ... F03 : ... .. . ...
ROW 21 : ... .. . ... ... : ... .. . ... ... ... ... : ... .. . ... ... : ... .. . ... F02 : ... .. . ...
ROW 22 : ... .. . ... ... : --- .. . ... ... ... ... : ... .. . ... ... : B-# 00 . ... F03 : ... .. . ...
ROW 23 : ... .. . ... ... : ... .. . ... ... ... ... : ... .. . ... ... : ... .. . ... F02 : ... .. . ...
ROW 24 : A#2 0B . ... ... : F-4 10 6 ... ... ... ... : F-5 12 . ... ... : D-# 06 . ... F03 : ... .. . ...
ROW 25 : ... .. . ... ... : D-4 10 . ... ... ... ... : ... .. . ... ... : ... .. . ... F02 : ... .. . ...
ROW 26 : ... .. . ... ... : F-4 12 . ... ... ... ... : E-5 12 . ... ... : ... .. . ... F03 : ... .. . ...
ROW 27 : --- .. . ... ... : --- .. . ... ... ... ... : ... .. . ... ... : ... .. . ... F02 : ... .. . ...
ROW 28 : A#2 0B . ... ... : F-1 05 F ... ... ... ... : F-5 12 . ... ... : E-# 02 F ... F03 : ... .. . ...
ROW 29 : ... .. . ... ... : ... .. . ... ... ... ... : --- .. . ... ... : ... .. . ... F02 : ... .. . ...
ROW 2A : ... .. . ... ... : --- .. . ... ... ... ... : D-5 12 . ... ... : ... .. . ... F03 : ... .. . ...
ROW 2B : --- .. . ... ... : ... .. . ... ... ... ... : --- .. . ... ... : ... .. . ... F02 : ... .. . ...
ROW 2C : A#2 0B . ... ... : F-4 10 6 ... ... ... ... : C#5 12 . ... ... : D-# 15 A ... F03 : ... .. . ...
ROW 2D : ... .. . ... ... : D-4 10 . ... ... ... ... : --- .. . ... ... : ... .. . ... F02 : ... .. . ...
ROW 2E : ... .. . ... ... : F-4 12 . ... ... ... ... : D-5 12 . ... ... : ... .. . ... F03 : ... .. . ...
ROW 2F : --- .. . ... ... : --- .. . ... ... ... ... : --- .. . ... ... : ... .. . ... F02 : ... .. . ...
ROW 30 : ... .. . ... ... : A#1 05 F ... ... ... ... : A#4 12 . ... ... : D-# 00 A ... F03 : ... .. . ...
ROW 31 : ... .. . ... ... : ... .. . ... ... ... ... : ... .. . ... ... : ... .. . ... F02 : ... .. . ...
ROW 32 : ... .. . ... ... : --- .. . ... ... ... ... : ... .. . ... ... : B-# 00 . ... F03 : ... .. . ...
ROW 33 : ... .. . ... ... : ... .. . ... ... ... ... : ... .. . ... ... : ... .. . ... F02 : ... .. . ...
ROW 34 : F-4 10 6 100 ... : F-1 05 . ... ... ... ... : F-4 12 . 302 ... : D-# 15 . ... F03 : ... .. . ...
ROW 35 : D-4 10 . ... ... : ... .. . ... ... ... ... : ... .. . ... ... : ... .. . ... F02 : ... .. . ...
ROW 36 : F-4 12 . ... ... : --- .. . ... ... ... ... : ... .. . ... ... : ... .. . ... F03 : ... .. . ...
ROW 37 : --- .. . ... ... : ... .. . ... ... ... ... : ... .. . ... ... : ... .. . ... F02 : ... .. . ...
ROW 38 : A#2 0B A ... ... : C#1 16 . ... ... ... ... : ... .. . ... ... : E-# 02 F ... F03 : ... .. . ...
ROW 39 : ... .. . ... ... : ... .. . ... ... ... ... : ... .. . ... ... : ... .. . ... F02 : ... .. . ...
ROW 3A : ... .. . ... ... : --- .. . ... ... ... ... : ... .. . ... ... : ... .. . ... F03 : ... .. . ...
ROW 3B : --- .. . ... ... : ... .. . ... ... ... ... : ... .. . ... ... : ... .. . ... F02 : ... .. . ...
ROW 3C : A#2 0B F ... ... : D-1 16 . ... ... ... ... : --- .. . ... ... : D-# 15 5 ... F03 : ... .. . ...
ROW 3D : ... .. . ... ... : ... .. . ... ... ... ... : ... .. . ... ... : --- .. . ... F02 : ... .. . ...
ROW 3E : ... .. . ... ... : --- .. . ... ... ... ... : ... .. . ... ... : D-# 15 5 ... F03 : ... .. . ...
ROW 3F : --- .. . ... ... : ... .. . ... ... ... ... : ... .. . ... ... : ... .. . ... F02 : ... .. . ...

PATTERN 10
ROW 00 : D#3 0B 8 ... ... : D#1 05 F ... ... ... ... : C-4 01 . ... ... : D-# 06 F ... F03 : ... .. . ...
ROW 01 : ... .. . ... ... : ... .. . ... ... ... ... : ... .. . ... ... : ... .. . ... F02 : ... .. . ...
ROW 02 : A#3 03 . ... ... : ... .. . ... ... ... ... : G-4 03 . ... ... : D-# 00 5 ... F03 : ... .. . ...
ROW 03 : ... .. . ... ... : ... .. . ... ... ... ... : ... .. . ... ... : ... .. . ... F02 : ... .. . ...
ROW 04 : D#4 03 . ... ... : ... .. . 220 ... ... ... : A#4 03 . ... ... : D-# 00 5 ... F03 : ... .. . ...
ROW 05 : ... .. . ... ... : ... .. . ... ... ... ... : ... .. . ... ... : ... .. . ... F02 : ... .. . ...
ROW 06 : G-4 03 . ... ... : ... .. . ... ... ... ... : D#5 03 . ... ... : D-# 00 F ... F03 : ... .. . ...
ROW 07 : ... .. . ... ... : ... .. . ... ... ... ... : ... .. . ... ... : ... .. . ... F02 : ... .. . ...
ROW 08 : D#3 0B . ... ... : A#1 05 . 200 ... ... ... : C-5 0E . 200 ... : E-# 02 . ... F03 : ... .. . ...
ROW 09 : ... .. . ... ... : ... .. . S01 ... ... ... : ... .. . ... ... : ... .. . ... F02 : ... .. . ...
ROW 0A : A#3 03 . ... ... : A#1 05 . ... ... ... ... : G-4 03 . ... ... : ... .. . ... F03 : ... .. . ...
ROW 0B : ... .. . ... ... : ... .. . ... ... ... ... : ... .. . ... ... : ... .. . ... F02 : ... .. . ...
ROW 0C : D#4 03 . ... ... : G-1 05 . ... ... ... ... : A#4 03 . ... ... : D-# 00 5 ... F03 : ... .. . ...
ROW 0D : ... .. . ... ... : ... .. . ... ... ... ... : ... .. . ... ... : ... .. . ... F02 : ... .. . ...
ROW 0E : F-4 03 . ... ... : --- .. . ... ... ... ... : C#5 03 . ... ... : D-# 00 F ... F03 : ... .. . ...
ROW 0F : ... .. . ... ... : ... .. . ... ... ... ... : ... .. . ... ... : ... .. . ... F02 : ... .. . ...
ROW 10 : D#3 0B 8 ... ... : C-2 05 . ... ... ... ... : C-4 01 . ... ... : D-# 06 . ... F03 : ... .. . ...
ROW 11 : ... .. . ... ... : C#2 05 . ... ... ... ... : ... .. . ... ... : ... .. . ... F02 : ... .. . ...
ROW 12 : A#3 03 . ... ... : ... .. . ... ... ... ... : G-4 03 . ... ... : ... .. . ... F03 : ... .. . ...
ROW 13 : ... .. . ... ... : --- .. . ... ... ... ... : --- .. . ... ... : ... .. . ... F02 : ... .. . ...
ROW 14 : D#4 03 . ... ... : C-2 05 . ... ... ... ... : A#4 03 . ... ... : D-# 00 5 ... F03 : ... .. . ...
ROW 15 : ... .. . ... ... : ... .. . ... ... ... ... : ... .. . ... ... : ... .. . ... F02 : ... .. . ...
ROW 16 : G-4 03 . ... ... : ... .. . ... ... ... ... : D#5 03 . ... ... : D-# 00 F ... F03 : ... .. . ...
ROW 17 : ... .. . ... ... : --- .. . ... ... ... ... : --- .. . ... ... : ... .. . ... F02 : ... .. . ...
ROW 18 : D#3 0B . ... ... : A#1 05 . ... ... ... ... : C-5 0E . ... ... : E-# 02 . ... F03 : ... .. . ...
ROW 19 : ... .. . ... ... : ... .. . ... ... ... ... : ... .. . ... ... : ... .. . ... F02 : ... .. . ...
ROW 1A : A#3 03 . ... ... : ... .. . ... ... ... ... : G-4 03 . ... ... : ... .. . ... F03 : ... .. . ...
ROW 1B : ... .. . ... ... : --- .. . ... ... ... ... : ... .. . ... ... : ... .. . ... F02 : ... .. . ...
ROW 1C : D#4 03 . ... ... : D#1 05 . ... ... ... ... : A#4 03 . ... ... : D-# 00 5 ... F03 : ... .. . ...
ROW 1D : ... .. . ... ... : ... .. . ... ... ... ... : ... .. . ... ... : ... .. . ... F02 : ... .. . ...
ROW 1E : F-4 03 . ... ... : ... .. . ... ... ... ... : C#5 03 . ... ... : D-# 00 F ... F03 : ... .. . ...
ROW 1F : ... .. . ... ... : --- .. . ... ... ... ... : ... .. . ... ... : ... .. . ... F02 : ... .. . ...
ROW 20 : F#3 0B 8 ... ... : F#1 05 . ... ... ... ... : C-4 01 . ... ... : D-# 06 . ... F03 : ... .. . ...
ROW 21 : ... .. . ... ... : ... .. . ... ... ... ... : ... .. . ... ... : ... .. . ... F02 : ... .. . ...
ROW 22 : A#3 03 . ... ... : ... .. . ... ... ... ... : F#4 03 . ... ... : ... .. . ... F03 : ... .. . ...
ROW 23 : ... .. . ... ... : --- .. . ... ... ... ... : ... .. . ... ... : ... .. . ... F02 : ... .. . ...
ROW 24 : C#4 03 . ... ... : C#2 05 . ... ... ... ... : A#4 03 . ... ... : D-# 00 5 ... F03 : ... .. . ...
ROW 25 : ... .. . ... ... : ... .. . ... ... ... ... : ... .. . ... ... : ... .. . ... F02 : ... .. . ...
ROW 26 : F#4 03 . ... ... : ... .. . ... ... ... ... : D#5 03 . ... ... : D-# 00 F ... F03 : ... .. . ...
ROW 27 : ... .. . ... ... : ... .. . ... ... ... ... : ... .. . ... ... : ... .. . ... F02 : ... .. . ...
ROW 28 : F#3 0B . ... ... : D#2 05 . ... ... ... ... : C-5 0E . ... ... : E-# 02 A ... F03 : ... .. . ...
ROW 29 : ... .. . ... ... : ... .. . ... ... ... ... : ... .. . ... ... : ... .. . ... F02 : ... .. . ...
ROW 2A : A#3 03 . ... ... : ... .. . ... ... ... ... : F#4 03 . ... ... : ... .. . ... F03 : ... .. . ...
ROW 2B : ... .. . ... ... : --- .. . ... ... ... ... : ... .. . ... ... : ... .. . ... F02 : ... .. . ...
ROW 2C : C#4 03 . ... ... : A#1 05 . Q42 ... ... ... : A#4 03 . ... ... : D-# 00 5 ... F03 : ... .. . ...
ROW 2D : ... .. . ... ... : ... .. . ... ... ... ... : ... .. . ... ... : ... .. . ... F02 : ... .. . ...
ROW 2E : E-4 03 . ... ... : ... .. . ... ... ... ... : C#5 03 . ... ... : D-# 00 F ... F03 : ... .. . ...
ROW 2F : ... .. . ... ... : ... .. . ... ... ... ... : ... .. . ... ... : ... .. . ... F02 : ... .. . ...
ROW 30 : G#3 0B 8 ... ... : --- .. . ... ... ... ... : C-4 01 . 200 ... : D-# 06 . ... F03 : ... .. . ...
ROW 31 : ... .. . ... ... : ... .. . ... ... ... ... : ... .. . ... ... : ... .. . ... F02 : ... .. . ...
ROW 32 : C-4 03 . ... ... : ... .. . ... ... ... ... : G#4 03 . ... ... : D-# 00 5 ... F03 : ... .. . ...
ROW 33 : ... .. . ... ... : ... .. . ... ... ... ... : ... .. . ... ... : ... .. . ... F02 : ... .. . ...
ROW 34 : D#4 03 . ... ... : G#1 05 . ... ... ... ... : C-5 03 . ... ... : D-# 00 5 ... F03 : ... .. . ...
ROW 35 : ... .. . ... ... : ... .. . ... ... ... ... : ... .. . ... ... : ... .. . ... F02 : ... .. . ...
ROW 36 : G#4 03 . ... ... : ... .. . ... ... ... ... : F#5 03 . ... ... : D-# 06 F ... F03 : ... .. . ...
ROW 37 : ... .. . ... ... : ... .. . ... ... ... ... : ... .. . ... ... : ... .. . ... F02 : ... .. . ...
ROW 38 : C-4 0C 8 ... ... : ... .. . 220 ... ... ... : C-5 0E . ... ... : E-# 02 . ... F03 : ... .. . ...
ROW 39 : C-4 0C 4 ... ... : ... .. . ... ... ... ... : ... .. . ... ... : ... .. . ... F02 : ... .. . ...
ROW 3A : D#4 0C 8 ... ... : ... .. . ... ... ... ... : G#4 03 . ... ... : ... .. . ... F03 : ... .. . ...
ROW 3B : D#4 0C 4 ... ... : --- .. . ... ... ... ... : ... .. . ... ... : ... .. . ... F02 : ... .. . ...
ROW 3C : G#4 0C 8 ... ... : F-1 05 . 200 ... ... ... : C-5 03 . ... ... : D-# 06 F ... F03 : ... .. . ...
ROW 3D : G#4 0C 4 ... ... : ... .. . ... ... ... ... : ... .. . ... ... : ... .. . ... F02 : ... .. . ...
ROW 3E : C-5 0C 8 ... ... : ... .. . ... ... ... ... : D#5 03 . ... ... : D-# 06 . ... F03 : ... .. . ...
ROW 3F : C-5 0C 4 ... ... : --- .. . ... ... ... ... : ... .. . ... ... : ... .. . ... F02 : ... .. . ...

PATTERN 11
ROW 00 : A#4 0C 8 ... ... : A#1 05 F ... ... ... ... : C-4 01 . 200 ... : D-# 06 A 100 F03 : ... .. . ...
ROW 01 : A#4 0C 4 ... ... : ... .. . ... ... ... ... : A#2 05 . ... ... : ... .. . ... F02 : ... .. . ...
ROW 02 : F-4 0C 8 ... ... : ... .. . ... ... ... ... : ... .. . ... ... : ... .. . ... F03 : ... .. . ...
ROW 03 : F-4 0C 4 ... ... : --- .. . ... ... ... ... : --- .. . ... ... : --- .. . ... F02 : ... .. . ...
ROW 04 : D-4 0C 8 ... ... : A#1 05 . ... ... ... ... : A#2 05 . ... ... : D-# 00 5 ... F03 : ... .. . ...
ROW 05 : D-4 0C 4 ... ... : --- .. . S01 ... ... ... : --- .. . ... ... : ... .. . ... F02 : ... .. . ...
ROW 06 : F-4 0C 8 ... ... : A#1 05 . ... ... ... ... : A#2 05 . ... ... : D-# 00 A ... F03 : ... .. . ...
ROW 07 : F-4 0C 4 ... ... : --- .. . ... ... ... ... : --- .. . ... ... : ... .. . ... F02 : ... .. . ...
ROW 08 : A#4 0C 8 ... ... : D-2 05 . ... ... ... ... : F-5 0C . 220 ... : E-# 02 F ... F03 : ... .. . ...
ROW 09 : A#4 0C 4 ... ... : ... .. . ... ... ... ... : ... .. . ... ... : ... .. . ... F02 : ... .. . ...
ROW 0A : C-5 0C 8 ... ... : ... .. . ... ... ... ... : ... .. . ... ... : ... .. . ... F03 : ... .. . ...
ROW 0B : C-5 0C 4 ... ... : --- .. . ... ... ... ... : --- .. . ... ... : ... .. . ... F02 : ... .. . ...
ROW 0C : D-5 0C 8 ... ... : A#1 05 . ... ... ... ... : F-5 0C . ... ... : D-# 03 4 ... F03 : ... .. . ...
ROW 0D : D-5 0C 4 ... ... : ... .. . ... ... ... ... : --- .. . ... ... : D-# 03 6 ... F02 : ... .. . ...
ROW 0E : F-5 0C 8 ... ... : ... .. . ... ... ... ... : F-5 0C . ... ... : D-# 00 8 ... F03 : ... .. . ...
ROW 0F : F-5 0C 4 ... ... : --- .. . ... ... ... ... : --- .. . ... ... : D-# 00 A S01 F02 : ... .. . ...
ROW 10 : A#3 0B F ... ... : C#2 05 . ... ... ... ... : F-5 0C . ... ... : E-# 02 F ... F03 : ... .. . ...
ROW 11 : ... .. . ... ... : D-2 05 . ... ... ... ... : ... .. . ... ... : ... .. . ... F02 : ... .. . ...
ROW 12 : ... .. . ... ... : ... .. . ... ... ... ... : ... .. . ... ... : ... .. . ... F03 : ... .. . ...
ROW 13 : --- .. . ... ... : --- .. . ... ... ... ... : --- .. . ... ... : --- .. . ... F02 : ... .. . ...
ROW 14 : A-3 0B . ... ... : F-2 05 . ... ... ... ... : D-5 0C . ... ... : E-# 02 F ... F03 : ... .. . ...
ROW 15 : ... .. . ... ... : ... .. . ... ... ... ... : ... .. . ... ... : ... .. . ... F02 : ... .. . ...
ROW 16 : ... .. . ... ... : ... .. . ... ... ... ... : ... .. . ... ... : ... .. . ... F03 : ... .. . ...
ROW 17 : --- .. . ... ... : --- .. . ... ... ... ... : --- .. . ... ... : ... .. . ... F02 : ... .. . ...
ROW 18 : G#3 0B . ... ... : G-2 05 . ... ... ... ... : B-4 0C . ... ... : C-# 02 F ... F03 : ... .. . ...
ROW 19 : ... .. . ... ... : ... .. . ... ... ... ... : ... .. . ... ... : ... .. . ... F02 : ... .. . ...
ROW 1A : ... .. . ... ... : ... .. . ... ... ... ... : ... .. . ... ... : ... .. . ... F03 : ... .. . ...
ROW 1B : --- .. . ... ... : --- .. . ... ... ... ... : --- .. . ... ... : ... .. . ... F02 : ... .. . ...
ROW 1C : G-3 0B . ... ... : G-1 05 . ... ... ... ... : G-2 05 . 200 ... : 6-# 16 8 ... F03 : ... .. . ...
ROW 1D : ... .. . ... ... : ... .. . ... ... ... ... : ... .. . ... ... : ... .. . ... F02 : ... .. . ...
ROW 1E : ... .. . ... ... : ... .. . ... ... ... ... : ... .. . ... ... : ... .. . ... F03 : ... .. . ...
ROW 1F : ... .. . ... ... : ... .. . ... ... ... ... : ... .. . ... ... : ... .. . ... F02 : ... .. . ...
ROW 20 : ... .. . ... ... : ... .. . 220 ... ... ... : ... .. . 220 ... : ... .. . ... F03 : ... .. . ...
ROW 21 : ... .. . ... ... : ... .. . ... ... ... ... : ... .. . ... ... : ... .. . ... F02 : ... .. . ...
ROW 22 : ... .. . ... ... : ... .. . ... ... ... ... : ... .. . ... ... : ... .. . ... F03 : ... .. . ...
ROW 23 : --- .. . ... ... : --- .. . ... ... ... ... : ... .. . ... ... : ... .. . ... F02 : ... .. . ...
ROW 24 : G-3 0B 7 ... ... : ... .. . ... ... ... ... : C-5 0E . ... ... : E-# 02 F ... F03 : ... .. . ...
ROW 25 : ... .. . ... ... : ... .. . ... ... ... ... : ... .. . ... ... : ... .. . ... F02 : ... .. . ...
ROW 26 : ... .. . ... ... : ... .. . ... ... ... ... : ... .. . ... ... : ... .. . ... F03 : ... .. . ...
ROW 27 : ... .. . ... ... : ... .. . ... ... ... ... : ... .. . ... ... : ... .. . ... F02 : ... .. . ...
ROW 28 : ... .. . ... ... : G-3 07 6 200 ... ... ... : C-4 01 . ... ... : D-# 06 A ... F03 : ... .. . ...
ROW 29 : ... .. . ... ... : ... .. . ... ... ... ... : ... .. . ... ... : ... .. . ... F02 : ... .. . ...
ROW 2A : --- .. . ... ... : ... .. . ... ... ... ... : ... .. . ... ... : ... .. . ... F03 : ... .. . ...
ROW 2B : G-3 0B 3 ... ... : ... .. . ... ... ... ... : ... .. . ... ... : ... .. . ... F02 : ... .. . ...
ROW 2C : ... .. . ... ... : ... .. 5 ... ... ... ... : C-4 01 . ... ... : B-# 00 5 ... F03 : ... .. . ...
ROW 2D : ... .. . ... ... : ... .. 4 ... ... ... ... : ... .. . ... ... : ... .. . ... F02 : ... .. . ...
ROW 2E : ... .. . ... ... : ... .. 3 ... ... ... ... : ... .. . ... ... : B-# 00 5 ... F03 : ... .. . ...
ROW 2F : ... .. . ... ... : ... .. 2 ... ... ... ... : ... .. . ... ... : ... .. . ... F02 : ... .. . ...
ROW 30 : G-3 11 A ... ... : B-3 10 5 ... ... ... ... : C-5 0E . ... ... : E-# 02 F ... F03 : ... .. . ...
ROW 31 : ... .. . ... ... : ... .. . S02 ... ... ... : ... .. . ... ... : ... .. . ... F02 : ... .. . ...
ROW 32 : G-3 11 A ... ... : B-3 12 9 ... ... ... ... : ... .. . ... ... : ... .. . ... F03 : ... .. . ...
ROW 33 : ... .. . ... ... : ... .. . S02 ... ... ... : ... .. . ... ... : ... .. . ... F02 : ... .. . ...
ROW 34 : ... .. . ... ... : --- .. . ... ... ... ... : C-4 01 . ... ... : D-# 06 A ... F03 : ... .. . ...
ROW 35 : ... .. . ... ... : ... .. . ... ... ... ... : ... .. . ... ... : ... .. . ... F02 : ... .. . ...
ROW 36 : ... .. . ... ... : ... .. . ... ... ... ... : ... .. . ... ... : ... .. . ... F03 : ... .. . ...
ROW 37 : ... .. . ... ... : ... .. . ... ... ... ... : ... .. . ... ... : ... .. . ... F02 : ... .. . ...
ROW 38 : G-2 0A 8 ... ... : G-3 10 5 ... ... ... ... : C-4 01 . 200 ... : E-# 02 F ... F03 : ... .. . ...
ROW 39 : ... .. . ... ... : ... .. . S02 ... ... ... : C-2 05 . 118 ... : ... .. . ... F02 : ... .. . ...
ROW 3A : ... .. . ... ... : G-3 12 9 ... ... ... ... : ... .. . ... ... : E-# 02 F ... F03 : ... .. . ...
ROW 3B : ... .. . ... ... : ... .. . S02 ... ... ... : ... .. . ... ... : ... .. . ... F02 : ... .. . ...
ROW 3C : ... .. . ... ... : --- .. . ... ... ... ... : ... .. . ... ... : E-# 02 F ... F03 : ... .. . ...
ROW 3D : ... .. . ... ... : ... .. . ... ... ... ... : ... .. . ... ... : ... .. . ... F02 : ... .. . ...
ROW 3E : ... .. . ... ... : ... .. . ... ... ... ... : ... .. . ... ... : E-# 02 F ... F03 : ... .. . ...
ROW 3F : ... .. . ... ... : ... .. . ... ... ... ... : ... .. . ... ... : ... .. . ... F02 : ... .. . ...

PATTERN 12
ROW 00 : A#3 05 A ... ... : E-3 13 F ... ... ... ... : C-4 01 . 100 ... : A-# 16 A 100 F03 : ... .. . ...
ROW 01 : ... .. . ... ... : ... .. . ... ... ... ... : E-2 05 . ... ... : ... .. . ... F02 : ... .. . ...
ROW 02 : ... .. . ... ... : --- .. . ... ... ... ... : ... .. . ... ... : ... .. . ... F03 : ... .. . ...
ROW 03 : ... .. . ... ... : ... .. . ... ... ... ... : ... .. . ... ... : ... .. . ... F02 : ... .. . ...
ROW 04 : C-4 05 . ... ... : ... .. . ... ... ... ... : E-3 05 . 3A0 ... : ... .. . ... F03 : ... .. . ...
ROW 05 : ... .. . ... ... : ... .. . ... ... ... ... : ... .. . ... ... : ... .. . ... F02 : ... .. . ...
ROW 06 : ... .. . ... ... : C-4 05 4 ... ... ... ... : ... .. . ... ... : ... .. . ... F03 : ... .. . ...
ROW 07 : ... .. . ... ... : ... .. . ... ... ... ... : --- .. . ... ... : ... .. . ... F02 : ... .. . ...
ROW 08 : D-4 05 . ... ... : ... .. . ... ... ... ... : C-5 0E . 200 ... : E-# 02 F ... F03 : ... .. . ...
ROW 09 : ... .. . ... ... : ... .. . ... ... ... ... : A#2 05 . ... ... : ... .. . ... F02 : ... .. . ...
ROW 0A : ... .. . ... ... : D-4 05 . ... ... ... ... : ... .. . ... ... : ... .. . ... F03 : ... .. . ...
ROW 0B : ... .. . ... ... : ... .. . ... ... ... ... : --- .. . ... ... : ... .. . ... F02 : ... .. . ...
ROW 0C : A#3 05 . ... ... : D#3 0B F ... ... ... ... : D#2 0C . ... ... : D-# 06 A ... F03 : ... .. . ...
ROW 0D : C-4 05 . ... ... : ... .. . ... ... ... ... : D#2 05 . ... ... : ... .. . ... F02 : ... .. . ...
ROW 0E : ... .. . ... ... : ... .. . ... ... ... ... : ... .. . ... ... : ... .. . ... F03 : ... .. . ...
ROW 0F : ... .. . ... ... : ... .. . ... ... ... ... : ... .. . ... ... : ... .. . ... F02 : ... .. . ...
ROW 10 : ... .. . 488 ... : ... .. . ... ... ... ... : ... .. . 220 ... : D-# 00 A ... F03 : ... .. . ...
ROW 11 : ... .. . ... ... : ... .. . ... ... ... ... : ... .. . ... ... : --- .. . ... F02 : ... .. . ...
ROW 12 : ... .. . ... ... : ... .. . ... ... ... ... : ... .. . ... ... : B-# 00 5 ... F03 : ... .. . ...
ROW 13 : --- .. . ... ... : ... .. . ... ... ... ... : --- .. . ... ... : --- .. . ... F02 : ... .. . ...
ROW 14 : A#3 05 . 400 ... : ... .. . ... ... ... ... : A#2 05 . 200 ... : D-# 06 A ... F03 : ... .. . ...
ROW 15 : ... .. . ... ... : --- .. . ... ... ... ... : ... .. . ... ... : ... .. . ... F02 : ... .. . ...
ROW 16 : ... .. . ... ... : A#3 05 4 400 ... ... ... : ... .. . ... ... : ... .. . ... F03 : ... .. . ...
ROW 17 : ... .. . ... ... : ... .. . ... ... ... ... : --- .. . ... ... : ... .. . ... F02 : ... .. . ...
ROW 18 : G-3 05 . 320 ... : ... .. . ... ... ... ... : C-5 0E . ... ... : E-# 02 F ... F03 : ... .. . ...
ROW 19 : ... .. . ... ... : ... .. . ... ... ... ... : D#3 05 . ... ... : ... .. . ... F02 : ... .. . ...
ROW 1A : ... .. . ... ... : G-3 05 . 320 ... ... ... : --- .. . ... ... : ... .. . ... F03 : ... .. . ...
ROW 1B : --- .. . ... ... : ... .. . ... ... ... ... : ... .. . ... ... : ... .. . ... F02 : ... .. . ...
ROW 1C : A#3 05 . ... ... : A#2 0B F ... ... ... ... : C-4 01 . ... ... : D-# 06 A ... F03 : ... .. . ...
ROW 1D : ... .. . ... ... : ... .. . ... ... ... ... : F-3 05 . ... ... : ... .. . ... F02 : ... .. . ...
ROW 1E : ... .. . ... ... : ... .. . ... ... ... ... : ... .. . ... ... : --- .. . ... F03 : ... .. . ...
ROW 1F : ... .. . ... ... : ... .. . ... ... ... ... : --- .. . ... ... : ... .. . ... F02 : ... .. . ...
ROW 20 : ... .. . 220 ... : --- .. . ... ... ... ... : --- 05 . ... ... : D-# 00 A ... F03 : ... .. . ...
ROW 21 : ... .. . ... ... : ... .. . ... ... ... ... : ... .. . ... ... : ... .. . ... F02 : ... .. . ...
ROW 22 : ... .. . ... ... : ... .. . ... ... ... ... : ... .. . ... ... : B-# 00 5 ... F03 : ... .. . ...
ROW 23 : --- .. . ... ... : ... .. . ... ... ... ... : ... .. . ... ... : ... .. . ... F02 : ... .. . ...
ROW 24 : C-4 05 . 200 ... : ... .. . ... ... ... ... : C-4 01 . ... ... : D-# 06 A ... F03 : ... .. . ...
ROW 25 : ... .. . ... ... : --- .. . ... ... ... ... : A#3 03 . ... ... : ... .. . ... F02 : ... .. . ...
ROW 26 : ... .. . ... ... : C-4 05 4 200 ... ... ... : F-5 03 . ... ... : ... .. . ... F03 : ... .. . ...
ROW 27 : ... .. . ... ... : ... .. . ... ... ... ... : --- .. . ... ... : ... .. . ... F02 : ... .. . ...
ROW 28 : D-4 05 . ... ... : ... .. . ... ... ... ... : C#3 05 . ... ... : E-# 02 F ... F03 : ... .. . ...
ROW 29 : ... .. . ... ... : ... .. . ... ... ... ... : ... .. . ... ... : ... .. . ... F02 : ... .. . ...
ROW 2A : ... .. . ... ... : D-4 05 . ... ... ... ... : ... .. . ... ... : ... .. . ... F03 : ... .. . ...
ROW 2B : ... .. . ... ... : ... .. . ... ... ... ... : ... .. . ... ... : ... .. . ... F02 : ... .. . ...
ROW 2C : --- .. . ... ... : ... .. . ... ... ... ... : D-3 05 . 200 ... : D-# 06 A ... F03 : ... .. . ...
ROW 2D : ... .. . ... ... : ... .. . ... ... ... ... : --- .. . ... ... : ... .. . ... F02 : ... .. . ...
ROW 2E : ... .. . ... ... : --- .. . ... ... ... ... : ... .. . ... ... : ... .. . ... F03 : ... .. . ...
ROW 2F : ... .. . ... ... : ... .. . ... ... ... ... : ... .. . ... ... : ... .. . ... F02 : ... .. . ...
ROW 30 : A#3 05 . ... ... : C#3 13 F ... ... ... ... : C-4 01 . ... ... : D-# 00 A ... F03 : ... .. . ...
ROW 31 : C-4 05 . ... ... : ... .. . ... ... ... ... : E-2 05 . ... ... : ... .. . ... F02 : ... .. . ...
ROW 32 : ... .. . ... ... : ... .. . ... ... ... ... : ... .. . ... ... : B-# 00 5 ... F03 : ... .. . ...
ROW 33 : ... .. . ... ... : ... .. . ... ... ... ... : ... .. . ... ... : ... .. . ... F02 : ... .. . ...
ROW 34 : A#3 05 . ... ... : --- .. . ... ... ... ... : E-3 05 . 380 ... : D-# 06 A ... F03 : ... .. . ...
ROW 35 : ... .. . ... ... : ... .. . ... ... ... ... : ... .. . ... ... : ... .. . ... F02 : ... .. . ...
ROW 36 : ... .. . ... ... : A#3 05 4 ... ... ... ... : ... .. . ... ... : ... .. . ... F03 : ... .. . ...
ROW 37 : ... .. . ... ... : ... .. . ... ... ... ... : --- .. . ... ... : ... .. . ... F02 : ... .. . ...
ROW 38 : F-3 05 . ... ... : E-3 13 F ... ... ... ... : C-5 0E . 300 ... : E-# 02 F ... F03 : ... .. . ...
ROW 39 : ... .. . ... ... : ... .. . ... ... ... ... : G-3 05 . ... ... : ... .. . ... F02 : ... .. . ...
ROW 3A : ... .. . ... ... : ... .. . ... ... ... ... : ... .. . ... ... : ... .. . ... F03 : ... .. . ...
ROW 3B : ... .. . ... ... : ... .. . ... ... ... ... : --- .. . ... ... : ... .. . ... F02 : ... .. . ...
ROW 3C : --- 05 . ... ... : ... .. . ... ... ... ... : C-4 01 . ... ... : D-# 06 A ... F03 : ... .. . ...
ROW 3D : ... .. . ... ... : ... .. . ... ... ... ... : G-2 05 . ... ... : --- .. . ... F02 : ... .. . ...
ROW 3E : ... .. . ... ... : ... .. . ... ... ... ... : ... .. . ... ... : D-# 06 A ... F03 : ... .. . ...
ROW 3F : ... .. . ... ... : ... .. . ... ... ... ... : --- .. . ... ... : ... .. . ... F02 : ... .. . ...

PATTERN 13
ROW 00 : A#3 10 A ... ... : D#2 0A F ... ... ... ... : C-4 01 . ... ... : 7-# 16 . ... F03 : ... .. . ...
ROW 01 : ... .. . ... ... : ... .. . ... ... ... ... : C-3 05 . ... ... : ... .. . ... F02 : ... .. . ...
ROW 02 : ... .. . ... ... : ... .. . ... ... ... ... : ... .. . ... ... : ... .. . ... F03 : ... .. . ...
ROW 03 : ... .. . ... ... : ... .. . ... ... ... ... : ... .. . ... ... : ... .. . ... F02 : ... .. . ...
ROW 04 : --- .. . ... ... : ... .. . ... ... ... ... : ... .. . ... ... : ... .. . ... F03 : ... .. . ...
ROW 05 : ... .. . ... ... : ... .. . ... ... ... ... : ... .. . ... ... : ... .. . ... F02 : ... .. . ...
ROW 06 : ... .. . ... ... : ... .. . ... ... ... ... : ... .. . ... ... : ... .. . ... F03 : ... .. . ...
ROW 07 : ... .. . ... ... : ... .. . ... ... ... ... : ... .. . ... ... : ... .. . ... F02 : ... .. . ...
ROW 08 : A#3 10 8 ... ... : ... .. 9 ... ... ... ... : ... .. . 212 ... : D-# 06 F 100 F03 : ... .. . ...
ROW 09 : ... .. . ... ... : ... .. . ... ... ... ... : ... .. . ... ... : ... .. . ... F02 : ... .. . ...
ROW 0A : ... .. . ... ... : ... .. . ... ... ... ... : ... .. . ... ... : D-# 00 5 ... F03 : ... .. . ...
ROW 0B : ... .. . ... ... : ... .. . ... ... ... ... : ... .. . ... ... : ... .. . ... F02 : ... .. . ...
ROW 0C : --- .. . ... ... : ... .. . ... ... ... ... : ... .. . ... ... : D-# 00 5 ... F03 : ... .. . ...
ROW 0D : ... .. . ... ... : ... .. . ... ... ... ... : ... .. . ... ... : ... .. . ... F02 : ... .. . ...
ROW 0E : ... .. . ... ... : ... .. . ... ... ... ... : ... .. . ... ... : D-# 00 F ... F03 : ... .. . ...
ROW 0F : ... .. . ... ... : ... .. . ... ... ... ... : ... .. . ... ... : ... .. . ... F02 : ... .. . ...
ROW 10 : A#3 10 4 ... ... : ... .. 6 ... ... ... ... : ... .. . ... ... : D-# 06 F ... F03 : ... .. . ...
ROW 11 : ... .. . ... ... : ... .. . ... ... ... ... : ... .. . ... ... : ... .. . ... F02 : ... .. . ...
ROW 12 : ... .. . ... ... : ... .. . ... ... ... ... : ... .. . ... ... : D-# 00 5 ... F03 : ... .. . ...
ROW 13 : ... .. . ... ... : ... .. . ... ... ... ... : ... .. . ... ... : ... .. . ... F02 : ... .. . ...
ROW 14 : --- .. . ... ... : ... .. . ... ... ... ... : ... .. . ... ... : D-# 00 5 ... F03 : ... .. . ...
ROW 15 : ... .. . ... ... : ... .. . ... ... ... ... : ... .. . ... ... : ... .. . ... F02 : ... .. . ...
ROW 16 : ... .. . ... ... : ... .. . ... ... ... ... : ... .. . ... ... : D-# 00 F ... F03 : ... .. . ...
ROW 17 : ... .. . ... ... : ... .. . ... ... ... ... : ... .. . ... ... : ... .. . ... F02 : ... .. . ...
ROW 18 : A#3 10 2 ... ... : ... .. 4 ... ... ... ... : ... .. . ... ... : D-# 06 F ... F03 : ... .. . ...
ROW 19 : ... .. . ... ... : ... .. . ... ... ... ... : ... .. . ... ... : ... .. . ... F02 : ... .. . ...
ROW 1A : ... .. . ... ... : ... .. . ... ... ... ... : ... .. . ... ... : D-# 00 5 ... F03 : ... .. . ...
ROW 1B : ... .. . ... ... : ... .. . ... ... ... ... : ... .. . ... ... : ... .. . ... F02 : ... .. . ...
ROW 1C : --- .. . ... ... : ... .. . ... ... ... ... : ... .. . ... ... : D-# 00 5 ... F03 : ... .. . ...
ROW 1D : ... .. . ... ... : ... .. . ... ... ... ... : ... .. . ... ... : ... .. . ... F02 : ... .. . ...
ROW 1E : ... .. . ... ... : ... .. . ... ... ... ... : ... .. . ... ... : D-# 00 F ... F03 : ... .. . ...
ROW 1F : ... .. . ... ... : ... .. . ... ... ... ... : ... .. . ... ... : ... .. . ... F02 : ... .. . ...
ROW 20 : ... .. . ... ... : ... .. 2 ... ... ... ... : --- .. . 200 ... : D-# 06 F ... F03 : ... .. . ...
ROW 21 : ... .. . ... ... : ... .. . ... ... ... ... : ... .. . ... ... : ... .. . ... F02 : ... .. . ...
ROW 22 : ... .. . ... ... : ... .. . ... ... ... ... : ... .. . ... ... : D-# 00 5 ... F03 : ... .. . ...
ROW 23 : ... .. . ... ... : ... .. . ... ... ... ... : ... .. . ... ... : ... .. . ... F02 : ... .. . ...
ROW 24 : ... .. . ... ... : ... .. . ... ... ... ... : B-2 16 . ... ... : D-# 00 5 ... F03 : ... .. . ...
ROW 25 : ... .. . ... ... : ... .. . ... ... ... ... : ... .. . ... ... : ... .. . ... F02 : ... .. . ...
ROW 26 : ... .. . ... ... : ... .. . ... ... ... ... : --- .. . ... ... : D-# 00 F ... F03 : ... .. . ...
ROW 27 : ... .. . ... ... : ... .. . ... ... ... ... : ... .. . ... ... : ... .. . ... F02 : ... .. . ...
ROW 28 : ... .. . ... ... : --- .. 1 ... ... ... ... : B-1 16 . ... ... : D-# 06 F ... F03 : ... .. . ...
ROW 29 : ... .. . ... ... : ... .. . ... ... ... ... : ... .. . ... ... : ... .. . ... F02 : ... .. . ...
ROW 2A : ... .. . ... ... : ... .. . ... ... ... ... : --- .. . ... ... : D-# 00 5 ... F03 : ... .. . ...
ROW 2B : ... .. . ... ... : ... .. . ... ... ... ... : ... .. . ... ... : ... .. . ... F02 : ... .. . ...
ROW 2C : ... .. . ... ... : ... .. . ... ... ... ... : B-1 16 . ... ... : D-# 00 5 ... F03 : ... .. . ...
ROW 2D : ... .. . ... ... : ... .. . ... ... ... ... : ... .. . ... ... : ... .. . ... F02 : ... .. . ...
ROW 2E : ... .. . ... ... : ... .. . ... ... ... ... : --- .. . ... ... : D-# 00 F ... F03 : ... .. . ...
ROW 2F : ... .. . ... ... : ... .. . ... ... ... ... : ... .. . ... ... : ... .. . ... F02 : ... .. . ...
ROW 30 : B-2 0B 4 ... ... : D#3 0F 4 ... ... ... ... : C-4 01 . ... ... : D-# 06 F ... F03 : ... .. . ...
ROW 31 : ... .. . ... ... : ... .. . ... ... ... ... : B-1 16 . ... ... : ... .. . ... F02 : ... .. . ...
ROW 32 : ... .. . ... ... : ... .. . ... ... ... ... : --- .. . ... ... : D-# 00 5 ... F03 : ... .. . ...
ROW 33 : --- .. . ... ... : --- .. . ... ... ... ... : ... .. . ... ... : ... .. . ... F02 : ... .. . ...
ROW 34 : B-2 0B 8 ... ... : D#3 0F 8 ... ... ... ... : C-4 01 . ... ... : D-# 00 5 ... F03 : ... .. . ...
ROW 35 : ... .. . ... ... : ... .. . ... ... ... ... : B-1 16 . ... ... : ... .. . ... F02 : ... .. . ...
ROW 36 : ... .. . ... ... : ... .. . ... ... ... ... : --- .. . ... ... : D-# 00 F ... F03 : ... .. . ...
ROW 37 : --- .. . ... ... : --- .. . ... ... ... ... : ... .. . ... ... : ... .. . ... F02 : ... .. . ...
ROW 38 : B-2 0B A ... ... : D#3 0F A ... ... ... ... : C-4 01 . ... ... : D-# 06 F ... F03 : ... .. . ...
ROW 39 : ... .. . ... ... : ... .. . ... ... ... ... : B-2 16 . ... ... : ... .. . ... F02 : ... .. . ...
ROW 3A : ... .. . ... ... : ... .. . ... ... ... ... : ... .. . ... ... : D-# 00 5 ... F03 : ... .. . ...
ROW 3B : --- .. . ... ... : --- .. . ... ... ... ... : --- .. . ... ... : ... .. . ... F02 : ... .. . ...
ROW 3C : B-2 0B F ... ... : D#3 0F F ... ... ... ... : C-4 01 . ... ... : D-# 00 5 ... F03 : ... .. . ...
ROW 3D : ... .. . ... ... : ... .. . ... ... ... ... : B-2 16 . ... ... : ... .. . ... F02 : ... .. . ...
ROW 3E : ... .. . ... ... : ... .. . ... ... ... ... : ... .. . ... ... : D-# 00 F ... F03 : ... .. . ...
ROW 3F : --- .. . ... ... : --- .. . ... ... ... ... : --- .. . ... ... : ... .. . ... F02 : ... .. . ...

PATTERN 14
ROW 00 : A#4 0C A ... ... : A#1 05 F ... ... ... ... : C-4 01 . ... ... : 9-# 16 A ... F03 : ... .. . ...
ROW 01 : ... .. . ... ... : ... .. . ... ... ... ... : A#2 16 . ... ... : ... .. . ... F02 : ... .. . ...
ROW 02 : A#4 0C 3 ... ... : ... .. . ... ... ... ... : ... .. . ... ... : ... .. . ... F03 : ... .. . ...
ROW 03 : ... .. . ... ... : ... .. . ... ... ... ... : ... .. . ... ... : ... .. . ... F02 : ... .. . ...
ROW 04 : G#4 0D A ... ... : --- .. . ... ... ... ... : --- .. . ... ... : ... .. . ... F03 : ... .. . ...
ROW 05 : ... .. . ... ... : ... .. . ... ... ... ... : ... .. . ... ... : ... .. . ... F02 : ... .. . ...
ROW 06 : G#4 0D 3 ... ... : ... .. . ... ... ... ... : ... .. . ... ... : D-# 00 F ... F03 : ... .. . ...
ROW 07 : ... .. . ... ... : ... .. . ... ... ... ... : ... .. . ... ... : ... .. . ... F02 : ... .. . ...
ROW 08 : A#5 05 A ... ... : A#2 0F . ... ... ... ... : C-4 01 . ... ... : 8-# 16 F ... F03 : ... .. . ...
ROW 09 : ... .. . ... ... : ... .. . ... ... ... ... : ... .. . ... ... : ... .. . ... F02 : ... .. . ...
ROW 0A : ... .. . 220 ... : ... .. . ... ... ... ... : ... .. . ... ... : ... .. . ... F03 : ... .. . ...
ROW 0B : ... .. . ... ... : --- .. . ... ... ... ... : ... .. . ... ... : ... .. . ... F02 : ... .. . ...
ROW 0C : A#5 05 6 200 ... : A#2 0F 4 ... ... ... ... : ... .. . ... ... : ... .. . ... F03 : ... .. . ...
ROW 0D : ... .. . ... ... : ... .. . ... ... ... ... : ... .. . ... ... : ... .. . ... F02 : ... .. . ...
ROW 0E : ... .. . 220 ... : ... .. . ... ... ... ... : ... .. . ... ... : ... .. . ... F03 : ... .. . ...
ROW 0F : ... .. . ... ... : --- .. . ... ... ... ... : ... .. . ... ... : ... .. . ... F02 : ... .. . ...
ROW 10 : A#5 05 3 200 ... : ... .. . ... ... ... ... : C-4 01 . ... ... : ... .. 8 ... F03 : ... .. . ...
ROW 11 : ... .. . ... ... : ... .. . ... ... ... ... : ... .. . ... ... : ... .. . ... F02 : ... .. . ...
ROW 12 : ... .. . 220 ... : ... .. . ... ... ... ... : ... .. . ... ... : ... .. . ... F03 : ... .. . ...
ROW 13 : ... .. . ... ... : ... .. . ... ... ... ... : ... .. . ... ... : ... .. . ... F02 : ... .. . ...
ROW 14 : G#4 0D A 200 ... : G#1 05 F ... ... ... ... : G#1 05 . ... ... : ... .. 4 444 F03 : ... .. . ...
ROW 15 : ... .. . ... ... : ... .. . ... ... ... ... : ... .. . ... ... : ... .. 3 ... F02 : ... .. . ...
ROW 16 : G#4 0D 3 ... ... : ... .. . ... ... ... ... : ... .. . ... ... : ... .. 2 ... F03 : ... .. . ...
ROW 17 : ... .. . ... ... : ... .. . ... ... ... ... : ... .. . ... ... : --- .. . ... F02 : ... .. . ...
ROW 18 : A#4 0C A ... ... : A#1 05 . ... ... ... ... : C-4 01 . ... ... : D-# 06 F 400 F03 : ... .. . ...
ROW 19 : ... .. . ... ... : ... .. . ... ... ... ... : A#1 05 . ... ... : ... .. . ... F02 : ... .. . ...
ROW 1A : A#4 0C 3 ... ... : ... .. . ... ... ... ... : ... .. . ... ... : D-# 00 5 ... F03 : ... .. . ...
ROW 1B : ... .. . ... ... : ... .. . ... ... ... ... : ... .. . ... ... : ... .. . ... F02 : ... .. . ...
ROW 1C : A#3 0D A ... ... : C#2 05 . ... ... ... ... : C#2 05 . ... ... : D-# 00 5 ... F03 : ... .. . ...
ROW 1D : ... .. . ... ... : ... .. . ... ... ... ... : ... .. . ... ... : ... .. . ... F02 : ... .. . ...
ROW 1E : A#3 0D 3 ... ... : ... .. . ... ... ... ... : ... .. . ... ... : D-# 00 F ... F03 : ... .. . ...
ROW 1F : ... .. . ... ... : ... .. . ... ... ... ... : ... .. . ... ... : ... .. . ... F02 : ... .. . ...
ROW 20 : A#4 0C A ... ... : --- .. . ... ... ... ... : C-4 01 . ... ... : D-# 06 F ... F03 : ... .. . ...
ROW 21 : ... .. . ... ... : ... .. . ... ... ... ... : ... .. . ... ... : ... .. . ... F02 : ... .. . ...
ROW 22 : A#4 0C 3 ... ... : ... .. . ... ... ... ... : ... .. . ... ... : D-# 00 5 ... F03 : ... .. . ...
ROW 23 : ... .. . ... ... : ... .. . ... ... ... ... : ... .. . ... ... : ... .. . ... F02 : ... .. . ...
ROW 24 : G#4 0D A ... ... : D#2 05 . ... ... ... ... : D#2 05 . ... ... : D-# 00 5 ... F03 : ... .. . ...
ROW 25 : ... .. . ... ... : ... .. . ... ... ... ... : ... .. . ... ... : ... .. . ... F02 : ... .. . ...
ROW 26 : G#4 0D 3 ... ... : ... .. . ... ... ... ... : ... .. . ... ... : D-# 00 F ... F03 : ... .. . ...
ROW 27 : ... .. . ... ... : ... .. . ... ... ... ... : ... .. . ... ... : ... .. . ... F02 : ... .. . ...
ROW 28 : A#4 0C A ... ... : --- .. . ... ... ... ... : C-4 01 . ... ... : D-# 06 F ... F03 : ... .. . ...
ROW 29 : ... .. . ... ... : ... .. . ... ... ... ... : ... .. . ... ... : ... .. . ... F02 : ... .. . ...
ROW 2A : A#4 0C 3 ... ... : ... .. . ... ... ... ... : ... .. . ... ... : D-# 00 5 ... F03 : ... .. . ...
ROW 2B : ... .. . ... ... : ... .. . ... ... ... ... : ... .. . ... ... : ... .. . ... F02 : ... .. . ...
ROW 2C : A#3 0D A ... ... : C#2 05 . ... ... ... ... : C#2 05 . ... ... : D-# 00 5 ... F03 : ... .. . ...
ROW 2D : ... .. . ... ... : ... .. . ... ... ... ... : ... .. . ... ... : ... .. . ... F02 : ... .. . ...
ROW 2E : A#3 0D 3 ... ... : ... .. . ... ... ... ... : ... .. . ... ... : D-# 00 F ... F03 : ... .. . ...
ROW 2F : ... .. . ... ... : ... .. . ... ... ... ... : ... .. . ... ... : ... .. . ... F02 : ... .. . ...
ROW 30 : A#4 0C A ... ... : E-2 05 . ... ... ... ... : C-4 01 . ... ... : D-# 06 F ... F03 : ... .. . ...
ROW 31 : ... .. . ... ... : ... .. . ... ... ... ... : E-2 05 . ... ... : ... .. . ... F02 : ... .. . ...
ROW 32 : A#4 0C 3 ... ... : D#2 05 . ... ... ... ... : D#2 05 . ... ... : D-# 00 5 ... F03 : ... .. . ...
ROW 33 : ... .. . ... ... : ... .. . ... ... ... ... : ... .. . ... ... : ... .. . ... F02 : ... .. . ...
ROW 34 : G#4 0D A ... ... : C#2 05 . ... ... ... ... : C#2 05 . ... ... : D-# 00 5 ... F03 : ... .. . ...
ROW 35 : ... .. . ... ... : ... .. . ... ... ... ... : ... .. . ... ... : ... .. . ... F02 : ... .. . ...
ROW 36 : G#4 0D 3 ... ... : ... .. . ... ... ... ... : ... .. . ... ... : D-# 00 F ... F03 : ... .. . ...
ROW 37 : ... .. . ... ... : ... .. . ... ... ... ... : ... .. . ... ... : ... .. . ... F02 : ... .. . ...
ROW 38 : A#4 0C A ... ... : A#1 05 . ... ... ... ... : C-4 01 . ... ... : D-# 06 F ... F03 : ... .. . ...
ROW 39 : ... .. . ... ... : ... .. . ... ... ... ... : A#1 05 . ... ... : ... .. . ... F02 : ... .. . ...
ROW 3A : A#4 0C 3 ... ... : ... .. . ... ... ... ... : ... .. . ... ... : D-# 00 5 ... F03 : ... .. . ...
ROW 3B : ... .. . ... ... : ... .. . ... ... ... ... : ... .. . ... ... : ... .. . ... F02 : ... .. . ...
ROW 3C : A#3 0D A ... ... : G#1 05 . ... ... ... ... : G#1 05 . ... ... : D-# 00 5 ... F03 : ... .. . ...
ROW 3D : ... .. . ... ... : ... .. . ... ... ... ... : ... .. . ... ... : ... .. . ... F02 : ... .. . ...
ROW 3E : A#3 0D 3 ... ... : ... .. . ... ... ... ... : ... .. . ... ... : D-# 00 F ... F03 : ... .. . ...
ROW 3F : ... .. . ... ... : ... .. . ... ... ... ... : ... .. . ... ... : ... .. . ... F02 : ... .. . ...

PATTERN 15
ROW 00 : A#4 0C A ... ... : A#1 05 . ... ... ... ... : C-4 01 . ... ... : D-# 06 F ... F03 : ... .. . ...
ROW 01 : ... .. . ... ... : ... .. . ... ... ... ... : A#1 05 . ... ... : ... .. . ... F02 : ... .. . ...
ROW 02 : A#4 0C 3 ... ... : ... .. . ... ... ... ... : ... .. . ... ... : D-# 00 5 ... F03 : ... .. . ...
ROW 03 : ... .. . ... ... : ... .. . ... ... ... ... : ... .. . ... ... : ... .. . ... F02 : ... .. . ...
ROW 04 : G#4 0D A ... ... : --- .. . ... ... ... ... : --- .. . ... ... : D-# 00 5 ... F03 : ... .. . ...
ROW 05 : ... .. . ... ... : ... .. . ... ... ... ... : ... .. . ... ... : ... .. . ... F02 : ... .. . ...
ROW 06 : G#4 0D 3 ... ... : ... .. . ... ... ... ... : ... .. . ... ... : D-# 00 F ... F03 : ... .. . ...
ROW 07 : ... .. . ... ... : ... .. . ... ... ... ... : ... .. . ... ... : ... .. . ... F02 : ... .. . ...
ROW 08 : A#4 0C A ... ... : A#2 0F . ... ... ... ... : C-4 01 . ... ... : D-# 06 F ... F03 : ... .. . ...
ROW 09 : ... .. . ... ... : ... .. . ... ... ... ... : ... .. . ... ... : ... .. . ... F02 : ... .. . ...
ROW 0A : A#4 0C 3 ... ... : ... .. . ... ... ... ... : ... .. . ... ... : D-# 00 5 ... F03 : ... .. . ...
ROW 0B : ... .. . ... ... : --- .. . ... ... ... ... : ... .. . ... ... : ... .. . ... F02 : ... .. . ...
ROW 0C : A#3 0D A ... ... : A#2 0F 8 ... ... ... ... : ... .. . ... ... : D-# 00 5 ... F03 : ... .. . ...
ROW 0D : ... .. . ... ... : ... .. . ... ... ... ... : ... .. . ... ... : ... .. . ... F02 : ... .. . ...
ROW 0E : A#3 0D 3 ... ... : ... .. . ... ... ... ... : ... .. . ... ... : D-# 00 F ... F03 : ... .. . ...
ROW 0F : ... .. . ... ... : --- .. . ... ... ... ... : ... .. . ... ... : ... .. . ... F02 : ... .. . ...
ROW 10 : A#4 0C A ... ... : A#2 0F 4 ... ... ... ... : C-4 01 . ... ... : D-# 06 F 400 F03 : ... .. . ...
ROW 11 : ... .. . ... ... : ... .. . ... ... ... ... : ... .. . ... ... : ... .. . ... F02 : ... .. . ...
ROW 12 : A#4 0C 3 ... ... : ... .. . ... ... ... ... : ... .. . ... ... : D-# 00 5 ... F03 : ... .. . ...
ROW 13 : ... .. . ... ... : --- .. . ... ... ... ... : ... .. . ... ... : ... .. . ... F02 : ... .. . ...
ROW 14 : G#4 0D A ... ... : E-2 05 F ... ... ... ... : E-2 05 . ... ... : D-# 00 5 ... F03 : ... .. . ...
ROW 15 : ... .. . ... ... : F-2 05 . ... ... ... ... : F-2 05 . ... ... : ... .. . ... F02 : ... .. . ...
ROW 16 : G#4 0D 3 ... ... : ... .. . ... ... ... ... : ... .. . ... ... : D-# 00 F ... F03 : ... .. . ...
ROW 17 : ... .. . ... ... : ... .. . ... ... ... ... : ... .. . ... ... : ... .. . ... F02 : ... .. . ...
ROW 18 : A#4 0C A ... ... : --- .. . ... ... ... ... : C-4 01 . ... ... : D-# 06 F ... F03 : ... .. . ...
ROW 19 : ... .. . ... ... : ... .. . ... ... ... ... : ... .. . ... ... : ... .. . ... F02 : ... .. . ...
ROW 1A : A#4 0C 3 ... ... : ... .. . ... ... ... ... : ... .. . ... ... : D-# 00 5 ... F03 : ... .. . ...
ROW 1B : ... .. . ... ... : ... .. . ... ... ... ... : ... .. . ... ... : ... .. . ... F02 : ... .. . ...
ROW 1C : A#3 0D A ... ... : D#2 05 . ... ... ... ... : D#2 05 . ... ... : D-# 00 5 ... F03 : ... .. . ...
ROW 1D : ... .. . ... ... : ... .. . ... ... ... ... : ... .. . ... ... : ... .. . ... F02 : ... .. . ...
ROW 1E : A#3 0D 3 ... ... : ... .. . ... ... ... ... : ... .. . ... ... : D-# 00 F ... F03 : ... .. . ...
ROW 1F : ... .. . ... ... : ... .. . ... ... ... ... : ... .. . ... ... : ... .. . ... F02 : ... .. . ...
ROW 20 : A#4 0C A ... ... : ... .. . ... ... ... ... : ... .. . 220 ... : D-# 06 F ... F03 : ... .. . ...
ROW 21 : ... .. . ... ... : ... .. . ... ... ... ... : ... .. . ... ... : ... .. . ... F02 : ... .. . ...
ROW 22 : A#4 0C 3 ... ... : ... .. . ... ... ... ... : ... .. . ... ... : D-# 00 5 ... F03 : ... .. . ...
ROW 23 : ... .. . ... ... : ... .. . ... ... ... ... : ... .. . ... ... : ... .. . ... F02 : ... .. . ...
ROW 24 : G#4 0D A ... ... : ... .. 8 4AF ... ... ... : --- .. . 200 ... : D-# 00 5 ... F03 : ... .. . ...
ROW 25 : ... .. . ... ... : ... .. . ... ... ... ... : ... .. . ... ... : ... .. . ... F02 : ... .. . ...
ROW 26 : G#4 0D 3 ... ... : ... .. . ... ... ... ... : ... .. . ... ... : D-# 00 F ... F03 : ... .. . ...
ROW 27 : ... .. . ... ... : ... .. . ... ... ... ... : ... .. . ... ... : ... .. . ... F02 : ... .. . ...
ROW 28 : A#4 0C A ... ... : ... .. 4 ... ... ... ... : C-4 01 . ... ... : D-# 06 F ... F03 : ... .. . ...
ROW 29 : ... .. . ... ... : ... .. . ... ... ... ... : ... .. . ... ... : ... .. . ... F02 : ... .. . ...
ROW 2A : A#4 0C 3 ... ... : ... .. . ... ... ... ... : ... .. . ... ... : D-# 00 5 ... F03 : ... .. . ...
ROW 2B : ... .. . ... ... : --- .. . ... ... ... ... : ... .. . ... ... : ... .. . ... F02 : ... .. . ...
ROW 2C : A#3 0D A ... ... : F-1 05 F 400 ... ... ... : F-2 05 . ... ... : D-# 00 5 ... F03 : ... .. . ...
ROW 2D : ... .. . ... ... : ... .. . ... ... ... ... : ... .. . ... ... : ... .. . ... F02 : ... .. . ...
ROW 2E : A#3 0D 3 ... ... : ... .. . ... ... ... ... : ... .. . ... ... : D-# 00 F ... F03 : ... .. . ...
ROW 2F : ... .. . ... ... : ... .. . ... ... ... ... : ... .. . ... ... : ... .. . ... F02 : ... .. . ...
ROW 30 : A#4 0C A ... ... : --- .. . ... ... ... ... : C-4 01 . ... ... : D-# 06 F ... F03 : ... .. . ...
ROW 31 : ... .. . ... ... : ... .. . ... ... ... ... : ... .. . ... ... : ... .. . ... F02 : ... .. . ...
ROW 32 : A#4 0C 3 ... ... : ... .. . ... ... ... ... : ... .. . ... ... : D-# 00 5 ... F03 : ... .. . ...
ROW 33 : ... .. . ... ... : ... .. . ... ... ... ... : ... .. . ... ... : ... .. . ... F02 : ... .. . ...
ROW 34 : G#4 0D A ... ... : F-1 05 . ... ... ... ... : F-2 05 . ... ... : D-# 00 5 ... F03 : ... .. . ...
ROW 35 : ... .. . ... ... : ... .. . ... ... ... ... : ... .. . ... ... : ... .. . ... F02 : ... .. . ...
ROW 36 : G#4 0D 3 ... ... : ... .. . ... ... ... ... : ... .. . ... ... : D-# 00 F ... F03 : ... .. . ...
ROW 37 : ... .. . ... ... : --- .. . ... ... ... ... : ... .. . ... ... : ... .. . ... F02 : ... .. . ...
ROW 38 : A#4 0C A ... ... : G#1 05 . ... ... ... ... : C-4 01 . ... ... : D-# 06 F ... F03 : ... .. . ...
ROW 39 : ... .. . ... ... : ... .. . ... ... ... ... : G#2 05 . ... ... : ... .. . ... F02 : ... .. . ...
ROW 3A : A#4 0C 3 ... ... : ... .. . ... ... ... ... : ... .. . ... ... : D-# 00 5 ... F03 : ... .. . ...
ROW 3B : ... .. . ... ... : ... .. . ... ... ... ... : ... .. . ... ... : ... .. . ... F02 : ... .. . ...
ROW 3C : A#3 0D A ... ... : A-1 05 . ... ... ... ... : C-4 01 . ... ... : D-# 00 5 ... F03 : ... .. . ...
ROW 3D : ... .. . ... ... : ... .. . ... ... ... ... : A-2 05 . ... ... : ... .. . ... F02 : ... .. . ...
ROW 3E : A#3 0D 3 ... ... : ... .. . ... ... ... ... : ... .. . ... ... : D-# 00 F ... F03 : ... .. . ...
ROW 3F : ... .. . ... ... : --- .. . ... ... ... ... : ... .. . ... ... : ... .. . ... F02 : ... .. . ...

PATTERN 16
ROW 00 : A#4 0C A ... ... : A#1 05 F ... ... ... ... : C-4 01 . ... ... : 9-# 16 F ... F03 : ... .. . ...
ROW 01 : ... .. . ... ... : ... .. . ... ... ... ... : A#2 16 . ... ... : ... .. . ... F02 : ... .. . ...
ROW 02 : A#4 0C 3 ... ... : ... .. . ... ... ... ... : ... .. . ... ... : ... .. . ... F03 : ... .. . ...
ROW 03 : ... .. . ... ... : ... .. . ... ... ... ... : ... .. . ... ... : ... .. . ... F02 : ... .. . ...
ROW 04 : G#4 0D A ... ... : --- .. . ... ... ... ... : --- .. . ... ... : D-# 00 5 ... F03 : ... .. . ...
ROW 05 : ... .. . ... ... : ... .. . ... ... ... ... : ... .. . ... ... : D-# 00 7 ... F02 : ... .. . ...
ROW 06 : G#4 0D 3 ... ... : ... .. . ... ... ... ... : ... .. . ... ... : D-# 00 9 ... F03 : ... .. . ...
ROW 07 : ... .. . ... ... : ... .. . ... ... ... ... : ... .. . ... ... : D-# 00 A ... F02 : ... .. . ...
ROW 08 : A#5 05 A ... ... : A#2 0F . ... ... ... ... : C-4 01 . ... ... : 6-# 16 F ... F03 : ... .. . ...
ROW 09 : ... .. . ... ... : ... .. . ... ... ... ... : ... .. . ... ... : ... .. . ... F02 : ... .. . ...
ROW 0A : ... .. . 220 ... : ... .. . ... ... ... ... : ... .. . ... ... : ... .. . ... F03 : ... .. . ...
ROW 0B : ... .. . ... ... : ... .. . ... ... ... ... : ... .. . ... ... : ... .. . ... F02 : ... .. . ...
ROW 0C : A#5 05 6 200 ... : A#2 0F 4 ... ... ... ... : ... .. . ... ... : ... .. A ... F03 : ... .. . ...
ROW 0D : ... .. . ... ... : ... .. . ... ... ... ... : ... .. . ... ... : ... .. . ... F02 : ... .. . ...
ROW 0E : ... .. . 220 ... : ... .. . ... ... ... ... : ... .. . ... ... : ... .. . ... F03 : ... .. . ...
ROW 0F : ... .. . ... ... : ... .. . ... ... ... ... : ... .. . ... ... : ... .. . ... F02 : ... .. . ...
ROW 10 : A#5 05 3 200 ... : ... .. . ... ... ... ... : C-4 01 . ... ... : ... .. 8 ... F03 : ... .. . ...
ROW 11 : ... .. . ... ... : ... .. . ... ... ... ... : ... .. . ... ... : ... .. . ... F02 : ... .. . ...
ROW 12 : ... .. . 220 ... : ... .. . ... ... ... ... : ... .. . ... ... : ... .. . ... F03 : ... .. . ...
ROW 13 : ... .. . ... ... : ... .. . ... ... ... ... : ... .. . ... ... : ... .. . ... F02 : ... .. . ...
ROW 14 : G#4 0D A 200 ... : G#1 05 F ... ... ... ... : G#1 05 . ... ... : ... .. 4 444 F03 : ... .. . ...
ROW 15 : ... .. . ... ... : ... .. . ... ... ... ... : ... .. . ... ... : ... .. 3 ... F02 : ... .. . ...
ROW 16 : G#4 0D 3 ... ... : ... .. . ... ... ... ... : ... .. . ... ... : ... .. 2 ... F03 : ... .. . ...
ROW 17 : ... .. . ... ... : ... .. . ... ... ... ... : ... .. . ... ... : --- .. . ... F02 : ... .. . ...
ROW 18 : A#4 0C A ... ... : A#1 05 . ... ... ... ... : C-4 01 . ... ... : D-# 06 F 400 F03 : ... .. . ...
ROW 19 : ... .. . ... ... : ... .. . ... ... ... ... : A#1 05 . ... ... : ... .. . ... F02 : ... .. . ...
ROW 1A : A#4 0C 3 ... ... : ... .. . ... ... ... ... : ... .. . ... ... : D-# 00 5 ... F03 : ... .. . ...
ROW 1B : ... .. . ... ... : ... .. . ... ... ... ... : ... .. . ... ... : ... .. . ... F02 : ... .. . ...
ROW 1C : A#3 0D A ... ... : C#2 05 . ... ... ... ... : C#2 05 . ... ... : D-# 00 5 ... F03 : ... .. . ...
ROW 1D : ... .. . ... ... : ... .. . ... ... ... ... : ... .. . ... ... : ... .. . ... F02 : ... .. . ...
ROW 1E : A#3 0D 3 ... ... : ... .. . ... ... ... ... : ... .. . ... ... : D-# 00 F ... F03 : ... .. . ...
ROW 1F : ... .. . ... ... : ... .. . ... ... ... ... : ... .. . ... ... : ... .. . ... F02 : ... .. . ...
ROW 20 : A#4 0C A ... ... : --- .. . ... ... ... ... : C-4 01 . ... ... : D-# 06 F ... F03 : ... .. . ...
ROW 21 : ... .. . ... ... : ... .. . ... ... ... ... : ... .. . ... ... : ... .. . ... F02 : ... .. . ...
ROW 22 : A#4 0C 3 ... ... : ... .. . ... ... ... ... : ... .. . ... ... : D-# 00 5 ... F03 : ... .. . ...
ROW 23 : ... .. . ... ... : ... .. . ... ... ... ... : ... .. . ... ... : ... .. . ... F02 : ... .. . ...
ROW 24 : G#4 0D A ... ... : D#2 05 . ... ... ... ... : D#2 05 . ... ... : D-# 00 5 ... F03 : ... .. . ...
ROW 25 : ... .. . ... ... : ... .. . ... ... ... ... : ... .. . ... ... : ... .. . ... F02 : ... .. . ...
ROW 26 : G#4 0D 3 ... ... : ... .. . ... ... ... ... : ... .. . ... ... : D-# 00 F ... F03 : ... .. . ...
ROW 27 : ... .. . ... ... : ... .. . ... ... ... ... : ... .. . ... ... : ... .. . ... F02 : ... .. . ...
ROW 28 : A#4 0C A ... ... : --- .. . ... ... ... ... : C-4 01 . ... ... : D-# 06 F ... F03 : ... .. . ...
ROW 29 : ... .. . ... ... : ... .. . ... ... ... ... : ... .. . ... ... : ... .. . ... F02 : ... .. . ...
ROW 2A : A#4 0C 3 ... ... : ... .. . ... ... ... ... : ... .. . ... ... : D-# 00 5 ... F03 : ... .. . ...
ROW 2B : ... .. . ... ... : ... .. . ... ... ... ... : ... .. . ... ... : ... .. . ... F02 : ... .. . ...
ROW 2C : A#3 0D A ... ... : C#2 05 . ... ... ... ... : C#2 05 . ... ... : D-# 00 5 ... F03 : ... .. . ...
ROW 2D : ... .. . ... ... : ... .. . ... ... ... ... : ... .. . ... ... : ... .. . ... F02 : ... .. . ...
ROW 2E : A#3 0D 3 ... ... : ... .. . ... ... ... ... : ... .. . ... ... : D-# 00 F ... F03 : ... .. . ...
ROW 2F : ... .. . ... ... : ... .. . ... ... ... ... : ... .. . ... ... : ... .. . ... F02 : ... .. . ...
ROW 30 : A#4 0C A ... ... : E-2 05 . ... ... ... ... : C-4 01 . ... ... : D-# 06 F ... F03 : ... .. . ...
ROW 31 : ... .. . ... ... : ... .. . ... ... ... ... : E-2 05 . ... ... : ... .. . ... F02 : ... .. . ...
ROW 32 : A#4 0C 3 ... ... : D#2 05 . ... ... ... ... : D#2 05 . ... ... : D-# 00 5 ... F03 : ... .. . ...
ROW 33 : ... .. . ... ... : ... .. . ... ... ... ... : ... .. . ... ... : ... .. . ... F02 : ... .. . ...
ROW 34 : G#4 0D A ... ... : C#2 05 . ... ... ... ... : C#2 05 . ... ... : D-# 00 5 ... F03 : ... .. . ...
ROW 35 : ... .. . ... ... : ... .. . ... ... ... ... : ... .. . ... ... : ... .. . ... F02 : ... .. . ...
ROW 36 : G#4 0D 3 ... ... : ... .. . ... ... ... ... : ... .. . ... ... : D-# 00 F ... F03 : ... .. . ...
ROW 37 : ... .. . ... ... : ... .. . ... ... ... ... : ... .. . ... ... : ... .. . ... F02 : ... .. . ...
ROW 38 : A#4 0C A ... ... : A#1 05 . ... ... ... ... : C-4 01 . ... ... : D-# 06 F ... F03 : ... .. . ...
ROW 39 : ... .. . ... ... : ... .. . ... ... ... ... : A#1 05 . ... ... : ... .. . ... F02 : ... .. . ...
ROW 3A : A#4 0C 3 ... ... : ... .. . ... ... ... ... : ... .. . ... ... : D-# 00 5 ... F03 : ... .. . ...
ROW 3B : ... .. . ... ... : ... .. . ... ... ... ... : ... .. . ... ... : ... .. . ... F02 : ... .. . ...
ROW 3C : A#3 0D A ... ... : C#2 05 . ... ... ... ... : C#2 05 . ... ... : D-# 00 5 ... F03 : ... .. . ...
ROW 3D : ... .. . ... ... : ... .. . ... ... ... ... : ... .. . ... ... : ... .. . ... F02 : ... .. . ...
ROW 3E : A#3 0D 3 ... ... : ... .. . ... ... ... ... : ... .. . ... ... : D-# 00 F ... F03 : ... .. . ...
ROW 3F : ... .. . ... ... : ... .. . ... ... ... ... : ... .. . ... ... : ... .. . ... F02 : ... .. . ...

PATTERN 17
ROW 00 : A#4 0C A ... ... : F-2 05 F ... ... ... ... : C-4 01 . ... ... : D-# 06 F ... F03 : ... .. . ...
ROW 01 : ... .. . ... ... : ... .. . ... ... ... ... : F-2 05 . ... ... : ... .. . ... F02 : ... .. . ...
ROW 02 : A#4 0C 3 ... ... : ... .. . ... ... ... ... : ... .. . ... ... : D-# 00 5 ... F03 : ... .. . ...
ROW 03 : ... .. . ... ... : ... .. . ... ... ... ... : ... .. . S01 ... : ... .. . ... F02 : ... .. . ...
ROW 04 : G#4 0D A ... ... : F-1 05 . ... ... ... ... : F-2 05 . ... ... : D-# 00 5 ... F03 : ... .. . ...
ROW 05 : ... .. . ... ... : ... .. . ... ... ... ... : ... .. . ... ... : ... .. . ... F02 : ... .. . ...
ROW 06 : G#4 0D 3 ... ... : ... .. . ... ... ... ... : ... .. . ... ... : D-# 00 F ... F03 : ... .. . ...
ROW 07 : ... .. . ... ... : --- .. . ... ... ... ... : --- .. . ... ... : ... .. . ... F02 : ... .. . ...
ROW 08 : A#4 0C A ... ... : F-1 05 . ... ... ... ... : C-4 01 . ... ... : D-# 06 F ... F03 : ... .. . ...
ROW 09 : ... .. . ... ... : ... .. . ... ... ... ... : F-2 05 . ... ... : ... .. . ... F02 : ... .. . ...
ROW 0A : A#4 0C 3 ... ... : ... .. . ... ... ... ... : ... .. . ... ... : D-# 00 5 ... F03 : ... .. . ...
ROW 0B : ... .. . ... ... : --- .. . ... ... ... ... : ... .. . S01 ... : ... .. . ... F02 : ... .. . ...
ROW 0C : A#3 0D A ... ... : F-2 05 . ... ... ... ... : F-2 05 . ... ... : D-# 00 5 ... F03 : ... .. . ...
ROW 0D : ... .. . ... ... : ... .. . ... ... ... ... : ... .. . ... ... : ... .. . ... F02 : ... .. . ...
ROW 0E : A#3 0D 3 ... ... : ... .. . ... ... ... ... : ... .. . ... ... : D-# 00 F ... F03 : ... .. . ...
ROW 0F : ... .. . ... ... : ... .. . ... ... ... ... : --- .. . ... ... : ... .. . ... F02 : ... .. . ...
ROW 10 : A#4 0C A ... ... : F-1 05 . ... ... ... ... : C-4 01 . ... ... : D-# 06 F ... F03 : ... .. . ...
ROW 11 : ... .. . ... ... : ... .. . ... ... ... ... : F-3 05 . ... ... : ... .. . ... F02 : ... .. . ...
ROW 12 : A#4 0C 3 ... ... : ... .. . ... ... ... ... : ... .. . ... ... : D-# 00 5 ... F03 : ... .. . ...
ROW 13 : ... .. . ... ... : --- .. . ... ... ... ... : ... .. . S01 ... : ... .. . ... F02 : ... .. . ...
ROW 14 : G#4 0D A ... ... : F-1 05 . ... ... ... ... : F-3 05 . ... ... : D-# 00 5 ... F03 : ... .. . ...
ROW 15 : ... .. . ... ... : ... .. . ... ... ... ... : ... .. . ... ... : ... .. . ... F02 : ... .. . ...
ROW 16 : G#4 0D 3 ... ... : ... .. . ... ... ... ... : ... .. . ... ... : D-# 00 F ... F03 : ... .. . ...
ROW 17 : ... .. . ... ... : --- .. . ... ... ... ... : --- 05 . ... ... : ... .. . ... F02 : ... .. . ...
ROW 18 : A#4 0C A ... ... : F-2 05 . ... ... ... ... : C-4 01 . ... ... : D-# 06 F ... F03 : ... .. . ...
ROW 19 : ... .. . ... ... : ... .. . ... ... ... ... : C-4 05 . ... ... : ... .. . ... F02 : ... .. . ...
ROW 1A : A#4 0C 3 ... ... : ... .. . ... ... ... ... : ... .. . ... ... : D-# 00 5 ... F03 : ... .. . ...
ROW 1B : ... .. . ... ... : ... .. . ... ... ... ... : ... .. . ... ... : ... .. . ... F02 : ... .. . ...
ROW 1C : A#3 0D A ... ... : F-1 05 . ... ... ... ... : D#5 05 . ... ... : D-# 00 5 ... F03 : ... .. . ...
ROW 1D : ... .. . ... ... : ... .. . ... ... ... ... : ... .. . ... ... : ... .. . ... F02 : ... .. . ...
ROW 1E : A#3 0D 3 ... ... : ... .. . ... ... ... ... : ... .. . ... ... : D-# 00 F ... F03 : ... .. . ...
ROW 1F : ... .. . ... ... : --- .. . ... ... ... ... : ... .. . ... ... : ... .. . ... F02 : ... .. . ...
ROW 20 : A#4 0C A 201 ... : F-1 05 . ... ... ... ... : F-3 09 . ... ... : D-# 06 F ... F03 : ... .. . ...
ROW 21 : ... .. . ... ... : ... .. . ... ... ... ... : ... .. . ... ... : ... .. . ... F02 : ... .. . ...
ROW 22 : A#4 0C 3 ... ... : ... .. . ... ... ... ... : ... .. . ... ... : D-# 00 5 ... F03 : ... .. . ...
ROW 23 : ... .. . ... ... : --- .. . ... ... ... ... : --- .. . ... ... : ... .. . ... F02 : ... .. . ...
ROW 24 : G#4 0D A ... ... : F-1 05 . ... ... ... ... : F-4 11 . ... ... : D-# 00 5 ... F03 : ... .. . ...
ROW 25 : ... .. . ... ... : ... .. . ... ... ... ... : ... .. . ... ... : ... .. . ... F02 : ... .. . ...
ROW 26 : G#4 0D 3 ... ... : ... .. . ... ... ... ... : ... .. . ... ... : D-# 00 F ... F03 : ... .. . ...
ROW 27 : ... .. . ... ... : --- .. . ... ... ... ... : --- .. . ... ... : ... .. . ... F02 : ... .. . ...
ROW 28 : A-4 0C A 201 ... : F-1 05 . ... ... ... ... : C-4 01 . ... ... : D-# 06 F ... F03 : ... .. . ...
ROW 29 : ... .. . ... ... : ... .. . ... ... ... ... : B-3 05 . ... ... : ... .. . ... F02 : ... .. . ...
ROW 2A : A-4 0C 3 ... ... : ... .. . ... ... ... ... : C-4 05 . 320 ... : D-# 00 5 ... F03 : ... .. . ...
ROW 2B : ... .. . ... ... : --- .. . ... ... ... ... : D#4 05 . ... ... : ... .. . ... F02 : ... .. . ...
ROW 2C : A-3 0D A ... ... : F-1 05 . ... ... ... ... : C-4 05 . ... ... : D-# 06 5 ... F03 : ... .. . ...
ROW 2D : ... .. . ... ... : ... .. . ... ... ... ... : D#4 05 . ... ... : ... .. . ... F02 : ... .. . ...
ROW 2E : A-3 0D 3 ... ... : ... .. . ... ... ... ... : C-4 05 . ... ... : D-# 00 F ... F03 : ... .. . ...
ROW 2F : ... .. . ... ... : --- .. . ... ... ... ... : --- 05 . S01 ... : ... .. . ... F02 : ... .. . ...
ROW 30 : G#4 0C A 203 ... : F-1 05 . ... ... ... ... : C-4 01 . ... ... : D-# 06 F ... F03 : ... .. . ...
ROW 31 : ... .. . ... ... : ... .. . ... ... ... ... : B-3 05 . ... ... : ... .. . ... F02 : ... .. . ...
ROW 32 : G#4 0C 3 ... ... : ... .. . ... ... ... ... : C-4 05 . 320 ... : D-# 06 5 ... F03 : ... .. . ...
ROW 33 : ... .. . ... ... : --- .. . ... ... ... ... : D#4 05 . ... ... : ... .. . ... F02 : ... .. . ...
ROW 34 : F#4 0D A ... ... : F-1 05 . ... ... ... ... : C-4 05 . ... ... : D-# 06 5 ... F03 : ... .. . ...
ROW 35 : ... .. . ... ... : ... .. . ... ... ... ... : D#4 05 . ... ... : ... .. . ... F02 : ... .. . ...
ROW 36 : F#4 0D 3 ... ... : ... .. . ... ... ... ... : C-4 05 . ... ... : D-# 06 F ... F03 : ... .. . ...
ROW 37 : ... .. . ... ... : --- .. . ... ... ... ... : --- 05 . S01 ... : ... .. . ... F02 : ... .. . ...
ROW 38 : E-4 0C A 216 ... : G#1 05 . ... ... ... ... : C-4 01 . ... ... : B-# 06 5 ... F03 : ... .. . ...
ROW 39 : ... .. . ... ... : ... .. . ... ... ... ... : ... .. . ... ... : ... .. . ... F02 : ... .. . ...
ROW 3A : E-4 0C 3 ... ... : ... .. . ... ... ... ... : D#5 05 . ... ... : 9-# 06 8 ... F03 : ... .. . ...
ROW 3B : ... .. . ... ... : --- .. . ... ... ... ... : --- .. . ... ... : ... .. . ... F02 : ... .. . ...
ROW 3C : E-3 0D A ... ... : A-1 05 . ... ... ... ... : F-5 03 . ... ... : 6-# 06 A ... F03 : ... .. . ...
ROW 3D : ... .. . ... ... : ... .. . ... ... ... ... : ... .. . ... ... : ... .. . ... F02 : ... .. . ...
ROW 3E : E-3 0D 3 ... ... : ... .. . ... ... ... ... : A-5 03 . ... ... : 5-# 06 C ... F03 : ... .. . ...
ROW 3F : ... .. . ... ... : --- .. . ... ... ... ... : ... .. . ... ... : ... .. . ... F02 : ... .. . ...

PATTERN 18
ROW 00 : ... .. . ... ... : ... .. . ... ... ... ... : ... .. . ... ... : D-# 06 F ... F03 : ... .. . ...
ROW 01 : ... .. . ... ... : ... .. . ... ... ... ... : ... .. . ... ... : ... .. . ... F02 : ... .. . ...
ROW 02 : ... .. . ... ... : ... .. . ... ... ... ... : ... .. . ... ... : D-# 00 5 ... F03 : ... .. . ...
ROW 03 : ... .. . ... ... : ... .. . ... ... ... ... : ... .. . ... ... : ... .. . ... F02 : ... .. . ...
ROW 04 : ... .. . ... ... : ... .. . ... ... ... ... : ... .. . ... ... : D-# 00 5 ... F03 : ... .. . ...
ROW 05 : ... .. . ... ... : ... .. . ... ... ... ... : ... .. . ... ... : ... .. . ... F02 : ... .. . ...
ROW 06 : ... .. . ... ... : ... .. . ... ... ... ... : ... .. . ... ... : D-# 00 F ... F03 : ... .. . ...
ROW 07 : ... .. . ... ... : ... .. . ... ... ... ... : ... .. . ... ... : ... .. . ... F02 : ... .. . ...
ROW 08 : ... .. . ... ... : ... .. . ... ... ... ... : ... .. . ... ... : D-# 06 F ... F03 : ... .. . ...
ROW 09 : ... .. . ... ... : ... .. . ... ... ... ... : ... .. . ... ... : ... .. . ... F02 : ... .. . ...
ROW 0A : ... .. . ... ... : ... .. . ... ... ... ... : ... .. . ... ... : D-# 00 5 ... F03 : ... .. . ...
ROW 0B : ... .. . ... ... : ... .. . ... ... ... ... : ... .. . ... ... : ... .. . ... F02 : ... .. . ...
ROW 0C : ... .. . ... ... : ... .. . ... ... ... ... : ... .. . ... ... : D-# 00 5 ... F03 : ... .. . ...
ROW 0D : ... .. . ... ... : ... .. . ... ... ... ... : ... .. . ... ... : ... .. . ... F02 : ... .. . ...
ROW 0E : ... .. . ... ... : ... .. . ... ... ... ... : ... .. . ... ... : D-# 00 F ... F03 : ... .. . ...
ROW 0F : ... .. . ... ... : ... .. . ... ... ... ... : ... .. . ... ... : ... .. . ... F02 : ... .. . ...
ROW 10 : ... .. . ... ... : ... .. . ... ... ... ... : ... .. . ... ... : D-# 06 F ... F03 : ... .. . ...
ROW 11 : ... .. . ... ... : ... .. . ... ... ... ... : ... .. . ... ... : ... .. . ... F02 : ... .. . ...
ROW 12 : ... .. . ... ... : ... .. . ... ... ... ... : ... .. . ... ... : D-# 00 5 ... F03 : ... .. . ...
ROW 13 : ... .. . ... ... : ... .. . ... ... ... ... : ... .. . ... ... : ... .. . ... F02 : ... .. . ...
ROW 14 : ... .. . ... ... : ... .. . ... ... ... ... : ... .. . ... ... : D-# 00 5 ... F03 : ... .. . ...
ROW 15 : ... .. . ... ... : ... .. . ... ... ... ... : ... .. . ... ... : ... .. . ... F02 : ... .. . ...
ROW 16 : ... .. . ... ... : ... .. . ... ... ... ... : ... .. . ... ... : D-# 00 F ... F03 : ... .. . ...
ROW 17 : ... .. . ... ... : ... .. . ... ... ... ... : ... .. . ... ... : ... .. . ... F02 : ... .. . ...
ROW 18 : ... .. . ... ... : ... .. . ... ... ... ... : ... .. . ... ... : D-# 06 F ... F03 : ... .. . ...
ROW 19 : ... .. . ... ... : ... .. . ... ... ... ... : ... .. . ... ... : ... .. . ... F02 : ... .. . ...
ROW 1A : ... .. . ... ... : ... .. . ... ... ... ... : ... .. . ... ... : D-# 00 5 ... F03 : ... .. . ...
ROW 1B : ... .. . ... ... : ... .. . ... ... ... ... : ... .. . ... ... : ... .. . ... F02 : ... .. . ...
ROW 1C : ... .. . ... ... : ... .. . ... ... ... ... : ... .. . ... ... : D-# 00 5 ... F03 : ... .. . ...
ROW 1D : ... .. . ... ... : ... .. . ... ... ... ... : ... .. . ... ... : ... .. . ... F02 : ... .. . ...
ROW 1E : ... .. . ... ... : ... .. . ... ... ... ... : ... .. . ... ... : D-# 00 F ... F03 : ... .. . ...
ROW 1F : ... .. . ... ... : ... .. . ... ... ... ... : ... .. . ... ... : ... .. . ... F02 : ... .. . ...
ROW 20 : ... .. . ... ... : ... .. . ... ... ... ... : ... .. . ... ... : D-# 06 F ... F03 : ... .. . ...
ROW 21 : ... .. . ... ... : ... .. . ... ... ... ... : ... .. . ... ... : ... .. . ... F02 : ... .. . ...
ROW 22 : ... .. . ... ... : ... .. . ... ... ... ... : ... .. . ... ... : D-# 00 5 ... F03 : ... .. . ...
ROW 23 : ... .. . ... ... : ... .. . ... ... ... ... : ... .. . ... ... : ... .. . ... F02 : ... .. . ...
ROW 24 : ... .. . ... ... : ... .. . ... ... ... ... : ... .. . ... ... : D-# 00 5 ... F03 : ... .. . ...
ROW 25 : ... .. . ... ... : ... .. . ... ... ... ... : ... .. . ... ... : ... .. . ... F02 : ... .. . ...
ROW 26 : ... .. . ... ... : ... .. . ... ... ... ... : ... .. . ... ... : D-# 00 F ... F03 : ... .. . ...
ROW 27 : ... .. . ... ... : ... .. . ... ... ... ... : ... .. . ... ... : ... .. . ... F02 : ... .. . ...
ROW 28 : ... .. . ... ... : ... .. . ... ... ... ... : ... .. . ... ... : D-# 06 F ... F03 : ... .. . ...
ROW 29 : ... .. . ... ... : ... .. . ... ... ... ... : ... .. . ... ... : ... .. . ... F02 : ... .. . ...
ROW 2A : ... .. . ... ... : ... .. . ... ... ... ... : ... .. . ... ... : D-# 00 5 ... F03 : ... .. . ...
ROW 2B : ... .. . ... ... : ... .. . ... ... ... ... : ... .. . ... ... : ... .. . ... F02 : ... .. . ...
ROW 2C : ... .. . ... ... : ... .. . ... ... ... ... : ... .. . ... ... : D-# 00 5 ... F03 : ... .. . ...
ROW 2D : ... .. . ... ... : ... .. . ... ... ... ... : ... .. . ... ... : ... .. . ... F02 : ... .. . ...
ROW 2E : ... .. . ... ... : ... .. . ... ... ... ... : ... .. . ... ... : D-# 00 F ... F03 : ... .. . ...
ROW 2F : ... .. . ... ... : ... .. . ... ... ... ... : ... .. . ... ... : ... .. . ... F02 : ... .. . ...
ROW 30 : ... .. . ... ... : ... .. . ... ... ... ... : ... .. . ... ... : D-# 06 F ... F03 : ... .. . ...
ROW 31 : ... .. . ... ... : ... .. . ... ... ... ... : ... .. . ... ... : ... .. . ... F02 : ... .. . ...
ROW 32 : ... .. . ... ... : ... .. . ... ... ... ... : ... .. . ... ... : D-# 00 5 ... F03 : ... .. . ...
ROW 33 : ... .. . ... ... : ... .. . ... ... ... ... : ... .. . ... ... : ... .. . ... F02 : ... .. . ...
ROW 34 : ... .. . ... ... : ... .. . ... ... ... ... : ... .. . ... ... : D-# 00 5 ... F03 : ... .. . ...
ROW 35 : ... .. . ... ... : ... .. . ... ... ... ... : ... .. . ... ... : ... .. . ... F02 : ... .. . ...
ROW 36 : ... .. . ... ... : ... .. . ... ... ... ... : ... .. . ... ... : D-# 00 F ... F03 : ... .. . ...
ROW 37 : ... .. . ... ... : ... .. . ... ... ... ... : ... .. . ... ... : ... .. . ... F02 : ... .. . ...
ROW 38 : ... .. . ... ... : ... .. . ... ... ... ... : ... .. . ... ... : D-# 06 F ... F03 : ... .. . ...
ROW 39 : ... .. . ... ... : ... .. . ... ... ... ... : ... .. . ... ... : ... .. . ... F02 : ... .. . ...
ROW 3A : ... .. . ... ... : ... .. . ... ... ... ... : ... .. . ... ... : D-# 00 5 ... F03 : ... .. . ...
ROW 3B : ... .. . ... ... : ... .. . ... ... ... ... : ... .. . ... ... : ... .. . ... F02 : ... .. . ...
ROW 3C : ... .. . ... ... : ... .. . ... ... ... ... : ... .. . ... ... : D-# 00 5 ... F03 : ... .. . ...
ROW 3D : ... .. . ... ... : ... .. . ... ... ... ... : ... .. . ... ... : ... .. . ... F02 : ... .. . ...
ROW 3E : ... .. . ... ... : ... .. . ... ... ... ... : ... .. . ... ... : D-# 00 F ... F03 : ... .. . ...
ROW 3F : ... .. . ... ... : ... .. . ... ... ... ... : ... .. . ... ... : ... .. . ... F02 : ... .. . ...

TRACK  48   2 125 "Sinbad"
COLUMNS : 2 1 1 1 1

ORDER 00 : 28 27 27 15 00
ORDER 01 : 00 00 00 10 00
ORDER 02 : 01 01 01 01 00
ORDER 03 : 02 02 02 00 00
ORDER 04 : 03 03 03 01 00
ORDER 05 : 04 04 04 00 00
ORDER 06 : 05 05 05 01 00
ORDER 07 : 06 06 06 00 00
ORDER 08 : 07 07 07 01 00
ORDER 09 : 08 08 08 02 00
ORDER 0A : 09 09 09 03 00
ORDER 0B : 0A 0A 0A 02 00
ORDER 0C : 0B 0B 0B 03 00
ORDER 0D : 0C 0C 0C 04 00
ORDER 0E : 0D 0D 0D 05 00
ORDER 0F : 0E 0E 0E 06 00
ORDER 10 : 0F 0F 0F 07 00
ORDER 11 : 10 10 10 08 00
ORDER 12 : 11 11 11 09 00
ORDER 13 : 12 12 12 0A 00
ORDER 14 : 13 13 13 0B 00
ORDER 15 : 14 14 14 0A 00
ORDER 16 : 15 15 15 0B 00
ORDER 17 : 16 16 16 0C 00
ORDER 18 : 17 17 17 01 00
ORDER 19 : 18 16 16 0C 00
ORDER 1A : 19 17 17 01 00
ORDER 1B : 1A 19 19 00 00
ORDER 1C : 1B 1A 1A 01 00
ORDER 1D : 1C 1B 1B 0C 00
ORDER 1E : 1D 1C 1C 01 00
ORDER 1F : 1E 1D 1D 0E 00
ORDER 20 : 1F 1E 1E 0E 00
ORDER 21 : 20 1F 1F 0E 00
ORDER 22 : 21 20 20 01 00
ORDER 23 : 22 21 21 0E 00
ORDER 24 : 23 22 22 09 00
ORDER 25 : 24 23 23 0A 00
ORDER 26 : 25 24 24 0B 00
ORDER 27 : 26 25 25 0A 00
ORDER 28 : 27 26 26 0D 00

PATTERN 00
ROW 00 : B-3 18 F 400 ... : F-1 05 F ... : C-4 01 . 300 : 9-# 06 C ... : ... .. . ...
ROW 01 : C-4 18 . ... ... : ... .. . ... : F-2 12 . ... : ... .. . ... : ... .. . ...
ROW 02 : ... .. . ... ... : ... .. . ... : ... .. . ... : ... .. . ... : ... .. . ...
ROW 03 : --- .. . ... ... : --- .. . ... : --- .. . ... : ... .. . ... : ... .. . ...
ROW 04 : G#3 12 5 ... ... : F-2 15 A ... : C-4 05 . ... : 6-# 00 2 ... : ... .. . ...
ROW 05 : ... .. . ... ... : ... .. . ... : ... .. . ... : ... .. . ... : ... .. . ...
ROW 06 : ... .. . ... ... : ... .. . ... : ... .. . ... : 6-# 00 4 ... : ... .. . ...
ROW 07 : --- .. . ... ... : --- .. . ... : --- .. . ... : --- .. . ... : ... .. . ...
ROW 08 : F-3 18 F ... ... : C-3 05 . ... : G#4 05 . ... : D-# 06 C ... : ... .. . ...
ROW 09 : ... .. . ... ... : ... .. . ... : ... .. . ... : ... .. . ... : ... .. . ...
ROW 0A : ... .. . ... ... : ... .. . ... : ... .. . ... : ... .. . ... : ... .. . ...
ROW 0B : --- .. . ... ... : --- .. . ... : --- .. . ... : ... .. . ... : ... .. . ...
ROW 0C : F-4 10 7 ... ... : F-2 0F . ... : C-5 03 . ... : F-# 00 . ... : ... .. . ...
ROW 0D : ... .. . ... ... : ... .. . ... : ... .. . ... : ... .. . ... : ... .. . ...
ROW 0E : ... .. . ... ... : ... .. . ... : ... .. . ... : ... .. . ... : ... .. . ...
ROW 0F : --- .. . ... ... : --- .. . ... : --- .. . ... : ... .. . ... : ... .. . ...
ROW 10 : F-3 18 F ... ... : F-2 17 . ... : F-5 03 . ... : 6-# 00 . ... : ... .. . ...
ROW 11 : ... .. . ... ... : ... .. . ... : ... .. . ... : ... .. . ... : ... .. . ...
ROW 12 : ... .. . ... ... : ... .. . ... : ... .. . ... : ... .. . ... : ... .. . ...
ROW 13 : --- .. . ... ... : --- .. . ... : --- .. . ... : --- .. . ... : ... .. . ...
ROW 14 : C-4 18 . ... ... : F-1 05 F ... : C-4 01 . ... : 6-# 00 . ... : ... .. . ...
ROW 15 : ... .. . ... ... : ... .. . ... : F-2 05 . ... : ... .. . ... : ... .. . ...
ROW 16 : ... .. . ... ... : ... .. . ... : ... .. . ... : 6-# 00 1 ... : ... .. . ...
ROW 17 : ... .. . ... ... : --- .. . ... : --- .. . ... : --- .. . ... : ... .. . ...
ROW 18 : A#3 18 . ... ... : D#1 05 . ... : C-4 01 . ... : 6-# 06 C ... : ... .. . ...
ROW 19 : ... .. . ... ... : ... .. . ... : D#2 05 . ... : ... .. . ... : ... .. . ...
ROW 1A : ... .. . ... ... : ... .. . ... : ... .. . ... : ... .. . ... : ... .. . ...
ROW 1B : --- .. . ... ... : --- .. . ... : ... .. . ... : ... .. . ... : ... .. . ...
ROW 1C : G-3 12 5 ... ... : D#2 15 A ... : A#3 05 . ... : ... .. . ... : ... .. . ...
ROW 1D : ... .. . ... ... : ... .. . ... : ... .. . ... : ... .. . ... : ... .. . ...
ROW 1E : ... .. . ... ... : ... .. . ... : ... .. . ... : ... .. . ... : ... .. . ...
ROW 1F : ... .. . ... ... : --- .. . ... : --- .. . ... : ... .. . ... : ... .. . ...
ROW 20 : D#4 12 . 313 ... : G-2 05 . ... : A#4 05 . ... : D-# 06 C ... : ... .. . ...
ROW 21 : ... .. . ... ... : ... .. . ... : ... .. . ... : ... .. . ... : ... .. . ...
ROW 22 : ... .. . ... ... : ... .. . ... : ... .. . ... : ... .. . ... : ... .. . ...
ROW 23 : --- .. . ... ... : --- .. . ... : --- .. . ... : ... .. . ... : ... .. . ...
ROW 24 : G-4 10 . 300 ... : D#2 11 . ... : D#5 03 . ... : 6-# 00 C ... : ... .. . ...
ROW 25 : ... .. . ... ... : ... .. . ... : ... .. . ... : ... .. . ... : ... .. . ...
ROW 26 : ... .. . ... ... : ... .. . ... : ... .. . ... : 6-# 00 1 ... : ... .. . ...
ROW 27 : --- .. . ... ... : --- .. . ... : --- .. . ... : --- .. . ... : ... .. . ...
ROW 28 : G#3 18 F ... ... : D#2 0F . ... : G-5 03 . ... : 6-# 00 C ... : ... .. . ...
ROW 29 : ... .. . ... ... : ... .. . ... : ... .. . ... : ... .. . ... : ... .. . ...
ROW 2A : ... .. . ... ... : ... .. . ... : ... .. . ... : 6-# 00 1 ... : ... .. . ...
ROW 2B : --- .. . ... ... : --- .. . ... : --- .. . ... : --- .. . ... : ... .. . ...
ROW 2C : G-3 18 . ... ... : D#1 05 F ... : C-4 01 . ... : 6-# 00 C ... : ... .. . ...
ROW 2D : ... .. . ... ... : ... .. . ... : D#2 05 . ... : ... .. . ... : ... .. . ...
ROW 2E : ... .. . ... ... : ... .. . ... : ... .. . ... : 6-# 00 1 ... : ... .. . ...
ROW 2F : --- .. . ... ... : --- .. . ... : --- .. . ... : --- .. . ... : ... .. . ...

PATTERN 01
ROW 00 : G#3 18 . ... ... : F-1 05 F ... : C-4 01 . ... : 6-# 06 C ... : ... .. . ...
ROW 01 : ... .. . ... ... : ... .. . ... : F-2 05 . ... : ... .. . ... : ... .. . ...
ROW 02 : ... .. . ... ... : ... .. . ... : ... .. . ... : ... .. . ... : ... .. . ...
ROW 03 : ... .. . ... ... : --- .. . ... : --- .. . ... : ... .. . ... : ... .. . ...
ROW 04 : G-3 18 . ... ... : C-2 15 A ... : F-3 05 . ... : ... .. . ... : ... .. . ...
ROW 05 : ... .. . ... ... : ... .. . ... : ... .. . ... : ... .. . ... : ... .. . ...
ROW 06 : ... .. . ... ... : ... .. . ... : ... .. . ... : ... .. . ... : ... .. . ...
ROW 07 : --- .. . ... ... : --- .. . ... : --- .. . ... : ... .. . ... : ... .. . ...
ROW 08 : F-3 18 . ... ... : C-3 05 . ... : C-5 05 . ... : D-# 06 . ... : ... .. . ...
ROW 09 : ... .. . ... ... : ... .. . ... : ... .. . ... : ... .. . ... : ... .. . ...
ROW 0A : ... .. . ... ... : ... .. . ... : ... .. . ... : ... .. . ... : ... .. . ...
ROW 0B : --- .. . ... ... : --- .. . ... : --- .. . ... : ... .. . ... : ... .. . ...
ROW 0C : A#4 12 5 ... ... : F-2 0F . ... : G#4 03 . ... : F-# 00 C ... : ... .. . ...
ROW 0D : B-4 12 . ... ... : ... .. . ... : ... .. . ... : ... .. . ... : ... .. . ...
ROW 0E : C-5 12 . ... ... : ... .. . ... : ... .. . ... : 6-# 00 1 ... : ... .. . ...
ROW 0F : ... .. . ... ... : ... .. . ... : --- .. . ... : --- .. . ... : ... .. . ...
ROW 10 : G#4 12 . 310 ... : F-2 17 . ... : C-4 01 . ... : 6-# 00 C ... : ... .. . ...
ROW 11 : ... .. . ... ... : ... .. . ... : F-2 05 . ... : ... .. . ... : ... .. . ...
ROW 12 : ... .. . ... ... : ... .. . ... : ... .. . ... : 6-# 00 1 ... : ... .. . ...
ROW 13 : ... .. . ... ... : ... .. . ... : ... .. . ... : --- .. . ... : ... .. . ...
ROW 14 : F-4 12 . 300 ... : F-2 0C . ... : G#4 05 . ... : 6-# 00 C ... : ... .. . ...
ROW 15 : ... .. . ... ... : ... .. . ... : ... .. . ... : ... .. . ... : ... .. . ...
ROW 16 : G#4 12 . ... ... : ... .. . ... : ... .. . ... : 6-# 00 1 ... : ... .. . ...
ROW 17 : F-4 12 . 320 ... : --- .. . ... : --- .. . ... : --- .. . ... : ... .. . ...
ROW 18 : C-4 12 . 300 ... : F-1 05 F ... : C-4 01 . ... : 6-# 06 C ... : ... .. . ...
ROW 19 : ... .. . ... ... : ... .. . ... : F-2 05 . ... : ... .. . ... : ... .. . ...
ROW 1A : ... .. . ... ... : ... .. . ... : ... .. . ... : ... .. . ... : ... .. . ...
ROW 1B : --- .. . ... ... : --- .. . ... : ... .. . ... : ... .. . ... : ... .. . ...
ROW 1C : F-4 12 . ... ... : F-2 0F A ... : F-4 05 . ... : ... .. . ... : ... .. . ...
ROW 1D : ... .. . ... ... : ... .. . ... : ... .. . ... : ... .. . ... : ... .. . ...
ROW 1E : ... .. . ... ... : ... .. . ... : ... .. . ... : 6-# 00 5 ... : ... .. . ...
ROW 1F : --- 12 . ... ... : --- .. . ... : ... .. . ... : ... .. . ... : ... .. . ...
ROW 20 : C-4 12 . ... ... : F-2 17 . ... : C-4 05 . 320 : 6-# 00 C ... : ... .. . ...
ROW 21 : ... .. . ... ... : ... .. . ... : ... .. . ... : ... .. . ... : ... .. . ...
ROW 22 : ... .. . ... ... : ... .. . ... : ... .. . ... : ... .. . ... : ... .. . ...
ROW 23 : ... .. . ... ... : --- .. . ... : ... .. . ... : ... .. . ... : ... .. . ...
ROW 24 : A#3 12 . ... ... : D#1 05 A ... : C-4 01 . 300 : A-# 06 C ... : ... .. . ...
ROW 25 : ... .. . ... ... : ... .. . ... : D#2 05 . ... : ... .. . ... : ... .. . ...
ROW 26 : ... .. . ... ... : ... .. . ... : ... .. . ... : ... .. . ... : ... .. . ...
ROW 27 : ... .. . ... ... : --- .. . ... : ... .. . ... : ... .. . ... : ... .. . ...
ROW 28 : C-4 12 . ... ... : D#2 0B . ... : C-4 05 . ... : ... .. . ... : ... .. . ...
ROW 29 : ... .. . ... ... : ... .. . ... : ... .. . ... : ... .. . ... : ... .. . ...
ROW 2A : ... .. . ... ... : ... .. . ... : ... .. . ... : ... .. . ... : ... .. . ...
ROW 2B : ... .. . ... ... : --- .. . ... : ... .. . ... : ... .. . ... : ... .. . ...
ROW 2C : A#3 12 . ... ... : D#1 05 A ... : G#4 05 . 320 : 6-# 00 5 ... : ... .. . ...
ROW 2D : ... .. . ... ... : ... .. . ... : ... .. . ... : ... .. . ... : ... .. . ...
ROW 2E : ... .. . ... ... : ... .. . ... : ... .. . ... : 6-# 00 C ... : ... .. . ...
ROW 2F : ... .. . ... ... : --- .. . ... : ... .. . ... : --- .. . ... : ... .. . ...

PATTERN 02
ROW 00 : ... .. . 220 ... : F-1 05 F ... : C-4 01 . 300 : 9-# 06 C ... : ... .. . ...
ROW 01 : ... .. . ... ... : ... .. . ... : F-2 12 . ... : ... .. . ... : ... .. . ...
ROW 02 : ... .. . ... ... : ... .. . ... : ... .. . ... : ... .. . ... : ... .. . ...
ROW 03 : ... .. . ... ... : --- .. . ... : --- .. . ... : ... .. . ... : ... .. . ...
ROW 04 : --- .. . 200 ... : F-2 15 A ... : C-4 05 . ... : 6-# 00 . ... : ... .. . ...
ROW 05 : ... .. . ... ... : ... .. . ... : ... .. . ... : ... .. . ... : ... .. . ...
ROW 06 : ... .. . ... ... : ... .. . ... : ... .. . ... : 6-# 00 . ... : ... .. . ...
ROW 07 : ... .. . ... ... : --- .. . ... : --- .. . ... : ... .. . ... : ... .. . ...
ROW 08 : A#3 18 F ... ... : C-3 05 . ... : G#4 05 . ... : F-# 00 . ... : ... .. . ...
ROW 09 : C-4 18 . ... ... : ... .. . ... : ... .. . ... : --- .. . ... : ... .. . ...
ROW 0A : ... .. . ... ... : ... .. . ... : ... .. . ... : ... .. . ... : ... .. . ...
ROW 0B : --- .. . ... ... : --- .. . ... : --- .. . ... : ... .. . ... : ... .. . ...
ROW 0C : G#4 12 5 ... ... : F-2 0F . ... : C-5 03 . ... : 6-# 00 . ... : ... .. . ...
ROW 0D : ... .. . ... ... : ... .. . ... : ... .. . ... : ... .. . ... : ... .. . ...
ROW 0E : ... .. . ... ... : ... .. . ... : ... .. . ... : ... .. . ... : ... .. . ...
ROW 0F : --- .. . ... ... : --- .. . ... : --- .. . ... : ... .. . ... : ... .. . ...
ROW 10 : F-3 18 F ... ... : F-2 17 . ... : F-5 03 . ... : D-# 15 . ... : ... .. . ...
ROW 11 : ... .. . ... ... : ... .. . ... : ... .. . ... : ... .. . ... : ... .. . ...
ROW 12 : ... .. . ... ... : ... .. . ... : ... .. . ... : ... .. . ... : ... .. . ...
ROW 13 : --- .. . ... ... : --- .. . ... : --- .. . ... : ... .. . ... : ... .. . ...
ROW 14 : C-4 18 . ... ... : F-1 05 F ... : C-4 01 . ... : ... .. . ... : ... .. . ...
ROW 15 : ... .. . ... ... : ... .. . ... : F-2 05 . ... : ... .. . ... : ... .. . ...
ROW 16 : ... .. . ... ... : ... .. . ... : ... .. . ... : ... .. . ... : ... .. . ...
ROW 17 : ... .. . ... ... : --- .. . ... : --- .. . ... : --- .. . ... : ... .. . ...
ROW 18 : A#3 18 . ... ... : D#1 05 . ... : C-4 01 . ... : 7-# 06 C ... : ... .. . ...
ROW 19 : ... .. . ... ... : ... .. . ... : D#2 05 . ... : ... .. . ... : ... .. . ...
ROW 1A : ... .. . ... ... : ... .. . ... : ... .. . ... : ... .. . ... : ... .. . ...
ROW 1B : --- .. . ... ... : --- .. . ... : ... .. . ... : ... .. . ... : ... .. . ...
ROW 1C : G-3 12 5 ... ... : D#2 15 A ... : A#3 05 . ... : 6-# 00 . ... : ... .. . ...
ROW 1D : ... .. . ... ... : ... .. . ... : ... .. . ... : ... .. . ... : ... .. . ...
ROW 1E : ... .. . ... ... : ... .. . ... : ... .. . ... : ... .. . ... : ... .. . ...
ROW 1F : ... .. . ... ... : --- .. . ... : --- .. . ... : ... .. . ... : ... .. . ...
ROW 20 : A#3 12 . 310 ... : G-2 05 . ... : A#4 05 . ... : F-# 00 . ... : ... .. . ...
ROW 21 : ... .. . ... ... : ... .. . ... : ... .. . ... : --- .. . ... : ... .. . ...
ROW 22 : ... .. . ... ... : ... .. . ... : ... .. . ... : ... .. . ... : ... .. . ...
ROW 23 : --- .. . ... ... : --- .. . ... : --- .. . ... : ... .. . ... : ... .. . ...
ROW 24 : D#4 12 . ... ... : D#2 11 . ... : D#5 03 . ... : 6-# 00 . ... : ... .. . ...
ROW 25 : ... .. . ... ... : ... .. . ... : ... .. . ... : ... .. . ... : ... .. . ...
ROW 26 : ... .. . ... ... : ... .. . ... : ... .. . ... : ... .. . ... : ... .. . ...
ROW 27 : ... .. . ... ... : --- .. . ... : --- .. . ... : ... .. . ... : ... .. . ...
ROW 28 : G#3 18 F ... ... : D#2 0F . ... : G-5 03 . ... : D-# 15 . ... : ... .. . ...
ROW 29 : ... .. . ... ... : ... .. . ... : ... .. . ... : ... .. . ... : ... .. . ...
ROW 2A : ... .. . ... ... : ... .. . ... : ... .. . ... : ... .. . ... : ... .. . ...
ROW 2B : ... .. . ... ... : --- .. . ... : --- .. . ... : ... .. . ... : ... .. . ...
ROW 2C : A#3 18 . ... ... : D#1 05 F ... : C-4 01 . ... : 6-# 00 C ... : ... .. . ...
ROW 2D : ... .. . ... ... : ... .. . ... : D#2 05 . ... : ... .. . ... : ... .. . ...
ROW 2E : ... .. . ... ... : ... .. . ... : ... .. . ... : 6-# 00 1 ... : ... .. . ...
ROW 2F : --- .. . ... ... : --- .. . ... : --- .. . ... : --- .. . ... : ... .. . ...

PATTERN 03
ROW 00 : C-4 18 F A02 ... : G#1 05 F ... : C-4 01 . ... : 9-# 06 C ... : ... .. . ...
ROW 01 : ... .. . ... ... : ... .. . ... : G#2 05 . ... : ... .. . ... : ... .. . ...
ROW 02 : ... .. . ... ... : ... .. . ... : ... .. . ... : ... .. . ... : ... .. . ...
ROW 03 : ... .. . ... ... : --- .. . ... : --- .. . ... : ... .. . ... : ... .. . ...
ROW 04 : ... .. . ... ... : D#2 15 A ... : G#3 05 . ... : 6-# 00 . ... : ... .. . ...
ROW 05 : ... .. . ... ... : ... .. . ... : ... .. . ... : ... .. . ... : ... .. . ...
ROW 06 : ... .. . ... ... : ... .. . ... : ... .. . ... : 6-# 00 . ... : ... .. . ...
ROW 07 : --- .. . ... ... : --- .. . ... : --- .. . ... : ... .. . ... : ... .. . ...
ROW 08 : C-4 18 8 A02 ... : D#3 05 . ... : C-5 05 . ... : F-# 00 . ... : ... .. . ...
ROW 09 : ... .. . ... ... : ... .. . ... : ... .. . ... : --- .. . ... : ... .. . ...
ROW 0A : ... .. . ... ... : ... .. . ... : ... .. . ... : ... .. . ... : ... .. . ...
ROW 0B : ... .. . ... ... : --- .. . ... : --- .. . ... : ... .. . ... : ... .. . ...
ROW 0C : ... .. . ... ... : G#2 0B . ... : G#4 03 . ... : 6-# 00 . ... : ... .. . ...
ROW 0D : ... .. . ... ... : ... .. . ... : ... .. . ... : ... .. . ... : ... .. . ...
ROW 0E : ... .. . ... ... : ... .. . ... : ... .. . ... : ... .. . ... : ... .. . ...
ROW 0F : --- .. . ... ... : ... .. . ... : --- .. . ... : ... .. . ... : ... .. . ...
ROW 10 : C-4 18 4 A02 ... : G#2 11 . ... : C-4 01 . ... : D-# 15 . ... : ... .. . ...
ROW 11 : ... .. . ... ... : ... .. . ... : G#2 05 . ... : ... .. . ... : ... .. . ...
ROW 12 : ... .. . ... ... : ... .. . ... : ... .. . ... : ... .. . ... : ... .. . ...
ROW 13 : ... .. . ... ... : ... .. . ... : ... .. . ... : ... .. . ... : ... .. . ...
ROW 14 : ... .. . ... ... : A#2 0C . ... : G#4 05 . ... : ... .. . ... : ... .. . ...
ROW 15 : ... .. . ... ... : ... .. . ... : ... .. . ... : ... .. . ... : ... .. . ...
ROW 16 : ... .. . ... ... : ... .. . ... : ... .. . ... : ... .. . ... : ... .. . ...
ROW 17 : ... .. . A00 ... : --- .. . ... : --- .. . ... : --- .. . ... : ... .. . ...
ROW 18 : A#2 09 4 400 ... : A#1 05 F ... : C-4 01 . ... : 7-# 06 C ... : ... .. . ...
ROW 19 : ... .. . ... ... : ... .. . ... : A#1 05 . ... : ... .. . ... : ... .. . ...
ROW 1A : ... .. . ... ... : ... .. . ... : ... .. . ... : ... .. . ... : ... .. . ...
ROW 1B : ... .. . ... ... : --- .. . ... : ... .. . ... : ... .. . ... : ... .. . ...
ROW 1C : ... .. . ... ... : A#2 0B A ... : C-4 05 . ... : 6-# 00 . ... : ... .. . ...
ROW 1D : ... .. . ... ... : ... .. . ... : ... .. . ... : ... .. . ... : ... .. . ...
ROW 1E : ... .. 7 ... ... : ... .. . ... : ... .. . ... : ... .. . ... : ... .. . ...
ROW 1F : ... .. . ... ... : --- .. . ... : ... .. . ... : ... .. . ... : ... .. . ...
ROW 20 : ... .. . ... ... : A#2 11 . ... : A#3 05 . 320 : D-# 15 . ... : ... .. . ...
ROW 21 : ... .. . ... ... : ... .. . ... : ... .. . ... : ... .. . ... : ... .. . ...
ROW 22 : ... .. . ... ... : ... .. . ... : ... .. . ... : ... .. . ... : ... .. . ...
ROW 23 : ... .. . ... ... : --- .. . ... : ... .. . ... : ... .. . ... : ... .. . ...
ROW 24 : C-3 09 8 300 ... : C-2 05 A ... : C-4 01 . 300 : 6-# 00 . ... : ... .. . ...
ROW 25 : ... .. . ... ... : ... .. . ... : C-2 05 . ... : ... .. . ... : ... .. . ...
ROW 26 : ... .. . ... ... : ... .. . ... : ... .. . ... : ... .. . ... : ... .. . ...
ROW 27 : ... .. . ... ... : --- .. . ... : ... .. . ... : ... .. . ... : ... .. . ...
ROW 28 : C-3 15 8 ... ... : C-3 0B . ... : G-3 05 . ... : D-# 15 . ... : ... .. . ...
ROW 29 : ... .. . ... ... : ... .. . ... : ... .. . ... : ... .. . ... : ... .. . ...
ROW 2A : E-3 15 A ... ... : ... .. . ... : ... .. . ... : ... .. . ... : ... .. . ...
ROW 2B : ... .. . ... ... : --- .. . ... : ... .. . ... : ... .. . ... : ... .. . ...
ROW 2C : G-3 15 C ... ... : C-2 05 A ... : E-4 05 . 320 : 6-# 00 C ... : ... .. . ...
ROW 2D : ... .. . ... ... : ... .. . ... : ... .. . ... : ... .. . ... : ... .. . ...
ROW 2E : A#3 15 F ... ... : ... .. . ... : ... .. . ... : 6-# 00 1 ... : ... .. . ...
ROW 2F : ... .. . ... ... : --- .. . ... : ... .. . ... : --- .. . ... : ... .. . ...

PATTERN 04
ROW 00 : G#3 15 F ... ... : F-1 05 F ... : C-4 01 . 300 : 9-# 06 C ... : ... .. . ...
ROW 01 : ... .. . ... ... : ... .. . ... : F-2 12 . ... : ... .. . ... : ... .. . ...
ROW 02 : ... .. . ... ... : ... .. . ... : ... .. . ... : ... .. . ... : ... .. . ...
ROW 03 : --- .. . ... ... : --- .. . ... : --- .. . ... : ... .. . ... : ... .. . ...
ROW 04 : G#3 12 5 ... ... : F-2 15 A ... : C-4 05 . ... : 6-# 00 . ... : ... .. . ...
ROW 05 : ... .. . ... ... : ... .. . ... : ... .. . ... : ... .. . ... : ... .. . ...
ROW 06 : ... .. . ... ... : ... .. . ... : ... .. . ... : ... .. . ... : ... .. . ...
ROW 07 : --- .. . ... ... : --- .. . ... : --- .. . ... : ... .. . ... : ... .. . ...
ROW 08 : F-3 18 F ... ... : C-3 05 . ... : G#4 05 . ... : D-# 06 . ... : ... .. . ...
ROW 09 : ... .. . ... ... : ... .. . ... : ... .. . ... : ... .. . ... : ... .. . ...
ROW 0A : ... .. . ... ... : ... .. . ... : ... .. . ... : ... .. . ... : ... .. . ...
ROW 0B : --- .. . ... ... : --- .. . ... : --- .. . ... : ... .. . ... : ... .. . ...
ROW 0C : F-4 10 7 ... ... : F-2 0F . ... : C-5 03 . ... : F-# 00 . ... : ... .. . ...
ROW 0D : ... .. . ... ... : ... .. . ... : ... .. . ... : ... .. . ... : ... .. . ...
ROW 0E : ... .. . ... ... : ... .. . ... : ... .. . ... : ... .. . ... : ... .. . ...
ROW 0F : --- .. . ... ... : --- .. . ... : --- .. . ... : ... .. . ... : ... .. . ...
ROW 10 : F-3 18 F ... ... : F-2 17 . ... : F-5 03 . ... : 6-# 00 . ... : ... .. . ...
ROW 11 : ... .. . ... ... : ... .. . ... : ... .. . ... : ... .. . ... : ... .. . ...
ROW 12 : ... .. . ... ... : ... .. . ... : ... .. . ... : ... .. . ... : ... .. . ...
ROW 13 : --- .. . ... ... : --- .. . ... : --- .. . ... : --- .. . ... : ... .. . ...
ROW 14 : C-4 18 . ... ... : F-1 05 F ... : C-4 01 . ... : 6-# 00 . ... : ... .. . ...
ROW 15 : ... .. . ... ... : ... .. . ... : F-2 05 . ... : ... .. . ... : ... .. . ...
ROW 16 : ... .. . ... ... : ... .. . ... : ... .. . ... : ... .. . ... : ... .. . ...
ROW 17 : ... .. . ... ... : --- .. . ... : --- .. . ... : --- .. . ... : ... .. . ...
ROW 18 : A#3 18 . ... ... : D#1 05 . ... : C-4 01 . ... : 9-# 06 . ... : ... .. . ...
ROW 19 : ... .. . ... ... : ... .. . ... : D#2 05 . ... : ... .. . ... : ... .. . ...
ROW 1A : ... .. . ... ... : ... .. . ... : ... .. . ... : ... .. . ... : ... .. . ...
ROW 1B : --- .. . ... ... : --- .. . ... : ... .. . ... : ... .. . ... : ... .. . ...
ROW 1C : G-3 12 5 ... ... : D#2 15 A ... : A#3 05 . ... : 6-# 00 . ... : ... .. . ...
ROW 1D : ... .. . ... ... : ... .. . ... : ... .. . ... : ... .. . ... : ... .. . ...
ROW 1E : ... .. . ... ... : ... .. . ... : ... .. . ... : ... .. . ... : ... .. . ...
ROW 1F : ... .. . ... ... : --- .. . ... : --- .. . ... : ... .. . ... : ... .. . ...
ROW 20 : D#4 12 . 313 ... : G-2 05 . ... : A#4 05 . ... : D-# 06 . ... : ... .. . ...
ROW 21 : ... .. . ... ... : ... .. . ... : ... .. . ... : ... .. . ... : ... .. . ...
ROW 22 : ... .. . ... ... : ... .. . ... : ... .. . ... : ... .. . ... : ... .. . ...
ROW 23 : --- .. . ... ... : --- .. . ... : --- .. . ... : ... .. . ... : ... .. . ...
ROW 24 : G-4 10 . 300 ... : D#2 11 . ... : D#5 03 . ... : F-# 00 . ... : ... .. . ...
ROW 25 : ... .. . ... ... : ... .. . ... : ... .. . ... : ... .. . ... : ... .. . ...
ROW 26 : ... .. . ... ... : ... .. . ... : ... .. . ... : ... .. . ... : ... .. . ...
ROW 27 : --- .. . ... ... : --- .. . ... : --- .. . ... : ... .. . ... : ... .. . ...
ROW 28 : G#3 18 F ... ... : D#2 0F . ... : G-5 03 . ... : 6-# 00 . ... : ... .. . ...
ROW 29 : ... .. . ... ... : ... .. . ... : ... .. . ... : ... .. . ... : ... .. . ...
ROW 2A : ... .. . ... ... : ... .. . ... : ... .. . ... : ... .. . ... : ... .. . ...
ROW 2B : --- .. . ... ... : --- .. . ... : --- .. . ... : --- .. . ... : ... .. . ...
ROW 2C : A#3 18 . ... ... : D#1 05 F ... : C-4 01 . ... : 6-# 00 . ... : ... .. . ...
ROW 2D : ... .. . ... ... : ... .. . ... : D#2 05 . ... : ... .. . ... : ... .. . ...
ROW 2E : ... .. . ... ... : ... .. . ... : ... .. . ... : ... .. . ... : ... .. . ...
ROW 2F : ... .. . ... ... : --- .. . ... : --- .. . ... : --- .. . ... : ... .. . ...

PATTERN 05
ROW 00 : C-4 18 . ... ... : C#1 05 F ... : C-4 01 . ... : 9-# 06 C ... : ... .. . ...
ROW 01 : ... .. . ... ... : ... .. . ... : C#2 05 . ... : ... .. . ... : ... .. . ...
ROW 02 : ... .. . ... ... : ... .. . ... : ... .. . ... : ... .. . ... : ... .. . ...
ROW 03 : ... .. . ... ... : --- .. . ... : --- .. . ... : ... .. . ... : ... .. . ...
ROW 04 : ... .. . ... ... : G#2 15 A ... : C#3 05 . ... : 6-# 06 . ... : ... .. . ...
ROW 05 : ... .. . ... ... : ... .. . ... : ... .. . ... : ... .. . ... : ... .. . ...
ROW 06 : ... .. . ... ... : ... .. . ... : ... .. . ... : ... .. . ... : ... .. . ...
ROW 07 : --- .. . ... ... : --- .. . ... : --- .. . ... : ... .. . ... : ... .. . ...
ROW 08 : C-4 18 8 ... ... : C-3 05 . ... : G#4 05 . ... : D-# 06 . ... : ... .. . ...
ROW 09 : ... .. . ... ... : ... .. . ... : ... .. . ... : ... .. . ... : ... .. . ...
ROW 0A : ... .. . ... ... : ... .. . ... : ... .. . ... : ... .. . ... : ... .. . ...
ROW 0B : ... .. . ... ... : --- .. . ... : --- .. . ... : ... .. . ... : ... .. . ...
ROW 0C : F-4 18 F ... ... : C#2 0B . ... : F-4 03 . ... : F-# 06 . ... : ... .. . ...
ROW 0D : ... .. . ... ... : ... .. . ... : ... .. . ... : ... .. . ... : ... .. . ...
ROW 0E : ... .. . ... ... : ... .. . ... : ... .. . ... : ... .. . ... : ... .. . ...
ROW 0F : ... .. . ... ... : --- .. . ... : --- .. . ... : ... .. . ... : ... .. . ...
ROW 10 : C-4 18 . ... ... : F#1 05 F ... : C-4 01 . ... : 6-# 06 . ... : ... .. . ...
ROW 11 : ... .. . ... ... : ... .. . ... : F#2 05 . ... : ... .. . ... : ... .. . ...
ROW 12 : ... .. . ... ... : ... .. . ... : ... .. . ... : ... .. . ... : ... .. . ...
ROW 13 : --- .. . ... ... : --- .. . ... : --- .. . ... : --- .. . ... : ... .. . ...
ROW 14 : A#3 18 . ... ... : G-1 05 . ... : C-4 05 . ... : 6-# 06 . ... : ... .. . ...
ROW 15 : ... .. . ... ... : ... .. . ... : ... .. . ... : ... .. . ... : ... .. . ...
ROW 16 : C-4 18 . ... ... : ... .. . ... : ... .. . ... : ... .. . ... : ... .. . ...
ROW 17 : A#3 18 . ... ... : --- .. . ... : --- .. . ... : --- .. . ... : ... .. . ...
ROW 18 : G#3 18 F A02 ... : G#1 05 F ... : C-4 01 . ... : 9-# 06 . ... : ... .. . ...
ROW 19 : ... .. . ... ... : ... .. . ... : G#2 05 . ... : ... .. . ... : ... .. . ...
ROW 1A : ... .. . ... ... : ... .. . ... : ... .. . ... : ... .. . ... : ... .. . ...
ROW 1B : ... .. . ... ... : --- .. . ... : ... .. . ... : ... .. . ... : ... .. . ...
ROW 1C : ... .. . ... ... : G#2 0B A ... : D#4 05 . ... : 6-# 06 . ... : ... .. . ...
ROW 1D : ... .. . ... ... : ... .. . ... : ... .. . ... : ... .. . ... : ... .. . ...
ROW 1E : ... .. . ... ... : ... .. . ... : ... .. . ... : ... .. . ... : ... .. . ...
ROW 1F : --- .. . ... ... : --- .. . ... : ... .. . ... : ... .. . ... : ... .. . ...
ROW 20 : G#3 18 8 A02 ... : G#2 11 . ... : C-4 05 . 320 : D-# 02 . ... : ... .. . ...
ROW 21 : ... .. . ... ... : ... .. . ... : ... .. . ... : ... .. . ... : ... .. . ...
ROW 22 : ... .. . ... ... : ... .. . ... : ... .. . ... : ... .. . ... : ... .. . ...
ROW 23 : ... .. . ... ... : --- .. . ... : ... .. . ... : ... .. . ... : ... .. . ...
ROW 24 : ... .. . ... ... : G#1 05 A ... : C-4 01 . 300 : F-# 02 . ... : ... .. . ...
ROW 25 : ... .. . ... ... : ... .. . ... : ... .. . ... : ... .. . ... : ... .. . ...
ROW 26 : ... .. . ... ... : ... .. . ... : ... .. . ... : F-# 02 . ... : ... .. . ...
ROW 27 : ... .. . ... ... : --- .. . ... : ... .. . ... : ... .. . ... : ... .. . ...
ROW 28 : D#3 18 F A00 ... : G#2 0B . ... : G#2 05 . ... : 1-# 02 . ... : ... .. . ...
ROW 29 : ... .. . ... ... : ... .. . ... : ... .. . ... : ... .. . ... : ... .. . ...
ROW 2A : ... .. . ... ... : ... .. . ... : ... .. . ... : 1-# 02 . ... : ... .. . ...
ROW 2B : ... .. . ... ... : --- .. . ... : --- .. . ... : --- .. . ... : ... .. . ...
ROW 2C : F-3 18 . ... ... : A#1 05 A ... : A#2 05 . ... : 3-# 02 . ... : ... .. . ...
ROW 2D : ... .. . ... ... : ... .. . ... : ... .. . ... : --- .. . ... : ... .. . ...
ROW 2E : ... .. . ... ... : ... .. . ... : ... .. . ... : 3-# 02 . ... : ... .. . ...
ROW 2F : ... .. . ... ... : --- .. . ... : --- .. . ... : --- .. . ... : ... .. . ...

PATTERN 06
ROW 00 : F#3 18 . ... ... : B-1 05 F ... : C-4 01 . 300 : 5-# 05 C ... : ... .. . ...
ROW 01 : ... .. . ... ... : ... .. . ... : B-2 12 . ... : ... .. . ... : ... .. . ...
ROW 02 : ... .. . ... ... : ... .. . ... : ... .. . ... : ... .. . ... : ... .. . ...
ROW 03 : ... .. . ... ... : --- .. . ... : --- .. . ... : ... .. . ... : ... .. . ...
ROW 04 : ... .. . 220 ... : F#3 15 A ... : D#4 05 . ... : ... .. 8 101 : ... .. . ...
ROW 05 : ... .. . ... ... : ... .. . ... : ... .. . ... : ... .. . ... : ... .. . ...
ROW 06 : ... .. . ... ... : ... .. . ... : ... .. . ... : ... .. . ... : ... .. . ...
ROW 07 : ... .. . ... ... : --- .. . ... : --- .. . ... : ... .. . ... : ... .. . ...
ROW 08 : G#3 18 F 200 ... : B-2 05 . ... : D#5 05 . ... : ... .. . ... : ... .. . ...
ROW 09 : ... .. . ... ... : ... .. . ... : ... .. . ... : ... .. . ... : ... .. . ...
ROW 0A : ... .. . ... ... : ... .. . ... : ... .. . ... : 5-# 05 9 ... : ... .. . ...
ROW 0B : --- .. . ... ... : --- .. . ... : --- .. . ... : ... .. . ... : ... .. . ...
ROW 0C : D#4 12 5 ... ... : B-2 0B . ... : D#4 03 . ... : ... .. . ... : ... .. . ...
ROW 0D : ... .. . ... ... : ... .. . ... : ... .. . ... : ... .. . ... : ... .. . ...
ROW 0E : ... .. . ... ... : ... .. . ... : ... .. . ... : ... .. 3 101 : ... .. . ...
ROW 0F : --- .. . ... ... : --- .. . ... : --- .. . ... : ... .. . ... : ... .. . ...
ROW 10 : A#3 18 F ... ... : B-1 05 F ... : C-4 01 . ... : ... .. . ... : ... .. . ...
ROW 11 : ... .. . ... ... : ... .. . ... : B-2 05 . ... : ... .. . ... : ... .. . ...
ROW 12 : ... .. . ... ... : ... .. . ... : ... .. . ... : ... .. . ... : ... .. . ...
ROW 13 : --- .. . ... ... : --- .. . ... : --- .. . ... : ... .. . ... : ... .. . ...
ROW 14 : F#4 12 5 ... ... : B-2 11 . ... : ... .. . ... : 5-# 05 4 100 : ... .. . ...
ROW 15 : ... .. . ... ... : ... .. . ... : F#5 03 . ... : ... .. . ... : ... .. . ...
ROW 16 : ... .. . ... ... : ... .. . ... : ... .. . ... : ... .. . ... : ... .. . ...
ROW 17 : --- .. . ... ... : --- .. . ... : --- .. . ... : ... .. . ... : ... .. . ...
ROW 18 : A#3 18 F ... ... : F#1 05 . ... : C-4 01 . ... : 9-# 06 C ... : ... .. . ...
ROW 19 : ... .. . ... ... : ... .. . ... : F#2 05 . ... : ... .. . ... : ... .. . ...
ROW 1A : ... .. . ... ... : ... .. . ... : ... .. . ... : ... .. . ... : ... .. . ...
ROW 1B : ... .. . ... ... : --- .. . ... : ... .. . ... : ... .. . ... : ... .. . ...
ROW 1C : ... .. . ... ... : F#2 15 A ... : A#3 05 . ... : 6-# 00 . ... : ... .. . ...
ROW 1D : ... .. . ... ... : ... .. . ... : ... .. . ... : ... .. . ... : ... .. . ...
ROW 1E : ... .. . ... ... : ... .. . ... : ... .. . ... : ... .. . ... : ... .. . ...
ROW 1F : --- .. . ... ... : --- .. . ... : --- .. . ... : ... .. . ... : ... .. . ...
ROW 20 : C-4 18 F ... ... : F#2 05 . ... : C#5 05 . ... : D-# 06 . ... : ... .. . ...
ROW 21 : ... .. . ... ... : ... .. . ... : ... .. . ... : ... .. . ... : ... .. . ...
ROW 22 : ... .. . ... ... : ... .. . ... : ... .. . ... : ... .. . ... : ... .. . ...
ROW 23 : ... .. . ... ... : --- .. . ... : --- .. . ... : ... .. . ... : ... .. . ...
ROW 24 : ... .. . ... ... : F#2 11 . ... : A#3 03 . ... : F-# 00 . ... : ... .. . ...
ROW 25 : ... .. . ... ... : ... .. . ... : ... .. . ... : ... .. . ... : ... .. . ...
ROW 26 : ... .. . ... ... : ... .. . ... : ... .. . ... : ... .. . ... : ... .. . ...
ROW 27 : --- .. . ... ... : --- .. . ... : --- .. . ... : ... .. . ... : ... .. . ...
ROW 28 : C#4 18 F ... ... : F#2 0B . ... : F#4 03 . ... : 6-# 00 . ... : ... .. . ...
ROW 29 : ... .. . ... ... : ... .. . ... : ... .. . ... : ... .. . ... : ... .. . ...
ROW 2A : ... .. . ... ... : ... .. . ... : ... .. . ... : ... .. . ... : ... .. . ...
ROW 2B : ... .. . ... ... : --- .. . ... : --- .. . ... : --- .. . ... : ... .. . ...
ROW 2C : ... .. . ... ... : F#1 05 F ... : C-4 01 . ... : 6-# 00 . ... : ... .. . ...
ROW 2D : ... .. . ... ... : ... .. . ... : F#2 05 . ... : ... .. . ... : ... .. . ...
ROW 2E : ... .. . ... ... : ... .. . ... : ... .. . ... : ... .. . ... : ... .. . ...
ROW 2F : --- .. . ... ... : --- .. . ... : --- .. . ... : --- .. . ... : ... .. . ...

PATTERN 07
ROW 00 : C-4 18 F A02 ... : G-1 05 F ... : C-4 01 . ... : 9-# 06 C ... : ... .. . ...
ROW 01 : ... .. . ... ... : ... .. . ... : G-2 05 . ... : ... .. . ... : ... .. . ...
ROW 02 : ... .. . ... ... : ... .. . ... : ... .. . ... : ... .. . ... : ... .. . ...
ROW 03 : ... .. . ... ... : --- .. . ... : --- .. . ... : ... .. . ... : ... .. . ...
ROW 04 : ... .. . ... ... : G-2 15 A ... : A#3 05 . ... : 6-# 00 . ... : ... .. . ...
ROW 05 : ... .. . ... ... : ... .. . ... : ... .. . ... : ... .. . ... : ... .. . ...
ROW 06 : ... .. . ... ... : ... .. . ... : ... .. . ... : 6-# 00 . ... : ... .. . ...
ROW 07 : --- .. . ... ... : --- .. . ... : --- .. . ... : ... .. . ... : ... .. . ...
ROW 08 : C-4 18 A ... ... : F-3 05 . ... : C#5 05 . ... : F-# 00 . ... : ... .. . ...
ROW 09 : ... .. . ... ... : ... .. . ... : ... .. . ... : --- .. . ... : ... .. . ...
ROW 0A : ... .. . ... ... : ... .. . ... : ... .. . ... : ... .. . ... : ... .. . ...
ROW 0B : ... .. . ... ... : --- .. . ... : --- .. . ... : ... .. . ... : ... .. . ...
ROW 0C : ... .. . ... ... : A#2 0F . ... : F-4 03 . ... : 6-# 00 . ... : ... .. . ...
ROW 0D : ... .. . ... ... : ... .. . ... : ... .. . ... : ... .. . ... : ... .. . ...
ROW 0E : ... .. . ... ... : ... .. . ... : ... .. . ... : ... .. . ... : ... .. . ...
ROW 0F : --- .. . ... ... : --- .. . ... : --- .. . ... : ... .. . ... : ... .. . ...
ROW 10 : C-4 18 8 ... ... : G-2 14 . ... : C-4 01 . ... : D-# 15 . ... : ... .. . ...
ROW 11 : ... .. . ... ... : ... .. . ... : G-2 05 . ... : ... .. . ... : ... .. . ...
ROW 12 : ... .. . ... ... : ... .. . ... : ... .. . ... : ... .. . ... : ... .. . ...
ROW 13 : ... .. . ... ... : --- .. . ... : ... .. . ... : ... .. . ... : ... .. . ...
ROW 14 : ... .. . ... ... : G-1 05 F ... : G-4 05 . ... : ... .. . ... : ... .. . ...
ROW 15 : ... .. . ... ... : ... .. . ... : ... .. . ... : ... .. . ... : ... .. . ...
ROW 16 : ... .. . ... ... : ... .. . ... : ... .. . ... : ... .. . ... : ... .. . ...
ROW 17 : --- .. . A00 ... : --- .. . ... : --- .. . ... : --- .. . ... : ... .. . ...
ROW 18 : C-3 10 A ... ... : C-1 05 . ... : C-4 01 . ... : 7-# 06 C ... : ... .. . ...
ROW 19 : A#2 12 6 ... ... : ... .. . ... : C-2 05 . ... : ... .. . ... : ... .. . ...
ROW 1A : C-3 10 A ... ... : ... .. . ... : ... .. . ... : ... .. . ... : ... .. . ...
ROW 1B : A#2 12 6 ... ... : --- .. . ... : ... .. . ... : ... .. . ... : ... .. . ...
ROW 1C : E-3 10 A ... ... : E-2 15 A ... : C-4 05 . ... : 6-# 00 . ... : ... .. . ...
ROW 1D : C-3 12 6 ... ... : ... .. . ... : ... .. . ... : ... .. . ... : ... .. . ...
ROW 1E : E-3 10 A ... ... : ... .. . ... : ... .. . ... : ... .. . ... : ... .. . ...
ROW 1F : C-3 12 6 ... ... : --- .. . ... : ... .. . ... : ... .. . ... : ... .. . ...
ROW 20 : G-3 10 A ... ... : C-1 05 . ... : C-4 01 . ... : D-# 15 . ... : ... .. . ...
ROW 21 : E-3 12 6 ... ... : ... .. . ... : C-2 05 . ... : ... .. . ... : ... .. . ...
ROW 22 : G-3 10 A ... ... : ... .. . ... : ... .. . ... : ... .. . ... : ... .. . ...
ROW 23 : E-3 12 6 ... ... : --- .. . ... : ... .. . ... : ... .. . ... : ... .. . ...
ROW 24 : A#3 10 A ... ... : E-2 13 . ... : C-4 05 . ... : 6-# 00 . ... : ... .. . ...
ROW 25 : G-3 12 6 ... ... : ... .. . ... : ... .. . ... : ... .. . ... : ... .. . ...
ROW 26 : A#3 10 A ... ... : ... .. . ... : ... .. . ... : ... .. . ... : ... .. . ...
ROW 27 : G-3 12 6 ... ... : --- .. . ... : ... .. . ... : ... .. . ... : ... .. . ...
ROW 28 : C-4 10 A ... ... : C-1 05 . ... : C-4 01 . ... : D-# 15 . ... : ... .. . ...
ROW 29 : C-4 12 6 ... ... : ... .. . ... : C-2 05 . ... : ... .. . ... : ... .. . ...
ROW 2A : C-4 10 A ... ... : ... .. . ... : ... .. . ... : ... .. . ... : ... .. . ...
ROW 2B : C-4 12 6 ... ... : --- .. . ... : ... .. . ... : ... .. . ... : ... .. . ...
ROW 2C : E-4 10 A ... ... : G-2 14 . ... : E-4 05 . 320 : 6-# 00 C ... : ... .. . ...
ROW 2D : E-4 12 6 ... ... : ... .. . ... : ... .. . ... : ... .. . ... : ... .. . ...
ROW 2E : E-4 10 A ... ... : ... .. . ... : ... .. . ... : 6-# 00 1 ... : ... .. . ...
ROW 2F : E-4 12 6 ... ... : --- .. . ... : ... .. . ... : --- .. . ... : ... .. . ...

PATTERN 08
ROW 00 : F-1 12 C 300 ... : F-1 05 F ... : C-4 01 . 300 : 9-# 06 C ... : ... .. . ...
ROW 01 : ... .. . ... ... : ... .. . ... : C-6 19 . ... : ... .. . ... : ... .. . ...
ROW 02 : ... .. . ... ... : ... .. . ... : ... .. . ... : ... .. . ... : ... .. . ...
ROW 03 : --- .. . ... ... : --- .. . ... : --- .. . ... : ... .. . ... : ... .. . ...
ROW 04 : C-3 05 . ... ... : F-2 15 A ... : G#4 12 . ... : 6-# 00 . ... : ... .. . ...
ROW 05 : ... .. . ... ... : ... .. . ... : ... .. . ... : ... .. . ... : ... .. . ...
ROW 06 : ... .. . ... ... : ... .. . ... : ... .. . ... : ... .. . ... : ... .. . ...
ROW 07 : --- .. . ... ... : --- .. . ... : --- .. . ... : ... .. . ... : ... .. . ...
ROW 08 : G#3 05 8 ... ... : C-3 05 8 ... : F-5 19 . ... : D-# 06 . ... : ... .. . ...
ROW 09 : ... .. . ... ... : ... .. . ... : ... .. . ... : ... .. . ... : ... .. . ...
ROW 0A : ... .. . ... ... : ... .. . ... : ... .. . ... : ... .. . ... : ... .. . ...
ROW 0B : --- .. . ... ... : --- .. . ... : --- .. . ... : ... .. . ... : ... .. . ...
ROW 0C : C-4 03 C ... ... : F-2 0F A ... : F-4 10 . ... : F-# 00 . ... : ... .. . ...
ROW 0D : ... .. . ... ... : ... .. . ... : ... .. . ... : ... .. . ... : ... .. . ...
ROW 0E : ... .. . ... ... : ... .. . ... : ... .. . ... : ... .. . ... : ... .. . ...
ROW 0F : --- .. . ... ... : --- .. . ... : --- .. . ... : ... .. . ... : ... .. . ...
ROW 10 : F-4 03 . ... ... : F-2 17 . ... : F-5 19 . ... : 6-# 00 . ... : ... .. . ...
ROW 11 : ... .. . ... ... : ... .. . ... : ... .. . ... : ... .. . ... : ... .. . ...
ROW 12 : ... .. . ... ... : ... .. . ... : ... .. . ... : ... .. . ... : ... .. . ...
ROW 13 : --- .. . ... ... : --- .. . ... : --- .. . ... : --- .. . ... : ... .. . ...
ROW 14 : F-1 05 . ... ... : F-1 05 F ... : C-6 19 . ... : 6-# 00 . ... : ... .. . ...
ROW 15 : ... .. . ... ... : ... .. . ... : ... .. . ... : ... .. . ... : ... .. . ...
ROW 16 : ... .. . ... ... : ... .. . ... : C#6 19 . ... : ... .. . ... : ... .. . ...
ROW 17 : --- .. . ... ... : --- .. . ... : C-6 19 . ... : --- .. . ... : ... .. . ...
ROW 18 : D#1 05 . ... ... : D#1 05 . ... : A#5 19 . ... : 9-# 06 . ... : ... .. . ...
ROW 19 : ... .. . ... ... : ... .. . ... : ... .. . ... : ... .. . ... : ... .. . ...
ROW 1A : ... .. . ... ... : ... .. . ... : ... .. . ... : ... .. . ... : ... .. . ...
ROW 1B : ... .. . ... ... : --- .. . ... : --- .. . ... : ... .. . ... : ... .. . ...
ROW 1C : A#2 05 . ... ... : D#2 15 A ... : G-4 12 . ... : 6-# 00 . ... : ... .. . ...
ROW 1D : ... .. . ... ... : ... .. . ... : ... .. . ... : ... .. . ... : ... .. . ...
ROW 1E : ... .. . ... ... : ... .. . ... : ... .. . ... : ... .. . ... : ... .. . ...
ROW 1F : --- .. . ... ... : --- .. . ... : ... .. . ... : ... .. . ... : ... .. . ...
ROW 20 : A#3 05 8 ... ... : G-2 05 8 ... : D#5 12 . 313 : D-# 06 . ... : ... .. . ...
ROW 21 : ... .. . ... ... : ... .. . ... : ... .. . ... : ... .. . ... : ... .. . ...
ROW 22 : ... .. . ... ... : ... .. . ... : ... .. . ... : ... .. . ... : ... .. . ...
ROW 23 : --- .. . ... ... : --- .. . ... : --- .. . ... : ... .. . ... : ... .. . ...
ROW 24 : D#4 03 C ... ... : D#2 11 A ... : ... .. . 300 : F-# 00 . ... : ... .. . ...
ROW 25 : ... .. . ... ... : ... .. . ... : ... .. . ... : ... .. . ... : ... .. . ...
ROW 26 : ... .. . ... ... : ... .. . ... : ... .. . ... : ... .. . ... : ... .. . ...
ROW 27 : --- .. . ... ... : --- .. . ... : --- .. . ... : ... .. . ... : ... .. . ...
ROW 28 : G-4 03 . ... ... : D#2 0F . ... : G#5 19 . ... : 6-# 00 . ... : ... .. . ...
ROW 29 : ... .. . ... ... : ... .. . ... : ... .. . ... : ... .. . ... : ... .. . ...
ROW 2A : ... .. . ... ... : ... .. . ... : ... .. . ... : ... .. . ... : ... .. . ...
ROW 2B : --- .. . ... ... : --- .. . ... : ... .. . ... : --- .. . ... : ... .. . ...
ROW 2C : D#1 05 . ... ... : D#1 05 F ... : G-5 19 . ... : 6-# 00 . ... : ... .. . ...
ROW 2D : ... .. . ... ... : ... .. . ... : ... .. . ... : ... .. . ... : ... .. . ...
ROW 2E : ... .. . ... ... : ... .. . ... : ... .. . ... : ... .. . ... : ... .. . ...
ROW 2F : --- .. . ... ... : --- .. . ... : --- .. . ... : --- .. . ... : ... .. . ...

PATTERN 09
ROW 00 : F-1 05 C ... ... : F-1 05 F ... : C-4 01 . ... : 9-# 06 C ... : ... .. . ...
ROW 01 : ... .. . ... ... : ... .. . ... : G#5 19 . ... : ... .. . ... : ... .. . ...
ROW 02 : ... .. . ... ... : ... .. . ... : ... .. . ... : ... .. . ... : ... .. . ...
ROW 03 : --- .. . ... ... : --- .. . ... : ... .. . ... : ... .. . ... : ... .. . ...
ROW 04 : C-2 05 . ... ... : C-2 15 A ... : G-5 19 . ... : 6-# 06 . ... : ... .. . ...
ROW 05 : ... .. . ... ... : ... .. . ... : ... .. . ... : ... .. . ... : ... .. . ...
ROW 06 : ... .. . ... ... : ... .. . ... : ... .. . ... : ... .. . ... : ... .. . ...
ROW 07 : --- .. . ... ... : --- .. . ... : --- .. . ... : ... .. . ... : ... .. . ...
ROW 08 : G#3 05 8 ... ... : C-3 05 8 ... : F-5 19 . ... : D-# 06 . ... : ... .. . ...
ROW 09 : ... .. . ... ... : ... .. . ... : ... .. . ... : ... .. . ... : ... .. . ...
ROW 0A : ... .. . ... ... : ... .. . ... : ... .. . ... : ... .. . ... : ... .. . ...
ROW 0B : --- .. . ... ... : --- .. . ... : --- .. . ... : ... .. . ... : ... .. . ...
ROW 0C : G#3 03 C ... ... : F-2 0F A ... : A#4 12 5 ... : F-# 06 . ... : ... .. . ...
ROW 0D : ... .. . ... ... : ... .. . ... : B-4 12 . ... : ... .. . ... : ... .. . ...
ROW 0E : ... .. . ... ... : ... .. . ... : C-5 12 . ... : ... .. . ... : ... .. . ...
ROW 0F : --- .. . ... ... : ... .. . ... : --- .. . ... : ... .. . ... : ... .. . ...
ROW 10 : F-1 05 . ... ... : F-2 17 . ... : G#4 12 . ... : 6-# 06 . ... : ... .. . ...
ROW 11 : ... .. . ... ... : ... .. . ... : ... .. . ... : ... .. . ... : ... .. . ...
ROW 12 : ... .. . ... ... : ... .. . ... : ... .. . ... : ... .. . ... : ... .. . ...
ROW 13 : ... .. . ... ... : ... .. . ... : ... .. . ... : --- .. . ... : ... .. . ...
ROW 14 : F-3 05 8 ... ... : C-3 0C . ... : F-4 12 . ... : 6-# 06 . ... : ... .. . ...
ROW 15 : ... .. . ... ... : ... .. . ... : ... .. . ... : ... .. . ... : ... .. . ...
ROW 16 : ... .. . ... ... : ... .. . ... : G#4 12 . ... : ... .. . ... : ... .. . ...
ROW 17 : --- .. . ... ... : --- .. . ... : F-4 12 . 320 : --- .. . ... : ... .. . ...
ROW 18 : F-1 05 C ... ... : F-1 05 F ... : C-4 01 . 300 : 9-# 06 . ... : ... .. . ...
ROW 19 : ... .. . ... ... : ... .. . ... : C-4 12 . ... : ... .. . ... : ... .. . ...
ROW 1A : ... .. . ... ... : ... .. . ... : ... .. . ... : ... .. . ... : ... .. . ...
ROW 1B : ... .. . ... ... : --- .. . ... : --- .. . ... : ... .. . ... : ... .. . ...
ROW 1C : F-2 05 8 ... ... : F-2 0F A ... : F-4 12 . ... : 6-# 06 . ... : ... .. . ...
ROW 1D : ... .. . ... ... : ... .. . ... : ... .. . ... : ... .. . ... : ... .. . ...
ROW 1E : ... .. . ... ... : ... .. . ... : ... .. . ... : ... .. . ... : ... .. . ...
ROW 1F : ... .. . ... ... : --- .. . ... : --- 12 . ... : ... .. . ... : ... .. . ...
ROW 20 : C-2 05 . 330 ... : F-2 17 . ... : C-4 12 . ... : D-# 02 . ... : ... .. . ...
ROW 21 : ... .. . ... ... : ... .. . ... : ... .. . ... : ... .. . ... : ... .. . ...
ROW 22 : ... .. . ... ... : ... .. . ... : ... .. . ... : ... .. . ... : ... .. . ...
ROW 23 : ... .. . ... ... : --- .. . ... : ... .. . ... : ... .. . ... : ... .. . ...
ROW 24 : D#1 05 C 300 ... : D#1 05 A ... : C-4 01 . ... : F-# 02 . ... : ... .. . ...
ROW 25 : ... .. . ... ... : ... .. . ... : A#3 12 . ... : ... .. . ... : ... .. . ...
ROW 26 : ... .. . ... ... : ... .. . ... : ... .. . ... : F-# 02 . ... : ... .. . ...
ROW 27 : ... .. . ... ... : --- .. . ... : --- .. . ... : ... .. . ... : ... .. . ...
ROW 28 : C-2 05 8 ... ... : D#2 0B . ... : C-4 12 . ... : 1-# 02 . ... : ... .. . ...
ROW 29 : ... .. . ... ... : ... .. . ... : ... .. . ... : ... .. . ... : ... .. . ...
ROW 2A : ... .. . ... ... : ... .. . ... : ... .. . ... : 1-# 02 . ... : ... .. . ...
ROW 2B : ... .. . ... ... : --- .. . ... : ... .. . ... : --- .. . ... : ... .. . ...
ROW 2C : G#2 05 . 330 ... : D#1 05 A ... : A#3 12 . 313 : 3-# 02 . ... : ... .. . ...
ROW 2D : ... .. . ... ... : ... .. . ... : ... .. . ... : --- .. . ... : ... .. . ...
ROW 2E : ... .. . ... ... : ... .. . ... : ... .. . ... : 3-# 02 . ... : ... .. . ...
ROW 2F : ... .. . ... ... : --- .. . ... : ... .. . ... : --- .. . ... : ... .. . ...

PATTERN 0A
ROW 00 : F-1 12 . 300 ... : F-1 05 F ... : C-4 01 . 300 : 7-# 16 . ... : ... .. . ...
ROW 01 : ... .. . ... ... : ... .. . ... : ... .. . ... : ... .. . ... : ... .. . ...
ROW 02 : ... .. . ... ... : ... .. . ... : ... .. . ... : ... .. . ... : ... .. . ...
ROW 03 : --- .. . ... ... : --- .. . ... : ... .. . ... : ... .. . ... : ... .. . ...
ROW 04 : C-2 05 . ... ... : F-2 15 A ... : --- .. . ... : ... .. . ... : ... .. . ...
ROW 05 : ... .. . ... ... : ... .. . ... : ... .. . ... : ... .. . ... : ... .. . ...
ROW 06 : ... .. . ... ... : ... .. . ... : ... .. . ... : ... .. . ... : ... .. . ...
ROW 07 : --- .. . ... ... : --- .. . ... : ... .. . ... : ... .. . ... : ... .. . ...
ROW 08 : G#2 05 . ... ... : C-3 05 . ... : A#5 19 . ... : B-# 00 4 ... : ... .. . ...
ROW 09 : ... .. . ... ... : ... .. . ... : C-6 19 . ... : ... .. . ... : ... .. . ...
ROW 0A : ... .. . ... ... : ... .. . ... : ... .. . ... : B-# 00 . ... : ... .. . ...
ROW 0B : --- .. . ... ... : --- .. . ... : --- .. . ... : --- .. . ... : ... .. . ...
ROW 0C : C-3 03 . ... ... : F-2 0F . ... : G#4 12 . ... : B-# 16 F ... : ... .. . ...
ROW 0D : ... .. . ... ... : ... .. . ... : ... .. . ... : ... .. . ... : ... .. . ...
ROW 0E : ... .. . ... ... : ... .. . ... : ... .. . ... : ... .. . ... : ... .. . ...
ROW 0F : --- .. . ... ... : --- .. . ... : --- .. . ... : ... .. . ... : ... .. . ...
ROW 10 : F-3 03 . ... ... : F-2 17 . ... : F-5 19 . ... : ... .. . ... : ... .. . ...
ROW 11 : ... .. . ... ... : ... .. . ... : ... .. . ... : ... .. . ... : ... .. . ...
ROW 12 : ... .. . ... ... : ... .. . ... : ... .. . ... : ... .. . ... : ... .. . ...
ROW 13 : --- .. . ... ... : --- .. . ... : --- .. . ... : --- .. . ... : ... .. . ...
ROW 14 : F-1 05 . ... ... : F-1 05 F ... : C-6 19 . ... : 5-# 00 . ... : ... .. . ...
ROW 15 : ... .. . ... ... : ... .. . ... : ... .. . ... : --- .. . ... : ... .. . ...
ROW 16 : ... .. . ... ... : ... .. . ... : C#6 19 . ... : 5-# 00 . ... : ... .. . ...
ROW 17 : --- .. . ... ... : --- .. . ... : C-6 19 . ... : --- .. . ... : ... .. . ...
ROW 18 : D#1 05 . ... ... : D#1 05 . ... : A#5 19 . ... : 9-# 06 . ... : ... .. . ...
ROW 19 : ... .. . ... ... : ... .. . ... : ... .. . ... : ... .. . ... : ... .. . ...
ROW 1A : ... .. . ... ... : ... .. . ... : ... .. . ... : ... .. . ... : ... .. . ...
ROW 1B : ... .. . ... ... : --- .. . ... : --- .. . ... : ... .. . ... : ... .. . ...
ROW 1C : A#1 05 . ... ... : D#2 15 A ... : G-3 12 . ... : 5-# 00 . ... : ... .. . ...
ROW 1D : ... .. . ... ... : ... .. . ... : ... .. . ... : ... .. . ... : ... .. . ...
ROW 1E : ... .. . ... ... : ... .. . ... : ... .. . ... : ... .. . ... : ... .. . ...
ROW 1F : --- .. . ... ... : --- .. . ... : ... .. . ... : ... .. . ... : ... .. . ...
ROW 20 : A#2 05 . ... ... : G-2 05 . ... : A#3 12 . 310 : 5-# 06 . ... : ... .. . ...
ROW 21 : ... .. . ... ... : ... .. . ... : ... .. . ... : ... .. . ... : ... .. . ...
ROW 22 : ... .. . ... ... : ... .. . ... : ... .. . ... : ... .. . ... : ... .. . ...
ROW 23 : --- .. . ... ... : --- .. . ... : --- .. . ... : --- .. . ... : ... .. . ...
ROW 24 : D#3 03 . ... ... : D#2 11 . ... : D#4 12 . 300 : ... .. . ... : ... .. . ...
ROW 25 : ... .. . ... ... : ... .. . ... : ... .. . ... : ... .. . ... : ... .. . ...
ROW 26 : ... .. . ... ... : ... .. . ... : ... .. . ... : ... .. . ... : ... .. . ...
ROW 27 : --- .. . ... ... : --- .. . ... : ... .. . ... : ... .. . ... : ... .. . ...
ROW 28 : G-3 03 . ... ... : D#2 0F . ... : G#5 19 . ... : 5-# 16 4 466 : ... .. . ...
ROW 29 : ... .. . ... ... : ... .. . ... : ... .. . ... : ... .. . ... : ... .. . ...
ROW 2A : ... .. . ... ... : ... .. . ... : ... .. . ... : ... .. 8 ... : ... .. . ...
ROW 2B : --- .. . ... ... : --- .. . ... : ... .. . ... : ... .. . ... : ... .. . ...
ROW 2C : D#1 05 . ... ... : D#1 05 F ... : A#5 19 . ... : ... .. B ... : ... .. . ...
ROW 2D : ... .. . ... ... : ... .. . ... : ... .. . ... : ... .. . ... : ... .. . ...
ROW 2E : ... .. . ... ... : ... .. . ... : ... .. . ... : ... .. F ... : ... .. . ...
ROW 2F : --- .. . ... ... : --- .. . ... : --- .. . ... : ... .. . ... : ... .. . ...

PATTERN 0B
ROW 00 : G#1 05 . ... ... : G#1 05 F ... : C-4 01 . ... : 7-# 16 . 400 : ... .. . ...
ROW 01 : ... .. . ... ... : ... .. . ... : C-6 19 . ... : ... .. . ... : ... .. . ...
ROW 02 : ... .. . ... ... : ... .. . ... : ... .. . ... : ... .. . ... : ... .. . ...
ROW 03 : --- .. . ... ... : --- .. . ... : ... .. . ... : ... .. . ... : ... .. . ...
ROW 04 : G#1 05 . ... ... : D#2 15 A ... : ... .. . ... : ... .. . 7AA : ... .. . ...
ROW 05 : ... .. . ... ... : ... .. . ... : ... .. . ... : ... .. . ... : ... .. . ...
ROW 06 : ... .. . ... ... : ... .. . ... : ... .. . ... : ... .. . ... : ... .. . ...
ROW 07 : --- .. . ... ... : --- .. . ... : --- .. . ... : ... .. . ... : ... .. . ...
ROW 08 : C-3 05 . ... ... : D#3 05 . ... : C-6 19 . ... : B-# 00 4 ... : ... .. . ...
ROW 09 : ... .. . ... ... : ... .. . ... : ... .. . ... : ... .. . ... : ... .. . ...
ROW 0A : ... .. . ... ... : ... .. . ... : ... .. . ... : B-# 00 . ... : ... .. . ...
ROW 0B : --- .. . ... ... : --- .. . ... : ... .. . ... : --- .. . ... : ... .. . ...
ROW 0C : G#2 03 . ... ... : G#2 0B . ... : ... .. . ... : B-# 16 F 700 : ... .. . ...
ROW 0D : ... .. . ... ... : ... .. . ... : ... .. . ... : ... .. . ... : ... .. . ...
ROW 0E : ... .. . ... ... : ... .. . ... : ... .. . ... : ... .. . ... : ... .. . ...
ROW 0F : --- .. . ... ... : ... .. . ... : --- .. . ... : ... .. . ... : ... .. . ...
ROW 10 : G#1 05 . ... ... : G#2 11 . ... : C-6 19 . ... : ... .. . 455 : ... .. . ...
ROW 11 : ... .. . ... ... : ... .. . ... : ... .. . ... : ... .. . ... : ... .. . ...
ROW 12 : ... .. . ... ... : ... .. . ... : ... .. . ... : ... .. . ... : ... .. . ...
ROW 13 : ... .. . ... ... : ... .. . ... : ... .. . ... : --- .. . 200 : ... .. . ...
ROW 14 : G#2 05 . ... ... : A#2 0C . ... : ... .. . 220 : 5-# 00 . ... : ... .. . ...
ROW 15 : ... .. . ... ... : ... .. . ... : ... .. . ... : --- .. . ... : ... .. . ...
ROW 16 : ... .. . ... ... : ... .. . ... : ... .. . ... : 5-# 00 . ... : ... .. . ...
ROW 17 : --- .. . ... ... : --- .. . ... : ... .. . 200 : --- .. . ... : ... .. . ...
ROW 18 : A#2 09 4 400 ... : A#1 05 F ... : C-4 01 . ... : 9-# 06 . ... : ... .. . ...
ROW 19 : ... .. . ... ... : ... .. . ... : A#1 05 . ... : ... .. . ... : ... .. . ...
ROW 1A : ... .. . ... ... : ... .. . ... : ... .. . ... : ... .. . ... : ... .. . ...
ROW 1B : ... .. . ... ... : --- .. . ... : ... .. . ... : ... .. . ... : ... .. . ...
ROW 1C : ... .. . ... ... : A#2 0B A ... : C-4 05 . ... : 5-# 00 . ... : ... .. . ...
ROW 1D : ... .. . ... ... : ... .. . ... : ... .. . ... : ... .. . ... : ... .. . ...
ROW 1E : ... .. 7 ... ... : ... .. . ... : ... .. . ... : ... .. . ... : ... .. . ...
ROW 1F : ... .. . ... ... : --- .. . ... : ... .. . ... : ... .. . ... : ... .. . ...
ROW 20 : ... .. . ... ... : A#2 11 . ... : A#3 05 . 320 : 5-# 06 . 400 : ... .. . ...
ROW 21 : ... .. . ... ... : ... .. . ... : ... .. . ... : ... .. . ... : ... .. . ...
ROW 22 : ... .. . ... ... : ... .. . ... : ... .. . ... : ... .. . ... : ... .. . ...
ROW 23 : ... .. . ... ... : --- .. . ... : ... .. . ... : --- .. . ... : ... .. . ...
ROW 24 : C-3 09 8 300 ... : C-2 05 A ... : C-4 01 . 300 : 4-# 06 . ... : ... .. . ...
ROW 25 : ... .. . ... ... : ... .. . ... : C-2 05 . ... : ... .. . ... : ... .. . ...
ROW 26 : ... .. . ... ... : ... .. . ... : ... .. . ... : ... .. . ... : ... .. . ...
ROW 27 : ... .. . ... ... : --- .. . ... : ... .. . ... : --- .. . ... : ... .. . ...
ROW 28 : C-3 15 8 ... ... : C-3 0B . ... : G-3 05 . 203 : 2-# 06 . ... : ... .. . ...
ROW 29 : ... .. . ... ... : ... .. . ... : ... .. . ... : ... .. . ... : ... .. . ...
ROW 2A : E-3 15 A ... ... : ... .. . ... : ... .. . ... : --- .. . ... : ... .. . ...
ROW 2B : ... .. . ... ... : --- .. . ... : ... .. . ... : ... .. . ... : ... .. . ...
ROW 2C : G-3 15 C ... ... : C-2 05 A ... : ... .. . ... : 1-# 06 . ... : ... .. . ...
ROW 2D : ... .. . ... ... : ... .. . ... : ... .. . ... : ... .. . ... : ... .. . ...
ROW 2E : A#3 15 F ... ... : ... .. . ... : ... .. . ... : --- .. . ... : ... .. . ...
ROW 2F : ... .. . ... ... : --- .. . ... : ... .. . ... : ... .. . ... : ... .. . ...

PATTERN 0C
ROW 00 : D#4 12 A ... ... : C#3 0A 8 ... : C-4 01 . 300 : A-# 16 C ... : ... .. . ...
ROW 01 : E-4 12 . ... ... : ... .. . ... : C#3 19 . ... : ... .. . ... : ... .. . ...
ROW 02 : F-4 12 . ... ... : ... .. . ... : ... .. . ... : ... .. . ... : ... .. . ...
ROW 03 : ... .. . ... ... : ... .. . ... : --- .. . ... : ... .. . ... : ... .. . ...
ROW 04 : ... .. . ... ... : ... .. . ... : C#2 19 . ... : ... .. . ... : ... .. . ...
ROW 05 : ... .. . ... ... : ... .. . ... : ... .. . ... : ... .. . ... : ... .. . ...
ROW 06 : ... .. . ... ... : ... .. . ... : ... .. . ... : ... .. . ... : ... .. . ...
ROW 07 : ... .. . ... ... : ... .. . ... : --- .. . ... : ... .. . ... : ... .. . ...
ROW 08 : ... .. . 488 ... : ... .. . ... : C-4 01 . ... : ... .. . ... : ... .. . ...
ROW 09 : ... .. . ... ... : ... .. . ... : C#2 19 . ... : ... .. . ... : ... .. . ...
ROW 0A : ... .. . ... ... : ... .. . ... : ... .. . ... : ... .. . ... : ... .. . ...
ROW 0B : ... .. . ... ... : --- .. . ... : --- .. . ... : ... .. . ... : ... .. . ...
ROW 0C : ... .. . ... ... : C#3 0B . ... : C#3 19 . ... : F-# 00 . ... : ... .. . ...
ROW 0D : ... .. . ... ... : ... .. . ... : ... .. . ... : ... .. . ... : ... .. . ...
ROW 0E : ... .. . ... ... : ... .. . ... : ... .. . ... : ... .. . ... : ... .. . ...
ROW 0F : --- .. . ... ... : --- .. . ... : --- .. . ... : ... .. . ... : ... .. . ...
ROW 10 : F-4 12 . 400 ... : C#3 11 . ... : C-4 01 . ... : 6-# 00 . ... : ... .. . ...
ROW 11 : ... .. . ... ... : ... .. . ... : C#2 19 . ... : ... .. . ... : ... .. . ...
ROW 12 : ... .. . ... ... : ... .. . ... : ... .. . ... : ... .. . ... : ... .. . ...
ROW 13 : ... .. . ... ... : --- .. . ... : --- .. . ... : --- .. . ... : ... .. . ...
ROW 14 : ... .. . 210 ... : C#1 05 F ... : C#2 19 . ... : 6-# 00 . ... : ... .. . ...
ROW 15 : ... .. . ... ... : ... .. . ... : ... .. . ... : ... .. . ... : ... .. . ...
ROW 16 : ... .. . ... ... : ... .. . ... : ... .. . ... : 6-# 00 1 ... : ... .. . ...
ROW 17 : --- .. . ... ... : --- .. . ... : --- .. . ... : --- .. . ... : ... .. . ...
ROW 18 : G-4 12 . 200 ... : C#3 07 F ... : C-4 01 . ... : 6-# 06 C ... : ... .. . ...
ROW 19 : ... .. . ... ... : ... .. . ... : C#3 19 . ... : ... .. . ... : ... .. . ...
ROW 1A : ... .. . ... ... : ... .. . ... : ... .. . ... : ... .. . ... : ... .. . ...
ROW 1B : ... .. . ... ... : ... .. . ... : --- .. . ... : ... .. . ... : ... .. . ...
ROW 1C : ... .. . ... ... : ... .. . ... : C#2 19 . ... : ... .. . ... : ... .. . ...
ROW 1D : ... .. . ... ... : ... .. . ... : ... .. . ... : ... .. . ... : ... .. . ...
ROW 1E : ... .. . ... ... : ... .. . ... : ... .. . ... : ... .. . ... : ... .. . ...
ROW 1F : ... .. . ... ... : --- .. . ... : --- .. . ... : ... .. . ... : ... .. . ...
ROW 20 : G#4 12 . ... ... : G#2 05 . ... : C-4 01 . ... : D-# 06 C ... : ... .. . ...
ROW 21 : ... .. . ... ... : ... .. . ... : C#2 19 . ... : ... .. . ... : ... .. . ...
ROW 22 : ... .. . ... ... : ... .. . ... : ... .. . ... : ... .. . ... : ... .. . ...
ROW 23 : ... .. . ... ... : --- .. . ... : --- .. . ... : ... .. . ... : ... .. . ...
ROW 24 : ... .. . ... ... : C#3 0B . ... : C#3 19 . ... : 6-# 00 C ... : ... .. . ...
ROW 25 : ... .. . ... ... : ... .. . ... : ... .. . ... : ... .. . ... : ... .. . ...
ROW 26 : ... .. . ... ... : ... .. . ... : ... .. . ... : 6-# 00 1 ... : ... .. . ...
ROW 27 : --- .. . ... ... : --- .. . ... : --- .. . ... : --- .. . ... : ... .. . ...
ROW 28 : C-5 12 . ... ... : C#3 11 . ... : C-4 01 . ... : 6-# 00 C ... : ... .. . ...
ROW 29 : ... .. . ... ... : ... .. . ... : C#2 19 . ... : ... .. . ... : ... .. . ...
ROW 2A : ... .. . ... ... : ... .. . ... : ... .. . ... : 6-# 00 1 ... : ... .. . ...
ROW 2B : ... .. . ... ... : --- .. . ... : --- .. . ... : --- .. . ... : ... .. . ...
ROW 2C : C#5 12 . ... ... : C#1 05 F ... : C#2 19 . ... : 6-# 00 C ... : ... .. . ...
ROW 2D : C-5 12 . ... ... : ... .. . ... : ... .. . ... : ... .. . ... : ... .. . ...
ROW 2E : ... .. . ... ... : ... .. . ... : ... .. . ... : 6-# 00 1 ... : ... .. . ...
ROW 2F : ... .. . ... ... : --- .. . ... : --- .. . ... : --- .. . ... : ... .. . ...

PATTERN 0D
ROW 00 : A#4 12 A ... ... : D#3 0A 8 ... : C-4 01 . 300 : 7-# 16 . 400 : ... .. . ...
ROW 01 : ... .. . ... ... : ... .. . ... : D#3 19 . ... : ... .. . ... : ... .. . ...
ROW 02 : ... .. . ... ... : ... .. . ... : ... .. . ... : ... .. . ... : ... .. . ...
ROW 03 : ... .. . ... ... : ... .. . ... : --- .. . ... : ... .. . ... : ... .. . ...
ROW 04 : ... .. . ... ... : ... .. . ... : D#2 19 . ... : ... .. . 7AA : ... .. . ...
ROW 05 : ... .. . ... ... : ... .. . ... : ... .. . ... : ... .. . ... : ... .. . ...
ROW 06 : ... .. . 488 ... : ... .. . ... : ... .. . ... : ... .. . ... : ... .. . ...
ROW 07 : ... .. . ... ... : ... .. . ... : --- .. . ... : ... .. . ... : ... .. . ...
ROW 08 : ... .. . ... ... : ... .. . ... : C-4 01 . ... : B-# 00 4 ... : ... .. . ...
ROW 09 : ... .. . ... ... : ... .. . ... : D#2 19 . ... : ... .. . ... : ... .. . ...
ROW 0A : ... .. . ... ... : ... .. . ... : ... .. . ... : B-# 00 . ... : ... .. . ...
ROW 0B : --- .. . ... ... : --- .. . ... : --- .. . ... : --- .. . ... : ... .. . ...
ROW 0C : G-4 12 . 400 ... : D#3 0B . ... : D#3 19 . ... : B-# 16 F 700 : ... .. . ...
ROW 0D : ... .. . ... ... : ... .. . ... : ... .. . ... : ... .. . ... : ... .. . ...
ROW 0E : ... .. . ... ... : ... .. . ... : ... .. . ... : ... .. . ... : ... .. . ...
ROW 0F : ... .. . ... ... : --- .. . ... : --- .. . ... : ... .. . ... : ... .. . ...
ROW 10 : ... .. . ... ... : D#3 11 . ... : C-4 01 . ... : ... .. . 455 : ... .. . ...
ROW 11 : ... .. . ... ... : ... .. . ... : D#2 19 . ... : ... .. . ... : ... .. . ...
ROW 12 : ... .. . ... ... : ... .. . ... : ... .. . ... : ... .. . ... : ... .. . ...
ROW 13 : ... .. . ... ... : --- .. . ... : --- .. . ... : --- .. . 200 : ... .. . ...
ROW 14 : --- .. . ... ... : D#1 05 F ... : D#2 19 . ... : 5-# 00 . ... : ... .. . ...
ROW 15 : ... .. . ... ... : ... .. . ... : ... .. . ... : --- .. . ... : ... .. . ...
ROW 16 : ... .. . ... ... : ... .. . ... : ... .. . ... : 5-# 00 . ... : ... .. . ...
ROW 17 : --- .. . ... ... : --- .. . ... : --- .. . ... : --- .. . ... : ... .. . ...
ROW 18 : C-4 12 . Q23 ... : D#3 07 F ... : C-4 01 . ... : 9-# 06 . ... : ... .. . ...
ROW 19 : ... .. . ... ... : ... .. . ... : D#3 19 . ... : ... .. . ... : ... .. . ...
ROW 1A : ... .. . ... ... : ... .. . ... : ... .. . ... : ... .. . ... : ... .. . ...
ROW 1B : ... .. . ... ... : ... .. . ... : --- .. . ... : ... .. . ... : ... .. . ...
ROW 1C : ... .. . ... ... : ... .. . ... : D#2 19 . ... : 5-# 00 . ... : ... .. . ...
ROW 1D : ... .. . ... ... : ... .. . ... : ... .. . ... : ... .. . ... : ... .. . ...
ROW 1E : ... .. . 488 ... : ... .. . ... : ... .. . ... : ... .. . ... : ... .. . ...
ROW 1F : ... .. . ... ... : --- .. . ... : --- .. . ... : ... .. . ... : ... .. . ...
ROW 20 : ... .. . ... ... : A#2 05 . ... : C-4 01 . ... : 9-# 06 . ... : ... .. . ...
ROW 21 : ... .. . ... ... : ... .. . ... : D#2 19 . ... : ... .. . ... : ... .. . ...
ROW 22 : ... .. . ... ... : ... .. . ... : ... .. . ... : ... .. . ... : ... .. . ...
ROW 23 : --- .. . ... ... : --- .. . ... : --- .. . ... : ... .. . ... : ... .. . ...
ROW 24 : C#4 12 . 400 ... : D#3 0B . ... : D#3 19 . ... : 9-# 06 . 400 : ... .. . ...
ROW 25 : ... .. . ... ... : ... .. . ... : ... .. . ... : ... .. . ... : ... .. . ...
ROW 26 : ... .. . ... ... : ... .. . ... : ... .. . ... : ... .. . ... : ... .. . ...
ROW 27 : ... .. . ... ... : --- .. . ... : --- .. . ... : --- .. . ... : ... .. . ...
ROW 28 : ... .. . ... ... : D#3 11 . ... : C-4 01 . ... : 4-# 06 . ... : ... .. . ...
ROW 29 : ... .. . ... ... : ... .. . ... : D#2 19 . ... : ... .. . ... : ... .. . ...
ROW 2A : ... .. . 210 ... : ... .. . ... : ... .. . ... : ... .. . ... : ... .. . ...
ROW 2B : ... .. . ... ... : --- .. . ... : --- .. . ... : ... .. . ... : ... .. . ...
ROW 2C : ... .. . ... ... : D#1 05 F ... : D#2 19 . ... : 6-# 06 . ... : ... .. . ...
ROW 2D : ... .. . ... ... : ... .. . ... : ... .. . ... : ... .. . ... : ... .. . ...
ROW 2E : ... .. . ... ... : ... .. . ... : ... .. . ... : ... .. . ... : ... .. . ...
ROW 2F : ... .. . ... ... : --- .. . ... : --- .. . ... : --- .. . B01 : ... .. . ...

PATTERN 0E
ROW 00 : F-4 0D 8 200 ... : F-3 0F . ... : C-4 01 . ... : 9-# 06 C ... : ... .. . ...
ROW 01 : ... .. . ... ... : ... .. . ... : F-1 05 . ... : ... .. . ... : ... .. . ...
ROW 02 : F-4 0C 3 ... ... : ... .. . ... : ... .. . ... : ... .. . ... : ... .. . ...
ROW 03 : ... .. . ... ... : ... .. . ... : ... .. . ... : ... .. . ... : ... .. . ...
ROW 04 : F-4 0D 8 ... ... : ... .. . ... : F-5 03 . ... : 6-# 00 2 ... : ... .. . ...
ROW 05 : ... .. . ... ... : ... .. . ... : ... .. . ... : ... .. . ... : ... .. . ...
ROW 06 : F-4 0C 3 ... ... : ... .. . ... : ... .. . ... : 6-# 00 4 ... : ... .. . ...
ROW 07 : ... .. . ... ... : ... .. . ... : ... .. . ... : --- .. . ... : ... .. . ...
ROW 08 : C-5 0D 8 ... ... : F-2 05 A ... : F-2 05 . ... : D-# 06 C ... : ... .. . ...
ROW 09 : ... .. . ... ... : ... .. . ... : ... .. . ... : ... .. . ... : ... .. . ...
ROW 0A : C-5 0C 3 ... ... : ... .. . ... : ... .. . ... : ... .. . ... : ... .. . ...
ROW 0B : ... .. . ... ... : ... .. . ... : ... .. . ... : ... .. . ... : ... .. . ...
ROW 0C : C-5 0D 8 ... ... : --- .. . ... : C-5 03 . ... : F-# 00 . ... : ... .. . ...
ROW 0D : ... .. . ... ... : ... .. . ... : ... .. . ... : ... .. . ... : ... .. . ...
ROW 0E : C-5 0C 3 ... ... : ... .. . ... : ... .. . ... : ... .. . ... : ... .. . ...
ROW 0F : ... .. . ... ... : ... .. . ... : ... .. . ... : ... .. . ... : ... .. . ...
ROW 10 : A#4 0D 8 ... ... : F-2 05 . ... : F-2 05 . ... : 6-# 00 . ... : ... .. . ...
ROW 11 : ... .. . ... ... : ... .. . ... : ... .. . ... : ... .. . ... : ... .. . ...
ROW 12 : A#4 0C 3 ... ... : ... .. . ... : ... .. . ... : ... .. . ... : ... .. . ...
ROW 13 : ... .. . ... ... : ... .. . ... : ... .. . ... : --- .. . ... : ... .. . ...
ROW 14 : A#4 0D 8 ... ... : --- .. . ... : F-5 03 . ... : 6-# 00 . ... : ... .. . ...
ROW 15 : ... .. . ... ... : ... .. . ... : ... .. . ... : ... .. . ... : ... .. . ...
ROW 16 : A#4 0C 3 ... ... : ... .. . ... : ... .. . ... : 6-# 00 1 ... : ... .. . ...
ROW 17 : ... .. . ... ... : ... .. . ... : ... .. . ... : --- .. . ... : ... .. . ...
ROW 18 : C-5 0D 8 ... ... : C-2 05 . ... : C-4 01 . ... : 6-# 06 C ... : ... .. . ...
ROW 19 : ... .. . ... ... : ... .. . ... : C-2 05 . ... : ... .. . ... : ... .. . ...
ROW 1A : C-5 0C 3 ... ... : ... .. . ... : ... .. . ... : ... .. . ... : ... .. . ...
ROW 1B : ... .. . ... ... : ... .. . ... : ... .. . ... : ... .. . ... : ... .. . ...
ROW 1C : C-5 0D 8 ... ... : D#2 05 . ... : D#2 05 . ... : ... .. . ... : ... .. . ...
ROW 1D : ... .. . ... ... : ... .. . ... : ... .. . ... : ... .. . ... : ... .. . ...
ROW 1E : C-5 0C 3 ... ... : ... .. . ... : ... .. . ... : ... .. . ... : ... .. . ...
ROW 1F : ... .. . ... ... : ... .. . ... : ... .. . ... : ... .. . ... : ... .. . ...
ROW 20 : F-4 0D 8 ... ... : F-2 05 . ... : C-4 01 . ... : D-# 06 C ... : ... .. . ...
ROW 21 : ... .. . ... ... : ... .. . ... : F-2 05 . ... : ... .. . ... : ... .. . ...
ROW 22 : F-4 0C 3 ... ... : ... .. . ... : ... .. . ... : ... .. . ... : ... .. . ...
ROW 23 : ... .. . ... ... : ... .. . ... : ... .. . ... : ... .. . ... : ... .. . ...
ROW 24 : F-4 0D 8 ... ... : --- .. . ... : F-5 03 . ... : 6-# 00 C ... : ... .. . ...
ROW 25 : ... .. . ... ... : ... .. . ... : ... .. . ... : ... .. . ... : ... .. . ...
ROW 26 : F-4 0C 3 ... ... : ... .. . ... : ... .. . ... : 6-# 00 1 ... : ... .. . ...
ROW 27 : ... .. . ... ... : ... .. . ... : ... .. . ... : --- .. . ... : ... .. . ...
ROW 28 : C-4 0D 8 ... ... : D#2 0B F ... : C-2 05 . ... : 6-# 00 C ... : ... .. . ...
ROW 29 : ... .. . ... ... : ... .. . ... : ... .. . ... : ... .. . ... : ... .. . ...
ROW 2A : C-4 0C 3 ... ... : ... .. . ... : ... .. . ... : 6-# 00 1 ... : ... .. . ...
ROW 2B : ... .. . ... ... : --- .. . ... : ... .. . ... : --- .. . ... : ... .. . ...
ROW 2C : C-4 0D 8 ... ... : F-2 0F . ... : C-5 03 . ... : 6-# 00 C ... : ... .. . ...
ROW 2D : ... .. . ... ... : ... .. . ... : ... .. . ... : ... .. . ... : ... .. . ...
ROW 2E : C-4 0C 3 ... ... : ... .. . ... : ... .. . ... : 6-# 00 1 ... : ... .. . ...
ROW 2F : ... .. . ... ... : --- .. . ... : --- .. . ... : --- .. . ... : ... .. . ...

PATTERN 0F
ROW 00 : F-4 0D 8 200 ... : F-2 0F . ... : C-4 01 . ... : ... .. . ... : ... .. . ...
ROW 01 : ... .. . ... ... : ... .. . ... : F-1 05 . ... : ... .. . ... : ... .. . ...
ROW 02 : F-4 0C 3 ... ... : ... .. . ... : ... .. . ... : ... .. . ... : ... .. . ...
ROW 03 : ... .. . ... ... : ... .. . ... : ... .. . ... : ... .. . ... : ... .. . ...
ROW 04 : F-4 0D 8 ... ... : ... .. . ... : F-5 03 . ... : ... .. . ... : ... .. . ...
ROW 05 : ... .. . ... ... : ... .. . ... : ... .. . ... : ... .. . ... : ... .. . ...
ROW 06 : F-4 0C 3 ... ... : ... .. . ... : ... .. . ... : ... .. . ... : ... .. . ...
ROW 07 : ... .. . ... ... : ... .. . ... : ... .. . ... : ... .. . ... : ... .. . ...
ROW 08 : C-5 0D 8 ... ... : F-2 05 A ... : F-2 05 . ... : ... .. . ... : ... .. . ...
ROW 09 : ... .. . ... ... : ... .. . ... : ... .. . ... : ... .. . ... : ... .. . ...
ROW 0A : C-5 0C 3 ... ... : ... .. . ... : ... .. . ... : ... .. . ... : ... .. . ...
ROW 0B : ... .. . ... ... : ... .. . ... : ... .. . ... : ... .. . ... : ... .. . ...
ROW 0C : C-5 0D 8 ... ... : --- .. . ... : C-5 03 . ... : ... .. . ... : ... .. . ...
ROW 0D : ... .. . ... ... : ... .. . ... : ... .. . ... : ... .. . ... : ... .. . ...
ROW 0E : C-5 0C 3 ... ... : ... .. . ... : ... .. . ... : ... .. . ... : ... .. . ...
ROW 0F : ... .. . ... ... : ... .. . ... : ... .. . ... : ... .. . ... : ... .. . ...
ROW 10 : A#4 0D 8 ... ... : F-2 05 . ... : F-2 05 . ... : ... .. . ... : ... .. . ...
ROW 11 : ... .. . ... ... : ... .. . ... : ... .. . ... : ... .. . ... : ... .. . ...
ROW 12 : A#4 0C 3 ... ... : ... .. . ... : ... .. . ... : ... .. . ... : ... .. . ...
ROW 13 : ... .. . ... ... : ... .. . ... : ... .. . ... : ... .. . ... : ... .. . ...
ROW 14 : A#4 0D 8 ... ... : --- .. . ... : F-5 03 . ... : ... .. . ... : ... .. . ...
ROW 15 : ... .. . ... ... : ... .. . ... : ... .. . ... : ... .. . ... : ... .. . ...
ROW 16 : A#4 0C 3 ... ... : ... .. . ... : ... .. . ... : ... .. . ... : ... .. . ...
ROW 17 : ... .. . ... ... : ... .. . ... : ... .. . ... : ... .. . ... : ... .. . ...
ROW 18 : F-4 0D 8 ... ... : G#2 05 . ... : C-4 01 . ... : ... .. . ... : ... .. . ...
ROW 19 : ... .. . ... ... : ... .. . ... : G#2 05 . ... : ... .. . ... : ... .. . ...
ROW 1A : F-4 0C 3 ... ... : ... .. . ... : ... .. . ... : ... .. . ... : ... .. . ...
ROW 1B : ... .. . ... ... : ... .. . ... : ... .. . ... : ... .. . ... : ... .. . ...
ROW 1C : F-4 0D 8 ... ... : G-2 05 . ... : G-2 05 . ... : ... .. . ... : ... .. . ...
ROW 1D : ... .. . ... ... : ... .. . ... : ... .. . ... : ... .. . ... : ... .. . ...
ROW 1E : F-4 0C 3 ... ... : ... .. . ... : ... .. . ... : ... .. . ... : ... .. . ...
ROW 1F : ... .. . ... ... : ... .. . ... : ... .. . ... : ... .. . ... : ... .. . ...
ROW 20 : D#4 0D 8 ... ... : F-2 05 . ... : C-4 01 . ... : ... .. . ... : ... .. . ...
ROW 21 : ... .. . ... ... : ... .. . ... : F-2 05 . ... : ... .. . ... : ... .. . ...
ROW 22 : D#4 0C 3 ... ... : ... .. . ... : ... .. . ... : ... .. . ... : ... .. . ...
ROW 23 : ... .. . ... ... : ... .. . ... : ... .. . ... : ... .. . ... : ... .. . ...
ROW 24 : D#4 0D 8 ... ... : --- .. . ... : G#5 03 . ... : ... .. . ... : ... .. . ...
ROW 25 : ... .. . ... ... : ... .. . ... : ... .. . ... : ... .. . ... : ... .. . ...
ROW 26 : D#4 0C 3 ... ... : ... .. . ... : ... .. . ... : ... .. . ... : ... .. . ...
ROW 27 : ... .. . ... ... : ... .. . ... : ... .. . ... : ... .. . ... : ... .. . ...
ROW 28 : C-4 0D 8 ... ... : C-1 05 F ... : G-1 05 . 123 : ... .. . ... : ... .. . ...
ROW 29 : ... .. . ... ... : ... .. . ... : ... .. . ... : ... .. . ... : ... .. . ...
ROW 2A : C-4 0C 3 ... ... : C-2 10 A ... : ... .. . ... : ... .. . ... : ... .. . ...
ROW 2B : ... .. . ... ... : ... .. . ... : ... .. . ... : ... .. . ... : ... .. . ...
ROW 2C : C-4 0D 8 ... ... : D#2 10 . ... : ... .. . ... : ... .. . ... : ... .. . ...
ROW 2D : ... .. . ... ... : F-2 10 . ... : ... .. . ... : ... .. . ... : ... .. . ...
ROW 2E : C-4 0C 3 ... ... : G#2 10 . ... : ... .. . ... : ... .. . ... : ... .. . ...
ROW 2F : ... .. . ... ... : A#2 10 . ... : ... .. . ... : ... .. . ... : ... .. . ...

PATTERN 10
ROW 00 : C#4 10 A ... ... : C#3 0A 8 ... : C-4 01 . 300 : 9-# 16 C F02 : ... .. . ...
ROW 01 : ... .. . ... ... : ... .. . ... : C#3 19 . ... : ... .. . ... : ... .. . ...
ROW 02 : ... .. . 220 ... : ... .. . ... : ... .. . ... : ... .. . ... : ... .. . ...
ROW 03 : ... .. . ... ... : ... .. . ... : --- .. . ... : ... .. . ... : ... .. . ...
ROW 04 : --- .. . 200 ... : ... .. . ... : C#2 19 . ... : ... .. . ... : ... .. . ...
ROW 05 : ... .. . ... ... : ... .. . ... : ... .. . ... : ... .. . ... : ... .. . ...
ROW 06 : ... .. . ... ... : ... .. . ... : ... .. . ... : ... .. . ... : ... .. . ...
ROW 07 : ... .. . ... ... : ... .. . ... : --- .. . ... : ... .. . ... : ... .. . ...
ROW 08 : C#4 10 6 ... ... : ... .. . ... : C-4 01 . ... : ... .. . ... : ... .. . ...
ROW 09 : ... .. . ... ... : ... .. . ... : C#2 19 . ... : ... .. . ... : ... .. . ...
ROW 0A : ... .. . 220 ... : ... .. . ... : ... .. . ... : ... .. . ... : ... .. . ...
ROW 0B : ... .. . ... ... : --- .. . ... : --- .. . ... : ... .. . ... : ... .. . ...
ROW 0C : D-4 12 A 200 ... : C#3 0B . ... : C#3 19 . ... : F-# 00 . ... : ... .. . ...
ROW 0D : D#4 12 . ... ... : ... .. . ... : ... .. . ... : ... .. . ... : ... .. . ...
ROW 0E : ... .. . ... ... : ... .. . ... : ... .. . ... : ... .. . ... : ... .. . ...
ROW 0F : ... .. . ... ... : --- .. . ... : --- .. . ... : ... .. . ... : ... .. . ...
ROW 10 : A#3 12 . ... ... : C#3 11 . ... : C-4 01 . ... : 6-# 00 . ... : ... .. . ...
ROW 11 : ... .. . ... ... : ... .. . ... : C#2 19 . ... : ... .. . ... : ... .. . ...
ROW 12 : ... .. . ... ... : ... .. . ... : ... .. . ... : ... .. . ... : ... .. . ...
ROW 13 : ... .. . ... ... : --- .. . ... : --- .. . ... : --- .. . ... : ... .. . ...
ROW 14 : C-4 12 . ... ... : C#1 05 A ... : C#2 19 . ... : 6-# 00 . ... : ... .. . ...
ROW 15 : ... .. . ... ... : ... .. . ... : ... .. . ... : ... .. . ... : ... .. . ...
ROW 16 : ... .. . ... ... : ... .. . ... : ... .. . ... : 6-# 00 1 ... : ... .. . ...
ROW 17 : --- .. . ... ... : --- .. . ... : --- .. . ... : --- .. . ... : ... .. . ...
ROW 18 : G-4 12 . ... ... : C#3 07 . ... : C-4 01 . ... : 6-# 06 C ... : ... .. . ...
ROW 19 : ... .. . ... ... : ... .. . ... : C#3 19 . ... : ... .. . ... : ... .. . ...
ROW 1A : ... .. . ... ... : ... .. . ... : ... .. . ... : ... .. . ... : ... .. . ...
ROW 1B : ... .. . ... ... : ... .. . ... : --- .. . ... : ... .. . ... : ... .. . ...
ROW 1C : D#4 12 . ... ... : ... .. . ... : C#2 19 . ... : ... .. . ... : ... .. . ...
ROW 1D : ... .. . ... ... : ... .. . ... : ... .. . ... : ... .. . ... : ... .. . ...
ROW 1E : ... .. . ... ... : ... .. . ... : ... .. . ... : ... .. . ... : ... .. . ...
ROW 1F : ... .. . ... ... : --- .. . ... : --- .. . ... : ... .. . ... : ... .. . ...
ROW 20 : F-4 12 . ... ... : G#2 05 A ... : C-4 01 . ... : D-# 06 C ... : ... .. . ...
ROW 21 : ... .. . ... ... : ... .. . ... : C#2 19 . ... : ... .. . ... : ... .. . ...
ROW 22 : ... .. . ... ... : ... .. . ... : ... .. . ... : ... .. . ... : ... .. . ...
ROW 23 : --- .. . ... ... : --- .. . ... : --- .. . ... : ... .. . ... : ... .. . ...
ROW 24 : A#4 12 . ... ... : C#3 0B . ... : C#3 19 . ... : 6-# 00 C ... : ... .. . ...
ROW 25 : ... .. . ... ... : ... .. . ... : ... .. . ... : ... .. . ... : ... .. . ...
ROW 26 : ... .. . ... ... : ... .. . ... : ... .. . ... : 6-# 00 1 ... : ... .. . ...
ROW 27 : ... .. . ... ... : --- .. . ... : --- .. . ... : --- .. . ... : ... .. . ...
ROW 28 : C-5 12 . 320 ... : C#3 11 . ... : C-4 01 . ... : 6-# 00 C ... : ... .. . ...
ROW 29 : ... .. . ... ... : ... .. . ... : C#2 19 . ... : ... .. . ... : ... .. . ...
ROW 2A : ... .. . ... ... : ... .. . ... : ... .. . ... : 6-# 00 1 ... : ... .. . ...
ROW 2B : ... .. . ... ... : --- .. . ... : --- .. . ... : --- .. . ... : ... .. . ...
ROW 2C : D#5 12 . 300 ... : C#1 05 F ... : C#2 19 . ... : 6-# 00 C ... : ... .. . ...
ROW 2D : ... .. . ... ... : ... .. . ... : ... .. . ... : ... .. . ... : ... .. . ...
ROW 2E : ... .. . ... ... : ... .. . ... : ... .. . ... : 6-# 00 1 ... : ... .. . ...
ROW 2F : ... .. . ... ... : --- .. . ... : --- .. . ... : --- .. . ... : ... .. . ...

PATTERN 11
ROW 00 : C-5 12 . ... ... : C-3 1A 8 ... : C-4 01 . 300 : ... .. . ... : ... .. . ...
ROW 01 : ... .. . ... ... : ... .. . ... : C-3 19 . ... : ... .. . ... : ... .. . ...
ROW 02 : D#5 12 . 305 ... : ... .. . ... : ... .. . ... : ... .. . ... : ... .. . ...
ROW 03 : ... .. . ... ... : ... .. . ... : --- .. . ... : ... .. . ... : ... .. . ...
ROW 04 : C-5 12 . 300 ... : ... .. . ... : C-2 19 . ... : ... .. . ... : ... .. . ...
ROW 05 : ... .. . ... ... : ... .. . ... : ... .. . ... : ... .. . ... : ... .. . ...
ROW 06 : ... .. . ... ... : ... .. . ... : ... .. . ... : ... .. . ... : ... .. . ...
ROW 07 : ... .. . ... ... : ... .. . ... : --- .. . ... : ... .. . ... : ... .. . ...
ROW 08 : ... .. . ... ... : ... .. . ... : C-4 01 . ... : ... .. . ... : ... .. . ...
ROW 09 : ... .. . ... ... : ... .. . ... : C-2 19 . ... : ... .. . ... : ... .. . ...
ROW 0A : ... .. . ... ... : ... .. . ... : ... .. . ... : ... .. . ... : ... .. . ...
ROW 0B : ... .. . ... ... : --- .. . ... : --- .. . ... : ... .. . ... : ... .. . ...
ROW 0C : ... .. . ... ... : C-3 0F . ... : C-3 19 . ... : ... .. . ... : ... .. . ...
ROW 0D : ... .. . ... ... : ... .. . ... : ... .. . ... : ... .. . ... : ... .. . ...
ROW 0E : ... .. . ... ... : ... .. . ... : ... .. . ... : ... .. . ... : ... .. . ...
ROW 0F : ... .. . ... ... : --- .. . ... : --- .. . ... : ... .. . ... : ... .. . ...
ROW 10 : ... .. . 466 A02 : C-3 17 . ... : C-4 01 . ... : ... .. . ... : ... .. . ...
ROW 11 : ... .. . ... ... : ... .. . ... : C-2 19 . ... : ... .. . ... : ... .. . ...
ROW 12 : ... .. . ... ... : ... .. . ... : ... .. . ... : ... .. . ... : ... .. . ...
ROW 13 : ... .. . ... ... : --- .. . ... : --- .. . ... : ... .. . ... : ... .. . ...
ROW 14 : ... .. . ... ... : C-1 05 F ... : C-2 19 . ... : ... .. . ... : ... .. . ...
ROW 15 : ... .. . ... ... : ... .. . ... : ... .. . ... : ... .. . ... : ... .. . ...
ROW 16 : ... .. . ... ... : ... .. . ... : ... .. . ... : ... .. . ... : ... .. . ...
ROW 17 : ... .. . ... ... : --- .. . ... : --- .. . ... : ... .. . ... : ... .. . ...
ROW 18 : C-2 10 F 400 A00 : D#3 08 F ... : C-4 01 . ... : ... .. . ... : ... .. . ...
ROW 19 : ... .. . ... ... : ... .. . ... : C-3 19 . ... : ... .. . ... : ... .. . ...
ROW 1A : D#2 10 . ... ... : ... .. . ... : ... .. . ... : ... .. . ... : ... .. . ...
ROW 1B : ... .. . ... ... : ... .. . ... : --- .. . ... : ... .. . ... : ... .. . ...
ROW 1C : F-2 10 . ... ... : ... .. . ... : C-2 19 . ... : ... .. . ... : ... .. . ...
ROW 1D : ... .. . ... ... : ... .. . ... : ... .. . ... : ... .. . ... : ... .. . ...
ROW 1E : A#2 10 . ... ... : ... .. . ... : ... .. . ... : ... .. . ... : ... .. . ...
ROW 1F : ... .. . ... ... : --- .. . ... : --- .. . ... : ... .. . ... : ... .. . ...
ROW 20 : D#2 10 . ... ... : C-2 05 . ... : C-4 01 . ... : ... .. . ... : ... .. . ...
ROW 21 : ... .. . ... ... : ... .. . ... : C-2 19 . ... : ... .. . ... : ... .. . ...
ROW 22 : F-2 10 . ... ... : ... .. . ... : ... .. . ... : ... .. . ... : ... .. . ...
ROW 23 : ... .. . ... ... : --- .. . ... : --- .. . ... : ... .. . ... : ... .. . ...
ROW 24 : A#2 10 . ... ... : C-3 0F . ... : C-3 19 . ... : ... .. . ... : ... .. . ...
ROW 25 : ... .. . ... ... : ... .. . ... : ... .. . ... : ... .. . ... : ... .. . ...
ROW 26 : C-3 10 . ... ... : ... .. . ... : ... .. . ... : ... .. . ... : ... .. . ...
ROW 27 : ... .. . ... ... : --- .. . ... : --- .. . ... : ... .. . ... : ... .. . ...
ROW 28 : F-2 10 . ... ... : C-3 17 . ... : C-4 01 . ... : ... .. . ... : ... .. . ...
ROW 29 : ... .. . ... ... : ... .. . ... : C-3 19 . ... : ... .. . ... : ... .. . ...
ROW 2A : A#2 10 . ... ... : ... .. . ... : ... .. . ... : ... .. . ... : ... .. . ...
ROW 2B : ... .. . ... ... : --- .. . ... : ... .. . ... : ... .. . ... : ... .. . ...
ROW 2C : C-3 10 . ... ... : C-1 05 F ... : ... .. . 110 : ... .. . ... : ... .. . ...
ROW 2D : ... .. . ... ... : ... .. . ... : ... .. . ... : ... .. . ... : ... .. . ...
ROW 2E : D#3 10 . ... ... : ... .. . ... : ... .. . ... : ... .. . ... : ... .. . ...
ROW 2F : ... .. . ... ... : --- .. . ... : --- .. . ... : ... .. . ... : ... .. . ...

PATTERN 12
ROW 00 : F-2 08 F ... ... : D-1 05 F ... : C-4 01 . 100 : ... .. . ... : ... .. . ...
ROW 01 : ... .. . ... ... : ... .. . ... : D-2 19 . ... : ... .. . ... : ... .. . ...
ROW 02 : ... .. . ... ... : ... .. . ... : A-4 03 . ... : ... .. . ... : ... .. . ...
ROW 03 : ... .. . ... ... : --- .. . ... : ... .. . ... : ... .. . ... : ... .. . ...
ROW 04 : D-3 0F . ... ... : D-1 05 . ... : C-4 01 . ... : ... .. . ... : ... .. . ...
ROW 05 : ... .. . ... ... : ... .. . ... : D-2 19 . ... : ... .. . ... : ... .. . ...
ROW 06 : ... .. . ... ... : ... .. . ... : A-4 03 . ... : ... .. . ... : ... .. . ...
ROW 07 : ... .. . ... ... : --- .. . ... : ... .. . ... : ... .. . ... : ... .. . ...
ROW 08 : --- .. . ... ... : ... .. . ... : D-5 03 . ... : ... .. . ... : ... .. . ...
ROW 09 : ... .. . ... ... : ... .. . ... : ... .. . ... : ... .. . ... : ... .. . ...
ROW 0A : ... .. . ... ... : ... .. . ... : F-5 03 . ... : ... .. . ... : ... .. . ...
ROW 0B : ... .. . ... ... : ... .. . ... : ... .. . ... : ... .. . ... : ... .. . ...
ROW 0C : D-3 0F . ... ... : D-1 05 . ... : C-4 01 . ... : ... .. . ... : ... .. . ...
ROW 0D : ... .. . ... ... : ... .. . ... : D-2 19 . ... : ... .. . ... : ... .. . ...
ROW 0E : ... .. . ... ... : ... .. . ... : D-6 03 . ... : ... .. . ... : ... .. . ...
ROW 0F : ... .. . ... ... : --- .. . ... : ... .. . ... : ... .. . ... : ... .. . ...
ROW 10 : --- .. . ... ... : ... .. . ... : F-6 03 . ... : ... .. . ... : ... .. . ...
ROW 11 : ... .. . ... ... : ... .. . ... : ... .. . ... : ... .. . ... : ... .. . ...
ROW 12 : ... .. . ... ... : ... .. . ... : D-6 03 . ... : ... .. . ... : ... .. . ...
ROW 13 : ... .. . ... ... : ... .. . ... : ... .. . ... : ... .. . ... : ... .. . ...
ROW 14 : C-3 0B . ... ... : C-1 05 . ... : C-4 01 . ... : ... .. . ... : ... .. . ...
ROW 15 : ... .. . ... ... : ... .. . ... : C-2 19 . ... : ... .. . ... : ... .. . ...
ROW 16 : ... .. . ... ... : ... .. . ... : D-6 03 . ... : ... .. . ... : ... .. . ...
ROW 17 : --- .. . ... ... : --- .. . ... : ... .. . ... : ... .. . ... : ... .. . ...
ROW 18 : D-3 0F . ... ... : D-1 05 . ... : C-4 01 . ... : ... .. . ... : ... .. . ...
ROW 19 : ... .. . ... ... : ... .. . ... : D-2 19 . ... : ... .. . ... : ... .. . ...
ROW 1A : ... .. . ... ... : ... .. . ... : G-5 03 . ... : ... .. . ... : ... .. . ...
ROW 1B : ... .. . ... ... : --- .. . ... : ... .. . ... : ... .. . ... : ... .. . ...
ROW 1C : --- .. . ... ... : ... .. . ... : F-5 03 . ... : ... .. . ... : ... .. . ...
ROW 1D : ... .. . ... ... : ... .. . ... : ... .. . ... : ... .. . ... : ... .. . ...
ROW 1E : ... .. . ... ... : ... .. . ... : D-5 03 . ... : ... .. . ... : ... .. . ...
ROW 1F : ... .. . ... ... : ... .. . ... : ... .. . ... : ... .. . ... : ... .. . ...
ROW 20 : G-3 0B . ... ... : G-1 05 . ... : C-4 01 . ... : ... .. . ... : ... .. . ...
ROW 21 : ... .. . ... ... : ... .. . ... : G-2 19 . ... : ... .. . ... : ... .. . ...
ROW 22 : ... .. . ... ... : ... .. . ... : D-5 03 . ... : ... .. . ... : ... .. . ...
ROW 23 : --- .. . ... ... : --- .. . ... : ... .. . ... : ... .. . ... : ... .. . ...
ROW 24 : G-3 0B 6 ... ... : G-1 05 7 ... : C-5 03 . ... : ... .. . ... : ... .. . ...
ROW 25 : ... .. . ... ... : ... .. . ... : ... .. . ... : ... .. . ... : ... .. . ...
ROW 26 : ... .. . ... ... : ... .. . ... : D-5 03 . ... : ... .. . ... : ... .. . ...
ROW 27 : --- .. . ... ... : --- .. . ... : ... .. . ... : ... .. . ... : ... .. . ...
ROW 28 : G-3 0A 6 ... ... : G-1 05 5 ... : A-4 03 . ... : ... .. . ... : ... .. . ...
ROW 29 : ... .. . ... ... : ... .. . ... : ... .. . ... : ... .. . ... : ... .. . ...
ROW 2A : ... .. 8 ... ... : ... .. . ... : G-4 03 . ... : ... .. . ... : ... .. . ...
ROW 2B : ... .. . ... ... : --- .. . ... : ... .. . ... : ... .. . ... : ... .. . ...
ROW 2C : ... .. A ... ... : G-1 05 2 ... : F-4 03 . ... : ... .. . ... : ... .. . ...
ROW 2D : ... .. . ... ... : ... .. . ... : ... .. . ... : ... .. . ... : ... .. . ...
ROW 2E : ... .. C ... ... : ... .. . ... : D-4 03 . ... : ... .. . ... : ... .. . ...
ROW 2F : ... .. . ... ... : ... .. . ... : ... .. . ... : ... .. . ... : ... .. . ...

PATTERN 13
ROW 00 : --- .. . ... ... : --- .. . ... : F-4 03 . 100 : ... .. . ... : ... .. . ...
ROW 01 : ... .. . ... ... : ... .. . ... : ... .. . ... : ... .. . ... : ... .. . ...
ROW 02 : ... .. . ... ... : ... .. . ... : A-4 03 . ... : ... .. . ... : ... .. . ...
ROW 03 : ... .. . ... ... : ... .. . ... : ... .. . ... : ... .. . ... : ... .. . ...
ROW 04 : D-3 0F F ... ... : D-1 05 F ... : C-4 01 . ... : ... .. . ... : ... .. . ...
ROW 05 : ... .. . ... ... : ... .. . ... : D-2 19 . ... : ... .. . ... : ... .. . ...
ROW 06 : ... .. . ... ... : ... .. . ... : A-4 03 . ... : ... .. . ... : ... .. . ...
ROW 07 : --- .. . ... ... : --- .. . ... : ... .. . ... : ... .. . ... : ... .. . ...
ROW 08 : ... .. . ... ... : ... .. . ... : D-5 03 . ... : ... .. . ... : ... .. . ...
ROW 09 : ... .. . ... ... : ... .. . ... : ... .. . ... : ... .. . ... : ... .. . ...
ROW 0A : ... .. . ... ... : ... .. . ... : F-5 03 . ... : ... .. . ... : ... .. . ...
ROW 0B : ... .. . ... ... : ... .. . ... : ... .. . ... : ... .. . ... : ... .. . ...
ROW 0C : D-3 0F . ... ... : D-1 05 . ... : C-4 01 . ... : ... .. . ... : ... .. . ...
ROW 0D : ... .. . ... ... : ... .. . ... : D-2 19 . ... : ... .. . ... : ... .. . ...
ROW 0E : ... .. . ... ... : ... .. . ... : D-6 03 . ... : ... .. . ... : ... .. . ...
ROW 0F : --- .. . ... ... : --- .. . ... : ... .. . ... : ... .. . ... : ... .. . ...
ROW 10 : ... .. . ... ... : ... .. . ... : F-6 03 . ... : ... .. . ... : ... .. . ...
ROW 11 : ... .. . ... ... : ... .. . ... : ... .. . ... : ... .. . ... : ... .. . ...
ROW 12 : ... .. . ... ... : ... .. . ... : D-6 03 . ... : ... .. . ... : ... .. . ...
ROW 13 : ... .. . ... ... : ... .. . ... : ... .. . ... : ... .. . ... : ... .. . ...
ROW 14 : D-3 0F . ... ... : D-1 05 . ... : C-4 01 . ... : ... .. . ... : ... .. . ...
ROW 15 : ... .. . ... ... : ... .. . ... : D-2 19 . ... : ... .. . ... : ... .. . ...
ROW 16 : ... .. . ... ... : ... .. . ... : D-6 03 . ... : ... .. . ... : ... .. . ...
ROW 17 : --- .. . ... ... : --- .. . ... : ... .. . ... : ... .. . ... : ... .. . ...
ROW 18 : C-3 0B . ... ... : C-1 05 . ... : C-4 01 . ... : ... .. . ... : ... .. . ...
ROW 19 : ... .. . ... ... : ... .. . ... : C-2 19 . ... : ... .. . ... : ... .. . ...
ROW 1A : ... .. . ... ... : ... .. . ... : G-5 03 . ... : ... .. . ... : ... .. . ...
ROW 1B : --- .. . ... ... : --- .. . ... : ... .. . ... : ... .. . ... : ... .. . ...
ROW 1C : D-3 0F . ... ... : D-1 05 . ... : C-4 01 . ... : ... .. . ... : ... .. . ...
ROW 1D : ... .. . ... ... : ... .. . ... : D-2 19 . ... : ... .. . ... : ... .. . ...
ROW 1E : ... .. . ... ... : ... .. . ... : D-5 03 . ... : ... .. . ... : ... .. . ...
ROW 1F : ... .. . ... ... : --- .. . ... : ... .. . ... : ... .. . ... : ... .. . ...
ROW 20 : G-3 09 A ... ... : G-1 05 . ... : C-4 01 . ... : ... .. . ... : ... .. . ...
ROW 21 : ... .. . ... ... : ... .. . ... : G-2 19 . ... : ... .. . ... : ... .. . ...
ROW 22 : ... .. . ... ... : ... .. . ... : D-5 03 . ... : ... .. . ... : ... .. . ...
ROW 23 : ... .. . ... ... : --- .. . ... : ... .. . ... : ... .. . ... : ... .. . ...
ROW 24 : ... .. . ... ... : G-1 05 7 ... : C-5 03 . ... : ... .. . ... : ... .. . ...
ROW 25 : ... .. . ... ... : ... .. . ... : ... .. . ... : ... .. . ... : ... .. . ...
ROW 26 : ... .. . ... ... : ... .. . ... : D-5 03 . ... : ... .. . ... : ... .. . ...
ROW 27 : ... .. . ... ... : --- .. . ... : ... .. . ... : ... .. . ... : ... .. . ...
ROW 28 : ... .. . ... ... : G-1 05 5 ... : A-4 03 . ... : ... .. . ... : ... .. . ...
ROW 29 : ... .. . ... ... : ... .. . ... : ... .. . ... : ... .. . ... : ... .. . ...
ROW 2A : ... .. . ... ... : ... .. . ... : G-4 03 . ... : ... .. . ... : ... .. . ...
ROW 2B : ... .. . ... ... : --- .. . ... : ... .. . ... : ... .. . ... : ... .. . ...
ROW 2C : ... .. . ... ... : G-1 05 2 ... : F-4 03 . ... : ... .. . ... : ... .. . ...
ROW 2D : ... .. . ... ... : ... .. . ... : ... .. . ... : ... .. . ... : ... .. . ...
ROW 2E : ... .. . ... ... : ... .. . ... : D-4 03 . ... : ... .. . ... : ... .. . ...
ROW 2F : ... .. . ... ... : ... .. . ... : ... .. . ... : ... .. . ... : ... .. . ...

PATTERN 14
ROW 00 : G-2 08 F ... ... : E-1 05 F ... : C-4 01 . ... : 7-# 16 . ... : ... .. . ...
ROW 01 : ... .. . ... ... : ... .. . ... : E-2 19 . ... : ... .. . ... : ... .. . ...
ROW 02 : ... .. . ... ... : ... .. . ... : ... .. . ... : ... .. . ... : ... .. . ...
ROW 03 : ... .. . ... ... : --- .. . ... : ... .. . ... : ... .. . ... : ... .. . ...
ROW 04 : E-3 0F . ... ... : E-1 05 . ... : C-4 01 . ... : ... .. . ... : ... .. . ...
ROW 05 : ... .. . ... ... : ... .. . ... : B-3 19 . ... : ... .. . ... : ... .. . ...
ROW 06 : ... .. . ... ... : ... .. . ... : ... .. . ... : ... .. . ... : ... .. . ...
ROW 07 : --- .. . ... ... : --- .. . ... : ... .. . ... : ... .. . ... : ... .. . ...
ROW 08 : ... .. . ... ... : ... .. . ... : G-4 19 . 320 : B-# 00 4 ... : ... .. . ...
ROW 09 : ... .. . ... ... : ... .. . ... : ... .. . ... : ... .. . ... : ... .. . ...
ROW 0A : ... .. . ... ... : ... .. . ... : ... .. . ... : B-# 00 . ... : ... .. . ...
ROW 0B : ... .. . ... ... : ... .. . ... : --- .. . ... : --- .. . ... : ... .. . ...
ROW 0C : E-3 0F . ... ... : E-1 05 . ... : C-4 01 . 300 : B-# 16 F ... : ... .. . ...
ROW 0D : ... .. . ... ... : ... .. . ... : E-2 19 . ... : ... .. . ... : ... .. . ...
ROW 0E : ... .. . ... ... : ... .. . ... : ... .. . ... : ... .. . ... : ... .. . ...
ROW 0F : --- .. . ... ... : --- .. . ... : --- .. . ... : ... .. . ... : ... .. . ...
ROW 10 : ... .. . ... ... : ... .. . ... : A-4 19 . ... : ... .. . ... : ... .. . ...
ROW 11 : ... .. . ... ... : ... .. . ... : ... .. . ... : ... .. . ... : ... .. . ...
ROW 12 : ... .. . ... ... : ... .. . ... : ... .. . ... : ... .. . ... : ... .. . ...
ROW 13 : ... .. . ... ... : ... .. . ... : ... .. . ... : --- .. . ... : ... .. . ...
ROW 14 : D-3 0B . ... ... : D-1 05 . ... : D-5 19 . 306 : 5-# 00 . ... : ... .. . ...
ROW 15 : ... .. . ... ... : ... .. . ... : ... .. . ... : --- .. . ... : ... .. . ...
ROW 16 : ... .. . ... ... : ... .. . ... : ... .. . ... : 5-# 00 . ... : ... .. . ...
ROW 17 : --- .. . ... ... : --- .. . ... : --- .. . ... : --- .. . ... : ... .. . ...
ROW 18 : E-3 0F . ... ... : E-1 05 . ... : B-4 19 . 300 : 9-# 06 . ... : ... .. . ...
ROW 19 : ... .. . ... ... : ... .. . ... : ... .. . ... : ... .. . ... : ... .. . ...
ROW 1A : ... .. . ... ... : ... .. . ... : ... .. . ... : ... .. . ... : ... .. . ...
ROW 1B : --- .. . ... ... : --- .. . ... : ... .. . ... : ... .. . ... : ... .. . ...
ROW 1C : ... .. . ... ... : ... .. . ... : ... .. . ... : 5-# 00 . ... : ... .. . ...
ROW 1D : ... .. . ... ... : ... .. . ... : ... .. . ... : ... .. . ... : ... .. . ...
ROW 1E : ... .. . ... ... : ... .. . ... : ... .. . ... : ... .. . ... : ... .. . ...
ROW 1F : ... .. . ... ... : ... .. . ... : ... .. . ... : ... .. . ... : ... .. . ...
ROW 20 : A-3 0A A ... ... : A-1 05 . ... : E-5 19 . 305 : 5-# 06 . ... : ... .. . ...
ROW 21 : ... .. . ... ... : ... .. . ... : ... .. . ... : ... .. . ... : ... .. . ...
ROW 22 : ... .. . ... ... : ... .. . ... : ... .. . ... : ... .. . ... : ... .. . ...
ROW 23 : ... .. . ... ... : --- .. . ... : ... .. . ... : --- .. . ... : ... .. . ...
ROW 24 : ... .. . ... ... : A-1 05 A ... : ... .. . ... : ... .. . ... : ... .. . ...
ROW 25 : ... .. . ... ... : ... .. . ... : ... .. . ... : ... .. . ... : ... .. . ...
ROW 26 : ... .. . ... ... : ... .. . ... : ... .. . ... : ... .. . ... : ... .. . ...
ROW 27 : ... .. . ... ... : --- .. . ... : ... .. . ... : ... .. . ... : ... .. . ...
ROW 28 : A-3 0A 6 ... ... : A-1 05 7 ... : ... .. . 466 : 5-# 16 4 466 : ... .. . ...
ROW 29 : ... .. . ... ... : ... .. . ... : ... .. . ... : ... .. . ... : ... .. . ...
ROW 2A : ... .. . ... ... : ... .. . ... : ... .. . ... : ... .. 8 ... : ... .. . ...
ROW 2B : ... .. . ... ... : --- .. . ... : ... .. . ... : ... .. . ... : ... .. . ...
ROW 2C : ... .. . ... ... : A-1 05 3 ... : ... .. . ... : ... .. B ... : ... .. . ...
ROW 2D : ... .. . ... ... : ... .. . ... : ... .. . ... : ... .. . ... : ... .. . ...
ROW 2E : ... .. . ... ... : ... .. . ... : ... .. . ... : ... .. F ... : ... .. . ...
ROW 2F : ... .. . ... ... : ... .. . ... : ... .. . 400 : ... .. . ... : ... .. . ...

PATTERN 15
ROW 00 : --- .. . ... ... : --- .. . ... : C-4 01 . 300 : 9-# 06 . F04 : ... .. . ...
ROW 01 : ... .. . ... ... : ... .. . ... : ... .. . ... : ... .. . ... : ... .. . ...
ROW 02 : ... .. . ... ... : ... .. . ... : ... .. . ... : ... .. . ... : ... .. . ...
ROW 03 : ... .. . ... ... : ... .. . ... : ... .. . ... : ... .. . ... : ... .. . ...
ROW 04 : E-3 0F F ... ... : E-1 05 F ... : ... .. . ... : ... .. . ... : ... .. . ...
ROW 05 : ... .. . ... ... : ... .. . ... : ... .. . ... : ... .. . ... : ... .. . ...
ROW 06 : ... .. . ... ... : ... .. . ... : ... .. . ... : ... .. . ... : ... .. . ...
ROW 07 : --- .. . ... ... : --- .. . ... : ... .. . ... : ... .. . ... : ... .. . ...
ROW 08 : ... .. . ... ... : ... .. . ... : C-4 01 . ... : 9-# 06 . ... : ... .. . ...
ROW 09 : ... .. . ... ... : ... .. . ... : D-5 19 . ... : ... .. . ... : ... .. . ...
ROW 0A : ... .. . ... ... : ... .. . ... : ... .. . ... : ... .. . ... : ... .. . ...
ROW 0B : ... .. . ... ... : ... .. . ... : ... .. . ... : ... .. . ... : ... .. . ...
ROW 0C : E-3 0F . ... ... : E-1 05 . ... : E-5 19 . ... : ... .. . ... : ... .. . ...
ROW 0D : ... .. . ... ... : ... .. . ... : ... .. . ... : ... .. . ... : ... .. . ...
ROW 0E : ... .. . ... ... : ... .. . ... : ... .. . ... : ... .. . ... : ... .. . ...
ROW 0F : --- .. . ... ... : --- .. . ... : ... .. . ... : --- .. . ... : ... .. . ...
ROW 10 : ... .. . ... ... : ... .. . ... : C-4 01 . ... : 4-# 06 . F03 : ... .. . ...
ROW 11 : ... .. . ... ... : ... .. . ... : F#5 19 . ... : ... .. . ... : ... .. . ...
ROW 12 : ... .. . ... ... : ... .. . ... : ... .. . ... : ... .. . ... : ... .. . ...
ROW 13 : ... .. . ... ... : ... .. . ... : ... .. . ... : ... .. . ... : ... .. . ...
ROW 14 : E-3 0F . ... ... : E-1 05 . ... : G-5 19 . ... : 6-# 06 . ... : ... .. . ...
ROW 15 : ... .. . ... ... : ... .. . ... : ... .. . ... : ... .. . ... : ... .. . ...
ROW 16 : ... .. . ... ... : ... .. . ... : ... .. . ... : 6-# 06 . ... : ... .. . ...
ROW 17 : --- .. . ... ... : --- .. . ... : ... .. . ... : ... .. . B01 : ... .. . ...
ROW 18 : D-3 0B . ... ... : D-1 05 . ... : C-4 01 . ... : ... .. . ... : ... .. . ...
ROW 19 : ... .. . ... ... : ... .. . ... : F#5 19 . ... : ... .. . ... : ... .. . ...
ROW 1A : ... .. . ... ... : ... .. . ... : ... .. . ... : ... .. . ... : ... .. . ...
ROW 1B : --- .. . ... ... : --- .. . ... : ... .. . ... : ... .. . ... : ... .. . ...
ROW 1C : E-3 0F . ... ... : E-1 05 . ... : C#5 19 . ... : ... .. . ... : ... .. . ...
ROW 1D : ... .. . ... ... : ... .. . ... : ... .. . ... : ... .. . ... : ... .. . ...
ROW 1E : ... .. . ... ... : ... .. . ... : ... .. . ... : ... .. . ... : ... .. . ...
ROW 1F : ... .. . ... ... : --- .. . ... : ... .. . ... : ... .. . ... : ... .. . ...
ROW 20 : A-3 09 A ... ... : A-1 05 . ... : C-4 01 . ... : ... .. . ... : ... .. . ...
ROW 21 : ... .. . ... ... : ... .. . ... : E-5 19 . ... : ... .. . ... : ... .. . ...
ROW 22 : ... .. . ... ... : ... .. . ... : ... .. . ... : ... .. . ... : ... .. . ...
ROW 23 : ... .. . ... ... : --- .. . ... : --- .. . ... : ... .. . ... : ... .. . ...
ROW 24 : ... .. 8 ... ... : C-2 01 . ... : A-5 19 . ... : ... .. . ... : ... .. . ...
ROW 25 : ... .. . ... ... : ... .. . ... : ... .. . ... : ... .. . ... : ... .. . ...
ROW 26 : ... .. . ... ... : ... .. . ... : ... .. . ... : ... .. . ... : ... .. . ...
ROW 27 : ... .. . ... ... : ... .. . ... : ... .. . ... : ... .. . ... : ... .. . ...
ROW 28 : ... .. 7 ... ... : A-1 05 . ... : ... .. . ... : ... .. . ... : ... .. . ...
ROW 29 : ... .. . ... ... : ... .. . ... : ... .. . ... : ... .. . ... : ... .. . ...
ROW 2A : ... .. . ... ... : ... .. . ... : ... .. . 488 : ... .. . ... : ... .. . ...
ROW 2B : ... .. . ... ... : --- .. . ... : ... .. . ... : ... .. . ... : ... .. . ...
ROW 2C : ... .. 3 ... ... : C-2 01 . ... : ... .. . ... : ... .. . ... : ... .. . ...
ROW 2D : ... .. . ... ... : ... .. . ... : ... .. . ... : ... .. . ... : ... .. . ...
ROW 2E : ... .. . ... ... : ... .. . ... : ... .. . 220 : ... .. . ... : ... .. . ...
ROW 2F : ... .. . ... ... : ... .. . ... : ... .. . 400 : ... .. . ... : ... .. . ...

PATTERN 16
ROW 00 : G-2 0F F ... ... : G-1 05 F ... : C-4 01 . 300 : ... .. . ... : ... .. . ...
ROW 01 : ... .. . ... ... : ... .. . ... : G-2 12 . ... : ... .. . ... : ... .. . ...
ROW 02 : ... .. . ... ... : ... .. . ... : ... .. . ... : ... .. . ... : ... .. . ...
ROW 03 : --- .. . ... ... : --- .. . ... : --- .. . ... : ... .. . ... : ... .. . ...
ROW 04 : G-2 0F . ... ... : G-2 15 A ... : D-4 05 . ... : ... .. . ... : ... .. . ...
ROW 05 : ... .. . ... ... : ... .. . ... : ... .. . ... : ... .. . ... : ... .. . ...
ROW 06 : ... .. . ... ... : ... .. . ... : ... .. . ... : ... .. . ... : ... .. . ...
ROW 07 : --- .. . ... ... : --- .. . ... : --- .. . ... : ... .. . ... : ... .. . ...
ROW 08 : ... .. . ... ... : D-3 05 . ... : A#4 05 . ... : ... .. . ... : ... .. . ...
ROW 09 : ... .. . ... ... : ... .. . ... : ... .. . ... : ... .. . ... : ... .. . ...
ROW 0A : ... .. . ... ... : ... .. . ... : ... .. . ... : ... .. . ... : ... .. . ...
ROW 0B : ... .. . ... ... : --- .. . ... : --- .. . ... : ... .. . ... : ... .. . ...
ROW 0C : G-3 1B . ... ... : G-2 0F . ... : D-5 03 . ... : ... .. . ... : ... .. . ...
ROW 0D : ... .. . ... ... : ... .. . ... : ... .. . ... : ... .. . ... : ... .. . ...
ROW 0E : ... .. . ... ... : ... .. . ... : ... .. . ... : ... .. . ... : ... .. . ...
ROW 0F : ... .. . ... ... : --- .. . ... : --- .. . ... : ... .. . ... : ... .. . ...
ROW 10 : A-3 1B . ... ... : G-2 17 . ... : G-5 03 . ... : ... .. . ... : ... .. . ...
ROW 11 : ... .. . ... ... : ... .. . ... : ... .. . ... : ... .. . ... : ... .. . ...
ROW 12 : ... .. . ... ... : ... .. . ... : ... .. . ... : ... .. . ... : ... .. . ...
ROW 13 : ... .. . ... ... : --- .. . ... : --- .. . ... : ... .. . ... : ... .. . ...
ROW 14 : A#3 1B . ... ... : D-1 05 F ... : C-4 01 . ... : ... .. . ... : ... .. . ...
ROW 15 : ... .. . ... ... : ... .. . ... : D-2 05 . ... : ... .. . ... : ... .. . ...
ROW 16 : ... .. . ... ... : ... .. . ... : ... .. . ... : ... .. . ... : ... .. . ...
ROW 17 : --- .. . ... ... : --- .. . ... : --- .. . ... : ... .. . ... : ... .. . ...
ROW 18 : D-4 1B . ... ... : G-1 05 . ... : C-4 01 . ... : ... .. . ... : ... .. . ...
ROW 19 : ... .. . ... ... : ... .. . ... : G-2 05 . ... : ... .. . ... : ... .. . ...
ROW 1A : ... .. . ... ... : ... .. . ... : ... .. . ... : ... .. . ... : ... .. . ...
ROW 1B : ... .. . ... ... : --- .. . ... : ... .. . ... : ... .. . ... : ... .. . ...
ROW 1C : ... .. . ... ... : G-2 15 A ... : A#3 05 . ... : ... .. . ... : ... .. . ...
ROW 1D : ... .. . ... ... : ... .. . ... : ... .. . ... : ... .. . ... : ... .. . ...
ROW 1E : ... .. . ... ... : ... .. . ... : ... .. . ... : ... .. . ... : ... .. . ...
ROW 1F : --- .. . ... ... : --- .. . ... : --- .. . ... : ... .. . ... : ... .. . ...
ROW 20 : G-4 1B . ... ... : A#2 05 . ... : D-4 05 . ... : ... .. . ... : ... .. . ...
ROW 21 : ... .. . ... ... : ... .. . ... : ... .. . ... : ... .. . ... : ... .. . ...
ROW 22 : ... .. . ... ... : ... .. . ... : ... .. . ... : ... .. . ... : ... .. . ...
ROW 23 : ... .. . ... ... : --- .. . ... : --- .. . ... : ... .. . ... : ... .. . ...
ROW 24 : ... .. . ... ... : G-2 17 . ... : D-5 03 . ... : ... .. . ... : ... .. . ...
ROW 25 : ... .. . ... ... : ... .. . ... : ... .. . ... : ... .. . ... : ... .. . ...
ROW 26 : ... .. . ... ... : ... .. . ... : ... .. . ... : ... .. . ... : ... .. . ...
ROW 27 : ... .. . ... ... : --- .. . ... : --- .. . ... : ... .. . ... : ... .. . ...
ROW 28 : A-4 1B . 304 ... : G-2 0F . ... : G-5 03 . ... : ... .. . ... : ... .. . ...
ROW 29 : ... .. . ... ... : ... .. . ... : ... .. . ... : ... .. . ... : ... .. . ...
ROW 2A : ... .. . ... ... : ... .. . ... : ... .. . ... : ... .. . ... : ... .. . ...
ROW 2B : ... .. . ... ... : --- .. . ... : --- .. . ... : ... .. . ... : ... .. . ...
ROW 2C : ... .. . ... ... : G-1 05 F ... : C-4 01 . ... : ... .. . ... : ... .. . ...
ROW 2D : ... .. . ... ... : ... .. . ... : G-2 05 . ... : ... .. . ... : ... .. . ...
ROW 2E : ... .. . ... ... : ... .. . ... : ... .. . ... : ... .. . ... : ... .. . ...
ROW 2F : --- .. . ... ... : --- .. . ... : --- .. . ... : ... .. . ... : ... .. . ...

PATTERN 17
ROW 00 : E-4 1B . 300 ... : D-1 05 F ... : C-4 01 . ... : ... .. . ... : ... .. . ...
ROW 01 : ... .. . ... ... : ... .. . ... : D-2 05 . ... : ... .. . ... : ... .. . ...
ROW 02 : ... .. . ... ... : ... .. . ... : ... .. . ... : ... .. . ... : ... .. . ...
ROW 03 : ... .. . ... ... : --- .. . ... : --- .. . ... : ... .. . ... : ... .. . ...
ROW 04 : ... .. . ... ... : A-1 15 A ... : D-3 05 . ... : ... .. . ... : ... .. . ...
ROW 05 : ... .. . ... ... : ... .. . ... : ... .. . ... : ... .. . ... : ... .. . ...
ROW 06 : ... .. . ... ... : ... .. . ... : ... .. . ... : ... .. . ... : ... .. . ...
ROW 07 : --- .. . ... ... : --- .. . ... : --- .. . ... : ... .. . ... : ... .. . ...
ROW 08 : E-4 1B 6 ... ... : A-2 05 . ... : A-4 05 . ... : ... .. . ... : ... .. . ...
ROW 09 : ... .. . ... ... : ... .. . ... : ... .. . ... : ... .. . ... : ... .. . ...
ROW 0A : ... .. . ... ... : ... .. . ... : ... .. . ... : ... .. . ... : ... .. . ...
ROW 0B : --- .. . ... ... : --- .. . ... : --- .. . ... : ... .. . ... : ... .. . ...
ROW 0C : F-4 1B F ... ... : D-2 0F . ... : F-4 03 . ... : ... .. . ... : ... .. . ...
ROW 0D : ... .. . ... ... : ... .. . ... : ... .. . ... : ... .. . ... : ... .. . ...
ROW 0E : E-4 1B . ... ... : ... .. . ... : ... .. . ... : ... .. . ... : ... .. . ...
ROW 0F : ... .. . ... ... : ... .. . ... : --- .. . ... : ... .. . ... : ... .. . ...
ROW 10 : D-4 1B . ... ... : D-2 17 . ... : C-4 01 . ... : ... .. . ... : ... .. . ...
ROW 11 : ... .. . ... ... : ... .. . ... : D-2 05 . ... : ... .. . ... : ... .. . ...
ROW 12 : ... .. . ... ... : ... .. . ... : ... .. . ... : ... .. . ... : ... .. . ...
ROW 13 : ... .. . ... ... : ... .. . ... : ... .. . ... : ... .. . ... : ... .. . ...
ROW 14 : ... .. . ... ... : D-2 0C . ... : F-4 05 . ... : ... .. . ... : ... .. . ...
ROW 15 : ... .. . ... ... : ... .. . ... : ... .. . ... : ... .. . ... : ... .. . ...
ROW 16 : ... .. . ... ... : ... .. . ... : ... .. . ... : ... .. . ... : ... .. . ...
ROW 17 : --- .. . ... ... : --- .. . ... : --- .. . ... : ... .. . ... : ... .. . ...
ROW 18 : D-4 1B A ... ... : D-1 05 F ... : C-4 01 . ... : ... .. . ... : ... .. . ...
ROW 19 : ... .. . ... ... : ... .. . ... : D-2 05 . ... : ... .. . ... : ... .. . ...
ROW 1A : ... .. . ... ... : ... .. . ... : ... .. . ... : ... .. . ... : ... .. . ...
ROW 1B : ... .. . ... ... : --- .. . ... : ... .. . ... : ... .. . ... : ... .. . ...
ROW 1C : ... .. . ... ... : D-2 0F A ... : A-3 05 . ... : ... .. . ... : ... .. . ...
ROW 1D : ... .. . ... ... : ... .. . ... : ... .. . ... : ... .. . ... : ... .. . ...
ROW 1E : ... .. . ... ... : ... .. . ... : ... .. . ... : ... .. . ... : ... .. . ...
ROW 1F : --- .. . 400 A00 : --- .. . ... : ... .. . ... : ... .. . ... : ... .. . ...
ROW 20 : A-5 0C 8 ... ... : D-2 17 . ... : F-3 05 . 320 : ... .. . ... : ... .. . ...
ROW 21 : --- .. . ... ... : ... .. . ... : ... .. . ... : ... .. . ... : ... .. . ...
ROW 22 : A-5 0C 4 ... ... : ... .. . ... : ... .. . ... : ... .. . ... : ... .. . ...
ROW 23 : --- .. . ... ... : --- .. . ... : ... .. . ... : ... .. . ... : ... .. . ...
ROW 24 : F-5 0C 8 ... ... : C-1 05 A ... : C-4 01 . 300 : ... .. . ... : ... .. . ...
ROW 25 : --- .. . ... ... : ... .. . ... : C-2 05 . ... : ... .. . ... : ... .. . ...
ROW 26 : F-5 0C 4 ... ... : ... .. . ... : ... .. . ... : ... .. . ... : ... .. . ...
ROW 27 : --- .. . ... ... : --- .. . ... : ... .. . ... : ... .. . ... : ... .. . ...
ROW 28 : D-5 0C 8 ... ... : C-2 0B . ... : A-3 05 . ... : ... .. . ... : ... .. . ...
ROW 29 : --- .. . ... ... : ... .. . ... : ... .. . ... : ... .. . ... : ... .. . ...
ROW 2A : D-5 0C 4 ... ... : ... .. . ... : ... .. . ... : ... .. . ... : ... .. . ...
ROW 2B : --- .. . ... ... : --- .. . ... : ... .. . ... : ... .. . ... : ... .. . ...
ROW 2C : G-4 0C 8 ... ... : C-1 05 A ... : F-4 05 . 320 : ... .. . ... : ... .. . ...
ROW 2D : --- .. . ... ... : ... .. . ... : ... .. . ... : ... .. . ... : ... .. . ...
ROW 2E : G-4 0C 4 ... ... : ... .. . ... : ... .. . ... : ... .. . ... : ... .. . ...
ROW 2F : ... .. . ... ... : --- .. . ... : ... .. . ... : ... .. . ... : ... .. . ...

PATTERN 18
ROW 00 : ... .. . ... ... : G-1 05 F ... : C-4 01 . 300 : ... .. . ... : ... .. . ...
ROW 01 : ... .. . ... ... : ... .. . ... : G-2 12 . ... : ... .. . ... : ... .. . ...
ROW 02 : ... .. . ... ... : ... .. . ... : ... .. . ... : ... .. . ... : ... .. . ...
ROW 03 : ... .. . ... ... : --- .. . ... : --- .. . ... : ... .. . ... : ... .. . ...
ROW 04 : ... .. . ... ... : G-2 15 A ... : D-4 05 . ... : ... .. . ... : ... .. . ...
ROW 05 : ... .. . ... ... : ... .. . ... : ... .. . ... : ... .. . ... : ... .. . ...
ROW 06 : ... .. . ... ... : ... .. . ... : ... .. . ... : ... .. . ... : ... .. . ...
ROW 07 : ... .. . ... ... : --- .. . ... : --- .. . ... : ... .. . ... : ... .. . ...
ROW 08 : ... .. . ... ... : D-3 05 . ... : A#4 05 . ... : ... .. . ... : ... .. . ...
ROW 09 : ... .. . ... ... : ... .. . ... : ... .. . ... : ... .. . ... : ... .. . ...
ROW 0A : ... .. . ... ... : ... .. . ... : ... .. . ... : ... .. . ... : ... .. . ...
ROW 0B : ... .. . ... ... : --- .. . ... : --- .. . ... : ... .. . ... : ... .. . ...
ROW 0C : C#4 1B F ... ... : G-2 0F . ... : D-5 03 . ... : ... .. . ... : ... .. . ...
ROW 0D : D-4 1B . ... ... : ... .. . ... : ... .. . ... : ... .. . ... : ... .. . ...
ROW 0E : ... .. . ... ... : ... .. . ... : ... .. . ... : ... .. . ... : ... .. . ...
ROW 0F : --- .. . ... ... : --- .. . ... : --- .. . ... : ... .. . ... : ... .. . ...
ROW 10 : C#4 1B . ... ... : G-2 17 . ... : G-5 03 . ... : ... .. . ... : ... .. . ...
ROW 11 : ... .. . ... ... : ... .. . ... : ... .. . ... : ... .. . ... : ... .. . ...
ROW 12 : ... .. . ... ... : ... .. . ... : ... .. . ... : ... .. . ... : ... .. . ...
ROW 13 : ... .. . ... ... : --- .. . ... : --- .. . ... : ... .. . ... : ... .. . ...
ROW 14 : D-4 1B . ... ... : D-1 05 F ... : C-4 01 . ... : ... .. . ... : ... .. . ...
ROW 15 : ... .. . ... ... : ... .. . ... : D-2 05 . ... : ... .. . ... : ... .. . ...
ROW 16 : ... .. . ... ... : ... .. . ... : ... .. . ... : ... .. . ... : ... .. . ...
ROW 17 : --- .. . ... ... : --- .. . ... : --- .. . ... : ... .. . ... : ... .. . ...
ROW 18 : G-4 1B . ... ... : G-1 05 . ... : C-4 01 . ... : ... .. . ... : ... .. . ...
ROW 19 : ... .. . ... ... : ... .. . ... : G-2 05 . ... : ... .. . ... : ... .. . ...
ROW 1A : ... .. . ... ... : ... .. . ... : ... .. . ... : ... .. . ... : ... .. . ...
ROW 1B : ... .. . ... ... : --- .. . ... : ... .. . ... : ... .. . ... : ... .. . ...
ROW 1C : F-4 1B . ... ... : G-2 15 A ... : A#3 05 . ... : ... .. . ... : ... .. . ...
ROW 1D : ... .. . ... ... : ... .. . ... : ... .. . ... : ... .. . ... : ... .. . ...
ROW 1E : ... .. . ... ... : ... .. . ... : ... .. . ... : ... .. . ... : ... .. . ...
ROW 1F : ... .. . ... ... : --- .. . ... : --- .. . ... : ... .. . ... : ... .. . ...
ROW 20 : --- .. . ... ... : A#2 05 . ... : D-4 05 . ... : ... .. . ... : ... .. . ...
ROW 21 : ... .. . ... ... : ... .. . ... : ... .. . ... : ... .. . ... : ... .. . ...
ROW 22 : ... .. . ... ... : ... .. . ... : ... .. . ... : ... .. . ... : ... .. . ...
ROW 23 : ... .. . ... ... : --- .. . ... : --- .. . ... : ... .. . ... : ... .. . ...
ROW 24 : E-4 1B . ... ... : G-2 17 . ... : D#5 03 . ... : ... .. . ... : ... .. . ...
ROW 25 : ... .. . ... ... : ... .. . ... : ... .. . ... : ... .. . ... : ... .. . ...
ROW 26 : ... .. . ... ... : ... .. . ... : ... .. . ... : ... .. . ... : ... .. . ...
ROW 27 : ... .. . ... ... : --- .. . ... : --- .. . ... : ... .. . ... : ... .. . ...
ROW 28 : ... .. . 466 ... : G-2 0F . ... : G-5 03 . ... : ... .. . ... : ... .. . ...
ROW 29 : ... .. . ... ... : ... .. . ... : ... .. . ... : ... .. . ... : ... .. . ...
ROW 2A : ... .. . ... ... : ... .. . ... : ... .. . ... : ... .. . ... : ... .. . ...
ROW 2B : --- .. . ... ... : --- .. . ... : --- .. . ... : ... .. . ... : ... .. . ...
ROW 2C : D-4 1B . 400 ... : G-1 05 F ... : C-4 01 . ... : ... .. . ... : ... .. . ...
ROW 2D : ... .. . ... ... : ... .. . ... : G-2 05 . ... : ... .. . ... : ... .. . ...
ROW 2E : ... .. . ... ... : ... .. . ... : ... .. . ... : ... .. . ... : ... .. . ...
ROW 2F : --- .. . ... ... : --- .. . ... : --- .. . ... : ... .. . ... : ... .. . ...

PATTERN 19
ROW 00 : D-4 1B . ... ... : A#1 05 F ... : C-4 01 . 300 : ... .. . ... : ... .. . ...
ROW 01 : D#4 1B . ... ... : ... .. . ... : A#1 12 . ... : ... .. . ... : ... .. . ...
ROW 02 : E-4 1B . ... ... : ... .. . ... : ... .. . ... : ... .. . ... : ... .. . ...
ROW 03 : ... .. . ... ... : --- .. . ... : --- .. . ... : ... .. . ... : ... .. . ...
ROW 04 : ... .. . ... ... : F-2 15 A ... : F-3 05 . ... : ... .. . ... : ... .. . ...
ROW 05 : ... .. . ... ... : ... .. . ... : ... .. . ... : ... .. . ... : ... .. . ...
ROW 06 : ... .. . ... ... : ... .. . ... : ... .. . ... : ... .. . ... : ... .. . ...
ROW 07 : ... .. . ... ... : --- .. . ... : --- .. . ... : ... .. . ... : ... .. . ...
ROW 08 : F-4 1B . ... ... : C-3 05 . ... : F-4 05 . ... : ... .. . ... : ... .. . ...
ROW 09 : ... .. . ... ... : ... .. . ... : ... .. . ... : ... .. . ... : ... .. . ...
ROW 0A : ... .. . ... ... : ... .. . ... : ... .. . ... : ... .. . ... : ... .. . ...
ROW 0B : --- .. . ... ... : --- .. . ... : --- .. . ... : ... .. . ... : ... .. . ...
ROW 0C : A-3 1B . ... ... : A#2 0B . ... : D-5 03 . ... : ... .. . ... : ... .. . ...
ROW 0D : ... .. . ... ... : ... .. . ... : ... .. . ... : ... .. . ... : ... .. . ...
ROW 0E : ... .. . ... ... : ... .. . ... : ... .. . ... : ... .. . ... : ... .. . ...
ROW 0F : ... .. . ... ... : ... .. . ... : --- .. . ... : ... .. . ... : ... .. . ...
ROW 10 : ... .. . ... ... : A#2 11 . ... : F-5 03 . ... : ... .. . ... : ... .. . ...
ROW 11 : ... .. . ... ... : ... .. . ... : ... .. . ... : ... .. . ... : ... .. . ...
ROW 12 : ... .. . ... ... : ... .. . ... : ... .. . ... : ... .. . ... : ... .. . ...
ROW 13 : --- .. . ... ... : ... .. . ... : --- .. . ... : ... .. . ... : ... .. . ...
ROW 14 : A-3 1B A ... ... : A#2 0C . ... : C-4 01 . ... : ... .. . ... : ... .. . ...
ROW 15 : ... .. . ... ... : ... .. . ... : A#2 05 . ... : ... .. . ... : ... .. . ...
ROW 16 : ... .. . ... ... : ... .. . ... : ... .. . ... : ... .. . ... : ... .. . ...
ROW 17 : ... .. . ... ... : --- .. . ... : --- .. . ... : ... .. . ... : ... .. . ...
ROW 18 : ... .. . ... ... : F-1 05 F ... : C-4 01 . ... : ... .. . ... : ... .. . ...
ROW 19 : ... .. . ... ... : ... .. . ... : F-2 05 . ... : ... .. . ... : ... .. . ...
ROW 1A : ... .. . ... ... : ... .. . ... : ... .. . ... : ... .. . ... : ... .. . ...
ROW 1B : --- .. . ... ... : --- .. . ... : ... .. . ... : ... .. . ... : ... .. . ...
ROW 1C : A-3 1B 5 ... ... : F-3 0B A ... : C-4 05 . ... : ... .. . ... : ... .. . ...
ROW 1D : ... .. . ... ... : ... .. . ... : ... .. . ... : ... .. . ... : ... .. . ...
ROW 1E : ... .. . ... ... : ... .. . ... : ... .. . ... : ... .. . ... : ... .. . ...
ROW 1F : ... .. . ... ... : --- .. . ... : --- .. . ... : ... .. . ... : ... .. . ...
ROW 20 : ... .. . ... ... : F-2 11 . ... : A-4 05 . ... : ... .. . ... : ... .. . ...
ROW 21 : ... .. . ... ... : ... .. . ... : ... .. . ... : ... .. . ... : ... .. . ...
ROW 22 : ... .. . ... ... : ... .. . ... : ... .. . ... : ... .. . ... : ... .. . ...
ROW 23 : ... .. . ... ... : --- .. . ... : --- .. . ... : ... .. . ... : ... .. . ...
ROW 24 : --- .. . ... ... : F-1 05 A ... : C-5 03 . ... : ... .. . ... : ... .. . ...
ROW 25 : ... .. . ... ... : ... .. . ... : ... .. . ... : ... .. . ... : ... .. . ...
ROW 26 : ... .. . ... ... : ... .. . ... : ... .. . ... : ... .. . ... : ... .. . ...
ROW 27 : --- .. . ... ... : --- .. . ... : --- .. . ... : ... .. . ... : ... .. . ...
ROW 28 : G-3 1B F 400 A00 : A#1 05 . ... : F-5 03 . ... : ... .. . ... : ... .. . ...
ROW 29 : ... .. . ... ... : ... .. . ... : ... .. . ... : ... .. . ... : ... .. . ...
ROW 2A : ... .. . ... ... : ... .. . ... : ... .. . ... : ... .. . ... : ... .. . ...
ROW 2B : ... .. . ... ... : --- .. . ... : --- .. . ... : ... .. . ... : ... .. . ...
ROW 2C : A-3 1B . ... ... : B-1 05 A ... : C-4 01 . ... : ... .. . ... : ... .. . ...
ROW 2D : ... .. . ... ... : ... .. . ... : F-2 05 . ... : ... .. . ... : ... .. . ...
ROW 2E : ... .. . ... ... : ... .. . ... : ... .. . ... : ... .. . ... : ... .. . ...
ROW 2F : --- .. . ... ... : --- .. . ... : --- .. . ... : ... .. . ... : ... .. . ...

PATTERN 1A
ROW 00 : D-4 1B . ... ... : C-2 05 F ... : C-4 01 . ... : ... .. . ... : ... .. . ...
ROW 01 : ... .. . ... ... : ... .. . ... : C-2 05 . ... : ... .. . ... : ... .. . ...
ROW 02 : ... .. . ... ... : ... .. . ... : ... .. . ... : ... .. . ... : ... .. . ...
ROW 03 : ... .. . ... ... : --- .. . ... : --- .. . ... : ... .. . ... : ... .. . ...
ROW 04 : C-4 1B . ... ... : G-2 15 A ... : C-3 05 . ... : ... .. . ... : ... .. . ...
ROW 05 : ... .. . ... ... : ... .. . ... : ... .. . ... : ... .. . ... : ... .. . ...
ROW 06 : ... .. . ... ... : ... .. . ... : ... .. . ... : ... .. . ... : ... .. . ...
ROW 07 : ... .. . ... ... : --- .. . ... : --- .. . ... : ... .. . ... : ... .. . ...
ROW 08 : --- .. . ... ... : F-3 05 . ... : G-4 05 . ... : ... .. . ... : ... .. . ...
ROW 09 : ... .. . ... ... : ... .. . ... : ... .. . ... : ... .. . ... : ... .. . ...
ROW 0A : ... .. . ... ... : ... .. . ... : ... .. . ... : ... .. . ... : ... .. . ...
ROW 0B : ... .. . ... ... : --- .. . ... : --- .. . ... : ... .. . ... : ... .. . ...
ROW 0C : A#3 1B . ... ... : C-3 0B . ... : F-4 03 . ... : ... .. . ... : ... .. . ...
ROW 0D : ... .. . ... ... : ... .. . ... : ... .. . ... : ... .. . ... : ... .. . ...
ROW 0E : ... .. . ... ... : ... .. . ... : ... .. . ... : ... .. . ... : ... .. . ...
ROW 0F : ... .. . ... ... : ... .. . ... : --- .. . ... : ... .. . ... : ... .. . ...
ROW 10 : ... .. . ... ... : C-3 11 . ... : C-4 01 . ... : ... .. . ... : ... .. . ...
ROW 11 : ... .. . ... ... : ... .. . ... : C-2 05 . ... : ... .. . ... : ... .. . ...
ROW 12 : ... .. . ... ... : ... .. . ... : ... .. . ... : ... .. . ... : ... .. . ...
ROW 13 : ... .. . ... ... : ... .. . ... : ... .. . ... : ... .. . ... : ... .. . ...
ROW 14 : F-3 1B . ... ... : C-3 0C . ... : F-4 05 . ... : ... .. . ... : ... .. . ...
ROW 15 : ... .. . ... ... : ... .. . ... : ... .. . ... : ... .. . ... : ... .. . ...
ROW 16 : ... .. . ... ... : ... .. . ... : ... .. . ... : ... .. . ... : ... .. . ...
ROW 17 : ... .. . ... ... : --- .. . ... : --- .. . ... : ... .. . ... : ... .. . ...
ROW 18 : G-3 1B . ... ... : C-2 05 F ... : C-4 01 . ... : ... .. . ... : ... .. . ...
ROW 19 : G#3 1B . ... ... : ... .. . ... : C-2 05 . ... : ... .. . ... : ... .. . ...
ROW 1A : A-3 1B . ... ... : ... .. . ... : ... .. . ... : ... .. . ... : ... .. . ...
ROW 1B : ... .. . ... ... : --- .. . ... : ... .. . ... : ... .. . ... : ... .. . ...
ROW 1C : ... .. . ... ... : C-3 0B A ... : E-4 05 . ... : ... .. . ... : ... .. . ...
ROW 1D : ... .. . ... ... : ... .. . ... : ... .. . ... : ... .. . ... : ... .. . ...
ROW 1E : ... .. . ... ... : ... .. . ... : ... .. . ... : ... .. . ... : ... .. . ...
ROW 1F : ... .. . ... ... : --- .. . ... : ... .. . ... : ... .. . ... : ... .. . ...
ROW 20 : C-4 1B . ... ... : C-3 11 . ... : G-3 05 . 320 : ... .. . ... : ... .. . ...
ROW 21 : ... .. . ... ... : ... .. . ... : ... .. . ... : ... .. . ... : ... .. . ...
ROW 22 : ... .. . ... ... : ... .. . ... : ... .. . ... : ... .. . ... : ... .. . ...
ROW 23 : ... .. . ... ... : --- .. . ... : ... .. . ... : ... .. . ... : ... .. . ...
ROW 24 : ... .. . ... ... : C-2 05 A ... : C-4 01 . 300 : ... .. . ... : ... .. . ...
ROW 25 : ... .. . ... ... : ... .. . ... : C-2 05 . ... : ... .. . ... : ... .. . ...
ROW 26 : ... .. . ... ... : ... .. . ... : ... .. . ... : ... .. . ... : ... .. . ...
ROW 27 : ... .. . ... ... : --- .. . ... : ... .. . ... : ... .. . ... : ... .. . ...
ROW 28 : F-4 1B . ... ... : C-3 0B . ... : A#3 05 . ... : ... .. . ... : ... .. . ...
ROW 29 : ... .. . ... ... : ... .. . ... : ... .. . ... : ... .. . ... : ... .. . ...
ROW 2A : ... .. . ... ... : ... .. . ... : ... .. . ... : ... .. . ... : ... .. . ...
ROW 2B : ... .. . ... ... : --- .. . ... : ... .. . ... : ... .. . ... : ... .. . ...
ROW 2C : ... .. . ... ... : C-2 05 A ... : E-4 05 . 320 : ... .. . ... : ... .. . ...
ROW 2D : ... .. . ... ... : ... .. . ... : ... .. . ... : ... .. . ... : ... .. . ...
ROW 2E : ... .. . ... ... : ... .. . ... : ... .. . ... : ... .. . ... : ... .. . ...
ROW 2F : ... .. . ... ... : --- .. . ... : ... .. . ... : ... .. . ... : ... .. . ...

PATTERN 1B
ROW 00 : E-4 1B . ... ... : D-1 05 F ... : C-4 01 . 300 : ... .. . ... : ... .. . ...
ROW 01 : ... .. . ... ... : ... .. . ... : D-2 12 . ... : ... .. . ... : ... .. . ...
ROW 02 : F-4 1B . ... ... : ... .. . ... : ... .. . ... : ... .. . ... : ... .. . ...
ROW 03 : ... .. . ... ... : --- .. . ... : --- .. . ... : ... .. . ... : ... .. . ...
ROW 04 : E-4 1B . ... ... : D-2 15 A ... : A-3 05 . ... : ... .. . ... : ... .. . ...
ROW 05 : ... .. . ... ... : ... .. . ... : ... .. . ... : ... .. . ... : ... .. . ...
ROW 06 : ... .. . ... ... : ... .. . ... : ... .. . ... : ... .. . ... : ... .. . ...
ROW 07 : ... .. . ... ... : --- .. . ... : --- .. . ... : ... .. . ... : ... .. . ...
ROW 08 : ... .. . ... ... : A-2 05 . ... : F-4 05 . ... : ... .. . ... : ... .. . ...
ROW 09 : ... .. . ... ... : ... .. . ... : ... .. . ... : ... .. . ... : ... .. . ...
ROW 0A : ... .. . ... ... : ... .. . ... : ... .. . ... : ... .. . ... : ... .. . ...
ROW 0B : ... .. . ... ... : --- .. . ... : --- .. . ... : ... .. . ... : ... .. . ...
ROW 0C : E-4 1B A ... ... : D-2 0F . ... : A-4 03 . ... : ... .. . ... : ... .. . ...
ROW 0D : ... .. . ... ... : ... .. . ... : ... .. . ... : ... .. . ... : ... .. . ...
ROW 0E : F-4 1B . ... ... : ... .. . ... : ... .. . ... : ... .. . ... : ... .. . ...
ROW 0F : ... .. . ... ... : --- .. . ... : --- .. . ... : ... .. . ... : ... .. . ...
ROW 10 : E-4 1B . ... ... : D-2 17 . ... : D-5 03 . ... : ... .. . ... : ... .. . ...
ROW 11 : ... .. . ... ... : ... .. . ... : ... .. . ... : ... .. . ... : ... .. . ...
ROW 12 : ... .. . ... ... : ... .. . ... : ... .. . ... : ... .. . ... : ... .. . ...
ROW 13 : ... .. . ... ... : --- .. . ... : --- .. . ... : ... .. . ... : ... .. . ...
ROW 14 : ... .. . ... ... : A-0 05 F ... : C-4 01 . ... : ... .. . ... : ... .. . ...
ROW 15 : ... .. . ... ... : ... .. . ... : A-1 05 . ... : ... .. . ... : ... .. . ...
ROW 16 : ... .. . ... ... : ... .. . ... : ... .. . ... : ... .. . ... : ... .. . ...
ROW 17 : ... .. . ... ... : --- .. . ... : --- .. . ... : ... .. . ... : ... .. . ...
ROW 18 : C-3 10 A ... ... : D-1 05 . ... : C-4 01 . ... : ... .. . ... : ... .. . ...
ROW 19 : ... .. . ... ... : ... .. . ... : D-2 05 . ... : ... .. . ... : ... .. . ...
ROW 1A : ... .. . ... ... : ... .. . ... : ... .. . ... : ... .. . ... : ... .. . ...
ROW 1B : ... .. . ... ... : --- .. . ... : ... .. . ... : ... .. . ... : ... .. . ...
ROW 1C : G-2 10 . ... ... : D-2 15 A ... : F-3 05 . ... : ... .. . ... : ... .. . ...
ROW 1D : ... .. . ... ... : ... .. . ... : ... .. . ... : ... .. . ... : ... .. . ...
ROW 1E : C-3 10 . ... ... : ... .. . ... : ... .. . ... : ... .. . ... : ... .. . ...
ROW 1F : ... .. . ... ... : --- .. . ... : --- .. . ... : ... .. . ... : ... .. . ...
ROW 20 : E-3 10 . ... ... : F-2 05 . ... : A-3 05 . ... : ... .. . ... : ... .. . ...
ROW 21 : ... .. . ... ... : ... .. . ... : ... .. . ... : ... .. . ... : ... .. . ...
ROW 22 : ... .. . ... ... : ... .. . ... : ... .. . ... : ... .. . ... : ... .. . ...
ROW 23 : ... .. . ... ... : --- .. . ... : --- .. . ... : ... .. . ... : ... .. . ...
ROW 24 : C-3 10 . ... ... : D-2 17 . ... : A-4 03 . ... : ... .. . ... : ... .. . ...
ROW 25 : ... .. . ... ... : ... .. . ... : ... .. . ... : ... .. . ... : ... .. . ...
ROW 26 : E-3 10 . ... ... : ... .. . ... : ... .. . ... : ... .. . ... : ... .. . ...
ROW 27 : ... .. . ... ... : --- .. . ... : --- .. . ... : ... .. . ... : ... .. . ...
ROW 28 : G-3 10 . ... ... : D-2 0F . ... : D-5 03 . ... : ... .. . ... : ... .. . ...
ROW 29 : ... .. . ... ... : ... .. . ... : ... .. . ... : ... .. . ... : ... .. . ...
ROW 2A : ... .. . ... ... : ... .. . ... : ... .. . ... : ... .. . ... : ... .. . ...
ROW 2B : ... .. . ... ... : --- .. . ... : --- .. . ... : ... .. . ... : ... .. . ...
ROW 2C : ... .. . 466 ... : D-1 05 F ... : C-4 01 . ... : ... .. . ... : ... .. . ...
ROW 2D : ... .. . ... ... : ... .. . ... : D-2 05 . ... : ... .. . ... : ... .. . ...
ROW 2E : ... .. . ... ... : ... .. . ... : ... .. . ... : ... .. . ... : ... .. . ...
ROW 2F : --- .. . ... ... : --- .. . ... : --- .. . ... : ... .. . ... : ... .. . ...

PATTERN 1C
ROW 00 : A-3 10 8 400 ... : G-1 05 F ... : C-4 01 . ... : ... .. . ... : ... .. . ...
ROW 01 : ... .. . ... ... : ... .. . ... : G-2 05 . ... : ... .. . ... : ... .. . ...
ROW 02 : ... .. . ... ... : ... .. . ... : ... .. . ... : ... .. . ... : ... .. . ...
ROW 03 : ... .. . ... ... : --- .. . ... : --- .. . ... : ... .. . ... : ... .. . ...
ROW 04 : ... .. . ... ... : D-2 15 A ... : G-3 05 . ... : ... .. . ... : ... .. . ...
ROW 05 : ... .. . ... ... : ... .. . ... : ... .. . ... : ... .. . ... : ... .. . ...
ROW 06 : ... .. . ... ... : ... .. . ... : ... .. . ... : ... .. . ... : ... .. . ...
ROW 07 : ... .. . ... ... : --- .. . ... : --- .. . ... : ... .. . ... : ... .. . ...
ROW 08 : ... .. . QA5 ... : D-3 05 . ... : B-4 05 . ... : ... .. . ... : ... .. . ...
ROW 09 : ... .. . ... ... : ... .. . ... : ... .. . ... : ... .. . ... : ... .. . ...
ROW 0A : ... .. . ... ... : ... .. . ... : ... .. . ... : ... .. . ... : ... .. . ...
ROW 0B : --- .. . ... ... : --- .. . ... : --- .. . ... : ... .. . ... : ... .. . ...
ROW 0C : D-4 10 . ... ... : G-2 0B . ... : A#4 03 . ... : ... .. . ... : ... .. . ...
ROW 0D : ... .. . ... ... : ... .. . ... : ... .. . ... : ... .. . ... : ... .. . ...
ROW 0E : ... .. . ... ... : ... .. . ... : ... .. . ... : ... .. . ... : ... .. . ...
ROW 0F : ... .. . ... ... : ... .. . ... : --- .. . ... : ... .. . ... : ... .. . ...
ROW 10 : ... .. . 466 ... : G-2 11 . ... : C-4 01 . ... : ... .. . ... : ... .. . ...
ROW 11 : ... .. . ... ... : ... .. . ... : G-2 05 . ... : ... .. . ... : ... .. . ...
ROW 12 : ... .. . ... ... : ... .. . ... : ... .. . ... : ... .. . ... : ... .. . ...
ROW 13 : --- .. . ... ... : ... .. . ... : ... .. . ... : ... .. . ... : ... .. . ...
ROW 14 : D-4 10 4 400 ... : G-2 0C . ... : D-4 05 . ... : ... .. . ... : ... .. . ...
ROW 15 : ... .. . ... ... : ... .. . ... : ... .. . ... : ... .. . ... : ... .. . ...
ROW 16 : ... .. . ... ... : ... .. . ... : ... .. . ... : ... .. . ... : ... .. . ...
ROW 17 : --- .. . ... ... : --- .. . ... : --- .. . ... : ... .. . ... : ... .. . ...
ROW 18 : G-3 12 A 300 400 : G-1 05 F ... : C-4 01 . ... : ... .. . ... : ... .. . ...
ROW 19 : G#3 12 . ... ... : ... .. . ... : G-2 05 . ... : ... .. . ... : ... .. . ...
ROW 1A : A-3 12 . ... ... : ... .. . ... : ... .. . ... : ... .. . ... : ... .. . ...
ROW 1B : ... .. . ... ... : --- .. . ... : ... .. . ... : ... .. . ... : ... .. . ...
ROW 1C : ... .. . ... ... : G-2 0B A ... : D-4 05 . ... : ... .. . ... : ... .. . ...
ROW 1D : ... .. . ... ... : ... .. . ... : ... .. . ... : ... .. . ... : ... .. . ...
ROW 1E : ... .. . ... ... : ... .. . ... : ... .. . ... : ... .. . ... : ... .. . ...
ROW 1F : ... .. . ... ... : --- .. . ... : ... .. . ... : ... .. . ... : ... .. . ...
ROW 20 : D-3 12 . 400 ... : G-2 11 . ... : B-3 05 . 320 : ... .. . ... : ... .. . ...
ROW 21 : ... .. . ... ... : ... .. . ... : ... .. . ... : ... .. . ... : ... .. . ...
ROW 22 : ... .. . ... ... : ... .. . ... : ... .. . ... : ... .. . ... : ... .. . ...
ROW 23 : ... .. . ... ... : --- .. . ... : ... .. . ... : ... .. . ... : ... .. . ...
ROW 24 : ... .. . ... ... : G-1 05 A ... : C-4 01 . 300 : ... .. . ... : ... .. . ...
ROW 25 : ... .. . ... ... : ... .. . ... : G-2 05 . ... : ... .. . ... : ... .. . ...
ROW 26 : ... .. . ... ... : ... .. . ... : ... .. . ... : ... .. . ... : ... .. . ...
ROW 27 : --- .. . ... ... : --- .. . ... : ... .. . ... : ... .. . ... : ... .. . ...
ROW 28 : A-3 12 . 320 ... : G-2 0B . ... : D-4 05 . ... : ... .. . ... : ... .. . ...
ROW 29 : ... .. . ... ... : ... .. . ... : ... .. . ... : ... .. . ... : ... .. . ...
ROW 2A : ... .. . ... ... : ... .. . ... : ... .. . ... : ... .. . ... : ... .. . ...
ROW 2B : ... .. . ... ... : --- .. . ... : ... .. . ... : ... .. . ... : ... .. . ...
ROW 2C : ... .. . ... ... : A-1 05 A ... : A-2 05 . ... : ... .. . ... : ... .. . ...
ROW 2D : ... .. . ... ... : ... .. . ... : ... .. . ... : ... .. . ... : ... .. . ...
ROW 2E : ... .. . ... ... : ... .. . ... : ... .. . ... : ... .. . ... : ... .. . ...
ROW 2F : --- .. . ... ... : --- .. . ... : ... .. . ... : ... .. . ... : ... .. . ...

PATTERN 1D
ROW 00 : B-3 12 . ... ... : F-2 10 A ... : C-4 01 . 300 : ... .. . ... : ... .. . ...
ROW 01 : ... .. . ... ... : ... .. . ... : A#2 12 . ... : ... .. . ... : ... .. . ...
ROW 02 : C-4 12 . ... ... : F-2 10 4 ... : ... .. . ... : ... .. . ... : ... .. . ...
ROW 03 : ... .. . ... ... : ... .. . ... : --- .. . ... : ... .. . ... : ... .. . ...
ROW 04 : B-3 12 . ... ... : D-2 10 A ... : F-4 05 . ... : ... .. . ... : ... .. . ...
ROW 05 : ... .. . ... ... : ... .. . ... : ... .. . ... : ... .. . ... : ... .. . ...
ROW 06 : ... .. . ... ... : D-2 10 4 ... : ... .. . ... : ... .. . ... : ... .. . ...
ROW 07 : ... .. . ... ... : ... .. . ... : --- .. . ... : ... .. . ... : ... .. . ...
ROW 08 : ... .. . ... ... : C-2 10 A ... : D-5 05 . ... : ... .. . ... : ... .. . ...
ROW 09 : ... .. . ... ... : ... .. . ... : ... .. . ... : ... .. . ... : ... .. . ...
ROW 0A : ... .. . ... ... : C-2 10 4 ... : ... .. . ... : ... .. . ... : ... .. . ...
ROW 0B : ... .. . ... ... : ... .. . ... : --- .. . ... : ... .. . ... : ... .. . ...
ROW 0C : ... .. . ... ... : A#1 10 A ... : F-5 03 . ... : ... .. . ... : ... .. . ...
ROW 0D : ... .. . ... ... : ... .. . ... : ... .. . ... : ... .. . ... : ... .. . ...
ROW 0E : ... .. . ... ... : A#1 10 4 ... : ... .. . ... : ... .. . ... : ... .. . ...
ROW 0F : ... .. . ... ... : ... .. . ... : --- .. . ... : ... .. . ... : ... .. . ...
ROW 10 : ... .. . 468 A02 : A#2 10 A ... : A#5 03 . ... : ... .. . ... : ... .. . ...
ROW 11 : ... .. . ... ... : ... .. . ... : ... .. . ... : ... .. . ... : ... .. . ...
ROW 12 : ... .. . ... ... : A#2 10 4 ... : ... .. . ... : ... .. . ... : ... .. . ...
ROW 13 : ... .. . ... ... : ... .. . ... : --- .. . ... : ... .. . ... : ... .. . ...
ROW 14 : ... .. . ... ... : F-2 10 A ... : F-4 01 . ... : ... .. . ... : ... .. . ...
ROW 15 : ... .. . ... ... : ... .. . ... : A#2 05 . ... : ... .. . ... : ... .. . ...
ROW 16 : ... .. . ... ... : F-2 10 4 ... : ... .. . ... : ... .. . ... : ... .. . ...
ROW 17 : ... .. . ... ... : ... .. . ... : --- .. . ... : ... .. . ... : ... .. . ...
ROW 18 : ... .. . ... ... : F#2 10 A ... : C-4 01 . ... : ... .. . ... : ... .. . ...
ROW 19 : ... .. . ... ... : ... .. . ... : A-2 05 . ... : ... .. . ... : ... .. . ...
ROW 1A : ... .. . ... ... : F#2 10 4 ... : ... .. . ... : ... .. . ... : ... .. . ...
ROW 1B : ... .. . ... ... : ... .. . ... : ... .. . ... : ... .. . ... : ... .. . ...
ROW 1C : --- .. . 400 A00 : D-2 10 A ... : D-4 05 . ... : ... .. . ... : ... .. . ...
ROW 1D : ... .. . ... ... : ... .. . ... : ... .. . ... : ... .. . ... : ... .. . ...
ROW 1E : ... .. . ... ... : D-2 10 4 ... : ... .. . ... : ... .. . ... : ... .. . ...
ROW 1F : ... .. . ... ... : ... .. . ... : --- .. . ... : ... .. . ... : ... .. . ...
ROW 20 : ... .. . ... ... : F#2 10 A ... : F#5 05 . ... : ... .. . ... : ... .. . ...
ROW 21 : ... .. . ... ... : ... .. . ... : ... .. . ... : ... .. . ... : ... .. . ...
ROW 22 : ... .. . ... ... : F#2 10 4 ... : ... .. . ... : ... .. . ... : ... .. . ...
ROW 23 : ... .. . ... ... : ... .. . ... : --- .. . ... : ... .. . ... : ... .. . ...
ROW 24 : ... .. . ... ... : A-2 10 A ... : A-5 03 . ... : ... .. . ... : ... .. . ...
ROW 25 : ... .. . ... ... : ... .. . ... : ... .. . ... : ... .. . ... : ... .. . ...
ROW 26 : ... .. . ... ... : A-2 10 4 ... : ... .. . ... : ... .. . ... : ... .. . ...
ROW 27 : ... .. . ... ... : ... .. . ... : --- .. . ... : ... .. . ... : ... .. . ...
ROW 28 : G-3 12 A ... ... : C-3 10 A ... : C-6 03 . ... : ... .. . ... : ... .. . ...
ROW 29 : ... .. . ... ... : ... .. . ... : ... .. . ... : ... .. . ... : ... .. . ...
ROW 2A : ... .. . ... ... : C-3 10 4 ... : ... .. . ... : ... .. . ... : ... .. . ...
ROW 2B : ... .. . ... ... : ... .. . ... : --- .. . ... : ... .. . ... : ... .. . ...
ROW 2C : C-4 12 . ... ... : A-2 10 A ... : C-4 01 . ... : ... .. . ... : ... .. . ...
ROW 2D : ... .. . ... ... : ... .. . ... : A-2 05 . ... : ... .. . ... : ... .. . ...
ROW 2E : ... .. . ... ... : A-2 10 4 ... : ... .. . ... : ... .. . ... : ... .. . ...
ROW 2F : --- .. . ... ... : ... .. . ... : --- .. . ... : ... .. . ... : ... .. . ...

PATTERN 1E
ROW 00 : C-4 12 . ... ... : A#2 10 A ... : C-4 01 . 300 : ... .. . ... : ... .. . ...
ROW 01 : C#4 12 . ... ... : ... .. . ... : G-2 12 . ... : ... .. . ... : ... .. . ...
ROW 02 : D-4 12 . ... ... : A#2 10 4 ... : ... .. . ... : ... .. . ... : ... .. . ...
ROW 03 : ... .. . ... ... : ... .. . ... : --- .. . ... : ... .. . ... : ... .. . ...
ROW 04 : ... .. . ... ... : C-3 10 A ... : D-4 05 . ... : ... .. . ... : ... .. . ...
ROW 05 : ... .. . 220 ... : ... .. . ... : ... .. . ... : ... .. . ... : ... .. . ...
ROW 06 : ... .. . ... ... : C-3 10 4 ... : ... .. . ... : ... .. . ... : ... .. . ...
ROW 07 : --- .. . 200 ... : ... .. . ... : --- .. . ... : ... .. . ... : ... .. . ...
ROW 08 : F-3 12 . ... ... : D-3 10 A ... : A#4 05 . ... : ... .. . ... : ... .. . ...
ROW 09 : ... .. . ... ... : ... .. . ... : ... .. . ... : ... .. . ... : ... .. . ...
ROW 0A : ... .. . ... ... : D-3 10 4 ... : ... .. . ... : ... .. . ... : ... .. . ...
ROW 0B : --- .. . ... ... : ... .. . ... : --- .. . ... : ... .. . ... : ... .. . ...
ROW 0C : A#3 12 . ... ... : G-3 10 A ... : G-5 03 . ... : ... .. . ... : ... .. . ...
ROW 0D : ... .. . ... ... : ... .. . ... : ... .. . ... : ... .. . ... : ... .. . ...
ROW 0E : ... .. . ... ... : G-3 10 4 ... : ... .. . ... : ... .. . ... : ... .. . ...
ROW 0F : ... .. . ... ... : ... .. . ... : --- .. . ... : ... .. . ... : ... .. . ...
ROW 10 : ... .. . 466 ... : A#3 10 A ... : A#5 03 . ... : ... .. . ... : ... .. . ...
ROW 11 : ... .. . ... ... : ... .. . ... : ... .. . ... : ... .. . ... : ... .. . ...
ROW 12 : ... .. . ... ... : A#3 10 4 ... : ... .. . ... : ... .. . ... : ... .. . ...
ROW 13 : --- .. . ... ... : ... .. . ... : --- .. . ... : ... .. . ... : ... .. . ...
ROW 14 : D-4 12 . 400 ... : D-4 10 A ... : F-4 01 . ... : ... .. . ... : ... .. . ...
ROW 15 : ... .. . ... ... : ... .. . ... : G-2 05 . ... : ... .. . ... : ... .. . ...
ROW 16 : D#4 12 . ... ... : D-4 10 4 ... : ... .. . ... : ... .. . ... : ... .. . ...
ROW 17 : D-4 12 . ... ... : ... .. . ... : --- .. . ... : ... .. . ... : ... .. . ...
ROW 18 : C-4 12 . ... ... : A#3 10 A ... : C-4 01 . ... : ... .. . ... : ... .. . ...
ROW 19 : ... .. . ... ... : ... .. . ... : F-2 05 . ... : ... .. . ... : ... .. . ...
ROW 1A : ... .. . ... ... : A#3 10 4 ... : ... .. . ... : ... .. . ... : ... .. . ...
ROW 1B : ... .. . ... ... : ... .. . ... : ... .. . ... : ... .. . ... : ... .. . ...
ROW 1C : --- .. . ... ... : D-4 10 A ... : D-4 05 . ... : ... .. . ... : ... .. . ...
ROW 1D : ... .. . ... ... : ... .. . ... : ... .. . ... : ... .. . ... : ... .. . ...
ROW 1E : ... .. . ... ... : D-4 10 4 ... : ... .. . ... : ... .. . ... : ... .. . ...
ROW 1F : ... .. . ... ... : ... .. . ... : --- .. . ... : ... .. . ... : ... .. . ...
ROW 20 : A-3 12 . ... ... : G-4 10 A ... : G-5 05 . ... : ... .. . ... : ... .. . ...
ROW 21 : ... .. . ... ... : ... .. . ... : ... .. . ... : ... .. . ... : ... .. . ...
ROW 22 : ... .. . ... ... : G-4 10 4 ... : ... .. . ... : ... .. . ... : ... .. . ...
ROW 23 : --- .. . ... ... : ... .. . ... : --- .. . ... : ... .. . ... : ... .. . ...
ROW 24 : F#3 12 . ... ... : D-4 10 A ... : A#5 03 . ... : ... .. . ... : ... .. . ...
ROW 25 : ... .. . ... ... : ... .. . ... : ... .. . ... : ... .. . ... : ... .. . ...
ROW 26 : ... .. . ... ... : D-4 10 4 ... : ... .. . ... : ... .. . ... : ... .. . ...
ROW 27 : ... .. . ... ... : ... .. . ... : --- .. . ... : ... .. . ... : ... .. . ...
ROW 28 : ... .. . 466 ... : A#3 10 A ... : D-6 03 . ... : ... .. . ... : ... .. . ...
ROW 29 : ... .. . ... ... : ... .. . ... : ... .. . ... : ... .. . ... : ... .. . ...
ROW 2A : ... .. . ... ... : A#3 10 4 ... : ... .. . ... : ... .. . ... : ... .. . ...
ROW 2B : --- .. . ... ... : ... .. . ... : --- .. . ... : ... .. . ... : ... .. . ...
ROW 2C : C-4 12 . 400 ... : G-3 10 A ... : C-4 01 . ... : ... .. . ... : ... .. . ...
ROW 2D : ... .. . ... ... : ... .. . ... : F-2 05 . ... : ... .. . ... : ... .. . ...
ROW 2E : ... .. . ... ... : G-3 10 4 ... : ... .. . ... : ... .. . ... : ... .. . ...
ROW 2F : --- .. . ... ... : ... .. . ... : --- .. . ... : ... .. . ... : ... .. . ...

PATTERN 1F
ROW 00 : A#3 12 A ... ... : D-4 10 A ... : C-4 01 . 300 : ... .. . ... : ... .. . ...
ROW 01 : ... .. . ... ... : ... .. . ... : E-2 05 . ... : ... .. . ... : ... .. . ...
ROW 02 : ... .. . ... ... : D-4 10 4 ... : ... .. . ... : ... .. . ... : ... .. . ...
ROW 03 : ... .. . ... ... : ... .. . ... : --- .. . ... : ... .. . ... : ... .. . ...
ROW 04 : A-3 12 . ... ... : A#3 10 A ... : G-3 05 . ... : ... .. . ... : ... .. . ...
ROW 05 : ... .. . ... ... : ... .. . ... : ... .. . ... : ... .. . ... : ... .. . ...
ROW 06 : ... .. . ... ... : A#3 10 4 ... : ... .. . ... : ... .. . ... : ... .. . ...
ROW 07 : ... .. . ... ... : ... .. . ... : --- .. . ... : ... .. . ... : ... .. . ...
ROW 08 : G-3 12 . ... ... : G-3 10 A ... : D-5 05 . ... : ... .. . ... : ... .. . ...
ROW 09 : ... .. . ... ... : ... .. . ... : ... .. . ... : ... .. . ... : ... .. . ...
ROW 0A : ... .. . ... ... : G-3 10 4 ... : ... .. . ... : ... .. . ... : ... .. . ...
ROW 0B : --- .. . ... ... : ... .. . ... : --- .. . ... : ... .. . ... : ... .. . ...
ROW 0C : D-3 12 . ... ... : D-4 10 A ... : A#4 03 . ... : ... .. . ... : ... .. . ...
ROW 0D : ... .. . ... ... : ... .. . ... : ... .. . ... : ... .. . ... : ... .. . ...
ROW 0E : ... .. . ... ... : D-4 10 4 ... : ... .. . ... : ... .. . ... : ... .. . ...
ROW 0F : ... .. . ... ... : ... .. . ... : --- .. . ... : ... .. . ... : ... .. . ...
ROW 10 : ... .. . ... ... : A#3 10 A ... : C-4 01 . ... : ... .. . ... : ... .. . ...
ROW 11 : ... .. . ... ... : ... .. . ... : E-2 05 . ... : ... .. . ... : ... .. . ...
ROW 12 : ... .. . 466 ... : A#3 10 4 ... : ... .. . ... : ... .. . ... : ... .. . ...
ROW 13 : ... .. . ... ... : ... .. . ... : ... .. . ... : ... .. . ... : ... .. . ...
ROW 14 : ... .. . ... ... : G-3 10 A ... : G-4 05 . ... : ... .. . ... : ... .. . ...
ROW 15 : ... .. . ... ... : ... .. . ... : ... .. . ... : ... .. . ... : ... .. . ...
ROW 16 : ... .. . ... ... : G-3 10 4 ... : ... .. . ... : ... .. . ... : ... .. . ...
ROW 17 : --- .. . ... ... : ... .. . ... : --- .. . ... : ... .. . ... : ... .. . ...
ROW 18 : C-3 12 . 400 ... : D-4 10 A ... : C-4 01 . ... : ... .. . ... : ... .. . ...
ROW 19 : ... .. . ... ... : ... .. . ... : E-2 05 . ... : ... .. . ... : ... .. . ...
ROW 1A : ... .. . ... ... : D-4 10 4 ... : ... .. . ... : ... .. . ... : ... .. . ...
ROW 1B : ... .. . ... ... : ... .. . ... : ... .. . ... : ... .. . ... : ... .. . ...
ROW 1C : ... .. . ... ... : A#3 10 A ... : D-4 05 . ... : ... .. . ... : ... .. . ...
ROW 1D : ... .. . ... ... : ... .. . ... : ... .. . ... : ... .. . ... : ... .. . ...
ROW 1E : ... .. . ... ... : A#3 10 4 ... : ... .. . ... : ... .. . ... : ... .. . ...
ROW 1F : ... .. . ... ... : ... .. . ... : ... .. . ... : ... .. . ... : ... .. . ...
ROW 20 : ... .. . Q42 ... : D-4 10 A ... : A#3 05 . 320 : ... .. . ... : ... .. . ...
ROW 21 : ... .. . ... ... : ... .. . ... : ... .. . ... : ... .. . ... : ... .. . ...
ROW 22 : ... .. . ... ... : D-4 10 4 ... : ... .. . ... : ... .. . ... : ... .. . ...
ROW 23 : ... .. . ... ... : ... .. . ... : ... .. . ... : ... .. . ... : ... .. . ...
ROW 24 : ... .. . ... ... : A#3 10 A ... : C-4 01 . 300 : ... .. . ... : ... .. . ...
ROW 25 : ... .. . ... ... : ... .. . ... : E-2 05 . ... : ... .. . ... : ... .. . ...
ROW 26 : ... .. . ... ... : A#3 10 4 ... : ... .. . ... : ... .. . ... : ... .. . ...
ROW 27 : --- .. . ... ... : ... .. . ... : ... .. . ... : ... .. . ... : ... .. . ...
ROW 28 : G-3 12 . ... ... : G-3 10 A ... : G-3 05 . ... : ... .. . ... : ... .. . ...
ROW 29 : ... .. . ... ... : ... .. . ... : ... .. . ... : ... .. . ... : ... .. . ...
ROW 2A : ... .. . ... ... : G-3 10 4 ... : ... .. . ... : ... .. . ... : ... .. . ...
ROW 2B : ... .. . ... ... : ... .. . ... : ... .. . ... : ... .. . ... : ... .. . ...
ROW 2C : ... .. . ... ... : D-3 10 A ... : G-4 05 . 320 : ... .. . ... : ... .. . ...
ROW 2D : ... .. . ... ... : ... .. . ... : ... .. . ... : ... .. . ... : ... .. . ...
ROW 2E : ... .. . ... ... : D-3 10 4 ... : ... .. . ... : ... .. . ... : ... .. . ...
ROW 2F : ... .. . ... ... : ... .. . ... : ... .. . ... : ... .. . ... : ... .. . ...

PATTERN 20
ROW 00 : F-3 12 . ... ... : C#4 10 A ... : C-4 01 . 300 : ... .. . ... : ... .. . ...
ROW 01 : F#3 12 . ... ... : ... .. . ... : A-2 05 . ... : ... .. . ... : ... .. . ...
ROW 02 : G-3 12 . ... ... : C#4 10 4 ... : ... .. . ... : ... .. . ... : ... .. . ...
ROW 03 : ... .. . ... ... : ... .. . ... : --- .. . ... : ... .. . ... : ... .. . ...
ROW 04 : ... .. . ... ... : A-3 10 A ... : G-3 05 . ... : ... .. . ... : ... .. . ...
ROW 05 : ... .. . ... ... : ... .. . ... : ... .. . ... : ... .. . ... : ... .. . ...
ROW 06 : ... .. . ... ... : A-3 10 4 ... : ... .. . ... : ... .. . ... : ... .. . ...
ROW 07 : ... .. . ... ... : ... .. . ... : --- .. . ... : ... .. . ... : ... .. . ...
ROW 08 : ... .. . ... ... : G-3 10 A ... : C#5 05 . ... : ... .. . ... : ... .. . ...
ROW 09 : ... .. . ... ... : ... .. . ... : ... .. . ... : ... .. . ... : ... .. . ...
ROW 0A : ... .. . ... ... : G-3 10 4 ... : ... .. . ... : ... .. . ... : ... .. . ...
ROW 0B : ... .. . ... ... : ... .. . ... : --- .. . ... : ... .. . ... : ... .. . ...
ROW 0C : ... .. . ... ... : C#4 10 A ... : A-4 03 . ... : ... .. . ... : ... .. . ...
ROW 0D : ... .. . ... ... : ... .. . ... : ... .. . ... : ... .. . ... : ... .. . ...
ROW 0E : ... .. . ... ... : C#4 10 4 ... : ... .. . ... : ... .. . ... : ... .. . ...
ROW 0F : ... .. . ... ... : ... .. . ... : --- .. . ... : ... .. . ... : ... .. . ...
ROW 10 : ... .. . ... ... : A-3 10 A ... : C-4 01 . ... : ... .. . ... : ... .. . ...
ROW 11 : ... .. . ... ... : ... .. . ... : E-2 05 . ... : ... .. . ... : ... .. . ...
ROW 12 : ... .. . ... ... : A-3 10 4 ... : ... .. . ... : ... .. . ... : ... .. . ...
ROW 13 : ... .. . ... ... : ... .. . ... : ... .. . ... : ... .. . ... : ... .. . ...
ROW 14 : ... .. . 466 ... : G-3 10 A ... : G-4 05 . ... : ... .. . ... : ... .. . ...
ROW 15 : ... .. . ... ... : ... .. . ... : ... .. . ... : ... .. . ... : ... .. . ...
ROW 16 : ... .. . ... ... : G-3 10 4 ... : ... .. . ... : ... .. . ... : ... .. . ...
ROW 17 : ... .. . ... ... : ... .. . ... : --- .. . ... : ... .. . ... : ... .. . ...
ROW 18 : ... .. . ... ... : C#4 10 A ... : C-4 01 . ... : ... .. . ... : ... .. . ...
ROW 19 : ... .. . ... ... : ... .. . ... : A-2 05 . ... : ... .. . ... : ... .. . ...
ROW 1A : ... .. . ... ... : C#4 10 4 ... : ... .. . ... : ... .. . ... : ... .. . ...
ROW 1B : ... .. . ... ... : ... .. . ... : ... .. . ... : ... .. . ... : ... .. . ...
ROW 1C : ... .. . ... ... : A-3 10 A ... : C#4 05 . ... : ... .. . ... : ... .. . ...
ROW 1D : ... .. . ... ... : ... .. . ... : ... .. . ... : ... .. . ... : ... .. . ...
ROW 1E : ... .. . ... ... : A-3 10 4 ... : ... .. . ... : ... .. . ... : ... .. . ...
ROW 1F : ... .. . ... ... : ... .. . ... : ... .. . ... : ... .. . ... : ... .. . ...
ROW 20 : ... .. . ... ... : C#4 10 A ... : G-3 05 . 320 : ... .. . ... : ... .. . ...
ROW 21 : ... .. . ... ... : ... .. . ... : ... .. . ... : ... .. . ... : ... .. . ...
ROW 22 : ... .. . ... ... : C#4 10 4 ... : ... .. . ... : ... .. . ... : ... .. . ...
ROW 23 : ... .. . ... ... : ... .. . ... : ... .. . ... : ... .. . ... : ... .. . ...
ROW 24 : ... .. . ... ... : A-3 10 A ... : C-4 01 . 300 : ... .. . ... : ... .. . ...
ROW 25 : ... .. . ... ... : ... .. . ... : E-2 05 . ... : ... .. . ... : ... .. . ...
ROW 26 : ... .. . ... ... : A-3 10 4 ... : ... .. . ... : ... .. . ... : ... .. . ...
ROW 27 : --- .. . ... ... : ... .. . ... : ... .. . ... : ... .. . ... : ... .. . ...
ROW 28 : A-3 12 . 400 ... : G-3 10 A ... : G-3 05 . ... : ... .. . ... : ... .. . ...
ROW 29 : ... .. . ... ... : ... .. . ... : ... .. . ... : ... .. . ... : ... .. . ...
ROW 2A : ... .. . ... ... : G-3 10 4 ... : ... .. . ... : ... .. . ... : ... .. . ...
ROW 2B : ... .. . ... ... : ... .. . ... : ... .. . ... : ... .. . ... : ... .. . ...
ROW 2C : A#3 12 . ... ... : E-3 10 A ... : C#4 05 . 340 : ... .. . ... : ... .. . ...
ROW 2D : ... .. . ... ... : ... .. . ... : ... .. . ... : ... .. . ... : ... .. . ...
ROW 2E : ... .. . ... ... : E-3 10 4 ... : ... .. . ... : ... .. . ... : ... .. . ...
ROW 2F : --- .. . ... ... : ... .. . ... : ... .. . ... : ... .. . ... : ... .. . ...

PATTERN 21
ROW 00 : A-3 12 . ... ... : D-4 10 A ... : C-4 01 . 300 : ... .. . ... : ... .. . ...
ROW 01 : ... .. . ... ... : ... .. . ... : D-2 05 . ... : ... .. . ... : ... .. . ...
ROW 02 : ... .. . ... ... : D-4 10 4 ... : ... .. . ... : ... .. . ... : ... .. . ...
ROW 03 : ... .. . ... ... : ... .. . ... : --- .. . ... : ... .. . ... : ... .. . ...
ROW 04 : ... .. . ... ... : A-3 10 A ... : G-3 05 . ... : ... .. . ... : ... .. . ...
ROW 05 : ... .. . ... ... : ... .. . ... : ... .. . ... : ... .. . ... : ... .. . ...
ROW 06 : ... .. . ... ... : A-3 10 4 ... : ... .. . ... : ... .. . ... : ... .. . ...
ROW 07 : ... .. . ... ... : ... .. . ... : --- .. . ... : ... .. . ... : ... .. . ...
ROW 08 : C#4 12 . 310 ... : G-3 10 A ... : D-5 05 . ... : ... .. . ... : ... .. . ...
ROW 09 : ... .. . ... ... : ... .. . ... : ... .. . ... : ... .. . ... : ... .. . ...
ROW 0A : ... .. . ... ... : G-3 10 4 ... : ... .. . ... : ... .. . ... : ... .. . ...
ROW 0B : ... .. . ... ... : ... .. . ... : --- .. . ... : ... .. . ... : ... .. . ...
ROW 0C : ... .. . ... ... : D-4 10 A ... : A-4 03 . ... : ... .. . ... : ... .. . ...
ROW 0D : ... .. . ... ... : ... .. . ... : ... .. . ... : ... .. . ... : ... .. . ...
ROW 0E : ... .. . ... ... : D-4 10 4 ... : ... .. . ... : ... .. . ... : ... .. . ...
ROW 0F : --- .. . ... ... : ... .. . ... : --- .. . ... : ... .. . ... : ... .. . ...
ROW 10 : E-4 12 . ... ... : A-3 10 A ... : C-4 01 . ... : ... .. . ... : ... .. . ...
ROW 11 : ... .. . ... ... : ... .. . ... : D-2 05 . ... : ... .. . ... : ... .. . ...
ROW 12 : ... .. . ... ... : A-3 10 4 ... : ... .. . ... : ... .. . ... : ... .. . ...
ROW 13 : ... .. . ... ... : ... .. . ... : ... .. . ... : ... .. . ... : ... .. . ...
ROW 14 : ... .. . 488 ... : G-3 10 A ... : G-4 05 . ... : ... .. . ... : ... .. . ...
ROW 15 : ... .. . ... ... : ... .. . ... : ... .. . ... : ... .. . ... : ... .. . ...
ROW 16 : ... .. . ... ... : G-3 10 4 ... : ... .. . ... : ... .. . ... : ... .. . ...
ROW 17 : --- .. . ... ... : ... .. . ... : --- .. . ... : ... .. . ... : ... .. . ...
ROW 18 : G-4 12 . 400 ... : D-4 10 A ... : C-4 01 . ... : ... .. . ... : ... .. . ...
ROW 19 : ... .. . ... ... : ... .. . ... : D-2 05 . ... : ... .. . ... : ... .. . ...
ROW 1A : ... .. . ... ... : D-4 10 4 ... : ... .. . ... : ... .. . ... : ... .. . ...
ROW 1B : ... .. . ... ... : ... .. . ... : ... .. . ... : ... .. . ... : ... .. . ...
ROW 1C : ... .. . 220 ... : A-3 10 A ... : D-4 05 . ... : ... .. . ... : ... .. . ...
ROW 1D : ... .. . ... ... : ... .. . ... : ... .. . ... : ... .. . ... : ... .. . ...
ROW 1E : ... .. . ... ... : A-3 10 4 ... : ... .. . ... : ... .. . ... : ... .. . ...
ROW 1F : ... .. . ... ... : ... .. . ... : ... .. . ... : ... .. . ... : ... .. . ...
ROW 20 : --- 10 . 200 ... : D-4 10 A ... : A-3 05 . 320 : ... .. . ... : ... .. . ...
ROW 21 : ... .. . ... ... : ... .. . ... : ... .. . ... : ... .. . ... : ... .. . ...
ROW 22 : ... .. . ... ... : D-4 10 4 ... : ... .. . ... : ... .. . ... : ... .. . ...
ROW 23 : ... .. . ... ... : ... .. . ... : ... .. . ... : ... .. . ... : ... .. . ...
ROW 24 : ... .. . ... ... : A-3 10 A ... : C-4 01 . 300 : ... .. . ... : ... .. . ...
ROW 25 : ... .. . ... ... : ... .. . ... : D-2 05 . ... : ... .. . ... : ... .. . ...
ROW 26 : ... .. . ... ... : A-3 10 4 ... : ... .. . ... : ... .. . ... : ... .. . ...
ROW 27 : ... .. . ... ... : ... .. . ... : ... .. . ... : ... .. . ... : ... .. . ...
ROW 28 : A-4 12 . ... ... : G-3 10 A ... : G-3 05 . ... : ... .. . ... : ... .. . ...
ROW 29 : ... .. . ... ... : ... .. . ... : ... .. . ... : ... .. . ... : ... .. . ...
ROW 2A : ... .. . ... ... : G-3 10 4 ... : ... .. . ... : ... .. . ... : ... .. . ...
ROW 2B : ... .. . ... ... : ... .. . ... : ... .. . ... : ... .. . ... : ... .. . ...
ROW 2C : G-4 12 . ... ... : E-3 10 A ... : A-4 05 . 330 : ... .. . ... : ... .. . ...
ROW 2D : ... .. . ... ... : ... .. . ... : ... .. . ... : ... .. . ... : ... .. . ...
ROW 2E : ... .. . ... ... : E-3 10 4 ... : ... .. . ... : ... .. . ... : ... .. . ...
ROW 2F : ... .. . ... ... : ... .. . ... : ... .. . ... : ... .. . ... : ... .. . ...

PATTERN 22
ROW 00 : F#4 12 . ... ... : D-4 10 A ... : C-4 01 . 300 : ... .. . ... : ... .. . ...
ROW 01 : ... .. . ... ... : ... .. . ... : D-2 05 . ... : ... .. . ... : ... .. . ...
ROW 02 : ... .. . ... ... : D-4 10 4 ... : ... .. . ... : ... .. . ... : ... .. . ...
ROW 03 : ... .. . ... ... : ... .. . ... : --- .. . ... : ... .. . ... : ... .. . ...
ROW 04 : ... .. . ... ... : A-3 10 A ... : F#3 05 . ... : ... .. . ... : ... .. . ...
ROW 05 : ... .. . ... ... : ... .. . ... : ... .. . ... : ... .. . ... : ... .. . ...
ROW 06 : ... .. . ... ... : A-3 10 4 ... : ... .. . ... : ... .. . ... : ... .. . ...
ROW 07 : ... .. . ... ... : ... .. . ... : --- .. . ... : ... .. . ... : ... .. . ...
ROW 08 : D-4 12 . 304 ... : F#3 10 A ... : D-5 05 . ... : ... .. . ... : ... .. . ...
ROW 09 : ... .. . ... ... : ... .. . ... : ... .. . ... : ... .. . ... : ... .. . ...
ROW 0A : ... .. . ... ... : F#3 10 4 ... : ... .. . ... : ... .. . ... : ... .. . ...
ROW 0B : ... .. . ... ... : ... .. . ... : --- .. . ... : ... .. . ... : ... .. . ...
ROW 0C : ... .. . ... ... : D-4 10 A ... : A-4 03 . ... : ... .. . ... : ... .. . ...
ROW 0D : ... .. . ... ... : ... .. . ... : ... .. . ... : ... .. . ... : ... .. . ...
ROW 0E : ... .. . ... ... : D-4 10 4 ... : ... .. . ... : ... .. . ... : ... .. . ...
ROW 0F : ... .. . ... ... : ... .. . ... : --- .. . ... : ... .. . ... : ... .. . ...
ROW 10 : ... .. . ... ... : A-3 10 A ... : C-4 01 . ... : ... .. . ... : ... .. . ...
ROW 11 : ... .. . ... ... : ... .. . ... : D-2 05 . ... : ... .. . ... : ... .. . ...
ROW 12 : ... .. . ... ... : A-3 10 4 ... : ... .. . ... : ... .. . ... : ... .. . ...
ROW 13 : ... .. . ... ... : ... .. . ... : ... .. . ... : ... .. . ... : ... .. . ...
ROW 14 : ... .. . 466 ... : F#3 10 A ... : F#4 05 . ... : ... .. . ... : ... .. . ...
ROW 15 : ... .. . ... ... : ... .. . ... : ... .. . ... : ... .. . ... : ... .. . ...
ROW 16 : ... .. . ... ... : F#3 10 4 ... : ... .. . ... : ... .. . ... : ... .. . ...
ROW 17 : ... .. . ... ... : ... .. . ... : --- .. . ... : ... .. . ... : ... .. . ...
ROW 18 : ... .. . ... ... : D-4 10 A ... : C-4 01 . ... : ... .. . ... : ... .. . ...
ROW 19 : ... .. . ... ... : ... .. . ... : D-2 05 . ... : ... .. . ... : ... .. . ...
ROW 1A : ... .. . ... ... : ... .. . ... : ... .. . ... : ... .. . ... : ... .. . ...
ROW 1B : ... .. . ... ... : ... .. . ... : ... .. . ... : ... .. . ... : ... .. . ...
ROW 1C : ... .. . ... ... : --- 10 . ... : D-4 05 . ... : ... .. . ... : ... .. . ...
ROW 1D : ... .. . ... ... : ... .. . ... : ... .. . ... : ... .. . ... : ... .. . ...
ROW 1E : ... .. . ... ... : ... .. . ... : ... .. . ... : ... .. . ... : ... .. . ...
ROW 1F : ... .. . ... ... : ... .. . ... : ... .. . ... : ... .. . ... : ... .. . ...
ROW 20 : ... .. . ... ... : D-4 10 8 ... : C-4 01 . ... : ... .. . ... : ... .. . ...
ROW 21 : ... .. . ... ... : ... .. . ... : D-2 05 . ... : ... .. . ... : ... .. . ...
ROW 22 : ... .. . ... ... : ... .. . ... : ... .. . ... : ... .. . ... : ... .. . ...
ROW 23 : ... .. . ... ... : ... .. . ... : ... .. . ... : ... .. . ... : ... .. . ...
ROW 24 : ... .. . ... A02 : --- 10 . ... : D-4 05 . ... : ... .. . ... : ... .. . ...
ROW 25 : ... .. . ... ... : ... .. . ... : ... .. . ... : ... .. . ... : ... .. . ...
ROW 26 : ... .. . ... ... : ... .. . ... : ... .. . ... : ... .. . ... : ... .. . ...
ROW 27 : ... .. . ... ... : ... .. . ... : ... .. . ... : ... .. . ... : ... .. . ...
ROW 28 : ... .. . ... ... : D-4 10 4 ... : C-4 01 . ... : ... .. . ... : ... .. . ...
ROW 29 : ... .. . ... ... : ... .. . ... : D-2 05 . ... : ... .. . ... : ... .. . ...
ROW 2A : ... .. . ... ... : ... .. . ... : ... .. . ... : ... .. . ... : ... .. . ...
ROW 2B : ... .. . ... ... : ... .. . ... : ... .. . ... : ... .. . ... : ... .. . ...
ROW 2C : ... .. . ... ... : --- 10 . ... : D-4 05 . ... : ... .. . ... : ... .. . ...
ROW 2D : ... .. . ... ... : ... .. . ... : ... .. . ... : ... .. . ... : ... .. . ...
ROW 2E : ... .. . ... ... : ... .. . ... : ... .. . ... : ... .. . ... : ... .. . ...
ROW 2F : ... .. . ... ... : ... .. . ... : ... .. . ... : ... .. . ... : ... .. . ...

PATTERN 23
ROW 00 : --- .. . 400 A00 : E-1 05 F ... : C-4 01 . 100 : ... .. . ... : ... .. . ...
ROW 01 : ... .. . ... ... : ... .. . ... : E-2 19 . ... : ... .. . ... : ... .. . ...
ROW 02 : ... .. . ... ... : ... .. . ... : B-4 03 . ... : ... .. . ... : ... .. . ...
ROW 03 : ... .. . ... ... : --- .. . ... : ... .. . ... : ... .. . ... : ... .. . ...
ROW 04 : ... .. . ... ... : E-1 05 . ... : D-4 01 . ... : ... .. . ... : ... .. . ...
ROW 05 : ... .. . ... ... : ... .. . ... : E-2 19 . ... : ... .. . ... : ... .. . ...
ROW 06 : ... .. . ... ... : ... .. . ... : B-4 03 . ... : ... .. . ... : ... .. . ...
ROW 07 : ... .. . ... ... : --- .. . ... : ... .. . ... : ... .. . ... : ... .. . ...
ROW 08 : ... .. . ... ... : ... .. . ... : E-5 03 . ... : ... .. . ... : ... .. . ...
ROW 09 : ... .. . ... ... : ... .. . ... : ... .. . ... : ... .. . ... : ... .. . ...
ROW 0A : ... .. . ... ... : ... .. . ... : G-5 03 . ... : ... .. . ... : ... .. . ...
ROW 0B : ... .. . ... ... : ... .. . ... : ... .. . ... : ... .. . ... : ... .. . ...
ROW 0C : ... .. . ... ... : E-1 05 . ... : C-4 01 . ... : ... .. . ... : ... .. . ...
ROW 0D : ... .. . ... ... : ... .. . ... : E-2 19 . ... : ... .. . ... : ... .. . ...
ROW 0E : ... .. . ... ... : ... .. . ... : E-6 03 . ... : ... .. . ... : ... .. . ...
ROW 0F : ... .. . ... ... : --- .. . ... : ... .. . ... : ... .. . ... : ... .. . ...
ROW 10 : ... .. . ... ... : ... .. . ... : G-6 03 . ... : ... .. . ... : ... .. . ...
ROW 11 : ... .. . ... ... : ... .. . ... : ... .. . ... : ... .. . ... : ... .. . ...
ROW 12 : ... .. . ... ... : ... .. . ... : E-6 03 . ... : ... .. . ... : ... .. . ...
ROW 13 : ... .. . ... ... : ... .. . ... : ... .. . ... : ... .. . ... : ... .. . ...
ROW 14 : ... .. . ... ... : D-1 05 . ... : D-4 01 . ... : ... .. . ... : ... .. . ...
ROW 15 : ... .. . ... ... : ... .. . ... : D-2 19 . ... : ... .. . ... : ... .. . ...
ROW 16 : ... .. . ... ... : ... .. . ... : E-6 03 . ... : ... .. . ... : ... .. . ...
ROW 17 : ... .. . ... ... : --- .. . ... : ... .. . ... : ... .. . ... : ... .. . ...
ROW 18 : ... .. . ... ... : E-1 05 . ... : C-4 01 . ... : ... .. . ... : ... .. . ...
ROW 19 : ... .. . ... ... : ... .. . ... : E-2 19 . ... : ... .. . ... : ... .. . ...
ROW 1A : ... .. . ... ... : ... .. . ... : A-5 03 . ... : ... .. . ... : ... .. . ...
ROW 1B : ... .. . ... ... : --- .. . ... : ... .. . ... : ... .. . ... : ... .. . ...
ROW 1C : ... .. . ... ... : ... .. . ... : G-5 03 . ... : ... .. . ... : ... .. . ...
ROW 1D : ... .. . ... ... : ... .. . ... : ... .. . ... : ... .. . ... : ... .. . ...
ROW 1E : ... .. . ... ... : ... .. . ... : E-5 03 . ... : ... .. . ... : ... .. . ...
ROW 1F : ... .. . ... ... : ... .. . ... : ... .. . ... : ... .. . ... : ... .. . ...
ROW 20 : ... .. . ... ... : A-1 05 . ... : D-4 01 . ... : ... .. . ... : ... .. . ...
ROW 21 : ... .. . ... ... : ... .. . ... : A-2 19 . ... : ... .. . ... : ... .. . ...
ROW 22 : ... .. . ... ... : ... .. . ... : E-5 03 . ... : ... .. . ... : ... .. . ...
ROW 23 : ... .. . ... ... : --- .. . ... : ... .. . ... : ... .. . ... : ... .. . ...
ROW 24 : D-3 18 6 ... ... : A-1 05 7 ... : D-5 03 . ... : ... .. . ... : ... .. . ...
ROW 25 : ... .. . ... ... : ... .. . ... : ... .. . ... : ... .. . ... : ... .. . ...
ROW 26 : F#3 18 6 ... ... : ... .. . ... : E-5 03 . ... : ... .. . ... : ... .. . ...
ROW 27 : ... .. . ... ... : --- .. . ... : ... .. . ... : ... .. . ... : ... .. . ...
ROW 28 : A-3 18 8 ... ... : A-1 05 5 ... : B-4 03 . ... : ... .. . ... : ... .. . ...
ROW 29 : ... .. . ... ... : ... .. . ... : ... .. . ... : ... .. . ... : ... .. . ...
ROW 2A : C-4 18 8 ... ... : ... .. . ... : A-4 03 . ... : ... .. . ... : ... .. . ...
ROW 2B : ... .. . ... ... : --- .. . ... : ... .. . ... : ... .. . ... : ... .. . ...
ROW 2C : D-4 18 A ... ... : A-1 05 2 ... : G-4 03 . ... : ... .. . ... : ... .. . ...
ROW 2D : ... .. . ... ... : ... .. . ... : ... .. . ... : ... .. . ... : ... .. . ...
ROW 2E : F#4 18 A ... ... : ... .. . ... : E-4 03 . ... : ... .. . ... : ... .. . ...
ROW 2F : ... .. . ... ... : ... .. . ... : ... .. . ... : ... .. . ... : ... .. . ...

PATTERN 24
ROW 00 : G-2 08 F ... ... : --- .. . ... : G-4 03 . 100 : ... .. . ... : ... .. . ...
ROW 01 : ... .. . ... ... : ... .. . ... : ... .. . ... : ... .. . ... : ... .. . ...
ROW 02 : ... .. . ... ... : ... .. . ... : B-4 03 . ... : ... .. . ... : ... .. . ...
ROW 03 : ... .. . ... ... : ... .. . ... : ... .. . ... : ... .. . ... : ... .. . ...
ROW 04 : E-3 0F . ... ... : E-1 05 F ... : C-4 01 . ... : ... .. . ... : ... .. . ...
ROW 05 : ... .. . ... ... : ... .. . ... : E-2 19 . ... : ... .. . ... : ... .. . ...
ROW 06 : ... .. . ... ... : ... .. . ... : B-4 03 . ... : ... .. . ... : ... .. . ...
ROW 07 : ... .. . ... ... : --- .. . ... : ... .. . ... : ... .. . ... : ... .. . ...
ROW 08 : --- .. . ... ... : ... .. . ... : E-5 03 . ... : ... .. . ... : ... .. . ...
ROW 09 : ... .. . ... ... : ... .. . ... : ... .. . ... : ... .. . ... : ... .. . ...
ROW 0A : ... .. . ... ... : ... .. . ... : G-5 03 . ... : ... .. . ... : ... .. . ...
ROW 0B : ... .. . ... ... : ... .. . ... : ... .. . ... : ... .. . ... : ... .. . ...
ROW 0C : E-3 0F . ... ... : E-1 05 . ... : C-4 01 . ... : ... .. . ... : ... .. . ...
ROW 0D : ... .. . ... ... : ... .. . ... : E-2 19 . ... : ... .. . ... : ... .. . ...
ROW 0E : ... .. . ... ... : ... .. . ... : E-6 03 . ... : ... .. . ... : ... .. . ...
ROW 0F : ... .. . ... ... : --- .. . ... : ... .. . ... : ... .. . ... : ... .. . ...
ROW 10 : --- .. . ... ... : ... .. . ... : G-6 03 . ... : ... .. . ... : ... .. . ...
ROW 11 : ... .. . ... ... : ... .. . ... : ... .. . ... : ... .. . ... : ... .. . ...
ROW 12 : ... .. . ... ... : ... .. . ... : E-6 03 . ... : ... .. . ... : ... .. . ...
ROW 13 : ... .. . ... ... : ... .. . ... : ... .. . ... : ... .. . ... : ... .. . ...
ROW 14 : D-3 0B . ... ... : E-1 05 . ... : D-4 01 . ... : ... .. . ... : ... .. . ...
ROW 15 : ... .. . ... ... : ... .. . ... : E-2 19 . ... : ... .. . ... : ... .. . ...
ROW 16 : ... .. . ... ... : ... .. . ... : E-6 03 . ... : ... .. . ... : ... .. . ...
ROW 17 : --- .. . ... ... : --- .. . ... : ... .. . ... : ... .. . ... : ... .. . ...
ROW 18 : E-3 0F . ... ... : D-1 05 . ... : C-4 01 . ... : ... .. . ... : ... .. . ...
ROW 19 : ... .. . ... ... : ... .. . ... : D-2 19 . ... : ... .. . ... : ... .. . ...
ROW 1A : ... .. . ... ... : ... .. . ... : A-5 03 . ... : ... .. . ... : ... .. . ...
ROW 1B : ... .. . ... ... : --- .. . ... : ... .. . ... : ... .. . ... : ... .. . ...
ROW 1C : --- .. . ... ... : E-1 05 . ... : C-4 01 . ... : ... .. . ... : ... .. . ...
ROW 1D : ... .. . ... ... : ... .. . ... : E-2 19 . ... : ... .. . ... : ... .. . ...
ROW 1E : ... .. . ... ... : ... .. . ... : E-5 03 . ... : ... .. . ... : ... .. . ...
ROW 1F : ... .. . ... ... : --- .. . ... : ... .. . ... : ... .. . ... : ... .. . ...
ROW 20 : A-3 0B . ... ... : A-1 05 . ... : C-4 01 . ... : ... .. . ... : ... .. . ...
ROW 21 : ... .. . ... ... : ... .. . ... : A-2 19 . ... : ... .. . ... : ... .. . ...
ROW 22 : ... .. . ... ... : ... .. . ... : E-5 03 . ... : ... .. . ... : ... .. . ...
ROW 23 : --- .. . ... ... : --- .. . ... : ... .. . ... : ... .. . ... : ... .. . ...
ROW 24 : A-3 0B 6 ... ... : A-1 05 7 ... : D-5 03 . ... : ... .. . ... : ... .. . ...
ROW 25 : ... .. . ... ... : ... .. . ... : ... .. . ... : ... .. . ... : ... .. . ...
ROW 26 : ... .. . ... ... : ... .. . ... : E-5 03 . ... : ... .. . ... : ... .. . ...
ROW 27 : --- .. . ... ... : --- .. . ... : ... .. . ... : ... .. . ... : ... .. . ...
ROW 28 : A-3 0A 6 ... ... : A-1 05 5 ... : B-4 03 . ... : ... .. . ... : ... .. . ...
ROW 29 : ... .. . ... ... : ... .. . ... : ... .. . ... : ... .. . ... : ... .. . ...
ROW 2A : ... .. 8 ... ... : ... .. . ... : A-4 03 . ... : ... .. . ... : ... .. . ...
ROW 2B : ... .. . ... ... : --- .. . ... : ... .. . ... : ... .. . ... : ... .. . ...
ROW 2C : ... .. A ... ... : A-1 05 2 ... : G-4 03 . ... : ... .. . ... : ... .. . ...
ROW 2D : ... .. . ... ... : ... .. . ... : ... .. . ... : ... .. . ... : ... .. . ...
ROW 2E : ... .. C ... ... : ... .. . ... : E-4 03 . ... : ... .. . ... : ... .. . ...
ROW 2F : ... .. . ... ... : ... .. . ... : ... .. . ... : ... .. . ... : ... .. . ...

PATTERN 25
ROW 00 : --- .. . ... ... : G-1 05 F ... : C#4 01 . ... : ... .. . ... : ... .. . ...
ROW 01 : ... .. . ... ... : ... .. . ... : G-2 19 . ... : ... .. . ... : ... .. . ...
ROW 02 : ... .. . ... ... : ... .. . ... : D-5 03 . ... : ... .. . ... : ... .. . ...
ROW 03 : ... .. . ... ... : --- .. . ... : ... .. . ... : ... .. . ... : ... .. . ...
ROW 04 : E-3 0F F ... ... : G-1 05 . ... : F-4 01 . ... : ... .. . ... : ... .. . ...
ROW 05 : ... .. . ... ... : ... .. . ... : G-2 19 . ... : ... .. . ... : ... .. . ...
ROW 06 : ... .. . ... ... : ... .. . ... : D-5 03 . ... : ... .. . ... : ... .. . ...
ROW 07 : --- .. . ... ... : --- .. . ... : ... .. . ... : ... .. . ... : ... .. . ...
ROW 08 : ... .. . ... ... : ... .. . ... : G-5 03 . ... : ... .. . ... : ... .. . ...
ROW 09 : ... .. . ... ... : ... .. . ... : ... .. . ... : ... .. . ... : ... .. . ...
ROW 0A : ... .. . ... ... : ... .. . ... : A#5 03 . ... : ... .. . ... : ... .. . ...
ROW 0B : ... .. . ... ... : ... .. . ... : ... .. . ... : ... .. . ... : ... .. . ...
ROW 0C : E-3 0F . ... ... : G-1 05 . ... : C#4 01 . ... : ... .. . ... : ... .. . ...
ROW 0D : ... .. . ... ... : ... .. . ... : G-2 19 . ... : ... .. . ... : ... .. . ...
ROW 0E : ... .. . ... ... : ... .. . ... : G-6 03 . ... : ... .. . ... : ... .. . ...
ROW 0F : --- .. . ... ... : --- .. . ... : ... .. . ... : ... .. . ... : ... .. . ...
ROW 10 : ... .. . ... ... : ... .. . ... : A#6 03 . ... : ... .. . ... : ... .. . ...
ROW 11 : ... .. . ... ... : ... .. . ... : ... .. . ... : ... .. . ... : ... .. . ...
ROW 12 : ... .. . ... ... : ... .. . ... : G-6 03 . ... : ... .. . ... : ... .. . ...
ROW 13 : ... .. . ... ... : ... .. . ... : ... .. . ... : ... .. . ... : ... .. . ...
ROW 14 : E-3 0F . ... ... : F-1 05 . ... : F-4 01 . ... : ... .. . ... : ... .. . ...
ROW 15 : ... .. . ... ... : ... .. . ... : F-2 19 . ... : ... .. . ... : ... .. . ...
ROW 16 : ... .. . ... ... : ... .. . ... : G-6 03 . ... : ... .. . ... : ... .. . ...
ROW 17 : --- .. . ... ... : --- .. . ... : ... .. . ... : ... .. . ... : ... .. . ...
ROW 18 : D-3 0B . ... ... : G-1 05 . ... : C#4 01 . ... : ... .. . ... : ... .. . ...
ROW 19 : ... .. . ... ... : ... .. . ... : G-2 19 . ... : ... .. . ... : ... .. . ...
ROW 1A : ... .. . ... ... : ... .. . ... : C-6 03 . ... : ... .. . ... : ... .. . ...
ROW 1B : --- .. . ... ... : --- .. . ... : ... .. . ... : ... .. . ... : ... .. . ...
ROW 1C : E-3 0F . ... ... : ... .. . ... : A#5 03 . ... : ... .. . ... : ... .. . ...
ROW 1D : ... .. . ... ... : ... .. . ... : ... .. . ... : ... .. . ... : ... .. . ...
ROW 1E : ... .. . ... ... : ... .. . ... : G-5 03 . ... : ... .. . ... : ... .. . ...
ROW 1F : ... .. . ... ... : ... .. . ... : ... .. . ... : ... .. . ... : ... .. . ...
ROW 20 : A-3 09 A ... ... : C-2 05 . ... : C#4 01 . ... : ... .. . ... : ... .. . ...
ROW 21 : ... .. . ... ... : ... .. . ... : C-3 19 . ... : ... .. . ... : ... .. . ...
ROW 22 : ... .. . ... ... : ... .. . ... : G-5 03 . ... : ... .. . ... : ... .. . ...
ROW 23 : ... .. . ... ... : --- .. . ... : ... .. . ... : ... .. . ... : ... .. . ...
ROW 24 : ... .. . ... ... : C-2 05 7 ... : F-5 03 . ... : ... .. . ... : ... .. . ...
ROW 25 : ... .. . ... ... : ... .. . ... : ... .. . ... : ... .. . ... : ... .. . ...
ROW 26 : ... .. . ... ... : ... .. . ... : G-5 03 . ... : ... .. . ... : ... .. . ...
ROW 27 : ... .. . ... ... : --- .. . ... : ... .. . ... : ... .. . ... : ... .. . ...
ROW 28 : ... .. . ... ... : C-2 05 5 ... : D-5 03 . ... : ... .. . ... : ... .. . ...
ROW 29 : ... .. . ... ... : ... .. . ... : ... .. . ... : ... .. . ... : ... .. . ...
ROW 2A : ... .. . ... ... : ... .. . ... : C-5 03 . ... : ... .. . ... : ... .. . ...
ROW 2B : ... .. . ... ... : --- .. . ... : ... .. . ... : ... .. . ... : ... .. . ...
ROW 2C : ... .. . ... ... : C-2 05 2 ... : A#4 03 . ... : ... .. . ... : ... .. . ...
ROW 2D : ... .. . ... ... : ... .. . ... : ... .. . ... : ... .. . ... : ... .. . ...
ROW 2E : ... .. . ... ... : ... .. . ... : G-4 03 . ... : ... .. . ... : ... .. . ...
ROW 2F : ... .. . ... ... : ... .. . ... : ... .. . ... : ... .. . ... : ... .. . ...

PATTERN 26
ROW 00 : A#2 08 F ... ... : --- .. . ... : A#4 03 . 100 : ... .. . ... : ... .. . ...
ROW 01 : ... .. . ... ... : ... .. . ... : ... .. . ... : ... .. . ... : ... .. . ...
ROW 02 : ... .. . ... ... : ... .. . ... : D-5 03 . ... : ... .. . ... : ... .. . ...
ROW 03 : ... .. . ... ... : ... .. . ... : ... .. . ... : ... .. . ... : ... .. . ...
ROW 04 : G-3 0F . ... ... : G-1 05 F ... : D#4 01 . ... : ... .. . ... : ... .. . ...
ROW 05 : ... .. . ... ... : ... .. . ... : G-2 19 . ... : ... .. . ... : ... .. . ...
ROW 06 : ... .. . ... ... : ... .. . ... : D-5 03 . ... : ... .. . ... : ... .. . ...
ROW 07 : ... .. . ... ... : --- .. . ... : ... .. . ... : ... .. . ... : ... .. . ...
ROW 08 : --- .. . ... ... : ... .. . ... : G-5 03 . ... : ... .. . ... : ... .. . ...
ROW 09 : ... .. . ... ... : ... .. . ... : ... .. . ... : ... .. . ... : ... .. . ...
ROW 0A : ... .. . ... ... : ... .. . ... : A#5 03 . ... : ... .. . ... : ... .. . ...
ROW 0B : ... .. . ... ... : ... .. . ... : ... .. . ... : ... .. . ... : ... .. . ...
ROW 0C : G-3 0F . ... ... : G-1 05 . ... : D#4 01 . ... : ... .. . ... : ... .. . ...
ROW 0D : ... .. . ... ... : ... .. . ... : G-2 19 . ... : ... .. . ... : ... .. . ...
ROW 0E : ... .. . ... ... : ... .. . ... : G-6 03 . ... : ... .. . ... : ... .. . ...
ROW 0F : ... .. . ... ... : --- .. . ... : ... .. . ... : ... .. . ... : ... .. . ...
ROW 10 : --- .. . ... ... : ... .. . ... : A#6 03 . ... : ... .. . ... : ... .. . ...
ROW 11 : ... .. . ... ... : ... .. . ... : ... .. . ... : ... .. . ... : ... .. . ...
ROW 12 : ... .. . ... ... : ... .. . ... : G-6 03 . ... : ... .. . ... : ... .. . ...
ROW 13 : ... .. . ... ... : ... .. . ... : ... .. . ... : ... .. . ... : ... .. . ...
ROW 14 : F-3 0B . ... ... : G-1 05 . ... : F-4 01 . ... : ... .. . ... : ... .. . ...
ROW 15 : ... .. . ... ... : ... .. . ... : G-2 19 . ... : ... .. . ... : ... .. . ...
ROW 16 : ... .. . ... ... : ... .. . ... : G-6 03 . ... : ... .. . ... : ... .. . ...
ROW 17 : --- .. . ... ... : --- .. . ... : ... .. . ... : ... .. . ... : ... .. . ...
ROW 18 : G-3 0F . ... ... : F-1 05 . ... : D#4 01 . ... : ... .. . ... : ... .. . ...
ROW 19 : ... .. . ... ... : ... .. . ... : F-2 19 . ... : ... .. . ... : ... .. . ...
ROW 1A : ... .. . ... ... : ... .. . ... : C-6 03 . ... : ... .. . ... : ... .. . ...
ROW 1B : ... .. . ... ... : --- .. . ... : ... .. . ... : ... .. . ... : ... .. . ...
ROW 1C : --- .. . ... ... : G-1 05 . ... : D#4 01 . ... : ... .. . ... : ... .. . ...
ROW 1D : ... .. . ... ... : ... .. . ... : G-2 19 . ... : ... .. . ... : ... .. . ...
ROW 1E : ... .. . ... ... : ... .. . ... : G-5 03 . ... : ... .. . ... : ... .. . ...
ROW 1F : ... .. . ... ... : --- .. . ... : ... .. . ... : ... .. . ... : ... .. . ...
ROW 20 : C-4 0B . ... ... : C-1 05 8 ... : C-2 05 . F03 : ... .. . ... : ... .. . ...
ROW 21 : ... .. . ... ... : ... .. . ... : ... .. . ... : ... .. . ... : ... .. . ...
ROW 22 : ... .. . ... ... : ... .. . ... : ... .. . ... : ... .. . ... : ... .. . ...
ROW 23 : --- .. . ... ... : --- .. . ... : --- .. . ... : ... .. . ... : ... .. . ...
ROW 24 : C-4 0B 6 ... ... : C-1 05 A ... : C-2 05 . ... : ... .. . ... : ... .. . ...
ROW 25 : ... .. . ... ... : ... .. . ... : ... .. . ... : ... .. . ... : ... .. . ...
ROW 26 : ... .. . ... ... : ... .. . ... : ... .. . F04 : ... .. . ... : ... .. . ...
ROW 27 : --- .. . ... ... : --- .. . ... : --- .. . ... : ... .. . ... : ... .. . ...
ROW 28 : A#3 0D A ... ... : C-1 05 C ... : C-2 05 . ... : ... .. . ... : ... .. . ...
ROW 29 : ... .. . ... ... : ... .. . ... : ... .. . ... : ... .. . ... : ... .. . ...
ROW 2A : D-4 0D . ... ... : ... .. . ... : ... .. . F05 : ... .. . ... : ... .. . ...
ROW 2B : ... .. . ... ... : --- .. . ... : --- .. . ... : ... .. . ... : ... .. . ...
ROW 2C : G-4 0D . ... ... : C-1 05 F ... : C-2 05 . ... : ... .. . ... : ... .. . ...
ROW 2D : ... .. . ... ... : ... .. . ... : ... .. . ... : ... .. . ... : ... .. . ...
ROW 2E : A#4 0D . ... ... : ... .. . ... : ... .. . ... : ... .. . ... : ... .. . ...
ROW 2F : ... .. . ... ... : --- .. . ... : --- .. . ... : ... .. . ... : ... .. . ...

PATTERN 27
ROW 00 : D-5 0D . ... ... : C-1 05 8 ... : C-4 01 . 102 : ... .. . ... : ... .. . ...
ROW 01 : ... .. . ... ... : ... .. . ... : C-2 05 . ... : ... .. . ... : ... .. . ...
ROW 02 : ... .. . ... ... : ... .. . ... : ... .. . ... : ... .. . ... : ... .. . ...
ROW 03 : ... .. . ... ... : --- .. . ... : --- .. . ... : ... .. . ... : ... .. . ...
ROW 04 : G-3 0F F ... ... : C-1 05 8 ... : C-4 01 . 102 : ... .. . ... : ... .. . ...
ROW 05 : ... .. . ... ... : ... .. . ... : E-2 05 . ... : ... .. . ... : ... .. . ...
ROW 06 : ... .. . ... ... : ... .. . ... : ... .. . ... : ... .. . ... : ... .. . ...
ROW 07 : --- .. . ... ... : --- .. . ... : --- .. . ... : ... .. . ... : ... .. . ...
ROW 08 : ... .. . ... ... : C-1 05 C ... : C-4 01 . 102 : ... .. . ... : ... .. . ...
ROW 09 : ... .. . ... ... : ... .. . ... : G#2 05 . ... : ... .. . ... : ... .. . ...
ROW 0A : ... .. . ... ... : ... .. . ... : ... .. . ... : ... .. . ... : ... .. . ...
ROW 0B : ... .. . ... ... : --- .. . ... : --- .. . ... : ... .. . ... : ... .. . ...
ROW 0C : G-3 0F . ... ... : C-1 05 C ... : C-4 01 . 102 : ... .. . ... : ... .. . ...
ROW 0D : ... .. . ... ... : ... .. . ... : C-3 05 . ... : ... .. . ... : ... .. . ...
ROW 0E : ... .. . ... ... : ... .. . ... : ... .. . ... : ... .. . ... : ... .. . ...
ROW 0F : --- .. . ... ... : --- .. . ... : --- .. . ... : ... .. . ... : ... .. . ...
ROW 10 : ... .. . ... ... : C-1 05 F ... : C-4 01 . 102 : ... .. . ... : ... .. . ...
ROW 11 : ... .. . ... ... : ... .. . ... : E-3 05 . ... : ... .. . ... : ... .. . ...
ROW 12 : ... .. . ... ... : ... .. . ... : ... .. . ... : ... .. . ... : ... .. . ...
ROW 13 : ... .. . ... ... : --- .. . ... : ... .. . ... : ... .. . ... : ... .. . ...
ROW 14 : G-3 0F . ... ... : C-1 05 F ... : C-4 01 . 102 : ... .. . ... : ... .. . ...
ROW 15 : ... .. . ... ... : ... .. . ... : G-3 05 . ... : ... .. . ... : ... .. . ...
ROW 16 : ... .. . ... ... : ... .. . ... : ... .. . ... : ... .. . ... : ... .. . ...
ROW 17 : --- .. . ... ... : --- .. . ... : --- .. . ... : ... .. . ... : ... .. . ...
ROW 18 : F-3 0F . ... ... : ... .. . ... : ... .. . ... : ... .. . ... : ... .. . ...
ROW 19 : ... .. . ... ... : ... .. . ... : ... .. . ... : ... .. . ... : ... .. . ...
ROW 1A : ... .. . ... ... : ... .. . ... : ... .. . ... : ... .. . ... : ... .. . ...
ROW 1B : --- .. . ... ... : ... .. . ... : ... .. . ... : ... .. . ... : ... .. . ...
ROW 1C : G-3 0F . ... ... : ... .. . ... : ... .. . ... : ... .. . ... : ... .. . ...
ROW 1D : ... .. . ... ... : ... .. . ... : ... .. . ... : ... .. . ... : ... .. . ...
ROW 1E : ... .. . ... ... : ... .. . ... : ... .. . ... : ... .. . ... : ... .. . ...
ROW 1F : --- .. . ... ... : ... .. . ... : ... .. . ... : ... .. . ... : ... .. . ...
ROW 20 : C-3 0B 8 ... ... : ... .. . ... : ... .. . ... : ... .. . ... : ... .. . ...
ROW 21 : ... .. . ... ... : ... .. . ... : ... .. . ... : ... .. . ... : ... .. . ...
ROW 22 : ... .. . ... ... : ... .. . ... : ... .. . ... : ... .. . ... : ... .. . ...
ROW 23 : --- .. . ... ... : ... .. . ... : ... .. . ... : ... .. . ... : ... .. . ...
ROW 24 : C-3 0B A ... ... : ... .. . ... : ... .. . ... : ... .. . ... : ... .. . ...
ROW 25 : ... .. . ... ... : ... .. . ... : ... .. . ... : ... .. . ... : ... .. . ...
ROW 26 : ... .. . ... ... : ... .. . ... : ... .. . ... : ... .. . ... : ... .. . ...
ROW 27 : --- .. . ... ... : ... .. . ... : ... .. . ... : ... .. . ... : ... .. . ...
ROW 28 : C-3 18 8 ... ... : ... .. . ... : ... .. . ... : ... .. . ... : ... .. . ...
ROW 29 : ... .. . ... ... : ... .. . ... : ... .. . ... : ... .. . ... : ... .. . ...
ROW 2A : E-3 18 A ... ... : ... .. . ... : ... .. . ... : ... .. . ... : ... .. . ...
ROW 2B : ... .. . ... ... : ... .. . ... : ... .. . ... : ... .. . ... : ... .. . ...
ROW 2C : G-3 18 C ... ... : ... .. . ... : ... .. . ... : ... .. . ... : ... .. . ...
ROW 2D : ... .. . ... ... : ... .. . ... : ... .. . ... : ... .. . ... : ... .. . ...
ROW 2E : A#3 18 F ... ... : ... .. . ... : ... .. . ... : ... .. . ... : ... .. . ...
ROW 2F : ... .. . ... ... : ... .. . ... : ... .. . ... : ... .. . ... : ... .. . ...

PATTERN 28
ROW 00 : C-4 10 3 ... ... : ... .. . ... : ... .. . ... : ... .. . ... : ... .. . ...
ROW 01 : ... .. . ... ... : ... .. . ... : ... .. . ... : ... .. . ... : ... .. . ...
ROW 02 : C#4 10 . ... ... : ... .. . ... : ... .. . ... : ... .. . ... : ... .. . ...
ROW 03 : ... .. . ... ... : ... .. . ... : ... .. . ... : ... .. . ... : ... .. . ...
ROW 04 : C-4 10 5 ... ... : ... .. . ... : ... .. . ... : ... .. . ... : ... .. . ...
ROW 05 : ... .. . ... ... : ... .. . ... : ... .. . ... : ... .. . ... : ... .. . ...
ROW 06 : C#4 10 . ... ... : ... .. . ... : ... .. . ... : ... .. . ... : ... .. . ...
ROW 07 : ... .. . ... ... : ... .. . ... : ... .. . ... : ... .. . ... : ... .. . ...
ROW 08 : C-4 10 7 ... ... : ... .. . ... : ... .. . ... : ... .. . ... : ... .. . ...
ROW 09 : ... .. . ... ... : ... .. . ... : ... .. . ... : ... .. . ... : ... .. . ...
ROW 0A : C#4 10 . ... ... : ... .. . ... : ... .. . ... : ... .. . ... : ... .. . ...
ROW 0B : ... .. . ... ... : ... .. . ... : ... .. . ... : ... .. . ... : ... .. . ...
ROW 0C : C-4 10 9 ... ... : ... .. . ... : ... .. . ... : ... .. . ... : ... .. . ...
ROW 0D : ... .. . ... ... : ... .. . ... : ... .. . ... : ... .. . ... : ... .. . ...
ROW 0E : C#4 10 . ... ... : ... .. . ... : ... .. . ... : ... .. . ... : ... .. . ...
ROW 0F : ... .. . ... ... : ... .. . ... : ... .. . ... : ... .. . ... : ... .. . ...
ROW 10 : C-4 10 A ... ... : ... .. . ... : ... .. . ... : ... .. . ... : ... .. . ...
ROW 11 : ... .. . ... ... : ... .. . ... : ... .. . ... : ... .. . ... : ... .. . ...
ROW 12 : A#3 10 . ... ... : ... .. . ... : ... .. . ... : ... .. . ... : ... .. . ...
ROW 13 : ... .. . ... ... : ... .. . ... : ... .. . ... : ... .. . ... : ... .. . ...
ROW 14 : G#3 10 B ... ... : ... .. . ... : ... .. . ... : ... .. . ... : ... .. . ...
ROW 15 : ... .. . ... ... : ... .. . ... : ... .. . ... : ... .. . ... : ... .. . ...
ROW 16 : G-3 10 . ... ... : ... .. . ... : ... .. . ... : ... .. . ... : ... .. . ...
ROW 17 : ... .. . ... ... : ... .. . ... : ... .. . ... : ... .. . ... : ... .. . ...
ROW 18 : ... .. . ... ... : ... .. . ... : ... .. . ... : ... .. . ... : ... .. . ...
ROW 19 : ... .. . ... ... : ... .. . ... : ... .. . ... : ... .. . ... : ... .. . ...
ROW 1A : ... .. . ... ... : ... .. . ... : ... .. . ... : ... .. . ... : ... .. . ...
ROW 1B : ... .. . ... ... : ... .. . ... : ... .. . ... : ... .. . ... : ... .. . ...
ROW 1C : ... .. . ... ... : ... .. . ... : ... .. . ... : ... .. . ... : ... .. . ...
ROW 1D : ... .. . ... ... : ... .. . ... : ... .. . ... : ... .. . ... : ... .. . ...
ROW 1E : ... .. . ... ... : ... .. . ... : ... .. . ... : ... .. . ... : ... .. . ...
ROW 1F : ... .. . ... ... : ... .. . ... : ... .. . ... : ... .. . ... : ... .. . ...
ROW 20 : ... .. . ... ... : ... .. . ... : ... .. . ... : ... .. . ... : ... .. . ...
ROW 21 : ... .. . ... ... : ... .. . ... : ... .. . ... : ... .. . ... : ... .. . ...
ROW 22 : ... .. . ... ... : ... .. . ... : ... .. . ... : ... .. . ... : ... .. . ...
ROW 23 : ... .. . ... ... : ... .. . ... : ... .. . ... : ... .. . ... : ... .. . ...
ROW 24 : ... .. . ... ... : ... .. . ... : ... .. . ... : ... .. . ... : ... .. . ...
ROW 25 : ... .. . ... ... : ... .. . ... : ... .. . ... : ... .. . ... : ... .. . ...
ROW 26 : ... .. . ... ... : ... .. . ... : ... .. . ... : ... .. . ... : ... .. . ...
ROW 27 : ... .. . ... ... : ... .. . ... : ... .. . ... : ... .. . ... : ... .. . ...
ROW 28 : ... .. . ... ... : ... .. . ... : ... .. . ... : ... .. . ... : ... .. . ...
ROW 29 : ... .. . ... ... : ... .. . ... : ... .. . ... : ... .. . ... : ... .. . ...
ROW 2A : ... .. . ... ... : ... .. . ... : ... .. . ... : ... .. . ... : ... .. . ...
ROW 2B : ... .. . ... ... : ... .. . ... : ... .. . ... : ... .. . ... : ... .. . ...
ROW 2C : ... .. . ... ... : ... .. . ... : ... .. . ... : ... .. . ... : ... .. . ...
ROW 2D : ... .. . ... ... : ... .. . ... : ... .. . ... : ... .. . ... : ... .. . ...
ROW 2E : ... .. . ... ... : ... .. . ... : ... .. . ... : ... .. . ... : ... .. . ...
ROW 2F : ... .. . ... ... : ... .. . ... : ... .. . ... : ... .. . ... : ... .. . ...

TRACK  48   2 150 "Pepper"
COLUMNS : 2 1 3 1 1

ORDER 00 : 1A 1A 1A 0C 01
ORDER 01 : 00 00 00 00 00
ORDER 02 : 01 01 01 01 00
ORDER 03 : 02 02 02 00 00
ORDER 04 : 03 03 03 01 00
ORDER 05 : 04 04 04 00 00
ORDER 06 : 05 05 05 01 00
ORDER 07 : 06 06 06 00 00
ORDER 08 : 07 07 07 01 00
ORDER 09 : 08 08 08 02 00
ORDER 0A : 09 09 09 03 00
ORDER 0B : 0A 0A 0A 02 00
ORDER 0C : 0B 0B 0B 03 00
ORDER 0D : 0C 0C 0C 04 00
ORDER 0E : 0D 0D 0D 05 00
ORDER 0F : 0E 0E 0E 06 00
ORDER 10 : 0F 0F 0F 07 00
ORDER 11 : 10 10 10 08 00
ORDER 12 : 11 11 11 09 00
ORDER 13 : 12 12 12 08 00
ORDER 14 : 13 13 13 09 00
ORDER 15 : 14 14 14 00 00
ORDER 16 : 15 15 15 01 00
ORDER 17 : 16 16 16 05 00
ORDER 18 : 17 17 17 07 00
ORDER 19 : 18 18 18 05 00
ORDER 1A : 19 19 19 06 00
ORDER 1B : 1B 1B 1B 05 00
ORDER 1C : 1C 1C 1C 0D 00

PATTERN 00
ROW 00 : C-5 12 5 400 ... : C-1 05 . ... : C-4 01 . 100 400 F02 : 9-# 16 F A05 : ... .. . ...
ROW 01 : ... .. . ... ... : ... .. . ... : C-2 05 . ... ... F03 : ... .. . ... : ... .. . ...
ROW 02 : ... .. . ... ... : ... .. . ... : ... .. . ... ... F02 : ... .. . ... : ... .. . ...
ROW 03 : ... .. . ... 220 : E-3 00 . ... : C-5 03 . ... ... F03 : ... .. . ... : ... .. . ...
ROW 04 : ... .. . ... ... : --- .. . ... : ... .. . ... ... F02 : ... .. . ... : ... .. . ...
ROW 05 : ... .. . ... ... : ... .. . ... : ... .. . ... ... F03 : ... .. . ... : ... .. . ...
ROW 06 : F#3 19 F A06 200 : C-3 11 . ... : C-4 0B . ... ... F02 : D-# 06 F A00 : ... .. . ...
ROW 07 : G-3 19 F ... ... : ... .. . ... : ... .. . ... ... F03 : ... .. . ... : ... .. . ...
ROW 08 : ... .. . ... ... : --- .. . ... : --- .. . ... ... F02 : ... .. . ... : ... .. . ...
ROW 09 : --- .. . ... ... : E-3 00 . ... : C-5 03 . ... ... F03 : ... .. . ... : ... .. . ...
ROW 0A : ... .. . ... ... : --- .. . ... : ... .. . ... ... F02 : ... .. . ... : ... .. . ...
ROW 0B : ... .. . ... ... : ... .. . ... : ... .. . ... ... F02 : ... .. . ... : ... .. . ...
ROW 0C : G#3 19 F ... ... : C-1 05 . ... : C-4 01 . ... ... F03 : D-# 02 . ... : ... .. . ...
ROW 0D : ... .. . ... ... : ... .. . ... : C-2 05 . ... ... F02 : ... .. . ... : ... .. . ...
ROW 0E : ... .. . ... ... : ... .. . ... : ... .. . ... ... F03 : ... .. . ... : ... .. . ...
ROW 0F : --- .. . ... ... : C-3 00 . ... : G-4 03 . ... ... F02 : D-# 00 6 ... : ... .. . ...
ROW 10 : ... .. . ... ... : --- .. . ... : ... .. . ... ... F03 : ... .. . ... : ... .. . ...
ROW 11 : ... .. . ... ... : ... .. . ... : ... .. . ... ... F03 : ... .. . ... : ... .. . ...
ROW 12 : G-3 19 F ... ... : C-3 11 . ... : C-4 0B . ... ... F02 : D-# 15 F ... : ... .. . ...
ROW 13 : ... .. . ... ... : ... .. . ... : ... .. . ... ... F03 : ... .. . ... : ... .. . ...
ROW 14 : G#3 19 F ... ... : --- .. . ... : --- .. . ... ... F02 : --- .. . ... : ... .. . ...
ROW 15 : ... .. . ... ... : C-3 00 . ... : E-4 03 . ... ... F03 : D-# 00 6 ... : ... .. . ...
ROW 16 : G-3 19 F ... ... : --- .. . ... : ... .. . ... ... F02 : ... .. . ... : ... .. . ...
ROW 17 : ... .. . ... ... : ... .. . ... : ... .. . ... ... F03 : ... .. . ... : ... .. . ...
ROW 18 : F-3 19 F ... ... : D-1 05 . ... : C-4 01 . ... ... F02 : 2-# 00 F ... : ... .. . ...
ROW 19 : ... .. . ... ... : ... .. . ... : D-2 05 . ... ... F03 : ... .. . ... : ... .. . ...
ROW 1A : ... .. . ... ... : ... .. . ... : ... .. . ... ... F02 : ... .. . ... : ... .. . ...
ROW 1B : ... .. . ... ... : A-2 00 . ... : F-4 03 . ... ... F03 : D-# 00 6 ... : ... .. . ...
ROW 1C : ... .. . ... ... : --- .. . ... : ... .. . ... ... F02 : ... .. . ... : ... .. . ...
ROW 1D : ... .. . ... ... : ... .. . ... : ... .. . ... ... F03 : ... .. . ... : ... .. . ...
ROW 1E : C-4 19 F ... ... : D-3 17 . ... : D-4 0F . ... ... F02 : D-# 06 F ... : ... .. . ...
ROW 1F : ... .. . ... ... : ... .. . ... : ... .. . ... ... F03 : ... .. . ... : ... .. . ...
ROW 20 : ... .. . ... ... : --- .. . ... : --- .. . ... ... F02 : ... .. . ... : ... .. . ...
ROW 21 : ... .. . ... ... : A-2 00 . ... : A-4 03 . ... ... F03 : D-# 00 6 ... : ... .. . ...
ROW 22 : --- .. . ... ... : --- .. . ... : ... .. . ... ... F02 : ... .. . ... : ... .. . ...
ROW 23 : ... .. . ... ... : ... .. . ... : ... .. . ... ... F03 : ... .. . ... : ... .. . ...
ROW 24 : C-4 19 4 A02 ... : D-1 05 . ... : C-4 01 . ... ... F02 : D-# 02 F ... : ... .. . ...
ROW 25 : ... .. . ... ... : ... .. . ... : D-2 05 . ... ... F03 : ... .. . ... : ... .. . ...
ROW 26 : ... .. . ... ... : ... .. . ... : ... .. . ... ... F02 : ... .. . ... : ... .. . ...
ROW 27 : --- .. . ... ... : F-2 00 . ... : D-5 03 . ... ... F03 : D-# 00 6 ... : ... .. . ...
ROW 28 : ... .. . ... ... : --- .. . ... : ... .. . ... ... F02 : ... .. . ... : ... .. . ...
ROW 29 : ... .. . ... ... : ... .. . ... : ... .. . ... ... F03 : ... .. . ... : ... .. . ...
ROW 2A : C-3 19 F A05 ... : D-3 17 . ... : D-4 0F . ... ... F02 : D-# 15 F ... : ... .. . ...
ROW 2B : ... .. . ... ... : ... .. . ... : ... .. . ... ... F03 : ... .. . ... : ... .. . ...
ROW 2C : ... .. . ... ... : --- .. . ... : --- .. . ... ... F02 : ... .. . ... : ... .. . ...
ROW 2D : D-3 19 F ... ... : F-2 00 . ... : D-5 03 . ... ... F03 : D-# 00 6 ... : ... .. . ...
ROW 2E : ... .. . ... ... : --- .. . ... : ... .. . ... ... F02 : ... .. . ... : ... .. . ...
ROW 2F : ... .. . ... ... : ... .. . ... : ... .. . ... ... F03 : ... .. . ... : ... .. . ...

PATTERN 01
ROW 00 : D#3 19 F A06 ... : E-1 05 . ... : C-4 01 . ... ... F02 : 2-# 00 F ... : ... .. . ...
ROW 01 : E-3 19 F ... ... : ... .. . ... : E-2 05 . ... ... F03 : ... .. . ... : ... .. . ...
ROW 02 : ... .. . ... ... : ... .. . ... : ... .. . ... ... F02 : ... .. . ... : ... .. . ...
ROW 03 : ... .. . ... ... : G-3 00 . ... : E-5 03 . ... ... F03 : D-# 00 6 ... : ... .. . ...
ROW 04 : ... .. . ... ... : --- .. . ... : ... .. . ... ... F02 : ... .. . ... : ... .. . ...
ROW 05 : ... .. . ... ... : ... .. . ... : ... .. . ... ... F03 : ... .. . ... : ... .. . ...
ROW 06 : D#3 19 F ... ... : C-3 0B . ... : C-4 11 . ... ... F02 : D-# 06 F ... : ... .. . ...
ROW 07 : ... .. . ... ... : ... .. . ... : ... .. . ... ... F03 : ... .. . ... : ... .. . ...
ROW 08 : ... .. . ... ... : --- .. . ... : --- .. . ... ... F02 : ... .. . ... : ... .. . ...
ROW 09 : ... .. . ... ... : G-3 00 . ... : E-5 03 . ... ... F03 : D-# 00 6 ... : ... .. . ...
ROW 0A : ... .. . ... ... : --- .. . ... : ... .. . ... ... F02 : ... .. . ... : ... .. . ...
ROW 0B : ... .. . ... ... : ... .. . ... : ... .. . ... ... F02 : ... .. . ... : ... .. . ...
ROW 0C : B-2 19 F ... ... : E-1 05 . ... : C-4 01 . ... ... F03 : D-# 02 F ... : ... .. . ...
ROW 0D : ... .. . ... ... : ... .. . ... : E-2 05 . ... ... F02 : ... .. . ... : ... .. . ...
ROW 0E : ... .. . ... ... : ... .. . ... : ... .. . ... ... F03 : ... .. . ... : ... .. . ...
ROW 0F : ... .. . ... ... : C-3 00 . ... : C-5 03 . ... ... F02 : D-# 00 6 ... : ... .. . ...
ROW 10 : ... .. . ... ... : --- .. . ... : ... .. . ... ... F03 : ... .. . ... : ... .. . ...
ROW 11 : ... .. . ... ... : ... .. . ... : ... .. . ... ... F03 : ... .. . ... : ... .. . ...
ROW 12 : C#3 19 F ... ... : C-3 0B . ... : C-4 11 . ... ... F02 : D-# 15 F ... : ... .. . ...
ROW 13 : D-3 19 F ... ... : ... .. . ... : ... .. . ... ... F03 : ... .. . ... : ... .. . ...
ROW 14 : ... .. . ... ... : --- .. . ... : --- .. . ... ... F02 : --- .. . ... : ... .. . ...
ROW 15 : --- .. . ... ... : C-3 00 . ... : C-5 03 . ... ... F03 : D-# 00 6 ... : ... .. . ...
ROW 16 : ... .. . ... ... : --- .. . ... : ... .. . ... ... F02 : ... .. . ... : ... .. . ...
ROW 17 : ... .. . ... ... : ... .. . ... : ... .. . ... ... F03 : ... .. . ... : ... .. . B01
ROW 18 : D-3 19 2 A00 ... : F-1 05 . ... : C-4 01 . ... ... F02 : 2-# 00 F ... : ... .. . ...
ROW 19 : ... .. . ... ... : ... .. . ... : F-2 05 . ... ... F03 : ... .. . ... : ... .. . ...
ROW 1A : ... .. . ... ... : ... .. . ... : ... .. . ... ... F02 : ... .. . ... : ... .. . ...
ROW 1B : ... .. . ... ... : A-2 00 . ... : F-5 03 . ... ... F03 : D-# 00 6 ... : ... .. . ...
ROW 1C : ... .. . ... ... : --- .. . ... : ... .. . ... ... F02 : ... .. . ... : ... .. . ...
ROW 1D : --- .. . ... ... : ... .. . ... : ... .. . ... ... F03 : ... .. . ... : ... .. . ...
ROW 1E : C-3 19 F A06 ... : F-3 0B . ... : F-4 11 . ... ... F02 : D-# 06 F ... : ... .. . ...
ROW 1F : ... .. . ... ... : ... .. . ... : ... .. . ... ... F03 : ... .. . ... : ... .. . ...
ROW 20 : ... .. . ... ... : --- .. . ... : --- .. . ... ... F02 : ... .. . ... : ... .. . ...
ROW 21 : ... .. . ... ... : F-1 05 . ... : F-2 05 . ... ... F03 : D-# 00 6 ... : ... .. . ...
ROW 22 : ... .. . ... ... : ... .. . ... : ... .. . ... ... F02 : ... .. . ... : ... .. . ...
ROW 23 : --- .. . ... ... : --- .. . ... : --- .. . ... ... F03 : ... .. . ... : ... .. . ...
ROW 24 : C-3 19 2 A00 ... : G-1 05 8 Q72 : G-2 05 . Q92 ... F02 : D-# 02 F ... : ... .. . ...
ROW 25 : ... .. . ... ... : ... .. . ... : ... .. . ... ... F03 : ... .. . ... : ... .. . ...
ROW 26 : ... .. . ... ... : ... .. . ... : ... .. . ... ... F02 : ... .. . ... : ... .. . ...
ROW 27 : --- .. . ... ... : ... .. . ... : ... .. . ... ... F03 : D-# 00 6 ... : ... .. . ...
ROW 28 : ... .. . ... ... : ... .. . ... : ... .. . ... ... F02 : ... .. . ... : ... .. . ...
ROW 29 : ... .. . ... ... : ... .. . ... : ... .. . ... ... F03 : ... .. . ... : ... .. . ...
ROW 2A : G-2 19 F A06 ... : C-2 05 . ... : C-3 05 . ... ... F02 : D-# 15 F ... : ... .. . ...
ROW 2B : ... .. . ... ... : ... .. . ... : ... .. . ... ... F03 : ... .. . ... : ... .. . ...
ROW 2C : ... .. . ... ... : ... .. . ... : ... .. . ... ... F02 : ... .. . ... : ... .. . ...
ROW 2D : ... .. . ... ... : A-3 00 . ... : F-5 03 . ... ... F03 : D-# 00 6 ... : ... .. . ...
ROW 2E : F#4 0D 6 ... ... : --- .. . ... : ... .. . ... ... F02 : ... .. . ... : ... .. . ...
ROW 2F : G-4 0D A ... ... : ... .. . ... : ... .. . ... ... F03 : ... .. . ... : ... .. . ...

PATTERN 02
ROW 00 : G#4 0D F ... ... : C-1 05 F ... : C-4 01 . ... ... F02 : 9-# 16 F A05 : ... .. . ...
ROW 01 : ... .. . ... ... : ... .. . ... : C-2 05 . ... ... F03 : ... .. . ... : ... .. . ...
ROW 02 : ... .. . ... ... : ... .. . ... : ... .. . ... ... F02 : ... .. . ... : ... .. . ...
ROW 03 : G#4 0D 5 ... ... : E-3 00 . ... : C-5 03 . ... ... F03 : ... .. . ... : ... .. . ...
ROW 04 : ... .. . ... ... : --- .. . ... : ... .. . ... ... F02 : ... .. . ... : ... .. . ...
ROW 05 : ... .. . ... ... : ... .. . ... : ... .. . ... ... F03 : ... .. . ... : ... .. . ...
ROW 06 : G-4 0D F ... ... : C-3 11 . ... : C-4 0B . ... ... F02 : E-# 15 F A00 : ... .. . ...
ROW 07 : ... .. . ... ... : ... .. . ... : ... .. . ... ... F03 : ... .. . ... : ... .. . ...
ROW 08 : ... .. . ... ... : --- .. . ... : --- .. . ... ... F02 : ... .. . ... : ... .. . ...
ROW 09 : G#4 0D . ... ... : E-3 00 . ... : C-5 03 . ... ... F03 : B-# 00 5 ... : ... .. . ...
ROW 0A : G-4 0D . ... ... : --- .. . ... : ... .. . ... ... F02 : ... .. . ... : ... .. . ...
ROW 0B : ... .. . ... ... : ... .. . ... : ... .. . ... ... F02 : ... .. . ... : ... .. . ...
ROW 0C : E-4 0D F ... ... : G-1 05 . ... : C-4 01 . ... ... F03 : D-# 02 F ... : ... .. . ...
ROW 0D : ... .. . ... ... : ... .. . ... : G-2 05 . ... ... F02 : ... .. . ... : ... .. . ...
ROW 0E : ... .. . ... ... : ... .. . ... : ... .. . ... ... F03 : ... .. . ... : ... .. . ...
ROW 0F : E-4 0D 5 ... ... : C-3 00 . ... : E-5 03 . ... ... F02 : B-# 00 5 ... : ... .. . ...
ROW 10 : ... .. . ... ... : --- .. . ... : ... .. . ... ... F03 : ... .. . ... : ... .. . ...
ROW 11 : ... .. . ... ... : ... .. . ... : ... .. . ... ... F03 : ... .. . ... : ... .. . ...
ROW 12 : C-4 0D F ... ... : C-3 11 . ... : C-4 0B . ... ... F02 : E-# 15 F ... : ... .. . ...
ROW 13 : ... .. . ... ... : ... .. . ... : ... .. . ... ... F03 : ... .. . ... : ... .. . ...
ROW 14 : ... .. . ... ... : --- .. . ... : --- .. . ... ... F02 : --- .. . ... : ... .. . ...
ROW 15 : C-4 0D 5 ... ... : C-3 00 . ... : E-5 03 . ... ... F03 : B-# 00 5 ... : ... .. . ...
ROW 16 : ... .. . ... ... : --- .. . ... : ... .. . ... ... F02 : ... .. . ... : ... .. . ...
ROW 17 : ... .. . ... ... : ... .. . ... : ... .. . ... ... F03 : ... .. . ... : ... .. . ...
ROW 18 : A#3 0D F ... ... : A-1 05 . ... : C-4 01 . ... ... F02 : 2-# 00 F ... : ... .. . ...
ROW 19 : ... .. . ... ... : ... .. . ... : A-2 05 . ... ... F03 : ... .. . ... : ... .. . ...
ROW 1A : ... .. . ... ... : ... .. . ... : ... .. . ... ... F02 : ... .. . ... : ... .. . ...
ROW 1B : A#3 0D 5 ... ... : A-2 00 . ... : C#5 03 . ... ... F03 : B-# 00 5 ... : ... .. . ...
ROW 1C : ... .. . ... ... : --- .. . ... : ... .. . ... ... F02 : ... .. . ... : ... .. . ...
ROW 1D : ... .. . ... ... : ... .. . ... : ... .. . ... ... F03 : ... .. . ... : ... .. . ...
ROW 1E : A-3 0D F ... ... : C#3 13 . ... : E-4 13 . ... ... F02 : E-# 15 F ... : ... .. . ...
ROW 1F : ... .. . ... ... : ... .. . ... : ... .. . ... ... F03 : ... .. . ... : ... .. . ...
ROW 20 : ... .. . ... ... : --- .. . ... : --- .. . ... ... F02 : ... .. . ... : ... .. . ...
ROW 21 : A-3 0D 5 ... ... : A-2 00 . ... : C#5 03 . ... ... F03 : B-# 00 5 ... : ... .. . ...
ROW 22 : ... .. . ... ... : --- .. . ... : ... .. . ... ... F02 : ... .. . ... : ... .. . ...
ROW 23 : ... .. . ... ... : ... .. . ... : ... .. . ... ... F03 : ... .. . ... : ... .. . ...
ROW 24 : G-3 0D F ... ... : E-1 05 . ... : C-4 01 . ... ... F02 : D-# 02 F ... : ... .. . ...
ROW 25 : ... .. . ... ... : ... .. . ... : E-2 05 . ... ... F03 : ... .. . ... : ... .. . ...
ROW 26 : ... .. . ... ... : ... .. . ... : ... .. . ... ... F02 : ... .. . ... : ... .. . ...
ROW 27 : G-3 0D 5 ... ... : ... .. . ... : ... .. . ... ... F03 : B-# 00 5 ... : ... .. . ...
ROW 28 : ... .. . ... ... : ... .. . ... : ... .. . ... ... F02 : ... .. . ... : ... .. . ...
ROW 29 : ... .. . ... ... : ... .. . ... : ... .. . ... ... F03 : ... .. . ... : ... .. . ...
ROW 2A : E-3 0D F ... ... : D#1 05 . ... : C-4 01 . ... ... F02 : E-# 15 F ... : ... .. . ...
ROW 2B : ... .. . ... ... : ... .. . ... : D#2 05 . ... ... F03 : ... .. . ... : ... .. . ...
ROW 2C : ... .. . ... ... : ... .. . ... : ... .. . ... ... F02 : --- .. . ... : ... .. . ...
ROW 2D : E-3 0D 5 ... ... : ... .. . ... : ... .. . ... ... F03 : B-# 00 5 ... : ... .. . ...
ROW 2E : ... .. . ... ... : ... .. . ... : ... .. . ... ... F02 : ... .. . ... : ... .. . ...
ROW 2F : ... .. . ... ... : ... .. . ... : ... .. . ... ... F03 : ... .. . ... : ... .. . ...

PATTERN 03
ROW 00 : F-3 18 A ... A04 : D-1 05 . ... : C-4 01 . ... ... F02 : 2-# 00 F ... : ... .. . ...
ROW 01 : ... .. . ... ... : ... .. . ... : D-2 05 . ... ... F03 : ... .. . ... : ... .. . ...
ROW 02 : ... .. . ... ... : ... .. . ... : ... .. . ... ... F02 : ... .. . ... : ... .. . ...
ROW 03 : ... .. . 220 ... : F-3 00 . ... : D-5 03 . ... ... F03 : B-# 00 5 ... : ... .. . ...
ROW 04 : ... .. . ... ... : --- .. . ... : ... .. . ... ... F02 : ... .. . ... : ... .. . ...
ROW 05 : ... .. . ... ... : ... .. . ... : ... .. . ... ... F03 : ... .. . ... : ... .. . ...
ROW 06 : E-4 1B F 200 A00 : D-3 0F . ... : D-4 17 . ... ... F02 : E-# 15 F ... : ... .. . ...
ROW 07 : ... .. . ... ... : ... .. . ... : ... .. . ... ... F03 : ... .. . ... : ... .. . ...
ROW 08 : ... .. . ... ... : --- .. . ... : --- .. . ... ... F02 : ... .. . ... : ... .. . ...
ROW 09 : E-4 1B 5 ... ... : F-3 00 . ... : D-5 03 . ... ... F03 : B-# 00 5 ... : ... .. . ...
ROW 0A : ... .. . ... ... : --- .. . ... : ... .. . ... ... F02 : ... .. . ... : ... .. . ...
ROW 0B : ... .. . ... ... : ... .. . ... : ... .. . ... ... F02 : ... .. . ... : ... .. . ...
ROW 0C : D-4 1B F ... ... : A-1 05 . ... : C-4 01 . ... ... F03 : D-# 02 F ... : ... .. . ...
ROW 0D : ... .. . ... ... : ... .. . ... : A-2 05 . ... ... F02 : ... .. . ... : ... .. . ...
ROW 0E : ... .. . ... ... : ... .. . ... : ... .. . ... ... F03 : ... .. . ... : ... .. . ...
ROW 0F : D-4 1B 5 ... ... : D-3 00 . ... : F-5 03 . ... ... F02 : B-# 00 5 ... : ... .. . ...
ROW 10 : ... .. . ... ... : --- .. . ... : ... .. . ... ... F03 : ... .. . ... : ... .. . ...
ROW 11 : ... .. . ... ... : ... .. . ... : ... .. . ... ... F03 : ... .. . ... : ... .. . ...
ROW 12 : A-3 1B F ... ... : D-3 0B . ... : D-4 17 . ... ... F02 : E-# 15 F ... : ... .. . ...
ROW 13 : ... .. . ... ... : ... .. . ... : ... .. . ... ... F03 : ... .. . ... : ... .. . ...
ROW 14 : ... .. . ... ... : --- .. . ... : --- .. . ... ... F02 : --- .. . ... : ... .. . ...
ROW 15 : A-3 1B 5 ... ... : D-3 00 . ... : F-5 03 . ... ... F03 : B-# 00 5 ... : ... .. . ...
ROW 16 : ... .. . ... ... : --- .. . ... : ... .. . ... ... F02 : ... .. . ... : ... .. . ...
ROW 17 : ... .. . ... ... : ... .. . ... : ... .. . ... ... F03 : ... .. . ... : ... .. . ...
ROW 18 : C-4 1B F ... ... : G-1 05 . ... : C-4 01 . ... ... F02 : 2-# 00 F ... : ... .. . ...
ROW 19 : ... .. . ... ... : ... .. . ... : G-2 05 . ... ... F03 : ... .. . ... : ... .. . ...
ROW 1A : ... .. . ... ... : ... .. . ... : ... .. . ... ... F02 : ... .. . ... : ... .. . ...
ROW 1B : C-4 1B . ... ... : B-2 00 . ... : G-5 03 . ... ... F03 : B-# 00 5 ... : ... .. . ...
ROW 1C : ... .. . ... ... : --- .. . ... : ... .. . ... ... F02 : ... .. . ... : ... .. . ...
ROW 1D : --- .. . ... ... : ... .. . ... : ... .. . ... ... F03 : ... .. . ... : ... .. . ...
ROW 1E : B-3 1B . ... ... : B-3 13 . ... : G-4 11 . ... ... F02 : E-# 15 F ... : ... .. . ...
ROW 1F : ... .. . ... ... : ... .. . ... : ... .. . ... ... F03 : ... .. . ... : ... .. . ...
ROW 20 : --- .. . ... ... : --- .. . ... : --- .. . ... ... F02 : ... .. . ... : ... .. . ...
ROW 21 : B-3 1B . ... ... : B-2 00 . ... : G-5 03 . ... ... F03 : B-# 00 5 ... : ... .. . ...
ROW 22 : ... .. . ... ... : --- .. . ... : ... .. . ... ... F02 : ... .. . ... : ... .. . ...
ROW 23 : --- .. . ... ... : ... .. . ... : ... .. . ... ... F03 : ... .. . ... : ... .. . ...
ROW 24 : G-3 1B . ... ... : G-1 05 . ... : C-4 01 . ... ... F02 : D-# 02 F ... : ... .. . ...
ROW 25 : ... .. . ... ... : ... .. . ... : G-1 05 . ... ... F03 : ... .. . ... : ... .. . ...
ROW 26 : --- .. . ... ... : ... .. . ... : ... .. . ... ... F02 : ... .. . ... : ... .. . ...
ROW 27 : G-3 1B 5 ... ... : B-2 00 . ... : B-4 03 . ... ... F03 : B-# 00 5 ... : ... .. . ...
ROW 28 : ... .. . ... ... : --- .. . ... : ... .. . ... ... F02 : ... .. . ... : ... .. . ...
ROW 29 : --- .. . ... ... : ... .. . ... : ... .. . ... ... F03 : ... .. . ... : ... .. . ...
ROW 2A : F-3 1B F ... ... : B-1 05 . ... : B-1 05 . ... ... F02 : E-# 15 F ... : ... .. . ...
ROW 2B : ... .. . ... ... : ... .. . ... : ... .. . ... ... F03 : ... .. . ... : ... .. . ...
ROW 2C : --- .. . ... ... : --- .. . ... : --- .. . ... ... F02 : --- .. . ... : ... .. . ...
ROW 2D : F-3 1B 5 ... ... : B-2 00 . ... : B-4 03 . ... ... F03 : D-# 02 5 ... : ... .. . ...
ROW 2E : ... .. . ... ... : --- .. . ... : ... .. . ... ... F02 : ... .. . ... : ... .. . ...
ROW 2F : --- .. . ... ... : ... .. . ... : ... .. . ... ... F03 : ... .. . ... : ... .. . ...

PATTERN 04
ROW 00 : C-5 12 7 ... ... : C-1 05 . ... : C-4 01 . ... ... F02 : 9-# 16 F A05 : ... .. . ...
ROW 01 : ... .. . ... ... : ... .. . ... : C-2 05 . ... ... F03 : ... .. . ... : ... .. . ...
ROW 02 : ... .. . ... ... : ... .. . ... : ... .. . ... ... F02 : ... .. . ... : ... .. . ...
ROW 03 : ... .. . ... 220 : E-3 00 . ... : C-5 03 . ... ... F03 : ... .. . ... : ... .. . ...
ROW 04 : ... .. . ... ... : --- .. . ... : ... .. . ... ... F02 : ... .. . ... : ... .. . ...
ROW 05 : ... .. . ... ... : ... .. . ... : ... .. . ... ... F03 : ... .. . ... : ... .. . ...
ROW 06 : F#3 19 F A06 200 : C-3 11 . ... : C-4 0B . ... ... F02 : D-# 06 F A00 : ... .. . ...
ROW 07 : G-3 19 F ... ... : ... .. . ... : ... .. . ... ... F03 : ... .. . ... : ... .. . ...
ROW 08 : ... .. . ... ... : --- .. . ... : --- .. . ... ... F02 : ... .. . ... : ... .. . ...
ROW 09 : --- .. . ... ... : E-3 00 . ... : C-5 03 . ... ... F03 : D-# 06 8 ... : ... .. . ...
ROW 0A : ... .. . ... ... : --- .. . ... : ... .. . ... ... F02 : ... .. . ... : ... .. . ...
ROW 0B : ... .. . ... ... : ... .. . ... : ... .. . ... ... F02 : ... .. . ... : ... .. . ...
ROW 0C : G#3 19 F ... ... : C-1 05 . ... : C-4 01 . ... ... F03 : D-# 02 F ... : ... .. . ...
ROW 0D : ... .. . ... ... : ... .. . ... : C-2 05 . ... ... F02 : ... .. . ... : ... .. . ...
ROW 0E : ... .. . ... ... : ... .. . ... : ... .. . ... ... F03 : ... .. . ... : ... .. . ...
ROW 0F : --- .. . ... ... : C-3 00 . ... : C-5 03 . ... ... F02 : D-# 06 8 ... : ... .. . ...
ROW 10 : ... .. . ... ... : --- .. . ... : ... .. . ... ... F03 : ... .. . ... : ... .. . ...
ROW 11 : ... .. . ... ... : ... .. . ... : ... .. . ... ... F03 : ... .. . ... : ... .. . ...
ROW 12 : G-3 19 F ... ... : C-3 11 . ... : C-4 0B . ... ... F02 : D-# 06 F ... : ... .. . ...
ROW 13 : ... .. . ... ... : ... .. . ... : ... .. . ... ... F03 : ... .. . ... : ... .. . ...
ROW 14 : G#3 19 F ... ... : --- .. . ... : --- .. . ... ... F02 : --- .. . ... : ... .. . ...
ROW 15 : ... .. . ... ... : C-3 00 . ... : C-5 03 . ... ... F03 : D-# 06 8 ... : ... .. . ...
ROW 16 : G-3 19 F ... ... : --- .. . ... : ... .. . ... ... F02 : ... .. . ... : ... .. . ...
ROW 17 : ... .. . ... ... : ... .. . ... : ... .. . ... ... F03 : ... .. . ... : ... .. . ...
ROW 18 : E-3 19 F ... ... : E-1 05 . ... : C-4 01 . ... ... F02 : 2-# 00 . ... : ... .. . ...
ROW 19 : ... .. . ... ... : ... .. . ... : E-2 05 . ... ... F03 : ... .. . ... : ... .. . ...
ROW 1A : ... .. . ... ... : ... .. . ... : ... .. . ... ... F02 : ... .. . ... : ... .. . ...
ROW 1B : ... .. . ... ... : C-3 00 . ... : G-4 03 . ... ... F03 : D-# 06 8 ... : ... .. . ...
ROW 1C : ... .. . ... ... : --- .. . ... : ... .. . ... ... F02 : ... .. . ... : ... .. . ...
ROW 1D : ... .. . ... ... : ... .. . ... : ... .. . ... ... F03 : ... .. . ... : ... .. . ...
ROW 1E : C-4 19 F ... ... : E-3 14 . ... : E-4 13 . ... ... F02 : D-# 06 F ... : ... .. . ...
ROW 1F : ... .. . ... ... : ... .. . ... : ... .. . ... ... F03 : ... .. . ... : ... .. . ...
ROW 20 : ... .. . ... ... : --- .. . ... : --- .. . ... ... F02 : ... .. . ... : ... .. . ...
ROW 21 : --- .. . ... ... : A#2 00 . ... : G-4 03 . ... ... F03 : D-# 06 8 ... : ... .. . ...
ROW 22 : ... .. . ... ... : --- .. . ... : ... .. . ... ... F02 : ... .. . ... : ... .. . ...
ROW 23 : ... .. . ... ... : ... .. . ... : ... .. . ... ... F03 : ... .. . ... : ... .. . ...
ROW 24 : C-3 19 F ... ... : E-1 05 . ... : C-4 01 . ... ... F02 : D-# 02 . ... : ... .. . ...
ROW 25 : ... .. . ... ... : ... .. . ... : E-2 05 . ... ... F03 : ... .. . ... : ... .. . ...
ROW 26 : ... .. . ... ... : ... .. . ... : ... .. . ... ... F02 : ... .. . ... : ... .. . ...
ROW 27 : ... .. . ... ... : C-3 00 . ... : G-4 03 . ... ... F03 : D-# 06 8 ... : ... .. . ...
ROW 28 : ... .. . ... ... : --- .. . ... : ... .. . ... ... F02 : ... .. . ... : ... .. . ...
ROW 29 : ... .. . ... ... : ... .. . ... : ... .. . ... ... F03 : ... .. . ... : ... .. . ...
ROW 2A : D-3 19 F ... ... : E-3 14 . ... : E-4 13 . ... ... F02 : D-# 06 F ... : ... .. . ...
ROW 2B : ... .. . ... ... : ... .. . ... : ... .. . ... ... F03 : ... .. . ... : ... .. . ...
ROW 2C : ... .. . ... ... : --- .. . ... : --- .. . ... ... F02 : ... .. . ... : ... .. . ...
ROW 2D : ... .. . ... ... : A#2 00 . ... : G-4 03 . ... ... F03 : D-# 06 8 ... : ... .. . ...
ROW 2E : ... .. . ... ... : --- .. . ... : ... .. . ... ... F02 : ... .. . ... : ... .. . ...
ROW 2F : ... .. . ... ... : ... .. . ... : ... .. . ... ... F03 : ... .. . ... : ... .. . ...

PATTERN 05
ROW 00 : D#3 19 F A06 ... : F-1 05 . ... : C-4 01 . ... ... F02 : 2-# 00 F ... : ... .. . ...
ROW 01 : E-3 19 F ... ... : ... .. . ... : F-2 05 . ... ... F03 : ... .. . ... : ... .. . ...
ROW 02 : ... .. . ... ... : ... .. . ... : ... .. . ... ... F02 : ... .. . ... : ... .. . ...
ROW 03 : ... .. . ... ... : A-3 00 . ... : F-4 03 . ... ... F03 : D-# 06 8 ... : ... .. . ...
ROW 04 : ... .. . ... ... : --- .. . ... : ... .. . ... ... F02 : ... .. . ... : ... .. . ...
ROW 05 : ... .. . ... ... : ... .. . ... : ... .. . ... ... F03 : ... .. . ... : ... .. . ...
ROW 06 : D-3 19 F ... ... : F-3 11 . ... : F-4 0B . ... ... F02 : D-# 06 F ... : ... .. . ...
ROW 07 : ... .. . ... ... : ... .. . ... : ... .. . ... ... F03 : ... .. . ... : ... .. . ...
ROW 08 : ... .. . ... ... : --- .. . ... : --- .. . ... ... F02 : ... .. . ... : ... .. . ...
ROW 09 : ... .. . ... ... : A-3 00 . ... : F-4 03 . ... ... F03 : D-# 06 8 ... : ... .. . ...
ROW 0A : ... .. . ... ... : --- .. . ... : ... .. . ... ... F02 : ... .. . ... : ... .. . ...
ROW 0B : ... .. . ... ... : ... .. . ... : ... .. . ... ... F02 : ... .. . ... : ... .. . ...
ROW 0C : A-2 19 F ... ... : F-1 05 . ... : C-4 01 . ... ... F03 : D-# 02 F ... : ... .. . ...
ROW 0D : ... .. . ... ... : ... .. . ... : F-2 05 . ... ... F02 : ... .. . ... : ... .. . ...
ROW 0E : ... .. . ... ... : ... .. . ... : ... .. . ... ... F03 : ... .. . ... : ... .. . ...
ROW 0F : ... .. . ... ... : F-3 00 . ... : C-4 03 . ... ... F02 : D-# 06 8 ... : ... .. . ...
ROW 10 : ... .. . ... ... : --- .. . ... : ... .. . ... ... F03 : ... .. . ... : ... .. . ...
ROW 11 : ... .. . ... ... : ... .. . ... : ... .. . ... ... F03 : ... .. . ... : ... .. . ...
ROW 12 : C#3 19 F ... ... : F-3 0B . ... : F-4 0B . ... ... F02 : D-# 06 F ... : ... .. . ...
ROW 13 : D-3 19 F ... ... : ... .. . ... : ... .. . ... ... F03 : ... .. . ... : ... .. . ...
ROW 14 : ... .. . ... ... : --- .. . ... : --- .. . ... ... F02 : --- .. . ... : ... .. . ...
ROW 15 : ... .. . ... ... : C-3 00 . ... : A-4 03 . ... ... F03 : D-# 06 8 ... : ... .. . ...
ROW 16 : ... .. . ... ... : --- .. . ... : ... .. . ... ... F02 : ... .. . ... : ... .. . ...
ROW 17 : --- .. . ... ... : ... .. . ... : ... .. . ... ... F03 : ... .. . ... : ... .. . ...
ROW 18 : D-3 19 2 A00 ... : F#1 05 . ... : C-4 01 . ... ... F02 : 2-# 00 F ... : ... .. . ...
ROW 19 : ... .. . ... ... : ... .. . ... : F#2 05 . ... ... F03 : ... .. . ... : ... .. . ...
ROW 1A : ... .. . ... ... : ... .. . ... : ... .. . ... ... F02 : ... .. . ... : ... .. . ...
ROW 1B : ... .. . ... ... : A-3 00 . ... : C-5 03 . ... ... F03 : D-# 06 8 ... : ... .. . ...
ROW 1C : ... .. . ... ... : --- .. . ... : ... .. . ... ... F02 : ... .. . ... : ... .. . ...
ROW 1D : --- .. . ... ... : ... .. . ... : ... .. . ... ... F03 : ... .. . ... : ... .. . ...
ROW 1E : C-3 19 F A06 ... : F#3 14 . ... : F#4 13 . ... ... F02 : D-# 06 F ... : ... .. . ...
ROW 1F : ... .. . ... ... : ... .. . ... : ... .. . ... ... F03 : ... .. . ... : ... .. . ...
ROW 20 : ... .. . ... ... : --- .. . ... : --- .. . ... ... F02 : ... .. . ... : ... .. . ...
ROW 21 : ... .. . ... ... : A-3 00 . ... : C-5 03 . ... ... F03 : D-# 06 8 ... : ... .. . ...
ROW 22 : ... .. . ... ... : --- .. . ... : ... .. . ... ... F02 : ... .. . ... : ... .. . ...
ROW 23 : --- .. . ... ... : ... .. . ... : ... .. . ... ... F03 : ... .. . ... : ... .. . ...
ROW 24 : C-3 19 2 A00 ... : F#1 05 . ... : C-4 01 . ... ... F02 : D-# 02 F ... : ... .. . ...
ROW 25 : ... .. . ... ... : ... .. . ... : F#2 05 . ... ... F03 : ... .. . ... : ... .. . ...
ROW 26 : ... .. . ... ... : --- .. . ... : ... .. . ... ... F02 : ... .. . ... : ... .. . ...
ROW 27 : ... .. . ... ... : A-1 05 . ... : C-5 03 . ... ... F03 : D-# 06 8 ... : ... .. . ...
ROW 28 : ... .. . ... ... : ... .. . ... : ... .. . ... ... F02 : ... .. . ... : ... .. . ...
ROW 29 : ... .. . ... ... : --- .. . ... : ... .. . ... ... F03 : ... .. . ... : ... .. . ...
ROW 2A : G-2 19 F A06 ... : C-2 05 . ... : F#4 13 . ... ... F02 : D-# 06 F ... : ... .. . ...
ROW 2B : ... .. . ... ... : ... .. . ... : ... .. . ... ... F03 : ... .. . ... : ... .. . ...
ROW 2C : ... .. . ... ... : --- .. . ... : --- .. . ... ... F02 : ... .. . ... : ... .. . ...
ROW 2D : ... .. . ... ... : A-1 05 . ... : C-5 03 . ... ... F03 : D-# 02 . ... : ... .. . ...
ROW 2E : ... .. . ... ... : ... .. . ... : ... .. . ... ... F02 : ... .. . ... : ... .. . ...
ROW 2F : --- .. . ... ... : --- .. . ... : ... .. . ... ... F03 : ... .. . ... : ... .. . ...

PATTERN 06
ROW 00 : G-2 19 3 A03 ... : G-1 05 . ... : C-4 01 . ... ... F02 : 9-# 16 F A05 : ... .. . ...
ROW 01 : ... .. . ... ... : ... .. . ... : G-2 05 . ... ... F03 : ... .. . ... : ... .. . ...
ROW 02 : ... .. . ... ... : ... .. . ... : ... .. . ... ... F02 : ... .. . ... : ... .. . ...
ROW 03 : ... .. . ... ... : C-4 00 . ... : E-5 03 . ... ... F03 : ... .. . ... : ... .. . ...
ROW 04 : ... .. . ... ... : --- .. . ... : ... .. . ... ... F02 : ... .. . ... : ... .. . ...
ROW 05 : ... .. . ... ... : ... .. . ... : ... .. . ... ... F03 : ... .. . ... : ... .. . ...
ROW 06 : G#4 0D F ... ... : C-3 0B . ... : C-4 11 . ... ... F02 : D-# 06 F A00 : ... .. . ...
ROW 07 : ... .. . ... ... : ... .. . ... : ... .. . ... ... F03 : ... .. . ... : ... .. . ...
ROW 08 : ... .. . ... ... : --- .. . ... : --- .. . ... ... F02 : ... .. . ... : ... .. . ...
ROW 09 : G#4 0D 5 ... ... : C-4 00 . ... : E-5 03 . ... ... F03 : D-# 06 8 ... : ... .. . ...
ROW 0A : ... .. . ... ... : --- .. . ... : ... .. . ... ... F02 : ... .. . ... : ... .. . ...
ROW 0B : ... .. . ... ... : ... .. . ... : ... .. . ... ... F02 : ... .. . ... : ... .. . ...
ROW 0C : G-4 0D F ... ... : G-1 05 . ... : C-4 01 . ... ... F03 : D-# 02 F ... : ... .. . ...
ROW 0D : ... .. . ... ... : ... .. . ... : G-2 05 . ... ... F02 : ... .. . ... : ... .. . ...
ROW 0E : ... .. . ... ... : ... .. . ... : ... .. . ... ... F03 : ... .. . ... : ... .. . ...
ROW 0F : G-4 0D 5 ... ... : G-3 00 . ... : E-5 03 . ... ... F02 : D-# 06 8 ... : ... .. . ...
ROW 10 : ... .. . ... ... : --- .. . ... : ... .. . ... ... F03 : ... .. . ... : ... .. . ...
ROW 11 : ... .. . ... ... : ... .. . ... : ... .. . ... ... F03 : ... .. . ... : ... .. . ...
ROW 12 : E-4 0D F ... ... : C-3 0B . ... : C-4 11 . ... ... F02 : D-# 06 F ... : ... .. . ...
ROW 13 : ... .. . ... ... : ... .. . ... : ... .. . ... ... F03 : ... .. . ... : ... .. . ...
ROW 14 : ... .. . ... ... : --- .. . ... : --- .. . ... ... F02 : --- .. . ... : ... .. . ...
ROW 15 : E-4 0D 5 ... ... : G-3 00 . ... : E-5 03 . ... ... F03 : D-# 06 8 ... : ... .. . ...
ROW 16 : ... .. . ... ... : --- .. . ... : ... .. . ... ... F02 : ... .. . ... : ... .. . ...
ROW 17 : ... .. . ... ... : ... .. . ... : ... .. . ... ... F03 : ... .. . ... : ... .. . ...
ROW 18 : G#4 0D F ... ... : D-1 05 . ... : C-4 01 . ... ... F02 : 2-# 00 . ... : ... .. . ...
ROW 19 : ... .. . ... ... : ... .. . ... : D-2 05 . ... ... F03 : ... .. . ... : ... .. . ...
ROW 1A : ... .. . ... ... : ... .. . ... : ... .. . ... ... F02 : ... .. . ... : ... .. . ...
ROW 1B : G#4 0D 5 ... ... : F-3 00 . ... : A-4 03 . ... ... F03 : D-# 06 8 ... : ... .. . ...
ROW 1C : ... .. . ... ... : --- .. . ... : ... .. . ... ... F02 : ... .. . ... : ... .. . ...
ROW 1D : ... .. . ... ... : ... .. . ... : ... .. . ... ... F03 : ... .. . ... : ... .. . ...
ROW 1E : G-4 0D F ... ... : D-3 0F . ... : D-4 17 . ... ... F02 : D-# 06 F ... : ... .. . ...
ROW 1F : ... .. . ... ... : ... .. . ... : ... .. . ... ... F03 : ... .. . ... : ... .. . ...
ROW 20 : ... .. . ... ... : --- .. . ... : --- .. . ... ... F02 : ... .. . ... : ... .. . ...
ROW 21 : G-4 0D 5 ... ... : F-3 00 . ... : A-4 03 . ... ... F03 : D-# 06 8 ... : ... .. . ...
ROW 22 : ... .. . ... ... : --- .. . ... : ... .. . ... ... F02 : ... .. . ... : ... .. . ...
ROW 23 : ... .. . ... ... : ... .. . ... : ... .. . ... ... F03 : ... .. . ... : ... .. . ...
ROW 24 : E-4 0D F ... ... : G-1 05 . ... : C-4 01 . ... ... F02 : D-# 02 . ... : ... .. . ...
ROW 25 : ... .. . ... ... : ... .. . ... : G-2 05 . ... ... F03 : ... .. . ... : ... .. . ...
ROW 26 : ... .. . ... ... : ... .. . ... : ... .. . ... ... F02 : ... .. . ... : ... .. . ...
ROW 27 : E-4 0D 5 ... ... : D-3 00 . ... : F-4 03 . ... ... F03 : D-# 06 8 ... : ... .. . ...
ROW 28 : ... .. . ... ... : --- .. . ... : ... .. . ... ... F02 : ... .. . ... : ... .. . ...
ROW 29 : ... .. . ... ... : ... .. . ... : ... .. . ... ... F03 : ... .. . ... : ... .. . ...
ROW 2A : B-3 0D F ... ... : D-3 13 . ... : G-4 11 . ... ... F02 : D-# 02 8 ... : ... .. . ...
ROW 2B : ... .. . ... ... : ... .. . ... : ... .. . ... ... F03 : ... .. . ... : ... .. . ...
ROW 2C : ... .. . ... ... : --- .. . ... : --- .. . ... ... F02 : D-# 02 A ... : ... .. . ...
ROW 2D : B-3 0D 5 ... ... : D-3 00 . ... : F-4 03 . ... ... F03 : ... .. . ... : ... .. . ...
ROW 2E : ... .. . ... ... : --- .. . ... : ... .. . ... ... F02 : D-# 02 C ... : ... .. . ...
ROW 2F : ... .. . ... ... : ... .. . ... : ... .. . ... ... F03 : ... .. . ... : ... .. . ...

PATTERN 07
ROW 00 : C-4 0D F ... ... : C-1 05 . ... : C-4 01 . ... ... F02 : 1-# 02 F ... : ... .. . ...
ROW 01 : ... .. . ... ... : ... .. . ... : C-2 05 . ... ... F03 : ... .. . ... : ... .. . ...
ROW 02 : ... .. . ... ... : ... .. . ... : ... .. . ... ... F02 : ... .. . ... : ... .. . ...
ROW 03 : C-4 0D 5 ... ... : C-4 00 . ... : G-4 03 . ... ... F03 : 0-# 02 F ... : ... .. . ...
ROW 04 : ... .. . ... ... : --- .. . ... : ... .. . ... ... F02 : ... .. . ... : ... .. . ...
ROW 05 : ... .. . ... ... : ... .. . ... : ... .. . ... ... F03 : ... .. . ... : ... .. . ...
ROW 06 : ... .. . ... ... : C-3 0B . ... : C-4 11 . ... ... F02 : ... .. . ... : ... .. . ...
ROW 07 : ... .. . ... ... : ... .. . ... : ... .. . ... ... F03 : --- .. . ... : ... .. . ...
ROW 08 : ... .. . ... ... : --- .. . ... : --- .. . ... ... F02 : ... .. . ... : ... .. . ...
ROW 09 : ... .. . ... ... : C-4 00 . ... : G-4 03 . ... ... F03 : F-# 02 F ... : ... .. . ...
ROW 0A : ... .. . ... ... : --- .. . ... : ... .. . ... ... F02 : ... .. . ... : ... .. . ...
ROW 0B : ... .. . ... ... : ... .. . ... : ... .. . ... ... F02 : ... .. . ... : ... .. . ...
ROW 0C : F-2 12 6 A00 ... : C-1 05 . ... : C-4 01 . ... ... F03 : 5-# 05 A ... : ... .. . ...
ROW 0D : F#2 12 . ... ... : ... .. . ... : C-2 05 . ... ... F02 : ... .. . ... : ... .. . ...
ROW 0E : G-2 12 . ... ... : ... .. . ... : ... .. . ... ... F03 : ... .. . ... : ... .. . ...
ROW 0F : ... .. . ... ... : G-3 00 . ... : G-4 03 . ... ... F02 : ... .. . ... : ... .. . ...
ROW 10 : ... .. . ... ... : --- .. . ... : ... .. . ... ... F03 : ... .. 8 101 : ... .. . ...
ROW 11 : ... .. . ... ... : ... .. . ... : ... .. . ... ... F03 : ... .. . ... : ... .. . ...
ROW 12 : ... .. . 466 ... : C-3 0B . ... : C-4 11 . ... ... F02 : ... .. . ... : ... .. . ...
ROW 13 : ... .. . ... ... : ... .. . ... : ... .. . ... ... F03 : ... .. . ... : ... .. . ...
ROW 14 : ... .. . ... ... : --- .. . ... : --- .. . ... ... F02 : ... .. . ... : ... .. . ...
ROW 15 : ... .. . ... ... : G-3 00 . ... : G-4 03 . ... ... F03 : ... .. . ... : ... .. . ...
ROW 16 : G#2 12 . 400 ... : --- .. . ... : ... .. . ... ... F02 : 5-# 05 6 ... : ... .. . ...
ROW 17 : G-2 12 . ... ... : ... .. . ... : ... .. . ... ... F03 : ... .. . ... : ... .. . ...
ROW 18 : F-2 12 6 ... ... : D#2 0D . ... : C-4 01 . ... ... F02 : ... .. . ... : ... .. . ...
ROW 19 : ... .. . ... ... : ... .. . ... : G#2 05 . ... ... F03 : ... .. . ... : ... .. . ...
ROW 1A : ... .. . ... ... : ... .. . ... : ... .. . ... ... F02 : ... .. 3 101 : ... .. . ...
ROW 1B : ... .. . ... ... : G#2 0D . ... : ... .. . 4AA ... F03 : ... .. . ... : ... .. . ...
ROW 1C : ... .. . ... ... : ... .. . ... : ... .. . ... ... F02 : ... .. . ... : ... .. . ...
ROW 1D : ... .. . ... ... : ... .. . ... : ... .. . ... ... F03 : ... .. . ... : ... .. . ...
ROW 1E : ... .. . ... ... : C-3 0D . ... : ... .. . ... ... F02 : ... .. . ... : ... .. . ...
ROW 1F : ... .. . ... ... : ... .. . ... : ... .. . ... ... F03 : ... .. . ... : ... .. . ...
ROW 20 : ... .. . ... ... : ... .. . ... : ... .. . ... ... F02 : 5-# 05 4 ... : ... .. . ...
ROW 21 : ... .. . ... ... : G#2 0D . ... : ... .. . ... ... F03 : ... .. . ... : ... .. . ...
ROW 22 : ... .. . ... ... : ... .. . ... : ... .. . ... ... F02 : ... .. . ... : ... .. . ...
ROW 23 : ... .. . ... ... : --- .. . ... : --- .. . ... ... F03 : ... .. . ... : ... .. . ...
ROW 24 : E-2 12 6 A00 ... : G-2 0D . ... : G-2 05 . 400 ... F02 : ... .. 1 101 : ... .. . ...
ROW 25 : ... .. . ... ... : ... .. . ... : ... .. . ... ... F03 : ... .. . ... : ... .. . ...
ROW 26 : ... .. . ... ... : ... .. . ... : ... .. . ... ... F02 : ... .. . ... : ... .. . ...
ROW 27 : ... .. . ... ... : --- .. . ... : --- .. . ... ... F03 : ... .. . ... : ... .. . ...
ROW 28 : ... .. . ... ... : ... .. . ... : ... .. . ... ... F02 : --- .. . ... : ... .. . ...
ROW 29 : ... .. . ... ... : ... .. . ... : ... .. . ... ... F03 : ... .. . ... : ... .. . ...
ROW 2A : --- .. . 220 ... : G#3 05 . Q53 : E-5 05 . Q53 ... F02 : ... .. . ... : ... .. . ...
ROW 2B : ... .. . ... ... : ... .. . ... : ... .. . ... ... F03 : ... .. . ... : ... .. . ...
ROW 2C : ... .. . ... ... : --- .. . ... : --- .. . ... ... F02 : A-# 00 5 100 : ... .. . ...
ROW 2D : ... .. . ... ... : ... .. . ... : ... .. . ... ... F03 : ... .. . ... : ... .. . ...
ROW 2E : ... .. . ... ... : ... .. . ... : ... .. . ... ... F02 : 8-# 00 8 ... : ... .. . ...
ROW 2F : ... .. . 200 ... : ... .. . ... : ... .. . ... ... F03 : ... .. . ... : ... .. . ...

PATTERN 08
ROW 00 : C-2 05 . ... ... : C-1 05 . ... : C-3 01 . ... ... F02 : 9-# 06 F ... : ... .. . ...
ROW 01 : ... .. . ... ... : ... .. . ... : --- .. . ... ... F03 : ... .. . ... : ... .. . ...
ROW 02 : ... .. . ... ... : ... .. . ... : ... .. . ... ... F02 : ... .. . ... : ... .. . ...
ROW 03 : C-4 00 . ... ... : E-3 00 . ... : ... .. . ... ... F03 : ... .. . ... : ... .. . ...
ROW 04 : ... .. . ... ... : --- .. . ... : ... .. . ... ... F02 : ... .. . ... : ... .. . ...
ROW 05 : ... .. . ... ... : ... .. . ... : ... .. . ... ... F03 : ... .. . ... : ... .. . ...
ROW 06 : C-3 0B . ... ... : C-3 11 . ... : F#4 19 . ... ... F02 : 5-# 00 . ... : ... .. . ...
ROW 07 : ... .. . ... ... : ... .. . ... : G-4 19 . ... ... F03 : ... .. . ... : ... .. . ...
ROW 08 : --- .. . ... ... : --- .. . ... : ... .. . ... ... F02 : 5-# 00 . ... : ... .. . ...
ROW 09 : C-4 00 . ... ... : E-3 00 . ... : --- .. . ... ... F03 : ... .. . ... : ... .. . ...
ROW 0A : ... .. . ... ... : --- .. . ... : ... .. . ... ... F02 : 5-# 00 . ... : ... .. . ...
ROW 0B : ... .. . ... ... : ... .. . ... : ... .. . ... ... F02 : ... .. . ... : ... .. . ...
ROW 0C : C-2 05 . ... ... : C-1 05 . ... : C-3 01 . ... ... F03 : 5-# 00 . ... : ... .. . ...
ROW 0D : ... .. . ... ... : ... .. . ... : G#4 19 . ... ... F02 : ... .. . ... : ... .. . ...
ROW 0E : ... .. . ... ... : ... .. . ... : ... .. . ... ... F03 : ... .. . ... : ... .. . ...
ROW 0F : G-3 00 . ... ... : C-3 00 . ... : --- .. . ... ... F02 : ... .. . ... : ... .. . ...
ROW 10 : ... .. . ... ... : --- .. . ... : ... .. . ... ... F03 : ... .. . ... : ... .. . ...
ROW 11 : ... .. . ... ... : ... .. . ... : ... .. . ... ... F03 : ... .. . ... : ... .. . ...
ROW 12 : C-3 0B . ... ... : C-3 11 . ... : G-4 19 . ... ... F02 : 5-# 00 . ... : ... .. . ...
ROW 13 : ... .. . ... ... : ... .. . ... : ... .. . ... ... F03 : ... .. . ... : ... .. . ...
ROW 14 : --- .. . ... ... : --- .. . ... : G#4 19 . ... ... F02 : 5-# 00 . ... : ... .. . ...
ROW 15 : E-3 00 . ... ... : C-3 00 . ... : ... .. . ... ... F03 : ... .. . ... : ... .. . ...
ROW 16 : ... .. . ... ... : --- .. . ... : G-4 19 . ... ... F02 : 5-# 00 . ... : ... .. . ...
ROW 17 : ... .. . ... ... : ... .. . ... : ... .. . ... ... F03 : ... .. . ... : ... .. . ...
ROW 18 : D-2 05 . ... ... : D-1 05 . ... : C-3 01 . ... ... F02 : 5-# 00 . ... : ... .. . ...
ROW 19 : ... .. . ... ... : ... .. . ... : F-4 19 . ... ... F03 : ... .. . ... : ... .. . ...
ROW 1A : ... .. . ... ... : ... .. . ... : ... .. . ... ... F02 : ... .. . ... : ... .. . ...
ROW 1B : F-3 00 . ... ... : A-2 00 . ... : ... .. . ... ... F03 : 5-# 00 . ... : ... .. . ...
ROW 1C : ... .. . ... ... : --- .. . ... : ... .. . ... ... F02 : ... .. . ... : ... .. . ...
ROW 1D : ... .. . ... ... : ... .. . ... : ... .. . ... ... F03 : ... .. . ... : ... .. . ...
ROW 1E : D-3 0F . ... ... : D-3 17 . ... : C-5 19 . ... ... F02 : ... .. . ... : ... .. . ...
ROW 1F : ... .. . ... ... : ... .. . ... : ... .. . ... ... F03 : ... .. . ... : ... .. . ...
ROW 20 : --- .. . ... ... : --- .. . ... : ... .. . ... ... F02 : ... .. . ... : ... .. . ...
ROW 21 : A-3 00 . ... ... : A-2 00 . ... : ... .. . ... ... F03 : 5-# 00 . ... : ... .. . ...
ROW 22 : ... .. . ... ... : --- .. . ... : --- .. . ... ... F02 : ... .. . ... : ... .. . ...
ROW 23 : ... .. . ... ... : ... .. . ... : ... .. . ... ... F03 : ... .. . ... : ... .. . ...
ROW 24 : D-2 05 . ... ... : D-1 05 . ... : C-3 01 . ... ... F02 : 5-# 00 . ... : ... .. . ...
ROW 25 : ... .. . ... ... : ... .. . ... : C-4 19 . ... ... F03 : ... .. . ... : ... .. . ...
ROW 26 : ... .. . ... ... : ... .. . ... : ... .. . ... ... F02 : ... .. . ... : ... .. . ...
ROW 27 : D-4 00 . ... ... : F-2 00 . ... : ... .. . ... ... F03 : ... .. . ... : ... .. . ...
ROW 28 : ... .. . ... ... : --- .. . ... : ... .. . ... ... F02 : ... .. . ... : ... .. . ...
ROW 29 : ... .. . ... ... : ... .. . ... : ... .. . 466 ... F03 : ... .. . ... : ... .. . ...
ROW 2A : D-3 0F . ... ... : D-3 17 . ... : ... .. . ... ... F02 : 5-# 00 . ... : ... .. . ...
ROW 2B : ... .. . ... ... : ... .. . ... : ... .. . ... ... F03 : ... .. . ... : ... .. . ...
ROW 2C : --- .. . ... ... : --- .. . ... : ... .. . ... ... F02 : 5-# 00 . ... : ... .. . ...
ROW 2D : D-4 00 . ... ... : F-2 00 . ... : D-4 19 . 400 ... F03 : ... .. . ... : ... .. . ...
ROW 2E : ... .. . ... ... : --- .. . ... : ... .. . ... ... F02 : 5-# 00 . ... : ... .. . ...
ROW 2F : ... .. . ... ... : ... .. . ... : --- .. . ... ... F03 : ... .. . ... : ... .. . ...

PATTERN 09
ROW 00 : E-2 05 . ... ... : E-1 05 . ... : C-3 01 . ... ... F02 : 9-# 06 F ... : ... .. . ...
ROW 01 : ... .. . ... ... : ... .. . ... : E-4 19 . ... ... F03 : ... .. . ... : ... .. . ...
ROW 02 : ... .. . ... ... : ... .. . ... : --- .. . ... ... F02 : ... .. . ... : ... .. . ...
ROW 03 : E-4 00 . ... ... : G-3 00 . ... : C-4 19 . ... ... F03 : ... .. . ... : ... .. . ...
ROW 04 : ... .. . ... ... : --- .. . ... : ... .. . ... ... F02 : ... .. . ... : ... .. . ...
ROW 05 : ... .. . ... ... : ... .. . ... : ... .. . ... ... F03 : ... .. . ... : ... .. . ...
ROW 06 : C-3 11 . ... ... : C-3 0B . ... : ... .. . ... ... F02 : 5-# 00 . ... : ... .. . ...
ROW 07 : ... .. . ... ... : ... .. . ... : ... .. . 203 ... F03 : ... .. . ... : ... .. . ...
ROW 08 : --- .. . ... ... : --- .. . ... : ... .. . ... ... F02 : 5-# 00 . ... : ... .. . ...
ROW 09 : E-4 00 . ... ... : G-3 00 . ... : ... .. . ... ... F03 : ... .. . ... : ... .. . ...
ROW 0A : ... .. . ... ... : --- .. . ... : ... .. . ... ... F02 : 5-# 00 . ... : ... .. . ...
ROW 0B : ... .. . ... ... : ... .. . ... : ... .. . ... ... F02 : ... .. . ... : ... .. . ...
ROW 0C : E-2 05 . ... ... : E-1 05 . ... : G-5 00 . 200 ... F03 : 5-# 00 . ... : ... .. . ...
ROW 0D : ... .. . ... ... : ... .. . ... : ... .. . ... ... F02 : ... .. . ... : ... .. . ...
ROW 0E : ... .. . ... ... : ... .. . ... : ... .. . ... ... F03 : ... .. . ... : ... .. . ...
ROW 0F : C-4 00 . ... ... : C-3 00 . ... : A-5 00 . ... ... F02 : ... .. . ... : ... .. . ...
ROW 10 : ... .. . ... ... : --- .. . ... : ... .. . ... ... F03 : ... .. . ... : ... .. . ...
ROW 11 : ... .. . ... ... : ... .. . ... : ... .. . ... ... F03 : ... .. . ... : ... .. . ...
ROW 12 : C-3 11 . ... ... : C-3 0B . ... : G-5 00 . ... ... F02 : 5-# 00 . ... : ... .. . ...
ROW 13 : ... .. . ... ... : ... .. . ... : ... .. . ... ... F03 : ... .. . ... : ... .. . ...
ROW 14 : --- .. . ... ... : --- .. . ... : ... .. . ... ... F02 : 5-# 00 . ... : ... .. . ...
ROW 15 : C-4 00 . ... ... : C-3 00 . ... : C-5 00 . ... ... F03 : ... .. . ... : ... .. . ...
ROW 16 : ... .. . ... ... : --- .. . ... : ... .. . ... ... F02 : 5-# 00 . ... : ... .. . ...
ROW 17 : ... .. . ... ... : ... .. . ... : ... .. . ... ... F03 : ... .. . ... : ... .. . ...
ROW 18 : F-2 05 . ... ... : F-1 05 . ... : F-5 00 . ... ... F02 : 5-# 00 . ... : ... .. . ...
ROW 19 : ... .. . ... ... : ... .. . ... : ... .. . ... ... F03 : ... .. . ... : ... .. . ...
ROW 1A : ... .. . ... ... : ... .. . ... : ... .. . ... ... F02 : ... .. . ... : ... .. . ...
ROW 1B : F-4 00 . ... ... : A-2 00 . ... : G-5 00 . ... ... F03 : 5-# 00 . ... : ... .. . ...
ROW 1C : ... .. . ... ... : --- .. . ... : ... .. . ... ... F02 : ... .. . ... : ... .. . ...
ROW 1D : ... .. . ... ... : ... .. . ... : ... .. . ... ... F03 : ... .. . ... : ... .. . ...
ROW 1E : F-3 11 . ... ... : F-3 0B . ... : F-5 00 . ... ... F02 : 5-# 00 . ... : ... .. . ...
ROW 1F : ... .. . ... ... : ... .. . ... : ... .. . ... ... F03 : ... .. . ... : ... .. . ...
ROW 20 : --- .. . ... ... : --- .. . ... : ... .. . ... ... F02 : ... .. . ... : ... .. . ...
ROW 21 : F-4 00 . ... ... : C-2 05 . ... : C-4 19 . ... ... F03 : 5-# 00 . ... : ... .. . ...
ROW 22 : ... .. . ... ... : ... .. . ... : ... .. . ... ... F02 : ... .. . ... : ... .. . ...
ROW 23 : --- .. . ... ... : ... .. . ... : ... .. . S01 ... F03 : ... .. . ... : ... .. . ...
ROW 24 : G-2 05 . ... ... : B-1 05 . ... : C-3 01 . ... ... F02 : 5-# 00 . ... : ... .. . ...
ROW 25 : ... .. . ... ... : ... .. . ... : C-4 19 . Q24 ... F03 : ... .. . ... : ... .. . ...
ROW 26 : ... .. . ... ... : ... .. . ... : ... .. . ... ... F02 : ... .. . ... : ... .. . ...
ROW 27 : G-4 00 . ... ... : ... .. . ... : ... .. . 466 ... F03 : ... .. . ... : ... .. . ...
ROW 28 : ... .. . ... ... : ... .. . ... : ... .. . ... ... F02 : ... .. . ... : ... .. . ...
ROW 29 : ... .. . ... ... : --- .. . ... : --- .. . 400 ... F03 : ... .. . ... : ... .. . ...
ROW 2A : G-3 11 . ... ... : G-1 05 . ... : G-4 19 . ... ... F02 : 5-# 00 . ... : ... .. . ...
ROW 2B : ... .. . ... ... : ... .. . ... : ... .. . ... ... F03 : ... .. . ... : ... .. . ...
ROW 2C : ... .. . ... ... : ... .. . ... : ... .. . ... ... F02 : ... .. . ... : ... .. . ...
ROW 2D : G-4 00 . ... ... : ... .. . 213 : --- .. . ... ... F03 : 5-# 00 . ... : ... .. . ...
ROW 2E : ... .. . ... ... : ... .. . ... : ... .. . ... ... F02 : ... .. . ... : ... .. . ...
ROW 2F : --- .. . ... ... : ... .. . ... : ... .. . ... ... F03 : ... .. . ... : ... .. . ...

PATTERN 0A
ROW 00 : C-2 05 . ... ... : C-1 05 F 200 : C-3 01 . ... ... F02 : 9-# 06 F ... : ... .. . ...
ROW 01 : ... .. . ... ... : ... .. . ... : ... .. . ... ... F03 : ... .. . ... : ... .. . ...
ROW 02 : ... .. . ... ... : ... .. . ... : ... .. . ... ... F02 : ... .. . ... : ... .. . ...
ROW 03 : C-4 00 . ... ... : E-3 00 . ... : G-4 19 . ... ... F03 : ... .. . ... : ... .. . ...
ROW 04 : ... .. . ... ... : --- .. . ... : ... .. . ... ... F02 : ... .. . ... : ... .. . ...
ROW 05 : ... .. . ... ... : ... .. . ... : ... .. . ... ... F03 : ... .. . ... : ... .. . ...
ROW 06 : C-3 0B . ... ... : C-3 11 . ... : --- .. . ... ... F02 : 5-# 00 . ... : ... .. . ...
ROW 07 : ... .. . ... ... : ... .. . ... : ... .. . ... ... F03 : ... .. . ... : ... .. . ...
ROW 08 : --- .. . ... ... : --- .. . ... : ... .. . ... ... F02 : 5-# 00 . ... : ... .. . ...
ROW 09 : C-4 00 . ... ... : E-3 00 . ... : ... .. . ... ... F03 : ... .. . ... : ... .. . ...
ROW 0A : ... .. . ... ... : --- .. . ... : ... .. . ... ... F02 : 5-# 00 . ... : ... .. . ...
ROW 0B : ... .. . ... ... : ... .. . ... : ... .. . ... ... F02 : ... .. . ... : ... .. . ...
ROW 0C : G-2 05 . ... ... : G-1 05 . ... : C-3 01 . ... ... F03 : 7-# 06 . ... : ... .. . ...
ROW 0D : ... .. . ... ... : ... .. . ... : C-5 19 . ... ... F02 : ... .. . ... : ... .. . ...
ROW 0E : ... .. . ... ... : ... .. . ... : ... .. . ... ... F03 : ... .. . ... : ... .. . ...
ROW 0F : E-4 00 . ... ... : C-3 00 . ... : ... .. . ... ... F02 : ... .. . ... : ... .. . ...
ROW 10 : ... .. . ... ... : --- .. . ... : ... .. . ... ... F03 : ... .. . ... : ... .. . ...
ROW 11 : ... .. . ... ... : ... .. . ... : ... .. . 488 ... F03 : ... .. . ... : ... .. . ...
ROW 12 : C-3 0B . ... ... : C-3 11 . ... : ... .. . ... ... F02 : ... .. . ... : ... .. . ...
ROW 13 : ... .. . ... ... : ... .. . ... : ... .. . ... ... F03 : ... .. . ... : ... .. . ...
ROW 14 : --- .. . ... ... : --- .. . ... : ... .. . ... ... F02 : ... .. . ... : ... .. . ...
ROW 15 : E-4 00 . ... ... : C-3 00 . ... : G-4 19 . 400 ... F03 : ... .. . ... : ... .. . ...
ROW 16 : ... .. . ... ... : --- .. . ... : A-4 19 . ... ... F02 : ... .. . ... : ... .. . ...
ROW 17 : ... .. . ... ... : ... .. . ... : ... .. . ... ... F03 : ... .. . ... : ... .. . ...
ROW 18 : A-2 05 . ... ... : A-1 05 . ... : C-3 01 . ... ... F02 : ... .. . ... : ... .. . ...
ROW 19 : ... .. . ... ... : ... .. . ... : ... .. . ... ... F03 : ... .. . ... : ... .. . ...
ROW 1A : ... .. . ... ... : ... .. . ... : ... .. . ... ... F02 : ... .. . ... : ... .. . ...
ROW 1B : C#4 00 . ... ... : A-2 00 . ... : G-4 19 . ... ... F03 : ... .. . ... : ... .. . ...
ROW 1C : ... .. . ... ... : --- .. . ... : ... .. . ... ... F02 : ... .. . ... : ... .. . ...
ROW 1D : ... .. . ... ... : ... .. . ... : ... .. . ... ... F03 : ... .. . ... : ... .. . ...
ROW 1E : E-3 13 . ... ... : C#3 13 . ... : ... .. . 477 ... F02 : ... .. . ... : ... .. . ...
ROW 1F : ... .. . ... ... : ... .. . ... : ... .. . ... ... F03 : ... .. . ... : ... .. . ...
ROW 20 : --- .. . ... ... : --- .. . ... : ... .. . ... 220 F02 : ... .. . ... : ... .. . ...
ROW 21 : C#4 00 . ... ... : A-2 00 . ... : G-3 19 . 400 200 F03 : ... .. . ... : ... .. . ...
ROW 22 : ... .. . ... ... : --- .. . ... : ... .. . ... ... F02 : ... .. . ... : ... .. . ...
ROW 23 : ... .. . ... ... : ... .. . ... : ... .. . ... ... F03 : ... .. . ... : ... .. . ...
ROW 24 : E-2 05 . ... ... : E-1 05 . ... : C-3 01 . ... ... F02 : ... .. . ... : ... .. . ...
ROW 25 : ... .. . ... ... : ... .. . ... : C-4 19 . ... ... F03 : ... .. . ... : ... .. . ...
ROW 26 : ... .. . ... ... : ... .. . ... : ... .. . ... ... F02 : ... .. . ... : ... .. . ...
ROW 27 : A-3 00 . ... ... : E-2 00 . ... : ... .. . ... ... F03 : ... .. . ... : ... .. . ...
ROW 28 : ... .. . ... ... : --- .. . ... : ... .. . ... ... F02 : ... .. . ... : ... .. . ...
ROW 29 : ... .. . ... ... : ... .. . ... : ... .. . ... ... F03 : ... .. . ... : ... .. . ...
ROW 2A : C#3 13 . ... ... : C#3 13 . ... : D-4 19 . ... ... F02 : ... .. . ... : ... .. . ...
ROW 2B : ... .. . ... ... : ... .. . ... : ... .. . ... ... F03 : ... .. . ... : ... .. . ...
ROW 2C : --- .. . ... ... : --- .. . ... : ... .. . ... ... F02 : ... .. . ... : ... .. . ...
ROW 2D : A-3 00 . ... ... : E-2 00 . ... : --- .. . ... ... F03 : ... .. . ... : ... .. . ...
ROW 2E : ... .. . ... ... : --- .. . ... : ... .. . ... ... F02 : ... .. . ... : ... .. . ...
ROW 2F : ... .. . ... ... : ... .. . ... : ... .. . ... ... F03 : ... .. . ... : ... .. . ...

PATTERN 0B
ROW 00 : D-2 05 . ... ... : D-1 05 . ... : C-3 01 . ... ... F02 : 9-# 16 F A05 : ... .. . ...
ROW 01 : ... .. . ... ... : ... .. . ... : E-4 19 . ... ... F03 : ... .. . ... : ... .. . ...
ROW 02 : ... .. . ... ... : ... .. . ... : ... .. . ... ... F02 : ... .. . ... : ... .. . ...
ROW 03 : D-4 00 . ... ... : F-3 00 . ... : ... .. . ... ... F03 : ... .. . ... : ... .. . ...
ROW 04 : ... .. . ... ... : --- .. . ... : ... .. . ... ... F02 : ... .. . ... : ... .. . ...
ROW 05 : ... .. . ... ... : ... .. . ... : --- .. . ... ... F03 : ... .. . ... : ... .. . ...
ROW 06 : D-3 17 . ... ... : D-3 0F . ... : F-4 19 . ... ... F02 : D-# 06 F A00 : ... .. . ...
ROW 07 : ... .. . ... ... : ... .. . ... : ... .. . ... ... F03 : ... .. . ... : ... .. . ...
ROW 08 : --- .. . ... ... : --- .. . ... : ... .. . ... ... F02 : ... .. . ... : ... .. . ...
ROW 09 : D-4 00 . ... ... : F-3 00 . ... : G-4 19 . ... ... F03 : D-# 06 8 ... : ... .. . ...
ROW 0A : ... .. . ... ... : --- .. . ... : ... .. . ... ... F02 : ... .. . ... : ... .. . ...
ROW 0B : ... .. . ... ... : ... .. . ... : ... .. . 210 ... F02 : ... .. . ... : ... .. . ...
ROW 0C : A-2 05 . ... ... : A-1 05 . ... : C-3 01 . 200 ... F03 : D-# 02 F ... : ... .. . ...
ROW 0D : ... .. . ... ... : ... .. . ... : ... .. . ... ... F02 : ... .. . ... : ... .. . ...
ROW 0E : ... .. . ... ... : ... .. . ... : ... .. . ... ... F03 : ... .. . ... : ... .. . ...
ROW 0F : F-4 00 . ... ... : D-3 00 . ... : E-4 19 . ... ... F02 : D-# 06 8 ... : ... .. . ...
ROW 10 : ... .. . ... ... : --- .. . ... : ... .. . ... ... F03 : ... .. . ... : ... .. . ...
ROW 11 : ... .. . ... ... : ... .. . ... : ... .. . ... ... F03 : ... .. . ... : ... .. . ...
ROW 12 : D-3 17 . ... ... : D-3 0B . ... : C-4 19 . ... ... F02 : D-# 06 F ... : ... .. . ...
ROW 13 : ... .. . ... ... : ... .. . ... : ... .. . ... ... F03 : ... .. . ... : ... .. . ...
ROW 14 : --- .. . ... ... : --- .. . ... : --- .. . ... ... F02 : --- .. . ... : ... .. . ...
ROW 15 : F-4 00 . ... ... : D-3 00 . ... : D-4 19 . Q12 ... F03 : D-# 06 8 ... : ... .. . ...
ROW 16 : ... .. . ... ... : --- .. . ... : ... .. . ... ... F02 : ... .. . ... : ... .. . ...
ROW 17 : ... .. . ... ... : ... .. . ... : ... .. . ... ... F03 : ... .. . ... : ... .. . ...
ROW 18 : G-2 05 . ... ... : G-1 05 . ... : C-3 01 . ... ... F02 : 2-# 00 . ... : ... .. . ...
ROW 19 : ... .. . ... ... : ... .. . ... : ... .. . ... ... F03 : ... .. . ... : ... .. . ...
ROW 1A : ... .. . ... ... : ... .. . ... : ... .. . ... ... F02 : ... .. . ... : ... .. . ...
ROW 1B : G-4 00 . ... ... : B-2 00 . ... : D-4 19 . ... ... F03 : D-# 06 8 ... : ... .. . ...
ROW 1C : ... .. . ... ... : --- .. . ... : ... .. . ... ... F02 : ... .. . ... : ... .. . ...
ROW 1D : ... .. . ... ... : ... .. . ... : ... .. . ... ... F03 : ... .. . ... : ... .. . ...
ROW 1E : G-3 11 . ... ... : B-2 13 . ... : ... .. . ... 488 F02 : D-# 06 F ... : ... .. . ...
ROW 1F : ... .. . ... ... : ... .. . ... : ... .. . ... ... F03 : ... .. . ... : ... .. . ...
ROW 20 : --- .. . ... ... : --- .. . ... : ... .. . ... ... F02 : ... .. . ... : ... .. . ...
ROW 21 : G-4 00 . ... ... : B-2 00 . ... : ... .. . ... ... F03 : D-# 06 8 ... : ... .. . ...
ROW 22 : ... .. . ... ... : --- .. . ... : ... .. . ... ... F02 : ... .. . ... : ... .. . ...
ROW 23 : ... .. . ... ... : ... .. . ... : --- .. . ... ... F03 : ... .. . ... : ... .. . ...
ROW 24 : G-2 05 . ... ... : G-1 05 . ... : C-3 01 . ... 400 F02 : D-# 02 . ... : ... .. . ...
ROW 25 : ... .. . ... ... : ... .. . ... : G-3 19 . ... ... F03 : ... .. . ... : ... .. . ...
ROW 26 : ... .. . ... ... : ... .. . ... : ... .. . ... ... F02 : ... .. . ... : ... .. . ...
ROW 27 : D-4 00 . ... ... : B-2 00 . ... : ... .. . ... ... F03 : D-# 06 8 ... : ... .. . ...
ROW 28 : ... .. . ... ... : --- .. . ... : ... .. . ... ... F02 : ... .. . ... : ... .. . ...
ROW 29 : ... .. . ... ... : ... .. . ... : ... .. . ... ... F03 : ... .. . ... : ... .. . ...
ROW 2A : B-2 05 . ... ... : B-1 05 . ... : G-4 19 . ... ... F02 : D-# 02 8 ... : ... .. . ...
ROW 2B : ... .. . ... ... : ... .. . ... : ... .. . ... ... F03 : ... .. . ... : ... .. . ...
ROW 2C : --- .. . ... ... : --- .. . ... : ... .. . ... ... F02 : D-# 02 A ... : ... .. . ...
ROW 2D : G-4 00 . ... ... : B-2 00 . ... : ... .. . ... ... F03 : ... .. . ... : ... .. . ...
ROW 2E : ... .. . ... ... : --- .. . ... : ... .. . ... ... F02 : D-# 02 C ... : ... .. . ...
ROW 2F : ... .. . ... ... : ... .. . ... : ... .. . ... ... F03 : ... .. . ... : ... .. . ...

PATTERN 0C
ROW 00 : E-2 05 . ... ... : E-1 05 . ... : C-3 01 . ... ... F02 : D-# 00 1 ... : ... .. . ...
ROW 01 : ... .. . ... ... : ... .. . ... : G-4 19 . ... ... F03 : ... .. . ... : ... .. . ...
ROW 02 : ... .. . ... ... : ... .. . ... : ... .. . ... ... F02 : ... .. . ... : ... .. . ...
ROW 03 : B-3 00 . ... ... : G-3 00 . ... : ... .. . ... ... F03 : D-# 00 3 ... : ... .. . ...
ROW 04 : ... .. . ... ... : --- .. . ... : ... .. . ... ... F02 : ... .. . ... : ... .. . ...
ROW 05 : ... .. . ... ... : ... .. . ... : ... .. . ... ... F03 : ... .. . ... : ... .. . ...
ROW 06 : E-3 17 . ... ... : E-3 0F . ... : ... .. . ... ... F02 : D-# 00 5 ... : ... .. . ...
ROW 07 : ... .. . ... ... : ... .. . ... : ... .. . ... ... F03 : ... .. . ... : ... .. . ...
ROW 08 : --- .. . ... ... : --- .. . ... : ... .. . ... ... F02 : ... .. . ... : ... .. . ...
ROW 09 : B-3 00 . ... ... : G-3 00 . ... : ... .. . ... ... F03 : D-# 00 7 ... : ... .. . ...
ROW 0A : ... .. . ... ... : --- .. . ... : ... .. . ... ... F02 : ... .. . ... : ... .. . ...
ROW 0B : ... .. . ... ... : ... .. . ... : ... .. . ... ... F02 : ... .. . ... : ... .. . ...
ROW 0C : ... .. . ... ... : B-1 05 . ... : C-3 01 . ... ... F03 : D-# 00 9 ... : ... .. . ...
ROW 0D : B-2 05 . ... ... : ... .. . ... : G-4 19 . ... 454 F02 : ... .. . ... : ... .. . ...
ROW 0E : ... .. . ... ... : ... .. . ... : ... .. . ... ... F03 : ... .. . ... : ... .. . ...
ROW 0F : G-3 00 . ... ... : E-3 00 . ... : ... .. . ... ... F02 : D-# 00 A ... : ... .. . ...
ROW 10 : ... .. . ... ... : --- .. . ... : ... .. . ... ... F03 : ... .. . ... : ... .. . ...
ROW 11 : ... .. . ... ... : ... .. . ... : ... .. . ... ... F03 : ... .. . ... : ... .. . ...
ROW 12 : E-3 17 . ... ... : E-3 0F . ... : ... .. . ... ... F02 : D-# 02 C ... : ... .. . ...
ROW 13 : ... .. . ... ... : ... .. . ... : ... .. . ... ... F03 : ... .. . ... : ... .. . ...
ROW 14 : --- .. . ... ... : --- .. . ... : ... .. . ... ... F02 : ... .. . ... : ... .. . ...
ROW 15 : G-3 00 . ... ... : E-3 00 . ... : ... .. . ... ... F03 : D-# 02 D ... : ... .. . ...
ROW 16 : ... .. . ... ... : --- .. . ... : ... .. . ... ... F02 : ... .. . ... : ... .. . ...
ROW 17 : ... .. . ... ... : ... .. . ... : ... .. . ... ... F03 : ... .. . ... : ... .. . ...
ROW 18 : C-3 01 . ... ... : A#1 05 . ... : ... .. . ... ... F02 : D-# 00 6 ... : ... .. . ...
ROW 19 : A#2 05 . ... ... : ... .. . ... : ... .. . ... ... F03 : ... .. . ... : ... .. . ...
ROW 1A : ... .. . ... ... : ... .. . ... : ... .. . ... ... F02 : ... .. . ... : ... .. . ...
ROW 1B : D#3 00 . ... ... : G-3 00 . ... : ... .. . ... ... F03 : ... .. . ... : ... .. . ...
ROW 1C : ... .. . ... ... : --- .. . ... : ... .. . ... ... F02 : ... .. . ... : ... .. . ...
ROW 1D : ... .. . ... ... : ... .. . ... : ... .. . ... ... F03 : ... .. . ... : ... .. . ...
ROW 1E : D#3 11 . ... ... : D#3 0B . ... : ... .. . ... ... F02 : ... .. . ... : ... .. . ...
ROW 1F : ... .. . ... ... : ... .. . ... : ... .. . ... ... F03 : ... .. . ... : ... .. . ...
ROW 20 : --- .. . ... ... : --- .. . ... : ... .. . ... ... F02 : ... .. . ... : ... .. . ...
ROW 21 : D#3 00 . ... ... : G-3 00 . ... : ... .. . ... ... F03 : ... .. . ... : ... .. . ...
ROW 22 : ... .. . ... ... : --- .. . ... : ... .. . ... ... F02 : ... .. . ... : ... .. . ...
ROW 23 : ... .. . ... ... : ... .. . ... : ... .. . ... ... F03 : ... .. . ... : ... .. . ...
ROW 24 : ... .. . ... ... : D#1 05 . ... : C-3 01 . ... 400 F02 : ... .. . ... : ... .. . ...
ROW 25 : D#2 05 . ... ... : ... .. . ... : ... .. . ... ... F03 : ... .. . ... : ... .. . ...
ROW 26 : ... .. . ... ... : ... .. . ... : ... .. . ... ... F02 : ... .. . ... : ... .. . ...
ROW 27 : A#2 00 . ... ... : D#3 00 . ... : A-3 19 . ... 400 F03 : ... .. . ... : ... .. . ...
ROW 28 : ... .. . ... ... : --- .. . ... : ... .. . ... ... F02 : ... .. . ... : ... .. . ...
ROW 29 : ... .. . ... ... : ... .. . ... : --- .. . ... ... F03 : ... .. . ... : ... .. . ...
ROW 2A : D#3 11 . ... ... : D#3 0B . ... : F-4 19 . Q24 ... F02 : ... .. . ... : ... .. . ...
ROW 2B : ... .. . ... ... : ... .. . ... : ... .. . ... ... F03 : ... .. . ... : ... .. . ...
ROW 2C : --- .. . ... ... : --- .. . ... : ... .. . ... ... F02 : ... .. . ... : ... .. . ...
ROW 2D : A#2 00 . ... ... : D#3 00 . ... : ... .. . ... ... F03 : ... .. . ... : ... .. . ...
ROW 2E : ... .. . ... ... : --- .. . ... : ... .. . ... ... F02 : ... .. . ... : ... .. . ...
ROW 2F : ... .. . ... ... : ... .. . ... : ... .. . ... ... F03 : ... .. . ... : ... .. . ...

PATTERN 0D
ROW 00 : D-2 05 . ... ... : D-1 05 . ... : C-3 01 . ... ... F02 : 9-# 16 F ... : ... .. . ...
ROW 01 : ... .. . ... ... : ... .. . ... : G-4 19 . ... ... F03 : ... .. . ... : ... .. . ...
ROW 02 : ... .. . ... ... : ... .. . ... : ... .. . ... ... F02 : ... .. . ... : ... .. . ...
ROW 03 : A-3 00 . ... ... : F-3 00 . ... : ... .. . ... ... F03 : ... .. . ... : ... .. . ...
ROW 04 : ... .. . ... ... : --- .. . ... : ... .. . ... ... F02 : ... .. . ... : ... .. . ...
ROW 05 : ... .. . ... ... : ... .. . ... : ... .. . ... ... F03 : ... .. . ... : ... .. . ...
ROW 06 : D-3 17 . ... ... : D-3 0F . ... : ... .. . ... ... F02 : ... .. . ... : ... .. . ...
ROW 07 : ... .. . ... ... : ... .. . ... : ... .. . ... ... F03 : ... .. . ... : ... .. . ...
ROW 08 : --- .. . ... ... : --- .. . ... : ... .. . ... ... F02 : ... .. . ... : ... .. . ...
ROW 09 : A-3 00 . ... ... : F-3 00 . ... : ... .. . ... ... F03 : ... .. . ... : ... .. . ...
ROW 0A : ... .. . ... ... : --- .. . ... : ... .. . ... ... F02 : ... .. . ... : ... .. . ...
ROW 0B : ... .. . ... ... : ... .. . ... : ... .. . ... ... F02 : ... .. . ... : ... .. . ...
ROW 0C : D-2 05 . ... ... : D-1 05 . ... : C-3 01 . ... 454 F03 : ... .. . ... : ... .. . ...
ROW 0D : ... .. . ... ... : ... .. . ... : G-4 19 . ... ... F02 : ... .. . ... : ... .. . ...
ROW 0E : ... .. . ... ... : ... .. . ... : ... .. . ... ... F03 : ... .. . ... : ... .. . ...
ROW 0F : C-4 00 . ... ... : D-3 00 . ... : ... .. . ... ... F02 : ... .. . ... : ... .. . ...
ROW 10 : ... .. . ... ... : --- .. . ... : ... .. . ... ... F03 : ... .. . ... : ... .. . ...
ROW 11 : ... .. . ... ... : ... .. . ... : ... .. . ... ... F03 : ... .. . ... : ... .. . ...
ROW 12 : D-3 17 . ... ... : D-3 0F . ... : ... .. . ... ... F02 : ... .. . ... : ... .. . ...
ROW 13 : ... .. . ... ... : ... .. . ... : ... .. . ... ... F03 : ... .. . ... : ... .. . ...
ROW 14 : --- .. . ... ... : --- .. . ... : ... .. . ... ... F02 : ... .. . ... : ... .. . ...
ROW 15 : C-4 00 . ... ... : D-3 00 . ... : ... .. . ... ... F03 : ... .. . ... : ... .. . ...
ROW 16 : ... .. . ... ... : --- .. . ... : ... .. . ... ... F02 : ... .. . ... : ... .. . ...
ROW 17 : ... .. . ... ... : ... .. . ... : ... .. . ... ... F03 : ... .. . ... : ... .. . ...
ROW 18 : G-2 05 . ... ... : G-1 05 . ... : C-3 01 . ... 400 F02 : ... .. . ... : ... .. . ...
ROW 19 : ... .. . ... ... : ... .. . ... : C-5 19 . ... ... F03 : ... .. . ... : ... .. . ...
ROW 1A : ... .. . ... ... : ... .. . ... : ... .. . ... ... F02 : ... .. . ... : ... .. . ...
ROW 1B : B-2 00 . ... ... : G-3 00 . ... : ... .. . ... ... F03 : ... .. . ... : ... .. . ...
ROW 1C : ... .. . ... ... : --- .. . ... : ... .. . 220 ... F02 : ... .. . ... : ... .. . ...
ROW 1D : ... .. . ... ... : ... .. . ... : ... .. . ... ... F03 : ... .. . ... : ... .. . ...
ROW 1E : D-3 14 . ... ... : B-2 13 . ... : --- .. . 200 ... F02 : ... .. . ... : ... .. . ...
ROW 1F : ... .. . ... ... : ... .. . ... : ... .. . ... ... F03 : ... .. . ... : ... .. . ...
ROW 20 : --- .. . ... ... : --- .. . ... : ... .. . ... ... F02 : ... .. . ... : ... .. . ...
ROW 21 : B-2 00 . ... ... : G-3 00 . ... : B-3 19 . ... ... F03 : ... .. . ... : ... .. . ...
ROW 22 : ... .. . ... ... : --- .. . ... : ... .. . ... ... F02 : ... .. . ... : ... .. . ...
ROW 23 : ... .. . ... ... : ... .. . ... : ... .. . ... ... F03 : ... .. . ... : ... .. . ...
ROW 24 : G-2 05 . ... ... : G-1 05 . ... : C-3 01 . ... ... F02 : ... .. . ... : ... .. . ...
ROW 25 : ... .. . ... ... : ... .. . ... : G-4 19 . Q14 ... F03 : ... .. . ... : ... .. . ...
ROW 26 : ... .. . ... ... : ... .. . ... : ... .. . ... ... F02 : ... .. . ... : ... .. . ...
ROW 27 : G-2 00 . ... ... : F-3 00 . ... : ... .. . ... ... F03 : ... .. . ... : ... .. . ...
ROW 28 : ... .. . ... ... : --- .. . ... : ... .. . ... ... F02 : ... .. . ... : ... .. . ...
ROW 29 : ... .. . ... ... : ... .. . ... : ... .. . ... ... F03 : ... .. . ... : ... .. . ...
ROW 2A : F-2 05 . ... ... : F-1 05 . ... : G-4 19 . ... ... F02 : D-# 02 C ... : ... .. . ...
ROW 2B : ... .. . ... ... : ... .. . ... : ... .. . ... ... F03 : ... .. . ... : ... .. . ...
ROW 2C : --- .. . ... ... : --- .. . ... : ... .. . ... ... F02 : ... .. . ... : ... .. . ...
ROW 2D : B-2 00 . ... ... : F-3 00 . ... : ... .. . ... ... F03 : D-# 02 D ... : ... .. . ...
ROW 2E : ... .. . ... ... : --- .. . ... : ... .. . ... ... F02 : ... .. . ... : ... .. . ...
ROW 2F : ... .. . ... ... : ... .. . ... : ... .. . ... ... F03 : ... .. . ... : ... .. . ...

PATTERN 0E
ROW 00 : E-2 05 . ... ... : E-1 05 . ... : C-3 01 . ... ... F02 : ... .. . ... : ... .. . ...
ROW 01 : ... .. . ... ... : ... .. . ... : G-4 19 . ... ... F03 : ... .. . ... : ... .. . ...
ROW 02 : ... .. . ... ... : ... .. . ... : ... .. . ... ... F02 : ... .. . ... : ... .. . ...
ROW 03 : B-3 00 . ... ... : G-3 00 . ... : ... .. . ... ... F03 : ... .. . ... : ... .. . ...
ROW 04 : ... .. . ... ... : --- .. . ... : ... .. . ... ... F02 : ... .. . ... : ... .. . ...
ROW 05 : ... .. . ... ... : ... .. . ... : ... .. . ... ... F03 : ... .. . ... : ... .. . ...
ROW 06 : E-3 17 . ... ... : E-3 0F . ... : ... .. . ... ... F02 : ... .. . ... : ... .. . ...
ROW 07 : ... .. . ... ... : ... .. . ... : ... .. . ... ... F03 : ... .. . ... : ... .. . ...
ROW 08 : --- .. . ... ... : --- .. . ... : ... .. . ... ... F02 : ... .. . ... : ... .. . ...
ROW 09 : B-3 00 . ... ... : G-3 00 . ... : ... .. . ... ... F03 : ... .. . ... : ... .. . ...
ROW 0A : ... .. . ... ... : --- .. . ... : ... .. . ... ... F02 : ... .. . ... : ... .. . ...
ROW 0B : ... .. . ... ... : ... .. . ... : ... .. . ... ... F02 : ... .. . ... : ... .. . ...
ROW 0C : B-2 05 . ... ... : B-1 05 . ... : C-3 01 . ... 454 F03 : ... .. . ... : ... .. . ...
ROW 0D : ... .. . ... ... : ... .. . ... : G-4 19 . ... ... F02 : ... .. . ... : ... .. . ...
ROW 0E : ... .. . ... ... : ... .. . ... : ... .. . ... ... F03 : ... .. . ... : ... .. . ...
ROW 0F : G-3 00 . ... ... : E-3 00 . ... : ... .. . ... ... F02 : ... .. . ... : ... .. . ...
ROW 10 : ... .. . ... ... : --- .. . ... : ... .. . ... ... F03 : ... .. . ... : ... .. . ...
ROW 11 : ... .. . ... ... : ... .. . ... : ... .. . ... ... F03 : ... .. . ... : ... .. . ...
ROW 12 : E-3 17 . ... ... : E-3 0B . ... : ... .. . ... ... F02 : ... .. . ... : ... .. . ...
ROW 13 : ... .. . ... ... : ... .. . ... : ... .. . ... ... F03 : ... .. . ... : ... .. . ...
ROW 14 : --- .. . ... ... : --- .. . ... : ... .. . ... ... F02 : ... .. . ... : ... .. . ...
ROW 15 : G-3 00 . ... ... : E-3 00 . ... : ... .. . ... ... F03 : ... .. . ... : ... .. . ...
ROW 16 : ... .. . ... ... : --- .. . ... : ... .. . ... ... F02 : ... .. . ... : ... .. . ...
ROW 17 : ... .. . ... ... : ... .. . ... : ... .. . ... ... F03 : ... .. . ... : ... .. . ...
ROW 18 : A#2 05 . ... ... : A#1 05 . ... : ... .. . ... ... F02 : ... .. . ... : ... .. . ...
ROW 19 : ... .. . ... ... : ... .. . ... : ... .. . ... ... F03 : ... .. . ... : ... .. . ...
ROW 1A : ... .. . ... ... : ... .. . ... : ... .. . ... ... F02 : ... .. . ... : ... .. . ...
ROW 1B : D#3 00 . ... ... : G-3 00 . ... : ... .. . ... ... F03 : ... .. . ... : ... .. . ...
ROW 1C : ... .. . ... ... : --- .. . ... : ... .. . ... ... F02 : ... .. . ... : ... .. . ...
ROW 1D : ... .. . ... ... : ... .. . ... : ... .. . ... ... F03 : ... .. . ... : ... .. . ...
ROW 1E : D#3 11 . ... ... : D#3 0B . ... : D#4 19 . ... 400 F02 : ... .. . ... : ... .. . ...
ROW 1F : ... .. . ... ... : ... .. . ... : F-4 19 . ... ... F03 : ... .. . ... : ... .. . ...
ROW 20 : --- .. . ... ... : --- .. . ... : G-4 19 . ... ... F02 : ... .. . ... : ... .. . ...
ROW 21 : D#3 00 . ... ... : G-3 00 . ... : A#4 19 . ... ... F03 : ... .. . ... : ... .. . ...
ROW 22 : ... .. . ... ... : --- .. . ... : D#5 19 . ... ... F02 : ... .. . ... : ... .. . ...
ROW 23 : ... .. . ... ... : ... .. . ... : F-5 19 . ... ... F03 : ... .. . ... : ... .. . ...
ROW 24 : D#2 05 . ... ... : D#1 05 . ... : C-3 01 . ... ... F02 : ... .. . ... : ... .. . ...
ROW 25 : ... .. . ... ... : ... .. . ... : G-5 19 . ... ... F03 : ... .. . ... : ... .. . ...
ROW 26 : ... .. . ... ... : ... .. . ... : ... .. . ... ... F02 : ... .. . ... : ... .. . ...
ROW 27 : A#2 00 . ... ... : D#3 00 . ... : ... .. . ... ... F03 : ... .. . ... : ... .. . ...
ROW 28 : ... .. . ... ... : --- .. . ... : ... .. . ... ... F02 : ... .. . ... : ... .. . ...
ROW 29 : ... .. . ... ... : ... .. . ... : ... .. . ... ... F03 : ... .. . ... : ... .. . ...
ROW 2A : D#3 11 . ... ... : D#3 0B . ... : ... .. . 215 ... F02 : ... .. . ... : ... .. . ...
ROW 2B : ... .. . ... ... : ... .. . ... : ... .. . ... ... F03 : ... .. . ... : ... .. . ...
ROW 2C : --- .. . ... ... : --- .. . ... : ... .. . ... ... F02 : ... .. . ... : ... .. . ...
ROW 2D : A#2 00 . ... ... : D#3 00 . ... : ... .. . ... ... F03 : ... .. . ... : ... .. . ...
ROW 2E : ... .. . ... ... : --- .. . ... : ... .. . ... ... F02 : ... .. . ... : ... .. . ...
ROW 2F : ... .. . ... ... : ... .. . ... : ... .. . ... ... F03 : ... .. . ... : ... .. . ...

PATTERN 0F
ROW 00 : D-2 05 . ... ... : D-1 05 . ... : B-7 01 . 200 ... F02 : ... .. . ... : ... .. . ...
ROW 01 : ... .. . ... ... : ... .. . ... : ... .. . ... ... F03 : ... .. . ... : ... .. . ...
ROW 02 : ... .. . S01 ... : ... .. . S01 : ... .. . ... ... F02 : ... .. . ... : ... .. . ...
ROW 03 : D-2 05 . ... ... : D-1 05 . ... : D#7 01 . ... ... F03 : ... .. . ... : ... .. . ...
ROW 04 : ... .. . ... ... : ... .. . ... : ... .. . ... ... F02 : ... .. . ... : ... .. . ...
ROW 05 : ... .. . S01 ... : ... .. . S01 : ... .. . ... ... F03 : ... .. . ... : ... .. . ...
ROW 06 : D-3 17 . ... ... : D-3 0F . ... : ... .. . ... ... F02 : ... .. . ... : ... .. . ...
ROW 07 : ... .. . ... ... : ... .. . ... : ... .. . ... ... F03 : ... .. . ... : ... .. . ...
ROW 08 : --- .. . ... ... : --- .. . ... : ... .. . ... ... F02 : ... .. . ... : ... .. . ...
ROW 09 : D-2 05 . ... ... : D-1 05 . ... : D#6 01 . ... ... F03 : ... .. . ... : ... .. . ...
ROW 0A : ... .. . ... ... : ... .. . ... : ... .. . ... ... F02 : ... .. . ... : ... .. . ...
ROW 0B : ... .. . S01 ... : ... .. . S01 : ... .. . ... ... F02 : ... .. . ... : ... .. . ...
ROW 0C : G-2 05 . ... ... : G-1 05 . ... : B-5 01 . ... ... F03 : ... .. . ... : ... .. . ...
ROW 0D : ... .. . ... ... : ... .. . ... : ... .. . ... ... F02 : ... .. . ... : ... .. . ...
ROW 0E : ... .. . ... ... : ... .. . ... : ... .. . ... ... F03 : ... .. . ... : ... .. . ...
ROW 0F : F-3 00 . ... ... : D-3 00 . ... : ... .. . ... ... F02 : ... .. . ... : ... .. . ...
ROW 10 : --- .. . ... ... : --- .. . ... : ... .. . ... ... F03 : ... .. . ... : ... .. . ...
ROW 11 : ... .. . ... ... : ... .. . ... : ... .. . ... ... F03 : ... .. . ... : ... .. . ...
ROW 12 : G-2 05 . ... ... : G-1 05 . ... : A-5 01 . ... ... F02 : ... .. . ... : ... .. . ...
ROW 13 : ... .. . ... ... : ... .. . ... : ... .. . ... ... F03 : ... .. . ... : ... .. . ...
ROW 14 : ... .. . ... ... : ... .. . ... : ... .. . ... ... F02 : ... .. . ... : ... .. . ...
ROW 15 : F-3 00 . ... ... : D-3 00 . ... : ... .. . ... ... F03 : ... .. . ... : ... .. . ...
ROW 16 : --- .. . ... ... : --- .. . ... : ... .. . ... ... F02 : ... .. . ... : ... .. . ...
ROW 17 : ... .. . ... ... : ... .. . ... : ... .. . ... ... F03 : ... .. . ... : ... .. . ...
ROW 18 : C-2 05 . ... ... : C-1 05 . ... : D#7 01 . ... ... F02 : ... .. . ... : ... .. . ...
ROW 19 : ... .. . ... ... : ... .. . ... : ... .. . ... ... F03 : ... .. . ... : ... .. . ...
ROW 1A : ... .. . ... ... : ... .. . ... : ... .. . ... ... F02 : ... .. . ... : ... .. . ...
ROW 1B : C-5 0D . ... ... : G-3 00 . ... : ... .. . ... ... F03 : ... .. . ... : ... .. . ...
ROW 1C : ... .. . ... ... : --- .. . ... : ... .. . ... ... F02 : ... .. . ... : ... .. . ...
ROW 1D : ... .. . ... ... : ... .. . ... : ... .. . ... ... F03 : ... .. . ... : ... .. . ...
ROW 1E : G-4 0D . ... ... : C-3 0B . ... : G-5 05 . ... ... F02 : ... .. . ... : ... .. . ...
ROW 1F : ... .. . ... ... : ... .. . ... : ... .. . ... ... F03 : ... .. . ... : ... .. . ...
ROW 20 : ... .. . ... ... : --- .. . ... : A-5 05 . 330 ... F02 : ... .. . ... : ... .. . ...
ROW 21 : F-4 0D . ... ... : G-3 00 . ... : ... .. . ... ... F03 : ... .. . ... : ... .. . ...
ROW 22 : ... .. . ... ... : --- .. . ... : B-5 05 . ... ... F02 : ... .. . ... : ... .. . ...
ROW 23 : ... .. . ... ... : ... .. . ... : ... .. . S01 ... F03 : ... .. . ... : ... .. . ...
ROW 24 : E-4 0D . ... ... : A#1 05 . ... : C-6 05 . 300 ... F02 : ... .. . ... : ... .. . ...
ROW 25 : ... .. . ... ... : ... .. . ... : ... .. . ... ... F03 : ... .. . ... : ... .. . ...
ROW 26 : ... .. . ... ... : ... .. . ... : ... .. . ... ... F02 : ... .. . ... : ... .. . ...
ROW 27 : C-4 0D . ... ... : A-1 05 . ... : --- .. . ... ... F03 : ... .. . ... : ... .. . ...
ROW 28 : ... .. . ... ... : ... .. . ... : ... .. . ... ... F02 : ... .. . ... : ... .. . ...
ROW 29 : ... .. . ... ... : ... .. . ... : ... .. . ... ... F03 : ... .. . ... : ... .. . ...
ROW 2A : G#3 0D . ... ... : G#1 05 . ... : ... .. . ... ... F02 : ... .. . ... : ... .. . ...
ROW 2B : ... .. . ... ... : ... .. . ... : ... .. . ... ... F03 : ... .. . ... : ... .. . ...
ROW 2C : ... .. . ... ... : ... .. . ... : ... .. . ... ... F02 : ... .. . ... : ... .. . ...
ROW 2D : E-3 0D . ... ... : G-1 05 . ... : ... .. . ... ... F03 : ... .. . ... : ... .. . ...
ROW 2E : ... .. . ... ... : ... .. . ... : ... .. . ... ... F02 : ... .. . ... : ... .. . ...
ROW 2F : ... .. . ... ... : ... .. . ... : ... .. . ... ... F03 : ... .. . ... : ... .. . ...

PATTERN 10
ROW 00 : F#1 05 F ... ... : C-4 0C F ... : C-4 01 . ... ... F02 : ... .. . ... : ... .. . ...
ROW 01 : ... .. . ... ... : ... .. . ... : F#2 05 . ... ... F03 : ... .. . ... : ... .. . ...
ROW 02 : ... .. . ... ... : ... .. . ... : ... .. . ... ... F02 : ... .. . ... : ... .. . ...
ROW 03 : --- .. . ... ... : C-4 0C 8 ... : C#5 03 . ... ... F03 : ... .. . ... : ... .. . ...
ROW 04 : ... .. . ... ... : ... .. . ... : ... .. . ... ... F02 : ... .. . ... : ... .. . ...
ROW 05 : ... .. . ... ... : ... .. . ... : ... .. . ... ... F03 : ... .. . ... : ... .. . ...
ROW 06 : D-3 1C A ... ... : A#3 0C F ... : F#3 0B . ... ... F02 : ... .. . ... : ... .. . ...
ROW 07 : D#3 1C . ... ... : ... .. . ... : ... .. . ... ... F03 : ... .. . ... : ... .. . ...
ROW 08 : ... .. . ... ... : ... .. . ... : --- .. . ... ... F02 : ... .. . ... : ... .. . ...
ROW 09 : ... .. . ... ... : A#3 0C 8 ... : C-5 03 . ... ... F03 : ... .. . ... : ... .. . ...
ROW 0A : ... .. . ... ... : ... .. . ... : ... .. . ... ... F02 : ... .. . ... : ... .. . ...
ROW 0B : --- .. . ... ... : ... .. . ... : ... .. . ... ... F02 : ... .. . ... : ... .. . ...
ROW 0C : E-3 1C . ... ... : F#3 0C F ... : C-4 01 . ... ... F03 : ... .. . ... : ... .. . ...
ROW 0D : ... .. . ... ... : ... .. . ... : F#2 05 . ... ... F02 : ... .. . ... : ... .. . ...
ROW 0E : ... .. . ... ... : ... .. . ... : ... .. . ... ... F03 : ... .. . ... : ... .. . ...
ROW 0F : ... .. . ... ... : F#3 0C 8 ... : C#5 03 . ... ... F02 : ... .. . ... : ... .. . ...
ROW 10 : ... .. . ... ... : ... .. . ... : ... .. . ... ... F03 : ... .. . ... : ... .. . ...
ROW 11 : ... .. . ... ... : ... .. . ... : ... .. . ... ... F03 : ... .. . ... : ... .. . ...
ROW 12 : D#3 1C . ... ... : C#3 0C F ... : F#3 0B . ... ... F02 : ... .. . ... : ... .. . ...
ROW 13 : ... .. . ... ... : ... .. . ... : ... .. . ... ... F03 : ... .. . ... : ... .. . ...
ROW 14 : E-3 1C . ... ... : ... .. . ... : --- .. . ... ... F02 : ... .. . ... : ... .. . ...
ROW 15 : ... .. . ... ... : C#3 0C 8 ... : C-5 03 . ... ... F03 : ... .. . ... : ... .. . ...
ROW 16 : D#3 1C . ... ... : ... .. . ... : ... .. . ... ... F02 : ... .. . ... : ... .. . ...
ROW 17 : ... .. . ... ... : ... .. . ... : ... .. . ... ... F03 : ... .. . ... : ... .. . ...
ROW 18 : C#3 1C . ... ... : C-4 0C F ... : C-4 01 . ... ... F02 : ... .. . ... : ... .. . ...
ROW 19 : ... .. . ... ... : ... .. . ... : F#2 05 . ... ... F03 : ... .. . ... : ... .. . ...
ROW 1A : ... .. . ... ... : ... .. . ... : ... .. . ... ... F02 : ... .. . ... : ... .. . ...
ROW 1B : ... .. . ... ... : C-4 0C 8 ... : C#5 03 . ... ... F03 : ... .. . ... : ... .. . ...
ROW 1C : ... .. . ... ... : ... .. . ... : ... .. . ... ... F02 : ... .. . ... : ... .. . ...
ROW 1D : ... .. . ... ... : ... .. . ... : ... .. . ... ... F03 : ... .. . ... : ... .. . ...
ROW 1E : C-3 1C . ... ... : A#3 0C F ... : F#3 0B . ... ... F02 : ... .. . ... : ... .. . ...
ROW 1F : ... .. . ... ... : ... .. . ... : ... .. . ... ... F03 : ... .. . ... : ... .. . ...
ROW 20 : ... .. . ... ... : ... .. . ... : --- .. . ... ... F02 : ... .. . ... : ... .. . ...
ROW 21 : ... .. . ... ... : A#3 0C 8 ... : C-5 03 . ... ... F03 : ... .. . ... : ... .. . ...
ROW 22 : ... .. . ... ... : ... .. . ... : ... .. . ... ... F02 : ... .. . ... : ... .. . ...
ROW 23 : ... .. . ... ... : ... .. . ... : ... .. . ... ... F03 : ... .. . ... : ... .. . ...
ROW 24 : C#3 1C . ... ... : F#3 0C F ... : C-4 01 . ... ... F02 : ... .. . ... : ... .. . ...
ROW 25 : ... .. . ... ... : ... .. . ... : F#2 05 . ... ... F03 : ... .. . ... : ... .. . ...
ROW 26 : ... .. . ... ... : ... .. . ... : ... .. . ... ... F02 : ... .. . ... : ... .. . ...
ROW 27 : ... .. . ... ... : F#3 0C 8 ... : ... .. . ... ... F03 : ... .. . ... : ... .. . ...
ROW 28 : ... .. . ... ... : ... .. . ... : ... .. . ... ... F02 : ... .. . ... : ... .. . ...
ROW 29 : ... .. . ... ... : ... .. . ... : ... .. . ... ... F03 : ... .. . ... : ... .. . ...
ROW 2A : F#3 1C . 310 ... : C#3 0C F ... : C-4 01 . ... ... F02 : ... .. . ... : ... .. . ...
ROW 2B : ... .. . ... ... : ... .. . ... : F#2 05 . ... ... F03 : ... .. . ... : ... .. . ...
ROW 2C : ... .. . ... ... : ... .. . ... : ... .. . ... ... F02 : ... .. . ... : ... .. . ...
ROW 2D : ... .. . ... ... : C#3 0C 8 ... : ... .. . ... ... F03 : ... .. . ... : ... .. . ...
ROW 2E : ... .. . ... ... : ... .. . ... : ... .. . ... ... F02 : ... .. . ... : ... .. . ...
ROW 2F : ... .. . ... ... : ... .. . ... : ... .. . ... ... F03 : ... .. . ... : ... .. . ...

PATTERN 11
ROW 00 : G-3 1C . ... ... : E-3 0C F ... : C-4 01 . ... ... F02 : ... .. . ... : ... .. . ...
ROW 01 : ... .. . ... ... : ... .. . ... : C-3 05 . ... ... F03 : ... .. . ... : ... .. . ...
ROW 02 : ... .. . ... ... : ... .. . ... : ... .. . ... ... F02 : ... .. . ... : ... .. . ...
ROW 03 : ... .. . ... ... : E-3 0C 8 ... : G-5 03 . ... ... F03 : ... .. . ... : ... .. . ...
ROW 04 : ... .. . ... ... : ... .. . ... : ... .. . ... ... F02 : ... .. . ... : ... .. . ...
ROW 05 : ... .. . ... ... : ... .. . ... : ... .. . ... ... F03 : ... .. . ... : ... .. . ...
ROW 06 : ... .. . ... ... : E-4 1B F ... : C-4 0B . ... ... F02 : ... .. . ... : ... .. . ...
ROW 07 : ... .. . ... ... : ... .. . ... : ... .. . ... ... F03 : ... .. . ... : ... .. . ...
ROW 08 : ... .. . ... ... : ... .. . ... : --- .. . ... ... F02 : ... .. . ... : ... .. . ...
ROW 09 : ... .. . ... ... : E-4 1B . ... : F#5 03 . ... ... F03 : ... .. . ... : ... .. . ...
ROW 0A : ... .. . ... ... : ... .. . ... : ... .. . ... ... F02 : ... .. . ... : ... .. . ...
ROW 0B : ... .. . ... ... : ... .. . ... : ... .. . ... ... F02 : ... .. . ... : ... .. . ...
ROW 0C : ... .. . 201 ... : D#4 1B . ... : C-4 01 . ... ... F03 : ... .. . ... : ... .. . ...
ROW 0D : ... .. . ... ... : ... .. . ... : C-3 05 . ... ... F02 : ... .. . ... : ... .. . ...
ROW 0E : ... .. . ... ... : ... .. . ... : ... .. . ... ... F03 : ... .. . ... : ... .. . ...
ROW 0F : ... .. . 203 488 : D#4 1B . ... : G-5 03 . ... ... F02 : ... .. . ... : ... .. . ...
ROW 10 : ... .. . ... ... : ... .. . ... : ... .. . ... ... F03 : ... .. . ... : ... .. . ...
ROW 11 : ... .. . ... ... : ... .. . ... : ... .. . ... ... F03 : ... .. . ... : ... .. . ...
ROW 12 : ... .. . ... ... : C-4 1B . ... : C-4 0B . ... ... F02 : ... .. . ... : ... .. . ...
ROW 13 : ... .. . ... ... : ... .. . ... : ... .. . ... ... F03 : ... .. . ... : ... .. . ...
ROW 14 : ... .. . ... ... : ... .. . ... : --- .. . ... ... F02 : ... .. . ... : ... .. . ...
ROW 15 : ... .. . ... ... : C-4 1B 8 ... : F#5 03 . ... ... F03 : ... .. . ... : ... .. . ...
ROW 16 : ... .. . ... ... : ... .. . ... : ... .. . ... ... F02 : ... .. . ... : ... .. . ...
ROW 17 : ... .. . ... ... : ... .. . ... : ... .. . ... ... F03 : ... .. . ... : ... .. . ...
ROW 18 : ... .. . A03 4AA : G-2 0C F ... : C-4 01 . ... ... F02 : ... .. . ... : ... .. . ...
ROW 19 : ... .. . ... ... : ... .. . ... : C-3 05 . ... ... F03 : ... .. . ... : ... .. . ...
ROW 1A : ... .. . ... ... : ... .. . ... : ... .. . ... ... F02 : ... .. . ... : ... .. . ...
ROW 1B : ... .. . ... ... : G-2 0C 8 ... : G-5 03 . ... ... F03 : ... .. . ... : ... .. . ...
ROW 1C : ... .. . ... ... : ... .. . ... : ... .. . ... ... F02 : ... .. . ... : ... .. . ...
ROW 1D : ... .. . ... ... : ... .. . ... : ... .. . ... ... F03 : ... .. . ... : ... .. . ...
ROW 1E : ... .. . ... ... : E-4 1B F ... : C-4 0B . ... ... F02 : ... .. . ... : ... .. . ...
ROW 1F : ... .. . ... ... : ... .. . ... : ... .. . ... ... F03 : ... .. . ... : ... .. . ...
ROW 20 : ... .. . ... ... : ... .. . ... : --- .. . ... ... F02 : ... .. . ... : ... .. . ...
ROW 21 : ... .. . ... ... : E-4 1B . ... : A-5 03 . ... ... F03 : ... .. . ... : ... .. . ...
ROW 22 : ... .. . ... ... : ... .. . ... : ... .. . ... ... F02 : ... .. . ... : ... .. . ...
ROW 23 : ... .. . ... ... : ... .. . ... : ... .. . ... ... F03 : ... .. . ... : ... .. . ...
ROW 24 : ... .. . ... ... : D#4 1B . ... : C-4 01 . ... ... F02 : ... .. . ... : ... .. . ...
ROW 25 : ... .. . ... ... : ... .. . ... : C-3 05 . ... ... F03 : ... .. . ... : ... .. . ...
ROW 26 : ... .. . ... ... : ... .. . ... : ... .. . ... ... F02 : ... .. . ... : ... .. . ...
ROW 27 : ... .. . ... ... : D#4 1B . ... : A#5 03 . ... ... F03 : ... .. . ... : ... .. . ...
ROW 28 : ... .. . ... ... : ... .. . ... : ... .. . ... ... F02 : ... .. . ... : ... .. . ...
ROW 29 : ... .. . ... ... : ... .. . ... : ... .. . ... ... F03 : ... .. . ... : ... .. . ...
ROW 2A : ... .. . 200 400 : C-4 1B . ... : C-4 0B . ... ... F02 : ... .. . ... : ... .. . ...
ROW 2B : ... .. . A00 ... : ... .. . ... : ... .. . ... ... F03 : ... .. . ... : ... .. . ...
ROW 2C : ... .. . ... ... : ... .. . ... : --- .. . ... ... F02 : ... .. . ... : ... .. . ...
ROW 2D : ... .. . ... ... : C-4 1B 8 ... : C-6 03 . ... ... F03 : ... .. . ... : ... .. . ...
ROW 2E : ... .. . ... ... : ... .. . ... : ... .. . ... ... F02 : ... .. . ... : ... .. . ...
ROW 2F : ... .. . ... ... : ... .. . ... : ... .. . ... ... F03 : ... .. . ... : ... .. . ...

PATTERN 12
ROW 00 : ... .. . ... ... : E-3 0C F ... : C-4 01 . ... ... F02 : ... .. . ... : ... .. . ...
ROW 01 : ... .. . ... ... : ... .. . ... : F#2 05 . ... ... F03 : ... .. . ... : ... .. . ...
ROW 02 : ... .. . ... ... : ... .. . ... : ... .. . ... ... F02 : ... .. . ... : ... .. . ...
ROW 03 : ... .. . ... ... : E-3 0C 8 ... : C#5 03 . ... ... F03 : ... .. . ... : ... .. . ...
ROW 04 : ... .. . ... ... : ... .. . ... : ... .. . ... ... F02 : ... .. . ... : ... .. . ...
ROW 05 : ... .. . ... ... : ... .. . ... : ... .. . ... ... F03 : ... .. . ... : ... .. . ...
ROW 06 : A#3 1C F Q22 ... : D#3 0C F ... : F#3 0B . ... ... F02 : ... .. . ... : ... .. . ...
ROW 07 : ... .. . ... ... : ... .. . ... : ... .. . ... ... F03 : ... .. . ... : ... .. . ...
ROW 08 : ... .. . ... ... : ... .. . ... : --- .. . ... ... F02 : ... .. . ... : ... .. . ...
ROW 09 : ... .. . ... ... : D#3 0C 8 ... : C-5 03 . ... ... F03 : ... .. . ... : ... .. . ...
ROW 0A : ... .. . ... ... : ... .. . ... : ... .. . ... ... F02 : ... .. . ... : ... .. . ...
ROW 0B : ... .. . ... ... : ... .. . ... : ... .. . ... ... F02 : ... .. . ... : ... .. . ...
ROW 0C : A#3 1C . ... ... : C#3 0C F ... : C-4 01 . ... ... F03 : ... .. . ... : ... .. . ...
ROW 0D : ... .. . ... ... : ... .. . ... : F#2 05 . ... ... F02 : ... .. . ... : ... .. . ...
ROW 0E : C-4 1C . ... ... : ... .. . ... : ... .. . ... ... F03 : ... .. . ... : ... .. . ...
ROW 0F : ... .. . ... ... : C#3 0C 8 ... : C#5 03 . ... ... F02 : ... .. . ... : ... .. . ...
ROW 10 : A#3 1C . ... ... : ... .. . ... : ... .. . ... ... F03 : ... .. . ... : ... .. . ...
ROW 11 : ... .. . ... ... : ... .. . ... : ... .. . ... ... F03 : ... .. . ... : ... .. . ...
ROW 12 : F#3 1C . ... ... : C-3 0C F ... : F#3 0B . ... ... F02 : ... .. . ... : ... .. . ...
ROW 13 : ... .. . ... ... : ... .. . ... : ... .. . ... ... F03 : ... .. . ... : ... .. . ...
ROW 14 : ... .. . ... ... : ... .. . ... : --- .. . ... ... F02 : ... .. . ... : ... .. . ...
ROW 15 : ... .. . ... ... : C-3 0C 8 ... : C-5 03 . ... ... F03 : ... .. . ... : ... .. . ...
ROW 16 : ... .. . ... ... : ... .. . ... : ... .. . ... ... F02 : ... .. . ... : ... .. . ...
ROW 17 : ... .. . ... ... : ... .. . ... : ... .. . ... ... F03 : ... .. . ... : ... .. . ...
ROW 18 : E-3 1C . ... ... : E-3 0C F ... : C-4 01 . ... ... F02 : ... .. . ... : ... .. . ...
ROW 19 : ... .. . ... ... : ... .. . ... : F#2 05 . ... ... F03 : ... .. . ... : ... .. . ...
ROW 1A : ... .. . ... ... : ... .. . ... : ... .. . ... ... F02 : ... .. . ... : ... .. . ...
ROW 1B : ... .. . ... ... : E-3 0C 8 ... : C#5 03 . ... ... F03 : ... .. . ... : ... .. . ...
ROW 1C : ... .. . ... ... : ... .. . ... : ... .. . ... ... F02 : ... .. . ... : ... .. . ...
ROW 1D : ... .. . ... ... : ... .. . ... : ... .. . ... ... F03 : ... .. . ... : ... .. . ...
ROW 1E : F#3 1C . ... ... : D#3 0C F ... : F#3 0B . ... ... F02 : ... .. . ... : ... .. . ...
ROW 1F : ... .. . ... ... : ... .. . ... : ... .. . ... ... F03 : ... .. . ... : ... .. . ...
ROW 20 : ... .. . ... ... : ... .. . ... : --- .. . ... ... F02 : ... .. . ... : ... .. . ...
ROW 21 : --- .. . ... ... : D#3 0C 8 ... : C-5 03 . ... ... F03 : ... .. . ... : ... .. . ...
ROW 22 : ... .. . ... ... : ... .. . ... : ... .. . ... ... F02 : ... .. . ... : ... .. . ...
ROW 23 : ... .. . ... ... : ... .. . ... : ... .. . ... ... F03 : ... .. . ... : ... .. . ...
ROW 24 : A#2 1C . ... ... : C#3 0C F ... : C-4 01 . ... ... F02 : ... .. . ... : ... .. . ...
ROW 25 : ... .. . ... ... : ... .. . ... : F#2 05 . ... ... F03 : ... .. . ... : ... .. . ...
ROW 26 : ... .. . ... ... : ... .. . ... : ... .. . ... ... F02 : ... .. . ... : ... .. . ...
ROW 27 : ... .. . ... ... : C#3 0C 8 ... : ... .. . ... ... F03 : ... .. . ... : ... .. . ...
ROW 28 : ... .. . ... ... : ... .. . ... : ... .. . ... ... F02 : ... .. . ... : ... .. . ...
ROW 29 : ... .. . ... ... : ... .. . ... : ... .. . ... ... F03 : ... .. . ... : ... .. . ...
ROW 2A : D#3 1C . ... ... : C-3 0C F ... : C-4 01 . ... ... F02 : ... .. . ... : ... .. . ...
ROW 2B : ... .. . ... ... : ... .. . ... : F#2 05 . ... ... F03 : ... .. . ... : ... .. . ...
ROW 2C : ... .. . ... ... : ... .. . ... : ... .. . ... ... F02 : ... .. . ... : ... .. . ...
ROW 2D : ... .. . ... ... : C-3 0C 8 ... : ... .. . ... ... F03 : ... .. . ... : ... .. . ...
ROW 2E : ... .. . ... ... : ... .. . ... : ... .. . ... ... F02 : ... .. . ... : ... .. . ...
ROW 2F : ... .. . ... ... : ... .. . ... : ... .. . ... ... F03 : ... .. . ... : ... .. . ...

PATTERN 13
ROW 00 : E-3 1C . ... ... : E-3 0C F ... : C-4 01 . ... ... F02 : ... .. . ... : ... .. . ...
ROW 01 : ... .. . ... ... : ... .. . ... : C-3 05 . ... ... F03 : ... .. . ... : ... .. . ...
ROW 02 : ... .. . ... ... : ... .. . ... : ... .. . ... ... F02 : ... .. . ... : ... .. . ...
ROW 03 : ... .. . ... ... : E-3 0C 8 ... : G-5 03 . ... ... F03 : ... .. . ... : ... .. . ...
ROW 04 : ... .. . ... ... : ... .. . ... : ... .. . ... ... F02 : ... .. . ... : ... .. . ...
ROW 05 : ... .. . ... ... : ... .. . ... : ... .. . ... ... F03 : ... .. . ... : ... .. . ...
ROW 06 : ... .. . ... ... : E-4 1B F ... : C-4 0B . ... ... F02 : ... .. . ... : ... .. . ...
ROW 07 : ... .. . ... ... : ... .. . ... : ... .. . ... ... F03 : ... .. . ... : ... .. . ...
ROW 08 : ... .. . ... ... : ... .. . ... : --- .. . ... ... F02 : ... .. . ... : ... .. . ...
ROW 09 : ... .. . ... ... : E-4 1B . ... : F#5 03 . ... ... F03 : ... .. . ... : ... .. . ...
ROW 0A : ... .. . ... ... : ... .. . ... : ... .. . ... ... F02 : ... .. . ... : ... .. . ...
ROW 0B : ... .. . ... ... : ... .. . ... : ... .. . ... ... F02 : ... .. . ... : ... .. . ...
ROW 0C : ... .. . 101 ... : D#4 1B . ... : C-4 01 . ... ... F03 : ... .. . ... : ... .. . ...
ROW 0D : ... .. . ... ... : ... .. . ... : C-3 05 . ... ... F02 : ... .. . ... : ... .. . ...
ROW 0E : ... .. . ... ... : ... .. . ... : ... .. . ... ... F03 : ... .. . ... : ... .. . ...
ROW 0F : ... .. . ... ... : D#4 1B . ... : G-5 03 . ... ... F02 : ... .. . ... : ... .. . ...
ROW 10 : ... .. . ... ... : ... .. . ... : ... .. . ... ... F03 : ... .. . ... : ... .. . ...
ROW 11 : ... .. . ... ... : ... .. . ... : ... .. . ... ... F03 : ... .. . ... : ... .. . ...
ROW 12 : ... .. . ... ... : E-4 1B . ... : C-4 0B . ... ... F02 : ... .. . ... : ... .. . ...
ROW 13 : ... .. . ... ... : ... .. . ... : ... .. . ... ... F03 : ... .. . ... : ... .. . ...
ROW 14 : ... .. . ... ... : ... .. . ... : --- .. . ... ... F02 : ... .. . ... : ... .. . ...
ROW 15 : ... .. . ... ... : E-4 1B . ... : F#5 03 . ... ... F03 : ... .. . ... : ... .. . ...
ROW 16 : ... .. . ... ... : ... .. . ... : ... .. . ... ... F02 : ... .. . ... : ... .. . ...
ROW 17 : ... .. . ... ... : ... .. . ... : ... .. . ... ... F03 : ... .. . ... : ... .. . ...
ROW 18 : ... .. . 103 488 : G-4 1B . ... : C-4 01 . ... ... F02 : ... .. . ... : ... .. . ...
ROW 19 : ... .. . ... ... : ... .. . ... : C-2 05 . ... ... F03 : ... .. . ... : ... .. . ...
ROW 1A : ... .. . ... ... : ... .. . ... : ... .. . ... ... F02 : ... .. . ... : ... .. . ...
ROW 1B : ... .. . ... ... : G-4 1B 8 ... : G-5 03 . ... ... F03 : ... .. . ... : ... .. . ...
ROW 1C : ... .. . ... ... : ... .. . ... : ... .. . ... ... F02 : ... .. . ... : ... .. . ...
ROW 1D : ... .. . ... ... : ... .. . ... : ... .. . ... ... F03 : ... .. . ... : ... .. . ...
ROW 1E : ... .. . A03 4AA : C-5 1B F ... : C-4 0B . ... ... F02 : ... .. . ... : ... .. . ...
ROW 1F : ... .. . ... ... : ... .. . ... : ... .. . ... ... F03 : ... .. . ... : ... .. . ...
ROW 20 : ... .. . ... ... : ... .. . ... : --- .. . ... ... F02 : ... .. . ... : ... .. . ...
ROW 21 : ... .. . ... ... : C-5 1B 8 ... : A-5 03 . ... ... F03 : ... .. . ... : ... .. . ...
ROW 22 : ... .. . ... ... : ... .. . ... : ... .. . ... ... F02 : ... .. . ... : ... .. . ...
ROW 23 : ... .. . ... ... : ... .. . ... : ... .. . ... ... F03 : ... .. . ... : ... .. . ...
ROW 24 : ... .. . A06 ... : D#4 1B . ... : C-4 01 . ... ... F02 : ... .. . ... : ... .. . ...
ROW 25 : ... .. . ... ... : ... .. . ... : C-3 05 . ... ... F03 : ... .. . ... : ... .. . ...
ROW 26 : ... .. . ... ... : ... .. . ... : ... .. . ... ... F02 : ... .. . ... : ... .. . ...
ROW 27 : ... .. . ... ... : D#4 1B . ... : A#2 05 . ... ... F03 : ... .. . ... : ... .. . ...
ROW 28 : ... .. . ... ... : ... .. . ... : ... .. . ... ... F02 : ... .. . ... : ... .. . ...
ROW 29 : ... .. . A00 ... : ... .. . ... : --- .. . ... ... F03 : ... .. . ... : ... .. . ...
ROW 2A : A#3 12 8 100 400 : C-4 1B . ... : G#2 05 . ... ... F02 : ... .. . ... : ... .. . ...
ROW 2B : ... .. . ... ... : ... .. . ... : ... .. . ... ... F03 : ... .. . ... : ... .. . ...
ROW 2C : ... .. . ... ... : ... .. . ... : --- .. . ... ... F02 : ... .. . ... : ... .. . ...
ROW 2D : B-3 12 A ... ... : C-4 1B 8 ... : G-2 05 . ... ... F03 : ... .. . ... : ... .. . ...
ROW 2E : ... .. . ... ... : ... .. . ... : ... .. . ... ... F02 : ... .. . ... : ... .. . ...
ROW 2F : ... .. . S01 ... : ... .. . ... : --- .. . ... ... F03 : ... .. . ... : ... .. . ...

PATTERN 14
ROW 00 : C-4 12 A ... ... : F-1 05 . ... : C-4 01 . ... ... F02 : ... .. . ... : ... .. . ...
ROW 01 : ... .. . ... ... : ... .. . ... : F-2 05 . ... ... F03 : ... .. . ... : ... .. . ...
ROW 02 : ... .. . ... ... : ... .. . ... : ... .. . ... ... F02 : ... .. . ... : ... .. . ...
ROW 03 : B-3 12 . ... ... : G#3 00 . ... : C-5 03 . ... ... F03 : ... .. . ... : ... .. . ...
ROW 04 : ... .. . ... ... : --- .. . ... : ... .. . ... ... F02 : ... .. . ... : ... .. . ...
ROW 05 : ... .. . S01 ... : ... .. . ... : ... .. . ... ... F03 : ... .. . ... : ... .. . ...
ROW 06 : C-4 12 . ... ... : F-3 17 . ... : F-4 0F . ... ... F02 : ... .. . ... : ... .. . ...
ROW 07 : ... .. . ... ... : ... .. . ... : ... .. . ... ... F03 : ... .. . ... : ... .. . ...
ROW 08 : ... .. . S01 ... : --- .. . ... : --- .. . ... ... F02 : ... .. . ... : ... .. . ...
ROW 09 : F-4 12 . ... ... : G#3 00 . ... : C-5 03 . ... ... F03 : ... .. . ... : ... .. . ...
ROW 0A : ... .. . ... ... : --- .. . ... : ... .. . ... ... F02 : ... .. . ... : ... .. . ...
ROW 0B : ... .. . ... ... : ... .. . ... : ... .. . ... ... F02 : ... .. . ... : ... .. . ...
ROW 0C : --- .. . ... ... : C-1 05 . ... : C-4 01 . ... ... F03 : ... .. . ... : ... .. . ...
ROW 0D : ... .. . ... ... : ... .. . ... : C-2 05 . ... ... F02 : ... .. . ... : ... .. . ...
ROW 0E : ... .. . ... ... : ... .. . ... : ... .. . ... ... F03 : ... .. . ... : ... .. . ...
ROW 0F : C-4 12 . ... ... : F-3 00 . ... : C-5 03 . ... ... F02 : ... .. . ... : ... .. . ...
ROW 10 : ... .. . ... ... : --- .. . ... : ... .. . ... ... F03 : ... .. . ... : ... .. . ...
ROW 11 : ... .. . ... ... : ... .. . ... : ... .. . ... ... F03 : ... .. . ... : ... .. . ...
ROW 12 : G#3 12 . ... ... : F-3 17 . ... : F-4 0F . ... ... F02 : ... .. . ... : ... .. . ...
ROW 13 : ... .. . ... ... : ... .. . ... : ... .. . ... ... F03 : ... .. . ... : ... .. . ...
ROW 14 : ... .. . S01 ... : --- .. . ... : --- .. . ... ... F02 : ... .. . ... : ... .. . ...
ROW 15 : F-3 12 . ... ... : F-3 00 . ... : C-5 03 . ... ... F03 : ... .. . ... : ... .. . ...
ROW 16 : ... .. . ... ... : --- .. . ... : ... .. . ... ... F02 : ... .. . ... : ... .. . ...
ROW 17 : --- .. . ... ... : ... .. . ... : ... .. . ... ... F03 : ... .. . ... : ... .. . ...
ROW 18 : A#3 12 . ... ... : A#0 05 . ... : C-4 01 . ... ... F02 : ... .. . ... : ... .. . ...
ROW 19 : ... .. . ... ... : ... .. . ... : A#1 05 . ... ... F03 : ... .. . ... : ... .. . ...
ROW 1A : ... .. . ... ... : ... .. . ... : ... .. . ... ... F02 : ... .. . ... : ... .. . ...
ROW 1B : C-4 12 . ... ... : D-3 00 . ... : F-4 03 . ... ... F03 : ... .. . ... : ... .. . ...
ROW 1C : ... .. . ... ... : --- .. . ... : ... .. . ... ... F02 : ... .. . ... : ... .. . ...
ROW 1D : --- .. . ... ... : ... .. . ... : ... .. . ... ... F03 : ... .. . ... : ... .. . ...
ROW 1E : F-3 12 . ... ... : A#3 11 . ... : A#4 0B . ... ... F02 : ... .. . ... : ... .. . ...
ROW 1F : ... .. . ... ... : ... .. . ... : ... .. . ... ... F03 : ... .. . ... : ... .. . ...
ROW 20 : ... .. . ... ... : --- .. . ... : --- .. . ... ... F02 : ... .. . ... : ... .. . ...
ROW 21 : ... .. . ... ... : D-3 00 . ... : F-4 03 . ... ... F03 : ... .. . ... : ... .. . ...
ROW 22 : ... .. . ... ... : --- .. . ... : ... .. . ... ... F02 : ... .. . ... : ... .. . ...
ROW 23 : ... .. . ... ... : ... .. . ... : ... .. . ... ... F03 : ... .. . ... : ... .. . ...
ROW 24 : ... .. . 4AA ... : D-1 05 . ... : C-4 01 . ... ... F02 : ... .. . ... : ... .. . ...
ROW 25 : ... .. . ... ... : ... .. . ... : D-2 05 . ... ... F03 : ... .. . ... : ... .. . ...
ROW 26 : ... .. . ... ... : ... .. . ... : ... .. . ... ... F02 : ... .. . ... : ... .. . ...
ROW 27 : ... .. . ... ... : A#2 00 . ... : D-5 03 . ... ... F03 : ... .. . ... : ... .. . ...
ROW 28 : ... .. . ... ... : --- .. . ... : ... .. . ... ... F02 : ... .. . ... : ... .. . ...
ROW 29 : ... .. . ... ... : ... .. . ... : ... .. . ... ... F03 : ... .. . ... : ... .. . ...
ROW 2A : D#3 12 . 400 ... : A#3 11 . ... : A#4 0B . ... ... F02 : ... .. . ... : ... .. . ...
ROW 2B : ... .. . ... ... : ... .. . ... : ... .. . ... ... F03 : ... .. . ... : ... .. . ...
ROW 2C : ... .. . ... ... : --- .. . ... : --- .. . ... ... F02 : ... .. . ... : ... .. . ...
ROW 2D : ... .. . 210 ... : A#2 00 . ... : D-5 03 . ... ... F03 : ... .. . ... : ... .. . ...
ROW 2E : ... .. . ... ... : --- .. . ... : ... .. . ... ... F02 : ... .. . ... : ... .. . ...
ROW 2F : ... .. . ... ... : ... .. . ... : ... .. . ... ... F03 : ... .. . ... : ... .. . ...

PATTERN 15
ROW 00 : F-3 12 . 200 ... : D#1 05 . ... : C-4 01 . ... ... F02 : ... .. . ... : ... .. . ...
ROW 01 : F#3 12 . ... ... : ... .. . ... : D#2 05 . ... ... F03 : ... .. . ... : ... .. . ...
ROW 02 : G-3 12 . ... ... : ... .. . ... : ... .. . ... ... F02 : ... .. . ... : ... .. . ...
ROW 03 : ... .. . ... ... : G-3 00 . ... : A#4 03 . ... ... F03 : ... .. . ... : ... .. . ...
ROW 04 : ... .. . ... ... : --- .. . ... : ... .. . ... ... F02 : ... .. . ... : ... .. . ...
ROW 05 : ... .. . ... ... : ... .. . ... : ... .. . ... ... F03 : ... .. . ... : ... .. . ...
ROW 06 : A#3 12 . ... ... : D#3 11 . ... : D#4 0B . ... ... F02 : ... .. . ... : ... .. . ...
ROW 07 : ... .. . ... ... : ... .. . ... : ... .. . ... ... F03 : ... .. . ... : ... .. . ...
ROW 08 : ... .. . S01 ... : --- .. . ... : --- .. . ... ... F02 : ... .. . ... : ... .. . ...
ROW 09 : A#3 12 . ... ... : G-3 00 . ... : A#4 03 . ... ... F03 : ... .. . ... : ... .. . ...
ROW 0A : ... .. . ... ... : --- .. . ... : ... .. . ... ... F02 : ... .. . ... : ... .. . ...
ROW 0B : ... .. . ... ... : ... .. . ... : ... .. . ... ... F02 : ... .. . ... : ... .. . ...
ROW 0C : ... .. . 204 ... : G-1 05 . ... : C-4 01 . ... ... F03 : ... .. . ... : ... .. . ...
ROW 0D : ... .. . ... ... : ... .. . ... : G-2 05 . ... ... F02 : ... .. . ... : ... .. . ...
ROW 0E : ... .. . S01 ... : ... .. . ... : ... .. . ... ... F03 : ... .. . ... : ... .. . ...
ROW 0F : A#2 12 6 200 ... : G-3 00 . ... : A#4 03 . ... ... F02 : ... .. . ... : ... .. . ...
ROW 10 : ... .. . ... ... : --- .. . ... : ... .. . ... ... F03 : ... .. . ... : ... .. . ...
ROW 11 : --- .. . ... ... : ... .. . ... : ... .. . ... ... F03 : ... .. . ... : ... .. . ...
ROW 12 : D#3 12 C ... ... : D#3 11 . ... : D#4 0B . ... ... F02 : ... .. . ... : ... .. . ...
ROW 13 : ... .. . ... ... : ... .. . ... : ... .. . ... ... F03 : ... .. . ... : ... .. . ...
ROW 14 : ... .. . S01 ... : --- .. . ... : --- .. . ... ... F02 : ... .. . ... : ... .. . ...
ROW 15 : A#3 12 . Q22 ... : G-3 00 . ... : A#4 03 . ... ... F03 : ... .. . ... : ... .. . ...
ROW 16 : ... .. . ... ... : --- .. . ... : ... .. . ... ... F02 : ... .. . ... : ... .. . ...
ROW 17 : ... .. . ... ... : ... .. . ... : ... .. . ... ... F03 : ... .. . ... : ... .. . ...
ROW 18 : A#3 12 . ... ... : G#1 05 . ... : C-4 01 . ... ... F02 : ... .. . ... : ... .. . ...
ROW 19 : ... .. . ... ... : ... .. . ... : G#2 05 . ... ... F03 : ... .. . ... : ... .. . ...
ROW 1A : ... .. . ... ... : ... .. . ... : ... .. . ... ... F02 : ... .. . ... : ... .. . ...
ROW 1B : C-4 12 . ... ... : C-3 00 . ... : D#4 03 . ... ... F03 : ... .. . ... : ... .. . ...
ROW 1C : A#3 12 . ... ... : --- .. . ... : ... .. . ... ... F02 : ... .. . ... : ... .. . ...
ROW 1D : ... .. . ... ... : ... .. . ... : ... .. . ... ... F03 : ... .. . ... : ... .. . ...
ROW 1E : G#3 12 . ... ... : G#3 11 . ... : G#4 0B . ... ... F02 : ... .. . ... : ... .. . ...
ROW 1F : ... .. . ... ... : ... .. . ... : ... .. . ... ... F03 : ... .. . ... : ... .. . ...
ROW 20 : ... .. . ... ... : --- .. . ... : --- .. . ... ... F02 : ... .. . ... : ... .. . ...
ROW 21 : ... .. . ... ... : C-3 00 . ... : D#4 03 . ... ... F03 : ... .. . ... : ... .. . ...
ROW 22 : ... .. . ... ... : --- .. . ... : ... .. . ... ... F02 : ... .. . ... : ... .. . ...
ROW 23 : ... .. . ... ... : ... .. . ... : ... .. . ... ... F03 : ... .. . ... : ... .. . ...
ROW 24 : D#3 12 . ... ... : G#1 05 . ... : C-4 01 . ... ... F02 : ... .. . ... : ... .. . ...
ROW 25 : ... .. . ... ... : ... .. . ... : G#2 05 . ... ... F03 : ... .. . ... : ... .. . ...
ROW 26 : ... .. . ... ... : ... .. . ... : ... .. . ... ... F02 : ... .. . ... : ... .. . ...
ROW 27 : ... .. . ... ... : C-3 00 . ... : D#4 03 . ... ... F03 : ... .. . ... : ... .. . ...
ROW 28 : ... .. . ... ... : --- .. . ... : ... .. . ... ... F02 : ... .. . ... : ... .. . ...
ROW 29 : ... .. . ... ... : ... .. . ... : ... .. . ... ... F03 : ... .. . ... : ... .. . ...
ROW 2A : F-3 12 . ... ... : G#3 11 . ... : G#4 0B . ... ... F02 : ... .. . ... : ... .. . ...
ROW 2B : ... .. . ... ... : ... .. . ... : ... .. . ... ... F03 : ... .. . ... : ... .. . ...
ROW 2C : ... .. . ... ... : --- .. . ... : --- .. . ... ... F02 : ... .. . ... : ... .. . ...
ROW 2D : ... .. . 220 ... : C-3 00 . ... : D#4 03 . ... ... F03 : ... .. . ... : ... .. . ...
ROW 2E : ... .. . ... ... : --- .. . ... : ... .. . ... ... F02 : ... .. . ... : ... .. . ...
ROW 2F : ... .. . ... ... : ... .. . ... : ... .. . ... ... F03 : ... .. . ... : ... .. . ...

PATTERN 16
ROW 00 : D-3 12 . 200 Q75 : A-1 05 . ... : C-4 01 . ... ... F02 : ... .. . ... : ... .. . ...
ROW 01 : ... .. . ... ... : ... .. . ... : A-2 05 . ... ... F03 : ... .. . ... : ... .. . ...
ROW 02 : ... .. . ... ... : ... .. . ... : ... .. . ... ... F02 : ... .. . ... : ... .. . ...
ROW 03 : ... .. . ... ... : G-3 00 . ... : C-5 03 . ... ... F03 : ... .. . ... : ... .. . ...
ROW 04 : ... .. . ... ... : --- .. . ... : ... .. . ... ... F02 : ... .. . ... : ... .. . ...
ROW 05 : ... .. . ... ... : ... .. . ... : ... .. . ... ... F03 : ... .. . ... : ... .. . ...
ROW 06 : ... .. . ... ... : C-3 0F . ... : A-4 13 . ... ... F02 : ... .. . ... : ... .. . ...
ROW 07 : ... .. . ... ... : ... .. . ... : ... .. . ... ... F03 : ... .. . ... : ... .. . ...
ROW 08 : ... .. . ... ... : --- .. . ... : --- .. . ... ... F02 : ... .. . ... : ... .. . ...
ROW 09 : ... .. . ... ... : G-3 00 . ... : C-5 03 . ... ... F03 : ... .. . ... : ... .. . ...
ROW 0A : ... .. . ... ... : --- .. . ... : ... .. . ... ... F02 : ... .. . ... : ... .. . ...
ROW 0B : ... .. . ... ... : ... .. . ... : ... .. . ... ... F02 : ... .. . ... : ... .. . ...
ROW 0C : ... .. . 477 ... : A-1 05 . ... : C-4 01 . ... ... F03 : ... .. . ... : ... .. . ...
ROW 0D : ... .. . ... ... : ... .. . ... : A-2 05 . ... ... F02 : ... .. . ... : ... .. . ...
ROW 0E : ... .. . ... ... : ... .. . ... : ... .. . ... ... F03 : ... .. . ... : ... .. . ...
ROW 0F : ... .. . ... ... : G-3 00 . ... : C-5 03 . ... ... F02 : ... .. . ... : ... .. . ...
ROW 10 : ... .. . ... ... : --- .. . ... : ... .. . ... ... F03 : ... .. . ... : ... .. . ...
ROW 11 : ... .. . ... ... : ... .. . ... : ... .. . ... ... F03 : ... .. . ... : ... .. . ...
ROW 12 : A-3 12 . 400 ... : C-3 0F . ... : A-4 13 . ... ... F02 : ... .. . ... : ... .. . ...
ROW 13 : ... .. . ... ... : ... .. . ... : ... .. . ... ... F03 : ... .. . ... : ... .. . ...
ROW 14 : ... .. . ... ... : --- .. . ... : --- .. . ... ... F02 : ... .. . ... : ... .. . ...
ROW 15 : G-3 12 . ... ... : G-3 00 . ... : C-5 03 . ... ... F03 : ... .. . ... : ... .. . ...
ROW 16 : ... .. . ... ... : --- .. . ... : ... .. . ... ... F02 : ... .. . ... : ... .. . ...
ROW 17 : ... .. . S01 ... : ... .. . ... : ... .. . ... ... F03 : ... .. . ... : ... .. . ...
ROW 18 : F#3 12 . ... ... : D-1 05 . ... : C-4 01 . ... ... F02 : ... .. . ... : ... .. . ...
ROW 19 : ... .. . ... ... : ... .. . ... : D-2 05 . ... ... F03 : ... .. . ... : ... .. . ...
ROW 1A : ... .. . ... ... : ... .. . ... : ... .. . ... ... F02 : ... .. . ... : ... .. . ...
ROW 1B : ... .. . ... ... : C-3 00 . ... : G-4 03 . ... ... F03 : ... .. . ... : ... .. . ...
ROW 1C : ... .. . ... ... : --- .. . ... : ... .. . ... ... F02 : ... .. . ... : ... .. . ...
ROW 1D : ... .. . ... ... : ... .. . ... : ... .. . ... ... F03 : ... .. . ... : ... .. . ...
ROW 1E : ... .. . 488 ... : D-3 11 . ... : D-4 0B . ... ... F02 : ... .. . ... : ... .. . ...
ROW 1F : ... .. . ... ... : ... .. . ... : ... .. . ... ... F03 : ... .. . ... : ... .. . ...
ROW 20 : ... .. . ... ... : --- .. . ... : --- .. . ... ... F02 : ... .. . ... : ... .. . ...
ROW 21 : ... .. . ... ... : C-3 00 . ... : G-4 03 . ... ... F03 : ... .. . ... : ... .. . ...
ROW 22 : ... .. . ... ... : --- .. . ... : ... .. . ... ... F02 : ... .. . ... : ... .. . ...
ROW 23 : ... .. . ... ... : ... .. . ... : ... .. . ... ... F03 : ... .. . ... : ... .. . ...
ROW 24 : D-3 12 . 400 ... : D-1 05 . ... : C-4 01 . ... ... F02 : ... .. . ... : ... .. . ...
ROW 25 : ... .. . ... ... : ... .. . ... : D-2 05 . ... ... F03 : ... .. . ... : ... .. . ...
ROW 26 : ... .. . ... ... : ... .. . ... : ... .. . ... ... F02 : ... .. . ... : ... .. . ...
ROW 27 : --- .. . ... ... : C-3 00 . ... : F#4 03 . ... ... F03 : ... .. . ... : ... .. . ...
ROW 28 : ... .. . ... ... : --- .. . ... : ... .. . ... ... F02 : ... .. . ... : ... .. . ...
ROW 29 : ... .. . ... ... : ... .. . ... : ... .. . ... ... F03 : ... .. . ... : ... .. . ...
ROW 2A : D-3 12 C ... ... : D-3 11 . ... : D-4 0B . ... ... F02 : ... .. . ... : ... .. . ...
ROW 2B : ... .. . ... ... : ... .. . ... : ... .. . ... ... F03 : ... .. . ... : ... .. . ...
ROW 2C : ... .. . ... ... : --- .. . ... : --- .. . ... ... F02 : ... .. . ... : ... .. . ...
ROW 2D : --- .. . ... ... : C-3 00 . ... : F#4 03 . ... ... F03 : ... .. . ... : ... .. . ...
ROW 2E : D#2 0D A ... ... : --- .. . ... : ... .. . ... ... F02 : ... .. . ... : ... .. . ...
ROW 2F : E-2 0D . ... ... : ... .. . ... : ... .. . ... ... F03 : ... .. . ... : ... .. . ...

PATTERN 17
ROW 00 : F-2 0D F 200 ... : F-1 05 . ... : C-4 01 . ... ... F02 : ... .. . ... : ... .. . ...
ROW 01 : ... .. . ... ... : ... .. . ... : F-2 05 . ... ... F03 : ... .. . ... : ... .. . ...
ROW 02 : ... .. . ... ... : ... .. . ... : ... .. . ... ... F02 : ... .. . ... : ... .. . ...
ROW 03 : G#2 0D . ... ... : D#3 00 . ... : G#4 03 . ... ... F03 : ... .. . ... : ... .. . ...
ROW 04 : ... .. . ... ... : --- .. . ... : ... .. . ... ... F02 : ... .. . ... : ... .. . ...
ROW 05 : ... .. . ... ... : ... .. . ... : ... .. . ... ... F03 : ... .. . ... : ... .. . ...
ROW 06 : C-3 0D . ... ... : F-2 0F . ... : F-4 17 . ... ... F02 : ... .. . ... : ... .. . ...
ROW 07 : ... .. . ... ... : ... .. . ... : ... .. . ... ... F03 : ... .. . ... : ... .. . ...
ROW 08 : ... .. . ... ... : --- .. . ... : --- .. . ... ... F02 : ... .. . ... : ... .. . ...
ROW 09 : F-3 0D . ... ... : D#3 00 . ... : G#4 03 . ... ... F03 : ... .. . ... : ... .. . ...
ROW 0A : ... .. . ... ... : --- .. . ... : ... .. . ... ... F02 : ... .. . ... : ... .. . ...
ROW 0B : ... .. . ... ... : ... .. . ... : ... .. . ... ... F02 : ... .. . ... : ... .. . ...
ROW 0C : C-3 0D . ... ... : F-1 05 . ... : C-4 01 . ... ... F03 : ... .. . ... : ... .. . ...
ROW 0D : ... .. . ... ... : ... .. . ... : F-2 05 . ... ... F02 : ... .. . ... : ... .. . ...
ROW 0E : ... .. . ... ... : ... .. . ... : ... .. . ... ... F03 : ... .. . ... : ... .. . ...
ROW 0F : F-3 0D . ... ... : D#3 00 . ... : G#4 03 . ... ... F02 : ... .. . ... : ... .. . ...
ROW 10 : ... .. . ... ... : --- .. . ... : ... .. . ... ... F03 : ... .. . ... : ... .. . ...
ROW 11 : ... .. . ... ... : ... .. . ... : ... .. . ... ... F03 : ... .. . ... : ... .. . ...
ROW 12 : G#3 0D . ... ... : F-2 0F . ... : F-4 17 . ... ... F02 : ... .. . ... : ... .. . ...
ROW 13 : ... .. . ... ... : ... .. . ... : ... .. . ... ... F03 : ... .. . ... : ... .. . ...
ROW 14 : ... .. . ... ... : --- .. . ... : --- .. . ... ... F02 : ... .. . ... : ... .. . ...
ROW 15 : C-4 0D . ... ... : D#3 00 . ... : G#4 03 . ... ... F03 : ... .. . ... : ... .. . ...
ROW 16 : ... .. . ... ... : --- .. . ... : ... .. . ... ... F02 : ... .. . ... : ... .. . ...
ROW 17 : ... .. . ... ... : ... .. . ... : ... .. . ... ... F03 : ... .. . ... : ... .. . ...
ROW 18 : A#3 0D . ... ... : A#1 05 . ... : C-4 01 . ... ... F02 : ... .. . ... : ... .. . ...
ROW 19 : ... .. . ... ... : ... .. . ... : A#2 05 . ... ... F03 : ... .. . ... : ... .. . ...
ROW 1A : ... .. . ... ... : ... .. . ... : ... .. . ... ... F02 : ... .. . ... : ... .. . ...
ROW 1B : ... .. . ... ... : --- 10 . ... : --- .. . ... ... F03 : ... .. . ... : ... .. . ...
ROW 1C : ... .. . ... ... : ... .. . ... : ... .. . ... ... F02 : ... .. . ... : ... .. . ...
ROW 1D : ... .. . ... ... : ... .. . ... : ... .. . ... ... F03 : ... .. . ... : ... .. . ...
ROW 1E : A#5 12 F A03 ... : ... .. . ... : C-3 19 . 106 4AA F02 : ... .. . ... : ... .. . ...
ROW 1F : ... .. . ... ... : ... .. . ... : ... .. . ... ... F03 : ... .. . ... : ... .. . ...
ROW 20 : ... .. . ... ... : ... .. . ... : ... .. . ... ... F02 : ... .. . ... : ... .. . ...
ROW 21 : ... .. . 204 ... : ... .. . ... : ... .. . ... ... F03 : ... .. . ... : ... .. . ...
ROW 22 : ... .. . ... ... : ... .. . ... : ... .. . ... ... F02 : ... .. . ... : ... .. . ...
ROW 23 : --- .. . ... ... : ... .. . ... : ... .. . ... ... F03 : ... .. . ... : ... .. . ...
ROW 24 : A#5 12 A 200 ... : E-3 0C . ... : ... .. . ... ... F02 : ... .. . ... : ... .. . ...
ROW 25 : ... .. . ... ... : ... .. . ... : ... .. . ... ... F03 : ... .. . ... : ... .. . ...
ROW 26 : ... .. . ... ... : ... .. . ... : ... .. . ... ... F02 : ... .. . ... : ... .. . ...
ROW 27 : ... .. . 204 ... : F-3 0C . ... : ... .. . ... ... F03 : ... .. . ... : ... .. . ...
ROW 28 : ... .. . ... ... : ... .. . ... : ... .. . ... ... F02 : ... .. . ... : ... .. . ...
ROW 29 : --- .. . ... ... : ... .. . ... : ... .. . ... ... F03 : ... .. . ... : ... .. . ...
ROW 2A : A#5 12 8 200 ... : F#3 0C . ... : ... .. . ... ... F02 : ... .. . ... : ... .. . ...
ROW 2B : ... .. . ... ... : ... .. . ... : ... .. . ... ... F03 : ... .. . ... : ... .. . ...
ROW 2C : ... .. . ... ... : ... .. . ... : ... .. . ... ... F02 : ... .. . ... : ... .. . ...
ROW 2D : ... .. . 204 ... : G-3 0C . ... : ... .. . ... ... F03 : ... .. . ... : ... .. . ...
ROW 2E : ... .. . ... ... : ... .. . ... : ... .. . ... ... F02 : ... .. . ... : ... .. . ...
ROW 2F : --- .. . 200 ... : ... .. . ... : ... .. . ... ... F03 : ... .. . ... : ... .. . ...

PATTERN 18
ROW 00 : C-5 1B F ... ... : G#3 0C . ... : C-4 01 . 100 400 F02 : ... .. . ... : ... .. . ...
ROW 01 : ... .. . ... ... : ... .. . ... : C-2 05 . ... ... F03 : ... .. . ... : ... .. . ...
ROW 02 : ... .. . ... ... : ... .. . ... : ... .. . ... ... F02 : ... .. . ... : ... .. . ...
ROW 03 : C-5 1B . ... ... : G#3 0C 5 ... : G-3 05 . ... ... F03 : ... .. . ... : ... .. . ...
ROW 04 : ... .. . ... ... : ... .. . ... : ... .. . ... ... F02 : ... .. . ... : ... .. . ...
ROW 05 : ... .. . ... ... : ... .. . ... : ... .. . ... ... F03 : ... .. . ... : ... .. . ...
ROW 06 : C-3 0B . ... ... : G-3 0C F ... : E-4 05 . ... ... F02 : ... .. . ... : ... .. . ...
ROW 07 : ... .. . ... ... : ... .. . ... : ... .. . ... ... F03 : ... .. . ... : ... .. . ...
ROW 08 : --- .. . ... ... : ... .. . ... : --- .. . ... ... F02 : ... .. . ... : ... .. . ...
ROW 09 : ... .. . ... ... : G-3 0C 5 ... : C-5 03 . ... ... F03 : ... .. . ... : ... .. . ...
ROW 0A : ... .. . ... ... : ... .. . ... : ... .. . ... ... F02 : ... .. . ... : ... .. . ...
ROW 0B : ... .. . ... ... : ... .. . ... : ... .. . ... ... F02 : ... .. . ... : ... .. . ...
ROW 0C : C-5 1B A ... ... : E-3 0C F ... : C-4 01 . ... ... F03 : ... .. . ... : ... .. . ...
ROW 0D : ... .. . ... ... : ... .. . ... : C-2 05 . ... ... F02 : ... .. . ... : ... .. . ...
ROW 0E : ... .. . ... ... : ... .. . ... : ... .. . ... ... F03 : ... .. . ... : ... .. . ...
ROW 0F : C-5 1B . ... ... : E-3 0C 5 ... : C-5 03 . ... ... F02 : ... .. . ... : ... .. . ...
ROW 10 : ... .. . ... ... : ... .. . ... : ... .. . ... ... F03 : ... .. . ... : ... .. . ...
ROW 11 : ... .. . ... ... : ... .. . ... : ... .. . ... ... F03 : ... .. . ... : ... .. . ...
ROW 12 : C-3 0B . ... ... : C-3 0C F ... : C-4 11 . ... ... F02 : ... .. . ... : ... .. . ...
ROW 13 : ... .. . ... ... : ... .. . ... : ... .. . ... ... F03 : ... .. . ... : ... .. . ...
ROW 14 : --- .. . ... ... : ... .. . ... : --- .. . ... ... F02 : ... .. . ... : ... .. . ...
ROW 15 : ... .. . ... ... : C-3 0C 5 ... : C-5 03 . ... ... F03 : ... .. . ... : ... .. . ...
ROW 16 : ... .. . ... ... : ... .. . ... : ... .. . ... ... F02 : ... .. . ... : ... .. . ...
ROW 17 : ... .. . ... ... : ... .. . ... : ... .. . ... ... F03 : ... .. . ... : ... .. . ...
ROW 18 : C-5 1B 5 ... ... : G#2 0C F ... : C-4 01 . ... ... F02 : ... .. . ... : ... .. . ...
ROW 19 : ... .. . ... ... : ... .. . ... : C-2 05 . ... ... F03 : ... .. . ... : ... .. . ...
ROW 1A : ... .. . ... ... : ... .. . ... : ... .. . ... ... F02 : ... .. . ... : ... .. . ...
ROW 1B : C-5 1B . ... ... : G#2 0C 5 ... : G-3 05 . ... ... F03 : ... .. . ... : ... .. . ...
ROW 1C : ... .. . ... ... : ... .. . ... : ... .. . ... ... F02 : ... .. . ... : ... .. . ...
ROW 1D : ... .. . ... ... : ... .. . ... : ... .. . ... ... F03 : ... .. . ... : ... .. . ...
ROW 1E : F-3 0F . ... ... : C-3 0C F ... : F-4 05 . ... ... F02 : ... .. . ... : ... .. . ...
ROW 1F : ... .. . ... ... : ... .. . ... : ... .. . ... ... F03 : ... .. . ... : ... .. . ...
ROW 20 : --- .. . ... ... : ... .. . ... : --- .. . ... ... F02 : ... .. . ... : ... .. . ...
ROW 21 : ... .. . ... ... : C-3 0C 5 ... : C-5 03 . ... ... F03 : ... .. . ... : ... .. . ...
ROW 22 : ... .. . ... ... : ... .. . ... : ... .. . ... ... F02 : ... .. . ... : ... .. . ...
ROW 23 : ... .. . ... ... : ... .. . ... : ... .. . ... ... F03 : ... .. . ... : ... .. . ...
ROW 24 : A#4 1B F ... ... : E-3 0C F ... : C-4 01 . ... ... F02 : ... .. . ... : ... .. . ...
ROW 25 : ... .. . ... ... : ... .. . ... : C-2 05 . ... ... F03 : ... .. . ... : ... .. . ...
ROW 26 : ... .. . ... ... : ... .. . ... : ... .. . ... ... F02 : ... .. . ... : ... .. . ...
ROW 27 : A#4 1B . ... ... : E-3 0C 5 ... : F-2 05 . ... ... F03 : ... .. . ... : ... .. . ...
ROW 28 : ... .. . ... ... : ... .. . ... : ... .. . ... ... F02 : ... .. . ... : ... .. . ...
ROW 29 : ... .. . ... ... : ... .. . ... : ... .. . ... ... F03 : ... .. . ... : ... .. . ...
ROW 2A : F-3 0F . ... ... : G-3 0C F ... : C-3 05 . ... ... F02 : ... .. . ... : ... .. . ...
ROW 2B : ... .. . ... ... : ... .. . ... : ... .. . ... ... F03 : ... .. . ... : ... .. . ...
ROW 2C : --- .. . ... ... : ... .. . ... : ... .. . ... ... F02 : ... .. . ... : ... .. . ...
ROW 2D : ... .. . ... ... : G-3 0C 5 ... : G-4 05 . ... ... F03 : ... .. . ... : ... .. . ...
ROW 2E : ... .. . ... ... : ... .. . ... : ... .. . ... ... F02 : ... .. . ... : ... .. . ...
ROW 2F : ... .. . ... ... : ... .. . ... : ... .. . ... ... F03 : ... .. . ... : ... .. . ...

PATTERN 19
ROW 00 : G-4 1B F ... ... : G#3 0C F ... : C-4 01 . 100 400 F02 : ... .. . ... : ... .. . ...
ROW 01 : ... .. . ... ... : ... .. . ... : C-2 05 . ... ... F03 : ... .. . ... : ... .. . ...
ROW 02 : ... .. . ... ... : ... .. . ... : ... .. . ... ... F02 : ... .. . ... : ... .. . ...
ROW 03 : G-4 1B . ... ... : G#3 0C 5 ... : E-3 05 . ... ... F03 : ... .. . ... : ... .. . ...
ROW 04 : ... .. . ... ... : ... .. . ... : ... .. . ... ... F02 : ... .. . ... : ... .. . ...
ROW 05 : ... .. . ... ... : ... .. . ... : ... .. . ... ... F03 : ... .. . ... : ... .. . ...
ROW 06 : C-3 0B . ... ... : G-3 0C F ... : G-4 05 . ... ... F02 : ... .. . ... : ... .. . ...
ROW 07 : ... .. . ... ... : ... .. . ... : ... .. . ... ... F03 : ... .. . ... : ... .. . ...
ROW 08 : --- .. . ... ... : ... .. . ... : --- .. . ... ... F02 : ... .. . ... : ... .. . ...
ROW 09 : ... .. . ... ... : G-3 0C 5 ... : E-5 03 . ... ... F03 : ... .. . ... : ... .. . ...
ROW 0A : ... .. . ... ... : ... .. . ... : ... .. . ... ... F02 : ... .. . ... : ... .. . ...
ROW 0B : ... .. . ... ... : ... .. . ... : ... .. . ... ... F02 : ... .. . ... : ... .. . ...
ROW 0C : G-4 1B A ... ... : E-3 0C F ... : C-4 01 . ... ... F03 : ... .. . ... : ... .. . ...
ROW 0D : ... .. . ... ... : ... .. . ... : C-2 05 . ... ... F02 : ... .. . ... : ... .. . ...
ROW 0E : ... .. . ... ... : ... .. . ... : ... .. . ... ... F03 : ... .. . ... : ... .. . ...
ROW 0F : G-4 1B . ... ... : E-3 0C 5 ... : C-5 03 . ... ... F02 : ... .. . ... : ... .. . ...
ROW 10 : ... .. . ... ... : ... .. . ... : ... .. . ... ... F03 : ... .. . ... : ... .. . ...
ROW 11 : ... .. . ... ... : ... .. . ... : ... .. . ... ... F03 : ... .. . ... : ... .. . ...
ROW 12 : C-3 0B . ... ... : C-3 0C F ... : C-4 11 . ... ... F02 : ... .. . ... : ... .. . ...
ROW 13 : ... .. . ... ... : ... .. . ... : ... .. . ... ... F03 : ... .. . ... : ... .. . ...
ROW 14 : --- .. . ... ... : ... .. . ... : --- .. . ... ... F02 : ... .. . ... : ... .. . ...
ROW 15 : ... .. . ... ... : C-3 0C 5 ... : C-5 03 . ... ... F03 : ... .. . ... : ... .. . ...
ROW 16 : ... .. . ... ... : ... .. . ... : ... .. . ... ... F02 : ... .. . ... : ... .. . ...
ROW 17 : ... .. . ... ... : ... .. . ... : ... .. . ... ... F03 : ... .. . ... : ... .. . ...
ROW 18 : G-4 1B 7 ... ... : G#2 0C F ... : C-4 01 . ... ... F02 : ... .. . ... : ... .. . ...
ROW 19 : ... .. . ... ... : ... .. . ... : C-2 05 . ... ... F03 : ... .. . ... : ... .. . ...
ROW 1A : ... .. . ... ... : ... .. . ... : ... .. . ... ... F02 : ... .. . ... : ... .. . ...
ROW 1B : G-4 1B . ... ... : G#2 0C 5 ... : E-5 05 . ... ... F03 : ... .. . ... : ... .. . ...
ROW 1C : ... .. . ... ... : ... .. . ... : ... .. . ... ... F02 : ... .. . ... : ... .. . ...
ROW 1D : ... .. . ... ... : ... .. . ... : ... .. . ... ... F03 : ... .. . ... : ... .. . ...
ROW 1E : F-3 0F . ... ... : C-3 0C F ... : F-3 11 . ... ... F02 : ... .. . ... : ... .. . ...
ROW 1F : ... .. . ... ... : ... .. . ... : ... .. . ... ... F03 : ... .. . ... : ... .. . ...
ROW 20 : --- .. . ... ... : ... .. . ... : --- .. . ... ... F02 : ... .. . ... : ... .. . ...
ROW 21 : ... .. . ... ... : C-3 0C 5 ... : C-5 03 . ... ... F03 : ... .. . ... : ... .. . ...
ROW 22 : ... .. . ... ... : ... .. . ... : ... .. . ... ... F02 : ... .. . ... : ... .. . ...
ROW 23 : ... .. . ... ... : ... .. . ... : ... .. . ... ... F03 : ... .. . ... : ... .. . ...
ROW 24 : F-4 1B F ... ... : E-3 0C F ... : C-4 01 . ... ... F02 : ... .. . ... : ... .. . ...
ROW 25 : ... .. . ... ... : ... .. . ... : A#4 05 . ... ... F03 : ... .. . ... : ... .. . ...
ROW 26 : ... .. . ... ... : ... .. . ... : ... .. . ... ... F02 : ... .. . ... : ... .. . ...
ROW 27 : F-4 1B . ... ... : E-3 0C 5 ... : G-4 05 . ... ... F03 : ... .. . ... : ... .. . ...
ROW 28 : ... .. . ... ... : ... .. . ... : ... .. . ... ... F02 : ... .. . ... : ... .. . ...
ROW 29 : ... .. . ... ... : ... .. . ... : ... .. . ... ... F03 : ... .. . ... : ... .. . ...
ROW 2A : F-3 0F . ... ... : G-3 0C F ... : C-4 05 . ... ... F02 : ... .. . ... : ... .. . ...
ROW 2B : ... .. . ... ... : ... .. . ... : ... .. . ... ... F03 : ... .. . ... : ... .. . ...
ROW 2C : --- .. . ... ... : ... .. . ... : ... .. . ... ... F02 : ... .. . ... : ... .. . ...
ROW 2D : ... .. . ... ... : G-3 0C 5 ... : F-2 05 . ... ... F03 : ... .. . ... : ... .. . ...
ROW 2E : ... .. . ... ... : ... .. . ... : ... .. . ... ... F02 : ... .. . ... : ... .. . ...
ROW 2F : ... .. . ... ... : ... .. . ... : ... .. . ... ... F03 : ... .. . ... : ... .. . ...

PATTERN 1A
ROW 00 : G-3 12 1 433 ... : D#5 1B 1 ... : ... .. . ... ... F02 : ... .. . ... : ... .. . ...
ROW 01 : ... .. . ... ... : ... .. . ... : ... .. . ... ... F03 : ... .. . ... : ... .. . ...
ROW 02 : ... .. . ... ... : ... .. . ... : ... .. . ... ... F02 : ... .. . ... : ... .. . ...
ROW 03 : A-3 12 3 ... ... : C#5 1B 3 ... : ... .. . ... ... F03 : ... .. . ... : ... .. . ...
ROW 04 : ... .. . ... ... : ... .. . ... : ... .. . ... ... F02 : ... .. . ... : ... .. . ...
ROW 05 : ... .. . ... ... : ... .. . ... : ... .. . ... ... F03 : ... .. . ... : ... .. . ...
ROW 06 : B-3 12 5 ... ... : B-4 1B 5 ... : ... .. . ... ... F02 : ... .. . ... : ... .. . ...
ROW 07 : ... .. . ... ... : ... .. . ... : ... .. . ... ... F03 : ... .. . ... : ... .. . ...
ROW 08 : ... .. . ... ... : ... .. . ... : ... .. . ... ... F02 : ... .. . ... : ... .. . ...
ROW 09 : C#4 12 7 ... ... : A-4 1B 7 ... : ... .. . ... ... F03 : ... .. . ... : ... .. . ...
ROW 0A : ... .. . ... ... : ... .. . ... : ... .. . ... ... F02 : ... .. . ... : ... .. . ...
ROW 0B : ... .. . S01 ... : ... .. . ... : ... .. . ... ... F02 : ... .. . ... : ... .. . ...
ROW 0C : D#4 12 9 ... ... : G-4 1B 9 ... : G-2 12 . 109 ... F03 : ... .. . ... : ... .. . ...
ROW 0D : ... .. . ... ... : ... .. . ... : ... .. . ... ... F02 : ... .. . ... : ... .. . ...
ROW 0E : ... .. . S01 ... : ... .. . ... : ... .. . ... ... F03 : ... .. . ... : ... .. . ...
ROW 0F : F-4 12 A ... ... : F-4 1B A ... : ... .. . ... ... F02 : ... .. . ... : ... .. . ...
ROW 10 : ... .. . ... ... : ... .. . ... : ... .. . ... ... F03 : ... .. . ... : ... .. . ...
ROW 11 : ... .. . S01 ... : ... .. . ... : ... .. . ... ... F03 : ... .. . ... : ... .. . ...
ROW 12 : G-4 12 C ... ... : D#4 1B C ... : ... .. . ... 4AA F02 : ... .. . ... : ... .. . ...
ROW 13 : ... .. . ... ... : ... .. . ... : ... .. . ... ... F03 : ... .. . ... : ... .. . ...
ROW 14 : ... .. . S01 ... : ... .. . ... : ... .. . ... ... F02 : ... .. . ... : ... .. . ...
ROW 15 : A-4 12 D ... ... : C#4 1B D ... : ... .. . ... ... F03 : ... .. . ... : ... .. . ...
ROW 16 : ... .. . ... ... : ... .. . ... : ... .. . ... ... F02 : ... .. . ... : ... .. . ...
ROW 17 : ... .. . S01 ... : ... .. . ... : ... .. . ... ... F03 : ... .. . ... : ... .. . ...
ROW 18 : ... .. . ... ... : ... .. . ... : ... .. . ... ... F02 : ... .. . ... : ... .. . ...
ROW 19 : ... .. . ... ... : ... .. . ... : ... .. . ... ... F03 : ... .. . ... : ... .. . ...
ROW 1A : ... .. 7 ... ... : ... .. . ... : ... .. . ... ... F02 : ... .. . ... : ... .. . ...
ROW 1B : ... .. . ... ... : ... .. . ... : ... .. . ... ... F03 : ... .. . ... : ... .. . ...
ROW 1C : ... .. . ... ... : ... .. . ... : ... .. . ... ... F02 : ... .. . ... : ... .. . ...
ROW 1D : ... .. 9 ... ... : ... .. . ... : ... .. . ... ... F03 : ... .. . ... : ... .. . ...
ROW 1E : ... .. . ... ... : ... .. . ... : ... .. . ... ... F02 : ... .. . ... : ... .. . ...
ROW 1F : ... .. . ... ... : ... .. . ... : ... .. . ... ... F03 : ... .. . ... : ... .. . ...
ROW 20 : ... .. A ... ... : ... .. . ... : ... .. . ... ... F02 : ... .. . ... : ... .. . ...
ROW 21 : ... .. . ... ... : ... .. . ... : ... .. . ... ... F03 : ... .. . ... : ... .. . ...
ROW 22 : ... .. . ... ... : ... .. . ... : ... .. . ... ... F02 : ... .. . ... : ... .. . ...
ROW 23 : ... .. C ... ... : ... .. . ... : ... .. . ... ... F03 : ... .. . ... : ... .. . ...
ROW 24 : ... .. . ... ... : ... .. . ... : ... .. . ... ... F02 : ... .. . ... : ... .. . ...
ROW 25 : ... .. . ... ... : ... .. . ... : ... .. . ... ... F03 : ... .. . ... : ... .. . ...
ROW 26 : ... .. D ... ... : ... .. . ... : ... .. . ... ... F02 : ... .. . ... : ... .. . ...
ROW 27 : ... .. . ... ... : ... .. . ... : ... .. . ... ... F03 : ... .. . ... : ... .. . ...
ROW 28 : ... .. . ... ... : ... .. . ... : ... .. . ... ... F02 : ... .. . ... : ... .. . ...
ROW 29 : ... .. . ... ... : ... .. . ... : ... .. . ... ... F03 : ... .. . ... : ... .. . ...
ROW 2A : ... .. . ... ... : ... .. . ... : ... .. . ... ... F02 : ... .. . ... : ... .. . ...
ROW 2B : ... .. . ... ... : ... .. . ... : ... .. . ... ... F03 : ... .. . ... : ... .. . ...
ROW 2C : ... .. . ... ... : ... .. . ... : ... .. . ... ... F02 : ... .. . ... : ... .. . ...
ROW 2D : ... .. . ... ... : ... .. . ... : ... .. . ... ... F03 : ... .. . ... : ... .. . ...
ROW 2E : ... .. . ... ... : ... .. . ... : ... .. . ... ... F02 : ... .. . ... : ... .. . ...
ROW 2F : ... .. . ... ... : ... .. . ... : ... .. . ... ... F03 : ... .. . ... : ... .. . ...

PATTERN 1B
ROW 00 : E-4 1B F ... ... : G#3 0C F ... : C-4 01 . 100 400 F02 : ... .. . ... : ... .. . ...
ROW 01 : ... .. . ... ... : ... .. . ... : C-2 05 . ... ... F03 : ... .. . ... : ... .. . ...
ROW 02 : ... .. . ... ... : ... .. . ... : ... .. . ... ... F02 : ... .. . ... : ... .. . ...
ROW 03 : E-4 1B . ... ... : G#3 0C 5 ... : G-3 05 . ... ... F03 : ... .. . ... : ... .. . ...
ROW 04 : ... .. . ... ... : ... .. . ... : ... .. . ... ... F02 : ... .. . ... : ... .. . ...
ROW 05 : ... .. . ... ... : ... .. . ... : ... .. . ... ... F03 : ... .. . ... : ... .. . ...
ROW 06 : C-3 0B . ... ... : G-3 0C F ... : E-4 05 . ... ... F02 : ... .. . ... : ... .. . ...
ROW 07 : ... .. . ... ... : ... .. . ... : ... .. . ... ... F03 : ... .. . ... : ... .. . ...
ROW 08 : --- .. . ... ... : ... .. . ... : --- .. . ... ... F02 : ... .. . ... : ... .. . ...
ROW 09 : ... .. . ... ... : G-3 0C 5 ... : C-5 03 . ... ... F03 : ... .. . ... : ... .. . ...
ROW 0A : ... .. . ... ... : ... .. . ... : ... .. . ... ... F02 : ... .. . ... : ... .. . ...
ROW 0B : ... .. . ... ... : ... .. . ... : ... .. . ... ... F02 : ... .. . ... : ... .. . ...
ROW 0C : E-4 1B A ... ... : E-3 0C F ... : C-4 01 . ... ... F03 : ... .. . ... : ... .. . ...
ROW 0D : ... .. . ... ... : ... .. . ... : C-2 05 . ... ... F02 : ... .. . ... : ... .. . ...
ROW 0E : ... .. . ... ... : ... .. . ... : ... .. . ... ... F03 : ... .. . ... : ... .. . ...
ROW 0F : E-4 1B . ... ... : E-3 0C 5 ... : C-5 03 . ... ... F02 : ... .. . ... : ... .. . ...
ROW 10 : ... .. . ... ... : ... .. . ... : ... .. . ... ... F03 : ... .. . ... : ... .. . ...
ROW 11 : ... .. . ... ... : ... .. . ... : ... .. . ... ... F03 : ... .. . ... : ... .. . ...
ROW 12 : C-3 0B . ... ... : C-3 0C F ... : C-4 11 . ... ... F02 : ... .. . ... : ... .. . ...
ROW 13 : ... .. . ... ... : ... .. . ... : ... .. . ... ... F03 : ... .. . ... : ... .. . ...
ROW 14 : --- .. . ... ... : ... .. . ... : --- .. . ... ... F02 : ... .. . ... : ... .. . ...
ROW 15 : ... .. . ... ... : C-3 0C 5 ... : C-5 03 . ... ... F03 : ... .. . ... : ... .. . ...
ROW 16 : ... .. . ... ... : ... .. . ... : ... .. . ... ... F02 : ... .. . ... : ... .. . ...
ROW 17 : ... .. . ... ... : ... .. . ... : ... .. . ... ... F03 : ... .. . ... : ... .. . ...
ROW 18 : E-4 1B 5 ... ... : G#2 0C F ... : C-4 01 . ... ... F02 : ... .. . ... : ... .. . ...
ROW 19 : ... .. . ... ... : ... .. . ... : C-2 05 . ... ... F03 : ... .. . ... : ... .. . ...
ROW 1A : ... .. . ... ... : ... .. . ... : ... .. . ... ... F02 : ... .. . ... : ... .. . ...
ROW 1B : E-4 1B . ... ... : G#2 0C 5 ... : G-3 05 . ... ... F03 : ... .. . ... : ... .. . ...
ROW 1C : ... .. . ... ... : ... .. . ... : ... .. . ... ... F02 : ... .. . ... : ... .. . ...
ROW 1D : ... .. . ... ... : ... .. . ... : ... .. . ... ... F03 : ... .. . ... : ... .. . ...
ROW 1E : F-3 0F . ... ... : C-3 0C F ... : F-4 05 . ... ... F02 : ... .. . ... : ... .. . ...
ROW 1F : ... .. . ... ... : ... .. . ... : ... .. . ... ... F03 : ... .. . ... : ... .. . ...
ROW 20 : --- .. . ... ... : ... .. . ... : --- .. . ... ... F02 : ... .. . ... : ... .. . ...
ROW 21 : ... .. . ... ... : C-3 0C 5 ... : C-5 03 . ... ... F03 : ... .. . ... : ... .. . ...
ROW 22 : ... .. . ... ... : ... .. . ... : ... .. . ... ... F02 : ... .. . ... : ... .. . ...
ROW 23 : ... .. . ... ... : ... .. . ... : ... .. . ... ... F03 : ... .. . ... : ... .. . ...
ROW 24 : C-4 1B F ... ... : E-3 0C F ... : C-4 01 . ... ... F02 : ... .. . ... : ... .. . ...
ROW 25 : ... .. . ... ... : ... .. . ... : C-2 05 . ... ... F03 : ... .. . ... : ... .. . ...
ROW 26 : ... .. . ... ... : ... .. . ... : ... .. . ... ... F02 : ... .. . ... : ... .. . ...
ROW 27 : C-4 1B . ... ... : E-3 0C 5 ... : F-2 05 . ... ... F03 : ... .. . ... : ... .. . ...
ROW 28 : ... .. . ... ... : ... .. . ... : ... .. . ... ... F02 : ... .. . ... : ... .. . ...
ROW 29 : ... .. . ... ... : ... .. . ... : ... .. . ... ... F03 : ... .. . ... : ... .. . ...
ROW 2A : F-3 0F . ... ... : G-3 0C F ... : C-3 05 . ... ... F02 : ... .. . ... : ... .. . ...
ROW 2B : ... .. . ... ... : ... .. . ... : ... .. . ... ... F03 : ... .. . ... : ... .. . ...
ROW 2C : --- .. . ... ... : ... .. . ... : ... .. . ... ... F02 : ... .. . ... : ... .. . ...
ROW 2D : ... .. . ... ... : G-3 0C 5 ... : G-4 05 . ... ... F03 : ... .. . ... : ... .. . ...
ROW 2E : ... .. . ... ... : ... .. . ... : ... .. . ... ... F02 : ... .. . ... : ... .. . ...
ROW 2F : ... .. . ... ... : ... .. . ... : ... .. . ... ... F03 : ... .. . ... : ... .. . ...

PATTERN 1C
ROW 00 : C#4 1B . ... ... : C#3 07 3 ... : C-4 01 . 100 400 F02 : ... .. . ... : ... .. . ...
ROW 01 : ... .. . ... ... : ... .. . ... : C#2 05 . ... ... F03 : ... .. . ... : ... .. . ...
ROW 02 : ... .. . ... ... : ... .. . ... : ... .. . ... ... F02 : ... .. . ... : ... .. . ...
ROW 03 : C#4 1B . ... ... : ... .. . ... : ... .. . ... ... F03 : ... .. . ... : ... .. . ...
ROW 04 : ... .. . ... ... : ... .. . ... : ... .. . ... ... F02 : ... .. . ... : ... .. . ...
ROW 05 : ... .. . ... ... : ... .. 0 ... : ... .. . ... ... F03 : ... .. . ... : ... .. . ...
ROW 06 : ... .. . ... ... : ... .. 4 ... : ... .. . ... ... F02 : ... .. . ... : ... .. . ...
ROW 07 : ... .. . ... ... : ... .. . ... : ... .. . ... ... F03 : ... .. . ... : ... .. . ...
ROW 08 : ... .. . ... ... : ... .. . ... : ... .. . ... ... F02 : ... .. . ... : ... .. . ...
ROW 09 : ... .. . ... ... : ... .. . ... : ... .. . ... ... F03 : ... .. . ... : ... .. . ...
ROW 0A : ... .. . ... ... : ... .. . ... : ... .. . ... ... F02 : ... .. . ... : ... .. . ...
ROW 0B : ... .. . ... ... : ... .. 0 ... : ... .. . ... ... F02 : ... .. . ... : ... .. . ...
ROW 0C : C#4 1B . ... ... : ... .. 6 ... : ... .. . 202 ... F03 : ... .. . ... : ... .. . ...
ROW 0D : ... .. . ... ... : ... .. . ... : ... .. . ... ... F02 : ... .. . ... : ... .. . ...
ROW 0E : ... .. . ... ... : ... .. . ... : ... .. . ... ... F03 : ... .. . ... : ... .. . ...
ROW 0F : C#4 1B . ... ... : ... .. . ... : ... .. . ... ... F02 : ... .. . ... : ... .. . ...
ROW 10 : ... .. . ... ... : ... .. . ... : ... .. . ... ... F03 : ... .. . ... : ... .. . ...
ROW 11 : ... .. . ... ... : ... .. 0 ... : ... .. . ... ... F03 : ... .. . ... : ... .. . ...
ROW 12 : ... .. . ... ... : ... .. 8 ... : ... .. . ... ... F02 : ... .. . ... : ... .. . ...
ROW 13 : ... .. . ... ... : ... .. . ... : ... .. . ... ... F03 : ... .. . ... : ... .. . ...
ROW 14 : ... .. . ... ... : ... .. . ... : ... .. . ... ... F02 : ... .. . ... : ... .. . ...
ROW 15 : ... .. . ... ... : ... .. . ... : ... .. . ... ... F03 : ... .. . ... : ... .. . ...
ROW 16 : ... .. . ... ... : ... .. . ... : ... .. . ... ... F02 : ... .. . ... : ... .. . ...
ROW 17 : ... .. . ... ... : ... .. 0 ... : ... .. . ... ... F03 : ... .. . ... : ... .. . ...
ROW 18 : C#4 1B . ... ... : ... .. A ... : ... .. . ... ... F02 : ... .. . ... : ... .. . ...
ROW 19 : ... .. . ... ... : ... .. . ... : ... .. . ... ... F03 : ... .. . ... : ... .. . ...
ROW 1A : ... .. . ... ... : ... .. . ... : ... .. . ... ... F02 : ... .. . ... : ... .. . ...
ROW 1B : C#4 1B . ... ... : ... .. . ... : ... .. . ... ... F03 : ... .. . ... : ... .. . ...
ROW 1C : ... .. . ... ... : ... .. . ... : ... .. . ... ... F02 : ... .. . ... : ... .. . ...
ROW 1D : ... .. . ... ... : ... .. 0 ... : ... .. . ... ... F03 : ... .. . ... : ... .. . ...
ROW 1E : ... .. . ... ... : ... .. C ... : ... .. . ... ... F02 : ... .. . ... : ... .. . ...
ROW 1F : ... .. . ... ... : ... .. . ... : ... .. . ... ... F03 : ... .. . ... : ... .. . ...
ROW 20 : ... .. . ... ... : ... .. . ... : ... .. . ... ... F02 : ... .. . ... : ... .. . ...
ROW 21 : ... .. . ... ... : ... .. . ... : ... .. . ... ... F03 : ... .. . ... : ... .. . ...
ROW 22 : ... .. . ... ... : ... .. . ... : ... .. . ... ... F02 : ... .. . ... : ... .. . ...
ROW 23 : ... .. . ... ... : ... .. 0 ... : ... .. . ... ... F03 : ... .. . ... : ... .. . ...
ROW 24 : ... .. . ... ... : ... .. . ... : G-3 1B . 200 ... F02 : ... .. . ... : ... .. . ...
ROW 25 : ... .. . ... ... : ... .. . ... : ... .. . ... ... F03 : ... .. . ... : ... .. . ...
ROW 26 : ... .. . ... ... : ... .. . ... : --- .. . ... ... F02 : ... .. . ... : ... .. . ...
ROW 27 : ... .. . ... ... : ... .. . ... : G-4 1B . ... ... F03 : ... .. . ... : ... .. . ...
ROW 28 : ... .. . ... ... : ... .. . ... : ... .. . ... ... F02 : ... .. . ... : ... .. . ...
ROW 29 : ... .. . ... ... : ... .. . ... : --- .. . ... ... F03 : ... .. . ... : ... .. . ...
ROW 2A : E-3 19 F ... ... : G-2 11 F ... : A#5 1B . ... ... F02 : ... .. . ... : ... .. . ...
ROW 2B : F-3 19 F ... ... : ... .. . ... : B-5 1B . ... ... F03 : ... .. . ... : ... .. . ...
ROW 2C : ... .. . ... ... : ... .. . ... : ... .. . ... ... F02 : ... .. . ... : ... .. . ...
ROW 2D : --- .. . ... ... : --- .. . ... : --- .. . ... ... F03 : ... .. . ... : ... .. . ...
ROW 2E : ... .. . ... ... : ... .. . ... : ... .. . ... ... F02 : ... .. . ... : ... .. . ...
ROW 2F : ... .. . ... ... : ... .. . ... : ... .. . ... ... F03 : ... .. . ... : ... .. . ...

# End of export
