# FamiTracker text export 0.4.2

# Song information
TITLE           "Spirit of chivalry"
AUTHOR          "Kilirane"
COPYRIGHT       "CC-BY"

# Song comment
COMMENT         ""
# Global settings
MACHINE         0
FRAMERATE       0
EXPANSION       0
VIBRATO         1
SPLIT           32

# Macros
MACRO       0    0   -1   -1   0 : 15 14 13 10
MACRO       0    1   -1   -1   0 : 13 15 14 12 11 10 9
MACRO       0    2   -1   -1   0 : 1 6 13 15
MACRO       0    3   -1   -1   0 : 9 10 10 11 11 12 13 14 14 15 15 15 15 15 14 14 14 13 13 13 12 12 11 11 10 10 9 9 8 8 7 7 6 6 5 5 4 4 4 3 3 2 2
MACRO       0    4   -1   -1   0 : 9
MACRO       0    5   -1   -1   0 : 15 15 15 15 15 15 15 15 15 15 15 14 13 12 11 10 9 8 7 7
MACRO       0    6   -1   -1   0 : 7
MACRO       1    0   -1   -1   0 : 0 -1 -3 -5 -7 -9 -11 -12
MACRO       1    1   -1   -1   0 : -4 0 0 0 0 0 0 0
MACRO       1    2   -1   -1   0 : 25 -18 9 -5 0 0 0 0
MACRO       1    3   -1   -1   0 : -24 0 0 0 0 0 0 0
MACRO       2    0   -1   -1   0 : 0 0 15 -15 0 0 0 0 0 0 0 0 0 0 0 0 0 0 0
MACRO       2    1   -1   -1   0 : -10 8 2 0 0 0 0 0
MACRO       2    2    7   -1   0 : 0 0 0 0 0 0 0 0 3 1 0 -1 -3 -3 -1 0 4
MACRO       2    3    0   -1   0 : 0 3 1 0 -1 -3 -3 -1 0 4
MACRO       2    4   -1   -1   0 : -32 63 -63 32 0 0 0 0
MACRO       2    5   -1   -1   0 : 0 -1 0 0 1 1 0 0
MACRO       2    6   -1   -1   0 : 0 31 -31 1 6 3 3 2
MACRO       4    0   -1   -1   0 : 2
MACRO       4    1   -1   -1   0 : 0 1
MACRO       4    2   -1   -1   0 : 2 0
MACRO       4    3   -1   -1   0 : 0 2
MACRO       4    4    2   -1   0 : 2 0 2

# Instruments
INST2A03   0     0   0   0  -1  -1 "BASS1"
INST2A03   1     1   1   1  -1   0 "Instrument 1"
INST2A03   2     2  -1   2  -1   1 "Instrument 2"
INST2A03   3     2  -1   3  -1   1 "Instrument 2 (attackless)"
INST2A03   4     3  -1  -1  -1   0 "Instrument 3"
INST2A03   5     4   2   4  -1   2 "Instrument 4"
INST2A03   6     5  -1   5  -1   3 "Instrument 5"
INST2A03   7     6   3   6  -1   4 "Percu+"
INST2A03   8     4  -1  -1  -1   3 "Pitchoune"
INST2A03   9    -1  -1  -1  -1   1 "Pitchoune2"
INST2A03  10    -1  -1  -1  -1  -1 "superNeutral"

# Tracks
TRACK 160   1 150 "Spirit of chivalry"
COLUMNS : 3 3 3 3 3

ORDER 00 : 00 00 00 00 00
ORDER 01 : 01 00 00 00 00
ORDER 02 : 02 01 00 00 00
ORDER 03 : 03 02 00 00 00
ORDER 04 : 04 03 01 01 00
ORDER 05 : 05 04 02 01 00
ORDER 06 : 06 05 03 01 00
ORDER 07 : 07 06 04 01 00
ORDER 08 : 08 07 01 01 00
ORDER 09 : 09 08 02 01 00
ORDER 0A : 0A 09 03 01 00
ORDER 0B : 0B 0A 04 01 00
ORDER 0C : 0C 0B 05 02 00
ORDER 0D : 0D 0C 06 02 00
ORDER 0E : 0E 0D 07 02 00
ORDER 0F : 0F 0E 08 02 00
ORDER 10 : 10 0F 05 03 00
ORDER 11 : 11 10 06 03 00
ORDER 12 : 10 11 07 03 00
ORDER 13 : 12 12 08 03 00
ORDER 14 : 13 13 05 02 00
ORDER 15 : 14 14 06 02 00
ORDER 16 : 13 15 07 02 00
ORDER 17 : 15 16 09 04 01

PATTERN 00
ROW 00 : A#2 06 . ... ... ... : A#1 04 . ... ... ... : A#2 00 . ... ... ... : 0-# 06 . ... ... ... : ... .. . ... ... ...
ROW 01 : ... .. . ... ... ... : ... .. . ... ... ... : ... .. . ... ... ... : ... .. . ... ... ... : ... .. . ... ... ...
ROW 02 : ... .. . ... ... ... : ... .. . ... ... ... : ... .. . ... ... ... : ... .. . ... ... ... : ... .. . ... ... ...
ROW 03 : ... .. . ... ... ... : ... .. . ... ... ... : ... .. . ... ... ... : ... .. . ... ... ... : ... .. . ... ... ...
ROW 04 : ... .. . ... ... ... : ... .. . ... ... ... : ... .. . ... ... ... : --- .. . ... ... ... : ... .. . ... ... ...
ROW 05 : ... .. . ... ... ... : ... .. . ... ... ... : ... .. . ... ... ... : ... .. . ... ... ... : ... .. . ... ... ...
ROW 06 : ... .. . ... ... ... : ... .. . ... ... ... : ... .. . ... ... ... : ... .. . ... ... ... : ... .. . ... ... ...
ROW 07 : ... .. . ... ... ... : ... .. . ... ... ... : ... .. . ... ... ... : ... .. . ... ... ... : ... .. . ... ... ...
ROW 08 : ... .. . ... ... ... : ... .. . ... ... ... : ... .. . ... ... ... : ... .. . ... ... ... : ... .. . ... ... ...
ROW 09 : ... .. . ... ... ... : ... .. . ... ... ... : --- .. . ... ... ... : ... .. . ... ... ... : ... .. . ... ... ...
ROW 0A : ... .. . ... ... ... : C-2 04 . ... ... ... : A#2 04 . ... ... ... : A-# 07 . ... ... ... : ... .. . ... ... ...
ROW 0B : ... .. . ... ... ... : ... .. . ... ... ... : ... .. . ... ... ... : ... .. . ... ... ... : ... .. . ... ... ...
ROW 0C : ... .. . ... ... ... : ... .. . ... ... ... : ... .. . ... ... ... : --- .. . ... ... ... : ... .. . ... ... ...
ROW 0D : ... .. . ... ... ... : ... .. . ... ... ... : ... .. . ... ... ... : ... .. . ... ... ... : ... .. . ... ... ...
ROW 0E : ... .. . ... ... ... : ... .. . ... ... ... : ... .. . ... ... ... : ... .. . ... ... ... : ... .. . ... ... ...
ROW 0F : ... .. . ... ... ... : ... .. . ... ... ... : ... .. . ... ... ... : ... .. . ... ... ... : ... .. . ... ... ...
ROW 10 : ... .. . ... ... ... : ... .. . ... ... ... : ... .. . ... ... ... : ... .. . ... ... ... : ... .. . ... ... ...
ROW 11 : ... .. . ... ... ... : ... .. . ... ... ... : ... .. . ... ... ... : ... .. . ... ... ... : ... .. . ... ... ...
ROW 12 : ... .. . ... ... ... : ... .. . ... ... ... : ... .. . ... ... ... : ... .. . ... ... ... : ... .. . ... ... ...
ROW 13 : ... .. . ... ... ... : C#2 04 . ... ... ... : --- .. . ... ... ... : ... .. . ... ... ... : ... .. . ... ... ...
ROW 14 : ... .. . ... ... ... : ... .. . ... ... ... : C#3 04 . ... ... ... : A-# 07 . ... ... ... : ... .. . ... ... ...
ROW 15 : ... .. . ... ... ... : ... .. . ... ... ... : ... .. . ... ... ... : ... .. . ... ... ... : ... .. . ... ... ...
ROW 16 : ... .. . ... ... ... : ... .. . ... ... ... : ... .. . ... ... ... : --- .. . ... ... ... : ... .. . ... ... ...
ROW 17 : ... .. . ... ... ... : ... .. . ... ... ... : ... .. . ... ... ... : ... .. . ... ... ... : ... .. . ... ... ...
ROW 18 : ... .. . ... ... ... : ... .. . ... ... ... : ... .. . ... ... ... : ... .. . ... ... ... : ... .. . ... ... ...
ROW 19 : ... .. . ... ... ... : ... .. . ... ... ... : ... .. . ... ... ... : ... .. . ... ... ... : ... .. . ... ... ...
ROW 1A : ... .. . ... ... ... : ... .. . ... ... ... : ... .. . ... ... ... : ... .. . ... ... ... : ... .. . ... ... ...
ROW 1B : ... .. . ... ... ... : ... .. . ... ... ... : ... .. . ... ... ... : ... .. . ... ... ... : ... .. . ... ... ...
ROW 1C : ... .. . ... ... ... : ... .. . ... ... ... : ... .. . ... ... ... : ... .. . ... ... ... : ... .. . ... ... ...
ROW 1D : ... .. . ... ... ... : ... .. . ... ... ... : --- .. . ... ... ... : ... .. . ... ... ... : ... .. . ... ... ...
ROW 1E : ... .. . ... ... ... : A#1 04 . ... ... ... : A#2 00 . ... ... ... : 1-# 06 . ... ... ... : ... .. . ... ... ...
ROW 1F : ... .. . ... ... ... : ... .. . ... ... ... : ... .. . ... ... ... : ... .. . ... ... ... : ... .. . ... ... ...
ROW 20 : ... .. . ... ... ... : ... .. . ... ... ... : ... .. . ... ... ... : ... .. . ... ... ... : ... .. . ... ... ...
ROW 21 : ... .. . ... ... ... : ... .. . ... ... ... : ... .. . ... ... ... : ... .. . ... ... ... : ... .. . ... ... ...
ROW 22 : ... .. . ... ... ... : ... .. . ... ... ... : ... .. . ... ... ... : --- .. . ... ... ... : ... .. . ... ... ...
ROW 23 : ... .. . ... ... ... : ... .. . ... ... ... : ... .. . ... ... ... : ... .. . ... ... ... : ... .. . ... ... ...
ROW 24 : ... .. . ... ... ... : ... .. . ... ... ... : ... .. . ... ... ... : ... .. . ... ... ... : ... .. . ... ... ...
ROW 25 : ... .. . ... ... ... : ... .. . ... ... ... : ... .. . ... ... ... : ... .. . ... ... ... : ... .. . ... ... ...
ROW 26 : ... .. . ... ... ... : ... .. . ... ... ... : ... .. . ... ... ... : ... .. . ... ... ... : ... .. . ... ... ...
ROW 27 : ... .. . ... ... ... : --- .. . ... ... ... : --- .. . ... ... ... : ... .. . ... ... ... : ... .. . ... ... ...
ROW 28 : ... .. . ... ... ... : ... .. . ... ... ... : A#2 04 . ... ... ... : ... .. . ... ... ... : ... .. . ... ... ...
ROW 29 : ... .. . ... ... ... : ... .. . ... ... ... : ... .. . ... ... ... : ... .. . ... ... ... : ... .. . ... ... ...
ROW 2A : ... .. . ... ... ... : ... .. . ... ... ... : ... .. . ... ... ... : ... .. . ... ... ... : ... .. . ... ... ...
ROW 2B : ... .. . ... ... ... : ... .. . ... ... ... : ... .. . ... ... ... : ... .. . ... ... ... : ... .. . ... ... ...
ROW 2C : ... .. . ... ... ... : ... .. . ... ... ... : ... .. . ... ... ... : ... .. . ... ... ... : ... .. . ... ... ...
ROW 2D : ... .. . ... ... ... : ... .. . ... ... ... : ... .. . ... ... ... : ... .. . ... ... ... : ... .. . ... ... ...
ROW 2E : ... .. . ... ... ... : ... .. . ... ... ... : --- .. . ... ... ... : ... .. . ... ... ... : ... .. . ... ... ...
ROW 2F : ... .. . ... ... ... : ... .. . ... ... ... : ... .. . ... ... ... : ... .. . ... ... ... : ... .. . ... ... ...
ROW 30 : ... .. . ... ... ... : ... .. . ... ... ... : ... .. . ... ... ... : ... .. . ... ... ... : ... .. . ... ... ...
ROW 31 : ... .. . ... ... ... : ... .. . ... ... ... : ... .. . ... ... ... : ... .. . ... ... ... : ... .. . ... ... ...
ROW 32 : ... .. . ... ... ... : ... .. . ... ... ... : A#2 04 . ... ... ... : A-# 07 . ... ... ... : ... .. . ... ... ...
ROW 33 : ... .. . ... ... ... : ... .. . ... ... ... : ... .. . ... ... ... : ... .. . ... ... ... : ... .. . ... ... ...
ROW 34 : ... .. . ... ... ... : ... .. . ... ... ... : ... .. . ... ... ... : --- .. . ... ... ... : ... .. . ... ... ...
ROW 35 : ... .. . ... ... ... : ... .. . ... ... ... : ... .. . ... ... ... : ... .. . ... ... ... : ... .. . ... ... ...
ROW 36 : ... .. . ... ... ... : ... .. . ... ... ... : ... .. . ... ... ... : ... .. . ... ... ... : ... .. . ... ... ...
ROW 37 : ... .. . ... ... ... : ... .. . ... ... ... : ... .. . ... ... ... : ... .. . ... ... ... : ... .. . ... ... ...
ROW 38 : ... .. . ... ... ... : ... .. . ... ... ... : ... .. . ... ... ... : ... .. . ... ... ... : ... .. . ... ... ...
ROW 39 : ... .. . ... ... ... : ... .. . ... ... ... : ... .. . ... ... ... : ... .. . ... ... ... : ... .. . ... ... ...
ROW 3A : ... .. . ... ... ... : ... .. . ... ... ... : ... .. . ... ... ... : ... .. . ... ... ... : ... .. . ... ... ...
ROW 3B : ... .. . ... ... ... : ... .. . ... ... ... : --- .. . ... ... ... : ... .. . ... ... ... : ... .. . ... ... ...
ROW 3C : ... .. . ... ... ... : A#1 04 . ... ... ... : D#3 04 . ... ... ... : A-# 07 . ... ... ... : ... .. . ... ... ...
ROW 3D : ... .. . ... ... ... : ... .. . ... ... ... : ... .. . ... ... ... : ... .. . ... ... ... : ... .. . ... ... ...
ROW 3E : ... .. . ... ... ... : ... .. . ... ... ... : ... .. . ... ... ... : ... .. . ... ... ... : ... .. . ... ... ...
ROW 3F : ... .. . ... ... ... : ... .. . ... ... ... : ... .. . ... ... ... : ... .. . ... ... ... : ... .. . ... ... ...
ROW 40 : ... .. . ... ... ... : ... .. . ... ... ... : ... .. . ... ... ... : ... .. . ... ... ... : ... .. . ... ... ...
ROW 41 : ... .. . ... ... ... : ... .. . ... ... ... : ... .. . ... ... ... : ... .. . ... ... ... : ... .. . ... ... ...
ROW 42 : ... .. . ... ... ... : ... .. . ... ... ... : ... .. . ... ... ... : ... .. . ... ... ... : ... .. . ... ... ...
ROW 43 : ... .. . ... ... ... : ... .. . ... ... ... : ... .. . ... ... ... : ... .. . ... ... ... : ... .. . ... ... ...
ROW 44 : ... .. . ... ... ... : ... .. . ... ... ... : ... .. . ... ... ... : ... .. . ... ... ... : ... .. . ... ... ...
ROW 45 : ... .. . ... ... ... : --- .. . ... ... ... : --- .. . ... ... ... : --- .. . ... ... ... : ... .. . ... ... ...
ROW 46 : ... .. . ... ... ... : ... .. . ... ... ... : A#2 04 . ... ... ... : ... .. . ... ... ... : ... .. . ... ... ...
ROW 47 : ... .. . ... ... ... : ... .. . ... ... ... : ... .. . ... ... ... : ... .. . ... ... ... : ... .. . ... ... ...
ROW 48 : ... .. . ... ... ... : ... .. . ... ... ... : ... .. . ... ... ... : ... .. . ... ... ... : ... .. . ... ... ...
ROW 49 : ... .. . ... ... ... : ... .. . ... ... ... : ... .. . ... ... ... : ... .. . ... ... ... : ... .. . ... ... ...
ROW 4A : ... .. . ... ... ... : ... .. . ... ... ... : ... .. . ... ... ... : ... .. . ... ... ... : ... .. . ... ... ...
ROW 4B : ... .. . ... ... ... : ... .. . ... ... ... : ... .. . ... ... ... : ... .. . ... ... ... : ... .. . ... ... ...
ROW 4C : ... .. . ... ... ... : ... .. . ... ... ... : ... .. . ... ... ... : ... .. . ... ... ... : ... .. . ... ... ...
ROW 4D : ... .. . ... ... ... : ... .. . ... ... ... : ... .. . ... ... ... : ... .. . ... ... ... : ... .. . ... ... ...
ROW 4E : ... .. . ... ... ... : ... .. . ... ... ... : ... .. . ... ... ... : ... .. . ... ... ... : ... .. . ... ... ...
ROW 4F : ... .. . ... ... ... : ... .. . ... ... ... : --- .. . ... ... ... : ... .. . ... ... ... : ... .. . ... ... ...
ROW 50 : ... .. . ... ... ... : A#1 04 . ... ... ... : A#2 00 . ... ... ... : 0-# 06 . ... ... ... : ... .. . ... ... ...
ROW 51 : ... .. . ... ... ... : ... .. . ... ... ... : ... .. . ... ... ... : ... .. . ... ... ... : ... .. . ... ... ...
ROW 52 : ... .. . ... ... ... : ... .. . ... ... ... : ... .. . ... ... ... : ... .. . ... ... ... : ... .. . ... ... ...
ROW 53 : ... .. . ... ... ... : ... .. . ... ... ... : ... .. . ... ... ... : --- .. . ... ... ... : ... .. . ... ... ...
ROW 54 : ... .. . ... ... ... : ... .. . ... ... ... : ... .. . ... ... ... : ... .. . ... ... ... : ... .. . ... ... ...
ROW 55 : ... .. . ... ... ... : ... .. . ... ... ... : ... .. . ... ... ... : ... .. . ... ... ... : ... .. . ... ... ...
ROW 56 : ... .. . ... ... ... : ... .. . ... ... ... : ... .. . ... ... ... : ... .. . ... ... ... : ... .. . ... ... ...
ROW 57 : ... .. . ... ... ... : ... .. . ... ... ... : ... .. . ... ... ... : ... .. . ... ... ... : ... .. . ... ... ...
ROW 58 : ... .. . ... ... ... : ... .. . ... ... ... : ... .. . ... ... ... : ... .. . ... ... ... : ... .. . ... ... ...
ROW 59 : ... .. . ... ... ... : ... .. . ... ... ... : --- .. . ... ... ... : ... .. . ... ... ... : ... .. . ... ... ...
ROW 5A : ... .. . ... ... ... : C-2 04 . ... ... ... : A#2 04 . ... ... ... : ... .. . ... ... ... : ... .. . ... ... ...
ROW 5B : ... .. . ... ... ... : ... .. . ... ... ... : ... .. . ... ... ... : ... .. . ... ... ... : ... .. . ... ... ...
ROW 5C : ... .. . ... ... ... : ... .. . ... ... ... : ... .. . ... ... ... : ... .. . ... ... ... : ... .. . ... ... ...
ROW 5D : ... .. . ... ... ... : ... .. . ... ... ... : ... .. . ... ... ... : ... .. . ... ... ... : ... .. . ... ... ...
ROW 5E : ... .. . ... ... ... : ... .. . ... ... ... : ... .. . ... ... ... : ... .. . ... ... ... : ... .. . ... ... ...
ROW 5F : ... .. . ... ... ... : ... .. . ... ... ... : ... .. . ... ... ... : ... .. . ... ... ... : ... .. . ... ... ...
ROW 60 : ... .. . ... ... ... : ... .. . ... ... ... : ... .. . ... ... ... : ... .. . ... ... ... : ... .. . ... ... ...
ROW 61 : ... .. . ... ... ... : ... .. . ... ... ... : ... .. . ... ... ... : ... .. . ... ... ... : ... .. . ... ... ...
ROW 62 : ... .. . ... ... ... : ... .. . ... ... ... : ... .. . ... ... ... : ... .. . ... ... ... : ... .. . ... ... ...
ROW 63 : ... .. . ... ... ... : ... .. . ... ... ... : --- .. . ... ... ... : ... .. . ... ... ... : ... .. . ... ... ...
ROW 64 : ... .. . ... ... ... : C#2 04 . ... ... ... : F-3 04 . ... ... ... : A-# 07 . ... ... ... : ... .. . ... ... ...
ROW 65 : ... .. . ... ... ... : ... .. . ... ... ... : ... .. . ... ... ... : ... .. . ... ... ... : ... .. . ... ... ...
ROW 66 : ... .. . ... ... ... : ... .. . ... ... ... : ... .. . ... ... ... : ... .. . ... ... ... : ... .. . ... ... ...
ROW 67 : ... .. . ... ... ... : ... .. . ... ... ... : ... .. . ... ... ... : ... .. . ... ... ... : ... .. . ... ... ...
ROW 68 : ... .. . ... ... ... : ... .. . ... ... ... : ... .. . ... ... ... : --- .. . ... ... ... : ... .. . ... ... ...
ROW 69 : ... .. . ... ... ... : ... .. . ... ... ... : ... .. . ... ... ... : ... .. . ... ... ... : ... .. . ... ... ...
ROW 6A : ... .. . ... ... ... : ... .. . ... ... ... : ... .. . ... ... ... : ... .. . ... ... ... : ... .. . ... ... ...
ROW 6B : ... .. . ... ... ... : ... .. . ... ... ... : ... .. . ... ... ... : ... .. . ... ... ... : ... .. . ... ... ...
ROW 6C : ... .. . ... ... ... : ... .. . ... ... ... : ... .. . ... ... ... : ... .. . ... ... ... : ... .. . ... ... ...
ROW 6D : ... .. . ... ... ... : ... .. . ... ... ... : --- .. . ... ... ... : ... .. . ... ... ... : ... .. . ... ... ...
ROW 6E : ... .. . ... ... ... : A#1 04 . ... ... ... : A#2 04 . ... ... ... : 1-# 06 . ... ... ... : ... .. . ... ... ...
ROW 6F : ... .. . ... ... ... : ... .. . ... ... ... : ... .. . ... ... ... : ... .. . ... ... ... : ... .. . ... ... ...
ROW 70 : ... .. . ... ... ... : ... .. . ... ... ... : ... .. . ... ... ... : ... .. . ... ... ... : ... .. . ... ... ...
ROW 71 : ... .. . ... ... ... : ... .. . ... ... ... : ... .. . ... ... ... : --- .. . ... ... ... : ... .. . ... ... ...
ROW 72 : ... .. . ... ... ... : ... .. . ... ... ... : ... .. . ... ... ... : ... .. . ... ... ... : ... .. . ... ... ...
ROW 73 : ... .. . ... ... ... : ... .. . ... ... ... : ... .. . ... ... ... : ... .. . ... ... ... : ... .. . ... ... ...
ROW 74 : ... .. . ... ... ... : ... .. . ... ... ... : ... .. . ... ... ... : ... .. . ... ... ... : ... .. . ... ... ...
ROW 75 : ... .. . ... ... ... : ... .. . ... ... ... : ... .. . ... ... ... : ... .. . ... ... ... : ... .. . ... ... ...
ROW 76 : ... .. . ... ... ... : ... .. . ... ... ... : ... .. . ... ... ... : ... .. . ... ... ... : ... .. . ... ... ...
ROW 77 : ... .. . ... ... ... : --- .. . ... ... ... : --- .. . ... ... ... : ... .. . ... ... ... : ... .. . ... ... ...
ROW 78 : ... .. . ... ... ... : ... .. . ... ... ... : A#2 00 . ... ... ... : ... .. . ... ... ... : ... .. . ... ... ...
ROW 79 : ... .. . ... ... ... : ... .. . ... ... ... : ... .. . ... ... ... : ... .. . ... ... ... : ... .. . ... ... ...
ROW 7A : ... .. . ... ... ... : ... .. . ... ... ... : ... .. . ... ... ... : ... .. . ... ... ... : ... .. . ... ... ...
ROW 7B : ... .. . ... ... ... : ... .. . ... ... ... : ... .. . ... ... ... : ... .. . ... ... ... : ... .. . ... ... ...
ROW 7C : ... .. . ... ... ... : ... .. . ... ... ... : ... .. . ... ... ... : ... .. . ... ... ... : ... .. . ... ... ...
ROW 7D : ... .. . ... ... ... : ... .. . ... ... ... : ... .. . ... ... ... : ... .. . ... ... ... : ... .. . ... ... ...
ROW 7E : ... .. . ... ... ... : ... .. . ... ... ... : ... .. . ... ... ... : ... .. . ... ... ... : ... .. . ... ... ...
ROW 7F : ... .. . ... ... ... : ... .. . ... ... ... : ... .. . ... ... ... : ... .. . ... ... ... : ... .. . ... ... ...
ROW 80 : ... .. . ... ... ... : ... .. . ... ... ... : ... .. . ... ... ... : ... .. . ... ... ... : ... .. . ... ... ...
ROW 81 : ... .. . ... ... ... : ... .. . ... ... ... : --- .. . ... ... ... : ... .. . ... ... ... : ... .. . ... ... ...
ROW 82 : ... .. . ... ... ... : ... .. . ... ... ... : A#2 04 . ... ... ... : ... .. . ... ... ... : ... .. . ... ... ...
ROW 83 : ... .. . ... ... ... : ... .. . ... ... ... : ... .. . ... ... ... : ... .. . ... ... ... : ... .. . ... ... ...
ROW 84 : ... .. . ... ... ... : ... .. . ... ... ... : ... .. . ... ... ... : ... .. . ... ... ... : ... .. . ... ... ...
ROW 85 : ... .. . ... ... ... : ... .. . ... ... ... : ... .. . ... ... ... : ... .. . ... ... ... : ... .. . ... ... ...
ROW 86 : ... .. . ... ... ... : ... .. . ... ... ... : ... .. . ... ... ... : ... .. . ... ... ... : ... .. . ... ... ...
ROW 87 : ... .. . ... ... ... : ... .. . ... ... ... : ... .. . ... ... ... : ... .. . ... ... ... : ... .. . ... ... ...
ROW 88 : ... .. . ... ... ... : ... .. . ... ... ... : ... .. . ... ... ... : ... .. . ... ... ... : ... .. . ... ... ...
ROW 89 : ... .. . ... ... ... : ... .. . ... ... ... : ... .. . ... ... ... : ... .. . ... ... ... : ... .. . ... ... ...
ROW 8A : ... .. . ... ... ... : ... .. . ... ... ... : ... .. . ... ... ... : ... .. . ... ... ... : ... .. . ... ... ...
ROW 8B : ... .. . ... ... ... : ... .. . ... ... ... : --- .. . ... ... ... : ... .. . ... ... ... : ... .. . ... ... ...
ROW 8C : A#2 08 . Q6C ... ... : A#1 04 . ... ... ... : G#2 04 . ... ... ... : 6-# 07 . ... ... ... : ... .. . ... ... ...
ROW 8D : ... .. . ... ... ... : ... .. . ... ... ... : ... .. . ... ... ... : ... .. . ... ... ... : ... .. . ... ... ...
ROW 8E : ... .. . ... ... ... : ... .. . ... ... ... : ... .. . ... ... ... : ... .. . ... ... ... : ... .. . ... ... ...
ROW 8F : ... .. . ... ... ... : ... .. . ... ... ... : ... .. . ... ... ... : ... .. . ... ... ... : ... .. . ... ... ...
ROW 90 : ... .. . ... ... ... : ... .. . ... ... ... : ... .. . ... ... ... : --- .. . ... ... ... : ... .. . ... ... ...
ROW 91 : ... .. . ... ... ... : ... .. . ... ... ... : ... .. . ... ... ... : ... .. . ... ... ... : ... .. . ... ... ...
ROW 92 : ... .. . ... ... ... : ... .. . ... ... ... : ... .. . ... ... ... : ... .. . ... ... ... : ... .. . ... ... ...
ROW 93 : ... .. . ... ... ... : ... .. . ... ... ... : ... .. . ... ... ... : ... .. . ... ... ... : ... .. . ... ... ...
ROW 94 : ... .. . ... ... ... : ... .. . ... ... ... : ... .. . ... ... ... : ... .. . ... ... ... : ... .. . ... ... ...
ROW 95 : ... .. . ... ... ... : --- .. . ... ... ... : --- .. . ... ... ... : ... .. . ... ... ... : ... .. . ... ... ...
ROW 96 : ... .. . ... ... ... : ... .. . ... ... ... : A-2 04 . ... ... ... : 6-# 07 . ... ... ... : ... .. . ... ... ...
ROW 97 : ... .. . ... ... ... : ... .. . ... ... ... : ... .. . ... ... ... : ... .. . ... ... ... : ... .. . ... ... ...
ROW 98 : ... .. . ... ... ... : ... .. . ... ... ... : ... .. . ... ... ... : ... .. . ... ... ... : ... .. . ... ... ...
ROW 99 : ... .. . ... ... ... : ... .. . ... ... ... : ... .. . ... ... ... : ... .. . ... ... ... : ... .. . ... ... ...
ROW 9A : ... .. . ... ... ... : ... .. . ... ... ... : ... .. . ... ... ... : --- .. . ... ... ... : ... .. . ... ... ...
ROW 9B : ... .. . ... ... ... : ... .. . ... ... ... : ... .. . ... ... ... : ... .. . ... ... ... : ... .. . ... ... ...
ROW 9C : ... .. . ... ... ... : ... .. . ... ... ... : ... .. . ... ... ... : ... .. . ... ... ... : ... .. . ... ... ...
ROW 9D : ... .. . ... ... ... : ... .. . ... ... ... : ... .. . ... ... ... : ... .. . ... ... ... : ... .. . ... ... ...
ROW 9E : ... .. . ... ... ... : ... .. . ... ... ... : ... .. . ... ... ... : ... .. . ... ... ... : ... .. . ... ... ...
ROW 9F : ... .. . ... ... ... : ... .. . ... ... ... : --- .. . ... ... ... : ... .. . ... ... ... : ... .. . ... ... ...

PATTERN 01
ROW 00 : A#3 08 . ... ... ... : F-3 06 . ... ... ... : A#2 00 . ... ... ... : 0-# 06 . ... ... ... : ... .. . ... ... ...
ROW 01 : ... .. . ... ... ... : ... .. . ... ... ... : ... .. . ... ... ... : ... .. . ... ... ... : ... .. . ... ... ...
ROW 02 : ... .. . ... ... ... : ... .. . ... ... ... : ... .. . ... ... ... : ... .. . ... ... ... : ... .. . ... ... ...
ROW 03 : ... .. . ... ... ... : ... .. . ... ... ... : ... .. . ... ... ... : ... .. . ... ... ... : ... .. . ... ... ...
ROW 04 : ... .. . ... ... ... : ... .. . ... ... ... : ... .. . ... ... ... : --- .. . ... ... ... : ... .. . ... ... ...
ROW 05 : ... .. . ... ... ... : ... .. . ... ... ... : ... .. . ... ... ... : ... .. . ... ... ... : ... .. . ... ... ...
ROW 06 : ... .. . ... ... ... : ... .. . ... ... ... : ... .. . ... ... ... : ... .. . ... ... ... : ... .. . ... ... ...
ROW 07 : ... .. . ... ... ... : ... .. . ... ... ... : ... .. . ... ... ... : ... .. . ... ... ... : ... .. . ... ... ...
ROW 08 : ... .. . ... ... ... : ... .. . ... ... ... : ... .. . ... ... ... : ... .. . ... ... ... : ... .. . ... ... ...
ROW 09 : ... .. . ... ... ... : --- .. . ... ... ... : --- .. . ... ... ... : ... .. . ... ... ... : ... .. . ... ... ...
ROW 0A : ... .. . ... ... ... : ... .. . ... ... ... : A#2 04 . ... ... ... : ... .. . ... ... ... : ... .. . ... ... ...
ROW 0B : ... .. . ... ... ... : ... .. . ... ... ... : ... .. . ... ... ... : ... .. . ... ... ... : ... .. . ... ... ...
ROW 0C : ... .. . ... ... ... : ... .. . ... ... ... : ... .. . ... ... ... : ... .. . ... ... ... : ... .. . ... ... ...
ROW 0D : ... .. . ... ... ... : ... .. . ... ... ... : ... .. . ... ... ... : ... .. . ... ... ... : ... .. . ... ... ...
ROW 0E : ... .. . ... ... ... : ... .. . ... ... ... : ... .. . ... ... ... : ... .. . ... ... ... : ... .. . ... ... ...
ROW 0F : ... .. . ... ... ... : ... .. . ... ... ... : ... .. . ... ... ... : ... .. . ... ... ... : ... .. . ... ... ...
ROW 10 : ... .. . ... ... ... : ... .. . ... ... ... : ... .. . ... ... ... : ... .. . ... ... ... : ... .. . ... ... ...
ROW 11 : ... .. . ... ... ... : ... .. . ... ... ... : ... .. . ... ... ... : ... .. . ... ... ... : ... .. . ... ... ...
ROW 12 : ... .. . ... ... ... : ... .. . ... ... ... : ... .. . ... ... ... : ... .. . ... ... ... : ... .. . ... ... ...
ROW 13 : ... .. . ... ... ... : ... .. . ... ... ... : --- .. . ... ... ... : ... .. . ... ... ... : ... .. . ... ... ...
ROW 14 : ... .. . ... ... ... : F-3 06 . ... ... ... : A#2 04 . ... ... ... : B-# 05 . ... ... ... : ... .. . ... ... ...
ROW 15 : ... .. . ... ... ... : ... .. . ... ... ... : ... .. . ... ... ... : ... .. . ... ... ... : ... .. . ... ... ...
ROW 16 : ... .. . ... ... ... : ... .. . ... ... ... : ... .. . ... ... ... : ... .. . ... ... ... : ... .. . ... ... ...
ROW 17 : ... .. . ... ... ... : ... .. . ... ... ... : ... .. . ... ... ... : --- .. . ... ... ... : ... .. . ... ... ...
ROW 18 : ... .. . ... ... ... : ... .. . ... ... ... : ... .. . ... ... ... : ... .. . ... ... ... : ... .. . ... ... ...
ROW 19 : ... .. . ... ... ... : ... .. . ... ... ... : ... .. . ... ... ... : ... .. . ... ... ... : ... .. . ... ... ...
ROW 1A : ... .. . ... ... ... : ... .. . ... ... ... : ... .. . ... ... ... : ... .. . ... ... ... : ... .. . ... ... ...
ROW 1B : ... .. . ... ... ... : ... .. . ... ... ... : ... .. . ... ... ... : ... .. . ... ... ... : ... .. . ... ... ...
ROW 1C : ... .. . ... ... ... : ... .. . ... ... ... : ... .. . ... ... ... : ... .. . ... ... ... : ... .. . ... ... ...
ROW 1D : ... .. . ... ... ... : --- .. . ... ... ... : --- .. . ... ... ... : ... .. . ... ... ... : ... .. . ... ... ...
ROW 1E : ... .. . ... ... ... : G#3 06 . ... ... ... : A#2 00 . ... ... ... : 0-# 06 . ... ... ... : ... .. . ... ... ...
ROW 1F : ... .. . ... ... ... : ... .. . ... ... ... : ... .. . ... ... ... : ... .. . ... ... ... : ... .. . ... ... ...
ROW 20 : ... .. . ... ... ... : ... .. . ... ... ... : ... .. . ... ... ... : ... .. . ... ... ... : ... .. . ... ... ...
ROW 21 : ... .. . ... ... ... : ... .. . ... ... ... : ... .. . ... ... ... : ... .. . ... ... ... : ... .. . ... ... ...
ROW 22 : ... .. . ... ... ... : ... .. . ... ... ... : ... .. . ... ... ... : --- .. . ... ... ... : ... .. . ... ... ...
ROW 23 : ... .. . ... ... ... : ... .. . ... ... ... : ... .. . ... ... ... : ... .. . ... ... ... : ... .. . ... ... ...
ROW 24 : ... .. . ... ... ... : ... .. . ... ... ... : ... .. . ... ... ... : ... .. . ... ... ... : ... .. . ... ... ...
ROW 25 : ... .. . ... ... ... : ... .. . ... ... ... : ... .. . ... ... ... : ... .. . ... ... ... : ... .. . ... ... ...
ROW 26 : ... .. . ... ... ... : ... .. . ... ... ... : ... .. . ... ... ... : ... .. . ... ... ... : ... .. . ... ... ...
ROW 27 : ... .. . ... ... ... : ... .. . ... ... ... : --- .. . ... ... ... : ... .. . ... ... ... : ... .. . ... ... ...
ROW 28 : ... .. . ... ... ... : ... .. . ... ... ... : A#2 00 . ... ... ... : ... .. . ... ... ... : ... .. . ... ... ...
ROW 29 : ... .. . ... ... ... : ... .. . ... ... ... : ... .. . ... ... ... : ... .. . ... ... ... : ... .. . ... ... ...
ROW 2A : ... .. . ... ... ... : ... .. . ... ... ... : ... .. . ... ... ... : ... .. . ... ... ... : ... .. . ... ... ...
ROW 2B : ... .. . ... ... ... : ... .. . ... ... ... : ... .. . ... ... ... : ... .. . ... ... ... : ... .. . ... ... ...
ROW 2C : ... .. . ... ... ... : ... .. . ... ... ... : ... .. . ... ... ... : ... .. . ... ... ... : ... .. . ... ... ...
ROW 2D : ... .. . ... ... ... : ... .. . ... ... ... : ... .. . ... ... ... : ... .. . ... ... ... : ... .. . ... ... ...
ROW 2E : ... .. . ... ... ... : ... .. . ... ... ... : ... .. . ... ... ... : ... .. . ... ... ... : ... .. . ... ... ...
ROW 2F : ... .. . ... ... ... : ... .. . ... ... ... : ... .. . ... ... ... : ... .. . ... ... ... : ... .. . ... ... ...
ROW 30 : ... .. . ... ... ... : ... .. . ... ... ... : ... .. . ... ... ... : ... .. . ... ... ... : ... .. . ... ... ...
ROW 31 : ... .. . ... ... ... : ... .. . ... ... ... : --- .. . ... ... ... : ... .. . ... ... ... : ... .. . ... ... ...
ROW 32 : ... .. . ... ... ... : A#1 04 . ... ... ... : A#2 04 . ... ... ... : ... .. . ... ... ... : ... .. . ... ... ...
ROW 33 : ... .. . ... ... ... : ... .. . ... ... ... : ... .. . ... ... ... : ... .. . ... ... ... : ... .. . ... ... ...
ROW 34 : ... .. . ... ... ... : ... .. . ... ... ... : ... .. . ... ... ... : ... .. . ... ... ... : ... .. . ... ... ...
ROW 35 : ... .. . ... ... ... : ... .. . ... ... ... : ... .. . ... ... ... : ... .. . ... ... ... : ... .. . ... ... ...
ROW 36 : ... .. . ... ... ... : ... .. . ... ... ... : ... .. . ... ... ... : ... .. . ... ... ... : ... .. . ... ... ...
ROW 37 : ... .. . ... ... ... : ... .. . ... ... ... : ... .. . ... ... ... : ... .. . ... ... ... : ... .. . ... ... ...
ROW 38 : ... .. . ... ... ... : ... .. . ... ... ... : ... .. . ... ... ... : ... .. . ... ... ... : ... .. . ... ... ...
ROW 39 : ... .. . ... ... ... : ... .. . ... ... ... : ... .. . ... ... ... : ... .. . ... ... ... : ... .. . ... ... ...
ROW 3A : ... .. . ... ... ... : ... .. . ... ... ... : ... .. . ... ... ... : ... .. . ... ... ... : ... .. . ... ... ...
ROW 3B : ... .. . ... ... ... : ... .. . ... ... ... : --- .. . ... ... ... : ... .. . ... ... ... : ... .. . ... ... ...
ROW 3C : ... .. . ... ... ... : C#2 04 . ... ... ... : A#2 04 . ... ... ... : A-# 07 . ... ... ... : ... .. . ... ... ...
ROW 3D : ... .. . ... ... ... : ... .. . ... ... ... : ... .. . ... ... ... : ... .. . ... ... ... : ... .. . ... ... ...
ROW 3E : ... .. . ... ... ... : ... .. . ... ... ... : ... .. . ... ... ... : ... .. . ... ... ... : ... .. . ... ... ...
ROW 3F : ... .. . ... ... ... : ... .. . ... ... ... : ... .. . ... ... ... : ... .. . ... ... ... : ... .. . ... ... ...
ROW 40 : ... .. . ... ... ... : ... .. . ... ... ... : ... .. . ... ... ... : ... .. . ... ... ... : ... .. . ... ... ...
ROW 41 : ... .. . ... ... ... : ... .. . ... ... ... : ... .. . ... ... ... : --- .. . ... ... ... : ... .. . ... ... ...
ROW 42 : ... .. . ... ... ... : ... .. . ... ... ... : ... .. . ... ... ... : ... .. . ... ... ... : ... .. . ... ... ...
ROW 43 : ... .. . ... ... ... : ... .. . ... ... ... : ... .. . ... ... ... : ... .. . ... ... ... : ... .. . ... ... ...
ROW 44 : ... .. . ... ... ... : ... .. . ... ... ... : ... .. . ... ... ... : ... .. . ... ... ... : ... .. . ... ... ...
ROW 45 : ... .. . ... ... ... : ... .. . ... ... ... : --- .. . ... ... ... : ... .. . ... ... ... : ... .. . ... ... ...
ROW 46 : ... .. . ... ... ... : A#1 04 . ... ... ... : A#2 04 . ... ... ... : A-# 07 . ... ... ... : ... .. . ... ... ...
ROW 47 : ... .. . ... ... ... : ... .. . ... ... ... : ... .. . ... ... ... : ... .. . ... ... ... : ... .. . ... ... ...
ROW 48 : ... .. . ... ... ... : ... .. . ... ... ... : ... .. . ... ... ... : ... .. . ... ... ... : ... .. . ... ... ...
ROW 49 : ... .. . ... ... ... : ... .. . ... ... ... : ... .. . ... ... ... : ... .. . ... ... ... : ... .. . ... ... ...
ROW 4A : ... .. . ... ... ... : ... .. . ... ... ... : ... .. . ... ... ... : ... .. . ... ... ... : ... .. . ... ... ...
ROW 4B : ... .. . ... ... ... : ... .. . ... ... ... : ... .. . ... ... ... : --- .. . ... ... ... : ... .. . ... ... ...
ROW 4C : ... .. . ... ... ... : ... .. . ... ... ... : ... .. . ... ... ... : ... .. . ... ... ... : ... .. . ... ... ...
ROW 4D : ... .. . ... ... ... : ... .. . ... ... ... : ... .. . ... ... ... : ... .. . ... ... ... : ... .. . ... ... ...
ROW 4E : ... .. . ... ... ... : ... .. . ... ... ... : ... .. . ... ... ... : ... .. . ... ... ... : ... .. . ... ... ...
ROW 4F : ... .. . ... ... ... : ... .. . ... ... ... : --- .. . ... ... ... : ... .. . ... ... ... : ... .. . ... ... ...
ROW 50 : ... .. . ... ... ... : F-3 06 . ... ... ... : A#2 00 . ... ... ... : 0-# 06 . ... ... ... : ... .. . ... ... ...
ROW 51 : ... .. . ... ... ... : ... .. . ... ... ... : ... .. . ... ... ... : ... .. . ... ... ... : ... .. . ... ... ...
ROW 52 : ... .. . ... ... ... : ... .. . ... ... ... : ... .. . ... ... ... : ... .. . ... ... ... : ... .. . ... ... ...
ROW 53 : ... .. . ... ... ... : ... .. . ... ... ... : ... .. . ... ... ... : --- .. . ... ... ... : ... .. . ... ... ...
ROW 54 : ... .. . ... ... ... : ... .. . ... ... ... : ... .. . ... ... ... : ... .. . ... ... ... : ... .. . ... ... ...
ROW 55 : ... .. . ... ... ... : ... .. . ... ... ... : ... .. . ... ... ... : ... .. . ... ... ... : ... .. . ... ... ...
ROW 56 : ... .. . ... ... ... : ... .. . ... ... ... : ... .. . ... ... ... : ... .. . ... ... ... : ... .. . ... ... ...
ROW 57 : ... .. . ... ... ... : ... .. . ... ... ... : ... .. . ... ... ... : ... .. . ... ... ... : ... .. . ... ... ...
ROW 58 : ... .. . ... ... ... : ... .. . ... ... ... : ... .. . ... ... ... : ... .. . ... ... ... : ... .. . ... ... ...
ROW 59 : ... .. . ... ... ... : --- .. . ... ... ... : --- .. . ... ... ... : ... .. . ... ... ... : ... .. . ... ... ...
ROW 5A : ... .. . ... ... ... : ... .. . ... ... ... : A#2 04 . ... ... ... : ... .. . ... ... ... : ... .. . ... ... ...
ROW 5B : ... .. . ... ... ... : ... .. . ... ... ... : ... .. . ... ... ... : ... .. . ... ... ... : ... .. . ... ... ...
ROW 5C : ... .. . ... ... ... : ... .. . ... ... ... : ... .. . ... ... ... : ... .. . ... ... ... : ... .. . ... ... ...
ROW 5D : ... .. . ... ... ... : ... .. . ... ... ... : ... .. . ... ... ... : ... .. . ... ... ... : ... .. . ... ... ...
ROW 5E : ... .. . ... ... ... : ... .. . ... ... ... : ... .. . ... ... ... : ... .. . ... ... ... : ... .. . ... ... ...
ROW 5F : ... .. . ... ... ... : ... .. . ... ... ... : ... .. . ... ... ... : ... .. . ... ... ... : ... .. . ... ... ...
ROW 60 : ... .. . ... ... ... : ... .. . ... ... ... : ... .. . ... ... ... : ... .. . ... ... ... : ... .. . ... ... ...
ROW 61 : ... .. . ... ... ... : ... .. . ... ... ... : ... .. . ... ... ... : ... .. . ... ... ... : ... .. . ... ... ...
ROW 62 : ... .. . ... ... ... : ... .. . ... ... ... : ... .. . ... ... ... : ... .. . ... ... ... : ... .. . ... ... ...
ROW 63 : ... .. . ... ... ... : ... .. . ... ... ... : --- .. . ... ... ... : ... .. . ... ... ... : ... .. . ... ... ...
ROW 64 : ... .. . ... ... ... : F-3 06 . ... ... ... : A#2 04 . ... ... ... : B-# 05 . ... ... ... : ... .. . ... ... ...
ROW 65 : ... .. . ... ... ... : ... .. . ... ... ... : ... .. . ... ... ... : ... .. . ... ... ... : ... .. . ... ... ...
ROW 66 : ... .. . ... ... ... : ... .. . ... ... ... : ... .. . ... ... ... : ... .. . ... ... ... : ... .. . ... ... ...
ROW 67 : ... .. . ... ... ... : ... .. . ... ... ... : ... .. . ... ... ... : ... .. . ... ... ... : ... .. . ... ... ...
ROW 68 : ... .. . ... ... ... : ... .. . ... ... ... : ... .. . ... ... ... : --- .. . ... ... ... : ... .. . ... ... ...
ROW 69 : ... .. . ... ... ... : ... .. . ... ... ... : ... .. . ... ... ... : ... .. . ... ... ... : ... .. . ... ... ...
ROW 6A : ... .. . ... ... ... : ... .. . ... ... ... : ... .. . ... ... ... : ... .. . ... ... ... : ... .. . ... ... ...
ROW 6B : ... .. . ... ... ... : ... .. . ... ... ... : ... .. . ... ... ... : ... .. . ... ... ... : ... .. . ... ... ...
ROW 6C : ... .. . ... ... ... : ... .. . ... ... ... : ... .. . ... ... ... : ... .. . ... ... ... : ... .. . ... ... ...
ROW 6D : ... .. . ... ... ... : --- .. . ... ... ... : --- .. . ... ... ... : ... .. . ... ... ... : ... .. . ... ... ...
ROW 6E : ... .. . ... ... ... : A#3 06 . ... ... ... : A#2 00 . ... ... ... : 0-# 06 . ... ... ... : ... .. . ... ... ...
ROW 6F : ... .. . ... ... ... : ... .. . ... ... ... : ... .. . ... ... ... : ... .. . ... ... ... : ... .. . ... ... ...
ROW 70 : ... .. . ... ... ... : ... .. . ... ... ... : ... .. . ... ... ... : ... .. . ... ... ... : ... .. . ... ... ...
ROW 71 : ... .. . ... ... ... : ... .. . ... ... ... : ... .. . ... ... ... : --- .. . ... ... ... : ... .. . ... ... ...
ROW 72 : ... .. . ... ... ... : ... .. . ... ... ... : ... .. . ... ... ... : ... .. . ... ... ... : ... .. . ... ... ...
ROW 73 : ... .. . ... ... ... : ... .. . ... ... ... : ... .. . ... ... ... : ... .. . ... ... ... : ... .. . ... ... ...
ROW 74 : ... .. . ... ... ... : ... .. . ... ... ... : ... .. . ... ... ... : ... .. . ... ... ... : ... .. . ... ... ...
ROW 75 : ... .. . ... ... ... : ... .. . ... ... ... : ... .. . ... ... ... : ... .. . ... ... ... : ... .. . ... ... ...
ROW 76 : ... .. . ... ... ... : ... .. . ... ... ... : ... .. . ... ... ... : ... .. . ... ... ... : ... .. . ... ... ...
ROW 77 : ... .. . ... ... ... : ... .. . ... ... ... : --- .. . ... ... ... : ... .. . ... ... ... : ... .. . ... ... ...
ROW 78 : ... .. . ... ... ... : ... .. . ... ... ... : A#2 00 . ... ... ... : ... .. . ... ... ... : ... .. . ... ... ...
ROW 79 : ... .. . ... ... ... : ... .. . ... ... ... : ... .. . ... ... ... : ... .. . ... ... ... : ... .. . ... ... ...
ROW 7A : ... .. . ... ... ... : ... .. . ... ... ... : ... .. . ... ... ... : ... .. . ... ... ... : ... .. . ... ... ...
ROW 7B : ... .. . ... ... ... : ... .. . ... ... ... : ... .. . ... ... ... : ... .. . ... ... ... : ... .. . ... ... ...
ROW 7C : ... .. . ... ... ... : ... .. . ... ... ... : ... .. . ... ... ... : ... .. . ... ... ... : ... .. . ... ... ...
ROW 7D : ... .. . ... ... ... : ... .. . ... ... ... : ... .. . ... ... ... : ... .. . ... ... ... : ... .. . ... ... ...
ROW 7E : ... .. . ... ... ... : ... .. . ... ... ... : ... .. . ... ... ... : ... .. . ... ... ... : ... .. . ... ... ...
ROW 7F : ... .. . ... ... ... : ... .. . ... ... ... : ... .. . ... ... ... : ... .. . ... ... ... : ... .. . ... ... ...
ROW 80 : ... .. . ... ... ... : ... .. . ... ... ... : ... .. . ... ... ... : ... .. . ... ... ... : ... .. . ... ... ...
ROW 81 : ... .. . ... ... ... : ... .. . ... ... ... : --- .. . ... ... ... : ... .. . ... ... ... : ... .. . ... ... ...
ROW 82 : ... .. . ... ... ... : A#1 04 . ... ... ... : A#2 04 . ... ... ... : 0-# 06 . ... ... ... : ... .. . ... ... ...
ROW 83 : ... .. . ... ... ... : ... .. . ... ... ... : ... .. . ... ... ... : ... .. . ... ... ... : ... .. . ... ... ...
ROW 84 : ... .. . ... ... ... : ... .. . ... ... ... : ... .. . ... ... ... : ... .. . ... ... ... : ... .. . ... ... ...
ROW 85 : ... .. . ... ... ... : ... .. . ... ... ... : ... .. . ... ... ... : ... .. . ... ... ... : ... .. . ... ... ...
ROW 86 : ... .. . ... ... ... : ... .. . ... ... ... : ... .. . ... ... ... : ... .. . ... ... ... : ... .. . ... ... ...
ROW 87 : ... .. . ... ... ... : ... .. . ... ... ... : ... .. . ... ... ... : ... .. . ... ... ... : ... .. . ... ... ...
ROW 88 : ... .. . ... ... ... : ... .. . ... ... ... : ... .. . ... ... ... : --- .. . ... ... ... : ... .. . ... ... ...
ROW 89 : ... .. . ... ... ... : ... .. . ... ... ... : ... .. . ... ... ... : ... .. . ... ... ... : ... .. . ... ... ...
ROW 8A : ... .. . ... ... ... : ... .. . ... ... ... : ... .. . ... ... ... : ... .. . ... ... ... : ... .. . ... ... ...
ROW 8B : ... .. . ... ... ... : ... .. . ... ... ... : --- .. . ... ... ... : ... .. . ... ... ... : ... .. . ... ... ...
ROW 8C : ... .. . ... ... ... : F-2 04 . ... ... ... : A#2 04 . ... ... ... : ... .. . ... ... ... : ... .. . ... ... ...
ROW 8D : ... .. . ... ... ... : ... .. . ... ... ... : ... .. . ... ... ... : ... .. . ... ... ... : ... .. . ... ... ...
ROW 8E : ... .. . ... ... ... : ... .. . ... ... ... : ... .. . ... ... ... : ... .. . ... ... ... : ... .. . ... ... ...
ROW 8F : ... .. . ... ... ... : ... .. . ... ... ... : ... .. . ... ... ... : ... .. . ... ... ... : ... .. . ... ... ...
ROW 90 : ... .. . ... ... ... : ... .. . ... ... ... : ... .. . ... ... ... : ... .. . ... ... ... : ... .. . ... ... ...
ROW 91 : ... .. . ... ... ... : ... .. . ... ... ... : ... .. . ... ... ... : ... .. . ... ... ... : ... .. . ... ... ...
ROW 92 : ... .. . ... ... ... : ... .. . ... ... ... : ... .. . ... ... ... : ... .. . ... ... ... : ... .. . ... ... ...
ROW 93 : ... .. . ... ... ... : ... .. . ... ... ... : ... .. . ... ... ... : ... .. . ... ... ... : ... .. . ... ... ...
ROW 94 : ... .. . ... ... ... : ... .. . ... ... ... : ... .. . ... ... ... : ... .. . ... ... ... : ... .. . ... ... ...
ROW 95 : ... .. . ... ... ... : ... .. . ... ... ... : --- .. . ... ... ... : ... .. . ... ... ... : ... .. . ... ... ...
ROW 96 : ... .. . ... ... ... : A#1 04 . ... ... ... : A#2 04 . ... ... ... : 6-# 07 . ... ... ... : ... .. . ... ... ...
ROW 97 : ... .. . ... ... ... : ... .. . ... ... ... : ... .. . ... ... ... : ... .. . ... ... ... : ... .. . ... ... ...
ROW 98 : ... .. . ... ... ... : ... .. . ... ... ... : ... .. . ... ... ... : ... .. . ... ... ... : ... .. . ... ... ...
ROW 99 : ... .. . ... ... ... : ... .. . ... ... ... : ... .. . ... ... ... : ... .. . ... ... ... : ... .. . ... ... ...
ROW 9A : ... .. . ... ... ... : ... .. . ... ... ... : ... .. . ... ... ... : ... .. . ... ... ... : ... .. . ... ... ...
ROW 9B : ... .. . ... ... ... : ... .. . ... ... ... : ... .. . ... ... ... : --- .. . ... ... ... : ... .. . ... ... ...
ROW 9C : ... .. . ... ... ... : ... .. . ... ... ... : ... .. . ... ... ... : ... .. . ... ... ... : ... .. . ... ... ...
ROW 9D : ... .. . ... ... ... : ... .. . ... ... ... : ... .. . ... ... ... : ... .. . ... ... ... : ... .. . ... ... ...
ROW 9E : ... .. . ... ... ... : ... .. . ... ... ... : ... .. . ... ... ... : ... .. . ... ... ... : ... .. . ... ... ...
ROW 9F : ... .. . ... ... ... : ... .. . ... ... ... : --- .. . ... ... ... : ... .. . ... ... ... : ... .. . B00 ... ...

PATTERN 02
ROW 00 : A#3 0A . ... ... ... : F-3 06 . ... ... ... : G#2 00 . ... ... ... : B-# 05 . ... ... ... : ... .. . ... ... ...
ROW 01 : ... .. . ... ... ... : ... .. . ... ... ... : ... .. . ... ... ... : ... .. . ... ... ... : ... .. . ... ... ...
ROW 02 : ... .. . ... ... ... : ... .. . ... ... ... : ... .. . ... ... ... : ... .. . ... ... ... : ... .. . ... ... ...
ROW 03 : ... .. . ... ... ... : ... .. . ... ... ... : ... .. . ... ... ... : --- .. . ... ... ... : ... .. . ... ... ...
ROW 04 : ... .. . ... ... ... : ... .. . ... ... ... : ... .. . ... ... ... : ... .. . ... ... ... : ... .. . ... ... ...
ROW 05 : ... .. . ... ... ... : ... .. . ... ... ... : ... .. . ... ... ... : ... .. . ... ... ... : ... .. . ... ... ...
ROW 06 : ... .. . ... ... ... : ... .. . ... ... ... : ... .. . ... ... ... : ... .. . ... ... ... : ... .. . ... ... ...
ROW 07 : ... .. . ... ... ... : ... .. . ... ... ... : ... .. . ... ... ... : ... .. . ... ... ... : ... .. . ... ... ...
ROW 08 : ... .. . ... ... ... : ... .. . ... ... ... : ... .. . ... ... ... : ... .. . ... ... ... : ... .. . ... ... ...
ROW 09 : --- .. . ... ... ... : --- .. . ... ... ... : --- .. . ... ... ... : ... .. . ... ... ... : ... .. . ... ... ...
ROW 0A : ... .. . ... ... ... : ... .. . ... ... ... : G#2 04 . ... ... ... : B-# 07 . ... ... ... : ... .. . ... ... ...
ROW 0B : ... .. . ... ... ... : ... .. . ... ... ... : ... .. . ... ... ... : ... .. . ... ... ... : ... .. . ... ... ...
ROW 0C : ... .. . ... ... ... : ... .. . ... ... ... : ... .. . ... ... ... : ... .. . ... ... ... : ... .. . ... ... ...
ROW 0D : ... .. . ... ... ... : ... .. . ... ... ... : ... .. . ... ... ... : --- .. . ... ... ... : ... .. . ... ... ...
ROW 0E : ... .. . ... ... ... : ... .. . ... ... ... : ... .. . ... ... ... : ... .. . ... ... ... : ... .. . ... ... ...
ROW 0F : ... .. . ... ... ... : ... .. . ... ... ... : ... .. . ... ... ... : ... .. . ... ... ... : ... .. . ... ... ...
ROW 10 : ... .. . ... ... ... : ... .. . ... ... ... : ... .. . ... ... ... : ... .. . ... ... ... : ... .. . ... ... ...
ROW 11 : ... .. . ... ... ... : ... .. . ... ... ... : ... .. . ... ... ... : ... .. . ... ... ... : ... .. . ... ... ...
ROW 12 : ... .. . ... ... ... : ... .. . ... ... ... : ... .. . ... ... ... : ... .. . ... ... ... : ... .. . ... ... ...
ROW 13 : ... .. . ... ... ... : ... .. . ... ... ... : --- .. . ... ... ... : ... .. . ... ... ... : ... .. . ... ... ...
ROW 14 : A#3 0A . ... ... ... : F-3 06 . ... ... ... : G#2 04 . ... ... ... : B-# 07 . ... ... ... : ... .. . ... ... ...
ROW 15 : ... .. . ... ... ... : ... .. . ... ... ... : ... .. . ... ... ... : ... .. . ... ... ... : ... .. . ... ... ...
ROW 16 : ... .. . ... ... ... : ... .. . ... ... ... : ... .. . ... ... ... : ... .. . ... ... ... : ... .. . ... ... ...
ROW 17 : ... .. . ... ... ... : ... .. . ... ... ... : ... .. . ... ... ... : --- .. . ... ... ... : ... .. . ... ... ...
ROW 18 : ... .. . ... ... ... : ... .. . ... ... ... : ... .. . ... ... ... : ... .. . ... ... ... : ... .. . ... ... ...
ROW 19 : ... .. . ... ... ... : ... .. . ... ... ... : ... .. . ... ... ... : ... .. . ... ... ... : ... .. . ... ... ...
ROW 1A : ... .. . ... ... ... : ... .. . ... ... ... : ... .. . ... ... ... : ... .. . ... ... ... : ... .. . ... ... ...
ROW 1B : ... .. . ... ... ... : ... .. . ... ... ... : ... .. . ... ... ... : ... .. . ... ... ... : ... .. . ... ... ...
ROW 1C : ... .. . ... ... ... : ... .. . ... ... ... : ... .. . ... ... ... : ... .. . ... ... ... : ... .. . ... ... ...
ROW 1D : --- .. . ... ... ... : --- .. . ... ... ... : --- .. . ... ... ... : ... .. . ... ... ... : ... .. . ... ... ...
ROW 1E : C#4 0A . ... ... ... : C-4 06 . ... ... ... : G#2 00 . ... ... ... : B-# 07 . ... ... ... : ... .. . ... ... ...
ROW 1F : ... .. . ... ... ... : ... .. . ... ... ... : ... .. . ... ... ... : ... .. . ... ... ... : ... .. . ... ... ...
ROW 20 : ... .. . ... ... ... : ... .. . ... ... ... : ... .. . ... ... ... : ... .. . ... ... ... : ... .. . ... ... ...
ROW 21 : ... .. . ... ... ... : ... .. . ... ... ... : ... .. . ... ... ... : --- .. . ... ... ... : ... .. . ... ... ...
ROW 22 : ... .. . ... ... ... : ... .. . ... ... ... : ... .. . ... ... ... : ... .. . ... ... ... : ... .. . ... ... ...
ROW 23 : ... .. . ... ... ... : ... .. . ... ... ... : ... .. . ... ... ... : ... .. . ... ... ... : ... .. . ... ... ...
ROW 24 : ... .. . ... ... ... : ... .. . ... ... ... : ... .. . ... ... ... : ... .. . ... ... ... : ... .. . ... ... ...
ROW 25 : ... .. . ... ... ... : ... .. . ... ... ... : ... .. . ... ... ... : ... .. . ... ... ... : ... .. . ... ... ...
ROW 26 : ... .. . ... ... ... : ... .. . ... ... ... : ... .. . ... ... ... : ... .. . ... ... ... : ... .. . ... ... ...
ROW 27 : ... .. . ... ... ... : ... .. . ... ... ... : --- .. . ... ... ... : ... .. . ... ... ... : ... .. . ... ... ...
ROW 28 : ... .. . ... ... ... : ... .. . ... ... ... : G#2 00 . ... ... ... : B-# 05 . ... ... ... : ... .. . ... ... ...
ROW 29 : ... .. . ... ... ... : ... .. . ... ... ... : ... .. . ... ... ... : ... .. . ... ... ... : ... .. . ... ... ...
ROW 2A : ... .. . ... ... ... : ... .. . ... ... ... : ... .. . ... ... ... : ... .. . ... ... ... : ... .. . ... ... ...
ROW 2B : ... .. . ... ... ... : ... .. . ... ... ... : ... .. . ... ... ... : ... .. . ... ... ... : ... .. . ... ... ...
ROW 2C : ... .. . ... ... ... : ... .. . ... ... ... : ... .. . ... ... ... : ... .. . ... ... ... : ... .. . ... ... ...
ROW 2D : ... .. . ... ... ... : ... .. . ... ... ... : ... .. . ... ... ... : ... .. . ... ... ... : ... .. . ... ... ...
ROW 2E : ... .. . ... ... ... : ... .. . ... ... ... : ... .. . ... ... ... : ... .. . ... ... ... : ... .. . ... ... ...
ROW 2F : ... .. . ... ... ... : ... .. . ... ... ... : ... .. . ... ... ... : ... .. . ... ... ... : ... .. . ... ... ...
ROW 30 : ... .. . ... ... ... : ... .. . ... ... ... : ... .. . ... ... ... : ... .. . ... ... ... : ... .. . ... ... ...
ROW 31 : ... .. . ... ... ... : ... .. . ... ... ... : --- .. . ... ... ... : --- .. . ... ... ... : ... .. . ... ... ...
ROW 32 : ... .. . ... ... ... : A#1 04 . ... ... ... : G#2 04 . ... ... ... : ... .. . ... ... ... : ... .. . ... ... ...
ROW 33 : ... .. . ... ... ... : ... .. . ... ... ... : ... .. . ... ... ... : ... .. . ... ... ... : ... .. . ... ... ...
ROW 34 : ... .. . ... ... ... : ... .. . ... ... ... : ... .. . ... ... ... : ... .. . ... ... ... : ... .. . ... ... ...
ROW 35 : ... .. . ... ... ... : ... .. . ... ... ... : ... .. . ... ... ... : ... .. . ... ... ... : ... .. . ... ... ...
ROW 36 : ... .. . ... ... ... : ... .. . ... ... ... : ... .. . ... ... ... : ... .. . ... ... ... : ... .. . ... ... ...
ROW 37 : ... .. . ... ... ... : ... .. . ... ... ... : ... .. . ... ... ... : ... .. . ... ... ... : ... .. . ... ... ...
ROW 38 : ... .. . ... ... ... : ... .. . ... ... ... : ... .. . ... ... ... : ... .. . ... ... ... : ... .. . ... ... ...
ROW 39 : ... .. . ... ... ... : ... .. . ... ... ... : ... .. . ... ... ... : ... .. . ... ... ... : ... .. . ... ... ...
ROW 3A : ... .. . ... ... ... : ... .. . ... ... ... : ... .. . ... ... ... : ... .. . ... ... ... : ... .. . ... ... ...
ROW 3B : --- .. . ... ... ... : ... .. . ... ... ... : --- .. . ... ... ... : ... .. . ... ... ... : ... .. . ... ... ...
ROW 3C : ... .. . ... ... ... : F-2 04 . ... ... ... : G#2 04 . ... ... ... : 3-# 06 . ... ... ... : ... .. . ... ... ...
ROW 3D : ... .. . ... ... ... : ... .. . ... ... ... : ... .. . ... ... ... : ... .. . ... ... ... : ... .. . ... ... ...
ROW 3E : ... .. . ... ... ... : ... .. . ... ... ... : ... .. . ... ... ... : --- .. . ... ... ... : ... .. . ... ... ...
ROW 3F : ... .. . ... ... ... : ... .. . ... ... ... : ... .. . ... ... ... : ... .. . ... ... ... : ... .. . ... ... ...
ROW 40 : ... .. . ... ... ... : ... .. . ... ... ... : ... .. . ... ... ... : ... .. . ... ... ... : ... .. . ... ... ...
ROW 41 : ... .. . ... ... ... : ... .. . ... ... ... : ... .. . ... ... ... : ... .. . ... ... ... : ... .. . ... ... ...
ROW 42 : ... .. . ... ... ... : ... .. . ... ... ... : ... .. . ... ... ... : ... .. . ... ... ... : ... .. . ... ... ...
ROW 43 : ... .. . ... ... ... : ... .. . ... ... ... : ... .. . ... ... ... : ... .. . ... ... ... : ... .. . ... ... ...
ROW 44 : ... .. . ... ... ... : ... .. . ... ... ... : ... .. . ... ... ... : ... .. . ... ... ... : ... .. . ... ... ...
ROW 45 : ... .. . ... ... ... : --- .. . ... ... ... : --- .. . ... ... ... : ... .. . ... ... ... : ... .. . ... ... ...
ROW 46 : ... .. . ... ... ... : A#1 04 . ... ... ... : G#2 04 . ... ... ... : 3-# 06 . ... ... ... : ... .. . ... ... ...
ROW 47 : ... .. . ... ... ... : ... .. . ... ... ... : ... .. . ... ... ... : ... .. . ... ... ... : ... .. . ... ... ...
ROW 48 : ... .. . ... ... ... : ... .. . ... ... ... : ... .. . ... ... ... : ... .. . ... ... ... : ... .. . ... ... ...
ROW 49 : ... .. . ... ... ... : ... .. . ... ... ... : ... .. . ... ... ... : --- .. . ... ... ... : ... .. . ... ... ...
ROW 4A : ... .. . ... ... ... : ... .. . ... ... ... : ... .. . ... ... ... : ... .. . ... ... ... : ... .. . ... ... ...
ROW 4B : ... .. . ... ... ... : ... .. . ... ... ... : ... .. . ... ... ... : ... .. . ... ... ... : ... .. . ... ... ...
ROW 4C : ... .. . ... ... ... : ... .. . ... ... ... : ... .. . ... ... ... : ... .. . ... ... ... : ... .. . ... ... ...
ROW 4D : ... .. . ... ... ... : ... .. . ... ... ... : ... .. . ... ... ... : ... .. . ... ... ... : ... .. . ... ... ...
ROW 4E : ... .. . ... ... ... : ... .. . ... ... ... : ... .. . ... ... ... : ... .. . ... ... ... : ... .. . ... ... ...
ROW 4F : ... .. . ... ... ... : ... .. . ... ... ... : --- .. . ... ... ... : ... .. . ... ... ... : ... .. . ... ... ...
ROW 50 : A#3 0A . ... ... ... : D#3 06 . ... ... ... : G#2 00 . ... ... ... : B-# 05 . ... ... ... : ... .. . ... ... ...
ROW 51 : ... .. . ... ... ... : ... .. . ... ... ... : ... .. . ... ... ... : ... .. . ... ... ... : ... .. . ... ... ...
ROW 52 : ... .. . ... ... ... : ... .. . ... ... ... : ... .. . ... ... ... : ... .. . ... ... ... : ... .. . ... ... ...
ROW 53 : ... .. . ... ... ... : ... .. . ... ... ... : ... .. . ... ... ... : --- .. . ... ... ... : ... .. . ... ... ...
ROW 54 : ... .. . ... ... ... : ... .. . ... ... ... : ... .. . ... ... ... : ... .. . ... ... ... : ... .. . ... ... ...
ROW 55 : ... .. . ... ... ... : ... .. . ... ... ... : ... .. . ... ... ... : ... .. . ... ... ... : ... .. . ... ... ...
ROW 56 : ... .. . ... ... ... : ... .. . ... ... ... : ... .. . ... ... ... : ... .. . ... ... ... : ... .. . ... ... ...
ROW 57 : ... .. . ... ... ... : ... .. . ... ... ... : ... .. . ... ... ... : ... .. . ... ... ... : ... .. . ... ... ...
ROW 58 : ... .. . ... ... ... : ... .. . ... ... ... : ... .. . ... ... ... : ... .. . ... ... ... : ... .. . ... ... ...
ROW 59 : --- .. . ... ... ... : ... .. . ... ... ... : --- .. . ... ... ... : ... .. . ... ... ... : ... .. . ... ... ...
ROW 5A : ... .. . ... ... ... : C#3 06 . ... ... ... : G#2 04 . ... ... ... : B-# 07 . ... ... ... : ... .. . ... ... ...
ROW 5B : ... .. . ... ... ... : ... .. . ... ... ... : ... .. . ... ... ... : ... .. . ... ... ... : ... .. . ... ... ...
ROW 5C : ... .. . ... ... ... : ... .. . ... ... ... : ... .. . ... ... ... : ... .. . ... ... ... : ... .. . ... ... ...
ROW 5D : ... .. . ... ... ... : ... .. . ... ... ... : ... .. . ... ... ... : --- .. . ... ... ... : ... .. . ... ... ...
ROW 5E : ... .. . ... ... ... : ... .. . ... ... ... : ... .. . ... ... ... : ... .. . ... ... ... : ... .. . ... ... ...
ROW 5F : ... .. . ... ... ... : ... .. . ... ... ... : ... .. . ... ... ... : ... .. . ... ... ... : ... .. . ... ... ...
ROW 60 : ... .. . ... ... ... : ... .. . ... ... ... : ... .. . ... ... ... : ... .. . ... ... ... : ... .. . ... ... ...
ROW 61 : ... .. . ... ... ... : ... .. . ... ... ... : ... .. . ... ... ... : ... .. . ... ... ... : ... .. . ... ... ...
ROW 62 : ... .. . ... ... ... : ... .. . ... ... ... : ... .. . ... ... ... : ... .. . ... ... ... : ... .. . ... ... ...
ROW 63 : ... .. . ... ... ... : ... .. . ... ... ... : --- .. . ... ... ... : ... .. . ... ... ... : ... .. . ... ... ...
ROW 64 : A#3 0A . ... ... ... : C-3 06 . ... ... ... : G#2 04 . ... ... ... : B-# 07 . ... ... ... : ... .. . ... ... ...
ROW 65 : ... .. . ... ... ... : ... .. . ... ... ... : ... .. . ... ... ... : ... .. . ... ... ... : ... .. . ... ... ...
ROW 66 : ... .. . ... ... ... : ... .. . ... ... ... : ... .. . ... ... ... : ... .. . ... ... ... : ... .. . ... ... ...
ROW 67 : ... .. . ... ... ... : ... .. . ... ... ... : ... .. . ... ... ... : --- .. . ... ... ... : ... .. . ... ... ...
ROW 68 : ... .. . ... ... ... : ... .. . ... ... ... : ... .. . ... ... ... : ... .. . ... ... ... : ... .. . ... ... ...
ROW 69 : ... .. . ... ... ... : ... .. . ... ... ... : ... .. . ... ... ... : ... .. . ... ... ... : ... .. . ... ... ...
ROW 6A : ... .. . ... ... ... : ... .. . ... ... ... : ... .. . ... ... ... : ... .. . ... ... ... : ... .. . ... ... ...
ROW 6B : ... .. . ... ... ... : ... .. . ... ... ... : ... .. . ... ... ... : ... .. . ... ... ... : ... .. . ... ... ...
ROW 6C : ... .. . ... ... ... : ... .. . ... ... ... : ... .. . ... ... ... : ... .. . ... ... ... : ... .. . ... ... ...
ROW 6D : ... .. . ... ... ... : ... .. . ... ... ... : --- .. . ... ... ... : ... .. . ... ... ... : ... .. . ... ... ...
ROW 6E : D#4 0A . ... ... ... : G#2 04 . ... ... ... : G#2 00 . ... ... ... : B-# 07 . ... ... ... : ... .. . ... ... ...
ROW 6F : ... .. . ... ... ... : ... .. . ... ... ... : ... .. . ... ... ... : ... .. . ... ... ... : ... .. . ... ... ...
ROW 70 : ... .. . ... ... ... : ... .. . ... ... ... : ... .. . ... ... ... : ... .. . ... ... ... : ... .. . ... ... ...
ROW 71 : ... .. . ... ... ... : ... .. . ... ... ... : ... .. . ... ... ... : --- .. . ... ... ... : ... .. . ... ... ...
ROW 72 : ... .. . ... ... ... : ... .. . ... ... ... : ... .. . ... ... ... : ... .. . ... ... ... : ... .. . ... ... ...
ROW 73 : ... .. . ... ... ... : ... .. . ... ... ... : ... .. . ... ... ... : ... .. . ... ... ... : ... .. . ... ... ...
ROW 74 : ... .. . ... ... ... : ... .. . ... ... ... : ... .. . ... ... ... : ... .. . ... ... ... : ... .. . ... ... ...
ROW 75 : ... .. . ... ... ... : ... .. . ... ... ... : ... .. . ... ... ... : ... .. . ... ... ... : ... .. . ... ... ...
ROW 76 : ... .. . ... ... ... : ... .. . ... ... ... : ... .. . ... ... ... : ... .. . ... ... ... : ... .. . ... ... ...
ROW 77 : ... .. . ... ... ... : ... .. . ... ... ... : --- .. . ... ... ... : ... .. . ... ... ... : ... .. . ... ... ...
ROW 78 : ... .. . ... ... ... : ... .. . ... ... ... : G#2 00 . ... ... ... : B-# 05 . ... ... ... : ... .. . ... ... ...
ROW 79 : ... .. . ... ... ... : ... .. . ... ... ... : ... .. . ... ... ... : ... .. . ... ... ... : ... .. . ... ... ...
ROW 7A : ... .. . ... ... ... : ... .. . ... ... ... : ... .. . ... ... ... : ... .. . ... ... ... : ... .. . ... ... ...
ROW 7B : ... .. . ... ... ... : ... .. . ... ... ... : ... .. . ... ... ... : ... .. . ... ... ... : ... .. . ... ... ...
ROW 7C : ... .. . ... ... ... : ... .. . ... ... ... : ... .. . ... ... ... : ... .. . ... ... ... : ... .. . ... ... ...
ROW 7D : ... .. . ... ... ... : ... .. . ... ... ... : ... .. . ... ... ... : ... .. . ... ... ... : ... .. . ... ... ...
ROW 7E : ... .. . ... ... ... : ... .. . ... ... ... : ... .. . ... ... ... : ... .. . ... ... ... : ... .. . ... ... ...
ROW 7F : ... .. . ... ... ... : ... .. . ... ... ... : ... .. . ... ... ... : ... .. . ... ... ... : ... .. . ... ... ...
ROW 80 : ... .. . ... ... ... : ... .. . ... ... ... : ... .. . ... ... ... : ... .. . ... ... ... : ... .. . ... ... ...
ROW 81 : ... .. . ... ... ... : ... .. . ... ... ... : --- .. . ... ... ... : --- .. . ... ... ... : ... .. . ... ... ...
ROW 82 : ... .. . ... ... ... : ... .. . ... ... ... : G#2 04 . ... ... ... : ... .. . ... ... ... : ... .. . ... ... ...
ROW 83 : ... .. . ... ... ... : ... .. . ... ... ... : ... .. . ... ... ... : ... .. . ... ... ... : ... .. . ... ... ...
ROW 84 : ... .. . ... ... ... : ... .. . ... ... ... : ... .. . ... ... ... : ... .. . ... ... ... : ... .. . ... ... ...
ROW 85 : ... .. . ... ... ... : ... .. . ... ... ... : ... .. . ... ... ... : ... .. . ... ... ... : ... .. . ... ... ...
ROW 86 : ... .. . ... ... ... : ... .. . ... ... ... : ... .. . ... ... ... : ... .. . ... ... ... : ... .. . ... ... ...
ROW 87 : ... .. . ... ... ... : ... .. . ... ... ... : ... .. . ... ... ... : ... .. . ... ... ... : ... .. . ... ... ...
ROW 88 : ... .. . ... ... ... : ... .. . ... ... ... : ... .. . ... ... ... : ... .. . ... ... ... : ... .. . ... ... ...
ROW 89 : ... .. . ... ... ... : ... .. . ... ... ... : ... .. . ... ... ... : ... .. . ... ... ... : ... .. . ... ... ...
ROW 8A : ... .. . ... ... ... : ... .. . ... ... ... : ... .. . ... ... ... : ... .. . ... ... ... : ... .. . ... ... ...
ROW 8B : --- .. . ... ... ... : ... .. . ... ... ... : --- .. . ... ... ... : ... .. . ... ... ... : ... .. . ... ... ...
ROW 8C : ... .. . ... ... ... : C-3 04 . ... ... ... : G#2 04 . ... ... ... : 3-# 06 . ... ... ... : ... .. . ... ... ...
ROW 8D : ... .. . ... ... ... : ... .. . ... ... ... : ... .. . ... ... ... : ... .. . ... ... ... : ... .. . ... ... ...
ROW 8E : ... .. . ... ... ... : ... .. . ... ... ... : ... .. . ... ... ... : --- .. . ... ... ... : ... .. . ... ... ...
ROW 8F : ... .. . ... ... ... : ... .. . ... ... ... : ... .. . ... ... ... : ... .. . ... ... ... : ... .. . ... ... ...
ROW 90 : ... .. . ... ... ... : ... .. . ... ... ... : ... .. . ... ... ... : ... .. . ... ... ... : ... .. . ... ... ...
ROW 91 : ... .. . ... ... ... : ... .. . ... ... ... : ... .. . ... ... ... : ... .. . ... ... ... : ... .. . ... ... ...
ROW 92 : ... .. . ... ... ... : ... .. . ... ... ... : ... .. . ... ... ... : ... .. . ... ... ... : ... .. . ... ... ...
ROW 93 : ... .. . ... ... ... : ... .. . ... ... ... : ... .. . ... ... ... : ... .. . ... ... ... : ... .. . ... ... ...
ROW 94 : ... .. . ... ... ... : ... .. . ... ... ... : ... .. . ... ... ... : ... .. . ... ... ... : ... .. . ... ... ...
ROW 95 : ... .. . ... ... ... : ... .. . ... ... ... : --- .. . ... ... ... : ... .. . ... ... ... : ... .. . ... ... ...
ROW 96 : ... .. . ... ... ... : ... .. . ... ... ... : G#2 04 . ... ... ... : 3-# 06 . ... ... ... : ... .. . ... ... ...
ROW 97 : ... .. . ... ... ... : ... .. . ... ... ... : ... .. . ... ... ... : ... .. . ... ... ... : ... .. . ... ... ...
ROW 98 : ... .. . ... ... ... : ... .. . ... ... ... : ... .. . ... ... ... : --- .. . ... ... ... : ... .. . ... ... ...
ROW 99 : ... .. . ... ... ... : ... .. . ... ... ... : ... .. . ... ... ... : ... .. . ... ... ... : ... .. . ... ... ...
ROW 9A : ... .. . ... ... ... : ... .. . ... ... ... : ... .. . ... ... ... : ... .. . ... ... ... : ... .. . ... ... ...
ROW 9B : ... .. . ... ... ... : ... .. . ... ... ... : ... .. . ... ... ... : ... .. . ... ... ... : ... .. . ... ... ...
ROW 9C : ... .. . ... ... ... : ... .. . ... ... ... : ... .. . ... ... ... : ... .. . ... ... ... : ... .. . ... ... ...
ROW 9D : ... .. . ... ... ... : ... .. . ... ... ... : ... .. . ... ... ... : ... .. . ... ... ... : ... .. . ... ... ...
ROW 9E : ... .. . ... ... ... : ... .. . ... ... ... : ... .. . ... ... ... : ... .. . ... ... ... : ... .. . ... ... ...
ROW 9F : ... .. . ... ... ... : --- .. . ... ... ... : ... .. . ... ... ... : ... .. . ... ... ... : ... .. . ... ... ...

PATTERN 03
ROW 00 : A#3 0A . ... ... ... : F-3 04 . ... ... ... : F#2 00 . ... ... ... : B-# 07 . ... ... ... : ... .. . ... ... ...
ROW 01 : ... .. . ... ... ... : ... .. . ... ... ... : ... .. . ... ... ... : ... .. . ... ... ... : ... .. . ... ... ...
ROW 02 : ... .. . ... ... ... : ... .. . ... ... ... : ... .. . ... ... ... : ... .. . ... ... ... : ... .. . ... ... ...
ROW 03 : ... .. . ... ... ... : ... .. . ... ... ... : ... .. . ... ... ... : --- .. . ... ... ... : ... .. . ... ... ...
ROW 04 : ... .. . ... ... ... : ... .. . ... ... ... : ... .. . ... ... ... : ... .. . ... ... ... : ... .. . ... ... ...
ROW 05 : ... .. . ... ... ... : ... .. . ... ... ... : ... .. . ... ... ... : ... .. . ... ... ... : ... .. . ... ... ...
ROW 06 : ... .. . ... ... ... : ... .. . ... ... ... : ... .. . ... ... ... : ... .. . ... ... ... : ... .. . ... ... ...
ROW 07 : ... .. . ... ... ... : ... .. . ... ... ... : ... .. . ... ... ... : ... .. . ... ... ... : ... .. . ... ... ...
ROW 08 : ... .. . ... ... ... : ... .. . ... ... ... : ... .. . ... ... ... : ... .. . ... ... ... : ... .. . ... ... ...
ROW 09 : --- .. . ... ... ... : ... .. . ... ... ... : --- .. . ... ... ... : ... .. . ... ... ... : ... .. . ... ... ...
ROW 0A : ... .. . ... ... ... : ... .. . ... ... ... : F#2 04 . ... ... ... : A-# 06 . ... ... ... : ... .. . ... ... ...
ROW 0B : ... .. . ... ... ... : ... .. . ... ... ... : ... .. . ... ... ... : ... .. . ... ... ... : ... .. . ... ... ...
ROW 0C : ... .. . ... ... ... : ... .. . ... ... ... : ... .. . ... ... ... : --- .. . ... ... ... : ... .. . ... ... ...
ROW 0D : ... .. . ... ... ... : ... .. . ... ... ... : ... .. . ... ... ... : ... .. . ... ... ... : ... .. . ... ... ...
ROW 0E : ... .. . ... ... ... : ... .. . ... ... ... : ... .. . ... ... ... : ... .. . ... ... ... : ... .. . ... ... ...
ROW 0F : ... .. . ... ... ... : ... .. . ... ... ... : ... .. . ... ... ... : ... .. . ... ... ... : ... .. . ... ... ...
ROW 10 : ... .. . ... ... ... : ... .. . ... ... ... : ... .. . ... ... ... : ... .. . ... ... ... : ... .. . ... ... ...
ROW 11 : ... .. . ... ... ... : ... .. . ... ... ... : ... .. . ... ... ... : ... .. . ... ... ... : ... .. . ... ... ...
ROW 12 : ... .. . ... ... ... : ... .. . ... ... ... : ... .. . ... ... ... : ... .. . ... ... ... : ... .. . ... ... ...
ROW 13 : ... .. . ... ... ... : ... .. . ... ... ... : --- .. . ... ... ... : ... .. . ... ... ... : ... .. . ... ... ...
ROW 14 : A#3 0A . ... ... ... : A#3 04 . ... ... ... : F#2 04 . ... ... ... : A-# 05 . ... ... ... : ... .. . ... ... ...
ROW 15 : ... .. . ... ... ... : ... .. . ... ... ... : ... .. . ... ... ... : ... .. . ... ... ... : ... .. . ... ... ...
ROW 16 : ... .. . ... ... ... : ... .. . ... ... ... : ... .. . ... ... ... : ... .. . ... ... ... : ... .. . ... ... ...
ROW 17 : ... .. . ... ... ... : ... .. . ... ... ... : ... .. . ... ... ... : ... .. . ... ... ... : ... .. . ... ... ...
ROW 18 : ... .. . ... ... ... : ... .. . ... ... ... : ... .. . ... ... ... : ... .. . ... ... ... : ... .. . ... ... ...
ROW 19 : ... .. . ... ... ... : ... .. . ... ... ... : ... .. . ... ... ... : ... .. . ... ... ... : ... .. . ... ... ...
ROW 1A : ... .. . ... ... ... : ... .. . ... ... ... : ... .. . ... ... ... : --- .. . ... ... ... : ... .. . ... ... ...
ROW 1B : ... .. . ... ... ... : ... .. . ... ... ... : ... .. . ... ... ... : ... .. . ... ... ... : ... .. . ... ... ...
ROW 1C : ... .. . ... ... ... : ... .. . ... ... ... : ... .. . ... ... ... : ... .. . ... ... ... : ... .. . ... ... ...
ROW 1D : --- .. . ... ... ... : ... .. . ... ... ... : --- .. . ... ... ... : ... .. . ... ... ... : ... .. . ... ... ...
ROW 1E : F-4 0A . ... ... ... : G#3 04 . ... ... ... : F#2 00 . ... ... ... : B-# 07 . ... ... ... : ... .. . ... ... ...
ROW 1F : ... .. . ... ... ... : ... .. . ... ... ... : ... .. . ... ... ... : ... .. . ... ... ... : ... .. . ... ... ...
ROW 20 : ... .. . ... ... ... : ... .. . ... ... ... : ... .. . ... ... ... : ... .. . ... ... ... : ... .. . ... ... ...
ROW 21 : ... .. . ... ... ... : ... .. . ... ... ... : ... .. . ... ... ... : --- .. . ... ... ... : ... .. . ... ... ...
ROW 22 : ... .. . ... ... ... : ... .. . ... ... ... : ... .. . ... ... ... : ... .. . ... ... ... : ... .. . ... ... ...
ROW 23 : ... .. . ... ... ... : ... .. . ... ... ... : ... .. . ... ... ... : ... .. . ... ... ... : ... .. . ... ... ...
ROW 24 : ... .. . ... ... ... : ... .. . ... ... ... : ... .. . ... ... ... : ... .. . ... ... ... : ... .. . ... ... ...
ROW 25 : ... .. . ... ... ... : ... .. . ... ... ... : ... .. . ... ... ... : ... .. . ... ... ... : ... .. . ... ... ...
ROW 26 : ... .. . ... ... ... : ... .. . ... ... ... : ... .. . ... ... ... : ... .. . ... ... ... : ... .. . ... ... ...
ROW 27 : ... .. . ... ... ... : ... .. . ... ... ... : --- .. . ... ... ... : ... .. . ... ... ... : ... .. . ... ... ...
ROW 28 : ... .. . ... ... ... : F-3 04 . ... ... ... : F#2 00 . ... ... ... : A-# 06 . ... ... ... : ... .. . ... ... ...
ROW 29 : ... .. . ... ... ... : ... .. . ... ... ... : ... .. . ... ... ... : ... .. . ... ... ... : ... .. . ... ... ...
ROW 2A : ... .. . ... ... ... : ... .. . ... ... ... : ... .. . ... ... ... : --- .. . ... ... ... : ... .. . ... ... ...
ROW 2B : ... .. . ... ... ... : ... .. . ... ... ... : ... .. . ... ... ... : ... .. . ... ... ... : ... .. . ... ... ...
ROW 2C : ... .. . ... ... ... : ... .. . ... ... ... : ... .. . ... ... ... : ... .. . ... ... ... : ... .. . ... ... ...
ROW 2D : ... .. . ... ... ... : ... .. . ... ... ... : ... .. . ... ... ... : ... .. . ... ... ... : ... .. . ... ... ...
ROW 2E : ... .. . ... ... ... : ... .. . ... ... ... : ... .. . ... ... ... : ... .. . ... ... ... : ... .. . ... ... ...
ROW 2F : ... .. . ... ... ... : ... .. . ... ... ... : ... .. . ... ... ... : ... .. . ... ... ... : ... .. . ... ... ...
ROW 30 : ... .. . ... ... ... : ... .. . ... ... ... : ... .. . ... ... ... : ... .. . ... ... ... : ... .. . ... ... ...
ROW 31 : ... .. . ... ... ... : ... .. . ... ... ... : --- .. . ... ... ... : ... .. . ... ... ... : ... .. . ... ... ...
ROW 32 : ... .. . ... ... ... : ... .. . ... ... ... : F#2 04 . ... ... ... : A-# 05 . ... ... ... : ... .. . ... ... ...
ROW 33 : ... .. . ... ... ... : ... .. . ... ... ... : ... .. . ... ... ... : ... .. . ... ... ... : ... .. . ... ... ...
ROW 34 : ... .. . ... ... ... : ... .. . ... ... ... : ... .. . ... ... ... : ... .. . ... ... ... : ... .. . ... ... ...
ROW 35 : ... .. . ... ... ... : ... .. . ... ... ... : ... .. . ... ... ... : ... .. . ... ... ... : ... .. . ... ... ...
ROW 36 : ... .. . ... ... ... : ... .. . ... ... ... : ... .. . ... ... ... : ... .. . ... ... ... : ... .. . ... ... ...
ROW 37 : ... .. . ... ... ... : ... .. . ... ... ... : ... .. . ... ... ... : --- .. . ... ... ... : ... .. . ... ... ...
ROW 38 : ... .. . ... ... ... : ... .. . ... ... ... : ... .. . ... ... ... : ... .. . ... ... ... : ... .. . ... ... ...
ROW 39 : ... .. . ... ... ... : ... .. . ... ... ... : ... .. . ... ... ... : ... .. . ... ... ... : ... .. . ... ... ...
ROW 3A : ... .. . ... ... ... : ... .. . ... ... ... : ... .. . ... ... ... : ... .. . ... ... ... : ... .. . ... ... ...
ROW 3B : --- .. . ... ... ... : ... .. . ... ... ... : --- .. . ... ... ... : ... .. . ... ... ... : ... .. . ... ... ...
ROW 3C : ... .. . ... ... ... : ... .. . ... ... ... : F#2 04 . ... ... ... : B-# 07 . ... ... ... : ... .. . ... ... ...
ROW 3D : ... .. . ... ... ... : ... .. . ... ... ... : ... .. . ... ... ... : ... .. . ... ... ... : ... .. . ... ... ...
ROW 3E : ... .. . ... ... ... : ... .. . ... ... ... : ... .. . ... ... ... : --- .. . ... ... ... : ... .. . ... ... ...
ROW 3F : ... .. . ... ... ... : ... .. . ... ... ... : ... .. . ... ... ... : ... .. . ... ... ... : ... .. . ... ... ...
ROW 40 : ... .. . ... ... ... : ... .. . ... ... ... : ... .. . ... ... ... : ... .. . ... ... ... : ... .. . ... ... ...
ROW 41 : ... .. . ... ... ... : ... .. . ... ... ... : ... .. . ... ... ... : ... .. . ... ... ... : ... .. . ... ... ...
ROW 42 : ... .. . ... ... ... : ... .. . ... ... ... : ... .. . ... ... ... : ... .. . ... ... ... : ... .. . ... ... ...
ROW 43 : ... .. . ... ... ... : ... .. . ... ... ... : ... .. . ... ... ... : ... .. . ... ... ... : ... .. . ... ... ...
ROW 44 : ... .. . ... ... ... : ... .. . ... ... ... : ... .. . ... ... ... : ... .. . ... ... ... : ... .. . ... ... ...
ROW 45 : ... .. . ... ... ... : ... .. . ... ... ... : --- .. . ... ... ... : ... .. . ... ... ... : ... .. . ... ... ...
ROW 46 : ... .. . ... ... ... : D#3 04 . ... ... ... : F#2 04 . ... ... ... : B-# 07 . ... ... ... : ... .. . ... ... ...
ROW 47 : ... .. . ... ... ... : ... .. . ... ... ... : ... .. . ... ... ... : ... .. . ... ... ... : ... .. . ... ... ...
ROW 48 : ... .. . ... ... ... : ... .. . ... ... ... : ... .. . ... ... ... : --- .. . ... ... ... : ... .. . ... ... ...
ROW 49 : ... .. . ... ... ... : ... .. . ... ... ... : ... .. . ... ... ... : ... .. . ... ... ... : ... .. . ... ... ...
ROW 4A : ... .. . ... ... ... : ... .. . ... ... ... : ... .. . ... ... ... : ... .. . ... ... ... : ... .. . ... ... ...
ROW 4B : ... .. . ... ... ... : ... .. . ... ... ... : ... .. . ... ... ... : ... .. . ... ... ... : ... .. . ... ... ...
ROW 4C : ... .. . ... ... ... : ... .. . ... ... ... : ... .. . ... ... ... : ... .. . ... ... ... : ... .. . ... ... ...
ROW 4D : ... .. . ... ... ... : ... .. . ... ... ... : ... .. . ... ... ... : ... .. . ... ... ... : ... .. . ... ... ...
ROW 4E : ... .. . ... ... ... : ... .. . ... ... ... : ... .. . ... ... ... : ... .. . ... ... ... : ... .. . ... ... ...
ROW 4F : ... .. . ... ... ... : ... .. . ... ... ... : --- .. . ... ... ... : ... .. . ... ... ... : ... .. . ... ... ...
ROW 50 : D#4 0A . ... ... ... : C#3 04 . ... ... ... : F#2 00 . ... ... ... : B-# 07 . ... ... ... : ... .. . ... ... ...
ROW 51 : ... .. . ... ... ... : ... .. . ... ... ... : ... .. . ... ... ... : ... .. . ... ... ... : ... .. . ... ... ...
ROW 52 : ... .. . ... ... ... : ... .. . ... ... ... : ... .. . ... ... ... : ... .. . ... ... ... : ... .. . ... ... ...
ROW 53 : ... .. . ... ... ... : ... .. . ... ... ... : ... .. . ... ... ... : --- .. . ... ... ... : ... .. . ... ... ...
ROW 54 : ... .. . ... ... ... : ... .. . ... ... ... : ... .. . ... ... ... : ... .. . ... ... ... : ... .. . ... ... ...
ROW 55 : ... .. . ... ... ... : ... .. . ... ... ... : ... .. . ... ... ... : ... .. . ... ... ... : ... .. . ... ... ...
ROW 56 : ... .. . ... ... ... : ... .. . ... ... ... : ... .. . ... ... ... : ... .. . ... ... ... : ... .. . ... ... ...
ROW 57 : ... .. . ... ... ... : ... .. . ... ... ... : ... .. . ... ... ... : ... .. . ... ... ... : ... .. . ... ... ...
ROW 58 : ... .. . ... ... ... : ... .. . ... ... ... : ... .. . ... ... ... : ... .. . ... ... ... : ... .. . ... ... ...
ROW 59 : ... .. . ... ... ... : ... .. . ... ... ... : --- .. . ... ... ... : ... .. . ... ... ... : ... .. . ... ... ...
ROW 5A : F-4 0A . ... ... ... : ... .. . ... ... ... : F#2 04 . ... ... ... : A-# 06 . ... ... ... : ... .. . ... ... ...
ROW 5B : ... .. . ... ... ... : ... .. . ... ... ... : ... .. . ... ... ... : ... .. . ... ... ... : ... .. . ... ... ...
ROW 5C : ... .. . ... ... ... : ... .. . ... ... ... : ... .. . ... ... ... : --- .. . ... ... ... : ... .. . ... ... ...
ROW 5D : ... .. . ... ... ... : ... .. . ... ... ... : ... .. . ... ... ... : ... .. . ... ... ... : ... .. . ... ... ...
ROW 5E : ... .. . ... ... ... : ... .. . ... ... ... : ... .. . ... ... ... : ... .. . ... ... ... : ... .. . ... ... ...
ROW 5F : ... .. . ... ... ... : ... .. . ... ... ... : ... .. . ... ... ... : ... .. . ... ... ... : ... .. . ... ... ...
ROW 60 : ... .. . ... ... ... : ... .. . ... ... ... : ... .. . ... ... ... : ... .. . ... ... ... : ... .. . ... ... ...
ROW 61 : ... .. . ... ... ... : ... .. . ... ... ... : ... .. . ... ... ... : ... .. . ... ... ... : ... .. . ... ... ...
ROW 62 : ... .. . ... ... ... : ... .. . ... ... ... : ... .. . ... ... ... : ... .. . ... ... ... : ... .. . ... ... ...
ROW 63 : ... .. . ... ... ... : ... .. . ... ... ... : --- .. . ... ... ... : ... .. . ... ... ... : ... .. . ... ... ...
ROW 64 : G#4 0A . ... ... ... : ... .. . ... ... ... : F#2 04 . ... ... ... : A-# 05 . ... ... ... : ... .. . ... ... ...
ROW 65 : ... .. . ... ... ... : ... .. . ... ... ... : ... .. . ... ... ... : ... .. . ... ... ... : ... .. . ... ... ...
ROW 66 : ... .. . ... ... ... : ... .. . ... ... ... : ... .. . ... ... ... : ... .. . ... ... ... : ... .. . ... ... ...
ROW 67 : ... .. . ... ... ... : ... .. . ... ... ... : ... .. . ... ... ... : ... .. . ... ... ... : ... .. . ... ... ...
ROW 68 : ... .. . ... ... ... : ... .. . ... ... ... : ... .. . ... ... ... : ... .. . ... ... ... : ... .. . ... ... ...
ROW 69 : ... .. . ... ... ... : ... .. . ... ... ... : ... .. . ... ... ... : ... .. . ... ... ... : ... .. . ... ... ...
ROW 6A : ... .. . ... ... ... : ... .. . ... ... ... : ... .. . ... ... ... : --- .. . ... ... ... : ... .. . ... ... ...
ROW 6B : ... .. . ... ... ... : ... .. . ... ... ... : ... .. . ... ... ... : ... .. . ... ... ... : ... .. . ... ... ...
ROW 6C : ... .. . ... ... ... : ... .. . ... ... ... : ... .. . ... ... ... : ... .. . ... ... ... : ... .. . ... ... ...
ROW 6D : ... .. . ... ... ... : ... .. . ... ... ... : --- .. . ... ... ... : ... .. . ... ... ... : ... .. . ... ... ...
ROW 6E : C-4 0A . ... ... ... : C-3 04 . ... ... ... : F#2 00 . ... ... ... : B-# 07 . ... ... ... : ... .. . ... ... ...
ROW 6F : ... .. . ... ... ... : ... .. . ... ... ... : ... .. . ... ... ... : ... .. . ... ... ... : ... .. . ... ... ...
ROW 70 : ... .. . ... ... ... : ... .. . ... ... ... : ... .. . ... ... ... : ... .. . ... ... ... : ... .. . ... ... ...
ROW 71 : ... .. . ... ... ... : ... .. . ... ... ... : ... .. . ... ... ... : --- .. . ... ... ... : ... .. . ... ... ...
ROW 72 : ... .. . ... ... ... : ... .. . ... ... ... : ... .. . ... ... ... : ... .. . ... ... ... : ... .. . ... ... ...
ROW 73 : ... .. . ... ... ... : ... .. . ... ... ... : ... .. . ... ... ... : ... .. . ... ... ... : ... .. . ... ... ...
ROW 74 : ... .. . ... ... ... : ... .. . ... ... ... : ... .. . ... ... ... : ... .. . ... ... ... : ... .. . ... ... ...
ROW 75 : ... .. . ... ... ... : ... .. . ... ... ... : ... .. . ... ... ... : ... .. . ... ... ... : ... .. . ... ... ...
ROW 76 : ... .. . ... ... ... : ... .. . ... ... ... : ... .. . ... ... ... : ... .. . ... ... ... : ... .. . ... ... ...
ROW 77 : ... .. . ... ... ... : ... .. . ... ... ... : --- .. . ... ... ... : ... .. . ... ... ... : ... .. . ... ... ...
ROW 78 : ... .. . ... ... ... : C#3 04 . ... ... ... : F#2 00 . ... ... ... : A-# 06 . ... ... ... : ... .. . ... ... ...
ROW 79 : ... .. . ... ... ... : ... .. . ... ... ... : ... .. . ... ... ... : ... .. . ... ... ... : ... .. . ... ... ...
ROW 7A : ... .. . ... ... ... : ... .. . ... ... ... : ... .. . ... ... ... : --- .. . ... ... ... : ... .. . ... ... ...
ROW 7B : ... .. . ... ... ... : ... .. . ... ... ... : ... .. . ... ... ... : ... .. . ... ... ... : ... .. . ... ... ...
ROW 7C : ... .. . ... ... ... : ... .. . ... ... ... : ... .. . ... ... ... : ... .. . ... ... ... : ... .. . ... ... ...
ROW 7D : ... .. . ... ... ... : ... .. . ... ... ... : ... .. . ... ... ... : ... .. . ... ... ... : ... .. . ... ... ...
ROW 7E : ... .. . ... ... ... : ... .. . ... ... ... : ... .. . ... ... ... : ... .. . ... ... ... : ... .. . ... ... ...
ROW 7F : ... .. . ... ... ... : ... .. . ... ... ... : ... .. . ... ... ... : ... .. . ... ... ... : ... .. . ... ... ...
ROW 80 : ... .. . ... ... ... : ... .. . ... ... ... : ... .. . ... ... ... : ... .. . ... ... ... : ... .. . ... ... ...
ROW 81 : ... .. . ... ... ... : ... .. . ... ... ... : --- .. . ... ... ... : ... .. . ... ... ... : ... .. . ... ... ...
ROW 82 : ... .. . ... ... ... : ... .. . ... ... ... : F#2 04 . ... ... ... : A-# 05 . ... ... ... : ... .. . ... ... ...
ROW 83 : ... .. . ... ... ... : ... .. . ... ... ... : ... .. . ... ... ... : ... .. . ... ... ... : ... .. . ... ... ...
ROW 84 : ... .. . ... ... ... : ... .. . ... ... ... : ... .. . ... ... ... : ... .. . ... ... ... : ... .. . ... ... ...
ROW 85 : ... .. . ... ... ... : ... .. . ... ... ... : ... .. . ... ... ... : ... .. . ... ... ... : ... .. . ... ... ...
ROW 86 : ... .. . ... ... ... : ... .. . ... ... ... : ... .. . ... ... ... : ... .. . ... ... ... : ... .. . ... ... ...
ROW 87 : ... .. . ... ... ... : ... .. . ... ... ... : ... .. . ... ... ... : --- .. . ... ... ... : ... .. . ... ... ...
ROW 88 : ... .. . ... ... ... : ... .. . ... ... ... : ... .. . ... ... ... : ... .. . ... ... ... : ... .. . ... ... ...
ROW 89 : ... .. . ... ... ... : ... .. . ... ... ... : ... .. . ... ... ... : ... .. . ... ... ... : ... .. . ... ... ...
ROW 8A : ... .. . ... ... ... : ... .. . ... ... ... : ... .. . ... ... ... : ... .. . ... ... ... : ... .. . ... ... ...
ROW 8B : ... .. . ... ... ... : ... .. . ... ... ... : --- .. . ... ... ... : ... .. . ... ... ... : ... .. . ... ... ...
ROW 8C : G#3 0A . ... ... ... : ... .. . ... ... ... : F#2 04 . ... ... ... : A-# 06 . ... ... ... : ... .. . ... ... ...
ROW 8D : ... .. . ... ... ... : ... .. . ... ... ... : ... .. . ... ... ... : ... .. . ... ... ... : ... .. . ... ... ...
ROW 8E : ... .. . ... ... ... : ... .. . ... ... ... : ... .. . ... ... ... : --- .. . ... ... ... : ... .. . ... ... ...
ROW 8F : ... .. . ... ... ... : ... .. . ... ... ... : ... .. . ... ... ... : ... .. . ... ... ... : ... .. . ... ... ...
ROW 90 : ... .. . ... ... ... : ... .. . ... ... ... : ... .. . ... ... ... : ... .. . ... ... ... : ... .. . ... ... ...
ROW 91 : ... .. . ... ... ... : ... .. . ... ... ... : ... .. . ... ... ... : ... .. . ... ... ... : ... .. . ... ... ...
ROW 92 : ... .. . ... ... ... : ... .. . ... ... ... : ... .. . ... ... ... : ... .. . ... ... ... : ... .. . ... ... ...
ROW 93 : ... .. . ... ... ... : ... .. . ... ... ... : ... .. . ... ... ... : ... .. . ... ... ... : ... .. . ... ... ...
ROW 94 : ... .. . ... ... ... : ... .. . ... ... ... : ... .. . ... ... ... : ... .. . ... ... ... : ... .. . ... ... ...
ROW 95 : ... .. . ... ... ... : --- .. . ... ... ... : --- .. . ... ... ... : ... .. . ... ... ... : ... .. . ... ... ...
ROW 96 : ... .. . ... ... ... : C#3 04 . ... ... ... : F#2 04 . ... ... ... : A-# 06 . ... ... ... : ... .. . ... ... ...
ROW 97 : ... .. . ... ... ... : ... .. . ... ... ... : ... .. . ... ... ... : ... .. . ... ... ... : ... .. . ... ... ...
ROW 98 : ... .. . ... ... ... : ... .. . ... ... ... : ... .. . ... ... ... : --- .. . ... ... ... : ... .. . ... ... ...
ROW 99 : ... .. . ... ... ... : ... .. . ... ... ... : ... .. . ... ... ... : ... .. . ... ... ... : ... .. . ... ... ...
ROW 9A : ... .. . ... ... ... : ... .. . ... ... ... : ... .. . ... ... ... : ... .. . ... ... ... : ... .. . ... ... ...
ROW 9B : ... .. . ... ... ... : ... .. . ... ... ... : ... .. . ... ... ... : ... .. . ... ... ... : ... .. . ... ... ...
ROW 9C : ... .. . ... ... ... : ... .. . ... ... ... : ... .. . ... ... ... : ... .. . ... ... ... : ... .. . ... ... ...
ROW 9D : ... .. . ... ... ... : ... .. . ... ... ... : ... .. . ... ... ... : ... .. . ... ... ... : ... .. . ... ... ...
ROW 9E : ... .. . ... ... ... : ... .. . ... ... ... : ... .. . ... ... ... : ... .. . ... ... ... : ... .. . ... ... ...
ROW 9F : ... .. . ... ... ... : ... .. . ... ... ... : --- .. . ... ... ... : ... .. . ... ... ... : ... .. . ... ... ...

PATTERN 04
ROW 00 : A#3 02 . ... ... ... : D#3 04 . ... ... ... : G#2 00 . ... ... ... : B-# 05 . ... ... ... : ... .. . ... ... ...
ROW 01 : ... .. . ... ... ... : ... .. . ... ... ... : ... .. . ... ... ... : ... .. . ... ... ... : ... .. . ... ... ...
ROW 02 : ... .. . ... ... ... : ... .. . ... ... ... : ... .. . ... ... ... : ... .. . ... ... ... : ... .. . ... ... ...
ROW 03 : ... .. . ... ... ... : ... .. . ... ... ... : ... .. . ... ... ... : --- .. . ... ... ... : ... .. . ... ... ...
ROW 04 : ... .. . ... ... ... : ... .. . ... ... ... : ... .. . ... ... ... : ... .. . ... ... ... : ... .. . ... ... ...
ROW 05 : ... .. . ... ... ... : ... .. . ... ... ... : ... .. . ... ... ... : ... .. . ... ... ... : ... .. . ... ... ...
ROW 06 : ... .. . ... ... ... : ... .. . ... ... ... : ... .. . ... ... ... : ... .. . ... ... ... : ... .. . ... ... ...
ROW 07 : ... .. . ... ... ... : ... .. . ... ... ... : ... .. . ... ... ... : ... .. . ... ... ... : ... .. . ... ... ...
ROW 08 : ... .. . ... ... ... : ... .. . ... ... ... : ... .. . ... ... ... : ... .. . ... ... ... : ... .. . ... ... ...
ROW 09 : ... .. . ... ... ... : ... .. . ... ... ... : --- .. . ... ... ... : ... .. . ... ... ... : ... .. . ... ... ...
ROW 0A : ... .. . ... ... ... : ... .. . ... ... ... : G#2 04 . ... ... ... : B-# 07 . ... ... ... : ... .. . ... ... ...
ROW 0B : ... .. . ... ... ... : ... .. . ... ... ... : ... .. . ... ... ... : ... .. . ... ... ... : ... .. . ... ... ...
ROW 0C : ... .. . ... ... ... : ... .. . ... ... ... : ... .. . ... ... ... : ... .. . ... ... ... : ... .. . ... ... ...
ROW 0D : ... .. . ... ... ... : ... .. . ... ... ... : ... .. . ... ... ... : --- .. . ... ... ... : ... .. . ... ... ...
ROW 0E : ... .. . ... ... ... : ... .. . ... ... ... : ... .. . ... ... ... : ... .. . ... ... ... : ... .. . ... ... ...
ROW 0F : ... .. . ... ... ... : ... .. . ... ... ... : ... .. . ... ... ... : ... .. . ... ... ... : ... .. . ... ... ...
ROW 10 : ... .. . ... ... ... : ... .. . ... ... ... : ... .. . ... ... ... : ... .. . ... ... ... : ... .. . ... ... ...
ROW 11 : ... .. . ... ... ... : ... .. . ... ... ... : ... .. . ... ... ... : ... .. . ... ... ... : ... .. . ... ... ...
ROW 12 : ... .. . ... ... ... : ... .. . ... ... ... : ... .. . ... ... ... : ... .. . ... ... ... : ... .. . ... ... ...
ROW 13 : ... .. . ... ... ... : ... .. . ... ... ... : --- .. . ... ... ... : ... .. . ... ... ... : ... .. . ... ... ...
ROW 14 : C#4 02 . ... ... ... : ... .. . ... ... ... : G#2 04 . ... ... ... : B-# 07 . ... ... ... : ... .. . ... ... ...
ROW 15 : ... .. . ... ... ... : ... .. . ... ... ... : ... .. . ... ... ... : ... .. . ... ... ... : ... .. . ... ... ...
ROW 16 : ... .. . ... ... ... : ... .. . ... ... ... : ... .. . ... ... ... : ... .. . ... ... ... : ... .. . ... ... ...
ROW 17 : ... .. . ... ... ... : ... .. . ... ... ... : ... .. . ... ... ... : --- .. . ... ... ... : ... .. . ... ... ...
ROW 18 : ... .. . ... ... ... : ... .. . ... ... ... : ... .. . ... ... ... : ... .. . ... ... ... : ... .. . ... ... ...
ROW 19 : ... .. . ... ... ... : ... .. . ... ... ... : ... .. . ... ... ... : ... .. . ... ... ... : ... .. . ... ... ...
ROW 1A : ... .. . ... ... ... : ... .. . ... ... ... : ... .. . ... ... ... : ... .. . ... ... ... : ... .. . ... ... ...
ROW 1B : ... .. . ... ... ... : ... .. . ... ... ... : ... .. . ... ... ... : ... .. . ... ... ... : ... .. . ... ... ...
ROW 1C : ... .. . ... ... ... : ... .. . ... ... ... : ... .. . ... ... ... : ... .. . ... ... ... : ... .. . ... ... ...
ROW 1D : ... .. . ... ... ... : ... .. . ... ... ... : --- .. . ... ... ... : ... .. . ... ... ... : ... .. . ... ... ...
ROW 1E : C-4 02 . ... ... ... : G#3 04 . ... ... ... : G#2 00 . ... ... ... : B-# 07 . ... ... ... : ... .. . ... ... ...
ROW 1F : ... .. . ... ... ... : ... .. . ... ... ... : ... .. . ... ... ... : ... .. . ... ... ... : ... .. . ... ... ...
ROW 20 : ... .. . ... ... ... : ... .. . ... ... ... : ... .. . ... ... ... : ... .. . ... ... ... : ... .. . ... ... ...
ROW 21 : ... .. . ... ... ... : ... .. . ... ... ... : ... .. . ... ... ... : --- .. . ... ... ... : ... .. . ... ... ...
ROW 22 : ... .. . ... ... ... : ... .. . ... ... ... : ... .. . ... ... ... : ... .. . ... ... ... : ... .. . ... ... ...
ROW 23 : ... .. . ... ... ... : ... .. . ... ... ... : ... .. . ... ... ... : ... .. . ... ... ... : ... .. . ... ... ...
ROW 24 : ... .. . ... ... ... : ... .. . ... ... ... : ... .. . ... ... ... : ... .. . ... ... ... : ... .. . ... ... ...
ROW 25 : ... .. . ... ... ... : ... .. . ... ... ... : ... .. . ... ... ... : ... .. . ... ... ... : ... .. . ... ... ...
ROW 26 : ... .. . ... ... ... : ... .. . ... ... ... : ... .. . ... ... ... : ... .. . ... ... ... : ... .. . ... ... ...
ROW 27 : ... .. . ... ... ... : ... .. . ... ... ... : --- .. . ... ... ... : ... .. . ... ... ... : ... .. . ... ... ...
ROW 28 : A#3 02 . ... ... ... : ... .. . ... ... ... : G#2 00 . ... ... ... : B-# 05 . ... ... ... : ... .. . ... ... ...
ROW 29 : ... .. . ... ... ... : ... .. . ... ... ... : ... .. . ... ... ... : ... .. . ... ... ... : ... .. . ... ... ...
ROW 2A : ... .. . ... ... ... : ... .. . ... ... ... : ... .. . ... ... ... : ... .. . ... ... ... : ... .. . ... ... ...
ROW 2B : ... .. . ... ... ... : ... .. . ... ... ... : ... .. . ... ... ... : ... .. . ... ... ... : ... .. . ... ... ...
ROW 2C : ... .. . ... ... ... : ... .. . ... ... ... : ... .. . ... ... ... : ... .. . ... ... ... : ... .. . ... ... ...
ROW 2D : ... .. . ... ... ... : ... .. . ... ... ... : ... .. . ... ... ... : ... .. . ... ... ... : ... .. . ... ... ...
ROW 2E : ... .. . ... ... ... : ... .. . ... ... ... : ... .. . ... ... ... : ... .. . ... ... ... : ... .. . ... ... ...
ROW 2F : ... .. . ... ... ... : ... .. . ... ... ... : ... .. . ... ... ... : ... .. . ... ... ... : ... .. . ... ... ...
ROW 30 : ... .. . ... ... ... : ... .. . ... ... ... : ... .. . ... ... ... : ... .. . ... ... ... : ... .. . ... ... ...
ROW 31 : ... .. . ... ... ... : ... .. . ... ... ... : --- .. . ... ... ... : --- .. . ... ... ... : ... .. . ... ... ...
ROW 32 : ... .. . ... ... ... : ... .. . ... ... ... : G#2 04 . ... ... ... : ... .. . ... ... ... : ... .. . ... ... ...
ROW 33 : ... .. . ... ... ... : ... .. . ... ... ... : ... .. . ... ... ... : ... .. . ... ... ... : ... .. . ... ... ...
ROW 34 : ... .. . ... ... ... : ... .. . ... ... ... : ... .. . ... ... ... : ... .. . ... ... ... : ... .. . ... ... ...
ROW 35 : ... .. . ... ... ... : ... .. . ... ... ... : ... .. . ... ... ... : ... .. . ... ... ... : ... .. . ... ... ...
ROW 36 : ... .. . ... ... ... : ... .. . ... ... ... : ... .. . ... ... ... : ... .. . ... ... ... : ... .. . ... ... ...
ROW 37 : ... .. . ... ... ... : ... .. . ... ... ... : ... .. . ... ... ... : ... .. . ... ... ... : ... .. . ... ... ...
ROW 38 : ... .. . ... ... ... : ... .. . ... ... ... : ... .. . ... ... ... : ... .. . ... ... ... : ... .. . ... ... ...
ROW 39 : ... .. . ... ... ... : ... .. . ... ... ... : ... .. . ... ... ... : ... .. . ... ... ... : ... .. . ... ... ...
ROW 3A : ... .. . ... ... ... : ... .. . ... ... ... : ... .. . ... ... ... : ... .. . ... ... ... : ... .. . ... ... ...
ROW 3B : ... .. . ... ... ... : ... .. . ... ... ... : --- .. . ... ... ... : ... .. . ... ... ... : ... .. . ... ... ...
ROW 3C : ... .. . ... ... ... : D#3 04 . ... ... ... : G#2 04 . ... ... ... : 3-# 06 . ... ... ... : ... .. . ... ... ...
ROW 3D : ... .. . ... ... ... : ... .. . ... ... ... : ... .. . ... ... ... : ... .. . ... ... ... : ... .. . ... ... ...
ROW 3E : ... .. . ... ... ... : ... .. . ... ... ... : ... .. . ... ... ... : --- .. . ... ... ... : ... .. . ... ... ...
ROW 3F : ... .. . ... ... ... : ... .. . ... ... ... : ... .. . ... ... ... : ... .. . ... ... ... : ... .. . ... ... ...
ROW 40 : ... .. . ... ... ... : ... .. . ... ... ... : ... .. . ... ... ... : ... .. . ... ... ... : ... .. . ... ... ...
ROW 41 : ... .. . ... ... ... : ... .. . ... ... ... : ... .. . ... ... ... : ... .. . ... ... ... : ... .. . ... ... ...
ROW 42 : ... .. . ... ... ... : ... .. . ... ... ... : ... .. . ... ... ... : ... .. . ... ... ... : ... .. . ... ... ...
ROW 43 : ... .. . ... ... ... : ... .. . ... ... ... : ... .. . ... ... ... : ... .. . ... ... ... : ... .. . ... ... ...
ROW 44 : ... .. . ... ... ... : ... .. . ... ... ... : ... .. . ... ... ... : ... .. . ... ... ... : ... .. . ... ... ...
ROW 45 : ... .. . ... ... ... : ... .. . ... ... ... : --- .. . ... ... ... : ... .. . ... ... ... : ... .. . ... ... ...
ROW 46 : G#3 02 . ... ... ... : ... .. . ... ... ... : G#2 04 . ... ... ... : 3-# 06 . ... ... ... : ... .. . ... ... ...
ROW 47 : ... .. . ... ... ... : ... .. . ... ... ... : ... .. . ... ... ... : ... .. . ... ... ... : ... .. . ... ... ...
ROW 48 : ... .. . ... ... ... : ... .. . ... ... ... : ... .. . ... ... ... : ... .. . ... ... ... : ... .. . ... ... ...
ROW 49 : ... .. . ... ... ... : ... .. . ... ... ... : ... .. . ... ... ... : --- .. . ... ... ... : ... .. . ... ... ...
ROW 4A : ... .. . ... ... ... : ... .. . ... ... ... : ... .. . ... ... ... : ... .. . ... ... ... : ... .. . ... ... ...
ROW 4B : ... .. . ... ... ... : ... .. . ... ... ... : ... .. . ... ... ... : ... .. . ... ... ... : ... .. . ... ... ...
ROW 4C : ... .. . ... ... ... : ... .. . ... ... ... : ... .. . ... ... ... : ... .. . ... ... ... : ... .. . ... ... ...
ROW 4D : ... .. . ... ... ... : ... .. . ... ... ... : ... .. . ... ... ... : ... .. . ... ... ... : ... .. . ... ... ...
ROW 4E : ... .. . ... ... ... : ... .. . ... ... ... : ... .. . ... ... ... : ... .. . ... ... ... : ... .. . ... ... ...
ROW 4F : ... .. . ... ... ... : ... .. . ... ... ... : --- .. . ... ... ... : ... .. . ... ... ... : ... .. . ... ... ...
ROW 50 : F-3 02 . ... ... ... : C-3 04 . ... ... ... : G#2 00 . ... ... ... : B-# 05 . ... ... ... : ... .. . ... ... ...
ROW 51 : ... .. . ... ... ... : ... .. . ... ... ... : ... .. . ... ... ... : ... .. . ... ... ... : ... .. . ... ... ...
ROW 52 : ... .. . ... ... ... : ... .. . ... ... ... : ... .. . ... ... ... : ... .. . ... ... ... : ... .. . ... ... ...
ROW 53 : ... .. . ... ... ... : ... .. . ... ... ... : ... .. . ... ... ... : --- .. . ... ... ... : ... .. . ... ... ...
ROW 54 : ... .. . ... ... ... : ... .. . ... ... ... : ... .. . ... ... ... : ... .. . ... ... ... : ... .. . ... ... ...
ROW 55 : ... .. . ... ... ... : ... .. . ... ... ... : ... .. . ... ... ... : ... .. . ... ... ... : ... .. . ... ... ...
ROW 56 : ... .. . ... ... ... : ... .. . ... ... ... : ... .. . ... ... ... : ... .. . ... ... ... : ... .. . ... ... ...
ROW 57 : ... .. . ... ... ... : ... .. . ... ... ... : ... .. . ... ... ... : ... .. . ... ... ... : ... .. . ... ... ...
ROW 58 : ... .. . ... ... ... : ... .. . ... ... ... : ... .. . ... ... ... : ... .. . ... ... ... : ... .. . ... ... ...
ROW 59 : ... .. . ... ... ... : ... .. . ... ... ... : --- .. . ... ... ... : ... .. . ... ... ... : ... .. . ... ... ...
ROW 5A : ... .. . ... ... ... : ... .. . ... ... ... : G#2 04 . ... ... ... : B-# 07 . ... ... ... : ... .. . ... ... ...
ROW 5B : ... .. . ... ... ... : ... .. . ... ... ... : ... .. . ... ... ... : ... .. . ... ... ... : ... .. . ... ... ...
ROW 5C : ... .. . ... ... ... : ... .. . ... ... ... : ... .. . ... ... ... : ... .. . ... ... ... : ... .. . ... ... ...
ROW 5D : ... .. . ... ... ... : ... .. . ... ... ... : ... .. . ... ... ... : --- .. . ... ... ... : ... .. . ... ... ...
ROW 5E : ... .. . ... ... ... : ... .. . ... ... ... : ... .. . ... ... ... : ... .. . ... ... ... : ... .. . ... ... ...
ROW 5F : ... .. . ... ... ... : ... .. . ... ... ... : ... .. . ... ... ... : ... .. . ... ... ... : ... .. . ... ... ...
ROW 60 : ... .. . ... ... ... : ... .. . ... ... ... : ... .. . ... ... ... : ... .. . ... ... ... : ... .. . ... ... ...
ROW 61 : ... .. . ... ... ... : ... .. . ... ... ... : ... .. . ... ... ... : ... .. . ... ... ... : ... .. . ... ... ...
ROW 62 : ... .. . ... ... ... : ... .. . ... ... ... : ... .. . ... ... ... : ... .. . ... ... ... : ... .. . ... ... ...
ROW 63 : ... .. . ... ... ... : ... .. . ... ... ... : --- .. . ... ... ... : ... .. . ... ... ... : ... .. . ... ... ...
ROW 64 : ... .. . ... ... ... : ... .. . ... ... ... : G#2 04 . ... ... ... : B-# 07 . ... ... ... : ... .. . ... ... ...
ROW 65 : ... .. . ... ... ... : ... .. . ... ... ... : ... .. . ... ... ... : ... .. . ... ... ... : ... .. . ... ... ...
ROW 66 : ... .. . ... ... ... : ... .. . ... ... ... : ... .. . ... ... ... : ... .. . ... ... ... : ... .. . ... ... ...
ROW 67 : ... .. . ... ... ... : ... .. . ... ... ... : ... .. . ... ... ... : --- .. . ... ... ... : ... .. . ... ... ...
ROW 68 : ... .. . ... ... ... : ... .. . ... ... ... : ... .. . ... ... ... : ... .. . ... ... ... : ... .. . ... ... ...
ROW 69 : ... .. . ... ... ... : ... .. . ... ... ... : ... .. . ... ... ... : ... .. . ... ... ... : ... .. . ... ... ...
ROW 6A : ... .. . ... ... ... : ... .. . ... ... ... : ... .. . ... ... ... : ... .. . ... ... ... : ... .. . ... ... ...
ROW 6B : ... .. . ... ... ... : ... .. . ... ... ... : ... .. . ... ... ... : ... .. . ... ... ... : ... .. . ... ... ...
ROW 6C : ... .. . ... ... ... : ... .. . ... ... ... : ... .. . ... ... ... : ... .. . ... ... ... : ... .. . ... ... ...
ROW 6D : ... .. . ... ... ... : ... .. . ... ... ... : --- .. . ... ... ... : ... .. . ... ... ... : ... .. . ... ... ...
ROW 6E : D#3 02 . ... ... ... : ... .. . ... ... ... : G#2 00 . ... ... ... : B-# 07 . ... ... ... : ... .. . ... ... ...
ROW 6F : ... .. . ... ... ... : ... .. . ... ... ... : ... .. . ... ... ... : ... .. . ... ... ... : ... .. . ... ... ...
ROW 70 : ... .. . ... ... ... : ... .. . ... ... ... : ... .. . ... ... ... : ... .. . ... ... ... : ... .. . ... ... ...
ROW 71 : ... .. . ... ... ... : ... .. . ... ... ... : ... .. . ... ... ... : --- .. . ... ... ... : ... .. . ... ... ...
ROW 72 : ... .. . ... ... ... : ... .. . ... ... ... : ... .. . ... ... ... : ... .. . ... ... ... : ... .. . ... ... ...
ROW 73 : ... .. . ... ... ... : ... .. . ... ... ... : ... .. . ... ... ... : ... .. . ... ... ... : ... .. . ... ... ...
ROW 74 : ... .. . ... ... ... : ... .. . ... ... ... : ... .. . ... ... ... : ... .. . ... ... ... : ... .. . ... ... ...
ROW 75 : ... .. . ... ... ... : ... .. . ... ... ... : ... .. . ... ... ... : ... .. . ... ... ... : ... .. . ... ... ...
ROW 76 : ... .. . ... ... ... : ... .. . ... ... ... : ... .. . ... ... ... : ... .. . ... ... ... : ... .. . ... ... ...
ROW 77 : ... .. . ... ... ... : ... .. . ... ... ... : --- .. . ... ... ... : ... .. . ... ... ... : ... .. . ... ... ...
ROW 78 : F-3 02 . ... ... ... : ... .. . ... ... ... : G#2 00 . ... ... ... : B-# 05 . ... ... ... : ... .. . ... ... ...
ROW 79 : ... .. . ... ... ... : ... .. . ... ... ... : ... .. . ... ... ... : ... .. . ... ... ... : ... .. . ... ... ...
ROW 7A : ... .. . ... ... ... : ... .. . ... ... ... : ... .. . ... ... ... : ... .. . ... ... ... : ... .. . ... ... ...
ROW 7B : ... .. . ... ... ... : ... .. . ... ... ... : ... .. . ... ... ... : ... .. . ... ... ... : ... .. . ... ... ...
ROW 7C : ... .. . ... ... ... : ... .. . ... ... ... : ... .. . ... ... ... : ... .. . ... ... ... : ... .. . ... ... ...
ROW 7D : ... .. . ... ... ... : ... .. . ... ... ... : ... .. . ... ... ... : ... .. . ... ... ... : ... .. . ... ... ...
ROW 7E : ... .. . ... ... ... : ... .. . ... ... ... : ... .. . ... ... ... : ... .. . ... ... ... : ... .. . ... ... ...
ROW 7F : ... .. . ... ... ... : ... .. . ... ... ... : ... .. . ... ... ... : ... .. . ... ... ... : ... .. . ... ... ...
ROW 80 : ... .. . ... ... ... : ... .. . ... ... ... : ... .. . ... ... ... : ... .. . ... ... ... : ... .. . ... ... ...
ROW 81 : ... .. . ... ... ... : ... .. . ... ... ... : --- .. . ... ... ... : --- .. . ... ... ... : ... .. . ... ... ...
ROW 82 : ... .. . ... ... ... : ... .. . ... ... ... : G#2 04 . ... ... ... : ... .. . ... ... ... : ... .. . ... ... ...
ROW 83 : ... .. . ... ... ... : ... .. . ... ... ... : ... .. . ... ... ... : ... .. . ... ... ... : ... .. . ... ... ...
ROW 84 : ... .. . ... ... ... : ... .. . ... ... ... : ... .. . ... ... ... : ... .. . ... ... ... : ... .. . ... ... ...
ROW 85 : ... .. . ... ... ... : ... .. . ... ... ... : ... .. . ... ... ... : ... .. . ... ... ... : ... .. . ... ... ...
ROW 86 : ... .. . ... ... ... : ... .. . ... ... ... : ... .. . ... ... ... : ... .. . ... ... ... : ... .. . ... ... ...
ROW 87 : ... .. . ... ... ... : ... .. . ... ... ... : ... .. . ... ... ... : ... .. . ... ... ... : ... .. . ... ... ...
ROW 88 : ... .. . ... ... ... : ... .. . ... ... ... : ... .. . ... ... ... : ... .. . ... ... ... : ... .. . ... ... ...
ROW 89 : ... .. . ... ... ... : ... .. . ... ... ... : ... .. . ... ... ... : ... .. . ... ... ... : ... .. . ... ... ...
ROW 8A : ... .. . ... ... ... : ... .. . ... ... ... : ... .. . ... ... ... : ... .. . ... ... ... : ... .. . ... ... ...
ROW 8B : ... .. . ... ... ... : ... .. . ... ... ... : --- .. . ... ... ... : ... .. . ... ... ... : ... .. . ... ... ...
ROW 8C : ... .. . ... ... ... : ... .. . ... ... ... : G#2 04 . ... ... ... : 3-# 06 . ... ... ... : ... .. . ... ... ...
ROW 8D : ... .. . ... ... ... : ... .. . ... ... ... : ... .. . ... ... ... : ... .. . ... ... ... : ... .. . ... ... ...
ROW 8E : ... .. . ... ... ... : ... .. . ... ... ... : ... .. . ... ... ... : --- .. . ... ... ... : ... .. . ... ... ...
ROW 8F : ... .. . ... ... ... : ... .. . ... ... ... : ... .. . ... ... ... : ... .. . ... ... ... : ... .. . ... ... ...
ROW 90 : ... .. . ... ... ... : ... .. . ... ... ... : ... .. . ... ... ... : ... .. . ... ... ... : ... .. . ... ... ...
ROW 91 : ... .. . ... ... ... : ... .. . ... ... ... : ... .. . ... ... ... : ... .. . ... ... ... : ... .. . ... ... ...
ROW 92 : ... .. . ... ... ... : ... .. . ... ... ... : ... .. . ... ... ... : ... .. . ... ... ... : ... .. . ... ... ...
ROW 93 : ... .. . ... ... ... : ... .. . ... ... ... : ... .. . ... ... ... : ... .. . ... ... ... : ... .. . ... ... ...
ROW 94 : ... .. . ... ... ... : ... .. . ... ... ... : ... .. . ... ... ... : ... .. . ... ... ... : ... .. . ... ... ...
ROW 95 : --- .. . ... ... ... : --- .. . ... ... ... : --- .. . ... ... ... : ... .. . ... ... ... : ... .. . ... ... ...
ROW 96 : F-3 02 . ... ... ... : G#2 04 . ... ... ... : G#2 04 . ... ... ... : 3-# 06 . ... ... ... : ... .. . ... ... ...
ROW 97 : ... .. . ... ... ... : ... .. . ... ... ... : ... .. . ... ... ... : ... .. . ... ... ... : ... .. . ... ... ...
ROW 98 : ... .. . ... ... ... : ... .. . ... ... ... : ... .. . ... ... ... : --- .. . ... ... ... : ... .. . ... ... ...
ROW 99 : ... .. . ... ... ... : ... .. . ... ... ... : ... .. . ... ... ... : ... .. . ... ... ... : ... .. . ... ... ...
ROW 9A : ... .. . ... ... ... : ... .. . ... ... ... : ... .. . ... ... ... : ... .. . ... ... ... : ... .. . ... ... ...
ROW 9B : ... .. . ... ... ... : ... .. . ... ... ... : ... .. . ... ... ... : ... .. . ... ... ... : ... .. . ... ... ...
ROW 9C : ... .. . ... ... ... : ... .. . ... ... ... : ... .. . ... ... ... : ... .. . ... ... ... : ... .. . ... ... ...
ROW 9D : ... .. . ... ... ... : ... .. . ... ... ... : ... .. . ... ... ... : ... .. . ... ... ... : ... .. . ... ... ...
ROW 9E : ... .. . ... ... ... : ... .. . ... ... ... : ... .. . ... ... ... : ... .. . ... ... ... : ... .. . ... ... ...
ROW 9F : ... .. . ... ... ... : ... .. . ... ... ... : --- .. . ... ... ... : ... .. . B00 ... ... : ... .. . ... ... ...

PATTERN 05
ROW 00 : G#3 02 . ... ... ... : A#2 04 . ... ... ... : A#2 00 . ... ... ... : ... .. . ... ... ... : ... .. . ... ... ...
ROW 01 : ... .. . ... ... ... : ... .. . ... ... ... : ... .. . ... ... ... : ... .. . ... ... ... : ... .. . ... ... ...
ROW 02 : ... .. . ... ... ... : ... .. . ... ... ... : ... .. . ... ... ... : ... .. . ... ... ... : ... .. . ... ... ...
ROW 03 : ... .. . ... ... ... : ... .. . ... ... ... : ... .. . ... ... ... : ... .. . ... ... ... : ... .. . ... ... ...
ROW 04 : ... .. . ... ... ... : ... .. . ... ... ... : ... .. . ... ... ... : ... .. . ... ... ... : ... .. . ... ... ...
ROW 05 : ... .. . ... ... ... : ... .. . ... ... ... : ... .. . ... ... ... : ... .. . ... ... ... : ... .. . ... ... ...
ROW 06 : ... .. . ... ... ... : ... .. . ... ... ... : ... .. . ... ... ... : ... .. . ... ... ... : ... .. . ... ... ...
ROW 07 : ... .. . ... ... ... : ... .. . ... ... ... : ... .. . ... ... ... : ... .. . ... ... ... : ... .. . ... ... ...
ROW 08 : ... .. . ... ... ... : ... .. . ... ... ... : ... .. . ... ... ... : ... .. . ... ... ... : ... .. . ... ... ...
ROW 09 : ... .. . ... ... ... : ... .. . ... ... ... : --- .. . ... ... ... : ... .. . ... ... ... : ... .. . ... ... ...
ROW 0A : ... .. . ... ... ... : ... .. . ... ... ... : F-3 04 . ... ... ... : ... .. . ... ... ... : ... .. . ... ... ...
ROW 0B : ... .. . ... ... ... : ... .. . ... ... ... : ... .. . ... ... ... : ... .. . ... ... ... : ... .. . ... ... ...
ROW 0C : ... .. . ... ... ... : ... .. . ... ... ... : ... .. . ... ... ... : ... .. . ... ... ... : ... .. . ... ... ...
ROW 0D : ... .. . ... ... ... : ... .. . ... ... ... : ... .. . ... ... ... : ... .. . ... ... ... : ... .. . ... ... ...
ROW 0E : ... .. . ... ... ... : ... .. . ... ... ... : ... .. . ... ... ... : ... .. . ... ... ... : ... .. . ... ... ...
ROW 0F : ... .. . ... ... ... : ... .. . ... ... ... : ... .. . ... ... ... : ... .. . ... ... ... : ... .. . ... ... ...
ROW 10 : ... .. . ... ... ... : ... .. . ... ... ... : ... .. . ... ... ... : ... .. . ... ... ... : ... .. . ... ... ...
ROW 11 : ... .. . ... ... ... : ... .. . ... ... ... : ... .. . ... ... ... : ... .. . ... ... ... : ... .. . ... ... ...
ROW 12 : ... .. . ... ... ... : ... .. . ... ... ... : ... .. . ... ... ... : ... .. . ... ... ... : ... .. . ... ... ...
ROW 13 : ... .. . ... ... ... : ... .. . ... ... ... : --- .. . ... ... ... : ... .. . ... ... ... : ... .. . ... ... ...
ROW 14 : ... .. . ... ... ... : C#3 04 . ... ... ... : A#2 04 . ... ... ... : ... .. . ... ... ... : ... .. . ... ... ...
ROW 15 : ... .. . ... ... ... : ... .. . ... ... ... : ... .. . ... ... ... : ... .. . ... ... ... : ... .. . ... ... ...
ROW 16 : ... .. . ... ... ... : ... .. . ... ... ... : ... .. . ... ... ... : ... .. . ... ... ... : ... .. . ... ... ...
ROW 17 : ... .. . ... ... ... : ... .. . ... ... ... : ... .. . ... ... ... : ... .. . ... ... ... : ... .. . ... ... ...
ROW 18 : ... .. . ... ... ... : ... .. . ... ... ... : ... .. . ... ... ... : ... .. . ... ... ... : ... .. . ... ... ...
ROW 19 : G#3 09 . Q54 ... ... : ... .. . ... ... ... : ... .. . ... ... ... : ... .. . ... ... ... : ... .. . ... ... ...
ROW 1A : ... .. . ... ... ... : ... .. . ... ... ... : ... .. . ... ... ... : ... .. . ... ... ... : ... .. . ... ... ...
ROW 1B : ... .. . ... ... ... : ... .. . ... ... ... : ... .. . ... ... ... : ... .. . ... ... ... : ... .. . ... ... ...
ROW 1C : ... .. . ... ... ... : ... .. . ... ... ... : ... .. . ... ... ... : ... .. . ... ... ... : ... .. . ... ... ...
ROW 1D : ... .. . ... ... ... : ... .. . ... ... ... : --- .. . ... ... ... : ... .. . ... ... ... : ... .. . ... ... ...
ROW 1E : C-4 03 . ... ... ... : C-3 04 . ... ... ... : G#2 00 . ... ... ... : ... .. . ... ... ... : ... .. . ... ... ...
ROW 1F : ... .. . ... ... ... : ... .. . ... ... ... : ... .. . ... ... ... : ... .. . ... ... ... : ... .. . ... ... ...
ROW 20 : ... .. . ... ... ... : ... .. . ... ... ... : ... .. . ... ... ... : ... .. . ... ... ... : ... .. . ... ... ...
ROW 21 : ... .. . ... ... ... : ... .. . ... ... ... : ... .. . ... ... ... : ... .. . ... ... ... : ... .. . ... ... ...
ROW 22 : ... .. . ... ... ... : ... .. . ... ... ... : ... .. . ... ... ... : ... .. . ... ... ... : ... .. . ... ... ...
ROW 23 : ... .. . ... ... ... : ... .. . ... ... ... : ... .. . ... ... ... : ... .. . ... ... ... : ... .. . ... ... ...
ROW 24 : ... .. . ... ... ... : ... .. . ... ... ... : ... .. . ... ... ... : ... .. . ... ... ... : ... .. . ... ... ...
ROW 25 : ... .. . ... ... ... : ... .. . ... ... ... : ... .. . ... ... ... : ... .. . ... ... ... : ... .. . ... ... ...
ROW 26 : ... .. . ... ... ... : ... .. . ... ... ... : ... .. . ... ... ... : ... .. . ... ... ... : ... .. . ... ... ...
ROW 27 : ... .. . ... ... ... : ... .. . ... ... ... : --- .. . ... ... ... : ... .. . ... ... ... : ... .. . ... ... ...
ROW 28 : ... .. . ... ... ... : A#2 04 . ... ... ... : A#2 00 . ... ... ... : ... .. . ... ... ... : ... .. . ... ... ...
ROW 29 : ... .. . ... ... ... : ... .. . ... ... ... : ... .. . ... ... ... : ... .. . ... ... ... : ... .. . ... ... ...
ROW 2A : ... .. . ... ... ... : ... .. . ... ... ... : ... .. . ... ... ... : ... .. . ... ... ... : ... .. . ... ... ...
ROW 2B : ... .. . ... ... ... : ... .. . ... ... ... : ... .. . ... ... ... : ... .. . ... ... ... : ... .. . ... ... ...
ROW 2C : ... .. . ... ... ... : ... .. . ... ... ... : ... .. . ... ... ... : ... .. . ... ... ... : ... .. . ... ... ...
ROW 2D : ... .. . ... ... ... : ... .. . ... ... ... : ... .. . ... ... ... : ... .. . ... ... ... : ... .. . ... ... ...
ROW 2E : ... .. . ... ... ... : ... .. . ... ... ... : ... .. . ... ... ... : ... .. . ... ... ... : ... .. . ... ... ...
ROW 2F : ... .. . ... ... ... : ... .. . ... ... ... : ... .. . ... ... ... : ... .. . ... ... ... : ... .. . ... ... ...
ROW 30 : ... .. . ... ... ... : ... .. . ... ... ... : ... .. . ... ... ... : ... .. . ... ... ... : ... .. . ... ... ...
ROW 31 : ... .. . ... ... ... : ... .. . ... ... ... : --- .. . ... ... ... : ... .. . ... ... ... : ... .. . ... ... ...
ROW 32 : ... .. . ... ... ... : ... .. . ... ... ... : A#2 04 . ... ... ... : ... .. . ... ... ... : ... .. . ... ... ...
ROW 33 : ... .. . ... ... ... : ... .. . ... ... ... : ... .. . ... ... ... : ... .. . ... ... ... : ... .. . ... ... ...
ROW 34 : ... .. . ... ... ... : ... .. . ... ... ... : ... .. . ... ... ... : ... .. . ... ... ... : ... .. . ... ... ...
ROW 35 : ... .. . ... ... ... : ... .. . ... ... ... : ... .. . ... ... ... : ... .. . ... ... ... : ... .. . ... ... ...
ROW 36 : ... .. . ... ... ... : ... .. . ... ... ... : ... .. . ... ... ... : ... .. . ... ... ... : ... .. . ... ... ...
ROW 37 : ... .. . ... ... ... : ... .. . ... ... ... : ... .. . ... ... ... : ... .. . ... ... ... : ... .. . ... ... ...
ROW 38 : ... .. . ... ... ... : ... .. . ... ... ... : ... .. . ... ... ... : ... .. . ... ... ... : ... .. . ... ... ...
ROW 39 : ... .. . ... ... ... : ... .. . ... ... ... : ... .. . ... ... ... : ... .. . ... ... ... : ... .. . ... ... ...
ROW 3A : ... .. . ... ... ... : ... .. . ... ... ... : ... .. . ... ... ... : ... .. . ... ... ... : ... .. . ... ... ...
ROW 3B : ... .. . ... ... ... : ... .. . ... ... ... : --- .. . ... ... ... : ... .. . ... ... ... : ... .. . ... ... ...
ROW 3C : G#3 02 . ... ... ... : ... .. . ... ... ... : A#2 04 . ... ... ... : ... .. . ... ... ... : ... .. . ... ... ...
ROW 3D : ... .. . ... ... ... : ... .. . ... ... ... : ... .. . ... ... ... : ... .. . ... ... ... : ... .. . ... ... ...
ROW 3E : ... .. . ... ... ... : ... .. . ... ... ... : ... .. . ... ... ... : ... .. . ... ... ... : ... .. . ... ... ...
ROW 3F : ... .. . ... ... ... : ... .. . ... ... ... : ... .. . ... ... ... : ... .. . ... ... ... : ... .. . ... ... ...
ROW 40 : ... .. . ... ... ... : ... .. . ... ... ... : ... .. . ... ... ... : ... .. . ... ... ... : ... .. . ... ... ...
ROW 41 : ... .. . ... ... ... : ... .. . ... ... ... : ... .. . ... ... ... : ... .. . ... ... ... : ... .. . ... ... ...
ROW 42 : ... .. . ... ... ... : ... .. . ... ... ... : ... .. . ... ... ... : ... .. . ... ... ... : ... .. . ... ... ...
ROW 43 : ... .. . ... ... ... : ... .. . ... ... ... : ... .. . ... ... ... : ... .. . ... ... ... : ... .. . ... ... ...
ROW 44 : ... .. . ... ... ... : ... .. . ... ... ... : ... .. . ... ... ... : ... .. . ... ... ... : ... .. . ... ... ...
ROW 45 : ... .. . ... ... ... : ... .. . ... ... ... : --- .. . ... ... ... : ... .. . ... ... ... : ... .. . ... ... ...
ROW 46 : ... .. . ... ... ... : A#2 04 . ... ... ... : A#2 04 . ... ... ... : ... .. . ... ... ... : ... .. . ... ... ...
ROW 47 : ... .. . ... ... ... : ... .. . ... ... ... : ... .. . ... ... ... : ... .. . ... ... ... : ... .. . ... ... ...
ROW 48 : ... .. . ... ... ... : ... .. . ... ... ... : ... .. . ... ... ... : ... .. . ... ... ... : ... .. . ... ... ...
ROW 49 : ... .. . ... ... ... : ... .. . ... ... ... : ... .. . ... ... ... : ... .. . ... ... ... : ... .. . ... ... ...
ROW 4A : ... .. . ... ... ... : ... .. . ... ... ... : ... .. . ... ... ... : ... .. . ... ... ... : ... .. . ... ... ...
ROW 4B : ... .. . ... ... ... : ... .. . ... ... ... : ... .. . ... ... ... : ... .. . ... ... ... : ... .. . ... ... ...
ROW 4C : ... .. . ... ... ... : ... .. . ... ... ... : ... .. . ... ... ... : ... .. . ... ... ... : ... .. . ... ... ...
ROW 4D : ... .. . ... ... ... : ... .. . ... ... ... : ... .. . ... ... ... : ... .. . ... ... ... : ... .. . ... ... ...
ROW 4E : ... .. . ... ... ... : ... .. . ... ... ... : ... .. . ... ... ... : ... .. . ... ... ... : ... .. . ... ... ...
ROW 4F : ... .. . ... ... ... : ... .. . ... ... ... : --- .. . ... ... ... : ... .. . ... ... ... : ... .. . ... ... ...
ROW 50 : D#3 02 . ... ... ... : G#2 04 . ... ... ... : A#2 00 . ... ... ... : ... .. . ... ... ... : ... .. . ... ... ...
ROW 51 : ... .. . ... ... ... : ... .. . ... ... ... : ... .. . ... ... ... : ... .. . ... ... ... : ... .. . ... ... ...
ROW 52 : ... .. . ... ... ... : ... .. . ... ... ... : ... .. . ... ... ... : ... .. . ... ... ... : ... .. . ... ... ...
ROW 53 : ... .. . ... ... ... : ... .. . ... ... ... : ... .. . ... ... ... : ... .. . ... ... ... : ... .. . ... ... ...
ROW 54 : ... .. . ... ... ... : ... .. . ... ... ... : ... .. . ... ... ... : ... .. . ... ... ... : ... .. . ... ... ...
ROW 55 : ... .. . ... ... ... : ... .. . ... ... ... : ... .. . ... ... ... : ... .. . ... ... ... : ... .. . ... ... ...
ROW 56 : ... .. . ... ... ... : ... .. . ... ... ... : ... .. . ... ... ... : ... .. . ... ... ... : ... .. . ... ... ...
ROW 57 : ... .. . ... ... ... : ... .. . ... ... ... : ... .. . ... ... ... : ... .. . ... ... ... : ... .. . ... ... ...
ROW 58 : ... .. . ... ... ... : ... .. . ... ... ... : ... .. . ... ... ... : ... .. . ... ... ... : ... .. . ... ... ...
ROW 59 : ... .. . ... ... ... : ... .. . ... ... ... : --- .. . ... ... ... : ... .. . ... ... ... : ... .. . ... ... ...
ROW 5A : ... .. . ... ... ... : ... .. . ... ... ... : F#3 04 . ... ... ... : ... .. . ... ... ... : ... .. . ... ... ...
ROW 5B : ... .. . ... ... ... : ... .. . ... ... ... : ... .. . ... ... ... : ... .. . ... ... ... : ... .. . ... ... ...
ROW 5C : ... .. . ... ... ... : ... .. . ... ... ... : ... .. . ... ... ... : ... .. . ... ... ... : ... .. . ... ... ...
ROW 5D : ... .. . ... ... ... : ... .. . ... ... ... : ... .. . ... ... ... : ... .. . ... ... ... : ... .. . ... ... ...
ROW 5E : ... .. . ... ... ... : ... .. . ... ... ... : ... .. . ... ... ... : ... .. . ... ... ... : ... .. . ... ... ...
ROW 5F : ... .. . ... ... ... : ... .. . ... ... ... : ... .. . ... ... ... : ... .. . ... ... ... : ... .. . ... ... ...
ROW 60 : ... .. . ... ... ... : ... .. . ... ... ... : ... .. . ... ... ... : ... .. . ... ... ... : ... .. . ... ... ...
ROW 61 : ... .. . ... ... ... : ... .. . ... ... ... : ... .. . ... ... ... : ... .. . ... ... ... : ... .. . ... ... ...
ROW 62 : ... .. . ... ... ... : ... .. . ... ... ... : ... .. . ... ... ... : ... .. . ... ... ... : ... .. . ... ... ...
ROW 63 : ... .. . ... ... ... : ... .. . ... ... ... : --- .. . ... ... ... : ... .. . ... ... ... : ... .. . ... ... ...
ROW 64 : ... .. . ... ... ... : ... .. . ... ... ... : A#2 04 . ... ... ... : ... .. . ... ... ... : ... .. . ... ... ...
ROW 65 : ... .. . ... ... ... : ... .. . ... ... ... : ... .. . ... ... ... : ... .. . ... ... ... : ... .. . ... ... ...
ROW 66 : ... .. . ... ... ... : ... .. . ... ... ... : ... .. . ... ... ... : ... .. . ... ... ... : ... .. . ... ... ...
ROW 67 : ... .. . ... ... ... : ... .. . ... ... ... : ... .. . ... ... ... : ... .. . ... ... ... : ... .. . ... ... ...
ROW 68 : ... .. . ... ... ... : ... .. . ... ... ... : ... .. . ... ... ... : ... .. . ... ... ... : ... .. . ... ... ...
ROW 69 : ... .. . ... ... ... : ... .. . ... ... ... : ... .. . ... ... ... : ... .. . ... ... ... : ... .. . ... ... ...
ROW 6A : ... .. . ... ... ... : ... .. . ... ... ... : ... .. . ... ... ... : ... .. . ... ... ... : ... .. . ... ... ...
ROW 6B : ... .. . ... ... ... : ... .. . ... ... ... : ... .. . ... ... ... : ... .. . ... ... ... : ... .. . ... ... ...
ROW 6C : ... .. . ... ... ... : ... .. . ... ... ... : ... .. . ... ... ... : ... .. . ... ... ... : ... .. . ... ... ...
ROW 6D : ... .. . ... ... ... : ... .. . ... ... ... : --- .. . ... ... ... : ... .. . ... ... ... : ... .. . ... ... ...
ROW 6E : ... .. . ... ... ... : F#2 04 . ... ... ... : G#2 00 . ... ... ... : ... .. . ... ... ... : ... .. . ... ... ...
ROW 6F : ... .. . ... ... ... : ... .. . ... ... ... : ... .. . ... ... ... : ... .. . ... ... ... : ... .. . ... ... ...
ROW 70 : ... .. . ... ... ... : ... .. . ... ... ... : ... .. . ... ... ... : ... .. . ... ... ... : ... .. . ... ... ...
ROW 71 : ... .. . ... ... ... : ... .. . ... ... ... : ... .. . ... ... ... : ... .. . ... ... ... : ... .. . ... ... ...
ROW 72 : ... .. . ... ... ... : ... .. . ... ... ... : ... .. . ... ... ... : ... .. . ... ... ... : ... .. . ... ... ...
ROW 73 : ... .. . ... ... ... : ... .. . ... ... ... : ... .. . ... ... ... : ... .. . ... ... ... : ... .. . ... ... ...
ROW 74 : ... .. . ... ... ... : ... .. . ... ... ... : ... .. . ... ... ... : ... .. . ... ... ... : ... .. . ... ... ...
ROW 75 : ... .. . ... ... ... : ... .. . ... ... ... : ... .. . ... ... ... : ... .. . ... ... ... : ... .. . ... ... ...
ROW 76 : ... .. . ... ... ... : ... .. . ... ... ... : ... .. . ... ... ... : ... .. . ... ... ... : ... .. . ... ... ...
ROW 77 : ... .. . ... ... ... : ... .. . ... ... ... : --- .. . ... ... ... : ... .. . ... ... ... : ... .. . ... ... ...
ROW 78 : ... .. . ... ... ... : G#2 04 . ... ... ... : A#2 00 . ... ... ... : ... .. . ... ... ... : ... .. . ... ... ...
ROW 79 : ... .. . ... ... ... : ... .. . ... ... ... : ... .. . ... ... ... : ... .. . ... ... ... : ... .. . ... ... ...
ROW 7A : ... .. . ... ... ... : ... .. . ... ... ... : ... .. . ... ... ... : ... .. . ... ... ... : ... .. . ... ... ...
ROW 7B : ... .. . ... ... ... : ... .. . ... ... ... : ... .. . ... ... ... : ... .. . ... ... ... : ... .. . ... ... ...
ROW 7C : ... .. . ... ... ... : ... .. . ... ... ... : ... .. . ... ... ... : ... .. . ... ... ... : ... .. . ... ... ...
ROW 7D : ... .. . ... ... ... : ... .. . ... ... ... : ... .. . ... ... ... : ... .. . ... ... ... : ... .. . ... ... ...
ROW 7E : ... .. . ... ... ... : ... .. . ... ... ... : ... .. . ... ... ... : ... .. . ... ... ... : ... .. . ... ... ...
ROW 7F : ... .. . ... ... ... : ... .. . ... ... ... : ... .. . ... ... ... : ... .. . ... ... ... : ... .. . ... ... ...
ROW 80 : ... .. . ... ... ... : ... .. . ... ... ... : ... .. . ... ... ... : ... .. . ... ... ... : ... .. . ... ... ...
ROW 81 : ... .. . ... ... ... : ... .. . ... ... ... : --- .. . ... ... ... : ... .. . ... ... ... : ... .. . ... ... ...
ROW 82 : ... .. . ... ... ... : ... .. . ... ... ... : A#2 04 . ... ... ... : ... .. . ... ... ... : ... .. . ... ... ...
ROW 83 : ... .. . ... ... ... : ... .. . ... ... ... : ... .. . ... ... ... : ... .. . ... ... ... : ... .. . ... ... ...
ROW 84 : ... .. . ... ... ... : ... .. . ... ... ... : ... .. . ... ... ... : ... .. . ... ... ... : ... .. . ... ... ...
ROW 85 : ... .. . ... ... ... : ... .. . ... ... ... : ... .. . ... ... ... : ... .. . ... ... ... : ... .. . ... ... ...
ROW 86 : ... .. . ... ... ... : ... .. . ... ... ... : ... .. . ... ... ... : ... .. . ... ... ... : ... .. . ... ... ...
ROW 87 : ... .. . ... ... ... : ... .. . ... ... ... : ... .. . ... ... ... : ... .. . ... ... ... : ... .. . ... ... ...
ROW 88 : ... .. . ... ... ... : ... .. . ... ... ... : ... .. . ... ... ... : ... .. . ... ... ... : ... .. . ... ... ...
ROW 89 : ... .. . ... ... ... : ... .. . ... ... ... : ... .. . ... ... ... : ... .. . ... ... ... : ... .. . ... ... ...
ROW 8A : ... .. . ... ... ... : ... .. . ... ... ... : ... .. . ... ... ... : ... .. . ... ... ... : ... .. . ... ... ...
ROW 8B : ... .. . ... ... ... : ... .. . ... ... ... : --- .. . ... ... ... : ... .. . ... ... ... : ... .. . ... ... ...
ROW 8C : ... .. . ... ... ... : ... .. . ... ... ... : A#2 04 . ... ... ... : ... .. . ... ... ... : ... .. . ... ... ...
ROW 8D : ... .. . ... ... ... : ... .. . ... ... ... : ... .. . ... ... ... : ... .. . ... ... ... : ... .. . ... ... ...
ROW 8E : ... .. . ... ... ... : ... .. . ... ... ... : ... .. . ... ... ... : ... .. . ... ... ... : ... .. . ... ... ...
ROW 8F : ... .. . ... ... ... : ... .. . ... ... ... : ... .. . ... ... ... : ... .. . ... ... ... : ... .. . ... ... ...
ROW 90 : ... .. . ... ... ... : ... .. . ... ... ... : ... .. . ... ... ... : ... .. . ... ... ... : ... .. . ... ... ...
ROW 91 : ... .. . ... ... ... : ... .. . ... ... ... : ... .. . ... ... ... : ... .. . ... ... ... : ... .. . ... ... ...
ROW 92 : ... .. . ... ... ... : ... .. . ... ... ... : ... .. . ... ... ... : ... .. . ... ... ... : ... .. . ... ... ...
ROW 93 : ... .. . ... ... ... : ... .. . ... ... ... : ... .. . ... ... ... : ... .. . ... ... ... : ... .. . ... ... ...
ROW 94 : ... .. . ... ... ... : ... .. . ... ... ... : ... .. . ... ... ... : ... .. . ... ... ... : ... .. . ... ... ...
ROW 95 : --- .. . ... ... ... : --- .. . ... ... ... : --- .. . ... ... ... : ... .. . ... ... ... : ... .. . ... ... ...
ROW 96 : D#3 02 . ... ... ... : G#2 04 . ... ... ... : A#2 04 . ... ... ... : ... .. . ... ... ... : ... .. . ... ... ...
ROW 97 : ... .. . ... ... ... : ... .. . ... ... ... : ... .. . ... ... ... : ... .. . ... ... ... : ... .. . ... ... ...
ROW 98 : ... .. . ... ... ... : ... .. . ... ... ... : ... .. . ... ... ... : ... .. . ... ... ... : ... .. . ... ... ...
ROW 99 : ... .. . ... ... ... : ... .. . ... ... ... : ... .. . ... ... ... : ... .. . ... ... ... : ... .. . ... ... ...
ROW 9A : ... .. . ... ... ... : ... .. . ... ... ... : ... .. . ... ... ... : ... .. . ... ... ... : ... .. . ... ... ...
ROW 9B : ... .. . ... ... ... : ... .. . ... ... ... : ... .. . ... ... ... : ... .. . ... ... ... : ... .. . ... ... ...
ROW 9C : ... .. . ... ... ... : ... .. . ... ... ... : ... .. . ... ... ... : ... .. . ... ... ... : ... .. . ... ... ...
ROW 9D : ... .. . ... ... ... : ... .. . ... ... ... : ... .. . ... ... ... : ... .. . ... ... ... : ... .. . ... ... ...
ROW 9E : ... .. . ... ... ... : ... .. . ... ... ... : ... .. . ... ... ... : ... .. . ... ... ... : ... .. . ... ... ...
ROW 9F : ... .. . ... ... ... : ... .. . ... ... ... : --- .. . ... ... ... : ... .. . ... ... ... : ... .. . ... ... ...

PATTERN 06
ROW 00 : F#3 02 . ... ... ... : G#2 04 . ... ... ... : G#2 00 . ... ... ... : ... .. . ... ... ... : ... .. . ... ... ...
ROW 01 : ... .. . ... ... ... : ... .. . ... ... ... : ... .. . ... ... ... : ... .. . ... ... ... : ... .. . ... ... ...
ROW 02 : ... .. . ... ... ... : ... .. . ... ... ... : ... .. . ... ... ... : ... .. . ... ... ... : ... .. . ... ... ...
ROW 03 : ... .. . ... ... ... : ... .. . ... ... ... : ... .. . ... ... ... : ... .. . ... ... ... : ... .. . ... ... ...
ROW 04 : ... .. . ... ... ... : ... .. . ... ... ... : ... .. . ... ... ... : ... .. . ... ... ... : ... .. . ... ... ...
ROW 05 : ... .. . ... ... ... : ... .. . ... ... ... : ... .. . ... ... ... : ... .. . ... ... ... : ... .. . ... ... ...
ROW 06 : ... .. . ... ... ... : ... .. . ... ... ... : ... .. . ... ... ... : ... .. . ... ... ... : ... .. . ... ... ...
ROW 07 : ... .. . ... ... ... : ... .. . ... ... ... : ... .. . ... ... ... : ... .. . ... ... ... : ... .. . ... ... ...
ROW 08 : ... .. . ... ... ... : ... .. . ... ... ... : ... .. . ... ... ... : ... .. . ... ... ... : ... .. . ... ... ...
ROW 09 : ... .. . ... ... ... : ... .. . ... ... ... : --- .. . ... ... ... : ... .. . ... ... ... : ... .. . ... ... ...
ROW 0A : ... .. . ... ... ... : ... .. . ... ... ... : D#3 04 . ... ... ... : ... .. . ... ... ... : ... .. . ... ... ...
ROW 0B : ... .. . ... ... ... : ... .. . ... ... ... : ... .. . ... ... ... : ... .. . ... ... ... : ... .. . ... ... ...
ROW 0C : ... .. . ... ... ... : ... .. . ... ... ... : ... .. . ... ... ... : ... .. . ... ... ... : ... .. . ... ... ...
ROW 0D : ... .. . ... ... ... : ... .. . ... ... ... : ... .. . ... ... ... : ... .. . ... ... ... : ... .. . ... ... ...
ROW 0E : ... .. . ... ... ... : ... .. . ... ... ... : ... .. . ... ... ... : ... .. . ... ... ... : ... .. . ... ... ...
ROW 0F : ... .. . ... ... ... : ... .. . ... ... ... : ... .. . ... ... ... : ... .. . ... ... ... : ... .. . ... ... ...
ROW 10 : ... .. . ... ... ... : ... .. . ... ... ... : ... .. . ... ... ... : ... .. . ... ... ... : ... .. . ... ... ...
ROW 11 : ... .. . ... ... ... : ... .. . ... ... ... : ... .. . ... ... ... : ... .. . ... ... ... : ... .. . ... ... ...
ROW 12 : ... .. . ... ... ... : ... .. . ... ... ... : ... .. . ... ... ... : ... .. . ... ... ... : ... .. . ... ... ...
ROW 13 : ... .. . ... ... ... : ... .. . ... ... ... : --- .. . ... ... ... : ... .. . ... ... ... : ... .. . ... ... ...
ROW 14 : A#3 02 . ... ... ... : ... .. . ... ... ... : G#2 04 . ... ... ... : ... .. . ... ... ... : ... .. . ... ... ...
ROW 15 : ... .. . ... ... ... : ... .. . ... ... ... : ... .. . ... ... ... : ... .. . ... ... ... : ... .. . ... ... ...
ROW 16 : ... .. . ... ... ... : ... .. . ... ... ... : ... .. . ... ... ... : ... .. . ... ... ... : ... .. . ... ... ...
ROW 17 : ... .. . ... ... ... : ... .. . ... ... ... : ... .. . ... ... ... : ... .. . ... ... ... : ... .. . ... ... ...
ROW 18 : ... .. . ... ... ... : ... .. . ... ... ... : ... .. . ... ... ... : ... .. . ... ... ... : ... .. . ... ... ...
ROW 19 : ... .. . ... ... ... : ... .. . ... ... ... : ... .. . ... ... ... : ... .. . ... ... ... : ... .. . ... ... ...
ROW 1A : ... .. . ... ... ... : ... .. . ... ... ... : ... .. . ... ... ... : ... .. . ... ... ... : ... .. . ... ... ...
ROW 1B : ... .. . ... ... ... : ... .. . ... ... ... : ... .. . ... ... ... : ... .. . ... ... ... : ... .. . ... ... ...
ROW 1C : ... .. . ... ... ... : ... .. . ... ... ... : ... .. . ... ... ... : ... .. . ... ... ... : ... .. . ... ... ...
ROW 1D : ... .. . ... ... ... : ... .. . ... ... ... : --- .. . ... ... ... : ... .. . ... ... ... : ... .. . ... ... ...
ROW 1E : G#3 02 . ... ... ... : D#2 04 . ... ... ... : G#2 00 . ... ... ... : ... .. . ... ... ... : ... .. . ... ... ...
ROW 1F : ... .. . ... ... ... : ... .. . ... ... ... : ... .. . ... ... ... : ... .. . ... ... ... : ... .. . ... ... ...
ROW 20 : ... .. . ... ... ... : ... .. . ... ... ... : ... .. . ... ... ... : ... .. . ... ... ... : ... .. . ... ... ...
ROW 21 : ... .. . ... ... ... : ... .. . ... ... ... : ... .. . ... ... ... : ... .. . ... ... ... : ... .. . ... ... ...
ROW 22 : ... .. . ... ... ... : ... .. . ... ... ... : ... .. . ... ... ... : ... .. . ... ... ... : ... .. . ... ... ...
ROW 23 : ... .. . ... ... ... : ... .. . ... ... ... : ... .. . ... ... ... : ... .. . ... ... ... : ... .. . ... ... ...
ROW 24 : ... .. . ... ... ... : ... .. . ... ... ... : ... .. . ... ... ... : ... .. . ... ... ... : ... .. . ... ... ...
ROW 25 : ... .. . ... ... ... : ... .. . ... ... ... : ... .. . ... ... ... : ... .. . ... ... ... : ... .. . ... ... ...
ROW 26 : ... .. . ... ... ... : ... .. . ... ... ... : ... .. . ... ... ... : ... .. . ... ... ... : ... .. . ... ... ...
ROW 27 : ... .. . ... ... ... : ... .. . ... ... ... : --- .. . ... ... ... : ... .. . ... ... ... : ... .. . ... ... ...
ROW 28 : F#3 02 . ... ... ... : ... .. . ... ... ... : G#2 00 . ... ... ... : ... .. . ... ... ... : ... .. . ... ... ...
ROW 29 : ... .. . ... ... ... : ... .. . ... ... ... : ... .. . ... ... ... : ... .. . ... ... ... : ... .. . ... ... ...
ROW 2A : ... .. . ... ... ... : ... .. . ... ... ... : ... .. . ... ... ... : ... .. . ... ... ... : ... .. . ... ... ...
ROW 2B : ... .. . ... ... ... : ... .. . ... ... ... : ... .. . ... ... ... : ... .. . ... ... ... : ... .. . ... ... ...
ROW 2C : ... .. . ... ... ... : ... .. . ... ... ... : ... .. . ... ... ... : ... .. . ... ... ... : ... .. . ... ... ...
ROW 2D : ... .. . ... ... ... : ... .. . ... ... ... : ... .. . ... ... ... : ... .. . ... ... ... : ... .. . ... ... ...
ROW 2E : ... .. . ... ... ... : ... .. . ... ... ... : ... .. . ... ... ... : ... .. . ... ... ... : ... .. . ... ... ...
ROW 2F : ... .. . ... ... ... : ... .. . ... ... ... : ... .. . ... ... ... : ... .. . ... ... ... : ... .. . ... ... ...
ROW 30 : ... .. . ... ... ... : ... .. . ... ... ... : ... .. . ... ... ... : ... .. . ... ... ... : ... .. . ... ... ...
ROW 31 : ... .. . ... ... ... : ... .. . ... ... ... : --- .. . ... ... ... : ... .. . ... ... ... : ... .. . ... ... ...
ROW 32 : ... .. . ... ... ... : ... .. . ... ... ... : G#2 04 . ... ... ... : ... .. . ... ... ... : ... .. . ... ... ...
ROW 33 : ... .. . ... ... ... : ... .. . ... ... ... : ... .. . ... ... ... : ... .. . ... ... ... : ... .. . ... ... ...
ROW 34 : ... .. . ... ... ... : ... .. . ... ... ... : ... .. . ... ... ... : ... .. . ... ... ... : ... .. . ... ... ...
ROW 35 : ... .. . ... ... ... : ... .. . ... ... ... : ... .. . ... ... ... : ... .. . ... ... ... : ... .. . ... ... ...
ROW 36 : ... .. . ... ... ... : ... .. . ... ... ... : ... .. . ... ... ... : ... .. . ... ... ... : ... .. . ... ... ...
ROW 37 : ... .. . ... ... ... : ... .. . ... ... ... : ... .. . ... ... ... : ... .. . ... ... ... : ... .. . ... ... ...
ROW 38 : ... .. . ... ... ... : ... .. . ... ... ... : ... .. . ... ... ... : ... .. . ... ... ... : ... .. . ... ... ...
ROW 39 : ... .. . ... ... ... : ... .. . ... ... ... : ... .. . ... ... ... : ... .. . ... ... ... : ... .. . ... ... ...
ROW 3A : ... .. . ... ... ... : ... .. . ... ... ... : ... .. . ... ... ... : ... .. . ... ... ... : ... .. . ... ... ...
ROW 3B : ... .. . ... ... ... : ... .. . ... ... ... : --- .. . ... ... ... : ... .. . ... ... ... : ... .. . ... ... ...
ROW 3C : ... .. . ... ... ... : G#2 04 . ... ... ... : G#2 04 . ... ... ... : ... .. . ... ... ... : ... .. . ... ... ...
ROW 3D : ... .. . ... ... ... : ... .. . ... ... ... : ... .. . ... ... ... : ... .. . ... ... ... : ... .. . ... ... ...
ROW 3E : ... .. . ... ... ... : ... .. . ... ... ... : ... .. . ... ... ... : ... .. . ... ... ... : ... .. . ... ... ...
ROW 3F : ... .. . ... ... ... : ... .. . ... ... ... : ... .. . ... ... ... : ... .. . ... ... ... : ... .. . ... ... ...
ROW 40 : ... .. . ... ... ... : ... .. . ... ... ... : ... .. . ... ... ... : ... .. . ... ... ... : ... .. . ... ... ...
ROW 41 : ... .. . ... ... ... : ... .. . ... ... ... : ... .. . ... ... ... : ... .. . ... ... ... : ... .. . ... ... ...
ROW 42 : ... .. . ... ... ... : ... .. . ... ... ... : ... .. . ... ... ... : ... .. . ... ... ... : ... .. . ... ... ...
ROW 43 : ... .. . ... ... ... : ... .. . ... ... ... : ... .. . ... ... ... : ... .. . ... ... ... : ... .. . ... ... ...
ROW 44 : ... .. . ... ... ... : ... .. . ... ... ... : ... .. . ... ... ... : ... .. . ... ... ... : ... .. . ... ... ...
ROW 45 : ... .. . ... ... ... : ... .. . ... ... ... : --- .. . ... ... ... : ... .. . ... ... ... : ... .. . ... ... ...
ROW 46 : C#3 02 . ... ... ... : ... .. . ... ... ... : G#2 04 . ... ... ... : ... .. . ... ... ... : ... .. . ... ... ...
ROW 47 : ... .. . ... ... ... : ... .. . ... ... ... : ... .. . ... ... ... : ... .. . ... ... ... : ... .. . ... ... ...
ROW 48 : ... .. . ... ... ... : ... .. . ... ... ... : ... .. . ... ... ... : ... .. . ... ... ... : ... .. . ... ... ...
ROW 49 : ... .. . ... ... ... : ... .. . ... ... ... : ... .. . ... ... ... : ... .. . ... ... ... : ... .. . ... ... ...
ROW 4A : ... .. . ... ... ... : ... .. . ... ... ... : ... .. . ... ... ... : ... .. . ... ... ... : ... .. . ... ... ...
ROW 4B : ... .. . ... ... ... : ... .. . ... ... ... : ... .. . ... ... ... : ... .. . ... ... ... : ... .. . ... ... ...
ROW 4C : ... .. . ... ... ... : ... .. . ... ... ... : ... .. . ... ... ... : ... .. . ... ... ... : ... .. . ... ... ...
ROW 4D : ... .. . ... ... ... : ... .. . ... ... ... : ... .. . ... ... ... : ... .. . ... ... ... : ... .. . ... ... ...
ROW 4E : ... .. . ... ... ... : ... .. . ... ... ... : ... .. . ... ... ... : ... .. . ... ... ... : ... .. . ... ... ...
ROW 4F : ... .. . ... ... ... : ... .. . ... ... ... : --- .. . ... ... ... : ... .. . ... ... ... : ... .. . ... ... ...
ROW 50 : C-3 02 . ... ... ... : C-3 04 . ... ... ... : F-2 00 . ... ... ... : ... .. . ... ... ... : ... .. . ... ... ...
ROW 51 : ... .. . ... ... ... : ... .. . ... ... ... : ... .. . ... ... ... : ... .. . ... ... ... : ... .. . ... ... ...
ROW 52 : ... .. . ... ... ... : ... .. . ... ... ... : ... .. . ... ... ... : ... .. . ... ... ... : ... .. . ... ... ...
ROW 53 : ... .. . ... ... ... : ... .. . ... ... ... : ... .. . ... ... ... : ... .. . ... ... ... : ... .. . ... ... ...
ROW 54 : ... .. . ... ... ... : ... .. . ... ... ... : ... .. . ... ... ... : ... .. . ... ... ... : ... .. . ... ... ...
ROW 55 : ... .. . ... ... ... : ... .. . ... ... ... : ... .. . ... ... ... : ... .. . ... ... ... : ... .. . ... ... ...
ROW 56 : ... .. . ... ... ... : ... .. . ... ... ... : ... .. . ... ... ... : ... .. . ... ... ... : ... .. . ... ... ...
ROW 57 : ... .. . ... ... ... : ... .. . ... ... ... : ... .. . ... ... ... : ... .. . ... ... ... : ... .. . ... ... ...
ROW 58 : ... .. . ... ... ... : ... .. . ... ... ... : ... .. . ... ... ... : ... .. . ... ... ... : ... .. . ... ... ...
ROW 59 : ... .. . ... ... ... : ... .. . ... ... ... : --- .. . ... ... ... : ... .. . ... ... ... : ... .. . ... ... ...
ROW 5A : ... .. . ... ... ... : ... .. . ... ... ... : F-3 04 . ... ... ... : ... .. . ... ... ... : ... .. . ... ... ...
ROW 5B : ... .. . ... ... ... : ... .. . ... ... ... : ... .. . ... ... ... : ... .. . ... ... ... : ... .. . ... ... ...
ROW 5C : ... .. . ... ... ... : ... .. . ... ... ... : ... .. . ... ... ... : ... .. . ... ... ... : ... .. . ... ... ...
ROW 5D : ... .. . ... ... ... : ... .. . ... ... ... : ... .. . ... ... ... : ... .. . ... ... ... : ... .. . ... ... ...
ROW 5E : ... .. . ... ... ... : ... .. . ... ... ... : ... .. . ... ... ... : ... .. . ... ... ... : ... .. . ... ... ...
ROW 5F : ... .. . ... ... ... : ... .. . ... ... ... : ... .. . ... ... ... : ... .. . ... ... ... : ... .. . ... ... ...
ROW 60 : ... .. . ... ... ... : ... .. . ... ... ... : ... .. . ... ... ... : ... .. . ... ... ... : ... .. . ... ... ...
ROW 61 : ... .. . ... ... ... : ... .. . ... ... ... : ... .. . ... ... ... : ... .. . ... ... ... : ... .. . ... ... ...
ROW 62 : ... .. . ... ... ... : ... .. . ... ... ... : ... .. . ... ... ... : ... .. . ... ... ... : ... .. . ... ... ...
ROW 63 : ... .. . ... ... ... : ... .. . ... ... ... : --- .. . ... ... ... : ... .. . ... ... ... : ... .. . ... ... ...
ROW 64 : ... .. . ... ... ... : ... .. . ... ... ... : F-2 04 . ... ... ... : ... .. . ... ... ... : ... .. . ... ... ...
ROW 65 : ... .. . ... ... ... : ... .. . ... ... ... : ... .. . ... ... ... : ... .. . ... ... ... : ... .. . ... ... ...
ROW 66 : ... .. . ... ... ... : ... .. . ... ... ... : ... .. . ... ... ... : ... .. . ... ... ... : ... .. . ... ... ...
ROW 67 : ... .. . ... ... ... : ... .. . ... ... ... : ... .. . ... ... ... : ... .. . ... ... ... : ... .. . ... ... ...
ROW 68 : ... .. . ... ... ... : ... .. . ... ... ... : ... .. . ... ... ... : ... .. . ... ... ... : ... .. . ... ... ...
ROW 69 : ... .. . ... ... ... : ... .. . ... ... ... : ... .. . ... ... ... : ... .. . ... ... ... : ... .. . ... ... ...
ROW 6A : ... .. . ... ... ... : ... .. . ... ... ... : ... .. . ... ... ... : ... .. . ... ... ... : ... .. . ... ... ...
ROW 6B : ... .. . ... ... ... : ... .. . ... ... ... : ... .. . ... ... ... : ... .. . ... ... ... : ... .. . ... ... ...
ROW 6C : ... .. . ... ... ... : ... .. . ... ... ... : ... .. . ... ... ... : ... .. . ... ... ... : ... .. . ... ... ...
ROW 6D : ... .. . ... ... ... : ... .. . ... ... ... : --- .. . ... ... ... : ... .. . ... ... ... : ... .. . ... ... ...
ROW 6E : A#2 02 . ... ... ... : ... .. . ... ... ... : F-2 00 . ... ... ... : ... .. . ... ... ... : ... .. . ... ... ...
ROW 6F : ... .. . ... ... ... : ... .. . ... ... ... : ... .. . ... ... ... : ... .. . ... ... ... : ... .. . ... ... ...
ROW 70 : ... .. . ... ... ... : ... .. . ... ... ... : ... .. . ... ... ... : ... .. . ... ... ... : ... .. . ... ... ...
ROW 71 : ... .. . ... ... ... : ... .. . ... ... ... : ... .. . ... ... ... : ... .. . ... ... ... : ... .. . ... ... ...
ROW 72 : ... .. . ... ... ... : ... .. . ... ... ... : ... .. . ... ... ... : ... .. . ... ... ... : ... .. . ... ... ...
ROW 73 : ... .. . ... ... ... : ... .. . ... ... ... : ... .. . ... ... ... : ... .. . ... ... ... : ... .. . ... ... ...
ROW 74 : ... .. . ... ... ... : ... .. . ... ... ... : ... .. . ... ... ... : ... .. . ... ... ... : ... .. . ... ... ...
ROW 75 : ... .. . ... ... ... : ... .. . ... ... ... : ... .. . ... ... ... : ... .. . ... ... ... : ... .. . ... ... ...
ROW 76 : ... .. . ... ... ... : ... .. . ... ... ... : ... .. . ... ... ... : ... .. . ... ... ... : ... .. . ... ... ...
ROW 77 : ... .. . ... ... ... : ... .. . ... ... ... : --- .. . ... ... ... : ... .. . ... ... ... : ... .. . ... ... ...
ROW 78 : C-3 02 . ... ... ... : C#3 04 . ... ... ... : F-2 00 . ... ... ... : ... .. . ... ... ... : ... .. . ... ... ...
ROW 79 : ... .. . ... ... ... : ... .. . ... ... ... : ... .. . ... ... ... : ... .. . ... ... ... : ... .. . ... ... ...
ROW 7A : ... .. . ... ... ... : ... .. . ... ... ... : ... .. . ... ... ... : ... .. . ... ... ... : ... .. . ... ... ...
ROW 7B : ... .. . ... ... ... : ... .. . ... ... ... : ... .. . ... ... ... : ... .. . ... ... ... : ... .. . ... ... ...
ROW 7C : ... .. . ... ... ... : ... .. . ... ... ... : ... .. . ... ... ... : ... .. . ... ... ... : ... .. . ... ... ...
ROW 7D : ... .. . ... ... ... : ... .. . ... ... ... : ... .. . ... ... ... : ... .. . ... ... ... : ... .. . ... ... ...
ROW 7E : ... .. . ... ... ... : ... .. . ... ... ... : ... .. . ... ... ... : ... .. . ... ... ... : ... .. . ... ... ...
ROW 7F : ... .. . ... ... ... : ... .. . ... ... ... : ... .. . ... ... ... : ... .. . ... ... ... : ... .. . ... ... ...
ROW 80 : ... .. . ... ... ... : ... .. . ... ... ... : ... .. . ... ... ... : ... .. . ... ... ... : ... .. . ... ... ...
ROW 81 : ... .. . ... ... ... : ... .. . ... ... ... : --- .. . ... ... ... : ... .. . ... ... ... : ... .. . ... ... ...
ROW 82 : ... .. . ... ... ... : C-3 04 . ... ... ... : F-2 04 . ... ... ... : ... .. . ... ... ... : ... .. . ... ... ...
ROW 83 : ... .. . ... ... ... : ... .. . ... ... ... : ... .. . ... ... ... : ... .. . ... ... ... : ... .. . ... ... ...
ROW 84 : ... .. . ... ... ... : ... .. . ... ... ... : ... .. . ... ... ... : ... .. . ... ... ... : ... .. . ... ... ...
ROW 85 : ... .. . ... ... ... : ... .. . ... ... ... : ... .. . ... ... ... : ... .. . ... ... ... : ... .. . ... ... ...
ROW 86 : ... .. . ... ... ... : ... .. . ... ... ... : ... .. . ... ... ... : ... .. . ... ... ... : ... .. . ... ... ...
ROW 87 : ... .. . ... ... ... : ... .. . ... ... ... : ... .. . ... ... ... : ... .. . ... ... ... : ... .. . ... ... ...
ROW 88 : ... .. . ... ... ... : ... .. . ... ... ... : ... .. . ... ... ... : ... .. . ... ... ... : ... .. . ... ... ...
ROW 89 : ... .. . ... ... ... : ... .. . ... ... ... : ... .. . ... ... ... : ... .. . ... ... ... : ... .. . ... ... ...
ROW 8A : ... .. . ... ... ... : ... .. . ... ... ... : ... .. . ... ... ... : ... .. . ... ... ... : ... .. . ... ... ...
ROW 8B : ... .. . ... ... ... : ... .. . ... ... ... : --- .. . ... ... ... : ... .. . ... ... ... : ... .. . ... ... ...
ROW 8C : ... .. . ... ... ... : A#2 04 . ... ... ... : F-2 00 . ... ... ... : ... .. . ... ... ... : ... .. . ... ... ...
ROW 8D : ... .. . ... ... ... : ... .. . ... ... ... : ... .. . ... ... ... : ... .. . ... ... ... : ... .. . ... ... ...
ROW 8E : ... .. . ... ... ... : ... .. . ... ... ... : ... .. . ... ... ... : ... .. . ... ... ... : ... .. . ... ... ...
ROW 8F : ... .. . ... ... ... : ... .. . ... ... ... : ... .. . ... ... ... : ... .. . ... ... ... : ... .. . ... ... ...
ROW 90 : ... .. . ... ... ... : ... .. . ... ... ... : ... .. . ... ... ... : ... .. . ... ... ... : ... .. . ... ... ...
ROW 91 : ... .. . ... ... ... : ... .. . ... ... ... : ... .. . ... ... ... : ... .. . ... ... ... : ... .. . ... ... ...
ROW 92 : ... .. . ... ... ... : ... .. . ... ... ... : ... .. . ... ... ... : ... .. . ... ... ... : ... .. . ... ... ...
ROW 93 : ... .. . ... ... ... : ... .. . ... ... ... : ... .. . ... ... ... : ... .. . ... ... ... : ... .. . ... ... ...
ROW 94 : ... .. . ... ... ... : ... .. . ... ... ... : ... .. . ... ... ... : ... .. . ... ... ... : ... .. . ... ... ...
ROW 95 : --- .. . ... ... ... : ... .. . ... ... ... : --- .. . ... ... ... : ... .. . ... ... ... : ... .. . ... ... ...
ROW 96 : C-3 02 . ... ... ... : G#2 04 . ... ... ... : F-2 04 . ... ... ... : ... .. . ... ... ... : ... .. . ... ... ...
ROW 97 : ... .. . ... ... ... : ... .. . ... ... ... : ... .. . ... ... ... : ... .. . ... ... ... : ... .. . ... ... ...
ROW 98 : ... .. . ... ... ... : ... .. . ... ... ... : ... .. . ... ... ... : ... .. . ... ... ... : ... .. . ... ... ...
ROW 99 : ... .. . ... ... ... : ... .. . ... ... ... : ... .. . ... ... ... : ... .. . ... ... ... : ... .. . ... ... ...
ROW 9A : ... .. . ... ... ... : ... .. . ... ... ... : ... .. . ... ... ... : ... .. . ... ... ... : ... .. . ... ... ...
ROW 9B : ... .. . ... ... ... : ... .. . ... ... ... : ... .. . ... ... ... : ... .. . ... ... ... : ... .. . ... ... ...
ROW 9C : ... .. . ... ... ... : ... .. . ... ... ... : ... .. . ... ... ... : ... .. . ... ... ... : ... .. . ... ... ...
ROW 9D : ... .. . ... ... ... : ... .. . ... ... ... : ... .. . ... ... ... : ... .. . ... ... ... : ... .. . ... ... ...
ROW 9E : ... .. . ... ... ... : ... .. . ... ... ... : ... .. . ... ... ... : ... .. . ... ... ... : ... .. . ... ... ...
ROW 9F : ... .. . ... ... ... : ... .. . ... ... ... : --- .. . ... ... ... : ... .. . ... ... ... : ... .. . ... ... ...

PATTERN 07
ROW 00 : D#3 02 . ... ... ... : ... .. . ... ... ... : A#2 00 . ... ... ... : ... .. . ... ... ... : ... .. . ... ... ...
ROW 01 : ... .. . ... ... ... : F-2 01 . ... ... ... : ... .. . ... ... ... : ... .. . ... ... ... : ... .. . ... ... ...
ROW 02 : ... .. . ... ... ... : ... .. . ... ... ... : ... .. . ... ... ... : ... .. . ... ... ... : ... .. . ... ... ...
ROW 03 : ... .. . ... ... ... : ... .. . ... ... ... : ... .. . ... ... ... : ... .. . ... ... ... : ... .. . ... ... ...
ROW 04 : ... .. . ... ... ... : ... .. . ... ... ... : ... .. . ... ... ... : ... .. . ... ... ... : ... .. . ... ... ...
ROW 05 : ... .. . ... ... ... : ... .. . ... ... ... : ... .. . ... ... ... : ... .. . ... ... ... : ... .. . ... ... ...
ROW 06 : ... .. . ... ... ... : ... .. . ... ... ... : ... .. . ... ... ... : ... .. . ... ... ... : ... .. . ... ... ...
ROW 07 : ... .. . ... ... ... : ... .. . ... ... ... : ... .. . ... ... ... : ... .. . ... ... ... : ... .. . ... ... ...
ROW 08 : ... .. . ... ... ... : ... .. . ... ... ... : ... .. . ... ... ... : ... .. . ... ... ... : ... .. . ... ... ...
ROW 09 : ... .. . ... ... ... : ... .. . ... ... ... : --- .. . ... ... ... : ... .. . ... ... ... : ... .. . ... ... ...
ROW 0A : ... .. . ... ... ... : A#2 01 . ... ... ... : F-3 04 . ... ... ... : ... .. . ... ... ... : ... .. . ... ... ...
ROW 0B : ... .. . ... ... ... : ... .. . ... ... ... : ... .. . ... ... ... : ... .. . ... ... ... : ... .. . ... ... ...
ROW 0C : ... .. . ... ... ... : ... .. . ... ... ... : ... .. . ... ... ... : ... .. . ... ... ... : ... .. . ... ... ...
ROW 0D : ... .. . ... ... ... : ... .. . ... ... ... : ... .. . ... ... ... : ... .. . ... ... ... : ... .. . ... ... ...
ROW 0E : ... .. . ... ... ... : ... .. . ... ... ... : ... .. . ... ... ... : ... .. . ... ... ... : ... .. . ... ... ...
ROW 0F : ... .. . ... ... ... : ... .. . ... ... ... : ... .. . ... ... ... : ... .. . ... ... ... : ... .. . ... ... ...
ROW 10 : ... .. . ... ... ... : ... .. . ... ... ... : ... .. . ... ... ... : ... .. . ... ... ... : ... .. . ... ... ...
ROW 11 : ... .. . ... ... ... : ... .. . ... ... ... : ... .. . ... ... ... : ... .. . ... ... ... : ... .. . ... ... ...
ROW 12 : ... .. . ... ... ... : ... .. . ... ... ... : ... .. . ... ... ... : ... .. . ... ... ... : ... .. . ... ... ...
ROW 13 : ... .. . ... ... ... : ... .. . ... ... ... : --- .. . ... ... ... : ... .. . ... ... ... : ... .. . ... ... ...
ROW 14 : ... .. . ... ... ... : C#3 01 . ... ... ... : A#2 04 . ... ... ... : ... .. . ... ... ... : ... .. . ... ... ...
ROW 15 : ... .. . ... ... ... : ... .. . ... ... ... : ... .. . ... ... ... : ... .. . ... ... ... : ... .. . ... ... ...
ROW 16 : ... .. . ... ... ... : ... .. . ... ... ... : ... .. . ... ... ... : ... .. . ... ... ... : ... .. . ... ... ...
ROW 17 : ... .. . ... ... ... : ... .. . ... ... ... : ... .. . ... ... ... : ... .. . ... ... ... : ... .. . ... ... ...
ROW 18 : ... .. . ... ... ... : ... .. . ... ... ... : ... .. . ... ... ... : ... .. . ... ... ... : ... .. . ... ... ...
ROW 19 : ... .. . ... ... ... : ... .. . ... ... ... : ... .. . ... ... ... : ... .. . ... ... ... : ... .. . ... ... ...
ROW 1A : ... .. . ... ... ... : ... .. . ... ... ... : ... .. . ... ... ... : ... .. . ... ... ... : ... .. . ... ... ...
ROW 1B : ... .. . ... ... ... : ... .. . ... ... ... : ... .. . ... ... ... : ... .. . ... ... ... : ... .. . ... ... ...
ROW 1C : ... .. . ... ... ... : ... .. . ... ... ... : ... .. . ... ... ... : ... .. . ... ... ... : ... .. . ... ... ...
ROW 1D : ... .. . ... ... ... : A#2 01 . ... ... ... : --- .. . ... ... ... : ... .. . ... ... ... : ... .. . ... ... ...
ROW 1E : G#2 02 . ... ... ... : ... .. . ... ... ... : G#2 00 . ... ... ... : ... .. . ... ... ... : ... .. . ... ... ...
ROW 1F : ... .. . ... ... ... : ... .. . ... ... ... : ... .. . ... ... ... : ... .. . ... ... ... : ... .. . ... ... ...
ROW 20 : ... .. . ... ... ... : ... .. . ... ... ... : ... .. . ... ... ... : ... .. . ... ... ... : ... .. . ... ... ...
ROW 21 : ... .. . ... ... ... : ... .. . ... ... ... : ... .. . ... ... ... : ... .. . ... ... ... : ... .. . ... ... ...
ROW 22 : ... .. . ... ... ... : ... .. . ... ... ... : ... .. . ... ... ... : ... .. . ... ... ... : ... .. . ... ... ...
ROW 23 : ... .. . ... ... ... : ... .. . ... ... ... : ... .. . ... ... ... : ... .. . ... ... ... : ... .. . ... ... ...
ROW 24 : ... .. . ... ... ... : ... .. . ... ... ... : ... .. . ... ... ... : ... .. . ... ... ... : ... .. . ... ... ...
ROW 25 : ... .. . ... ... ... : ... .. . ... ... ... : ... .. . ... ... ... : ... .. . ... ... ... : ... .. . ... ... ...
ROW 26 : ... .. . ... ... ... : ... .. . ... ... ... : ... .. . ... ... ... : ... .. . ... ... ... : ... .. . ... ... ...
ROW 27 : ... .. . ... ... ... : ... .. . ... ... ... : --- .. . ... ... ... : ... .. . ... ... ... : ... .. . ... ... ...
ROW 28 : ... .. . ... ... ... : ... .. . ... ... ... : A#2 00 . ... ... ... : ... .. . ... ... ... : ... .. . ... ... ...
ROW 29 : ... .. . ... ... ... : ... .. . ... ... ... : ... .. . ... ... ... : ... .. . ... ... ... : ... .. . ... ... ...
ROW 2A : ... .. . ... ... ... : ... .. . ... ... ... : ... .. . ... ... ... : ... .. . ... ... ... : ... .. . ... ... ...
ROW 2B : ... .. . ... ... ... : ... .. . ... ... ... : ... .. . ... ... ... : ... .. . ... ... ... : ... .. . ... ... ...
ROW 2C : ... .. . ... ... ... : ... .. . ... ... ... : ... .. . ... ... ... : ... .. . ... ... ... : ... .. . ... ... ...
ROW 2D : ... .. . ... ... ... : ... .. . ... ... ... : ... .. . ... ... ... : ... .. . ... ... ... : ... .. . ... ... ...
ROW 2E : ... .. . ... ... ... : ... .. . ... ... ... : ... .. . ... ... ... : ... .. . ... ... ... : ... .. . ... ... ...
ROW 2F : ... .. . ... ... ... : ... .. . ... ... ... : ... .. . ... ... ... : ... .. . ... ... ... : ... .. . ... ... ...
ROW 30 : ... .. . ... ... ... : ... .. . ... ... ... : ... .. . ... ... ... : ... .. . ... ... ... : ... .. . ... ... ...
ROW 31 : ... .. . ... ... ... : ... .. . ... ... ... : --- .. . ... ... ... : ... .. . ... ... ... : ... .. . ... ... ...
ROW 32 : ... .. . ... ... ... : ... .. . ... ... ... : A#2 04 . ... ... ... : ... .. . ... ... ... : ... .. . ... ... ...
ROW 33 : ... .. . ... ... ... : ... .. . ... ... ... : ... .. . ... ... ... : ... .. . ... ... ... : ... .. . ... ... ...
ROW 34 : ... .. . ... ... ... : ... .. . ... ... ... : ... .. . ... ... ... : ... .. . ... ... ... : ... .. . ... ... ...
ROW 35 : ... .. . ... ... ... : ... .. . ... ... ... : ... .. . ... ... ... : ... .. . ... ... ... : ... .. . ... ... ...
ROW 36 : ... .. . ... ... ... : ... .. . ... ... ... : ... .. . ... ... ... : ... .. . ... ... ... : ... .. . ... ... ...
ROW 37 : ... .. . ... ... ... : ... .. . ... ... ... : ... .. . ... ... ... : ... .. . ... ... ... : ... .. . ... ... ...
ROW 38 : ... .. . ... ... ... : ... .. . ... ... ... : ... .. . ... ... ... : ... .. . ... ... ... : ... .. . ... ... ...
ROW 39 : ... .. . ... ... ... : ... .. . ... ... ... : ... .. . ... ... ... : ... .. . ... ... ... : ... .. . ... ... ...
ROW 3A : ... .. . ... ... ... : ... .. . ... ... ... : ... .. . ... ... ... : ... .. . ... ... ... : ... .. . ... ... ...
ROW 3B : ... .. . ... ... ... : ... .. . ... ... ... : --- .. . ... ... ... : ... .. . ... ... ... : ... .. . ... ... ...
ROW 3C : D#3 02 . ... ... ... : ... .. . ... ... ... : A#2 04 . ... ... ... : ... .. . ... ... ... : ... .. . ... ... ...
ROW 3D : ... .. . ... ... ... : ... .. . ... ... ... : ... .. . ... ... ... : ... .. . ... ... ... : ... .. . ... ... ...
ROW 3E : ... .. . ... ... ... : ... .. . ... ... ... : ... .. . ... ... ... : ... .. . ... ... ... : ... .. . ... ... ...
ROW 3F : ... .. . ... ... ... : ... .. . ... ... ... : ... .. . ... ... ... : ... .. . ... ... ... : ... .. . ... ... ...
ROW 40 : ... .. . ... ... ... : ... .. . ... ... ... : ... .. . ... ... ... : ... .. . ... ... ... : ... .. . ... ... ...
ROW 41 : ... .. . ... ... ... : ... .. . ... ... ... : ... .. . ... ... ... : ... .. . ... ... ... : ... .. . ... ... ...
ROW 42 : ... .. . ... ... ... : ... .. . ... ... ... : ... .. . ... ... ... : ... .. . ... ... ... : ... .. . ... ... ...
ROW 43 : ... .. . ... ... ... : ... .. . ... ... ... : ... .. . ... ... ... : ... .. . ... ... ... : ... .. . ... ... ...
ROW 44 : ... .. . ... ... ... : ... .. . ... ... ... : ... .. . ... ... ... : ... .. . ... ... ... : ... .. . ... ... ...
ROW 45 : ... .. . ... ... ... : --- .. . ... ... ... : --- .. . ... ... ... : ... .. . ... ... ... : ... .. . ... ... ...
ROW 46 : ... .. . ... ... ... : A#2 01 . ... ... ... : A#2 04 . ... ... ... : ... .. . ... ... ... : ... .. . ... ... ...
ROW 47 : ... .. . ... ... ... : ... .. . ... ... ... : ... .. . ... ... ... : ... .. . ... ... ... : ... .. . ... ... ...
ROW 48 : ... .. . ... ... ... : ... .. . ... ... ... : ... .. . ... ... ... : ... .. . ... ... ... : ... .. . ... ... ...
ROW 49 : ... .. . ... ... ... : ... .. . ... ... ... : ... .. . ... ... ... : ... .. . ... ... ... : ... .. . ... ... ...
ROW 4A : ... .. . ... ... ... : ... .. . ... ... ... : ... .. . ... ... ... : ... .. . ... ... ... : ... .. . ... ... ...
ROW 4B : ... .. . ... ... ... : ... .. . ... ... ... : ... .. . ... ... ... : ... .. . ... ... ... : ... .. . ... ... ...
ROW 4C : D#3 09 . QB5 ... ... : ... .. . ... ... ... : ... .. . ... ... ... : ... .. . ... ... ... : ... .. . ... ... ...
ROW 4D : ... .. . ... ... ... : ... .. . ... ... ... : ... .. . ... ... ... : ... .. . ... ... ... : ... .. . ... ... ...
ROW 4E : ... .. . ... ... ... : ... .. . ... ... ... : ... .. . ... ... ... : ... .. . ... ... ... : ... .. . ... ... ...
ROW 4F : ... .. . ... ... ... : ... .. . ... ... ... : --- .. . ... ... ... : ... .. . ... ... ... : ... .. . ... ... ...
ROW 50 : G#3 02 . ... ... ... : F-2 01 . ... ... ... : A#2 00 . ... ... ... : ... .. . ... ... ... : ... .. . ... ... ...
ROW 51 : ... .. . ... ... ... : ... .. . ... ... ... : ... .. . ... ... ... : ... .. . ... ... ... : ... .. . ... ... ...
ROW 52 : ... .. . ... ... ... : ... .. . ... ... ... : ... .. . ... ... ... : ... .. . ... ... ... : ... .. . ... ... ...
ROW 53 : ... .. . ... ... ... : ... .. . ... ... ... : ... .. . ... ... ... : ... .. . ... ... ... : ... .. . ... ... ...
ROW 54 : ... .. . ... ... ... : ... .. . ... ... ... : ... .. . ... ... ... : ... .. . ... ... ... : ... .. . ... ... ...
ROW 55 : ... .. . ... ... ... : ... .. . ... ... ... : ... .. . ... ... ... : ... .. . ... ... ... : ... .. . ... ... ...
ROW 56 : ... .. . ... ... ... : ... .. . ... ... ... : ... .. . ... ... ... : ... .. . ... ... ... : ... .. . ... ... ...
ROW 57 : ... .. . ... ... ... : ... .. . ... ... ... : ... .. . ... ... ... : ... .. . ... ... ... : ... .. . ... ... ...
ROW 58 : ... .. . ... ... ... : ... .. . ... ... ... : ... .. . ... ... ... : ... .. . ... ... ... : ... .. . ... ... ...
ROW 59 : ... .. . ... ... ... : ... .. . ... ... ... : --- .. . ... ... ... : ... .. . ... ... ... : ... .. . ... ... ...
ROW 5A : ... .. . ... ... ... : ... .. . ... ... ... : F#3 04 . ... ... ... : ... .. . ... ... ... : ... .. . ... ... ...
ROW 5B : ... .. . ... ... ... : A#2 01 . ... ... ... : ... .. . ... ... ... : ... .. . ... ... ... : ... .. . ... ... ...
ROW 5C : ... .. . ... ... ... : ... .. . ... ... ... : ... .. . ... ... ... : ... .. . ... ... ... : ... .. . ... ... ...
ROW 5D : ... .. . ... ... ... : ... .. . ... ... ... : ... .. . ... ... ... : ... .. . ... ... ... : ... .. . ... ... ...
ROW 5E : ... .. . ... ... ... : ... .. . ... ... ... : ... .. . ... ... ... : ... .. . ... ... ... : ... .. . ... ... ...
ROW 5F : ... .. . ... ... ... : ... .. . ... ... ... : ... .. . ... ... ... : ... .. . ... ... ... : ... .. . ... ... ...
ROW 60 : ... .. . ... ... ... : ... .. . ... ... ... : ... .. . ... ... ... : ... .. . ... ... ... : ... .. . ... ... ...
ROW 61 : ... .. . ... ... ... : ... .. . ... ... ... : ... .. . ... ... ... : ... .. . ... ... ... : ... .. . ... ... ...
ROW 62 : ... .. . ... ... ... : ... .. . ... ... ... : ... .. . ... ... ... : ... .. . ... ... ... : ... .. . ... ... ...
ROW 63 : ... .. . ... ... ... : ... .. . ... ... ... : --- .. . ... ... ... : ... .. . ... ... ... : ... .. . ... ... ...
ROW 64 : ... .. . ... ... ... : C#3 01 . ... ... ... : A#2 04 . ... ... ... : ... .. . ... ... ... : ... .. . ... ... ...
ROW 65 : ... .. . ... ... ... : ... .. . ... ... ... : ... .. . ... ... ... : ... .. . ... ... ... : ... .. . ... ... ...
ROW 66 : ... .. . ... ... ... : ... .. . ... ... ... : ... .. . ... ... ... : ... .. . ... ... ... : ... .. . ... ... ...
ROW 67 : ... .. . ... ... ... : ... .. . ... ... ... : ... .. . ... ... ... : ... .. . ... ... ... : ... .. . ... ... ...
ROW 68 : ... .. . ... ... ... : ... .. . ... ... ... : ... .. . ... ... ... : ... .. . ... ... ... : ... .. . ... ... ...
ROW 69 : ... .. . ... ... ... : ... .. . ... ... ... : ... .. . ... ... ... : ... .. . ... ... ... : ... .. . ... ... ...
ROW 6A : ... .. . ... ... ... : ... .. . ... ... ... : ... .. . ... ... ... : ... .. . ... ... ... : ... .. . ... ... ...
ROW 6B : ... .. . ... ... ... : ... .. . ... ... ... : ... .. . ... ... ... : ... .. . ... ... ... : ... .. . ... ... ...
ROW 6C : ... .. . ... ... ... : ... .. . ... ... ... : ... .. . ... ... ... : ... .. . ... ... ... : ... .. . ... ... ...
ROW 6D : ... .. . ... ... ... : ... .. . ... ... ... : --- .. . ... ... ... : ... .. . ... ... ... : ... .. . ... ... ...
ROW 6E : ... .. . ... ... ... : A#2 01 . ... ... ... : G#2 00 . ... ... ... : ... .. . ... ... ... : ... .. . ... ... ...
ROW 6F : ... .. . ... ... ... : ... .. . ... ... ... : ... .. . ... ... ... : ... .. . ... ... ... : ... .. . ... ... ...
ROW 70 : ... .. . ... ... ... : ... .. . ... ... ... : ... .. . ... ... ... : ... .. . ... ... ... : ... .. . ... ... ...
ROW 71 : ... .. . ... ... ... : ... .. . ... ... ... : ... .. . ... ... ... : ... .. . ... ... ... : ... .. . ... ... ...
ROW 72 : ... .. . ... ... ... : ... .. . ... ... ... : ... .. . ... ... ... : ... .. . ... ... ... : ... .. . ... ... ...
ROW 73 : ... .. . ... ... ... : ... .. . ... ... ... : ... .. . ... ... ... : ... .. . ... ... ... : ... .. . ... ... ...
ROW 74 : ... .. . ... ... ... : ... .. . ... ... ... : ... .. . ... ... ... : ... .. . ... ... ... : ... .. . ... ... ...
ROW 75 : ... .. . ... ... ... : ... .. . ... ... ... : ... .. . ... ... ... : ... .. . ... ... ... : ... .. . ... ... ...
ROW 76 : ... .. . ... ... ... : ... .. . ... ... ... : ... .. . ... ... ... : ... .. . ... ... ... : ... .. . ... ... ...
ROW 77 : ... .. . ... ... ... : ... .. . ... ... ... : --- .. . ... ... ... : ... .. . ... ... ... : ... .. . ... ... ...
ROW 78 : F-3 02 . ... ... ... : ... .. . ... ... ... : A#2 00 . ... ... ... : ... .. . ... ... ... : ... .. . ... ... ...
ROW 79 : ... .. . ... ... ... : ... .. . ... ... ... : ... .. . ... ... ... : ... .. . ... ... ... : ... .. . ... ... ...
ROW 7A : ... .. . ... ... ... : ... .. . ... ... ... : ... .. . ... ... ... : ... .. . ... ... ... : ... .. . ... ... ...
ROW 7B : ... .. . ... ... ... : ... .. . ... ... ... : ... .. . ... ... ... : ... .. . ... ... ... : ... .. . ... ... ...
ROW 7C : ... .. . ... ... ... : ... .. . ... ... ... : ... .. . ... ... ... : ... .. . ... ... ... : ... .. . ... ... ...
ROW 7D : ... .. . ... ... ... : ... .. . ... ... ... : ... .. . ... ... ... : ... .. . ... ... ... : ... .. . ... ... ...
ROW 7E : ... .. . ... ... ... : ... .. . ... ... ... : ... .. . ... ... ... : ... .. . ... ... ... : ... .. . ... ... ...
ROW 7F : ... .. . ... ... ... : ... .. . ... ... ... : ... .. . ... ... ... : ... .. . ... ... ... : ... .. . ... ... ...
ROW 80 : ... .. . ... ... ... : ... .. . ... ... ... : ... .. . ... ... ... : ... .. . ... ... ... : ... .. . ... ... ...
ROW 81 : ... .. . ... ... ... : ... .. . ... ... ... : --- .. . ... ... ... : ... .. . ... ... ... : ... .. . ... ... ...
ROW 82 : D#3 02 . ... ... ... : ... .. . ... ... ... : A#2 04 . ... ... ... : ... .. . ... ... ... : ... .. . ... ... ...
ROW 83 : ... .. . ... ... ... : ... .. . ... ... ... : ... .. . ... ... ... : ... .. . ... ... ... : ... .. . ... ... ...
ROW 84 : ... .. . ... ... ... : ... .. . ... ... ... : ... .. . ... ... ... : ... .. . ... ... ... : ... .. . ... ... ...
ROW 85 : ... .. . ... ... ... : ... .. . ... ... ... : ... .. . ... ... ... : ... .. . ... ... ... : ... .. . ... ... ...
ROW 86 : ... .. . ... ... ... : ... .. . ... ... ... : ... .. . ... ... ... : ... .. . ... ... ... : ... .. . ... ... ...
ROW 87 : ... .. . ... ... ... : ... .. . ... ... ... : ... .. . ... ... ... : ... .. . ... ... ... : ... .. . ... ... ...
ROW 88 : ... .. . ... ... ... : ... .. . ... ... ... : ... .. . ... ... ... : ... .. . ... ... ... : ... .. . ... ... ...
ROW 89 : ... .. . ... ... ... : ... .. . ... ... ... : ... .. . ... ... ... : ... .. . ... ... ... : ... .. . ... ... ...
ROW 8A : ... .. . ... ... ... : ... .. . ... ... ... : ... .. . ... ... ... : ... .. . ... ... ... : ... .. . ... ... ...
ROW 8B : ... .. . ... ... ... : ... .. . ... ... ... : --- .. . ... ... ... : ... .. . ... ... ... : ... .. . ... ... ...
ROW 8C : C#3 02 . ... ... ... : ... .. . ... ... ... : A#2 04 . ... ... ... : ... .. . ... ... ... : ... .. . ... ... ...
ROW 8D : ... .. . ... ... ... : ... .. . ... ... ... : ... .. . ... ... ... : ... .. . ... ... ... : ... .. . ... ... ...
ROW 8E : ... .. . ... ... ... : ... .. . ... ... ... : ... .. . ... ... ... : ... .. . ... ... ... : ... .. . ... ... ...
ROW 8F : ... .. . ... ... ... : ... .. . ... ... ... : ... .. . ... ... ... : ... .. . ... ... ... : ... .. . ... ... ...
ROW 90 : ... .. . ... ... ... : ... .. . ... ... ... : ... .. . ... ... ... : ... .. . ... ... ... : ... .. . ... ... ...
ROW 91 : ... .. . ... ... ... : ... .. . ... ... ... : ... .. . ... ... ... : ... .. . ... ... ... : ... .. . ... ... ...
ROW 92 : ... .. . ... ... ... : ... .. . ... ... ... : ... .. . ... ... ... : ... .. . ... ... ... : ... .. . ... ... ...
ROW 93 : ... .. . ... ... ... : ... .. . ... ... ... : ... .. . ... ... ... : ... .. . ... ... ... : ... .. . ... ... ...
ROW 94 : ... .. . ... ... ... : ... .. . ... ... ... : ... .. . ... ... ... : ... .. . ... ... ... : ... .. . ... ... ...
ROW 95 : ... .. . ... ... ... : --- .. . ... ... ... : --- .. . ... ... ... : ... .. . ... ... ... : ... .. . ... ... ...
ROW 96 : C-3 02 . ... ... ... : A#2 01 . ... ... ... : A#2 04 . ... ... ... : ... .. . ... ... ... : ... .. . ... ... ...
ROW 97 : ... .. . ... ... ... : ... .. . ... ... ... : ... .. . ... ... ... : ... .. . ... ... ... : ... .. . ... ... ...
ROW 98 : ... .. . ... ... ... : ... .. . ... ... ... : ... .. . ... ... ... : ... .. . ... ... ... : ... .. . ... ... ...
ROW 99 : ... .. . ... ... ... : ... .. . ... ... ... : ... .. . ... ... ... : ... .. . ... ... ... : ... .. . ... ... ...
ROW 9A : ... .. . ... ... ... : ... .. . ... ... ... : ... .. . ... ... ... : ... .. . ... ... ... : ... .. . ... ... ...
ROW 9B : ... .. . ... ... ... : ... .. . ... ... ... : ... .. . ... ... ... : ... .. . ... ... ... : ... .. . ... ... ...
ROW 9C : ... .. . ... ... ... : ... .. . ... ... ... : ... .. . ... ... ... : ... .. . ... ... ... : ... .. . ... ... ...
ROW 9D : ... .. . ... ... ... : ... .. . ... ... ... : ... .. . ... ... ... : ... .. . ... ... ... : ... .. . ... ... ...
ROW 9E : ... .. . ... ... ... : ... .. . ... ... ... : ... .. . ... ... ... : ... .. . ... ... ... : ... .. . ... ... ...
ROW 9F : ... .. . ... ... ... : ... .. . ... ... ... : --- .. . ... ... ... : ... .. . ... ... ... : ... .. . ... ... ...

PATTERN 08
ROW 00 : A#2 02 . ... ... ... : G#2 01 . ... ... ... : G#2 00 . ... ... ... : ... .. . ... ... ... : ... .. . ... ... ...
ROW 01 : ... .. . ... ... ... : ... .. . ... ... ... : ... .. . ... ... ... : ... .. . ... ... ... : ... .. . ... ... ...
ROW 02 : ... .. . ... ... ... : ... .. . ... ... ... : ... .. . ... ... ... : ... .. . ... ... ... : ... .. . ... ... ...
ROW 03 : ... .. . ... ... ... : ... .. . ... ... ... : ... .. . ... ... ... : ... .. . ... ... ... : ... .. . ... ... ...
ROW 04 : ... .. . ... ... ... : ... .. . ... ... ... : ... .. . ... ... ... : ... .. . ... ... ... : ... .. . ... ... ...
ROW 05 : ... .. . ... ... ... : ... .. . ... ... ... : ... .. . ... ... ... : ... .. . ... ... ... : ... .. . ... ... ...
ROW 06 : ... .. . ... ... ... : ... .. . ... ... ... : ... .. . ... ... ... : ... .. . ... ... ... : ... .. . ... ... ...
ROW 07 : ... .. . ... ... ... : ... .. . ... ... ... : ... .. . ... ... ... : ... .. . ... ... ... : ... .. . ... ... ...
ROW 08 : ... .. . ... ... ... : ... .. . ... ... ... : ... .. . ... ... ... : ... .. . ... ... ... : ... .. . ... ... ...
ROW 09 : ... .. . ... ... ... : ... .. . ... ... ... : --- .. . ... ... ... : ... .. . ... ... ... : ... .. . ... ... ...
ROW 0A : ... .. . ... ... ... : C-3 01 . ... ... ... : D#3 04 . ... ... ... : ... .. . ... ... ... : ... .. . ... ... ...
ROW 0B : ... .. . ... ... ... : ... .. . ... ... ... : ... .. . ... ... ... : ... .. . ... ... ... : ... .. . ... ... ...
ROW 0C : ... .. . ... ... ... : ... .. . ... ... ... : ... .. . ... ... ... : ... .. . ... ... ... : ... .. . ... ... ...
ROW 0D : ... .. . ... ... ... : ... .. . ... ... ... : ... .. . ... ... ... : ... .. . ... ... ... : ... .. . ... ... ...
ROW 0E : ... .. . ... ... ... : ... .. . ... ... ... : ... .. . ... ... ... : ... .. . ... ... ... : ... .. . ... ... ...
ROW 0F : ... .. . ... ... ... : ... .. . ... ... ... : ... .. . ... ... ... : ... .. . ... ... ... : ... .. . ... ... ...
ROW 10 : ... .. . ... ... ... : ... .. . ... ... ... : ... .. . ... ... ... : ... .. . ... ... ... : ... .. . ... ... ...
ROW 11 : ... .. . ... ... ... : ... .. . ... ... ... : ... .. . ... ... ... : ... .. . ... ... ... : ... .. . ... ... ...
ROW 12 : ... .. . ... ... ... : ... .. . ... ... ... : ... .. . ... ... ... : ... .. . ... ... ... : ... .. . ... ... ...
ROW 13 : ... .. . ... ... ... : ... .. . ... ... ... : --- .. . ... ... ... : ... .. . ... ... ... : ... .. . ... ... ...
ROW 14 : C#3 02 . ... ... ... : D#3 01 . ... ... ... : G#2 04 . ... ... ... : ... .. . ... ... ... : ... .. . ... ... ...
ROW 15 : ... .. . ... ... ... : ... .. . ... ... ... : ... .. . ... ... ... : ... .. . ... ... ... : ... .. . ... ... ...
ROW 16 : ... .. . ... ... ... : ... .. . ... ... ... : ... .. . ... ... ... : ... .. . ... ... ... : ... .. . ... ... ...
ROW 17 : ... .. . ... ... ... : ... .. . ... ... ... : ... .. . ... ... ... : ... .. . ... ... ... : ... .. . ... ... ...
ROW 18 : ... .. . ... ... ... : ... .. . ... ... ... : ... .. . ... ... ... : ... .. . ... ... ... : ... .. . ... ... ...
ROW 19 : ... .. . ... ... ... : ... .. . ... ... ... : ... .. . ... ... ... : ... .. . ... ... ... : ... .. . ... ... ...
ROW 1A : ... .. . ... ... ... : ... .. . ... ... ... : ... .. . ... ... ... : ... .. . ... ... ... : ... .. . ... ... ...
ROW 1B : ... .. . ... ... ... : ... .. . ... ... ... : ... .. . ... ... ... : ... .. . ... ... ... : ... .. . ... ... ...
ROW 1C : ... .. . ... ... ... : ... .. . ... ... ... : ... .. . ... ... ... : ... .. . ... ... ... : ... .. . ... ... ...
ROW 1D : ... .. . ... ... ... : ... .. . ... ... ... : --- .. . ... ... ... : ... .. . ... ... ... : ... .. . ... ... ...
ROW 1E : C-3 02 . ... ... ... : C-3 01 . ... ... ... : G#2 00 . ... ... ... : ... .. . ... ... ... : ... .. . ... ... ...
ROW 1F : ... .. . ... ... ... : ... .. . ... ... ... : ... .. . ... ... ... : ... .. . ... ... ... : ... .. . ... ... ...
ROW 20 : ... .. . ... ... ... : ... .. . ... ... ... : ... .. . ... ... ... : ... .. . ... ... ... : ... .. . ... ... ...
ROW 21 : ... .. . ... ... ... : ... .. . ... ... ... : ... .. . ... ... ... : ... .. . ... ... ... : ... .. . ... ... ...
ROW 22 : ... .. . ... ... ... : ... .. . ... ... ... : ... .. . ... ... ... : ... .. . ... ... ... : ... .. . ... ... ...
ROW 23 : ... .. . ... ... ... : ... .. . ... ... ... : ... .. . ... ... ... : ... .. . ... ... ... : ... .. . ... ... ...
ROW 24 : ... .. . ... ... ... : ... .. . ... ... ... : ... .. . ... ... ... : ... .. . ... ... ... : ... .. . ... ... ...
ROW 25 : ... .. . ... ... ... : ... .. . ... ... ... : ... .. . ... ... ... : ... .. . ... ... ... : ... .. . ... ... ...
ROW 26 : ... .. . ... ... ... : ... .. . ... ... ... : ... .. . ... ... ... : ... .. . ... ... ... : ... .. . ... ... ...
ROW 27 : ... .. . ... ... ... : ... .. . ... ... ... : --- .. . ... ... ... : ... .. . ... ... ... : ... .. . ... ... ...
ROW 28 : A#2 02 . ... ... ... : ... .. . ... ... ... : G#2 00 . ... ... ... : ... .. . ... ... ... : ... .. . ... ... ...
ROW 29 : ... .. . ... ... ... : ... .. . ... ... ... : ... .. . ... ... ... : ... .. . ... ... ... : ... .. . ... ... ...
ROW 2A : ... .. . ... ... ... : ... .. . ... ... ... : ... .. . ... ... ... : ... .. . ... ... ... : ... .. . ... ... ...
ROW 2B : ... .. . ... ... ... : ... .. . ... ... ... : ... .. . ... ... ... : ... .. . ... ... ... : ... .. . ... ... ...
ROW 2C : ... .. . ... ... ... : ... .. . ... ... ... : ... .. . ... ... ... : ... .. . ... ... ... : ... .. . ... ... ...
ROW 2D : ... .. . ... ... ... : ... .. . ... ... ... : ... .. . ... ... ... : ... .. . ... ... ... : ... .. . ... ... ...
ROW 2E : ... .. . ... ... ... : ... .. . ... ... ... : ... .. . ... ... ... : ... .. . ... ... ... : ... .. . ... ... ...
ROW 2F : ... .. . ... ... ... : ... .. . ... ... ... : ... .. . ... ... ... : ... .. . ... ... ... : ... .. . ... ... ...
ROW 30 : ... .. . ... ... ... : ... .. . ... ... ... : ... .. . ... ... ... : ... .. . ... ... ... : ... .. . ... ... ...
ROW 31 : ... .. . ... ... ... : ... .. . ... ... ... : --- .. . ... ... ... : ... .. . ... ... ... : ... .. . ... ... ...
ROW 32 : ... .. . ... ... ... : ... .. . ... ... ... : G#2 04 . ... ... ... : ... .. . ... ... ... : ... .. . ... ... ...
ROW 33 : ... .. . ... ... ... : ... .. . ... ... ... : ... .. . ... ... ... : ... .. . ... ... ... : ... .. . ... ... ...
ROW 34 : ... .. . ... ... ... : ... .. . ... ... ... : ... .. . ... ... ... : ... .. . ... ... ... : ... .. . ... ... ...
ROW 35 : ... .. . ... ... ... : ... .. . ... ... ... : ... .. . ... ... ... : ... .. . ... ... ... : ... .. . ... ... ...
ROW 36 : ... .. . ... ... ... : ... .. . ... ... ... : ... .. . ... ... ... : ... .. . ... ... ... : ... .. . ... ... ...
ROW 37 : ... .. . ... ... ... : ... .. . ... ... ... : ... .. . ... ... ... : ... .. . ... ... ... : ... .. . ... ... ...
ROW 38 : ... .. . ... ... ... : ... .. . ... ... ... : ... .. . ... ... ... : ... .. . ... ... ... : ... .. . ... ... ...
ROW 39 : ... .. . ... ... ... : ... .. . ... ... ... : ... .. . ... ... ... : ... .. . ... ... ... : ... .. . ... ... ...
ROW 3A : ... .. . ... ... ... : ... .. . ... ... ... : ... .. . ... ... ... : ... .. . ... ... ... : ... .. . ... ... ...
ROW 3B : ... .. . ... ... ... : ... .. . ... ... ... : --- .. . ... ... ... : ... .. . ... ... ... : ... .. . ... ... ...
ROW 3C : ... .. . ... ... ... : ... .. . ... ... ... : G#2 04 . ... ... ... : ... .. . ... ... ... : ... .. . ... ... ...
ROW 3D : ... .. . ... ... ... : ... .. . ... ... ... : ... .. . ... ... ... : ... .. . ... ... ... : ... .. . ... ... ...
ROW 3E : ... .. . ... ... ... : ... .. . ... ... ... : ... .. . ... ... ... : ... .. . ... ... ... : ... .. . ... ... ...
ROW 3F : ... .. . ... ... ... : ... .. . ... ... ... : ... .. . ... ... ... : ... .. . ... ... ... : ... .. . ... ... ...
ROW 40 : ... .. . ... ... ... : ... .. . ... ... ... : ... .. . ... ... ... : ... .. . ... ... ... : ... .. . ... ... ...
ROW 41 : ... .. . ... ... ... : ... .. . ... ... ... : ... .. . ... ... ... : ... .. . ... ... ... : ... .. . ... ... ...
ROW 42 : ... .. . ... ... ... : ... .. . ... ... ... : ... .. . ... ... ... : ... .. . ... ... ... : ... .. . ... ... ...
ROW 43 : ... .. . ... ... ... : ... .. . ... ... ... : ... .. . ... ... ... : ... .. . ... ... ... : ... .. . ... ... ...
ROW 44 : ... .. . ... ... ... : ... .. . ... ... ... : ... .. . ... ... ... : ... .. . ... ... ... : ... .. . ... ... ...
ROW 45 : ... .. . ... ... ... : --- .. . ... ... ... : --- .. . ... ... ... : ... .. . ... ... ... : ... .. . ... ... ...
ROW 46 : G#2 02 . ... ... ... : A#2 01 . ... ... ... : G#2 04 . ... ... ... : ... .. . ... ... ... : ... .. . ... ... ...
ROW 47 : ... .. . ... ... ... : ... .. . ... ... ... : ... .. . ... ... ... : ... .. . ... ... ... : ... .. . ... ... ...
ROW 48 : ... .. . ... ... ... : ... .. . ... ... ... : ... .. . ... ... ... : ... .. . ... ... ... : ... .. . ... ... ...
ROW 49 : ... .. . ... ... ... : ... .. . ... ... ... : ... .. . ... ... ... : ... .. . ... ... ... : ... .. . ... ... ...
ROW 4A : ... .. . ... ... ... : ... .. . ... ... ... : ... .. . ... ... ... : ... .. . ... ... ... : ... .. . ... ... ...
ROW 4B : ... .. . ... ... ... : ... .. . ... ... ... : ... .. . ... ... ... : ... .. . ... ... ... : ... .. . ... ... ...
ROW 4C : ... .. . ... ... ... : ... .. . ... ... ... : ... .. . ... ... ... : ... .. . ... ... ... : ... .. . ... ... ...
ROW 4D : ... .. . ... ... ... : ... .. . ... ... ... : ... .. . ... ... ... : ... .. . ... ... ... : ... .. . ... ... ...
ROW 4E : ... .. . ... ... ... : ... .. . ... ... ... : ... .. . ... ... ... : ... .. . ... ... ... : ... .. . ... ... ...
ROW 4F : ... .. . ... ... ... : ... .. . ... ... ... : --- .. . ... ... ... : ... .. . ... ... ... : ... .. . ... ... ...
ROW 50 : F-2 02 . ... ... ... : G#2 01 . ... ... ... : G#2 00 . ... ... ... : ... .. . ... ... ... : ... .. . ... ... ...
ROW 51 : ... .. . ... ... ... : ... .. . ... ... ... : ... .. . ... ... ... : ... .. . ... ... ... : ... .. . ... ... ...
ROW 52 : ... .. . ... ... ... : ... .. . ... ... ... : ... .. . ... ... ... : ... .. . ... ... ... : ... .. . ... ... ...
ROW 53 : ... .. . ... ... ... : ... .. . ... ... ... : ... .. . ... ... ... : ... .. . ... ... ... : ... .. . ... ... ...
ROW 54 : ... .. . ... ... ... : ... .. . ... ... ... : ... .. . ... ... ... : ... .. . ... ... ... : ... .. . ... ... ...
ROW 55 : ... .. . ... ... ... : ... .. . ... ... ... : ... .. . ... ... ... : ... .. . ... ... ... : ... .. . ... ... ...
ROW 56 : ... .. . ... ... ... : ... .. . ... ... ... : ... .. . ... ... ... : ... .. . ... ... ... : ... .. . ... ... ...
ROW 57 : ... .. . ... ... ... : ... .. . ... ... ... : ... .. . ... ... ... : ... .. . ... ... ... : ... .. . ... ... ...
ROW 58 : ... .. . ... ... ... : ... .. . ... ... ... : ... .. . ... ... ... : ... .. . ... ... ... : ... .. . ... ... ...
ROW 59 : ... .. . ... ... ... : ... .. . ... ... ... : --- .. . ... ... ... : ... .. . ... ... ... : ... .. . ... ... ...
ROW 5A : ... .. . ... ... ... : C-3 01 . ... ... ... : F-3 04 . ... ... ... : ... .. . ... ... ... : ... .. . ... ... ...
ROW 5B : ... .. . ... ... ... : ... .. . ... ... ... : ... .. . ... ... ... : ... .. . ... ... ... : ... .. . ... ... ...
ROW 5C : ... .. . ... ... ... : ... .. . ... ... ... : ... .. . ... ... ... : ... .. . ... ... ... : ... .. . ... ... ...
ROW 5D : ... .. . ... ... ... : ... .. . ... ... ... : ... .. . ... ... ... : ... .. . ... ... ... : ... .. . ... ... ...
ROW 5E : ... .. . ... ... ... : ... .. . ... ... ... : ... .. . ... ... ... : ... .. . ... ... ... : ... .. . ... ... ...
ROW 5F : ... .. . ... ... ... : ... .. . ... ... ... : ... .. . ... ... ... : ... .. . ... ... ... : ... .. . ... ... ...
ROW 60 : ... .. . ... ... ... : ... .. . ... ... ... : ... .. . ... ... ... : ... .. . ... ... ... : ... .. . ... ... ...
ROW 61 : ... .. . ... ... ... : ... .. . ... ... ... : ... .. . ... ... ... : ... .. . ... ... ... : ... .. . ... ... ...
ROW 62 : ... .. . ... ... ... : ... .. . ... ... ... : ... .. . ... ... ... : ... .. . ... ... ... : ... .. . ... ... ...
ROW 63 : ... .. . ... ... ... : ... .. . ... ... ... : --- .. . ... ... ... : ... .. . ... ... ... : ... .. . ... ... ...
ROW 64 : ... .. . ... ... ... : D#3 01 . ... ... ... : A#2 04 . ... ... ... : ... .. . ... ... ... : ... .. . ... ... ...
ROW 65 : ... .. . ... ... ... : ... .. . ... ... ... : ... .. . ... ... ... : ... .. . ... ... ... : ... .. . ... ... ...
ROW 66 : ... .. . ... ... ... : ... .. . ... ... ... : ... .. . ... ... ... : ... .. . ... ... ... : ... .. . ... ... ...
ROW 67 : ... .. . ... ... ... : ... .. . ... ... ... : ... .. . ... ... ... : ... .. . ... ... ... : ... .. . ... ... ...
ROW 68 : ... .. . ... ... ... : ... .. . ... ... ... : ... .. . ... ... ... : ... .. . ... ... ... : ... .. . ... ... ...
ROW 69 : ... .. . ... ... ... : ... .. . ... ... ... : ... .. . ... ... ... : ... .. . ... ... ... : ... .. . ... ... ...
ROW 6A : ... .. . ... ... ... : ... .. . ... ... ... : ... .. . ... ... ... : ... .. . ... ... ... : ... .. . ... ... ...
ROW 6B : ... .. . ... ... ... : ... .. . ... ... ... : ... .. . ... ... ... : ... .. . ... ... ... : ... .. . ... ... ...
ROW 6C : ... .. . ... ... ... : ... .. . ... ... ... : ... .. . ... ... ... : ... .. . ... ... ... : ... .. . ... ... ...
ROW 6D : ... .. . ... ... ... : ... .. . ... ... ... : --- .. . ... ... ... : ... .. . ... ... ... : ... .. . ... ... ...
ROW 6E : D#2 02 . ... ... ... : C-3 01 . ... ... ... : A#2 00 . ... ... ... : ... .. . ... ... ... : ... .. . ... ... ...
ROW 6F : ... .. . ... ... ... : ... .. . ... ... ... : ... .. . ... ... ... : ... .. . ... ... ... : ... .. . ... ... ...
ROW 70 : ... .. . ... ... ... : ... .. . ... ... ... : ... .. . ... ... ... : ... .. . ... ... ... : ... .. . ... ... ...
ROW 71 : ... .. . ... ... ... : ... .. . ... ... ... : ... .. . ... ... ... : ... .. . ... ... ... : ... .. . ... ... ...
ROW 72 : ... .. . ... ... ... : ... .. . ... ... ... : ... .. . ... ... ... : ... .. . ... ... ... : ... .. . ... ... ...
ROW 73 : ... .. . ... ... ... : ... .. . ... ... ... : ... .. . ... ... ... : ... .. . ... ... ... : ... .. . ... ... ...
ROW 74 : ... .. . ... ... ... : ... .. . ... ... ... : ... .. . ... ... ... : ... .. . ... ... ... : ... .. . ... ... ...
ROW 75 : ... .. . ... ... ... : ... .. . ... ... ... : ... .. . ... ... ... : ... .. . ... ... ... : ... .. . ... ... ...
ROW 76 : ... .. . ... ... ... : ... .. . ... ... ... : ... .. . ... ... ... : ... .. . ... ... ... : ... .. . ... ... ...
ROW 77 : ... .. . ... ... ... : ... .. . ... ... ... : --- .. . ... ... ... : ... .. . ... ... ... : ... .. . ... ... ...
ROW 78 : F-2 02 . ... ... ... : ... .. . ... ... ... : A#2 00 . ... ... ... : ... .. . ... ... ... : ... .. . ... ... ...
ROW 79 : ... .. . ... ... ... : ... .. . ... ... ... : ... .. . ... ... ... : ... .. . ... ... ... : ... .. . ... ... ...
ROW 7A : ... .. . ... ... ... : ... .. . ... ... ... : ... .. . ... ... ... : ... .. . ... ... ... : ... .. . ... ... ...
ROW 7B : ... .. . ... ... ... : ... .. . ... ... ... : ... .. . ... ... ... : ... .. . ... ... ... : ... .. . ... ... ...
ROW 7C : ... .. . ... ... ... : ... .. . ... ... ... : ... .. . ... ... ... : ... .. . ... ... ... : ... .. . ... ... ...
ROW 7D : ... .. . ... ... ... : ... .. . ... ... ... : ... .. . ... ... ... : ... .. . ... ... ... : ... .. . ... ... ...
ROW 7E : ... .. . ... ... ... : ... .. . ... ... ... : ... .. . ... ... ... : ... .. . ... ... ... : ... .. . ... ... ...
ROW 7F : ... .. . ... ... ... : ... .. . ... ... ... : ... .. . ... ... ... : ... .. . ... ... ... : ... .. . ... ... ...
ROW 80 : ... .. . ... ... ... : ... .. . ... ... ... : ... .. . ... ... ... : ... .. . ... ... ... : ... .. . ... ... ...
ROW 81 : ... .. . ... ... ... : ... .. . ... ... ... : --- .. . ... ... ... : ... .. . ... ... ... : ... .. . ... ... ...
ROW 82 : ... .. . ... ... ... : ... .. . ... ... ... : A#2 04 . ... ... ... : ... .. . ... ... ... : ... .. . ... ... ...
ROW 83 : ... .. . ... ... ... : ... .. . ... ... ... : ... .. . ... ... ... : ... .. . ... ... ... : ... .. . ... ... ...
ROW 84 : ... .. . ... ... ... : ... .. . ... ... ... : ... .. . ... ... ... : ... .. . ... ... ... : ... .. . ... ... ...
ROW 85 : ... .. . ... ... ... : ... .. . ... ... ... : ... .. . ... ... ... : ... .. . ... ... ... : ... .. . ... ... ...
ROW 86 : ... .. . ... ... ... : ... .. . ... ... ... : ... .. . ... ... ... : ... .. . ... ... ... : ... .. . ... ... ...
ROW 87 : ... .. . ... ... ... : ... .. . ... ... ... : ... .. . ... ... ... : ... .. . ... ... ... : ... .. . ... ... ...
ROW 88 : ... .. . ... ... ... : ... .. . ... ... ... : ... .. . ... ... ... : ... .. . ... ... ... : ... .. . ... ... ...
ROW 89 : ... .. . ... ... ... : ... .. . ... ... ... : ... .. . ... ... ... : ... .. . ... ... ... : ... .. . ... ... ...
ROW 8A : ... .. . ... ... ... : ... .. . ... ... ... : ... .. . ... ... ... : ... .. . ... ... ... : ... .. . ... ... ...
ROW 8B : ... .. . ... ... ... : ... .. . ... ... ... : --- .. . ... ... ... : ... .. . ... ... ... : ... .. . ... ... ...
ROW 8C : ... .. . ... ... ... : ... .. . ... ... ... : A#2 04 . ... ... ... : ... .. . ... ... ... : ... .. . ... ... ...
ROW 8D : ... .. . ... ... ... : ... .. . ... ... ... : ... .. . ... ... ... : ... .. . ... ... ... : ... .. . ... ... ...
ROW 8E : ... .. . ... ... ... : ... .. . ... ... ... : ... .. . ... ... ... : ... .. . ... ... ... : ... .. . ... ... ...
ROW 8F : ... .. . ... ... ... : ... .. . ... ... ... : ... .. . ... ... ... : ... .. . ... ... ... : ... .. . ... ... ...
ROW 90 : ... .. . ... ... ... : ... .. . ... ... ... : ... .. . ... ... ... : ... .. . ... ... ... : ... .. . ... ... ...
ROW 91 : ... .. . ... ... ... : ... .. . ... ... ... : ... .. . ... ... ... : ... .. . ... ... ... : ... .. . ... ... ...
ROW 92 : ... .. . ... ... ... : ... .. . ... ... ... : ... .. . ... ... ... : ... .. . ... ... ... : ... .. . ... ... ...
ROW 93 : ... .. . ... ... ... : ... .. . ... ... ... : ... .. . ... ... ... : ... .. . ... ... ... : ... .. . ... ... ...
ROW 94 : ... .. . ... ... ... : ... .. . ... ... ... : ... .. . ... ... ... : ... .. . ... ... ... : ... .. . ... ... ...
ROW 95 : --- .. . ... ... ... : ... .. . ... ... ... : --- .. . ... ... ... : ... .. . ... ... ... : ... .. . ... ... ...
ROW 96 : F-2 02 . ... ... ... : G#2 01 . ... ... ... : A#2 04 . ... ... ... : ... .. . ... ... ... : ... .. . ... ... ...
ROW 97 : ... .. . ... ... ... : ... .. . ... ... ... : ... .. . ... ... ... : ... .. . ... ... ... : ... .. . ... ... ...
ROW 98 : ... .. . ... ... ... : ... .. . ... ... ... : ... .. . ... ... ... : ... .. . ... ... ... : ... .. . ... ... ...
ROW 99 : ... .. . ... ... ... : ... .. . ... ... ... : ... .. . ... ... ... : ... .. . ... ... ... : ... .. . ... ... ...
ROW 9A : ... .. . ... ... ... : ... .. . ... ... ... : ... .. . ... ... ... : ... .. . ... ... ... : ... .. . ... ... ...
ROW 9B : ... .. . ... ... ... : ... .. . ... ... ... : ... .. . ... ... ... : ... .. . ... ... ... : ... .. . ... ... ...
ROW 9C : ... .. . ... ... ... : ... .. . ... ... ... : ... .. . ... ... ... : ... .. . ... ... ... : ... .. . ... ... ...
ROW 9D : ... .. . ... ... ... : ... .. . ... ... ... : ... .. . ... ... ... : ... .. . ... ... ... : ... .. . ... ... ...
ROW 9E : ... .. . ... ... ... : ... .. . ... ... ... : ... .. . ... ... ... : ... .. . ... ... ... : ... .. . ... ... ...
ROW 9F : ... .. . ... ... ... : ... .. . ... ... ... : --- .. . ... ... ... : ... .. . ... ... ... : ... .. . ... ... ...

PATTERN 09
ROW 00 : G#2 02 . ... ... ... : F#2 01 . ... ... ... : G#2 00 . ... ... ... : ... .. . ... ... ... : ... .. . ... ... ...
ROW 01 : ... .. . ... ... ... : ... .. . ... ... ... : ... .. . ... ... ... : ... .. . ... ... ... : ... .. . ... ... ...
ROW 02 : ... .. . ... ... ... : ... .. . ... ... ... : ... .. . ... ... ... : ... .. . ... ... ... : ... .. . ... ... ...
ROW 03 : ... .. . ... ... ... : ... .. . ... ... ... : ... .. . ... ... ... : ... .. . ... ... ... : ... .. . ... ... ...
ROW 04 : ... .. . ... ... ... : ... .. . ... ... ... : ... .. . ... ... ... : ... .. . ... ... ... : ... .. . ... ... ...
ROW 05 : ... .. . ... ... ... : ... .. . ... ... ... : ... .. . ... ... ... : ... .. . ... ... ... : ... .. . ... ... ...
ROW 06 : ... .. . ... ... ... : ... .. . ... ... ... : ... .. . ... ... ... : ... .. . ... ... ... : ... .. . ... ... ...
ROW 07 : ... .. . ... ... ... : ... .. . ... ... ... : ... .. . ... ... ... : ... .. . ... ... ... : ... .. . ... ... ...
ROW 08 : ... .. . ... ... ... : ... .. . ... ... ... : ... .. . ... ... ... : ... .. . ... ... ... : ... .. . ... ... ...
ROW 09 : ... .. . ... ... ... : ... .. . ... ... ... : --- .. . ... ... ... : ... .. . ... ... ... : ... .. . ... ... ...
ROW 0A : ... .. . ... ... ... : A#2 01 . ... ... ... : D#3 04 . ... ... ... : ... .. . ... ... ... : ... .. . ... ... ...
ROW 0B : ... .. . ... ... ... : ... .. . ... ... ... : ... .. . ... ... ... : ... .. . ... ... ... : ... .. . ... ... ...
ROW 0C : ... .. . ... ... ... : ... .. . ... ... ... : ... .. . ... ... ... : ... .. . ... ... ... : ... .. . ... ... ...
ROW 0D : ... .. . ... ... ... : ... .. . ... ... ... : ... .. . ... ... ... : ... .. . ... ... ... : ... .. . ... ... ...
ROW 0E : ... .. . ... ... ... : ... .. . ... ... ... : ... .. . ... ... ... : ... .. . ... ... ... : ... .. . ... ... ...
ROW 0F : ... .. . ... ... ... : ... .. . ... ... ... : ... .. . ... ... ... : ... .. . ... ... ... : ... .. . ... ... ...
ROW 10 : ... .. . ... ... ... : ... .. . ... ... ... : ... .. . ... ... ... : ... .. . ... ... ... : ... .. . ... ... ...
ROW 11 : ... .. . ... ... ... : ... .. . ... ... ... : ... .. . ... ... ... : ... .. . ... ... ... : ... .. . ... ... ...
ROW 12 : ... .. . ... ... ... : ... .. . ... ... ... : ... .. . ... ... ... : ... .. . ... ... ... : ... .. . ... ... ...
ROW 13 : ... .. . ... ... ... : ... .. . ... ... ... : --- .. . ... ... ... : ... .. . ... ... ... : ... .. . ... ... ...
ROW 14 : ... .. . ... ... ... : C#3 01 . ... ... ... : G#2 04 . ... ... ... : ... .. . ... ... ... : ... .. . ... ... ...
ROW 15 : ... .. . ... ... ... : ... .. . ... ... ... : ... .. . ... ... ... : ... .. . ... ... ... : ... .. . ... ... ...
ROW 16 : ... .. . ... ... ... : ... .. . ... ... ... : ... .. . ... ... ... : ... .. . ... ... ... : ... .. . ... ... ...
ROW 17 : ... .. . ... ... ... : ... .. . ... ... ... : ... .. . ... ... ... : ... .. . ... ... ... : ... .. . ... ... ...
ROW 18 : ... .. . ... ... ... : ... .. . ... ... ... : ... .. . ... ... ... : ... .. . ... ... ... : ... .. . ... ... ...
ROW 19 : G#2 09 . QB4 ... ... : ... .. . ... ... ... : ... .. . ... ... ... : ... .. . ... ... ... : ... .. . ... ... ...
ROW 1A : ... .. . ... ... ... : ... .. . ... ... ... : ... .. . ... ... ... : ... .. . ... ... ... : ... .. . ... ... ...
ROW 1B : ... .. . ... ... ... : ... .. . ... ... ... : ... .. . ... ... ... : ... .. . ... ... ... : ... .. . ... ... ...
ROW 1C : ... .. . ... ... ... : ... .. . ... ... ... : ... .. . ... ... ... : ... .. . ... ... ... : ... .. . ... ... ...
ROW 1D : ... .. . ... ... ... : ... .. . ... ... ... : --- .. . ... ... ... : ... .. . ... ... ... : ... .. . ... ... ...
ROW 1E : C-3 03 . ... ... ... : A#2 01 . ... ... ... : G#2 00 . ... ... ... : ... .. . ... ... ... : ... .. . ... ... ...
ROW 1F : ... .. . ... ... ... : ... .. . ... ... ... : ... .. . ... ... ... : ... .. . ... ... ... : ... .. . ... ... ...
ROW 20 : ... .. . ... ... ... : ... .. . ... ... ... : ... .. . ... ... ... : ... .. . ... ... ... : ... .. . ... ... ...
ROW 21 : ... .. . ... ... ... : ... .. . ... ... ... : ... .. . ... ... ... : ... .. . ... ... ... : ... .. . ... ... ...
ROW 22 : ... .. . ... ... ... : ... .. . ... ... ... : ... .. . ... ... ... : ... .. . ... ... ... : ... .. . ... ... ...
ROW 23 : ... .. . ... ... ... : ... .. . ... ... ... : ... .. . ... ... ... : ... .. . ... ... ... : ... .. . ... ... ...
ROW 24 : ... .. . ... ... ... : ... .. . ... ... ... : ... .. . ... ... ... : ... .. . ... ... ... : ... .. . ... ... ...
ROW 25 : ... .. . ... ... ... : ... .. . ... ... ... : ... .. . ... ... ... : ... .. . ... ... ... : ... .. . ... ... ...
ROW 26 : ... .. . ... ... ... : ... .. . ... ... ... : ... .. . ... ... ... : ... .. . ... ... ... : ... .. . ... ... ...
ROW 27 : ... .. . ... ... ... : ... .. . ... ... ... : --- .. . ... ... ... : ... .. . ... ... ... : ... .. . ... ... ...
ROW 28 : ... .. . ... ... ... : ... .. . ... ... ... : G#2 00 . ... ... ... : ... .. . ... ... ... : ... .. . ... ... ...
ROW 29 : ... .. . ... ... ... : ... .. . ... ... ... : ... .. . ... ... ... : ... .. . ... ... ... : ... .. . ... ... ...
ROW 2A : ... .. . ... ... ... : ... .. . ... ... ... : ... .. . ... ... ... : ... .. . ... ... ... : ... .. . ... ... ...
ROW 2B : ... .. . ... ... ... : ... .. . ... ... ... : ... .. . ... ... ... : ... .. . ... ... ... : ... .. . ... ... ...
ROW 2C : ... .. . ... ... ... : ... .. . ... ... ... : ... .. . ... ... ... : ... .. . ... ... ... : ... .. . ... ... ...
ROW 2D : ... .. . ... ... ... : ... .. . ... ... ... : ... .. . ... ... ... : ... .. . ... ... ... : ... .. . ... ... ...
ROW 2E : ... .. . ... ... ... : ... .. . ... ... ... : ... .. . ... ... ... : ... .. . ... ... ... : ... .. . ... ... ...
ROW 2F : ... .. . ... ... ... : ... .. . ... ... ... : ... .. . ... ... ... : ... .. . ... ... ... : ... .. . ... ... ...
ROW 30 : ... .. . ... ... ... : ... .. . ... ... ... : ... .. . ... ... ... : ... .. . ... ... ... : ... .. . ... ... ...
ROW 31 : ... .. . ... ... ... : ... .. . ... ... ... : --- .. . ... ... ... : ... .. . ... ... ... : ... .. . ... ... ...
ROW 32 : ... .. . ... ... ... : ... .. . ... ... ... : G#2 04 . ... ... ... : ... .. . ... ... ... : ... .. . ... ... ...
ROW 33 : ... .. . ... ... ... : ... .. . ... ... ... : ... .. . ... ... ... : ... .. . ... ... ... : ... .. . ... ... ...
ROW 34 : ... .. . ... ... ... : ... .. . ... ... ... : ... .. . ... ... ... : ... .. . ... ... ... : ... .. . ... ... ...
ROW 35 : ... .. . ... ... ... : ... .. . ... ... ... : ... .. . ... ... ... : ... .. . ... ... ... : ... .. . ... ... ...
ROW 36 : ... .. . ... ... ... : ... .. . ... ... ... : ... .. . ... ... ... : ... .. . ... ... ... : ... .. . ... ... ...
ROW 37 : ... .. . ... ... ... : ... .. . ... ... ... : ... .. . ... ... ... : ... .. . ... ... ... : ... .. . ... ... ...
ROW 38 : ... .. . ... ... ... : ... .. . ... ... ... : ... .. . ... ... ... : ... .. . ... ... ... : ... .. . ... ... ...
ROW 39 : ... .. . ... ... ... : ... .. . ... ... ... : ... .. . ... ... ... : ... .. . ... ... ... : ... .. . ... ... ...
ROW 3A : ... .. . ... ... ... : ... .. . ... ... ... : ... .. . ... ... ... : ... .. . ... ... ... : ... .. . ... ... ...
ROW 3B : ... .. . ... ... ... : ... .. . ... ... ... : --- .. . ... ... ... : ... .. . ... ... ... : ... .. . ... ... ...
ROW 3C : G#2 02 . ... ... ... : ... .. . ... ... ... : G#2 04 . ... ... ... : ... .. . ... ... ... : ... .. . ... ... ...
ROW 3D : ... .. . ... ... ... : ... .. . ... ... ... : ... .. . ... ... ... : ... .. . ... ... ... : ... .. . ... ... ...
ROW 3E : ... .. . ... ... ... : ... .. . ... ... ... : ... .. . ... ... ... : ... .. . ... ... ... : ... .. . ... ... ...
ROW 3F : ... .. . ... ... ... : ... .. . ... ... ... : ... .. . ... ... ... : ... .. . ... ... ... : ... .. . ... ... ...
ROW 40 : ... .. . ... ... ... : ... .. . ... ... ... : ... .. . ... ... ... : ... .. . ... ... ... : ... .. . ... ... ...
ROW 41 : ... .. . ... ... ... : ... .. . ... ... ... : ... .. . ... ... ... : ... .. . ... ... ... : ... .. . ... ... ...
ROW 42 : ... .. . ... ... ... : ... .. . ... ... ... : ... .. . ... ... ... : ... .. . ... ... ... : ... .. . ... ... ...
ROW 43 : ... .. . ... ... ... : ... .. . ... ... ... : ... .. . ... ... ... : ... .. . ... ... ... : ... .. . ... ... ...
ROW 44 : ... .. . ... ... ... : ... .. . ... ... ... : ... .. . ... ... ... : ... .. . ... ... ... : ... .. . ... ... ...
ROW 45 : ... .. . ... ... ... : --- .. . ... ... ... : --- .. . ... ... ... : ... .. . ... ... ... : ... .. . ... ... ...
ROW 46 : ... .. . ... ... ... : A#2 01 . ... ... ... : G#2 04 . ... ... ... : ... .. . ... ... ... : ... .. . ... ... ...
ROW 47 : ... .. . ... ... ... : ... .. . ... ... ... : ... .. . ... ... ... : ... .. . ... ... ... : ... .. . ... ... ...
ROW 48 : ... .. . ... ... ... : ... .. . ... ... ... : ... .. . ... ... ... : ... .. . ... ... ... : ... .. . ... ... ...
ROW 49 : ... .. . ... ... ... : ... .. . ... ... ... : ... .. . ... ... ... : ... .. . ... ... ... : ... .. . ... ... ...
ROW 4A : ... .. . ... ... ... : ... .. . ... ... ... : ... .. . ... ... ... : ... .. . ... ... ... : ... .. . ... ... ...
ROW 4B : ... .. . ... ... ... : ... .. . ... ... ... : ... .. . ... ... ... : ... .. . ... ... ... : ... .. . ... ... ...
ROW 4C : ... .. . ... ... ... : ... .. . ... ... ... : ... .. . ... ... ... : ... .. . ... ... ... : ... .. . ... ... ...
ROW 4D : ... .. . ... ... ... : ... .. . ... ... ... : ... .. . ... ... ... : ... .. . ... ... ... : ... .. . ... ... ...
ROW 4E : ... .. . ... ... ... : ... .. . ... ... ... : ... .. . ... ... ... : ... .. . ... ... ... : ... .. . ... ... ...
ROW 4F : ... .. . ... ... ... : ... .. . ... ... ... : --- .. . ... ... ... : ... .. . ... ... ... : ... .. . ... ... ...
ROW 50 : D#2 02 . ... ... ... : F#2 01 . ... ... ... : G#2 00 . ... ... ... : ... .. . ... ... ... : ... .. . ... ... ...
ROW 51 : ... .. . ... ... ... : ... .. . ... ... ... : ... .. . ... ... ... : ... .. . ... ... ... : ... .. . ... ... ...
ROW 52 : ... .. . ... ... ... : ... .. . ... ... ... : ... .. . ... ... ... : ... .. . ... ... ... : ... .. . ... ... ...
ROW 53 : ... .. . ... ... ... : ... .. . ... ... ... : ... .. . ... ... ... : ... .. . ... ... ... : ... .. . ... ... ...
ROW 54 : ... .. . ... ... ... : ... .. . ... ... ... : ... .. . ... ... ... : ... .. . ... ... ... : ... .. . ... ... ...
ROW 55 : ... .. . ... ... ... : ... .. . ... ... ... : ... .. . ... ... ... : ... .. . ... ... ... : ... .. . ... ... ...
ROW 56 : ... .. . ... ... ... : ... .. . ... ... ... : ... .. . ... ... ... : ... .. . ... ... ... : ... .. . ... ... ...
ROW 57 : ... .. . ... ... ... : ... .. . ... ... ... : ... .. . ... ... ... : ... .. . ... ... ... : ... .. . ... ... ...
ROW 58 : ... .. . ... ... ... : ... .. . ... ... ... : ... .. . ... ... ... : ... .. . ... ... ... : ... .. . ... ... ...
ROW 59 : ... .. . ... ... ... : ... .. . ... ... ... : --- .. . ... ... ... : ... .. . ... ... ... : ... .. . ... ... ...
ROW 5A : ... .. . ... ... ... : A#2 01 . ... ... ... : F-3 04 . ... ... ... : ... .. . ... ... ... : ... .. . ... ... ...
ROW 5B : ... .. . ... ... ... : ... .. . ... ... ... : ... .. . ... ... ... : ... .. . ... ... ... : ... .. . ... ... ...
ROW 5C : ... .. . ... ... ... : ... .. . ... ... ... : ... .. . ... ... ... : ... .. . ... ... ... : ... .. . ... ... ...
ROW 5D : ... .. . ... ... ... : ... .. . ... ... ... : ... .. . ... ... ... : ... .. . ... ... ... : ... .. . ... ... ...
ROW 5E : ... .. . ... ... ... : ... .. . ... ... ... : ... .. . ... ... ... : ... .. . ... ... ... : ... .. . ... ... ...
ROW 5F : ... .. . ... ... ... : ... .. . ... ... ... : ... .. . ... ... ... : ... .. . ... ... ... : ... .. . ... ... ...
ROW 60 : ... .. . ... ... ... : ... .. . ... ... ... : ... .. . ... ... ... : ... .. . ... ... ... : ... .. . ... ... ...
ROW 61 : ... .. . ... ... ... : ... .. . ... ... ... : ... .. . ... ... ... : ... .. . ... ... ... : ... .. . ... ... ...
ROW 62 : ... .. . ... ... ... : ... .. . ... ... ... : ... .. . ... ... ... : ... .. . ... ... ... : ... .. . ... ... ...
ROW 63 : ... .. . ... ... ... : ... .. . ... ... ... : --- .. . ... ... ... : ... .. . ... ... ... : ... .. . ... ... ...
ROW 64 : ... .. . ... ... ... : C#3 01 . ... ... ... : A#2 04 . ... ... ... : ... .. . ... ... ... : ... .. . ... ... ...
ROW 65 : ... .. . ... ... ... : ... .. . ... ... ... : ... .. . ... ... ... : ... .. . ... ... ... : ... .. . ... ... ...
ROW 66 : ... .. . ... ... ... : ... .. . ... ... ... : ... .. . ... ... ... : ... .. . ... ... ... : ... .. . ... ... ...
ROW 67 : ... .. . ... ... ... : ... .. . ... ... ... : ... .. . ... ... ... : ... .. . ... ... ... : ... .. . ... ... ...
ROW 68 : ... .. . ... ... ... : ... .. . ... ... ... : ... .. . ... ... ... : ... .. . ... ... ... : ... .. . ... ... ...
ROW 69 : ... .. . ... ... ... : ... .. . ... ... ... : ... .. . ... ... ... : ... .. . ... ... ... : ... .. . ... ... ...
ROW 6A : ... .. . ... ... ... : ... .. . ... ... ... : ... .. . ... ... ... : ... .. . ... ... ... : ... .. . ... ... ...
ROW 6B : ... .. . ... ... ... : ... .. . ... ... ... : ... .. . ... ... ... : ... .. . ... ... ... : ... .. . ... ... ...
ROW 6C : ... .. . ... ... ... : ... .. . ... ... ... : ... .. . ... ... ... : ... .. . ... ... ... : ... .. . ... ... ...
ROW 6D : ... .. . ... ... ... : ... .. . ... ... ... : --- .. . ... ... ... : ... .. . ... ... ... : ... .. . ... ... ...
ROW 6E : ... .. . ... ... ... : A#2 01 . ... ... ... : A#2 00 . ... ... ... : ... .. . ... ... ... : ... .. . ... ... ...
ROW 6F : ... .. . ... ... ... : ... .. . ... ... ... : ... .. . ... ... ... : ... .. . ... ... ... : ... .. . ... ... ...
ROW 70 : ... .. . ... ... ... : ... .. . ... ... ... : ... .. . ... ... ... : ... .. . ... ... ... : ... .. . ... ... ...
ROW 71 : ... .. . ... ... ... : ... .. . ... ... ... : ... .. . ... ... ... : ... .. . ... ... ... : ... .. . ... ... ...
ROW 72 : ... .. . ... ... ... : ... .. . ... ... ... : ... .. . ... ... ... : ... .. . ... ... ... : ... .. . ... ... ...
ROW 73 : ... .. . ... ... ... : ... .. . ... ... ... : ... .. . ... ... ... : ... .. . ... ... ... : ... .. . ... ... ...
ROW 74 : ... .. . ... ... ... : ... .. . ... ... ... : ... .. . ... ... ... : ... .. . ... ... ... : ... .. . ... ... ...
ROW 75 : ... .. . ... ... ... : ... .. . ... ... ... : ... .. . ... ... ... : ... .. . ... ... ... : ... .. . ... ... ...
ROW 76 : ... .. . ... ... ... : ... .. . ... ... ... : ... .. . ... ... ... : ... .. . ... ... ... : ... .. . ... ... ...
ROW 77 : ... .. . ... ... ... : ... .. . ... ... ... : --- .. . ... ... ... : ... .. . ... ... ... : ... .. . ... ... ...
ROW 78 : ... .. . ... ... ... : ... .. . ... ... ... : A#2 00 . ... ... ... : ... .. . ... ... ... : ... .. . ... ... ...
ROW 79 : ... .. . ... ... ... : ... .. . ... ... ... : ... .. . ... ... ... : ... .. . ... ... ... : ... .. . ... ... ...
ROW 7A : ... .. . ... ... ... : ... .. . ... ... ... : ... .. . ... ... ... : ... .. . ... ... ... : ... .. . ... ... ...
ROW 7B : ... .. . ... ... ... : ... .. . ... ... ... : ... .. . ... ... ... : ... .. . ... ... ... : ... .. . ... ... ...
ROW 7C : ... .. . ... ... ... : ... .. . ... ... ... : ... .. . ... ... ... : ... .. . ... ... ... : ... .. . ... ... ...
ROW 7D : ... .. . ... ... ... : ... .. . ... ... ... : ... .. . ... ... ... : ... .. . ... ... ... : ... .. . ... ... ...
ROW 7E : ... .. . ... ... ... : ... .. . ... ... ... : ... .. . ... ... ... : ... .. . ... ... ... : ... .. . ... ... ...
ROW 7F : ... .. . ... ... ... : ... .. . ... ... ... : ... .. . ... ... ... : ... .. . ... ... ... : ... .. . ... ... ...
ROW 80 : ... .. . ... ... ... : ... .. . ... ... ... : ... .. . ... ... ... : ... .. . ... ... ... : ... .. . ... ... ...
ROW 81 : ... .. . ... ... ... : ... .. . ... ... ... : --- .. . ... ... ... : ... .. . ... ... ... : ... .. . ... ... ...
ROW 82 : ... .. . ... ... ... : ... .. . ... ... ... : A#2 04 . ... ... ... : ... .. . ... ... ... : ... .. . ... ... ...
ROW 83 : ... .. . ... ... ... : ... .. . ... ... ... : ... .. . ... ... ... : ... .. . ... ... ... : ... .. . ... ... ...
ROW 84 : ... .. . ... ... ... : ... .. . ... ... ... : ... .. . ... ... ... : ... .. . ... ... ... : ... .. . ... ... ...
ROW 85 : ... .. . ... ... ... : ... .. . ... ... ... : ... .. . ... ... ... : ... .. . ... ... ... : ... .. . ... ... ...
ROW 86 : ... .. . ... ... ... : ... .. . ... ... ... : ... .. . ... ... ... : ... .. . ... ... ... : ... .. . ... ... ...
ROW 87 : ... .. . ... ... ... : ... .. . ... ... ... : ... .. . ... ... ... : ... .. . ... ... ... : ... .. . ... ... ...
ROW 88 : ... .. . ... ... ... : ... .. . ... ... ... : ... .. . ... ... ... : ... .. . ... ... ... : ... .. . ... ... ...
ROW 89 : ... .. . ... ... ... : ... .. . ... ... ... : ... .. . ... ... ... : ... .. . ... ... ... : ... .. . ... ... ...
ROW 8A : ... .. . ... ... ... : ... .. . ... ... ... : ... .. . ... ... ... : ... .. . ... ... ... : ... .. . ... ... ...
ROW 8B : ... .. . ... ... ... : ... .. . ... ... ... : --- .. . ... ... ... : ... .. . ... ... ... : ... .. . ... ... ...
ROW 8C : ... .. . ... ... ... : ... .. . ... ... ... : A#2 04 . ... ... ... : ... .. . ... ... ... : ... .. . ... ... ...
ROW 8D : ... .. . ... ... ... : ... .. . ... ... ... : ... .. . ... ... ... : ... .. . ... ... ... : ... .. . ... ... ...
ROW 8E : ... .. . ... ... ... : ... .. . ... ... ... : ... .. . ... ... ... : ... .. . ... ... ... : ... .. . ... ... ...
ROW 8F : ... .. . ... ... ... : ... .. . ... ... ... : ... .. . ... ... ... : ... .. . ... ... ... : ... .. . ... ... ...
ROW 90 : ... .. . ... ... ... : ... .. . ... ... ... : ... .. . ... ... ... : ... .. . ... ... ... : ... .. . ... ... ...
ROW 91 : ... .. . ... ... ... : ... .. . ... ... ... : ... .. . ... ... ... : ... .. . ... ... ... : ... .. . ... ... ...
ROW 92 : ... .. . ... ... ... : ... .. . ... ... ... : ... .. . ... ... ... : ... .. . ... ... ... : ... .. . ... ... ...
ROW 93 : ... .. . ... ... ... : ... .. . ... ... ... : ... .. . ... ... ... : ... .. . ... ... ... : ... .. . ... ... ...
ROW 94 : ... .. . ... ... ... : ... .. . ... ... ... : ... .. . ... ... ... : ... .. . ... ... ... : ... .. . ... ... ...
ROW 95 : --- .. . ... ... ... : --- .. . ... ... ... : --- .. . ... ... ... : ... .. . ... ... ... : ... .. . ... ... ...
ROW 96 : D#2 02 . ... ... ... : A#2 01 . ... ... ... : A#2 04 . ... ... ... : ... .. . ... ... ... : ... .. . ... ... ...
ROW 97 : ... .. . ... ... ... : ... .. . ... ... ... : ... .. . ... ... ... : ... .. . ... ... ... : ... .. . ... ... ...
ROW 98 : ... .. . ... ... ... : ... .. . ... ... ... : ... .. . ... ... ... : ... .. . ... ... ... : ... .. . ... ... ...
ROW 99 : ... .. . ... ... ... : ... .. . ... ... ... : ... .. . ... ... ... : ... .. . ... ... ... : ... .. . ... ... ...
ROW 9A : ... .. . ... ... ... : ... .. . ... ... ... : ... .. . ... ... ... : ... .. . ... ... ... : ... .. . ... ... ...
ROW 9B : ... .. . ... ... ... : ... .. . ... ... ... : ... .. . ... ... ... : ... .. . ... ... ... : ... .. . ... ... ...
ROW 9C : ... .. . ... ... ... : ... .. . ... ... ... : ... .. . ... ... ... : ... .. . ... ... ... : ... .. . ... ... ...
ROW 9D : ... .. . ... ... ... : ... .. . ... ... ... : ... .. . ... ... ... : ... .. . ... ... ... : ... .. . ... ... ...
ROW 9E : ... .. . ... ... ... : ... .. . ... ... ... : ... .. . ... ... ... : ... .. . ... ... ... : ... .. . ... ... ...
ROW 9F : ... .. . ... ... ... : --- .. . ... ... ... : --- .. . B00 ... ... : ... .. . ... ... ... : ... .. . ... ... ...

PATTERN 0A
ROW 00 : F#2 02 . ... ... ... : G#2 01 . ... ... ... : ... .. . ... ... ... : ... .. . ... ... ... : ... .. . ... ... ...
ROW 01 : ... .. . ... ... ... : ... .. . ... ... ... : ... .. . ... ... ... : ... .. . ... ... ... : ... .. . ... ... ...
ROW 02 : ... .. . ... ... ... : ... .. . ... ... ... : ... .. . ... ... ... : ... .. . ... ... ... : ... .. . ... ... ...
ROW 03 : ... .. . ... ... ... : ... .. . ... ... ... : ... .. . ... ... ... : ... .. . ... ... ... : ... .. . ... ... ...
ROW 04 : ... .. . ... ... ... : ... .. . ... ... ... : ... .. . ... ... ... : ... .. . ... ... ... : ... .. . ... ... ...
ROW 05 : ... .. . ... ... ... : ... .. . ... ... ... : ... .. . ... ... ... : ... .. . ... ... ... : ... .. . ... ... ...
ROW 06 : ... .. . ... ... ... : ... .. . ... ... ... : ... .. . ... ... ... : ... .. . ... ... ... : ... .. . ... ... ...
ROW 07 : ... .. . ... ... ... : ... .. . ... ... ... : ... .. . ... ... ... : ... .. . ... ... ... : ... .. . ... ... ...
ROW 08 : ... .. . ... ... ... : ... .. . ... ... ... : ... .. . ... ... ... : ... .. . ... ... ... : ... .. . ... ... ...
ROW 09 : ... .. . ... ... ... : ... .. . ... ... ... : ... .. . ... ... ... : ... .. . ... ... ... : ... .. . ... ... ...
ROW 0A : ... .. . ... ... ... : C-3 01 . ... ... ... : ... .. . ... ... ... : ... .. . ... ... ... : ... .. . ... ... ...
ROW 0B : ... .. . ... ... ... : ... .. . ... ... ... : ... .. . ... ... ... : ... .. . ... ... ... : ... .. . ... ... ...
ROW 0C : ... .. . ... ... ... : ... .. . ... ... ... : ... .. . ... ... ... : ... .. . ... ... ... : ... .. . ... ... ...
ROW 0D : ... .. . ... ... ... : ... .. . ... ... ... : ... .. . ... ... ... : ... .. . ... ... ... : ... .. . ... ... ...
ROW 0E : ... .. . ... ... ... : ... .. . ... ... ... : ... .. . ... ... ... : ... .. . ... ... ... : ... .. . ... ... ...
ROW 0F : ... .. . ... ... ... : ... .. . ... ... ... : ... .. . ... ... ... : ... .. . ... ... ... : ... .. . ... ... ...
ROW 10 : ... .. . ... ... ... : ... .. . ... ... ... : ... .. . ... ... ... : ... .. . ... ... ... : ... .. . ... ... ...
ROW 11 : ... .. . ... ... ... : ... .. . ... ... ... : ... .. . ... ... ... : ... .. . ... ... ... : ... .. . ... ... ...
ROW 12 : ... .. . ... ... ... : ... .. . ... ... ... : ... .. . ... ... ... : ... .. . ... ... ... : ... .. . ... ... ...
ROW 13 : ... .. . ... ... ... : ... .. . ... ... ... : ... .. . ... ... ... : ... .. . ... ... ... : ... .. . ... ... ...
ROW 14 : A#2 02 . ... ... ... : D#3 01 . ... ... ... : ... .. . ... ... ... : ... .. . ... ... ... : ... .. . ... ... ...
ROW 15 : ... .. . ... ... ... : ... .. . ... ... ... : ... .. . ... ... ... : ... .. . ... ... ... : ... .. . ... ... ...
ROW 16 : ... .. . ... ... ... : ... .. . ... ... ... : ... .. . ... ... ... : ... .. . ... ... ... : ... .. . ... ... ...
ROW 17 : ... .. . ... ... ... : ... .. . ... ... ... : ... .. . ... ... ... : ... .. . ... ... ... : ... .. . ... ... ...
ROW 18 : ... .. . ... ... ... : ... .. . ... ... ... : ... .. . ... ... ... : ... .. . ... ... ... : ... .. . ... ... ...
ROW 19 : ... .. . ... ... ... : ... .. . ... ... ... : ... .. . ... ... ... : ... .. . ... ... ... : ... .. . ... ... ...
ROW 1A : ... .. . ... ... ... : ... .. . ... ... ... : ... .. . ... ... ... : ... .. . ... ... ... : ... .. . ... ... ...
ROW 1B : ... .. . ... ... ... : ... .. . ... ... ... : ... .. . ... ... ... : ... .. . ... ... ... : ... .. . ... ... ...
ROW 1C : ... .. . ... ... ... : ... .. . ... ... ... : ... .. . ... ... ... : ... .. . ... ... ... : ... .. . ... ... ...
ROW 1D : ... .. . ... ... ... : ... .. . ... ... ... : ... .. . ... ... ... : ... .. . ... ... ... : ... .. . ... ... ...
ROW 1E : G#2 02 . ... ... ... : C-3 01 . ... ... ... : ... .. . ... ... ... : ... .. . ... ... ... : ... .. . ... ... ...
ROW 1F : ... .. . ... ... ... : ... .. . ... ... ... : ... .. . ... ... ... : ... .. . ... ... ... : ... .. . ... ... ...
ROW 20 : ... .. . ... ... ... : ... .. . ... ... ... : ... .. . ... ... ... : ... .. . ... ... ... : ... .. . ... ... ...
ROW 21 : ... .. . ... ... ... : ... .. . ... ... ... : ... .. . ... ... ... : ... .. . ... ... ... : ... .. . ... ... ...
ROW 22 : ... .. . ... ... ... : ... .. . ... ... ... : ... .. . ... ... ... : ... .. . ... ... ... : ... .. . ... ... ...
ROW 23 : ... .. . ... ... ... : ... .. . ... ... ... : ... .. . ... ... ... : ... .. . ... ... ... : ... .. . ... ... ...
ROW 24 : ... .. . ... ... ... : ... .. . ... ... ... : ... .. . ... ... ... : ... .. . ... ... ... : ... .. . ... ... ...
ROW 25 : ... .. . ... ... ... : ... .. . ... ... ... : ... .. . ... ... ... : ... .. . ... ... ... : ... .. . ... ... ...
ROW 26 : ... .. . ... ... ... : ... .. . ... ... ... : ... .. . ... ... ... : ... .. . ... ... ... : ... .. . ... ... ...
ROW 27 : ... .. . ... ... ... : ... .. . ... ... ... : ... .. . ... ... ... : ... .. . ... ... ... : ... .. . ... ... ...
ROW 28 : F#2 02 . ... ... ... : ... .. . ... ... ... : ... .. . ... ... ... : ... .. . ... ... ... : ... .. . ... ... ...
ROW 29 : ... .. . ... ... ... : ... .. . ... ... ... : ... .. . ... ... ... : ... .. . ... ... ... : ... .. . ... ... ...
ROW 2A : ... .. . ... ... ... : ... .. . ... ... ... : ... .. . ... ... ... : ... .. . ... ... ... : ... .. . ... ... ...
ROW 2B : ... .. . ... ... ... : ... .. . ... ... ... : ... .. . ... ... ... : ... .. . ... ... ... : ... .. . ... ... ...
ROW 2C : ... .. . ... ... ... : ... .. . ... ... ... : ... .. . ... ... ... : ... .. . ... ... ... : ... .. . ... ... ...
ROW 2D : ... .. . ... ... ... : ... .. . ... ... ... : ... .. . ... ... ... : ... .. . ... ... ... : ... .. . ... ... ...
ROW 2E : ... .. . ... ... ... : ... .. . ... ... ... : ... .. . ... ... ... : ... .. . ... ... ... : ... .. . ... ... ...
ROW 2F : ... .. . ... ... ... : ... .. . ... ... ... : ... .. . ... ... ... : ... .. . ... ... ... : ... .. . ... ... ...
ROW 30 : ... .. . ... ... ... : ... .. . ... ... ... : ... .. . ... ... ... : ... .. . ... ... ... : ... .. . ... ... ...
ROW 31 : ... .. . ... ... ... : ... .. . ... ... ... : ... .. . ... ... ... : ... .. . ... ... ... : ... .. . ... ... ...
ROW 32 : ... .. . ... ... ... : ... .. . ... ... ... : ... .. . ... ... ... : ... .. . ... ... ... : ... .. . ... ... ...
ROW 33 : ... .. . ... ... ... : ... .. . ... ... ... : ... .. . ... ... ... : ... .. . ... ... ... : ... .. . ... ... ...
ROW 34 : ... .. . ... ... ... : ... .. . ... ... ... : ... .. . ... ... ... : ... .. . ... ... ... : ... .. . ... ... ...
ROW 35 : ... .. . ... ... ... : ... .. . ... ... ... : ... .. . ... ... ... : ... .. . ... ... ... : ... .. . ... ... ...
ROW 36 : ... .. . ... ... ... : ... .. . ... ... ... : ... .. . ... ... ... : ... .. . ... ... ... : ... .. . ... ... ...
ROW 37 : ... .. . ... ... ... : ... .. . ... ... ... : ... .. . ... ... ... : ... .. . ... ... ... : ... .. . ... ... ...
ROW 38 : ... .. . ... ... ... : ... .. . ... ... ... : ... .. . ... ... ... : ... .. . ... ... ... : ... .. . ... ... ...
ROW 39 : ... .. . ... ... ... : ... .. . ... ... ... : ... .. . ... ... ... : ... .. . ... ... ... : ... .. . ... ... ...
ROW 3A : ... .. . ... ... ... : ... .. . ... ... ... : ... .. . ... ... ... : ... .. . ... ... ... : ... .. . ... ... ...
ROW 3B : ... .. . ... ... ... : ... .. . ... ... ... : ... .. . ... ... ... : ... .. . ... ... ... : ... .. . ... ... ...
ROW 3C : ... .. . ... ... ... : ... .. . ... ... ... : ... .. . ... ... ... : ... .. . ... ... ... : ... .. . ... ... ...
ROW 3D : ... .. . ... ... ... : ... .. . ... ... ... : ... .. . ... ... ... : ... .. . ... ... ... : ... .. . ... ... ...
ROW 3E : ... .. . ... ... ... : ... .. . ... ... ... : ... .. . ... ... ... : ... .. . ... ... ... : ... .. . ... ... ...
ROW 3F : ... .. . ... ... ... : ... .. . ... ... ... : ... .. . ... ... ... : ... .. . ... ... ... : ... .. . ... ... ...
ROW 40 : ... .. . ... ... ... : ... .. . ... ... ... : ... .. . ... ... ... : ... .. . ... ... ... : ... .. . ... ... ...
ROW 41 : ... .. . ... ... ... : ... .. . ... ... ... : ... .. . ... ... ... : ... .. . ... ... ... : ... .. . ... ... ...
ROW 42 : ... .. . ... ... ... : ... .. . ... ... ... : ... .. . ... ... ... : ... .. . ... ... ... : ... .. . ... ... ...
ROW 43 : ... .. . ... ... ... : ... .. . ... ... ... : ... .. . ... ... ... : ... .. . ... ... ... : ... .. . ... ... ...
ROW 44 : ... .. . ... ... ... : ... .. . ... ... ... : ... .. . ... ... ... : ... .. . ... ... ... : ... .. . ... ... ...
ROW 45 : ... .. . ... ... ... : --- .. . ... ... ... : ... .. . ... ... ... : ... .. . ... ... ... : ... .. . ... ... ...
ROW 46 : C#2 02 . ... ... ... : C-3 01 . ... ... ... : ... .. . ... ... ... : ... .. . ... ... ... : ... .. . ... ... ...
ROW 47 : ... .. . ... ... ... : ... .. . ... ... ... : ... .. . ... ... ... : ... .. . ... ... ... : ... .. . ... ... ...
ROW 48 : ... .. . ... ... ... : ... .. . ... ... ... : ... .. . ... ... ... : ... .. . ... ... ... : ... .. . ... ... ...
ROW 49 : ... .. . ... ... ... : ... .. . ... ... ... : ... .. . ... ... ... : ... .. . ... ... ... : ... .. . ... ... ...
ROW 4A : ... .. . ... ... ... : ... .. . ... ... ... : ... .. . ... ... ... : ... .. . ... ... ... : ... .. . ... ... ...
ROW 4B : ... .. . ... ... ... : ... .. . ... ... ... : ... .. . ... ... ... : ... .. . ... ... ... : ... .. . ... ... ...
ROW 4C : ... .. . ... ... ... : ... .. . ... ... ... : ... .. . ... ... ... : ... .. . ... ... ... : ... .. . ... ... ...
ROW 4D : ... .. . ... ... ... : ... .. . ... ... ... : ... .. . ... ... ... : ... .. . ... ... ... : ... .. . ... ... ...
ROW 4E : ... .. . ... ... ... : ... .. . ... ... ... : ... .. . ... ... ... : ... .. . ... ... ... : ... .. . ... ... ...
ROW 4F : ... .. . ... ... ... : ... .. . ... ... ... : ... .. . ... ... ... : ... .. . ... ... ... : ... .. . ... ... ...
ROW 50 : C-2 02 . ... ... ... : G#2 01 . ... ... ... : ... .. . ... ... ... : ... .. . ... ... ... : ... .. . ... ... ...
ROW 51 : ... .. . ... ... ... : ... .. . ... ... ... : ... .. . ... ... ... : ... .. . ... ... ... : ... .. . ... ... ...
ROW 52 : ... .. . ... ... ... : ... .. . ... ... ... : ... .. . ... ... ... : ... .. . ... ... ... : ... .. . ... ... ...
ROW 53 : ... .. . ... ... ... : ... .. . ... ... ... : ... .. . ... ... ... : ... .. . ... ... ... : ... .. . ... ... ...
ROW 54 : ... .. . ... ... ... : ... .. . ... ... ... : ... .. . ... ... ... : ... .. . ... ... ... : ... .. . ... ... ...
ROW 55 : ... .. . ... ... ... : ... .. . ... ... ... : ... .. . ... ... ... : ... .. . ... ... ... : ... .. . ... ... ...
ROW 56 : ... .. . ... ... ... : ... .. . ... ... ... : ... .. . ... ... ... : ... .. . ... ... ... : ... .. . ... ... ...
ROW 57 : ... .. . ... ... ... : ... .. . ... ... ... : ... .. . ... ... ... : ... .. . ... ... ... : ... .. . ... ... ...
ROW 58 : ... .. . ... ... ... : ... .. . ... ... ... : ... .. . ... ... ... : ... .. . ... ... ... : ... .. . ... ... ...
ROW 59 : ... .. . ... ... ... : ... .. . ... ... ... : ... .. . ... ... ... : ... .. . ... ... ... : ... .. . ... ... ...
ROW 5A : ... .. . ... ... ... : C-3 01 . ... ... ... : ... .. . ... ... ... : ... .. . ... ... ... : ... .. . ... ... ...
ROW 5B : ... .. . ... ... ... : ... .. . ... ... ... : ... .. . ... ... ... : ... .. . ... ... ... : ... .. . ... ... ...
ROW 5C : ... .. . ... ... ... : ... .. . ... ... ... : ... .. . ... ... ... : ... .. . ... ... ... : ... .. . ... ... ...
ROW 5D : ... .. . ... ... ... : ... .. . ... ... ... : ... .. . ... ... ... : ... .. . ... ... ... : ... .. . ... ... ...
ROW 5E : ... .. . ... ... ... : ... .. . ... ... ... : ... .. . ... ... ... : ... .. . ... ... ... : ... .. . ... ... ...
ROW 5F : ... .. . ... ... ... : ... .. . ... ... ... : ... .. . ... ... ... : ... .. . ... ... ... : ... .. . ... ... ...
ROW 60 : ... .. . ... ... ... : ... .. . ... ... ... : ... .. . ... ... ... : ... .. . ... ... ... : ... .. . ... ... ...
ROW 61 : ... .. . ... ... ... : ... .. . ... ... ... : ... .. . ... ... ... : ... .. . ... ... ... : ... .. . ... ... ...
ROW 62 : ... .. . ... ... ... : ... .. . ... ... ... : ... .. . ... ... ... : ... .. . ... ... ... : ... .. . ... ... ...
ROW 63 : ... .. . ... ... ... : ... .. . ... ... ... : ... .. . ... ... ... : ... .. . ... ... ... : ... .. . ... ... ...
ROW 64 : ... .. . ... ... ... : D#3 01 . ... ... ... : ... .. . ... ... ... : ... .. . ... ... ... : ... .. . ... ... ...
ROW 65 : ... .. . ... ... ... : ... .. . ... ... ... : ... .. . ... ... ... : ... .. . ... ... ... : ... .. . ... ... ...
ROW 66 : ... .. . ... ... ... : ... .. . ... ... ... : ... .. . ... ... ... : ... .. . ... ... ... : ... .. . ... ... ...
ROW 67 : ... .. . ... ... ... : ... .. . ... ... ... : ... .. . ... ... ... : ... .. . ... ... ... : ... .. . ... ... ...
ROW 68 : ... .. . ... ... ... : ... .. . ... ... ... : ... .. . ... ... ... : ... .. . ... ... ... : ... .. . ... ... ...
ROW 69 : ... .. . ... ... ... : ... .. . ... ... ... : ... .. . ... ... ... : ... .. . ... ... ... : ... .. . ... ... ...
ROW 6A : ... .. . ... ... ... : ... .. . ... ... ... : ... .. . ... ... ... : ... .. . ... ... ... : ... .. . ... ... ...
ROW 6B : ... .. . ... ... ... : ... .. . ... ... ... : ... .. . ... ... ... : ... .. . ... ... ... : ... .. . ... ... ...
ROW 6C : ... .. . ... ... ... : ... .. . ... ... ... : ... .. . ... ... ... : ... .. . ... ... ... : ... .. . ... ... ...
ROW 6D : ... .. . ... ... ... : ... .. . ... ... ... : ... .. . ... ... ... : ... .. . ... ... ... : ... .. . ... ... ...
ROW 6E : A#1 02 . ... ... ... : C-3 01 . ... ... ... : ... .. . ... ... ... : ... .. . ... ... ... : ... .. . ... ... ...
ROW 6F : ... .. . ... ... ... : ... .. . ... ... ... : ... .. . ... ... ... : ... .. . ... ... ... : ... .. . ... ... ...
ROW 70 : ... .. . ... ... ... : ... .. . ... ... ... : ... .. . ... ... ... : ... .. . ... ... ... : ... .. . ... ... ...
ROW 71 : ... .. . ... ... ... : ... .. . ... ... ... : ... .. . ... ... ... : ... .. . ... ... ... : ... .. . ... ... ...
ROW 72 : ... .. . ... ... ... : ... .. . ... ... ... : ... .. . ... ... ... : ... .. . ... ... ... : ... .. . ... ... ...
ROW 73 : ... .. . ... ... ... : ... .. . ... ... ... : ... .. . ... ... ... : ... .. . ... ... ... : ... .. . ... ... ...
ROW 74 : ... .. . ... ... ... : ... .. . ... ... ... : ... .. . ... ... ... : ... .. . ... ... ... : ... .. . ... ... ...
ROW 75 : ... .. . ... ... ... : ... .. . ... ... ... : ... .. . ... ... ... : ... .. . ... ... ... : ... .. . ... ... ...
ROW 76 : ... .. . ... ... ... : ... .. . ... ... ... : ... .. . ... ... ... : ... .. . ... ... ... : ... .. . ... ... ...
ROW 77 : ... .. . ... ... ... : ... .. . ... ... ... : ... .. . ... ... ... : ... .. . ... ... ... : ... .. . ... ... ...
ROW 78 : C-2 02 . ... ... ... : ... .. . ... ... ... : ... .. . ... ... ... : ... .. . ... ... ... : ... .. . ... ... ...
ROW 79 : ... .. . ... ... ... : ... .. . ... ... ... : ... .. . ... ... ... : ... .. . ... ... ... : ... .. . ... ... ...
ROW 7A : ... .. . ... ... ... : ... .. . ... ... ... : ... .. . ... ... ... : ... .. . ... ... ... : ... .. . ... ... ...
ROW 7B : ... .. . ... ... ... : ... .. . ... ... ... : ... .. . ... ... ... : ... .. . ... ... ... : ... .. . ... ... ...
ROW 7C : ... .. . ... ... ... : ... .. . ... ... ... : ... .. . ... ... ... : ... .. . ... ... ... : ... .. . ... ... ...
ROW 7D : ... .. . ... ... ... : ... .. . ... ... ... : ... .. . ... ... ... : ... .. . ... ... ... : ... .. . ... ... ...
ROW 7E : ... .. . ... ... ... : ... .. . ... ... ... : ... .. . ... ... ... : ... .. . ... ... ... : ... .. . ... ... ...
ROW 7F : ... .. . ... ... ... : ... .. . ... ... ... : ... .. . ... ... ... : ... .. . ... ... ... : ... .. . ... ... ...
ROW 80 : ... .. . ... ... ... : ... .. . ... ... ... : ... .. . ... ... ... : ... .. . ... ... ... : ... .. . ... ... ...
ROW 81 : ... .. . ... ... ... : ... .. . ... ... ... : ... .. . ... ... ... : ... .. . ... ... ... : ... .. . ... ... ...
ROW 82 : ... .. . ... ... ... : ... .. . ... ... ... : ... .. . ... ... ... : ... .. . ... ... ... : ... .. . ... ... ...
ROW 83 : ... .. . ... ... ... : ... .. . ... ... ... : ... .. . ... ... ... : ... .. . ... ... ... : ... .. . ... ... ...
ROW 84 : ... .. . ... ... ... : ... .. . ... ... ... : ... .. . ... ... ... : ... .. . ... ... ... : ... .. . ... ... ...
ROW 85 : ... .. . ... ... ... : ... .. . ... ... ... : ... .. . ... ... ... : ... .. . ... ... ... : ... .. . ... ... ...
ROW 86 : ... .. . ... ... ... : ... .. . ... ... ... : ... .. . ... ... ... : ... .. . ... ... ... : ... .. . ... ... ...
ROW 87 : ... .. . ... ... ... : ... .. . ... ... ... : ... .. . ... ... ... : ... .. . ... ... ... : ... .. . ... ... ...
ROW 88 : ... .. . ... ... ... : ... .. . ... ... ... : ... .. . ... ... ... : ... .. . ... ... ... : ... .. . ... ... ...
ROW 89 : ... .. . ... ... ... : ... .. . ... ... ... : ... .. . ... ... ... : ... .. . ... ... ... : ... .. . ... ... ...
ROW 8A : ... .. . ... ... ... : ... .. . ... ... ... : ... .. . ... ... ... : ... .. . ... ... ... : ... .. . ... ... ...
ROW 8B : ... .. . ... ... ... : ... .. . ... ... ... : ... .. . ... ... ... : ... .. . ... ... ... : ... .. . ... ... ...
ROW 8C : ... .. . ... ... ... : C#3 01 . ... ... ... : ... .. . ... ... ... : ... .. . ... ... ... : ... .. . ... ... ...
ROW 8D : ... .. . ... ... ... : ... .. . ... ... ... : ... .. . ... ... ... : ... .. . ... ... ... : ... .. . ... ... ...
ROW 8E : ... .. . ... ... ... : ... .. . ... ... ... : ... .. . ... ... ... : ... .. . ... ... ... : ... .. . ... ... ...
ROW 8F : ... .. . ... ... ... : ... .. . ... ... ... : ... .. . ... ... ... : ... .. . ... ... ... : ... .. . ... ... ...
ROW 90 : ... .. . ... ... ... : ... .. . ... ... ... : ... .. . ... ... ... : ... .. . ... ... ... : ... .. . ... ... ...
ROW 91 : ... .. . ... ... ... : ... .. . ... ... ... : ... .. . ... ... ... : ... .. . ... ... ... : ... .. . ... ... ...
ROW 92 : ... .. . ... ... ... : ... .. . ... ... ... : ... .. . ... ... ... : ... .. . ... ... ... : ... .. . ... ... ...
ROW 93 : ... .. . ... ... ... : ... .. . ... ... ... : ... .. . ... ... ... : ... .. . ... ... ... : ... .. . ... ... ...
ROW 94 : ... .. . ... ... ... : ... .. . ... ... ... : ... .. . ... ... ... : ... .. . ... ... ... : ... .. . ... ... ...
ROW 95 : --- .. . ... ... ... : ... .. . ... ... ... : ... .. . ... ... ... : ... .. . ... ... ... : ... .. . ... ... ...
ROW 96 : C-2 02 . ... ... ... : C-3 01 . ... ... ... : ... .. . ... ... ... : ... .. . ... ... ... : ... .. . ... ... ...
ROW 97 : ... .. . ... ... ... : ... .. . ... ... ... : ... .. . ... ... ... : ... .. . ... ... ... : ... .. . ... ... ...
ROW 98 : ... .. . ... ... ... : ... .. . ... ... ... : ... .. . ... ... ... : ... .. . ... ... ... : ... .. . ... ... ...
ROW 99 : ... .. . ... ... ... : ... .. . ... ... ... : ... .. . ... ... ... : ... .. . ... ... ... : ... .. . ... ... ...
ROW 9A : ... .. . ... ... ... : ... .. . ... ... ... : ... .. . ... ... ... : ... .. . ... ... ... : ... .. . ... ... ...
ROW 9B : ... .. . ... ... ... : ... .. . ... ... ... : ... .. . ... ... ... : ... .. . ... ... ... : ... .. . ... ... ...
ROW 9C : ... .. . ... ... ... : ... .. . ... ... ... : ... .. . ... ... ... : ... .. . ... ... ... : ... .. . ... ... ...
ROW 9D : ... .. . ... ... ... : ... .. . ... ... ... : ... .. . ... ... ... : ... .. . ... ... ... : ... .. . ... ... ...
ROW 9E : ... .. . ... ... ... : ... .. . ... ... ... : ... .. . ... ... ... : ... .. . ... ... ... : ... .. . ... ... ...
ROW 9F : ... .. . ... ... ... : ... .. . ... ... ... : ... .. . ... ... ... : ... .. . ... ... ... : ... .. . ... ... ...

PATTERN 0B
ROW 00 : D#2 02 . ... ... ... : A#3 02 . ... ... ... : ... .. . ... ... ... : ... .. . ... ... ... : ... .. . ... ... ...
ROW 01 : ... .. . ... ... ... : ... .. . ... ... ... : ... .. . ... ... ... : ... .. . ... ... ... : ... .. . ... ... ...
ROW 02 : ... .. . ... ... ... : ... .. . ... ... ... : ... .. . ... ... ... : ... .. . ... ... ... : ... .. . ... ... ...
ROW 03 : ... .. . ... ... ... : ... .. . ... ... ... : ... .. . ... ... ... : ... .. . ... ... ... : ... .. . ... ... ...
ROW 04 : ... .. . ... ... ... : ... .. . ... ... ... : ... .. . ... ... ... : ... .. . ... ... ... : ... .. . ... ... ...
ROW 05 : ... .. . ... ... ... : ... .. . ... ... ... : ... .. . ... ... ... : ... .. . ... ... ... : ... .. . ... ... ...
ROW 06 : ... .. . ... ... ... : ... .. . ... ... ... : ... .. . ... ... ... : ... .. . ... ... ... : ... .. . ... ... ...
ROW 07 : ... .. . ... ... ... : ... .. . ... ... ... : ... .. . ... ... ... : ... .. . ... ... ... : ... .. . ... ... ...
ROW 08 : ... .. . ... ... ... : ... .. . ... ... ... : ... .. . ... ... ... : ... .. . ... ... ... : ... .. . ... ... ...
ROW 09 : ... .. . ... ... ... : ... .. . ... ... ... : ... .. . ... ... ... : ... .. . ... ... ... : ... .. . ... ... ...
ROW 0A : ... .. . ... ... ... : ... .. . ... ... ... : ... .. . ... ... ... : ... .. . ... ... ... : ... .. . ... ... ...
ROW 0B : ... .. . ... ... ... : ... .. . ... ... ... : ... .. . ... ... ... : ... .. . ... ... ... : ... .. . ... ... ...
ROW 0C : ... .. . ... ... ... : ... .. . ... ... ... : ... .. . ... ... ... : ... .. . ... ... ... : ... .. . ... ... ...
ROW 0D : ... .. . ... ... ... : ... .. . ... ... ... : ... .. . ... ... ... : ... .. . ... ... ... : ... .. . ... ... ...
ROW 0E : ... .. . ... ... ... : ... .. . ... ... ... : ... .. . ... ... ... : ... .. . ... ... ... : ... .. . ... ... ...
ROW 0F : ... .. . ... ... ... : ... .. . ... ... ... : ... .. . ... ... ... : ... .. . ... ... ... : ... .. . ... ... ...
ROW 10 : ... .. . ... ... ... : ... .. . ... ... ... : ... .. . ... ... ... : ... .. . ... ... ... : ... .. . ... ... ...
ROW 11 : ... .. . ... ... ... : ... .. . ... ... ... : ... .. . ... ... ... : ... .. . ... ... ... : ... .. . ... ... ...
ROW 12 : ... .. . ... ... ... : ... .. . ... ... ... : ... .. . ... ... ... : ... .. . ... ... ... : ... .. . ... ... ...
ROW 13 : ... .. . ... ... ... : ... .. . ... ... ... : ... .. . ... ... ... : ... .. . ... ... ... : ... .. . ... ... ...
ROW 14 : ... .. . ... ... ... : ... .. . ... ... ... : ... .. . ... ... ... : ... .. . ... ... ... : ... .. . ... ... ...
ROW 15 : ... .. . ... ... ... : ... .. . ... ... ... : ... .. . ... ... ... : ... .. . ... ... ... : ... .. . ... ... ...
ROW 16 : ... .. . ... ... ... : ... .. . ... ... ... : ... .. . ... ... ... : ... .. . ... ... ... : ... .. . ... ... ...
ROW 17 : ... .. . ... ... ... : ... .. . ... ... ... : ... .. . ... ... ... : ... .. . ... ... ... : ... .. . ... ... ...
ROW 18 : ... .. . ... ... ... : ... .. . ... ... ... : ... .. . ... ... ... : ... .. . ... ... ... : ... .. . ... ... ...
ROW 19 : ... .. . ... ... ... : ... .. . ... ... ... : ... .. . ... ... ... : ... .. . ... ... ... : ... .. . ... ... ...
ROW 1A : ... .. . ... ... ... : ... .. . ... ... ... : ... .. . ... ... ... : ... .. . ... ... ... : ... .. . ... ... ...
ROW 1B : ... .. . ... ... ... : ... .. . ... ... ... : ... .. . ... ... ... : ... .. . ... ... ... : ... .. . ... ... ...
ROW 1C : ... .. . ... ... ... : ... .. . ... ... ... : ... .. . ... ... ... : ... .. . ... ... ... : ... .. . ... ... ...
ROW 1D : ... .. . ... ... ... : ... .. . ... ... ... : ... .. . ... ... ... : ... .. . ... ... ... : ... .. . ... ... ...
ROW 1E : G#1 02 . ... ... ... : ... .. . ... ... ... : ... .. . ... ... ... : ... .. . ... ... ... : ... .. . ... ... ...
ROW 1F : ... .. . ... ... ... : ... .. . ... ... ... : ... .. . ... ... ... : ... .. . ... ... ... : ... .. . ... ... ...
ROW 20 : ... .. . ... ... ... : ... .. . ... ... ... : ... .. . ... ... ... : ... .. . ... ... ... : ... .. . ... ... ...
ROW 21 : ... .. . ... ... ... : ... .. . ... ... ... : ... .. . ... ... ... : ... .. . ... ... ... : ... .. . ... ... ...
ROW 22 : ... .. . ... ... ... : ... .. . ... ... ... : ... .. . ... ... ... : ... .. . ... ... ... : ... .. . ... ... ...
ROW 23 : ... .. . ... ... ... : ... .. . ... ... ... : ... .. . ... ... ... : ... .. . ... ... ... : ... .. . ... ... ...
ROW 24 : ... .. . ... ... ... : ... .. . ... ... ... : ... .. . ... ... ... : ... .. . ... ... ... : ... .. . ... ... ...
ROW 25 : ... .. . ... ... ... : ... .. . ... ... ... : ... .. . ... ... ... : ... .. . ... ... ... : ... .. . ... ... ...
ROW 26 : ... .. . ... ... ... : ... .. . ... ... ... : ... .. . ... ... ... : ... .. . ... ... ... : ... .. . ... ... ...
ROW 27 : ... .. . ... ... ... : ... .. . ... ... ... : ... .. . ... ... ... : ... .. . ... ... ... : ... .. . ... ... ...
ROW 28 : ... .. . ... ... ... : ... .. . ... ... ... : ... .. . ... ... ... : ... .. . ... ... ... : ... .. . ... ... ...
ROW 29 : ... .. . ... ... ... : ... .. . ... ... ... : ... .. . ... ... ... : ... .. . ... ... ... : ... .. . ... ... ...
ROW 2A : ... .. . ... ... ... : ... .. . ... ... ... : ... .. . ... ... ... : ... .. . ... ... ... : ... .. . ... ... ...
ROW 2B : ... .. . ... ... ... : ... .. . ... ... ... : ... .. . ... ... ... : ... .. . ... ... ... : ... .. . ... ... ...
ROW 2C : ... .. . ... ... ... : ... .. . ... ... ... : ... .. . ... ... ... : ... .. . ... ... ... : ... .. . ... ... ...
ROW 2D : ... .. . ... ... ... : ... .. . ... ... ... : ... .. . ... ... ... : ... .. . ... ... ... : ... .. . ... ... ...
ROW 2E : ... .. . ... ... ... : ... .. . ... ... ... : ... .. . ... ... ... : ... .. . ... ... ... : ... .. . ... ... ...
ROW 2F : ... .. . ... ... ... : ... .. . ... ... ... : ... .. . ... ... ... : ... .. . ... ... ... : ... .. . ... ... ...
ROW 30 : ... .. . ... ... ... : ... .. . ... ... ... : ... .. . ... ... ... : ... .. . ... ... ... : ... .. . ... ... ...
ROW 31 : ... .. . ... ... ... : ... .. . ... ... ... : ... .. . ... ... ... : ... .. . ... ... ... : ... .. . ... ... ...
ROW 32 : ... .. . ... ... ... : ... .. . ... ... ... : ... .. . ... ... ... : ... .. . ... ... ... : ... .. . ... ... ...
ROW 33 : ... .. . ... ... ... : ... .. . ... ... ... : ... .. . ... ... ... : ... .. . ... ... ... : ... .. . ... ... ...
ROW 34 : ... .. . ... ... ... : ... .. . ... ... ... : ... .. . ... ... ... : ... .. . ... ... ... : ... .. . ... ... ...
ROW 35 : ... .. . ... ... ... : ... .. . ... ... ... : ... .. . ... ... ... : ... .. . ... ... ... : ... .. . ... ... ...
ROW 36 : ... .. . ... ... ... : ... .. . ... ... ... : ... .. . ... ... ... : ... .. . ... ... ... : ... .. . ... ... ...
ROW 37 : ... .. . ... ... ... : ... .. . ... ... ... : ... .. . ... ... ... : ... .. . ... ... ... : ... .. . ... ... ...
ROW 38 : ... .. . ... ... ... : ... .. . ... ... ... : ... .. . ... ... ... : ... .. . ... ... ... : ... .. . ... ... ...
ROW 39 : ... .. . ... ... ... : ... .. . ... ... ... : ... .. . ... ... ... : ... .. . ... ... ... : ... .. . ... ... ...
ROW 3A : ... .. . ... ... ... : ... .. . ... ... ... : ... .. . ... ... ... : ... .. . ... ... ... : ... .. . ... ... ...
ROW 3B : ... .. . ... ... ... : ... .. . ... ... ... : ... .. . ... ... ... : ... .. . ... ... ... : ... .. . ... ... ...
ROW 3C : D#2 02 . ... ... ... : ... .. . ... ... ... : ... .. . ... ... ... : ... .. . ... ... ... : ... .. . ... ... ...
ROW 3D : ... .. . ... ... ... : ... .. . ... ... ... : ... .. . ... ... ... : ... .. . ... ... ... : ... .. . ... ... ...
ROW 3E : ... .. . ... ... ... : ... .. . ... ... ... : ... .. . ... ... ... : ... .. . ... ... ... : ... .. . ... ... ...
ROW 3F : ... .. . ... ... ... : ... .. . ... ... ... : ... .. . ... ... ... : ... .. . ... ... ... : ... .. . ... ... ...
ROW 40 : ... .. . ... ... ... : ... .. . ... ... ... : ... .. . ... ... ... : ... .. . ... ... ... : ... .. . ... ... ...
ROW 41 : ... .. . ... ... ... : ... .. . ... ... ... : ... .. . ... ... ... : ... .. . ... ... ... : ... .. . ... ... ...
ROW 42 : ... .. . ... ... ... : ... .. . ... ... ... : ... .. . ... ... ... : ... .. . ... ... ... : ... .. . ... ... ...
ROW 43 : ... .. . ... ... ... : ... .. . ... ... ... : ... .. . ... ... ... : ... .. . ... ... ... : ... .. . ... ... ...
ROW 44 : ... .. . ... ... ... : ... .. . ... ... ... : ... .. . ... ... ... : ... .. . ... ... ... : ... .. . ... ... ...
ROW 45 : ... .. . ... ... ... : ... .. . ... ... ... : ... .. . ... ... ... : ... .. . ... ... ... : ... .. . ... ... ...
ROW 46 : ... .. . ... ... ... : A#3 09 . Q48 ... ... : ... .. . ... ... ... : ... .. . ... ... ... : ... .. . ... ... ...
ROW 47 : ... .. . ... ... ... : ... .. . ... ... ... : ... .. . ... ... ... : ... .. . ... ... ... : ... .. . ... ... ...
ROW 48 : ... .. . ... ... ... : ... .. . ... ... ... : ... .. . ... ... ... : ... .. . ... ... ... : ... .. . ... ... ...
ROW 49 : ... .. . ... ... ... : ... .. . ... ... ... : ... .. . ... ... ... : ... .. . ... ... ... : ... .. . ... ... ...
ROW 4A : ... .. . ... ... ... : ... .. . ... ... ... : ... .. . ... ... ... : ... .. . ... ... ... : ... .. . ... ... ...
ROW 4B : ... .. . ... ... ... : ... .. . ... ... ... : ... .. . ... ... ... : ... .. . ... ... ... : ... .. . ... ... ...
ROW 4C : D#2 09 . QF5 ... ... : ... .. . ... ... ... : ... .. . ... ... ... : ... .. . ... ... ... : ... .. . ... ... ...
ROW 4D : ... .. . ... ... ... : ... .. . ... ... ... : ... .. . ... ... ... : ... .. . ... ... ... : ... .. . ... ... ...
ROW 4E : ... .. . ... ... ... : ... .. . ... ... ... : ... .. . ... ... ... : ... .. . ... ... ... : ... .. . ... ... ...
ROW 4F : ... .. . ... ... ... : ... .. . ... ... ... : ... .. . ... ... ... : ... .. . ... ... ... : ... .. . ... ... ...
ROW 50 : G#2 02 . ... ... ... : F#4 03 . ... ... ... : ... .. . ... ... ... : ... .. . ... ... ... : ... .. . ... ... ...
ROW 51 : ... .. . ... ... ... : ... .. . ... ... ... : ... .. . ... ... ... : ... .. . ... ... ... : ... .. . ... ... ...
ROW 52 : ... .. . ... ... ... : ... .. . ... ... ... : ... .. . ... ... ... : ... .. . ... ... ... : ... .. . ... ... ...
ROW 53 : ... .. . ... ... ... : ... .. . ... ... ... : ... .. . ... ... ... : ... .. . ... ... ... : ... .. . ... ... ...
ROW 54 : ... .. . ... ... ... : ... .. . ... ... ... : ... .. . ... ... ... : ... .. . ... ... ... : ... .. . ... ... ...
ROW 55 : ... .. . ... ... ... : ... .. . ... ... ... : ... .. . ... ... ... : ... .. . ... ... ... : ... .. . ... ... ...
ROW 56 : ... .. . ... ... ... : ... .. . ... ... ... : ... .. . ... ... ... : ... .. . ... ... ... : ... .. . ... ... ...
ROW 57 : ... .. . ... ... ... : ... .. . ... ... ... : ... .. . ... ... ... : ... .. . ... ... ... : ... .. . ... ... ...
ROW 58 : ... .. . ... ... ... : ... .. . ... ... ... : ... .. . ... ... ... : ... .. . ... ... ... : ... .. . ... ... ...
ROW 59 : ... .. . ... ... ... : ... .. . ... ... ... : ... .. . ... ... ... : ... .. . ... ... ... : ... .. . ... ... ...
ROW 5A : ... .. . ... ... ... : ... .. . ... ... ... : ... .. . ... ... ... : ... .. . ... ... ... : ... .. . ... ... ...
ROW 5B : ... .. . ... ... ... : ... .. . ... ... ... : ... .. . ... ... ... : ... .. . ... ... ... : ... .. . ... ... ...
ROW 5C : ... .. . ... ... ... : ... .. . ... ... ... : ... .. . ... ... ... : ... .. . ... ... ... : ... .. . ... ... ...
ROW 5D : ... .. . ... ... ... : ... .. . ... ... ... : ... .. . ... ... ... : ... .. . ... ... ... : ... .. . ... ... ...
ROW 5E : ... .. . ... ... ... : ... .. . ... ... ... : ... .. . ... ... ... : ... .. . ... ... ... : ... .. . ... ... ...
ROW 5F : ... .. . ... ... ... : ... .. . ... ... ... : ... .. . ... ... ... : ... .. . ... ... ... : ... .. . ... ... ...
ROW 60 : ... .. . ... ... ... : ... .. . ... ... ... : ... .. . ... ... ... : ... .. . ... ... ... : ... .. . ... ... ...
ROW 61 : ... .. . ... ... ... : ... .. . ... ... ... : ... .. . ... ... ... : ... .. . ... ... ... : ... .. . ... ... ...
ROW 62 : ... .. . ... ... ... : ... .. . ... ... ... : ... .. . ... ... ... : ... .. . ... ... ... : ... .. . ... ... ...
ROW 63 : ... .. . ... ... ... : ... .. . ... ... ... : ... .. . ... ... ... : ... .. . ... ... ... : ... .. . ... ... ...
ROW 64 : ... .. . ... ... ... : ... .. . ... ... ... : ... .. . ... ... ... : ... .. . ... ... ... : ... .. . ... ... ...
ROW 65 : ... .. . ... ... ... : ... .. . ... ... ... : ... .. . ... ... ... : ... .. . ... ... ... : ... .. . ... ... ...
ROW 66 : ... .. . ... ... ... : ... .. . ... ... ... : ... .. . ... ... ... : ... .. . ... ... ... : ... .. . ... ... ...
ROW 67 : ... .. . ... ... ... : ... .. . ... ... ... : ... .. . ... ... ... : ... .. . ... ... ... : ... .. . ... ... ...
ROW 68 : ... .. . ... ... ... : ... .. . ... ... ... : ... .. . ... ... ... : ... .. . ... ... ... : ... .. . ... ... ...
ROW 69 : ... .. . ... ... ... : ... .. . ... ... ... : ... .. . ... ... ... : ... .. . ... ... ... : ... .. . ... ... ...
ROW 6A : ... .. . ... ... ... : ... .. . ... ... ... : ... .. . ... ... ... : ... .. . ... ... ... : ... .. . ... ... ...
ROW 6B : ... .. . ... ... ... : ... .. . ... ... ... : ... .. . ... ... ... : ... .. . ... ... ... : ... .. . ... ... ...
ROW 6C : ... .. . ... ... ... : ... .. . ... ... ... : ... .. . ... ... ... : ... .. . ... ... ... : ... .. . ... ... ...
ROW 6D : ... .. . ... ... ... : ... .. . ... ... ... : ... .. . ... ... ... : ... .. . ... ... ... : ... .. . ... ... ...
ROW 6E : ... .. . ... ... ... : ... .. . ... ... ... : ... .. . ... ... ... : ... .. . ... ... ... : ... .. . ... ... ...
ROW 6F : ... .. . ... ... ... : ... .. . ... ... ... : ... .. . ... ... ... : ... .. . ... ... ... : ... .. . ... ... ...
ROW 70 : ... .. . ... ... ... : ... .. . ... ... ... : ... .. . ... ... ... : ... .. . ... ... ... : ... .. . ... ... ...
ROW 71 : ... .. . ... ... ... : ... .. . ... ... ... : ... .. . ... ... ... : ... .. . ... ... ... : ... .. . ... ... ...
ROW 72 : ... .. . ... ... ... : ... .. . ... ... ... : ... .. . ... ... ... : ... .. . ... ... ... : ... .. . ... ... ...
ROW 73 : ... .. . ... ... ... : ... .. . ... ... ... : ... .. . ... ... ... : ... .. . ... ... ... : ... .. . ... ... ...
ROW 74 : ... .. . ... ... ... : ... .. . ... ... ... : ... .. . ... ... ... : ... .. . ... ... ... : ... .. . ... ... ...
ROW 75 : ... .. . ... ... ... : ... .. . ... ... ... : ... .. . ... ... ... : ... .. . ... ... ... : ... .. . ... ... ...
ROW 76 : ... .. . ... ... ... : ... .. . ... ... ... : ... .. . ... ... ... : ... .. . ... ... ... : ... .. . ... ... ...
ROW 77 : ... .. . ... ... ... : ... .. . ... ... ... : ... .. . ... ... ... : ... .. . ... ... ... : ... .. . ... ... ...
ROW 78 : D#3 02 . ... ... ... : ... .. . ... ... ... : ... .. . ... ... ... : ... .. . ... ... ... : ... .. . ... ... ...
ROW 79 : ... .. . ... ... ... : ... .. . ... ... ... : ... .. . ... ... ... : ... .. . ... ... ... : ... .. . ... ... ...
ROW 7A : ... .. . ... ... ... : ... .. . ... ... ... : ... .. . ... ... ... : ... .. . ... ... ... : ... .. . ... ... ...
ROW 7B : ... .. . ... ... ... : ... .. . ... ... ... : ... .. . ... ... ... : ... .. . ... ... ... : ... .. . ... ... ...
ROW 7C : ... .. . ... ... ... : ... .. . ... ... ... : ... .. . ... ... ... : ... .. . ... ... ... : ... .. . ... ... ...
ROW 7D : ... .. . ... ... ... : ... .. . ... ... ... : ... .. . ... ... ... : ... .. . ... ... ... : ... .. . ... ... ...
ROW 7E : ... .. . ... ... ... : ... .. . ... ... ... : ... .. . ... ... ... : ... .. . ... ... ... : ... .. . ... ... ...
ROW 7F : ... .. . ... ... ... : ... .. . ... ... ... : ... .. . ... ... ... : ... .. . ... ... ... : ... .. . ... ... ...
ROW 80 : ... .. . ... ... ... : ... .. . ... ... ... : ... .. . ... ... ... : ... .. . ... ... ... : ... .. . ... ... ...
ROW 81 : ... .. . ... ... ... : ... .. . ... ... ... : ... .. . ... ... ... : ... .. . ... ... ... : ... .. . ... ... ...
ROW 82 : F-3 02 . ... ... ... : ... .. . ... ... ... : ... .. . ... ... ... : ... .. . ... ... ... : ... .. . ... ... ...
ROW 83 : ... .. . ... ... ... : ... .. . ... ... ... : ... .. . ... ... ... : ... .. . ... ... ... : ... .. . ... ... ...
ROW 84 : ... .. . ... ... ... : ... .. . ... ... ... : ... .. . ... ... ... : ... .. . ... ... ... : ... .. . ... ... ...
ROW 85 : ... .. . ... ... ... : ... .. . ... ... ... : ... .. . ... ... ... : ... .. . ... ... ... : ... .. . ... ... ...
ROW 86 : ... .. . ... ... ... : ... .. . ... ... ... : ... .. . ... ... ... : ... .. . ... ... ... : ... .. . ... ... ...
ROW 87 : ... .. . ... ... ... : ... .. . ... ... ... : ... .. . ... ... ... : ... .. . ... ... ... : ... .. . ... ... ...
ROW 88 : ... .. . ... ... ... : ... .. . ... ... ... : ... .. . ... ... ... : ... .. . ... ... ... : ... .. . ... ... ...
ROW 89 : ... .. . ... ... ... : ... .. . ... ... ... : ... .. . ... ... ... : ... .. . ... ... ... : ... .. . ... ... ...
ROW 8A : ... .. . ... ... ... : ... .. . ... ... ... : ... .. . ... ... ... : ... .. . ... ... ... : ... .. . ... ... ...
ROW 8B : ... .. . ... ... ... : C#4 02 . ... ... ... : ... .. . ... ... ... : ... .. . ... ... ... : ... .. . ... ... ...
ROW 8C : C#4 02 . ... ... ... : ... .. . ... ... ... : ... .. . ... ... ... : ... .. . ... ... ... : ... .. . ... ... ...
ROW 8D : ... .. . ... ... ... : ... .. . ... ... ... : ... .. . ... ... ... : ... .. . ... ... ... : ... .. . ... ... ...
ROW 8E : ... .. . ... ... ... : ... .. . ... ... ... : ... .. . ... ... ... : ... .. . ... ... ... : ... .. . ... ... ...
ROW 8F : ... .. . ... ... ... : ... .. . ... ... ... : ... .. . ... ... ... : ... .. . ... ... ... : ... .. . ... ... ...
ROW 90 : ... .. . ... ... ... : ... .. . ... ... ... : ... .. . ... ... ... : ... .. . ... ... ... : ... .. . ... ... ...
ROW 91 : ... .. . ... ... ... : ... .. . ... ... ... : ... .. . ... ... ... : ... .. . ... ... ... : ... .. . ... ... ...
ROW 92 : ... .. . ... ... ... : ... .. . ... ... ... : ... .. . ... ... ... : ... .. . ... ... ... : ... .. . ... ... ...
ROW 93 : ... .. . ... ... ... : ... .. . ... ... ... : ... .. . ... ... ... : ... .. . ... ... ... : ... .. . ... ... ...
ROW 94 : ... .. . ... ... ... : ... .. . ... ... ... : ... .. . ... ... ... : ... .. . ... ... ... : ... .. . ... ... ...
ROW 95 : ... .. . ... ... ... : ... .. . ... ... ... : ... .. . ... ... ... : ... .. . ... ... ... : ... .. . ... ... ...
ROW 96 : C-4 02 . ... ... ... : ... .. . ... ... ... : ... .. . ... ... ... : ... .. . ... ... ... : ... .. . ... ... ...
ROW 97 : ... .. . ... ... ... : ... .. . ... ... ... : ... .. . ... ... ... : ... .. . ... ... ... : ... .. . ... ... ...
ROW 98 : ... .. . ... ... ... : ... .. . ... ... ... : ... .. . ... ... ... : ... .. . ... ... ... : ... .. . ... ... ...
ROW 99 : ... .. . ... ... ... : ... .. . ... ... ... : ... .. . ... ... ... : ... .. . ... ... ... : ... .. . ... ... ...
ROW 9A : ... .. . ... ... ... : ... .. . ... ... ... : ... .. . ... ... ... : ... .. . ... ... ... : ... .. . ... ... ...
ROW 9B : ... .. . ... ... ... : ... .. . ... ... ... : ... .. . ... ... ... : ... .. . ... ... ... : ... .. . ... ... ...
ROW 9C : ... .. . ... ... ... : ... .. . ... ... ... : ... .. . ... ... ... : ... .. . ... ... ... : ... .. . ... ... ...
ROW 9D : ... .. . ... ... ... : ... .. . ... ... ... : ... .. . ... ... ... : ... .. . ... ... ... : ... .. . ... ... ...
ROW 9E : ... .. . ... ... ... : ... .. . ... ... ... : ... .. . ... ... ... : ... .. . ... ... ... : ... .. . ... ... ...
ROW 9F : ... .. . ... ... ... : ... .. . ... ... ... : ... .. . ... ... ... : ... .. . ... ... ... : ... .. . ... ... ...

PATTERN 0C
ROW 00 : C#3 06 . ... ... ... : C-4 02 . ... ... ... : ... .. . ... ... ... : ... .. . ... ... ... : ... .. . ... ... ...
ROW 01 : ... .. . ... ... ... : ... .. . ... ... ... : ... .. . ... ... ... : ... .. . ... ... ... : ... .. . ... ... ...
ROW 02 : ... .. . ... ... ... : ... .. . ... ... ... : ... .. . ... ... ... : ... .. . ... ... ... : ... .. . ... ... ...
ROW 03 : ... .. . ... ... ... : ... .. . ... ... ... : ... .. . ... ... ... : ... .. . ... ... ... : ... .. . ... ... ...
ROW 04 : ... .. . ... ... ... : ... .. . ... ... ... : ... .. . ... ... ... : ... .. . ... ... ... : ... .. . ... ... ...
ROW 05 : ... .. . ... ... ... : ... .. . ... ... ... : ... .. . ... ... ... : ... .. . ... ... ... : ... .. . ... ... ...
ROW 06 : ... .. . ... ... ... : ... .. . ... ... ... : ... .. . ... ... ... : ... .. . ... ... ... : ... .. . ... ... ...
ROW 07 : ... .. . ... ... ... : ... .. . ... ... ... : ... .. . ... ... ... : ... .. . ... ... ... : ... .. . ... ... ...
ROW 08 : ... .. . ... ... ... : ... .. . ... ... ... : ... .. . ... ... ... : ... .. . ... ... ... : ... .. . ... ... ...
ROW 09 : ... .. . ... ... ... : ... .. . ... ... ... : ... .. . ... ... ... : ... .. . ... ... ... : ... .. . ... ... ...
ROW 0A : ... .. . ... ... ... : ... .. . ... ... ... : ... .. . ... ... ... : ... .. . ... ... ... : ... .. . ... ... ...
ROW 0B : ... .. . ... ... ... : ... .. . ... ... ... : ... .. . ... ... ... : ... .. . ... ... ... : ... .. . ... ... ...
ROW 0C : ... .. . ... ... ... : ... .. . ... ... ... : ... .. . ... ... ... : ... .. . ... ... ... : ... .. . ... ... ...
ROW 0D : ... .. . ... ... ... : ... .. . ... ... ... : ... .. . ... ... ... : ... .. . ... ... ... : ... .. . ... ... ...
ROW 0E : ... .. . ... ... ... : ... .. . ... ... ... : ... .. . ... ... ... : ... .. . ... ... ... : ... .. . ... ... ...
ROW 0F : ... .. . ... ... ... : ... .. . ... ... ... : ... .. . ... ... ... : ... .. . ... ... ... : ... .. . ... ... ...
ROW 10 : ... .. . ... ... ... : ... .. . ... ... ... : ... .. . ... ... ... : ... .. . ... ... ... : ... .. . ... ... ...
ROW 11 : ... .. . ... ... ... : ... .. . ... ... ... : ... .. . ... ... ... : ... .. . ... ... ... : ... .. . ... ... ...
ROW 12 : ... .. . ... ... ... : ... .. . ... ... ... : ... .. . ... ... ... : ... .. . ... ... ... : ... .. . ... ... ...
ROW 13 : ... .. . ... ... ... : ... .. . ... ... ... : ... .. . ... ... ... : ... .. . ... ... ... : ... .. . ... ... ...
ROW 14 : ... .. . ... ... ... : ... .. . ... ... ... : ... .. . ... ... ... : ... .. . ... ... ... : ... .. . ... ... ...
ROW 15 : ... .. . ... ... ... : ... .. . ... ... ... : ... .. . ... ... ... : ... .. . ... ... ... : ... .. . ... ... ...
ROW 16 : ... .. . ... ... ... : ... .. . ... ... ... : ... .. . ... ... ... : ... .. . ... ... ... : ... .. . ... ... ...
ROW 17 : ... .. . ... ... ... : ... .. . ... ... ... : ... .. . ... ... ... : ... .. . ... ... ... : ... .. . ... ... ...
ROW 18 : ... .. . ... ... ... : ... .. . ... ... ... : ... .. . ... ... ... : ... .. . ... ... ... : ... .. . ... ... ...
ROW 19 : ... .. . ... ... ... : ... .. . ... ... ... : ... .. . ... ... ... : ... .. . ... ... ... : ... .. . ... ... ...
ROW 1A : ... .. . ... ... ... : ... .. . ... ... ... : ... .. . ... ... ... : ... .. . ... ... ... : ... .. . ... ... ...
ROW 1B : ... .. . ... ... ... : ... .. . ... ... ... : ... .. . ... ... ... : ... .. . ... ... ... : ... .. . ... ... ...
ROW 1C : ... .. . ... ... ... : ... .. . ... ... ... : ... .. . ... ... ... : ... .. . ... ... ... : ... .. . ... ... ...
ROW 1D : ... .. . ... ... ... : ... .. . ... ... ... : ... .. . ... ... ... : ... .. . ... ... ... : ... .. . ... ... ...
ROW 1E : ... .. . ... ... ... : A#3 02 . ... ... ... : ... .. . ... ... ... : ... .. . ... ... ... : ... .. . ... ... ...
ROW 1F : ... .. . ... ... ... : ... .. . ... ... ... : ... .. . ... ... ... : ... .. . ... ... ... : ... .. . ... ... ...
ROW 20 : ... .. . ... ... ... : ... .. . ... ... ... : ... .. . ... ... ... : ... .. . ... ... ... : ... .. . ... ... ...
ROW 21 : ... .. . ... ... ... : ... .. . ... ... ... : ... .. . ... ... ... : ... .. . ... ... ... : ... .. . ... ... ...
ROW 22 : ... .. . ... ... ... : ... .. . ... ... ... : ... .. . ... ... ... : ... .. . ... ... ... : ... .. . ... ... ...
ROW 23 : ... .. . ... ... ... : ... .. . ... ... ... : ... .. . ... ... ... : ... .. . ... ... ... : ... .. . ... ... ...
ROW 24 : ... .. . ... ... ... : ... .. . ... ... ... : ... .. . ... ... ... : ... .. . ... ... ... : ... .. . ... ... ...
ROW 25 : ... .. . ... ... ... : ... .. . ... ... ... : ... .. . ... ... ... : ... .. . ... ... ... : ... .. . ... ... ...
ROW 26 : ... .. . ... ... ... : ... .. . ... ... ... : ... .. . ... ... ... : ... .. . ... ... ... : ... .. . ... ... ...
ROW 27 : ... .. . ... ... ... : ... .. . ... ... ... : ... .. . ... ... ... : ... .. . ... ... ... : ... .. . ... ... ...
ROW 28 : ... .. . ... ... ... : ... .. . ... ... ... : ... .. . ... ... ... : ... .. . ... ... ... : ... .. . ... ... ...
ROW 29 : ... .. . ... ... ... : ... .. . ... ... ... : ... .. . ... ... ... : ... .. . ... ... ... : ... .. . ... ... ...
ROW 2A : ... .. . ... ... ... : ... .. . ... ... ... : ... .. . ... ... ... : ... .. . ... ... ... : ... .. . ... ... ...
ROW 2B : ... .. . ... ... ... : ... .. . ... ... ... : ... .. . ... ... ... : ... .. . ... ... ... : ... .. . ... ... ...
ROW 2C : ... .. . ... ... ... : ... .. . ... ... ... : ... .. . ... ... ... : ... .. . ... ... ... : ... .. . ... ... ...
ROW 2D : ... .. . ... ... ... : ... .. . ... ... ... : ... .. . ... ... ... : ... .. . ... ... ... : ... .. . ... ... ...
ROW 2E : ... .. . ... ... ... : ... .. . ... ... ... : ... .. . ... ... ... : ... .. . ... ... ... : ... .. . ... ... ...
ROW 2F : ... .. . ... ... ... : ... .. . ... ... ... : ... .. . ... ... ... : ... .. . ... ... ... : ... .. . ... ... ...
ROW 30 : ... .. . ... ... ... : ... .. . ... ... ... : ... .. . ... ... ... : ... .. . ... ... ... : ... .. . ... ... ...
ROW 31 : ... .. . ... ... ... : ... .. . ... ... ... : ... .. . ... ... ... : ... .. . ... ... ... : ... .. . ... ... ...
ROW 32 : ... .. . ... ... ... : ... .. . ... ... ... : ... .. . ... ... ... : ... .. . ... ... ... : ... .. . ... ... ...
ROW 33 : ... .. . ... ... ... : ... .. . ... ... ... : ... .. . ... ... ... : ... .. . ... ... ... : ... .. . ... ... ...
ROW 34 : ... .. . ... ... ... : ... .. . ... ... ... : ... .. . ... ... ... : ... .. . ... ... ... : ... .. . ... ... ...
ROW 35 : ... .. . ... ... ... : ... .. . ... ... ... : ... .. . ... ... ... : ... .. . ... ... ... : ... .. . ... ... ...
ROW 36 : ... .. . ... ... ... : ... .. . ... ... ... : ... .. . ... ... ... : ... .. . ... ... ... : ... .. . ... ... ...
ROW 37 : ... .. . ... ... ... : ... .. . ... ... ... : ... .. . ... ... ... : ... .. . ... ... ... : ... .. . ... ... ...
ROW 38 : ... .. . ... ... ... : ... .. . ... ... ... : ... .. . ... ... ... : ... .. . ... ... ... : ... .. . ... ... ...
ROW 39 : ... .. . ... ... ... : ... .. . ... ... ... : ... .. . ... ... ... : ... .. . ... ... ... : ... .. . ... ... ...
ROW 3A : ... .. . ... ... ... : ... .. . ... ... ... : ... .. . ... ... ... : ... .. . ... ... ... : ... .. . ... ... ...
ROW 3B : ... .. . ... ... ... : ... .. . ... ... ... : ... .. . ... ... ... : ... .. . ... ... ... : ... .. . ... ... ...
ROW 3C : ... .. . ... ... ... : G#3 02 . ... ... ... : ... .. . ... ... ... : ... .. . ... ... ... : ... .. . ... ... ...
ROW 3D : ... .. . ... ... ... : ... .. . ... ... ... : ... .. . ... ... ... : ... .. . ... ... ... : ... .. . ... ... ...
ROW 3E : ... .. . ... ... ... : ... .. . ... ... ... : ... .. . ... ... ... : ... .. . ... ... ... : ... .. . ... ... ...
ROW 3F : ... .. . ... ... ... : ... .. . ... ... ... : ... .. . ... ... ... : ... .. . ... ... ... : ... .. . ... ... ...
ROW 40 : ... .. . ... ... ... : ... .. . ... ... ... : ... .. . ... ... ... : ... .. . ... ... ... : ... .. . ... ... ...
ROW 41 : ... .. . ... ... ... : ... .. . ... ... ... : ... .. . ... ... ... : ... .. . ... ... ... : ... .. . ... ... ...
ROW 42 : ... .. . ... ... ... : ... .. . ... ... ... : ... .. . ... ... ... : ... .. . ... ... ... : ... .. . ... ... ...
ROW 43 : ... .. . ... ... ... : ... .. . ... ... ... : ... .. . ... ... ... : ... .. . ... ... ... : ... .. . ... ... ...
ROW 44 : ... .. . ... ... ... : ... .. . ... ... ... : ... .. . ... ... ... : ... .. . ... ... ... : ... .. . ... ... ...
ROW 45 : ... .. . ... ... ... : ... .. . ... ... ... : ... .. . ... ... ... : ... .. . ... ... ... : ... .. . ... ... ...
ROW 46 : ... .. . ... ... ... : ... .. . ... ... ... : ... .. . ... ... ... : ... .. . ... ... ... : ... .. . ... ... ...
ROW 47 : ... .. . ... ... ... : ... .. . ... ... ... : ... .. . ... ... ... : ... .. . ... ... ... : ... .. . ... ... ...
ROW 48 : ... .. . ... ... ... : ... .. . ... ... ... : ... .. . ... ... ... : ... .. . ... ... ... : ... .. . ... ... ...
ROW 49 : ... .. . ... ... ... : ... .. . ... ... ... : ... .. . ... ... ... : ... .. . ... ... ... : ... .. . ... ... ...
ROW 4A : ... .. . ... ... ... : ... .. . ... ... ... : ... .. . ... ... ... : ... .. . ... ... ... : ... .. . ... ... ...
ROW 4B : ... .. . ... ... ... : ... .. . ... ... ... : ... .. . ... ... ... : ... .. . ... ... ... : ... .. . ... ... ...
ROW 4C : ... .. . ... ... ... : ... .. . ... ... ... : ... .. . ... ... ... : ... .. . ... ... ... : ... .. . ... ... ...
ROW 4D : ... .. . ... ... ... : ... .. . ... ... ... : ... .. . ... ... ... : ... .. . ... ... ... : ... .. . ... ... ...
ROW 4E : ... .. . ... ... ... : ... .. . ... ... ... : ... .. . ... ... ... : ... .. . ... ... ... : ... .. . ... ... ...
ROW 4F : ... .. . ... ... ... : ... .. . ... ... ... : ... .. . ... ... ... : ... .. . ... ... ... : ... .. . ... ... ...
ROW 50 : C-3 06 . ... ... ... : F-3 02 . ... ... ... : ... .. . ... ... ... : ... .. . ... ... ... : ... .. . ... ... ...
ROW 51 : ... .. . ... ... ... : ... .. . ... ... ... : ... .. . ... ... ... : ... .. . ... ... ... : ... .. . ... ... ...
ROW 52 : ... .. . ... ... ... : ... .. . ... ... ... : ... .. . ... ... ... : ... .. . ... ... ... : ... .. . ... ... ...
ROW 53 : ... .. . ... ... ... : ... .. . ... ... ... : ... .. . ... ... ... : ... .. . ... ... ... : ... .. . ... ... ...
ROW 54 : ... .. . ... ... ... : ... .. . ... ... ... : ... .. . ... ... ... : ... .. . ... ... ... : ... .. . ... ... ...
ROW 55 : ... .. . ... ... ... : ... .. . ... ... ... : ... .. . ... ... ... : ... .. . ... ... ... : ... .. . ... ... ...
ROW 56 : ... .. . ... ... ... : ... .. . ... ... ... : ... .. . ... ... ... : ... .. . ... ... ... : ... .. . ... ... ...
ROW 57 : ... .. . ... ... ... : ... .. . ... ... ... : ... .. . ... ... ... : ... .. . ... ... ... : ... .. . ... ... ...
ROW 58 : ... .. . ... ... ... : ... .. . ... ... ... : ... .. . ... ... ... : ... .. . ... ... ... : ... .. . ... ... ...
ROW 59 : ... .. . ... ... ... : ... .. . ... ... ... : ... .. . ... ... ... : ... .. . ... ... ... : ... .. . ... ... ...
ROW 5A : ... .. . ... ... ... : ... .. . ... ... ... : ... .. . ... ... ... : ... .. . ... ... ... : ... .. . ... ... ...
ROW 5B : ... .. . ... ... ... : ... .. . ... ... ... : ... .. . ... ... ... : ... .. . ... ... ... : ... .. . ... ... ...
ROW 5C : ... .. . ... ... ... : ... .. . ... ... ... : ... .. . ... ... ... : ... .. . ... ... ... : ... .. . ... ... ...
ROW 5D : ... .. . ... ... ... : ... .. . ... ... ... : ... .. . ... ... ... : ... .. . ... ... ... : ... .. . ... ... ...
ROW 5E : ... .. . ... ... ... : ... .. . ... ... ... : ... .. . ... ... ... : ... .. . ... ... ... : ... .. . ... ... ...
ROW 5F : ... .. . ... ... ... : ... .. . ... ... ... : ... .. . ... ... ... : ... .. . ... ... ... : ... .. . ... ... ...
ROW 60 : ... .. . ... ... ... : ... .. . ... ... ... : ... .. . ... ... ... : ... .. . ... ... ... : ... .. . ... ... ...
ROW 61 : ... .. . ... ... ... : ... .. . ... ... ... : ... .. . ... ... ... : ... .. . ... ... ... : ... .. . ... ... ...
ROW 62 : ... .. . ... ... ... : ... .. . ... ... ... : ... .. . ... ... ... : ... .. . ... ... ... : ... .. . ... ... ...
ROW 63 : ... .. . ... ... ... : ... .. . ... ... ... : ... .. . ... ... ... : ... .. . ... ... ... : ... .. . ... ... ...
ROW 64 : ... .. . ... ... ... : ... .. . ... ... ... : ... .. . ... ... ... : ... .. . ... ... ... : ... .. . ... ... ...
ROW 65 : ... .. . ... ... ... : ... .. . ... ... ... : ... .. . ... ... ... : ... .. . ... ... ... : ... .. . ... ... ...
ROW 66 : ... .. . ... ... ... : ... .. . ... ... ... : ... .. . ... ... ... : ... .. . ... ... ... : ... .. . ... ... ...
ROW 67 : ... .. . ... ... ... : ... .. . ... ... ... : ... .. . ... ... ... : ... .. . ... ... ... : ... .. . ... ... ...
ROW 68 : ... .. . ... ... ... : ... .. . ... ... ... : ... .. . ... ... ... : ... .. . ... ... ... : ... .. . ... ... ...
ROW 69 : ... .. . ... ... ... : ... .. . ... ... ... : ... .. . ... ... ... : ... .. . ... ... ... : ... .. . ... ... ...
ROW 6A : ... .. . ... ... ... : ... .. . ... ... ... : ... .. . ... ... ... : ... .. . ... ... ... : ... .. . ... ... ...
ROW 6B : ... .. . ... ... ... : ... .. . ... ... ... : ... .. . ... ... ... : ... .. . ... ... ... : ... .. . ... ... ...
ROW 6C : ... .. . ... ... ... : ... .. . ... ... ... : ... .. . ... ... ... : ... .. . ... ... ... : ... .. . ... ... ...
ROW 6D : ... .. . ... ... ... : ... .. . ... ... ... : ... .. . ... ... ... : ... .. . ... ... ... : ... .. . ... ... ...
ROW 6E : ... .. . ... ... ... : ... .. . ... ... ... : ... .. . ... ... ... : ... .. . ... ... ... : ... .. . ... ... ...
ROW 6F : ... .. . ... ... ... : ... .. . ... ... ... : ... .. . ... ... ... : ... .. . ... ... ... : ... .. . ... ... ...
ROW 70 : ... .. . ... ... ... : ... .. . ... ... ... : ... .. . ... ... ... : ... .. . ... ... ... : ... .. . ... ... ...
ROW 71 : ... .. . ... ... ... : ... .. . ... ... ... : ... .. . ... ... ... : ... .. . ... ... ... : ... .. . ... ... ...
ROW 72 : ... .. . ... ... ... : ... .. . ... ... ... : ... .. . ... ... ... : ... .. . ... ... ... : ... .. . ... ... ...
ROW 73 : ... .. . ... ... ... : ... .. . ... ... ... : ... .. . ... ... ... : ... .. . ... ... ... : ... .. . ... ... ...
ROW 74 : ... .. . ... ... ... : ... .. . ... ... ... : ... .. . ... ... ... : ... .. . ... ... ... : ... .. . ... ... ...
ROW 75 : ... .. . ... ... ... : ... .. . ... ... ... : ... .. . ... ... ... : ... .. . ... ... ... : ... .. . ... ... ...
ROW 76 : ... .. . ... ... ... : ... .. . ... ... ... : ... .. . ... ... ... : ... .. . ... ... ... : ... .. . ... ... ...
ROW 77 : ... .. . ... ... ... : ... .. . ... ... ... : ... .. . ... ... ... : ... .. . ... ... ... : ... .. . ... ... ...
ROW 78 : ... .. . ... ... ... : ... .. . ... ... ... : ... .. . ... ... ... : ... .. . ... ... ... : ... .. . ... ... ...
ROW 79 : ... .. . ... ... ... : ... .. . ... ... ... : ... .. . ... ... ... : ... .. . ... ... ... : ... .. . ... ... ...
ROW 7A : ... .. . ... ... ... : ... .. . ... ... ... : ... .. . ... ... ... : ... .. . ... ... ... : ... .. . ... ... ...
ROW 7B : ... .. . ... ... ... : ... .. . ... ... ... : ... .. . ... ... ... : ... .. . ... ... ... : ... .. . ... ... ...
ROW 7C : ... .. . ... ... ... : ... .. . ... ... ... : ... .. . ... ... ... : ... .. . ... ... ... : ... .. . ... ... ...
ROW 7D : ... .. . ... ... ... : ... .. . ... ... ... : ... .. . ... ... ... : ... .. . ... ... ... : ... .. . ... ... ...
ROW 7E : ... .. . ... ... ... : ... .. . ... ... ... : ... .. . ... ... ... : ... .. . ... ... ... : ... .. . ... ... ...
ROW 7F : ... .. . ... ... ... : ... .. . ... ... ... : ... .. . ... ... ... : ... .. . ... ... ... : ... .. . ... ... ...
ROW 80 : ... .. . ... ... ... : ... .. . ... ... ... : ... .. . ... ... ... : ... .. . ... ... ... : ... .. . ... ... ...
ROW 81 : ... .. . ... ... ... : ... .. . ... ... ... : ... .. . ... ... ... : ... .. . ... ... ... : ... .. . ... ... ...
ROW 82 : ... .. . ... ... ... : ... .. . ... ... ... : ... .. . ... ... ... : ... .. . ... ... ... : ... .. . ... ... ...
ROW 83 : ... .. . ... ... ... : ... .. . ... ... ... : ... .. . ... ... ... : ... .. . ... ... ... : ... .. . ... ... ...
ROW 84 : ... .. . ... ... ... : ... .. . ... ... ... : ... .. . ... ... ... : ... .. . ... ... ... : ... .. . ... ... ...
ROW 85 : ... .. . ... ... ... : ... .. . ... ... ... : ... .. . ... ... ... : ... .. . ... ... ... : ... .. . ... ... ...
ROW 86 : ... .. . ... ... ... : ... .. . ... ... ... : ... .. . ... ... ... : ... .. . ... ... ... : ... .. . ... ... ...
ROW 87 : ... .. . ... ... ... : ... .. . ... ... ... : ... .. . ... ... ... : ... .. . ... ... ... : ... .. . ... ... ...
ROW 88 : ... .. . ... ... ... : ... .. . ... ... ... : ... .. . ... ... ... : ... .. . ... ... ... : ... .. . ... ... ...
ROW 89 : ... .. . ... ... ... : ... .. . ... ... ... : ... .. . ... ... ... : ... .. . ... ... ... : ... .. . ... ... ...
ROW 8A : ... .. . ... ... ... : ... .. . ... ... ... : ... .. . ... ... ... : ... .. . ... ... ... : ... .. . ... ... ...
ROW 8B : ... .. . ... ... ... : ... .. . ... ... ... : ... .. . ... ... ... : ... .. . ... ... ... : ... .. . ... ... ...
ROW 8C : A#2 06 . ... ... ... : A-3 02 . ... ... ... : ... .. . ... ... ... : ... .. . ... ... ... : ... .. . ... ... ...
ROW 8D : ... .. . ... ... ... : ... .. . ... ... ... : ... .. . ... ... ... : ... .. . ... ... ... : ... .. . ... ... ...
ROW 8E : ... .. . ... ... ... : ... .. . ... ... ... : ... .. . ... ... ... : ... .. . ... ... ... : ... .. . ... ... ...
ROW 8F : ... .. . ... ... ... : ... .. . ... ... ... : ... .. . ... ... ... : ... .. . ... ... ... : ... .. . ... ... ...
ROW 90 : ... .. . ... ... ... : ... .. . ... ... ... : ... .. . ... ... ... : ... .. . ... ... ... : ... .. . ... ... ...
ROW 91 : ... .. . ... ... ... : ... .. . ... ... ... : ... .. . ... ... ... : ... .. . ... ... ... : ... .. . ... ... ...
ROW 92 : ... .. . ... ... ... : ... .. . ... ... ... : ... .. . ... ... ... : ... .. . ... ... ... : ... .. . ... ... ...
ROW 93 : ... .. . ... ... ... : ... .. . ... ... ... : ... .. . ... ... ... : ... .. . ... ... ... : ... .. . ... ... ...
ROW 94 : ... .. . ... ... ... : ... .. . ... ... ... : ... .. . ... ... ... : ... .. . ... ... ... : ... .. . ... ... ...
ROW 95 : ... .. . ... ... ... : ... .. . ... ... ... : ... .. . ... ... ... : ... .. . ... ... ... : ... .. . ... ... ...
ROW 96 : ... .. . ... ... ... : ... .. . ... ... ... : ... .. . ... ... ... : ... .. . ... ... ... : ... .. . ... ... ...
ROW 97 : ... .. . ... ... ... : ... .. . ... ... ... : ... .. . ... ... ... : ... .. . ... ... ... : ... .. . ... ... ...
ROW 98 : ... .. . ... ... ... : ... .. . ... ... ... : ... .. . ... ... ... : ... .. . ... ... ... : ... .. . ... ... ...
ROW 99 : ... .. . ... ... ... : ... .. . ... ... ... : ... .. . ... ... ... : ... .. . ... ... ... : ... .. . ... ... ...
ROW 9A : ... .. . ... ... ... : ... .. . ... ... ... : ... .. . ... ... ... : ... .. . ... ... ... : ... .. . ... ... ...
ROW 9B : ... .. . ... ... ... : ... .. . ... ... ... : ... .. . ... ... ... : ... .. . ... ... ... : ... .. . ... ... ...
ROW 9C : ... .. . ... ... ... : ... .. . ... ... ... : ... .. . ... ... ... : ... .. . ... ... ... : ... .. . ... ... ...
ROW 9D : ... .. . ... ... ... : ... .. . ... ... ... : ... .. . ... ... ... : ... .. . ... ... ... : ... .. . ... ... ...
ROW 9E : ... .. . ... ... ... : ... .. . ... ... ... : ... .. . ... ... ... : ... .. . ... ... ... : ... .. . ... ... ...
ROW 9F : ... .. . ... ... ... : ... .. . ... ... ... : ... .. . ... ... ... : ... .. . ... ... ... : ... .. . ... ... ...

PATTERN 0D
ROW 00 : G#2 06 . ... ... ... : A#3 02 . ... ... ... : ... .. . ... ... ... : ... .. . ... ... ... : ... .. . ... ... ...
ROW 01 : ... .. . ... ... ... : ... .. . ... ... ... : ... .. . ... ... ... : ... .. . ... ... ... : ... .. . ... ... ...
ROW 02 : ... .. . ... ... ... : ... .. . ... ... ... : ... .. . ... ... ... : ... .. . ... ... ... : ... .. . ... ... ...
ROW 03 : ... .. . ... ... ... : ... .. . ... ... ... : ... .. . ... ... ... : ... .. . ... ... ... : ... .. . ... ... ...
ROW 04 : ... .. . ... ... ... : ... .. . ... ... ... : ... .. . ... ... ... : ... .. . ... ... ... : ... .. . ... ... ...
ROW 05 : ... .. . ... ... ... : ... .. . ... ... ... : ... .. . ... ... ... : ... .. . ... ... ... : ... .. . ... ... ...
ROW 06 : ... .. . ... ... ... : ... .. . ... ... ... : ... .. . ... ... ... : ... .. . ... ... ... : ... .. . ... ... ...
ROW 07 : ... .. . ... ... ... : ... .. . ... ... ... : ... .. . ... ... ... : ... .. . ... ... ... : ... .. . ... ... ...
ROW 08 : ... .. . ... ... ... : ... .. . ... ... ... : ... .. . ... ... ... : ... .. . ... ... ... : ... .. . ... ... ...
ROW 09 : ... .. . ... ... ... : ... .. . ... ... ... : ... .. . ... ... ... : ... .. . ... ... ... : ... .. . ... ... ...
ROW 0A : ... .. . ... ... ... : ... .. . ... ... ... : ... .. . ... ... ... : ... .. . ... ... ... : ... .. . ... ... ...
ROW 0B : ... .. . ... ... ... : ... .. . ... ... ... : ... .. . ... ... ... : ... .. . ... ... ... : ... .. . ... ... ...
ROW 0C : ... .. . ... ... ... : ... .. . ... ... ... : ... .. . ... ... ... : ... .. . ... ... ... : ... .. . ... ... ...
ROW 0D : ... .. . ... ... ... : ... .. . ... ... ... : ... .. . ... ... ... : ... .. . ... ... ... : ... .. . ... ... ...
ROW 0E : ... .. . ... ... ... : ... .. . ... ... ... : ... .. . ... ... ... : ... .. . ... ... ... : ... .. . ... ... ...
ROW 0F : ... .. . ... ... ... : ... .. . ... ... ... : ... .. . ... ... ... : ... .. . ... ... ... : ... .. . ... ... ...
ROW 10 : ... .. . ... ... ... : ... .. . ... ... ... : ... .. . ... ... ... : ... .. . ... ... ... : ... .. . ... ... ...
ROW 11 : ... .. . ... ... ... : ... .. . ... ... ... : ... .. . ... ... ... : ... .. . ... ... ... : ... .. . ... ... ...
ROW 12 : ... .. . ... ... ... : ... .. . ... ... ... : ... .. . ... ... ... : ... .. . ... ... ... : ... .. . ... ... ...
ROW 13 : ... .. . ... ... ... : ... .. . ... ... ... : ... .. . ... ... ... : ... .. . ... ... ... : ... .. . ... ... ...
ROW 14 : ... .. . ... ... ... : ... .. . ... ... ... : ... .. . ... ... ... : ... .. . ... ... ... : ... .. . ... ... ...
ROW 15 : ... .. . ... ... ... : ... .. . ... ... ... : ... .. . ... ... ... : ... .. . ... ... ... : ... .. . ... ... ...
ROW 16 : ... .. . ... ... ... : ... .. . ... ... ... : ... .. . ... ... ... : ... .. . ... ... ... : ... .. . ... ... ...
ROW 17 : ... .. . ... ... ... : ... .. . ... ... ... : ... .. . ... ... ... : ... .. . ... ... ... : ... .. . ... ... ...
ROW 18 : ... .. . ... ... ... : ... .. . ... ... ... : ... .. . ... ... ... : ... .. . ... ... ... : ... .. . ... ... ...
ROW 19 : ... .. . ... ... ... : ... .. . ... ... ... : ... .. . ... ... ... : ... .. . ... ... ... : ... .. . ... ... ...
ROW 1A : ... .. . ... ... ... : ... .. . ... ... ... : ... .. . ... ... ... : ... .. . ... ... ... : ... .. . ... ... ...
ROW 1B : ... .. . ... ... ... : ... .. . ... ... ... : ... .. . ... ... ... : ... .. . ... ... ... : ... .. . ... ... ...
ROW 1C : ... .. . ... ... ... : ... .. . ... ... ... : ... .. . ... ... ... : ... .. . ... ... ... : ... .. . ... ... ...
ROW 1D : ... .. . ... ... ... : ... .. . ... ... ... : ... .. . ... ... ... : ... .. . ... ... ... : ... .. . ... ... ...
ROW 1E : F-2 06 . ... ... ... : ... .. . ... ... ... : ... .. . ... ... ... : ... .. . ... ... ... : ... .. . ... ... ...
ROW 1F : ... .. . ... ... ... : ... .. . ... ... ... : ... .. . ... ... ... : ... .. . ... ... ... : ... .. . ... ... ...
ROW 20 : ... .. . ... ... ... : ... .. . ... ... ... : ... .. . ... ... ... : ... .. . ... ... ... : ... .. . ... ... ...
ROW 21 : ... .. . ... ... ... : ... .. . ... ... ... : ... .. . ... ... ... : ... .. . ... ... ... : ... .. . ... ... ...
ROW 22 : ... .. . ... ... ... : ... .. . ... ... ... : ... .. . ... ... ... : ... .. . ... ... ... : ... .. . ... ... ...
ROW 23 : ... .. . ... ... ... : ... .. . ... ... ... : ... .. . ... ... ... : ... .. . ... ... ... : ... .. . ... ... ...
ROW 24 : ... .. . ... ... ... : ... .. . ... ... ... : ... .. . ... ... ... : ... .. . ... ... ... : ... .. . ... ... ...
ROW 25 : ... .. . ... ... ... : ... .. . ... ... ... : ... .. . ... ... ... : ... .. . ... ... ... : ... .. . ... ... ...
ROW 26 : ... .. . ... ... ... : ... .. . ... ... ... : ... .. . ... ... ... : ... .. . ... ... ... : ... .. . ... ... ...
ROW 27 : ... .. . ... ... ... : ... .. . ... ... ... : ... .. . ... ... ... : ... .. . ... ... ... : ... .. . ... ... ...
ROW 28 : ... .. . ... ... ... : ... .. . ... ... ... : ... .. . ... ... ... : ... .. . ... ... ... : ... .. . ... ... ...
ROW 29 : ... .. . ... ... ... : ... .. . ... ... ... : ... .. . ... ... ... : ... .. . ... ... ... : ... .. . ... ... ...
ROW 2A : ... .. . ... ... ... : ... .. . ... ... ... : ... .. . ... ... ... : ... .. . ... ... ... : ... .. . ... ... ...
ROW 2B : ... .. . ... ... ... : ... .. . ... ... ... : ... .. . ... ... ... : ... .. . ... ... ... : ... .. . ... ... ...
ROW 2C : ... .. . ... ... ... : ... .. . ... ... ... : ... .. . ... ... ... : ... .. . ... ... ... : ... .. . ... ... ...
ROW 2D : ... .. . ... ... ... : ... .. . ... ... ... : ... .. . ... ... ... : ... .. . ... ... ... : ... .. . ... ... ...
ROW 2E : ... .. . ... ... ... : ... .. . ... ... ... : ... .. . ... ... ... : ... .. . ... ... ... : ... .. . ... ... ...
ROW 2F : ... .. . ... ... ... : ... .. . ... ... ... : ... .. . ... ... ... : ... .. . ... ... ... : ... .. . ... ... ...
ROW 30 : ... .. . ... ... ... : ... .. . ... ... ... : ... .. . ... ... ... : ... .. . ... ... ... : ... .. . ... ... ...
ROW 31 : ... .. . ... ... ... : ... .. . ... ... ... : ... .. . ... ... ... : ... .. . ... ... ... : ... .. . ... ... ...
ROW 32 : ... .. . ... ... ... : ... .. . ... ... ... : ... .. . ... ... ... : ... .. . ... ... ... : ... .. . ... ... ...
ROW 33 : ... .. . ... ... ... : ... .. . ... ... ... : ... .. . ... ... ... : ... .. . ... ... ... : ... .. . ... ... ...
ROW 34 : ... .. . ... ... ... : ... .. . ... ... ... : ... .. . ... ... ... : ... .. . ... ... ... : ... .. . ... ... ...
ROW 35 : ... .. . ... ... ... : ... .. . ... ... ... : ... .. . ... ... ... : ... .. . ... ... ... : ... .. . ... ... ...
ROW 36 : ... .. . ... ... ... : ... .. . ... ... ... : ... .. . ... ... ... : ... .. . ... ... ... : ... .. . ... ... ...
ROW 37 : ... .. . ... ... ... : ... .. . ... ... ... : ... .. . ... ... ... : ... .. . ... ... ... : ... .. . ... ... ...
ROW 38 : ... .. . ... ... ... : ... .. . ... ... ... : ... .. . ... ... ... : ... .. . ... ... ... : ... .. . ... ... ...
ROW 39 : ... .. . ... ... ... : ... .. . ... ... ... : ... .. . ... ... ... : ... .. . ... ... ... : ... .. . ... ... ...
ROW 3A : ... .. . ... ... ... : ... .. . ... ... ... : ... .. . ... ... ... : ... .. . ... ... ... : ... .. . ... ... ...
ROW 3B : ... .. . ... ... ... : ... .. . ... ... ... : ... .. . ... ... ... : ... .. . ... ... ... : ... .. . ... ... ...
ROW 3C : D#2 06 . ... ... ... : ... .. . ... ... ... : ... .. . ... ... ... : ... .. . ... ... ... : ... .. . ... ... ...
ROW 3D : ... .. . ... ... ... : ... .. . ... ... ... : ... .. . ... ... ... : ... .. . ... ... ... : ... .. . ... ... ...
ROW 3E : ... .. . ... ... ... : ... .. . ... ... ... : ... .. . ... ... ... : ... .. . ... ... ... : ... .. . ... ... ...
ROW 3F : ... .. . ... ... ... : ... .. . ... ... ... : ... .. . ... ... ... : ... .. . ... ... ... : ... .. . ... ... ...
ROW 40 : ... .. . ... ... ... : ... .. . ... ... ... : ... .. . ... ... ... : ... .. . ... ... ... : ... .. . ... ... ...
ROW 41 : ... .. . ... ... ... : ... .. . ... ... ... : ... .. . ... ... ... : ... .. . ... ... ... : ... .. . ... ... ...
ROW 42 : ... .. . ... ... ... : ... .. . ... ... ... : ... .. . ... ... ... : ... .. . ... ... ... : ... .. . ... ... ...
ROW 43 : ... .. . ... ... ... : ... .. . ... ... ... : ... .. . ... ... ... : ... .. . ... ... ... : ... .. . ... ... ...
ROW 44 : ... .. . ... ... ... : ... .. . ... ... ... : ... .. . ... ... ... : ... .. . ... ... ... : ... .. . ... ... ...
ROW 45 : ... .. . ... ... ... : ... .. . ... ... ... : ... .. . ... ... ... : ... .. . ... ... ... : ... .. . ... ... ...
ROW 46 : ... .. . ... ... ... : A#3 09 . Q48 ... ... : ... .. . ... ... ... : ... .. . ... ... ... : ... .. . ... ... ...
ROW 47 : ... .. . ... ... ... : ... .. . ... ... ... : ... .. . ... ... ... : ... .. . ... ... ... : ... .. . ... ... ...
ROW 48 : ... .. . ... ... ... : ... .. . ... ... ... : ... .. . ... ... ... : ... .. . ... ... ... : ... .. . ... ... ...
ROW 49 : ... .. . ... ... ... : ... .. . ... ... ... : ... .. . ... ... ... : ... .. . ... ... ... : ... .. . ... ... ...
ROW 4A : ... .. . ... ... ... : ... .. . ... ... ... : ... .. . ... ... ... : ... .. . ... ... ... : ... .. . ... ... ...
ROW 4B : ... .. . ... ... ... : ... .. . ... ... ... : ... .. . ... ... ... : ... .. . ... ... ... : ... .. . ... ... ...
ROW 4C : ... .. . ... ... ... : ... .. . ... ... ... : ... .. . ... ... ... : ... .. . ... ... ... : ... .. . ... ... ...
ROW 4D : ... .. . ... ... ... : ... .. . ... ... ... : ... .. . ... ... ... : ... .. . ... ... ... : ... .. . ... ... ...
ROW 4E : ... .. . ... ... ... : ... .. . ... ... ... : ... .. . ... ... ... : ... .. . ... ... ... : ... .. . ... ... ...
ROW 4F : ... .. . ... ... ... : ... .. . ... ... ... : ... .. . ... ... ... : ... .. . ... ... ... : ... .. . ... ... ...
ROW 50 : C-2 06 . ... ... ... : F#4 03 . ... ... ... : ... .. . ... ... ... : ... .. . ... ... ... : ... .. . ... ... ...
ROW 51 : ... .. . ... ... ... : ... .. . ... ... ... : ... .. . ... ... ... : ... .. . ... ... ... : ... .. . ... ... ...
ROW 52 : ... .. . ... ... ... : ... .. . ... ... ... : ... .. . ... ... ... : ... .. . ... ... ... : ... .. . ... ... ...
ROW 53 : ... .. . ... ... ... : ... .. . ... ... ... : ... .. . ... ... ... : ... .. . ... ... ... : ... .. . ... ... ...
ROW 54 : ... .. . ... ... ... : ... .. . ... ... ... : ... .. . ... ... ... : ... .. . ... ... ... : ... .. . ... ... ...
ROW 55 : ... .. . ... ... ... : ... .. . ... ... ... : ... .. . ... ... ... : ... .. . ... ... ... : ... .. . ... ... ...
ROW 56 : ... .. . ... ... ... : ... .. . ... ... ... : ... .. . ... ... ... : ... .. . ... ... ... : ... .. . ... ... ...
ROW 57 : ... .. . ... ... ... : ... .. . ... ... ... : ... .. . ... ... ... : ... .. . ... ... ... : ... .. . ... ... ...
ROW 58 : ... .. . ... ... ... : ... .. . ... ... ... : ... .. . ... ... ... : ... .. . ... ... ... : ... .. . ... ... ...
ROW 59 : ... .. . ... ... ... : ... .. . ... ... ... : ... .. . ... ... ... : ... .. . ... ... ... : ... .. . ... ... ...
ROW 5A : ... .. . ... ... ... : ... .. . ... ... ... : ... .. . ... ... ... : ... .. . ... ... ... : ... .. . ... ... ...
ROW 5B : ... .. . ... ... ... : ... .. . ... ... ... : ... .. . ... ... ... : ... .. . ... ... ... : ... .. . ... ... ...
ROW 5C : ... .. . ... ... ... : ... .. . ... ... ... : ... .. . ... ... ... : ... .. . ... ... ... : ... .. . ... ... ...
ROW 5D : ... .. . ... ... ... : ... .. . ... ... ... : ... .. . ... ... ... : ... .. . ... ... ... : ... .. . ... ... ...
ROW 5E : ... .. . ... ... ... : ... .. . ... ... ... : ... .. . ... ... ... : ... .. . ... ... ... : ... .. . ... ... ...
ROW 5F : ... .. . ... ... ... : ... .. . ... ... ... : ... .. . ... ... ... : ... .. . ... ... ... : ... .. . ... ... ...
ROW 60 : ... .. . ... ... ... : ... .. . ... ... ... : ... .. . ... ... ... : ... .. . ... ... ... : ... .. . ... ... ...
ROW 61 : ... .. . ... ... ... : ... .. . ... ... ... : ... .. . ... ... ... : ... .. . ... ... ... : ... .. . ... ... ...
ROW 62 : ... .. . ... ... ... : ... .. . ... ... ... : ... .. . ... ... ... : ... .. . ... ... ... : ... .. . ... ... ...
ROW 63 : ... .. . ... ... ... : ... .. . ... ... ... : ... .. . ... ... ... : ... .. . ... ... ... : ... .. . ... ... ...
ROW 64 : ... .. . ... ... ... : ... .. . ... ... ... : ... .. . ... ... ... : ... .. . ... ... ... : ... .. . ... ... ...
ROW 65 : ... .. . ... ... ... : ... .. . ... ... ... : ... .. . ... ... ... : ... .. . ... ... ... : ... .. . ... ... ...
ROW 66 : ... .. . ... ... ... : ... .. . ... ... ... : ... .. . ... ... ... : ... .. . ... ... ... : ... .. . ... ... ...
ROW 67 : ... .. . ... ... ... : ... .. . ... ... ... : ... .. . ... ... ... : ... .. . ... ... ... : ... .. . ... ... ...
ROW 68 : ... .. . ... ... ... : ... .. . ... ... ... : ... .. . ... ... ... : ... .. . ... ... ... : ... .. . ... ... ...
ROW 69 : ... .. . ... ... ... : ... .. . ... ... ... : ... .. . ... ... ... : ... .. . ... ... ... : ... .. . ... ... ...
ROW 6A : ... .. . ... ... ... : ... .. . ... ... ... : ... .. . ... ... ... : ... .. . ... ... ... : ... .. . ... ... ...
ROW 6B : ... .. . ... ... ... : ... .. . ... ... ... : ... .. . ... ... ... : ... .. . ... ... ... : ... .. . ... ... ...
ROW 6C : ... .. . ... ... ... : ... .. . ... ... ... : ... .. . ... ... ... : ... .. . ... ... ... : ... .. . ... ... ...
ROW 6D : ... .. . ... ... ... : ... .. . ... ... ... : ... .. . ... ... ... : ... .. . ... ... ... : ... .. . ... ... ...
ROW 6E : ... .. . ... ... ... : ... .. . ... ... ... : ... .. . ... ... ... : ... .. . ... ... ... : ... .. . ... ... ...
ROW 6F : ... .. . ... ... ... : ... .. . ... ... ... : ... .. . ... ... ... : ... .. . ... ... ... : ... .. . ... ... ...
ROW 70 : ... .. . ... ... ... : ... .. . ... ... ... : ... .. . ... ... ... : ... .. . ... ... ... : ... .. . ... ... ...
ROW 71 : ... .. . ... ... ... : ... .. . ... ... ... : ... .. . ... ... ... : ... .. . ... ... ... : ... .. . ... ... ...
ROW 72 : ... .. . ... ... ... : ... .. . ... ... ... : ... .. . ... ... ... : ... .. . ... ... ... : ... .. . ... ... ...
ROW 73 : ... .. . ... ... ... : ... .. . ... ... ... : ... .. . ... ... ... : ... .. . ... ... ... : ... .. . ... ... ...
ROW 74 : ... .. . ... ... ... : ... .. . ... ... ... : ... .. . ... ... ... : ... .. . ... ... ... : ... .. . ... ... ...
ROW 75 : ... .. . ... ... ... : ... .. . ... ... ... : ... .. . ... ... ... : ... .. . ... ... ... : ... .. . ... ... ...
ROW 76 : ... .. . ... ... ... : ... .. . ... ... ... : ... .. . ... ... ... : ... .. . ... ... ... : ... .. . ... ... ...
ROW 77 : ... .. . ... ... ... : ... .. . ... ... ... : ... .. . ... ... ... : ... .. . ... ... ... : ... .. . ... ... ...
ROW 78 : ... .. . ... ... ... : ... .. . ... ... ... : ... .. . ... ... ... : ... .. . ... ... ... : ... .. . ... ... ...
ROW 79 : ... .. . ... ... ... : ... .. . ... ... ... : ... .. . ... ... ... : ... .. . ... ... ... : ... .. . ... ... ...
ROW 7A : ... .. . ... ... ... : ... .. . ... ... ... : ... .. . ... ... ... : ... .. . ... ... ... : ... .. . ... ... ...
ROW 7B : ... .. . ... ... ... : ... .. . ... ... ... : ... .. . ... ... ... : ... .. . ... ... ... : ... .. . ... ... ...
ROW 7C : ... .. . ... ... ... : ... .. . ... ... ... : ... .. . ... ... ... : ... .. . ... ... ... : ... .. . ... ... ...
ROW 7D : ... .. . ... ... ... : ... .. . ... ... ... : ... .. . ... ... ... : ... .. . ... ... ... : ... .. . ... ... ...
ROW 7E : ... .. . ... ... ... : ... .. . ... ... ... : ... .. . ... ... ... : ... .. . ... ... ... : ... .. . ... ... ...
ROW 7F : ... .. . ... ... ... : ... .. . ... ... ... : ... .. . ... ... ... : ... .. . ... ... ... : ... .. . ... ... ...
ROW 80 : ... .. . ... ... ... : ... .. . ... ... ... : ... .. . ... ... ... : ... .. . ... ... ... : ... .. . ... ... ...
ROW 81 : ... .. . ... ... ... : ... .. . ... ... ... : ... .. . ... ... ... : ... .. . ... ... ... : ... .. . ... ... ...
ROW 82 : ... .. . ... ... ... : ... .. . ... ... ... : ... .. . ... ... ... : ... .. . ... ... ... : ... .. . ... ... ...
ROW 83 : ... .. . ... ... ... : ... .. . ... ... ... : ... .. . ... ... ... : ... .. . ... ... ... : ... .. . ... ... ...
ROW 84 : ... .. . ... ... ... : ... .. . ... ... ... : ... .. . ... ... ... : ... .. . ... ... ... : ... .. . ... ... ...
ROW 85 : ... .. . ... ... ... : ... .. . ... ... ... : ... .. . ... ... ... : ... .. . ... ... ... : ... .. . ... ... ...
ROW 86 : ... .. . ... ... ... : ... .. . ... ... ... : ... .. . ... ... ... : ... .. . ... ... ... : ... .. . ... ... ...
ROW 87 : ... .. . ... ... ... : ... .. . ... ... ... : ... .. . ... ... ... : ... .. . ... ... ... : ... .. . ... ... ...
ROW 88 : ... .. . ... ... ... : ... .. . ... ... ... : ... .. . ... ... ... : ... .. . ... ... ... : ... .. . ... ... ...
ROW 89 : ... .. . ... ... ... : ... .. . ... ... ... : ... .. . ... ... ... : ... .. . ... ... ... : ... .. . ... ... ...
ROW 8A : ... .. . ... ... ... : ... .. . ... ... ... : ... .. . ... ... ... : ... .. . ... ... ... : ... .. . ... ... ...
ROW 8B : ... .. . ... ... ... : ... .. . ... ... ... : ... .. . ... ... ... : ... .. . ... ... ... : ... .. . ... ... ...
ROW 8C : C-3 06 . ... ... ... : C#4 02 . ... ... ... : ... .. . ... ... ... : ... .. . ... ... ... : ... .. . ... ... ...
ROW 8D : ... .. . ... ... ... : ... .. . ... ... ... : ... .. . ... ... ... : ... .. . ... ... ... : ... .. . ... ... ...
ROW 8E : ... .. . ... ... ... : ... .. . ... ... ... : ... .. . ... ... ... : ... .. . ... ... ... : ... .. . ... ... ...
ROW 8F : ... .. . ... ... ... : ... .. . ... ... ... : ... .. . ... ... ... : ... .. . ... ... ... : ... .. . ... ... ...
ROW 90 : ... .. . ... ... ... : ... .. . ... ... ... : ... .. . ... ... ... : ... .. . ... ... ... : ... .. . ... ... ...
ROW 91 : ... .. . ... ... ... : ... .. . ... ... ... : ... .. . ... ... ... : ... .. . ... ... ... : ... .. . ... ... ...
ROW 92 : ... .. . ... ... ... : ... .. . ... ... ... : ... .. . ... ... ... : ... .. . ... ... ... : ... .. . ... ... ...
ROW 93 : ... .. . ... ... ... : ... .. . ... ... ... : ... .. . ... ... ... : ... .. . ... ... ... : ... .. . ... ... ...
ROW 94 : ... .. . ... ... ... : ... .. . ... ... ... : ... .. . ... ... ... : ... .. . ... ... ... : ... .. . ... ... ...
ROW 95 : ... .. . ... ... ... : ... .. . ... ... ... : ... .. . ... ... ... : ... .. . ... ... ... : ... .. . ... ... ...
ROW 96 : ... .. . ... ... ... : ... .. . ... ... ... : ... .. . ... ... ... : ... .. . ... ... ... : ... .. . ... ... ...
ROW 97 : ... .. . ... ... ... : ... .. . ... ... ... : ... .. . ... ... ... : ... .. . ... ... ... : ... .. . ... ... ...
ROW 98 : ... .. . ... ... ... : ... .. . ... ... ... : ... .. . ... ... ... : ... .. . ... ... ... : ... .. . ... ... ...
ROW 99 : ... .. . ... ... ... : ... .. . ... ... ... : ... .. . ... ... ... : ... .. . ... ... ... : ... .. . ... ... ...
ROW 9A : ... .. . ... ... ... : ... .. . ... ... ... : ... .. . ... ... ... : ... .. . ... ... ... : ... .. . ... ... ...
ROW 9B : ... .. . ... ... ... : ... .. . ... ... ... : ... .. . ... ... ... : ... .. . ... ... ... : ... .. . ... ... ...
ROW 9C : ... .. . ... ... ... : ... .. . ... ... ... : ... .. . ... ... ... : ... .. . ... ... ... : ... .. . ... ... ...
ROW 9D : ... .. . ... ... ... : ... .. . ... ... ... : ... .. . ... ... ... : ... .. . ... ... ... : ... .. . ... ... ...
ROW 9E : ... .. . ... ... ... : ... .. . ... ... ... : ... .. . ... ... ... : ... .. . ... ... ... : ... .. . ... ... ...
ROW 9F : ... .. . ... ... ... : ... .. . ... ... ... : ... .. . ... ... ... : ... .. . ... ... ... : ... .. . ... ... ...

PATTERN 0E
ROW 00 : C#3 06 . ... ... ... : C-4 02 . ... ... ... : ... .. . ... ... ... : ... .. . ... ... ... : ... .. . ... ... ...
ROW 01 : ... .. . ... ... ... : ... .. . ... ... ... : ... .. . ... ... ... : ... .. . ... ... ... : ... .. . ... ... ...
ROW 02 : ... .. . ... ... ... : ... .. . ... ... ... : ... .. . ... ... ... : ... .. . ... ... ... : ... .. . ... ... ...
ROW 03 : ... .. . ... ... ... : ... .. . ... ... ... : ... .. . ... ... ... : ... .. . ... ... ... : ... .. . ... ... ...
ROW 04 : ... .. . ... ... ... : ... .. . ... ... ... : ... .. . ... ... ... : ... .. . ... ... ... : ... .. . ... ... ...
ROW 05 : ... .. . ... ... ... : ... .. . ... ... ... : ... .. . ... ... ... : ... .. . ... ... ... : ... .. . ... ... ...
ROW 06 : ... .. . ... ... ... : ... .. . ... ... ... : ... .. . ... ... ... : ... .. . ... ... ... : ... .. . ... ... ...
ROW 07 : ... .. . ... ... ... : ... .. . ... ... ... : ... .. . ... ... ... : ... .. . ... ... ... : ... .. . ... ... ...
ROW 08 : ... .. . ... ... ... : ... .. . ... ... ... : ... .. . ... ... ... : ... .. . ... ... ... : ... .. . ... ... ...
ROW 09 : ... .. . ... ... ... : ... .. . ... ... ... : ... .. . ... ... ... : ... .. . ... ... ... : ... .. . ... ... ...
ROW 0A : ... .. . ... ... ... : ... .. . ... ... ... : ... .. . ... ... ... : ... .. . ... ... ... : ... .. . ... ... ...
ROW 0B : ... .. . ... ... ... : ... .. . ... ... ... : ... .. . ... ... ... : ... .. . ... ... ... : ... .. . ... ... ...
ROW 0C : ... .. . ... ... ... : ... .. . ... ... ... : ... .. . ... ... ... : ... .. . ... ... ... : ... .. . ... ... ...
ROW 0D : ... .. . ... ... ... : ... .. . ... ... ... : ... .. . ... ... ... : ... .. . ... ... ... : ... .. . ... ... ...
ROW 0E : ... .. . ... ... ... : ... .. . ... ... ... : ... .. . ... ... ... : ... .. . ... ... ... : ... .. . ... ... ...
ROW 0F : ... .. . ... ... ... : ... .. . ... ... ... : ... .. . ... ... ... : ... .. . ... ... ... : ... .. . ... ... ...
ROW 10 : ... .. . ... ... ... : ... .. . ... ... ... : ... .. . ... ... ... : ... .. . ... ... ... : ... .. . ... ... ...
ROW 11 : ... .. . ... ... ... : ... .. . ... ... ... : ... .. . ... ... ... : ... .. . ... ... ... : ... .. . ... ... ...
ROW 12 : ... .. . ... ... ... : ... .. . ... ... ... : ... .. . ... ... ... : ... .. . ... ... ... : ... .. . ... ... ...
ROW 13 : ... .. . ... ... ... : ... .. . ... ... ... : ... .. . ... ... ... : ... .. . ... ... ... : ... .. . ... ... ...
ROW 14 : ... .. . ... ... ... : ... .. . ... ... ... : ... .. . ... ... ... : ... .. . ... ... ... : ... .. . ... ... ...
ROW 15 : ... .. . ... ... ... : ... .. . ... ... ... : ... .. . ... ... ... : ... .. . ... ... ... : ... .. . ... ... ...
ROW 16 : ... .. . ... ... ... : ... .. . ... ... ... : ... .. . ... ... ... : ... .. . ... ... ... : ... .. . ... ... ...
ROW 17 : ... .. . ... ... ... : ... .. . ... ... ... : ... .. . ... ... ... : ... .. . ... ... ... : ... .. . ... ... ...
ROW 18 : ... .. . ... ... ... : ... .. . ... ... ... : ... .. . ... ... ... : ... .. . ... ... ... : ... .. . ... ... ...
ROW 19 : ... .. . ... ... ... : ... .. . ... ... ... : ... .. . ... ... ... : ... .. . ... ... ... : ... .. . ... ... ...
ROW 1A : ... .. . ... ... ... : ... .. . ... ... ... : ... .. . ... ... ... : ... .. . ... ... ... : ... .. . ... ... ...
ROW 1B : ... .. . ... ... ... : ... .. . ... ... ... : ... .. . ... ... ... : ... .. . ... ... ... : ... .. . ... ... ...
ROW 1C : ... .. . ... ... ... : ... .. . ... ... ... : ... .. . ... ... ... : ... .. . ... ... ... : ... .. . ... ... ...
ROW 1D : ... .. . ... ... ... : ... .. . ... ... ... : ... .. . ... ... ... : ... .. . ... ... ... : ... .. . ... ... ...
ROW 1E : ... .. . ... ... ... : A#3 02 . ... ... ... : ... .. . ... ... ... : ... .. . ... ... ... : ... .. . ... ... ...
ROW 1F : ... .. . ... ... ... : ... .. . ... ... ... : ... .. . ... ... ... : ... .. . ... ... ... : ... .. . ... ... ...
ROW 20 : ... .. . ... ... ... : ... .. . ... ... ... : ... .. . ... ... ... : ... .. . ... ... ... : ... .. . ... ... ...
ROW 21 : ... .. . ... ... ... : ... .. . ... ... ... : ... .. . ... ... ... : ... .. . ... ... ... : ... .. . ... ... ...
ROW 22 : ... .. . ... ... ... : ... .. . ... ... ... : ... .. . ... ... ... : ... .. . ... ... ... : ... .. . ... ... ...
ROW 23 : ... .. . ... ... ... : ... .. . ... ... ... : ... .. . ... ... ... : ... .. . ... ... ... : ... .. . ... ... ...
ROW 24 : ... .. . ... ... ... : ... .. . ... ... ... : ... .. . ... ... ... : ... .. . ... ... ... : ... .. . ... ... ...
ROW 25 : ... .. . ... ... ... : ... .. . ... ... ... : ... .. . ... ... ... : ... .. . ... ... ... : ... .. . ... ... ...
ROW 26 : ... .. . ... ... ... : ... .. . ... ... ... : ... .. . ... ... ... : ... .. . ... ... ... : ... .. . ... ... ...
ROW 27 : ... .. . ... ... ... : ... .. . ... ... ... : ... .. . ... ... ... : ... .. . ... ... ... : ... .. . ... ... ...
ROW 28 : ... .. . ... ... ... : ... .. . ... ... ... : ... .. . ... ... ... : ... .. . ... ... ... : ... .. . ... ... ...
ROW 29 : ... .. . ... ... ... : ... .. . ... ... ... : ... .. . ... ... ... : ... .. . ... ... ... : ... .. . ... ... ...
ROW 2A : ... .. . ... ... ... : ... .. . ... ... ... : ... .. . ... ... ... : ... .. . ... ... ... : ... .. . ... ... ...
ROW 2B : ... .. . ... ... ... : ... .. . ... ... ... : ... .. . ... ... ... : ... .. . ... ... ... : ... .. . ... ... ...
ROW 2C : ... .. . ... ... ... : ... .. . ... ... ... : ... .. . ... ... ... : ... .. . ... ... ... : ... .. . ... ... ...
ROW 2D : ... .. . ... ... ... : ... .. . ... ... ... : ... .. . ... ... ... : ... .. . ... ... ... : ... .. . ... ... ...
ROW 2E : ... .. . ... ... ... : ... .. . ... ... ... : ... .. . ... ... ... : ... .. . ... ... ... : ... .. . ... ... ...
ROW 2F : ... .. . ... ... ... : ... .. . ... ... ... : ... .. . ... ... ... : ... .. . ... ... ... : ... .. . ... ... ...
ROW 30 : ... .. . ... ... ... : ... .. . ... ... ... : ... .. . ... ... ... : ... .. . ... ... ... : ... .. . ... ... ...
ROW 31 : ... .. . ... ... ... : ... .. . ... ... ... : ... .. . ... ... ... : ... .. . ... ... ... : ... .. . ... ... ...
ROW 32 : ... .. . ... ... ... : ... .. . ... ... ... : ... .. . ... ... ... : ... .. . ... ... ... : ... .. . ... ... ...
ROW 33 : ... .. . ... ... ... : ... .. . ... ... ... : ... .. . ... ... ... : ... .. . ... ... ... : ... .. . ... ... ...
ROW 34 : ... .. . ... ... ... : ... .. . ... ... ... : ... .. . ... ... ... : ... .. . ... ... ... : ... .. . ... ... ...
ROW 35 : ... .. . ... ... ... : ... .. . ... ... ... : ... .. . ... ... ... : ... .. . ... ... ... : ... .. . ... ... ...
ROW 36 : ... .. . ... ... ... : ... .. . ... ... ... : ... .. . ... ... ... : ... .. . ... ... ... : ... .. . ... ... ...
ROW 37 : ... .. . ... ... ... : ... .. . ... ... ... : ... .. . ... ... ... : ... .. . ... ... ... : ... .. . ... ... ...
ROW 38 : ... .. . ... ... ... : ... .. . ... ... ... : ... .. . ... ... ... : ... .. . ... ... ... : ... .. . ... ... ...
ROW 39 : ... .. . ... ... ... : ... .. . ... ... ... : ... .. . ... ... ... : ... .. . ... ... ... : ... .. . ... ... ...
ROW 3A : ... .. . ... ... ... : ... .. . ... ... ... : ... .. . ... ... ... : ... .. . ... ... ... : ... .. . ... ... ...
ROW 3B : ... .. . ... ... ... : ... .. . ... ... ... : ... .. . ... ... ... : ... .. . ... ... ... : ... .. . ... ... ...
ROW 3C : ... .. . ... ... ... : G#3 02 . ... ... ... : ... .. . ... ... ... : ... .. . ... ... ... : ... .. . ... ... ...
ROW 3D : ... .. . ... ... ... : ... .. . ... ... ... : ... .. . ... ... ... : ... .. . ... ... ... : ... .. . ... ... ...
ROW 3E : ... .. . ... ... ... : ... .. . ... ... ... : ... .. . ... ... ... : ... .. . ... ... ... : ... .. . ... ... ...
ROW 3F : ... .. . ... ... ... : ... .. . ... ... ... : ... .. . ... ... ... : ... .. . ... ... ... : ... .. . ... ... ...
ROW 40 : ... .. . ... ... ... : ... .. . ... ... ... : ... .. . ... ... ... : ... .. . ... ... ... : ... .. . ... ... ...
ROW 41 : ... .. . ... ... ... : ... .. . ... ... ... : ... .. . ... ... ... : ... .. . ... ... ... : ... .. . ... ... ...
ROW 42 : ... .. . ... ... ... : ... .. . ... ... ... : ... .. . ... ... ... : ... .. . ... ... ... : ... .. . ... ... ...
ROW 43 : ... .. . ... ... ... : ... .. . ... ... ... : ... .. . ... ... ... : ... .. . ... ... ... : ... .. . ... ... ...
ROW 44 : ... .. . ... ... ... : ... .. . ... ... ... : ... .. . ... ... ... : ... .. . ... ... ... : ... .. . ... ... ...
ROW 45 : ... .. . ... ... ... : ... .. . ... ... ... : ... .. . ... ... ... : ... .. . ... ... ... : ... .. . ... ... ...
ROW 46 : ... .. . ... ... ... : ... .. . ... ... ... : ... .. . ... ... ... : ... .. . ... ... ... : ... .. . ... ... ...
ROW 47 : ... .. . ... ... ... : ... .. . ... ... ... : ... .. . ... ... ... : ... .. . ... ... ... : ... .. . ... ... ...
ROW 48 : ... .. . ... ... ... : ... .. . ... ... ... : ... .. . ... ... ... : ... .. . ... ... ... : ... .. . ... ... ...
ROW 49 : ... .. . ... ... ... : ... .. . ... ... ... : ... .. . ... ... ... : ... .. . ... ... ... : ... .. . ... ... ...
ROW 4A : ... .. . ... ... ... : ... .. . ... ... ... : ... .. . ... ... ... : ... .. . ... ... ... : ... .. . ... ... ...
ROW 4B : ... .. . ... ... ... : ... .. . ... ... ... : ... .. . ... ... ... : ... .. . ... ... ... : ... .. . ... ... ...
ROW 4C : ... .. . ... ... ... : ... .. . ... ... ... : ... .. . ... ... ... : ... .. . ... ... ... : ... .. . ... ... ...
ROW 4D : ... .. . ... ... ... : ... .. . ... ... ... : ... .. . ... ... ... : ... .. . ... ... ... : ... .. . ... ... ...
ROW 4E : ... .. . ... ... ... : ... .. . ... ... ... : ... .. . ... ... ... : ... .. . ... ... ... : ... .. . ... ... ...
ROW 4F : ... .. . ... ... ... : ... .. . ... ... ... : ... .. . ... ... ... : ... .. . ... ... ... : ... .. . ... ... ...
ROW 50 : C-3 06 . ... ... ... : A#3 02 . ... ... ... : ... .. . ... ... ... : ... .. . ... ... ... : ... .. . ... ... ...
ROW 51 : ... .. . ... ... ... : ... .. . ... ... ... : ... .. . ... ... ... : ... .. . ... ... ... : ... .. . ... ... ...
ROW 52 : ... .. . ... ... ... : ... .. . ... ... ... : ... .. . ... ... ... : ... .. . ... ... ... : ... .. . ... ... ...
ROW 53 : ... .. . ... ... ... : ... .. . ... ... ... : ... .. . ... ... ... : ... .. . ... ... ... : ... .. . ... ... ...
ROW 54 : ... .. . ... ... ... : ... .. . ... ... ... : ... .. . ... ... ... : ... .. . ... ... ... : ... .. . ... ... ...
ROW 55 : ... .. . ... ... ... : ... .. . ... ... ... : ... .. . ... ... ... : ... .. . ... ... ... : ... .. . ... ... ...
ROW 56 : ... .. . ... ... ... : ... .. . ... ... ... : ... .. . ... ... ... : ... .. . ... ... ... : ... .. . ... ... ...
ROW 57 : ... .. . ... ... ... : ... .. . ... ... ... : ... .. . ... ... ... : ... .. . ... ... ... : ... .. . ... ... ...
ROW 58 : ... .. . ... ... ... : ... .. . ... ... ... : ... .. . ... ... ... : ... .. . ... ... ... : ... .. . ... ... ...
ROW 59 : ... .. . ... ... ... : ... .. . ... ... ... : ... .. . ... ... ... : ... .. . ... ... ... : ... .. . ... ... ...
ROW 5A : ... .. . ... ... ... : ... .. . ... ... ... : ... .. . ... ... ... : ... .. . ... ... ... : ... .. . ... ... ...
ROW 5B : ... .. . ... ... ... : ... .. . ... ... ... : ... .. . ... ... ... : ... .. . ... ... ... : ... .. . ... ... ...
ROW 5C : ... .. . ... ... ... : ... .. . ... ... ... : ... .. . ... ... ... : ... .. . ... ... ... : ... .. . ... ... ...
ROW 5D : ... .. . ... ... ... : ... .. . ... ... ... : ... .. . ... ... ... : ... .. . ... ... ... : ... .. . ... ... ...
ROW 5E : ... .. . ... ... ... : ... .. . ... ... ... : ... .. . ... ... ... : ... .. . ... ... ... : ... .. . ... ... ...
ROW 5F : ... .. . ... ... ... : ... .. . ... ... ... : ... .. . ... ... ... : ... .. . ... ... ... : ... .. . ... ... ...
ROW 60 : ... .. . ... ... ... : ... .. . ... ... ... : ... .. . ... ... ... : ... .. . ... ... ... : ... .. . ... ... ...
ROW 61 : ... .. . ... ... ... : ... .. . ... ... ... : ... .. . ... ... ... : ... .. . ... ... ... : ... .. . ... ... ...
ROW 62 : ... .. . ... ... ... : ... .. . ... ... ... : ... .. . ... ... ... : ... .. . ... ... ... : ... .. . ... ... ...
ROW 63 : ... .. . ... ... ... : ... .. . ... ... ... : ... .. . ... ... ... : ... .. . ... ... ... : ... .. . ... ... ...
ROW 64 : ... .. . ... ... ... : ... .. . ... ... ... : ... .. . ... ... ... : ... .. . ... ... ... : ... .. . ... ... ...
ROW 65 : ... .. . ... ... ... : ... .. . ... ... ... : ... .. . ... ... ... : ... .. . ... ... ... : ... .. . ... ... ...
ROW 66 : ... .. . ... ... ... : ... .. . ... ... ... : ... .. . ... ... ... : ... .. . ... ... ... : ... .. . ... ... ...
ROW 67 : ... .. . ... ... ... : ... .. . ... ... ... : ... .. . ... ... ... : ... .. . ... ... ... : ... .. . ... ... ...
ROW 68 : ... .. . ... ... ... : ... .. . ... ... ... : ... .. . ... ... ... : ... .. . ... ... ... : ... .. . ... ... ...
ROW 69 : ... .. . ... ... ... : ... .. . ... ... ... : ... .. . ... ... ... : ... .. . ... ... ... : ... .. . ... ... ...
ROW 6A : ... .. . ... ... ... : ... .. . ... ... ... : ... .. . ... ... ... : ... .. . ... ... ... : ... .. . ... ... ...
ROW 6B : ... .. . ... ... ... : ... .. . ... ... ... : ... .. . ... ... ... : ... .. . ... ... ... : ... .. . ... ... ...
ROW 6C : ... .. . ... ... ... : ... .. . ... ... ... : ... .. . ... ... ... : ... .. . ... ... ... : ... .. . ... ... ...
ROW 6D : ... .. . ... ... ... : ... .. . ... ... ... : ... .. . ... ... ... : ... .. . ... ... ... : ... .. . ... ... ...
ROW 6E : ... .. . ... ... ... : ... .. . ... ... ... : ... .. . ... ... ... : ... .. . ... ... ... : ... .. . ... ... ...
ROW 6F : ... .. . ... ... ... : ... .. . ... ... ... : ... .. . ... ... ... : ... .. . ... ... ... : ... .. . ... ... ...
ROW 70 : ... .. . ... ... ... : ... .. . ... ... ... : ... .. . ... ... ... : ... .. . ... ... ... : ... .. . ... ... ...
ROW 71 : ... .. . ... ... ... : ... .. . ... ... ... : ... .. . ... ... ... : ... .. . ... ... ... : ... .. . ... ... ...
ROW 72 : ... .. . ... ... ... : ... .. . ... ... ... : ... .. . ... ... ... : ... .. . ... ... ... : ... .. . ... ... ...
ROW 73 : ... .. . ... ... ... : ... .. . ... ... ... : ... .. . ... ... ... : ... .. . ... ... ... : ... .. . ... ... ...
ROW 74 : ... .. . ... ... ... : ... .. . ... ... ... : ... .. . ... ... ... : ... .. . ... ... ... : ... .. . ... ... ...
ROW 75 : ... .. . ... ... ... : ... .. . ... ... ... : ... .. . ... ... ... : ... .. . ... ... ... : ... .. . ... ... ...
ROW 76 : ... .. . ... ... ... : ... .. . ... ... ... : ... .. . ... ... ... : ... .. . ... ... ... : ... .. . ... ... ...
ROW 77 : ... .. . ... ... ... : ... .. . ... ... ... : ... .. . ... ... ... : ... .. . ... ... ... : ... .. . ... ... ...
ROW 78 : ... .. . ... ... ... : ... .. . ... ... ... : ... .. . ... ... ... : ... .. . ... ... ... : ... .. . ... ... ...
ROW 79 : ... .. . ... ... ... : ... .. . ... ... ... : ... .. . ... ... ... : ... .. . ... ... ... : ... .. . ... ... ...
ROW 7A : ... .. . ... ... ... : ... .. . ... ... ... : ... .. . ... ... ... : ... .. . ... ... ... : ... .. . ... ... ...
ROW 7B : ... .. . ... ... ... : ... .. . ... ... ... : ... .. . ... ... ... : ... .. . ... ... ... : ... .. . ... ... ...
ROW 7C : ... .. . ... ... ... : ... .. . ... ... ... : ... .. . ... ... ... : ... .. . ... ... ... : ... .. . ... ... ...
ROW 7D : ... .. . ... ... ... : ... .. . ... ... ... : ... .. . ... ... ... : ... .. . ... ... ... : ... .. . ... ... ...
ROW 7E : ... .. . ... ... ... : ... .. . ... ... ... : ... .. . ... ... ... : ... .. . ... ... ... : ... .. . ... ... ...
ROW 7F : ... .. . ... ... ... : ... .. . ... ... ... : ... .. . ... ... ... : ... .. . ... ... ... : ... .. . ... ... ...
ROW 80 : ... .. . ... ... ... : ... .. . ... ... ... : ... .. . ... ... ... : ... .. . ... ... ... : ... .. . ... ... ...
ROW 81 : ... .. . ... ... ... : ... .. . ... ... ... : ... .. . ... ... ... : ... .. . ... ... ... : ... .. . ... ... ...
ROW 82 : ... .. . ... ... ... : ... .. . ... ... ... : ... .. . ... ... ... : ... .. . ... ... ... : ... .. . ... ... ...
ROW 83 : ... .. . ... ... ... : ... .. . ... ... ... : ... .. . ... ... ... : ... .. . ... ... ... : ... .. . ... ... ...
ROW 84 : ... .. . ... ... ... : ... .. . ... ... ... : ... .. . ... ... ... : ... .. . ... ... ... : ... .. . ... ... ...
ROW 85 : ... .. . ... ... ... : ... .. . ... ... ... : ... .. . ... ... ... : ... .. . ... ... ... : ... .. . ... ... ...
ROW 86 : ... .. . ... ... ... : ... .. . ... ... ... : ... .. . ... ... ... : ... .. . ... ... ... : ... .. . ... ... ...
ROW 87 : ... .. . ... ... ... : ... .. . ... ... ... : ... .. . ... ... ... : ... .. . ... ... ... : ... .. . ... ... ...
ROW 88 : ... .. . ... ... ... : ... .. . ... ... ... : ... .. . ... ... ... : ... .. . ... ... ... : ... .. . ... ... ...
ROW 89 : ... .. . ... ... ... : ... .. . ... ... ... : ... .. . ... ... ... : ... .. . ... ... ... : ... .. . ... ... ...
ROW 8A : ... .. . ... ... ... : ... .. . ... ... ... : ... .. . ... ... ... : ... .. . ... ... ... : ... .. . ... ... ...
ROW 8B : ... .. . ... ... ... : ... .. . ... ... ... : ... .. . ... ... ... : ... .. . ... ... ... : ... .. . ... ... ...
ROW 8C : C#3 06 . ... ... ... : C#3 02 . ... ... ... : ... .. . ... ... ... : ... .. . ... ... ... : ... .. . ... ... ...
ROW 8D : ... .. . ... ... ... : ... .. . ... ... ... : ... .. . ... ... ... : ... .. . ... ... ... : ... .. . ... ... ...
ROW 8E : ... .. . ... ... ... : ... .. . ... ... ... : ... .. . ... ... ... : ... .. . ... ... ... : ... .. . ... ... ...
ROW 8F : ... .. . ... ... ... : ... .. . ... ... ... : ... .. . ... ... ... : ... .. . ... ... ... : ... .. . ... ... ...
ROW 90 : ... .. . ... ... ... : ... .. . ... ... ... : ... .. . ... ... ... : ... .. . ... ... ... : ... .. . ... ... ...
ROW 91 : ... .. . ... ... ... : ... .. . ... ... ... : ... .. . ... ... ... : ... .. . ... ... ... : ... .. . ... ... ...
ROW 92 : ... .. . ... ... ... : ... .. . ... ... ... : ... .. . ... ... ... : ... .. . ... ... ... : ... .. . ... ... ...
ROW 93 : ... .. . ... ... ... : ... .. . ... ... ... : ... .. . ... ... ... : ... .. . ... ... ... : ... .. . ... ... ...
ROW 94 : ... .. . ... ... ... : ... .. . ... ... ... : ... .. . ... ... ... : ... .. . ... ... ... : ... .. . ... ... ...
ROW 95 : ... .. . ... ... ... : ... .. . ... ... ... : ... .. . ... ... ... : ... .. . ... ... ... : ... .. . ... ... ...
ROW 96 : D#3 06 . ... ... ... : C-3 02 . ... ... ... : ... .. . ... ... ... : ... .. . ... ... ... : ... .. . ... ... ...
ROW 97 : ... .. . ... ... ... : ... .. . ... ... ... : ... .. . ... ... ... : ... .. . ... ... ... : ... .. . ... ... ...
ROW 98 : ... .. . ... ... ... : ... .. . ... ... ... : ... .. . ... ... ... : ... .. . ... ... ... : ... .. . ... ... ...
ROW 99 : ... .. . ... ... ... : ... .. . ... ... ... : ... .. . ... ... ... : ... .. . ... ... ... : ... .. . ... ... ...
ROW 9A : ... .. . ... ... ... : ... .. . ... ... ... : ... .. . ... ... ... : ... .. . ... ... ... : ... .. . ... ... ...
ROW 9B : ... .. . ... ... ... : ... .. . ... ... ... : ... .. . ... ... ... : ... .. . ... ... ... : ... .. . ... ... ...
ROW 9C : ... .. . ... ... ... : ... .. . ... ... ... : ... .. . ... ... ... : ... .. . ... ... ... : ... .. . ... ... ...
ROW 9D : ... .. . ... ... ... : ... .. . ... ... ... : ... .. . ... ... ... : ... .. . ... ... ... : ... .. . ... ... ...
ROW 9E : ... .. . ... ... ... : ... .. . ... ... ... : ... .. . ... ... ... : ... .. . ... ... ... : ... .. . ... ... ...
ROW 9F : ... .. . ... ... ... : --- .. . ... ... ... : ... .. . ... ... ... : ... .. . ... ... ... : ... .. . ... ... ...

PATTERN 0F
ROW 00 : F-3 06 . ... ... ... : A#2 02 . ... ... ... : ... .. . ... ... ... : ... .. . ... ... ... : ... .. . ... ... ...
ROW 01 : ... .. . ... ... ... : ... .. . ... ... ... : ... .. . ... ... ... : ... .. . ... ... ... : ... .. . ... ... ...
ROW 02 : ... .. . ... ... ... : ... .. . ... ... ... : ... .. . ... ... ... : ... .. . ... ... ... : ... .. . ... ... ...
ROW 03 : ... .. . ... ... ... : ... .. . ... ... ... : ... .. . ... ... ... : ... .. . ... ... ... : ... .. . ... ... ...
ROW 04 : ... .. . ... ... ... : ... .. . ... ... ... : ... .. . ... ... ... : ... .. . ... ... ... : ... .. . ... ... ...
ROW 05 : ... .. . ... ... ... : ... .. . ... ... ... : ... .. . ... ... ... : ... .. . ... ... ... : ... .. . ... ... ...
ROW 06 : ... .. . ... ... ... : ... .. . ... ... ... : ... .. . ... ... ... : ... .. . ... ... ... : ... .. . ... ... ...
ROW 07 : ... .. . ... ... ... : ... .. . ... ... ... : ... .. . ... ... ... : ... .. . ... ... ... : ... .. . ... ... ...
ROW 08 : ... .. . ... ... ... : ... .. . ... ... ... : ... .. . ... ... ... : ... .. . ... ... ... : ... .. . ... ... ...
ROW 09 : ... .. . ... ... ... : ... .. . ... ... ... : ... .. . ... ... ... : ... .. . ... ... ... : ... .. . ... ... ...
ROW 0A : ... .. . ... ... ... : ... .. . ... ... ... : ... .. . ... ... ... : ... .. . ... ... ... : ... .. . ... ... ...
ROW 0B : ... .. . ... ... ... : ... .. . ... ... ... : ... .. . ... ... ... : ... .. . ... ... ... : ... .. . ... ... ...
ROW 0C : ... .. . ... ... ... : ... .. . ... ... ... : ... .. . ... ... ... : ... .. . ... ... ... : ... .. . ... ... ...
ROW 0D : ... .. . ... ... ... : ... .. . ... ... ... : ... .. . ... ... ... : ... .. . ... ... ... : ... .. . ... ... ...
ROW 0E : ... .. . ... ... ... : ... .. . ... ... ... : ... .. . ... ... ... : ... .. . ... ... ... : ... .. . ... ... ...
ROW 0F : ... .. . ... ... ... : ... .. . ... ... ... : ... .. . ... ... ... : ... .. . ... ... ... : ... .. . ... ... ...
ROW 10 : ... .. . ... ... ... : ... .. . ... ... ... : ... .. . ... ... ... : ... .. . ... ... ... : ... .. . ... ... ...
ROW 11 : ... .. . ... ... ... : ... .. . ... ... ... : ... .. . ... ... ... : ... .. . ... ... ... : ... .. . ... ... ...
ROW 12 : ... .. . ... ... ... : ... .. . ... ... ... : ... .. . ... ... ... : ... .. . ... ... ... : ... .. . ... ... ...
ROW 13 : ... .. . ... ... ... : ... .. . ... ... ... : ... .. . ... ... ... : ... .. . ... ... ... : ... .. . ... ... ...
ROW 14 : ... .. . ... ... ... : ... .. . ... ... ... : ... .. . ... ... ... : ... .. . ... ... ... : ... .. . ... ... ...
ROW 15 : ... .. . ... ... ... : ... .. . ... ... ... : ... .. . ... ... ... : ... .. . ... ... ... : ... .. . ... ... ...
ROW 16 : ... .. . ... ... ... : ... .. . ... ... ... : ... .. . ... ... ... : ... .. . ... ... ... : ... .. . ... ... ...
ROW 17 : ... .. . ... ... ... : ... .. . ... ... ... : ... .. . ... ... ... : ... .. . ... ... ... : ... .. . ... ... ...
ROW 18 : ... .. . ... ... ... : ... .. . ... ... ... : ... .. . ... ... ... : ... .. . ... ... ... : ... .. . ... ... ...
ROW 19 : ... .. . ... ... ... : ... .. . ... ... ... : ... .. . ... ... ... : ... .. . ... ... ... : ... .. . ... ... ...
ROW 1A : ... .. . ... ... ... : ... .. . ... ... ... : ... .. . ... ... ... : ... .. . ... ... ... : ... .. . ... ... ...
ROW 1B : ... .. . ... ... ... : ... .. . ... ... ... : ... .. . ... ... ... : ... .. . ... ... ... : ... .. . ... ... ...
ROW 1C : ... .. . ... ... ... : ... .. . ... ... ... : ... .. . ... ... ... : ... .. . ... ... ... : ... .. . ... ... ...
ROW 1D : ... .. . ... ... ... : ... .. . ... ... ... : ... .. . ... ... ... : ... .. . ... ... ... : ... .. . ... ... ...
ROW 1E : D#3 06 . ... ... ... : ... .. . ... ... ... : ... .. . ... ... ... : ... .. . ... ... ... : ... .. . ... ... ...
ROW 1F : ... .. . ... ... ... : ... .. . ... ... ... : ... .. . ... ... ... : ... .. . ... ... ... : ... .. . ... ... ...
ROW 20 : ... .. . ... ... ... : ... .. . ... ... ... : ... .. . ... ... ... : ... .. . ... ... ... : ... .. . ... ... ...
ROW 21 : ... .. . ... ... ... : ... .. . ... ... ... : ... .. . ... ... ... : ... .. . ... ... ... : ... .. . ... ... ...
ROW 22 : ... .. . ... ... ... : ... .. . ... ... ... : ... .. . ... ... ... : ... .. . ... ... ... : ... .. . ... ... ...
ROW 23 : ... .. . ... ... ... : ... .. . ... ... ... : ... .. . ... ... ... : ... .. . ... ... ... : ... .. . ... ... ...
ROW 24 : ... .. . ... ... ... : ... .. . ... ... ... : ... .. . ... ... ... : ... .. . ... ... ... : ... .. . ... ... ...
ROW 25 : ... .. . ... ... ... : ... .. . ... ... ... : ... .. . ... ... ... : ... .. . ... ... ... : ... .. . ... ... ...
ROW 26 : ... .. . ... ... ... : ... .. . ... ... ... : ... .. . ... ... ... : ... .. . ... ... ... : ... .. . ... ... ...
ROW 27 : ... .. . ... ... ... : ... .. . ... ... ... : ... .. . ... ... ... : ... .. . ... ... ... : ... .. . ... ... ...
ROW 28 : ... .. . ... ... ... : ... .. . ... ... ... : ... .. . ... ... ... : ... .. . ... ... ... : ... .. . ... ... ...
ROW 29 : ... .. . ... ... ... : ... .. . ... ... ... : ... .. . ... ... ... : ... .. . ... ... ... : ... .. . ... ... ...
ROW 2A : ... .. . ... ... ... : ... .. . ... ... ... : ... .. . ... ... ... : ... .. . ... ... ... : ... .. . ... ... ...
ROW 2B : ... .. . ... ... ... : ... .. . ... ... ... : ... .. . ... ... ... : ... .. . ... ... ... : ... .. . ... ... ...
ROW 2C : ... .. . ... ... ... : ... .. . ... ... ... : ... .. . ... ... ... : ... .. . ... ... ... : ... .. . ... ... ...
ROW 2D : ... .. . ... ... ... : ... .. . ... ... ... : ... .. . ... ... ... : ... .. . ... ... ... : ... .. . ... ... ...
ROW 2E : ... .. . ... ... ... : ... .. . ... ... ... : ... .. . ... ... ... : ... .. . ... ... ... : ... .. . ... ... ...
ROW 2F : ... .. . ... ... ... : ... .. . ... ... ... : ... .. . ... ... ... : ... .. . ... ... ... : ... .. . ... ... ...
ROW 30 : ... .. . ... ... ... : ... .. . ... ... ... : ... .. . ... ... ... : ... .. . ... ... ... : ... .. . ... ... ...
ROW 31 : ... .. . ... ... ... : ... .. . ... ... ... : ... .. . ... ... ... : ... .. . ... ... ... : ... .. . ... ... ...
ROW 32 : ... .. . ... ... ... : ... .. . ... ... ... : ... .. . ... ... ... : ... .. . ... ... ... : ... .. . ... ... ...
ROW 33 : ... .. . ... ... ... : ... .. . ... ... ... : ... .. . ... ... ... : ... .. . ... ... ... : ... .. . ... ... ...
ROW 34 : ... .. . ... ... ... : ... .. . ... ... ... : ... .. . ... ... ... : ... .. . ... ... ... : ... .. . ... ... ...
ROW 35 : ... .. . ... ... ... : ... .. . ... ... ... : ... .. . ... ... ... : ... .. . ... ... ... : ... .. . ... ... ...
ROW 36 : ... .. . ... ... ... : ... .. . ... ... ... : ... .. . ... ... ... : ... .. . ... ... ... : ... .. . ... ... ...
ROW 37 : ... .. . ... ... ... : ... .. . ... ... ... : ... .. . ... ... ... : ... .. . ... ... ... : ... .. . ... ... ...
ROW 38 : ... .. . ... ... ... : ... .. . ... ... ... : ... .. . ... ... ... : ... .. . ... ... ... : ... .. . ... ... ...
ROW 39 : ... .. . ... ... ... : ... .. . ... ... ... : ... .. . ... ... ... : ... .. . ... ... ... : ... .. . ... ... ...
ROW 3A : ... .. . ... ... ... : ... .. . ... ... ... : ... .. . ... ... ... : ... .. . ... ... ... : ... .. . ... ... ...
ROW 3B : ... .. . ... ... ... : ... .. . ... ... ... : ... .. . ... ... ... : ... .. . ... ... ... : ... .. . ... ... ...
ROW 3C : C-3 06 . ... ... ... : ... .. . ... ... ... : ... .. . ... ... ... : ... .. . ... ... ... : ... .. . ... ... ...
ROW 3D : ... .. . ... ... ... : ... .. . ... ... ... : ... .. . ... ... ... : ... .. . ... ... ... : ... .. . ... ... ...
ROW 3E : ... .. . ... ... ... : ... .. . ... ... ... : ... .. . ... ... ... : ... .. . ... ... ... : ... .. . ... ... ...
ROW 3F : ... .. . ... ... ... : ... .. . ... ... ... : ... .. . ... ... ... : ... .. . ... ... ... : ... .. . ... ... ...
ROW 40 : ... .. . ... ... ... : ... .. . ... ... ... : ... .. . ... ... ... : ... .. . ... ... ... : ... .. . ... ... ...
ROW 41 : ... .. . ... ... ... : ... .. . ... ... ... : ... .. . ... ... ... : ... .. . ... ... ... : ... .. . ... ... ...
ROW 42 : ... .. . ... ... ... : ... .. . ... ... ... : ... .. . ... ... ... : ... .. . ... ... ... : ... .. . ... ... ...
ROW 43 : ... .. . ... ... ... : ... .. . ... ... ... : ... .. . ... ... ... : ... .. . ... ... ... : ... .. . ... ... ...
ROW 44 : ... .. . ... ... ... : ... .. . ... ... ... : ... .. . ... ... ... : ... .. . ... ... ... : ... .. . ... ... ...
ROW 45 : ... .. . ... ... ... : ... .. . ... ... ... : ... .. . ... ... ... : ... .. . ... ... ... : ... .. . ... ... ...
ROW 46 : ... .. . ... ... ... : A#2 09 . Q98 ... ... : ... .. . ... ... ... : ... .. . ... ... ... : ... .. . ... ... ...
ROW 47 : ... .. . ... ... ... : ... .. . ... ... ... : ... .. . ... ... ... : ... .. . ... ... ... : ... .. . ... ... ...
ROW 48 : ... .. . ... ... ... : ... .. . ... ... ... : ... .. . ... ... ... : ... .. . ... ... ... : ... .. . ... ... ...
ROW 49 : ... .. . ... ... ... : ... .. . ... ... ... : ... .. . ... ... ... : ... .. . ... ... ... : ... .. . ... ... ...
ROW 4A : ... .. . ... ... ... : ... .. . ... ... ... : ... .. . ... ... ... : ... .. . ... ... ... : ... .. . ... ... ...
ROW 4B : ... .. . ... ... ... : ... .. . ... ... ... : ... .. . ... ... ... : ... .. . ... ... ... : ... .. . ... ... ...
ROW 4C : ... .. . ... ... ... : ... .. . ... ... ... : ... .. . ... ... ... : ... .. . ... ... ... : ... .. . ... ... ...
ROW 4D : ... .. . ... ... ... : ... .. . ... ... ... : ... .. . ... ... ... : ... .. . ... ... ... : ... .. . ... ... ...
ROW 4E : ... .. . ... ... ... : ... .. . ... ... ... : ... .. . ... ... ... : ... .. . ... ... ... : ... .. . ... ... ...
ROW 4F : ... .. . ... ... ... : ... .. . ... ... ... : ... .. . ... ... ... : ... .. . ... ... ... : ... .. . ... ... ...
ROW 50 : A#2 06 . ... ... ... : F#3 03 . ... ... ... : ... .. . ... ... ... : ... .. . ... ... ... : ... .. . ... ... ...
ROW 51 : ... .. . ... ... ... : ... .. . ... ... ... : ... .. . ... ... ... : ... .. . ... ... ... : ... .. . ... ... ...
ROW 52 : ... .. . ... ... ... : ... .. . ... ... ... : ... .. . ... ... ... : ... .. . ... ... ... : ... .. . ... ... ...
ROW 53 : ... .. . ... ... ... : ... .. . ... ... ... : ... .. . ... ... ... : ... .. . ... ... ... : ... .. . ... ... ...
ROW 54 : ... .. . ... ... ... : ... .. . ... ... ... : ... .. . ... ... ... : ... .. . ... ... ... : ... .. . ... ... ...
ROW 55 : ... .. . ... ... ... : ... .. . ... ... ... : ... .. . ... ... ... : ... .. . ... ... ... : ... .. . ... ... ...
ROW 56 : ... .. . ... ... ... : ... .. . ... ... ... : ... .. . ... ... ... : ... .. . ... ... ... : ... .. . ... ... ...
ROW 57 : ... .. . ... ... ... : ... .. . ... ... ... : ... .. . ... ... ... : ... .. . ... ... ... : ... .. . ... ... ...
ROW 58 : ... .. . ... ... ... : ... .. . ... ... ... : ... .. . ... ... ... : ... .. . ... ... ... : ... .. . ... ... ...
ROW 59 : ... .. . ... ... ... : ... .. . ... ... ... : ... .. . ... ... ... : ... .. . ... ... ... : ... .. . ... ... ...
ROW 5A : ... .. . ... ... ... : ... .. . ... ... ... : ... .. . ... ... ... : ... .. . ... ... ... : ... .. . ... ... ...
ROW 5B : ... .. . ... ... ... : ... .. . ... ... ... : ... .. . ... ... ... : ... .. . ... ... ... : ... .. . ... ... ...
ROW 5C : ... .. . ... ... ... : ... .. . ... ... ... : ... .. . ... ... ... : ... .. . ... ... ... : ... .. . ... ... ...
ROW 5D : ... .. . ... ... ... : ... .. . ... ... ... : ... .. . ... ... ... : ... .. . ... ... ... : ... .. . ... ... ...
ROW 5E : ... .. . ... ... ... : ... .. . ... ... ... : ... .. . ... ... ... : ... .. . ... ... ... : ... .. . ... ... ...
ROW 5F : ... .. . ... ... ... : ... .. . ... ... ... : ... .. . ... ... ... : ... .. . ... ... ... : ... .. . ... ... ...
ROW 60 : ... .. . ... ... ... : ... .. . ... ... ... : ... .. . ... ... ... : ... .. . ... ... ... : ... .. . ... ... ...
ROW 61 : ... .. . ... ... ... : ... .. . ... ... ... : ... .. . ... ... ... : ... .. . ... ... ... : ... .. . ... ... ...
ROW 62 : ... .. . ... ... ... : ... .. . ... ... ... : ... .. . ... ... ... : ... .. . ... ... ... : ... .. . ... ... ...
ROW 63 : ... .. . ... ... ... : ... .. . ... ... ... : ... .. . ... ... ... : ... .. . ... ... ... : ... .. . ... ... ...
ROW 64 : ... .. . ... ... ... : ... .. . ... ... ... : ... .. . ... ... ... : ... .. . ... ... ... : ... .. . ... ... ...
ROW 65 : ... .. . ... ... ... : ... .. . ... ... ... : ... .. . ... ... ... : ... .. . ... ... ... : ... .. . ... ... ...
ROW 66 : ... .. . ... ... ... : ... .. . ... ... ... : ... .. . ... ... ... : ... .. . ... ... ... : ... .. . ... ... ...
ROW 67 : ... .. . ... ... ... : ... .. . ... ... ... : ... .. . ... ... ... : ... .. . ... ... ... : ... .. . ... ... ...
ROW 68 : ... .. . ... ... ... : ... .. . ... ... ... : ... .. . ... ... ... : ... .. . ... ... ... : ... .. . ... ... ...
ROW 69 : ... .. . ... ... ... : ... .. . ... ... ... : ... .. . ... ... ... : ... .. . ... ... ... : ... .. . ... ... ...
ROW 6A : ... .. . ... ... ... : ... .. . ... ... ... : ... .. . ... ... ... : ... .. . ... ... ... : ... .. . ... ... ...
ROW 6B : ... .. . ... ... ... : ... .. . ... ... ... : ... .. . ... ... ... : ... .. . ... ... ... : ... .. . ... ... ...
ROW 6C : ... .. . ... ... ... : ... .. . ... ... ... : ... .. . ... ... ... : ... .. . ... ... ... : ... .. . ... ... ...
ROW 6D : ... .. . ... ... ... : ... .. . ... ... ... : ... .. . ... ... ... : ... .. . ... ... ... : ... .. . ... ... ...
ROW 6E : ... .. . ... ... ... : ... .. . ... ... ... : ... .. . ... ... ... : ... .. . ... ... ... : ... .. . ... ... ...
ROW 6F : ... .. . ... ... ... : ... .. . ... ... ... : ... .. . ... ... ... : ... .. . ... ... ... : ... .. . ... ... ...
ROW 70 : ... .. . ... ... ... : ... .. . ... ... ... : ... .. . ... ... ... : ... .. . ... ... ... : ... .. . ... ... ...
ROW 71 : ... .. . ... ... ... : ... .. . ... ... ... : ... .. . ... ... ... : ... .. . ... ... ... : ... .. . ... ... ...
ROW 72 : ... .. . ... ... ... : ... .. . ... ... ... : ... .. . ... ... ... : ... .. . ... ... ... : ... .. . ... ... ...
ROW 73 : ... .. . ... ... ... : ... .. . ... ... ... : ... .. . ... ... ... : ... .. . ... ... ... : ... .. . ... ... ...
ROW 74 : ... .. . ... ... ... : ... .. . ... ... ... : ... .. . ... ... ... : ... .. . ... ... ... : ... .. . ... ... ...
ROW 75 : ... .. . ... ... ... : ... .. . ... ... ... : ... .. . ... ... ... : ... .. . ... ... ... : ... .. . ... ... ...
ROW 76 : ... .. . ... ... ... : ... .. . ... ... ... : ... .. . ... ... ... : ... .. . ... ... ... : ... .. . ... ... ...
ROW 77 : ... .. . ... ... ... : ... .. . ... ... ... : ... .. . ... ... ... : ... .. . ... ... ... : ... .. . ... ... ...
ROW 78 : ... .. . ... ... ... : ... .. . ... ... ... : ... .. . ... ... ... : ... .. . ... ... ... : ... .. . ... ... ...
ROW 79 : ... .. . ... ... ... : ... .. . ... ... ... : ... .. . ... ... ... : ... .. . ... ... ... : ... .. . ... ... ...
ROW 7A : ... .. . ... ... ... : ... .. . ... ... ... : ... .. . ... ... ... : ... .. . ... ... ... : ... .. . ... ... ...
ROW 7B : ... .. . ... ... ... : ... .. . ... ... ... : ... .. . ... ... ... : ... .. . ... ... ... : ... .. . ... ... ...
ROW 7C : ... .. . ... ... ... : ... .. . ... ... ... : ... .. . ... ... ... : ... .. . ... ... ... : ... .. . ... ... ...
ROW 7D : ... .. . ... ... ... : ... .. . ... ... ... : ... .. . ... ... ... : ... .. . ... ... ... : ... .. . ... ... ...
ROW 7E : ... .. . ... ... ... : ... .. . ... ... ... : ... .. . ... ... ... : ... .. . ... ... ... : ... .. . ... ... ...
ROW 7F : ... .. . ... ... ... : ... .. . ... ... ... : ... .. . ... ... ... : ... .. . ... ... ... : ... .. . ... ... ...
ROW 80 : ... .. . ... ... ... : ... .. . ... ... ... : ... .. . ... ... ... : ... .. . ... ... ... : ... .. . ... ... ...
ROW 81 : ... .. . ... ... ... : ... .. . ... ... ... : ... .. . ... ... ... : ... .. . ... ... ... : ... .. . ... ... ...
ROW 82 : ... .. . ... ... ... : ... .. . ... ... ... : ... .. . ... ... ... : ... .. . ... ... ... : ... .. . ... ... ...
ROW 83 : ... .. . ... ... ... : ... .. . ... ... ... : ... .. . ... ... ... : ... .. . ... ... ... : ... .. . ... ... ...
ROW 84 : ... .. . ... ... ... : ... .. . ... ... ... : ... .. . ... ... ... : ... .. . ... ... ... : ... .. . ... ... ...
ROW 85 : ... .. . ... ... ... : ... .. . ... ... ... : ... .. . ... ... ... : ... .. . ... ... ... : ... .. . ... ... ...
ROW 86 : ... .. . ... ... ... : ... .. . ... ... ... : ... .. . ... ... ... : ... .. . ... ... ... : ... .. . ... ... ...
ROW 87 : ... .. . ... ... ... : ... .. . ... ... ... : ... .. . ... ... ... : ... .. . ... ... ... : ... .. . ... ... ...
ROW 88 : ... .. . ... ... ... : ... .. . ... ... ... : ... .. . ... ... ... : ... .. . ... ... ... : ... .. . ... ... ...
ROW 89 : ... .. . ... ... ... : ... .. . ... ... ... : ... .. . ... ... ... : ... .. . ... ... ... : ... .. . ... ... ...
ROW 8A : ... .. . ... ... ... : ... .. . ... ... ... : ... .. . ... ... ... : ... .. . ... ... ... : ... .. . ... ... ...
ROW 8B : ... .. . ... ... ... : C#3 02 . ... ... ... : ... .. . ... ... ... : ... .. . ... ... ... : ... .. . ... ... ...
ROW 8C : ... .. . ... ... ... : ... .. . ... ... ... : ... .. . ... ... ... : ... .. . ... ... ... : ... .. . ... ... ...
ROW 8D : ... .. . ... ... ... : ... .. . ... ... ... : ... .. . ... ... ... : ... .. . ... ... ... : ... .. . ... ... ...
ROW 8E : ... .. . ... ... ... : ... .. . ... ... ... : ... .. . ... ... ... : ... .. . ... ... ... : ... .. . ... ... ...
ROW 8F : ... .. . ... ... ... : ... .. . ... ... ... : ... .. . ... ... ... : ... .. . ... ... ... : ... .. . ... ... ...
ROW 90 : ... .. . ... ... ... : ... .. . ... ... ... : ... .. . ... ... ... : ... .. . ... ... ... : ... .. . ... ... ...
ROW 91 : ... .. . ... ... ... : ... .. . ... ... ... : ... .. . ... ... ... : ... .. . ... ... ... : ... .. . ... ... ...
ROW 92 : ... .. . ... ... ... : ... .. . ... ... ... : ... .. . ... ... ... : ... .. . ... ... ... : ... .. . ... ... ...
ROW 93 : ... .. . ... ... ... : ... .. . ... ... ... : ... .. . ... ... ... : ... .. . ... ... ... : ... .. . ... ... ...
ROW 94 : ... .. . ... ... ... : ... .. . ... ... ... : ... .. . ... ... ... : ... .. . ... ... ... : ... .. . ... ... ...
ROW 95 : ... .. . ... ... ... : ... .. . ... ... ... : ... .. . ... ... ... : ... .. . ... ... ... : ... .. . ... ... ...
ROW 96 : ... .. . ... ... ... : ... .. . ... ... ... : ... .. . ... ... ... : ... .. . ... ... ... : ... .. . ... ... ...
ROW 97 : ... .. . ... ... ... : ... .. . ... ... ... : ... .. . ... ... ... : ... .. . ... ... ... : ... .. . ... ... ...
ROW 98 : ... .. . ... ... ... : ... .. . ... ... ... : ... .. . ... ... ... : ... .. . ... ... ... : ... .. . ... ... ...
ROW 99 : ... .. . ... ... ... : ... .. . ... ... ... : ... .. . ... ... ... : ... .. . ... ... ... : ... .. . ... ... ...
ROW 9A : ... .. . ... ... ... : ... .. . ... ... ... : ... .. . ... ... ... : ... .. . ... ... ... : ... .. . ... ... ...
ROW 9B : ... .. . ... ... ... : ... .. . ... ... ... : ... .. . ... ... ... : ... .. . ... ... ... : ... .. . ... ... ...
ROW 9C : ... .. . ... ... ... : ... .. . ... ... ... : ... .. . ... ... ... : ... .. . ... ... ... : ... .. . ... ... ...
ROW 9D : ... .. . ... ... ... : ... .. . ... ... ... : ... .. . ... ... ... : ... .. . ... ... ... : ... .. . ... ... ...
ROW 9E : ... .. . ... ... ... : ... .. . ... ... ... : ... .. . ... ... ... : ... .. . ... ... ... : ... .. . ... ... ...
ROW 9F : ... .. . ... ... ... : ... .. . ... ... ... : ... .. . ... ... ... : ... .. . ... ... ... : ... .. . ... ... ...

PATTERN 10
ROW 00 : F-2 01 . ... ... ... : C-3 02 . ... ... ... : ... .. . ... ... ... : ... .. . ... ... ... : ... .. . ... ... ...
ROW 01 : ... .. . ... ... ... : ... .. . ... ... ... : ... .. . ... ... ... : ... .. . ... ... ... : ... .. . ... ... ...
ROW 02 : ... .. . ... ... ... : ... .. . ... ... ... : ... .. . ... ... ... : ... .. . ... ... ... : ... .. . ... ... ...
ROW 03 : ... .. . ... ... ... : ... .. . ... ... ... : ... .. . ... ... ... : ... .. . ... ... ... : ... .. . ... ... ...
ROW 04 : ... .. . ... ... ... : ... .. . ... ... ... : ... .. . ... ... ... : ... .. . ... ... ... : ... .. . ... ... ...
ROW 05 : ... .. . ... ... ... : ... .. . ... ... ... : ... .. . ... ... ... : ... .. . ... ... ... : ... .. . ... ... ...
ROW 06 : ... .. . ... ... ... : ... .. . ... ... ... : ... .. . ... ... ... : ... .. . ... ... ... : ... .. . ... ... ...
ROW 07 : ... .. . ... ... ... : ... .. . ... ... ... : ... .. . ... ... ... : ... .. . ... ... ... : ... .. . ... ... ...
ROW 08 : ... .. . ... ... ... : ... .. . ... ... ... : ... .. . ... ... ... : ... .. . ... ... ... : ... .. . ... ... ...
ROW 09 : ... .. . ... ... ... : ... .. . ... ... ... : ... .. . ... ... ... : ... .. . ... ... ... : ... .. . ... ... ...
ROW 0A : A#2 01 . ... ... ... : ... .. . ... ... ... : ... .. . ... ... ... : ... .. . ... ... ... : ... .. . ... ... ...
ROW 0B : ... .. . ... ... ... : ... .. . ... ... ... : ... .. . ... ... ... : ... .. . ... ... ... : ... .. . ... ... ...
ROW 0C : ... .. . ... ... ... : ... .. . ... ... ... : ... .. . ... ... ... : ... .. . ... ... ... : ... .. . ... ... ...
ROW 0D : ... .. . ... ... ... : ... .. . ... ... ... : ... .. . ... ... ... : ... .. . ... ... ... : ... .. . ... ... ...
ROW 0E : ... .. . ... ... ... : ... .. . ... ... ... : ... .. . ... ... ... : ... .. . ... ... ... : ... .. . ... ... ...
ROW 0F : ... .. . ... ... ... : ... .. . ... ... ... : ... .. . ... ... ... : ... .. . ... ... ... : ... .. . ... ... ...
ROW 10 : ... .. . ... ... ... : ... .. . ... ... ... : ... .. . ... ... ... : ... .. . ... ... ... : ... .. . ... ... ...
ROW 11 : ... .. . ... ... ... : ... .. . ... ... ... : ... .. . ... ... ... : ... .. . ... ... ... : ... .. . ... ... ...
ROW 12 : ... .. . ... ... ... : ... .. . ... ... ... : ... .. . ... ... ... : ... .. . ... ... ... : ... .. . ... ... ...
ROW 13 : ... .. . ... ... ... : ... .. . ... ... ... : ... .. . ... ... ... : ... .. . ... ... ... : ... .. . ... ... ...
ROW 14 : C#3 01 . ... ... ... : ... .. . ... ... ... : ... .. . ... ... ... : ... .. . ... ... ... : ... .. . ... ... ...
ROW 15 : ... .. . ... ... ... : ... .. . ... ... ... : ... .. . ... ... ... : ... .. . ... ... ... : ... .. . ... ... ...
ROW 16 : ... .. . ... ... ... : ... .. . ... ... ... : ... .. . ... ... ... : ... .. . ... ... ... : ... .. . ... ... ...
ROW 17 : ... .. . ... ... ... : ... .. . ... ... ... : ... .. . ... ... ... : ... .. . ... ... ... : ... .. . ... ... ...
ROW 18 : ... .. . ... ... ... : ... .. . ... ... ... : ... .. . ... ... ... : ... .. . ... ... ... : ... .. . ... ... ...
ROW 19 : ... .. . ... ... ... : ... .. . ... ... ... : ... .. . ... ... ... : ... .. . ... ... ... : ... .. . ... ... ...
ROW 1A : ... .. . ... ... ... : ... .. . ... ... ... : ... .. . ... ... ... : ... .. . ... ... ... : ... .. . ... ... ...
ROW 1B : ... .. . ... ... ... : ... .. . ... ... ... : ... .. . ... ... ... : ... .. . ... ... ... : ... .. . ... ... ...
ROW 1C : ... .. . ... ... ... : ... .. . ... ... ... : ... .. . ... ... ... : ... .. . ... ... ... : ... .. . ... ... ...
ROW 1D : ... .. . ... ... ... : ... .. . ... ... ... : ... .. . ... ... ... : ... .. . ... ... ... : ... .. . ... ... ...
ROW 1E : F-2 01 . ... ... ... : A#2 02 . ... ... ... : ... .. . ... ... ... : ... .. . ... ... ... : ... .. . ... ... ...
ROW 1F : ... .. . ... ... ... : ... .. . ... ... ... : ... .. . ... ... ... : ... .. . ... ... ... : ... .. . ... ... ...
ROW 20 : ... .. . ... ... ... : ... .. . ... ... ... : ... .. . ... ... ... : ... .. . ... ... ... : ... .. . ... ... ...
ROW 21 : ... .. . ... ... ... : ... .. . ... ... ... : ... .. . ... ... ... : ... .. . ... ... ... : ... .. . ... ... ...
ROW 22 : ... .. . ... ... ... : ... .. . ... ... ... : ... .. . ... ... ... : ... .. . ... ... ... : ... .. . ... ... ...
ROW 23 : ... .. . ... ... ... : ... .. . ... ... ... : ... .. . ... ... ... : ... .. . ... ... ... : ... .. . ... ... ...
ROW 24 : ... .. . ... ... ... : ... .. . ... ... ... : ... .. . ... ... ... : ... .. . ... ... ... : ... .. . ... ... ...
ROW 25 : ... .. . ... ... ... : ... .. . ... ... ... : ... .. . ... ... ... : ... .. . ... ... ... : ... .. . ... ... ...
ROW 26 : ... .. . ... ... ... : ... .. . ... ... ... : ... .. . ... ... ... : ... .. . ... ... ... : ... .. . ... ... ...
ROW 27 : ... .. . ... ... ... : ... .. . ... ... ... : ... .. . ... ... ... : ... .. . ... ... ... : ... .. . ... ... ...
ROW 28 : A#2 01 . ... ... ... : ... .. . ... ... ... : ... .. . ... ... ... : ... .. . ... ... ... : ... .. . ... ... ...
ROW 29 : ... .. . ... ... ... : ... .. . ... ... ... : ... .. . ... ... ... : ... .. . ... ... ... : ... .. . ... ... ...
ROW 2A : ... .. . ... ... ... : ... .. . ... ... ... : ... .. . ... ... ... : ... .. . ... ... ... : ... .. . ... ... ...
ROW 2B : ... .. . ... ... ... : ... .. . ... ... ... : ... .. . ... ... ... : ... .. . ... ... ... : ... .. . ... ... ...
ROW 2C : ... .. . ... ... ... : ... .. . ... ... ... : ... .. . ... ... ... : ... .. . ... ... ... : ... .. . ... ... ...
ROW 2D : ... .. . ... ... ... : ... .. . ... ... ... : ... .. . ... ... ... : ... .. . ... ... ... : ... .. . ... ... ...
ROW 2E : ... .. . ... ... ... : ... .. . ... ... ... : ... .. . ... ... ... : ... .. . ... ... ... : ... .. . ... ... ...
ROW 2F : ... .. . ... ... ... : ... .. . ... ... ... : ... .. . ... ... ... : ... .. . ... ... ... : ... .. . ... ... ...
ROW 30 : ... .. . ... ... ... : ... .. . ... ... ... : ... .. . ... ... ... : ... .. . ... ... ... : ... .. . ... ... ...
ROW 31 : ... .. . ... ... ... : ... .. . ... ... ... : ... .. . ... ... ... : ... .. . ... ... ... : ... .. . ... ... ...
ROW 32 : C#3 01 . ... ... ... : ... .. . ... ... ... : ... .. . ... ... ... : ... .. . ... ... ... : ... .. . ... ... ...
ROW 33 : ... .. . ... ... ... : ... .. . ... ... ... : ... .. . ... ... ... : ... .. . ... ... ... : ... .. . ... ... ...
ROW 34 : ... .. . ... ... ... : ... .. . ... ... ... : ... .. . ... ... ... : ... .. . ... ... ... : ... .. . ... ... ...
ROW 35 : ... .. . ... ... ... : ... .. . ... ... ... : ... .. . ... ... ... : ... .. . ... ... ... : ... .. . ... ... ...
ROW 36 : ... .. . ... ... ... : ... .. . ... ... ... : ... .. . ... ... ... : ... .. . ... ... ... : ... .. . ... ... ...
ROW 37 : ... .. . ... ... ... : ... .. . ... ... ... : ... .. . ... ... ... : ... .. . ... ... ... : ... .. . ... ... ...
ROW 38 : ... .. . ... ... ... : ... .. . ... ... ... : ... .. . ... ... ... : ... .. . ... ... ... : ... .. . ... ... ...
ROW 39 : ... .. . ... ... ... : ... .. . ... ... ... : ... .. . ... ... ... : ... .. . ... ... ... : ... .. . ... ... ...
ROW 3A : ... .. . ... ... ... : ... .. . ... ... ... : ... .. . ... ... ... : ... .. . ... ... ... : ... .. . ... ... ...
ROW 3B : ... .. . ... ... ... : ... .. . ... ... ... : ... .. . ... ... ... : ... .. . ... ... ... : ... .. . ... ... ...
ROW 3C : F-2 01 . ... ... ... : G#2 02 . ... ... ... : ... .. . ... ... ... : ... .. . ... ... ... : ... .. . ... ... ...
ROW 3D : ... .. . ... ... ... : ... .. . ... ... ... : ... .. . ... ... ... : ... .. . ... ... ... : ... .. . ... ... ...
ROW 3E : ... .. . ... ... ... : ... .. . ... ... ... : ... .. . ... ... ... : ... .. . ... ... ... : ... .. . ... ... ...
ROW 3F : ... .. . ... ... ... : ... .. . ... ... ... : ... .. . ... ... ... : ... .. . ... ... ... : ... .. . ... ... ...
ROW 40 : ... .. . ... ... ... : ... .. . ... ... ... : ... .. . ... ... ... : ... .. . ... ... ... : ... .. . ... ... ...
ROW 41 : ... .. . ... ... ... : ... .. . ... ... ... : ... .. . ... ... ... : ... .. . ... ... ... : ... .. . ... ... ...
ROW 42 : ... .. . ... ... ... : ... .. . ... ... ... : ... .. . ... ... ... : ... .. . ... ... ... : ... .. . ... ... ...
ROW 43 : ... .. . ... ... ... : ... .. . ... ... ... : ... .. . ... ... ... : ... .. . ... ... ... : ... .. . ... ... ...
ROW 44 : ... .. . ... ... ... : ... .. . ... ... ... : ... .. . ... ... ... : ... .. . ... ... ... : ... .. . ... ... ...
ROW 45 : ... .. . ... ... ... : ... .. . ... ... ... : ... .. . ... ... ... : ... .. . ... ... ... : ... .. . ... ... ...
ROW 46 : A#2 01 . ... ... ... : ... .. . ... ... ... : ... .. . ... ... ... : ... .. . ... ... ... : ... .. . ... ... ...
ROW 47 : ... .. . ... ... ... : ... .. . ... ... ... : ... .. . ... ... ... : ... .. . ... ... ... : ... .. . ... ... ...
ROW 48 : ... .. . ... ... ... : ... .. . ... ... ... : ... .. . ... ... ... : ... .. . ... ... ... : ... .. . ... ... ...
ROW 49 : ... .. . ... ... ... : ... .. . ... ... ... : ... .. . ... ... ... : ... .. . ... ... ... : ... .. . ... ... ...
ROW 4A : ... .. . ... ... ... : ... .. . ... ... ... : ... .. . ... ... ... : ... .. . ... ... ... : ... .. . ... ... ...
ROW 4B : ... .. . ... ... ... : ... .. . ... ... ... : ... .. . ... ... ... : ... .. . ... ... ... : ... .. . ... ... ...
ROW 4C : ... .. . ... ... ... : ... .. . ... ... ... : ... .. . ... ... ... : ... .. . ... ... ... : ... .. . ... ... ...
ROW 4D : ... .. . ... ... ... : ... .. . ... ... ... : ... .. . ... ... ... : ... .. . ... ... ... : ... .. . ... ... ...
ROW 4E : ... .. . ... ... ... : ... .. . ... ... ... : ... .. . ... ... ... : ... .. . ... ... ... : ... .. . ... ... ...
ROW 4F : ... .. . ... ... ... : ... .. . ... ... ... : ... .. . ... ... ... : ... .. . ... ... ... : ... .. . ... ... ...
ROW 50 : F#2 01 . ... ... ... : F-2 02 . ... ... ... : ... .. . ... ... ... : ... .. . ... ... ... : ... .. . ... ... ...
ROW 51 : ... .. . ... ... ... : ... .. . ... ... ... : ... .. . ... ... ... : ... .. . ... ... ... : ... .. . ... ... ...
ROW 52 : ... .. . ... ... ... : ... .. . ... ... ... : ... .. . ... ... ... : ... .. . ... ... ... : ... .. . ... ... ...
ROW 53 : ... .. . ... ... ... : ... .. . ... ... ... : ... .. . ... ... ... : ... .. . ... ... ... : ... .. . ... ... ...
ROW 54 : ... .. . ... ... ... : ... .. . ... ... ... : ... .. . ... ... ... : ... .. . ... ... ... : ... .. . ... ... ...
ROW 55 : ... .. . ... ... ... : ... .. . ... ... ... : ... .. . ... ... ... : ... .. . ... ... ... : ... .. . ... ... ...
ROW 56 : ... .. . ... ... ... : ... .. . ... ... ... : ... .. . ... ... ... : ... .. . ... ... ... : ... .. . ... ... ...
ROW 57 : ... .. . ... ... ... : ... .. . ... ... ... : ... .. . ... ... ... : ... .. . ... ... ... : ... .. . ... ... ...
ROW 58 : ... .. . ... ... ... : ... .. . ... ... ... : ... .. . ... ... ... : ... .. . ... ... ... : ... .. . ... ... ...
ROW 59 : ... .. . ... ... ... : ... .. . ... ... ... : ... .. . ... ... ... : ... .. . ... ... ... : ... .. . ... ... ...
ROW 5A : A#2 01 . ... ... ... : ... .. . ... ... ... : ... .. . ... ... ... : ... .. . ... ... ... : ... .. . ... ... ...
ROW 5B : ... .. . ... ... ... : ... .. . ... ... ... : ... .. . ... ... ... : ... .. . ... ... ... : ... .. . ... ... ...
ROW 5C : ... .. . ... ... ... : ... .. . ... ... ... : ... .. . ... ... ... : ... .. . ... ... ... : ... .. . ... ... ...
ROW 5D : ... .. . ... ... ... : ... .. . ... ... ... : ... .. . ... ... ... : ... .. . ... ... ... : ... .. . ... ... ...
ROW 5E : ... .. . ... ... ... : ... .. . ... ... ... : ... .. . ... ... ... : ... .. . ... ... ... : ... .. . ... ... ...
ROW 5F : ... .. . ... ... ... : ... .. . ... ... ... : ... .. . ... ... ... : ... .. . ... ... ... : ... .. . ... ... ...
ROW 60 : ... .. . ... ... ... : ... .. . ... ... ... : ... .. . ... ... ... : ... .. . ... ... ... : ... .. . ... ... ...
ROW 61 : ... .. . ... ... ... : ... .. . ... ... ... : ... .. . ... ... ... : ... .. . ... ... ... : ... .. . ... ... ...
ROW 62 : ... .. . ... ... ... : ... .. . ... ... ... : ... .. . ... ... ... : ... .. . ... ... ... : ... .. . ... ... ...
ROW 63 : ... .. . ... ... ... : ... .. . ... ... ... : ... .. . ... ... ... : ... .. . ... ... ... : ... .. . ... ... ...
ROW 64 : C#3 01 . ... ... ... : ... .. . ... ... ... : ... .. . ... ... ... : ... .. . ... ... ... : ... .. . ... ... ...
ROW 65 : ... .. . ... ... ... : ... .. . ... ... ... : ... .. . ... ... ... : ... .. . ... ... ... : ... .. . ... ... ...
ROW 66 : ... .. . ... ... ... : ... .. . ... ... ... : ... .. . ... ... ... : ... .. . ... ... ... : ... .. . ... ... ...
ROW 67 : ... .. . ... ... ... : ... .. . ... ... ... : ... .. . ... ... ... : ... .. . ... ... ... : ... .. . ... ... ...
ROW 68 : ... .. . ... ... ... : ... .. . ... ... ... : ... .. . ... ... ... : ... .. . ... ... ... : ... .. . ... ... ...
ROW 69 : ... .. . ... ... ... : ... .. . ... ... ... : ... .. . ... ... ... : ... .. . ... ... ... : ... .. . ... ... ...
ROW 6A : ... .. . ... ... ... : ... .. . ... ... ... : ... .. . ... ... ... : ... .. . ... ... ... : ... .. . ... ... ...
ROW 6B : ... .. . ... ... ... : ... .. . ... ... ... : ... .. . ... ... ... : ... .. . ... ... ... : ... .. . ... ... ...
ROW 6C : ... .. . ... ... ... : ... .. . ... ... ... : ... .. . ... ... ... : ... .. . ... ... ... : ... .. . ... ... ...
ROW 6D : ... .. . ... ... ... : ... .. . ... ... ... : ... .. . ... ... ... : ... .. . ... ... ... : ... .. . ... ... ...
ROW 6E : F#2 01 . ... ... ... : ... .. . ... ... ... : ... .. . ... ... ... : ... .. . ... ... ... : ... .. . ... ... ...
ROW 6F : ... .. . ... ... ... : ... .. . ... ... ... : ... .. . ... ... ... : ... .. . ... ... ... : ... .. . ... ... ...
ROW 70 : ... .. . ... ... ... : ... .. . ... ... ... : ... .. . ... ... ... : ... .. . ... ... ... : ... .. . ... ... ...
ROW 71 : ... .. . ... ... ... : ... .. . ... ... ... : ... .. . ... ... ... : ... .. . ... ... ... : ... .. . ... ... ...
ROW 72 : ... .. . ... ... ... : ... .. . ... ... ... : ... .. . ... ... ... : ... .. . ... ... ... : ... .. . ... ... ...
ROW 73 : ... .. . ... ... ... : ... .. . ... ... ... : ... .. . ... ... ... : ... .. . ... ... ... : ... .. . ... ... ...
ROW 74 : ... .. . ... ... ... : ... .. . ... ... ... : ... .. . ... ... ... : ... .. . ... ... ... : ... .. . ... ... ...
ROW 75 : ... .. . ... ... ... : ... .. . ... ... ... : ... .. . ... ... ... : ... .. . ... ... ... : ... .. . ... ... ...
ROW 76 : ... .. . ... ... ... : ... .. . ... ... ... : ... .. . ... ... ... : ... .. . ... ... ... : ... .. . ... ... ...
ROW 77 : ... .. . ... ... ... : ... .. . ... ... ... : ... .. . ... ... ... : ... .. . ... ... ... : ... .. . ... ... ...
ROW 78 : A#2 01 . ... ... ... : ... .. . ... ... ... : ... .. . ... ... ... : ... .. . ... ... ... : ... .. . ... ... ...
ROW 79 : ... .. . ... ... ... : ... .. . ... ... ... : ... .. . ... ... ... : ... .. . ... ... ... : ... .. . ... ... ...
ROW 7A : ... .. . ... ... ... : ... .. . ... ... ... : ... .. . ... ... ... : ... .. . ... ... ... : ... .. . ... ... ...
ROW 7B : ... .. . ... ... ... : ... .. . ... ... ... : ... .. . ... ... ... : ... .. . ... ... ... : ... .. . ... ... ...
ROW 7C : ... .. . ... ... ... : ... .. . ... ... ... : ... .. . ... ... ... : ... .. . ... ... ... : ... .. . ... ... ...
ROW 7D : ... .. . ... ... ... : ... .. . ... ... ... : ... .. . ... ... ... : ... .. . ... ... ... : ... .. . ... ... ...
ROW 7E : ... .. . ... ... ... : ... .. . ... ... ... : ... .. . ... ... ... : ... .. . ... ... ... : ... .. . ... ... ...
ROW 7F : ... .. . ... ... ... : ... .. . ... ... ... : ... .. . ... ... ... : ... .. . ... ... ... : ... .. . ... ... ...
ROW 80 : ... .. . ... ... ... : ... .. . ... ... ... : ... .. . ... ... ... : ... .. . ... ... ... : ... .. . ... ... ...
ROW 81 : ... .. . ... ... ... : ... .. . ... ... ... : ... .. . ... ... ... : ... .. . ... ... ... : ... .. . ... ... ...
ROW 82 : C#3 01 . ... ... ... : ... .. . ... ... ... : ... .. . ... ... ... : ... .. . ... ... ... : ... .. . ... ... ...
ROW 83 : ... .. . ... ... ... : ... .. . ... ... ... : ... .. . ... ... ... : ... .. . ... ... ... : ... .. . ... ... ...
ROW 84 : ... .. . ... ... ... : ... .. . ... ... ... : ... .. . ... ... ... : ... .. . ... ... ... : ... .. . ... ... ...
ROW 85 : ... .. . ... ... ... : ... .. . ... ... ... : ... .. . ... ... ... : ... .. . ... ... ... : ... .. . ... ... ...
ROW 86 : ... .. . ... ... ... : ... .. . ... ... ... : ... .. . ... ... ... : ... .. . ... ... ... : ... .. . ... ... ...
ROW 87 : ... .. . ... ... ... : ... .. . ... ... ... : ... .. . ... ... ... : ... .. . ... ... ... : ... .. . ... ... ...
ROW 88 : ... .. . ... ... ... : ... .. . ... ... ... : ... .. . ... ... ... : ... .. . ... ... ... : ... .. . ... ... ...
ROW 89 : ... .. . ... ... ... : ... .. . ... ... ... : ... .. . ... ... ... : ... .. . ... ... ... : ... .. . ... ... ...
ROW 8A : ... .. . ... ... ... : ... .. . ... ... ... : ... .. . ... ... ... : ... .. . ... ... ... : ... .. . ... ... ...
ROW 8B : ... .. . ... ... ... : ... .. . ... ... ... : ... .. . ... ... ... : ... .. . ... ... ... : ... .. . ... ... ...
ROW 8C : F#2 01 . ... ... ... : A-2 02 . ... ... ... : ... .. . ... ... ... : ... .. . ... ... ... : ... .. . ... ... ...
ROW 8D : ... .. . ... ... ... : ... .. . ... ... ... : ... .. . ... ... ... : ... .. . ... ... ... : ... .. . ... ... ...
ROW 8E : ... .. . ... ... ... : ... .. . ... ... ... : ... .. . ... ... ... : ... .. . ... ... ... : ... .. . ... ... ...
ROW 8F : ... .. . ... ... ... : ... .. . ... ... ... : ... .. . ... ... ... : ... .. . ... ... ... : ... .. . ... ... ...
ROW 90 : ... .. . ... ... ... : ... .. . ... ... ... : ... .. . ... ... ... : ... .. . ... ... ... : ... .. . ... ... ...
ROW 91 : ... .. . ... ... ... : ... .. . ... ... ... : ... .. . ... ... ... : ... .. . ... ... ... : ... .. . ... ... ...
ROW 92 : ... .. . ... ... ... : ... .. . ... ... ... : ... .. . ... ... ... : ... .. . ... ... ... : ... .. . ... ... ...
ROW 93 : ... .. . ... ... ... : ... .. . ... ... ... : ... .. . ... ... ... : ... .. . ... ... ... : ... .. . ... ... ...
ROW 94 : ... .. . ... ... ... : ... .. . ... ... ... : ... .. . ... ... ... : ... .. . ... ... ... : ... .. . ... ... ...
ROW 95 : ... .. . ... ... ... : ... .. . ... ... ... : ... .. . ... ... ... : ... .. . ... ... ... : ... .. . ... ... ...
ROW 96 : C#3 01 . ... ... ... : ... .. . ... ... ... : ... .. . ... ... ... : ... .. . ... ... ... : ... .. . ... ... ...
ROW 97 : ... .. . ... ... ... : ... .. . ... ... ... : ... .. . ... ... ... : ... .. . ... ... ... : ... .. . ... ... ...
ROW 98 : ... .. . ... ... ... : ... .. . ... ... ... : ... .. . ... ... ... : ... .. . ... ... ... : ... .. . ... ... ...
ROW 99 : ... .. . ... ... ... : ... .. . ... ... ... : ... .. . ... ... ... : ... .. . ... ... ... : ... .. . ... ... ...
ROW 9A : ... .. . ... ... ... : ... .. . ... ... ... : ... .. . ... ... ... : ... .. . ... ... ... : ... .. . ... ... ...
ROW 9B : ... .. . ... ... ... : ... .. . ... ... ... : ... .. . ... ... ... : ... .. . ... ... ... : ... .. . ... ... ...
ROW 9C : ... .. . ... ... ... : ... .. . ... ... ... : ... .. . ... ... ... : ... .. . ... ... ... : ... .. . ... ... ...
ROW 9D : ... .. . ... ... ... : ... .. . ... ... ... : ... .. . ... ... ... : ... .. . ... ... ... : ... .. . ... ... ...
ROW 9E : ... .. . ... ... ... : ... .. . ... ... ... : ... .. . ... ... ... : ... .. . ... ... ... : ... .. . ... ... ...
ROW 9F : ... .. . ... ... ... : ... .. . ... ... ... : ... .. . ... ... ... : ... .. . ... ... ... : ... .. . ... ... ...

PATTERN 11
ROW 00 : G#2 01 . ... ... ... : A#2 02 . ... ... ... : ... .. . ... ... ... : ... .. . ... ... ... : ... .. . ... ... ...
ROW 01 : ... .. . ... ... ... : ... .. . ... ... ... : ... .. . ... ... ... : ... .. . ... ... ... : ... .. . ... ... ...
ROW 02 : ... .. . ... ... ... : ... .. . ... ... ... : ... .. . ... ... ... : ... .. . ... ... ... : ... .. . ... ... ...
ROW 03 : ... .. . ... ... ... : ... .. . ... ... ... : ... .. . ... ... ... : ... .. . ... ... ... : ... .. . ... ... ...
ROW 04 : ... .. . ... ... ... : ... .. . ... ... ... : ... .. . ... ... ... : ... .. . ... ... ... : ... .. . ... ... ...
ROW 05 : ... .. . ... ... ... : ... .. . ... ... ... : ... .. . ... ... ... : ... .. . ... ... ... : ... .. . ... ... ...
ROW 06 : ... .. . ... ... ... : ... .. . ... ... ... : ... .. . ... ... ... : ... .. . ... ... ... : ... .. . ... ... ...
ROW 07 : ... .. . ... ... ... : ... .. . ... ... ... : ... .. . ... ... ... : ... .. . ... ... ... : ... .. . ... ... ...
ROW 08 : ... .. . ... ... ... : ... .. . ... ... ... : ... .. . ... ... ... : ... .. . ... ... ... : ... .. . ... ... ...
ROW 09 : ... .. . ... ... ... : ... .. . ... ... ... : ... .. . ... ... ... : ... .. . ... ... ... : ... .. . ... ... ...
ROW 0A : C-3 01 . ... ... ... : ... .. . ... ... ... : ... .. . ... ... ... : ... .. . ... ... ... : ... .. . ... ... ...
ROW 0B : ... .. . ... ... ... : ... .. . ... ... ... : ... .. . ... ... ... : ... .. . ... ... ... : ... .. . ... ... ...
ROW 0C : ... .. . ... ... ... : ... .. . ... ... ... : ... .. . ... ... ... : ... .. . ... ... ... : ... .. . ... ... ...
ROW 0D : ... .. . ... ... ... : ... .. . ... ... ... : ... .. . ... ... ... : ... .. . ... ... ... : ... .. . ... ... ...
ROW 0E : ... .. . ... ... ... : ... .. . ... ... ... : ... .. . ... ... ... : ... .. . ... ... ... : ... .. . ... ... ...
ROW 0F : ... .. . ... ... ... : ... .. . ... ... ... : ... .. . ... ... ... : ... .. . ... ... ... : ... .. . ... ... ...
ROW 10 : ... .. . ... ... ... : ... .. . ... ... ... : ... .. . ... ... ... : ... .. . ... ... ... : ... .. . ... ... ...
ROW 11 : ... .. . ... ... ... : ... .. . ... ... ... : ... .. . ... ... ... : ... .. . ... ... ... : ... .. . ... ... ...
ROW 12 : ... .. . ... ... ... : ... .. . ... ... ... : ... .. . ... ... ... : ... .. . ... ... ... : ... .. . ... ... ...
ROW 13 : ... .. . ... ... ... : ... .. . ... ... ... : ... .. . ... ... ... : ... .. . ... ... ... : ... .. . ... ... ...
ROW 14 : D#3 01 . ... ... ... : ... .. . ... ... ... : ... .. . ... ... ... : ... .. . ... ... ... : ... .. . ... ... ...
ROW 15 : ... .. . ... ... ... : ... .. . ... ... ... : ... .. . ... ... ... : ... .. . ... ... ... : ... .. . ... ... ...
ROW 16 : ... .. . ... ... ... : ... .. . ... ... ... : ... .. . ... ... ... : ... .. . ... ... ... : ... .. . ... ... ...
ROW 17 : ... .. . ... ... ... : ... .. . ... ... ... : ... .. . ... ... ... : ... .. . ... ... ... : ... .. . ... ... ...
ROW 18 : ... .. . ... ... ... : ... .. . ... ... ... : ... .. . ... ... ... : ... .. . ... ... ... : ... .. . ... ... ...
ROW 19 : ... .. . ... ... ... : ... .. . ... ... ... : ... .. . ... ... ... : ... .. . ... ... ... : ... .. . ... ... ...
ROW 1A : ... .. . ... ... ... : ... .. . ... ... ... : ... .. . ... ... ... : ... .. . ... ... ... : ... .. . ... ... ...
ROW 1B : ... .. . ... ... ... : ... .. . ... ... ... : ... .. . ... ... ... : ... .. . ... ... ... : ... .. . ... ... ...
ROW 1C : ... .. . ... ... ... : ... .. . ... ... ... : ... .. . ... ... ... : ... .. . ... ... ... : ... .. . ... ... ...
ROW 1D : ... .. . ... ... ... : ... .. . ... ... ... : ... .. . ... ... ... : ... .. . ... ... ... : ... .. . ... ... ...
ROW 1E : G#2 01 . ... ... ... : ... .. . ... ... ... : ... .. . ... ... ... : ... .. . ... ... ... : ... .. . ... ... ...
ROW 1F : ... .. . ... ... ... : ... .. . ... ... ... : ... .. . ... ... ... : ... .. . ... ... ... : ... .. . ... ... ...
ROW 20 : ... .. . ... ... ... : ... .. . ... ... ... : ... .. . ... ... ... : ... .. . ... ... ... : ... .. . ... ... ...
ROW 21 : ... .. . ... ... ... : ... .. . ... ... ... : ... .. . ... ... ... : ... .. . ... ... ... : ... .. . ... ... ...
ROW 22 : ... .. . ... ... ... : ... .. . ... ... ... : ... .. . ... ... ... : ... .. . ... ... ... : ... .. . ... ... ...
ROW 23 : ... .. . ... ... ... : ... .. . ... ... ... : ... .. . ... ... ... : ... .. . ... ... ... : ... .. . ... ... ...
ROW 24 : ... .. . ... ... ... : ... .. . ... ... ... : ... .. . ... ... ... : ... .. . ... ... ... : ... .. . ... ... ...
ROW 25 : ... .. . ... ... ... : ... .. . ... ... ... : ... .. . ... ... ... : ... .. . ... ... ... : ... .. . ... ... ...
ROW 26 : ... .. . ... ... ... : ... .. . ... ... ... : ... .. . ... ... ... : ... .. . ... ... ... : ... .. . ... ... ...
ROW 27 : ... .. . ... ... ... : ... .. . ... ... ... : ... .. . ... ... ... : ... .. . ... ... ... : ... .. . ... ... ...
ROW 28 : C-3 01 . ... ... ... : ... .. . ... ... ... : ... .. . ... ... ... : ... .. . ... ... ... : ... .. . ... ... ...
ROW 29 : ... .. . ... ... ... : ... .. . ... ... ... : ... .. . ... ... ... : ... .. . ... ... ... : ... .. . ... ... ...
ROW 2A : ... .. . ... ... ... : ... .. . ... ... ... : ... .. . ... ... ... : ... .. . ... ... ... : ... .. . ... ... ...
ROW 2B : ... .. . ... ... ... : ... .. . ... ... ... : ... .. . ... ... ... : ... .. . ... ... ... : ... .. . ... ... ...
ROW 2C : ... .. . ... ... ... : ... .. . ... ... ... : ... .. . ... ... ... : ... .. . ... ... ... : ... .. . ... ... ...
ROW 2D : ... .. . ... ... ... : ... .. . ... ... ... : ... .. . ... ... ... : ... .. . ... ... ... : ... .. . ... ... ...
ROW 2E : ... .. . ... ... ... : ... .. . ... ... ... : ... .. . ... ... ... : ... .. . ... ... ... : ... .. . ... ... ...
ROW 2F : ... .. . ... ... ... : ... .. . ... ... ... : ... .. . ... ... ... : ... .. . ... ... ... : ... .. . ... ... ...
ROW 30 : ... .. . ... ... ... : ... .. . ... ... ... : ... .. . ... ... ... : ... .. . ... ... ... : ... .. . ... ... ...
ROW 31 : ... .. . ... ... ... : ... .. . ... ... ... : ... .. . ... ... ... : ... .. . ... ... ... : ... .. . ... ... ...
ROW 32 : D#3 01 . ... ... ... : ... .. . ... ... ... : ... .. . ... ... ... : ... .. . ... ... ... : ... .. . ... ... ...
ROW 33 : ... .. . ... ... ... : ... .. . ... ... ... : ... .. . ... ... ... : ... .. . ... ... ... : ... .. . ... ... ...
ROW 34 : ... .. . ... ... ... : ... .. . ... ... ... : ... .. . ... ... ... : ... .. . ... ... ... : ... .. . ... ... ...
ROW 35 : ... .. . ... ... ... : ... .. . ... ... ... : ... .. . ... ... ... : ... .. . ... ... ... : ... .. . ... ... ...
ROW 36 : ... .. . ... ... ... : ... .. . ... ... ... : ... .. . ... ... ... : ... .. . ... ... ... : ... .. . ... ... ...
ROW 37 : ... .. . ... ... ... : ... .. . ... ... ... : ... .. . ... ... ... : ... .. . ... ... ... : ... .. . ... ... ...
ROW 38 : ... .. . ... ... ... : ... .. . ... ... ... : ... .. . ... ... ... : ... .. . ... ... ... : ... .. . ... ... ...
ROW 39 : ... .. . ... ... ... : ... .. . ... ... ... : ... .. . ... ... ... : ... .. . ... ... ... : ... .. . ... ... ...
ROW 3A : ... .. . ... ... ... : ... .. . ... ... ... : ... .. . ... ... ... : ... .. . ... ... ... : ... .. . ... ... ...
ROW 3B : ... .. . ... ... ... : ... .. . ... ... ... : ... .. . ... ... ... : ... .. . ... ... ... : ... .. . ... ... ...
ROW 3C : G#2 01 . ... ... ... : ... .. . ... ... ... : ... .. . ... ... ... : ... .. . ... ... ... : ... .. . ... ... ...
ROW 3D : ... .. . ... ... ... : ... .. . ... ... ... : ... .. . ... ... ... : ... .. . ... ... ... : ... .. . ... ... ...
ROW 3E : ... .. . ... ... ... : ... .. . ... ... ... : ... .. . ... ... ... : ... .. . ... ... ... : ... .. . ... ... ...
ROW 3F : ... .. . ... ... ... : ... .. . ... ... ... : ... .. . ... ... ... : ... .. . ... ... ... : ... .. . ... ... ...
ROW 40 : ... .. . ... ... ... : ... .. . ... ... ... : ... .. . ... ... ... : ... .. . ... ... ... : ... .. . ... ... ...
ROW 41 : ... .. . ... ... ... : ... .. . ... ... ... : ... .. . ... ... ... : ... .. . ... ... ... : ... .. . ... ... ...
ROW 42 : ... .. . ... ... ... : ... .. . ... ... ... : ... .. . ... ... ... : ... .. . ... ... ... : ... .. . ... ... ...
ROW 43 : ... .. . ... ... ... : ... .. . ... ... ... : ... .. . ... ... ... : ... .. . ... ... ... : ... .. . ... ... ...
ROW 44 : ... .. . ... ... ... : ... .. . ... ... ... : ... .. . ... ... ... : ... .. . ... ... ... : ... .. . ... ... ...
ROW 45 : ... .. . ... ... ... : ... .. . ... ... ... : ... .. . ... ... ... : ... .. . ... ... ... : ... .. . ... ... ...
ROW 46 : C-3 01 . ... ... ... : A#2 09 . Q98 ... ... : ... .. . ... ... ... : ... .. . ... ... ... : ... .. . ... ... ...
ROW 47 : ... .. . ... ... ... : ... .. . ... ... ... : ... .. . ... ... ... : ... .. . ... ... ... : ... .. . ... ... ...
ROW 48 : ... .. . ... ... ... : ... .. . ... ... ... : ... .. . ... ... ... : ... .. . ... ... ... : ... .. . ... ... ...
ROW 49 : ... .. . ... ... ... : ... .. . ... ... ... : ... .. . ... ... ... : ... .. . ... ... ... : ... .. . ... ... ...
ROW 4A : ... .. . ... ... ... : ... .. . ... ... ... : ... .. . ... ... ... : ... .. . ... ... ... : ... .. . ... ... ...
ROW 4B : ... .. . ... ... ... : ... .. . ... ... ... : ... .. . ... ... ... : ... .. . ... ... ... : ... .. . ... ... ...
ROW 4C : ... .. . ... ... ... : ... .. . ... ... ... : ... .. . ... ... ... : ... .. . ... ... ... : ... .. . ... ... ...
ROW 4D : ... .. . ... ... ... : ... .. . ... ... ... : ... .. . ... ... ... : ... .. . ... ... ... : ... .. . ... ... ...
ROW 4E : ... .. . ... ... ... : ... .. . ... ... ... : ... .. . ... ... ... : ... .. . ... ... ... : ... .. . ... ... ...
ROW 4F : ... .. . ... ... ... : ... .. . ... ... ... : ... .. . ... ... ... : ... .. . ... ... ... : ... .. . ... ... ...
ROW 50 : A-2 01 . ... ... ... : F#3 03 . ... ... ... : ... .. . ... ... ... : ... .. . ... ... ... : ... .. . ... ... ...
ROW 51 : ... .. . ... ... ... : ... .. . ... ... ... : ... .. . ... ... ... : ... .. . ... ... ... : ... .. . ... ... ...
ROW 52 : ... .. . ... ... ... : ... .. . ... ... ... : ... .. . ... ... ... : ... .. . ... ... ... : ... .. . ... ... ...
ROW 53 : ... .. . ... ... ... : ... .. . ... ... ... : ... .. . ... ... ... : ... .. . ... ... ... : ... .. . ... ... ...
ROW 54 : ... .. . ... ... ... : ... .. . ... ... ... : ... .. . ... ... ... : ... .. . ... ... ... : ... .. . ... ... ...
ROW 55 : ... .. . ... ... ... : ... .. . ... ... ... : ... .. . ... ... ... : ... .. . ... ... ... : ... .. . ... ... ...
ROW 56 : ... .. . ... ... ... : ... .. . ... ... ... : ... .. . ... ... ... : ... .. . ... ... ... : ... .. . ... ... ...
ROW 57 : ... .. . ... ... ... : ... .. . ... ... ... : ... .. . ... ... ... : ... .. . ... ... ... : ... .. . ... ... ...
ROW 58 : ... .. . ... ... ... : ... .. . ... ... ... : ... .. . ... ... ... : ... .. . ... ... ... : ... .. . ... ... ...
ROW 59 : ... .. . ... ... ... : ... .. . ... ... ... : ... .. . ... ... ... : ... .. . ... ... ... : ... .. . ... ... ...
ROW 5A : C-3 01 . ... ... ... : ... .. . ... ... ... : ... .. . ... ... ... : ... .. . ... ... ... : ... .. . ... ... ...
ROW 5B : ... .. . ... ... ... : ... .. . ... ... ... : ... .. . ... ... ... : ... .. . ... ... ... : ... .. . ... ... ...
ROW 5C : ... .. . ... ... ... : ... .. . ... ... ... : ... .. . ... ... ... : ... .. . ... ... ... : ... .. . ... ... ...
ROW 5D : ... .. . ... ... ... : ... .. . ... ... ... : ... .. . ... ... ... : ... .. . ... ... ... : ... .. . ... ... ...
ROW 5E : ... .. . ... ... ... : ... .. . ... ... ... : ... .. . ... ... ... : ... .. . ... ... ... : ... .. . ... ... ...
ROW 5F : ... .. . ... ... ... : ... .. . ... ... ... : ... .. . ... ... ... : ... .. . ... ... ... : ... .. . ... ... ...
ROW 60 : ... .. . ... ... ... : ... .. . ... ... ... : ... .. . ... ... ... : ... .. . ... ... ... : ... .. . ... ... ...
ROW 61 : ... .. . ... ... ... : ... .. . ... ... ... : ... .. . ... ... ... : ... .. . ... ... ... : ... .. . ... ... ...
ROW 62 : ... .. . ... ... ... : ... .. . ... ... ... : ... .. . ... ... ... : ... .. . ... ... ... : ... .. . ... ... ...
ROW 63 : ... .. . ... ... ... : ... .. . ... ... ... : ... .. . ... ... ... : ... .. . ... ... ... : ... .. . ... ... ...
ROW 64 : D#3 01 . ... ... ... : ... .. . ... ... ... : ... .. . ... ... ... : ... .. . ... ... ... : ... .. . ... ... ...
ROW 65 : ... .. . ... ... ... : ... .. . ... ... ... : ... .. . ... ... ... : ... .. . ... ... ... : ... .. . ... ... ...
ROW 66 : ... .. . ... ... ... : ... .. . ... ... ... : ... .. . ... ... ... : ... .. . ... ... ... : ... .. . ... ... ...
ROW 67 : ... .. . ... ... ... : ... .. . ... ... ... : ... .. . ... ... ... : ... .. . ... ... ... : ... .. . ... ... ...
ROW 68 : ... .. . ... ... ... : ... .. . ... ... ... : ... .. . ... ... ... : ... .. . ... ... ... : ... .. . ... ... ...
ROW 69 : ... .. . ... ... ... : ... .. . ... ... ... : ... .. . ... ... ... : ... .. . ... ... ... : ... .. . ... ... ...
ROW 6A : ... .. . ... ... ... : ... .. . ... ... ... : ... .. . ... ... ... : ... .. . ... ... ... : ... .. . ... ... ...
ROW 6B : ... .. . ... ... ... : ... .. . ... ... ... : ... .. . ... ... ... : ... .. . ... ... ... : ... .. . ... ... ...
ROW 6C : ... .. . ... ... ... : ... .. . ... ... ... : ... .. . ... ... ... : ... .. . ... ... ... : ... .. . ... ... ...
ROW 6D : ... .. . ... ... ... : ... .. . ... ... ... : ... .. . ... ... ... : ... .. . ... ... ... : ... .. . ... ... ...
ROW 6E : A-2 01 . ... ... ... : ... .. . ... ... ... : ... .. . ... ... ... : ... .. . ... ... ... : ... .. . ... ... ...
ROW 6F : ... .. . ... ... ... : ... .. . ... ... ... : ... .. . ... ... ... : ... .. . ... ... ... : ... .. . ... ... ...
ROW 70 : ... .. . ... ... ... : ... .. . ... ... ... : ... .. . ... ... ... : ... .. . ... ... ... : ... .. . ... ... ...
ROW 71 : ... .. . ... ... ... : ... .. . ... ... ... : ... .. . ... ... ... : ... .. . ... ... ... : ... .. . ... ... ...
ROW 72 : ... .. . ... ... ... : ... .. . ... ... ... : ... .. . ... ... ... : ... .. . ... ... ... : ... .. . ... ... ...
ROW 73 : ... .. . ... ... ... : ... .. . ... ... ... : ... .. . ... ... ... : ... .. . ... ... ... : ... .. . ... ... ...
ROW 74 : ... .. . ... ... ... : ... .. . ... ... ... : ... .. . ... ... ... : ... .. . ... ... ... : ... .. . ... ... ...
ROW 75 : ... .. . ... ... ... : ... .. . ... ... ... : ... .. . ... ... ... : ... .. . ... ... ... : ... .. . ... ... ...
ROW 76 : ... .. . ... ... ... : ... .. . ... ... ... : ... .. . ... ... ... : ... .. . ... ... ... : ... .. . ... ... ...
ROW 77 : C-3 01 . ... ... ... : ... .. . ... ... ... : ... .. . ... ... ... : ... .. . ... ... ... : ... .. . ... ... ...
ROW 78 : ... .. . ... ... ... : ... .. . ... ... ... : ... .. . ... ... ... : ... .. . ... ... ... : ... .. . ... ... ...
ROW 79 : ... .. . ... ... ... : ... .. . ... ... ... : ... .. . ... ... ... : ... .. . ... ... ... : ... .. . ... ... ...
ROW 7A : ... .. . ... ... ... : ... .. . ... ... ... : ... .. . ... ... ... : ... .. . ... ... ... : ... .. . ... ... ...
ROW 7B : ... .. . ... ... ... : ... .. . ... ... ... : ... .. . ... ... ... : ... .. . ... ... ... : ... .. . ... ... ...
ROW 7C : ... .. . ... ... ... : ... .. . ... ... ... : ... .. . ... ... ... : ... .. . ... ... ... : ... .. . ... ... ...
ROW 7D : ... .. . ... ... ... : ... .. . ... ... ... : ... .. . ... ... ... : ... .. . ... ... ... : ... .. . ... ... ...
ROW 7E : ... .. . ... ... ... : ... .. . ... ... ... : ... .. . ... ... ... : ... .. . ... ... ... : ... .. . ... ... ...
ROW 7F : ... .. . ... ... ... : ... .. . ... ... ... : ... .. . ... ... ... : ... .. . ... ... ... : ... .. . ... ... ...
ROW 80 : ... .. . ... ... ... : ... .. . ... ... ... : ... .. . ... ... ... : ... .. . ... ... ... : ... .. . ... ... ...
ROW 81 : ... .. . ... ... ... : ... .. . ... ... ... : ... .. . ... ... ... : ... .. . ... ... ... : ... .. . ... ... ...
ROW 82 : D#3 01 . ... ... ... : ... .. . ... ... ... : ... .. . ... ... ... : ... .. . ... ... ... : ... .. . ... ... ...
ROW 83 : ... .. . ... ... ... : ... .. . ... ... ... : ... .. . ... ... ... : ... .. . ... ... ... : ... .. . ... ... ...
ROW 84 : ... .. . ... ... ... : ... .. . ... ... ... : ... .. . ... ... ... : ... .. . ... ... ... : ... .. . ... ... ...
ROW 85 : ... .. . ... ... ... : ... .. . ... ... ... : ... .. . ... ... ... : ... .. . ... ... ... : ... .. . ... ... ...
ROW 86 : ... .. . ... ... ... : ... .. . ... ... ... : ... .. . ... ... ... : ... .. . ... ... ... : ... .. . ... ... ...
ROW 87 : ... .. . ... ... ... : ... .. . ... ... ... : ... .. . ... ... ... : ... .. . ... ... ... : ... .. . ... ... ...
ROW 88 : ... .. . ... ... ... : ... .. . ... ... ... : ... .. . ... ... ... : ... .. . ... ... ... : ... .. . ... ... ...
ROW 89 : ... .. . ... ... ... : ... .. . ... ... ... : ... .. . ... ... ... : ... .. . ... ... ... : ... .. . ... ... ...
ROW 8A : ... .. . ... ... ... : ... .. . ... ... ... : ... .. . ... ... ... : ... .. . ... ... ... : ... .. . ... ... ...
ROW 8B : ... .. . ... ... ... : ... .. . ... ... ... : ... .. . ... ... ... : ... .. . ... ... ... : ... .. . ... ... ...
ROW 8C : A-2 01 . ... ... ... : D#3 02 . ... ... ... : ... .. . ... ... ... : ... .. . ... ... ... : ... .. . ... ... ...
ROW 8D : ... .. . ... ... ... : ... .. . ... ... ... : ... .. . ... ... ... : ... .. . ... ... ... : ... .. . ... ... ...
ROW 8E : ... .. . ... ... ... : ... .. . ... ... ... : ... .. . ... ... ... : ... .. . ... ... ... : ... .. . ... ... ...
ROW 8F : ... .. . ... ... ... : ... .. . ... ... ... : ... .. . ... ... ... : ... .. . ... ... ... : ... .. . ... ... ...
ROW 90 : ... .. . ... ... ... : ... .. . ... ... ... : ... .. . ... ... ... : ... .. . ... ... ... : ... .. . ... ... ...
ROW 91 : ... .. . ... ... ... : ... .. . ... ... ... : ... .. . ... ... ... : ... .. . ... ... ... : ... .. . ... ... ...
ROW 92 : ... .. . ... ... ... : ... .. . ... ... ... : ... .. . ... ... ... : ... .. . ... ... ... : ... .. . ... ... ...
ROW 93 : ... .. . ... ... ... : ... .. . ... ... ... : ... .. . ... ... ... : ... .. . ... ... ... : ... .. . ... ... ...
ROW 94 : ... .. . ... ... ... : ... .. . ... ... ... : ... .. . ... ... ... : ... .. . ... ... ... : ... .. . ... ... ...
ROW 95 : ... .. . ... ... ... : ... .. . ... ... ... : ... .. . ... ... ... : ... .. . ... ... ... : ... .. . ... ... ...
ROW 96 : C-3 01 . ... ... ... : ... .. . ... ... ... : ... .. . ... ... ... : ... .. . ... ... ... : ... .. . ... ... ...
ROW 97 : ... .. . ... ... ... : ... .. . ... ... ... : ... .. . ... ... ... : ... .. . ... ... ... : ... .. . ... ... ...
ROW 98 : ... .. . ... ... ... : ... .. . ... ... ... : ... .. . ... ... ... : ... .. . ... ... ... : ... .. . ... ... ...
ROW 99 : ... .. . ... ... ... : ... .. . ... ... ... : ... .. . ... ... ... : ... .. . ... ... ... : ... .. . ... ... ...
ROW 9A : ... .. . ... ... ... : ... .. . ... ... ... : ... .. . ... ... ... : ... .. . ... ... ... : ... .. . ... ... ...
ROW 9B : ... .. . ... ... ... : ... .. . ... ... ... : ... .. . ... ... ... : ... .. . ... ... ... : ... .. . ... ... ...
ROW 9C : ... .. . ... ... ... : ... .. . ... ... ... : ... .. . ... ... ... : ... .. . ... ... ... : ... .. . ... ... ...
ROW 9D : ... .. . ... ... ... : ... .. . ... ... ... : ... .. . ... ... ... : ... .. . ... ... ... : ... .. . ... ... ...
ROW 9E : ... .. . ... ... ... : ... .. . ... ... ... : ... .. . ... ... ... : ... .. . ... ... ... : ... .. . ... ... ...
ROW 9F : ... .. . ... ... ... : ... .. . ... ... ... : ... .. . ... ... ... : ... .. . ... ... ... : ... .. . ... ... ...

PATTERN 12
ROW 00 : G#2 01 . ... ... ... : G#3 02 . ... ... ... : ... .. . ... ... ... : ... .. . ... ... ... : ... .. . ... ... ...
ROW 01 : ... .. . ... ... ... : ... .. . ... ... ... : ... .. . ... ... ... : ... .. . ... ... ... : ... .. . ... ... ...
ROW 02 : ... .. . ... ... ... : ... .. . ... ... ... : ... .. . ... ... ... : ... .. . ... ... ... : ... .. . ... ... ...
ROW 03 : ... .. . ... ... ... : ... .. . ... ... ... : ... .. . ... ... ... : ... .. . ... ... ... : ... .. . ... ... ...
ROW 04 : ... .. . ... ... ... : ... .. . ... ... ... : ... .. . ... ... ... : ... .. . ... ... ... : ... .. . ... ... ...
ROW 05 : ... .. . ... ... ... : ... .. . ... ... ... : ... .. . ... ... ... : ... .. . ... ... ... : ... .. . ... ... ...
ROW 06 : ... .. . ... ... ... : ... .. . ... ... ... : ... .. . ... ... ... : ... .. . ... ... ... : ... .. . ... ... ...
ROW 07 : ... .. . ... ... ... : ... .. . ... ... ... : ... .. . ... ... ... : ... .. . ... ... ... : ... .. . ... ... ...
ROW 08 : ... .. . ... ... ... : ... .. . ... ... ... : ... .. . ... ... ... : ... .. . ... ... ... : ... .. . ... ... ...
ROW 09 : ... .. . ... ... ... : ... .. . ... ... ... : ... .. . ... ... ... : ... .. . ... ... ... : ... .. . ... ... ...
ROW 0A : C-3 01 . ... ... ... : ... .. . ... ... ... : ... .. . ... ... ... : ... .. . ... ... ... : ... .. . ... ... ...
ROW 0B : ... .. . ... ... ... : ... .. . ... ... ... : ... .. . ... ... ... : ... .. . ... ... ... : ... .. . ... ... ...
ROW 0C : ... .. . ... ... ... : ... .. . ... ... ... : ... .. . ... ... ... : ... .. . ... ... ... : ... .. . ... ... ...
ROW 0D : ... .. . ... ... ... : ... .. . ... ... ... : ... .. . ... ... ... : ... .. . ... ... ... : ... .. . ... ... ...
ROW 0E : ... .. . ... ... ... : ... .. . ... ... ... : ... .. . ... ... ... : ... .. . ... ... ... : ... .. . ... ... ...
ROW 0F : ... .. . ... ... ... : ... .. . ... ... ... : ... .. . ... ... ... : ... .. . ... ... ... : ... .. . ... ... ...
ROW 10 : ... .. . ... ... ... : ... .. . ... ... ... : ... .. . ... ... ... : ... .. . ... ... ... : ... .. . ... ... ...
ROW 11 : ... .. . ... ... ... : ... .. . ... ... ... : ... .. . ... ... ... : ... .. . ... ... ... : ... .. . ... ... ...
ROW 12 : ... .. . ... ... ... : ... .. . ... ... ... : ... .. . ... ... ... : ... .. . ... ... ... : ... .. . ... ... ...
ROW 13 : ... .. . ... ... ... : ... .. . ... ... ... : ... .. . ... ... ... : ... .. . ... ... ... : ... .. . ... ... ...
ROW 14 : D#3 01 . ... ... ... : ... .. . ... ... ... : ... .. . ... ... ... : ... .. . ... ... ... : ... .. . ... ... ...
ROW 15 : ... .. . ... ... ... : ... .. . ... ... ... : ... .. . ... ... ... : ... .. . ... ... ... : ... .. . ... ... ...
ROW 16 : ... .. . ... ... ... : ... .. . ... ... ... : ... .. . ... ... ... : ... .. . ... ... ... : ... .. . ... ... ...
ROW 17 : ... .. . ... ... ... : ... .. . ... ... ... : ... .. . ... ... ... : ... .. . ... ... ... : ... .. . ... ... ...
ROW 18 : ... .. . ... ... ... : ... .. . ... ... ... : ... .. . ... ... ... : ... .. . ... ... ... : ... .. . ... ... ...
ROW 19 : ... .. . ... ... ... : ... .. . ... ... ... : ... .. . ... ... ... : ... .. . ... ... ... : ... .. . ... ... ...
ROW 1A : ... .. . ... ... ... : ... .. . ... ... ... : ... .. . ... ... ... : ... .. . ... ... ... : ... .. . ... ... ...
ROW 1B : ... .. . ... ... ... : ... .. . ... ... ... : ... .. . ... ... ... : ... .. . ... ... ... : ... .. . ... ... ...
ROW 1C : ... .. . ... ... ... : ... .. . ... ... ... : ... .. . ... ... ... : ... .. . ... ... ... : ... .. . ... ... ...
ROW 1D : ... .. . ... ... ... : ... .. . ... ... ... : ... .. . ... ... ... : ... .. . ... ... ... : ... .. . ... ... ...
ROW 1E : G#2 01 . ... ... ... : F-3 02 . ... ... ... : ... .. . ... ... ... : ... .. . ... ... ... : ... .. . ... ... ...
ROW 1F : ... .. . ... ... ... : ... .. . ... ... ... : ... .. . ... ... ... : ... .. . ... ... ... : ... .. . ... ... ...
ROW 20 : ... .. . ... ... ... : ... .. . ... ... ... : ... .. . ... ... ... : ... .. . ... ... ... : ... .. . ... ... ...
ROW 21 : ... .. . ... ... ... : ... .. . ... ... ... : ... .. . ... ... ... : ... .. . ... ... ... : ... .. . ... ... ...
ROW 22 : ... .. . ... ... ... : ... .. . ... ... ... : ... .. . ... ... ... : ... .. . ... ... ... : ... .. . ... ... ...
ROW 23 : ... .. . ... ... ... : ... .. . ... ... ... : ... .. . ... ... ... : ... .. . ... ... ... : ... .. . ... ... ...
ROW 24 : ... .. . ... ... ... : ... .. . ... ... ... : ... .. . ... ... ... : ... .. . ... ... ... : ... .. . ... ... ...
ROW 25 : ... .. . ... ... ... : ... .. . ... ... ... : ... .. . ... ... ... : ... .. . ... ... ... : ... .. . ... ... ...
ROW 26 : ... .. . ... ... ... : ... .. . ... ... ... : ... .. . ... ... ... : ... .. . ... ... ... : ... .. . ... ... ...
ROW 27 : ... .. . ... ... ... : ... .. . ... ... ... : ... .. . ... ... ... : ... .. . ... ... ... : ... .. . ... ... ...
ROW 28 : C-3 01 . ... ... ... : ... .. . ... ... ... : ... .. . ... ... ... : ... .. . ... ... ... : ... .. . ... ... ...
ROW 29 : ... .. . ... ... ... : ... .. . ... ... ... : ... .. . ... ... ... : ... .. . ... ... ... : ... .. . ... ... ...
ROW 2A : ... .. . ... ... ... : ... .. . ... ... ... : ... .. . ... ... ... : ... .. . ... ... ... : ... .. . ... ... ...
ROW 2B : ... .. . ... ... ... : ... .. . ... ... ... : ... .. . ... ... ... : ... .. . ... ... ... : ... .. . ... ... ...
ROW 2C : ... .. . ... ... ... : ... .. . ... ... ... : ... .. . ... ... ... : ... .. . ... ... ... : ... .. . ... ... ...
ROW 2D : ... .. . ... ... ... : ... .. . ... ... ... : ... .. . ... ... ... : ... .. . ... ... ... : ... .. . ... ... ...
ROW 2E : ... .. . ... ... ... : ... .. . ... ... ... : ... .. . ... ... ... : ... .. . ... ... ... : ... .. . ... ... ...
ROW 2F : ... .. . ... ... ... : ... .. . ... ... ... : ... .. . ... ... ... : ... .. . ... ... ... : ... .. . ... ... ...
ROW 30 : ... .. . ... ... ... : ... .. . ... ... ... : ... .. . ... ... ... : ... .. . ... ... ... : ... .. . ... ... ...
ROW 31 : ... .. . ... ... ... : ... .. . ... ... ... : ... .. . ... ... ... : ... .. . ... ... ... : ... .. . ... ... ...
ROW 32 : D#3 01 . ... ... ... : ... .. . ... ... ... : ... .. . ... ... ... : ... .. . ... ... ... : ... .. . ... ... ...
ROW 33 : ... .. . ... ... ... : ... .. . ... ... ... : ... .. . ... ... ... : ... .. . ... ... ... : ... .. . ... ... ...
ROW 34 : ... .. . ... ... ... : ... .. . ... ... ... : ... .. . ... ... ... : ... .. . ... ... ... : ... .. . ... ... ...
ROW 35 : ... .. . ... ... ... : ... .. . ... ... ... : ... .. . ... ... ... : ... .. . ... ... ... : ... .. . ... ... ...
ROW 36 : ... .. . ... ... ... : ... .. . ... ... ... : ... .. . ... ... ... : ... .. . ... ... ... : ... .. . ... ... ...
ROW 37 : ... .. . ... ... ... : ... .. . ... ... ... : ... .. . ... ... ... : ... .. . ... ... ... : ... .. . ... ... ...
ROW 38 : ... .. . ... ... ... : ... .. . ... ... ... : ... .. . ... ... ... : ... .. . ... ... ... : ... .. . ... ... ...
ROW 39 : ... .. . ... ... ... : ... .. . ... ... ... : ... .. . ... ... ... : ... .. . ... ... ... : ... .. . ... ... ...
ROW 3A : ... .. . ... ... ... : ... .. . ... ... ... : ... .. . ... ... ... : ... .. . ... ... ... : ... .. . ... ... ...
ROW 3B : ... .. . ... ... ... : ... .. . ... ... ... : ... .. . ... ... ... : ... .. . ... ... ... : ... .. . ... ... ...
ROW 3C : G#2 01 . ... ... ... : C-4 02 . ... ... ... : ... .. . ... ... ... : ... .. . ... ... ... : ... .. . ... ... ...
ROW 3D : ... .. . ... ... ... : ... .. . ... ... ... : ... .. . ... ... ... : ... .. . ... ... ... : ... .. . ... ... ...
ROW 3E : ... .. . ... ... ... : ... .. . ... ... ... : ... .. . ... ... ... : ... .. . ... ... ... : ... .. . ... ... ...
ROW 3F : ... .. . ... ... ... : ... .. . ... ... ... : ... .. . ... ... ... : ... .. . ... ... ... : ... .. . ... ... ...
ROW 40 : ... .. . ... ... ... : ... .. . ... ... ... : ... .. . ... ... ... : ... .. . ... ... ... : ... .. . ... ... ...
ROW 41 : ... .. . ... ... ... : ... .. . ... ... ... : ... .. . ... ... ... : ... .. . ... ... ... : ... .. . ... ... ...
ROW 42 : ... .. . ... ... ... : ... .. . ... ... ... : ... .. . ... ... ... : ... .. . ... ... ... : ... .. . ... ... ...
ROW 43 : ... .. . ... ... ... : ... .. . ... ... ... : ... .. . ... ... ... : ... .. . ... ... ... : ... .. . ... ... ...
ROW 44 : ... .. . ... ... ... : ... .. . ... ... ... : ... .. . ... ... ... : ... .. . ... ... ... : ... .. . ... ... ...
ROW 45 : ... .. . ... ... ... : ... .. . ... ... ... : ... .. . ... ... ... : ... .. . ... ... ... : ... .. . ... ... ...
ROW 46 : C-3 01 . ... ... ... : C-4 09 . R12 ... ... : ... .. . ... ... ... : ... .. . ... ... ... : ... .. . ... ... ...
ROW 47 : ... .. . ... ... ... : ... .. . ... ... ... : ... .. . ... ... ... : ... .. . ... ... ... : ... .. . ... ... ...
ROW 48 : ... .. . ... ... ... : ... .. . ... ... ... : ... .. . ... ... ... : ... .. . ... ... ... : ... .. . ... ... ...
ROW 49 : ... .. . ... ... ... : ... .. . ... ... ... : ... .. . ... ... ... : ... .. . ... ... ... : ... .. . ... ... ...
ROW 4A : ... .. . ... ... ... : ... .. . ... ... ... : ... .. . ... ... ... : ... .. . ... ... ... : ... .. . ... ... ...
ROW 4B : ... .. . ... ... ... : ... .. . ... ... ... : ... .. . ... ... ... : ... .. . ... ... ... : ... .. . ... ... ...
ROW 4C : ... .. . ... ... ... : ... .. . ... ... ... : ... .. . ... ... ... : ... .. . ... ... ... : ... .. . ... ... ...
ROW 4D : ... .. . ... ... ... : ... .. . ... ... ... : ... .. . ... ... ... : ... .. . ... ... ... : ... .. . ... ... ...
ROW 4E : ... .. . ... ... ... : ... .. . ... ... ... : ... .. . ... ... ... : ... .. . ... ... ... : ... .. . ... ... ...
ROW 4F : ... .. . ... ... ... : ... .. . ... ... ... : ... .. . ... ... ... : ... .. . ... ... ... : ... .. . ... ... ...
ROW 50 : A#2 01 . ... ... ... : A#3 02 . ... ... ... : ... .. . ... ... ... : ... .. . ... ... ... : ... .. . ... ... ...
ROW 51 : ... .. . ... ... ... : ... .. . ... ... ... : ... .. . ... ... ... : ... .. . ... ... ... : ... .. . ... ... ...
ROW 52 : ... .. . ... ... ... : ... .. . ... ... ... : ... .. . ... ... ... : ... .. . ... ... ... : ... .. . ... ... ...
ROW 53 : ... .. . ... ... ... : ... .. . ... ... ... : ... .. . ... ... ... : ... .. . ... ... ... : ... .. . ... ... ...
ROW 54 : ... .. . ... ... ... : ... .. . ... ... ... : ... .. . ... ... ... : ... .. . ... ... ... : ... .. . ... ... ...
ROW 55 : ... .. . ... ... ... : ... .. . ... ... ... : ... .. . ... ... ... : ... .. . ... ... ... : ... .. . ... ... ...
ROW 56 : ... .. . ... ... ... : ... .. . ... ... ... : ... .. . ... ... ... : ... .. . ... ... ... : ... .. . ... ... ...
ROW 57 : ... .. . ... ... ... : ... .. . ... ... ... : ... .. . ... ... ... : ... .. . ... ... ... : ... .. . ... ... ...
ROW 58 : ... .. . ... ... ... : ... .. . ... ... ... : ... .. . ... ... ... : ... .. . ... ... ... : ... .. . ... ... ...
ROW 59 : ... .. . ... ... ... : ... .. . ... ... ... : ... .. . ... ... ... : ... .. . ... ... ... : ... .. . ... ... ...
ROW 5A : C#3 01 . ... ... ... : ... .. . ... ... ... : ... .. . ... ... ... : ... .. . ... ... ... : ... .. . ... ... ...
ROW 5B : ... .. . ... ... ... : ... .. . ... ... ... : ... .. . ... ... ... : ... .. . ... ... ... : ... .. . ... ... ...
ROW 5C : ... .. . ... ... ... : ... .. . ... ... ... : ... .. . ... ... ... : ... .. . ... ... ... : ... .. . ... ... ...
ROW 5D : ... .. . ... ... ... : ... .. . ... ... ... : ... .. . ... ... ... : ... .. . ... ... ... : ... .. . ... ... ...
ROW 5E : ... .. . ... ... ... : ... .. . ... ... ... : ... .. . ... ... ... : ... .. . ... ... ... : ... .. . ... ... ...
ROW 5F : ... .. . ... ... ... : ... .. . ... ... ... : ... .. . ... ... ... : ... .. . ... ... ... : ... .. . ... ... ...
ROW 60 : ... .. . ... ... ... : ... .. . ... ... ... : ... .. . ... ... ... : ... .. . ... ... ... : ... .. . ... ... ...
ROW 61 : ... .. . ... ... ... : ... .. . ... ... ... : ... .. . ... ... ... : ... .. . ... ... ... : ... .. . ... ... ...
ROW 62 : ... .. . ... ... ... : ... .. . ... ... ... : ... .. . ... ... ... : ... .. . ... ... ... : ... .. . ... ... ...
ROW 63 : ... .. . ... ... ... : ... .. . ... ... ... : ... .. . ... ... ... : ... .. . ... ... ... : ... .. . ... ... ...
ROW 64 : F-3 01 . ... ... ... : ... .. . ... ... ... : ... .. . ... ... ... : ... .. . ... ... ... : ... .. . ... ... ...
ROW 65 : ... .. . ... ... ... : ... .. . ... ... ... : ... .. . ... ... ... : ... .. . ... ... ... : ... .. . ... ... ...
ROW 66 : ... .. . ... ... ... : ... .. . ... ... ... : ... .. . ... ... ... : ... .. . ... ... ... : ... .. . ... ... ...
ROW 67 : ... .. . ... ... ... : ... .. . ... ... ... : ... .. . ... ... ... : ... .. . ... ... ... : ... .. . ... ... ...
ROW 68 : ... .. . ... ... ... : ... .. . ... ... ... : ... .. . ... ... ... : ... .. . ... ... ... : ... .. . ... ... ...
ROW 69 : ... .. . ... ... ... : ... .. . ... ... ... : ... .. . ... ... ... : ... .. . ... ... ... : ... .. . ... ... ...
ROW 6A : ... .. . ... ... ... : ... .. . ... ... ... : ... .. . ... ... ... : ... .. . ... ... ... : ... .. . ... ... ...
ROW 6B : ... .. . ... ... ... : ... .. . ... ... ... : ... .. . ... ... ... : ... .. . ... ... ... : ... .. . ... ... ...
ROW 6C : ... .. . ... ... ... : ... .. . ... ... ... : ... .. . ... ... ... : ... .. . ... ... ... : ... .. . ... ... ...
ROW 6D : ... .. . ... ... ... : ... .. . ... ... ... : ... .. . ... ... ... : ... .. . ... ... ... : ... .. . ... ... ...
ROW 6E : A#2 01 . ... ... ... : ... .. . ... ... ... : ... .. . ... ... ... : ... .. . ... ... ... : ... .. . ... ... ...
ROW 6F : ... .. . ... ... ... : ... .. . ... ... ... : ... .. . ... ... ... : ... .. . ... ... ... : ... .. . ... ... ...
ROW 70 : ... .. . ... ... ... : ... .. . ... ... ... : ... .. . ... ... ... : ... .. . ... ... ... : ... .. . ... ... ...
ROW 71 : ... .. . ... ... ... : ... .. . ... ... ... : ... .. . ... ... ... : ... .. . ... ... ... : ... .. . ... ... ...
ROW 72 : ... .. . ... ... ... : ... .. . ... ... ... : ... .. . ... ... ... : ... .. . ... ... ... : ... .. . ... ... ...
ROW 73 : ... .. . ... ... ... : ... .. . ... ... ... : ... .. . ... ... ... : ... .. . ... ... ... : ... .. . ... ... ...
ROW 74 : ... .. . ... ... ... : ... .. . ... ... ... : ... .. . ... ... ... : ... .. . ... ... ... : ... .. . ... ... ...
ROW 75 : ... .. . ... ... ... : ... .. . ... ... ... : ... .. . ... ... ... : ... .. . ... ... ... : ... .. . ... ... ...
ROW 76 : ... .. . ... ... ... : ... .. . ... ... ... : ... .. . ... ... ... : ... .. . ... ... ... : ... .. . ... ... ...
ROW 77 : ... .. . ... ... ... : ... .. . ... ... ... : ... .. . ... ... ... : ... .. . ... ... ... : ... .. . ... ... ...
ROW 78 : C#3 01 . ... ... ... : ... .. . ... ... ... : ... .. . ... ... ... : ... .. . ... ... ... : ... .. . ... ... ...
ROW 79 : ... .. . ... ... ... : ... .. . ... ... ... : ... .. . ... ... ... : ... .. . ... ... ... : ... .. . ... ... ...
ROW 7A : ... .. . ... ... ... : ... .. . ... ... ... : ... .. . ... ... ... : ... .. . ... ... ... : ... .. . ... ... ...
ROW 7B : ... .. . ... ... ... : ... .. . ... ... ... : ... .. . ... ... ... : ... .. . ... ... ... : ... .. . ... ... ...
ROW 7C : ... .. . ... ... ... : ... .. . ... ... ... : ... .. . ... ... ... : ... .. . ... ... ... : ... .. . ... ... ...
ROW 7D : ... .. . ... ... ... : ... .. . ... ... ... : ... .. . ... ... ... : ... .. . ... ... ... : ... .. . ... ... ...
ROW 7E : ... .. . ... ... ... : ... .. . ... ... ... : ... .. . ... ... ... : ... .. . ... ... ... : ... .. . ... ... ...
ROW 7F : ... .. . ... ... ... : ... .. . ... ... ... : ... .. . ... ... ... : ... .. . ... ... ... : ... .. . ... ... ...
ROW 80 : ... .. . ... ... ... : ... .. . ... ... ... : ... .. . ... ... ... : ... .. . ... ... ... : ... .. . ... ... ...
ROW 81 : ... .. . ... ... ... : ... .. . ... ... ... : ... .. . ... ... ... : ... .. . ... ... ... : ... .. . ... ... ...
ROW 82 : F-3 01 . ... ... ... : ... .. . ... ... ... : ... .. . ... ... ... : ... .. . ... ... ... : ... .. . ... ... ...
ROW 83 : ... .. . ... ... ... : ... .. . ... ... ... : ... .. . ... ... ... : ... .. . ... ... ... : ... .. . ... ... ...
ROW 84 : ... .. . ... ... ... : ... .. . ... ... ... : ... .. . ... ... ... : ... .. . ... ... ... : ... .. . ... ... ...
ROW 85 : ... .. . ... ... ... : ... .. . ... ... ... : ... .. . ... ... ... : ... .. . ... ... ... : ... .. . ... ... ...
ROW 86 : ... .. . ... ... ... : ... .. . ... ... ... : ... .. . ... ... ... : ... .. . ... ... ... : ... .. . ... ... ...
ROW 87 : ... .. . ... ... ... : ... .. . ... ... ... : ... .. . ... ... ... : ... .. . ... ... ... : ... .. . ... ... ...
ROW 88 : ... .. . ... ... ... : ... .. . ... ... ... : ... .. . ... ... ... : ... .. . ... ... ... : ... .. . ... ... ...
ROW 89 : ... .. . ... ... ... : ... .. . ... ... ... : ... .. . ... ... ... : ... .. . ... ... ... : ... .. . ... ... ...
ROW 8A : ... .. . ... ... ... : ... .. . ... ... ... : ... .. . ... ... ... : ... .. . ... ... ... : ... .. . ... ... ...
ROW 8B : ... .. . ... ... ... : ... .. . ... ... ... : ... .. . ... ... ... : ... .. . ... ... ... : ... .. . ... ... ...
ROW 8C : A#2 01 . ... ... ... : ... .. . ... ... ... : ... .. . ... ... ... : ... .. . ... ... ... : ... .. . ... ... ...
ROW 8D : ... .. . ... ... ... : ... .. . ... ... ... : ... .. . ... ... ... : ... .. . ... ... ... : ... .. . ... ... ...
ROW 8E : ... .. . ... ... ... : ... .. . ... ... ... : ... .. . ... ... ... : ... .. . ... ... ... : ... .. . ... ... ...
ROW 8F : ... .. . ... ... ... : ... .. . ... ... ... : ... .. . ... ... ... : ... .. . ... ... ... : ... .. . ... ... ...
ROW 90 : ... .. . ... ... ... : ... .. . ... ... ... : ... .. . ... ... ... : ... .. . ... ... ... : ... .. . ... ... ...
ROW 91 : ... .. . ... ... ... : ... .. . ... ... ... : ... .. . ... ... ... : ... .. . ... ... ... : ... .. . ... ... ...
ROW 92 : ... .. . ... ... ... : ... .. . ... ... ... : ... .. . ... ... ... : ... .. . ... ... ... : ... .. . ... ... ...
ROW 93 : ... .. . ... ... ... : ... .. . ... ... ... : ... .. . ... ... ... : ... .. . ... ... ... : ... .. . ... ... ...
ROW 94 : ... .. . ... ... ... : ... .. . ... ... ... : ... .. . ... ... ... : ... .. . ... ... ... : ... .. . ... ... ...
ROW 95 : ... .. . ... ... ... : ... .. . ... ... ... : ... .. . ... ... ... : ... .. . ... ... ... : ... .. . ... ... ...
ROW 96 : C#3 01 . ... ... ... : ... .. . ... ... ... : ... .. . ... ... ... : ... .. . ... ... ... : ... .. . ... ... ...
ROW 97 : ... .. . ... ... ... : ... .. . ... ... ... : ... .. . ... ... ... : ... .. . ... ... ... : ... .. . ... ... ...
ROW 98 : ... .. . ... ... ... : ... .. . ... ... ... : ... .. . ... ... ... : ... .. . ... ... ... : ... .. . ... ... ...
ROW 99 : ... .. . ... ... ... : ... .. . ... ... ... : ... .. . ... ... ... : ... .. . ... ... ... : ... .. . ... ... ...
ROW 9A : ... .. . ... ... ... : ... .. . ... ... ... : ... .. . ... ... ... : ... .. . ... ... ... : ... .. . ... ... ...
ROW 9B : ... .. . ... ... ... : ... .. . ... ... ... : ... .. . ... ... ... : ... .. . ... ... ... : ... .. . ... ... ...
ROW 9C : ... .. . ... ... ... : ... .. . ... ... ... : ... .. . ... ... ... : ... .. . ... ... ... : ... .. . ... ... ...
ROW 9D : ... .. . ... ... ... : ... .. . ... ... ... : ... .. . ... ... ... : ... .. . ... ... ... : ... .. . ... ... ...
ROW 9E : ... .. . ... ... ... : ... .. . ... ... ... : ... .. . ... ... ... : ... .. . ... ... ... : ... .. . ... ... ...
ROW 9F : --- .. . ... ... ... : --- .. . ... ... ... : ... .. . ... ... ... : ... .. . ... ... ... : ... .. . ... ... ...

PATTERN 13
ROW 00 : A#2 01 . ... ... ... : A#2 06 . ... ... ... : ... .. . ... ... ... : ... .. . ... ... ... : ... .. . ... ... ...
ROW 01 : ... .. . ... ... ... : ... .. . ... ... ... : ... .. . ... ... ... : ... .. . ... ... ... : ... .. . ... ... ...
ROW 02 : ... .. . ... ... ... : ... .. . ... ... ... : ... .. . ... ... ... : ... .. . ... ... ... : ... .. . ... ... ...
ROW 03 : ... .. . ... ... ... : ... .. . ... ... ... : ... .. . ... ... ... : ... .. . ... ... ... : ... .. . ... ... ...
ROW 04 : ... .. . ... ... ... : ... .. . ... ... ... : ... .. . ... ... ... : ... .. . ... ... ... : ... .. . ... ... ...
ROW 05 : ... .. . ... ... ... : ... .. . ... ... ... : ... .. . ... ... ... : ... .. . ... ... ... : ... .. . ... ... ...
ROW 06 : ... .. . ... ... ... : ... .. . ... ... ... : ... .. . ... ... ... : ... .. . ... ... ... : ... .. . ... ... ...
ROW 07 : ... .. . ... ... ... : ... .. . ... ... ... : ... .. . ... ... ... : ... .. . ... ... ... : ... .. . ... ... ...
ROW 08 : ... .. . ... ... ... : ... .. . ... ... ... : ... .. . ... ... ... : ... .. . ... ... ... : ... .. . ... ... ...
ROW 09 : --- .. . ... ... ... : ... .. . ... ... ... : ... .. . ... ... ... : ... .. . ... ... ... : ... .. . ... ... ...
ROW 0A : ... .. . ... ... ... : ... .. . ... ... ... : ... .. . ... ... ... : ... .. . ... ... ... : ... .. . ... ... ...
ROW 0B : ... .. . ... ... ... : ... .. . ... ... ... : ... .. . ... ... ... : ... .. . ... ... ... : ... .. . ... ... ...
ROW 0C : ... .. . ... ... ... : ... .. . ... ... ... : ... .. . ... ... ... : ... .. . ... ... ... : ... .. . ... ... ...
ROW 0D : ... .. . ... ... ... : ... .. . ... ... ... : ... .. . ... ... ... : ... .. . ... ... ... : ... .. . ... ... ...
ROW 0E : ... .. . ... ... ... : ... .. . ... ... ... : ... .. . ... ... ... : ... .. . ... ... ... : ... .. . ... ... ...
ROW 0F : ... .. . ... ... ... : ... .. . ... ... ... : ... .. . ... ... ... : ... .. . ... ... ... : ... .. . ... ... ...
ROW 10 : ... .. . ... ... ... : ... .. . ... ... ... : ... .. . ... ... ... : ... .. . ... ... ... : ... .. . ... ... ...
ROW 11 : ... .. . ... ... ... : ... .. . ... ... ... : ... .. . ... ... ... : ... .. . ... ... ... : ... .. . ... ... ...
ROW 12 : ... .. . ... ... ... : ... .. . ... ... ... : ... .. . ... ... ... : ... .. . ... ... ... : ... .. . ... ... ...
ROW 13 : F-3 01 . ... ... ... : ... .. . ... ... ... : ... .. . ... ... ... : ... .. . ... ... ... : ... .. . ... ... ...
ROW 14 : ... .. . ... ... ... : ... .. . ... ... ... : ... .. . ... ... ... : ... .. . ... ... ... : ... .. . ... ... ...
ROW 15 : ... .. . ... ... ... : ... .. . ... ... ... : ... .. . ... ... ... : ... .. . ... ... ... : ... .. . ... ... ...
ROW 16 : ... .. . ... ... ... : ... .. . ... ... ... : ... .. . ... ... ... : ... .. . ... ... ... : ... .. . ... ... ...
ROW 17 : ... .. . ... ... ... : ... .. . ... ... ... : ... .. . ... ... ... : ... .. . ... ... ... : ... .. . ... ... ...
ROW 18 : ... .. . ... ... ... : ... .. . ... ... ... : ... .. . ... ... ... : ... .. . ... ... ... : ... .. . ... ... ...
ROW 19 : ... .. . ... ... ... : ... .. . ... ... ... : ... .. . ... ... ... : ... .. . ... ... ... : ... .. . ... ... ...
ROW 1A : ... .. . ... ... ... : ... .. . ... ... ... : ... .. . ... ... ... : ... .. . ... ... ... : ... .. . ... ... ...
ROW 1B : ... .. . ... ... ... : ... .. . ... ... ... : ... .. . ... ... ... : ... .. . ... ... ... : ... .. . ... ... ...
ROW 1C : ... .. . ... ... ... : ... .. . ... ... ... : ... .. . ... ... ... : ... .. . ... ... ... : ... .. . ... ... ...
ROW 1D : --- .. . ... ... ... : ... .. . ... ... ... : ... .. . ... ... ... : ... .. . ... ... ... : ... .. . ... ... ...
ROW 1E : A#2 01 . ... ... ... : ... .. . ... ... ... : ... .. . ... ... ... : ... .. . ... ... ... : ... .. . ... ... ...
ROW 1F : ... .. . ... ... ... : ... .. . ... ... ... : ... .. . ... ... ... : ... .. . ... ... ... : ... .. . ... ... ...
ROW 20 : ... .. . ... ... ... : ... .. . ... ... ... : ... .. . ... ... ... : ... .. . ... ... ... : ... .. . ... ... ...
ROW 21 : ... .. . ... ... ... : ... .. . ... ... ... : ... .. . ... ... ... : ... .. . ... ... ... : ... .. . ... ... ...
ROW 22 : ... .. . ... ... ... : ... .. . ... ... ... : ... .. . ... ... ... : ... .. . ... ... ... : ... .. . ... ... ...
ROW 23 : ... .. . ... ... ... : ... .. . ... ... ... : ... .. . ... ... ... : ... .. . ... ... ... : ... .. . ... ... ...
ROW 24 : ... .. . ... ... ... : ... .. . ... ... ... : ... .. . ... ... ... : ... .. . ... ... ... : ... .. . ... ... ...
ROW 25 : ... .. . ... ... ... : ... .. . ... ... ... : ... .. . ... ... ... : ... .. . ... ... ... : ... .. . ... ... ...
ROW 26 : ... .. . ... ... ... : ... .. . ... ... ... : ... .. . ... ... ... : ... .. . ... ... ... : ... .. . ... ... ...
ROW 27 : --- .. . ... ... ... : ... .. . ... ... ... : ... .. . ... ... ... : ... .. . ... ... ... : ... .. . ... ... ...
ROW 28 : ... .. . ... ... ... : ... .. . ... ... ... : ... .. . ... ... ... : ... .. . ... ... ... : ... .. . ... ... ...
ROW 29 : ... .. . ... ... ... : ... .. . ... ... ... : ... .. . ... ... ... : ... .. . ... ... ... : ... .. . ... ... ...
ROW 2A : ... .. . ... ... ... : ... .. . ... ... ... : ... .. . ... ... ... : ... .. . ... ... ... : ... .. . ... ... ...
ROW 2B : ... .. . ... ... ... : ... .. . ... ... ... : ... .. . ... ... ... : ... .. . ... ... ... : ... .. . ... ... ...
ROW 2C : ... .. . ... ... ... : ... .. . ... ... ... : ... .. . ... ... ... : ... .. . ... ... ... : ... .. . ... ... ...
ROW 2D : ... .. . ... ... ... : ... .. . ... ... ... : ... .. . ... ... ... : ... .. . ... ... ... : ... .. . ... ... ...
ROW 2E : ... .. . ... ... ... : ... .. . ... ... ... : ... .. . ... ... ... : ... .. . ... ... ... : ... .. . ... ... ...
ROW 2F : ... .. . ... ... ... : ... .. . ... ... ... : ... .. . ... ... ... : ... .. . ... ... ... : ... .. . ... ... ...
ROW 30 : ... .. . ... ... ... : ... .. . ... ... ... : ... .. . ... ... ... : ... .. . ... ... ... : ... .. . ... ... ...
ROW 31 : ... .. . ... ... ... : ... .. . ... ... ... : ... .. . ... ... ... : ... .. . ... ... ... : ... .. . ... ... ...
ROW 32 : ... .. . ... ... ... : ... .. . ... ... ... : ... .. . ... ... ... : ... .. . ... ... ... : ... .. . ... ... ...
ROW 33 : ... .. . ... ... ... : ... .. . ... ... ... : ... .. . ... ... ... : ... .. . ... ... ... : ... .. . ... ... ...
ROW 34 : ... .. . ... ... ... : ... .. . ... ... ... : ... .. . ... ... ... : ... .. . ... ... ... : ... .. . ... ... ...
ROW 35 : ... .. . ... ... ... : ... .. . ... ... ... : ... .. . ... ... ... : ... .. . ... ... ... : ... .. . ... ... ...
ROW 36 : ... .. . ... ... ... : ... .. . ... ... ... : ... .. . ... ... ... : ... .. . ... ... ... : ... .. . ... ... ...
ROW 37 : ... .. . ... ... ... : ... .. . ... ... ... : ... .. . ... ... ... : ... .. . ... ... ... : ... .. . ... ... ...
ROW 38 : ... .. . ... ... ... : ... .. . ... ... ... : ... .. . ... ... ... : ... .. . ... ... ... : ... .. . ... ... ...
ROW 39 : ... .. . ... ... ... : ... .. . ... ... ... : ... .. . ... ... ... : ... .. . ... ... ... : ... .. . ... ... ...
ROW 3A : ... .. . ... ... ... : ... .. . ... ... ... : ... .. . ... ... ... : ... .. . ... ... ... : ... .. . ... ... ...
ROW 3B : ... .. . ... ... ... : ... .. . ... ... ... : ... .. . ... ... ... : ... .. . ... ... ... : ... .. . ... ... ...
ROW 3C : A#2 01 . ... ... ... : ... .. . ... ... ... : ... .. . ... ... ... : ... .. . ... ... ... : ... .. . ... ... ...
ROW 3D : ... .. . ... ... ... : ... .. . ... ... ... : ... .. . ... ... ... : ... .. . ... ... ... : ... .. . ... ... ...
ROW 3E : ... .. . ... ... ... : ... .. . ... ... ... : ... .. . ... ... ... : ... .. . ... ... ... : ... .. . ... ... ...
ROW 3F : ... .. . ... ... ... : ... .. . ... ... ... : ... .. . ... ... ... : ... .. . ... ... ... : ... .. . ... ... ...
ROW 40 : ... .. . ... ... ... : ... .. . ... ... ... : ... .. . ... ... ... : ... .. . ... ... ... : ... .. . ... ... ...
ROW 41 : ... .. . ... ... ... : ... .. . ... ... ... : ... .. . ... ... ... : ... .. . ... ... ... : ... .. . ... ... ...
ROW 42 : ... .. . ... ... ... : ... .. . ... ... ... : ... .. . ... ... ... : ... .. . ... ... ... : ... .. . ... ... ...
ROW 43 : ... .. . ... ... ... : ... .. . ... ... ... : ... .. . ... ... ... : ... .. . ... ... ... : ... .. . ... ... ...
ROW 44 : ... .. . ... ... ... : ... .. . ... ... ... : ... .. . ... ... ... : ... .. . ... ... ... : ... .. . ... ... ...
ROW 45 : --- .. . ... ... ... : ... .. . ... ... ... : ... .. . ... ... ... : ... .. . ... ... ... : ... .. . ... ... ...
ROW 46 : A#2 01 . ... ... ... : A#2 08 . QCC ... ... : ... .. . ... ... ... : ... .. . ... ... ... : ... .. . ... ... ...
ROW 47 : ... .. . ... ... ... : ... .. . ... ... ... : ... .. . ... ... ... : ... .. . ... ... ... : ... .. . ... ... ...
ROW 48 : ... .. . ... ... ... : ... .. . ... ... ... : ... .. . ... ... ... : ... .. . ... ... ... : ... .. . ... ... ...
ROW 49 : ... .. . ... ... ... : ... .. . ... ... ... : ... .. . ... ... ... : ... .. . ... ... ... : ... .. . ... ... ...
ROW 4A : ... .. . ... ... ... : ... .. . ... ... ... : ... .. . ... ... ... : ... .. . ... ... ... : ... .. . ... ... ...
ROW 4B : ... .. . ... ... ... : ... .. . ... ... ... : ... .. . ... ... ... : ... .. . ... ... ... : ... .. . ... ... ...
ROW 4C : ... .. . ... ... ... : ... .. . ... ... ... : ... .. . ... ... ... : ... .. . ... ... ... : ... .. . ... ... ...
ROW 4D : ... .. . ... ... ... : ... .. . ... ... ... : ... .. . ... ... ... : ... .. . ... ... ... : ... .. . ... ... ...
ROW 4E : ... .. . ... ... ... : ... .. . ... ... ... : ... .. . ... ... ... : ... .. . ... ... ... : ... .. . ... ... ...
ROW 4F : --- .. . ... ... ... : ... .. . ... ... ... : ... .. . ... ... ... : ... .. . ... ... ... : ... .. . ... ... ...
ROW 50 : A#2 01 . ... ... ... : A#3 06 . ... ... ... : ... .. . ... ... ... : ... .. . ... ... ... : ... .. . ... ... ...
ROW 51 : ... .. . ... ... ... : ... .. . ... ... ... : ... .. . ... ... ... : ... .. . ... ... ... : ... .. . ... ... ...
ROW 52 : ... .. . ... ... ... : ... .. . ... ... ... : ... .. . ... ... ... : ... .. . ... ... ... : ... .. . ... ... ...
ROW 53 : ... .. . ... ... ... : ... .. . ... ... ... : ... .. . ... ... ... : ... .. . ... ... ... : ... .. . ... ... ...
ROW 54 : ... .. . ... ... ... : ... .. . ... ... ... : ... .. . ... ... ... : ... .. . ... ... ... : ... .. . ... ... ...
ROW 55 : ... .. . ... ... ... : ... .. . ... ... ... : ... .. . ... ... ... : ... .. . ... ... ... : ... .. . ... ... ...
ROW 56 : ... .. . ... ... ... : ... .. . ... ... ... : ... .. . ... ... ... : ... .. . ... ... ... : ... .. . ... ... ...
ROW 57 : ... .. . ... ... ... : ... .. . ... ... ... : ... .. . ... ... ... : ... .. . ... ... ... : ... .. . ... ... ...
ROW 58 : ... .. . ... ... ... : ... .. . ... ... ... : ... .. . ... ... ... : ... .. . ... ... ... : ... .. . ... ... ...
ROW 59 : --- .. . ... ... ... : ... .. . ... ... ... : ... .. . ... ... ... : ... .. . ... ... ... : ... .. . ... ... ...
ROW 5A : ... .. . ... ... ... : ... .. . ... ... ... : ... .. . ... ... ... : ... .. . ... ... ... : ... .. . ... ... ...
ROW 5B : ... .. . ... ... ... : ... .. . ... ... ... : ... .. . ... ... ... : ... .. . ... ... ... : ... .. . ... ... ...
ROW 5C : ... .. . ... ... ... : ... .. . ... ... ... : ... .. . ... ... ... : ... .. . ... ... ... : ... .. . ... ... ...
ROW 5D : ... .. . ... ... ... : ... .. . ... ... ... : ... .. . ... ... ... : ... .. . ... ... ... : ... .. . ... ... ...
ROW 5E : ... .. . ... ... ... : ... .. . ... ... ... : ... .. . ... ... ... : ... .. . ... ... ... : ... .. . ... ... ...
ROW 5F : ... .. . ... ... ... : ... .. . ... ... ... : ... .. . ... ... ... : ... .. . ... ... ... : ... .. . ... ... ...
ROW 60 : ... .. . ... ... ... : ... .. . ... ... ... : ... .. . ... ... ... : ... .. . ... ... ... : ... .. . ... ... ...
ROW 61 : ... .. . ... ... ... : ... .. . ... ... ... : ... .. . ... ... ... : ... .. . ... ... ... : ... .. . ... ... ...
ROW 62 : ... .. . ... ... ... : ... .. . ... ... ... : ... .. . ... ... ... : ... .. . ... ... ... : ... .. . ... ... ...
ROW 63 : ... .. . ... ... ... : ... .. . ... ... ... : ... .. . ... ... ... : ... .. . ... ... ... : ... .. . ... ... ...
ROW 64 : F#3 01 . ... ... ... : ... .. . ... ... ... : ... .. . ... ... ... : ... .. . ... ... ... : ... .. . ... ... ...
ROW 65 : ... .. . ... ... ... : ... .. . ... ... ... : ... .. . ... ... ... : ... .. . ... ... ... : ... .. . ... ... ...
ROW 66 : ... .. . ... ... ... : ... .. . ... ... ... : ... .. . ... ... ... : ... .. . ... ... ... : ... .. . ... ... ...
ROW 67 : ... .. . ... ... ... : ... .. . ... ... ... : ... .. . ... ... ... : ... .. . ... ... ... : ... .. . ... ... ...
ROW 68 : ... .. . ... ... ... : ... .. . ... ... ... : ... .. . ... ... ... : ... .. . ... ... ... : ... .. . ... ... ...
ROW 69 : ... .. . ... ... ... : ... .. . ... ... ... : ... .. . ... ... ... : ... .. . ... ... ... : ... .. . ... ... ...
ROW 6A : ... .. . ... ... ... : ... .. . ... ... ... : ... .. . ... ... ... : ... .. . ... ... ... : ... .. . ... ... ...
ROW 6B : ... .. . ... ... ... : ... .. . ... ... ... : ... .. . ... ... ... : ... .. . ... ... ... : ... .. . ... ... ...
ROW 6C : ... .. . ... ... ... : ... .. . ... ... ... : ... .. . ... ... ... : ... .. . ... ... ... : ... .. . ... ... ...
ROW 6D : --- .. . ... ... ... : ... .. . ... ... ... : ... .. . ... ... ... : ... .. . ... ... ... : ... .. . ... ... ...
ROW 6E : A#2 01 . ... ... ... : ... .. . ... ... ... : ... .. . ... ... ... : ... .. . ... ... ... : ... .. . ... ... ...
ROW 6F : ... .. . ... ... ... : ... .. . ... ... ... : ... .. . ... ... ... : ... .. . ... ... ... : ... .. . ... ... ...
ROW 70 : ... .. . ... ... ... : ... .. . ... ... ... : ... .. . ... ... ... : ... .. . ... ... ... : ... .. . ... ... ...
ROW 71 : ... .. . ... ... ... : ... .. . ... ... ... : ... .. . ... ... ... : ... .. . ... ... ... : ... .. . ... ... ...
ROW 72 : ... .. . ... ... ... : ... .. . ... ... ... : ... .. . ... ... ... : ... .. . ... ... ... : ... .. . ... ... ...
ROW 73 : ... .. . ... ... ... : ... .. . ... ... ... : ... .. . ... ... ... : ... .. . ... ... ... : ... .. . ... ... ...
ROW 74 : ... .. . ... ... ... : ... .. . ... ... ... : ... .. . ... ... ... : ... .. . ... ... ... : ... .. . ... ... ...
ROW 75 : ... .. . ... ... ... : ... .. . ... ... ... : ... .. . ... ... ... : ... .. . ... ... ... : ... .. . ... ... ...
ROW 76 : ... .. . ... ... ... : ... .. . ... ... ... : ... .. . ... ... ... : ... .. . ... ... ... : ... .. . ... ... ...
ROW 77 : --- .. . ... ... ... : ... .. . ... ... ... : ... .. . ... ... ... : ... .. . ... ... ... : ... .. . ... ... ...
ROW 78 : ... .. . ... ... ... : ... .. . ... ... ... : ... .. . ... ... ... : ... .. . ... ... ... : ... .. . ... ... ...
ROW 79 : ... .. . ... ... ... : ... .. . ... ... ... : ... .. . ... ... ... : ... .. . ... ... ... : ... .. . ... ... ...
ROW 7A : ... .. . ... ... ... : ... .. . ... ... ... : ... .. . ... ... ... : ... .. . ... ... ... : ... .. . ... ... ...
ROW 7B : ... .. . ... ... ... : ... .. . ... ... ... : ... .. . ... ... ... : ... .. . ... ... ... : ... .. . ... ... ...
ROW 7C : ... .. . ... ... ... : ... .. . ... ... ... : ... .. . ... ... ... : ... .. . ... ... ... : ... .. . ... ... ...
ROW 7D : ... .. . ... ... ... : ... .. . ... ... ... : ... .. . ... ... ... : ... .. . ... ... ... : ... .. . ... ... ...
ROW 7E : ... .. . ... ... ... : ... .. . ... ... ... : ... .. . ... ... ... : ... .. . ... ... ... : ... .. . ... ... ...
ROW 7F : ... .. . ... ... ... : ... .. . ... ... ... : ... .. . ... ... ... : ... .. . ... ... ... : ... .. . ... ... ...
ROW 80 : ... .. . ... ... ... : ... .. . ... ... ... : ... .. . ... ... ... : ... .. . ... ... ... : ... .. . ... ... ...
ROW 81 : ... .. . ... ... ... : ... .. . ... ... ... : ... .. . ... ... ... : ... .. . ... ... ... : ... .. . ... ... ...
ROW 82 : ... .. . ... ... ... : ... .. . ... ... ... : ... .. . ... ... ... : ... .. . ... ... ... : ... .. . ... ... ...
ROW 83 : ... .. . ... ... ... : ... .. . ... ... ... : ... .. . ... ... ... : ... .. . ... ... ... : ... .. . ... ... ...
ROW 84 : ... .. . ... ... ... : ... .. . ... ... ... : ... .. . ... ... ... : ... .. . ... ... ... : ... .. . ... ... ...
ROW 85 : ... .. . ... ... ... : ... .. . ... ... ... : ... .. . ... ... ... : ... .. . ... ... ... : ... .. . ... ... ...
ROW 86 : ... .. . ... ... ... : ... .. . ... ... ... : ... .. . ... ... ... : ... .. . ... ... ... : ... .. . ... ... ...
ROW 87 : ... .. . ... ... ... : ... .. . ... ... ... : ... .. . ... ... ... : ... .. . ... ... ... : ... .. . ... ... ...
ROW 88 : ... .. . ... ... ... : ... .. . ... ... ... : ... .. . ... ... ... : ... .. . ... ... ... : ... .. . ... ... ...
ROW 89 : ... .. . ... ... ... : ... .. . ... ... ... : ... .. . ... ... ... : ... .. . ... ... ... : ... .. . ... ... ...
ROW 8A : ... .. . ... ... ... : ... .. . ... ... ... : ... .. . ... ... ... : ... .. . ... ... ... : ... .. . ... ... ...
ROW 8B : ... .. . ... ... ... : ... .. . ... ... ... : ... .. . ... ... ... : ... .. . ... ... ... : ... .. . ... ... ...
ROW 8C : A#2 01 . ... ... ... : ... .. . ... ... ... : ... .. . ... ... ... : ... .. . ... ... ... : ... .. . ... ... ...
ROW 8D : ... .. . ... ... ... : ... .. . ... ... ... : ... .. . ... ... ... : ... .. . ... ... ... : ... .. . ... ... ...
ROW 8E : ... .. . ... ... ... : ... .. . ... ... ... : ... .. . ... ... ... : ... .. . ... ... ... : ... .. . ... ... ...
ROW 8F : ... .. . ... ... ... : ... .. . ... ... ... : ... .. . ... ... ... : ... .. . ... ... ... : ... .. . ... ... ...
ROW 90 : ... .. . ... ... ... : ... .. . ... ... ... : ... .. . ... ... ... : ... .. . ... ... ... : ... .. . ... ... ...
ROW 91 : ... .. . ... ... ... : ... .. . ... ... ... : ... .. . ... ... ... : ... .. . ... ... ... : ... .. . ... ... ...
ROW 92 : ... .. . ... ... ... : ... .. . ... ... ... : ... .. . ... ... ... : ... .. . ... ... ... : ... .. . ... ... ...
ROW 93 : ... .. . ... ... ... : ... .. . ... ... ... : ... .. . ... ... ... : ... .. . ... ... ... : ... .. . ... ... ...
ROW 94 : ... .. . ... ... ... : ... .. . ... ... ... : ... .. . ... ... ... : ... .. . ... ... ... : ... .. . ... ... ...
ROW 95 : --- .. . ... ... ... : ... .. . ... ... ... : ... .. . ... ... ... : ... .. . ... ... ... : ... .. . ... ... ...
ROW 96 : A#2 01 . ... ... ... : ... .. . ... ... ... : ... .. . ... ... ... : ... .. . ... ... ... : ... .. . ... ... ...
ROW 97 : ... .. . ... ... ... : ... .. . ... ... ... : ... .. . ... ... ... : ... .. . ... ... ... : ... .. . ... ... ...
ROW 98 : ... .. . ... ... ... : ... .. . ... ... ... : ... .. . ... ... ... : ... .. . ... ... ... : ... .. . ... ... ...
ROW 99 : ... .. . ... ... ... : ... .. . ... ... ... : ... .. . ... ... ... : ... .. . ... ... ... : ... .. . ... ... ...
ROW 9A : ... .. . ... ... ... : ... .. . ... ... ... : ... .. . ... ... ... : ... .. . ... ... ... : ... .. . ... ... ...
ROW 9B : ... .. . ... ... ... : ... .. . ... ... ... : ... .. . ... ... ... : ... .. . ... ... ... : ... .. . ... ... ...
ROW 9C : ... .. . ... ... ... : ... .. . ... ... ... : ... .. . ... ... ... : ... .. . ... ... ... : ... .. . ... ... ...
ROW 9D : ... .. . ... ... ... : ... .. . ... ... ... : ... .. . ... ... ... : ... .. . ... ... ... : ... .. . ... ... ...
ROW 9E : ... .. . ... ... ... : ... .. . ... ... ... : ... .. . ... ... ... : ... .. . ... ... ... : ... .. . ... ... ...
ROW 9F : --- .. . ... ... ... : ... .. . ... ... ... : ... .. . ... ... ... : ... .. . ... ... ... : ... .. . ... ... ...

PATTERN 14
ROW 00 : G#2 01 . ... ... ... : G#3 06 . ... ... ... : ... .. . ... ... ... : ... .. . ... ... ... : ... .. . ... ... ...
ROW 01 : ... .. . ... ... ... : ... .. . ... ... ... : ... .. . ... ... ... : ... .. . ... ... ... : ... .. . ... ... ...
ROW 02 : ... .. . ... ... ... : ... .. . ... ... ... : ... .. . ... ... ... : ... .. . ... ... ... : ... .. . ... ... ...
ROW 03 : ... .. . ... ... ... : ... .. . ... ... ... : ... .. . ... ... ... : ... .. . ... ... ... : ... .. . ... ... ...
ROW 04 : ... .. . ... ... ... : ... .. . ... ... ... : ... .. . ... ... ... : ... .. . ... ... ... : ... .. . ... ... ...
ROW 05 : ... .. . ... ... ... : ... .. . ... ... ... : ... .. . ... ... ... : ... .. . ... ... ... : ... .. . ... ... ...
ROW 06 : ... .. . ... ... ... : ... .. . ... ... ... : ... .. . ... ... ... : ... .. . ... ... ... : ... .. . ... ... ...
ROW 07 : ... .. . ... ... ... : ... .. . ... ... ... : ... .. . ... ... ... : ... .. . ... ... ... : ... .. . ... ... ...
ROW 08 : ... .. . ... ... ... : ... .. . ... ... ... : ... .. . ... ... ... : ... .. . ... ... ... : ... .. . ... ... ...
ROW 09 : --- .. . ... ... ... : ... .. . ... ... ... : ... .. . ... ... ... : ... .. . ... ... ... : ... .. . ... ... ...
ROW 0A : ... .. . ... ... ... : ... .. . ... ... ... : ... .. . ... ... ... : ... .. . ... ... ... : ... .. . ... ... ...
ROW 0B : ... .. . ... ... ... : ... .. . ... ... ... : ... .. . ... ... ... : ... .. . ... ... ... : ... .. . ... ... ...
ROW 0C : ... .. . ... ... ... : ... .. . ... ... ... : ... .. . ... ... ... : ... .. . ... ... ... : ... .. . ... ... ...
ROW 0D : ... .. . ... ... ... : ... .. . ... ... ... : ... .. . ... ... ... : ... .. . ... ... ... : ... .. . ... ... ...
ROW 0E : ... .. . ... ... ... : ... .. . ... ... ... : ... .. . ... ... ... : ... .. . ... ... ... : ... .. . ... ... ...
ROW 0F : ... .. . ... ... ... : ... .. . ... ... ... : ... .. . ... ... ... : ... .. . ... ... ... : ... .. . ... ... ...
ROW 10 : ... .. . ... ... ... : ... .. . ... ... ... : ... .. . ... ... ... : ... .. . ... ... ... : ... .. . ... ... ...
ROW 11 : ... .. . ... ... ... : ... .. . ... ... ... : ... .. . ... ... ... : ... .. . ... ... ... : ... .. . ... ... ...
ROW 12 : ... .. . ... ... ... : ... .. . ... ... ... : ... .. . ... ... ... : ... .. . ... ... ... : ... .. . ... ... ...
ROW 13 : ... .. . ... ... ... : ... .. . ... ... ... : ... .. . ... ... ... : ... .. . ... ... ... : ... .. . ... ... ...
ROW 14 : D#3 01 . ... ... ... : ... .. . ... ... ... : ... .. . ... ... ... : ... .. . ... ... ... : ... .. . ... ... ...
ROW 15 : ... .. . ... ... ... : ... .. . ... ... ... : ... .. . ... ... ... : ... .. . ... ... ... : ... .. . ... ... ...
ROW 16 : ... .. . ... ... ... : ... .. . ... ... ... : ... .. . ... ... ... : ... .. . ... ... ... : ... .. . ... ... ...
ROW 17 : ... .. . ... ... ... : ... .. . ... ... ... : ... .. . ... ... ... : ... .. . ... ... ... : ... .. . ... ... ...
ROW 18 : ... .. . ... ... ... : ... .. . ... ... ... : ... .. . ... ... ... : ... .. . ... ... ... : ... .. . ... ... ...
ROW 19 : ... .. . ... ... ... : ... .. . ... ... ... : ... .. . ... ... ... : ... .. . ... ... ... : ... .. . ... ... ...
ROW 1A : ... .. . ... ... ... : ... .. . ... ... ... : ... .. . ... ... ... : ... .. . ... ... ... : ... .. . ... ... ...
ROW 1B : ... .. . ... ... ... : ... .. . ... ... ... : ... .. . ... ... ... : ... .. . ... ... ... : ... .. . ... ... ...
ROW 1C : ... .. . ... ... ... : ... .. . ... ... ... : ... .. . ... ... ... : ... .. . ... ... ... : ... .. . ... ... ...
ROW 1D : --- .. . ... ... ... : ... .. . ... ... ... : ... .. . ... ... ... : ... .. . ... ... ... : ... .. . ... ... ...
ROW 1E : G#2 01 . ... ... ... : ... .. . ... ... ... : ... .. . ... ... ... : ... .. . ... ... ... : ... .. . ... ... ...
ROW 1F : ... .. . ... ... ... : ... .. . ... ... ... : ... .. . ... ... ... : ... .. . ... ... ... : ... .. . ... ... ...
ROW 20 : ... .. . ... ... ... : ... .. . ... ... ... : ... .. . ... ... ... : ... .. . ... ... ... : ... .. . ... ... ...
ROW 21 : ... .. . ... ... ... : ... .. . ... ... ... : ... .. . ... ... ... : ... .. . ... ... ... : ... .. . ... ... ...
ROW 22 : ... .. . ... ... ... : ... .. . ... ... ... : ... .. . ... ... ... : ... .. . ... ... ... : ... .. . ... ... ...
ROW 23 : ... .. . ... ... ... : ... .. . ... ... ... : ... .. . ... ... ... : ... .. . ... ... ... : ... .. . ... ... ...
ROW 24 : ... .. . ... ... ... : ... .. . ... ... ... : ... .. . ... ... ... : ... .. . ... ... ... : ... .. . ... ... ...
ROW 25 : ... .. . ... ... ... : ... .. . ... ... ... : ... .. . ... ... ... : ... .. . ... ... ... : ... .. . ... ... ...
ROW 26 : ... .. . ... ... ... : ... .. . ... ... ... : ... .. . ... ... ... : ... .. . ... ... ... : ... .. . ... ... ...
ROW 27 : --- .. . ... ... ... : ... .. . ... ... ... : ... .. . ... ... ... : ... .. . ... ... ... : ... .. . ... ... ...
ROW 28 : ... .. . ... ... ... : D#3 06 . ... ... ... : ... .. . ... ... ... : ... .. . ... ... ... : ... .. . ... ... ...
ROW 29 : ... .. . ... ... ... : ... .. . ... ... ... : ... .. . ... ... ... : ... .. . ... ... ... : ... .. . ... ... ...
ROW 2A : ... .. . ... ... ... : ... .. . ... ... ... : ... .. . ... ... ... : ... .. . ... ... ... : ... .. . ... ... ...
ROW 2B : ... .. . ... ... ... : ... .. . ... ... ... : ... .. . ... ... ... : ... .. . ... ... ... : ... .. . ... ... ...
ROW 2C : ... .. . ... ... ... : ... .. . ... ... ... : ... .. . ... ... ... : ... .. . ... ... ... : ... .. . ... ... ...
ROW 2D : ... .. . ... ... ... : ... .. . ... ... ... : ... .. . ... ... ... : ... .. . ... ... ... : ... .. . ... ... ...
ROW 2E : ... .. . ... ... ... : ... .. . ... ... ... : ... .. . ... ... ... : ... .. . ... ... ... : ... .. . ... ... ...
ROW 2F : ... .. . ... ... ... : ... .. . ... ... ... : ... .. . ... ... ... : ... .. . ... ... ... : ... .. . ... ... ...
ROW 30 : ... .. . ... ... ... : ... .. . ... ... ... : ... .. . ... ... ... : ... .. . ... ... ... : ... .. . ... ... ...
ROW 31 : ... .. . ... ... ... : ... .. . ... ... ... : ... .. . ... ... ... : ... .. . ... ... ... : ... .. . ... ... ...
ROW 32 : ... .. . ... ... ... : ... .. . ... ... ... : ... .. . ... ... ... : ... .. . ... ... ... : ... .. . ... ... ...
ROW 33 : ... .. . ... ... ... : ... .. . ... ... ... : ... .. . ... ... ... : ... .. . ... ... ... : ... .. . ... ... ...
ROW 34 : ... .. . ... ... ... : ... .. . ... ... ... : ... .. . ... ... ... : ... .. . ... ... ... : ... .. . ... ... ...
ROW 35 : ... .. . ... ... ... : ... .. . ... ... ... : ... .. . ... ... ... : ... .. . ... ... ... : ... .. . ... ... ...
ROW 36 : ... .. . ... ... ... : ... .. . ... ... ... : ... .. . ... ... ... : ... .. . ... ... ... : ... .. . ... ... ...
ROW 37 : ... .. . ... ... ... : ... .. . ... ... ... : ... .. . ... ... ... : ... .. . ... ... ... : ... .. . ... ... ...
ROW 38 : ... .. . ... ... ... : ... .. . ... ... ... : ... .. . ... ... ... : ... .. . ... ... ... : ... .. . ... ... ...
ROW 39 : ... .. . ... ... ... : ... .. . ... ... ... : ... .. . ... ... ... : ... .. . ... ... ... : ... .. . ... ... ...
ROW 3A : ... .. . ... ... ... : ... .. . ... ... ... : ... .. . ... ... ... : ... .. . ... ... ... : ... .. . ... ... ...
ROW 3B : ... .. . ... ... ... : ... .. . ... ... ... : ... .. . ... ... ... : ... .. . ... ... ... : ... .. . ... ... ...
ROW 3C : G#2 01 . ... ... ... : ... .. . ... ... ... : ... .. . ... ... ... : ... .. . ... ... ... : ... .. . ... ... ...
ROW 3D : ... .. . ... ... ... : ... .. . ... ... ... : ... .. . ... ... ... : ... .. . ... ... ... : ... .. . ... ... ...
ROW 3E : ... .. . ... ... ... : ... .. . ... ... ... : ... .. . ... ... ... : ... .. . ... ... ... : ... .. . ... ... ...
ROW 3F : ... .. . ... ... ... : ... .. . ... ... ... : ... .. . ... ... ... : ... .. . ... ... ... : ... .. . ... ... ...
ROW 40 : ... .. . ... ... ... : ... .. . ... ... ... : ... .. . ... ... ... : ... .. . ... ... ... : ... .. . ... ... ...
ROW 41 : ... .. . ... ... ... : ... .. . ... ... ... : ... .. . ... ... ... : ... .. . ... ... ... : ... .. . ... ... ...
ROW 42 : ... .. . ... ... ... : ... .. . ... ... ... : ... .. . ... ... ... : ... .. . ... ... ... : ... .. . ... ... ...
ROW 43 : ... .. . ... ... ... : ... .. . ... ... ... : ... .. . ... ... ... : ... .. . ... ... ... : ... .. . ... ... ...
ROW 44 : ... .. . ... ... ... : ... .. . ... ... ... : ... .. . ... ... ... : ... .. . ... ... ... : ... .. . ... ... ...
ROW 45 : --- .. . ... ... ... : ... .. . ... ... ... : ... .. . ... ... ... : ... .. . ... ... ... : ... .. . ... ... ...
ROW 46 : G#2 01 . ... ... ... : ... .. . ... ... ... : ... .. . ... ... ... : ... .. . ... ... ... : ... .. . ... ... ...
ROW 47 : ... .. . ... ... ... : ... .. . ... ... ... : ... .. . ... ... ... : ... .. . ... ... ... : ... .. . ... ... ...
ROW 48 : ... .. . ... ... ... : ... .. . ... ... ... : ... .. . ... ... ... : ... .. . ... ... ... : ... .. . ... ... ...
ROW 49 : ... .. . ... ... ... : ... .. . ... ... ... : ... .. . ... ... ... : ... .. . ... ... ... : ... .. . ... ... ...
ROW 4A : ... .. . ... ... ... : ... .. . ... ... ... : ... .. . ... ... ... : ... .. . ... ... ... : ... .. . ... ... ...
ROW 4B : ... .. . ... ... ... : ... .. . ... ... ... : ... .. . ... ... ... : ... .. . ... ... ... : ... .. . ... ... ...
ROW 4C : ... .. . ... ... ... : ... .. . ... ... ... : ... .. . ... ... ... : ... .. . ... ... ... : ... .. . ... ... ...
ROW 4D : ... .. . ... ... ... : ... .. . ... ... ... : ... .. . ... ... ... : ... .. . ... ... ... : ... .. . ... ... ...
ROW 4E : ... .. . ... ... ... : ... .. . ... ... ... : ... .. . ... ... ... : ... .. . ... ... ... : ... .. . ... ... ...
ROW 4F : --- .. . ... ... ... : ... .. . ... ... ... : ... .. . ... ... ... : ... .. . ... ... ... : ... .. . ... ... ...
ROW 50 : F-2 01 . ... ... ... : F-3 06 . ... ... ... : ... .. . ... ... ... : ... .. . ... ... ... : ... .. . ... ... ...
ROW 51 : ... .. . ... ... ... : ... .. . ... ... ... : ... .. . ... ... ... : ... .. . ... ... ... : ... .. . ... ... ...
ROW 52 : ... .. . ... ... ... : ... .. . ... ... ... : ... .. . ... ... ... : ... .. . ... ... ... : ... .. . ... ... ...
ROW 53 : ... .. . ... ... ... : ... .. . ... ... ... : ... .. . ... ... ... : ... .. . ... ... ... : ... .. . ... ... ...
ROW 54 : ... .. . ... ... ... : ... .. . ... ... ... : ... .. . ... ... ... : ... .. . ... ... ... : ... .. . ... ... ...
ROW 55 : ... .. . ... ... ... : ... .. . ... ... ... : ... .. . ... ... ... : ... .. . ... ... ... : ... .. . ... ... ...
ROW 56 : ... .. . ... ... ... : ... .. . ... ... ... : ... .. . ... ... ... : ... .. . ... ... ... : ... .. . ... ... ...
ROW 57 : ... .. . ... ... ... : ... .. . ... ... ... : ... .. . ... ... ... : ... .. . ... ... ... : ... .. . ... ... ...
ROW 58 : ... .. . ... ... ... : ... .. . ... ... ... : ... .. . ... ... ... : ... .. . ... ... ... : ... .. . ... ... ...
ROW 59 : --- .. . ... ... ... : ... .. . ... ... ... : ... .. . ... ... ... : ... .. . ... ... ... : ... .. . ... ... ...
ROW 5A : ... .. . ... ... ... : ... .. . ... ... ... : ... .. . ... ... ... : ... .. . ... ... ... : ... .. . ... ... ...
ROW 5B : ... .. . ... ... ... : ... .. . ... ... ... : ... .. . ... ... ... : ... .. . ... ... ... : ... .. . ... ... ...
ROW 5C : ... .. . ... ... ... : ... .. . ... ... ... : ... .. . ... ... ... : ... .. . ... ... ... : ... .. . ... ... ...
ROW 5D : ... .. . ... ... ... : ... .. . ... ... ... : ... .. . ... ... ... : ... .. . ... ... ... : ... .. . ... ... ...
ROW 5E : ... .. . ... ... ... : ... .. . ... ... ... : ... .. . ... ... ... : ... .. . ... ... ... : ... .. . ... ... ...
ROW 5F : ... .. . ... ... ... : ... .. . ... ... ... : ... .. . ... ... ... : ... .. . ... ... ... : ... .. . ... ... ...
ROW 60 : ... .. . ... ... ... : ... .. . ... ... ... : ... .. . ... ... ... : ... .. . ... ... ... : ... .. . ... ... ...
ROW 61 : ... .. . ... ... ... : ... .. . ... ... ... : ... .. . ... ... ... : ... .. . ... ... ... : ... .. . ... ... ...
ROW 62 : ... .. . ... ... ... : ... .. . ... ... ... : ... .. . ... ... ... : ... .. . ... ... ... : ... .. . ... ... ...
ROW 63 : ... .. . ... ... ... : ... .. . ... ... ... : ... .. . ... ... ... : ... .. . ... ... ... : ... .. . ... ... ...
ROW 64 : F-3 01 . ... ... ... : ... .. . ... ... ... : ... .. . ... ... ... : ... .. . ... ... ... : ... .. . ... ... ...
ROW 65 : ... .. . ... ... ... : ... .. . ... ... ... : ... .. . ... ... ... : ... .. . ... ... ... : ... .. . ... ... ...
ROW 66 : ... .. . ... ... ... : ... .. . ... ... ... : ... .. . ... ... ... : ... .. . ... ... ... : ... .. . ... ... ...
ROW 67 : ... .. . ... ... ... : ... .. . ... ... ... : ... .. . ... ... ... : ... .. . ... ... ... : ... .. . ... ... ...
ROW 68 : ... .. . ... ... ... : ... .. . ... ... ... : ... .. . ... ... ... : ... .. . ... ... ... : ... .. . ... ... ...
ROW 69 : ... .. . ... ... ... : ... .. . ... ... ... : ... .. . ... ... ... : ... .. . ... ... ... : ... .. . ... ... ...
ROW 6A : ... .. . ... ... ... : ... .. . ... ... ... : ... .. . ... ... ... : ... .. . ... ... ... : ... .. . ... ... ...
ROW 6B : ... .. . ... ... ... : ... .. . ... ... ... : ... .. . ... ... ... : ... .. . ... ... ... : ... .. . ... ... ...
ROW 6C : ... .. . ... ... ... : ... .. . ... ... ... : ... .. . ... ... ... : ... .. . ... ... ... : ... .. . ... ... ...
ROW 6D : --- .. . ... ... ... : ... .. . ... ... ... : ... .. . ... ... ... : ... .. . ... ... ... : ... .. . ... ... ...
ROW 6E : F-2 01 . ... ... ... : ... .. . ... ... ... : ... .. . ... ... ... : ... .. . ... ... ... : ... .. . ... ... ...
ROW 6F : ... .. . ... ... ... : ... .. . ... ... ... : ... .. . ... ... ... : ... .. . ... ... ... : ... .. . ... ... ...
ROW 70 : ... .. . ... ... ... : ... .. . ... ... ... : ... .. . ... ... ... : ... .. . ... ... ... : ... .. . ... ... ...
ROW 71 : ... .. . ... ... ... : ... .. . ... ... ... : ... .. . ... ... ... : ... .. . ... ... ... : ... .. . ... ... ...
ROW 72 : ... .. . ... ... ... : ... .. . ... ... ... : ... .. . ... ... ... : ... .. . ... ... ... : ... .. . ... ... ...
ROW 73 : ... .. . ... ... ... : ... .. . ... ... ... : ... .. . ... ... ... : ... .. . ... ... ... : ... .. . ... ... ...
ROW 74 : ... .. . ... ... ... : ... .. . ... ... ... : ... .. . ... ... ... : ... .. . ... ... ... : ... .. . ... ... ...
ROW 75 : ... .. . ... ... ... : ... .. . ... ... ... : ... .. . ... ... ... : ... .. . ... ... ... : ... .. . ... ... ...
ROW 76 : ... .. . ... ... ... : ... .. . ... ... ... : ... .. . ... ... ... : ... .. . ... ... ... : ... .. . ... ... ...
ROW 77 : --- .. . ... ... ... : ... .. . ... ... ... : ... .. . ... ... ... : ... .. . ... ... ... : ... .. . ... ... ...
ROW 78 : ... .. . ... ... ... : ... .. . ... ... ... : ... .. . ... ... ... : ... .. . ... ... ... : ... .. . ... ... ...
ROW 79 : ... .. . ... ... ... : ... .. . ... ... ... : ... .. . ... ... ... : ... .. . ... ... ... : ... .. . ... ... ...
ROW 7A : ... .. . ... ... ... : ... .. . ... ... ... : ... .. . ... ... ... : ... .. . ... ... ... : ... .. . ... ... ...
ROW 7B : ... .. . ... ... ... : ... .. . ... ... ... : ... .. . ... ... ... : ... .. . ... ... ... : ... .. . ... ... ...
ROW 7C : ... .. . ... ... ... : ... .. . ... ... ... : ... .. . ... ... ... : ... .. . ... ... ... : ... .. . ... ... ...
ROW 7D : ... .. . ... ... ... : ... .. . ... ... ... : ... .. . ... ... ... : ... .. . ... ... ... : ... .. . ... ... ...
ROW 7E : ... .. . ... ... ... : ... .. . ... ... ... : ... .. . ... ... ... : ... .. . ... ... ... : ... .. . ... ... ...
ROW 7F : ... .. . ... ... ... : ... .. . ... ... ... : ... .. . ... ... ... : ... .. . ... ... ... : ... .. . ... ... ...
ROW 80 : ... .. . ... ... ... : ... .. . ... ... ... : ... .. . ... ... ... : ... .. . ... ... ... : ... .. . ... ... ...
ROW 81 : ... .. . ... ... ... : ... .. . ... ... ... : ... .. . ... ... ... : ... .. . ... ... ... : ... .. . ... ... ...
ROW 82 : F-2 01 . ... ... ... : ... .. . ... ... ... : ... .. . ... ... ... : ... .. . ... ... ... : ... .. . ... ... ...
ROW 83 : ... .. . ... ... ... : ... .. . ... ... ... : ... .. . ... ... ... : ... .. . ... ... ... : ... .. . ... ... ...
ROW 84 : ... .. . ... ... ... : ... .. . ... ... ... : ... .. . ... ... ... : ... .. . ... ... ... : ... .. . ... ... ...
ROW 85 : ... .. . ... ... ... : ... .. . ... ... ... : ... .. . ... ... ... : ... .. . ... ... ... : ... .. . ... ... ...
ROW 86 : ... .. . ... ... ... : ... .. . ... ... ... : ... .. . ... ... ... : ... .. . ... ... ... : ... .. . ... ... ...
ROW 87 : ... .. . ... ... ... : ... .. . ... ... ... : ... .. . ... ... ... : ... .. . ... ... ... : ... .. . ... ... ...
ROW 88 : ... .. . ... ... ... : ... .. . ... ... ... : ... .. . ... ... ... : ... .. . ... ... ... : ... .. . ... ... ...
ROW 89 : ... .. . ... ... ... : ... .. . ... ... ... : ... .. . ... ... ... : ... .. . ... ... ... : ... .. . ... ... ...
ROW 8A : ... .. . ... ... ... : ... .. . ... ... ... : ... .. . ... ... ... : ... .. . ... ... ... : ... .. . ... ... ...
ROW 8B : --- .. . ... ... ... : ... .. . ... ... ... : ... .. . ... ... ... : ... .. . ... ... ... : ... .. . ... ... ...
ROW 8C : G#2 01 . ... ... ... : ... .. . ... ... ... : ... .. . ... ... ... : ... .. . ... ... ... : ... .. . ... ... ...
ROW 8D : ... .. . ... ... ... : ... .. . ... ... ... : ... .. . ... ... ... : ... .. . ... ... ... : ... .. . ... ... ...
ROW 8E : ... .. . ... ... ... : ... .. . ... ... ... : ... .. . ... ... ... : ... .. . ... ... ... : ... .. . ... ... ...
ROW 8F : ... .. . ... ... ... : ... .. . ... ... ... : ... .. . ... ... ... : ... .. . ... ... ... : ... .. . ... ... ...
ROW 90 : ... .. . ... ... ... : ... .. . ... ... ... : ... .. . ... ... ... : ... .. . ... ... ... : ... .. . ... ... ...
ROW 91 : ... .. . ... ... ... : ... .. . ... ... ... : ... .. . ... ... ... : ... .. . ... ... ... : ... .. . ... ... ...
ROW 92 : ... .. . ... ... ... : ... .. . ... ... ... : ... .. . ... ... ... : ... .. . ... ... ... : ... .. . ... ... ...
ROW 93 : ... .. . ... ... ... : ... .. . ... ... ... : ... .. . ... ... ... : ... .. . ... ... ... : ... .. . ... ... ...
ROW 94 : ... .. . ... ... ... : ... .. . ... ... ... : ... .. . ... ... ... : ... .. . ... ... ... : ... .. . ... ... ...
ROW 95 : --- .. . ... ... ... : ... .. . ... ... ... : ... .. . ... ... ... : ... .. . ... ... ... : ... .. . ... ... ...
ROW 96 : A-2 01 . ... ... ... : ... .. . ... ... ... : ... .. . ... ... ... : ... .. . ... ... ... : ... .. . ... ... ...
ROW 97 : ... .. . ... ... ... : ... .. . ... ... ... : ... .. . ... ... ... : ... .. . ... ... ... : ... .. . ... ... ...
ROW 98 : ... .. . ... ... ... : ... .. . ... ... ... : ... .. . ... ... ... : ... .. . ... ... ... : ... .. . ... ... ...
ROW 99 : ... .. . ... ... ... : ... .. . ... ... ... : ... .. . ... ... ... : ... .. . ... ... ... : ... .. . ... ... ...
ROW 9A : ... .. . ... ... ... : ... .. . ... ... ... : ... .. . ... ... ... : ... .. . ... ... ... : ... .. . ... ... ...
ROW 9B : ... .. . ... ... ... : ... .. . ... ... ... : ... .. . ... ... ... : ... .. . ... ... ... : ... .. . ... ... ...
ROW 9C : ... .. . ... ... ... : ... .. . ... ... ... : ... .. . ... ... ... : ... .. . ... ... ... : ... .. . ... ... ...
ROW 9D : ... .. . ... ... ... : ... .. . ... ... ... : ... .. . ... ... ... : ... .. . ... ... ... : ... .. . ... ... ...
ROW 9E : ... .. . ... ... ... : ... .. . ... ... ... : ... .. . ... ... ... : ... .. . ... ... ... : ... .. . ... ... ...
ROW 9F : --- .. . ... ... ... : ... .. . ... ... ... : ... .. . ... ... ... : ... .. . ... ... ... : ... .. . ... ... ...

PATTERN 15
ROW 00 : G#2 01 . ... ... ... : A#2 06 . ... ... ... : ... .. . ... ... ... : ... .. . ... ... ... : ... .. . ... ... ...
ROW 01 : ... .. . ... ... ... : ... .. . ... ... ... : ... .. . ... ... ... : ... .. . ... ... ... : ... .. . ... ... ...
ROW 02 : ... .. . ... ... ... : ... .. . ... ... ... : ... .. . ... ... ... : ... .. . ... ... ... : ... .. . ... ... ...
ROW 03 : ... .. . ... ... ... : ... .. . ... ... ... : ... .. . ... ... ... : ... .. . ... ... ... : ... .. . ... ... ...
ROW 04 : ... .. . ... ... ... : ... .. . ... ... ... : ... .. . ... ... ... : ... .. . ... ... ... : ... .. . ... ... ...
ROW 05 : ... .. . ... ... ... : ... .. . ... ... ... : ... .. . ... ... ... : ... .. . ... ... ... : ... .. . ... ... ...
ROW 06 : ... .. . ... ... ... : ... .. . ... ... ... : ... .. . ... ... ... : ... .. . ... ... ... : ... .. . ... ... ...
ROW 07 : ... .. . ... ... ... : ... .. . ... ... ... : ... .. . ... ... ... : ... .. . ... ... ... : ... .. . ... ... ...
ROW 08 : ... .. . ... ... ... : ... .. . ... ... ... : ... .. . ... ... ... : ... .. . ... ... ... : ... .. . ... ... ...
ROW 09 : --- .. . ... ... ... : ... .. . ... ... ... : ... .. . ... ... ... : ... .. . ... ... ... : ... .. . ... ... ...
ROW 0A : ... .. . ... ... ... : ... .. . ... ... ... : ... .. . ... ... ... : ... .. . ... ... ... : ... .. . ... ... ...
ROW 0B : ... .. . ... ... ... : ... .. . ... ... ... : ... .. . ... ... ... : ... .. . ... ... ... : ... .. . ... ... ...
ROW 0C : ... .. . ... ... ... : ... .. . ... ... ... : ... .. . ... ... ... : ... .. . ... ... ... : ... .. . ... ... ...
ROW 0D : ... .. . ... ... ... : ... .. . ... ... ... : ... .. . ... ... ... : ... .. . ... ... ... : ... .. . ... ... ...
ROW 0E : ... .. . ... ... ... : ... .. . ... ... ... : ... .. . ... ... ... : ... .. . ... ... ... : ... .. . ... ... ...
ROW 0F : ... .. . ... ... ... : ... .. . ... ... ... : ... .. . ... ... ... : ... .. . ... ... ... : ... .. . ... ... ...
ROW 10 : ... .. . ... ... ... : ... .. . ... ... ... : ... .. . ... ... ... : ... .. . ... ... ... : ... .. . ... ... ...
ROW 11 : ... .. . ... ... ... : ... .. . ... ... ... : ... .. . ... ... ... : ... .. . ... ... ... : ... .. . ... ... ...
ROW 12 : ... .. . ... ... ... : ... .. . ... ... ... : ... .. . ... ... ... : ... .. . ... ... ... : ... .. . ... ... ...
ROW 13 : ... .. . ... ... ... : ... .. . ... ... ... : ... .. . ... ... ... : ... .. . ... ... ... : ... .. . ... ... ...
ROW 14 : D#3 01 . ... ... ... : ... .. . ... ... ... : ... .. . ... ... ... : ... .. . ... ... ... : ... .. . ... ... ...
ROW 15 : ... .. . ... ... ... : ... .. . ... ... ... : ... .. . ... ... ... : ... .. . ... ... ... : ... .. . ... ... ...
ROW 16 : ... .. . ... ... ... : ... .. . ... ... ... : ... .. . ... ... ... : ... .. . ... ... ... : ... .. . ... ... ...
ROW 17 : ... .. . ... ... ... : ... .. . ... ... ... : ... .. . ... ... ... : ... .. . ... ... ... : ... .. . ... ... ...
ROW 18 : ... .. . ... ... ... : ... .. . ... ... ... : ... .. . ... ... ... : ... .. . ... ... ... : ... .. . ... ... ...
ROW 19 : ... .. . ... ... ... : ... .. . ... ... ... : ... .. . ... ... ... : ... .. . ... ... ... : ... .. . ... ... ...
ROW 1A : ... .. . ... ... ... : ... .. . ... ... ... : ... .. . ... ... ... : ... .. . ... ... ... : ... .. . ... ... ...
ROW 1B : ... .. . ... ... ... : ... .. . ... ... ... : ... .. . ... ... ... : ... .. . ... ... ... : ... .. . ... ... ...
ROW 1C : ... .. . ... ... ... : ... .. . ... ... ... : ... .. . ... ... ... : ... .. . ... ... ... : ... .. . ... ... ...
ROW 1D : --- .. . ... ... ... : ... .. . ... ... ... : ... .. . ... ... ... : ... .. . ... ... ... : ... .. . ... ... ...
ROW 1E : G#2 01 . ... ... ... : ... .. . ... ... ... : ... .. . ... ... ... : ... .. . ... ... ... : ... .. . ... ... ...
ROW 1F : ... .. . ... ... ... : ... .. . ... ... ... : ... .. . ... ... ... : ... .. . ... ... ... : ... .. . ... ... ...
ROW 20 : ... .. . ... ... ... : ... .. . ... ... ... : ... .. . ... ... ... : ... .. . ... ... ... : ... .. . ... ... ...
ROW 21 : ... .. . ... ... ... : ... .. . ... ... ... : ... .. . ... ... ... : ... .. . ... ... ... : ... .. . ... ... ...
ROW 22 : ... .. . ... ... ... : ... .. . ... ... ... : ... .. . ... ... ... : ... .. . ... ... ... : ... .. . ... ... ...
ROW 23 : ... .. . ... ... ... : ... .. . ... ... ... : ... .. . ... ... ... : ... .. . ... ... ... : ... .. . ... ... ...
ROW 24 : ... .. . ... ... ... : ... .. . ... ... ... : ... .. . ... ... ... : ... .. . ... ... ... : ... .. . ... ... ...
ROW 25 : ... .. . ... ... ... : ... .. . ... ... ... : ... .. . ... ... ... : ... .. . ... ... ... : ... .. . ... ... ...
ROW 26 : ... .. . ... ... ... : ... .. . ... ... ... : ... .. . ... ... ... : ... .. . ... ... ... : ... .. . ... ... ...
ROW 27 : --- .. . ... ... ... : ... .. . ... ... ... : ... .. . ... ... ... : ... .. . ... ... ... : ... .. . ... ... ...
ROW 28 : ... .. . ... ... ... : ... .. . ... ... ... : ... .. . ... ... ... : ... .. . ... ... ... : ... .. . ... ... ...
ROW 29 : ... .. . ... ... ... : ... .. . ... ... ... : ... .. . ... ... ... : ... .. . ... ... ... : ... .. . ... ... ...
ROW 2A : ... .. . ... ... ... : ... .. . ... ... ... : ... .. . ... ... ... : ... .. . ... ... ... : ... .. . ... ... ...
ROW 2B : ... .. . ... ... ... : ... .. . ... ... ... : ... .. . ... ... ... : ... .. . ... ... ... : ... .. . ... ... ...
ROW 2C : ... .. . ... ... ... : ... .. . ... ... ... : ... .. . ... ... ... : ... .. . ... ... ... : ... .. . ... ... ...
ROW 2D : ... .. . ... ... ... : ... .. . ... ... ... : ... .. . ... ... ... : ... .. . ... ... ... : ... .. . ... ... ...
ROW 2E : ... .. . ... ... ... : ... .. . ... ... ... : ... .. . ... ... ... : ... .. . ... ... ... : ... .. . ... ... ...
ROW 2F : ... .. . ... ... ... : ... .. . ... ... ... : ... .. . ... ... ... : ... .. . ... ... ... : ... .. . ... ... ...
ROW 30 : ... .. . ... ... ... : ... .. . ... ... ... : ... .. . ... ... ... : ... .. . ... ... ... : ... .. . ... ... ...
ROW 31 : ... .. . ... ... ... : ... .. . ... ... ... : ... .. . ... ... ... : ... .. . ... ... ... : ... .. . ... ... ...
ROW 32 : ... .. . ... ... ... : ... .. . ... ... ... : ... .. . ... ... ... : ... .. . ... ... ... : ... .. . ... ... ...
ROW 33 : ... .. . ... ... ... : ... .. . ... ... ... : ... .. . ... ... ... : ... .. . ... ... ... : ... .. . ... ... ...
ROW 34 : ... .. . ... ... ... : ... .. . ... ... ... : ... .. . ... ... ... : ... .. . ... ... ... : ... .. . ... ... ...
ROW 35 : ... .. . ... ... ... : ... .. . ... ... ... : ... .. . ... ... ... : ... .. . ... ... ... : ... .. . ... ... ...
ROW 36 : ... .. . ... ... ... : ... .. . ... ... ... : ... .. . ... ... ... : ... .. . ... ... ... : ... .. . ... ... ...
ROW 37 : ... .. . ... ... ... : ... .. . ... ... ... : ... .. . ... ... ... : ... .. . ... ... ... : ... .. . ... ... ...
ROW 38 : ... .. . ... ... ... : ... .. . ... ... ... : ... .. . ... ... ... : ... .. . ... ... ... : ... .. . ... ... ...
ROW 39 : ... .. . ... ... ... : ... .. . ... ... ... : ... .. . ... ... ... : ... .. . ... ... ... : ... .. . ... ... ...
ROW 3A : ... .. . ... ... ... : ... .. . ... ... ... : ... .. . ... ... ... : ... .. . ... ... ... : ... .. . ... ... ...
ROW 3B : ... .. . ... ... ... : ... .. . ... ... ... : ... .. . ... ... ... : ... .. . ... ... ... : ... .. . ... ... ...
ROW 3C : G#2 01 . ... ... ... : ... .. . ... ... ... : ... .. . ... ... ... : ... .. . ... ... ... : ... .. . ... ... ...
ROW 3D : ... .. . ... ... ... : ... .. . ... ... ... : ... .. . ... ... ... : ... .. . ... ... ... : ... .. . ... ... ...
ROW 3E : ... .. . ... ... ... : ... .. . ... ... ... : ... .. . ... ... ... : ... .. . ... ... ... : ... .. . ... ... ...
ROW 3F : ... .. . ... ... ... : ... .. . ... ... ... : ... .. . ... ... ... : ... .. . ... ... ... : ... .. . ... ... ...
ROW 40 : ... .. . ... ... ... : ... .. . ... ... ... : ... .. . ... ... ... : ... .. . ... ... ... : ... .. . ... ... ...
ROW 41 : ... .. . ... ... ... : ... .. . ... ... ... : ... .. . ... ... ... : ... .. . ... ... ... : ... .. . ... ... ...
ROW 42 : ... .. . ... ... ... : ... .. . ... ... ... : ... .. . ... ... ... : ... .. . ... ... ... : ... .. . ... ... ...
ROW 43 : ... .. . ... ... ... : ... .. . ... ... ... : ... .. . ... ... ... : ... .. . ... ... ... : ... .. . ... ... ...
ROW 44 : ... .. . ... ... ... : ... .. . ... ... ... : ... .. . ... ... ... : ... .. . ... ... ... : ... .. . ... ... ...
ROW 45 : --- .. . ... ... ... : ... .. . ... ... ... : ... .. . ... ... ... : ... .. . ... ... ... : ... .. . ... ... ...
ROW 46 : G#2 01 . ... ... ... : A#2 08 . Q98 ... ... : ... .. . ... ... ... : ... .. . ... ... ... : ... .. . ... ... ...
ROW 47 : ... .. . ... ... ... : ... .. . ... ... ... : ... .. . ... ... ... : ... .. . ... ... ... : ... .. . ... ... ...
ROW 48 : ... .. . ... ... ... : ... .. . ... ... ... : ... .. . ... ... ... : ... .. . ... ... ... : ... .. . ... ... ...
ROW 49 : ... .. . ... ... ... : ... .. . ... ... ... : ... .. . ... ... ... : ... .. . ... ... ... : ... .. . ... ... ...
ROW 4A : ... .. . ... ... ... : ... .. . ... ... ... : ... .. . ... ... ... : ... .. . ... ... ... : ... .. . ... ... ...
ROW 4B : ... .. . ... ... ... : ... .. . ... ... ... : ... .. . ... ... ... : ... .. . ... ... ... : ... .. . ... ... ...
ROW 4C : ... .. . ... ... ... : ... .. . ... ... ... : ... .. . ... ... ... : ... .. . ... ... ... : ... .. . ... ... ...
ROW 4D : ... .. . ... ... ... : ... .. . ... ... ... : ... .. . ... ... ... : ... .. . ... ... ... : ... .. . ... ... ...
ROW 4E : ... .. . ... ... ... : ... .. . ... ... ... : ... .. . ... ... ... : ... .. . ... ... ... : ... .. . ... ... ...
ROW 4F : --- .. . ... ... ... : ... .. . ... ... ... : ... .. . ... ... ... : ... .. . ... ... ... : ... .. . ... ... ...
ROW 50 : F-2 01 . ... ... ... : F#3 06 . ... ... ... : ... .. . ... ... ... : ... .. . ... ... ... : ... .. . ... ... ...
ROW 51 : ... .. . ... ... ... : ... .. . ... ... ... : ... .. . ... ... ... : ... .. . ... ... ... : ... .. . ... ... ...
ROW 52 : ... .. . ... ... ... : ... .. . ... ... ... : ... .. . ... ... ... : ... .. . ... ... ... : ... .. . ... ... ...
ROW 53 : ... .. . ... ... ... : ... .. . ... ... ... : ... .. . ... ... ... : ... .. . ... ... ... : ... .. . ... ... ...
ROW 54 : ... .. . ... ... ... : ... .. . ... ... ... : ... .. . ... ... ... : ... .. . ... ... ... : ... .. . ... ... ...
ROW 55 : ... .. . ... ... ... : ... .. . ... ... ... : ... .. . ... ... ... : ... .. . ... ... ... : ... .. . ... ... ...
ROW 56 : ... .. . ... ... ... : ... .. . ... ... ... : ... .. . ... ... ... : ... .. . ... ... ... : ... .. . ... ... ...
ROW 57 : ... .. . ... ... ... : ... .. . ... ... ... : ... .. . ... ... ... : ... .. . ... ... ... : ... .. . ... ... ...
ROW 58 : ... .. . ... ... ... : ... .. . ... ... ... : ... .. . ... ... ... : ... .. . ... ... ... : ... .. . ... ... ...
ROW 59 : --- .. . ... ... ... : ... .. . ... ... ... : ... .. . ... ... ... : ... .. . ... ... ... : ... .. . ... ... ...
ROW 5A : ... .. . ... ... ... : ... .. . ... ... ... : ... .. . ... ... ... : ... .. . ... ... ... : ... .. . ... ... ...
ROW 5B : ... .. . ... ... ... : ... .. . ... ... ... : ... .. . ... ... ... : ... .. . ... ... ... : ... .. . ... ... ...
ROW 5C : ... .. . ... ... ... : ... .. . ... ... ... : ... .. . ... ... ... : ... .. . ... ... ... : ... .. . ... ... ...
ROW 5D : ... .. . ... ... ... : ... .. . ... ... ... : ... .. . ... ... ... : ... .. . ... ... ... : ... .. . ... ... ...
ROW 5E : ... .. . ... ... ... : ... .. . ... ... ... : ... .. . ... ... ... : ... .. . ... ... ... : ... .. . ... ... ...
ROW 5F : ... .. . ... ... ... : ... .. . ... ... ... : ... .. . ... ... ... : ... .. . ... ... ... : ... .. . ... ... ...
ROW 60 : ... .. . ... ... ... : ... .. . ... ... ... : ... .. . ... ... ... : ... .. . ... ... ... : ... .. . ... ... ...
ROW 61 : ... .. . ... ... ... : ... .. . ... ... ... : ... .. . ... ... ... : ... .. . ... ... ... : ... .. . ... ... ...
ROW 62 : ... .. . ... ... ... : ... .. . ... ... ... : ... .. . ... ... ... : ... .. . ... ... ... : ... .. . ... ... ...
ROW 63 : ... .. . ... ... ... : ... .. . ... ... ... : ... .. . ... ... ... : ... .. . ... ... ... : ... .. . ... ... ...
ROW 64 : F-3 01 . ... ... ... : ... .. . ... ... ... : ... .. . ... ... ... : ... .. . ... ... ... : ... .. . ... ... ...
ROW 65 : ... .. . ... ... ... : ... .. . ... ... ... : ... .. . ... ... ... : ... .. . ... ... ... : ... .. . ... ... ...
ROW 66 : ... .. . ... ... ... : ... .. . ... ... ... : ... .. . ... ... ... : ... .. . ... ... ... : ... .. . ... ... ...
ROW 67 : ... .. . ... ... ... : ... .. . ... ... ... : ... .. . ... ... ... : ... .. . ... ... ... : ... .. . ... ... ...
ROW 68 : ... .. . ... ... ... : ... .. . ... ... ... : ... .. . ... ... ... : ... .. . ... ... ... : ... .. . ... ... ...
ROW 69 : ... .. . ... ... ... : ... .. . ... ... ... : ... .. . ... ... ... : ... .. . ... ... ... : ... .. . ... ... ...
ROW 6A : ... .. . ... ... ... : ... .. . ... ... ... : ... .. . ... ... ... : ... .. . ... ... ... : ... .. . ... ... ...
ROW 6B : ... .. . ... ... ... : ... .. . ... ... ... : ... .. . ... ... ... : ... .. . ... ... ... : ... .. . ... ... ...
ROW 6C : ... .. . ... ... ... : ... .. . ... ... ... : ... .. . ... ... ... : ... .. . ... ... ... : ... .. . ... ... ...
ROW 6D : --- .. . ... ... ... : ... .. . ... ... ... : ... .. . ... ... ... : ... .. . ... ... ... : ... .. . ... ... ...
ROW 6E : F-2 01 . ... ... ... : ... .. . ... ... ... : ... .. . ... ... ... : ... .. . ... ... ... : ... .. . ... ... ...
ROW 6F : ... .. . ... ... ... : ... .. . ... ... ... : ... .. . ... ... ... : ... .. . ... ... ... : ... .. . ... ... ...
ROW 70 : ... .. . ... ... ... : ... .. . ... ... ... : ... .. . ... ... ... : ... .. . ... ... ... : ... .. . ... ... ...
ROW 71 : ... .. . ... ... ... : ... .. . ... ... ... : ... .. . ... ... ... : ... .. . ... ... ... : ... .. . ... ... ...
ROW 72 : ... .. . ... ... ... : ... .. . ... ... ... : ... .. . ... ... ... : ... .. . ... ... ... : ... .. . ... ... ...
ROW 73 : ... .. . ... ... ... : ... .. . ... ... ... : ... .. . ... ... ... : ... .. . ... ... ... : ... .. . ... ... ...
ROW 74 : ... .. . ... ... ... : ... .. . ... ... ... : ... .. . ... ... ... : ... .. . ... ... ... : ... .. . ... ... ...
ROW 75 : ... .. . ... ... ... : ... .. . ... ... ... : ... .. . ... ... ... : ... .. . ... ... ... : ... .. . ... ... ...
ROW 76 : ... .. . ... ... ... : ... .. . ... ... ... : ... .. . ... ... ... : ... .. . ... ... ... : ... .. . ... ... ...
ROW 77 : --- .. . ... ... ... : ... .. . ... ... ... : ... .. . ... ... ... : ... .. . ... ... ... : ... .. . ... ... ...
ROW 78 : ... .. . ... ... ... : ... .. . ... ... ... : ... .. . ... ... ... : ... .. . ... ... ... : ... .. . ... ... ...
ROW 79 : ... .. . ... ... ... : ... .. . ... ... ... : ... .. . ... ... ... : ... .. . ... ... ... : ... .. . ... ... ...
ROW 7A : ... .. . ... ... ... : ... .. . ... ... ... : ... .. . ... ... ... : ... .. . ... ... ... : ... .. . ... ... ...
ROW 7B : ... .. . ... ... ... : ... .. . ... ... ... : ... .. . ... ... ... : ... .. . ... ... ... : ... .. . ... ... ...
ROW 7C : ... .. . ... ... ... : ... .. . ... ... ... : ... .. . ... ... ... : ... .. . ... ... ... : ... .. . ... ... ...
ROW 7D : ... .. . ... ... ... : ... .. . ... ... ... : ... .. . ... ... ... : ... .. . ... ... ... : ... .. . ... ... ...
ROW 7E : ... .. . ... ... ... : ... .. . ... ... ... : ... .. . ... ... ... : ... .. . ... ... ... : ... .. . ... ... ...
ROW 7F : ... .. . ... ... ... : ... .. . ... ... ... : ... .. . ... ... ... : ... .. . ... ... ... : ... .. . ... ... ...
ROW 80 : ... .. . ... ... ... : ... .. . ... ... ... : ... .. . ... ... ... : ... .. . ... ... ... : ... .. . ... ... ...
ROW 81 : ... .. . ... ... ... : ... .. . ... ... ... : ... .. . ... ... ... : ... .. . ... ... ... : ... .. . ... ... ...
ROW 82 : F-2 01 . ... ... ... : ... .. . ... ... ... : ... .. . ... ... ... : ... .. . ... ... ... : ... .. . ... ... ...
ROW 83 : ... .. . ... ... ... : ... .. . ... ... ... : ... .. . ... ... ... : ... .. . ... ... ... : ... .. . ... ... ...
ROW 84 : ... .. . ... ... ... : ... .. . ... ... ... : ... .. . ... ... ... : ... .. . ... ... ... : ... .. . ... ... ...
ROW 85 : ... .. . ... ... ... : ... .. . ... ... ... : ... .. . ... ... ... : ... .. . ... ... ... : ... .. . ... ... ...
ROW 86 : ... .. . ... ... ... : ... .. . ... ... ... : ... .. . ... ... ... : ... .. . ... ... ... : ... .. . ... ... ...
ROW 87 : ... .. . ... ... ... : ... .. . ... ... ... : ... .. . ... ... ... : ... .. . ... ... ... : ... .. . ... ... ...
ROW 88 : ... .. . ... ... ... : ... .. . ... ... ... : ... .. . ... ... ... : ... .. . ... ... ... : ... .. . ... ... ...
ROW 89 : ... .. . ... ... ... : ... .. . ... ... ... : ... .. . ... ... ... : ... .. . ... ... ... : ... .. . ... ... ...
ROW 8A : ... .. . ... ... ... : ... .. . ... ... ... : ... .. . ... ... ... : ... .. . ... ... ... : ... .. . ... ... ...
ROW 8B : --- .. . ... ... ... : ... .. . ... ... ... : ... .. . ... ... ... : ... .. . ... ... ... : ... .. . ... ... ...
ROW 8C : G#2 01 . ... ... ... : ... .. . ... ... ... : ... .. . ... ... ... : ... .. . ... ... ... : ... .. . ... ... ...
ROW 8D : ... .. . ... ... ... : ... .. . ... ... ... : ... .. . ... ... ... : ... .. . ... ... ... : ... .. . ... ... ...
ROW 8E : ... .. . ... ... ... : ... .. . ... ... ... : ... .. . ... ... ... : ... .. . ... ... ... : ... .. . ... ... ...
ROW 8F : ... .. . ... ... ... : ... .. . ... ... ... : ... .. . ... ... ... : ... .. . ... ... ... : ... .. . ... ... ...
ROW 90 : ... .. . ... ... ... : ... .. . ... ... ... : ... .. . ... ... ... : ... .. . ... ... ... : ... .. . ... ... ...
ROW 91 : ... .. . ... ... ... : ... .. . ... ... ... : ... .. . ... ... ... : ... .. . ... ... ... : ... .. . ... ... ...
ROW 92 : ... .. . ... ... ... : ... .. . ... ... ... : ... .. . ... ... ... : ... .. . ... ... ... : ... .. . ... ... ...
ROW 93 : ... .. . ... ... ... : ... .. . ... ... ... : ... .. . ... ... ... : ... .. . ... ... ... : ... .. . ... ... ...
ROW 94 : ... .. . ... ... ... : ... .. . ... ... ... : ... .. . ... ... ... : ... .. . ... ... ... : ... .. . ... ... ...
ROW 95 : --- .. . ... ... ... : ... .. . ... ... ... : ... .. . ... ... ... : ... .. . ... ... ... : ... .. . ... ... ...
ROW 96 : A-2 01 . ... ... ... : ... .. . ... ... ... : ... .. . ... ... ... : ... .. . ... ... ... : ... .. . ... ... ...
ROW 97 : ... .. . ... ... ... : ... .. . ... ... ... : ... .. . ... ... ... : ... .. . ... ... ... : ... .. . ... ... ...
ROW 98 : ... .. . ... ... ... : ... .. . ... ... ... : ... .. . ... ... ... : ... .. . ... ... ... : ... .. . ... ... ...
ROW 99 : ... .. . ... ... ... : ... .. . ... ... ... : ... .. . ... ... ... : ... .. . ... ... ... : ... .. . ... ... ...
ROW 9A : ... .. . ... ... ... : ... .. . ... ... ... : ... .. . ... ... ... : ... .. . ... ... ... : ... .. . ... ... ...
ROW 9B : ... .. . ... ... ... : ... .. . ... ... ... : ... .. . ... ... ... : ... .. . ... ... ... : ... .. . ... ... ...
ROW 9C : ... .. . ... ... ... : ... .. . ... ... ... : ... .. . ... ... ... : ... .. . ... ... ... : ... .. . ... ... ...
ROW 9D : ... .. . ... ... ... : ... .. . ... ... ... : ... .. . ... ... ... : ... .. . ... ... ... : ... .. . ... ... ...
ROW 9E : ... .. . ... ... ... : ... .. . ... ... ... : ... .. . ... ... ... : ... .. . ... ... ... : ... .. . ... ... ...
ROW 9F : --- .. . B00 ... ... : ... .. . ... ... ... : ... .. . ... ... ... : ... .. . ... ... ... : ... .. . ... ... ...

PATTERN 16
ROW 00 : ... .. . ... ... ... : G#3 06 . ... ... ... : ... .. . ... ... ... : ... .. . ... ... ... : ... .. . ... ... ...
ROW 01 : ... .. . ... ... ... : ... .. . ... ... ... : ... .. . ... ... ... : ... .. . ... ... ... : ... .. . ... ... ...
ROW 02 : ... .. . ... ... ... : ... .. . ... ... ... : ... .. . ... ... ... : ... .. . ... ... ... : ... .. . ... ... ...
ROW 03 : ... .. . ... ... ... : ... .. . ... ... ... : ... .. . ... ... ... : ... .. . ... ... ... : ... .. . ... ... ...
ROW 04 : ... .. . ... ... ... : ... .. . ... ... ... : ... .. . ... ... ... : ... .. . ... ... ... : ... .. . ... ... ...
ROW 05 : ... .. . ... ... ... : ... .. . ... ... ... : ... .. . ... ... ... : ... .. . ... ... ... : ... .. . ... ... ...
ROW 06 : ... .. . ... ... ... : ... .. . ... ... ... : ... .. . ... ... ... : ... .. . ... ... ... : ... .. . ... ... ...
ROW 07 : ... .. . ... ... ... : ... .. . ... ... ... : ... .. . ... ... ... : ... .. . ... ... ... : ... .. . ... ... ...
ROW 08 : ... .. . ... ... ... : ... .. . ... ... ... : ... .. . ... ... ... : ... .. . ... ... ... : ... .. . ... ... ...
ROW 09 : ... .. . ... ... ... : ... .. . ... ... ... : ... .. . ... ... ... : ... .. . ... ... ... : ... .. . ... ... ...
ROW 0A : ... .. . ... ... ... : ... .. . ... ... ... : ... .. . ... ... ... : ... .. . ... ... ... : ... .. . ... ... ...
ROW 0B : ... .. . ... ... ... : ... .. . ... ... ... : ... .. . ... ... ... : ... .. . ... ... ... : ... .. . ... ... ...
ROW 0C : ... .. . ... ... ... : ... .. . ... ... ... : ... .. . ... ... ... : ... .. . ... ... ... : ... .. . ... ... ...
ROW 0D : ... .. . ... ... ... : ... .. . ... ... ... : ... .. . ... ... ... : ... .. . ... ... ... : ... .. . ... ... ...
ROW 0E : ... .. . ... ... ... : ... .. . ... ... ... : ... .. . ... ... ... : ... .. . ... ... ... : ... .. . ... ... ...
ROW 0F : ... .. . ... ... ... : ... .. . ... ... ... : ... .. . ... ... ... : ... .. . ... ... ... : ... .. . ... ... ...
ROW 10 : ... .. . ... ... ... : ... .. . ... ... ... : ... .. . ... ... ... : ... .. . ... ... ... : ... .. . ... ... ...
ROW 11 : ... .. . ... ... ... : ... .. . ... ... ... : ... .. . ... ... ... : ... .. . ... ... ... : ... .. . ... ... ...
ROW 12 : ... .. . ... ... ... : ... .. . ... ... ... : ... .. . ... ... ... : ... .. . ... ... ... : ... .. . ... ... ...
ROW 13 : ... .. . ... ... ... : ... .. . ... ... ... : ... .. . ... ... ... : ... .. . ... ... ... : ... .. . ... ... ...
ROW 14 : ... .. . ... ... ... : ... .. . ... ... ... : ... .. . ... ... ... : ... .. . ... ... ... : ... .. . ... ... ...
ROW 15 : ... .. . ... ... ... : ... .. . ... ... ... : ... .. . ... ... ... : ... .. . ... ... ... : ... .. . ... ... ...
ROW 16 : ... .. . ... ... ... : ... .. . ... ... ... : ... .. . ... ... ... : ... .. . ... ... ... : ... .. . ... ... ...
ROW 17 : ... .. . ... ... ... : ... .. . ... ... ... : ... .. . ... ... ... : ... .. . ... ... ... : ... .. . ... ... ...
ROW 18 : ... .. . ... ... ... : ... .. . ... ... ... : ... .. . ... ... ... : ... .. . ... ... ... : ... .. . ... ... ...
ROW 19 : ... .. . ... ... ... : ... .. . ... ... ... : ... .. . ... ... ... : ... .. . ... ... ... : ... .. . ... ... ...
ROW 1A : ... .. . ... ... ... : ... .. . ... ... ... : ... .. . ... ... ... : ... .. . ... ... ... : ... .. . ... ... ...
ROW 1B : ... .. . ... ... ... : ... .. . ... ... ... : ... .. . ... ... ... : ... .. . ... ... ... : ... .. . ... ... ...
ROW 1C : ... .. . ... ... ... : ... .. . ... ... ... : ... .. . ... ... ... : ... .. . ... ... ... : ... .. . ... ... ...
ROW 1D : ... .. . ... ... ... : ... .. . ... ... ... : ... .. . ... ... ... : ... .. . ... ... ... : ... .. . ... ... ...
ROW 1E : ... .. . ... ... ... : D#3 06 . ... ... ... : ... .. . ... ... ... : ... .. . ... ... ... : ... .. . ... ... ...
ROW 1F : ... .. . ... ... ... : ... .. . ... ... ... : ... .. . ... ... ... : ... .. . ... ... ... : ... .. . ... ... ...
ROW 20 : ... .. . ... ... ... : ... .. . ... ... ... : ... .. . ... ... ... : ... .. . ... ... ... : ... .. . ... ... ...
ROW 21 : ... .. . ... ... ... : ... .. . ... ... ... : ... .. . ... ... ... : ... .. . ... ... ... : ... .. . ... ... ...
ROW 22 : ... .. . ... ... ... : ... .. . ... ... ... : ... .. . ... ... ... : ... .. . ... ... ... : ... .. . ... ... ...
ROW 23 : ... .. . ... ... ... : ... .. . ... ... ... : ... .. . ... ... ... : ... .. . ... ... ... : ... .. . ... ... ...
ROW 24 : ... .. . ... ... ... : ... .. . ... ... ... : ... .. . ... ... ... : ... .. . ... ... ... : ... .. . ... ... ...
ROW 25 : ... .. . ... ... ... : ... .. . ... ... ... : ... .. . ... ... ... : ... .. . ... ... ... : ... .. . ... ... ...
ROW 26 : ... .. . ... ... ... : ... .. . ... ... ... : ... .. . ... ... ... : ... .. . ... ... ... : ... .. . ... ... ...
ROW 27 : ... .. . ... ... ... : ... .. . ... ... ... : ... .. . ... ... ... : ... .. . ... ... ... : ... .. . ... ... ...
ROW 28 : ... .. . ... ... ... : ... .. . ... ... ... : ... .. . ... ... ... : ... .. . ... ... ... : ... .. . ... ... ...
ROW 29 : ... .. . ... ... ... : ... .. . ... ... ... : ... .. . ... ... ... : ... .. . ... ... ... : ... .. . ... ... ...
ROW 2A : ... .. . ... ... ... : ... .. . ... ... ... : ... .. . ... ... ... : ... .. . ... ... ... : ... .. . ... ... ...
ROW 2B : ... .. . ... ... ... : ... .. . ... ... ... : ... .. . ... ... ... : ... .. . ... ... ... : ... .. . ... ... ...
ROW 2C : ... .. . ... ... ... : ... .. . ... ... ... : ... .. . ... ... ... : ... .. . ... ... ... : ... .. . ... ... ...
ROW 2D : ... .. . ... ... ... : ... .. . ... ... ... : ... .. . ... ... ... : ... .. . ... ... ... : ... .. . ... ... ...
ROW 2E : ... .. . ... ... ... : ... .. . ... ... ... : ... .. . ... ... ... : ... .. . ... ... ... : ... .. . ... ... ...
ROW 2F : ... .. . ... ... ... : ... .. . ... ... ... : ... .. . ... ... ... : ... .. . ... ... ... : ... .. . ... ... ...
ROW 30 : ... .. . ... ... ... : ... .. . ... ... ... : ... .. . ... ... ... : ... .. . ... ... ... : ... .. . ... ... ...
ROW 31 : ... .. . ... ... ... : ... .. . ... ... ... : ... .. . ... ... ... : ... .. . ... ... ... : ... .. . ... ... ...
ROW 32 : ... .. . ... ... ... : ... .. . ... ... ... : ... .. . ... ... ... : ... .. . ... ... ... : ... .. . ... ... ...
ROW 33 : ... .. . ... ... ... : ... .. . ... ... ... : ... .. . ... ... ... : ... .. . ... ... ... : ... .. . ... ... ...
ROW 34 : ... .. . ... ... ... : ... .. . ... ... ... : ... .. . ... ... ... : ... .. . ... ... ... : ... .. . ... ... ...
ROW 35 : ... .. . ... ... ... : ... .. . ... ... ... : ... .. . ... ... ... : ... .. . ... ... ... : ... .. . ... ... ...
ROW 36 : ... .. . ... ... ... : ... .. . ... ... ... : ... .. . ... ... ... : ... .. . ... ... ... : ... .. . ... ... ...
ROW 37 : ... .. . ... ... ... : ... .. . ... ... ... : ... .. . ... ... ... : ... .. . ... ... ... : ... .. . ... ... ...
ROW 38 : ... .. . ... ... ... : ... .. . ... ... ... : ... .. . ... ... ... : ... .. . ... ... ... : ... .. . ... ... ...
ROW 39 : ... .. . ... ... ... : ... .. . ... ... ... : ... .. . ... ... ... : ... .. . ... ... ... : ... .. . ... ... ...
ROW 3A : ... .. . ... ... ... : ... .. . ... ... ... : ... .. . ... ... ... : ... .. . ... ... ... : ... .. . ... ... ...
ROW 3B : ... .. . ... ... ... : ... .. . ... ... ... : ... .. . ... ... ... : ... .. . ... ... ... : ... .. . ... ... ...
ROW 3C : ... .. . ... ... ... : C-3 06 . ... ... ... : ... .. . ... ... ... : ... .. . ... ... ... : ... .. . ... ... ...
ROW 3D : ... .. . ... ... ... : ... .. . ... ... ... : ... .. . ... ... ... : ... .. . ... ... ... : ... .. . ... ... ...
ROW 3E : ... .. . ... ... ... : ... .. . ... ... ... : ... .. . ... ... ... : ... .. . ... ... ... : ... .. . ... ... ...
ROW 3F : ... .. . ... ... ... : ... .. . ... ... ... : ... .. . ... ... ... : ... .. . ... ... ... : ... .. . ... ... ...
ROW 40 : ... .. . ... ... ... : ... .. . ... ... ... : ... .. . ... ... ... : ... .. . ... ... ... : ... .. . ... ... ...
ROW 41 : ... .. . ... ... ... : ... .. . ... ... ... : ... .. . ... ... ... : ... .. . ... ... ... : ... .. . ... ... ...
ROW 42 : ... .. . ... ... ... : ... .. . ... ... ... : ... .. . ... ... ... : ... .. . ... ... ... : ... .. . ... ... ...
ROW 43 : ... .. . ... ... ... : ... .. . ... ... ... : ... .. . ... ... ... : ... .. . ... ... ... : ... .. . ... ... ...
ROW 44 : ... .. . ... ... ... : ... .. . ... ... ... : ... .. . ... ... ... : ... .. . ... ... ... : ... .. . ... ... ...
ROW 45 : ... .. . ... ... ... : ... .. . ... ... ... : ... .. . ... ... ... : ... .. . ... ... ... : ... .. . ... ... ...
ROW 46 : ... .. . ... ... ... : ... .. . ... ... ... : ... .. . ... ... ... : ... .. . ... ... ... : ... .. . ... ... ...
ROW 47 : ... .. . ... ... ... : ... .. . ... ... ... : ... .. . ... ... ... : ... .. . ... ... ... : ... .. . ... ... ...
ROW 48 : ... .. . ... ... ... : ... .. . ... ... ... : ... .. . ... ... ... : ... .. . ... ... ... : ... .. . ... ... ...
ROW 49 : ... .. . ... ... ... : ... .. . ... ... ... : ... .. . ... ... ... : ... .. . ... ... ... : ... .. . ... ... ...
ROW 4A : ... .. . ... ... ... : ... .. . ... ... ... : ... .. . ... ... ... : ... .. . ... ... ... : ... .. . ... ... ...
ROW 4B : ... .. . ... ... ... : ... .. . ... ... ... : ... .. . ... ... ... : ... .. . ... ... ... : ... .. . ... ... ...
ROW 4C : ... .. . ... ... ... : ... .. . ... ... ... : ... .. . ... ... ... : ... .. . ... ... ... : ... .. . ... ... ...
ROW 4D : ... .. . ... ... ... : ... .. . ... ... ... : ... .. . ... ... ... : ... .. . ... ... ... : ... .. . ... ... ...
ROW 4E : ... .. . ... ... ... : ... .. . ... ... ... : ... .. . ... ... ... : ... .. . ... ... ... : ... .. . ... ... ...
ROW 4F : ... .. . ... ... ... : ... .. . ... ... ... : ... .. . ... ... ... : ... .. . ... ... ... : ... .. . ... ... ...
ROW 50 : ... .. . ... ... ... : A#2 06 . ... ... ... : ... .. . ... ... ... : ... .. . ... ... ... : ... .. . ... ... ...
ROW 51 : ... .. . ... ... ... : ... .. . ... ... ... : ... .. . ... ... ... : ... .. . ... ... ... : ... .. . ... ... ...
ROW 52 : ... .. . ... ... ... : ... .. . ... ... ... : ... .. . ... ... ... : ... .. . ... ... ... : ... .. . ... ... ...
ROW 53 : ... .. . ... ... ... : ... .. . ... ... ... : ... .. . ... ... ... : ... .. . ... ... ... : ... .. . ... ... ...
ROW 54 : ... .. . ... ... ... : ... .. . ... ... ... : ... .. . ... ... ... : ... .. . ... ... ... : ... .. . ... ... ...
ROW 55 : ... .. . ... ... ... : ... .. . ... ... ... : ... .. . ... ... ... : ... .. . ... ... ... : ... .. . ... ... ...
ROW 56 : ... .. . ... ... ... : ... .. . ... ... ... : ... .. . ... ... ... : ... .. . ... ... ... : ... .. . ... ... ...
ROW 57 : ... .. . ... ... ... : ... .. . ... ... ... : ... .. . ... ... ... : ... .. . ... ... ... : ... .. . ... ... ...
ROW 58 : ... .. . ... ... ... : ... .. . ... ... ... : ... .. . ... ... ... : ... .. . ... ... ... : ... .. . ... ... ...
ROW 59 : ... .. . ... ... ... : ... .. . ... ... ... : ... .. . ... ... ... : ... .. . ... ... ... : ... .. . ... ... ...
ROW 5A : ... .. . ... ... ... : ... .. . ... ... ... : ... .. . ... ... ... : ... .. . ... ... ... : ... .. . ... ... ...
ROW 5B : ... .. . ... ... ... : ... .. . ... ... ... : ... .. . ... ... ... : ... .. . ... ... ... : ... .. . ... ... ...
ROW 5C : ... .. . ... ... ... : ... .. . ... ... ... : ... .. . ... ... ... : ... .. . ... ... ... : ... .. . ... ... ...
ROW 5D : ... .. . ... ... ... : ... .. . ... ... ... : ... .. . ... ... ... : ... .. . ... ... ... : ... .. . ... ... ...
ROW 5E : ... .. . ... ... ... : ... .. . ... ... ... : ... .. . ... ... ... : ... .. . ... ... ... : ... .. . ... ... ...
ROW 5F : ... .. . ... ... ... : ... .. . ... ... ... : ... .. . ... ... ... : ... .. . ... ... ... : ... .. . ... ... ...
ROW 60 : ... .. . ... ... ... : ... .. . ... ... ... : ... .. . ... ... ... : ... .. . ... ... ... : ... .. . ... ... ...
ROW 61 : ... .. . ... ... ... : ... .. . ... ... ... : ... .. . ... ... ... : ... .. . ... ... ... : ... .. . ... ... ...
ROW 62 : ... .. . ... ... ... : ... .. . ... ... ... : ... .. . ... ... ... : ... .. . ... ... ... : ... .. . ... ... ...
ROW 63 : ... .. . ... ... ... : ... .. . ... ... ... : ... .. . ... ... ... : ... .. . ... ... ... : ... .. . ... ... ...
ROW 64 : ... .. . ... ... ... : ... .. . ... ... ... : ... .. . ... ... ... : ... .. . ... ... ... : ... .. . ... ... ...
ROW 65 : ... .. . ... ... ... : ... .. . ... ... ... : ... .. . ... ... ... : ... .. . ... ... ... : ... .. . ... ... ...
ROW 66 : ... .. . ... ... ... : ... .. . ... ... ... : ... .. . ... ... ... : ... .. . ... ... ... : ... .. . ... ... ...
ROW 67 : ... .. . ... ... ... : ... .. . ... ... ... : ... .. . ... ... ... : ... .. . ... ... ... : ... .. . ... ... ...
ROW 68 : ... .. . ... ... ... : ... .. . ... ... ... : ... .. . ... ... ... : ... .. . ... ... ... : ... .. . ... ... ...
ROW 69 : ... .. . ... ... ... : ... .. . ... ... ... : ... .. . ... ... ... : ... .. . ... ... ... : ... .. . ... ... ...
ROW 6A : ... .. . ... ... ... : ... .. . ... ... ... : ... .. . ... ... ... : ... .. . ... ... ... : ... .. . ... ... ...
ROW 6B : ... .. . ... ... ... : ... .. . ... ... ... : ... .. . ... ... ... : ... .. . ... ... ... : ... .. . ... ... ...
ROW 6C : ... .. . ... ... ... : ... .. . ... ... ... : ... .. . ... ... ... : ... .. . ... ... ... : ... .. . ... ... ...
ROW 6D : ... .. . ... ... ... : ... .. . ... ... ... : ... .. . ... ... ... : ... .. . ... ... ... : ... .. . ... ... ...
ROW 6E : ... .. . ... ... ... : ... .. . ... ... ... : ... .. . ... ... ... : ... .. . ... ... ... : ... .. . ... ... ...
ROW 6F : ... .. . ... ... ... : ... .. . ... ... ... : ... .. . ... ... ... : ... .. . ... ... ... : ... .. . ... ... ...
ROW 70 : ... .. . ... ... ... : ... .. . ... ... ... : ... .. . ... ... ... : ... .. . ... ... ... : ... .. . ... ... ...
ROW 71 : ... .. . ... ... ... : ... .. . ... ... ... : ... .. . ... ... ... : ... .. . ... ... ... : ... .. . ... ... ...
ROW 72 : ... .. . ... ... ... : ... .. . ... ... ... : ... .. . ... ... ... : ... .. . ... ... ... : ... .. . ... ... ...
ROW 73 : ... .. . ... ... ... : ... .. . ... ... ... : ... .. . ... ... ... : ... .. . ... ... ... : ... .. . ... ... ...
ROW 74 : ... .. . ... ... ... : ... .. . ... ... ... : ... .. . ... ... ... : ... .. . ... ... ... : ... .. . ... ... ...
ROW 75 : ... .. . ... ... ... : ... .. . ... ... ... : ... .. . ... ... ... : ... .. . ... ... ... : ... .. . ... ... ...
ROW 76 : ... .. . ... ... ... : ... .. . ... ... ... : ... .. . ... ... ... : ... .. . ... ... ... : ... .. . ... ... ...
ROW 77 : ... .. . ... ... ... : ... .. . ... ... ... : ... .. . ... ... ... : ... .. . ... ... ... : ... .. . ... ... ...
ROW 78 : ... .. . ... ... ... : ... .. . ... ... ... : ... .. . ... ... ... : ... .. . ... ... ... : ... .. . ... ... ...
ROW 79 : ... .. . ... ... ... : ... .. . ... ... ... : ... .. . ... ... ... : ... .. . ... ... ... : ... .. . ... ... ...
ROW 7A : ... .. . ... ... ... : ... .. . ... ... ... : ... .. . ... ... ... : ... .. . ... ... ... : ... .. . ... ... ...
ROW 7B : ... .. . ... ... ... : ... .. . ... ... ... : ... .. . ... ... ... : ... .. . ... ... ... : ... .. . ... ... ...
ROW 7C : ... .. . ... ... ... : ... .. . ... ... ... : ... .. . ... ... ... : ... .. . ... ... ... : ... .. . ... ... ...
ROW 7D : ... .. . ... ... ... : ... .. . ... ... ... : ... .. . ... ... ... : ... .. . ... ... ... : ... .. . ... ... ...
ROW 7E : ... .. . ... ... ... : ... .. . ... ... ... : ... .. . ... ... ... : ... .. . ... ... ... : ... .. . ... ... ...
ROW 7F : ... .. . ... ... ... : ... .. . ... ... ... : ... .. . ... ... ... : ... .. . ... ... ... : ... .. . ... ... ...
ROW 80 : ... .. . ... ... ... : ... .. . ... ... ... : ... .. . ... ... ... : ... .. . ... ... ... : ... .. . ... ... ...
ROW 81 : ... .. . ... ... ... : ... .. . ... ... ... : ... .. . ... ... ... : ... .. . ... ... ... : ... .. . ... ... ...
ROW 82 : ... .. . ... ... ... : ... .. . ... ... ... : ... .. . ... ... ... : ... .. . ... ... ... : ... .. . ... ... ...
ROW 83 : ... .. . ... ... ... : ... .. . ... ... ... : ... .. . ... ... ... : ... .. . ... ... ... : ... .. . ... ... ...
ROW 84 : ... .. . ... ... ... : ... .. . ... ... ... : ... .. . ... ... ... : ... .. . ... ... ... : ... .. . ... ... ...
ROW 85 : ... .. . ... ... ... : ... .. . ... ... ... : ... .. . ... ... ... : ... .. . ... ... ... : ... .. . ... ... ...
ROW 86 : ... .. . ... ... ... : ... .. . ... ... ... : ... .. . ... ... ... : ... .. . ... ... ... : ... .. . ... ... ...
ROW 87 : ... .. . ... ... ... : ... .. . ... ... ... : ... .. . ... ... ... : ... .. . ... ... ... : ... .. . ... ... ...
ROW 88 : ... .. . ... ... ... : ... .. . ... ... ... : ... .. . ... ... ... : ... .. . ... ... ... : ... .. . ... ... ...
ROW 89 : ... .. . ... ... ... : ... .. . ... ... ... : ... .. . ... ... ... : ... .. . ... ... ... : ... .. . ... ... ...
ROW 8A : ... .. . ... ... ... : ... .. . ... ... ... : ... .. . ... ... ... : ... .. . ... ... ... : ... .. . ... ... ...
ROW 8B : ... .. . ... ... ... : ... .. . ... ... ... : ... .. . ... ... ... : ... .. . ... ... ... : ... .. . ... ... ...
ROW 8C : ... .. . ... ... ... : ... .. . ... ... ... : ... .. . ... ... ... : ... .. . ... ... ... : ... .. . ... ... ...
ROW 8D : ... .. . ... ... ... : ... .. . ... ... ... : ... .. . ... ... ... : ... .. . ... ... ... : ... .. . ... ... ...
ROW 8E : ... .. . ... ... ... : ... .. . ... ... ... : ... .. . ... ... ... : ... .. . ... ... ... : ... .. . ... ... ...
ROW 8F : ... .. . ... ... ... : ... .. . ... ... ... : ... .. . ... ... ... : ... .. . ... ... ... : ... .. . ... ... ...
ROW 90 : ... .. . ... ... ... : ... .. . ... ... ... : ... .. . ... ... ... : ... .. . ... ... ... : ... .. . ... ... ...
ROW 91 : ... .. . ... ... ... : ... .. . ... ... ... : ... .. . ... ... ... : ... .. . ... ... ... : ... .. . ... ... ...
ROW 92 : ... .. . ... ... ... : ... .. . ... ... ... : ... .. . ... ... ... : ... .. . ... ... ... : ... .. . ... ... ...
ROW 93 : ... .. . ... ... ... : ... .. . ... ... ... : ... .. . ... ... ... : ... .. . ... ... ... : ... .. . ... ... ...
ROW 94 : ... .. . ... ... ... : ... .. . ... ... ... : ... .. . ... ... ... : ... .. . ... ... ... : ... .. . ... ... ...
ROW 95 : ... .. . ... ... ... : ... .. . ... ... ... : ... .. . ... ... ... : ... .. . ... ... ... : ... .. . ... ... ...
ROW 96 : ... .. . ... ... ... : ... .. . ... ... ... : ... .. . ... ... ... : ... .. . ... ... ... : ... .. . ... ... ...
ROW 97 : ... .. . ... ... ... : ... .. . ... ... ... : ... .. . ... ... ... : ... .. . ... ... ... : ... .. . ... ... ...
ROW 98 : ... .. . ... ... ... : ... .. . ... ... ... : ... .. . ... ... ... : ... .. . ... ... ... : ... .. . ... ... ...
ROW 99 : ... .. . ... ... ... : ... .. . ... ... ... : ... .. . ... ... ... : ... .. . ... ... ... : ... .. . ... ... ...
ROW 9A : ... .. . ... ... ... : ... .. . ... ... ... : ... .. . ... ... ... : ... .. . ... ... ... : ... .. . ... ... ...
ROW 9B : ... .. . ... ... ... : ... .. . ... ... ... : ... .. . ... ... ... : ... .. . ... ... ... : ... .. . ... ... ...
ROW 9C : ... .. . ... ... ... : ... .. . ... ... ... : ... .. . ... ... ... : ... .. . ... ... ... : ... .. . ... ... ...
ROW 9D : ... .. . ... ... ... : ... .. . ... ... ... : ... .. . ... ... ... : ... .. . ... ... ... : ... .. . ... ... ...
ROW 9E : ... .. . ... ... ... : ... .. . ... ... ... : ... .. . ... ... ... : ... .. . ... ... ... : ... .. . ... ... ...
ROW 9F : ... .. . ... ... ... : === 0A . B00 ... ... : ... .. . ... ... ... : ... .. . ... ... ... : ... .. . ... ... ...

# End of export
