# FamiTracker text export 0.4.2

# Song information
TITLE           "Untitled"
AUTHOR          "Unknown"
COPYRIGHT       ""

# Song comment
COMMENT ""

# Global settings
MACHINE         1
FRAMERATE       0
EXPANSION       0
VIBRATO         1
SPLIT           21

# Macros

# DPCM samples
DPCMDEF   0   257 "ripped00.dmc"
DPCM : 3F F8 03 00 C0 FF FF 3F 81 04 88 07 00 80 FE FF FF 33 C3 FE FD 07 06 00 C0 21 1F 40 FF FF 39 F8
DPCM : 03 F9 1F 00 00 1E F8 FF 03 3E F8 FF 1F 00 00 E0 DF C3 03 08 FE FF 1F 00 60 E8 7F FE 00 C0 1D FE
DPCM : 1F FE 67 3F 00 06 00 00 EF 91 F9 93 FF BF 03 87 EF E1 0A 00 00 FF 1F C9 04 E0 FF FF 01 0C E0 DF
DPCM : E3 03 C0 81 FF FF 07 C0 F8 F0 1A 62 60 F8 DC E7 C2 42 68 EC D3 79 30 78 F0 3E F8 0F F3 C3 FB 20
DPCM : C1 20 12 F0 7C 1C 24 7B E3 FF EC 05 F7 38 32 43 60 30 5E 37 C7 B0 7C 9C 1B 99 5C 38 CE F9 1C 90
DPCM : 31 FE 8B 77 70 32 B8 1C 38 96 3A 66 7B 2C 9C 99 4B 0C 3B BE 20 DC FC 38 CE 1F F1 3C 30 0F 3C 43
DPCM : E4 81 0F 70 42 FF F1 C7 07 F3 29 38 CD 98 C3 8F A1 07 78 96 DE 83 1D C3 7C 88 0F 7A 18 76 3F F6
DPCM : C0 84 4D 3A 6B 6C C8 6F F0 01 7D B1 EB 43 D8 C1 B3 63 00 4E C3 FE C7 8F 78 55 55 55 55 55 55 55
DPCM : 57
DPCMDEF   1   465 "ripped01.dmc"
DPCM : 57 39 39 38 A3 25 80 FD FF F3 FF B3 01 00 C0 00 DE 3E 9F FF D9 40 78 E4 B2 15 33 39 0C 93 32 E2
DPCM : 0C 87 EB F3 6F 7E 8B 79 EC 58 2C 01 80 04 89 83 F3 03 FE FD E1 E9 C3 07 1E C0 81 23 F9 E1 C8 19
DPCM : 67 33 F7 F1 FF E1 FF C3 39 77 66 1C C4 84 C7 C0 03 A4 A0 02 18 20 82 4A CC 48 E6 D8 ED CE B7 9C
DPCM : 7B F6 58 8E CB EF CC 61 9A 2D 9B 8F A9 6A C6 F1 1C 3F FE CD 9F ED 26 93 35 C9 B0 87 18 11 11 9C
DPCM : 80 0C 80 88 40 98 D9 88 E1 B0 93 24 DE B9 F3 BD CF 71 F3 92 6F CC 5D 6C A6 89 A9 27 3C B2 E8 39
DPCM : 79 27 9E 53 76 26 FE F0 1C 8F 36 63 34 C7 D9 99 0C 43 C6 E6 79 98 67 CC 66 E2 19 C7 92 67 99 0F
DPCM : BB 88 B5 19 63 1A 20 63 80 41 73 98 8C C9 32 86 EF F0 6E 9A C9 88 79 66 4E CD D8 6C CC 9C B9 4A
DPCM : BB 89 79 AA 26 1F CF DA 49 67 F6 98 D3 F8 E6 18 B6 A3 39 4E 47 22 57 AE C4 27 32 96 0D B7 33 0D
DPCM : 73 9E 91 6A E8 CC 8E 31 E3 51 B6 30 E3 A4 85 63 99 B1 C6 81 87 33 8D 39 33 78 A3 23 73 8F EC 98
DPCM : EC 08 EB 54 CC 1C 8D CD 71 69 1C 6B AE 8B 9E B3 99 8B CD D9 31 2B 7C 8C 2D 9B 96 C7 78 C6 D8 46
DPCM : 86 4E 78 26 37 13 3B 69 23 93 C3 2B D6 16 1D 39 4C 96 33 4A 1A 6F D8 0C 9B 38 33 53 8A 33 67 F3
DPCM : 99 39 9B B1 C5 4A 4E 2D 3C 55 8E 65 AE 31 79 EE 38 73 CC 66 96 B9 31 B1 45 66 76 9C 39 6D 9C 38
DPCM : CE 98 4C 1C 67 78 A4 A3 09 73 8B 19 36 2D 67 32 4E CD 70 63 4E 5B 78 E4 18 1E 9B 71 2A 37 71 4C
DPCM : 9B 75 B9 96 0B 73 8E E1 71 CE DA 98 F1 9C 66 69 96 39 6D 8D 53 8C 66 AC 62 E3 9C D9 4C 9C 9C 6A
DPCM : CE 99 C8 99 8C 33 D3 18 C6 A9 54 39 53 35 AE AA 55
DPCMDEF   2   177 "ripped02.dmc"
DPCM : 2B 00 A4 95 85 F6 D6 B6 AC 8C C3 FF FF FF F9 7B 4B 8A 24 12 25 49 12 21 12 09 00 00 C0 0C 7A 84
DPCM : 07 C7 E2 F0 F0 87 FF FF 7D EA F3 79 DD 9B DB F6 DB 2D E7 1D 3B 3C 74 F5 AC 3E 7C 79 A4 9A A4 29
DPCM : A5 81 52 50 44 42 42 82 42 44 42 42 22 92 50 52 12 00 00 00 00 00 00 5B DB DA 6D DB 6D B7 6D D7
DPCM : BB ED BA 6D D7 B6 56 5B AD 55 AB 55 2D 2D B5 94 55 A9 A9 A1 AA 34 49 AA A4 12 55 A5 26 A9 8A 52
DPCM : A5 52 A9 45 2B 95 AA 2A 55 2D B5 CA AA AC AA 5A 2A AB AA AA 56 55 2D 55 55 A9 55 55 D5 AA AA 6A
DPCM : 55 55 55 55 55 55 55 55 55 55 55 55 55 55 55 55 55
DPCMDEF   3   305 "ripped03.dmc"
DPCM : FF 47 90 13 3A F8 C0 07 00 60 BC F6 A3 9F F8 03 3F E0 2F FC FB FF 13 A3 00 F8 80 3F E8 03 04 0A
DPCM : AA 03 4B 62 E1 F1 FE 17 FB FC CF BB 67 80 F8 80 FF 84 3F 88 30 04 80 C0 1C 9E 47 CF 1B B9 43 7C
DPCM : C7 FB 9E FB F1 F0 60 0F 07 71 64 38 1B CC C1 3B 18 3C 00 69 C0 3B F2 6F F6 73 4F F8 87 38 BE 2F
DPCM : FC 87 E1 68 38 1C C0 03 9C 88 C2 03 F0 9C 31 1F F3 87 FB C7 FF BB 2C A7 2C 75 E4 01 F1 38 A0 03
DPCM : 1E 61 82 42 C1 6D 7E 1C CF F3 73 E6 EE B1 67 87 CB 98 06 3E D0 62 9C 19 3C E4 04 0E D3 31 BC 72
DPCM : 5C D7 C7 9E E6 B8 BC 91 E6 A6 32 0F E6 90 3D 28 8A C3 13 8E 78 E2 0E 72 CD 89 CD 1D E7 C9 B7 BC
DPCM : BC 71 CC 2C 16 56 2C EA 44 0E 71 11 CE 28 EC F0 D8 07 F7 98 C7 B3 9B F3 9C 0F C7 83 33 3C 83 82
DPCM : 0F 8C 63 88 67 78 E4 E8 03 3F EC 3C CE E3 B8 5E 16 C7 38 E6 A1 69 1D F2 18 8B 91 1E 8C F3 88 8F
DPCM : C2 E3 87 1B 8F 71 B6 78 1C 8F 79 38 34 B3 A4 2E F1 19 46 2D 9C 83 99 39 BA 71 F8 74 AC 8D A7 93
DPCM : 3C 89 E7 60 B7 8C 3A 4B 59 1C CE 61 5C 72 9C 52 55

# Instruments
INST2A03   0    -1  -1  -1  -1  -1 "blank"
KEYDPCM   0   0   0     0  15   0     0  -1
KEYDPCM   0   0   1     1  15   0     0  -1
KEYDPCM   0   0   2     2  15   0     0  -1
KEYDPCM   0   0   3     3  15   0     0  -1

# Tracks

TRACK 256   1 125 "New song"
COLUMNS : 3 3 1 1 2

ORDER 00 : 00 00 00 00 00
ORDER 01 : 01 01 01 01 01
ORDER 02 : 02 02 02 02 02
ORDER 03 : 03 03 03 03 03
ORDER 04 : 04 04 04 04 04
ORDER 05 : 05 05 05 05 05
ORDER 06 : 06 06 06 06 06
ORDER 07 : 07 07 07 07 07
ORDER 08 : 08 08 08 08 08
ORDER 09 : 09 09 09 09 09
ORDER 0A : 0A 0A 0A 0A 0A
ORDER 0B : 0B 0B 0B 0B 0B
ORDER 0C : 0C 0C 0C 0C 0C
ORDER 0D : 0D 0D 0D 0D 0D
ORDER 0E : 0E 0E 0E 0E 0E
ORDER 0F : 0F 0F 0F 0F 0F
ORDER 10 : 10 10 10 10 10
ORDER 11 : 11 11 11 11 11
ORDER 12 : 12 12 12 12 12
ORDER 13 : 13 13 13 13 13
ORDER 14 : 14 14 14 14 14
ORDER 15 : 15 15 15 15 15
ORDER 16 : 16 16 16 16 16
ORDER 17 : 17 17 17 17 17

PATTERN 00
ROW 00 : G-1 00 D P8A V02 ... : B-2 00 9 P80 V02 ... : B-3 00 . P80 : F-# 00 0 V00 : === 00 . ... ...
ROW 01 : B-1 00 E P80 ... ... : ... .. B ... ... ... : ... .. . ... : ... .. . ... : ... .. . ... ...
ROW 02 : ... .. C ... ... ... : ... .. . ... ... ... : ... .. . ... : ... .. . ... : ... .. . ... ...
ROW 03 : ... .. B ... ... ... : ... .. . ... ... ... : ... .. . ... : ... .. . ... : ... .. . ... ...
ROW 04 : ... .. A ... ... ... : ... .. . ... ... ... : ... .. . ... : ... .. . ... : ... .. . ... ...
ROW 05 : ... .. 0 ... ... ... : ... .. . ... ... ... : ... .. . ... : ... .. . ... : ... .. . ... ...
ROW 06 : G-1 00 D P8A ... ... : ... .. . ... ... ... : ... .. . ... : ... .. . ... : ... .. . ... ...
ROW 07 : B-1 00 E P80 ... ... : ... .. . ... ... ... : ... .. . ... : ... .. . ... : ... .. . ... ...
ROW 08 : ... .. C ... ... ... : ... .. . ... ... ... : ... .. . ... : ... .. . ... : ... .. . ... ...
ROW 09 : ... .. B ... ... ... : ... .. . ... ... ... : ... .. . ... : ... .. . ... : ... .. . ... ...
ROW 0A : ... .. A ... ... ... : ... .. . ... ... ... : ... .. . ... : ... .. . ... : ... .. . ... ...
ROW 0B : ... .. 0 ... ... ... : ... .. . P81 ... ... : ... .. . ... : ... .. . ... : ... .. . ... ...
ROW 0C : G-1 00 D P8A ... ... : ... .. . ... ... ... : ... .. . ... : ... .. . ... : ... .. . ... ...
ROW 0D : B-1 00 E P80 ... ... : ... .. . ... ... ... : ... .. . ... : ... .. . ... : ... .. . ... ...
ROW 0E : ... .. C ... ... ... : ... .. . P80 ... ... : ... .. . ... : ... .. . ... : ... .. . ... ...
ROW 0F : ... .. B ... ... ... : ... .. . P7F ... ... : ... .. . ... : ... .. . ... : ... .. . ... ...
ROW 10 : ... .. A ... ... ... : ... .. . ... ... ... : ... .. . ... : ... .. . ... : ... .. . ... ...
ROW 11 : ... .. 9 ... ... ... : ... .. . ... ... ... : ... .. . ... : ... .. . ... : ... .. . ... ...
ROW 12 : ... .. . ... ... ... : ... .. . P80 ... ... : ... .. . ... : ... .. . ... : ... .. . ... ...
ROW 13 : ... .. . ... ... ... : ... .. . P81 ... ... : ... .. . ... : ... .. . ... : ... .. . ... ...
ROW 14 : ... .. . ... ... ... : ... .. . ... ... ... : ... .. . ... : ... .. . ... : ... .. . ... ...
ROW 15 : ... .. . ... ... ... : ... .. . ... ... ... : ... .. . ... : ... .. . ... : ... .. . ... ...
ROW 16 : ... .. . ... ... ... : ... .. A P80 ... ... : ... .. . ... : ... .. . ... : ... .. . ... ...
ROW 17 : ... .. . ... ... ... : ... .. . P7F ... ... : ... .. . ... : ... .. . ... : ... .. . ... ...
ROW 18 : ... .. . ... ... ... : ... .. . ... ... ... : ... .. . ... : C-# 00 F ... : ... .. . ... ...
ROW 19 : ... .. . ... ... ... : ... .. 9 P80 ... ... : ... .. . ... : ... .. . ... : ... .. . ... ...
ROW 1A : ... .. . ... ... ... : ... .. . P81 ... ... : ... .. . ... : ... .. 0 ... : ... .. . ... ...
ROW 1B : ... .. . ... ... ... : ... .. 8 ... ... ... : ... .. . ... : ... .. . ... : ... .. . ... ...
ROW 1C : ... .. . ... ... ... : ... .. . ... ... ... : ... .. . ... : ... .. . ... : ... .. . ... ...
ROW 1D : ... .. . ... ... ... : ... .. . ... ... ... : ... .. . ... : ... .. . ... : ... .. . ... ...
ROW 1E : ... .. . ... ... ... : ... .. 7 P80 ... ... : ... .. . ... : ... .. . ... : ... .. . ... ...
ROW 1F : ... .. . ... ... ... : ... .. . P7F ... ... : ... .. . ... : ... .. . ... : ... .. . ... ...
ROW 20 : ... .. . ... ... ... : ... .. 6 ... ... ... : ... .. . ... : ... .. . ... : ... .. . ... ...
ROW 21 : ... .. . ... ... ... : ... .. . P80 ... ... : ... .. . ... : ... .. . ... : ... .. . ... ...
ROW 22 : ... .. . ... ... ... : ... .. . P81 ... ... : ... .. . ... : ... .. . ... : ... .. . ... ...
ROW 23 : ... .. . ... ... ... : ... .. . ... ... ... : ... .. . ... : ... .. . ... : ... .. . ... ...
ROW 24 : ... .. . ... ... ... : ... .. . P80 ... ... : ... .. . ... : ... .. . ... : ... .. . ... ...
ROW 25 : ... .. . ... ... ... : ... .. . P7F ... ... : ... .. . ... : ... .. . ... : ... .. . ... ...
ROW 26 : ... .. . ... ... ... : ... .. . ... ... ... : ... .. . ... : ... .. . ... : ... .. . ... ...
ROW 27 : ... .. . ... ... ... : ... .. . ... ... ... : ... .. . ... : ... .. . ... : ... .. . ... ...
ROW 28 : ... .. . ... ... ... : ... .. . P80 ... ... : ... .. . ... : ... .. . ... : ... .. . ... ...
ROW 29 : ... .. . ... ... ... : ... .. . P81 ... ... : ... .. . ... : ... .. . ... : ... .. . ... ...
ROW 2A : ... .. . ... ... ... : ... .. . ... ... ... : ... .. . ... : ... .. . ... : ... .. . ... ...
ROW 2B : ... .. . ... ... ... : ... .. . ... ... ... : ... .. . ... : ... .. . ... : ... .. . ... ...
ROW 2C : ... .. . ... ... ... : ... .. . P80 ... ... : ... .. . ... : ... .. . ... : ... .. . ... ...
ROW 2D : ... .. . ... ... ... : ... .. . P7F ... ... : ... .. . ... : ... .. . ... : ... .. . ... ...
ROW 2E : ... .. . ... ... ... : ... .. . ... ... ... : ... .. . ... : ... .. . ... : ... .. . ... ...
ROW 2F : ... .. . ... ... ... : F#4 00 9 P80 ... ... : ... .. . ... : ... .. . ... : ... .. . ... ...
ROW 30 : ... .. . ... ... ... : ... .. B ... ... ... : ... .. . ... : ... .. . ... : ... .. . ... ...
ROW 31 : ... .. . ... ... ... : ... .. . ... ... ... : ... .. . ... : ... .. . ... : ... .. . ... ...
ROW 32 : ... .. . ... ... ... : ... .. . ... ... ... : ... .. . ... : ... .. . ... : ... .. . ... ...
ROW 33 : ... .. . ... ... ... : ... .. . ... ... ... : ... .. . ... : ... .. . ... : ... .. . ... ...
ROW 34 : ... .. . ... ... ... : ... .. . ... ... ... : ... .. . ... : ... .. . ... : ... .. . ... ...
ROW 35 : ... .. . ... ... ... : ... .. . ... ... ... : ... .. . ... : ... .. . ... : ... .. . ... ...
ROW 36 : ... .. . ... ... ... : ... .. . ... ... ... : ... .. . ... : ... .. . ... : ... .. . ... ...
ROW 37 : ... .. . ... ... ... : ... .. . ... ... ... : ... .. . ... : ... .. . ... : ... .. . ... ...
ROW 38 : ... .. . ... ... ... : ... .. . ... ... ... : ... .. . ... : ... .. . ... : ... .. . ... ...
ROW 39 : ... .. . ... ... ... : ... .. . ... ... ... : ... .. . ... : ... .. . ... : ... .. . ... ...
ROW 3A : ... .. . ... ... ... : ... .. . P81 ... ... : ... .. . ... : ... .. . ... : ... .. . ... ...
ROW 3B : ... .. . ... ... ... : ... .. . ... ... ... : ... .. . ... : ... .. . ... : ... .. . ... ...
ROW 3C : ... .. . ... ... ... : ... .. . ... ... ... : ... .. . ... : ... .. . ... : ... .. . ... ...
ROW 3D : ... .. . ... ... ... : ... .. . P80 ... ... : ... .. . ... : ... .. . ... : ... .. . ... ...
ROW 3E : ... .. . ... ... ... : ... .. . P7F ... ... : ... .. . ... : ... .. . ... : ... .. . ... ...
ROW 3F : ... .. . ... ... ... : ... .. . ... ... ... : ... .. . ... : ... .. . ... : ... .. . ... ...
ROW 40 : ... .. . ... ... ... : ... .. . ... ... ... : ... .. . ... : ... .. . ... : ... .. . ... ...
ROW 41 : ... .. . ... ... ... : ... .. . P80 ... ... : ... .. . ... : ... .. . ... : ... .. . ... ...
ROW 42 : ... .. . ... ... ... : ... .. . P81 ... ... : ... .. . ... : ... .. . ... : ... .. . ... ...
ROW 43 : ... .. . ... ... ... : ... .. . ... ... ... : ... .. . ... : ... .. . ... : ... .. . ... ...
ROW 44 : ... .. . ... ... ... : ... .. . ... ... ... : ... .. . ... : ... .. . ... : ... .. . ... ...
ROW 45 : ... .. . ... ... ... : ... .. A P7F ... ... : ... .. . ... : ... .. . ... : ... .. . ... ...
ROW 46 : ... .. . ... ... ... : ... .. . ... ... ... : ... .. . ... : ... .. F ... : ... .. . ... ...
ROW 47 : ... .. . ... ... ... : ... .. 9 P80 ... ... : ... .. . ... : ... .. . ... : ... .. . ... ...
ROW 48 : ... .. . ... ... ... : ... .. . P81 ... ... : ... .. . ... : ... .. 0 ... : ... .. . ... ...
ROW 49 : ... .. . ... ... ... : ... .. 8 ... ... ... : ... .. . ... : ... .. . ... : ... .. . ... ...
ROW 4A : ... .. . ... ... ... : ... .. . ... ... ... : ... .. . ... : ... .. . ... : ... .. . ... ...
ROW 4B : ... .. . ... ... ... : ... .. . ... ... ... : ... .. . ... : ... .. . ... : ... .. . ... ...
ROW 4C : ... .. . ... ... ... : ... .. 7 P80 ... ... : ... .. . ... : ... .. . ... : ... .. . ... ...
ROW 4D : ... .. . ... ... ... : ... .. . P7F ... ... : ... .. . ... : ... .. . ... : ... .. . ... ...
ROW 4E : ... .. . ... ... ... : ... .. 6 ... ... ... : ... .. . ... : ... .. . ... : ... .. . ... ...
ROW 4F : ... .. . ... ... ... : ... .. . P80 ... ... : ... .. . ... : ... .. . ... : ... .. . ... ...
ROW 50 : ... .. . ... ... ... : ... .. . P81 ... ... : ... .. . ... : ... .. . ... : ... .. . ... ...
ROW 51 : ... .. . ... ... ... : ... .. . ... ... ... : ... .. . ... : ... .. . ... : ... .. . ... ...
ROW 52 : ... .. . ... ... ... : ... .. . ... ... ... : ... .. . ... : ... .. . ... : ... .. . ... ...
ROW 53 : ... .. . ... ... ... : ... .. . P80 ... ... : ... .. . ... : ... .. . ... : ... .. . ... ...
ROW 54 : ... .. . ... ... ... : ... .. . P7F ... ... : ... .. . ... : ... .. . ... : ... .. . ... ...
ROW 55 : ... .. . ... ... ... : ... .. . ... ... ... : ... .. . ... : ... .. . ... : ... .. . ... ...
ROW 56 : ... .. . ... ... ... : ... .. . ... ... ... : ... .. . ... : ... .. . ... : ... .. . ... ...
ROW 57 : ... .. . ... ... ... : ... .. . P80 ... ... : ... .. . ... : ... .. . ... : ... .. . ... ...
ROW 58 : ... .. . ... ... ... : ... .. . P81 ... ... : ... .. . ... : ... .. . ... : ... .. . ... ...
ROW 59 : ... .. . ... ... ... : ... .. . ... ... ... : ... .. . ... : ... .. . ... : ... .. . ... ...
ROW 5A : ... .. . ... ... ... : ... .. . ... ... ... : ... .. . ... : ... .. . ... : ... .. . ... ...
ROW 5B : ... .. . ... ... ... : ... .. . P80 ... ... : ... .. . ... : ... .. . ... : ... .. . ... ...
ROW 5C : ... .. . ... ... ... : ... .. . P7F ... ... : ... .. . ... : ... .. . ... : ... .. . ... ...
ROW 5D : ... .. 0 ... ... ... : ... .. . ... ... ... : ... .. . ... : ... .. . ... : ... .. . ... ...
ROW 5E : A-1 00 D P8A ... ... : A-2 00 9 P80 ... ... : C#4 00 . ... : ... .. . ... : ... .. . ... ...
ROW 5F : C#2 00 E P80 ... ... : ... .. B ... ... ... : ... .. . ... : ... .. . ... : ... .. . ... ...
ROW 60 : ... .. C ... ... ... : ... .. . ... ... ... : ... .. . ... : ... .. . ... : ... .. . ... ...
ROW 61 : ... .. B ... ... ... : ... .. . ... ... ... : ... .. . ... : ... .. . ... : ... .. . ... ...
ROW 62 : ... .. A ... ... ... : ... .. . ... ... ... : ... .. . ... : ... .. . ... : ... .. . ... ...
ROW 63 : ... .. 0 ... ... ... : ... .. . ... ... ... : ... .. . ... : ... .. . ... : ... .. . ... ...
ROW 64 : A-1 00 D P8A ... ... : ... .. . ... ... ... : ... .. . ... : ... .. . ... : ... .. . ... ...
ROW 65 : C#2 00 E P80 ... ... : ... .. . ... ... ... : ... .. . ... : ... .. . ... : ... .. . ... ...
ROW 66 : ... .. C ... ... ... : ... .. . ... ... ... : ... .. . ... : ... .. . ... : ... .. . ... ...
ROW 67 : ... .. B ... ... ... : ... .. . ... ... ... : ... .. . ... : ... .. . ... : ... .. . ... ...
ROW 68 : ... .. 0 ... ... ... : ... .. . P81 ... ... : ... .. . ... : ... .. . ... : ... .. . ... ...
ROW 69 : A-1 00 D P8A ... ... : ... .. . ... ... ... : ... .. . ... : ... .. . ... : ... .. . ... ...
ROW 6A : C#2 00 E P80 ... ... : ... .. . ... ... ... : ... .. . ... : ... .. . ... : ... .. . ... ...
ROW 6B : ... .. C ... ... ... : ... .. . P80 ... ... : ... .. . ... : ... .. . ... : ... .. . ... ...
ROW 6C : ... .. B ... ... ... : ... .. . P7F ... ... : ... .. . ... : ... .. . ... : ... .. . ... ...
ROW 6D : ... .. A ... ... ... : ... .. . ... ... ... : ... .. . ... : ... .. . ... : ... .. . ... ...
ROW 6E : ... .. 9 ... ... ... : ... .. . ... ... ... : ... .. . ... : ... .. . ... : ... .. . ... ...
ROW 6F : ... .. . ... ... ... : ... .. . P80 ... ... : ... .. . ... : ... .. . ... : ... .. . ... ...
ROW 70 : ... .. . ... ... ... : ... .. . P81 ... ... : ... .. . ... : ... .. . ... : ... .. . ... ...
ROW 71 : ... .. . ... ... ... : ... .. . ... ... ... : ... .. . ... : ... .. . ... : ... .. . ... ...
ROW 72 : ... .. . ... ... ... : ... .. . ... ... ... : ... .. . ... : ... .. . ... : ... .. . ... ...
ROW 73 : ... .. . ... ... ... : ... .. A P80 ... ... : ... .. . ... : ... .. . ... : ... .. . ... ...
ROW 74 : ... .. . ... ... ... : ... .. . P7F ... ... : ... .. . ... : ... .. . ... : ... .. . ... ...
ROW 75 : ... .. . ... ... ... : ... .. . ... ... ... : ... .. . ... : ... .. F ... : ... .. . ... ...
ROW 76 : ... .. . ... ... ... : ... .. 9 P80 ... ... : ... .. . ... : ... .. . ... : ... .. . ... ...
ROW 77 : ... .. . ... ... ... : ... .. . P81 ... ... : ... .. . ... : ... .. 0 ... : ... .. . ... ...
ROW 78 : ... .. . ... ... ... : ... .. 8 ... ... ... : ... .. . ... : ... .. . ... : ... .. . ... ...
ROW 79 : ... .. . ... ... ... : ... .. . ... ... ... : ... .. . ... : ... .. . ... : ... .. . ... ...
ROW 7A : ... .. . ... ... ... : ... .. . ... ... ... : ... .. . ... : ... .. . ... : ... .. . ... ...
ROW 7B : ... .. . ... ... ... : ... .. 7 P80 ... ... : ... .. . ... : ... .. . ... : ... .. . ... ...
ROW 7C : ... .. . ... ... ... : ... .. . P7F ... ... : ... .. . ... : ... .. . ... : ... .. . ... ...
ROW 7D : ... .. . ... ... ... : ... .. 6 ... ... ... : ... .. . ... : ... .. . ... : ... .. . ... ...
ROW 7E : ... .. . ... ... ... : ... .. . P80 ... ... : ... .. . ... : ... .. . ... : ... .. . ... ...
ROW 7F : ... .. . ... ... ... : ... .. . P81 ... ... : ... .. . ... : ... .. . ... : ... .. . ... ...
ROW 80 : ... .. . ... ... ... : ... .. . ... ... ... : ... .. . ... : ... .. . ... : ... .. . ... ...
ROW 81 : ... .. . ... ... ... : ... .. . ... ... ... : ... .. . ... : ... .. . ... : ... .. . ... ...
ROW 82 : ... .. . ... ... ... : ... .. . P80 ... ... : ... .. . ... : ... .. . ... : ... .. . ... ...
ROW 83 : ... .. . ... ... ... : ... .. . P7F ... ... : ... .. . ... : ... .. . ... : ... .. . ... ...
ROW 84 : ... .. . ... ... ... : ... .. . ... ... ... : ... .. . ... : ... .. . ... : ... .. . ... ...
ROW 85 : ... .. . ... ... ... : ... .. . ... ... ... : ... .. . ... : ... .. . ... : ... .. . ... ...
ROW 86 : ... .. . ... ... ... : ... .. . P80 ... ... : ... .. . ... : ... .. . ... : ... .. . ... ...
ROW 87 : ... .. . ... ... ... : ... .. . P81 ... ... : ... .. . ... : ... .. . ... : ... .. . ... ...
ROW 88 : ... .. . ... ... ... : ... .. . ... ... ... : ... .. . ... : ... .. . ... : ... .. . ... ...
ROW 89 : ... .. . ... ... ... : ... .. . ... ... ... : ... .. . ... : ... .. . ... : ... .. . ... ...
ROW 8A : ... .. . ... ... ... : ... .. . P80 ... ... : ... .. . ... : ... .. . ... : ... .. . ... ...
ROW 8B : ... .. . ... ... ... : ... .. . P7F ... ... : ... .. . ... : ... .. . ... : ... .. . ... ...
ROW 8C : ... .. . ... ... ... : E-4 00 9 P80 ... ... : ... .. . ... : ... .. . ... : ... .. . ... ...
ROW 8D : ... .. . ... ... ... : ... .. B ... ... ... : ... .. . ... : ... .. . ... : ... .. . ... ...
ROW 8E : ... .. . ... ... ... : ... .. . ... ... ... : ... .. . ... : ... .. . ... : ... .. . ... ...
ROW 8F : ... .. . ... ... ... : ... .. . ... ... ... : ... .. . ... : ... .. . ... : ... .. . ... ...
ROW 90 : ... .. . ... ... ... : ... .. . ... ... ... : ... .. . ... : ... .. . ... : ... .. . ... ...
ROW 91 : ... .. . ... ... ... : ... .. . ... ... ... : ... .. . ... : ... .. . ... : ... .. . ... ...
ROW 92 : ... .. . ... ... ... : ... .. . ... ... ... : ... .. . ... : ... .. . ... : ... .. . ... ...
ROW 93 : ... .. . ... ... ... : ... .. . ... ... ... : ... .. . ... : ... .. . ... : ... .. . ... ...
ROW 94 : ... .. . ... ... ... : ... .. . ... ... ... : ... .. . ... : ... .. . ... : ... .. . ... ...
ROW 95 : ... .. . ... ... ... : ... .. . ... ... ... : ... .. . ... : ... .. . ... : ... .. . ... ...
ROW 96 : ... .. . ... ... ... : ... .. . ... ... ... : ... .. . ... : ... .. . ... : ... .. . ... ...
ROW 97 : ... .. . ... ... ... : ... .. . P81 ... ... : ... .. . ... : ... .. . ... : ... .. . ... ...
ROW 98 : ... .. . ... ... ... : F#4 00 9 P80 ... ... : ... .. . ... : ... .. . ... : ... .. . ... ...
ROW 99 : ... .. . ... ... ... : ... .. B ... ... ... : ... .. . ... : ... .. . ... : ... .. . ... ...
ROW 9A : ... .. . ... ... ... : ... .. . ... ... ... : ... .. . ... : ... .. . ... : ... .. . ... ...
ROW 9B : ... .. . ... ... ... : ... .. . ... ... ... : ... .. . ... : ... .. . ... : ... .. . ... ...
ROW 9C : ... .. . ... ... ... : ... .. . ... ... ... : ... .. . ... : ... .. . ... : ... .. . ... ...
ROW 9D : ... .. . ... ... ... : ... .. . ... ... ... : ... .. . ... : ... .. . ... : ... .. . ... ...
ROW 9E : ... .. . ... ... ... : ... .. . ... ... ... : ... .. . ... : ... .. . ... : ... .. . ... ...
ROW 9F : ... .. . ... ... ... : ... .. . ... ... ... : ... .. . ... : ... .. . ... : ... .. . ... ...
ROW A0 : ... .. . ... ... ... : ... .. . ... ... ... : ... .. . ... : ... .. . ... : ... .. . ... ...
ROW A1 : ... .. . ... ... ... : ... .. . ... ... ... : ... .. . ... : ... .. . ... : ... .. . ... ...
ROW A2 : ... .. . ... ... ... : ... .. . ... ... ... : ... .. . ... : ... .. . ... : ... .. . ... ...
ROW A3 : ... .. . ... ... ... : ... .. . P81 ... ... : ... .. . ... : ... .. . ... : ... .. . ... ...
ROW A4 : ... .. . ... ... ... : ... .. . ... ... ... : ... .. . ... : ... .. F ... : ... .. . ... ...
ROW A5 : ... .. . ... ... ... : ... .. . ... ... ... : ... .. . ... : ... .. . ... : ... .. . ... ...
ROW A6 : ... .. . ... ... ... : ... .. . P80 ... ... : ... .. . ... : ... .. 0 ... : ... .. . ... ...
ROW A7 : ... .. . ... ... ... : ... .. . P7F ... ... : ... .. . ... : ... .. . ... : ... .. . ... ...
ROW A8 : ... .. . ... ... ... : ... .. . ... ... ... : ... .. . ... : ... .. . ... : ... .. . ... ...
ROW A9 : ... .. . ... ... ... : ... .. . ... ... ... : ... .. . ... : ... .. . ... : ... .. . ... ...
ROW AA : ... .. . ... ... ... : ... .. . P80 ... ... : ... .. . ... : ... .. . ... : ... .. . ... ...
ROW AB : ... .. . ... ... ... : ... .. . P81 ... ... : ... .. . ... : ... .. . ... : ... .. . ... ...
ROW AC : ... .. . ... ... ... : ... .. . ... ... ... : ... .. . ... : ... .. . ... : ... .. . ... ...
ROW AD : ... .. . ... ... ... : ... .. . ... ... ... : ... .. . ... : ... .. . ... : ... .. . ... ...
ROW AE : ... .. . ... ... ... : ... .. A P7F ... ... : ... .. . ... : ... .. . ... : ... .. . ... ...
ROW AF : ... .. . ... ... ... : ... .. . ... ... ... : ... .. . ... : ... .. . ... : ... .. . ... ...
ROW B0 : ... .. . ... ... ... : ... .. 9 P80 ... ... : ... .. . ... : ... .. . ... : ... .. . ... ...
ROW B1 : ... .. . ... ... ... : ... .. . P81 ... ... : ... .. . ... : ... .. . ... : ... .. . ... ...
ROW B2 : ... .. . ... ... ... : ... .. 8 ... ... ... : ... .. . ... : ... .. . ... : ... .. . ... ...
ROW B3 : ... .. . ... ... ... : ... .. . ... ... ... : ... .. . ... : ... .. . ... : ... .. . ... ...
ROW B4 : ... .. . ... ... ... : ... .. . ... ... ... : ... .. . ... : ... .. . ... : ... .. . ... ...
ROW B5 : ... .. . ... ... ... : ... .. 7 P80 ... ... : ... .. . ... : ... .. . ... : ... .. . ... ...
ROW B6 : ... .. . ... ... ... : ... .. . P7F ... ... : ... .. . ... : ... .. . ... : ... .. . ... ...
ROW B7 : ... .. . ... ... ... : ... .. 6 ... ... ... : ... .. . ... : ... .. . ... : ... .. . ... ...
ROW B8 : ... .. . ... ... ... : ... .. . P80 ... ... : ... .. . ... : ... .. . ... : ... .. . ... ...
ROW B9 : ... .. . ... ... ... : ... .. . P81 ... ... : ... .. . ... : ... .. . ... : ... .. . ... ...
ROW BA : ... .. . ... ... ... : ... .. . ... ... ... : ... .. . ... : ... .. . ... : ... .. . ... ...
ROW BB : A#1 00 D P8A ... ... : D-4 00 9 P80 ... ... : D-4 00 . ... : ... .. . ... : ... .. . ... ...
ROW BC : D-2 00 E P80 ... ... : ... .. B ... ... ... : ... .. . ... : ... .. . ... : ... .. . ... ...
ROW BD : ... .. C ... ... ... : ... .. . ... ... ... : ... .. . ... : ... .. . ... : ... .. . ... ...
ROW BE : ... .. B ... ... ... : ... .. . ... ... ... : ... .. . ... : ... .. . ... : ... .. . ... ...
ROW BF : ... .. A ... ... ... : ... .. . ... ... ... : ... .. . ... : ... .. . ... : ... .. . ... ...
ROW C0 : ... .. 0 ... ... ... : ... .. . ... ... ... : ... .. . ... : ... .. . ... : ... .. . ... ...
ROW C1 : A#1 00 D P8A ... ... : ... .. . ... ... ... : ... .. . ... : ... .. . ... : ... .. . ... ...
ROW C2 : D-2 00 E P80 ... ... : ... .. . ... ... ... : ... .. . ... : ... .. . ... : ... .. . ... ...
ROW C3 : ... .. C ... ... ... : ... .. . ... ... ... : ... .. . ... : ... .. . ... : ... .. . ... ...
ROW C4 : ... .. B ... ... ... : ... .. . ... ... ... : ... .. . ... : ... .. . ... : ... .. . ... ...
ROW C5 : ... .. A ... ... ... : ... .. . ... ... ... : ... .. . ... : ... .. . ... : ... .. . ... ...
ROW C6 : ... .. 0 ... ... ... : ... .. . P81 ... ... : ... .. . ... : ... .. . ... : ... .. . ... ...
ROW C7 : A#1 00 D P8A ... ... : ... .. . ... ... ... : ... .. . ... : ... .. . ... : ... .. . ... ...
ROW C8 : D-2 00 E P80 ... ... : ... .. . ... ... ... : ... .. . ... : ... .. . ... : ... .. . ... ...
ROW C9 : ... .. C ... ... ... : ... .. . P80 ... ... : ... .. . ... : ... .. . ... : ... .. . ... ...
ROW CA : ... .. B ... ... ... : ... .. . P7F ... ... : ... .. . ... : ... .. . ... : ... .. . ... ...
ROW CB : ... .. A ... ... ... : ... .. . ... ... ... : ... .. . ... : ... .. . ... : ... .. . ... ...
ROW CC : ... .. 9 ... ... ... : ... .. . ... ... ... : ... .. . ... : ... .. . ... : ... .. . ... ...
ROW CD : ... .. . ... ... ... : ... .. . P80 ... ... : ... .. . ... : ... .. . ... : ... .. . ... ...
ROW CE : ... .. . ... ... ... : ... .. . P81 ... ... : ... .. . ... : ... .. . ... : ... .. . ... ...
ROW CF : ... .. . ... ... ... : ... .. . ... ... ... : ... .. . ... : ... .. . ... : ... .. . ... ...
ROW D0 : ... .. . ... ... ... : ... .. . ... ... ... : ... .. . ... : ... .. . ... : ... .. . ... ...
ROW D1 : ... .. . ... ... ... : ... .. A P7F ... ... : ... .. . ... : ... .. . ... : ... .. . ... ...
ROW D2 : ... .. . ... ... ... : ... .. . ... ... ... : ... .. . ... : ... .. F ... : ... .. . ... ...
ROW D3 : ... .. . ... ... ... : ... .. 9 P80 ... ... : ... .. . ... : ... .. . ... : ... .. . ... ...
ROW D4 : ... .. . ... ... ... : ... .. . P81 ... ... : ... .. . ... : ... .. 0 ... : ... .. . ... ...
ROW D5 : ... .. . ... ... ... : ... .. 8 ... ... ... : ... .. . ... : ... .. . ... : ... .. . ... ...
ROW D6 : ... .. . ... ... ... : ... .. . ... ... ... : ... .. . ... : ... .. . ... : ... .. . ... ...
ROW D7 : ... .. . ... ... ... : ... .. . ... ... ... : ... .. . ... : ... .. . ... : ... .. . ... ...
ROW D8 : ... .. . ... ... ... : ... .. 7 P80 ... ... : ... .. . ... : ... .. . ... : ... .. . ... ...
ROW D9 : ... .. . ... ... ... : ... .. . P7F ... ... : ... .. . ... : ... .. . ... : ... .. . ... ...
ROW DA : ... .. . ... ... ... : ... .. 6 ... ... ... : ... .. . ... : ... .. . ... : ... .. . ... ...
ROW DB : ... .. . ... ... ... : ... .. . P80 ... ... : ... .. . ... : ... .. . ... : ... .. . ... ...
ROW DC : ... .. . ... ... ... : ... .. . P81 ... ... : ... .. . ... : ... .. . ... : ... .. . ... ...
ROW DD : ... .. . ... ... ... : ... .. . ... ... ... : ... .. . ... : ... .. . ... : ... .. . ... ...
ROW DE : ... .. . ... ... ... : ... .. . ... ... ... : ... .. . ... : ... .. . ... : ... .. . ... ...
ROW DF : ... .. . ... ... ... : ... .. . P80 ... ... : ... .. . ... : ... .. . ... : ... .. . ... ...
ROW E0 : ... .. . ... ... ... : ... .. . P7F ... ... : ... .. . ... : ... .. . ... : ... .. . ... ...
ROW E1 : ... .. . ... ... ... : ... .. . ... ... ... : ... .. . ... : ... .. . ... : ... .. . ... ...
ROW E2 : ... .. . ... ... ... : ... .. . ... ... ... : ... .. . ... : ... .. . ... : ... .. . ... ...
ROW E3 : ... .. . ... ... ... : ... .. . P80 ... ... : ... .. . ... : ... .. . ... : ... .. . ... ...
ROW E4 : ... .. . ... ... ... : ... .. . P81 ... ... : ... .. . ... : ... .. . ... : ... .. . ... ...
ROW E5 : ... .. . ... ... ... : ... .. . ... ... ... : ... .. . ... : ... .. . ... : ... .. . ... ...
ROW E6 : ... .. . ... ... ... : ... .. . ... ... ... : ... .. . ... : ... .. . ... : ... .. . ... ...
ROW E7 : ... .. . ... ... ... : ... .. . P80 ... ... : ... .. . ... : ... .. . ... : ... .. . ... ...
ROW E8 : ... .. . ... ... ... : ... .. . P7F ... ... : ... .. . ... : ... .. . ... : ... .. . ... ...
ROW E9 : ... .. . ... ... ... : ... .. . ... ... ... : ... .. . ... : ... .. . ... : ... .. . ... ...
ROW EA : ... .. . ... ... ... : A-2 00 9 P80 ... ... : ... .. . ... : ... .. . ... : ... .. . ... ...
ROW EB : ... .. . ... ... ... : ... .. B ... ... ... : ... .. . ... : ... .. . ... : ... .. . ... ...
ROW EC : ... .. . ... ... ... : ... .. . ... ... ... : ... .. . ... : ... .. . ... : ... .. . ... ...
ROW ED : ... .. . ... ... ... : ... .. . ... ... ... : ... .. . ... : ... .. . ... : ... .. . ... ...
ROW EE : ... .. . ... ... ... : ... .. . ... ... ... : ... .. . ... : ... .. . ... : ... .. . ... ...
ROW EF : ... .. . ... ... ... : ... .. . ... ... ... : ... .. . ... : ... .. . ... : ... .. . ... ...
ROW F0 : ... .. . ... ... ... : ... .. . ... ... ... : ... .. . ... : ... .. . ... : ... .. . ... ...
ROW F1 : ... .. . ... ... ... : ... .. . ... ... ... : ... .. . ... : ... .. . ... : ... .. . ... ...
ROW F2 : ... .. . ... ... ... : ... .. . ... ... ... : ... .. . ... : ... .. . ... : ... .. . ... ...
ROW F3 : ... .. . ... ... ... : ... .. . ... ... ... : ... .. . ... : ... .. . ... : ... .. . ... ...
ROW F4 : ... .. . ... ... ... : ... .. . P81 ... ... : ... .. . ... : ... .. . ... : ... .. . ... ...
ROW F5 : ... .. . ... ... ... : ... .. . ... ... ... : ... .. . ... : ... .. . ... : ... .. . ... ...
ROW F6 : ... .. . ... ... ... : ... .. . ... ... ... : ... .. . ... : ... .. . ... : ... .. . ... ...
ROW F7 : ... .. . ... ... ... : ... .. . P80 ... ... : ... .. . ... : ... .. . ... : ... .. . ... ...
ROW F8 : ... .. . ... ... ... : ... .. . P7F ... ... : ... .. . ... : ... .. . ... : ... .. . ... ...
ROW F9 : ... .. . ... ... ... : ... .. . ... ... ... : ... .. . ... : ... .. . ... : ... .. . ... ...
ROW FA : ... .. . ... ... ... : ... .. . ... ... ... : ... .. . ... : ... .. . ... : ... .. . ... ...
ROW FB : ... .. . ... ... ... : ... .. . P80 ... ... : ... .. . ... : ... .. . ... : ... .. . ... ...
ROW FC : ... .. . ... ... ... : ... .. . P81 ... ... : ... .. . ... : ... .. . ... : ... .. . ... ...
ROW FD : ... .. . ... ... ... : ... .. . ... ... ... : ... .. . ... : ... .. . ... : ... .. . ... ...
ROW FE : ... .. . ... ... ... : ... .. . ... ... ... : ... .. . ... : ... .. . ... : ... .. . ... ...
ROW FF : ... .. . ... ... ... : ... .. A P80 ... ... : ... .. . ... : ... .. . ... : ... .. . ... ...

PATTERN 01
ROW 00 : ... .. . ... ... ... : ... .. . P7F ... ... : ... .. . ... : ... .. . ... : ... .. . ... ...
ROW 01 : ... .. . ... ... ... : ... .. . ... ... ... : ... .. . ... : ... .. F ... : ... .. . ... ...
ROW 02 : ... .. . ... ... ... : ... .. 9 P80 ... ... : ... .. . ... : ... .. . ... : ... .. . ... ...
ROW 03 : ... .. . ... ... ... : ... .. . P81 ... ... : ... .. . ... : ... .. 0 ... : ... .. . ... ...
ROW 04 : ... .. . ... ... ... : ... .. 8 ... ... ... : ... .. . ... : ... .. . ... : ... .. . ... ...
ROW 05 : ... .. . ... ... ... : ... .. . ... ... ... : ... .. . ... : ... .. . ... : ... .. . ... ...
ROW 06 : ... .. . ... ... ... : ... .. . ... ... ... : ... .. . ... : ... .. . ... : ... .. . ... ...
ROW 07 : ... .. . ... ... ... : ... .. 7 P80 ... ... : ... .. . ... : ... .. . ... : ... .. . ... ...
ROW 08 : ... .. . ... ... ... : ... .. . P7F ... ... : ... .. . ... : ... .. . ... : ... .. . ... ...
ROW 09 : ... .. . ... ... ... : ... .. 6 ... ... ... : ... .. . ... : ... .. . ... : ... .. . ... ...
ROW 0A : ... .. . ... ... ... : ... .. . P80 ... ... : ... .. . ... : ... .. . ... : ... .. . ... ...
ROW 0B : ... .. . ... ... ... : ... .. . P81 ... ... : ... .. . ... : ... .. . ... : ... .. . ... ...
ROW 0C : ... .. . ... ... ... : ... .. . ... ... ... : ... .. . ... : ... .. . ... : ... .. . ... ...
ROW 0D : ... .. . ... ... ... : ... .. . ... ... ... : ... .. . ... : ... .. . ... : ... .. . ... ...
ROW 0E : ... .. . ... ... ... : ... .. . P80 ... ... : ... .. . ... : ... .. . ... : ... .. . ... ...
ROW 0F : ... .. . ... ... ... : ... .. . P7F ... ... : ... .. . ... : ... .. . ... : ... .. . ... ...
ROW 10 : ... .. . ... ... ... : ... .. . ... ... ... : ... .. . ... : ... .. . ... : ... .. . ... ...
ROW 11 : ... .. . ... ... ... : ... .. . ... ... ... : ... .. . ... : ... .. . ... : ... .. . ... ...
ROW 12 : ... .. . ... ... ... : ... .. . P80 ... ... : ... .. . ... : ... .. . ... : ... .. . ... ...
ROW 13 : ... .. . ... ... ... : ... .. . P81 ... ... : ... .. . ... : ... .. . ... : ... .. . ... ...
ROW 14 : ... .. . ... ... ... : ... .. . ... ... ... : ... .. . ... : ... .. . ... : ... .. . ... ...
ROW 15 : ... .. . ... ... ... : ... .. . ... ... ... : ... .. . ... : ... .. . ... : ... .. . ... ...
ROW 16 : ... .. . ... ... ... : ... .. . P80 ... ... : ... .. . ... : ... .. . ... : ... .. . ... ...
ROW 17 : ... .. 0 ... ... ... : ... .. . P7F ... ... : ... .. . ... : ... .. . ... : ... .. . ... ...
ROW 18 : C-2 00 D P8A ... ... : C#4 00 9 P80 ... ... : E-4 00 . ... : ... .. . ... : ... .. . ... ...
ROW 19 : E-2 00 E P80 ... ... : ... .. B ... ... ... : ... .. . ... : ... .. . ... : ... .. . ... ...
ROW 1A : ... .. C ... ... ... : ... .. . ... ... ... : ... .. . ... : ... .. . ... : ... .. . ... ...
ROW 1B : ... .. B ... ... ... : ... .. . ... ... ... : ... .. . ... : ... .. . ... : ... .. . ... ...
ROW 1C : ... .. A ... ... ... : ... .. . ... ... ... : ... .. . ... : ... .. . ... : ... .. . ... ...
ROW 1D : ... .. 0 ... ... ... : ... .. . ... ... ... : ... .. . ... : ... .. . ... : ... .. . ... ...
ROW 1E : C-2 00 D P8A ... ... : ... .. . ... ... ... : ... .. . ... : ... .. . ... : ... .. . ... ...
ROW 1F : E-2 00 E P80 ... ... : ... .. . ... ... ... : ... .. . ... : ... .. . ... : ... .. . ... ...
ROW 20 : ... .. C ... ... ... : ... .. . ... ... ... : ... .. . ... : ... .. . ... : ... .. . ... ...
ROW 21 : ... .. B ... ... ... : ... .. . ... ... ... : ... .. . ... : ... .. . ... : ... .. . ... ...
ROW 22 : ... .. A ... ... ... : ... .. . ... ... ... : ... .. . ... : ... .. . ... : ... .. . ... ...
ROW 23 : ... .. 0 ... ... ... : ... .. . P81 ... ... : ... .. . ... : ... .. . ... : ... .. . ... ...
ROW 24 : C-2 00 D P8A ... ... : ... .. . ... ... ... : ... .. . ... : ... .. . ... : ... .. . ... ...
ROW 25 : E-2 00 E P80 ... ... : ... .. . ... ... ... : ... .. . ... : ... .. . ... : ... .. . ... ...
ROW 26 : ... .. C ... ... ... : ... .. . P80 ... ... : ... .. . ... : ... .. . ... : ... .. . ... ...
ROW 27 : ... .. B ... ... ... : ... .. . P7F ... ... : ... .. . ... : ... .. . ... : ... .. . ... ...
ROW 28 : ... .. A ... ... ... : ... .. . ... ... ... : ... .. . ... : ... .. . ... : ... .. . ... ...
ROW 29 : ... .. 9 ... ... ... : ... .. . ... ... ... : ... .. . ... : ... .. . ... : ... .. . ... ...
ROW 2A : ... .. . ... ... ... : ... .. . P80 ... ... : ... .. . ... : ... .. . ... : ... .. . ... ...
ROW 2B : ... .. . ... ... ... : ... .. . P81 ... ... : ... .. . ... : ... .. . ... : ... .. . ... ...
ROW 2C : ... .. . ... ... ... : ... .. . ... ... ... : ... .. . ... : ... .. . ... : ... .. . ... ...
ROW 2D : ... .. . ... ... ... : ... .. . ... ... ... : ... .. . ... : ... .. . ... : ... .. . ... ...
ROW 2E : ... .. . ... ... ... : ... .. A P80 ... ... : ... .. . ... : ... .. . ... : ... .. . ... ...
ROW 2F : ... .. . ... ... ... : ... .. . P7F ... ... : ... .. . ... : ... .. . ... : ... .. . ... ...
ROW 30 : ... .. . ... ... ... : ... .. . ... ... ... : ... .. . ... : ... .. F ... : ... .. . ... ...
ROW 31 : ... .. . ... ... ... : ... .. 9 P80 ... ... : ... .. . ... : ... .. . ... : ... .. . ... ...
ROW 32 : ... .. . ... ... ... : ... .. . P81 ... ... : ... .. . ... : ... .. 0 ... : ... .. . ... ...
ROW 33 : ... .. . ... ... ... : ... .. 8 ... ... ... : ... .. . ... : ... .. . ... : ... .. . ... ...
ROW 34 : ... .. . ... ... ... : ... .. . ... ... ... : ... .. . ... : ... .. . ... : ... .. . ... ...
ROW 35 : ... .. . ... ... ... : ... .. . ... ... ... : ... .. . ... : ... .. . ... : ... .. . ... ...
ROW 36 : ... .. . ... ... ... : ... .. 7 P80 ... ... : ... .. . ... : ... .. . ... : ... .. . ... ...
ROW 37 : ... .. . ... ... ... : ... .. . P7F ... ... : ... .. . ... : ... .. . ... : ... .. . ... ...
ROW 38 : ... .. . ... ... ... : ... .. 6 ... ... ... : ... .. . ... : ... .. . ... : ... .. . ... ...
ROW 39 : ... .. . ... ... ... : ... .. . P80 ... ... : ... .. . ... : ... .. . ... : ... .. . ... ...
ROW 3A : ... .. . ... ... ... : ... .. . P81 ... ... : ... .. . ... : ... .. . ... : ... .. . ... ...
ROW 3B : ... .. . ... ... ... : A-3 00 9 P80 ... ... : ... .. . ... : ... .. . ... : ... .. . ... ...
ROW 3C : ... .. . ... ... ... : ... .. B ... ... ... : ... .. . ... : ... .. . ... : ... .. . ... ...
ROW 3D : ... .. . ... ... ... : ... .. . ... ... ... : ... .. . ... : ... .. . ... : ... .. . ... ...
ROW 3E : ... .. . ... ... ... : ... .. . ... ... ... : ... .. . ... : ... .. . ... : ... .. . ... ...
ROW 3F : ... .. . ... ... ... : ... .. . ... ... ... : ... .. . ... : ... .. . ... : ... .. . ... ...
ROW 40 : ... .. . ... ... ... : ... .. . ... ... ... : ... .. . ... : ... .. . ... : ... .. . ... ...
ROW 41 : ... .. . ... ... ... : ... .. . ... ... ... : ... .. . ... : ... .. . ... : ... .. . ... ...
ROW 42 : ... .. . ... ... ... : ... .. . ... ... ... : ... .. . ... : ... .. . ... : ... .. . ... ...
ROW 43 : ... .. . ... ... ... : ... .. . ... ... ... : ... .. . ... : ... .. . ... : ... .. . ... ...
ROW 44 : ... .. . ... ... ... : ... .. . ... ... ... : ... .. . ... : ... .. . ... : ... .. . ... ...
ROW 45 : ... .. . ... ... ... : ... .. . ... ... ... : ... .. . ... : ... .. . ... : ... .. . ... ...
ROW 46 : ... .. . ... ... ... : ... .. . P81 ... ... : ... .. . ... : ... .. . ... : ... .. . ... ...
ROW 47 : ... .. . ... ... ... : ... .. . ... ... ... : ... .. . ... : ... .. . ... : ... .. . ... ...
ROW 48 : ... .. . ... ... ... : ... .. . ... ... ... : ... .. . ... : ... .. . ... : ... .. . ... ...
ROW 49 : ... .. . ... ... ... : ... .. . P80 ... ... : ... .. . ... : ... .. . ... : ... .. . ... ...
ROW 4A : ... .. . ... ... ... : ... .. . P7F ... ... : ... .. . ... : ... .. . ... : ... .. . ... ...
ROW 4B : ... .. . ... ... ... : ... .. . ... ... ... : ... .. . ... : ... .. . ... : ... .. . ... ...
ROW 4C : ... .. . ... ... ... : ... .. . ... ... ... : ... .. . ... : ... .. . ... : ... .. . ... ...
ROW 4D : ... .. . ... ... ... : ... .. . P80 ... ... : ... .. . ... : ... .. . ... : ... .. . ... ...
ROW 4E : ... .. . ... ... ... : ... .. . P81 ... ... : ... .. . ... : ... .. . ... : ... .. . ... ...
ROW 4F : ... .. . ... ... ... : ... .. . ... ... ... : ... .. . ... : ... .. . ... : ... .. . ... ...
ROW 50 : ... .. . ... ... ... : ... .. . ... ... ... : ... .. . ... : ... .. . ... : ... .. . ... ...
ROW 51 : ... .. . ... ... ... : ... .. A P80 ... ... : ... .. . ... : ... .. . ... : ... .. . ... ...
ROW 52 : ... .. . ... ... ... : ... .. . P7F ... ... : ... .. . ... : ... .. . ... : ... .. . ... ...
ROW 53 : ... .. . ... ... ... : ... .. . ... ... ... : ... .. . ... : ... .. . ... : ... .. . ... ...
ROW 54 : ... .. . ... ... ... : ... .. 9 P80 ... ... : ... .. . ... : ... .. . ... : ... .. . ... ...
ROW 55 : ... .. . ... ... ... : ... .. . P81 ... ... : ... .. . ... : ... .. . ... : ... .. . ... ...
ROW 56 : ... .. . ... ... ... : ... .. 8 ... ... ... : ... .. . ... : ... .. . ... : ... .. . ... ...
ROW 57 : ... .. . ... ... ... : ... .. . ... ... ... : ... .. . ... : ... .. . ... : ... .. . ... ...
ROW 58 : ... .. . ... ... ... : ... .. . ... ... ... : ... .. . ... : ... .. . ... : ... .. . ... ...
ROW 59 : ... .. . ... ... ... : ... .. 7 P80 ... ... : ... .. . ... : ... .. . ... : ... .. . ... ...
ROW 5A : ... .. . ... ... ... : ... .. . P7F ... ... : ... .. . ... : ... .. . ... : ... .. . ... ...
ROW 5B : ... .. . ... ... ... : ... .. 6 ... ... ... : ... .. . ... : ... .. . ... : ... .. . ... ...
ROW 5C : ... .. . ... ... ... : ... .. . P80 ... ... : ... .. . ... : ... .. . ... : ... .. . ... ...
ROW 5D : ... .. . ... ... ... : ... .. . P81 ... ... : ... .. . ... : ... .. . ... : ... .. . ... ...
ROW 5E : F#2 00 B ... ... ... : F#3 00 9 P80 ... ... : ... .. . ... : 4-# 00 F ... : C-0 00 . Z40 ...
ROW 5F : ... .. . ... V00 ... : ... .. B ... ... ... : ... .. . ... : ... .. 0 ... : ... .. . ... ...
ROW 60 : ... .. . ... ... ... : ... .. . ... ... ... : ... .. . ... : ... .. . ... : ... .. . ... ...
ROW 61 : ... .. 7 ... ... ... : ... .. . ... ... ... : ... .. . ... : ... .. . ... : ... .. . ... ...
ROW 62 : ... .. 6 ... ... ... : ... .. . ... ... ... : ... .. . ... : ... .. . ... : ... .. . ... ...
ROW 63 : ... .. 5 ... ... ... : ... .. . ... ... ... : ... .. . ... : ... .. . ... : ... .. . ... ...
ROW 64 : E-2 00 B ... V02 ... : ... .. . ... ... ... : ... .. . ... : ... .. . ... : C-0 00 . Z40 ...
ROW 65 : ... .. . ... V00 ... : ... .. . ... ... ... : ... .. . ... : ... .. . ... : ... .. . ... ...
ROW 66 : ... .. . ... ... ... : ... .. . ... ... ... : ... .. . ... : ... .. . ... : ... .. . ... ...
ROW 67 : ... .. 7 ... ... ... : ... .. . ... ... ... : ... .. . ... : ... .. . ... : ... .. . ... ...
ROW 68 : ... .. 6 ... ... ... : ... .. . ... ... ... : ... .. . ... : ... .. . ... : ... .. . ... ...
ROW 69 : ... .. 5 ... ... ... : ... .. . P81 ... ... : ... .. . ... : ... .. . ... : ... .. . ... ...
ROW 6A : D-2 00 B ... V02 ... : ... .. . ... ... ... : ... .. . ... : ... .. F ... : C#0 00 . Z40 ...
ROW 6B : ... .. . ... V00 ... : ... .. . ... ... ... : ... .. . ... : ... .. 0 ... : ... .. . ... ...
ROW 6C : ... .. . ... ... ... : ... .. . P80 ... ... : ... .. . ... : ... .. . ... : ... .. . ... ...
ROW 6D : ... .. 7 ... ... ... : ... .. . P7F ... ... : ... .. . ... : ... .. . ... : ... .. . ... ...
ROW 6E : ... .. 6 ... ... ... : ... .. . ... ... ... : ... .. . ... : ... .. . ... : ... .. . ... ...
ROW 6F : ... .. 5 ... ... ... : ... .. . ... ... ... : ... .. . ... : ... .. . ... : ... .. . ... ...
ROW 70 : C#2 00 B ... V02 ... : ... .. . P80 ... ... : ... .. . ... : ... .. . ... : C#0 00 . Z40 ...
ROW 71 : ... .. . ... V00 ... : ... .. . P81 ... ... : ... .. . ... : ... .. . ... : ... .. . ... ...
ROW 72 : ... .. . ... ... ... : ... .. . ... ... ... : ... .. . ... : ... .. . ... : ... .. . ... ...
ROW 73 : ... .. 7 ... ... ... : ... .. . ... ... ... : ... .. . ... : ... .. . ... : ... .. . ... ...
ROW 74 : ... .. 6 ... ... ... : ... .. A P80 ... ... : ... .. . ... : ... .. . ... : ... .. . ... ...
ROW 75 : ... .. 5 ... ... ... : ... .. . P7F ... ... : ... .. . ... : ... .. . ... : ... .. . ... ...
ROW 76 : B-3 00 F ... ... ... : B-1 00 B P80 ... ... : B-4 00 . P82 : ... .. F ... : D-0 00 . Z40 ...
ROW 77 : ... .. . P81 V02 ... : ... .. . ... V00 ... : ... .. . P80 : ... .. . ... : ... .. . ... ...
ROW 78 : ... .. . ... ... ... : ... .. . ... ... ... : ... .. . ... : ... .. 0 ... : ... .. . ... ...
ROW 79 : ... .. . P80 ... ... : ... .. 7 ... ... ... : ... .. . ... : ... .. . ... : ... .. . ... ...
ROW 7A : ... .. . P7F ... ... : ... .. 6 ... ... ... : ... .. . P7E : ... .. . ... : ... .. . ... ...
ROW 7B : ... .. . ... ... ... : ... .. 5 ... ... ... : ... .. . P7F : ... .. . ... : ... .. . ... ...
ROW 7C : ... .. . ... ... ... : ... .. 4 ... ... ... : ... .. . P80 : ... .. . ... : ... .. . ... ...
ROW 7D : ... .. . P81 ... ... : ... .. . ... ... ... : ... .. . ... : ... .. . ... : ... .. . ... ...
ROW 7E : ... .. . ... ... ... : ... .. . ... ... ... : ... .. . ... : ... .. . ... : ... .. . ... ...
ROW 7F : ... .. E ... ... ... : ... .. . ... ... ... : ... .. . ... : ... .. . ... : ... .. . ... ...
ROW 80 : ... .. C P7F ... ... : ... .. 0 ... ... ... : ... .. . ... : ... .. . ... : ... .. . ... ...
ROW 81 : ... .. B ... ... ... : ... .. B ... V02 ... : ... .. . ... : C-# 00 F ... : C#0 00 . Z40 ...
ROW 82 : ... .. 9 P80 ... ... : ... .. . ... V00 ... : ... .. . ... : ... .. . ... : ... .. . ... ...
ROW 83 : ... .. 8 P81 ... ... : ... .. . ... ... ... : ... .. . ... : ... .. 0 ... : ... .. . ... ...
ROW 84 : ... .. 7 ... ... ... : ... .. 7 ... ... ... : ... .. . ... : ... .. . ... : ... .. . ... ...
ROW 85 : ... .. . ... ... ... : ... .. 6 ... ... ... : ... .. . ... : ... .. . ... : ... .. . ... ...
ROW 86 : ... .. . P80 ... ... : ... .. 0 ... ... ... : ... .. . ... : ... .. . ... : ... .. . ... ...
ROW 87 : ... .. . P7F ... ... : B-1 00 B P80 V02 ... : A-4 00 . P82 : ... .. F ... : C#0 00 . Z40 ...
ROW 88 : ... .. . ... ... ... : ... .. . ... V00 ... : ... .. . P80 : ... .. . ... : ... .. . ... ...
ROW 89 : ... .. . P80 ... ... : ... .. . ... ... ... : ... .. . ... : ... .. 0 ... : ... .. . ... ...
ROW 8A : ... .. . P81 ... ... : ... .. 7 ... ... ... : ... .. . ... : ... .. . ... : ... .. . ... ...
ROW 8B : ... .. . ... ... ... : ... .. 6 ... ... ... : ... .. . P7E : ... .. . ... : ... .. . ... ...
ROW 8C : ... .. . ... ... ... : ... .. 0 ... ... ... : ... .. . P7F : ... .. . ... : ... .. . ... ...
ROW 8D : ... .. . P80 ... ... : B-1 00 B P80 V02 ... : F#4 00 . P82 : 4-# 00 F ... : D#0 00 . Z40 ...
ROW 8E : ... .. . P7F ... ... : ... .. . ... V00 ... : ... .. . P80 : ... .. . ... : ... .. . ... ...
ROW 8F : ... .. . ... ... ... : ... .. . ... ... ... : ... .. . ... : ... .. 0 ... : ... .. . ... ...
ROW 90 : ... .. . P80 ... ... : ... .. 7 ... ... ... : ... .. . ... : ... .. . ... : ... .. . ... ...
ROW 91 : ... .. . P81 ... ... : ... .. 6 ... ... ... : ... .. . P7E : ... .. . ... : ... .. . ... ...
ROW 92 : ... .. . ... ... ... : ... .. 5 ... ... ... : ... .. . P7F : ... .. . ... : ... .. . ... ...
ROW 93 : ... .. . ... ... ... : ... .. 4 ... ... ... : ... .. . P80 : ... .. . ... : ... .. . ... ...
ROW 94 : ... .. . P7F ... ... : ... .. . ... ... ... : ... .. . ... : ... .. . ... : ... .. . ... ...
ROW 95 : ... .. . ... ... ... : ... .. . ... ... ... : ... .. . ... : ... .. . ... : ... .. . ... ...
ROW 96 : ... .. . ... ... ... : ... .. . ... ... ... : ... .. . ... : ... .. . ... : ... .. . ... ...
ROW 97 : ... .. . P80 ... ... : ... .. . ... ... ... : ... .. . ... : ... .. . ... : ... .. . ... ...
ROW 98 : ... .. . P81 ... ... : ... .. 0 ... ... ... : ... .. . ... : ... .. . ... : ... .. . ... ...
ROW 99 : ... .. . ... ... ... : B-1 00 B P80 V02 ... : ... .. . ... : C-# 00 F ... : C#0 00 . Z40 ...
ROW 9A : ... .. . P80 ... ... : ... .. . ... V00 ... : ... .. . ... : ... .. . ... : ... .. . ... ...
ROW 9B : ... .. . P7F ... ... : ... .. . ... ... ... : ... .. . ... : ... .. 0 ... : ... .. . ... ...
ROW 9C : ... .. . ... ... ... : ... .. 7 ... ... ... : ... .. . ... : ... .. . ... : ... .. . ... ...
ROW 9D : ... .. . ... ... ... : ... .. 6 ... ... ... : ... .. . ... : ... .. . ... : ... .. . ... ...
ROW 9E : ... .. . P80 ... ... : ... .. 0 ... ... ... : ... .. . ... : ... .. . ... : ... .. . ... ...
ROW 9F : ... .. . P81 ... ... : B-1 00 B P80 V02 ... : A-4 00 . P82 : ... .. F ... : C#0 00 . Z40 ...
ROW A0 : ... .. . ... ... ... : ... .. . ... V00 ... : ... .. . P80 : ... .. . ... : ... .. . ... ...
ROW A1 : ... .. . P80 ... ... : ... .. . ... ... ... : ... .. . ... : ... .. 0 ... : ... .. . ... ...
ROW A2 : ... .. . P7F ... ... : ... .. 7 ... ... ... : ... .. . ... : ... .. . ... : ... .. . ... ...
ROW A3 : ... .. . ... ... ... : ... .. 0 ... ... ... : ... .. . P7F : ... .. . ... : ... .. . ... ...
ROW A4 : ... .. . P80 ... ... : ... .. B ... V02 ... : B-4 00 . P82 : 4-# 00 F ... : D-0 00 . Z40 ...
ROW A5 : ... .. . P81 ... ... : ... .. . ... V00 ... : ... .. . P80 : ... .. . ... : ... .. . ... ...
ROW A6 : ... .. . ... ... ... : ... .. . ... ... ... : ... .. . ... : ... .. 0 ... : ... .. . ... ...
ROW A7 : ... .. . P80 ... ... : ... .. 7 ... ... ... : ... .. . ... : ... .. . ... : ... .. . ... ...
ROW A8 : ... .. . P7F ... ... : ... .. 6 ... ... ... : ... .. . P7E : ... .. . ... : ... .. . ... ...
ROW A9 : ... .. . ... ... ... : ... .. 5 ... ... ... : --- .. . ... : ... .. . ... : ... .. . ... ...
ROW AA : ... .. . ... ... ... : ... .. 4 ... ... ... : ... .. . ... : ... .. . ... : ... .. . ... ...
ROW AB : ... .. . P81 ... ... : ... .. . ... ... ... : ... .. . ... : ... .. . ... : ... .. . ... ...
ROW AC : ... .. . ... ... ... : ... .. . ... ... ... : ... .. . ... : ... .. . ... : ... .. . ... ...
ROW AD : ... .. . ... ... ... : ... .. . ... ... ... : ... .. . ... : ... .. . ... : ... .. . ... ...
ROW AE : ... .. . P80 ... ... : ... .. . ... ... ... : ... .. . ... : ... .. . ... : ... .. . ... ...
ROW AF : ... .. . P7F ... ... : ... .. 0 ... ... ... : ... .. . ... : ... .. . ... : ... .. . ... ...
ROW B0 : F#3 00 F P80 V00 ... : B-1 00 B P80 V02 ... : B-4 00 . P82 : C-# 00 F ... : C#0 00 . Z40 ...
ROW B1 : ... .. . P81 V02 ... : ... .. . ... V00 ... : ... .. . P80 : ... .. . ... : ... .. . ... ...
ROW B2 : ... .. . ... ... ... : ... .. . ... ... ... : ... .. . ... : ... .. 0 ... : ... .. . ... ...
ROW B3 : ... .. . P80 ... ... : ... .. 7 ... ... ... : ... .. . ... : ... .. . ... : ... .. . ... ...
ROW B4 : ... .. . P7F ... ... : ... .. 6 ... ... ... : ... .. . P7E : ... .. . ... : ... .. . ... ...
ROW B5 : ... .. . ... ... ... : ... .. 0 ... ... ... : ... .. . P7F : ... .. . ... : ... .. . ... ...
ROW B6 : ... .. . ... ... ... : B-1 00 B P80 V02 ... : A-4 00 . P82 : ... .. F ... : C#0 00 . Z40 ...
ROW B7 : ... .. . P81 ... ... : ... .. . ... V00 ... : ... .. . P80 : ... .. . ... : ... .. . ... ...
ROW B8 : ... .. . ... ... ... : ... .. . ... ... ... : ... .. . ... : ... .. 0 ... : ... .. . ... ...
ROW B9 : ... .. E ... ... ... : ... .. 7 ... ... ... : ... .. . ... : ... .. . ... : ... .. . ... ...
ROW BA : ... .. D P80 ... ... : ... .. 6 ... ... ... : ... .. . P7E : ... .. . ... : ... .. . ... ...
ROW BB : ... .. C P7F ... ... : ... .. 0 ... ... ... : ... .. . P7F : ... .. . ... : ... .. . ... ...
ROW BC : B-3 00 F P80 V00 ... : B-1 00 B P80 V02 ... : F#4 00 . P82 : 4-# 00 F ... : D#0 00 . Z40 ...
ROW BD : ... .. . P81 V02 ... : ... .. . ... V00 ... : ... .. . P80 : ... .. . ... : ... .. . ... ...
ROW BE : ... .. . ... ... ... : ... .. . ... ... ... : ... .. . ... : ... .. 0 ... : ... .. . ... ...
ROW BF : ... .. . P80 ... ... : ... .. 7 ... ... ... : ... .. . ... : ... .. . ... : ... .. . ... ...
ROW C0 : ... .. . P7F ... ... : ... .. 6 ... ... ... : ... .. . P7E : ... .. . ... : ... .. . ... ...
ROW C1 : ... .. . ... ... ... : ... .. 5 ... ... ... : ... .. . P7F : ... .. . ... : ... .. . ... ...
ROW C2 : ... .. . ... ... ... : ... .. 4 ... ... ... : ... .. . P80 : ... .. . ... : ... .. . ... ...
ROW C3 : ... .. . P81 ... ... : ... .. . ... ... ... : ... .. . ... : ... .. . ... : ... .. . ... ...
ROW C4 : ... .. . ... ... ... : ... .. . ... ... ... : ... .. . ... : ... .. . ... : ... .. . ... ...
ROW C5 : ... .. E ... ... ... : ... .. . ... ... ... : ... .. . ... : ... .. . ... : ... .. . ... ...
ROW C6 : ... .. C P7F ... ... : ... .. 0 ... ... ... : ... .. . ... : ... .. . ... : ... .. . ... ...
ROW C7 : D-4 00 F P80 V00 ... : ... .. B ... V02 ... : ... .. . ... : C-# 00 F ... : C#0 00 . Z40 ...
ROW C8 : ... .. . P81 V02 ... : ... .. . ... V00 ... : ... .. . ... : ... .. . ... : ... .. . ... ...
ROW C9 : ... .. . ... ... ... : ... .. . ... ... ... : ... .. . ... : ... .. 0 ... : ... .. . ... ...
ROW CA : ... .. . P80 ... ... : ... .. 7 ... ... ... : ... .. . ... : ... .. . ... : ... .. . ... ...
ROW CB : ... .. . P7F ... ... : ... .. 6 ... ... ... : ... .. . ... : ... .. . ... : ... .. . ... ...
ROW CC : ... .. . ... ... ... : ... .. 0 ... ... ... : ... .. . ... : ... .. . ... : ... .. . ... ...
ROW CD : ... .. . ... ... ... : B-1 00 B P80 V02 ... : A-4 00 . P82 : ... .. F ... : C#0 00 . Z40 ...
ROW CE : ... .. . P81 ... ... : ... .. . ... V00 ... : ... .. . P80 : ... .. . ... : ... .. . ... ...
ROW CF : ... .. . ... ... ... : ... .. . ... ... ... : ... .. . ... : ... .. 0 ... : ... .. . ... ...
ROW D0 : ... .. E ... ... ... : ... .. 7 ... ... ... : ... .. . ... : ... .. . ... : ... .. . ... ...
ROW D1 : ... .. D P80 ... ... : ... .. 6 ... ... ... : ... .. . P7E : ... .. . ... : ... .. . ... ...
ROW D2 : ... .. C P7F ... ... : ... .. 0 ... ... ... : ... .. . P7F : ... .. . ... : ... .. . ... ...
ROW D3 : C#4 00 F P80 V00 ... : A-1 00 B P80 V02 ... : C#5 00 . P82 : 4-# 00 F ... : D-0 00 . Z40 ...
ROW D4 : ... .. . P81 V02 ... : ... .. . ... V00 ... : ... .. . P80 : ... .. . ... : ... .. . ... ...
ROW D5 : ... .. . ... ... ... : ... .. . ... ... ... : ... .. . ... : ... .. 0 ... : ... .. . ... ...
ROW D6 : ... .. . P80 ... ... : ... .. 7 ... ... ... : ... .. . ... : ... .. . ... : ... .. . ... ...
ROW D7 : ... .. . P7F ... ... : ... .. 6 ... ... ... : ... .. . P7E : ... .. . ... : ... .. . ... ...
ROW D8 : ... .. 0 ... ... ... : ... .. 5 ... ... ... : ... .. . P7F : ... .. . ... : ... .. . ... ...
ROW D9 : ... .. . ... ... ... : ... .. 4 ... ... ... : ... .. . P80 : ... .. . ... : ... .. . ... ...
ROW DA : ... .. . ... ... ... : ... .. . ... ... ... : ... .. . ... : ... .. . ... : ... .. . ... ...
ROW DB : ... .. . ... ... ... : ... .. . ... ... ... : ... .. . ... : ... .. . ... : ... .. . ... ...
ROW DC : ... .. . ... ... ... : ... .. . ... ... ... : ... .. . ... : ... .. . ... : ... .. . ... ...
ROW DD : ... .. . ... ... ... : ... .. . ... ... ... : ... .. . ... : ... .. . ... : ... .. . ... ...
ROW DE : ... .. . ... ... ... : ... .. 0 ... ... ... : ... .. . ... : ... .. . ... : ... .. . ... ...
ROW DF : ... .. . ... ... ... : A-1 00 B P80 V02 ... : ... .. . ... : C-# 00 F ... : C#0 00 . Z40 ...
ROW E0 : ... .. . ... ... ... : ... .. . ... V00 ... : ... .. . ... : ... .. . ... : ... .. . ... ...
ROW E1 : ... .. . ... ... ... : ... .. . ... ... ... : ... .. . ... : ... .. 0 ... : ... .. . ... ...
ROW E2 : ... .. . ... ... ... : ... .. 7 ... ... ... : ... .. . ... : ... .. . ... : ... .. . ... ...
ROW E3 : ... .. . ... ... ... : ... .. 6 ... ... ... : ... .. . ... : ... .. . ... : ... .. . ... ...
ROW E4 : ... .. . ... ... ... : ... .. 0 ... ... ... : ... .. . ... : ... .. . ... : ... .. . ... ...
ROW E5 : A-3 00 F P80 V00 ... : A-1 00 B P80 V02 ... : A-4 00 . P82 : ... .. F ... : C#0 00 . Z40 ...
ROW E6 : ... .. . P81 V02 ... : ... .. . ... V00 ... : ... .. . P80 : ... .. . ... : ... .. . ... ...
ROW E7 : ... .. . ... ... ... : ... .. . ... ... ... : ... .. . ... : ... .. 0 ... : ... .. . ... ...
ROW E8 : ... .. . P80 ... ... : ... .. 7 ... ... ... : ... .. . ... : ... .. . ... : ... .. . ... ...
ROW E9 : ... .. . P7F ... ... : ... .. 0 ... ... ... : ... .. . P7F : ... .. . ... : ... .. . ... ...
ROW EA : E-3 00 F P80 V00 ... : ... .. B ... V02 ... : E-4 00 . P82 : 4-# 00 F ... : D#0 00 . Z40 ...
ROW EB : ... .. . P81 V02 ... : ... .. . ... V00 ... : ... .. . P80 : ... .. . ... : ... .. . ... ...
ROW EC : ... .. . ... ... ... : ... .. . ... ... ... : ... .. . ... : ... .. 0 ... : ... .. . ... ...
ROW ED : ... .. . P80 ... ... : ... .. 7 ... ... ... : ... .. . ... : ... .. . ... : ... .. . ... ...
ROW EE : ... .. . P7F ... ... : ... .. 6 ... ... ... : ... .. . P7E : ... .. . ... : ... .. . ... ...
ROW EF : ... .. . ... ... ... : ... .. 5 ... ... ... : ... .. . P7F : ... .. . ... : ... .. . ... ...
ROW F0 : ... .. . ... ... ... : ... .. 4 ... ... ... : ... .. . P80 : ... .. . ... : ... .. . ... ...
ROW F1 : ... .. . P81 ... ... : ... .. . ... ... ... : ... .. . ... : ... .. . ... : ... .. . ... ...
ROW F2 : ... .. . ... ... ... : ... .. . ... ... ... : ... .. . ... : ... .. . ... : ... .. . ... ...
ROW F3 : ... .. E ... ... ... : ... .. . ... ... ... : ... .. . ... : ... .. . ... : ... .. . ... ...
ROW F4 : ... .. D P80 ... ... : ... .. . ... ... ... : ... .. . ... : ... .. . ... : ... .. . ... ...
ROW F5 : ... .. C P7F ... ... : ... .. 0 ... ... ... : ... .. . ... : ... .. . ... : ... .. . ... ...
ROW F6 : ... .. B ... ... ... : A-1 00 B P80 V02 ... : ... .. . ... : C-# 00 F ... : C#0 00 . Z40 ...
ROW F7 : ... .. 9 P80 ... ... : ... .. . ... V00 ... : ... .. . ... : ... .. . ... : ... .. . ... ...
ROW F8 : ... .. 8 P81 ... ... : ... .. . ... ... ... : ... .. . ... : ... .. 0 ... : ... .. . ... ...
ROW F9 : ... .. 7 ... ... ... : ... .. 7 ... ... ... : ... .. . ... : ... .. . ... : ... .. . ... ...
ROW FA : ... .. . ... ... ... : ... .. 6 ... ... ... : ... .. . ... : ... .. . ... : ... .. . ... ...
ROW FB : ... .. . P80 ... ... : ... .. 0 ... ... ... : ... .. . ... : ... .. . ... : ... .. . ... ...
ROW FC : ... .. . P7F ... ... : A-1 00 B P80 V02 ... : A-4 00 . P82 : ... .. F ... : C#0 00 . Z40 ...
ROW FD : ... .. . ... ... ... : ... .. . ... V00 ... : ... .. . P80 : ... .. . ... : ... .. . ... ...
ROW FE : ... .. . P80 ... ... : ... .. . ... ... ... : ... .. . ... : ... .. 0 ... : ... .. . ... ...
ROW FF : ... .. . P81 ... ... : ... .. 7 ... ... ... : ... .. . ... : ... .. . ... : ... .. . ... ...

PATTERN 02
ROW 00 : ... .. . ... ... ... : ... .. 6 ... ... ... : ... .. . P7E : ... .. . ... : ... .. . ... ...
ROW 01 : ... .. . ... ... ... : ... .. 0 ... ... ... : ... .. . P7F : ... .. . ... : ... .. . ... ...
ROW 02 : ... .. . P80 ... ... : A-1 00 B P80 V02 ... : C#5 00 . P82 : 4-# 00 F ... : D-0 00 . Z40 ...
ROW 03 : ... .. . P7F ... ... : ... .. . ... V00 ... : ... .. . P80 : ... .. . ... : ... .. . ... ...
ROW 04 : ... .. . ... ... ... : ... .. . ... ... ... : ... .. . ... : ... .. 0 ... : ... .. . ... ...
ROW 05 : ... .. . P80 ... ... : ... .. 7 ... ... ... : ... .. . ... : ... .. . ... : ... .. . ... ...
ROW 06 : ... .. . P81 ... ... : ... .. 6 ... ... ... : ... .. . P7E : ... .. . ... : ... .. . ... ...
ROW 07 : ... .. . ... ... ... : ... .. 5 ... ... ... : --- .. . ... : ... .. . ... : ... .. . ... ...
ROW 08 : ... .. . ... ... ... : ... .. 4 ... ... ... : ... .. . ... : ... .. . ... : ... .. . ... ...
ROW 09 : ... .. . P7F ... ... : ... .. . ... ... ... : ... .. . ... : ... .. . ... : ... .. . ... ...
ROW 0A : ... .. . ... ... ... : ... .. . ... ... ... : ... .. . ... : ... .. . ... : ... .. . ... ...
ROW 0B : ... .. . ... ... ... : ... .. . ... ... ... : ... .. . ... : ... .. . ... : ... .. . ... ...
ROW 0C : ... .. . P81 ... ... : ... .. 0 ... ... ... : ... .. . ... : ... .. . ... : ... .. . ... ...
ROW 0D : ... .. . ... ... ... : ... .. B ... V02 ... : C#5 00 . P82 : C-# 00 F ... : C#0 00 . Z40 ...
ROW 0E : ... .. . P80 ... ... : ... .. . ... V00 ... : ... .. . P80 : ... .. . ... : ... .. . ... ...
ROW 0F : ... .. . P7F ... ... : ... .. . ... ... ... : ... .. . ... : ... .. 0 ... : ... .. . ... ...
ROW 10 : ... .. . ... ... ... : ... .. 7 ... ... ... : ... .. . ... : ... .. . ... : ... .. . ... ...
ROW 11 : ... .. . ... ... ... : ... .. 6 ... ... ... : ... .. . P7E : ... .. . ... : ... .. . ... ...
ROW 12 : ... .. . P80 ... ... : ... .. 0 ... ... ... : ... .. . P7F : ... .. . ... : ... .. . ... ...
ROW 13 : ... .. . P81 ... ... : A-1 00 B P80 V02 ... : A-4 00 . P82 : ... .. F ... : C#0 00 . Z40 ...
ROW 14 : ... .. . ... ... ... : ... .. . ... V00 ... : ... .. . P80 : ... .. . ... : ... .. . ... ...
ROW 15 : ... .. . P80 ... ... : ... .. . ... ... ... : ... .. . ... : ... .. 0 ... : ... .. . ... ...
ROW 16 : ... .. . P7F ... ... : ... .. 7 ... ... ... : ... .. . ... : ... .. . ... : ... .. . ... ...
ROW 17 : ... .. . ... ... ... : ... .. 6 ... ... ... : ... .. . P7E : ... .. . ... : ... .. . ... ...
ROW 18 : ... .. . ... ... ... : ... .. 0 ... ... ... : ... .. . P7F : ... .. . ... : ... .. . ... ...
ROW 19 : ... .. . P80 ... ... : F#1 00 B P80 V02 ... : E-4 00 . P82 : 4-# 00 F ... : D#0 00 . Z40 ...
ROW 1A : ... .. . P81 ... ... : ... .. . ... V00 ... : ... .. . P80 : ... .. . ... : ... .. . ... ...
ROW 1B : ... .. . ... ... ... : ... .. . ... ... ... : ... .. . ... : ... .. 0 ... : ... .. . ... ...
ROW 1C : ... .. . P80 ... ... : ... .. 7 ... ... ... : ... .. . ... : ... .. . ... : ... .. . ... ...
ROW 1D : ... .. . P7F ... ... : ... .. 6 ... ... ... : ... .. . P7E : ... .. . ... : ... .. . ... ...
ROW 1E : ... .. . ... ... ... : ... .. 5 ... ... ... : ... .. . P7F : ... .. . ... : ... .. . ... ...
ROW 1F : ... .. . ... ... ... : ... .. 4 ... ... ... : ... .. . P80 : ... .. . ... : ... .. . ... ...
ROW 20 : ... .. . P81 ... ... : ... .. . ... ... ... : ... .. . ... : ... .. . ... : ... .. . ... ...
ROW 21 : ... .. . ... ... ... : ... .. . ... ... ... : ... .. . ... : ... .. . ... : ... .. . ... ...
ROW 22 : ... .. . ... ... ... : ... .. . ... ... ... : ... .. . ... : ... .. . ... : ... .. . ... ...
ROW 23 : ... .. . P80 ... ... : ... .. . ... ... ... : ... .. . ... : ... .. . ... : ... .. . ... ...
ROW 24 : ... .. . P7F ... ... : ... .. . ... ... ... : ... .. . ... : ... .. . ... : ... .. . ... ...
ROW 25 : B-3 00 F P80 V00 ... : A-1 00 B ... V02 ... : ... .. . ... : C-# 00 F ... : C#0 00 . Z40 ...
ROW 26 : ... .. . P81 V02 ... : ... .. . ... V00 ... : ... .. . ... : ... .. . ... : ... .. . ... ...
ROW 27 : ... .. . ... ... ... : ... .. . ... ... ... : ... .. . ... : ... .. 0 ... : ... .. . ... ...
ROW 28 : ... .. . P80 ... ... : ... .. 7 ... ... ... : ... .. . ... : ... .. . ... : ... .. . ... ...
ROW 29 : ... .. . P7F ... ... : ... .. 6 ... ... ... : ... .. . ... : ... .. . ... : ... .. . ... ...
ROW 2A : ... .. . ... ... ... : ... .. 5 ... ... ... : ... .. . ... : ... .. . ... : ... .. . ... ...
ROW 2B : C#4 00 F P80 V00 ... : ... .. 4 ... ... ... : A-4 00 . P82 : ... .. . ... : C#0 00 . Z40 ...
ROW 2C : ... .. . P81 V02 ... : ... .. . ... ... ... : ... .. . P80 : ... .. . ... : ... .. . ... ...
ROW 2D : ... .. . ... ... ... : ... .. . ... ... ... : ... .. . ... : ... .. . ... : ... .. . ... ...
ROW 2E : ... .. . P80 ... ... : ... .. . ... ... ... : ... .. . ... : ... .. . ... : ... .. . ... ...
ROW 2F : ... .. . P7F ... ... : ... .. . ... ... ... : --- .. . P7E : ... .. . ... : ... .. . ... ...
ROW 30 : D-4 00 F P80 V00 ... : B-1 00 B ... V02 ... : B-4 00 . P82 : 4-# 00 F ... : D-0 00 . Z40 ...
ROW 31 : ... .. . P81 V02 ... : ... .. . ... V00 ... : ... .. . P80 : ... .. . ... : ... .. . ... ...
ROW 32 : ... .. . ... ... ... : ... .. . ... ... ... : ... .. . ... : ... .. 0 ... : ... .. . ... ...
ROW 33 : ... .. . P80 ... ... : ... .. 7 ... ... ... : ... .. . ... : ... .. . ... : ... .. . ... ...
ROW 34 : ... .. . P7F ... ... : ... .. 6 ... ... ... : ... .. . P7E : ... .. . ... : ... .. . ... ...
ROW 35 : ... .. . ... ... ... : ... .. 5 ... ... ... : ... .. . P7F : ... .. . ... : ... .. . ... ...
ROW 36 : ... .. . ... ... ... : ... .. 4 ... ... ... : ... .. . P80 : ... .. . ... : ... .. . ... ...
ROW 37 : ... .. . P81 ... ... : ... .. . ... ... ... : ... .. . ... : ... .. . ... : ... .. . ... ...
ROW 38 : ... .. . ... ... ... : ... .. . ... ... ... : ... .. . ... : ... .. . ... : ... .. . ... ...
ROW 39 : ... .. E ... ... ... : ... .. . ... ... ... : ... .. . ... : ... .. . ... : ... .. . ... ...
ROW 3A : ... .. D P80 ... ... : ... .. . ... ... ... : ... .. . ... : ... .. . ... : ... .. . ... ...
ROW 3B : ... .. C P7F ... ... : ... .. 0 ... ... ... : ... .. . ... : ... .. . ... : ... .. . ... ...
ROW 3C : ... .. B ... ... ... : B-1 00 B P80 V02 ... : ... .. . ... : C-# 00 F ... : C#0 00 . Z40 ...
ROW 3D : ... .. 9 P80 ... ... : ... .. . ... V00 ... : ... .. . ... : ... .. . ... : ... .. . ... ...
ROW 3E : ... .. 8 P81 ... ... : ... .. . ... ... ... : ... .. . ... : ... .. 0 ... : ... .. . ... ...
ROW 3F : ... .. 7 ... ... ... : ... .. 7 ... ... ... : ... .. . ... : ... .. . ... : ... .. . ... ...
ROW 40 : ... .. . ... ... ... : ... .. 6 ... ... ... : ... .. . ... : ... .. . ... : ... .. . ... ...
ROW 41 : ... .. . P80 ... ... : ... .. 0 ... ... ... : ... .. . ... : ... .. . ... : ... .. . ... ...
ROW 42 : ... .. . P7F ... ... : B-1 00 B P80 V02 ... : A-4 00 . P82 : ... .. F ... : C#0 00 . Z40 ...
ROW 43 : ... .. . ... ... ... : ... .. . ... V00 ... : ... .. . P80 : ... .. . ... : ... .. . ... ...
ROW 44 : ... .. . P80 ... ... : ... .. . ... ... ... : ... .. . ... : ... .. 0 ... : ... .. . ... ...
ROW 45 : ... .. . P81 ... ... : ... .. 7 ... ... ... : ... .. . ... : ... .. . ... : ... .. . ... ...
ROW 46 : ... .. . ... ... ... : ... .. 6 ... ... ... : ... .. . P7E : ... .. . ... : ... .. . ... ...
ROW 47 : ... .. . ... ... ... : ... .. 0 ... ... ... : ... .. . P7F : ... .. . ... : ... .. . ... ...
ROW 48 : ... .. . P80 ... ... : B-1 00 B P80 V02 ... : F#4 00 . P82 : 4-# 00 F ... : D#0 00 . Z40 ...
ROW 49 : ... .. . P7F ... ... : ... .. . ... V00 ... : ... .. . P80 : ... .. . ... : ... .. . ... ...
ROW 4A : ... .. . ... ... ... : ... .. . ... ... ... : ... .. . ... : ... .. 0 ... : ... .. . ... ...
ROW 4B : ... .. . P80 ... ... : ... .. 7 ... ... ... : ... .. . ... : ... .. . ... : ... .. . ... ...
ROW 4C : ... .. . P81 ... ... : ... .. 6 ... ... ... : ... .. . P7E : ... .. . ... : ... .. . ... ...
ROW 4D : ... .. . ... ... ... : ... .. 5 ... ... ... : ... .. . P7F : ... .. . ... : ... .. . ... ...
ROW 4E : ... .. . ... ... ... : ... .. 4 ... ... ... : ... .. . P80 : ... .. . ... : ... .. . ... ...
ROW 4F : ... .. . P7F ... ... : ... .. . ... ... ... : ... .. . ... : ... .. . ... : ... .. . ... ...
ROW 50 : ... .. . ... ... ... : ... .. . ... ... ... : ... .. . ... : ... .. . ... : ... .. . ... ...
ROW 51 : ... .. . ... ... ... : ... .. . ... ... ... : ... .. . ... : ... .. . ... : ... .. . ... ...
ROW 52 : ... .. . P81 ... ... : ... .. 0 ... ... ... : ... .. . ... : ... .. . ... : ... .. . ... ...
ROW 53 : ... .. . ... ... ... : ... .. B ... V02 ... : ... .. . ... : C-# 00 F ... : C#0 00 . Z40 ...
ROW 54 : ... .. . P80 ... ... : ... .. . ... V00 ... : ... .. . ... : ... .. . ... : ... .. . ... ...
ROW 55 : ... .. . P7F ... ... : ... .. . ... ... ... : ... .. . ... : ... .. 0 ... : ... .. . ... ...
ROW 56 : ... .. . ... ... ... : ... .. 7 ... ... ... : ... .. . ... : ... .. . ... : ... .. . ... ...
ROW 57 : ... .. . ... ... ... : ... .. 6 ... ... ... : ... .. . ... : ... .. . ... : ... .. . ... ...
ROW 58 : ... .. . P80 ... ... : ... .. 0 ... ... ... : ... .. . ... : ... .. . ... : ... .. . ... ...
ROW 59 : ... .. . P81 ... ... : B-1 00 B P80 V02 ... : A-4 00 . P82 : ... .. F ... : C#0 00 . Z40 ...
ROW 5A : ... .. . ... ... ... : ... .. . ... V00 ... : ... .. . P80 : ... .. . ... : ... .. . ... ...
ROW 5B : ... .. . P80 ... ... : ... .. . ... ... ... : ... .. . ... : ... .. 0 ... : ... .. . ... ...
ROW 5C : ... .. . P7F ... ... : ... .. 7 ... ... ... : ... .. . ... : ... .. . ... : ... .. . ... ...
ROW 5D : ... .. . ... ... ... : ... .. 6 ... ... ... : ... .. . P7E : ... .. . ... : ... .. . ... ...
ROW 5E : ... .. . ... ... ... : ... .. 0 ... ... ... : ... .. . P7F : ... .. . ... : ... .. . ... ...
ROW 5F : ... .. . P80 ... ... : B-1 00 B P80 V02 ... : B-4 00 . P82 : 4-# 00 F ... : D-0 00 . Z40 ...
ROW 60 : ... .. . P81 ... ... : ... .. . ... V00 ... : ... .. . P80 : ... .. . ... : ... .. . ... ...
ROW 61 : ... .. . ... ... ... : ... .. . ... ... ... : ... .. . ... : ... .. 0 ... : ... .. . ... ...
ROW 62 : ... .. . P80 ... ... : ... .. 7 ... ... ... : ... .. . ... : ... .. . ... : ... .. . ... ...
ROW 63 : ... .. . P7F ... ... : ... .. 6 ... ... ... : ... .. . P7E : ... .. . ... : ... .. . ... ...
ROW 64 : ... .. . ... ... ... : ... .. 5 ... ... ... : --- .. . ... : ... .. . ... : ... .. . ... ...
ROW 65 : ... .. . ... ... ... : ... .. 4 ... ... ... : ... .. . ... : ... .. . ... : ... .. . ... ...
ROW 66 : ... .. . P81 ... ... : ... .. . ... ... ... : ... .. . ... : ... .. . ... : ... .. . ... ...
ROW 67 : ... .. . ... ... ... : ... .. . ... ... ... : ... .. . ... : ... .. . ... : ... .. . ... ...
ROW 68 : ... .. . ... ... ... : ... .. . ... ... ... : ... .. . ... : ... .. . ... : ... .. . ... ...
ROW 69 : ... .. . P80 ... ... : ... .. . ... ... ... : ... .. . ... : ... .. . ... : ... .. . ... ...
ROW 6A : ... .. . P7F ... ... : ... .. 0 ... ... ... : ... .. . ... : ... .. . ... : ... .. . ... ...
ROW 6B : B-3 00 F P80 V00 ... : B-1 00 B P80 V02 ... : B-4 00 . P82 : C-# 00 F ... : C#0 00 . Z40 ...
ROW 6C : ... .. . P81 V02 ... : ... .. . ... V00 ... : ... .. . P80 : ... .. . ... : ... .. . ... ...
ROW 6D : ... .. . ... ... ... : ... .. . ... ... ... : ... .. . ... : ... .. 0 ... : ... .. . ... ...
ROW 6E : ... .. . P80 ... ... : ... .. 7 ... ... ... : ... .. . ... : ... .. . ... : ... .. . ... ...
ROW 6F : ... .. . P7F ... ... : ... .. 6 ... ... ... : ... .. . P7E : ... .. . ... : ... .. . ... ...
ROW 70 : ... .. . ... ... ... : ... .. 0 ... ... ... : ... .. . P7F : ... .. . ... : ... .. . ... ...
ROW 71 : ... .. . ... ... ... : B-1 00 B P80 V02 ... : A-4 00 . P82 : ... .. F ... : C#0 00 . Z40 ...
ROW 72 : ... .. . P81 ... ... : ... .. . ... V00 ... : ... .. . P80 : ... .. . ... : ... .. . ... ...
ROW 73 : ... .. . ... ... ... : ... .. . ... ... ... : ... .. . ... : ... .. 0 ... : ... .. . ... ...
ROW 74 : ... .. E ... ... ... : ... .. 7 ... ... ... : ... .. . ... : ... .. . ... : ... .. . ... ...
ROW 75 : ... .. C P7F ... ... : ... .. 0 ... ... ... : ... .. . P7F : ... .. . ... : ... .. . ... ...
ROW 76 : D-4 00 F P80 V00 ... : ... .. B ... V02 ... : F#4 00 . P82 : 4-# 00 F ... : D#0 00 . Z40 ...
ROW 77 : ... .. . P81 V02 ... : ... .. . ... V00 ... : ... .. . P80 : ... .. . ... : ... .. . ... ...
ROW 78 : ... .. . ... ... ... : ... .. . ... ... ... : ... .. . ... : ... .. 0 ... : ... .. . ... ...
ROW 79 : ... .. . P80 ... ... : ... .. 7 ... ... ... : ... .. . ... : ... .. . ... : ... .. . ... ...
ROW 7A : ... .. . P7F ... ... : ... .. 6 ... ... ... : ... .. . P7E : ... .. . ... : ... .. . ... ...
ROW 7B : ... .. . ... ... ... : ... .. 5 ... ... ... : ... .. . P7F : ... .. . ... : ... .. . ... ...
ROW 7C : ... .. . ... ... ... : ... .. 4 ... ... ... : ... .. . P80 : ... .. . ... : ... .. . ... ...
ROW 7D : ... .. . P81 ... ... : ... .. . ... ... ... : ... .. . ... : ... .. . ... : ... .. . ... ...
ROW 7E : ... .. . ... ... ... : ... .. . ... ... ... : ... .. . ... : ... .. . ... : ... .. . ... ...
ROW 7F : ... .. E ... ... ... : ... .. . ... ... ... : ... .. . ... : ... .. . ... : ... .. . ... ...
ROW 80 : ... .. D P80 ... ... : ... .. . ... ... ... : ... .. . ... : ... .. . ... : ... .. . ... ...
ROW 81 : ... .. C P7F ... ... : ... .. 0 ... ... ... : ... .. . ... : ... .. . ... : ... .. . ... ...
ROW 82 : F#4 00 F P80 V00 ... : B-1 00 B P80 V02 ... : ... .. . ... : C-# 00 F ... : C#0 00 . Z40 ...
ROW 83 : ... .. . P81 V02 ... : ... .. . ... V00 ... : ... .. . ... : ... .. . ... : ... .. . ... ...
ROW 84 : ... .. . ... ... ... : ... .. . ... ... ... : ... .. . ... : ... .. 0 ... : ... .. . ... ...
ROW 85 : ... .. . P80 ... ... : ... .. 7 ... ... ... : ... .. . ... : ... .. . ... : ... .. . ... ...
ROW 86 : ... .. . P7F ... ... : ... .. 6 ... ... ... : ... .. . ... : ... .. . ... : ... .. . ... ...
ROW 87 : ... .. . ... ... ... : ... .. 0 ... ... ... : ... .. . ... : ... .. . ... : ... .. . ... ...
ROW 88 : ... .. . ... ... ... : B-1 00 B P80 V02 ... : A-4 00 . P82 : ... .. F ... : C#0 00 . Z40 ...
ROW 89 : ... .. . P81 ... ... : ... .. . ... V00 ... : ... .. . P80 : ... .. . ... : ... .. . ... ...
ROW 8A : ... .. . ... ... ... : ... .. . ... ... ... : ... .. . ... : ... .. 0 ... : ... .. . ... ...
ROW 8B : ... .. E ... ... ... : ... .. 7 ... ... ... : ... .. . ... : ... .. . ... : ... .. . ... ...
ROW 8C : ... .. D P80 ... ... : ... .. 6 ... ... ... : ... .. . P7E : ... .. . ... : ... .. . ... ...
ROW 8D : ... .. C P7F ... ... : ... .. 0 ... ... ... : ... .. . P7F : ... .. . ... : ... .. . ... ...
ROW 8E : A-4 00 F P80 V00 ... : A-1 00 B P80 V02 ... : C#5 00 . P82 : 4-# 00 F ... : D-0 00 . Z40 ...
ROW 8F : ... .. . P81 V02 ... : ... .. . ... V00 ... : ... .. . P80 : ... .. . ... : ... .. . ... ...
ROW 90 : ... .. . ... ... ... : ... .. . ... ... ... : ... .. . ... : ... .. 0 ... : ... .. . ... ...
ROW 91 : ... .. . P80 ... ... : ... .. 7 ... ... ... : ... .. . ... : ... .. . ... : ... .. . ... ...
ROW 92 : ... .. . P7F ... ... : ... .. 6 ... ... ... : ... .. . P7E : ... .. . ... : ... .. . ... ...
ROW 93 : ... .. 0 ... ... ... : ... .. 5 ... ... ... : ... .. . P7F : ... .. . ... : ... .. . ... ...
ROW 94 : ... .. . ... ... ... : ... .. 4 ... ... ... : ... .. . P80 : ... .. . ... : ... .. . ... ...
ROW 95 : ... .. . ... ... ... : ... .. . ... ... ... : ... .. . ... : ... .. . ... : ... .. . ... ...
ROW 96 : ... .. . ... ... ... : ... .. . ... ... ... : ... .. . ... : ... .. . ... : ... .. . ... ...
ROW 97 : ... .. . ... ... ... : ... .. . ... ... ... : ... .. . ... : ... .. . ... : ... .. . ... ...
ROW 98 : ... .. . ... ... ... : ... .. 0 ... ... ... : ... .. . ... : ... .. . ... : ... .. . ... ...
ROW 99 : ... .. . ... ... ... : ... .. B ... V02 ... : ... .. . ... : C-# 00 F ... : C#0 00 . Z40 ...
ROW 9A : ... .. . ... ... ... : ... .. . ... V00 ... : ... .. . ... : ... .. . ... : ... .. . ... ...
ROW 9B : ... .. . ... ... ... : ... .. . ... ... ... : ... .. . ... : ... .. 0 ... : ... .. . ... ...
ROW 9C : ... .. . ... ... ... : ... .. 7 ... ... ... : ... .. . ... : ... .. . ... : ... .. . ... ...
ROW 9D : ... .. . ... ... ... : ... .. 6 ... ... ... : ... .. . ... : ... .. . ... : ... .. . ... ...
ROW 9E : ... .. . ... ... ... : ... .. 0 ... ... ... : ... .. . ... : ... .. . ... : ... .. . ... ...
ROW 9F : E-4 00 F P80 V00 ... : A-1 00 B P80 V02 ... : A-4 00 . P82 : ... .. F ... : C#0 00 . Z40 ...
ROW A0 : ... .. . P81 V02 ... : ... .. . ... V00 ... : ... .. . P80 : ... .. . ... : ... .. . ... ...
ROW A1 : ... .. . ... ... ... : ... .. . ... ... ... : ... .. . ... : ... .. 0 ... : ... .. . ... ...
ROW A2 : ... .. . P80 ... ... : ... .. 7 ... ... ... : ... .. . ... : ... .. . ... : ... .. . ... ...
ROW A3 : ... .. . P7F ... ... : ... .. 6 ... ... ... : ... .. . P7E : ... .. . ... : ... .. . ... ...
ROW A4 : ... .. 0 ... ... ... : ... .. 0 ... ... ... : ... .. . P7F : ... .. . ... : ... .. . ... ...
ROW A5 : C#4 00 F P80 V00 ... : A-1 00 B P80 V02 ... : E-4 00 . P82 : 4-# 00 F ... : D#0 00 . Z40 ...
ROW A6 : ... .. . P81 V02 ... : ... .. . ... V00 ... : ... .. . P80 : ... .. . ... : ... .. . ... ...
ROW A7 : ... .. . ... ... ... : ... .. . ... ... ... : ... .. . ... : ... .. 0 ... : ... .. . ... ...
ROW A8 : ... .. . P80 ... ... : ... .. 7 ... ... ... : ... .. . ... : ... .. . ... : ... .. . ... ...
ROW A9 : ... .. . P7F ... ... : ... .. 6 ... ... ... : ... .. . P7E : ... .. . ... : ... .. . ... ...
ROW AA : ... .. . ... ... ... : ... .. 5 ... ... ... : ... .. . P7F : ... .. . ... : ... .. . ... ...
ROW AB : ... .. . ... ... ... : ... .. 4 ... ... ... : ... .. . P80 : ... .. . ... : ... .. . ... ...
ROW AC : ... .. . P81 ... ... : ... .. . ... ... ... : ... .. . ... : ... .. . ... : ... .. . ... ...
ROW AD : ... .. . ... ... ... : ... .. . ... ... ... : ... .. . ... : ... .. . ... : ... .. . ... ...
ROW AE : ... .. E ... ... ... : ... .. . ... ... ... : ... .. . ... : ... .. . ... : ... .. . ... ...
ROW AF : ... .. D P80 ... ... : ... .. . ... ... ... : ... .. . ... : ... .. . ... : ... .. . ... ...
ROW B0 : ... .. C P7F ... ... : ... .. 0 ... ... ... : ... .. . ... : ... .. . ... : ... .. . ... ...
ROW B1 : ... .. B ... ... ... : A-1 00 B P80 V02 ... : ... .. . ... : C-# 00 F ... : C#0 00 . Z40 ...
ROW B2 : ... .. 9 P80 ... ... : ... .. . ... V00 ... : ... .. . ... : ... .. . ... : ... .. . ... ...
ROW B3 : ... .. 8 P81 ... ... : ... .. . ... ... ... : ... .. . ... : ... .. 0 ... : ... .. . ... ...
ROW B4 : ... .. 7 ... ... ... : ... .. 7 ... ... ... : ... .. . ... : ... .. . ... : ... .. . ... ...
ROW B5 : ... .. . ... ... ... : ... .. 6 ... ... ... : ... .. . ... : ... .. . ... : ... .. . ... ...
ROW B6 : ... .. . P80 ... ... : ... .. 0 ... ... ... : ... .. . ... : ... .. . ... : ... .. . ... ...
ROW B7 : ... .. . P7F ... ... : A-1 00 B P80 V02 ... : A-4 00 . P82 : ... .. F ... : C#0 00 . Z40 ...
ROW B8 : ... .. . ... ... ... : ... .. . ... V00 ... : ... .. . P80 : ... .. . ... : ... .. . ... ...
ROW B9 : ... .. . P80 ... ... : ... .. . ... ... ... : ... .. . ... : ... .. 0 ... : ... .. . ... ...
ROW BA : ... .. . P81 ... ... : ... .. 7 ... ... ... : ... .. . ... : ... .. . ... : ... .. . ... ...
ROW BB : ... .. . ... ... ... : ... .. 0 ... ... ... : ... .. . P7F : ... .. . ... : ... .. . ... ...
ROW BC : ... .. . P80 ... ... : ... .. B ... V02 ... : C#5 00 . P82 : 4-# 00 F ... : D-0 00 . Z40 ...
ROW BD : ... .. . P7F ... ... : ... .. . ... V00 ... : ... .. . P80 : ... .. . ... : ... .. . ... ...
ROW BE : ... .. . ... ... ... : ... .. . ... ... ... : ... .. . ... : ... .. 0 ... : ... .. . ... ...
ROW BF : ... .. . P80 ... ... : ... .. 7 ... ... ... : ... .. . ... : ... .. . ... : ... .. . ... ...
ROW C0 : ... .. . P81 ... ... : ... .. 6 ... ... ... : ... .. . P7E : ... .. . ... : ... .. . ... ...
ROW C1 : ... .. . ... ... ... : ... .. 5 ... ... ... : --- .. . ... : ... .. . ... : ... .. . ... ...
ROW C2 : ... .. . ... ... ... : ... .. 4 ... ... ... : ... .. . ... : ... .. . ... : ... .. . ... ...
ROW C3 : ... .. . P7F ... ... : ... .. . ... ... ... : ... .. . ... : ... .. . ... : ... .. . ... ...
ROW C4 : ... .. . ... ... ... : ... .. . ... ... ... : ... .. . ... : ... .. . ... : ... .. . ... ...
ROW C5 : ... .. . ... ... ... : ... .. . ... ... ... : ... .. . ... : ... .. . ... : ... .. . ... ...
ROW C6 : ... .. . P80 ... ... : ... .. . ... ... ... : ... .. . ... : ... .. . ... : ... .. . ... ...
ROW C7 : ... .. . P81 ... ... : ... .. 0 ... ... ... : ... .. . ... : ... .. . ... : ... .. . ... ...
ROW C8 : ... .. . ... ... ... : A-1 00 B P80 V02 ... : C#5 00 . P82 : C-# 00 F ... : C#0 00 . Z40 ...
ROW C9 : ... .. . P80 ... ... : ... .. . ... V00 ... : ... .. . P80 : ... .. . ... : ... .. . ... ...
ROW CA : ... .. . P7F ... ... : ... .. . ... ... ... : ... .. . ... : ... .. 0 ... : ... .. . ... ...
ROW CB : ... .. . ... ... ... : ... .. 7 ... ... ... : ... .. . ... : ... .. . ... : ... .. . ... ...
ROW CC : ... .. . ... ... ... : ... .. 6 ... ... ... : ... .. . P7E : ... .. . ... : ... .. . ... ...
ROW CD : ... .. . P80 ... ... : ... .. 0 ... ... ... : ... .. . P7F : ... .. . ... : ... .. . ... ...
ROW CE : ... .. . P81 ... ... : A-1 00 B P80 V02 ... : A-4 00 . P82 : ... .. F ... : C#0 00 . Z40 ...
ROW CF : ... .. . ... ... ... : ... .. . ... V00 ... : ... .. . P80 : ... .. . ... : ... .. . ... ...
ROW D0 : ... .. . P80 ... ... : ... .. . ... ... ... : ... .. . ... : ... .. 0 ... : ... .. . ... ...
ROW D1 : ... .. . P7F ... ... : ... .. 7 ... ... ... : ... .. . ... : ... .. . ... : ... .. . ... ...
ROW D2 : ... .. . ... ... ... : ... .. 6 ... ... ... : ... .. . P7E : ... .. . ... : ... .. . ... ...
ROW D3 : ... .. . ... ... ... : ... .. 0 ... ... ... : ... .. . P7F : ... .. . ... : ... .. . ... ...
ROW D4 : ... .. . P80 ... ... : F#1 00 B P80 V02 ... : E-4 00 . P82 : 4-# 00 F ... : D#0 00 . Z40 ...
ROW D5 : ... .. . P81 ... ... : ... .. . ... V00 ... : ... .. . P80 : ... .. . ... : ... .. . ... ...
ROW D6 : ... .. . ... ... ... : ... .. . ... ... ... : ... .. . ... : ... .. 0 ... : ... .. . ... ...
ROW D7 : ... .. . P80 ... ... : ... .. 7 ... ... ... : ... .. . ... : ... .. . ... : ... .. . ... ...
ROW D8 : ... .. . P7F ... ... : ... .. 6 ... ... ... : ... .. . P7E : ... .. . ... : ... .. . ... ...
ROW D9 : ... .. . ... ... ... : ... .. 5 ... ... ... : ... .. . P7F : ... .. . ... : ... .. . ... ...
ROW DA : ... .. . ... ... ... : ... .. 4 ... ... ... : ... .. . P80 : ... .. . ... : ... .. . ... ...
ROW DB : ... .. . P81 ... ... : ... .. . ... ... ... : ... .. . ... : ... .. . ... : ... .. . ... ...
ROW DC : ... .. . ... ... ... : ... .. . ... ... ... : ... .. . ... : ... .. . ... : ... .. . ... ...
ROW DD : ... .. . ... ... ... : ... .. . ... ... ... : ... .. . ... : ... .. . ... : ... .. . ... ...
ROW DE : ... .. . P7F ... ... : ... .. . ... ... ... : ... .. . ... : ... .. . ... : ... .. . ... ...
ROW DF : D-4 00 F P80 V00 ... : A-1 00 B ... V02 ... : ... .. . ... : C-# 00 F ... : C#0 00 . Z40 ...
ROW E0 : ... .. . P81 V02 ... : ... .. . ... V00 ... : ... .. . ... : ... .. . ... : ... .. . ... ...
ROW E1 : ... .. . ... ... ... : ... .. . ... ... ... : ... .. . ... : ... .. 0 ... : ... .. . ... ...
ROW E2 : ... .. . P80 ... ... : ... .. 7 ... ... ... : ... .. . ... : ... .. . ... : ... .. . ... ...
ROW E3 : ... .. . P7F ... ... : ... .. 6 ... ... ... : ... .. . ... : ... .. . ... : ... .. . ... ...
ROW E4 : ... .. . ... ... ... : ... .. 5 ... ... ... : ... .. . ... : ... .. . ... : ... .. . ... ...
ROW E5 : C#4 00 F P80 V00 ... : ... .. 4 ... ... ... : A-4 00 . P82 : ... .. . ... : C#0 00 . Z40 ...
ROW E6 : ... .. . P81 V02 ... : ... .. . ... ... ... : ... .. . P80 : ... .. . ... : ... .. . ... ...
ROW E7 : ... .. . ... ... ... : ... .. . ... ... ... : ... .. . ... : ... .. . ... : ... .. . ... ...
ROW E8 : ... .. . P80 ... ... : ... .. . ... ... ... : ... .. . ... : ... .. . ... : ... .. . ... ...
ROW E9 : ... .. . P7F ... ... : ... .. . ... ... ... : ... .. . P7E : ... .. . ... : ... .. . ... ...
ROW EA : ... .. . ... ... ... : ... .. . ... ... ... : --- .. . ... : ... .. . ... : ... .. . ... ...
ROW EB : B-3 00 9 P80 ... ... : B-1 00 B ... V02 ... : B-4 00 . P82 : 4-# 00 F ... : D-0 00 . Z40 ...
ROW EC : ... .. B ... ... ... : ... .. . ... V00 ... : ... .. . P80 : ... .. . ... : ... .. . ... ...
ROW ED : ... .. . ... ... ... : ... .. . ... ... ... : ... .. . ... : ... .. 0 ... : ... .. . ... ...
ROW EE : ... .. . ... ... ... : ... .. 7 ... ... ... : ... .. . ... : ... .. . ... : ... .. . ... ...
ROW EF : ... .. . ... ... ... : ... .. 6 ... ... ... : ... .. . P7E : ... .. . ... : ... .. . ... ...
ROW F0 : ... .. . ... ... ... : ... .. 5 ... ... ... : --- .. . ... : ... .. . ... : ... .. . ... ...
ROW F1 : ... .. . ... ... ... : ... .. 4 ... ... ... : ... .. . ... : ... .. . ... : ... .. . ... ...
ROW F2 : ... .. . ... ... ... : ... .. . ... ... ... : ... .. . ... : ... .. . ... : ... .. . ... ...
ROW F3 : ... .. . ... ... ... : ... .. . ... ... ... : ... .. . ... : ... .. . ... : ... .. . ... ...
ROW F4 : ... .. . ... ... ... : ... .. . ... ... ... : ... .. . ... : ... .. . ... : ... .. . ... ...
ROW F5 : ... .. . ... ... ... : ... .. . ... ... ... : ... .. . ... : ... .. . ... : ... .. . ... ...
ROW F6 : ... .. . P81 ... ... : ... .. 0 ... ... ... : ... .. . ... : ... .. . ... : ... .. . ... ...
ROW F7 : ... .. . ... ... ... : B-1 00 B P80 V02 ... : B-4 00 . P82 : C-# 00 F ... : D#0 00 . Z40 ...
ROW F8 : ... .. . ... ... ... : ... .. . ... V00 ... : ... .. . P80 : ... .. . ... : ... .. . ... ...
ROW F9 : ... .. . P80 ... ... : ... .. . ... ... ... : ... .. . ... : ... .. 0 ... : ... .. . ... ...
ROW FA : ... .. . P7F ... ... : ... .. 7 ... ... ... : ... .. . ... : ... .. . ... : ... .. . ... ...
ROW FB : ... .. . ... ... ... : ... .. 6 ... ... ... : ... .. . P7E : ... .. . ... : ... .. . ... ...
ROW FC : ... .. . ... ... ... : ... .. 0 ... ... ... : ... .. . P7F : ... .. . ... : ... .. . ... ...
ROW FD : ... .. . P80 ... ... : B-1 00 B P80 V02 ... : C#5 00 . P82 : ... .. F ... : C-0 00 . Z40 ...
ROW FE : ... .. . P81 ... ... : ... .. . ... V00 ... : ... .. . P80 : ... .. . ... : ... .. . ... ...
ROW FF : ... .. . ... ... ... : ... .. . ... ... ... : ... .. . ... : ... .. 0 ... : ... .. . ... ...

PATTERN 03
ROW 00 : ... .. . ... ... ... : ... .. 7 ... ... ... : ... .. . ... : ... .. . ... : ... .. . ... ...
ROW 01 : ... .. A P7F ... ... : ... .. 0 ... ... ... : ... .. . P7F : ... .. . ... : ... .. . ... ...
ROW 02 : ... .. . ... ... ... : ... .. B ... V02 ... : D-5 00 . P82 : 4-# 00 F ... : D#0 00 . Z40 ...
ROW 03 : ... .. 9 P80 ... ... : ... .. . ... V00 ... : ... .. . P80 : ... .. . ... : ... .. . ... ...
ROW 04 : ... .. . P81 ... ... : ... .. . ... ... ... : ... .. . ... : ... .. 0 ... : ... .. . ... ...
ROW 05 : ... .. 8 ... ... ... : ... .. 7 ... ... ... : ... .. . ... : ... .. . ... : ... .. . ... ...
ROW 06 : ... .. . ... ... ... : ... .. 6 ... ... ... : ... .. . P7E : ... .. . ... : ... .. . ... ...
ROW 07 : ... .. . ... ... ... : ... .. 5 ... ... ... : ... .. . P7F : ... .. . ... : ... .. . ... ...
ROW 08 : ... .. 7 P80 ... ... : ... .. 4 ... ... ... : ... .. . P80 : ... .. . ... : ... .. . ... ...
ROW 09 : ... .. . P7F ... ... : ... .. . ... ... ... : ... .. . ... : ... .. . ... : ... .. . ... ...
ROW 0A : ... .. 6 ... ... ... : ... .. . ... ... ... : ... .. . ... : ... .. . ... : ... .. . ... ...
ROW 0B : ... .. . P80 ... ... : ... .. . ... ... ... : ... .. . ... : ... .. . ... : ... .. . ... ...
ROW 0C : ... .. . P81 ... ... : ... .. . ... ... ... : ... .. . ... : ... .. . ... : ... .. . ... ...
ROW 0D : ... .. . ... ... ... : ... .. 0 ... ... ... : ... .. . ... : ... .. . ... : ... .. . ... ...
ROW 0E : ... .. . ... ... ... : B-1 00 B P80 V02 ... : E-5 00 . P82 : C-# 00 F ... : C-0 00 . Z40 ...
ROW 0F : ... .. . P80 ... ... : ... .. . ... V00 ... : ... .. . P80 : ... .. . ... : ... .. . ... ...
ROW 10 : ... .. . P7F ... ... : ... .. . ... ... ... : ... .. . ... : ... .. 0 ... : ... .. . ... ...
ROW 11 : ... .. . ... ... ... : ... .. 7 ... ... ... : ... .. . ... : ... .. . ... : ... .. . ... ...
ROW 12 : ... .. . ... ... ... : ... .. 6 ... ... ... : D#5 00 . P82 : ... .. . ... : ... .. . ... ...
ROW 13 : ... .. . P80 ... ... : ... .. 0 ... ... ... : E-5 00 . P7F : ... .. . ... : ... .. . ... ...
ROW 14 : ... .. . P81 ... ... : B-1 00 B P80 V02 ... : ... .. . P80 : ... .. F ... : C-0 00 . Z40 ...
ROW 15 : ... .. . ... ... ... : ... .. . ... V00 ... : ... .. . ... : ... .. . ... : ... .. . ... ...
ROW 16 : ... .. . ... ... ... : ... .. . ... ... ... : ... .. . ... : ... .. 0 ... : ... .. . ... ...
ROW 17 : ... .. . P80 ... ... : ... .. 7 ... ... ... : ... .. . ... : ... .. . ... : ... .. . ... ...
ROW 18 : ... .. . P7F ... ... : ... .. 6 ... ... ... : ... .. . ... : ... .. . ... : ... .. . ... ...
ROW 19 : ... .. . ... ... ... : ... .. 0 ... ... ... : ... .. . ... : ... .. . ... : ... .. . ... ...
ROW 1A : ... .. . ... ... ... : B-1 00 B P80 V02 ... : F#5 00 . P82 : 4-# 00 F ... : D-0 00 . Z40 ...
ROW 1B : ... .. . P81 ... ... : ... .. . ... V00 ... : ... .. . P80 : ... .. . ... : ... .. . ... ...
ROW 1C : ... .. . ... ... ... : ... .. . ... ... ... : ... .. . ... : ... .. 0 ... : ... .. . ... ...
ROW 1D : ... .. . ... ... ... : ... .. 7 ... ... ... : ... .. . ... : ... .. . ... : ... .. . ... ...
ROW 1E : ... .. . ... ... ... : ... .. 6 ... ... ... : F-5 00 . P82 : ... .. . ... : ... .. . ... ...
ROW 1F : ... .. . P80 ... ... : ... .. 5 ... ... ... : F#5 00 . P7F : ... .. . ... : ... .. . ... ...
ROW 20 : ... .. . P7F ... ... : ... .. 4 ... ... ... : ... .. . P80 : ... .. . ... : ... .. . ... ...
ROW 21 : ... .. . ... ... ... : ... .. . ... ... ... : ... .. . ... : ... .. . ... : ... .. . ... ...
ROW 22 : ... .. . P80 ... ... : ... .. . ... ... ... : ... .. . ... : ... .. . ... : ... .. . ... ...
ROW 23 : ... .. . P81 ... ... : ... .. . ... ... ... : ... .. . ... : ... .. . ... : ... .. . ... ...
ROW 24 : ... .. . ... ... ... : ... .. 0 ... ... ... : ... .. . ... : ... .. . ... : ... .. . ... ...
ROW 25 : ... .. . ... ... ... : ... .. B ... V02 ... : ... .. . ... : C-# 00 F ... : C-0 00 . Z40 ...
ROW 26 : ... .. . P7F ... ... : ... .. . ... V00 ... : ... .. . ... : ... .. . ... : ... .. . ... ...
ROW 27 : ... .. . ... ... ... : ... .. . ... ... ... : ... .. . ... : ... .. 0 ... : ... .. . ... ...
ROW 28 : ... .. . ... ... ... : ... .. 7 ... ... ... : ... .. . ... : ... .. . ... : ... .. . ... ...
ROW 29 : ... .. . P80 ... ... : ... .. 6 ... ... ... : ... .. . ... : ... .. . ... : ... .. . ... ...
ROW 2A : ... .. . P81 ... ... : ... .. 0 ... ... ... : ... .. . ... : ... .. . ... : ... .. . ... ...
ROW 2B : ... .. . ... ... ... : B-1 00 B P80 V02 ... : ... .. . ... : ... .. F ... : C-0 00 . Z40 ...
ROW 2C : ... .. . ... ... ... : ... .. . ... V00 ... : ... .. . ... : ... .. . ... : ... .. . ... ...
ROW 2D : ... .. . P80 ... ... : ... .. . ... ... ... : ... .. . ... : ... .. 0 ... : ... .. . ... ...
ROW 2E : ... .. . P7F ... ... : ... .. 7 ... ... ... : ... .. . ... : ... .. . ... : ... .. . ... ...
ROW 2F : ... .. . ... ... ... : ... .. 6 ... ... ... : ... .. . ... : ... .. . ... : ... .. . ... ...
ROW 30 : ... .. . ... ... ... : ... .. 0 ... ... ... : ... .. . ... : ... .. . ... : ... .. . ... ...
ROW 31 : ... .. . P80 ... ... : B-1 00 B P80 V02 ... : ... .. . ... : 4-# 00 F ... : D#0 00 . Z40 ...
ROW 32 : ... .. . P81 ... ... : ... .. . ... V00 ... : ... .. . ... : ... .. . ... : ... .. . ... ...
ROW 33 : ... .. . ... ... ... : ... .. . ... ... ... : ... .. . ... : ... .. 0 ... : ... .. . ... ...
ROW 34 : ... .. . ... ... ... : ... .. 7 ... ... ... : ... .. . ... : ... .. . ... : ... .. . ... ...
ROW 35 : ... .. . P80 ... ... : ... .. 6 ... ... ... : ... .. . ... : ... .. . ... : ... .. . ... ...
ROW 36 : ... .. . P7F ... ... : ... .. 5 ... ... ... : ... .. . ... : ... .. . ... : ... .. . ... ...
ROW 37 : ... .. . ... ... ... : ... .. 4 ... ... ... : ... .. . ... : ... .. . ... : ... .. . ... ...
ROW 38 : ... .. . P80 ... ... : ... .. . ... ... ... : ... .. . ... : ... .. . ... : ... .. . ... ...
ROW 39 : ... .. . P81 ... ... : ... .. . ... ... ... : ... .. . ... : ... .. . ... : ... .. . ... ...
ROW 3A : ... .. . ... ... ... : ... .. . ... ... ... : ... .. . ... : ... .. . ... : ... .. . ... ...
ROW 3B : ... .. . ... ... ... : ... .. . ... ... ... : ... .. . ... : ... .. . ... : ... .. . ... ...
ROW 3C : ... .. . ... ... ... : ... .. 0 ... ... ... : ... .. . ... : ... .. . ... : ... .. . ... ...
ROW 3D : ... .. . P80 ... ... : B-1 00 B P80 V02 ... : ... .. . ... : C-# 00 F ... : D#0 00 . Z40 ...
ROW 3E : ... .. . P7F ... ... : ... .. . ... V00 ... : ... .. . ... : ... .. . ... : ... .. . ... ...
ROW 3F : ... .. . ... ... ... : ... .. . ... ... ... : ... .. . ... : ... .. 0 ... : ... .. . ... ...
ROW 40 : ... .. . P80 ... ... : ... .. 7 ... ... ... : ... .. . ... : ... .. . ... : ... .. . ... ...
ROW 41 : ... .. . P81 ... ... : ... .. 6 ... ... ... : ... .. . ... : ... .. . ... : ... .. . ... ...
ROW 42 : ... .. . ... ... ... : ... .. 0 ... ... ... : ... .. . ... : ... .. . ... : ... .. . ... ...
ROW 43 : ... .. . ... ... ... : B-1 00 B P80 V02 ... : D-5 00 . P82 : ... .. F ... : ... .. . ... ...
ROW 44 : ... .. . P80 ... ... : ... .. . ... V00 ... : ... .. . P80 : ... .. . ... : ... .. . ... ...
ROW 45 : ... .. . P7F ... ... : ... .. . ... ... ... : ... .. . ... : ... .. 0 ... : ... .. . ... ...
ROW 46 : ... .. . ... ... ... : ... .. 7 ... ... ... : ... .. . ... : ... .. . ... : ... .. . ... ...
ROW 47 : ... .. . P80 ... ... : ... .. 0 ... ... ... : ... .. . P7F : ... .. . ... : ... .. . ... ...
ROW 48 : ... .. . P81 ... ... : A-1 00 B ... V02 ... : E-5 00 . P82 : 4-# 00 F ... : D-0 00 . Z40 ...
ROW 49 : A-3 00 A P80 ... ... : ... .. . ... V00 ... : ... .. . P80 : ... .. . ... : ... .. . ... ...
ROW 4A : ... .. B ... ... ... : ... .. . ... ... ... : ... .. . ... : ... .. 0 ... : ... .. . ... ...
ROW 4B : ... .. . ... ... ... : ... .. 7 ... ... ... : ... .. . ... : ... .. . ... : ... .. . ... ...
ROW 4C : ... .. . ... ... ... : ... .. 6 ... ... ... : D#5 00 . P82 : ... .. . ... : ... .. . ... ...
ROW 4D : ... .. . ... ... ... : ... .. 5 ... ... ... : --- .. . ... : ... .. . ... : ... .. . ... ...
ROW 4E : ... .. . ... ... ... : ... .. 4 ... ... ... : ... .. . ... : ... .. . ... : ... .. . ... ...
ROW 4F : ... .. . ... ... ... : ... .. . ... ... ... : ... .. . ... : ... .. . ... : ... .. . ... ...
ROW 50 : ... .. . ... ... ... : ... .. . ... ... ... : ... .. . ... : ... .. . ... : ... .. . ... ...
ROW 51 : ... .. . ... ... ... : ... .. . ... ... ... : ... .. . ... : ... .. . ... : ... .. . ... ...
ROW 52 : ... .. . ... ... ... : ... .. . ... ... ... : ... .. . ... : ... .. . ... : ... .. . ... ...
ROW 53 : ... .. . ... ... ... : ... .. 0 ... ... ... : ... .. . ... : ... .. . ... : ... .. . ... ...
ROW 54 : ... .. . P81 ... ... : A-1 00 B P80 V02 ... : E-5 00 . ... : C-# 00 F ... : D#0 00 . Z40 ...
ROW 55 : ... .. . ... ... ... : ... .. . ... V00 ... : ... .. . P80 : ... .. . ... : ... .. . ... ...
ROW 56 : ... .. . ... ... ... : ... .. . ... ... ... : ... .. . ... : ... .. 0 ... : ... .. . ... ...
ROW 57 : ... .. . P80 ... ... : ... .. 7 ... ... ... : ... .. . ... : ... .. . ... : ... .. . ... ...
ROW 58 : ... .. . P7F ... ... : ... .. 6 ... ... ... : D#5 00 . P82 : ... .. . ... : ... .. . ... ...
ROW 59 : ... .. . ... ... ... : ... .. 0 ... ... ... : E-5 00 . P7F : ... .. . ... : ... .. . ... ...
ROW 5A : ... .. . ... ... ... : A-1 00 B P80 V02 ... : D-5 00 . P82 : ... .. F ... : C-0 00 . Z40 ...
ROW 5B : ... .. . P81 ... ... : ... .. . ... V00 ... : ... .. . P80 : ... .. . ... : ... .. . ... ...
ROW 5C : ... .. . ... ... ... : ... .. . ... ... ... : ... .. . ... : ... .. 0 ... : ... .. . ... ...
ROW 5D : ... .. . ... ... ... : ... .. 7 ... ... ... : ... .. . ... : ... .. . ... : ... .. . ... ...
ROW 5E : ... .. . ... ... ... : ... .. 6 ... ... ... : ... .. . P7E : ... .. . ... : ... .. . ... ...
ROW 5F : ... .. A P80 ... ... : ... .. 0 ... ... ... : ... .. . P7F : ... .. . ... : ... .. . ... ...
ROW 60 : ... .. . P7F ... ... : A-1 00 B P80 V02 ... : C#5 00 . P82 : 4-# 00 F ... : D#0 00 . Z40 ...
ROW 61 : ... .. 9 ... ... ... : ... .. . ... V00 ... : ... .. . P80 : ... .. . ... : ... .. . ... ...
ROW 62 : ... .. . P80 ... ... : ... .. . ... ... ... : ... .. . ... : ... .. 0 ... : ... .. . ... ...
ROW 63 : ... .. . P81 ... ... : ... .. 7 ... ... ... : ... .. . ... : ... .. . ... : ... .. . ... ...
ROW 64 : ... .. 8 ... ... ... : ... .. 6 ... ... ... : ... .. . P7E : ... .. . ... : ... .. . ... ...
ROW 65 : ... .. . ... ... ... : ... .. 5 ... ... ... : ... .. . P7F : ... .. . ... : ... .. . ... ...
ROW 66 : ... .. . ... ... ... : ... .. 4 ... ... ... : ... .. . P80 : ... .. . ... : ... .. . ... ...
ROW 67 : ... .. 7 P7F ... ... : ... .. . ... ... ... : ... .. . ... : ... .. . ... : ... .. . ... ...
ROW 68 : ... .. . ... ... ... : ... .. . ... ... ... : ... .. . ... : ... .. . ... : ... .. . ... ...
ROW 69 : ... .. 6 ... ... ... : ... .. . ... ... ... : ... .. . ... : ... .. . ... : ... .. . ... ...
ROW 6A : ... .. . P81 ... ... : ... .. 0 ... ... ... : ... .. . ... : ... .. . ... : ... .. . ... ...
ROW 6B : E-3 00 9 P80 ... ... : ... .. B ... V02 ... : B-4 00 . P82 : C-# 00 F ... : C-0 00 . Z40 ...
ROW 6C : ... .. B ... ... ... : ... .. . ... V00 ... : ... .. . P80 : ... .. . ... : ... .. . ... ...
ROW 6D : ... .. . ... ... ... : ... .. . ... ... ... : ... .. . ... : ... .. 0 ... : ... .. . ... ...
ROW 6E : ... .. . ... ... ... : ... .. 7 ... ... ... : ... .. . ... : ... .. . ... : ... .. . ... ...
ROW 6F : ... .. . ... ... ... : ... .. 6 ... ... ... : ... .. . P7E : ... .. . ... : ... .. . ... ...
ROW 70 : ... .. . ... ... ... : ... .. 0 ... ... ... : ... .. . P7F : ... .. . ... : ... .. . ... ...
ROW 71 : ... .. . ... ... ... : A-1 00 B P80 V02 ... : ... .. . P80 : ... .. F ... : C-0 00 . Z40 ...
ROW 72 : ... .. . ... ... ... : ... .. . ... V00 ... : ... .. . ... : ... .. . ... : ... .. . ... ...
ROW 73 : ... .. . ... ... ... : ... .. . ... ... ... : ... .. . ... : ... .. 0 ... : ... .. . ... ...
ROW 74 : ... .. . ... ... ... : ... .. 7 ... ... ... : ... .. . ... : ... .. . ... : ... .. . ... ...
ROW 75 : ... .. . ... ... ... : ... .. 6 ... ... ... : ... .. . ... : ... .. . ... : ... .. . ... ...
ROW 76 : ... .. . P81 ... ... : ... .. 0 ... ... ... : ... .. . ... : ... .. . ... : ... .. . ... ...
ROW 77 : ... .. . ... ... ... : A-1 00 B P80 V02 ... : A-4 00 . P82 : 4-# 00 F ... : D-0 00 . Z40 ...
ROW 78 : ... .. . ... ... ... : ... .. . ... V00 ... : ... .. . P80 : ... .. . ... : ... .. . ... ...
ROW 79 : ... .. . P80 ... ... : ... .. . ... ... ... : ... .. . ... : ... .. 0 ... : ... .. . ... ...
ROW 7A : ... .. . P7F ... ... : ... .. 7 ... ... ... : ... .. . ... : ... .. . ... : ... .. . ... ...
ROW 7B : ... .. . ... ... ... : ... .. 6 ... ... ... : ... .. . P7E : ... .. . ... : ... .. . ... ...
ROW 7C : ... .. . ... ... ... : ... .. 5 ... ... ... : ... .. . P7F : ... .. . ... : ... .. . ... ...
ROW 7D : ... .. . P80 ... ... : ... .. 4 ... ... ... : ... .. . P80 : ... .. . ... : ... .. . ... ...
ROW 7E : ... .. . P81 ... ... : ... .. . ... ... ... : ... .. . ... : ... .. . ... : ... .. . ... ...
ROW 7F : ... .. . ... ... ... : ... .. . ... ... ... : ... .. . ... : ... .. . ... : ... .. . ... ...
ROW 80 : ... .. . ... ... ... : ... .. . ... ... ... : ... .. . ... : ... .. . ... : ... .. . ... ...
ROW 81 : ... .. A P80 ... ... : ... .. . ... ... ... : ... .. . ... : ... .. . ... : ... .. . ... ...
ROW 82 : ... .. . P7F ... ... : ... .. 0 ... ... ... : ... .. . ... : ... .. . ... : ... .. . ... ...
ROW 83 : ... .. . ... ... ... : A-1 00 B P80 V02 ... : ... .. . ... : C-# 00 F ... : C-0 00 . Z40 ...
ROW 84 : ... .. 9 P80 ... ... : ... .. . ... V00 ... : ... .. . ... : ... .. . ... : ... .. . ... ...
ROW 85 : ... .. . P81 ... ... : ... .. . ... ... ... : ... .. . ... : ... .. 0 ... : ... .. . ... ...
ROW 86 : ... .. 8 ... ... ... : ... .. 7 ... ... ... : ... .. . ... : ... .. . ... : ... .. . ... ...
ROW 87 : ... .. . ... ... ... : ... .. 6 ... ... ... : ... .. . ... : ... .. . ... : ... .. . ... ...
ROW 88 : ... .. . ... ... ... : ... .. 0 ... ... ... : ... .. . ... : ... .. . ... : ... .. . ... ...
ROW 89 : ... .. 7 P80 ... ... : A-1 00 B P80 V02 ... : ... .. . ... : ... .. F ... : C-0 00 . Z40 ...
ROW 8A : ... .. . P7F ... ... : ... .. . ... V00 ... : ... .. . ... : ... .. . ... : ... .. . ... ...
ROW 8B : ... .. 6 ... ... ... : ... .. . ... ... ... : ... .. . ... : ... .. 0 ... : ... .. . ... ...
ROW 8C : ... .. . P80 ... ... : ... .. 7 ... ... ... : ... .. . ... : ... .. . ... : ... .. . ... ...
ROW 8D : ... .. . P81 ... ... : ... .. 0 ... ... ... : ... .. . ... : ... .. . ... : ... .. . ... ...
ROW 8E : C#3 00 9 P80 ... ... : F#1 00 B ... V02 ... : ... .. . ... : 4-# 00 F ... : D#0 00 . Z40 ...
ROW 8F : ... .. B ... ... ... : ... .. . ... V00 ... : ... .. . ... : ... .. . ... : ... .. . ... ...
ROW 90 : ... .. . ... ... ... : ... .. . ... ... ... : ... .. . ... : ... .. 0 ... : ... .. . ... ...
ROW 91 : ... .. . ... ... ... : ... .. 7 ... ... ... : ... .. . ... : ... .. . ... : ... .. . ... ...
ROW 92 : ... .. . ... ... ... : ... .. 6 ... ... ... : ... .. . ... : ... .. . ... : ... .. . ... ...
ROW 93 : ... .. . ... ... ... : ... .. 5 ... ... ... : ... .. . ... : ... .. . ... : ... .. . ... ...
ROW 94 : ... .. . ... ... ... : ... .. 4 ... ... ... : ... .. . ... : ... .. . ... : ... .. . ... ...
ROW 95 : ... .. . ... ... ... : ... .. . ... ... ... : ... .. . ... : ... .. . ... : ... .. . ... ...
ROW 96 : ... .. . ... ... ... : ... .. . ... ... ... : ... .. . ... : ... .. . ... : ... .. . ... ...
ROW 97 : ... .. . ... ... ... : ... .. . ... ... ... : ... .. . ... : ... .. . ... : ... .. . ... ...
ROW 98 : ... .. . ... ... ... : ... .. . ... ... ... : ... .. . ... : ... .. . ... : ... .. . ... ...
ROW 99 : ... .. . P81 ... ... : ... .. . ... ... ... : ... .. . ... : ... .. . ... : ... .. . ... ...
ROW 9A : ... .. . ... ... ... : A-1 00 B ... V02 ... : ... .. . ... : C-# 00 F ... : D#0 00 . Z40 ...
ROW 9B : ... .. . ... ... ... : ... .. . ... V00 ... : ... .. . ... : ... .. . ... : ... .. . ... ...
ROW 9C : ... .. . P80 ... ... : ... .. . ... ... ... : ... .. . ... : ... .. 0 ... : ... .. . ... ...
ROW 9D : ... .. . P7F ... ... : ... .. 7 ... ... ... : ... .. . ... : ... .. . ... : ... .. . ... ...
ROW 9E : ... .. . ... ... ... : ... .. 6 ... ... ... : ... .. . ... : ... .. . ... : ... .. . ... ...
ROW 9F : ... .. . ... ... ... : ... .. 5 ... ... ... : ... .. . ... : ... .. . ... : ... .. . ... ...
ROW A0 : ... .. . P80 ... ... : ... .. 4 ... ... ... : ... .. . ... : ... .. . ... : ... .. . ... ...
ROW A1 : ... .. . P81 ... ... : ... .. . ... ... ... : ... .. . ... : ... .. . ... : ... .. . ... ...
ROW A2 : ... .. . ... ... ... : ... .. . ... ... ... : ... .. . ... : ... .. . ... : ... .. . ... ...
ROW A3 : ... .. . ... ... ... : ... .. . ... ... ... : ... .. . ... : ... .. . ... : ... .. . ... ...
ROW A4 : ... .. A P80 ... ... : ... .. . ... ... ... : ... .. . ... : ... .. . ... : ... .. . ... ...
ROW A5 : ... .. . P7F ... ... : ... .. . ... ... ... : --- .. . ... : ... .. . ... : ... .. . ... ...
ROW A6 : B-2 00 9 P80 ... ... : B-1 00 B ... V02 ... : B-4 00 . P82 : 4-# 00 F ... : D-0 00 . Z40 ...
ROW A7 : ... .. B ... ... ... : ... .. . ... V00 ... : ... .. . P80 : ... .. . ... : ... .. . ... ...
ROW A8 : ... .. . ... ... ... : ... .. . ... ... ... : ... .. . ... : ... .. 0 ... : ... .. . ... ...
ROW A9 : ... .. . ... ... ... : ... .. 7 ... ... ... : ... .. . ... : ... .. . ... : ... .. . ... ...
ROW AA : ... .. . ... ... ... : ... .. 6 ... ... ... : ... .. . P7E : ... .. . ... : ... .. . ... ...
ROW AB : ... .. . ... ... ... : ... .. 5 ... ... ... : --- .. . ... : ... .. . ... : ... .. . ... ...
ROW AC : ... .. . ... ... ... : ... .. 4 ... ... ... : ... .. . ... : ... .. . ... : ... .. . ... ...
ROW AD : ... .. . ... ... ... : ... .. . ... ... ... : ... .. . ... : ... .. . ... : ... .. . ... ...
ROW AE : ... .. . ... ... ... : ... .. . ... ... ... : ... .. . ... : ... .. . ... : ... .. . ... ...
ROW AF : ... .. . ... ... ... : ... .. . ... ... ... : ... .. . ... : ... .. . ... : ... .. . ... ...
ROW B0 : ... .. . P81 ... ... : ... .. 0 ... ... ... : ... .. . ... : ... .. . ... : ... .. . ... ...
ROW B1 : ... .. . ... ... ... : ... .. B ... V02 ... : B-4 00 . P82 : C-# 00 F ... : D#0 00 . Z40 ...
ROW B2 : ... .. . ... ... ... : ... .. . ... V00 ... : ... .. . P80 : ... .. . ... : ... .. . ... ...
ROW B3 : ... .. . P80 ... ... : ... .. . ... ... ... : ... .. . ... : ... .. 0 ... : ... .. . ... ...
ROW B4 : ... .. . P7F ... ... : ... .. 7 ... ... ... : ... .. . ... : ... .. . ... : ... .. . ... ...
ROW B5 : ... .. . ... ... ... : ... .. 6 ... ... ... : ... .. . P7E : ... .. . ... : ... .. . ... ...
ROW B6 : ... .. . ... ... ... : ... .. 0 ... ... ... : ... .. . P7F : ... .. . ... : ... .. . ... ...
ROW B7 : ... .. . P80 ... ... : B-1 00 B P80 V02 ... : C#5 00 . P82 : ... .. F ... : C-0 00 . Z40 ...
ROW B8 : ... .. . P81 ... ... : ... .. . ... V00 ... : ... .. . P80 : ... .. . ... : ... .. . ... ...
ROW B9 : ... .. . ... ... ... : ... .. . ... ... ... : ... .. . ... : ... .. 0 ... : ... .. . ... ...
ROW BA : ... .. . ... ... ... : ... .. 7 ... ... ... : ... .. . ... : ... .. . ... : ... .. . ... ...
ROW BB : ... .. A P80 ... ... : ... .. 6 ... ... ... : ... .. . P7E : ... .. . ... : ... .. . ... ...
ROW BC : ... .. . P7F ... ... : ... .. 0 ... ... ... : ... .. . P7F : ... .. . ... : ... .. . ... ...
ROW BD : ... .. . ... ... ... : B-1 00 B P80 V02 ... : D-5 00 . P82 : 4-# 00 F ... : D#0 00 . Z40 ...
ROW BE : ... .. 9 P80 ... ... : ... .. . ... V00 ... : ... .. . P80 : ... .. . ... : ... .. . ... ...
ROW BF : ... .. . P81 ... ... : ... .. . ... ... ... : ... .. . ... : ... .. 0 ... : ... .. . ... ...
ROW C0 : ... .. 8 ... ... ... : ... .. 7 ... ... ... : ... .. . ... : ... .. . ... : ... .. . ... ...
ROW C1 : ... .. . ... ... ... : ... .. 6 ... ... ... : ... .. . P7E : ... .. . ... : ... .. . ... ...
ROW C2 : ... .. . ... ... ... : ... .. 5 ... ... ... : ... .. . P7F : ... .. . ... : ... .. . ... ...
ROW C3 : ... .. 7 P80 ... ... : ... .. 4 ... ... ... : ... .. . P80 : ... .. . ... : ... .. . ... ...
ROW C4 : ... .. . P7F ... ... : ... .. . ... ... ... : ... .. . ... : ... .. . ... : ... .. . ... ...
ROW C5 : ... .. 6 ... ... ... : ... .. . ... ... ... : ... .. . ... : ... .. . ... : ... .. . ... ...
ROW C6 : ... .. . P80 ... ... : ... .. . ... ... ... : ... .. . ... : ... .. . ... : ... .. . ... ...
ROW C7 : ... .. . P81 ... ... : ... .. . ... ... ... : ... .. . ... : ... .. . ... : ... .. . ... ...
ROW C8 : ... .. . ... ... ... : ... .. 0 ... ... ... : ... .. . ... : ... .. . ... : ... .. . ... ...
ROW C9 : ... .. . ... ... ... : B-1 00 B P80 V02 ... : E-5 00 . P82 : C-# 00 F ... : C-0 00 . Z40 ...
ROW CA : ... .. . P80 ... ... : ... .. . ... V00 ... : ... .. . P80 : ... .. . ... : ... .. . ... ...
ROW CB : ... .. . P7F ... ... : ... .. . ... ... ... : ... .. . ... : ... .. 0 ... : ... .. . ... ...
ROW CC : ... .. . ... ... ... : ... .. 7 ... ... ... : ... .. . ... : ... .. . ... : ... .. . ... ...
ROW CD : ... .. . ... ... ... : ... .. 6 ... ... ... : D#5 00 . P82 : ... .. . ... : ... .. . ... ...
ROW CE : ... .. . P80 ... ... : ... .. 0 ... ... ... : E-5 00 . P7F : ... .. . ... : ... .. . ... ...
ROW CF : ... .. . P81 ... ... : B-1 00 B P80 V02 ... : ... .. . P80 : ... .. F ... : C-0 00 . Z40 ...
ROW D0 : ... .. . ... ... ... : ... .. . ... V00 ... : ... .. . ... : ... .. . ... : ... .. . ... ...
ROW D1 : ... .. . ... ... ... : ... .. . ... ... ... : ... .. . ... : ... .. 0 ... : ... .. . ... ...
ROW D2 : ... .. . P80 ... ... : ... .. 7 ... ... ... : ... .. . ... : ... .. . ... : ... .. . ... ...
ROW D3 : ... .. . P7F ... ... : ... .. 0 ... ... ... : ... .. . ... : ... .. . ... : ... .. . ... ...
ROW D4 : ... .. . ... ... ... : ... .. B ... V02 ... : F#5 00 . P82 : 4-# 00 F ... : D-0 00 . Z40 ...
ROW D5 : ... .. . P81 ... ... : ... .. . ... V00 ... : ... .. . P80 : ... .. . ... : ... .. . ... ...
ROW D6 : ... .. . ... ... ... : ... .. . ... ... ... : ... .. . ... : ... .. 0 ... : ... .. . ... ...
ROW D7 : ... .. . ... ... ... : ... .. 7 ... ... ... : ... .. . ... : ... .. . ... : ... .. . ... ...
ROW D8 : ... .. . ... ... ... : ... .. 6 ... ... ... : F-5 00 . P82 : ... .. . ... : ... .. . ... ...
ROW D9 : ... .. . P80 ... ... : ... .. 5 ... ... ... : F#5 00 . P7F : ... .. . ... : ... .. . ... ...
ROW DA : ... .. . P7F ... ... : ... .. 4 ... ... ... : ... .. . P80 : ... .. . ... : ... .. . ... ...
ROW DB : ... .. . ... ... ... : ... .. . ... ... ... : ... .. . ... : ... .. . ... : ... .. . ... ...
ROW DC : ... .. . P80 ... ... : ... .. . ... ... ... : ... .. . ... : ... .. . ... : ... .. . ... ...
ROW DD : ... .. . P81 ... ... : ... .. . ... ... ... : ... .. . ... : ... .. . ... : ... .. . ... ...
ROW DE : ... .. . ... ... ... : ... .. . ... ... ... : ... .. . ... : ... .. . ... : ... .. . ... ...
ROW DF : ... .. . ... ... ... : ... .. 0 ... ... ... : ... .. . ... : ... .. . ... : ... .. . ... ...
ROW E0 : ... .. . ... ... ... : B-1 00 B P80 V02 ... : ... .. . ... : C-# 00 F ... : C-0 00 . Z40 ...
ROW E1 : ... .. . P7F ... ... : ... .. . ... V00 ... : ... .. . ... : ... .. . ... : ... .. . ... ...
ROW E2 : ... .. . ... ... ... : ... .. . ... ... ... : ... .. . ... : ... .. 0 ... : ... .. . ... ...
ROW E3 : ... .. . ... ... ... : ... .. 7 ... ... ... : ... .. . ... : ... .. . ... : ... .. . ... ...
ROW E4 : ... .. . P80 ... ... : ... .. 6 ... ... ... : ... .. . ... : ... .. . ... : ... .. . ... ...
ROW E5 : ... .. . P81 ... ... : ... .. 0 ... ... ... : ... .. . ... : ... .. . ... : ... .. . ... ...
ROW E6 : ... .. . ... ... ... : B-1 00 B P80 V02 ... : ... .. . ... : ... .. F ... : C-0 00 . Z40 ...
ROW E7 : ... .. . ... ... ... : ... .. . ... V00 ... : ... .. . ... : ... .. . ... : ... .. . ... ...
ROW E8 : ... .. . P80 ... ... : ... .. . ... ... ... : ... .. . ... : ... .. 0 ... : ... .. . ... ...
ROW E9 : ... .. . P7F ... ... : ... .. 7 ... ... ... : ... .. . ... : ... .. . ... : ... .. . ... ...
ROW EA : ... .. . ... ... ... : ... .. 6 ... ... ... : ... .. . ... : ... .. . ... : ... .. . ... ...
ROW EB : ... .. . ... ... ... : ... .. 0 ... ... ... : ... .. . ... : ... .. . ... : ... .. . ... ...
ROW EC : ... .. . P80 ... ... : B-1 00 B P80 V02 ... : ... .. . ... : 4-# 00 F ... : D#0 00 . Z40 ...
ROW ED : ... .. . P81 ... ... : ... .. . ... V00 ... : ... .. . ... : ... .. . ... : ... .. . ... ...
ROW EE : ... .. . ... ... ... : ... .. . ... ... ... : ... .. . ... : ... .. 0 ... : ... .. . ... ...
ROW EF : ... .. . ... ... ... : ... .. 7 ... ... ... : ... .. . ... : ... .. . ... : ... .. . ... ...
ROW F0 : ... .. . P80 ... ... : ... .. 6 ... ... ... : ... .. . ... : ... .. . ... : ... .. . ... ...
ROW F1 : ... .. . P7F ... ... : ... .. 5 ... ... ... : ... .. . ... : ... .. . ... : ... .. . ... ...
ROW F2 : ... .. . ... ... ... : ... .. 4 ... ... ... : ... .. . ... : ... .. . ... : ... .. . ... ...
ROW F3 : ... .. . P80 ... ... : ... .. . ... ... ... : ... .. . ... : ... .. . ... : ... .. . ... ...
ROW F4 : ... .. . P81 ... ... : ... .. . ... ... ... : ... .. . ... : ... .. . ... : ... .. . ... ...
ROW F5 : ... .. . ... ... ... : ... .. . ... ... ... : ... .. . ... : ... .. . ... : ... .. . ... ...
ROW F6 : ... .. . ... ... ... : ... .. 0 ... ... ... : ... .. . ... : ... .. . ... : ... .. . ... ...
ROW F7 : ... .. . P80 ... ... : ... .. B ... V02 ... : ... .. . ... : C-# 00 F ... : D#0 00 . Z40 ...
ROW F8 : ... .. . P7F ... ... : ... .. . ... V00 ... : ... .. . ... : ... .. . ... : ... .. . ... ...
ROW F9 : ... .. . ... ... ... : ... .. . ... ... ... : ... .. . ... : ... .. 0 ... : ... .. . ... ...
ROW FA : ... .. . P80 ... ... : ... .. 7 ... ... ... : ... .. . ... : ... .. . ... : ... .. . ... ...
ROW FB : ... .. . P81 ... ... : ... .. 6 ... ... ... : ... .. . ... : ... .. . ... : ... .. . ... ...
ROW FC : ... .. . ... ... ... : ... .. 0 ... ... ... : ... .. . ... : ... .. . ... : ... .. . ... ...
ROW FD : ... .. . ... ... ... : B-1 00 B P80 V02 ... : D-5 00 . P82 : ... .. F ... : ... .. . ... ...
ROW FE : ... .. . P80 ... ... : ... .. . ... V00 ... : ... .. . P80 : ... .. . ... : ... .. . ... ...
ROW FF : ... .. . P7F ... ... : ... .. . ... ... ... : ... .. . ... : ... .. 0 ... : ... .. . ... ...

PATTERN 04
ROW 00 : ... .. . ... ... ... : ... .. 7 ... ... ... : ... .. . ... : ... .. . ... : ... .. . ... ...
ROW 01 : ... .. . ... ... ... : ... .. 6 ... ... ... : ... .. . P7E : ... .. . ... : ... .. . ... ...
ROW 02 : ... .. . P80 ... ... : ... .. 0 ... ... ... : ... .. . P7F : ... .. . ... : ... .. . ... ...
ROW 03 : ... .. . P81 ... ... : A-1 00 B P80 V02 ... : E-5 00 . P82 : 4-# 00 F ... : D-0 00 . Z40 ...
ROW 04 : A-3 00 A P80 ... ... : ... .. . ... V00 ... : ... .. . P80 : ... .. . ... : ... .. . ... ...
ROW 05 : ... .. B ... ... ... : ... .. . ... ... ... : ... .. . ... : ... .. 0 ... : ... .. . ... ...
ROW 06 : ... .. . ... ... ... : ... .. 7 ... ... ... : ... .. . ... : ... .. . ... : ... .. . ... ...
ROW 07 : ... .. . ... ... ... : ... .. 6 ... ... ... : D#5 00 . P82 : ... .. . ... : ... .. . ... ...
ROW 08 : ... .. . ... ... ... : ... .. 5 ... ... ... : --- .. . ... : ... .. . ... : ... .. . ... ...
ROW 09 : ... .. . ... ... ... : ... .. 4 ... ... ... : ... .. . ... : ... .. . ... : ... .. . ... ...
ROW 0A : ... .. . ... ... ... : ... .. . ... ... ... : ... .. . ... : ... .. . ... : ... .. . ... ...
ROW 0B : ... .. . ... ... ... : ... .. . ... ... ... : ... .. . ... : ... .. . ... : ... .. . ... ...
ROW 0C : ... .. . ... ... ... : ... .. . ... ... ... : ... .. . ... : ... .. . ... : ... .. . ... ...
ROW 0D : ... .. . ... ... ... : ... .. . ... ... ... : ... .. . ... : ... .. . ... : ... .. . ... ...
ROW 0E : ... .. . ... ... ... : ... .. 0 ... ... ... : ... .. . ... : ... .. . ... : ... .. . ... ...
ROW 0F : ... .. . P81 ... ... : A-1 00 B P80 V02 ... : E-5 00 . ... : C-# 00 F ... : D#0 00 . Z40 ...
ROW 10 : ... .. . ... ... ... : ... .. . ... V00 ... : ... .. . P80 : ... .. . ... : ... .. . ... ...
ROW 11 : ... .. . ... ... ... : ... .. . ... ... ... : ... .. . ... : ... .. 0 ... : ... .. . ... ...
ROW 12 : ... .. . P80 ... ... : ... .. 7 ... ... ... : ... .. . ... : ... .. . ... : ... .. . ... ...
ROW 13 : ... .. . P7F ... ... : ... .. 6 ... ... ... : D#5 00 . P82 : ... .. . ... : ... .. . ... ...
ROW 14 : ... .. . ... ... ... : ... .. 0 ... ... ... : E-5 00 . P7F : ... .. . ... : ... .. . ... ...
ROW 15 : ... .. . ... ... ... : A-1 00 B P80 V02 ... : D-5 00 . P82 : ... .. F ... : C-0 00 . Z40 ...
ROW 16 : ... .. . P81 ... ... : ... .. . ... V00 ... : ... .. . P80 : ... .. . ... : ... .. . ... ...
ROW 17 : ... .. . ... ... ... : ... .. . ... ... ... : ... .. . ... : ... .. 0 ... : ... .. . ... ...
ROW 18 : ... .. . ... ... ... : ... .. 7 ... ... ... : ... .. . ... : ... .. . ... : ... .. . ... ...
ROW 19 : ... .. A P80 ... ... : ... .. 0 ... ... ... : ... .. . P7F : ... .. . ... : ... .. . ... ...
ROW 1A : ... .. . P7F ... ... : ... .. B ... V02 ... : C#5 00 . P82 : 4-# 00 F ... : D#0 00 . Z40 ...
ROW 1B : ... .. 9 ... ... ... : ... .. . ... V00 ... : ... .. . P80 : ... .. . ... : ... .. . ... ...
ROW 1C : ... .. . P80 ... ... : ... .. . ... ... ... : ... .. . ... : ... .. 0 ... : ... .. . ... ...
ROW 1D : ... .. . P81 ... ... : ... .. 7 ... ... ... : ... .. . ... : ... .. . ... : ... .. . ... ...
ROW 1E : ... .. 8 ... ... ... : ... .. 6 ... ... ... : ... .. . P7E : ... .. . ... : ... .. . ... ...
ROW 1F : ... .. . ... ... ... : ... .. 5 ... ... ... : ... .. . P7F : ... .. . ... : ... .. . ... ...
ROW 20 : ... .. . ... ... ... : ... .. 4 ... ... ... : ... .. . P80 : ... .. . ... : ... .. . ... ...
ROW 21 : ... .. 7 P7F ... ... : ... .. . ... ... ... : ... .. . ... : ... .. . ... : ... .. . ... ...
ROW 22 : ... .. . ... ... ... : ... .. . ... ... ... : ... .. . ... : ... .. . ... : ... .. . ... ...
ROW 23 : ... .. 6 ... ... ... : ... .. . ... ... ... : ... .. . ... : ... .. . ... : ... .. . ... ...
ROW 24 : ... .. . P80 ... ... : ... .. . ... ... ... : ... .. . ... : ... .. . ... : ... .. . ... ...
ROW 25 : ... .. . P81 ... ... : ... .. 0 ... ... ... : ... .. . ... : ... .. . ... : ... .. . ... ...
ROW 26 : E-3 00 9 P80 ... ... : A-1 00 B P80 V02 ... : B-4 00 . P82 : C-# 00 F ... : C-0 00 . Z40 ...
ROW 27 : ... .. B ... ... ... : ... .. . ... V00 ... : ... .. . P80 : ... .. . ... : ... .. . ... ...
ROW 28 : ... .. . ... ... ... : ... .. . ... ... ... : ... .. . ... : ... .. 0 ... : ... .. . ... ...
ROW 29 : ... .. . ... ... ... : ... .. 7 ... ... ... : ... .. . ... : ... .. . ... : ... .. . ... ...
ROW 2A : ... .. . ... ... ... : ... .. 6 ... ... ... : ... .. . P7E : ... .. . ... : ... .. . ... ...
ROW 2B : ... .. . ... ... ... : ... .. 0 ... ... ... : ... .. . P7F : ... .. . ... : ... .. . ... ...
ROW 2C : ... .. . ... ... ... : A-1 00 B P80 V02 ... : ... .. . P80 : ... .. F ... : C-0 00 . Z40 ...
ROW 2D : ... .. . ... ... ... : ... .. . ... V00 ... : ... .. . ... : ... .. . ... : ... .. . ... ...
ROW 2E : ... .. . ... ... ... : ... .. . ... ... ... : ... .. . ... : ... .. 0 ... : ... .. . ... ...
ROW 2F : ... .. . ... ... ... : ... .. 7 ... ... ... : ... .. . ... : ... .. . ... : ... .. . ... ...
ROW 30 : ... .. . ... ... ... : ... .. 6 ... ... ... : ... .. . ... : ... .. . ... : ... .. . ... ...
ROW 31 : ... .. . P81 ... ... : ... .. 0 ... ... ... : ... .. . ... : ... .. . ... : ... .. . ... ...
ROW 32 : ... .. . ... ... ... : A-1 00 B P80 V02 ... : A-4 00 . P82 : 4-# 00 F ... : D-0 00 . Z40 ...
ROW 33 : ... .. . ... ... ... : ... .. . ... V00 ... : ... .. . P80 : ... .. . ... : ... .. . ... ...
ROW 34 : ... .. . P80 ... ... : ... .. . ... ... ... : ... .. . ... : ... .. 0 ... : ... .. . ... ...
ROW 35 : ... .. . P7F ... ... : ... .. 7 ... ... ... : ... .. . ... : ... .. . ... : ... .. . ... ...
ROW 36 : ... .. . ... ... ... : ... .. 6 ... ... ... : ... .. . P7E : ... .. . ... : ... .. . ... ...
ROW 37 : ... .. . ... ... ... : ... .. 5 ... ... ... : ... .. . P7F : ... .. . ... : ... .. . ... ...
ROW 38 : ... .. . P80 ... ... : ... .. 4 ... ... ... : ... .. . P80 : ... .. . ... : ... .. . ... ...
ROW 39 : ... .. . P81 ... ... : ... .. . ... ... ... : ... .. . ... : ... .. . ... : ... .. . ... ...
ROW 3A : ... .. . ... ... ... : ... .. . ... ... ... : ... .. . ... : ... .. . ... : ... .. . ... ...
ROW 3B : ... .. . ... ... ... : ... .. . ... ... ... : ... .. . ... : ... .. . ... : ... .. . ... ...
ROW 3C : ... .. A P7F ... ... : ... .. 0 ... ... ... : ... .. . ... : ... .. . ... : ... .. . ... ...
ROW 3D : ... .. . ... ... ... : ... .. B ... V02 ... : ... .. . ... : C-# 00 F ... : C-0 00 . Z40 ...
ROW 3E : ... .. 9 P80 ... ... : ... .. . ... V00 ... : ... .. . ... : ... .. . ... : ... .. . ... ...
ROW 3F : ... .. . P81 ... ... : ... .. . ... ... ... : ... .. . ... : ... .. 0 ... : ... .. . ... ...
ROW 40 : ... .. 8 ... ... ... : ... .. 7 ... ... ... : ... .. . ... : ... .. . ... : ... .. . ... ...
ROW 41 : ... .. . ... ... ... : ... .. 6 ... ... ... : ... .. . ... : ... .. . ... : ... .. . ... ...
ROW 42 : ... .. . ... ... ... : ... .. 0 ... ... ... : ... .. . ... : ... .. . ... : ... .. . ... ...
ROW 43 : ... .. 7 P80 ... ... : A-1 00 B P80 V02 ... : ... .. . ... : ... .. F ... : C-0 00 . Z40 ...
ROW 44 : ... .. . P7F ... ... : ... .. . ... V00 ... : ... .. . ... : ... .. . ... : ... .. . ... ...
ROW 45 : ... .. 6 ... ... ... : ... .. . ... ... ... : ... .. . ... : ... .. 0 ... : ... .. . ... ...
ROW 46 : ... .. . P80 ... ... : ... .. 7 ... ... ... : ... .. . ... : ... .. . ... : ... .. . ... ...
ROW 47 : ... .. . P81 ... ... : ... .. 6 ... ... ... : ... .. . ... : ... .. . ... : ... .. . ... ...
ROW 48 : ... .. . ... ... ... : ... .. 0 ... ... ... : ... .. . ... : ... .. . ... : ... .. . ... ...
ROW 49 : C#4 00 9 P80 ... ... : F#1 00 B P80 V02 ... : ... .. . ... : 4-# 00 F ... : D#0 00 . Z40 ...
ROW 4A : ... .. B ... ... ... : ... .. . ... V00 ... : ... .. . ... : ... .. . ... : ... .. . ... ...
ROW 4B : ... .. . ... ... ... : ... .. . ... ... ... : ... .. . ... : ... .. 0 ... : ... .. . ... ...
ROW 4C : ... .. . ... ... ... : ... .. 7 ... ... ... : ... .. . ... : ... .. . ... : ... .. . ... ...
ROW 4D : ... .. . ... ... ... : ... .. 6 ... ... ... : ... .. . ... : ... .. . ... : ... .. . ... ...
ROW 4E : ... .. . ... ... ... : ... .. 5 ... ... ... : ... .. . ... : ... .. . ... : ... .. . ... ...
ROW 4F : ... .. . ... ... ... : ... .. 4 ... ... ... : ... .. . ... : ... .. . ... : D#0 00 . Z40 ...
ROW 50 : ... .. . ... ... ... : ... .. . ... ... ... : ... .. . ... : ... .. . ... : ... .. . ... ...
ROW 51 : ... .. . ... ... ... : ... .. . ... ... ... : ... .. . ... : ... .. . ... : ... .. . ... ...
ROW 52 : ... .. . ... ... ... : ... .. . ... ... ... : ... .. . ... : ... .. . ... : ... .. . ... ...
ROW 53 : ... .. . ... ... ... : ... .. . ... ... ... : ... .. . ... : ... .. . ... : ... .. . ... ...
ROW 54 : ... .. . P81 ... ... : ... .. . ... ... ... : ... .. . ... : ... .. . ... : ... .. . ... ...
ROW 55 : ... .. . ... ... ... : A-1 00 B ... V02 ... : ... .. . ... : C-# 00 F ... : D#0 00 . Z40 ...
ROW 56 : ... .. . ... ... ... : ... .. . ... V00 ... : ... .. . ... : ... .. . ... : ... .. . ... ...
ROW 57 : ... .. . P80 ... ... : ... .. . ... ... ... : ... .. . ... : ... .. 0 ... : ... .. . ... ...
ROW 58 : ... .. . P7F ... ... : ... .. 7 ... ... ... : ... .. . ... : ... .. . ... : ... .. . ... ...
ROW 59 : ... .. . ... ... ... : ... .. 6 ... ... ... : ... .. . ... : ... .. . ... : ... .. . ... ...
ROW 5A : ... .. . ... ... ... : ... .. 5 ... ... ... : ... .. . ... : ... .. . ... : ... .. . ... ...
ROW 5B : ... .. . P80 ... ... : ... .. 4 ... ... ... : ... .. . ... : ... .. . ... : D#0 00 . Z40 ...
ROW 5C : ... .. . P81 ... ... : ... .. . ... ... ... : ... .. . ... : ... .. . ... : ... .. . ... ...
ROW 5D : ... .. . ... ... ... : ... .. . ... ... ... : ... .. . ... : ... .. . ... : ... .. . ... ...
ROW 5E : ... .. . ... ... ... : ... .. . ... ... ... : ... .. . ... : ... .. . ... : ... .. . ... ...
ROW 5F : ... .. A P7F ... ... : ... .. . ... ... ... : --- .. . ... : ... .. . ... : ... .. . ... ...
ROW 60 : G-2 00 D P8A ... ... : B-1 00 B ... V02 ... : B-4 00 . ... : 4-# 00 F ... : D-0 00 . Z40 ...
ROW 61 : B-2 00 E P80 ... ... : ... .. . ... V00 ... : ... .. . ... : ... .. . ... : ... .. . ... ...
ROW 62 : ... .. C ... ... ... : ... .. . ... ... ... : ... .. . ... : ... .. 0 ... : ... .. . ... ...
ROW 63 : ... .. B ... ... ... : ... .. 7 ... ... ... : ... .. . ... : ... .. . ... : ... .. . ... ...
ROW 64 : ... .. A ... ... ... : ... .. 6 ... ... ... : ... .. . ... : ... .. . ... : ... .. . ... ...
ROW 65 : ... .. 9 ... ... ... : ... .. 0 ... ... ... : ... .. . ... : ... .. . ... : ... .. . ... ...
ROW 66 : ... .. . ... ... ... : B-1 00 B P80 V02 ... : ... .. . ... : ... .. . ... : ... .. . ... ...
ROW 67 : ... .. . ... ... ... : ... .. . ... V00 ... : ... .. . ... : ... .. . ... : ... .. . ... ...
ROW 68 : ... .. . ... ... ... : ... .. . ... ... ... : ... .. . ... : ... .. . ... : ... .. . ... ...
ROW 69 : ... .. . ... ... ... : ... .. 7 ... ... ... : ... .. . ... : ... .. . ... : ... .. . ... ...
ROW 6A : ... .. . ... ... ... : ... .. 6 ... ... ... : ... .. . ... : ... .. . ... : ... .. . ... ...
ROW 6B : ... .. . ... ... ... : ... .. 0 ... ... ... : ... .. . ... : ... .. . ... : ... .. . ... ...
ROW 6C : ... .. . ... ... ... : B-1 00 B P80 V02 ... : ... .. . ... : C-# 00 F ... : C-0 00 . Z40 ...
ROW 6D : ... .. . ... ... ... : ... .. . ... V00 ... : ... .. . ... : ... .. . ... : ... .. . ... ...
ROW 6E : ... .. . ... ... ... : ... .. . ... ... ... : ... .. . ... : ... .. 0 ... : ... .. . ... ...
ROW 6F : ... .. . ... ... ... : ... .. 7 ... ... ... : ... .. . ... : ... .. . ... : ... .. . ... ...
ROW 70 : ... .. . ... ... ... : ... .. 6 ... ... ... : ... .. . ... : ... .. . ... : ... .. . ... ...
ROW 71 : ... .. . ... ... ... : ... .. 0 ... ... ... : ... .. . ... : ... .. . ... : ... .. . ... ...
ROW 72 : D-2 00 D P8A ... ... : B-1 00 B P80 V02 ... : ... .. . ... : ... .. F ... : ... .. . ... ...
ROW 73 : F#2 00 E P80 ... ... : ... .. . ... V00 ... : ... .. . ... : ... .. . ... : ... .. . ... ...
ROW 74 : ... .. C ... ... ... : ... .. . ... ... ... : ... .. . ... : ... .. 0 ... : ... .. . ... ...
ROW 75 : ... .. B ... ... ... : ... .. 7 ... ... ... : ... .. . ... : ... .. . ... : ... .. . ... ...
ROW 76 : ... .. A ... ... ... : ... .. 6 ... ... ... : ... .. . ... : ... .. . ... : ... .. . ... ...
ROW 77 : ... .. 9 ... ... ... : ... .. 0 ... ... ... : ... .. . ... : ... .. . ... : ... .. . ... ...
ROW 78 : G-2 00 D P8A ... ... : B-1 00 B P80 V02 ... : ... .. . ... : 4-# 00 F ... : D-0 00 . Z40 ...
ROW 79 : B-2 00 E P80 ... ... : ... .. . ... V00 ... : ... .. . ... : ... .. . ... : ... .. . ... ...
ROW 7A : ... .. C ... ... ... : ... .. . ... ... ... : ... .. . ... : ... .. 0 ... : ... .. . ... ...
ROW 7B : ... .. B ... ... ... : ... .. 7 ... ... ... : ... .. . ... : ... .. . ... : ... .. . ... ...
ROW 7C : ... .. A ... ... ... : ... .. 6 ... ... ... : ... .. . ... : ... .. . ... : ... .. . ... ...
ROW 7D : ... .. 9 ... ... ... : ... .. 5 ... ... ... : ... .. . ... : ... .. . ... : ... .. . ... ...
ROW 7E : ... .. . ... ... ... : ... .. 4 ... ... ... : ... .. . ... : ... .. . ... : ... .. . ... ...
ROW 7F : ... .. . ... ... ... : ... .. . ... ... ... : ... .. . ... : ... .. . ... : ... .. . ... ...
ROW 80 : ... .. . ... ... ... : ... .. . ... ... ... : ... .. . ... : ... .. . ... : ... .. . ... ...
ROW 81 : ... .. . ... ... ... : ... .. . ... ... ... : ... .. . ... : ... .. . ... : ... .. . ... ...
ROW 82 : ... .. . ... ... ... : ... .. . ... ... ... : ... .. . ... : ... .. . ... : ... .. . ... ...
ROW 83 : ... .. . ... ... ... : ... .. . ... ... ... : ... .. . ... : C-# 00 F ... : D#0 00 . Z40 ...
ROW 84 : ... .. . ... ... ... : ... .. . ... ... ... : ... .. . ... : ... .. . ... : ... .. . ... ...
ROW 85 : ... .. . ... ... ... : ... .. . ... ... ... : ... .. . ... : ... .. 0 ... : ... .. . ... ...
ROW 86 : ... .. . ... ... ... : ... .. . ... ... ... : ... .. . ... : ... .. . ... : ... .. . ... ...
ROW 87 : ... .. . ... ... ... : ... .. . ... ... ... : ... .. . ... : ... .. . ... : ... .. . ... ...
ROW 88 : ... .. . ... ... ... : ... .. . ... ... ... : ... .. . ... : ... .. . ... : ... .. . ... ...
ROW 89 : A-2 00 D P8A ... ... : A-1 00 B ... V02 ... : ... .. . ... : ... .. F ... : D#0 00 . Z40 ...
ROW 8A : C#3 00 E P80 ... ... : ... .. . ... V00 ... : ... .. . ... : ... .. . ... : ... .. . ... ...
ROW 8B : ... .. C ... ... ... : ... .. . ... ... ... : ... .. . ... : ... .. 0 ... : ... .. . ... ...
ROW 8C : ... .. B ... ... ... : ... .. 7 ... ... ... : ... .. . ... : ... .. . ... : ... .. . ... ...
ROW 8D : ... .. A ... ... ... : ... .. 6 ... ... ... : ... .. . ... : ... .. . ... : ... .. . ... ...
ROW 8E : ... .. 9 ... ... ... : ... .. 0 ... ... ... : ... .. . ... : ... .. . ... : ... .. . ... ...
ROW 8F : A#2 00 D P8A ... ... : F#1 00 B P80 V02 ... : ... .. . ... : 4-# 00 F ... : D-0 00 . Z40 ...
ROW 90 : D-3 00 E P80 ... ... : ... .. . ... V00 ... : ... .. . ... : ... .. . ... : ... .. . ... ...
ROW 91 : ... .. C ... ... ... : ... .. . ... ... ... : ... .. . ... : ... .. 0 ... : ... .. . ... ...
ROW 92 : ... .. B ... ... ... : ... .. 7 ... ... ... : ... .. . ... : ... .. . ... : ... .. . ... ...
ROW 93 : ... .. A ... ... ... : ... .. 6 ... ... ... : ... .. . ... : ... .. . ... : ... .. . ... ...
ROW 94 : ... .. 0 ... ... ... : ... .. 0 ... ... ... : ... .. . ... : ... .. . ... : ... .. . ... ...
ROW 95 : ... .. . ... ... ... : F#1 00 B P80 V02 ... : ... .. . ... : ... .. . ... : ... .. . ... ...
ROW 96 : ... .. . ... ... ... : ... .. . ... V00 ... : ... .. . ... : ... .. . ... : ... .. . ... ...
ROW 97 : ... .. . ... ... ... : ... .. . ... ... ... : ... .. . ... : ... .. . ... : ... .. . ... ...
ROW 98 : ... .. . ... ... ... : ... .. 7 ... ... ... : ... .. . ... : ... .. . ... : ... .. . ... ...
ROW 99 : ... .. . ... ... ... : ... .. 6 ... ... ... : ... .. . ... : ... .. . ... : ... .. . ... ...
ROW 9A : ... .. . ... ... ... : ... .. 0 ... ... ... : ... .. . ... : ... .. . ... : ... .. . ... ...
ROW 9B : A#2 00 D P8A ... ... : F#1 00 B P80 V02 ... : ... .. . ... : C-# 00 F ... : C-0 00 . Z40 ...
ROW 9C : D-3 00 E P80 ... ... : ... .. . ... V00 ... : ... .. . ... : ... .. . ... : ... .. . ... ...
ROW 9D : ... .. C ... ... ... : ... .. . ... ... ... : ... .. . ... : ... .. 0 ... : ... .. . ... ...
ROW 9E : ... .. B ... ... ... : ... .. 7 ... ... ... : ... .. . ... : ... .. . ... : ... .. . ... ...
ROW 9F : ... .. A ... ... ... : ... .. 6 ... ... ... : ... .. . ... : ... .. . ... : ... .. . ... ...
ROW A0 : ... .. 9 ... ... ... : ... .. 0 ... ... ... : ... .. . ... : ... .. . ... : ... .. . ... ...
ROW A1 : G-2 00 D P8A ... ... : F#1 00 B P80 V02 ... : ... .. . ... : ... .. F ... : ... .. . ... ...
ROW A2 : B-2 00 E P80 ... ... : ... .. . ... V00 ... : ... .. . ... : ... .. . ... : ... .. . ... ...
ROW A3 : ... .. C ... ... ... : ... .. . ... ... ... : ... .. . ... : ... .. 0 ... : ... .. . ... ...
ROW A4 : ... .. B ... ... ... : ... .. 7 ... ... ... : ... .. . ... : ... .. . ... : ... .. . ... ...
ROW A5 : ... .. 9 ... ... ... : ... .. 0 ... ... ... : ... .. . ... : ... .. . ... : ... .. . ... ...
ROW A6 : A#2 00 D P8A ... ... : ... .. B ... V02 ... : ... .. . ... : 4-# 00 F ... : D-0 00 . Z40 ...
ROW A7 : D-3 00 E P80 ... ... : ... .. . ... V00 ... : ... .. . ... : ... .. . ... : ... .. . ... ...
ROW A8 : ... .. C ... ... ... : ... .. . ... ... ... : ... .. . ... : ... .. 0 ... : ... .. . ... ...
ROW A9 : ... .. B ... ... ... : ... .. 7 ... ... ... : ... .. . ... : ... .. . ... : ... .. . ... ...
ROW AA : ... .. A ... ... ... : ... .. 6 ... ... ... : ... .. . ... : ... .. . ... : ... .. . ... ...
ROW AB : ... .. 9 ... ... ... : ... .. 5 ... ... ... : ... .. . ... : ... .. . ... : ... .. . ... ...
ROW AC : ... .. . ... ... ... : ... .. 4 ... ... ... : ... .. . ... : ... .. . ... : ... .. . ... ...
ROW AD : ... .. . ... ... ... : ... .. . ... ... ... : ... .. . ... : ... .. . ... : ... .. . ... ...
ROW AE : ... .. . ... ... ... : ... .. . ... ... ... : ... .. . ... : ... .. . ... : ... .. . ... ...
ROW AF : ... .. . ... ... ... : ... .. . ... ... ... : ... .. . ... : ... .. . ... : ... .. . ... ...
ROW B0 : ... .. . ... ... ... : ... .. . ... ... ... : ... .. . ... : ... .. . ... : ... .. . ... ...
ROW B1 : ... .. . ... ... ... : ... .. . ... ... ... : ... .. . ... : ... .. . ... : ... .. . ... ...
ROW B2 : ... .. . ... ... ... : ... .. . ... ... ... : ... .. . P7F : C-# 00 F ... : D#0 00 . Z40 ...
ROW B3 : ... .. . ... ... ... : ... .. . ... ... ... : A#4 00 . P83 : ... .. . ... : ... .. . ... ...
ROW B4 : ... .. . ... ... ... : ... .. . ... ... ... : ... .. . P82 : ... .. 0 ... : ... .. . ... ...
ROW B5 : ... .. . ... ... ... : ... .. . ... ... ... : ... .. . P81 : ... .. . ... : ... .. . ... ...
ROW B6 : ... .. . ... ... ... : ... .. . ... ... ... : ... .. . P80 : ... .. . ... : ... .. . ... ...
ROW B7 : ... .. . ... ... ... : ... .. . ... ... ... : ... .. . P7F : ... .. . ... : ... .. . ... ...
ROW B8 : ... .. D P8A ... ... : B-1 00 B ... V02 ... : ... .. . P7E : ... .. F ... : D#0 00 . Z40 ...
ROW B9 : F#3 00 E P80 ... ... : ... .. . ... V00 ... : A-4 00 . P83 : ... .. . ... : ... .. . ... ...
ROW BA : ... .. C ... ... ... : ... .. . ... ... ... : ... .. . P82 : ... .. 0 ... : ... .. . ... ...
ROW BB : ... .. B ... ... ... : ... .. 7 ... ... ... : ... .. . P81 : ... .. . ... : ... .. . ... ...
ROW BC : ... .. A ... ... ... : ... .. 6 ... ... ... : ... .. . P80 : ... .. . ... : ... .. . ... ...
ROW BD : ... .. 9 ... ... ... : ... .. 5 ... ... ... : ... .. . ... : ... .. . ... : ... .. . ... ...
ROW BE : C-3 00 D P8A ... ... : A-1 00 B ... V02 ... : ... .. . ... : 4-# 00 F ... : D-0 00 . Z40 ...
ROW BF : E-3 00 E P80 ... ... : ... .. . ... V00 ... : ... .. . ... : ... .. . ... : ... .. . ... ...
ROW C0 : ... .. C ... ... ... : ... .. . ... ... ... : ... .. . ... : ... .. 0 ... : ... .. . ... ...
ROW C1 : ... .. B ... ... ... : ... .. 7 ... ... ... : ... .. . ... : ... .. . ... : ... .. . ... ...
ROW C2 : ... .. A ... ... ... : ... .. 6 ... ... ... : ... .. . ... : ... .. . ... : ... .. . ... ...
ROW C3 : ... .. 9 ... ... ... : ... .. 0 ... ... ... : ... .. . ... : ... .. . ... : ... .. . ... ...
ROW C4 : ... .. . ... ... ... : A-1 00 B P80 V02 ... : ... .. . ... : ... .. . ... : ... .. . ... ...
ROW C5 : ... .. . ... ... ... : ... .. . ... V00 ... : ... .. . ... : ... .. . ... : ... .. . ... ...
ROW C6 : ... .. . ... ... ... : ... .. . ... ... ... : ... .. . ... : ... .. . ... : ... .. . ... ...
ROW C7 : ... .. . ... ... ... : ... .. 7 ... ... ... : ... .. . ... : ... .. . ... : ... .. . ... ...
ROW C8 : ... .. . ... ... ... : ... .. 0 ... ... ... : ... .. . ... : ... .. . ... : ... .. . ... ...
ROW C9 : ... .. . ... ... ... : ... .. B ... V02 ... : ... .. . ... : C-# 00 F ... : C-0 00 . Z40 ...
ROW CA : ... .. . ... ... ... : ... .. . ... V00 ... : ... .. . ... : ... .. . ... : ... .. . ... ...
ROW CB : ... .. . ... ... ... : ... .. . ... ... ... : ... .. . ... : ... .. 0 ... : ... .. . ... ...
ROW CC : ... .. . ... ... ... : ... .. 7 ... ... ... : ... .. . ... : ... .. . ... : ... .. . ... ...
ROW CD : ... .. . ... ... ... : ... .. 6 ... ... ... : ... .. . ... : ... .. . ... : ... .. . ... ...
ROW CE : ... .. . ... ... ... : ... .. 0 ... ... ... : ... .. . ... : ... .. . ... : C-0 00 . Z40 ...
ROW CF : D-3 00 D P8A ... ... : A-1 00 B P80 V02 ... : ... .. . ... : ... .. F ... : ... .. . ... ...
ROW D0 : F#3 00 E P80 ... ... : ... .. . ... V00 ... : ... .. . ... : ... .. . ... : ... .. . ... ...
ROW D1 : ... .. C ... ... ... : ... .. . ... ... ... : ... .. . ... : ... .. 0 ... : ... .. . ... ...
ROW D2 : ... .. B ... ... ... : ... .. 7 ... ... ... : ... .. . ... : ... .. . ... : ... .. . ... ...
ROW D3 : ... .. A ... ... ... : ... .. 6 ... ... ... : ... .. . ... : ... .. . ... : ... .. . ... ...
ROW D4 : ... .. 9 ... ... ... : ... .. 0 ... ... ... : ... .. . ... : ... .. . ... : ... .. . ... ...
ROW D5 : C-3 00 D P8A ... ... : A-1 00 B P80 V02 ... : ... .. . ... : 4-# 00 F ... : D-0 00 . Z40 ...
ROW D6 : E-3 00 E P80 ... ... : ... .. . ... V00 ... : ... .. . ... : ... .. . ... : ... .. . ... ...
ROW D7 : ... .. C ... ... ... : ... .. . ... ... ... : ... .. . ... : ... .. 0 ... : ... .. . ... ...
ROW D8 : ... .. B ... ... ... : ... .. 7 ... ... ... : ... .. . ... : ... .. . ... : ... .. . ... ...
ROW D9 : ... .. A ... ... ... : ... .. 6 ... ... ... : ... .. . ... : ... .. . ... : ... .. . ... ...
ROW DA : ... .. 9 ... ... ... : ... .. 5 ... ... ... : ... .. . ... : ... .. . ... : ... .. . ... ...
ROW DB : ... .. . ... ... ... : ... .. 4 ... ... ... : ... .. . ... : ... .. . ... : ... .. . ... ...
ROW DC : ... .. . ... ... ... : ... .. . ... ... ... : ... .. . ... : ... .. . ... : ... .. . ... ...
ROW DD : ... .. . ... ... ... : ... .. . ... ... ... : ... .. . ... : ... .. . ... : ... .. . ... ...
ROW DE : ... .. . ... ... ... : ... .. . ... ... ... : ... .. . ... : ... .. . ... : ... .. . ... ...
ROW DF : ... .. . ... ... ... : ... .. . ... ... ... : ... .. . ... : ... .. . ... : ... .. . ... ...
ROW E0 : ... .. . ... ... ... : ... .. . ... ... ... : ... .. . ... : ... .. . ... : ... .. . ... ...
ROW E1 : ... .. . ... ... ... : ... .. . ... ... ... : E-4 00 . ... : C-# 00 F ... : D#0 00 . Z40 ...
ROW E2 : ... .. . ... ... ... : ... .. . ... ... ... : ... .. . ... : ... .. . ... : ... .. . ... ...
ROW E3 : ... .. . ... ... ... : ... .. . ... ... ... : ... .. . ... : ... .. 0 ... : ... .. . ... ...
ROW E4 : ... .. . ... ... ... : ... .. . ... ... ... : ... .. . ... : ... .. . ... : ... .. . ... ...
ROW E5 : ... .. . ... ... ... : ... .. . ... ... ... : ... .. . ... : ... .. . ... : ... .. . ... ...
ROW E6 : ... .. . ... ... ... : ... .. . ... ... ... : ... .. . ... : ... .. . ... : ... .. . ... ...
ROW E7 : A-2 00 D P8A ... ... : F#1 00 B ... V02 ... : ... .. . ... : ... .. F ... : D#0 00 . Z40 ...
ROW E8 : C#3 00 E P80 ... ... : ... .. . ... V00 ... : ... .. . ... : ... .. . ... : ... .. . ... ...
ROW E9 : ... .. C ... ... ... : ... .. . ... ... ... : ... .. . ... : ... .. 0 ... : ... .. . ... ...
ROW EA : ... .. B ... ... ... : ... .. 7 ... ... ... : ... .. . ... : ... .. . ... : ... .. . ... ...
ROW EB : ... .. 9 ... ... ... : ... .. 5 ... ... ... : ... .. . ... : ... .. . ... : ... .. . ... ...
ROW EC : F-2 00 D P8A ... ... : E-1 00 B ... V02 ... : ... .. . ... : 4-# 00 F ... : D-0 00 . Z40 ...
ROW ED : A-2 00 E P80 ... ... : ... .. . ... V00 ... : ... .. . ... : ... .. . ... : ... .. . ... ...
ROW EE : ... .. C ... ... ... : ... .. . ... ... ... : ... .. . ... : ... .. 0 ... : ... .. . ... ...
ROW EF : ... .. B ... ... ... : ... .. 7 ... ... ... : ... .. . ... : ... .. . ... : ... .. . ... ...
ROW F0 : ... .. A ... ... ... : ... .. 6 ... ... ... : ... .. . ... : ... .. . ... : ... .. . ... ...
ROW F1 : ... .. 0 ... ... ... : ... .. 0 ... ... ... : ... .. . ... : ... .. . ... : ... .. . ... ...
ROW F2 : ... .. . ... ... ... : E-1 00 B P80 V02 ... : ... .. . ... : ... .. . ... : ... .. . ... ...
ROW F3 : ... .. . ... ... ... : ... .. . ... V00 ... : ... .. . ... : ... .. . ... : ... .. . ... ...
ROW F4 : ... .. . ... ... ... : ... .. . ... ... ... : ... .. . ... : ... .. . ... : ... .. . ... ...
ROW F5 : ... .. . ... ... ... : ... .. 7 ... ... ... : ... .. . ... : ... .. . ... : ... .. . ... ...
ROW F6 : ... .. . ... ... ... : ... .. 6 ... ... ... : ... .. . ... : ... .. . ... : ... .. . ... ...
ROW F7 : ... .. . ... ... ... : ... .. 0 ... ... ... : ... .. . ... : ... .. . ... : ... .. . ... ...
ROW F8 : F-2 00 D P8A ... ... : E-1 00 B P80 V02 ... : ... .. . ... : C-# 00 F ... : C-0 00 . Z40 ...
ROW F9 : A-2 00 E P80 ... ... : ... .. . ... V00 ... : ... .. . ... : ... .. . ... : ... .. . ... ...
ROW FA : ... .. C ... ... ... : ... .. . ... ... ... : ... .. . ... : ... .. 0 ... : ... .. . ... ...
ROW FB : ... .. B ... ... ... : ... .. 7 ... ... ... : ... .. . ... : ... .. . ... : ... .. . ... ...
ROW FC : ... .. A ... ... ... : ... .. 6 ... ... ... : ... .. . ... : ... .. . ... : ... .. . ... ...
ROW FD : ... .. 9 ... ... ... : ... .. 0 ... ... ... : ... .. . ... : ... .. . ... : ... .. . ... ...
ROW FE : D-2 00 D P8A ... ... : E-1 00 B P80 V02 ... : ... .. . ... : ... .. F ... : ... .. . ... ...
ROW FF : F#2 00 E P80 ... ... : ... .. . ... V00 ... : ... .. . ... : ... .. . ... : ... .. . ... ...

PATTERN 05
ROW 00 : ... .. C ... ... ... : ... .. . ... ... ... : ... .. . ... : ... .. 0 ... : ... .. . ... ...
ROW 01 : ... .. B ... ... ... : ... .. 7 ... ... ... : ... .. . ... : ... .. . ... : ... .. . ... ...
ROW 02 : ... .. A ... ... ... : ... .. 6 ... ... ... : ... .. . ... : ... .. . ... : ... .. . ... ...
ROW 03 : ... .. 9 ... ... ... : ... .. 0 ... ... ... : ... .. . ... : ... .. . ... : ... .. . ... ...
ROW 04 : A-2 00 D P8A ... ... : E-1 00 B P80 V02 ... : C#4 00 . ... : 4-# 00 F ... : D-0 00 . Z40 ...
ROW 05 : C#3 00 E P80 ... ... : ... .. . ... V00 ... : ... .. . ... : ... .. . ... : ... .. . ... ...
ROW 06 : ... .. C ... ... ... : ... .. . ... ... ... : ... .. . ... : ... .. 0 ... : ... .. . ... ...
ROW 07 : ... .. B ... ... ... : ... .. 7 ... ... ... : ... .. . ... : ... .. . ... : ... .. . ... ...
ROW 08 : ... .. A ... ... ... : ... .. 6 ... ... ... : ... .. . ... : ... .. . ... : ... .. . ... ...
ROW 09 : ... .. 9 ... ... ... : ... .. 5 ... ... ... : ... .. . ... : ... .. . ... : ... .. . ... ...
ROW 0A : ... .. . ... ... ... : ... .. 4 ... ... ... : ... .. . ... : ... .. . ... : ... .. . ... ...
ROW 0B : ... .. . ... ... ... : ... .. . ... ... ... : ... .. . ... : ... .. . ... : ... .. . ... ...
ROW 0C : ... .. . ... ... ... : ... .. . ... ... ... : ... .. . ... : ... .. . ... : ... .. . ... ...
ROW 0D : ... .. . ... ... ... : ... .. . ... ... ... : ... .. . ... : ... .. . ... : ... .. . ... ...
ROW 0E : ... .. . ... ... ... : ... .. . ... ... ... : ... .. . ... : ... .. . ... : ... .. . ... ...
ROW 0F : ... .. . ... ... ... : ... .. . ... ... ... : ... .. . ... : C-# 00 F ... : C#0 00 . Z40 ...
ROW 10 : ... .. . ... ... ... : ... .. . ... ... ... : ... .. . ... : ... .. . ... : ... .. . ... ...
ROW 11 : ... .. . ... ... ... : ... .. . ... ... ... : ... .. . ... : ... .. 0 ... : ... .. . ... ...
ROW 12 : ... .. . ... ... ... : ... .. . ... ... ... : ... .. . ... : ... .. . ... : ... .. . ... ...
ROW 13 : ... .. . ... ... ... : ... .. . ... ... ... : ... .. . ... : ... .. . ... : ... .. . ... ...
ROW 14 : ... .. . ... ... ... : ... .. . ... ... ... : ... .. . ... : ... .. . ... : ... .. . ... ...
ROW 15 : F-2 00 D P8A ... ... : A-1 00 B ... V02 ... : ... .. . ... : ... .. . ... : ... .. . ... ...
ROW 16 : A-2 00 E P80 ... ... : ... .. . ... V00 ... : ... .. . ... : ... .. . ... : ... .. . ... ...
ROW 17 : ... .. C ... ... ... : ... .. . ... ... ... : ... .. . ... : ... .. . ... : ... .. . ... ...
ROW 18 : ... .. B ... ... ... : ... .. 7 ... ... ... : ... .. . ... : ... .. . ... : ... .. . ... ...
ROW 19 : ... .. A ... ... ... : ... .. 6 ... ... ... : ... .. . ... : ... .. . ... : ... .. . ... ...
ROW 1A : ... .. 0 ... ... ... : ... .. 0 ... ... ... : ... .. . ... : ... .. . ... : ... .. . ... ...
ROW 1B : G-2 00 D P8A ... ... : B-1 00 B P80 V02 ... : B-3 00 . ... : 4-# 00 F ... : D-0 00 . Z40 ...
ROW 1C : B-2 00 E P80 ... ... : ... .. . ... V00 ... : ... .. . ... : ... .. . ... : ... .. . ... ...
ROW 1D : ... .. C ... ... ... : ... .. . ... ... ... : ... .. . ... : ... .. 0 ... : ... .. . ... ...
ROW 1E : ... .. B ... ... ... : ... .. 7 ... ... ... : ... .. . ... : ... .. . ... : ... .. . ... ...
ROW 1F : ... .. A ... ... ... : ... .. 6 ... ... ... : ... .. . ... : ... .. . ... : ... .. . ... ...
ROW 20 : ... .. 9 ... ... ... : ... .. 0 ... ... ... : ... .. . ... : ... .. . ... : ... .. . ... ...
ROW 21 : ... .. . ... ... ... : B-1 00 B P80 V02 ... : ... .. . ... : ... .. . ... : ... .. . ... ...
ROW 22 : ... .. . ... ... ... : ... .. . ... V00 ... : ... .. . ... : ... .. . ... : ... .. . ... ...
ROW 23 : ... .. . ... ... ... : ... .. . ... ... ... : ... .. . ... : ... .. . ... : ... .. . ... ...
ROW 24 : ... .. . ... ... ... : ... .. 7 ... ... ... : ... .. . ... : ... .. . ... : ... .. . ... ...
ROW 25 : ... .. . ... ... ... : ... .. 6 ... ... ... : ... .. . ... : ... .. . ... : ... .. . ... ...
ROW 26 : ... .. . ... ... ... : ... .. 0 ... ... ... : ... .. . ... : ... .. . ... : ... .. . ... ...
ROW 27 : ... .. . ... ... ... : B-1 00 B P80 V02 ... : ... .. . ... : C-# 00 F ... : C-0 00 . Z40 ...
ROW 28 : ... .. . ... ... ... : ... .. . ... V00 ... : ... .. . ... : ... .. . ... : ... .. . ... ...
ROW 29 : ... .. . ... ... ... : ... .. . ... ... ... : ... .. . ... : ... .. 0 ... : ... .. . ... ...
ROW 2A : ... .. . ... ... ... : ... .. 7 ... ... ... : ... .. . ... : ... .. . ... : ... .. . ... ...
ROW 2B : ... .. . ... ... ... : ... .. 6 ... ... ... : ... .. . ... : ... .. . ... : ... .. . ... ...
ROW 2C : ... .. . ... ... ... : ... .. 0 ... ... ... : ... .. . ... : ... .. . ... : ... .. . ... ...
ROW 2D : D-2 00 D P8A ... ... : B-1 00 B P80 V02 ... : ... .. . ... : ... .. F ... : ... .. . ... ...
ROW 2E : F#2 00 E P80 ... ... : ... .. . ... V00 ... : ... .. . ... : ... .. . ... : ... .. . ... ...
ROW 2F : ... .. C ... ... ... : ... .. . ... ... ... : ... .. . ... : ... .. 0 ... : ... .. . ... ...
ROW 30 : ... .. B ... ... ... : ... .. 7 ... ... ... : ... .. . ... : ... .. . ... : ... .. . ... ...
ROW 31 : ... .. 9 ... ... ... : ... .. 0 ... ... ... : ... .. . ... : ... .. . ... : ... .. . ... ...
ROW 32 : G-2 00 D P8A ... ... : ... .. B ... V02 ... : ... .. . ... : 4-# 00 F ... : D-0 00 . Z40 ...
ROW 33 : B-2 00 E P80 ... ... : ... .. . ... V00 ... : ... .. . ... : ... .. . ... : ... .. . ... ...
ROW 34 : ... .. C ... ... ... : ... .. . ... ... ... : ... .. . ... : ... .. 0 ... : ... .. . ... ...
ROW 35 : ... .. B ... ... ... : ... .. 7 ... ... ... : ... .. . ... : ... .. . ... : ... .. . ... ...
ROW 36 : ... .. A ... ... ... : ... .. 6 ... ... ... : ... .. . ... : ... .. . ... : ... .. . ... ...
ROW 37 : ... .. 9 ... ... ... : ... .. 5 ... ... ... : ... .. . ... : ... .. . ... : ... .. . ... ...
ROW 38 : ... .. . ... ... ... : ... .. 4 ... ... ... : ... .. . ... : ... .. . ... : ... .. . ... ...
ROW 39 : ... .. . ... ... ... : ... .. . ... ... ... : ... .. . ... : ... .. . ... : ... .. . ... ...
ROW 3A : ... .. . ... ... ... : ... .. . ... ... ... : ... .. . ... : ... .. . ... : ... .. . ... ...
ROW 3B : ... .. . ... ... ... : ... .. . ... ... ... : ... .. . ... : ... .. . ... : ... .. . ... ...
ROW 3C : ... .. . ... ... ... : ... .. . ... ... ... : ... .. . ... : ... .. . ... : ... .. . ... ...
ROW 3D : ... .. . ... ... ... : ... .. . ... ... ... : ... .. . ... : ... .. . ... : ... .. . ... ...
ROW 3E : ... .. . ... ... ... : ... .. . ... ... ... : ... .. . ... : C-# 00 F ... : D#0 00 . Z40 ...
ROW 3F : ... .. . ... ... ... : ... .. . ... ... ... : ... .. . ... : ... .. . ... : ... .. . ... ...
ROW 40 : ... .. . ... ... ... : ... .. . ... ... ... : ... .. . ... : ... .. 0 ... : ... .. . ... ...
ROW 41 : ... .. . ... ... ... : ... .. . ... ... ... : ... .. . ... : ... .. . ... : ... .. . ... ...
ROW 42 : ... .. . ... ... ... : ... .. . ... ... ... : ... .. . ... : ... .. . ... : ... .. . ... ...
ROW 43 : ... .. . ... ... ... : ... .. . ... ... ... : ... .. . ... : ... .. . ... : ... .. . ... ...
ROW 44 : A-2 00 D P8A ... ... : A-1 00 B ... V02 ... : ... .. . ... : ... .. F ... : D#0 00 . Z40 ...
ROW 45 : C#3 00 E P80 ... ... : ... .. . ... V00 ... : ... .. . ... : ... .. . ... : ... .. . ... ...
ROW 46 : ... .. C ... ... ... : ... .. . ... ... ... : ... .. . ... : ... .. 0 ... : ... .. . ... ...
ROW 47 : ... .. B ... ... ... : ... .. 7 ... ... ... : ... .. . ... : ... .. . ... : ... .. . ... ...
ROW 48 : ... .. A ... ... ... : ... .. 6 ... ... ... : ... .. . ... : ... .. . ... : ... .. . ... ...
ROW 49 : ... .. 9 ... ... ... : ... .. 0 ... ... ... : ... .. . ... : ... .. . ... : ... .. . ... ...
ROW 4A : A#2 00 D P8A ... ... : F#1 00 B P80 V02 ... : ... .. . ... : 4-# 00 F ... : D-0 00 . Z40 ...
ROW 4B : D-3 00 E P80 ... ... : ... .. . ... V00 ... : ... .. . ... : ... .. . ... : ... .. . ... ...
ROW 4C : ... .. C ... ... ... : ... .. . ... ... ... : ... .. . ... : ... .. 0 ... : ... .. . ... ...
ROW 4D : ... .. B ... ... ... : ... .. 7 ... ... ... : ... .. . ... : ... .. . ... : ... .. . ... ...
ROW 4E : ... .. A ... ... ... : ... .. 6 ... ... ... : ... .. . ... : ... .. . ... : ... .. . ... ...
ROW 4F : ... .. 0 ... ... ... : ... .. 0 ... ... ... : ... .. . ... : ... .. . ... : ... .. . ... ...
ROW 50 : ... .. . ... ... ... : F#1 00 B P80 V02 ... : ... .. . ... : ... .. . ... : ... .. . ... ...
ROW 51 : ... .. . ... ... ... : ... .. . ... V00 ... : ... .. . ... : ... .. . ... : ... .. . ... ...
ROW 52 : ... .. . ... ... ... : ... .. . ... ... ... : ... .. . ... : ... .. . ... : ... .. . ... ...
ROW 53 : ... .. . ... ... ... : ... .. 7 ... ... ... : ... .. . ... : ... .. . ... : ... .. . ... ...
ROW 54 : ... .. . ... ... ... : ... .. 0 ... ... ... : ... .. . ... : ... .. . ... : ... .. . ... ...
ROW 55 : A#2 00 D P8A ... ... : ... .. B ... V02 ... : ... .. . ... : C-# 00 F ... : C-0 00 . Z40 ...
ROW 56 : D-3 00 E P80 ... ... : ... .. . ... V00 ... : ... .. . ... : ... .. . ... : ... .. . ... ...
ROW 57 : ... .. C ... ... ... : ... .. . ... ... ... : ... .. . ... : ... .. 0 ... : ... .. . ... ...
ROW 58 : ... .. B ... ... ... : ... .. 7 ... ... ... : ... .. . ... : ... .. . ... : ... .. . ... ...
ROW 59 : ... .. A ... ... ... : ... .. 6 ... ... ... : ... .. . ... : ... .. . ... : ... .. . ... ...
ROW 5A : ... .. 9 ... ... ... : ... .. 0 ... ... ... : ... .. . ... : ... .. . ... : ... .. . ... ...
ROW 5B : G-2 00 D P8A ... ... : F#1 00 B P80 V02 ... : ... .. . ... : ... .. F ... : ... .. . ... ...
ROW 5C : B-2 00 E P80 ... ... : ... .. . ... V00 ... : ... .. . ... : ... .. . ... : ... .. . ... ...
ROW 5D : ... .. C ... ... ... : ... .. . ... ... ... : ... .. . ... : ... .. 0 ... : ... .. . ... ...
ROW 5E : ... .. B ... ... ... : ... .. 7 ... ... ... : ... .. . ... : ... .. . ... : ... .. . ... ...
ROW 5F : ... .. A ... ... ... : ... .. 6 ... ... ... : ... .. . ... : ... .. . ... : ... .. . ... ...
ROW 60 : ... .. 9 ... ... ... : ... .. 0 ... ... ... : ... .. . ... : ... .. . ... : ... .. . ... ...
ROW 61 : A#2 00 D P8A ... ... : F#1 00 B P80 V02 ... : ... .. . ... : 4-# 00 F ... : D-0 00 . Z40 ...
ROW 62 : D-3 00 E P80 ... ... : ... .. . ... V00 ... : ... .. . ... : ... .. . ... : ... .. . ... ...
ROW 63 : ... .. C ... ... ... : ... .. . ... ... ... : ... .. . ... : ... .. 0 ... : ... .. . ... ...
ROW 64 : ... .. B ... ... ... : ... .. 7 ... ... ... : ... .. . ... : ... .. . ... : ... .. . ... ...
ROW 65 : ... .. A ... ... ... : ... .. 6 ... ... ... : ... .. . ... : ... .. . ... : ... .. . ... ...
ROW 66 : ... .. 9 ... ... ... : ... .. 5 ... ... ... : ... .. . ... : ... .. . ... : ... .. . ... ...
ROW 67 : ... .. . ... ... ... : ... .. 4 ... ... ... : ... .. . ... : ... .. . ... : ... .. . ... ...
ROW 68 : ... .. . ... ... ... : ... .. . ... ... ... : ... .. . ... : ... .. . ... : ... .. . ... ...
ROW 69 : ... .. . ... ... ... : ... .. . ... ... ... : ... .. . ... : ... .. . ... : ... .. . ... ...
ROW 6A : ... .. . ... ... ... : ... .. . ... ... ... : ... .. . ... : ... .. . ... : ... .. . ... ...
ROW 6B : ... .. . ... ... ... : ... .. . ... ... ... : ... .. . ... : ... .. . ... : ... .. . ... ...
ROW 6C : ... .. . ... ... ... : ... .. . ... ... ... : ... .. . ... : ... .. . ... : ... .. . ... ...
ROW 6D : ... .. . ... ... ... : ... .. . ... ... ... : C-4 00 . P7C : C-# 00 F ... : D#0 00 . Z40 ...
ROW 6E : ... .. . ... ... ... : ... .. . ... ... ... : C#4 00 . P7E : ... .. . ... : ... .. . ... ...
ROW 6F : ... .. . ... ... ... : ... .. . ... ... ... : ... .. . P85 : ... .. 0 ... : ... .. . ... ...
ROW 70 : ... .. . ... ... ... : ... .. . ... ... ... : D-4 00 . P82 : ... .. . ... : ... .. . ... ...
ROW 71 : ... .. . ... ... ... : ... .. . ... ... ... : D#4 00 . P7F : ... .. . ... : ... .. . ... ...
ROW 72 : ... .. . ... ... ... : ... .. . ... ... ... : E-4 00 . P7D : ... .. . ... : ... .. . ... ...
ROW 73 : ... .. D P8A ... ... : B-1 00 B ... V02 ... : ... .. . P84 : ... .. F ... : D#0 00 . Z40 ...
ROW 74 : F#3 00 E P80 ... ... : ... .. . ... V00 ... : F#4 00 . P80 : ... .. . ... : ... .. . ... ...
ROW 75 : ... .. C ... ... ... : ... .. . ... ... ... : G-4 00 . ... : ... .. 0 ... : ... .. . ... ...
ROW 76 : ... .. B ... ... ... : ... .. 7 ... ... ... : G#4 00 . P7F : ... .. . ... : ... .. . ... ...
ROW 77 : ... .. 9 ... ... ... : ... .. 5 ... ... ... : A-4 00 . P80 : ... .. . ... : ... .. . ... ...
ROW 78 : ... .. D P79 ... ... : A-1 00 B ... V02 ... : ... .. . ... : 4-# 00 F ... : D-0 00 . Z40 ...
ROW 79 : A-3 00 E P80 ... ... : ... .. . ... V00 ... : ... .. . ... : ... .. . ... : ... .. . ... ...
ROW 7A : ... .. C ... ... ... : ... .. . ... ... ... : ... .. . ... : ... .. 0 ... : ... .. . ... ...
ROW 7B : ... .. B ... ... ... : ... .. 7 ... ... ... : ... .. . ... : ... .. . ... : ... .. . ... ...
ROW 7C : ... .. A ... ... ... : ... .. 6 ... ... ... : ... .. . ... : ... .. . ... : ... .. . ... ...
ROW 7D : ... .. 9 ... ... ... : ... .. 0 ... ... ... : ... .. . ... : ... .. . ... : ... .. . ... ...
ROW 7E : ... .. . ... ... ... : A-1 00 B P80 V02 ... : ... .. . ... : ... .. . ... : ... .. . ... ...
ROW 7F : ... .. . ... ... ... : ... .. . ... V00 ... : ... .. . ... : ... .. . ... : ... .. . ... ...
ROW 80 : ... .. . ... ... ... : ... .. . ... ... ... : ... .. . ... : ... .. . ... : ... .. . ... ...
ROW 81 : ... .. . ... ... ... : ... .. 7 ... ... ... : ... .. . ... : ... .. . ... : ... .. . ... ...
ROW 82 : ... .. . ... ... ... : ... .. 6 ... ... ... : ... .. . ... : ... .. . ... : ... .. . ... ...
ROW 83 : ... .. . ... ... ... : ... .. 0 ... ... ... : ... .. . ... : ... .. . ... : ... .. . ... ...
ROW 84 : ... .. . ... ... ... : A-1 00 B P80 V02 ... : ... .. . ... : C-# 00 F ... : C-0 00 . Z40 ...
ROW 85 : ... .. . ... ... ... : ... .. . ... V00 ... : ... .. . ... : ... .. . ... : ... .. . ... ...
ROW 86 : ... .. . ... ... ... : ... .. . ... ... ... : ... .. . ... : ... .. 0 ... : ... .. . ... ...
ROW 87 : ... .. . ... ... ... : ... .. 7 ... ... ... : ... .. . ... : ... .. . ... : ... .. . ... ...
ROW 88 : ... .. . ... ... ... : ... .. 6 ... ... ... : ... .. . ... : ... .. . ... : ... .. . ... ...
ROW 89 : ... .. . ... ... ... : ... .. 0 ... ... ... : ... .. . ... : ... .. . ... : C-0 00 . Z40 ...
ROW 8A : D-3 00 D P8A ... ... : A-1 00 B P80 V02 ... : ... .. . ... : ... .. F ... : ... .. . ... ...
ROW 8B : F#3 00 E P80 ... ... : ... .. . ... V00 ... : ... .. . ... : ... .. . ... : ... .. . ... ...
ROW 8C : ... .. C ... ... ... : ... .. . ... ... ... : ... .. . ... : ... .. 0 ... : ... .. . ... ...
ROW 8D : ... .. B ... ... ... : ... .. 7 ... ... ... : ... .. . ... : ... .. . ... : ... .. . ... ...
ROW 8E : ... .. A ... ... ... : ... .. 6 ... ... ... : ... .. . ... : ... .. . ... : ... .. . ... ...
ROW 8F : ... .. 9 ... ... ... : ... .. 0 ... ... ... : ... .. . ... : ... .. . ... : ... .. . ... ...
ROW 90 : C-3 00 D P8A ... ... : A-1 00 B P80 V02 ... : ... .. . ... : 4-# 00 F ... : D-0 00 . Z40 ...
ROW 91 : E-3 00 E P80 ... ... : ... .. . ... V00 ... : ... .. . ... : ... .. . ... : ... .. . ... ...
ROW 92 : ... .. C ... ... ... : ... .. . ... ... ... : ... .. . ... : ... .. 0 ... : ... .. . ... ...
ROW 93 : ... .. B ... ... ... : ... .. 7 ... ... ... : ... .. . ... : ... .. . ... : ... .. . ... ...
ROW 94 : ... .. A ... ... ... : ... .. 6 ... ... ... : ... .. . ... : ... .. . ... : ... .. . ... ...
ROW 95 : ... .. 9 ... ... ... : ... .. 5 ... ... ... : ... .. . ... : ... .. . ... : ... .. . ... ...
ROW 96 : ... .. . ... ... ... : ... .. 4 ... ... ... : ... .. . ... : ... .. . ... : ... .. . ... ...
ROW 97 : ... .. . ... ... ... : ... .. . ... ... ... : ... .. . ... : ... .. . ... : ... .. . ... ...
ROW 98 : ... .. . ... ... ... : ... .. . ... ... ... : ... .. . ... : ... .. . ... : ... .. . ... ...
ROW 99 : ... .. . ... ... ... : ... .. . ... ... ... : ... .. . ... : ... .. . ... : ... .. . ... ...
ROW 9A : ... .. . ... ... ... : ... .. . ... ... ... : ... .. . ... : ... .. . ... : ... .. . ... ...
ROW 9B : ... .. . ... ... ... : ... .. . ... ... ... : E-4 00 . ... : C-# 00 F ... : D#0 00 . Z40 ...
ROW 9C : ... .. . ... ... ... : ... .. . ... ... ... : ... .. . ... : ... .. . ... : ... .. . ... ...
ROW 9D : ... .. . ... ... ... : ... .. . ... ... ... : ... .. . ... : ... .. 0 ... : ... .. . ... ...
ROW 9E : ... .. . ... ... ... : ... .. . ... ... ... : ... .. . ... : ... .. . ... : ... .. . ... ...
ROW 9F : ... .. . ... ... ... : ... .. . ... ... ... : ... .. . ... : ... .. . ... : ... .. . ... ...
ROW A0 : ... .. . ... ... ... : ... .. . ... ... ... : ... .. . ... : ... .. . ... : ... .. . ... ...
ROW A1 : D-3 00 D P8A ... ... : F#1 00 B ... V02 ... : ... .. . ... : ... .. F ... : D#0 00 . Z40 ...
ROW A2 : F#3 00 E P80 ... ... : ... .. . ... V00 ... : ... .. . ... : ... .. . ... : ... .. . ... ...
ROW A3 : ... .. C ... ... ... : ... .. . ... ... ... : ... .. . ... : ... .. 0 ... : ... .. . ... ...
ROW A4 : ... .. B ... ... ... : ... .. 7 ... ... ... : ... .. . ... : ... .. . ... : ... .. . ... ...
ROW A5 : ... .. A ... ... ... : ... .. 6 ... ... ... : ... .. . ... : ... .. . ... : ... .. . ... ...
ROW A6 : ... .. 9 ... ... ... : ... .. 5 ... ... ... : ... .. . ... : ... .. . ... : ... .. . ... ...
ROW A7 : A-2 00 D P8A ... ... : E-1 00 B ... V02 ... : ... .. . ... : 4-# 00 F ... : D-0 00 . Z40 ...
ROW A8 : C#3 00 E P80 ... ... : ... .. . ... V00 ... : ... .. . ... : ... .. . ... : ... .. . ... ...
ROW A9 : ... .. C ... ... ... : ... .. . ... ... ... : ... .. . ... : ... .. 0 ... : ... .. . ... ...
ROW AA : ... .. B ... ... ... : ... .. 7 ... ... ... : ... .. . ... : ... .. . ... : ... .. . ... ...
ROW AB : ... .. A ... ... ... : ... .. 6 ... ... ... : ... .. . ... : ... .. . ... : ... .. . ... ...
ROW AC : ... .. 0 ... ... ... : ... .. 0 ... ... ... : ... .. . ... : ... .. . ... : ... .. . ... ...
ROW AD : ... .. . ... ... ... : E-1 00 B P80 V02 ... : ... .. . ... : ... .. . ... : ... .. . ... ...
ROW AE : ... .. . ... ... ... : ... .. . ... V00 ... : ... .. . ... : ... .. . ... : ... .. . ... ...
ROW AF : ... .. . ... ... ... : ... .. . ... ... ... : ... .. . ... : ... .. . ... : ... .. . ... ...
ROW B0 : ... .. . ... ... ... : ... .. 7 ... ... ... : ... .. . ... : ... .. . ... : ... .. . ... ...
ROW B1 : ... .. . ... ... ... : ... .. 6 ... ... ... : ... .. . ... : ... .. . ... : ... .. . ... ...
ROW B2 : ... .. . ... ... ... : ... .. 0 ... ... ... : ... .. . ... : ... .. . ... : ... .. . ... ...
ROW B3 : A-2 00 D P8A ... ... : E-1 00 B P80 V02 ... : ... .. . ... : C-# 00 F ... : C-0 00 . Z40 ...
ROW B4 : C#3 00 E P80 ... ... : ... .. . ... V00 ... : ... .. . ... : ... .. . ... : ... .. . ... ...
ROW B5 : ... .. C ... ... ... : ... .. . ... ... ... : ... .. . ... : ... .. 0 ... : ... .. . ... ...
ROW B6 : ... .. B ... ... ... : ... .. 7 ... ... ... : ... .. . ... : ... .. . ... : ... .. . ... ...
ROW B7 : ... .. A ... ... ... : ... .. 6 ... ... ... : ... .. . ... : ... .. . ... : ... .. . ... ...
ROW B8 : ... .. 9 ... ... ... : ... .. 0 ... ... ... : ... .. . ... : ... .. . ... : ... .. . ... ...
ROW B9 : G-2 00 D P8A ... ... : E-1 00 B P80 V02 ... : ... .. . ... : ... .. F ... : ... .. . ... ...
ROW BA : B-2 00 E P80 ... ... : ... .. . ... V00 ... : ... .. . ... : ... .. . ... : ... .. . ... ...
ROW BB : ... .. C ... ... ... : ... .. . ... ... ... : ... .. . ... : ... .. 0 ... : ... .. . ... ...
ROW BC : ... .. B ... ... ... : ... .. 7 ... ... ... : ... .. . ... : ... .. . ... : ... .. . ... ...
ROW BD : ... .. 9 ... ... ... : ... .. 0 ... ... ... : ... .. . ... : ... .. . ... : ... .. . ... ...
ROW BE : F-2 00 D P8A ... ... : ... .. B ... V02 ... : C#5 00 . ... : 4-# 00 F ... : D-0 00 . Z40 ...
ROW BF : A-2 00 E P80 ... ... : ... .. . ... V00 ... : ... .. . ... : ... .. . ... : ... .. . ... ...
ROW C0 : ... .. C ... ... ... : ... .. . ... ... ... : ... .. . ... : ... .. 0 ... : ... .. . ... ...
ROW C1 : ... .. B ... ... ... : ... .. 7 ... ... ... : ... .. . ... : ... .. . ... : ... .. . ... ...
ROW C2 : ... .. A ... ... ... : ... .. 6 ... ... ... : ... .. . ... : ... .. . ... : ... .. . ... ...
ROW C3 : ... .. 9 ... ... ... : ... .. 5 ... ... ... : ... .. . ... : ... .. . ... : ... .. . ... ...
ROW C4 : ... .. . ... ... ... : ... .. 4 ... ... ... : ... .. . ... : ... .. . ... : ... .. . ... ...
ROW C5 : ... .. . ... ... ... : ... .. . ... ... ... : ... .. . ... : ... .. . ... : ... .. . ... ...
ROW C6 : ... .. . ... ... ... : ... .. . ... ... ... : ... .. . ... : ... .. . ... : ... .. . ... ...
ROW C7 : ... .. . ... ... ... : ... .. . ... ... ... : ... .. . ... : ... .. . ... : ... .. . ... ...
ROW C8 : ... .. . ... ... ... : ... .. . ... ... ... : ... .. . ... : ... .. . ... : ... .. . ... ...
ROW C9 : ... .. . ... ... ... : ... .. . ... ... ... : ... .. . ... : ... .. . ... : ... .. . ... ...
ROW CA : ... .. . ... ... ... : ... .. . ... ... ... : ... .. . ... : C-# 00 F ... : C#0 00 . Z40 ...
ROW CB : ... .. . ... ... ... : ... .. . ... ... ... : D-5 00 . ... : ... .. . ... : ... .. . ... ...
ROW CC : ... .. . ... ... ... : ... .. . ... ... ... : ... .. . ... : ... .. 0 ... : ... .. . ... ...
ROW CD : ... .. . ... ... ... : ... .. . ... ... ... : ... .. . ... : ... .. . ... : ... .. . ... ...
ROW CE : ... .. . ... ... ... : ... .. . ... ... ... : ... .. . ... : ... .. . ... : ... .. . ... ...
ROW CF : ... .. . ... ... ... : ... .. . ... ... ... : ... .. . ... : ... .. . ... : ... .. . ... ...
ROW D0 : ... .. . ... ... ... : A-1 00 B ... V02 ... : ... .. . ... : ... .. . ... : ... .. . ... ...
ROW D1 : ... .. . ... ... ... : ... .. . ... V00 ... : C#5 00 . ... : ... .. . ... : ... .. . ... ...
ROW D2 : ... .. . ... ... ... : ... .. . ... ... ... : ... .. . ... : ... .. . ... : ... .. . ... ...
ROW D3 : ... .. . ... ... ... : ... .. 7 ... ... ... : ... .. . ... : ... .. . ... : ... .. . ... ...
ROW D4 : ... .. . ... ... ... : ... .. 6 ... ... ... : ... .. . ... : ... .. . ... : ... .. . ... ...
ROW D5 : ... .. 0 ... ... ... : ... .. 0 ... ... ... : ... .. . ... : ... .. . ... : ... .. . ... ...
ROW D6 : B-3 00 9 P80 ... ... : B-1 00 B P80 V02 ... : B-4 00 . ... : 4-# 00 F ... : D-0 00 . Z40 ...
ROW D7 : C#4 00 9 ... ... ... : ... .. . ... V00 ... : ... .. . ... : ... .. . ... : ... .. . ... ...
ROW D8 : ... .. A ... ... ... : ... .. . ... ... ... : ... .. . ... : ... .. 0 ... : ... .. . ... ...
ROW D9 : B-3 00 9 ... ... ... : ... .. 7 ... ... ... : ... .. . ... : ... .. . ... : ... .. . ... ...
ROW DA : ... .. A ... ... ... : ... .. 6 ... ... ... : ... .. . ... : ... .. . ... : ... .. . ... ...
ROW DB : ... .. B ... ... ... : ... .. 0 ... ... ... : ... .. . ... : ... .. . ... : ... .. . ... ...
ROW DC : ... .. . ... ... ... : B-1 00 B P80 V02 ... : ... .. . ... : ... .. . ... : ... .. . ... ...
ROW DD : ... .. . ... ... ... : ... .. . ... V00 ... : ... .. . ... : ... .. . ... : ... .. . ... ...
ROW DE : ... .. . ... ... ... : ... .. . ... ... ... : ... .. . ... : ... .. . ... : ... .. . ... ...
ROW DF : ... .. . ... ... ... : ... .. 7 ... ... ... : ... .. . ... : ... .. . ... : ... .. . ... ...
ROW E0 : ... .. . ... ... ... : ... .. 0 ... ... ... : ... .. . ... : ... .. . ... : ... .. . ... ...
ROW E1 : ... .. . ... ... ... : ... .. B ... V02 ... : ... .. . ... : C-# 00 F ... : C-0 00 . Z40 ...
ROW E2 : ... .. . ... ... ... : ... .. . ... V00 ... : ... .. . ... : ... .. . ... : ... .. . ... ...
ROW E3 : ... .. . P81 ... ... : ... .. . ... ... ... : ... .. . ... : ... .. 0 ... : ... .. . ... ...
ROW E4 : ... .. . ... ... ... : ... .. 7 ... ... ... : ... .. . ... : ... .. . ... : ... .. . ... ...
ROW E5 : ... .. . ... ... ... : ... .. 6 ... ... ... : ... .. . ... : ... .. . ... : ... .. . ... ...
ROW E6 : ... .. . ... ... ... : ... .. 0 ... ... ... : ... .. . ... : ... .. . ... : ... .. . ... ...
ROW E7 : F#3 00 9 P80 ... ... : B-1 00 B P80 V02 ... : ... .. . ... : ... .. F ... : ... .. . ... ...
ROW E8 : ... .. B ... ... ... : ... .. . ... V00 ... : ... .. . ... : ... .. . ... : ... .. . ... ...
ROW E9 : ... .. . ... ... ... : ... .. . ... ... ... : ... .. . ... : ... .. 0 ... : ... .. . ... ...
ROW EA : ... .. . ... ... ... : ... .. 7 ... ... ... : ... .. . ... : ... .. . ... : ... .. . ... ...
ROW EB : ... .. . ... ... ... : ... .. 6 ... ... ... : ... .. . ... : ... .. . ... : ... .. . ... ...
ROW EC : ... .. . ... ... ... : ... .. 0 ... ... ... : ... .. . ... : ... .. . ... : ... .. . ... ...
ROW ED : A-3 00 9 ... ... ... : B-1 00 B P80 V02 ... : ... .. . ... : 4-# 00 F ... : D-0 00 . Z40 ...
ROW EE : B-3 00 9 ... ... ... : ... .. . ... V00 ... : ... .. . ... : ... .. . ... : ... .. . ... ...
ROW EF : ... .. A ... ... ... : ... .. . ... ... ... : ... .. . ... : ... .. 0 ... : ... .. . ... ...
ROW F0 : ... .. B ... ... ... : ... .. 7 ... ... ... : ... .. . ... : ... .. . ... : ... .. . ... ...
ROW F1 : ... .. . ... ... ... : ... .. 6 ... ... ... : ... .. . ... : ... .. . ... : ... .. . ... ...
ROW F2 : ... .. . ... ... ... : ... .. 5 ... ... ... : ... .. . ... : ... .. . ... : ... .. . ... ...
ROW F3 : ... .. . ... ... ... : ... .. 4 ... ... ... : ... .. . ... : ... .. . ... : ... .. . ... ...
ROW F4 : ... .. . ... ... ... : ... .. . ... ... ... : ... .. . ... : ... .. . ... : ... .. . ... ...
ROW F5 : ... .. . ... ... ... : ... .. . ... ... ... : ... .. . ... : ... .. . ... : ... .. . ... ...
ROW F6 : ... .. . ... ... ... : ... .. . ... ... ... : ... .. . ... : ... .. . ... : ... .. . ... ...
ROW F7 : ... .. . ... ... ... : ... .. . ... ... ... : ... .. . ... : ... .. . ... : ... .. . ... ...
ROW F8 : ... .. . ... ... ... : ... .. . ... ... ... : ... .. . ... : ... .. . ... : ... .. . ... ...
ROW F9 : ... .. . ... ... ... : ... .. . ... ... ... : ... .. . ... : C-# 00 F ... : D#0 00 . Z40 ...
ROW FA : ... .. . P81 ... ... : ... .. . ... ... ... : ... .. . ... : ... .. . ... : ... .. . ... ...
ROW FB : ... .. . ... ... ... : ... .. . ... ... ... : ... .. . ... : ... .. 0 ... : ... .. . ... ...
ROW FC : ... .. . ... ... ... : ... .. . ... ... ... : ... .. . ... : ... .. . ... : ... .. . ... ...
ROW FD : ... .. . P80 ... ... : ... .. . ... ... ... : ... .. . ... : ... .. . ... : ... .. . ... ...
ROW FE : ... .. . P7F ... ... : ... .. . ... ... ... : ... .. . ... : ... .. . ... : ... .. . ... ...
ROW FF : C#4 00 9 P80 ... ... : A-1 00 B ... V02 ... : ... .. . ... : ... .. F ... : D#0 00 . Z40 ...

PATTERN 06
ROW 00 : ... .. B ... ... ... : ... .. . ... V00 ... : ... .. . ... : ... .. . ... : ... .. . ... ...
ROW 01 : ... .. . ... ... ... : ... .. . ... ... ... : ... .. . ... : ... .. 0 ... : ... .. . ... ...
ROW 02 : ... .. . ... ... ... : ... .. 7 ... ... ... : ... .. . ... : ... .. . ... : ... .. . ... ...
ROW 03 : ... .. . ... ... ... : ... .. 0 ... ... ... : ... .. . ... : ... .. . ... : ... .. . ... ...
ROW 04 : B-3 00 9 ... ... ... : F#1 00 B ... V02 ... : ... .. . ... : 4-# 00 F ... : D-0 00 . Z40 ...
ROW 05 : D-4 00 9 ... ... ... : ... .. . ... V00 ... : ... .. . ... : ... .. . ... : ... .. . ... ...
ROW 06 : ... .. A ... ... ... : ... .. . ... ... ... : ... .. . ... : ... .. 0 ... : ... .. . ... ...
ROW 07 : ... .. B ... ... ... : ... .. 7 ... ... ... : ... .. . ... : ... .. . ... : ... .. . ... ...
ROW 08 : ... .. . ... ... ... : ... .. 6 ... ... ... : ... .. . ... : ... .. . ... : ... .. . ... ...
ROW 09 : ... .. 0 ... ... ... : ... .. 0 ... ... ... : ... .. . ... : ... .. . ... : ... .. . ... ...
ROW 0A : ... .. . ... ... ... : F#1 00 B P80 V02 ... : ... .. . ... : ... .. . ... : ... .. . ... ...
ROW 0B : ... .. . ... ... ... : ... .. . ... V00 ... : ... .. . ... : ... .. . ... : ... .. . ... ...
ROW 0C : ... .. . ... ... ... : ... .. . ... ... ... : ... .. . ... : ... .. . ... : ... .. . ... ...
ROW 0D : ... .. . ... ... ... : ... .. 7 ... ... ... : ... .. . ... : ... .. . ... : ... .. . ... ...
ROW 0E : ... .. . ... ... ... : ... .. 6 ... ... ... : ... .. . ... : ... .. . ... : ... .. . ... ...
ROW 0F : ... .. . ... ... ... : ... .. 0 ... ... ... : ... .. . ... : ... .. . ... : ... .. . ... ...
ROW 10 : D-4 00 9 P80 ... ... : F#1 00 B P80 V02 ... : ... .. . ... : C-# 00 F ... : C-0 00 . Z40 ...
ROW 11 : ... .. B ... ... ... : ... .. . ... V00 ... : ... .. . ... : ... .. . ... : ... .. . ... ...
ROW 12 : ... .. . ... ... ... : ... .. . ... ... ... : ... .. . ... : ... .. 0 ... : ... .. . ... ...
ROW 13 : ... .. . ... ... ... : ... .. 7 ... ... ... : ... .. . ... : ... .. . ... : ... .. . ... ...
ROW 14 : ... .. . ... ... ... : ... .. 6 ... ... ... : ... .. . ... : ... .. . ... : ... .. . ... ...
ROW 15 : ... .. . ... ... ... : ... .. 0 ... ... ... : ... .. . ... : ... .. . ... : ... .. . ... ...
ROW 16 : B-3 00 9 ... ... ... : F#1 00 B P80 V02 ... : ... .. . ... : ... .. F ... : ... .. . ... ...
ROW 17 : ... .. B ... ... ... : ... .. . ... V00 ... : ... .. . ... : ... .. . ... : ... .. . ... ...
ROW 18 : ... .. . ... ... ... : ... .. . ... ... ... : ... .. . ... : ... .. 0 ... : ... .. . ... ...
ROW 19 : ... .. . ... ... ... : ... .. 7 ... ... ... : ... .. . ... : ... .. . ... : ... .. . ... ...
ROW 1A : ... .. . ... ... ... : ... .. 6 ... ... ... : ... .. . ... : ... .. . ... : ... .. . ... ...
ROW 1B : ... .. . ... ... ... : ... .. 0 ... ... ... : ... .. . ... : ... .. . ... : ... .. . ... ...
ROW 1C : C#4 00 9 ... ... ... : F#1 00 B P80 V02 ... : ... .. . ... : 4-# 00 F ... : D-0 00 . Z40 ...
ROW 1D : D-4 00 9 ... ... ... : ... .. . ... V00 ... : ... .. . ... : ... .. . ... : ... .. . ... ...
ROW 1E : ... .. A ... ... ... : ... .. . ... ... ... : ... .. . ... : ... .. 0 ... : ... .. . ... ...
ROW 1F : ... .. B ... ... ... : ... .. 7 ... ... ... : ... .. . ... : ... .. . ... : ... .. . ... ...
ROW 20 : ... .. . ... ... ... : ... .. 6 ... ... ... : ... .. . ... : ... .. . ... : ... .. . ... ...
ROW 21 : ... .. . ... ... ... : ... .. 5 ... ... ... : ... .. . ... : ... .. . ... : ... .. . ... ...
ROW 22 : ... .. . ... ... ... : ... .. 4 ... ... ... : ... .. . ... : ... .. . ... : ... .. . ... ...
ROW 23 : ... .. . ... ... ... : ... .. . ... ... ... : ... .. . ... : ... .. . ... : ... .. . ... ...
ROW 24 : ... .. . ... ... ... : ... .. . ... ... ... : ... .. . ... : ... .. . ... : ... .. . ... ...
ROW 25 : ... .. . ... ... ... : ... .. . ... ... ... : ... .. . ... : ... .. . ... : ... .. . ... ...
ROW 26 : ... .. . ... ... ... : ... .. . ... ... ... : ... .. . ... : ... .. . ... : ... .. . ... ...
ROW 27 : ... .. . ... ... ... : ... .. . ... ... ... : ... .. . P7F : C-# 00 F ... : D#0 00 . Z40 ...
ROW 28 : ... .. . P81 ... ... : ... .. . ... ... ... : A#4 00 . P83 : ... .. . ... : ... .. . ... ...
ROW 29 : ... .. . ... ... ... : ... .. . ... ... ... : ... .. . P82 : ... .. 0 ... : ... .. . ... ...
ROW 2A : ... .. . ... ... ... : ... .. . ... ... ... : ... .. . P81 : ... .. . ... : ... .. . ... ...
ROW 2B : ... .. . P80 ... ... : ... .. . ... ... ... : ... .. . P80 : ... .. . ... : ... .. . ... ...
ROW 2C : ... .. . P7F ... ... : ... .. . ... ... ... : ... .. . P7F : ... .. . ... : ... .. . ... ...
ROW 2D : F#4 00 9 P80 ... ... : B-1 00 B ... V02 ... : ... .. . P7E : ... .. F ... : D#0 00 . Z40 ...
ROW 2E : ... .. B ... ... ... : ... .. . ... V00 ... : A-4 00 . P83 : ... .. . ... : ... .. . ... ...
ROW 2F : ... .. . ... ... ... : ... .. . ... ... ... : ... .. . P82 : ... .. 0 ... : ... .. . ... ...
ROW 30 : ... .. . ... ... ... : ... .. 7 ... ... ... : ... .. . P81 : ... .. . ... : ... .. . ... ...
ROW 31 : ... .. . ... ... ... : ... .. 6 ... ... ... : ... .. . P80 : ... .. . ... : ... .. . ... ...
ROW 32 : ... .. . ... ... ... : ... .. 5 ... ... ... : ... .. . ... : ... .. . ... : ... .. . ... ...
ROW 33 : F-4 00 9 ... ... ... : A-1 00 B ... V02 ... : ... .. . ... : 4-# 00 F ... : D-0 00 . Z40 ...
ROW 34 : E-4 00 9 ... ... ... : ... .. . ... V00 ... : ... .. . ... : ... .. . ... : ... .. . ... ...
ROW 35 : ... .. A ... ... ... : ... .. . ... ... ... : ... .. . ... : ... .. 0 ... : ... .. . ... ...
ROW 36 : ... .. B ... ... ... : ... .. 7 ... ... ... : ... .. . ... : ... .. . ... : ... .. . ... ...
ROW 37 : ... .. . ... ... ... : ... .. 6 ... ... ... : ... .. . ... : ... .. . ... : ... .. . ... ...
ROW 38 : ... .. . ... ... ... : ... .. 0 ... ... ... : ... .. . ... : ... .. . ... : ... .. . ... ...
ROW 39 : ... .. . ... ... ... : A-1 00 B P80 V02 ... : ... .. . ... : ... .. . ... : ... .. . ... ...
ROW 3A : ... .. . ... ... ... : ... .. . ... V00 ... : ... .. . ... : ... .. . ... : ... .. . ... ...
ROW 3B : ... .. . ... ... ... : ... .. . ... ... ... : ... .. . ... : ... .. . ... : ... .. . ... ...
ROW 3C : ... .. . ... ... ... : ... .. 7 ... ... ... : ... .. . ... : ... .. . ... : ... .. . ... ...
ROW 3D : ... .. . ... ... ... : ... .. 6 ... ... ... : ... .. . ... : ... .. . ... : ... .. . ... ...
ROW 3E : ... .. . ... ... ... : ... .. 0 ... ... ... : ... .. . ... : ... .. . ... : ... .. . ... ...
ROW 3F : ... .. . ... ... ... : A-1 00 B P80 V02 ... : ... .. . ... : C-# 00 F ... : C-0 00 . Z40 ...
ROW 40 : ... .. . P81 ... ... : ... .. . ... V00 ... : ... .. . ... : ... .. . ... : ... .. . ... ...
ROW 41 : ... .. . ... ... ... : ... .. . ... ... ... : ... .. . ... : ... .. 0 ... : ... .. . ... ...
ROW 42 : ... .. . ... ... ... : ... .. 7 ... ... ... : ... .. . ... : ... .. . ... : ... .. . ... ...
ROW 43 : ... .. . P80 ... ... : ... .. 6 ... ... ... : ... .. . ... : ... .. . ... : ... .. . ... ...
ROW 44 : ... .. . P7F ... ... : ... .. 0 ... ... ... : ... .. . ... : ... .. . ... : C-0 00 . Z40 ...
ROW 45 : F#4 00 9 P80 ... ... : A-1 00 B P80 V02 ... : ... .. . ... : ... .. F ... : ... .. . ... ...
ROW 46 : ... .. B ... ... ... : ... .. . ... V00 ... : ... .. . ... : ... .. . ... : ... .. . ... ...
ROW 47 : ... .. . ... ... ... : ... .. . ... ... ... : ... .. . ... : ... .. 0 ... : ... .. . ... ...
ROW 48 : ... .. . ... ... ... : ... .. 7 ... ... ... : ... .. . ... : ... .. . ... : ... .. . ... ...
ROW 49 : ... .. . ... ... ... : ... .. 0 ... ... ... : ... .. . ... : ... .. . ... : ... .. . ... ...
ROW 4A : D-4 00 9 ... ... ... : ... .. B ... V02 ... : ... .. . ... : 4-# 00 F ... : D-0 00 . Z40 ...
ROW 4B : E-4 00 9 ... ... ... : ... .. . ... V00 ... : ... .. . ... : ... .. . ... : ... .. . ... ...
ROW 4C : ... .. A ... ... ... : ... .. . ... ... ... : ... .. . ... : ... .. 0 ... : ... .. . ... ...
ROW 4D : ... .. B ... ... ... : ... .. 7 ... ... ... : ... .. . ... : ... .. . ... : ... .. . ... ...
ROW 4E : ... .. . ... ... ... : ... .. 6 ... ... ... : ... .. . ... : ... .. . ... : ... .. . ... ...
ROW 4F : ... .. . ... ... ... : ... .. 5 ... ... ... : ... .. . ... : ... .. . ... : ... .. . ... ...
ROW 50 : ... .. . ... ... ... : ... .. 4 ... ... ... : ... .. . ... : ... .. . ... : ... .. . ... ...
ROW 51 : ... .. . ... ... ... : ... .. . ... ... ... : ... .. . ... : ... .. . ... : ... .. . ... ...
ROW 52 : ... .. . ... ... ... : ... .. . ... ... ... : ... .. . ... : ... .. . ... : ... .. . ... ...
ROW 53 : ... .. . ... ... ... : ... .. . ... ... ... : ... .. . ... : ... .. . ... : ... .. . ... ...
ROW 54 : ... .. . ... ... ... : ... .. . ... ... ... : ... .. . ... : ... .. . ... : ... .. . ... ...
ROW 55 : ... .. . ... ... ... : ... .. . ... ... ... : ... .. . ... : ... .. . ... : ... .. . ... ...
ROW 56 : ... .. . ... ... ... : ... .. . ... ... ... : E-4 00 . ... : C-# 00 F ... : D#0 00 . Z40 ...
ROW 57 : ... .. . P81 ... ... : ... .. . ... ... ... : ... .. . ... : ... .. . ... : ... .. . ... ...
ROW 58 : ... .. . ... ... ... : ... .. . ... ... ... : ... .. . ... : ... .. 0 ... : ... .. . ... ...
ROW 59 : ... .. . ... ... ... : ... .. . ... ... ... : ... .. . ... : ... .. . ... : ... .. . ... ...
ROW 5A : ... .. . P80 ... ... : ... .. . ... ... ... : ... .. . ... : ... .. . ... : ... .. . ... ...
ROW 5B : ... .. . P7F ... ... : ... .. . ... ... ... : ... .. . ... : ... .. . ... : ... .. . ... ...
ROW 5C : C#4 00 9 P80 ... ... : F#1 00 B ... V02 ... : ... .. . ... : ... .. F ... : D#0 00 . Z40 ...
ROW 5D : ... .. B ... ... ... : ... .. . ... V00 ... : ... .. . ... : ... .. . ... : ... .. . ... ...
ROW 5E : ... .. . ... ... ... : ... .. . ... ... ... : ... .. . ... : ... .. 0 ... : ... .. . ... ...
ROW 5F : ... .. . ... ... ... : ... .. 7 ... ... ... : ... .. . ... : ... .. . ... : ... .. . ... ...
ROW 60 : ... .. . ... ... ... : ... .. 6 ... ... ... : ... .. . ... : ... .. . ... : ... .. . ... ...
ROW 61 : ... .. . ... ... ... : ... .. 5 ... ... ... : ... .. . ... : ... .. . ... : ... .. . ... ...
ROW 62 : B-3 00 9 ... ... ... : E-1 00 B ... V02 ... : ... .. . ... : 4-# 00 F ... : D-0 00 . Z40 ...
ROW 63 : A-3 00 9 ... ... ... : ... .. . ... V00 ... : ... .. . ... : ... .. . ... : ... .. . ... ...
ROW 64 : ... .. A ... ... ... : ... .. . ... ... ... : ... .. . ... : ... .. 0 ... : ... .. . ... ...
ROW 65 : ... .. B ... ... ... : ... .. 7 ... ... ... : ... .. . ... : ... .. . ... : ... .. . ... ...
ROW 66 : ... .. . ... ... ... : ... .. 6 ... ... ... : ... .. . ... : ... .. . ... : ... .. . ... ...
ROW 67 : ... .. 0 ... ... ... : ... .. 0 ... ... ... : ... .. . ... : ... .. . ... : ... .. . ... ...
ROW 68 : ... .. . ... ... ... : E-1 00 B P80 V02 ... : ... .. . ... : ... .. . ... : ... .. . ... ...
ROW 69 : ... .. . ... ... ... : ... .. . ... V00 ... : ... .. . ... : ... .. . ... : ... .. . ... ...
ROW 6A : ... .. . ... ... ... : ... .. . ... ... ... : ... .. . ... : ... .. . ... : ... .. . ... ...
ROW 6B : ... .. . ... ... ... : ... .. 7 ... ... ... : ... .. . ... : ... .. . ... : ... .. . ... ...
ROW 6C : ... .. . ... ... ... : ... .. 0 ... ... ... : ... .. . ... : ... .. . ... : ... .. . ... ...
ROW 6D : A-3 00 9 P80 ... ... : ... .. B ... V02 ... : ... .. . ... : C-# 00 F ... : C-0 00 . Z40 ...
ROW 6E : ... .. B ... ... ... : ... .. . ... V00 ... : ... .. . ... : ... .. . ... : ... .. . ... ...
ROW 6F : ... .. . ... ... ... : ... .. . ... ... ... : ... .. . ... : ... .. 0 ... : ... .. . ... ...
ROW 70 : ... .. . ... ... ... : ... .. 7 ... ... ... : ... .. . ... : ... .. . ... : ... .. . ... ...
ROW 71 : ... .. . ... ... ... : ... .. 6 ... ... ... : ... .. . ... : ... .. . ... : ... .. . ... ...
ROW 72 : ... .. . ... ... ... : ... .. 0 ... ... ... : ... .. . ... : ... .. . ... : ... .. . ... ...
ROW 73 : F#3 00 9 ... ... ... : E-1 00 B P80 V02 ... : ... .. . ... : ... .. F ... : ... .. . ... ...
ROW 74 : ... .. B ... ... ... : ... .. . ... V00 ... : ... .. . ... : ... .. . ... : ... .. . ... ...
ROW 75 : ... .. . ... ... ... : ... .. . ... ... ... : ... .. . ... : ... .. 0 ... : ... .. . ... ...
ROW 76 : ... .. . ... ... ... : ... .. 7 ... ... ... : ... .. . ... : ... .. . ... : ... .. . ... ...
ROW 77 : ... .. . ... ... ... : ... .. 6 ... ... ... : ... .. . ... : ... .. . ... : ... .. . ... ...
ROW 78 : ... .. . ... ... ... : ... .. 0 ... ... ... : ... .. . ... : ... .. . ... : ... .. . ... ...
ROW 79 : B-3 00 9 ... ... ... : E-1 00 B P80 V02 ... : C#4 00 . ... : 4-# 00 F ... : D-0 00 . Z40 ...
ROW 7A : C#4 00 9 ... ... ... : ... .. . ... V00 ... : ... .. . ... : ... .. . ... : ... .. . ... ...
ROW 7B : ... .. A ... ... ... : ... .. . ... ... ... : ... .. . ... : ... .. 0 ... : ... .. . ... ...
ROW 7C : ... .. B ... ... ... : ... .. 7 ... ... ... : ... .. . ... : ... .. . ... : ... .. . ... ...
ROW 7D : ... .. . ... ... ... : ... .. 6 ... ... ... : ... .. . ... : ... .. . ... : ... .. . ... ...
ROW 7E : ... .. . ... ... ... : ... .. 5 ... ... ... : ... .. . ... : ... .. . ... : ... .. . ... ...
ROW 7F : ... .. . ... ... ... : ... .. 4 ... ... ... : ... .. . ... : ... .. . ... : ... .. . ... ...
ROW 80 : ... .. . ... ... ... : ... .. . ... ... ... : ... .. . ... : ... .. . ... : ... .. . ... ...
ROW 81 : ... .. . ... ... ... : ... .. . ... ... ... : ... .. . ... : ... .. . ... : ... .. . ... ...
ROW 82 : ... .. . ... ... ... : ... .. . ... ... ... : ... .. . ... : ... .. . ... : ... .. . ... ...
ROW 83 : ... .. . ... ... ... : ... .. . ... ... ... : ... .. . ... : ... .. . ... : ... .. . ... ...
ROW 84 : ... .. . ... ... ... : ... .. . ... ... ... : ... .. . ... : ... .. . ... : ... .. . ... ...
ROW 85 : ... .. . ... ... ... : ... .. . ... ... ... : ... .. . ... : C-# 00 F ... : C#0 00 . Z40 ...
ROW 86 : ... .. . P81 ... ... : ... .. . ... ... ... : ... .. . ... : ... .. . ... : ... .. . ... ...
ROW 87 : ... .. . ... ... ... : ... .. . ... ... ... : ... .. . ... : ... .. 0 ... : ... .. . ... ...
ROW 88 : ... .. . ... ... ... : ... .. . ... ... ... : ... .. . ... : ... .. . ... : ... .. . ... ...
ROW 89 : ... .. . P80 ... ... : ... .. . ... ... ... : ... .. . ... : ... .. . ... : ... .. . ... ...
ROW 8A : ... .. . P7F ... ... : ... .. . ... ... ... : ... .. . ... : ... .. . ... : ... .. . ... ...
ROW 8B : D-4 00 9 P80 ... ... : A-1 00 B ... V02 ... : ... .. . ... : ... .. . ... : ... .. . ... ...
ROW 8C : ... .. B ... ... ... : ... .. . ... V00 ... : ... .. . ... : ... .. . ... : ... .. . ... ...
ROW 8D : C#4 00 9 ... ... ... : ... .. . ... ... ... : ... .. . ... : ... .. . ... : ... .. . ... ...
ROW 8E : ... .. A ... ... ... : ... .. 7 ... ... ... : ... .. . ... : ... .. . ... : ... .. . ... ...
ROW 8F : ... .. 0 ... ... ... : ... .. 0 ... ... ... : ... .. . ... : ... .. . ... : ... .. . ... ...
ROW 90 : B-3 00 9 ... ... ... : B-1 00 B ... V02 ... : B-3 00 . ... : 4-# 00 F ... : D-0 00 . Z40 ...
ROW 91 : ... .. B ... ... ... : ... .. . ... V00 ... : ... .. . ... : ... .. . ... : ... .. . ... ...
ROW 92 : ... .. . ... ... ... : ... .. . ... ... ... : ... .. . ... : ... .. 0 ... : ... .. . ... ...
ROW 93 : ... .. . ... ... ... : ... .. 7 ... ... ... : ... .. . ... : ... .. . ... : ... .. . ... ...
ROW 94 : ... .. . ... ... ... : ... .. 6 ... ... ... : ... .. . ... : ... .. . ... : ... .. . ... ...
ROW 95 : ... .. . ... ... ... : ... .. 0 ... ... ... : ... .. . ... : ... .. . ... : ... .. . ... ...
ROW 96 : ... .. . ... ... ... : B-1 00 B P80 V02 ... : ... .. . ... : ... .. . ... : ... .. . ... ...
ROW 97 : ... .. . ... ... ... : ... .. . ... V00 ... : ... .. . ... : ... .. . ... : ... .. . ... ...
ROW 98 : ... .. . ... ... ... : ... .. . ... ... ... : ... .. . ... : ... .. . ... : ... .. . ... ...
ROW 99 : ... .. . ... ... ... : ... .. 7 ... ... ... : ... .. . ... : ... .. . ... : ... .. . ... ...
ROW 9A : ... .. . ... ... ... : ... .. 6 ... ... ... : ... .. . ... : ... .. . ... : ... .. . ... ...
ROW 9B : ... .. . P81 ... ... : ... .. 0 ... ... ... : ... .. . ... : ... .. . ... : ... .. . ... ...
ROW 9C : ... .. . ... ... ... : B-1 00 B P80 V02 ... : ... .. . ... : C-# 00 F ... : C-0 00 . Z40 ...
ROW 9D : ... .. . ... ... ... : ... .. . ... V00 ... : ... .. . ... : ... .. . ... : ... .. . ... ...
ROW 9E : ... .. . P80 ... ... : ... .. . ... ... ... : ... .. . ... : ... .. 0 ... : ... .. . ... ...
ROW 9F : ... .. . P7F ... ... : ... .. 7 ... ... ... : ... .. . ... : ... .. . ... : ... .. . ... ...
ROW A0 : ... .. . ... ... ... : ... .. 6 ... ... ... : ... .. . ... : ... .. . ... : ... .. . ... ...
ROW A1 : ... .. . ... ... ... : ... .. 0 ... ... ... : ... .. . ... : ... .. . ... : ... .. . ... ...
ROW A2 : F#3 00 9 P80 ... ... : B-1 00 B P80 V02 ... : ... .. . ... : ... .. F ... : ... .. . ... ...
ROW A3 : ... .. B ... ... ... : ... .. . ... V00 ... : ... .. . ... : ... .. . ... : ... .. . ... ...
ROW A4 : ... .. . ... ... ... : ... .. . ... ... ... : ... .. . ... : ... .. 0 ... : ... .. . ... ...
ROW A5 : ... .. . ... ... ... : ... .. 7 ... ... ... : ... .. . ... : ... .. . ... : ... .. . ... ...
ROW A6 : ... .. . ... ... ... : ... .. 6 ... ... ... : ... .. . ... : ... .. . ... : ... .. . ... ...
ROW A7 : ... .. . ... ... ... : ... .. 0 ... ... ... : ... .. . ... : ... .. . ... : ... .. . ... ...
ROW A8 : A-3 00 9 ... ... ... : B-1 00 B P80 V02 ... : ... .. . ... : 4-# 00 F ... : D-0 00 . Z40 ...
ROW A9 : B-3 00 9 ... ... ... : ... .. . ... V00 ... : ... .. . ... : ... .. . ... : ... .. . ... ...
ROW AA : ... .. A ... ... ... : ... .. . ... ... ... : ... .. . ... : ... .. 0 ... : ... .. . ... ...
ROW AB : ... .. B ... ... ... : ... .. 7 ... ... ... : ... .. . ... : ... .. . ... : ... .. . ... ...
ROW AC : ... .. . ... ... ... : ... .. 6 ... ... ... : ... .. . ... : ... .. . ... : ... .. . ... ...
ROW AD : ... .. . ... ... ... : ... .. 5 ... ... ... : ... .. . ... : ... .. . ... : ... .. . ... ...
ROW AE : ... .. . ... ... ... : ... .. 4 ... ... ... : ... .. . ... : ... .. . ... : ... .. . ... ...
ROW AF : ... .. . ... ... ... : ... .. . ... ... ... : ... .. . ... : ... .. . ... : ... .. . ... ...
ROW B0 : ... .. . ... ... ... : ... .. . ... ... ... : ... .. . ... : ... .. . ... : ... .. . ... ...
ROW B1 : ... .. . ... ... ... : ... .. . ... ... ... : ... .. . ... : ... .. . ... : ... .. . ... ...
ROW B2 : ... .. . ... ... ... : ... .. . ... ... ... : ... .. . ... : ... .. . ... : ... .. . ... ...
ROW B3 : ... .. . ... ... ... : ... .. . ... ... ... : ... .. . ... : C-# 00 F ... : D#0 00 . Z40 ...
ROW B4 : ... .. . P81 ... ... : ... .. . ... ... ... : ... .. . ... : ... .. . ... : ... .. . ... ...
ROW B5 : ... .. . ... ... ... : ... .. . ... ... ... : ... .. . ... : ... .. 0 ... : ... .. . ... ...
ROW B6 : ... .. . ... ... ... : ... .. . ... ... ... : ... .. . ... : ... .. . ... : ... .. . ... ...
ROW B7 : ... .. . P80 ... ... : ... .. . ... ... ... : ... .. . ... : ... .. . ... : ... .. . ... ...
ROW B8 : ... .. . P7F ... ... : ... .. . ... ... ... : ... .. . ... : ... .. . ... : ... .. . ... ...
ROW B9 : C#4 00 9 P80 ... ... : A-1 00 B ... V02 ... : ... .. . ... : ... .. F ... : D#0 00 . Z40 ...
ROW BA : ... .. B ... ... ... : ... .. . ... V00 ... : ... .. . ... : ... .. . ... : ... .. . ... ...
ROW BB : ... .. . ... ... ... : ... .. . ... ... ... : ... .. . ... : ... .. 0 ... : ... .. . ... ...
ROW BC : ... .. . ... ... ... : ... .. 7 ... ... ... : ... .. . ... : ... .. . ... : ... .. . ... ...
ROW BD : ... .. . ... ... ... : ... .. 6 ... ... ... : ... .. . ... : ... .. . ... : ... .. . ... ...
ROW BE : ... .. . ... ... ... : ... .. 0 ... ... ... : ... .. . ... : ... .. . ... : ... .. . ... ...
ROW BF : B-3 00 9 ... ... ... : F#1 00 B P80 V02 ... : ... .. . ... : 4-# 00 F ... : D-0 00 . Z40 ...
ROW C0 : D-4 00 9 ... ... ... : ... .. . ... V00 ... : ... .. . ... : ... .. . ... : ... .. . ... ...
ROW C1 : ... .. A ... ... ... : ... .. . ... ... ... : ... .. . ... : ... .. 0 ... : ... .. . ... ...
ROW C2 : ... .. B ... ... ... : ... .. 7 ... ... ... : ... .. . ... : ... .. . ... : ... .. . ... ...
ROW C3 : ... .. . ... ... ... : ... .. 6 ... ... ... : ... .. . ... : ... .. . ... : ... .. . ... ...
ROW C4 : ... .. 0 ... ... ... : ... .. 0 ... ... ... : ... .. . ... : ... .. . ... : ... .. . ... ...
ROW C5 : ... .. . ... ... ... : F#1 00 B P80 V02 ... : ... .. . ... : ... .. . ... : ... .. . ... ...
ROW C6 : ... .. . ... ... ... : ... .. . ... V00 ... : ... .. . ... : ... .. . ... : ... .. . ... ...
ROW C7 : ... .. . ... ... ... : ... .. . ... ... ... : ... .. . ... : ... .. . ... : ... .. . ... ...
ROW C8 : ... .. . ... ... ... : ... .. 7 ... ... ... : ... .. . ... : ... .. . ... : ... .. . ... ...
ROW C9 : ... .. . ... ... ... : ... .. 6 ... ... ... : ... .. . ... : ... .. . ... : ... .. . ... ...
ROW CA : ... .. . ... ... ... : ... .. 0 ... ... ... : ... .. . ... : ... .. . ... : ... .. . ... ...
ROW CB : D-4 00 9 P80 ... ... : F#1 00 B P80 V02 ... : ... .. . ... : C-# 00 F ... : C-0 00 . Z40 ...
ROW CC : ... .. B ... ... ... : ... .. . ... V00 ... : ... .. . ... : ... .. . ... : ... .. . ... ...
ROW CD : ... .. . ... ... ... : ... .. . ... ... ... : ... .. . ... : ... .. 0 ... : ... .. . ... ...
ROW CE : ... .. . ... ... ... : ... .. 7 ... ... ... : ... .. . ... : ... .. . ... : ... .. . ... ...
ROW CF : ... .. . ... ... ... : ... .. 6 ... ... ... : ... .. . ... : ... .. . ... : ... .. . ... ...
ROW D0 : ... .. . ... ... ... : ... .. 0 ... ... ... : ... .. . ... : ... .. . ... : ... .. . ... ...
ROW D1 : A-3 00 9 ... ... ... : F#1 00 B P80 V02 ... : ... .. . ... : ... .. F ... : ... .. . ... ...
ROW D2 : B-3 00 9 ... ... ... : ... .. . ... V00 ... : ... .. . ... : ... .. . ... : ... .. . ... ...
ROW D3 : ... .. A ... ... ... : ... .. . ... ... ... : ... .. . ... : ... .. 0 ... : ... .. . ... ...
ROW D4 : ... .. B ... ... ... : ... .. 7 ... ... ... : ... .. . ... : ... .. . ... : ... .. . ... ...
ROW D5 : ... .. . ... ... ... : ... .. 0 ... ... ... : ... .. . ... : ... .. . ... : ... .. . ... ...
ROW D6 : D-4 00 9 ... ... ... : ... .. B ... V02 ... : ... .. . ... : 4-# 00 F ... : D-0 00 . Z40 ...
ROW D7 : ... .. B ... ... ... : ... .. . ... V00 ... : ... .. . ... : ... .. . ... : ... .. . ... ...
ROW D8 : ... .. . ... ... ... : ... .. . ... ... ... : ... .. . ... : ... .. 0 ... : ... .. . ... ...
ROW D9 : ... .. . ... ... ... : ... .. 7 ... ... ... : ... .. . ... : ... .. . ... : ... .. . ... ...
ROW DA : ... .. . ... ... ... : ... .. 6 ... ... ... : ... .. . ... : ... .. . ... : ... .. . ... ...
ROW DB : ... .. . ... ... ... : ... .. 5 ... ... ... : ... .. . ... : ... .. . ... : ... .. . ... ...
ROW DC : ... .. . ... ... ... : ... .. 4 ... ... ... : ... .. . ... : ... .. . ... : ... .. . ... ...
ROW DD : ... .. . ... ... ... : ... .. . ... ... ... : ... .. . ... : ... .. . ... : ... .. . ... ...
ROW DE : ... .. . ... ... ... : ... .. . ... ... ... : ... .. . ... : ... .. . ... : ... .. . ... ...
ROW DF : ... .. . ... ... ... : ... .. . ... ... ... : ... .. . ... : ... .. . ... : ... .. . ... ...
ROW E0 : ... .. . ... ... ... : ... .. . ... ... ... : ... .. . ... : ... .. . ... : ... .. . ... ...
ROW E1 : ... .. . P81 ... ... : ... .. . ... ... ... : ... .. . ... : ... .. . ... : ... .. . ... ...
ROW E2 : ... .. . ... ... ... : ... .. . ... ... ... : C-4 00 . P7C : C-# 00 F ... : D#0 00 . Z40 ...
ROW E3 : ... .. . ... ... ... : ... .. . ... ... ... : C#4 00 . P7E : ... .. . ... : ... .. . ... ...
ROW E4 : ... .. . P80 ... ... : ... .. . ... ... ... : ... .. . P85 : ... .. 0 ... : ... .. . ... ...
ROW E5 : ... .. . P7F ... ... : ... .. . ... ... ... : D-4 00 . P82 : ... .. . ... : ... .. . ... ...
ROW E6 : ... .. . ... ... ... : ... .. . ... ... ... : D#4 00 . P7F : ... .. . ... : ... .. . ... ...
ROW E7 : ... .. . ... ... ... : ... .. . ... ... ... : E-4 00 . P7D : ... .. . ... : ... .. . ... ...
ROW E8 : F#4 00 9 P80 ... ... : B-1 00 B ... V02 ... : ... .. . P84 : ... .. F ... : D#0 00 . Z40 ...
ROW E9 : ... .. B ... ... ... : ... .. . ... V00 ... : F#4 00 . P80 : ... .. . ... : ... .. . ... ...
ROW EA : ... .. . ... ... ... : ... .. . ... ... ... : G-4 00 . ... : ... .. 0 ... : ... .. . ... ...
ROW EB : ... .. . ... ... ... : ... .. 7 ... ... ... : G#4 00 . P7F : ... .. . ... : ... .. . ... ...
ROW EC : ... .. . ... ... ... : ... .. 6 ... ... ... : A-4 00 . ... : ... .. . ... : ... .. . ... ...
ROW ED : ... .. . ... ... ... : ... .. 5 ... ... ... : ... .. . P80 : ... .. . ... : ... .. . ... ...
ROW EE : G#4 00 9 ... ... ... : A-1 00 B ... V02 ... : ... .. . ... : 4-# 00 F ... : D-0 00 . Z40 ...
ROW EF : A-4 00 9 ... ... ... : ... .. . ... V00 ... : ... .. . ... : ... .. . ... : ... .. . ... ...
ROW F0 : ... .. A ... ... ... : ... .. . ... ... ... : ... .. . ... : ... .. 0 ... : ... .. . ... ...
ROW F1 : ... .. B ... ... ... : ... .. 7 ... ... ... : ... .. . ... : ... .. . ... : ... .. . ... ...
ROW F2 : ... .. . ... ... ... : ... .. 6 ... ... ... : ... .. . ... : ... .. . ... : ... .. . ... ...
ROW F3 : ... .. 0 ... ... ... : ... .. 0 ... ... ... : ... .. . ... : ... .. . ... : ... .. . ... ...
ROW F4 : ... .. . ... ... ... : A-1 00 B P80 V02 ... : ... .. . ... : ... .. . ... : ... .. . ... ...
ROW F5 : ... .. . ... ... ... : ... .. . ... V00 ... : ... .. . ... : ... .. . ... : ... .. . ... ...
ROW F6 : ... .. . ... ... ... : ... .. . ... ... ... : ... .. . ... : ... .. . ... : ... .. . ... ...
ROW F7 : ... .. . ... ... ... : ... .. 7 ... ... ... : ... .. . ... : ... .. . ... : ... .. . ... ...
ROW F8 : ... .. . ... ... ... : ... .. 0 ... ... ... : ... .. . ... : ... .. . ... : ... .. . ... ...
ROW F9 : A-4 00 9 P80 ... ... : ... .. B ... V02 ... : ... .. . ... : C-# 00 F ... : C-0 00 . Z40 ...
ROW FA : ... .. B ... ... ... : ... .. . ... V00 ... : ... .. . ... : ... .. . ... : ... .. . ... ...
ROW FB : ... .. . ... ... ... : ... .. . ... ... ... : ... .. . ... : ... .. 0 ... : ... .. . ... ...
ROW FC : ... .. . ... ... ... : ... .. 7 ... ... ... : ... .. . ... : ... .. . ... : ... .. . ... ...
ROW FD : ... .. . ... ... ... : ... .. 6 ... ... ... : ... .. . ... : ... .. . ... : ... .. . ... ...
ROW FE : ... .. . ... ... ... : ... .. 0 ... ... ... : ... .. . ... : ... .. . ... : ... .. . ... ...
ROW FF : F#4 00 9 ... ... ... : A-1 00 B P80 V02 ... : ... .. . ... : ... .. F ... : ... .. . ... ...

PATTERN 07
ROW 00 : ... .. B ... ... ... : ... .. . ... V00 ... : ... .. . ... : ... .. . ... : ... .. . ... ...
ROW 01 : ... .. . ... ... ... : ... .. . ... ... ... : ... .. . ... : ... .. 0 ... : ... .. . ... ...
ROW 02 : ... .. . ... ... ... : ... .. 7 ... ... ... : ... .. . ... : ... .. . ... : ... .. . ... ...
ROW 03 : ... .. . ... ... ... : ... .. 6 ... ... ... : ... .. . ... : ... .. . ... : ... .. . ... ...
ROW 04 : ... .. . ... ... ... : ... .. 0 ... ... ... : ... .. . ... : ... .. . ... : ... .. . ... ...
ROW 05 : F-4 00 9 ... ... ... : A-1 00 B P80 V02 ... : ... .. . ... : 4-# 00 F ... : D-0 00 . Z40 ...
ROW 06 : E-4 00 9 ... ... ... : ... .. . ... V00 ... : ... .. . ... : ... .. . ... : ... .. . ... ...
ROW 07 : ... .. A ... ... ... : ... .. . ... ... ... : ... .. . ... : ... .. 0 ... : ... .. . ... ...
ROW 08 : ... .. B ... ... ... : ... .. 7 ... ... ... : ... .. . ... : ... .. . ... : ... .. . ... ...
ROW 09 : ... .. . ... ... ... : ... .. 6 ... ... ... : ... .. . ... : ... .. . ... : ... .. . ... ...
ROW 0A : ... .. . ... ... ... : ... .. 5 ... ... ... : ... .. . ... : ... .. . ... : ... .. . ... ...
ROW 0B : ... .. 0 ... ... ... : ... .. 4 ... ... ... : ... .. . ... : ... .. . ... : ... .. . ... ...
ROW 0C : ... .. . ... ... ... : ... .. . ... ... ... : ... .. . ... : ... .. . ... : ... .. . ... ...
ROW 0D : ... .. . ... ... ... : ... .. . ... ... ... : ... .. . ... : ... .. . ... : ... .. . ... ...
ROW 0E : ... .. . ... ... ... : ... .. . ... ... ... : ... .. . ... : ... .. . ... : ... .. . ... ...
ROW 0F : ... .. . ... ... ... : ... .. . ... ... ... : ... .. . ... : ... .. . ... : ... .. . ... ...
ROW 10 : ... .. . ... ... ... : ... .. . ... ... ... : ... .. . ... : ... .. . ... : ... .. . ... ...
ROW 11 : E-4 00 9 P80 ... ... : ... .. . ... ... ... : E-4 00 . ... : C-# 00 F ... : D#0 00 . Z40 ...
ROW 12 : ... .. B ... ... ... : ... .. . ... ... ... : ... .. . ... : ... .. . ... : ... .. . ... ...
ROW 13 : ... .. . ... ... ... : ... .. . ... ... ... : ... .. . ... : ... .. 0 ... : ... .. . ... ...
ROW 14 : ... .. . ... ... ... : ... .. . ... ... ... : ... .. . ... : ... .. . ... : ... .. . ... ...
ROW 15 : ... .. . ... ... ... : ... .. . ... ... ... : ... .. . ... : ... .. . ... : ... .. . ... ...
ROW 16 : ... .. . ... ... ... : ... .. . ... ... ... : ... .. . ... : ... .. . ... : ... .. . ... ...
ROW 17 : F#4 00 9 ... ... ... : F#1 00 B ... V02 ... : ... .. . ... : ... .. F ... : D#0 00 . Z40 ...
ROW 18 : ... .. B ... ... ... : ... .. . ... V00 ... : ... .. . ... : ... .. . ... : ... .. . ... ...
ROW 19 : ... .. . ... ... ... : ... .. . ... ... ... : ... .. . ... : ... .. 0 ... : ... .. . ... ...
ROW 1A : ... .. . ... ... ... : ... .. 7 ... ... ... : ... .. . ... : ... .. . ... : ... .. . ... ...
ROW 1B : ... .. . ... ... ... : ... .. 5 ... ... ... : ... .. . ... : ... .. . ... : ... .. . ... ...
ROW 1C : E-4 00 9 ... ... ... : E-1 00 B ... V02 ... : ... .. . ... : 4-# 00 F ... : D-0 00 . Z40 ...
ROW 1D : C#4 00 9 ... ... ... : ... .. . ... V00 ... : ... .. . ... : ... .. . ... : ... .. . ... ...
ROW 1E : ... .. A ... ... ... : ... .. . ... ... ... : ... .. . ... : ... .. 0 ... : ... .. . ... ...
ROW 1F : ... .. B ... ... ... : ... .. 7 ... ... ... : ... .. . ... : ... .. . ... : ... .. . ... ...
ROW 20 : ... .. . ... ... ... : ... .. 6 ... ... ... : ... .. . ... : ... .. . ... : ... .. . ... ...
ROW 21 : ... .. . ... ... ... : ... .. 0 ... ... ... : ... .. . ... : ... .. . ... : ... .. . ... ...
ROW 22 : ... .. 0 ... ... ... : E-1 00 B P80 V02 ... : ... .. . ... : ... .. . ... : ... .. . ... ...
ROW 23 : ... .. . ... ... ... : ... .. . ... V00 ... : ... .. . ... : ... .. . ... : ... .. . ... ...
ROW 24 : ... .. . ... ... ... : ... .. . ... ... ... : ... .. . ... : ... .. . ... : ... .. . ... ...
ROW 25 : ... .. . ... ... ... : ... .. 7 ... ... ... : ... .. . ... : ... .. . ... : ... .. . ... ...
ROW 26 : ... .. . ... ... ... : ... .. 6 ... ... ... : ... .. . ... : ... .. . ... : ... .. . ... ...
ROW 27 : ... .. . ... ... ... : ... .. 0 ... ... ... : ... .. . ... : ... .. . ... : ... .. . ... ...
ROW 28 : C#4 00 9 P80 ... ... : E-1 00 B P80 V02 ... : ... .. . ... : C-# 00 F ... : C-0 00 . Z40 ...
ROW 29 : ... .. B ... ... ... : ... .. . ... V00 ... : ... .. . ... : ... .. . ... : ... .. . ... ...
ROW 2A : ... .. . ... ... ... : ... .. . ... ... ... : ... .. . ... : ... .. 0 ... : ... .. . ... ...
ROW 2B : ... .. . ... ... ... : ... .. 7 ... ... ... : ... .. . ... : ... .. . ... : ... .. . ... ...
ROW 2C : ... .. . ... ... ... : ... .. 6 ... ... ... : ... .. . ... : ... .. . ... : ... .. . ... ...
ROW 2D : ... .. . ... ... ... : ... .. 0 ... ... ... : ... .. . ... : ... .. . ... : ... .. . ... ...
ROW 2E : C-4 00 9 ... ... ... : E-1 00 B P80 V02 ... : ... .. . ... : ... .. F ... : ... .. . ... ...
ROW 2F : B-3 00 9 ... ... ... : ... .. . ... V00 ... : ... .. . ... : ... .. . ... : ... .. . ... ...
ROW 30 : ... .. A ... ... ... : ... .. . ... ... ... : ... .. . ... : ... .. 0 ... : ... .. . ... ...
ROW 31 : ... .. B ... ... ... : ... .. 7 ... ... ... : ... .. . ... : ... .. . ... : ... .. . ... ...
ROW 32 : ... .. . ... ... ... : ... .. 6 ... ... ... : ... .. . ... : ... .. . ... : ... .. . ... ...
ROW 33 : ... .. . ... ... ... : ... .. 0 ... ... ... : ... .. . ... : ... .. . ... : ... .. . ... ...
ROW 34 : A-3 00 9 ... ... ... : E-1 00 B P80 V02 ... : C#5 00 . ... : 4-# 00 F ... : C#0 00 . Z40 ...
ROW 35 : ... .. B ... ... ... : ... .. . ... V00 ... : ... .. . ... : ... .. . ... : ... .. . ... ...
ROW 36 : ... .. . ... ... ... : ... .. . ... ... ... : ... .. . ... : ... .. 0 ... : ... .. . ... ...
ROW 37 : ... .. . ... ... ... : ... .. 7 ... ... ... : ... .. . ... : ... .. . ... : ... .. . ... ...
ROW 38 : ... .. . ... ... ... : ... .. 6 ... ... ... : ... .. . ... : ... .. . ... : ... .. . ... ...
ROW 39 : ... .. . ... ... ... : ... .. 5 ... ... ... : ... .. . ... : ... .. . ... : ... .. . ... ...
ROW 3A : ... .. . ... ... ... : ... .. 4 ... ... ... : ... .. . ... : ... .. . ... : C#0 00 . Z40 ...
ROW 3B : ... .. . ... ... ... : ... .. . ... ... ... : ... .. . ... : ... .. . ... : ... .. . ... ...
ROW 3C : ... .. . ... ... ... : ... .. . ... ... ... : ... .. . ... : ... .. . ... : ... .. . ... ...
ROW 3D : ... .. . ... ... ... : ... .. . ... ... ... : ... .. . ... : ... .. . ... : ... .. . ... ...
ROW 3E : ... .. . P81 ... ... : ... .. . ... ... ... : ... .. . ... : ... .. . ... : ... .. . ... ...
ROW 3F : C#4 00 9 P80 ... ... : ... .. . ... ... ... : ... .. . ... : C-# 00 F ... : C#0 00 . Z40 ...
ROW 40 : ... .. B ... ... ... : ... .. . ... ... ... : D-5 00 . ... : ... .. . ... : ... .. . ... ...
ROW 41 : ... .. . ... ... ... : ... .. . ... ... ... : ... .. . ... : ... .. 0 ... : ... .. . ... ...
ROW 42 : ... .. . ... ... ... : ... .. . ... ... ... : ... .. . ... : ... .. . ... : ... .. . ... ...
ROW 43 : ... .. . ... ... ... : ... .. . ... ... ... : ... .. . ... : ... .. . ... : ... .. . ... ...
ROW 44 : ... .. . ... ... ... : ... .. . ... ... ... : ... .. . ... : ... .. . ... : ... .. . ... ...
ROW 45 : D-4 00 9 ... ... ... : A-1 00 B ... V02 ... : ... .. . ... : ... .. . ... : C#0 00 . Z40 ...
ROW 46 : ... .. B ... ... ... : ... .. . ... V00 ... : C#5 00 . ... : ... .. . ... : ... .. . ... ...
ROW 47 : C#4 00 9 ... ... ... : ... .. . ... ... ... : ... .. . ... : ... .. . ... : ... .. . ... ...
ROW 48 : ... .. A ... ... ... : ... .. 7 ... ... ... : ... .. . ... : ... .. . ... : ... .. . ... ...
ROW 49 : ... .. B ... ... ... : ... .. 6 ... ... ... : ... .. . ... : ... .. . ... : ... .. . ... ...
ROW 4A : ... .. 0 ... ... ... : ... .. 0 ... ... ... : ... .. . ... : ... .. . ... : ... .. . ... ...
ROW 4B : B-3 00 9 P80 ... ... : B-1 00 B P80 V02 ... : B-4 00 . P82 : 4-# 00 F ... : D-0 00 . Z40 ...
ROW 4C : ... .. B ... ... ... : ... .. . ... V00 ... : ... .. . P80 : ... .. . ... : ... .. . ... ...
ROW 4D : ... .. . ... ... ... : ... .. . ... ... ... : ... .. . ... : ... .. 0 ... : ... .. . ... ...
ROW 4E : ... .. . ... ... ... : ... .. 7 ... ... ... : ... .. . ... : ... .. . ... : ... .. . ... ...
ROW 4F : ... .. . ... ... ... : ... .. 6 ... ... ... : ... .. . P7E : ... .. . ... : ... .. . ... ...
ROW 50 : ... .. . ... ... ... : ... .. 5 ... ... ... : --- .. . ... : ... .. . ... : ... .. . ... ...
ROW 51 : ... .. . ... ... ... : ... .. 4 ... ... ... : ... .. . ... : ... .. . ... : ... .. . ... ...
ROW 52 : ... .. . ... ... ... : ... .. . ... ... ... : ... .. . ... : ... .. . ... : ... .. . ... ...
ROW 53 : ... .. . ... ... ... : ... .. . ... ... ... : ... .. . ... : ... .. . ... : ... .. . ... ...
ROW 54 : ... .. . ... ... ... : ... .. . ... ... ... : ... .. . ... : ... .. . ... : ... .. . ... ...
ROW 55 : ... .. . ... ... ... : ... .. . ... ... ... : ... .. . ... : ... .. . ... : ... .. . ... ...
ROW 56 : ... .. . P81 ... ... : ... .. 0 ... ... ... : ... .. . ... : ... .. . ... : ... .. . ... ...
ROW 57 : ... .. . ... ... ... : B-1 00 B P80 V02 ... : B-4 00 . P82 : C-# 00 F ... : C#0 00 . Z40 ...
ROW 58 : ... .. . ... ... ... : ... .. . ... V00 ... : ... .. . P80 : ... .. . ... : ... .. . ... ...
ROW 59 : ... .. . P80 ... ... : ... .. . ... ... ... : ... .. . ... : ... .. 0 ... : ... .. . ... ...
ROW 5A : ... .. . P7F ... ... : ... .. 7 ... ... ... : ... .. . ... : ... .. . ... : ... .. . ... ...
ROW 5B : ... .. . ... ... ... : ... .. 6 ... ... ... : ... .. . P7E : ... .. . ... : ... .. . ... ...
ROW 5C : ... .. . ... ... ... : ... .. 0 ... ... ... : ... .. . P7F : ... .. . ... : ... .. . ... ...
ROW 5D : ... .. . P80 ... ... : B-1 00 B P80 V02 ... : C#5 00 . P82 : ... .. F ... : C#0 00 . Z40 ...
ROW 5E : ... .. . P81 ... ... : ... .. . ... V00 ... : ... .. . P80 : ... .. . ... : ... .. . ... ...
ROW 5F : ... .. . ... ... ... : ... .. . ... ... ... : ... .. . ... : ... .. 0 ... : ... .. . ... ...
ROW 60 : ... .. . ... ... ... : ... .. 7 ... ... ... : ... .. . ... : ... .. . ... : ... .. . ... ...
ROW 61 : ... .. A P7F ... ... : ... .. 0 ... ... ... : ... .. . P7F : ... .. . ... : ... .. . ... ...
ROW 62 : ... .. . ... ... ... : ... .. B ... V02 ... : D-5 00 . P82 : 4-# 00 F ... : D#0 00 . Z40 ...
ROW 63 : ... .. 9 P80 ... ... : ... .. . ... V00 ... : ... .. . P80 : ... .. . ... : ... .. . ... ...
ROW 64 : ... .. . P81 ... ... : ... .. . ... ... ... : ... .. . ... : ... .. 0 ... : ... .. . ... ...
ROW 65 : ... .. 8 ... ... ... : ... .. 7 ... ... ... : ... .. . ... : ... .. . ... : ... .. . ... ...
ROW 66 : ... .. . ... ... ... : ... .. 6 ... ... ... : ... .. . P7E : ... .. . ... : ... .. . ... ...
ROW 67 : ... .. . ... ... ... : ... .. 5 ... ... ... : ... .. . P7F : ... .. . ... : ... .. . ... ...
ROW 68 : ... .. 7 P80 ... ... : ... .. 4 ... ... ... : ... .. . P80 : ... .. . ... : ... .. . ... ...
ROW 69 : ... .. . P7F ... ... : ... .. . ... ... ... : ... .. . ... : ... .. . ... : ... .. . ... ...
ROW 6A : ... .. 6 ... ... ... : ... .. . ... ... ... : ... .. . ... : ... .. . ... : ... .. . ... ...
ROW 6B : ... .. . P80 ... ... : ... .. . ... ... ... : ... .. . ... : ... .. . ... : ... .. . ... ...
ROW 6C : ... .. . P81 ... ... : ... .. . ... ... ... : ... .. . ... : ... .. . ... : ... .. . ... ...
ROW 6D : ... .. . ... ... ... : ... .. 0 ... ... ... : ... .. . ... : ... .. . ... : ... .. . ... ...
ROW 6E : ... .. . ... ... ... : B-1 00 B P80 V02 ... : E-5 00 . P82 : C-# 00 F ... : C#0 00 . Z40 ...
ROW 6F : ... .. . P80 ... ... : ... .. . ... V00 ... : ... .. . P80 : ... .. . ... : ... .. . ... ...
ROW 70 : ... .. . P7F ... ... : ... .. . ... ... ... : ... .. . ... : ... .. 0 ... : ... .. . ... ...
ROW 71 : ... .. . ... ... ... : ... .. 7 ... ... ... : ... .. . ... : ... .. . ... : ... .. . ... ...
ROW 72 : ... .. . ... ... ... : ... .. 6 ... ... ... : D#5 00 . P82 : ... .. . ... : ... .. . ... ...
ROW 73 : ... .. . P80 ... ... : ... .. 0 ... ... ... : E-5 00 . P7F : ... .. . ... : ... .. . ... ...
ROW 74 : ... .. . P81 ... ... : B-1 00 B P80 V02 ... : ... .. . P80 : ... .. F ... : C#0 00 . Z40 ...
ROW 75 : ... .. . ... ... ... : ... .. . ... V00 ... : ... .. . ... : ... .. . ... : ... .. . ... ...
ROW 76 : ... .. . ... ... ... : ... .. . ... ... ... : ... .. . ... : ... .. 0 ... : ... .. . ... ...
ROW 77 : ... .. . P80 ... ... : ... .. 7 ... ... ... : ... .. . ... : ... .. . ... : ... .. . ... ...
ROW 78 : ... .. . P7F ... ... : ... .. 6 ... ... ... : ... .. . ... : ... .. . ... : ... .. . ... ...
ROW 79 : ... .. . ... ... ... : ... .. 0 ... ... ... : ... .. . ... : ... .. . ... : ... .. . ... ...
ROW 7A : ... .. . ... ... ... : B-1 00 B P80 V02 ... : F#5 00 . P82 : 4-# 00 F ... : D-0 00 . Z40 ...
ROW 7B : ... .. . P81 ... ... : ... .. . ... V00 ... : ... .. . P80 : ... .. . ... : ... .. . ... ...
ROW 7C : ... .. . ... ... ... : ... .. . ... ... ... : ... .. . ... : ... .. 0 ... : ... .. . ... ...
ROW 7D : ... .. . ... ... ... : ... .. 7 ... ... ... : ... .. . ... : ... .. . ... : ... .. . ... ...
ROW 7E : ... .. . ... ... ... : ... .. 6 ... ... ... : F-5 00 . P82 : ... .. . ... : ... .. . ... ...
ROW 7F : ... .. . P80 ... ... : ... .. 5 ... ... ... : F#5 00 . P7F : ... .. . ... : ... .. . ... ...
ROW 80 : ... .. . P7F ... ... : ... .. 4 ... ... ... : ... .. . P80 : ... .. . ... : ... .. . ... ...
ROW 81 : ... .. . ... ... ... : ... .. . ... ... ... : ... .. . ... : ... .. . ... : ... .. . ... ...
ROW 82 : ... .. . P80 ... ... : ... .. . ... ... ... : ... .. . ... : ... .. . ... : ... .. . ... ...
ROW 83 : ... .. . P81 ... ... : ... .. . ... ... ... : ... .. . ... : ... .. . ... : ... .. . ... ...
ROW 84 : ... .. . ... ... ... : ... .. 0 ... ... ... : ... .. . ... : ... .. . ... : ... .. . ... ...
ROW 85 : ... .. . ... ... ... : ... .. B ... V02 ... : ... .. . ... : C-# 00 F ... : C#0 00 . Z40 ...
ROW 86 : ... .. . P7F ... ... : ... .. . ... V00 ... : ... .. . ... : ... .. . ... : ... .. . ... ...
ROW 87 : ... .. . ... ... ... : ... .. . ... ... ... : ... .. . ... : ... .. 0 ... : ... .. . ... ...
ROW 88 : ... .. . ... ... ... : ... .. 7 ... ... ... : ... .. . ... : ... .. . ... : ... .. . ... ...
ROW 89 : ... .. . P80 ... ... : ... .. 6 ... ... ... : ... .. . ... : ... .. . ... : ... .. . ... ...
ROW 8A : ... .. . P81 ... ... : ... .. 0 ... ... ... : ... .. . ... : ... .. . ... : ... .. . ... ...
ROW 8B : ... .. . ... ... ... : B-1 00 B P80 V02 ... : ... .. . ... : ... .. F ... : C#0 00 . Z40 ...
ROW 8C : ... .. . ... ... ... : ... .. . ... V00 ... : ... .. . ... : ... .. . ... : ... .. . ... ...
ROW 8D : ... .. . P80 ... ... : ... .. . ... ... ... : ... .. . ... : ... .. 0 ... : ... .. . ... ...
ROW 8E : ... .. . P7F ... ... : ... .. 7 ... ... ... : ... .. . ... : ... .. . ... : ... .. . ... ...
ROW 8F : ... .. . ... ... ... : ... .. 6 ... ... ... : ... .. . ... : ... .. . ... : ... .. . ... ...
ROW 90 : ... .. 0 ... ... ... : ... .. 0 ... ... ... : ... .. . ... : ... .. . ... : ... .. . ... ...
ROW 91 : B-2 00 9 P80 ... ... : B-1 00 B P80 V02 ... : ... .. . ... : 4-# 00 F ... : D#0 00 . Z40 ...
ROW 92 : ... .. B ... ... ... : ... .. . ... V00 ... : ... .. . ... : ... .. . ... : ... .. . ... ...
ROW 93 : ... .. . ... ... ... : ... .. . ... ... ... : ... .. . ... : ... .. 0 ... : ... .. . ... ...
ROW 94 : ... .. . ... ... ... : ... .. 7 ... ... ... : ... .. . ... : ... .. . ... : ... .. . ... ...
ROW 95 : ... .. . ... ... ... : ... .. 6 ... ... ... : ... .. . ... : ... .. . ... : ... .. . ... ...
ROW 96 : ... .. . ... ... ... : ... .. 5 ... ... ... : ... .. . ... : ... .. . ... : ... .. . ... ...
ROW 97 : ... .. . ... ... ... : ... .. 4 ... ... ... : ... .. . ... : ... .. . ... : ... .. . ... ...
ROW 98 : ... .. . ... ... ... : ... .. . ... ... ... : ... .. . ... : ... .. . ... : ... .. . ... ...
ROW 99 : ... .. . ... ... ... : ... .. . ... ... ... : ... .. . ... : ... .. . ... : ... .. . ... ...
ROW 9A : ... .. . ... ... ... : ... .. . ... ... ... : ... .. . ... : ... .. . ... : ... .. . ... ...
ROW 9B : ... .. . ... ... ... : ... .. . ... ... ... : ... .. . ... : ... .. . ... : ... .. . ... ...
ROW 9C : ... .. . P81 ... ... : ... .. 0 ... ... ... : ... .. . ... : ... .. . ... : ... .. . ... ...
ROW 9D : ... .. . ... ... ... : B-1 00 B P80 V02 ... : ... .. . ... : C-# 00 F ... : C#0 00 . Z40 ...
ROW 9E : ... .. . ... ... ... : ... .. . ... V00 ... : ... .. . ... : ... .. . ... : ... .. . ... ...
ROW 9F : ... .. . P80 ... ... : ... .. . ... ... ... : ... .. . ... : ... .. 0 ... : ... .. . ... ...
ROW A0 : ... .. . P7F ... ... : ... .. 7 ... ... ... : ... .. . ... : ... .. . ... : ... .. . ... ...
ROW A1 : ... .. . ... ... ... : ... .. 6 ... ... ... : ... .. . ... : ... .. . ... : ... .. . ... ...
ROW A2 : ... .. . ... ... ... : ... .. 0 ... ... ... : ... .. . ... : ... .. . ... : ... .. . ... ...
ROW A3 : ... .. . P80 ... ... : B-1 00 B P80 V02 ... : D-5 00 . P82 : ... .. F ... : C#0 00 . Z40 ...
ROW A4 : ... .. . P81 ... ... : ... .. . ... V00 ... : ... .. . P80 : ... .. . ... : ... .. . ... ...
ROW A5 : ... .. . ... ... ... : ... .. . ... ... ... : ... .. . ... : ... .. 0 ... : ... .. . ... ...
ROW A6 : ... .. . ... ... ... : ... .. 7 ... ... ... : ... .. . ... : ... .. . ... : ... .. . ... ...
ROW A7 : ... .. 0 P80 ... ... : ... .. 0 ... ... ... : ... .. . P7F : ... .. . ... : ... .. . ... ...
ROW A8 : A-2 00 9 ... ... ... : A-1 00 B ... V02 ... : E-5 00 . P82 : 4-# 00 F ... : D-0 00 . Z40 ...
ROW A9 : ... .. B ... ... ... : ... .. . ... V00 ... : ... .. . P80 : ... .. . ... : ... .. . ... ...
ROW AA : ... .. . ... ... ... : ... .. . ... ... ... : ... .. . ... : ... .. 0 ... : ... .. . ... ...
ROW AB : ... .. . ... ... ... : ... .. 7 ... ... ... : ... .. . ... : ... .. . ... : ... .. . ... ...
ROW AC : ... .. . ... ... ... : ... .. 6 ... ... ... : D#5 00 . P82 : ... .. . ... : ... .. . ... ...
ROW AD : ... .. . ... ... ... : ... .. 5 ... ... ... : --- .. . ... : ... .. . ... : ... .. . ... ...
ROW AE : ... .. . ... ... ... : ... .. 4 ... ... ... : ... .. . ... : ... .. . ... : ... .. . ... ...
ROW AF : ... .. . ... ... ... : ... .. . ... ... ... : ... .. . ... : ... .. . ... : ... .. . ... ...
ROW B0 : ... .. . ... ... ... : ... .. . ... ... ... : ... .. . ... : ... .. . ... : ... .. . ... ...
ROW B1 : ... .. . ... ... ... : ... .. . ... ... ... : ... .. . ... : ... .. . ... : ... .. . ... ...
ROW B2 : ... .. . ... ... ... : ... .. . ... ... ... : ... .. . ... : ... .. . ... : ... .. . ... ...
ROW B3 : ... .. . P81 ... ... : ... .. 0 ... ... ... : ... .. . ... : ... .. . ... : ... .. . ... ...
ROW B4 : ... .. . ... ... ... : A-1 00 B P80 V02 ... : E-5 00 . ... : C-# 00 F ... : C#0 00 . Z40 ...
ROW B5 : ... .. . ... ... ... : ... .. . ... V00 ... : ... .. . P80 : ... .. . ... : ... .. . ... ...
ROW B6 : ... .. . P80 ... ... : ... .. . ... ... ... : ... .. . ... : ... .. 0 ... : ... .. . ... ...
ROW B7 : ... .. . P7F ... ... : ... .. 7 ... ... ... : ... .. . ... : ... .. . ... : ... .. . ... ...
ROW B8 : ... .. . ... ... ... : ... .. 6 ... ... ... : D#5 00 . P82 : ... .. . ... : ... .. . ... ...
ROW B9 : ... .. . ... ... ... : ... .. 0 ... ... ... : E-5 00 . P7F : ... .. . ... : ... .. . ... ...
ROW BA : ... .. . P80 ... ... : A-1 00 B P80 V02 ... : D-5 00 . P82 : ... .. F ... : C#0 00 . Z40 ...
ROW BB : ... .. . P81 ... ... : ... .. . ... V00 ... : ... .. . P80 : ... .. . ... : ... .. . ... ...
ROW BC : ... .. . ... ... ... : ... .. . ... ... ... : ... .. . ... : ... .. 0 ... : ... .. . ... ...
ROW BD : ... .. . ... ... ... : ... .. 7 ... ... ... : ... .. . ... : ... .. . ... : ... .. . ... ...
ROW BE : ... .. A P80 ... ... : ... .. 6 ... ... ... : ... .. . P7E : ... .. . ... : ... .. . ... ...
ROW BF : ... .. . P7F ... ... : ... .. 0 ... ... ... : ... .. . P7F : ... .. . ... : ... .. . ... ...
ROW C0 : ... .. . ... ... ... : A-1 00 B P80 V02 ... : C#5 00 . P82 : 4-# 00 F ... : D#0 00 . Z40 ...
ROW C1 : ... .. 9 P80 ... ... : ... .. . ... V00 ... : ... .. . P80 : ... .. . ... : ... .. . ... ...
ROW C2 : ... .. . P81 ... ... : ... .. . ... ... ... : ... .. . ... : ... .. 0 ... : ... .. . ... ...
ROW C3 : ... .. 8 ... ... ... : ... .. 7 ... ... ... : ... .. . ... : ... .. . ... : ... .. . ... ...
ROW C4 : ... .. . ... ... ... : ... .. 6 ... ... ... : ... .. . P7E : ... .. . ... : ... .. . ... ...
ROW C5 : ... .. . ... ... ... : ... .. 5 ... ... ... : ... .. . P7F : ... .. . ... : ... .. . ... ...
ROW C6 : ... .. 7 P80 ... ... : ... .. 4 ... ... ... : ... .. . P80 : ... .. . ... : ... .. . ... ...
ROW C7 : ... .. . P7F ... ... : ... .. . ... ... ... : ... .. . ... : ... .. . ... : ... .. . ... ...
ROW C8 : ... .. 6 ... ... ... : ... .. . ... ... ... : ... .. . ... : ... .. . ... : ... .. . ... ...
ROW C9 : ... .. . P80 ... ... : ... .. . ... ... ... : ... .. . ... : ... .. . ... : ... .. . ... ...
ROW CA : ... .. . P81 ... ... : ... .. 0 ... ... ... : ... .. . ... : ... .. . ... : ... .. . ... ...
ROW CB : ... .. . ... ... ... : ... .. B ... V02 ... : B-4 00 . P82 : C-# 00 F ... : C#0 00 . Z40 ...
ROW CC : ... .. . P80 ... ... : ... .. . ... V00 ... : ... .. . P80 : ... .. . ... : ... .. . ... ...
ROW CD : ... .. . P7F ... ... : ... .. . ... ... ... : ... .. . ... : ... .. 0 ... : ... .. . ... ...
ROW CE : ... .. . ... ... ... : ... .. 7 ... ... ... : ... .. . ... : ... .. . ... : ... .. . ... ...
ROW CF : ... .. . ... ... ... : ... .. 6 ... ... ... : ... .. . P7E : ... .. . ... : ... .. . ... ...
ROW D0 : ... .. . P80 ... ... : ... .. 0 ... ... ... : ... .. . P7F : ... .. . ... : ... .. . ... ...
ROW D1 : ... .. . P81 ... ... : A-1 00 B P80 V02 ... : ... .. . P80 : ... .. F ... : C#0 00 . Z40 ...
ROW D2 : ... .. . ... ... ... : ... .. . ... V00 ... : ... .. . ... : ... .. . ... : ... .. . ... ...
ROW D3 : ... .. . ... ... ... : ... .. . ... ... ... : ... .. . ... : ... .. 0 ... : ... .. . ... ...
ROW D4 : ... .. . P80 ... ... : ... .. 7 ... ... ... : ... .. . ... : ... .. . ... : ... .. . ... ...
ROW D5 : ... .. . P7F ... ... : ... .. 6 ... ... ... : ... .. . ... : ... .. . ... : ... .. . ... ...
ROW D6 : ... .. . ... ... ... : ... .. 0 ... ... ... : ... .. . ... : ... .. . ... : ... .. . ... ...
ROW D7 : ... .. . ... ... ... : A-1 00 B P80 V02 ... : A-4 00 . P82 : 4-# 00 F ... : D-0 00 . Z40 ...
ROW D8 : ... .. . P81 ... ... : ... .. . ... V00 ... : ... .. . P80 : ... .. . ... : ... .. . ... ...
ROW D9 : ... .. . ... ... ... : ... .. . ... ... ... : ... .. . ... : ... .. 0 ... : ... .. . ... ...
ROW DA : ... .. . ... ... ... : ... .. 7 ... ... ... : ... .. . ... : ... .. . ... : ... .. . ... ...
ROW DB : ... .. . ... ... ... : ... .. 6 ... ... ... : ... .. . P7E : ... .. . ... : ... .. . ... ...
ROW DC : ... .. . P80 ... ... : ... .. 5 ... ... ... : ... .. . P7F : ... .. . ... : ... .. . ... ...
ROW DD : ... .. . P7F ... ... : ... .. 4 ... ... ... : ... .. . P80 : ... .. . ... : ... .. . ... ...
ROW DE : ... .. . ... ... ... : ... .. . ... ... ... : ... .. . ... : ... .. . ... : ... .. . ... ...
ROW DF : ... .. . P80 ... ... : ... .. . ... ... ... : ... .. . ... : ... .. . ... : ... .. . ... ...
ROW E0 : ... .. . P81 ... ... : ... .. . ... ... ... : ... .. . ... : ... .. . ... : ... .. . ... ...
ROW E1 : ... .. . ... ... ... : ... .. . ... ... ... : ... .. . ... : ... .. . ... : ... .. . ... ...
ROW E2 : ... .. . ... ... ... : ... .. 0 ... ... ... : ... .. . ... : ... .. . ... : ... .. . ... ...
ROW E3 : ... .. . ... ... ... : A-1 00 B P80 V02 ... : ... .. . ... : C-# 00 F ... : C#0 00 . Z40 ...
ROW E4 : ... .. . P7F ... ... : ... .. . ... V00 ... : ... .. . ... : ... .. . ... : ... .. . ... ...
ROW E5 : ... .. . ... ... ... : ... .. . ... ... ... : ... .. . ... : ... .. 0 ... : ... .. . ... ...
ROW E6 : ... .. . ... ... ... : ... .. 7 ... ... ... : ... .. . ... : ... .. . ... : ... .. . ... ...
ROW E7 : ... .. . P80 ... ... : ... .. 6 ... ... ... : ... .. . ... : ... .. . ... : ... .. . ... ...
ROW E8 : ... .. . P81 ... ... : ... .. 0 ... ... ... : ... .. . ... : ... .. . ... : ... .. . ... ...
ROW E9 : ... .. . ... ... ... : A-1 00 B P80 V02 ... : ... .. . ... : ... .. F ... : C#0 00 . Z40 ...
ROW EA : ... .. . ... ... ... : ... .. . ... V00 ... : ... .. . ... : ... .. . ... : ... .. . ... ...
ROW EB : ... .. . P80 ... ... : ... .. . ... ... ... : ... .. . ... : ... .. 0 ... : ... .. . ... ...
ROW EC : ... .. . P7F ... ... : ... .. 7 ... ... ... : ... .. . ... : ... .. . ... : ... .. . ... ...
ROW ED : ... .. 0 ... ... ... : ... .. 0 ... ... ... : ... .. . ... : ... .. . ... : ... .. . ... ...
ROW EE : C#3 00 9 P80 ... ... : F#1 00 B ... V02 ... : ... .. . ... : 4-# 00 F ... : D#0 00 . Z40 ...
ROW EF : ... .. B ... ... ... : ... .. . ... V00 ... : ... .. . ... : ... .. . ... : ... .. . ... ...
ROW F0 : ... .. . ... ... ... : ... .. . ... ... ... : ... .. . ... : ... .. 0 ... : ... .. . ... ...
ROW F1 : ... .. . ... ... ... : ... .. 7 ... ... ... : ... .. . ... : ... .. . ... : ... .. . ... ...
ROW F2 : ... .. . ... ... ... : ... .. 6 ... ... ... : ... .. . ... : ... .. . ... : ... .. . ... ...
ROW F3 : ... .. . ... ... ... : ... .. 5 ... ... ... : ... .. . ... : ... .. . ... : ... .. . ... ...
ROW F4 : ... .. . ... ... ... : ... .. 4 ... ... ... : ... .. . ... : ... .. . ... : ... .. . ... ...
ROW F5 : ... .. . ... ... ... : ... .. . ... ... ... : ... .. . ... : ... .. . ... : ... .. . ... ...
ROW F6 : ... .. . ... ... ... : ... .. . ... ... ... : ... .. . ... : ... .. . ... : ... .. . ... ...
ROW F7 : ... .. . ... ... ... : ... .. . ... ... ... : ... .. . ... : ... .. . ... : ... .. . ... ...
ROW F8 : ... .. . ... ... ... : ... .. . ... ... ... : ... .. . ... : ... .. . ... : ... .. . ... ...
ROW F9 : ... .. . P81 ... ... : ... .. . ... ... ... : ... .. . ... : ... .. . ... : ... .. . ... ...
ROW FA : ... .. . ... ... ... : A-1 00 B ... V02 ... : ... .. . ... : C-# 00 F ... : C#0 00 . Z40 ...
ROW FB : ... .. . ... ... ... : ... .. . ... V00 ... : ... .. . ... : ... .. . ... : ... .. . ... ...
ROW FC : ... .. . P80 ... ... : ... .. . ... ... ... : ... .. . ... : ... .. 0 ... : ... .. . ... ...
ROW FD : ... .. . P7F ... ... : ... .. 7 ... ... ... : ... .. . ... : ... .. . ... : ... .. . ... ...
ROW FE : ... .. . ... ... ... : ... .. 6 ... ... ... : ... .. . ... : ... .. . ... : ... .. . ... ...
ROW FF : ... .. . ... ... ... : ... .. 5 ... ... ... : ... .. . ... : ... .. . ... : ... .. . ... ...

PATTERN 08
ROW 00 : ... .. . P80 ... ... : ... .. 4 ... ... ... : ... .. . ... : ... .. . ... : C#0 00 . Z40 ...
ROW 01 : ... .. . P81 ... ... : ... .. . ... ... ... : ... .. . ... : ... .. . ... : ... .. . ... ...
ROW 02 : ... .. . ... ... ... : ... .. . ... ... ... : ... .. . ... : ... .. . ... : ... .. . ... ...
ROW 03 : ... .. . ... ... ... : ... .. . ... ... ... : ... .. . ... : ... .. . ... : ... .. . ... ...
ROW 04 : ... .. A P80 ... ... : ... .. . ... ... ... : ... .. . ... : ... .. . ... : ... .. . ... ...
ROW 05 : ... .. 0 ... ... ... : ... .. . ... ... ... : --- .. . ... : ... .. . ... : ... .. . ... ...
ROW 06 : D-3 00 9 P80 ... ... : B-1 00 B ... V02 ... : B-4 00 . P82 : 4-# 00 F ... : D-0 00 . Z40 ...
ROW 07 : ... .. B ... ... ... : ... .. . ... V00 ... : ... .. . P80 : ... .. . ... : ... .. . ... ...
ROW 08 : ... .. . ... ... ... : ... .. . ... ... ... : ... .. . ... : ... .. 0 ... : ... .. . ... ...
ROW 09 : ... .. . ... ... ... : ... .. 7 ... ... ... : ... .. . ... : ... .. . ... : ... .. . ... ...
ROW 0A : ... .. . ... ... ... : ... .. 6 ... ... ... : ... .. . P7E : ... .. . ... : ... .. . ... ...
ROW 0B : ... .. . ... ... ... : ... .. 5 ... ... ... : --- .. . ... : ... .. . ... : ... .. . ... ...
ROW 0C : ... .. . ... ... ... : ... .. 4 ... ... ... : ... .. . ... : ... .. . ... : ... .. . ... ...
ROW 0D : ... .. . ... ... ... : ... .. . ... ... ... : ... .. . ... : ... .. . ... : ... .. . ... ...
ROW 0E : ... .. . ... ... ... : ... .. . ... ... ... : ... .. . ... : ... .. . ... : ... .. . ... ...
ROW 0F : ... .. . ... ... ... : ... .. . ... ... ... : ... .. . ... : ... .. . ... : ... .. . ... ...
ROW 10 : ... .. . P81 ... ... : ... .. 0 ... ... ... : ... .. . ... : ... .. . ... : ... .. . ... ...
ROW 11 : ... .. . ... ... ... : ... .. B ... V02 ... : B-4 00 . P82 : C-# 00 F ... : C#0 00 . Z40 ...
ROW 12 : ... .. . ... ... ... : ... .. . ... V00 ... : ... .. . P80 : ... .. . ... : ... .. . ... ...
ROW 13 : ... .. . P80 ... ... : ... .. . ... ... ... : ... .. . ... : ... .. 0 ... : ... .. . ... ...
ROW 14 : ... .. . P7F ... ... : ... .. 7 ... ... ... : ... .. . ... : ... .. . ... : ... .. . ... ...
ROW 15 : ... .. . ... ... ... : ... .. 6 ... ... ... : ... .. . P7E : ... .. . ... : ... .. . ... ...
ROW 16 : ... .. . ... ... ... : ... .. 0 ... ... ... : ... .. . P7F : ... .. . ... : ... .. . ... ...
ROW 17 : ... .. . P80 ... ... : B-1 00 B P80 V02 ... : C#5 00 . P82 : ... .. F ... : C#0 00 . Z40 ...
ROW 18 : ... .. . P81 ... ... : ... .. . ... V00 ... : ... .. . P80 : ... .. . ... : ... .. . ... ...
ROW 19 : ... .. . ... ... ... : ... .. . ... ... ... : ... .. . ... : ... .. 0 ... : ... .. . ... ...
ROW 1A : ... .. . ... ... ... : ... .. 7 ... ... ... : ... .. . ... : ... .. . ... : ... .. . ... ...
ROW 1B : ... .. A P80 ... ... : ... .. 6 ... ... ... : ... .. . P7E : ... .. . ... : ... .. . ... ...
ROW 1C : ... .. . P7F ... ... : ... .. 0 ... ... ... : ... .. . P7F : ... .. . ... : ... .. . ... ...
ROW 1D : ... .. . ... ... ... : B-1 00 B P80 V02 ... : D-5 00 . P82 : 4-# 00 F ... : D#0 00 . Z40 ...
ROW 1E : ... .. 9 P80 ... ... : ... .. . ... V00 ... : ... .. . P80 : ... .. . ... : ... .. . ... ...
ROW 1F : ... .. . P81 ... ... : ... .. . ... ... ... : ... .. . ... : ... .. 0 ... : ... .. . ... ...
ROW 20 : ... .. 8 ... ... ... : ... .. 7 ... ... ... : ... .. . ... : ... .. . ... : ... .. . ... ...
ROW 21 : ... .. . ... ... ... : ... .. 6 ... ... ... : ... .. . P7E : ... .. . ... : ... .. . ... ...
ROW 22 : ... .. . ... ... ... : ... .. 5 ... ... ... : ... .. . P7F : ... .. . ... : ... .. . ... ...
ROW 23 : ... .. 7 P80 ... ... : ... .. 4 ... ... ... : ... .. . P80 : ... .. . ... : ... .. . ... ...
ROW 24 : ... .. . P7F ... ... : ... .. . ... ... ... : ... .. . ... : ... .. . ... : ... .. . ... ...
ROW 25 : ... .. 6 ... ... ... : ... .. . ... ... ... : ... .. . ... : ... .. . ... : ... .. . ... ...
ROW 26 : ... .. . P80 ... ... : ... .. . ... ... ... : ... .. . ... : ... .. . ... : ... .. . ... ...
ROW 27 : ... .. . P81 ... ... : ... .. . ... ... ... : ... .. . ... : ... .. . ... : ... .. . ... ...
ROW 28 : ... .. . ... ... ... : ... .. 0 ... ... ... : ... .. . ... : ... .. . ... : ... .. . ... ...
ROW 29 : ... .. . ... ... ... : B-1 00 B P80 V02 ... : E-5 00 . P82 : C-# 00 F ... : C#0 00 . Z40 ...
ROW 2A : ... .. . P80 ... ... : ... .. . ... V00 ... : ... .. . P80 : ... .. . ... : ... .. . ... ...
ROW 2B : ... .. . P7F ... ... : ... .. . ... ... ... : ... .. . ... : ... .. 0 ... : ... .. . ... ...
ROW 2C : ... .. . ... ... ... : ... .. 7 ... ... ... : ... .. . ... : ... .. . ... : ... .. . ... ...
ROW 2D : ... .. . ... ... ... : ... .. 6 ... ... ... : D#5 00 . P82 : ... .. . ... : ... .. . ... ...
ROW 2E : ... .. . P80 ... ... : ... .. 0 ... ... ... : E-5 00 . P7F : ... .. . ... : ... .. . ... ...
ROW 2F : ... .. . P81 ... ... : B-1 00 B P80 V02 ... : ... .. . P80 : ... .. F ... : C#0 00 . Z40 ...
ROW 30 : ... .. . ... ... ... : ... .. . ... V00 ... : ... .. . ... : ... .. . ... : ... .. . ... ...
ROW 31 : ... .. . ... ... ... : ... .. . ... ... ... : ... .. . ... : ... .. 0 ... : ... .. . ... ...
ROW 32 : ... .. . P80 ... ... : ... .. 7 ... ... ... : ... .. . ... : ... .. . ... : ... .. . ... ...
ROW 33 : ... .. . P7F ... ... : ... .. 0 ... ... ... : ... .. . ... : ... .. . ... : ... .. . ... ...
ROW 34 : ... .. . ... ... ... : ... .. B ... V02 ... : F#5 00 . P82 : 4-# 00 F ... : D-0 00 . Z40 ...
ROW 35 : ... .. . P81 ... ... : ... .. . ... V00 ... : ... .. . P80 : ... .. . ... : ... .. . ... ...
ROW 36 : ... .. . ... ... ... : ... .. . ... ... ... : ... .. . ... : ... .. 0 ... : ... .. . ... ...
ROW 37 : ... .. . ... ... ... : ... .. 7 ... ... ... : ... .. . ... : ... .. . ... : ... .. . ... ...
ROW 38 : ... .. . ... ... ... : ... .. 6 ... ... ... : F-5 00 . P82 : ... .. . ... : ... .. . ... ...
ROW 39 : ... .. . P80 ... ... : ... .. 5 ... ... ... : F#5 00 . P7F : ... .. . ... : ... .. . ... ...
ROW 3A : ... .. . P7F ... ... : ... .. 4 ... ... ... : ... .. . P80 : ... .. . ... : ... .. . ... ...
ROW 3B : ... .. . ... ... ... : ... .. . ... ... ... : ... .. . ... : ... .. . ... : ... .. . ... ...
ROW 3C : ... .. . P80 ... ... : ... .. . ... ... ... : ... .. . ... : ... .. . ... : ... .. . ... ...
ROW 3D : ... .. . P81 ... ... : ... .. . ... ... ... : ... .. . ... : ... .. . ... : ... .. . ... ...
ROW 3E : ... .. . ... ... ... : ... .. . ... ... ... : ... .. . ... : ... .. . ... : ... .. . ... ...
ROW 3F : ... .. . ... ... ... : ... .. 0 ... ... ... : ... .. . ... : ... .. . ... : ... .. . ... ...
ROW 40 : ... .. . ... ... ... : B-1 00 B P80 V02 ... : ... .. . ... : C-# 00 F ... : C#0 00 . Z40 ...
ROW 41 : ... .. . P7F ... ... : ... .. . ... V00 ... : ... .. . ... : ... .. . ... : ... .. . ... ...
ROW 42 : ... .. . ... ... ... : ... .. . ... ... ... : ... .. . ... : ... .. 0 ... : ... .. . ... ...
ROW 43 : ... .. . ... ... ... : ... .. 7 ... ... ... : ... .. . ... : ... .. . ... : ... .. . ... ...
ROW 44 : ... .. . P80 ... ... : ... .. 6 ... ... ... : ... .. . ... : ... .. . ... : ... .. . ... ...
ROW 45 : ... .. . P81 ... ... : ... .. 0 ... ... ... : ... .. . ... : ... .. . ... : ... .. . ... ...
ROW 46 : ... .. . ... ... ... : B-1 00 B P80 V02 ... : ... .. . ... : ... .. F ... : C#0 00 . Z40 ...
ROW 47 : ... .. . ... ... ... : ... .. . ... V00 ... : ... .. . ... : ... .. . ... : ... .. . ... ...
ROW 48 : ... .. . P80 ... ... : ... .. . ... ... ... : ... .. . ... : ... .. 0 ... : ... .. . ... ...
ROW 49 : ... .. . P7F ... ... : ... .. 7 ... ... ... : ... .. . ... : ... .. . ... : ... .. . ... ...
ROW 4A : ... .. . ... ... ... : ... .. 6 ... ... ... : ... .. . ... : ... .. . ... : ... .. . ... ...
ROW 4B : ... .. 0 ... ... ... : ... .. 0 ... ... ... : ... .. . ... : ... .. . ... : ... .. . ... ...
ROW 4C : D-3 00 9 P80 ... ... : B-1 00 B P80 V02 ... : ... .. . ... : 4-# 00 F ... : D#0 00 . Z40 ...
ROW 4D : ... .. B ... ... ... : ... .. . ... V00 ... : ... .. . ... : ... .. . ... : ... .. . ... ...
ROW 4E : ... .. . ... ... ... : ... .. . ... ... ... : ... .. . ... : ... .. 0 ... : ... .. . ... ...
ROW 4F : ... .. . ... ... ... : ... .. 7 ... ... ... : ... .. . ... : ... .. . ... : ... .. . ... ...
ROW 50 : ... .. . ... ... ... : ... .. 6 ... ... ... : ... .. . ... : ... .. . ... : ... .. . ... ...
ROW 51 : ... .. . ... ... ... : ... .. 5 ... ... ... : ... .. . ... : ... .. . ... : ... .. . ... ...
ROW 52 : ... .. . ... ... ... : ... .. 4 ... ... ... : ... .. . ... : ... .. . ... : ... .. . ... ...
ROW 53 : ... .. . ... ... ... : ... .. . ... ... ... : ... .. . ... : ... .. . ... : ... .. . ... ...
ROW 54 : ... .. . ... ... ... : ... .. . ... ... ... : ... .. . ... : ... .. . ... : ... .. . ... ...
ROW 55 : ... .. . ... ... ... : ... .. . ... ... ... : ... .. . ... : ... .. . ... : ... .. . ... ...
ROW 56 : ... .. . P81 ... ... : ... .. 0 ... ... ... : ... .. . ... : ... .. . ... : ... .. . ... ...
ROW 57 : ... .. . ... ... ... : ... .. B ... V02 ... : ... .. . ... : C-# 00 F ... : C#0 00 . Z40 ...
ROW 58 : ... .. . ... ... ... : ... .. . ... V00 ... : ... .. . ... : ... .. . ... : ... .. . ... ...
ROW 59 : ... .. . P80 ... ... : ... .. . ... ... ... : ... .. . ... : ... .. 0 ... : ... .. . ... ...
ROW 5A : ... .. . P7F ... ... : ... .. 7 ... ... ... : ... .. . ... : ... .. . ... : ... .. . ... ...
ROW 5B : ... .. . ... ... ... : ... .. 6 ... ... ... : ... .. . ... : ... .. . ... : ... .. . ... ...
ROW 5C : ... .. . ... ... ... : ... .. 0 ... ... ... : ... .. . ... : ... .. . ... : ... .. . ... ...
ROW 5D : ... .. . P80 ... ... : B-1 00 B P80 V02 ... : D-5 00 . P82 : ... .. F ... : C#0 00 . Z40 ...
ROW 5E : ... .. . P81 ... ... : ... .. . ... V00 ... : ... .. . P80 : ... .. . ... : ... .. . ... ...
ROW 5F : ... .. . ... ... ... : ... .. . ... ... ... : ... .. . ... : ... .. 0 ... : ... .. . ... ...
ROW 60 : ... .. . ... ... ... : ... .. 7 ... ... ... : ... .. . ... : ... .. . ... : ... .. . ... ...
ROW 61 : ... .. A P80 ... ... : ... .. 6 ... ... ... : ... .. . P7E : ... .. . ... : ... .. . ... ...
ROW 62 : ... .. 0 ... ... ... : ... .. 0 ... ... ... : ... .. . P7F : ... .. . ... : ... .. . ... ...
ROW 63 : C#3 00 9 P80 ... ... : A-1 00 B P80 V02 ... : E-5 00 . P82 : 4-# 00 F ... : D-0 00 . Z40 ...
ROW 64 : ... .. B ... ... ... : ... .. . ... V00 ... : ... .. . P80 : ... .. . ... : ... .. . ... ...
ROW 65 : ... .. . ... ... ... : ... .. . ... ... ... : ... .. . ... : ... .. 0 ... : ... .. . ... ...
ROW 66 : ... .. . ... ... ... : ... .. 7 ... ... ... : ... .. . ... : ... .. . ... : ... .. . ... ...
ROW 67 : ... .. . ... ... ... : ... .. 6 ... ... ... : D#5 00 . P82 : ... .. . ... : ... .. . ... ...
ROW 68 : ... .. . ... ... ... : ... .. 5 ... ... ... : --- .. . ... : ... .. . ... : ... .. . ... ...
ROW 69 : ... .. . ... ... ... : ... .. 4 ... ... ... : ... .. . ... : ... .. . ... : ... .. . ... ...
ROW 6A : ... .. . ... ... ... : ... .. . ... ... ... : ... .. . ... : ... .. . ... : ... .. . ... ...
ROW 6B : ... .. . ... ... ... : ... .. . ... ... ... : ... .. . ... : ... .. . ... : ... .. . ... ...
ROW 6C : ... .. . ... ... ... : ... .. . ... ... ... : ... .. . ... : ... .. . ... : ... .. . ... ...
ROW 6D : ... .. . ... ... ... : ... .. . ... ... ... : ... .. . ... : ... .. . ... : ... .. . ... ...
ROW 6E : ... .. . P81 ... ... : ... .. 0 ... ... ... : ... .. . ... : ... .. . ... : ... .. . ... ...
ROW 6F : ... .. . ... ... ... : A-1 00 B P80 V02 ... : E-5 00 . ... : C-# 00 F ... : C#0 00 . Z40 ...
ROW 70 : ... .. . ... ... ... : ... .. . ... V00 ... : ... .. . P80 : ... .. . ... : ... .. . ... ...
ROW 71 : ... .. . P80 ... ... : ... .. . ... ... ... : ... .. . ... : ... .. 0 ... : ... .. . ... ...
ROW 72 : ... .. . P7F ... ... : ... .. 7 ... ... ... : ... .. . ... : ... .. . ... : ... .. . ... ...
ROW 73 : ... .. . ... ... ... : ... .. 6 ... ... ... : D#5 00 . P82 : ... .. . ... : ... .. . ... ...
ROW 74 : ... .. . ... ... ... : ... .. 0 ... ... ... : E-5 00 . P7F : ... .. . ... : ... .. . ... ...
ROW 75 : ... .. . P80 ... ... : A-1 00 B P80 V02 ... : D-5 00 . P82 : ... .. F ... : C#0 00 . Z40 ...
ROW 76 : ... .. . P81 ... ... : ... .. . ... V00 ... : ... .. . P80 : ... .. . ... : ... .. . ... ...
ROW 77 : ... .. . ... ... ... : ... .. . ... ... ... : ... .. . ... : ... .. 0 ... : ... .. . ... ...
ROW 78 : ... .. . ... ... ... : ... .. 7 ... ... ... : ... .. . ... : ... .. . ... : ... .. . ... ...
ROW 79 : ... .. A P7F ... ... : ... .. 0 ... ... ... : ... .. . P7F : ... .. . ... : ... .. . ... ...
ROW 7A : ... .. . ... ... ... : ... .. B ... V02 ... : C#5 00 . P82 : 4-# 00 F ... : D#0 00 . Z40 ...
ROW 7B : ... .. 9 P80 ... ... : ... .. . ... V00 ... : ... .. . P80 : ... .. . ... : ... .. . ... ...
ROW 7C : ... .. . P81 ... ... : ... .. . ... ... ... : ... .. . ... : ... .. 0 ... : ... .. . ... ...
ROW 7D : ... .. 8 ... ... ... : ... .. 7 ... ... ... : ... .. . ... : ... .. . ... : ... .. . ... ...
ROW 7E : ... .. . ... ... ... : ... .. 6 ... ... ... : ... .. . P7E : ... .. . ... : ... .. . ... ...
ROW 7F : ... .. . ... ... ... : ... .. 5 ... ... ... : ... .. . P7F : ... .. . ... : ... .. . ... ...
ROW 80 : ... .. 7 P80 ... ... : ... .. 4 ... ... ... : ... .. . P80 : ... .. . ... : ... .. . ... ...
ROW 81 : ... .. . P7F ... ... : ... .. . ... ... ... : ... .. . ... : ... .. . ... : ... .. . ... ...
ROW 82 : ... .. 6 ... ... ... : ... .. . ... ... ... : ... .. . ... : ... .. . ... : ... .. . ... ...
ROW 83 : ... .. . P80 ... ... : ... .. . ... ... ... : ... .. . ... : ... .. . ... : ... .. . ... ...
ROW 84 : ... .. . P81 ... ... : ... .. . ... ... ... : ... .. . ... : ... .. . ... : ... .. . ... ...
ROW 85 : ... .. . ... ... ... : ... .. 0 ... ... ... : ... .. . ... : ... .. . ... : ... .. . ... ...
ROW 86 : ... .. . ... ... ... : A-1 00 B P80 V02 ... : B-4 00 . P82 : C-# 00 F ... : C#0 00 . Z40 ...
ROW 87 : ... .. . P80 ... ... : ... .. . ... V00 ... : ... .. . P80 : ... .. . ... : ... .. . ... ...
ROW 88 : ... .. . P7F ... ... : ... .. . ... ... ... : ... .. . ... : ... .. 0 ... : ... .. . ... ...
ROW 89 : ... .. . ... ... ... : ... .. 7 ... ... ... : ... .. . ... : ... .. . ... : ... .. . ... ...
ROW 8A : ... .. . ... ... ... : ... .. 6 ... ... ... : ... .. . P7E : ... .. . ... : ... .. . ... ...
ROW 8B : ... .. . P80 ... ... : ... .. 0 ... ... ... : ... .. . P7F : ... .. . ... : ... .. . ... ...
ROW 8C : ... .. . P81 ... ... : A-1 00 B P80 V02 ... : ... .. . P80 : ... .. F ... : C#0 00 . Z40 ...
ROW 8D : ... .. . ... ... ... : ... .. . ... V00 ... : ... .. . ... : ... .. . ... : ... .. . ... ...
ROW 8E : ... .. . ... ... ... : ... .. . ... ... ... : ... .. . ... : ... .. 0 ... : ... .. . ... ...
ROW 8F : ... .. . P80 ... ... : ... .. 7 ... ... ... : ... .. . ... : ... .. . ... : ... .. . ... ...
ROW 90 : ... .. . P7F ... ... : ... .. 6 ... ... ... : ... .. . ... : ... .. . ... : ... .. . ... ...
ROW 91 : ... .. . ... ... ... : ... .. 0 ... ... ... : ... .. . ... : ... .. . ... : ... .. . ... ...
ROW 92 : ... .. . ... ... ... : A-1 00 B P80 V02 ... : A-4 00 . P82 : 4-# 00 F ... : D-0 00 . Z40 ...
ROW 93 : ... .. . P81 ... ... : ... .. . ... V00 ... : ... .. . P80 : ... .. . ... : ... .. . ... ...
ROW 94 : ... .. . ... ... ... : ... .. . ... ... ... : ... .. . ... : ... .. 0 ... : ... .. . ... ...
ROW 95 : ... .. . ... ... ... : ... .. 7 ... ... ... : ... .. . ... : ... .. . ... : ... .. . ... ...
ROW 96 : ... .. . ... ... ... : ... .. 6 ... ... ... : ... .. . P7E : ... .. . ... : ... .. . ... ...
ROW 97 : ... .. . P80 ... ... : ... .. 5 ... ... ... : ... .. . P7F : ... .. . ... : ... .. . ... ...
ROW 98 : ... .. . P7F ... ... : ... .. 4 ... ... ... : ... .. . P80 : ... .. . ... : ... .. . ... ...
ROW 99 : ... .. . ... ... ... : ... .. . ... ... ... : ... .. . ... : ... .. . ... : ... .. . ... ...
ROW 9A : ... .. . P80 ... ... : ... .. . ... ... ... : ... .. . ... : ... .. . ... : ... .. . ... ...
ROW 9B : ... .. . P81 ... ... : ... .. . ... ... ... : ... .. . ... : ... .. . ... : ... .. . ... ...
ROW 9C : ... .. . ... ... ... : ... .. 0 ... ... ... : ... .. . ... : ... .. . ... : ... .. . ... ...
ROW 9D : ... .. . ... ... ... : ... .. B ... V02 ... : ... .. . ... : C-# 00 F ... : C#0 00 . Z40 ...
ROW 9E : ... .. . P7F ... ... : ... .. . ... V00 ... : ... .. . ... : ... .. . ... : ... .. . ... ...
ROW 9F : ... .. . ... ... ... : ... .. . ... ... ... : ... .. . ... : ... .. 0 ... : ... .. . ... ...
ROW A0 : ... .. . ... ... ... : ... .. 7 ... ... ... : ... .. . ... : ... .. . ... : ... .. . ... ...
ROW A1 : ... .. . P80 ... ... : ... .. 6 ... ... ... : ... .. . ... : ... .. . ... : ... .. . ... ...
ROW A2 : ... .. . P81 ... ... : ... .. 0 ... ... ... : ... .. . ... : ... .. . ... : ... .. . ... ...
ROW A3 : ... .. . ... ... ... : A-1 00 B P80 V02 ... : ... .. . ... : ... .. F ... : C#0 00 . Z40 ...
ROW A4 : ... .. . ... ... ... : ... .. . ... V00 ... : ... .. . ... : ... .. . ... : ... .. . ... ...
ROW A5 : ... .. . P80 ... ... : ... .. . ... ... ... : ... .. . ... : ... .. 0 ... : ... .. . ... ...
ROW A6 : ... .. . P7F ... ... : ... .. 7 ... ... ... : ... .. . ... : ... .. . ... : ... .. . ... ...
ROW A7 : ... .. . ... ... ... : ... .. 6 ... ... ... : ... .. . ... : ... .. . ... : ... .. . ... ...
ROW A8 : ... .. . ... ... ... : ... .. 0 ... ... ... : ... .. . ... : ... .. . ... : ... .. . ... ...
ROW A9 : ... .. . P80 ... ... : F#1 00 B P80 V02 ... : ... .. . ... : 4-# 00 F ... : D#0 00 . Z40 ...
ROW AA : ... .. . P81 ... ... : ... .. . ... V00 ... : ... .. . ... : ... .. . ... : ... .. . ... ...
ROW AB : ... .. . ... ... ... : ... .. . ... ... ... : ... .. . ... : ... .. 0 ... : ... .. . ... ...
ROW AC : ... .. . ... ... ... : ... .. 7 ... ... ... : ... .. . ... : ... .. . ... : ... .. . ... ...
ROW AD : ... .. . P80 ... ... : ... .. 6 ... ... ... : ... .. . ... : ... .. . ... : ... .. . ... ...
ROW AE : ... .. . P7F ... ... : ... .. 5 ... ... ... : ... .. . ... : ... .. . ... : ... .. . ... ...
ROW AF : ... .. . ... ... ... : ... .. 4 ... ... ... : ... .. . ... : ... .. . ... : ... .. . ... ...
ROW B0 : ... .. . P80 ... ... : ... .. . ... ... ... : ... .. . ... : ... .. . ... : ... .. . ... ...
ROW B1 : ... .. . P81 ... ... : ... .. . ... ... ... : ... .. . ... : ... .. . ... : ... .. . ... ...
ROW B2 : ... .. . ... ... ... : ... .. . ... ... ... : ... .. . ... : ... .. . ... : ... .. . ... ...
ROW B3 : ... .. . ... ... ... : ... .. . ... ... ... : ... .. . ... : ... .. . ... : ... .. . ... ...
ROW B4 : ... .. . ... ... ... : ... .. . ... ... ... : ... .. . ... : ... .. . ... : ... .. . ... ...
ROW B5 : ... .. . P80 ... ... : A-1 00 B ... V02 ... : ... .. . ... : C-# 00 F ... : C#0 00 . Z40 ...
ROW B6 : ... .. . P7F ... ... : ... .. . ... V00 ... : ... .. . ... : ... .. . ... : ... .. . ... ...
ROW B7 : ... .. . ... ... ... : ... .. . ... ... ... : ... .. . ... : ... .. 0 ... : ... .. . ... ...
ROW B8 : ... .. . P80 ... ... : ... .. 7 ... ... ... : ... .. . ... : ... .. . ... : ... .. . ... ...
ROW B9 : ... .. . P81 ... ... : ... .. 6 ... ... ... : ... .. . ... : ... .. . ... : ... .. . ... ...
ROW BA : ... .. . ... ... ... : ... .. 5 ... ... ... : ... .. . ... : ... .. . ... : ... .. . ... ...
ROW BB : ... .. . ... ... ... : ... .. 4 ... ... ... : ... .. . ... : ... .. . ... : C#0 00 . Z40 ...
ROW BC : ... .. . P80 ... ... : ... .. . ... ... ... : ... .. . ... : ... .. . ... : ... .. . ... ...
ROW BD : ... .. . P7F ... ... : ... .. . ... ... ... : ... .. . ... : ... .. . ... : ... .. . ... ...
ROW BE : ... .. . ... ... ... : ... .. . ... ... ... : ... .. . ... : ... .. . ... : ... .. . ... ...
ROW BF : ... .. . P80 ... ... : ... .. . ... ... ... : --- .. . ... : ... .. . ... : ... .. . ... ...
ROW C0 : B-3 00 F ... V00 ... : B-3 00 9 ... V02 ... : B-3 00 . ... : ... .. . ... : C#0 00 . Z40 ...
ROW C1 : ... .. . P81 V02 ... : ... .. B ... ... ... : ... .. . ... : ... .. . ... : ... .. . ... ...
ROW C2 : ... .. . ... ... ... : ... .. . ... ... ... : ... .. . ... : ... .. . ... : ... .. . ... ...
ROW C3 : ... .. . P80 ... ... : ... .. . ... ... ... : ... .. . ... : ... .. . ... : ... .. . ... ...
ROW C4 : ... .. . P7F ... ... : ... .. . ... ... ... : ... .. . ... : ... .. . ... : ... .. . ... ...
ROW C5 : ... .. . ... ... ... : ... .. . ... ... ... : ... .. . ... : ... .. . ... : ... .. . ... ...
ROW C6 : ... .. . ... ... ... : ... .. . ... ... ... : ... .. . ... : ... .. . ... : ... .. . ... ...
ROW C7 : ... .. . P81 ... ... : ... .. . ... ... ... : ... .. . ... : ... .. . ... : ... .. . ... ...
ROW C8 : ... .. . ... ... ... : ... .. . ... ... ... : ... .. . ... : ... .. . ... : ... .. . ... ...
ROW C9 : ... .. E ... ... ... : ... .. . ... ... ... : ... .. . ... : ... .. . ... : ... .. . ... ...
ROW CA : ... .. D P80 ... ... : ... .. . ... ... ... : ... .. . ... : ... .. . ... : ... .. . ... ...
ROW CB : ... .. C P7F ... ... : ... .. . P81 ... ... : ... .. . ... : ... .. . ... : ... .. . ... ...
ROW CC : ... .. B ... ... ... : ... .. . ... ... ... : ... .. . ... : ... .. . ... : ... .. . ... ...
ROW CD : ... .. 9 P80 ... ... : ... .. . ... ... ... : ... .. . ... : ... .. . ... : ... .. . ... ...
ROW CE : ... .. 8 P81 ... ... : ... .. . P80 ... ... : ... .. . ... : ... .. . ... : ... .. . ... ...
ROW CF : ... .. 7 ... ... ... : ... .. . P7F ... ... : ... .. . ... : ... .. . ... : ... .. . ... ...
ROW D0 : ... .. . ... ... ... : ... .. . ... ... ... : ... .. . ... : ... .. . ... : ... .. . ... ...
ROW D1 : ... .. . P80 ... ... : ... .. . ... ... ... : ... .. . ... : ... .. . ... : ... .. . ... ...
ROW D2 : ... .. . P7F ... ... : ... .. . P80 ... ... : ... .. . ... : ... .. . ... : ... .. . ... ...
ROW D3 : ... .. . ... ... ... : ... .. . P81 ... ... : ... .. . ... : ... .. . ... : ... .. . ... ...
ROW D4 : ... .. . P80 ... ... : ... .. . ... ... ... : ... .. . ... : ... .. . ... : ... .. . ... ...
ROW D5 : ... .. . P81 ... ... : ... .. . ... ... ... : ... .. . ... : ... .. . ... : ... .. . ... ...
ROW D6 : ... .. . ... ... ... : ... .. A P80 ... ... : ... .. . ... : ... .. . ... : ... .. . ... ...
ROW D7 : ... .. . ... ... ... : ... .. . P7F ... ... : ... .. . ... : ... .. . ... : ... .. . ... ...
ROW D8 : ... .. . P80 ... ... : ... .. . ... ... ... : ... .. . ... : ... .. F ... : ... .. . ... ...
ROW D9 : ... .. . P7F ... ... : ... .. 9 P80 ... ... : ... .. . ... : ... .. . ... : ... .. . ... ...
ROW DA : ... .. . ... ... ... : ... .. . P81 ... ... : ... .. . ... : ... .. 0 ... : ... .. . ... ...
ROW DB : ... .. . P80 ... ... : ... .. 8 ... ... ... : ... .. . ... : ... .. . ... : ... .. . ... ...
ROW DC : ... .. . P81 ... ... : ... .. . ... ... ... : ... .. . ... : ... .. . ... : ... .. . ... ...
ROW DD : ... .. . ... ... ... : ... .. . ... ... ... : ... .. . ... : ... .. . ... : ... .. . ... ...
ROW DE : ... .. . ... ... ... : ... .. 7 P80 ... ... : ... .. . ... : ... .. . ... : ... .. . ... ...
ROW DF : ... .. . P7F ... ... : ... .. . P7F ... ... : ... .. . ... : ... .. . ... : ... .. . ... ...
ROW E0 : ... .. . ... ... ... : ... .. 6 ... ... ... : ... .. . ... : ... .. . ... : ... .. . ... ...
ROW E1 : ... .. . ... ... ... : ... .. . P80 ... ... : ... .. . ... : ... .. . ... : ... .. . ... ...
ROW E2 : ... .. . P81 ... ... : ... .. . P81 ... ... : ... .. . ... : ... .. . ... : ... .. . ... ...
ROW E3 : ... .. . ... ... ... : ... .. . ... ... ... : ... .. . ... : ... .. . ... : ... .. . ... ...
ROW E4 : ... .. . P80 ... ... : ... .. . P80 ... ... : ... .. . ... : ... .. . ... : ... .. . ... ...
ROW E5 : ... .. . P7F ... ... : ... .. . P7F ... ... : ... .. . ... : ... .. . ... : ... .. . ... ...
ROW E6 : ... .. . ... ... ... : ... .. . ... ... ... : ... .. . ... : ... .. . ... : ... .. . ... ...
ROW E7 : ... .. . ... ... ... : ... .. . ... ... ... : ... .. . ... : ... .. . ... : ... .. . ... ...
ROW E8 : ... .. . P80 ... ... : ... .. . P80 ... ... : ... .. . ... : ... .. . ... : ... .. . ... ...
ROW E9 : ... .. . P81 ... ... : ... .. . P81 ... ... : ... .. . ... : ... .. . ... : ... .. . ... ...
ROW EA : ... .. . ... ... ... : ... .. . ... ... ... : ... .. . ... : ... .. . ... : ... .. . ... ...
ROW EB : ... .. . P80 ... ... : ... .. . ... ... ... : ... .. . ... : ... .. . ... : ... .. . ... ...
ROW EC : ... .. . P7F ... ... : ... .. . P80 ... ... : ... .. . ... : ... .. . ... : ... .. . ... ...
ROW ED : ... .. . ... ... ... : ... .. . P7F ... ... : ... .. . ... : ... .. . ... : ... .. . ... ...
ROW EE : ... .. . ... ... ... : ... .. . ... ... ... : ... .. . ... : ... .. . ... : ... .. . ... ...
ROW EF : ... .. . P80 ... ... : ... .. . ... ... ... : ... .. . ... : ... .. . ... : C-0 00 . Z40 ...
ROW F0 : ... .. . P81 ... ... : ... .. . P81 ... ... : ... .. . ... : ... .. . ... : ... .. . ... ...
ROW F1 : ... .. . ... ... ... : ... .. . ... ... ... : ... .. . ... : ... .. . ... : ... .. . ... ...
ROW F2 : ... .. . P80 ... ... : ... .. . ... ... ... : ... .. . ... : ... .. . ... : ... .. . ... ...
ROW F3 : ... .. . P7F ... ... : ... .. . ... ... ... : ... .. . ... : ... .. . ... : ... .. . ... ...
ROW F4 : ... .. . ... ... ... : ... .. . P80 ... ... : ... .. . ... : ... .. . ... : ... .. . ... ...
ROW F5 : ... .. . ... ... ... : ... .. . P7F ... ... : ... .. . ... : ... .. . ... : C-0 00 . Z40 ...
ROW F6 : ... .. . P81 ... ... : ... .. . ... ... ... : ... .. . ... : ... .. . ... : ... .. . ... ...
ROW F7 : ... .. . ... ... ... : ... .. . P80 ... ... : ... .. . ... : ... .. . ... : ... .. . ... ...
ROW F8 : ... .. . ... ... ... : ... .. . P81 ... ... : ... .. . ... : ... .. . ... : ... .. . ... ...
ROW F9 : ... .. . P80 ... ... : ... .. . ... ... ... : ... .. . ... : ... .. . ... : ... .. . ... ...
ROW FA : ... .. . P7F ... ... : ... .. . ... ... ... : ... .. . ... : ... .. . ... : ... .. . ... ...
ROW FB : F#3 00 F P80 V00 ... : ... .. . ... ... ... : ... .. . ... : ... .. . ... : ... .. . ... ...
ROW FC : ... .. . P81 V02 ... : ... .. . P7F ... ... : ... .. . ... : ... .. . ... : ... .. . ... ...
ROW FD : ... .. . ... ... ... : ... .. . ... ... ... : ... .. . ... : ... .. . ... : ... .. . ... ...
ROW FE : ... .. . P80 ... ... : ... .. . ... ... ... : ... .. . ... : ... .. . ... : ... .. . ... ...
ROW FF : ... .. . P7F ... ... : ... .. . P80 ... ... : ... .. . ... : ... .. . ... : ... .. . ... ...

PATTERN 09
ROW 00 : ... .. . ... ... ... : ... .. . P81 ... ... : ... .. . ... : ... .. . ... : ... .. . ... ...
ROW 01 : ... .. . ... ... ... : ... .. . ... ... ... : ... .. . ... : ... .. . ... : ... .. . ... ...
ROW 02 : ... .. . P81 ... ... : ... .. . ... ... ... : ... .. . ... : ... .. . ... : ... .. . ... ...
ROW 03 : ... .. . ... ... ... : ... .. . P80 ... ... : ... .. . ... : ... .. . ... : ... .. . ... ...
ROW 04 : ... .. E ... ... ... : ... .. . P7F ... ... : ... .. . ... : ... .. . ... : ... .. . ... ...
ROW 05 : ... .. C P7F ... ... : ... .. . ... ... ... : ... .. . ... : ... .. . ... : ... .. . ... ...
ROW 06 : B-3 00 F P80 V00 ... : ... .. . P80 ... ... : ... .. . ... : ... .. F ... : ... .. . ... ...
ROW 07 : ... .. . P81 V02 ... : ... .. . P81 ... ... : ... .. . ... : ... .. . ... : ... .. . ... ...
ROW 08 : ... .. . ... ... ... : ... .. . ... ... ... : ... .. . ... : ... .. 0 ... : ... .. . ... ...
ROW 09 : ... .. . P80 ... ... : ... .. . ... ... ... : ... .. . ... : ... .. . ... : ... .. . ... ...
ROW 0A : ... .. . P7F ... ... : ... .. . P80 ... ... : ... .. . ... : ... .. . ... : ... .. . ... ...
ROW 0B : ... .. . ... ... ... : ... .. . P7F ... ... : ... .. . ... : ... .. . ... : ... .. . ... ...
ROW 0C : ... .. . ... ... ... : ... .. . ... ... ... : ... .. . ... : ... .. . ... : ... .. . ... ...
ROW 0D : ... .. . P81 ... ... : ... .. . P80 ... ... : ... .. . ... : ... .. . ... : ... .. . ... ...
ROW 0E : ... .. . ... ... ... : ... .. . P81 ... ... : ... .. . ... : ... .. . ... : ... .. . ... ...
ROW 0F : ... .. E ... ... ... : ... .. . ... ... ... : ... .. . ... : ... .. . ... : ... .. . ... ...
ROW 10 : ... .. D P80 ... ... : ... .. . ... ... ... : ... .. . ... : ... .. . ... : ... .. . ... ...
ROW 11 : ... .. C P7F ... ... : ... .. . ... ... ... : ... .. . ... : ... .. . ... : ... .. . ... ...
ROW 12 : D-4 00 F P80 V00 ... : ... .. . P80 ... ... : ... .. . ... : ... .. . ... : ... .. . ... ...
ROW 13 : ... .. . P81 V02 ... : ... .. . P7F ... ... : ... .. . ... : ... .. . ... : ... .. . ... ...
ROW 14 : ... .. . ... ... ... : ... .. . ... ... ... : ... .. . ... : ... .. . ... : ... .. . ... ...
ROW 15 : ... .. . P80 ... ... : ... .. . P80 ... ... : ... .. . ... : ... .. . ... : ... .. . ... ...
ROW 16 : ... .. . P7F ... ... : ... .. . P81 ... ... : ... .. . ... : ... .. . ... : ... .. . ... ...
ROW 17 : ... .. . ... ... ... : ... .. . ... ... ... : ... .. . ... : ... .. . ... : ... .. . ... ...
ROW 18 : ... .. . ... ... ... : ... .. . ... ... ... : ... .. . ... : ... .. . ... : ... .. . ... ...
ROW 19 : ... .. . P81 ... ... : ... .. . P80 ... ... : ... .. . ... : ... .. . ... : ... .. . ... ...
ROW 1A : ... .. . ... ... ... : ... .. . P7F ... ... : ... .. . ... : ... .. . ... : ... .. . ... ...
ROW 1B : ... .. E ... ... ... : ... .. . ... ... ... : ... .. . ... : ... .. . ... : ... .. . ... ...
ROW 1C : ... .. D P80 ... ... : ... .. . ... ... ... : ... .. . ... : ... .. . ... : ... .. . ... ...
ROW 1D : ... .. C P7F ... ... : ... .. . P80 ... ... : ... .. . ... : ... .. . ... : ... .. . ... ...
ROW 1E : C#4 00 F P80 V00 ... : A-3 00 9 ... ... ... : C#4 00 . ... : ... .. . ... : C#0 00 . Z40 ...
ROW 1F : ... .. . P81 V02 ... : ... .. B ... ... ... : ... .. . ... : ... .. . ... : ... .. . ... ...
ROW 20 : ... .. . ... ... ... : ... .. . ... ... ... : ... .. . ... : ... .. . ... : ... .. . ... ...
ROW 21 : ... .. . P80 ... ... : ... .. . ... ... ... : ... .. . ... : ... .. . ... : ... .. . ... ...
ROW 22 : ... .. . P7F ... ... : ... .. . ... ... ... : ... .. . ... : ... .. . ... : ... .. . ... ...
ROW 23 : ... .. 0 ... ... ... : ... .. . ... ... ... : ... .. . ... : ... .. . ... : ... .. . ... ...
ROW 24 : ... .. . ... ... ... : ... .. . ... ... ... : ... .. . ... : ... .. . ... : ... .. . ... ...
ROW 25 : ... .. . ... ... ... : ... .. . ... ... ... : ... .. . ... : ... .. . ... : ... .. . ... ...
ROW 26 : ... .. . ... ... ... : ... .. . ... ... ... : ... .. . ... : ... .. . ... : ... .. . ... ...
ROW 27 : ... .. . ... ... ... : ... .. . ... ... ... : ... .. . ... : ... .. . ... : ... .. . ... ...
ROW 28 : ... .. . ... ... ... : ... .. . P81 ... ... : ... .. . ... : ... .. . ... : ... .. . ... ...
ROW 29 : ... .. . ... ... ... : ... .. . ... ... ... : ... .. . ... : ... .. . ... : ... .. . ... ...
ROW 2A : ... .. . ... ... ... : ... .. . ... ... ... : ... .. . ... : ... .. . ... : ... .. . ... ...
ROW 2B : ... .. . ... ... ... : ... .. . P80 ... ... : ... .. . ... : ... .. . ... : ... .. . ... ...
ROW 2C : ... .. . ... ... ... : ... .. . P7F ... ... : ... .. . ... : ... .. . ... : ... .. . ... ...
ROW 2D : ... .. . ... ... ... : ... .. . ... ... ... : ... .. . ... : ... .. . ... : ... .. . ... ...
ROW 2E : ... .. . ... ... ... : ... .. . ... ... ... : ... .. . ... : ... .. . ... : ... .. . ... ...
ROW 2F : A-3 00 F P80 V00 ... : ... .. . P80 ... ... : ... .. . ... : ... .. . ... : ... .. . ... ...
ROW 30 : ... .. . P81 V02 ... : ... .. . P81 ... ... : ... .. . ... : ... .. . ... : ... .. . ... ...
ROW 31 : ... .. . ... ... ... : ... .. . ... ... ... : ... .. . ... : ... .. . ... : ... .. . ... ...
ROW 32 : ... .. . P80 ... ... : ... .. . ... ... ... : ... .. . ... : ... .. . ... : ... .. . ... ...
ROW 33 : ... .. . P7F ... ... : ... .. A P80 ... ... : ... .. . ... : ... .. . ... : ... .. . ... ...
ROW 34 : ... .. . ... ... ... : ... .. . P7F ... ... : ... .. . ... : ... .. . ... : ... .. . ... ...
ROW 35 : E-3 00 F P80 V00 ... : ... .. . ... ... ... : ... .. . ... : ... .. F ... : ... .. . ... ...
ROW 36 : ... .. . P81 V02 ... : ... .. 9 P80 ... ... : ... .. . ... : ... .. . ... : ... .. . ... ...
ROW 37 : ... .. . ... ... ... : ... .. . P81 ... ... : ... .. . ... : ... .. 0 ... : ... .. . ... ...
ROW 38 : ... .. . P80 ... ... : ... .. 8 ... ... ... : ... .. . ... : ... .. . ... : ... .. . ... ...
ROW 39 : ... .. . P7F ... ... : ... .. . ... ... ... : ... .. . ... : ... .. . ... : ... .. . ... ...
ROW 3A : ... .. . ... ... ... : ... .. . ... ... ... : ... .. . ... : ... .. . ... : ... .. . ... ...
ROW 3B : ... .. . ... ... ... : ... .. 7 P80 ... ... : ... .. . ... : ... .. . ... : ... .. . ... ...
ROW 3C : ... .. . P81 ... ... : ... .. . P7F ... ... : ... .. . ... : ... .. . ... : ... .. . ... ...
ROW 3D : ... .. . ... ... ... : ... .. 6 ... ... ... : ... .. . ... : ... .. . ... : ... .. . ... ...
ROW 3E : ... .. E ... ... ... : ... .. . P80 ... ... : ... .. . ... : ... .. . ... : ... .. . ... ...
ROW 3F : ... .. D P80 ... ... : ... .. . P81 ... ... : ... .. . ... : ... .. . ... : ... .. . ... ...
ROW 40 : ... .. C P7F ... ... : ... .. . ... ... ... : ... .. . ... : ... .. . ... : ... .. . ... ...
ROW 41 : ... .. B ... ... ... : E-3 00 9 P80 ... ... : ... .. . ... : ... .. . ... : ... .. . ... ...
ROW 42 : ... .. 9 P80 ... ... : ... .. B ... ... ... : ... .. . ... : ... .. . ... : ... .. . ... ...
ROW 43 : ... .. 8 P81 ... ... : ... .. . ... ... ... : ... .. . ... : ... .. . ... : ... .. . ... ...
ROW 44 : ... .. 7 ... ... ... : ... .. . ... ... ... : ... .. . ... : ... .. . ... : ... .. . ... ...
ROW 45 : ... .. . ... ... ... : ... .. . ... ... ... : ... .. . ... : ... .. . ... : ... .. . ... ...
ROW 46 : ... .. . P80 ... ... : ... .. . ... ... ... : ... .. . ... : ... .. . ... : ... .. . ... ...
ROW 47 : ... .. . P7F ... ... : ... .. . ... ... ... : ... .. . ... : ... .. . ... : ... .. . ... ...
ROW 48 : ... .. . ... ... ... : ... .. . ... ... ... : ... .. . ... : ... .. . ... : ... .. . ... ...
ROW 49 : ... .. . P80 ... ... : ... .. . ... ... ... : ... .. . ... : ... .. . ... : ... .. . ... ...
ROW 4A : ... .. . P81 ... ... : ... .. . ... ... ... : ... .. . ... : ... .. . ... : ... .. . ... ...
ROW 4B : ... .. . ... ... ... : ... .. . P81 ... ... : ... .. . ... : ... .. . ... : ... .. . ... ...
ROW 4C : ... .. . P80 ... ... : ... .. . ... ... ... : ... .. . ... : ... .. . ... : D#0 00 . Z40 ...
ROW 4D : ... .. . P7F ... ... : ... .. . ... ... ... : ... .. . ... : ... .. . ... : ... .. . ... ...
ROW 4E : ... .. . ... ... ... : ... .. . P80 ... ... : ... .. . ... : ... .. . ... : ... .. . ... ...
ROW 4F : ... .. . P80 ... ... : ... .. . P7F ... ... : ... .. . ... : ... .. . ... : ... .. . ... ...
ROW 50 : ... .. . P81 ... ... : ... .. . ... ... ... : ... .. . ... : ... .. . ... : ... .. . ... ...
ROW 51 : ... .. . ... ... ... : ... .. . ... ... ... : ... .. . ... : ... .. . ... : ... .. . ... ...
ROW 52 : ... .. . ... ... ... : ... .. . P80 ... ... : ... .. . ... : ... .. . ... : ... .. . ... ...
ROW 53 : ... .. . P7F ... ... : ... .. . P81 ... ... : ... .. . ... : ... .. . ... : ... .. . ... ...
ROW 54 : ... .. . ... ... ... : ... .. . ... ... ... : ... .. . ... : ... .. . ... : ... .. . ... ...
ROW 55 : ... .. . ... ... ... : ... .. . ... ... ... : ... .. . ... : ... .. . ... : ... .. . ... ...
ROW 56 : ... .. . P80 ... ... : ... .. A P80 ... ... : ... .. . ... : ... .. . ... : ... .. . ... ...
ROW 57 : ... .. . P81 ... ... : ... .. . P7F ... ... : ... .. . ... : ... .. . ... : ... .. . ... ...
ROW 58 : ... .. . ... ... ... : ... .. . ... ... ... : ... .. . ... : ... .. . ... : ... .. . ... ...
ROW 59 : ... .. . P80 ... ... : ... .. 9 P80 ... ... : ... .. . ... : ... .. . ... : ... .. . ... ...
ROW 5A : ... .. . P7F ... ... : ... .. . P81 ... ... : ... .. . ... : ... .. . ... : ... .. . ... ...
ROW 5B : ... .. . ... ... ... : ... .. 8 ... ... ... : ... .. . ... : ... .. . ... : ... .. . ... ...
ROW 5C : ... .. . ... ... ... : ... .. . ... ... ... : ... .. . ... : ... .. . ... : ... .. . ... ...
ROW 5D : ... .. . P80 ... ... : ... .. . ... ... ... : ... .. . ... : ... .. . ... : ... .. . ... ...
ROW 5E : ... .. . P81 ... ... : ... .. 7 P80 ... ... : ... .. . ... : ... .. . ... : ... .. . ... ...
ROW 5F : ... .. . ... ... ... : ... .. . P7F ... ... : ... .. . ... : ... .. . ... : ... .. . ... ...
ROW 60 : ... .. . P80 ... ... : ... .. 6 ... ... ... : ... .. . ... : ... .. . ... : ... .. . ... ...
ROW 61 : ... .. . P7F ... ... : ... .. . P80 ... ... : ... .. . ... : ... .. . ... : ... .. . ... ...
ROW 62 : ... .. . ... ... ... : ... .. . P81 ... ... : ... .. . ... : ... .. . ... : ... .. . ... ...
ROW 63 : ... .. . ... ... ... : ... .. . ... ... ... : ... .. . ... : ... .. . ... : ... .. . ... ...
ROW 64 : ... .. . P80 ... ... : C#3 00 9 P80 ... ... : ... .. . ... : ... .. F ... : ... .. . ... ...
ROW 65 : ... .. . P81 ... ... : ... .. B ... ... ... : ... .. . ... : ... .. . ... : ... .. . ... ...
ROW 66 : ... .. . ... ... ... : ... .. . ... ... ... : ... .. . ... : ... .. 0 ... : ... .. . ... ...
ROW 67 : ... .. . P80 ... ... : ... .. . ... ... ... : ... .. . ... : ... .. . ... : ... .. . ... ...
ROW 68 : ... .. . P7F ... ... : ... .. . ... ... ... : ... .. . ... : ... .. . ... : ... .. . ... ...
ROW 69 : ... .. . ... ... ... : ... .. . ... ... ... : ... .. . ... : ... .. . ... : ... .. . ... ...
ROW 6A : ... .. . ... ... ... : ... .. . ... ... ... : ... .. . ... : ... .. . ... : ... .. . ... ...
ROW 6B : ... .. . P81 ... ... : ... .. . ... ... ... : ... .. . ... : ... .. . ... : ... .. . ... ...
ROW 6C : ... .. . ... ... ... : ... .. . ... ... ... : ... .. . ... : ... .. . ... : ... .. . ... ...
ROW 6D : ... .. . ... ... ... : ... .. . ... ... ... : ... .. . ... : ... .. . ... : ... .. . ... ...
ROW 6E : ... .. . P7F ... ... : ... .. . P81 ... ... : ... .. . ... : ... .. . ... : ... .. . ... ...
ROW 6F : B-3 00 F P80 V00 ... : ... .. . ... ... ... : ... .. . ... : ... .. . ... : D#0 00 . Z40 ...
ROW 70 : ... .. . P81 V02 ... : ... .. . ... ... ... : ... .. . ... : ... .. . ... : ... .. . ... ...
ROW 71 : ... .. . ... ... ... : ... .. . P80 ... ... : ... .. . ... : ... .. . ... : ... .. . ... ...
ROW 72 : ... .. . P80 ... ... : ... .. . P7F ... ... : ... .. . ... : ... .. . ... : ... .. . ... ...
ROW 73 : ... .. . P7F ... ... : ... .. . ... ... ... : ... .. . ... : ... .. . ... : ... .. . ... ...
ROW 74 : ... .. . ... ... ... : ... .. . ... ... ... : ... .. . ... : ... .. . ... : ... .. . ... ...
ROW 75 : C#4 00 F P80 V00 ... : ... .. . P80 ... ... : ... .. . ... : ... .. . ... : D#0 00 . Z40 ...
ROW 76 : ... .. . P81 V02 ... : ... .. . P81 ... ... : ... .. . ... : ... .. . ... : ... .. . ... ...
ROW 77 : ... .. . ... ... ... : ... .. . ... ... ... : ... .. . ... : ... .. . ... : ... .. . ... ...
ROW 78 : ... .. . P80 ... ... : ... .. . ... ... ... : ... .. . ... : ... .. . ... : ... .. . ... ...
ROW 79 : ... .. . P7F ... ... : ... .. A P80 ... ... : ... .. . ... : ... .. . ... : ... .. . ... ...
ROW 7A : ... .. . ... ... ... : ... .. . P7F ... ... : ... .. . ... : ... .. . ... : ... .. . ... ...
ROW 7B : D-4 00 F P80 V00 ... : B-2 00 9 P80 ... ... : D-4 00 . ... : ... .. . ... : C#0 00 . Z40 ...
ROW 7C : ... .. . P81 V02 ... : ... .. B ... ... ... : ... .. . ... : ... .. . ... : ... .. . ... ...
ROW 7D : ... .. . ... ... ... : ... .. . ... ... ... : ... .. . ... : ... .. . ... : ... .. . ... ...
ROW 7E : ... .. . P80 ... ... : ... .. . ... ... ... : ... .. . ... : ... .. . ... : ... .. . ... ...
ROW 7F : ... .. . P7F ... ... : ... .. . ... ... ... : ... .. . ... : ... .. . ... : ... .. . ... ...
ROW 80 : ... .. . ... ... ... : ... .. . ... ... ... : ... .. . ... : ... .. . ... : ... .. . ... ...
ROW 81 : ... .. . ... ... ... : ... .. . ... ... ... : ... .. . ... : ... .. . ... : ... .. . ... ...
ROW 82 : ... .. . P81 ... ... : ... .. . ... ... ... : ... .. . ... : ... .. . ... : ... .. . ... ...
ROW 83 : ... .. . ... ... ... : ... .. . ... ... ... : ... .. . ... : ... .. . ... : ... .. . ... ...
ROW 84 : ... .. E ... ... ... : ... .. . ... ... ... : ... .. . ... : ... .. . ... : ... .. . ... ...
ROW 85 : ... .. D P80 ... ... : ... .. . ... ... ... : ... .. . ... : ... .. . ... : ... .. . ... ...
ROW 86 : ... .. C P7F ... ... : ... .. . P81 ... ... : ... .. . ... : ... .. . ... : ... .. . ... ...
ROW 87 : ... .. B ... ... ... : ... .. . ... ... ... : ... .. . ... : ... .. . ... : ... .. . ... ...
ROW 88 : ... .. 9 P80 ... ... : ... .. . ... ... ... : ... .. . ... : ... .. . ... : ... .. . ... ...
ROW 89 : ... .. 8 P81 ... ... : ... .. . P80 ... ... : ... .. . ... : ... .. . ... : ... .. . ... ...
ROW 8A : ... .. 7 ... ... ... : ... .. . P7F ... ... : ... .. . ... : ... .. . ... : ... .. . ... ...
ROW 8B : ... .. . ... ... ... : ... .. . ... ... ... : ... .. . ... : ... .. . ... : ... .. . ... ...
ROW 8C : ... .. . P80 ... ... : ... .. . ... ... ... : ... .. . ... : ... .. . ... : ... .. . ... ...
ROW 8D : ... .. . P7F ... ... : ... .. . P80 ... ... : ... .. . ... : ... .. . ... : ... .. . ... ...
ROW 8E : ... .. . ... ... ... : ... .. . P81 ... ... : ... .. . ... : ... .. . ... : ... .. . ... ...
ROW 8F : ... .. . P80 ... ... : ... .. . ... ... ... : ... .. . ... : ... .. . ... : ... .. . ... ...
ROW 90 : ... .. . P81 ... ... : ... .. . ... ... ... : ... .. . ... : ... .. . ... : ... .. . ... ...
ROW 91 : ... .. . ... ... ... : ... .. A P7F ... ... : ... .. . ... : ... .. . ... : ... .. . ... ...
ROW 92 : ... .. . P80 ... ... : ... .. . ... ... ... : ... .. . ... : ... .. F ... : ... .. . ... ...
ROW 93 : ... .. . P7F ... ... : ... .. 9 P80 ... ... : ... .. . ... : ... .. . ... : ... .. . ... ...
ROW 94 : ... .. . ... ... ... : ... .. . P81 ... ... : ... .. . ... : ... .. 0 ... : ... .. . ... ...
ROW 95 : ... .. . P80 ... ... : ... .. 8 ... ... ... : ... .. . ... : ... .. . ... : ... .. . ... ...
ROW 96 : ... .. . P81 ... ... : ... .. . ... ... ... : ... .. . ... : ... .. . ... : ... .. . ... ...
ROW 97 : ... .. . ... ... ... : ... .. . ... ... ... : ... .. . ... : ... .. . ... : ... .. . ... ...
ROW 98 : ... .. . ... ... ... : ... .. 7 P80 ... ... : ... .. . ... : ... .. . ... : ... .. . ... ...
ROW 99 : ... .. . P7F ... ... : ... .. . P7F ... ... : ... .. . ... : ... .. . ... : ... .. . ... ...
ROW 9A : ... .. . ... ... ... : ... .. 6 ... ... ... : ... .. . ... : ... .. . ... : ... .. . ... ...
ROW 9B : ... .. . ... ... ... : ... .. . P80 ... ... : ... .. . ... : ... .. . ... : ... .. . ... ...
ROW 9C : ... .. . P80 ... ... : ... .. . P81 ... ... : ... .. . ... : ... .. . ... : ... .. . ... ...
ROW 9D : ... .. . P81 ... ... : ... .. . ... ... ... : ... .. . ... : ... .. . ... : ... .. . ... ...
ROW 9E : ... .. . ... ... ... : ... .. . ... ... ... : ... .. . ... : ... .. . ... : ... .. . ... ...
ROW 9F : ... .. . P80 ... ... : ... .. . P80 ... ... : ... .. . ... : ... .. . ... : ... .. . ... ...
ROW A0 : ... .. . P7F ... ... : ... .. . P7F ... ... : ... .. . ... : ... .. . ... : ... .. . ... ...
ROW A1 : ... .. . ... ... ... : ... .. . ... ... ... : ... .. . ... : ... .. . ... : ... .. . ... ...
ROW A2 : ... .. . ... ... ... : ... .. . ... ... ... : ... .. . ... : ... .. . ... : ... .. . ... ...
ROW A3 : ... .. . P80 ... ... : ... .. . P80 ... ... : ... .. . ... : ... .. . ... : ... .. . ... ...
ROW A4 : ... .. . P81 ... ... : ... .. . P81 ... ... : ... .. . ... : ... .. . ... : ... .. . ... ...
ROW A5 : ... .. . ... ... ... : ... .. . ... ... ... : ... .. . ... : ... .. . ... : ... .. . ... ...
ROW A6 : ... .. . P80 ... ... : ... .. . ... ... ... : ... .. . ... : ... .. . ... : ... .. . ... ...
ROW A7 : ... .. . P7F ... ... : ... .. . P80 ... ... : ... .. . ... : ... .. . ... : ... .. . ... ...
ROW A8 : ... .. . ... ... ... : ... .. . P7F ... ... : ... .. . ... : ... .. . ... : ... .. . ... ...
ROW A9 : ... .. . ... ... ... : ... .. . ... ... ... : ... .. . ... : ... .. . ... : ... .. . ... ...
ROW AA : ... .. . P80 ... ... : ... .. . ... ... ... : ... .. . ... : ... .. . ... : C-0 00 . Z40 ...
ROW AB : ... .. . P81 ... ... : ... .. . P81 ... ... : ... .. . ... : ... .. . ... : ... .. . ... ...
ROW AC : ... .. . ... ... ... : ... .. . ... ... ... : ... .. . ... : ... .. . ... : ... .. . ... ...
ROW AD : ... .. . P80 ... ... : ... .. . ... ... ... : ... .. . ... : ... .. . ... : ... .. . ... ...
ROW AE : ... .. . P7F ... ... : ... .. . ... ... ... : ... .. . ... : ... .. . ... : ... .. . ... ...
ROW AF : ... .. . ... ... ... : ... .. . P80 ... ... : ... .. . ... : ... .. . ... : ... .. . ... ...
ROW B0 : ... .. . ... ... ... : ... .. . P7F ... ... : ... .. . ... : ... .. . ... : C-0 00 . Z40 ...
ROW B1 : ... .. . P81 ... ... : ... .. . ... ... ... : ... .. . ... : ... .. . ... : ... .. . ... ...
ROW B2 : ... .. . ... ... ... : ... .. . P80 ... ... : ... .. . ... : ... .. . ... : ... .. . ... ...
ROW B3 : ... .. . ... ... ... : ... .. . P81 ... ... : ... .. . ... : ... .. . ... : ... .. . ... ...
ROW B4 : ... .. . P7F ... ... : ... .. . ... ... ... : ... .. . ... : ... .. . ... : ... .. . ... ...
ROW B5 : B-3 00 F P80 V00 ... : ... .. . ... ... ... : ... .. . ... : ... .. . ... : ... .. . ... ...
ROW B6 : ... .. . P81 V02 ... : ... .. . P7F ... ... : ... .. . ... : ... .. . ... : ... .. . ... ...
ROW B7 : ... .. . ... ... ... : ... .. . ... ... ... : ... .. . ... : ... .. . ... : ... .. . ... ...
ROW B8 : ... .. . P80 ... ... : ... .. . ... ... ... : ... .. . ... : ... .. . ... : ... .. . ... ...
ROW B9 : ... .. . P7F ... ... : ... .. . P80 ... ... : ... .. . ... : ... .. . ... : ... .. . ... ...
ROW BA : ... .. . ... ... ... : ... .. . P81 ... ... : ... .. . ... : ... .. . ... : ... .. . ... ...
ROW BB : ... .. . ... ... ... : ... .. . ... ... ... : ... .. . ... : ... .. . ... : ... .. . ... ...
ROW BC : ... .. . P81 ... ... : ... .. . ... ... ... : ... .. . ... : ... .. . ... : ... .. . ... ...
ROW BD : ... .. . ... ... ... : ... .. . P80 ... ... : ... .. . ... : ... .. . ... : ... .. . ... ...
ROW BE : ... .. E ... ... ... : ... .. . P7F ... ... : ... .. . ... : ... .. . ... : ... .. . ... ...
ROW BF : ... .. D P80 ... ... : ... .. . ... ... ... : ... .. . ... : ... .. . ... : ... .. . ... ...
ROW C0 : ... .. C P7F ... ... : ... .. . ... ... ... : ... .. . ... : ... .. . ... : ... .. . ... ...
ROW C1 : D-4 00 F P80 V00 ... : ... .. . P80 ... ... : ... .. . ... : ... .. F ... : ... .. . ... ...
ROW C2 : ... .. . P81 V02 ... : ... .. . P81 ... ... : ... .. . ... : ... .. . ... : ... .. . ... ...
ROW C3 : ... .. . ... ... ... : ... .. . ... ... ... : ... .. . ... : ... .. 0 ... : ... .. . ... ...
ROW C4 : ... .. . P80 ... ... : ... .. . ... ... ... : ... .. . ... : ... .. . ... : ... .. . ... ...
ROW C5 : ... .. . P7F ... ... : ... .. . P80 ... ... : ... .. . ... : ... .. . ... : ... .. . ... ...
ROW C6 : ... .. . ... ... ... : ... .. . P7F ... ... : ... .. . ... : ... .. . ... : ... .. . ... ...
ROW C7 : ... .. . ... ... ... : ... .. . ... ... ... : ... .. . ... : ... .. . ... : ... .. . ... ...
ROW C8 : ... .. . P81 ... ... : ... .. . P80 ... ... : ... .. . ... : ... .. . ... : ... .. . ... ...
ROW C9 : ... .. . ... ... ... : ... .. . P81 ... ... : ... .. . ... : ... .. . ... : ... .. . ... ...
ROW CA : ... .. E ... ... ... : ... .. . ... ... ... : ... .. . ... : ... .. . ... : ... .. . ... ...
ROW CB : ... .. D P80 ... ... : ... .. . ... ... ... : ... .. . ... : ... .. . ... : ... .. . ... ...
ROW CC : ... .. C P7F ... ... : ... .. . ... ... ... : ... .. . ... : ... .. . ... : ... .. . ... ...
ROW CD : F#4 00 F P80 V00 ... : ... .. . P80 ... ... : ... .. . ... : ... .. . ... : ... .. . ... ...
ROW CE : ... .. . P81 V02 ... : ... .. . P7F ... ... : ... .. . ... : ... .. . ... : ... .. . ... ...
ROW CF : ... .. . ... ... ... : ... .. . ... ... ... : ... .. . ... : ... .. . ... : ... .. . ... ...
ROW D0 : ... .. . P80 ... ... : ... .. . P80 ... ... : ... .. . ... : ... .. . ... : ... .. . ... ...
ROW D1 : ... .. . P7F ... ... : ... .. . P81 ... ... : ... .. . ... : ... .. . ... : ... .. . ... ...
ROW D2 : ... .. . ... ... ... : ... .. . ... ... ... : ... .. . ... : ... .. . ... : ... .. . ... ...
ROW D3 : ... .. . ... ... ... : ... .. . ... ... ... : ... .. . ... : ... .. . ... : ... .. . ... ...
ROW D4 : ... .. . P81 ... ... : ... .. . P80 ... ... : ... .. . ... : ... .. . ... : ... .. . ... ...
ROW D5 : ... .. . ... ... ... : ... .. . P7F ... ... : ... .. . ... : ... .. . ... : ... .. . ... ...
ROW D6 : ... .. E ... ... ... : ... .. . ... ... ... : ... .. . ... : ... .. . ... : ... .. . ... ...
ROW D7 : ... .. C P7F ... ... : ... .. . P80 ... ... : ... .. . ... : ... .. . ... : ... .. . ... ...
ROW D8 : A-4 00 F P80 V00 ... : ... .. . P81 ... ... : E-4 00 . ... : ... .. . ... : D-0 00 . Z40 ...
ROW D9 : ... .. . P81 V02 ... : A-3 00 A P80 ... ... : ... .. . ... : ... .. . ... : ... .. . ... ...
ROW DA : ... .. . ... ... ... : ... .. B ... ... ... : ... .. . ... : ... .. . ... : ... .. . ... ...
ROW DB : ... .. . P80 ... ... : ... .. . ... ... ... : ... .. . ... : ... .. . ... : ... .. . ... ...
ROW DC : ... .. . P7F ... ... : ... .. . ... ... ... : ... .. . ... : ... .. . ... : ... .. . ... ...
ROW DD : ... .. 0 ... ... ... : ... .. . ... ... ... : ... .. . ... : ... .. . ... : ... .. . ... ...
ROW DE : ... .. . ... ... ... : ... .. . ... ... ... : ... .. . ... : ... .. . ... : ... .. . ... ...
ROW DF : ... .. . ... ... ... : ... .. . ... ... ... : ... .. . ... : ... .. . ... : ... .. . ... ...
ROW E0 : ... .. . ... ... ... : ... .. . ... ... ... : ... .. . ... : ... .. . ... : ... .. . ... ...
ROW E1 : ... .. . ... ... ... : ... .. . ... ... ... : ... .. . ... : ... .. . ... : ... .. . ... ...
ROW E2 : ... .. . ... ... ... : ... .. . ... ... ... : ... .. . ... : ... .. . ... : ... .. . ... ...
ROW E3 : ... .. . ... ... ... : ... .. . ... ... ... : ... .. . ... : ... .. . ... : ... .. . ... ...
ROW E4 : ... .. . ... ... ... : ... .. . P81 ... ... : ... .. . ... : ... .. . ... : ... .. . ... ...
ROW E5 : ... .. . ... ... ... : ... .. . ... ... ... : ... .. . ... : ... .. . ... : ... .. . ... ...
ROW E6 : ... .. . ... ... ... : ... .. . ... ... ... : ... .. . ... : ... .. . ... : ... .. . ... ...
ROW E7 : ... .. . ... ... ... : ... .. . P80 ... ... : ... .. . ... : ... .. . ... : ... .. . ... ...
ROW E8 : ... .. . ... ... ... : ... .. . P7F ... ... : ... .. . ... : ... .. . ... : ... .. . ... ...
ROW E9 : ... .. . ... ... ... : ... .. . ... ... ... : ... .. . ... : ... .. . ... : ... .. . ... ...
ROW EA : E-4 00 F P80 V00 ... : ... .. . ... ... ... : ... .. . ... : ... .. . ... : C#0 00 . Z40 ...
ROW EB : ... .. . P81 V02 ... : ... .. . P81 ... ... : ... .. . ... : ... .. . ... : ... .. . ... ...
ROW EC : ... .. . ... ... ... : ... .. . ... ... ... : ... .. . ... : ... .. . ... : ... .. . ... ...
ROW ED : ... .. . P80 ... ... : ... .. . ... ... ... : ... .. . ... : ... .. . ... : ... .. . ... ...
ROW EE : ... .. . P7F ... ... : ... .. . ... ... ... : ... .. . ... : ... .. . ... : ... .. . ... ...
ROW EF : ... .. 0 ... ... ... : ... .. A P80 ... ... : ... .. . ... : ... .. . ... : ... .. . ... ...
ROW F0 : C#4 00 F P80 V00 ... : ... .. . P7F ... ... : ... .. . ... : ... .. F ... : C#0 00 . Z40 ...
ROW F1 : ... .. . P81 V02 ... : ... .. 9 ... ... ... : ... .. . ... : ... .. . ... : ... .. . ... ...
ROW F2 : ... .. . ... ... ... : ... .. . P80 ... ... : ... .. . ... : ... .. 0 ... : ... .. . ... ...
ROW F3 : ... .. . P80 ... ... : ... .. . P81 ... ... : ... .. . ... : ... .. . ... : ... .. . ... ...
ROW F4 : ... .. . P7F ... ... : ... .. 8 ... ... ... : ... .. . ... : ... .. . ... : ... .. . ... ...
ROW F5 : ... .. . ... ... ... : ... .. . ... ... ... : ... .. . ... : ... .. . ... : ... .. . ... ...
ROW F6 : ... .. . ... ... ... : ... .. . ... ... ... : ... .. . ... : ... .. . ... : ... .. . ... ...
ROW F7 : ... .. . P81 ... ... : ... .. 7 P7F ... ... : ... .. . ... : ... .. . ... : ... .. . ... ...
ROW F8 : ... .. . ... ... ... : ... .. . ... ... ... : ... .. . ... : ... .. . ... : ... .. . ... ...
ROW F9 : ... .. E ... ... ... : ... .. 6 ... ... ... : ... .. . ... : ... .. . ... : ... .. . ... ...
ROW FA : ... .. C P7F ... ... : ... .. . P81 ... ... : ... .. . ... : ... .. . ... : ... .. . ... ...
ROW FB : ... .. B ... ... ... : E-3 00 9 P80 ... ... : ... .. . ... : ... .. . ... : ... .. . ... ...
ROW FC : ... .. 9 P80 ... ... : ... .. B ... ... ... : ... .. . ... : ... .. . ... : ... .. . ... ...
ROW FD : ... .. 8 P81 ... ... : ... .. . ... ... ... : ... .. . ... : ... .. . ... : ... .. . ... ...
ROW FE : ... .. 7 ... ... ... : ... .. . ... ... ... : ... .. . ... : ... .. . ... : ... .. . ... ...
ROW FF : ... .. . ... ... ... : ... .. . ... ... ... : ... .. . ... : ... .. . ... : ... .. . ... ...

PATTERN 0A
ROW 00 : ... .. . P80 ... ... : ... .. . ... ... ... : ... .. . ... : ... .. . ... : ... .. . ... ...
ROW 01 : ... .. . P7F ... ... : ... .. . ... ... ... : ... .. . ... : ... .. . ... : ... .. . ... ...
ROW 02 : ... .. . ... ... ... : ... .. . ... ... ... : ... .. . ... : ... .. . ... : ... .. . ... ...
ROW 03 : ... .. . P80 ... ... : ... .. . ... ... ... : ... .. . ... : ... .. . ... : ... .. . ... ...
ROW 04 : ... .. . P81 ... ... : ... .. . ... ... ... : ... .. . ... : ... .. . ... : ... .. . ... ...
ROW 05 : ... .. . ... ... ... : ... .. . ... ... ... : ... .. . ... : ... .. . ... : ... .. . ... ...
ROW 06 : ... .. . ... ... ... : ... .. . P81 ... ... : ... .. . ... : ... .. . ... : ... .. . ... ...
ROW 07 : ... .. . P80 ... ... : ... .. . ... ... ... : ... .. . ... : ... .. . ... : ... .. . ... ...
ROW 08 : ... .. . P7F ... ... : ... .. . ... ... ... : ... .. . ... : ... .. . ... : ... .. . ... ...
ROW 09 : ... .. . ... ... ... : ... .. . P80 ... ... : ... .. . ... : ... .. . ... : ... .. . ... ...
ROW 0A : ... .. . P80 ... ... : ... .. . P7F ... ... : ... .. . ... : ... .. . ... : ... .. . ... ...
ROW 0B : ... .. . P81 ... ... : ... .. . ... ... ... : ... .. . ... : ... .. . ... : ... .. . ... ...
ROW 0C : ... .. . ... ... ... : ... .. . ... ... ... : ... .. . ... : ... .. . ... : ... .. . ... ...
ROW 0D : ... .. . ... ... ... : ... .. . P80 ... ... : ... .. . ... : ... .. . ... : ... .. . ... ...
ROW 0E : ... .. . P7F ... ... : ... .. . P81 ... ... : ... .. . ... : ... .. . ... : ... .. . ... ...
ROW 0F : ... .. . ... ... ... : ... .. . ... ... ... : ... .. . ... : ... .. . ... : ... .. . ... ...
ROW 10 : ... .. . ... ... ... : ... .. . ... ... ... : ... .. . ... : ... .. . ... : ... .. . ... ...
ROW 11 : ... .. . P80 ... ... : ... .. A P80 ... ... : ... .. . ... : ... .. . ... : ... .. . ... ...
ROW 12 : ... .. . P81 ... ... : ... .. . P7F ... ... : ... .. . ... : ... .. . ... : ... .. . ... ...
ROW 13 : ... .. . ... ... ... : ... .. . ... ... ... : ... .. . ... : ... .. . ... : ... .. . ... ...
ROW 14 : ... .. . P80 ... ... : ... .. 9 P80 ... ... : ... .. . ... : ... .. . ... : ... .. . ... ...
ROW 15 : ... .. . P7F ... ... : ... .. . P81 ... ... : ... .. . ... : ... .. . ... : ... .. . ... ...
ROW 16 : ... .. . ... ... ... : ... .. 8 ... ... ... : ... .. . ... : ... .. . ... : ... .. . ... ...
ROW 17 : ... .. . ... ... ... : ... .. . ... ... ... : ... .. . ... : ... .. . ... : ... .. . ... ...
ROW 18 : ... .. . P80 ... ... : ... .. . ... ... ... : ... .. . ... : ... .. . ... : ... .. . ... ...
ROW 19 : ... .. . P81 ... ... : ... .. 7 P80 ... ... : ... .. . ... : ... .. . ... : ... .. . ... ...
ROW 1A : ... .. . ... ... ... : ... .. . P7F ... ... : ... .. . ... : ... .. . ... : ... .. . ... ...
ROW 1B : ... .. . P80 ... ... : ... .. 6 ... ... ... : ... .. . ... : ... .. . ... : ... .. . ... ...
ROW 1C : ... .. . P7F ... ... : ... .. . P80 ... ... : ... .. . ... : ... .. . ... : ... .. . ... ...
ROW 1D : ... .. . ... ... ... : ... .. . P81 ... ... : ... .. . ... : ... .. . ... : ... .. . ... ...
ROW 1E : ... .. . P80 ... ... : C#4 00 9 P80 ... ... : ... .. . ... : ... .. F ... : ... .. . ... ...
ROW 1F : ... .. . P81 ... ... : ... .. B ... ... ... : ... .. . ... : ... .. . ... : ... .. . ... ...
ROW 20 : ... .. . ... ... ... : ... .. . ... ... ... : ... .. . ... : ... .. 0 ... : ... .. . ... ...
ROW 21 : ... .. . P80 ... ... : ... .. . ... ... ... : ... .. . ... : ... .. . ... : ... .. . ... ...
ROW 22 : ... .. . P7F ... ... : ... .. . ... ... ... : ... .. . ... : ... .. . ... : ... .. . ... ...
ROW 23 : ... .. . ... ... ... : ... .. . ... ... ... : ... .. . ... : ... .. . ... : ... .. . ... ...
ROW 24 : ... .. . ... ... ... : ... .. . ... ... ... : ... .. . ... : ... .. . ... : ... .. . ... ...
ROW 25 : ... .. . P81 ... ... : ... .. . ... ... ... : ... .. . ... : ... .. . ... : ... .. . ... ...
ROW 26 : ... .. . ... ... ... : ... .. . ... ... ... : ... .. . ... : ... .. . ... : ... .. . ... ...
ROW 27 : ... .. . ... ... ... : ... .. . ... ... ... : ... .. . ... : ... .. . ... : ... .. . ... ...
ROW 28 : ... .. . P80 ... ... : ... .. . ... ... ... : ... .. . ... : ... .. . ... : ... .. . ... ...
ROW 29 : ... .. . P7F ... ... : ... .. . P81 ... ... : ... .. . ... : ... .. . ... : ... .. . ... ...
ROW 2A : D-4 00 F P80 V00 ... : ... .. . ... ... ... : ... .. . ... : ... .. . ... : ... .. . ... ...
ROW 2B : ... .. . P81 V02 ... : ... .. . ... ... ... : ... .. . ... : ... .. . ... : ... .. . ... ...
ROW 2C : ... .. . ... ... ... : ... .. . P80 ... ... : ... .. . ... : ... .. . ... : ... .. . ... ...
ROW 2D : ... .. . P80 ... ... : ... .. . P7F ... ... : ... .. . ... : ... .. . ... : ... .. . ... ...
ROW 2E : ... .. . P7F ... ... : ... .. . ... ... ... : ... .. . ... : ... .. . ... : ... .. . ... ...
ROW 2F : ... .. . ... ... ... : ... .. . ... ... ... : ... .. . ... : ... .. . ... : ... .. . ... ...
ROW 30 : C#4 00 F P80 V00 ... : ... .. . P80 ... ... : ... .. . ... : ... .. . ... : ... .. . ... ...
ROW 31 : ... .. . P81 V02 ... : ... .. . P81 ... ... : ... .. . ... : ... .. . ... : ... .. . ... ...
ROW 32 : ... .. . ... ... ... : ... .. . ... ... ... : ... .. . ... : ... .. . ... : ... .. . ... ...
ROW 33 : ... .. . P80 ... ... : ... .. . ... ... ... : ... .. . ... : ... .. . ... : ... .. . ... ...
ROW 34 : ... .. . P7F ... ... : ... .. A P80 ... ... : ... .. . ... : ... .. . ... : ... .. . ... ...
ROW 35 : ... .. . ... ... ... : ... .. . P7F ... ... : ... .. . ... : ... .. . ... : ... .. . ... ...
ROW 36 : F#2 00 1 P80 V00 ... : B-3 00 9 P80 ... ... : B-3 00 . ... : ... .. . ... : D-0 00 . Z40 ...
ROW 37 : ... .. 9 ... V01 ... : ... .. B ... ... ... : ... .. . ... : ... .. . ... : ... .. . ... ...
ROW 38 : ... .. B ... ... ... : ... .. . ... ... ... : ... .. . ... : ... .. . ... : ... .. . ... ...
ROW 39 : ... .. . ... ... ... : ... .. . ... ... ... : ... .. . ... : ... .. . ... : ... .. . ... ...
ROW 3A : ... .. . ... ... ... : ... .. . ... ... ... : ... .. . ... : ... .. . ... : ... .. . ... ...
ROW 3B : ... .. . ... ... ... : ... .. . ... ... ... : ... .. . ... : ... .. . ... : ... .. . ... ...
ROW 3C : ... .. . ... ... ... : ... .. . ... ... ... : ... .. . ... : ... .. . ... : ... .. . ... ...
ROW 3D : ... .. . P7C ... ... : ... .. . ... ... ... : ... .. . ... : ... .. . ... : ... .. . ... ...
ROW 3E : ... .. . ... ... ... : ... .. . ... ... ... : ... .. . ... : ... .. . ... : ... .. . ... ...
ROW 3F : ... .. . P7D ... ... : ... .. . ... ... ... : ... .. . ... : ... .. . ... : ... .. . ... ...
ROW 40 : ... .. . P83 ... ... : ... .. . P81 ... ... : ... .. . ... : ... .. . ... : ... .. . ... ...
ROW 41 : ... .. . P84 ... ... : A-3 00 9 P80 ... ... : ... .. . ... : ... .. . ... : ... .. . ... ...
ROW 42 : ... .. . P83 ... ... : ... .. B ... ... ... : ... .. . ... : ... .. . ... : ... .. . ... ...
ROW 43 : ... .. . P80 ... ... : ... .. . ... ... ... : ... .. . ... : ... .. . ... : ... .. . ... ...
ROW 44 : ... .. . P7D ... ... : ... .. . ... ... ... : ... .. . ... : ... .. . ... : ... .. . ... ...
ROW 45 : ... .. . P7C ... ... : ... .. . ... ... ... : ... .. . ... : ... .. . ... : ... .. . ... ...
ROW 46 : ... .. . ... ... ... : ... .. . ... ... ... : ... .. . ... : ... .. . ... : ... .. . ... ...
ROW 47 : ... .. . P7D ... ... : ... .. . ... ... ... : ... .. . ... : ... .. . ... : ... .. . ... ...
ROW 48 : ... .. . P83 ... ... : ... .. . ... ... ... : ... .. . ... : ... .. . ... : ... .. . ... ...
ROW 49 : ... .. . P84 ... ... : ... .. . ... ... ... : ... .. . ... : ... .. . ... : ... .. . ... ...
ROW 4A : ... .. . ... ... ... : ... .. . ... ... ... : ... .. . ... : ... .. . ... : ... .. . ... ...
ROW 4B : ... .. . P83 ... ... : ... .. . ... ... ... : ... .. . ... : ... .. . ... : ... .. . ... ...
ROW 4C : ... .. . P80 ... ... : ... .. . P81 ... ... : ... .. . ... : ... .. . ... : ... .. . ... ...
ROW 4D : ... .. . P7D ... ... : F#3 00 9 P80 ... ... : ... .. . ... : ... .. F ... : ... .. . ... ...
ROW 4E : ... .. . P7C ... ... : ... .. B ... ... ... : ... .. . ... : ... .. . ... : ... .. . ... ...
ROW 4F : ... .. . P7D ... ... : ... .. . ... ... ... : ... .. . ... : ... .. 0 ... : ... .. . ... ...
ROW 50 : ... .. . P80 ... ... : ... .. . ... ... ... : ... .. . ... : ... .. . ... : ... .. . ... ...
ROW 51 : ... .. . P83 ... ... : ... .. . ... ... ... : ... .. . ... : ... .. . ... : ... .. . ... ...
ROW 52 : ... .. . P84 ... ... : ... .. . ... ... ... : ... .. . ... : ... .. . ... : ... .. . ... ...
ROW 53 : ... .. . ... ... ... : ... .. . ... ... ... : ... .. . ... : ... .. . ... : ... .. . ... ...
ROW 54 : ... .. . P80 ... ... : ... .. . ... ... ... : ... .. . ... : ... .. . ... : ... .. . ... ...
ROW 55 : ... .. . P7D ... ... : ... .. . ... ... ... : ... .. . ... : ... .. . ... : ... .. . ... ...
ROW 56 : ... .. . P7C ... ... : ... .. . ... ... ... : ... .. . ... : ... .. . ... : ... .. . ... ...
ROW 57 : ... .. . ... ... ... : ... .. . ... ... ... : ... .. . ... : ... .. . ... : ... .. . ... ...
ROW 58 : ... .. . P7D ... ... : ... .. . P81 ... ... : ... .. . ... : ... .. . ... : ... .. . ... ...
ROW 59 : ... .. . P80 ... ... : A-3 00 9 P80 ... ... : ... .. . ... : ... .. . ... : ... .. . ... ...
ROW 5A : ... .. . P84 ... ... : ... .. B ... ... ... : ... .. . ... : ... .. . ... : ... .. . ... ...
ROW 5B : ... .. . ... ... ... : ... .. . ... ... ... : ... .. . ... : ... .. . ... : ... .. . ... ...
ROW 5C : ... .. . P83 ... ... : ... .. . ... ... ... : ... .. . ... : ... .. . ... : ... .. . ... ...
ROW 5D : ... .. . P80 ... ... : ... .. . ... ... ... : ... .. . ... : ... .. . ... : ... .. . ... ...
ROW 5E : ... .. . P7D ... ... : ... .. . ... ... ... : ... .. . ... : ... .. . ... : ... .. . ... ...
ROW 5F : ... .. . P7C ... ... : ... .. . ... ... ... : ... .. . ... : ... .. . ... : ... .. . ... ...
ROW 60 : ... .. . P7D ... ... : ... .. . ... ... ... : ... .. . ... : ... .. . ... : ... .. . ... ...
ROW 61 : ... .. . P80 ... ... : ... .. . ... ... ... : ... .. . ... : ... .. . ... : ... .. . ... ...
ROW 62 : ... .. . P83 ... ... : ... .. . ... ... ... : ... .. . ... : ... .. . ... : ... .. . ... ...
ROW 63 : ... .. . P84 ... ... : ... .. . P81 ... ... : ... .. . ... : ... .. . ... : ... .. . ... ...
ROW 64 : ... .. . P83 ... ... : B-3 00 9 P80 ... ... : ... .. . ... : ... .. . ... : ... .. . ... ...
ROW 65 : ... .. . P7D ... ... : ... .. B ... ... ... : ... .. . ... : ... .. . ... : ... .. . ... ...
ROW 66 : ... .. . P7C ... ... : ... .. . ... ... ... : ... .. . ... : ... .. . ... : ... .. . ... ...
ROW 67 : ... .. . ... ... ... : ... .. . ... ... ... : ... .. . ... : ... .. . ... : ... .. . ... ...
ROW 68 : ... .. . P7D ... ... : ... .. . ... ... ... : ... .. . ... : ... .. . ... : ... .. . ... ...
ROW 69 : ... .. . P80 ... ... : ... .. . ... ... ... : ... .. . ... : ... .. . ... : ... .. . ... ...
ROW 6A : ... .. . P83 ... ... : ... .. . ... ... ... : ... .. . ... : ... .. . ... : ... .. . ... ...
ROW 6B : ... .. . P84 ... ... : ... .. . ... ... ... : ... .. . ... : ... .. . ... : ... .. . ... ...
ROW 6C : ... .. . P83 ... ... : ... .. . ... ... ... : ... .. . ... : ... .. . ... : ... .. . ... ...
ROW 6D : ... .. . P80 ... ... : ... .. . ... ... ... : ... .. . ... : ... .. . ... : ... .. . ... ...
ROW 6E : ... .. . P7D ... ... : ... .. . ... ... ... : ... .. . ... : ... .. . ... : ... .. . ... ...
ROW 6F : ... .. . P7C ... ... : ... .. . P81 ... ... : ... .. . ... : ... .. . ... : ... .. . ... ...
ROW 70 : ... .. . ... ... ... : A-3 00 9 P80 ... ... : ... .. . ... : ... .. . ... : ... .. . ... ...
ROW 71 : ... .. . P80 ... ... : ... .. B ... ... ... : ... .. . ... : ... .. . ... : ... .. . ... ...
ROW 72 : ... .. . P83 ... ... : ... .. . ... ... ... : ... .. . ... : ... .. . ... : ... .. . ... ...
ROW 73 : ... .. . P84 ... ... : ... .. . ... ... ... : ... .. . ... : ... .. . ... : ... .. . ... ...
ROW 74 : ... .. . ... ... ... : ... .. . ... ... ... : ... .. . ... : ... .. . ... : ... .. . ... ...
ROW 75 : ... .. . P83 ... ... : ... .. . ... ... ... : ... .. . ... : ... .. . ... : ... .. . ... ...
ROW 76 : ... .. . P80 ... ... : ... .. . ... ... ... : ... .. . ... : ... .. . ... : ... .. . ... ...
ROW 77 : ... .. . P7C ... ... : ... .. . ... ... ... : ... .. . ... : ... .. . ... : ... .. . ... ...
ROW 78 : ... .. . ... ... ... : ... .. . ... ... ... : ... .. . ... : ... .. . ... : ... .. . ... ...
ROW 79 : ... .. . P7D ... ... : ... .. . ... ... ... : ... .. . ... : ... .. . ... : ... .. . ... ...
ROW 7A : ... .. . P80 ... ... : ... .. . ... ... ... : ... .. . ... : ... .. . ... : ... .. . ... ...
ROW 7B : ... .. . P83 ... ... : ... .. . P81 ... ... : ... .. . ... : ... .. . ... : ... .. . ... ...
ROW 7C : ... .. . P84 ... ... : D-4 00 9 P80 ... ... : ... .. . ... : ... .. F ... : ... .. . ... ...
ROW 7D : ... .. . P83 ... ... : ... .. B ... ... ... : ... .. . ... : ... .. . ... : ... .. . ... ...
ROW 7E : ... .. . P80 ... ... : ... .. . ... ... ... : ... .. . ... : ... .. 0 ... : ... .. . ... ...
ROW 7F : ... .. . P7D ... ... : ... .. . ... ... ... : ... .. . ... : ... .. . ... : ... .. . ... ...
ROW 80 : ... .. . P7C ... ... : ... .. . ... ... ... : ... .. . ... : ... .. . ... : ... .. . ... ...
ROW 81 : ... .. . ... ... ... : ... .. . ... ... ... : ... .. . ... : ... .. . ... : ... .. . ... ...
ROW 82 : ... .. . P7D ... ... : ... .. . ... ... ... : ... .. . ... : ... .. . ... : ... .. . ... ...
ROW 83 : ... .. . P83 ... ... : ... .. . ... ... ... : ... .. . ... : ... .. . ... : ... .. . ... ...
ROW 84 : ... .. . P84 ... ... : ... .. . ... ... ... : ... .. . ... : ... .. . ... : ... .. . ... ...
ROW 85 : ... .. . ... ... ... : ... .. . ... ... ... : ... .. . ... : ... .. . ... : ... .. . ... ...
ROW 86 : ... .. . P80 ... ... : ... .. . P81 ... ... : ... .. . ... : ... .. . ... : ... .. . ... ...
ROW 87 : ... .. . P7D ... ... : E-4 00 9 P80 ... ... : ... .. . ... : ... .. . ... : ... .. . ... ...
ROW 88 : ... .. . P7C ... ... : ... .. B ... ... ... : ... .. . ... : ... .. . ... : ... .. . ... ...
ROW 89 : ... .. . P7D ... ... : ... .. . ... ... ... : ... .. . ... : ... .. . ... : ... .. . ... ...
ROW 8A : ... .. . P80 ... ... : ... .. . ... ... ... : ... .. . ... : ... .. . ... : ... .. . ... ...
ROW 8B : ... .. . P83 ... ... : ... .. . ... ... ... : ... .. . ... : ... .. . ... : ... .. . ... ...
ROW 8C : ... .. . P84 ... ... : ... .. . ... ... ... : ... .. . ... : ... .. . ... : ... .. . ... ...
ROW 8D : ... .. . ... ... ... : ... .. . ... ... ... : ... .. . ... : ... .. . ... : ... .. . ... ...
ROW 8E : ... .. . P80 ... ... : ... .. . ... ... ... : ... .. . ... : ... .. . ... : ... .. . ... ...
ROW 8F : ... .. . P7D ... ... : ... .. . ... ... ... : ... .. . ... : ... .. . ... : ... .. . ... ...
ROW 90 : ... .. . P7C ... ... : ... .. . ... ... ... : ... .. . ... : ... .. . ... : ... .. . ... ...
ROW 91 : ... .. . ... ... ... : ... .. . ... ... ... : ... .. . ... : ... .. . ... : ... .. . ... ...
ROW 92 : ... .. . P7D ... ... : ... .. 0 ... ... ... : ... .. . ... : ... .. . ... : ... .. . ... ...
ROW 93 : A-2 00 1 P80 V00 ... : C#4 00 9 P80 ... ... : C#4 00 . ... : ... .. . ... : D-0 00 . Z40 ...
ROW 94 : ... .. 9 ... V01 ... : ... .. B ... ... ... : ... .. . ... : ... .. . ... : ... .. . ... ...
ROW 95 : ... .. B ... ... ... : ... .. . ... ... ... : ... .. . ... : ... .. . ... : ... .. . ... ...
ROW 96 : ... .. . ... ... ... : ... .. . ... ... ... : ... .. . ... : ... .. . ... : ... .. . ... ...
ROW 97 : ... .. . ... ... ... : ... .. . ... ... ... : ... .. . ... : ... .. . ... : ... .. . ... ...
ROW 98 : ... .. . ... ... ... : ... .. . ... ... ... : ... .. . ... : ... .. . ... : ... .. . ... ...
ROW 99 : ... .. . ... ... ... : ... .. . ... ... ... : ... .. . ... : ... .. . ... : ... .. . ... ...
ROW 9A : ... .. . P7C ... ... : ... .. . ... ... ... : ... .. . ... : ... .. . ... : ... .. . ... ...
ROW 9B : ... .. . ... ... ... : ... .. . ... ... ... : ... .. . ... : ... .. . ... : ... .. . ... ...
ROW 9C : ... .. . P7D ... ... : ... .. . ... ... ... : ... .. . ... : ... .. . ... : ... .. . ... ...
ROW 9D : ... .. . P80 ... ... : ... .. . ... ... ... : ... .. . ... : ... .. . ... : ... .. . ... ...
ROW 9E : ... .. . P83 ... ... : ... .. . P81 ... ... : ... .. . ... : ... .. . ... : ... .. . ... ...
ROW 9F : ... .. . P84 ... ... : ... .. . ... ... ... : ... .. . ... : ... .. . ... : ... .. . ... ...
ROW A0 : ... .. . P83 ... ... : ... .. . ... ... ... : ... .. . ... : ... .. . ... : ... .. . ... ...
ROW A1 : ... .. . P80 ... ... : ... .. . P80 ... ... : ... .. . ... : ... .. . ... : ... .. . ... ...
ROW A2 : ... .. . P7D ... ... : ... .. . P7F ... ... : ... .. . ... : ... .. . ... : ... .. . ... ...
ROW A3 : ... .. . P7C ... ... : ... .. . ... ... ... : ... .. . ... : ... .. . ... : ... .. . ... ...
ROW A4 : ... .. . ... ... ... : ... .. . ... ... ... : ... .. . ... : ... .. . ... : ... .. . ... ...
ROW A5 : ... .. . P7D ... ... : ... .. . P80 ... ... : ... .. . ... : ... .. . ... : ... .. . ... ...
ROW A6 : ... .. . P83 ... ... : ... .. . P81 ... ... : ... .. . ... : ... .. . ... : ... .. . ... ...
ROW A7 : ... .. . P84 ... ... : ... .. . ... ... ... : ... .. . ... : ... .. . ... : ... .. . ... ...
ROW A8 : ... .. . ... ... ... : ... .. . ... ... ... : ... .. . ... : ... .. . ... : ... .. . ... ...
ROW A9 : ... .. . P80 ... ... : ... .. A P7F ... ... : ... .. . ... : ... .. . ... : ... .. . ... ...
ROW AA : ... .. . P7D ... ... : ... .. . ... ... ... : ... .. . ... : ... .. F ... : ... .. . ... ...
ROW AB : ... .. . P7C ... ... : ... .. 9 P80 ... ... : ... .. . ... : ... .. . ... : ... .. . ... ...
ROW AC : ... .. . P7D ... ... : ... .. . P81 ... ... : ... .. . ... : ... .. 0 ... : ... .. . ... ...
ROW AD : ... .. . P80 ... ... : ... .. 8 ... ... ... : ... .. . ... : ... .. . ... : ... .. . ... ...
ROW AE : ... .. . P83 ... ... : ... .. . ... ... ... : ... .. . ... : ... .. . ... : ... .. . ... ...
ROW AF : ... .. . P84 ... ... : ... .. . ... ... ... : ... .. . ... : ... .. . ... : ... .. . ... ...
ROW B0 : ... .. . ... ... ... : ... .. 7 P80 ... ... : ... .. . ... : ... .. . ... : ... .. . ... ...
ROW B1 : ... .. . P80 ... ... : ... .. . P7F ... ... : ... .. . ... : ... .. . ... : ... .. . ... ...
ROW B2 : ... .. . P7D ... ... : ... .. 6 ... ... ... : ... .. . ... : ... .. . ... : ... .. . ... ...
ROW B3 : ... .. . P7C ... ... : ... .. . P80 ... ... : ... .. . ... : ... .. . ... : ... .. . ... ...
ROW B4 : ... .. . ... ... ... : ... .. . P81 ... ... : ... .. . ... : ... .. . ... : ... .. . ... ...
ROW B5 : ... .. . P7D ... ... : ... .. . ... ... ... : ... .. . ... : ... .. . ... : ... .. . ... ...
ROW B6 : ... .. . P80 ... ... : ... .. . ... ... ... : ... .. . ... : ... .. . ... : ... .. . ... ...
ROW B7 : ... .. . P84 ... ... : ... .. . P80 ... ... : ... .. . ... : ... .. . ... : ... .. . ... ...
ROW B8 : ... .. . ... ... ... : ... .. . P7F ... ... : ... .. . ... : ... .. . ... : ... .. . ... ...
ROW B9 : ... .. . P83 ... ... : ... .. . ... ... ... : ... .. . ... : ... .. . ... : ... .. . ... ...
ROW BA : ... .. . P80 ... ... : ... .. . ... ... ... : ... .. . ... : ... .. . ... : ... .. . ... ...
ROW BB : ... .. . P7D ... ... : ... .. . P80 ... ... : ... .. . ... : ... .. . ... : ... .. . ... ...
ROW BC : ... .. . P7C ... ... : ... .. . P81 ... ... : ... .. . ... : ... .. . ... : ... .. . ... ...
ROW BD : ... .. . P7D ... ... : ... .. . ... ... ... : ... .. . ... : ... .. . ... : ... .. . ... ...
ROW BE : ... .. . P80 ... ... : ... .. . ... ... ... : ... .. . ... : ... .. . ... : ... .. . ... ...
ROW BF : ... .. . P83 ... ... : ... .. . P80 ... ... : ... .. . ... : ... .. . ... : ... .. . ... ...
ROW C0 : ... .. . P84 ... ... : ... .. . P7F ... ... : ... .. . ... : ... .. . ... : ... .. . ... ...
ROW C1 : ... .. . ... ... ... : ... .. . ... ... ... : ... .. . ... : ... .. . ... : ... .. . ... ...
ROW C2 : ... .. . P83 ... ... : ... .. . ... ... ... : ... .. . ... : ... .. . ... : ... .. . ... ...
ROW C3 : ... .. . P7D ... ... : ... .. . P81 ... ... : ... .. . ... : ... .. . ... : ... .. . ... ...
ROW C4 : ... .. . P7C ... ... : ... .. . ... ... ... : ... .. . ... : ... .. . ... : ... .. . ... ...
ROW C5 : ... .. . ... ... ... : ... .. . ... ... ... : ... .. . ... : ... .. . ... : ... .. . ... ...
ROW C6 : ... .. . P7D ... ... : ... .. . ... ... ... : ... .. . ... : ... .. . ... : ... .. . ... ...
ROW C7 : ... .. . P80 ... ... : ... .. . P80 ... ... : ... .. . ... : ... .. . ... : ... .. . ... ...
ROW C8 : ... .. . P83 ... ... : ... .. . P7F ... ... : ... .. . ... : ... .. . ... : ... .. . ... ...
ROW C9 : ... .. . P84 ... ... : ... .. . ... ... ... : ... .. . ... : ... .. . ... : ... .. . ... ...
ROW CA : ... .. . P83 ... ... : ... .. . P80 ... ... : ... .. . ... : ... .. . ... : ... .. . ... ...
ROW CB : ... .. . P80 ... ... : ... .. . P81 ... ... : ... .. . ... : ... .. . ... : ... .. . ... ...
ROW CC : ... .. . P7C ... ... : ... .. . ... ... ... : ... .. . ... : ... .. . ... : ... .. . ... ...
ROW CD : ... .. . ... ... ... : ... .. . ... ... ... : ... .. . ... : ... .. . ... : ... .. . ... ...
ROW CE : ... .. . P80 ... ... : ... .. . P7F ... ... : ... .. . ... : ... .. . ... : ... .. . ... ...
ROW CF : ... .. . P83 ... ... : ... .. . ... ... ... : ... .. . ... : ... .. . ... : ... .. . ... ...
ROW D0 : ... .. . P84 ... ... : ... .. . ... ... ... : ... .. . ... : ... .. . ... : ... .. . ... ...
ROW D1 : ... .. . ... ... ... : ... .. . P80 ... ... : ... .. . ... : ... .. . ... : ... .. . ... ...
ROW D2 : ... .. . P83 ... ... : ... .. . P81 ... ... : ... .. . ... : ... .. . ... : ... .. . ... ...
ROW D3 : ... .. . P80 ... ... : ... .. . ... ... ... : ... .. . ... : ... .. . ... : ... .. . ... ...
ROW D4 : ... .. . P7C ... ... : ... .. . ... ... ... : ... .. . ... : ... .. . ... : ... .. . ... ...
ROW D5 : ... .. . ... ... ... : ... .. . P80 ... ... : ... .. . ... : ... .. . ... : ... .. . ... ...
ROW D6 : ... .. . P7D ... ... : ... .. . P7F ... ... : ... .. . ... : ... .. . ... : ... .. . ... ...
ROW D7 : ... .. . P80 ... ... : ... .. . ... ... ... : ... .. . ... : ... .. . ... : ... .. . ... ...
ROW D8 : ... .. . P83 ... ... : ... .. . ... ... ... : ... .. . ... : ... .. . ... : ... .. . ... ...
ROW D9 : ... .. . P84 ... ... : ... .. . P80 ... ... : ... .. . ... : ... .. F ... : ... .. . ... ...
ROW DA : ... .. . P83 ... ... : ... .. . P81 ... ... : ... .. . ... : ... .. . ... : ... .. . ... ...
ROW DB : ... .. . P80 ... ... : ... .. . ... ... ... : ... .. . ... : ... .. 0 ... : ... .. . ... ...
ROW DC : ... .. . P7D ... ... : ... .. . ... ... ... : ... .. . ... : ... .. . ... : ... .. . ... ...
ROW DD : ... .. . P7C ... ... : ... .. . P80 ... ... : ... .. . ... : ... .. . ... : ... .. . ... ...
ROW DE : ... .. . ... ... ... : ... .. . P7F ... ... : ... .. . ... : ... .. . ... : ... .. . ... ...
ROW DF : ... .. . P7D ... ... : ... .. . ... ... ... : ... .. . ... : ... .. . ... : ... .. . ... ...
ROW E0 : ... .. . P83 ... ... : ... .. . P80 ... ... : ... .. . ... : ... .. . ... : ... .. . ... ...
ROW E1 : ... .. . P84 ... ... : ... .. . P81 ... ... : ... .. . ... : ... .. . ... : ... .. . ... ...
ROW E2 : ... .. . ... ... ... : ... .. . ... ... ... : ... .. . ... : ... .. . ... : ... .. . ... ...
ROW E3 : ... .. . P83 ... ... : ... .. . ... ... ... : ... .. . ... : ... .. . ... : ... .. . ... ...
ROW E4 : ... .. . P80 ... ... : ... .. . ... ... ... : ... .. . ... : ... .. . ... : ... .. . ... ...
ROW E5 : ... .. . P7D ... ... : ... .. . P80 ... ... : ... .. . ... : ... .. . ... : ... .. . ... ...
ROW E6 : ... .. . P7C ... ... : ... .. . P7F ... ... : ... .. . ... : ... .. . ... : ... .. . ... ...
ROW E7 : ... .. . P7D ... ... : ... .. . ... ... ... : ... .. . ... : ... .. . ... : ... .. . ... ...
ROW E8 : ... .. . P80 ... ... : ... .. . P80 ... ... : ... .. . ... : ... .. . ... : ... .. . ... ...
ROW E9 : ... .. . P83 ... ... : ... .. . P81 ... ... : ... .. . ... : ... .. . ... : ... .. . ... ...
ROW EA : ... .. . P84 ... ... : ... .. . ... ... ... : ... .. . ... : ... .. . ... : ... .. . ... ...
ROW EB : ... .. . ... ... ... : ... .. . ... ... ... : ... .. . ... : ... .. . ... : ... .. . ... ...
ROW EC : ... .. . P80 ... ... : ... .. . P80 ... ... : ... .. . ... : ... .. . ... : ... .. . ... ...
ROW ED : ... .. . P7D ... ... : ... .. . P7F ... ... : ... .. . ... : ... .. . ... : ... .. . ... ...
ROW EE : ... .. . P7C ... ... : ... .. . ... ... ... : ... .. . ... : ... .. . ... : ... .. . ... ...
ROW EF : ... .. . P7D ... ... : ... .. . P80 ... ... : ... .. . ... : ... .. . ... : ... .. . ... ...
ROW F0 : F#2 00 1 P80 V00 ... : D-4 00 9 ... ... ... : D-4 00 . ... : ... .. . ... : ... .. . ... ...
ROW F1 : ... .. 9 ... V01 ... : ... .. B ... ... ... : ... .. . ... : ... .. . ... : D-0 00 . Z40 ...
ROW F2 : ... .. B ... ... ... : ... .. . ... ... ... : ... .. . ... : ... .. . ... : ... .. . ... ...
ROW F3 : ... .. . ... ... ... : ... .. . ... ... ... : ... .. . ... : ... .. . ... : ... .. . ... ...
ROW F4 : ... .. . ... ... ... : ... .. . ... ... ... : ... .. . ... : ... .. . ... : ... .. . ... ...
ROW F5 : ... .. . ... ... ... : ... .. . ... ... ... : ... .. . ... : ... .. . ... : ... .. . ... ...
ROW F6 : ... .. . ... ... ... : ... .. . ... ... ... : ... .. . ... : ... .. . ... : ... .. . ... ...
ROW F7 : ... .. . P7C ... ... : ... .. . ... ... ... : ... .. . ... : ... .. . ... : ... .. . ... ...
ROW F8 : ... .. . ... ... ... : ... .. . ... ... ... : ... .. . ... : ... .. . ... : ... .. . ... ...
ROW F9 : ... .. . P7D ... ... : ... .. . ... ... ... : ... .. . ... : ... .. . ... : ... .. . ... ...
ROW FA : ... .. . P80 ... ... : ... .. . ... ... ... : ... .. . ... : ... .. . ... : ... .. . ... ...
ROW FB : ... .. . P83 ... ... : ... .. . P81 ... ... : ... .. . ... : ... .. . ... : ... .. . ... ...
ROW FC : ... .. . P84 ... ... : A-3 00 9 P80 ... ... : ... .. . ... : ... .. . ... : ... .. . ... ...
ROW FD : ... .. . P83 ... ... : ... .. B ... ... ... : ... .. . ... : ... .. . ... : ... .. . ... ...
ROW FE : ... .. . P80 ... ... : ... .. . ... ... ... : ... .. . ... : ... .. . ... : ... .. . ... ...
ROW FF : ... .. . P7D ... ... : ... .. . ... ... ... : ... .. . ... : ... .. . ... : ... .. . ... ...

PATTERN 0B
ROW 00 : ... .. . P7C ... ... : ... .. . ... ... ... : ... .. . ... : ... .. . ... : ... .. . ... ...
ROW 01 : ... .. . ... ... ... : ... .. . ... ... ... : ... .. . ... : ... .. . ... : ... .. . ... ...
ROW 02 : ... .. . P7D ... ... : ... .. . ... ... ... : ... .. . ... : ... .. . ... : ... .. . ... ...
ROW 03 : ... .. . P83 ... ... : ... .. . ... ... ... : ... .. . ... : ... .. . ... : ... .. . ... ...
ROW 04 : ... .. . P84 ... ... : ... .. . ... ... ... : ... .. . ... : ... .. . ... : ... .. . ... ...
ROW 05 : ... .. . ... ... ... : ... .. . ... ... ... : ... .. . ... : ... .. . ... : ... .. . ... ...
ROW 06 : ... .. . P83 ... ... : ... .. . ... ... ... : ... .. . ... : ... .. . ... : ... .. . ... ...
ROW 07 : ... .. . P80 ... ... : ... .. . P81 ... ... : ... .. . ... : ... .. . ... : ... .. . ... ...
ROW 08 : ... .. . P7D ... ... : D-4 00 9 P80 ... ... : ... .. . ... : ... .. F ... : ... .. . ... ...
ROW 09 : ... .. . P7C ... ... : ... .. B ... ... ... : ... .. . ... : ... .. . ... : ... .. . ... ...
ROW 0A : ... .. . P7D ... ... : ... .. . ... ... ... : ... .. . ... : ... .. 0 ... : ... .. . ... ...
ROW 0B : ... .. . P80 ... ... : ... .. . ... ... ... : ... .. . ... : ... .. . ... : ... .. . ... ...
ROW 0C : ... .. . P83 ... ... : ... .. . ... ... ... : ... .. . ... : ... .. . ... : ... .. . ... ...
ROW 0D : ... .. . P84 ... ... : ... .. . ... ... ... : ... .. . ... : ... .. . ... : ... .. . ... ...
ROW 0E : ... .. . ... ... ... : ... .. . ... ... ... : ... .. . ... : ... .. . ... : ... .. . ... ...
ROW 0F : ... .. . P80 ... ... : ... .. . ... ... ... : ... .. . ... : ... .. . ... : ... .. . ... ...
ROW 10 : ... .. . P7D ... ... : ... .. . ... ... ... : ... .. . ... : ... .. . ... : ... .. . ... ...
ROW 11 : ... .. . P7C ... ... : ... .. . ... ... ... : ... .. . ... : ... .. . ... : ... .. . ... ...
ROW 12 : ... .. . P7D ... ... : ... .. . P81 ... ... : ... .. . ... : ... .. . ... : ... .. . ... ...
ROW 13 : ... .. . P80 ... ... : E-4 00 9 P80 ... ... : ... .. . ... : ... .. . ... : ... .. . ... ...
ROW 14 : ... .. . P84 ... ... : ... .. B ... ... ... : ... .. . ... : ... .. . ... : ... .. . ... ...
ROW 15 : ... .. . ... ... ... : ... .. . ... ... ... : ... .. . ... : ... .. . ... : ... .. . ... ...
ROW 16 : ... .. . P83 ... ... : ... .. . ... ... ... : ... .. . ... : ... .. . ... : ... .. . ... ...
ROW 17 : ... .. . P80 ... ... : ... .. . ... ... ... : ... .. . ... : ... .. . ... : ... .. . ... ...
ROW 18 : ... .. . P7D ... ... : ... .. . ... ... ... : ... .. . ... : ... .. . ... : ... .. . ... ...
ROW 19 : ... .. . P7C ... ... : ... .. . ... ... ... : ... .. . ... : ... .. . ... : ... .. . ... ...
ROW 1A : ... .. . P7D ... ... : ... .. . ... ... ... : ... .. . ... : ... .. . ... : ... .. . ... ...
ROW 1B : ... .. . P80 ... ... : ... .. . ... ... ... : ... .. . ... : ... .. . ... : ... .. . ... ...
ROW 1C : ... .. . P83 ... ... : ... .. . ... ... ... : ... .. . ... : ... .. . ... : ... .. . ... ...
ROW 1D : ... .. . P84 ... ... : ... .. . ... ... ... : ... .. . ... : ... .. . ... : ... .. . ... ...
ROW 1E : ... .. . ... ... ... : ... .. . P81 ... ... : ... .. . ... : ... .. . ... : ... .. . ... ...
ROW 1F : ... .. . P83 ... ... : F#4 00 9 P80 ... ... : ... .. . ... : ... .. . ... : ... .. . ... ...
ROW 20 : ... .. . P7D ... ... : ... .. B ... ... ... : ... .. . ... : ... .. . ... : ... .. . ... ...
ROW 21 : ... .. . P7C ... ... : ... .. . ... ... ... : ... .. . ... : ... .. . ... : ... .. . ... ...
ROW 22 : ... .. . ... ... ... : ... .. . ... ... ... : ... .. . ... : ... .. . ... : ... .. . ... ...
ROW 23 : ... .. . P7D ... ... : ... .. . ... ... ... : ... .. . ... : ... .. . ... : ... .. . ... ...
ROW 24 : ... .. . P80 ... ... : ... .. . ... ... ... : ... .. . ... : ... .. . ... : ... .. . ... ...
ROW 25 : ... .. . P83 ... ... : ... .. . ... ... ... : ... .. . ... : ... .. . ... : ... .. . ... ...
ROW 26 : ... .. . P84 ... ... : ... .. . ... ... ... : ... .. . ... : ... .. . ... : ... .. . ... ...
ROW 27 : ... .. . P83 ... ... : ... .. . ... ... ... : ... .. . ... : ... .. . ... : ... .. . ... ...
ROW 28 : ... .. . P80 ... ... : ... .. . ... ... ... : ... .. . ... : ... .. . ... : ... .. . ... ...
ROW 29 : ... .. . P7D ... ... : ... .. . ... ... ... : ... .. . ... : ... .. . ... : ... .. . ... ...
ROW 2A : ... .. . P7C ... ... : ... .. . P81 ... ... : ... .. . ... : ... .. . ... : ... .. . ... ...
ROW 2B : ... .. . ... ... ... : D-4 00 9 P80 ... ... : ... .. . ... : ... .. . ... : ... .. . ... ...
ROW 2C : ... .. . P80 ... ... : ... .. B ... ... ... : ... .. . ... : ... .. . ... : ... .. . ... ...
ROW 2D : ... .. . P83 ... ... : ... .. . ... ... ... : ... .. . ... : ... .. . ... : ... .. . ... ...
ROW 2E : ... .. . P84 ... ... : ... .. . ... ... ... : ... .. . ... : ... .. . ... : ... .. . ... ...
ROW 2F : ... .. . ... ... ... : ... .. . ... ... ... : ... .. . ... : ... .. . ... : ... .. . ... ...
ROW 30 : ... .. . P83 ... ... : ... .. . ... ... ... : ... .. . ... : ... .. . ... : ... .. . ... ...
ROW 31 : ... .. . P80 ... ... : ... .. . ... ... ... : ... .. . ... : ... .. . ... : ... .. . ... ...
ROW 32 : ... .. . P7C ... ... : ... .. . ... ... ... : ... .. . ... : ... .. . ... : ... .. . ... ...
ROW 33 : ... .. . ... ... ... : ... .. . ... ... ... : ... .. . ... : ... .. . ... : ... .. . ... ...
ROW 34 : ... .. . P7D ... ... : ... .. . ... ... ... : ... .. . ... : ... .. . ... : ... .. . ... ...
ROW 35 : ... .. . P83 ... ... : ... .. . P81 ... ... : ... .. . ... : ... .. . ... : ... .. . ... ...
ROW 36 : ... .. . P84 ... ... : A-4 00 9 P80 ... ... : ... .. . ... : ... .. F ... : ... .. . ... ...
ROW 37 : ... .. . P83 ... ... : ... .. B ... ... ... : ... .. . ... : ... .. . ... : ... .. . ... ...
ROW 38 : ... .. . P80 ... ... : ... .. . ... ... ... : ... .. . ... : ... .. 0 ... : ... .. . ... ...
ROW 39 : ... .. . P7D ... ... : ... .. . ... ... ... : ... .. . ... : ... .. . ... : ... .. . ... ...
ROW 3A : ... .. . P7C ... ... : ... .. . ... ... ... : ... .. . ... : ... .. . ... : ... .. . ... ...
ROW 3B : ... .. . ... ... ... : ... .. . ... ... ... : ... .. . ... : ... .. . ... : ... .. . ... ...
ROW 3C : ... .. . P7D ... ... : ... .. . ... ... ... : ... .. . ... : ... .. . ... : ... .. . ... ...
ROW 3D : ... .. . P83 ... ... : ... .. . ... ... ... : ... .. . ... : ... .. . ... : ... .. . ... ...
ROW 3E : ... .. . P84 ... ... : ... .. . ... ... ... : ... .. . ... : ... .. . ... : ... .. . ... ...
ROW 3F : ... .. . ... ... ... : ... .. . ... ... ... : ... .. . ... : ... .. . ... : ... .. . ... ...
ROW 40 : ... .. . P83 ... ... : ... .. . ... ... ... : ... .. . ... : ... .. . ... : ... .. . ... ...
ROW 41 : ... .. . P80 ... ... : ... .. . P81 ... ... : ... .. . ... : ... .. . ... : ... .. . ... ...
ROW 42 : ... .. . P7D ... ... : ... .. . ... ... ... : ... .. . ... : ... .. . ... : ... .. . ... ...
ROW 43 : ... .. . P7C ... ... : ... .. . ... ... ... : ... .. . ... : ... .. . ... : ... .. . ... ...
ROW 44 : ... .. . P7D ... ... : ... .. . P80 ... ... : ... .. . ... : ... .. . ... : ... .. . ... ...
ROW 45 : ... .. . P80 ... ... : ... .. . P7F ... ... : ... .. . ... : ... .. . ... : ... .. . ... ...
ROW 46 : ... .. . P83 ... ... : ... .. . ... ... ... : ... .. . ... : ... .. . ... : ... .. . ... ...
ROW 47 : ... .. . P84 ... ... : ... .. . ... ... ... : ... .. . ... : ... .. . ... : ... .. . ... ...
ROW 48 : ... .. . ... ... ... : E-4 00 9 P80 ... ... : ... .. . ... : ... .. . ... : ... .. . ... ...
ROW 49 : ... .. . P80 ... ... : ... .. B ... ... ... : ... .. . ... : ... .. . ... : ... .. . ... ...
ROW 4A : ... .. . P7D ... ... : ... .. . ... ... ... : ... .. . ... : ... .. . ... : ... .. . ... ...
ROW 4B : ... .. . P7C ... ... : ... .. . ... ... ... : ... .. . ... : ... .. . ... : ... .. . ... ...
ROW 4C : ... .. . ... ... ... : ... .. . ... ... ... : ... .. . ... : ... .. . ... : ... .. . ... ...
ROW 4D : ... .. . P7D ... ... : ... .. . ... ... ... : ... .. . ... : ... .. . ... : ... .. . ... ...
ROW 4E : E-2 00 1 P80 V00 ... : C#4 00 9 ... ... ... : E-4 00 . ... : ... .. . ... : D-0 00 . Z40 ...
ROW 4F : ... .. 9 ... V01 ... : ... .. B ... ... ... : ... .. . ... : ... .. . ... : ... .. . ... ...
ROW 50 : ... .. B ... ... ... : ... .. . ... ... ... : ... .. . ... : ... .. . ... : ... .. . ... ...
ROW 51 : ... .. . ... ... ... : ... .. . ... ... ... : ... .. . ... : ... .. . ... : ... .. . ... ...
ROW 52 : ... .. . ... ... ... : ... .. . ... ... ... : ... .. . ... : ... .. . ... : ... .. . ... ...
ROW 53 : ... .. . ... ... ... : ... .. . ... ... ... : ... .. . ... : ... .. . ... : ... .. . ... ...
ROW 54 : ... .. . ... ... ... : ... .. . ... ... ... : ... .. . ... : ... .. . ... : ... .. . ... ...
ROW 55 : ... .. . P7C ... ... : ... .. . ... ... ... : ... .. . ... : ... .. . ... : ... .. . ... ...
ROW 56 : ... .. . ... ... ... : ... .. . ... ... ... : ... .. . ... : ... .. . ... : ... .. . ... ...
ROW 57 : ... .. . P7D ... ... : ... .. . ... ... ... : ... .. . ... : ... .. . ... : ... .. . ... ...
ROW 58 : ... .. . P83 ... ... : ... .. . P81 ... ... : ... .. . ... : ... .. . ... : ... .. . ... ...
ROW 59 : ... .. . P84 ... ... : ... .. . ... ... ... : ... .. . ... : ... .. . ... : ... .. . ... ...
ROW 5A : ... .. . P83 ... ... : ... .. . ... ... ... : ... .. . ... : ... .. . ... : ... .. . ... ...
ROW 5B : ... .. . P80 ... ... : ... .. . P80 ... ... : ... .. . ... : ... .. . ... : ... .. . ... ...
ROW 5C : ... .. . P7D ... ... : ... .. . P7F ... ... : ... .. . ... : ... .. . ... : ... .. . ... ...
ROW 5D : ... .. . P7C ... ... : ... .. . ... ... ... : ... .. . ... : ... .. . ... : ... .. . ... ...
ROW 5E : ... .. . ... ... ... : ... .. . ... ... ... : ... .. . ... : ... .. . ... : ... .. . ... ...
ROW 5F : ... .. . P7D ... ... : ... .. . P80 ... ... : ... .. . ... : ... .. . ... : ... .. . ... ...
ROW 60 : ... .. . P83 ... ... : ... .. . P81 ... ... : ... .. . ... : ... .. . ... : ... .. . ... ...
ROW 61 : ... .. . P84 ... ... : ... .. . ... ... ... : ... .. . ... : ... .. . ... : ... .. . ... ...
ROW 62 : ... .. . ... ... ... : ... .. . ... ... ... : ... .. . ... : ... .. . ... : ... .. . ... ...
ROW 63 : ... .. . P83 ... ... : ... .. A P80 ... ... : ... .. . ... : ... .. . ... : ... .. . ... ...
ROW 64 : ... .. . P80 ... ... : ... .. . P7F ... ... : ... .. . ... : ... .. . ... : ... .. . ... ...
ROW 65 : ... .. . P7D ... ... : ... .. . ... ... ... : ... .. . ... : ... .. F ... : ... .. . ... ...
ROW 66 : ... .. . P7C ... ... : ... .. 9 P80 ... ... : ... .. . ... : ... .. . ... : ... .. . ... ...
ROW 67 : ... .. . P7D ... ... : ... .. . P81 ... ... : ... .. . ... : ... .. 0 ... : ... .. . ... ...
ROW 68 : ... .. . P80 ... ... : ... .. 8 ... ... ... : ... .. . ... : ... .. . ... : ... .. . ... ...
ROW 69 : ... .. . P83 ... ... : ... .. . ... ... ... : ... .. . ... : ... .. . ... : ... .. . ... ...
ROW 6A : ... .. . P84 ... ... : ... .. . ... ... ... : ... .. . ... : ... .. . ... : ... .. . ... ...
ROW 6B : ... .. . ... ... ... : ... .. 7 P80 ... ... : ... .. . ... : ... .. . ... : ... .. . ... ...
ROW 6C : ... .. . P80 ... ... : ... .. . P7F ... ... : ... .. . ... : ... .. . ... : ... .. . ... ...
ROW 6D : ... .. . P7D ... ... : ... .. 6 ... ... ... : ... .. . ... : ... .. . ... : ... .. . ... ...
ROW 6E : ... .. . P7C ... ... : ... .. . P80 ... ... : ... .. . ... : ... .. . ... : ... .. . ... ...
ROW 6F : ... .. . ... ... ... : ... .. . P81 ... ... : ... .. . ... : ... .. . ... : ... .. . ... ...
ROW 70 : ... .. . P7D ... ... : ... .. . ... ... ... : ... .. . ... : ... .. . ... : ... .. . ... ...
ROW 71 : ... .. . P80 ... ... : ... .. . ... ... ... : ... .. . ... : ... .. . ... : ... .. . ... ...
ROW 72 : ... .. . P84 ... ... : ... .. . P80 ... ... : ... .. . ... : ... .. . ... : ... .. . ... ...
ROW 73 : ... .. . ... ... ... : ... .. . P7F ... ... : ... .. . ... : ... .. . ... : ... .. . ... ...
ROW 74 : ... .. . P83 ... ... : ... .. . ... ... ... : ... .. . ... : ... .. . ... : ... .. . ... ...
ROW 75 : ... .. . P80 ... ... : ... .. . ... ... ... : ... .. . ... : ... .. . ... : ... .. . ... ...
ROW 76 : ... .. . P7D ... ... : ... .. . P80 ... ... : ... .. . ... : ... .. . ... : ... .. . ... ...
ROW 77 : ... .. . P7C ... ... : ... .. . P81 ... ... : ... .. . ... : ... .. . ... : ... .. . ... ...
ROW 78 : ... .. . P7D ... ... : ... .. . ... ... ... : ... .. . ... : ... .. . ... : ... .. . ... ...
ROW 79 : ... .. . P80 ... ... : ... .. . ... ... ... : ... .. . ... : ... .. . ... : ... .. . ... ...
ROW 7A : ... .. . P83 ... ... : ... .. . P80 ... ... : ... .. . ... : ... .. . ... : ... .. . ... ...
ROW 7B : ... .. . P84 ... ... : ... .. . P7F ... ... : ... .. . ... : ... .. . ... : ... .. . ... ...
ROW 7C : ... .. . P83 ... ... : ... .. . ... ... ... : ... .. . ... : ... .. . ... : ... .. . ... ...
ROW 7D : ... .. . P7D ... ... : ... .. . P81 ... ... : ... .. . ... : ... .. . ... : ... .. . ... ...
ROW 7E : ... .. . P7C ... ... : ... .. . ... ... ... : ... .. . ... : ... .. . ... : ... .. . ... ...
ROW 7F : ... .. . ... ... ... : ... .. . ... ... ... : ... .. . ... : ... .. . ... : ... .. . ... ...
ROW 80 : ... .. . P7D ... ... : ... .. . ... ... ... : ... .. . ... : ... .. . ... : ... .. . ... ...
ROW 81 : ... .. . P80 ... ... : ... .. . P80 ... ... : ... .. . ... : ... .. . ... : ... .. . ... ...
ROW 82 : ... .. . P83 ... ... : ... .. . P7F ... ... : ... .. . ... : ... .. . ... : ... .. . ... ...
ROW 83 : ... .. . P84 ... ... : ... .. . ... ... ... : ... .. . ... : ... .. . ... : ... .. . ... ...
ROW 84 : ... .. . P83 ... ... : ... .. . P80 ... ... : ... .. . ... : ... .. . ... : ... .. . ... ...
ROW 85 : ... .. . P80 ... ... : ... .. . P81 ... ... : ... .. . ... : ... .. . ... : ... .. . ... ...
ROW 86 : ... .. . P7D ... ... : ... .. . ... ... ... : ... .. . ... : ... .. . ... : ... .. . ... ...
ROW 87 : ... .. . P7C ... ... : ... .. . ... ... ... : ... .. . ... : ... .. . ... : ... .. . ... ...
ROW 88 : ... .. . ... ... ... : ... .. . ... ... ... : ... .. . ... : ... .. . ... : ... .. . ... ...
ROW 89 : ... .. . P80 ... ... : ... .. . P7F ... ... : ... .. . ... : ... .. . ... : ... .. . ... ...
ROW 8A : ... .. . P83 ... ... : ... .. . ... ... ... : ... .. . ... : ... .. . ... : ... .. . ... ...
ROW 8B : ... .. . P84 ... ... : ... .. . ... ... ... : ... .. . ... : ... .. . ... : ... .. . ... ...
ROW 8C : ... .. . ... ... ... : ... .. . P80 ... ... : ... .. . ... : ... .. . ... : ... .. . ... ...
ROW 8D : ... .. . P83 ... ... : ... .. . P81 ... ... : ... .. . ... : ... .. . ... : ... .. . ... ...
ROW 8E : ... .. . P80 ... ... : ... .. . ... ... ... : ... .. . ... : ... .. . ... : ... .. . ... ...
ROW 8F : ... .. . P7C ... ... : ... .. . ... ... ... : ... .. . ... : ... .. . ... : ... .. . ... ...
ROW 90 : ... .. . ... ... ... : ... .. . P80 ... ... : ... .. . ... : ... .. . ... : ... .. . ... ...
ROW 91 : ... .. . P7D ... ... : ... .. . P7F ... ... : ... .. . ... : ... .. . ... : ... .. . ... ...
ROW 92 : ... .. . P80 ... ... : ... .. . ... ... ... : ... .. . ... : ... .. . ... : ... .. . ... ...
ROW 93 : ... .. . P83 ... ... : ... .. . ... ... ... : ... .. . ... : ... .. . ... : ... .. . ... ...
ROW 94 : ... .. . P84 ... ... : D-2 00 D P8A ... ... : ... .. . ... : ... .. F ... : ... .. . ... ...
ROW 95 : ... .. . P83 ... ... : F#2 00 E P80 ... ... : ... .. . ... : ... .. . ... : ... .. . ... ...
ROW 96 : ... .. . P80 ... ... : ... .. C ... ... ... : ... .. . ... : ... .. 0 ... : ... .. . ... ...
ROW 97 : ... .. . P7D ... ... : ... .. B ... ... ... : ... .. . ... : ... .. . ... : ... .. . ... ...
ROW 98 : ... .. . P7C ... ... : ... .. A ... ... ... : ... .. . ... : ... .. . ... : ... .. . ... ...
ROW 99 : ... .. . ... ... ... : ... .. 9 ... ... ... : ... .. . ... : ... .. . ... : ... .. . ... ...
ROW 9A : ... .. . P7D ... ... : C-2 00 D P8A ... ... : ... .. . ... : ... .. . ... : ... .. . ... ...
ROW 9B : ... .. . P83 ... ... : E-2 00 E P80 ... ... : ... .. . ... : ... .. . ... : ... .. . ... ...
ROW 9C : ... .. . P84 ... ... : ... .. C ... ... ... : ... .. . ... : ... .. . ... : ... .. . ... ...
ROW 9D : ... .. . ... ... ... : ... .. B ... ... ... : ... .. . ... : ... .. . ... : ... .. . ... ...
ROW 9E : ... .. . P80 ... ... : ... .. 9 ... ... ... : ... .. . ... : ... .. . ... : ... .. . ... ...
ROW 9F : ... .. . P7D ... ... : A#1 00 D P8A ... ... : ... .. . ... : ... .. . ... : ... .. . ... ...
ROW A0 : ... .. . P7C ... ... : D-2 00 E P80 ... ... : ... .. . ... : ... .. . ... : ... .. . ... ...
ROW A1 : ... .. . P7D ... ... : ... .. C ... ... ... : ... .. . ... : ... .. . ... : ... .. . ... ...
ROW A2 : ... .. . P80 ... ... : ... .. B ... ... ... : ... .. . ... : ... .. . ... : ... .. . ... ...
ROW A3 : ... .. . P83 ... ... : ... .. A ... ... ... : ... .. . ... : ... .. . ... : ... .. . ... ...
ROW A4 : ... .. . P84 ... ... : ... .. 9 ... ... ... : ... .. . ... : ... .. . ... : ... .. . ... ...
ROW A5 : ... .. . ... ... ... : A-1 00 D P8A ... ... : ... .. . ... : ... .. . ... : ... .. . ... ...
ROW A6 : ... .. . P80 ... ... : C#2 00 E P80 ... ... : ... .. . ... : ... .. . ... : ... .. . ... ...
ROW A7 : ... .. . P7D ... ... : ... .. C ... ... ... : ... .. . ... : ... .. . ... : ... .. . ... ...
ROW A8 : ... .. . P7C ... ... : ... .. B ... ... ... : ... .. . ... : ... .. . ... : ... .. . ... ...
ROW A9 : ... .. . ... ... ... : ... .. A ... ... ... : ... .. . ... : ... .. . ... : ... .. . ... ...
ROW AA : ... .. . P7D ... ... : ... .. 9 ... ... ... : ... .. . ... : ... .. . ... : ... .. . ... ...
ROW AB : G-1 00 D P8A V02 ... : B-2 00 9 ... ... ... : B-3 00 . ... : ... .. . ... : ... .. . ... ...
ROW AC : B-1 00 E P80 ... ... : ... .. B ... ... ... : ... .. . ... : ... .. . ... : ... .. . ... ...
ROW AD : ... .. C ... ... ... : ... .. . ... ... ... : ... .. . ... : ... .. . ... : ... .. . ... ...
ROW AE : ... .. B ... ... ... : ... .. . ... ... ... : ... .. . ... : ... .. . ... : ... .. . ... ...
ROW AF : ... .. A ... ... ... : ... .. . ... ... ... : ... .. . ... : ... .. . ... : ... .. . ... ...
ROW B0 : ... .. 0 ... ... ... : ... .. . ... ... ... : ... .. . ... : ... .. . ... : ... .. . ... ...
ROW B1 : G-1 00 D P8A ... ... : ... .. . ... ... ... : ... .. . ... : ... .. . ... : ... .. . ... ...
ROW B2 : B-1 00 E P80 ... ... : ... .. . ... ... ... : ... .. . ... : ... .. . ... : ... .. . ... ...
ROW B3 : ... .. C ... ... ... : ... .. . ... ... ... : ... .. . ... : ... .. . ... : ... .. . ... ...
ROW B4 : ... .. B ... ... ... : ... .. . ... ... ... : ... .. . ... : ... .. . ... : ... .. . ... ...
ROW B5 : ... .. A ... ... ... : ... .. . ... ... ... : ... .. . ... : ... .. . ... : ... .. . ... ...
ROW B6 : ... .. 0 ... ... ... : ... .. . P81 ... ... : ... .. . ... : ... .. . ... : ... .. . ... ...
ROW B7 : G-1 00 D P8A ... ... : ... .. . ... ... ... : ... .. . ... : ... .. . ... : ... .. . ... ...
ROW B8 : B-1 00 E P80 ... ... : ... .. . ... ... ... : ... .. . ... : ... .. . ... : ... .. . ... ...
ROW B9 : ... .. C ... ... ... : ... .. . P80 ... ... : ... .. . ... : ... .. . ... : ... .. . ... ...
ROW BA : ... .. B ... ... ... : ... .. . P7F ... ... : ... .. . ... : ... .. . ... : ... .. . ... ...
ROW BB : ... .. A ... ... ... : ... .. . ... ... ... : ... .. . ... : ... .. . ... : ... .. . ... ...
ROW BC : ... .. 9 ... ... ... : ... .. . ... ... ... : ... .. . ... : ... .. . ... : ... .. . ... ...
ROW BD : ... .. . ... ... ... : ... .. . P80 ... ... : ... .. . ... : ... .. . ... : ... .. . ... ...
ROW BE : ... .. . ... ... ... : ... .. . P81 ... ... : ... .. . ... : ... .. . ... : ... .. . ... ...
ROW BF : ... .. . ... ... ... : ... .. . ... ... ... : ... .. . ... : ... .. . ... : ... .. . ... ...
ROW C0 : ... .. . ... ... ... : ... .. . ... ... ... : ... .. . ... : ... .. . ... : ... .. . ... ...
ROW C1 : ... .. . ... ... ... : ... .. A P7F ... ... : ... .. . ... : ... .. . ... : ... .. . ... ...
ROW C2 : ... .. . ... ... ... : ... .. . ... ... ... : ... .. . ... : ... .. F ... : ... .. . ... ...
ROW C3 : ... .. . ... ... ... : ... .. 9 P80 ... ... : ... .. . ... : ... .. . ... : ... .. . ... ...
ROW C4 : ... .. . ... ... ... : ... .. . P81 ... ... : ... .. . ... : ... .. 0 ... : ... .. . ... ...
ROW C5 : ... .. . ... ... ... : ... .. 8 ... ... ... : ... .. . ... : ... .. . ... : ... .. . ... ...
ROW C6 : ... .. . ... ... ... : ... .. . ... ... ... : ... .. . ... : ... .. . ... : ... .. . ... ...
ROW C7 : ... .. . ... ... ... : ... .. . ... ... ... : ... .. . ... : ... .. . ... : ... .. . ... ...
ROW C8 : ... .. . ... ... ... : ... .. 7 P80 ... ... : ... .. . ... : ... .. . ... : ... .. . ... ...
ROW C9 : ... .. . ... ... ... : ... .. . P7F ... ... : ... .. . ... : ... .. . ... : ... .. . ... ...
ROW CA : ... .. . ... ... ... : ... .. 6 ... ... ... : ... .. . ... : ... .. . ... : ... .. . ... ...
ROW CB : ... .. . ... ... ... : ... .. . P80 ... ... : ... .. . ... : ... .. . ... : ... .. . ... ...
ROW CC : ... .. . ... ... ... : ... .. . P81 ... ... : ... .. . ... : ... .. . ... : ... .. . ... ...
ROW CD : ... .. . ... ... ... : ... .. . ... ... ... : ... .. . ... : ... .. . ... : ... .. . ... ...
ROW CE : ... .. . ... ... ... : ... .. . ... ... ... : ... .. . ... : ... .. . ... : ... .. . ... ...
ROW CF : ... .. . ... ... ... : ... .. . P80 ... ... : ... .. . ... : ... .. . ... : ... .. . ... ...
ROW D0 : ... .. . ... ... ... : ... .. . P7F ... ... : ... .. . ... : ... .. . ... : ... .. . ... ...
ROW D1 : ... .. . ... ... ... : ... .. . ... ... ... : ... .. . ... : ... .. . ... : ... .. . ... ...
ROW D2 : ... .. . ... ... ... : ... .. . ... ... ... : ... .. . ... : ... .. . ... : ... .. . ... ...
ROW D3 : ... .. . ... ... ... : ... .. . P80 ... ... : ... .. . ... : ... .. . ... : ... .. . ... ...
ROW D4 : ... .. . ... ... ... : ... .. . P81 ... ... : ... .. . ... : ... .. . ... : ... .. . ... ...
ROW D5 : ... .. . ... ... ... : ... .. . ... ... ... : ... .. . ... : ... .. . ... : ... .. . ... ...
ROW D6 : ... .. . ... ... ... : ... .. . ... ... ... : ... .. . ... : ... .. . ... : ... .. . ... ...
ROW D7 : ... .. . ... ... ... : ... .. . P80 ... ... : ... .. . ... : ... .. . ... : ... .. . ... ...
ROW D8 : ... .. . ... ... ... : ... .. . P7F ... ... : ... .. . ... : ... .. . ... : ... .. . ... ...
ROW D9 : ... .. . ... ... ... : ... .. . ... ... ... : ... .. . ... : ... .. . ... : ... .. . ... ...
ROW DA : ... .. . ... ... ... : F#4 00 9 P80 ... ... : ... .. . ... : ... .. . ... : ... .. . ... ...
ROW DB : ... .. . ... ... ... : ... .. B ... ... ... : ... .. . ... : ... .. . ... : ... .. . ... ...
ROW DC : ... .. . ... ... ... : ... .. . ... ... ... : ... .. . ... : ... .. . ... : ... .. . ... ...
ROW DD : ... .. . ... ... ... : ... .. . ... ... ... : ... .. . ... : ... .. . ... : ... .. . ... ...
ROW DE : ... .. . ... ... ... : ... .. . ... ... ... : ... .. . ... : ... .. . ... : ... .. . ... ...
ROW DF : ... .. . ... ... ... : ... .. . ... ... ... : ... .. . ... : ... .. . ... : ... .. . ... ...
ROW E0 : ... .. . ... ... ... : ... .. . ... ... ... : ... .. . ... : ... .. . ... : ... .. . ... ...
ROW E1 : ... .. . ... ... ... : ... .. . ... ... ... : ... .. . ... : ... .. . ... : ... .. . ... ...
ROW E2 : ... .. . ... ... ... : ... .. . ... ... ... : ... .. . ... : ... .. . ... : ... .. . ... ...
ROW E3 : ... .. . ... ... ... : ... .. . ... ... ... : ... .. . ... : ... .. . ... : ... .. . ... ...
ROW E4 : ... .. . ... ... ... : ... .. . P81 ... ... : ... .. . ... : ... .. . ... : ... .. . ... ...
ROW E5 : ... .. . ... ... ... : ... .. . ... ... ... : ... .. . ... : ... .. . ... : ... .. . ... ...
ROW E6 : ... .. . ... ... ... : ... .. . ... ... ... : ... .. . ... : ... .. . ... : ... .. . ... ...
ROW E7 : ... .. . ... ... ... : ... .. . P80 ... ... : ... .. . ... : ... .. . ... : ... .. . ... ...
ROW E8 : ... .. . ... ... ... : ... .. . P7F ... ... : ... .. . ... : ... .. . ... : ... .. . ... ...
ROW E9 : ... .. . ... ... ... : ... .. . ... ... ... : ... .. . ... : ... .. . ... : ... .. . ... ...
ROW EA : ... .. . ... ... ... : ... .. . ... ... ... : ... .. . ... : ... .. . ... : ... .. . ... ...
ROW EB : ... .. . ... ... ... : ... .. . P80 ... ... : ... .. . ... : ... .. . ... : ... .. . ... ...
ROW EC : ... .. . ... ... ... : ... .. . P81 ... ... : ... .. . ... : ... .. . ... : ... .. . ... ...
ROW ED : ... .. . ... ... ... : ... .. . ... ... ... : ... .. . ... : ... .. . ... : ... .. . ... ...
ROW EE : ... .. . ... ... ... : ... .. . ... ... ... : ... .. . ... : ... .. . ... : ... .. . ... ...
ROW EF : ... .. . ... ... ... : ... .. A P80 ... ... : ... .. . ... : ... .. . ... : ... .. . ... ...
ROW F0 : ... .. . ... ... ... : ... .. . P7F ... ... : ... .. . ... : ... .. . ... : ... .. . ... ...
ROW F1 : ... .. . ... ... ... : ... .. . ... ... ... : ... .. . ... : ... .. F ... : ... .. . ... ...
ROW F2 : ... .. . ... ... ... : ... .. 9 P80 ... ... : ... .. . ... : ... .. . ... : ... .. . ... ...
ROW F3 : ... .. . ... ... ... : ... .. . P81 ... ... : ... .. . ... : ... .. 0 ... : ... .. . ... ...
ROW F4 : ... .. . ... ... ... : ... .. 8 ... ... ... : ... .. . ... : ... .. . ... : ... .. . ... ...
ROW F5 : ... .. . ... ... ... : ... .. . ... ... ... : ... .. . ... : ... .. . ... : ... .. . ... ...
ROW F6 : ... .. . ... ... ... : ... .. . ... ... ... : ... .. . ... : ... .. . ... : ... .. . ... ...
ROW F7 : ... .. . ... ... ... : ... .. 7 P80 ... ... : ... .. . ... : ... .. . ... : ... .. . ... ...
ROW F8 : ... .. . ... ... ... : ... .. . P7F ... ... : ... .. . ... : ... .. . ... : ... .. . ... ...
ROW F9 : ... .. . ... ... ... : ... .. 6 ... ... ... : ... .. . ... : ... .. . ... : ... .. . ... ...
ROW FA : ... .. . ... ... ... : ... .. . P80 ... ... : ... .. . ... : ... .. . ... : ... .. . ... ...
ROW FB : ... .. . ... ... ... : ... .. . P81 ... ... : ... .. . ... : ... .. . ... : ... .. . ... ...
ROW FC : ... .. . ... ... ... : ... .. . ... ... ... : ... .. . ... : ... .. . ... : ... .. . ... ...
ROW FD : ... .. . ... ... ... : ... .. . ... ... ... : ... .. . ... : ... .. . ... : ... .. . ... ...
ROW FE : ... .. . ... ... ... : ... .. . P80 ... ... : ... .. . ... : ... .. . ... : ... .. . ... ...
ROW FF : ... .. . ... ... ... : ... .. . P7F ... ... : ... .. . ... : ... .. . ... : ... .. . ... ...

PATTERN 0C
ROW 00 : ... .. . ... ... ... : ... .. . ... ... ... : ... .. . ... : ... .. . ... : ... .. . ... ...
ROW 01 : ... .. . ... ... ... : ... .. . ... ... ... : ... .. . ... : ... .. . ... : ... .. . ... ...
ROW 02 : ... .. . ... ... ... : ... .. . P80 ... ... : ... .. . ... : ... .. . ... : ... .. . ... ...
ROW 03 : ... .. . ... ... ... : ... .. . P81 ... ... : ... .. . ... : ... .. . ... : ... .. . ... ...
ROW 04 : ... .. . ... ... ... : ... .. . ... ... ... : ... .. . ... : ... .. . ... : ... .. . ... ...
ROW 05 : ... .. . ... ... ... : ... .. . ... ... ... : ... .. . ... : ... .. . ... : ... .. . ... ...
ROW 06 : ... .. . ... ... ... : ... .. . P80 ... ... : ... .. . ... : ... .. . ... : ... .. . ... ...
ROW 07 : ... .. 0 ... ... ... : ... .. . P7F ... ... : ... .. . ... : ... .. . ... : ... .. . ... ...
ROW 08 : A-1 00 D P8A ... ... : A-2 00 9 P80 ... ... : C#4 00 . ... : ... .. . ... : ... .. . ... ...
ROW 09 : C#2 00 E P80 ... ... : ... .. B ... ... ... : ... .. . ... : ... .. . ... : ... .. . ... ...
ROW 0A : ... .. C ... ... ... : ... .. . ... ... ... : ... .. . ... : ... .. . ... : ... .. . ... ...
ROW 0B : ... .. B ... ... ... : ... .. . ... ... ... : ... .. . ... : ... .. . ... : ... .. . ... ...
ROW 0C : ... .. A ... ... ... : ... .. . ... ... ... : ... .. . ... : ... .. . ... : ... .. . ... ...
ROW 0D : ... .. 0 ... ... ... : ... .. . ... ... ... : ... .. . ... : ... .. . ... : ... .. . ... ...
ROW 0E : A-1 00 D P8A ... ... : ... .. . ... ... ... : ... .. . ... : ... .. . ... : ... .. . ... ...
ROW 0F : C#2 00 E P80 ... ... : ... .. . ... ... ... : ... .. . ... : ... .. . ... : ... .. . ... ...
ROW 10 : ... .. C ... ... ... : ... .. . ... ... ... : ... .. . ... : ... .. . ... : ... .. . ... ...
ROW 11 : ... .. B ... ... ... : ... .. . ... ... ... : ... .. . ... : ... .. . ... : ... .. . ... ...
ROW 12 : ... .. A ... ... ... : ... .. . ... ... ... : ... .. . ... : ... .. . ... : ... .. . ... ...
ROW 13 : ... .. 0 ... ... ... : ... .. . P81 ... ... : ... .. . ... : ... .. . ... : ... .. . ... ...
ROW 14 : A-1 00 D P8A ... ... : ... .. . ... ... ... : ... .. . ... : ... .. . ... : ... .. . ... ...
ROW 15 : C#2 00 E P80 ... ... : ... .. . ... ... ... : ... .. . ... : ... .. . ... : ... .. . ... ...
ROW 16 : ... .. C ... ... ... : ... .. . P80 ... ... : ... .. . ... : ... .. . ... : ... .. . ... ...
ROW 17 : ... .. B ... ... ... : ... .. . P7F ... ... : ... .. . ... : ... .. . ... : ... .. . ... ...
ROW 18 : ... .. A ... ... ... : ... .. . ... ... ... : ... .. . ... : ... .. . ... : ... .. . ... ...
ROW 19 : ... .. 9 ... ... ... : ... .. . ... ... ... : ... .. . ... : ... .. . ... : ... .. . ... ...
ROW 1A : ... .. . ... ... ... : ... .. . P80 ... ... : ... .. . ... : ... .. . ... : ... .. . ... ...
ROW 1B : ... .. . ... ... ... : ... .. . P81 ... ... : ... .. . ... : ... .. . ... : ... .. . ... ...
ROW 1C : ... .. . ... ... ... : ... .. . ... ... ... : ... .. . ... : ... .. . ... : ... .. . ... ...
ROW 1D : ... .. . ... ... ... : ... .. . ... ... ... : ... .. . ... : ... .. . ... : ... .. . ... ...
ROW 1E : ... .. . ... ... ... : ... .. A P80 ... ... : ... .. . ... : ... .. . ... : ... .. . ... ...
ROW 1F : ... .. . ... ... ... : ... .. . P7F ... ... : ... .. . ... : ... .. . ... : ... .. . ... ...
ROW 20 : ... .. . ... ... ... : ... .. . ... ... ... : ... .. . ... : ... .. F ... : ... .. . ... ...
ROW 21 : ... .. . ... ... ... : ... .. 9 P80 ... ... : ... .. . ... : ... .. . ... : ... .. . ... ...
ROW 22 : ... .. . ... ... ... : ... .. . P81 ... ... : ... .. . ... : ... .. 0 ... : ... .. . ... ...
ROW 23 : ... .. . ... ... ... : ... .. 8 ... ... ... : ... .. . ... : ... .. . ... : ... .. . ... ...
ROW 24 : ... .. . ... ... ... : ... .. . ... ... ... : ... .. . ... : ... .. . ... : ... .. . ... ...
ROW 25 : ... .. . ... ... ... : ... .. . ... ... ... : ... .. . ... : ... .. . ... : ... .. . ... ...
ROW 26 : ... .. . ... ... ... : ... .. 7 P80 ... ... : ... .. . ... : ... .. . ... : ... .. . ... ...
ROW 27 : ... .. . ... ... ... : ... .. . P7F ... ... : ... .. . ... : ... .. . ... : ... .. . ... ...
ROW 28 : ... .. . ... ... ... : ... .. 6 ... ... ... : ... .. . ... : ... .. . ... : ... .. . ... ...
ROW 29 : ... .. . ... ... ... : ... .. . P80 ... ... : ... .. . ... : ... .. . ... : ... .. . ... ...
ROW 2A : ... .. . ... ... ... : ... .. . P81 ... ... : ... .. . ... : ... .. . ... : ... .. . ... ...
ROW 2B : ... .. . ... ... ... : ... .. . ... ... ... : ... .. . ... : ... .. . ... : ... .. . ... ...
ROW 2C : ... .. . ... ... ... : ... .. . P80 ... ... : ... .. . ... : ... .. . ... : ... .. . ... ...
ROW 2D : ... .. . ... ... ... : ... .. . P7F ... ... : ... .. . ... : ... .. . ... : ... .. . ... ...
ROW 2E : ... .. . ... ... ... : ... .. . ... ... ... : ... .. . ... : ... .. . ... : ... .. . ... ...
ROW 2F : ... .. . ... ... ... : ... .. . ... ... ... : ... .. . ... : ... .. . ... : ... .. . ... ...
ROW 30 : ... .. . ... ... ... : ... .. . P80 ... ... : ... .. . ... : ... .. . ... : ... .. . ... ...
ROW 31 : ... .. . ... ... ... : ... .. . P81 ... ... : ... .. . ... : ... .. . ... : ... .. . ... ...
ROW 32 : ... .. . ... ... ... : ... .. . ... ... ... : ... .. . ... : ... .. . ... : ... .. . ... ...
ROW 33 : ... .. . ... ... ... : ... .. . ... ... ... : ... .. . ... : ... .. . ... : ... .. . ... ...
ROW 34 : ... .. . ... ... ... : ... .. . P80 ... ... : ... .. . ... : ... .. . ... : ... .. . ... ...
ROW 35 : ... .. . ... ... ... : ... .. . P7F ... ... : ... .. . ... : ... .. . ... : ... .. . ... ...
ROW 36 : ... .. . ... ... ... : ... .. . ... ... ... : ... .. . ... : ... .. . ... : ... .. . ... ...
ROW 37 : ... .. . ... ... ... : E-4 00 9 P80 ... ... : ... .. . ... : ... .. . ... : ... .. . ... ...
ROW 38 : ... .. . ... ... ... : ... .. B ... ... ... : ... .. . ... : ... .. . ... : ... .. . ... ...
ROW 39 : ... .. . ... ... ... : ... .. . ... ... ... : ... .. . ... : ... .. . ... : ... .. . ... ...
ROW 3A : ... .. . ... ... ... : ... .. . ... ... ... : ... .. . ... : ... .. . ... : ... .. . ... ...
ROW 3B : ... .. . ... ... ... : ... .. . ... ... ... : ... .. . ... : ... .. . ... : ... .. . ... ...
ROW 3C : ... .. . ... ... ... : ... .. . ... ... ... : ... .. . ... : ... .. . ... : ... .. . ... ...
ROW 3D : ... .. . ... ... ... : ... .. . ... ... ... : ... .. . ... : ... .. . ... : ... .. . ... ...
ROW 3E : ... .. . ... ... ... : ... .. . ... ... ... : ... .. . ... : ... .. . ... : ... .. . ... ...
ROW 3F : ... .. . ... ... ... : ... .. . ... ... ... : ... .. . ... : ... .. . ... : ... .. . ... ...
ROW 40 : ... .. . ... ... ... : ... .. . ... ... ... : ... .. . ... : ... .. . ... : ... .. . ... ...
ROW 41 : ... .. . ... ... ... : ... .. . ... ... ... : ... .. . ... : ... .. . ... : ... .. . ... ...
ROW 42 : ... .. . ... ... ... : ... .. . P81 ... ... : ... .. . ... : ... .. . ... : ... .. . ... ...
ROW 43 : ... .. . ... ... ... : F#4 00 9 P80 ... ... : ... .. . ... : ... .. . ... : ... .. . ... ...
ROW 44 : ... .. . ... ... ... : ... .. B ... ... ... : ... .. . ... : ... .. . ... : ... .. . ... ...
ROW 45 : ... .. . ... ... ... : ... .. . ... ... ... : ... .. . ... : ... .. . ... : ... .. . ... ...
ROW 46 : ... .. . ... ... ... : ... .. . ... ... ... : ... .. . ... : ... .. . ... : ... .. . ... ...
ROW 47 : ... .. . ... ... ... : ... .. . ... ... ... : ... .. . ... : ... .. . ... : ... .. . ... ...
ROW 48 : ... .. . ... ... ... : ... .. . ... ... ... : ... .. . ... : ... .. . ... : ... .. . ... ...
ROW 49 : ... .. . ... ... ... : ... .. . ... ... ... : ... .. . ... : ... .. . ... : ... .. . ... ...
ROW 4A : ... .. . ... ... ... : ... .. . ... ... ... : ... .. . ... : ... .. . ... : ... .. . ... ...
ROW 4B : ... .. . ... ... ... : ... .. . ... ... ... : ... .. . ... : ... .. . ... : ... .. . ... ...
ROW 4C : ... .. . ... ... ... : ... .. . ... ... ... : ... .. . ... : ... .. . ... : ... .. . ... ...
ROW 4D : ... .. . ... ... ... : ... .. . P81 ... ... : ... .. . ... : ... .. . ... : ... .. . ... ...
ROW 4E : ... .. . ... ... ... : ... .. . ... ... ... : ... .. . ... : ... .. F ... : ... .. . ... ...
ROW 4F : ... .. . ... ... ... : ... .. . ... ... ... : ... .. . ... : ... .. . ... : ... .. . ... ...
ROW 50 : ... .. . ... ... ... : ... .. . P80 ... ... : ... .. . ... : ... .. 0 ... : ... .. . ... ...
ROW 51 : ... .. . ... ... ... : ... .. . P7F ... ... : ... .. . ... : ... .. . ... : ... .. . ... ...
ROW 52 : ... .. . ... ... ... : ... .. . ... ... ... : ... .. . ... : ... .. . ... : ... .. . ... ...
ROW 53 : ... .. . ... ... ... : ... .. . ... ... ... : ... .. . ... : ... .. . ... : ... .. . ... ...
ROW 54 : ... .. . ... ... ... : ... .. . P80 ... ... : ... .. . ... : ... .. . ... : ... .. . ... ...
ROW 55 : ... .. . ... ... ... : ... .. . P81 ... ... : ... .. . ... : ... .. . ... : ... .. . ... ...
ROW 56 : ... .. . ... ... ... : ... .. . ... ... ... : ... .. . ... : ... .. . ... : ... .. . ... ...
ROW 57 : ... .. . ... ... ... : ... .. . ... ... ... : ... .. . ... : ... .. . ... : ... .. . ... ...
ROW 58 : ... .. . ... ... ... : ... .. A P80 ... ... : ... .. . ... : ... .. . ... : ... .. . ... ...
ROW 59 : ... .. . ... ... ... : ... .. . P7F ... ... : ... .. . ... : ... .. . ... : ... .. . ... ...
ROW 5A : ... .. . ... ... ... : ... .. . ... ... ... : ... .. . ... : ... .. . ... : ... .. . ... ...
ROW 5B : ... .. . ... ... ... : ... .. 9 P80 ... ... : ... .. . ... : ... .. . ... : ... .. . ... ...
ROW 5C : ... .. . ... ... ... : ... .. . P81 ... ... : ... .. . ... : ... .. . ... : ... .. . ... ...
ROW 5D : ... .. . ... ... ... : ... .. 8 ... ... ... : ... .. . ... : ... .. . ... : ... .. . ... ...
ROW 5E : ... .. . ... ... ... : ... .. . ... ... ... : ... .. . ... : ... .. . ... : ... .. . ... ...
ROW 5F : ... .. . ... ... ... : ... .. . ... ... ... : ... .. . ... : ... .. . ... : ... .. . ... ...
ROW 60 : ... .. . ... ... ... : ... .. 7 P80 ... ... : ... .. . ... : ... .. . ... : ... .. . ... ...
ROW 61 : ... .. . ... ... ... : ... .. . P7F ... ... : ... .. . ... : ... .. . ... : ... .. . ... ...
ROW 62 : ... .. . ... ... ... : ... .. 6 ... ... ... : ... .. . ... : ... .. . ... : ... .. . ... ...
ROW 63 : ... .. . ... ... ... : ... .. . P80 ... ... : ... .. . ... : ... .. . ... : ... .. . ... ...
ROW 64 : ... .. . ... ... ... : ... .. . P81 ... ... : ... .. . ... : ... .. . ... : ... .. . ... ...
ROW 65 : ... .. . ... ... ... : ... .. . ... ... ... : ... .. . ... : ... .. . ... : ... .. . ... ...
ROW 66 : A#1 00 D P8A ... ... : D-4 00 9 P80 ... ... : D-4 00 . ... : ... .. . ... : ... .. . ... ...
ROW 67 : D-2 00 E P80 ... ... : ... .. B ... ... ... : ... .. . ... : ... .. . ... : ... .. . ... ...
ROW 68 : ... .. C ... ... ... : ... .. . ... ... ... : ... .. . ... : ... .. . ... : ... .. . ... ...
ROW 69 : ... .. B ... ... ... : ... .. . ... ... ... : ... .. . ... : ... .. . ... : ... .. . ... ...
ROW 6A : ... .. A ... ... ... : ... .. . ... ... ... : ... .. . ... : ... .. . ... : ... .. . ... ...
ROW 6B : ... .. 0 ... ... ... : ... .. . ... ... ... : ... .. . ... : ... .. . ... : ... .. . ... ...
ROW 6C : A#1 00 D P8A ... ... : ... .. . ... ... ... : ... .. . ... : ... .. . ... : ... .. . ... ...
ROW 6D : D-2 00 E P80 ... ... : ... .. . ... ... ... : ... .. . ... : ... .. . ... : ... .. . ... ...
ROW 6E : ... .. C ... ... ... : ... .. . ... ... ... : ... .. . ... : ... .. . ... : ... .. . ... ...
ROW 6F : ... .. B ... ... ... : ... .. . ... ... ... : ... .. . ... : ... .. . ... : ... .. . ... ...
ROW 70 : ... .. 0 ... ... ... : ... .. . P81 ... ... : ... .. . ... : ... .. . ... : ... .. . ... ...
ROW 71 : A#1 00 D P8A ... ... : ... .. . ... ... ... : ... .. . ... : ... .. . ... : ... .. . ... ...
ROW 72 : D-2 00 E P80 ... ... : ... .. . ... ... ... : ... .. . ... : ... .. . ... : ... .. . ... ...
ROW 73 : ... .. C ... ... ... : ... .. . P80 ... ... : ... .. . ... : ... .. . ... : ... .. . ... ...
ROW 74 : ... .. B ... ... ... : ... .. . P7F ... ... : ... .. . ... : ... .. . ... : ... .. . ... ...
ROW 75 : ... .. A ... ... ... : ... .. . ... ... ... : ... .. . ... : ... .. . ... : ... .. . ... ...
ROW 76 : ... .. 9 ... ... ... : ... .. . ... ... ... : ... .. . ... : ... .. . ... : ... .. . ... ...
ROW 77 : ... .. . ... ... ... : ... .. . P80 ... ... : ... .. . ... : ... .. . ... : ... .. . ... ...
ROW 78 : ... .. . ... ... ... : ... .. . P81 ... ... : ... .. . ... : ... .. . ... : ... .. . ... ...
ROW 79 : ... .. . ... ... ... : ... .. . ... ... ... : ... .. . ... : ... .. . ... : ... .. . ... ...
ROW 7A : ... .. . ... ... ... : ... .. . ... ... ... : ... .. . ... : ... .. . ... : ... .. . ... ...
ROW 7B : ... .. . ... ... ... : ... .. A P80 ... ... : ... .. . ... : ... .. . ... : ... .. . ... ...
ROW 7C : ... .. . ... ... ... : ... .. . P7F ... ... : ... .. . ... : ... .. . ... : ... .. . ... ...
ROW 7D : ... .. . ... ... ... : ... .. . ... ... ... : ... .. . ... : ... .. F ... : ... .. . ... ...
ROW 7E : ... .. . ... ... ... : ... .. 9 P80 ... ... : ... .. . ... : ... .. . ... : ... .. . ... ...
ROW 7F : ... .. . ... ... ... : ... .. . P81 ... ... : ... .. . ... : ... .. 0 ... : ... .. . ... ...
ROW 80 : ... .. . ... ... ... : ... .. 8 ... ... ... : ... .. . ... : ... .. . ... : ... .. . ... ...
ROW 81 : ... .. . ... ... ... : ... .. . ... ... ... : ... .. . ... : ... .. . ... : ... .. . ... ...
ROW 82 : ... .. . ... ... ... : ... .. . ... ... ... : ... .. . ... : ... .. . ... : ... .. . ... ...
ROW 83 : ... .. . ... ... ... : ... .. 7 P80 ... ... : ... .. . ... : ... .. . ... : ... .. . ... ...
ROW 84 : ... .. . ... ... ... : ... .. . P7F ... ... : ... .. . ... : ... .. . ... : ... .. . ... ...
ROW 85 : ... .. . ... ... ... : ... .. 6 ... ... ... : ... .. . ... : ... .. . ... : ... .. . ... ...
ROW 86 : ... .. . ... ... ... : ... .. . P80 ... ... : ... .. . ... : ... .. . ... : ... .. . ... ...
ROW 87 : ... .. . ... ... ... : ... .. . P81 ... ... : ... .. . ... : ... .. . ... : ... .. . ... ...
ROW 88 : ... .. . ... ... ... : ... .. . ... ... ... : ... .. . ... : ... .. . ... : ... .. . ... ...
ROW 89 : ... .. . ... ... ... : ... .. . ... ... ... : ... .. . ... : ... .. . ... : ... .. . ... ...
ROW 8A : ... .. . ... ... ... : ... .. . P80 ... ... : ... .. . ... : ... .. . ... : ... .. . ... ...
ROW 8B : ... .. . ... ... ... : ... .. . P7F ... ... : ... .. . ... : ... .. . ... : ... .. . ... ...
ROW 8C : ... .. . ... ... ... : ... .. . ... ... ... : ... .. . ... : ... .. . ... : ... .. . ... ...
ROW 8D : ... .. . ... ... ... : ... .. . ... ... ... : ... .. . ... : ... .. . ... : ... .. . ... ...
ROW 8E : ... .. . ... ... ... : ... .. . P80 ... ... : ... .. . ... : ... .. . ... : ... .. . ... ...
ROW 8F : ... .. . ... ... ... : ... .. . P81 ... ... : ... .. . ... : ... .. . ... : ... .. . ... ...
ROW 90 : ... .. . ... ... ... : ... .. . ... ... ... : ... .. . ... : ... .. . ... : ... .. . ... ...
ROW 91 : ... .. . ... ... ... : ... .. . ... ... ... : ... .. . ... : ... .. . ... : ... .. . ... ...
ROW 92 : ... .. . ... ... ... : ... .. . P80 ... ... : ... .. . ... : ... .. . ... : ... .. . ... ...
ROW 93 : ... .. . ... ... ... : ... .. . P7F ... ... : ... .. . ... : ... .. . ... : ... .. . ... ...
ROW 94 : ... .. . ... ... ... : A-2 00 9 P80 ... ... : ... .. . ... : ... .. . ... : ... .. . ... ...
ROW 95 : ... .. . ... ... ... : ... .. B ... ... ... : ... .. . ... : ... .. . ... : ... .. . ... ...
ROW 96 : ... .. . ... ... ... : ... .. . ... ... ... : ... .. . ... : ... .. . ... : ... .. . ... ...
ROW 97 : ... .. . ... ... ... : ... .. . ... ... ... : ... .. . ... : ... .. . ... : ... .. . ... ...
ROW 98 : ... .. . ... ... ... : ... .. . ... ... ... : ... .. . ... : ... .. . ... : ... .. . ... ...
ROW 99 : ... .. . ... ... ... : ... .. . ... ... ... : ... .. . ... : ... .. . ... : ... .. . ... ...
ROW 9A : ... .. . ... ... ... : ... .. . ... ... ... : ... .. . ... : ... .. . ... : ... .. . ... ...
ROW 9B : ... .. . ... ... ... : ... .. . ... ... ... : ... .. . ... : ... .. . ... : ... .. . ... ...
ROW 9C : ... .. . ... ... ... : ... .. . ... ... ... : ... .. . ... : ... .. . ... : ... .. . ... ...
ROW 9D : ... .. . ... ... ... : ... .. . ... ... ... : ... .. . ... : ... .. . ... : ... .. . ... ...
ROW 9E : ... .. . ... ... ... : ... .. . ... ... ... : ... .. . ... : ... .. . ... : ... .. . ... ...
ROW 9F : ... .. . ... ... ... : ... .. . P81 ... ... : ... .. . ... : ... .. . ... : ... .. . ... ...
ROW A0 : ... .. . ... ... ... : ... .. . ... ... ... : ... .. . ... : ... .. . ... : ... .. . ... ...
ROW A1 : ... .. . ... ... ... : ... .. . ... ... ... : ... .. . ... : ... .. . ... : ... .. . ... ...
ROW A2 : ... .. . ... ... ... : ... .. . P80 ... ... : ... .. . ... : ... .. . ... : ... .. . ... ...
ROW A3 : ... .. . ... ... ... : ... .. . P7F ... ... : ... .. . ... : ... .. . ... : ... .. . ... ...
ROW A4 : ... .. . ... ... ... : ... .. . ... ... ... : ... .. . ... : ... .. . ... : ... .. . ... ...
ROW A5 : ... .. . ... ... ... : ... .. . ... ... ... : ... .. . ... : ... .. . ... : ... .. . ... ...
ROW A6 : ... .. . ... ... ... : ... .. . P80 ... ... : ... .. . ... : ... .. . ... : ... .. . ... ...
ROW A7 : ... .. . ... ... ... : ... .. . P81 ... ... : ... .. . ... : ... .. . ... : ... .. . ... ...
ROW A8 : ... .. . ... ... ... : ... .. . ... ... ... : ... .. . ... : ... .. . ... : ... .. . ... ...
ROW A9 : ... .. . ... ... ... : ... .. . ... ... ... : ... .. . ... : ... .. . ... : ... .. . ... ...
ROW AA : ... .. . ... ... ... : ... .. A P80 ... ... : ... .. . ... : ... .. . ... : ... .. . ... ...
ROW AB : ... .. . ... ... ... : ... .. . P7F ... ... : ... .. . ... : ... .. . ... : ... .. . ... ...
ROW AC : ... .. . ... ... ... : ... .. . ... ... ... : ... .. . ... : ... .. F ... : ... .. . ... ...
ROW AD : ... .. . ... ... ... : ... .. 9 P80 ... ... : ... .. . ... : ... .. . ... : ... .. . ... ...
ROW AE : ... .. . ... ... ... : ... .. . P81 ... ... : ... .. . ... : ... .. 0 ... : ... .. . ... ...
ROW AF : ... .. . ... ... ... : ... .. 8 ... ... ... : ... .. . ... : ... .. . ... : ... .. . ... ...
ROW B0 : ... .. . ... ... ... : ... .. . ... ... ... : ... .. . ... : ... .. . ... : ... .. . ... ...
ROW B1 : ... .. . ... ... ... : ... .. . ... ... ... : ... .. . ... : ... .. . ... : ... .. . ... ...
ROW B2 : ... .. . ... ... ... : ... .. 7 P80 ... ... : ... .. . ... : ... .. . ... : ... .. . ... ...
ROW B3 : ... .. . ... ... ... : ... .. . P7F ... ... : ... .. . ... : ... .. . ... : ... .. . ... ...
ROW B4 : ... .. . ... ... ... : ... .. 6 ... ... ... : ... .. . ... : ... .. . ... : ... .. . ... ...
ROW B5 : ... .. . ... ... ... : ... .. . P80 ... ... : ... .. . ... : ... .. . ... : ... .. . ... ...
ROW B6 : ... .. . ... ... ... : ... .. . P81 ... ... : ... .. . ... : ... .. . ... : ... .. . ... ...
ROW B7 : ... .. . ... ... ... : ... .. . ... ... ... : ... .. . ... : ... .. . ... : ... .. . ... ...
ROW B8 : ... .. . ... ... ... : ... .. . P80 ... ... : ... .. . ... : ... .. . ... : ... .. . ... ...
ROW B9 : ... .. . ... ... ... : ... .. . P7F ... ... : ... .. . ... : ... .. . ... : ... .. . ... ...
ROW BA : ... .. . ... ... ... : ... .. . ... ... ... : ... .. . ... : ... .. . ... : ... .. . ... ...
ROW BB : ... .. . ... ... ... : ... .. . ... ... ... : ... .. . ... : ... .. . ... : ... .. . ... ...
ROW BC : ... .. . ... ... ... : ... .. . P80 ... ... : ... .. . ... : ... .. . ... : ... .. . ... ...
ROW BD : ... .. . ... ... ... : ... .. . P81 ... ... : ... .. . ... : ... .. . ... : ... .. . ... ...
ROW BE : ... .. . ... ... ... : ... .. . ... ... ... : ... .. . ... : ... .. . ... : ... .. . ... ...
ROW BF : ... .. . ... ... ... : ... .. . ... ... ... : ... .. . ... : ... .. . ... : ... .. . ... ...
ROW C0 : ... .. . ... ... ... : ... .. . P80 ... ... : ... .. . ... : ... .. . ... : ... .. . ... ...
ROW C1 : ... .. . ... ... ... : ... .. . P7F ... ... : ... .. . ... : ... .. . ... : ... .. . ... ...
ROW C2 : ... .. 0 ... ... ... : ... .. . ... ... ... : ... .. . ... : ... .. . ... : ... .. . ... ...
ROW C3 : C-2 00 D P8A ... ... : C#4 00 9 P80 ... ... : E-4 00 . ... : ... .. . ... : ... .. . ... ...
ROW C4 : E-2 00 E P80 ... ... : ... .. B ... ... ... : ... .. . ... : ... .. . ... : ... .. . ... ...
ROW C5 : ... .. C ... ... ... : ... .. . ... ... ... : ... .. . ... : ... .. . ... : ... .. . ... ...
ROW C6 : ... .. B ... ... ... : ... .. . ... ... ... : ... .. . ... : ... .. . ... : ... .. . ... ...
ROW C7 : ... .. A ... ... ... : ... .. . ... ... ... : ... .. . ... : ... .. . ... : ... .. . ... ...
ROW C8 : ... .. 0 ... ... ... : ... .. . ... ... ... : ... .. . ... : ... .. . ... : ... .. . ... ...
ROW C9 : C-2 00 D P8A ... ... : ... .. . ... ... ... : ... .. . ... : ... .. . ... : ... .. . ... ...
ROW CA : E-2 00 E P80 ... ... : ... .. . ... ... ... : ... .. . ... : ... .. . ... : ... .. . ... ...
ROW CB : ... .. C ... ... ... : ... .. . ... ... ... : ... .. . ... : ... .. . ... : ... .. . ... ...
ROW CC : ... .. B ... ... ... : ... .. . ... ... ... : ... .. . ... : ... .. . ... : ... .. . ... ...
ROW CD : ... .. A ... ... ... : ... .. . ... ... ... : ... .. . ... : ... .. . ... : ... .. . ... ...
ROW CE : ... .. 0 ... ... ... : ... .. . P81 ... ... : ... .. . ... : ... .. . ... : ... .. . ... ...
ROW CF : C-2 00 D P8A ... ... : ... .. . ... ... ... : ... .. . ... : ... .. . ... : ... .. . ... ...
ROW D0 : E-2 00 E P80 ... ... : ... .. . ... ... ... : ... .. . ... : ... .. . ... : ... .. . ... ...
ROW D1 : ... .. C ... ... ... : ... .. . P80 ... ... : ... .. . ... : ... .. . ... : ... .. . ... ...
ROW D2 : ... .. B ... ... ... : ... .. . P7F ... ... : ... .. . ... : ... .. . ... : ... .. . ... ...
ROW D3 : ... .. A ... ... ... : ... .. . ... ... ... : ... .. . ... : ... .. . ... : ... .. . ... ...
ROW D4 : ... .. 9 ... ... ... : ... .. . ... ... ... : ... .. . ... : ... .. . ... : ... .. . ... ...
ROW D5 : ... .. . ... ... ... : ... .. . P80 ... ... : ... .. . ... : ... .. . ... : ... .. . ... ...
ROW D6 : ... .. . ... ... ... : ... .. . P81 ... ... : ... .. . ... : ... .. . ... : ... .. . ... ...
ROW D7 : ... .. . ... ... ... : ... .. . ... ... ... : ... .. . ... : ... .. . ... : ... .. . ... ...
ROW D8 : ... .. . ... ... ... : ... .. . ... ... ... : ... .. . ... : ... .. . ... : ... .. . ... ...
ROW D9 : ... .. . ... ... ... : ... .. A P7F ... ... : ... .. . ... : ... .. . ... : ... .. . ... ...
ROW DA : ... .. . ... ... ... : ... .. . ... ... ... : ... .. . ... : ... .. F ... : ... .. . ... ...
ROW DB : ... .. . ... ... ... : ... .. 9 P80 ... ... : ... .. . ... : ... .. . ... : ... .. . ... ...
ROW DC : ... .. . ... ... ... : ... .. . P81 ... ... : ... .. . ... : ... .. 0 ... : ... .. . ... ...
ROW DD : ... .. . ... ... ... : ... .. 8 ... ... ... : ... .. . ... : ... .. . ... : ... .. . ... ...
ROW DE : ... .. . ... ... ... : ... .. . ... ... ... : ... .. . ... : ... .. . ... : ... .. . ... ...
ROW DF : ... .. . ... ... ... : ... .. . ... ... ... : ... .. . ... : ... .. . ... : ... .. . ... ...
ROW E0 : ... .. . ... ... ... : ... .. 7 P80 ... ... : ... .. . ... : ... .. . ... : ... .. . ... ...
ROW E1 : ... .. . ... ... ... : ... .. . P7F ... ... : ... .. . ... : ... .. . ... : ... .. . ... ...
ROW E2 : ... .. . ... ... ... : ... .. 6 ... ... ... : ... .. . ... : ... .. . ... : ... .. . ... ...
ROW E3 : ... .. . ... ... ... : ... .. . P80 ... ... : ... .. . ... : ... .. . ... : ... .. . ... ...
ROW E4 : ... .. . ... ... ... : ... .. . P81 ... ... : ... .. . ... : ... .. . ... : ... .. . ... ...
ROW E5 : ... .. . ... ... ... : ... .. . ... ... ... : ... .. . ... : ... .. . ... : ... .. . ... ...
ROW E6 : ... .. . ... ... ... : A-3 00 9 P80 ... ... : ... .. . ... : ... .. . ... : ... .. . ... ...
ROW E7 : ... .. . ... ... ... : ... .. B ... ... ... : ... .. . ... : ... .. . ... : ... .. . ... ...
ROW E8 : ... .. . ... ... ... : ... .. . ... ... ... : ... .. . ... : ... .. . ... : ... .. . ... ...
ROW E9 : ... .. . ... ... ... : ... .. . ... ... ... : ... .. . ... : ... .. . ... : ... .. . ... ...
ROW EA : ... .. . ... ... ... : ... .. . ... ... ... : ... .. . ... : ... .. . ... : ... .. . ... ...
ROW EB : ... .. . ... ... ... : ... .. . ... ... ... : ... .. . ... : ... .. . ... : ... .. . ... ...
ROW EC : ... .. . ... ... ... : ... .. . ... ... ... : ... .. . ... : ... .. . ... : ... .. . ... ...
ROW ED : ... .. . ... ... ... : ... .. . ... ... ... : ... .. . ... : ... .. . ... : ... .. . ... ...
ROW EE : ... .. . ... ... ... : ... .. . ... ... ... : ... .. . ... : ... .. . ... : ... .. . ... ...
ROW EF : ... .. . ... ... ... : ... .. . ... ... ... : ... .. . ... : ... .. . ... : ... .. . ... ...
ROW F0 : ... .. . ... ... ... : ... .. . ... ... ... : ... .. . ... : ... .. . ... : ... .. . ... ...
ROW F1 : ... .. . ... ... ... : ... .. . P81 ... ... : ... .. . ... : ... .. . ... : ... .. . ... ...
ROW F2 : ... .. . ... ... ... : ... .. . ... ... ... : ... .. . ... : ... .. . ... : ... .. . ... ...
ROW F3 : ... .. . ... ... ... : ... .. . ... ... ... : ... .. . ... : ... .. . ... : ... .. . ... ...
ROW F4 : ... .. . ... ... ... : ... .. . P80 ... ... : ... .. . ... : ... .. . ... : ... .. . ... ...
ROW F5 : ... .. . ... ... ... : ... .. . P7F ... ... : ... .. . ... : ... .. . ... : ... .. . ... ...
ROW F6 : ... .. . ... ... ... : ... .. . ... ... ... : ... .. . ... : ... .. . ... : ... .. . ... ...
ROW F7 : ... .. . ... ... ... : ... .. . ... ... ... : ... .. . ... : ... .. . ... : ... .. . ... ...
ROW F8 : ... .. . ... ... ... : ... .. . P80 ... ... : ... .. . ... : ... .. . ... : ... .. . ... ...
ROW F9 : ... .. . ... ... ... : ... .. . P81 ... ... : ... .. . ... : ... .. . ... : ... .. . ... ...
ROW FA : ... .. . ... ... ... : ... .. . ... ... ... : ... .. . ... : ... .. . ... : ... .. . ... ...
ROW FB : ... .. . ... ... ... : ... .. . ... ... ... : ... .. . ... : ... .. . ... : ... .. . ... ...
ROW FC : ... .. . ... ... ... : ... .. A P7F ... ... : ... .. . ... : ... .. . ... : ... .. . ... ...
ROW FD : ... .. . ... ... ... : ... .. . ... ... ... : ... .. . ... : ... .. . ... : ... .. . ... ...
ROW FE : ... .. . ... ... ... : ... .. 9 P80 ... ... : ... .. . ... : ... .. . ... : ... .. . ... ...
ROW FF : ... .. . ... ... ... : ... .. . P81 ... ... : ... .. . ... : ... .. . ... : ... .. . ... ...

PATTERN 0D
ROW 00 : ... .. . ... ... ... : ... .. 8 ... ... ... : ... .. . ... : ... .. . ... : ... .. . ... ...
ROW 01 : ... .. . ... ... ... : ... .. . ... ... ... : ... .. . ... : ... .. . ... : ... .. . ... ...
ROW 02 : ... .. . ... ... ... : ... .. . ... ... ... : ... .. . ... : ... .. . ... : ... .. . ... ...
ROW 03 : ... .. . ... ... ... : ... .. 7 P80 ... ... : ... .. . ... : ... .. . ... : ... .. . ... ...
ROW 04 : ... .. . ... ... ... : ... .. . P7F ... ... : ... .. . ... : ... .. . ... : ... .. . ... ...
ROW 05 : ... .. . ... ... ... : ... .. 6 ... ... ... : ... .. . ... : ... .. . ... : ... .. . ... ...
ROW 06 : ... .. . ... ... ... : ... .. . P80 ... ... : ... .. . ... : ... .. . ... : ... .. . ... ...
ROW 07 : ... .. . ... ... ... : ... .. . P81 ... ... : ... .. . ... : ... .. . ... : ... .. . ... ...
ROW 08 : ... .. . ... ... ... : ... .. . ... ... ... : ... .. . ... : ... .. . ... : ... .. . ... ...
ROW 09 : F#2 00 B ... ... ... : F#3 00 9 P80 ... ... : ... .. . ... : 4-# 00 F ... : C-0 00 . Z40 ...
ROW 0A : ... .. . ... V00 ... : ... .. B ... ... ... : ... .. . ... : ... .. 0 ... : ... .. . ... ...
ROW 0B : ... .. . ... ... ... : ... .. . ... ... ... : ... .. . ... : ... .. . ... : ... .. . ... ...
ROW 0C : ... .. 7 ... ... ... : ... .. . ... ... ... : ... .. . ... : ... .. . ... : ... .. . ... ...
ROW 0D : ... .. 6 ... ... ... : ... .. . ... ... ... : ... .. . ... : ... .. . ... : ... .. . ... ...
ROW 0E : ... .. 5 ... ... ... : ... .. . ... ... ... : ... .. . ... : ... .. . ... : ... .. . ... ...
ROW 0F : E-2 00 B ... V02 ... : ... .. . ... ... ... : ... .. . ... : ... .. . ... : C-0 00 . Z40 ...
ROW 10 : ... .. . ... V00 ... : ... .. . ... ... ... : ... .. . ... : ... .. . ... : ... .. . ... ...
ROW 11 : ... .. . ... ... ... : ... .. . ... ... ... : ... .. . ... : ... .. . ... : ... .. . ... ...
ROW 12 : ... .. 7 ... ... ... : ... .. . ... ... ... : ... .. . ... : ... .. . ... : ... .. . ... ...
ROW 13 : ... .. 6 ... ... ... : ... .. . ... ... ... : ... .. . ... : ... .. . ... : ... .. . ... ...
ROW 14 : ... .. 5 ... ... ... : ... .. . P81 ... ... : ... .. . ... : ... .. . ... : ... .. . ... ...
ROW 15 : D-2 00 B ... V02 ... : ... .. . ... ... ... : ... .. . ... : ... .. F ... : C#0 00 . Z40 ...
ROW 16 : ... .. . ... V00 ... : ... .. . ... ... ... : ... .. . ... : ... .. 0 ... : ... .. . ... ...
ROW 17 : ... .. . ... ... ... : ... .. . P80 ... ... : ... .. . ... : ... .. . ... : ... .. . ... ...
ROW 18 : ... .. 7 ... ... ... : ... .. . P7F ... ... : ... .. . ... : ... .. . ... : ... .. . ... ...
ROW 19 : ... .. 6 ... ... ... : ... .. . ... ... ... : ... .. . ... : ... .. . ... : ... .. . ... ...
ROW 1A : ... .. 5 ... ... ... : ... .. . ... ... ... : ... .. . ... : ... .. . ... : ... .. . ... ...
ROW 1B : C#2 00 B ... V02 ... : ... .. . P80 ... ... : ... .. . ... : ... .. . ... : C#0 00 . Z40 ...
ROW 1C : ... .. . ... V00 ... : ... .. . P81 ... ... : ... .. . ... : ... .. . ... : ... .. . ... ...
ROW 1D : ... .. . ... ... ... : ... .. . ... ... ... : ... .. . ... : ... .. . ... : ... .. . ... ...
ROW 1E : ... .. 7 ... ... ... : ... .. . ... ... ... : ... .. . ... : ... .. . ... : ... .. . ... ...
ROW 1F : ... .. 5 ... ... ... : ... .. A P7F ... ... : ... .. . ... : ... .. . ... : ... .. . ... ...
ROW 20 : B-3 00 F ... ... ... : B-1 00 B P80 ... ... : B-4 00 . P82 : ... .. F ... : D-0 00 . Z40 ...
ROW 21 : ... .. . P81 V02 ... : ... .. . ... V00 ... : ... .. . P80 : ... .. . ... : ... .. . ... ...
ROW 22 : ... .. . ... ... ... : ... .. . ... ... ... : ... .. . ... : ... .. 0 ... : ... .. . ... ...
ROW 23 : ... .. . P80 ... ... : ... .. 7 ... ... ... : ... .. . ... : ... .. . ... : ... .. . ... ...
ROW 24 : ... .. . P7F ... ... : ... .. 6 ... ... ... : ... .. . P7E : ... .. . ... : ... .. . ... ...
ROW 25 : ... .. . ... ... ... : ... .. 5 ... ... ... : ... .. . P7F : ... .. . ... : ... .. . ... ...
ROW 26 : ... .. . ... ... ... : ... .. 4 ... ... ... : ... .. . P80 : ... .. . ... : ... .. . ... ...
ROW 27 : ... .. . P81 ... ... : ... .. . ... ... ... : ... .. . ... : ... .. . ... : ... .. . ... ...
ROW 28 : ... .. . ... ... ... : ... .. . ... ... ... : ... .. . ... : ... .. . ... : ... .. . ... ...
ROW 29 : ... .. E ... ... ... : ... .. . ... ... ... : ... .. . ... : ... .. . ... : ... .. . ... ...
ROW 2A : ... .. D P80 ... ... : ... .. . ... ... ... : ... .. . ... : ... .. . ... : ... .. . ... ...
ROW 2B : ... .. C P7F ... ... : ... .. 0 ... ... ... : ... .. . ... : ... .. . ... : ... .. . ... ...
ROW 2C : ... .. B ... ... ... : B-1 00 B P80 V02 ... : ... .. . ... : C-# 00 F ... : C#0 00 . Z40 ...
ROW 2D : ... .. 9 P80 ... ... : ... .. . ... V00 ... : ... .. . ... : ... .. . ... : ... .. . ... ...
ROW 2E : ... .. 8 P81 ... ... : ... .. . ... ... ... : ... .. . ... : ... .. 0 ... : ... .. . ... ...
ROW 2F : ... .. 7 ... ... ... : ... .. 7 ... ... ... : ... .. . ... : ... .. . ... : ... .. . ... ...
ROW 30 : ... .. . ... ... ... : ... .. 6 ... ... ... : ... .. . ... : ... .. . ... : ... .. . ... ...
ROW 31 : ... .. . P80 ... ... : ... .. 0 ... ... ... : ... .. . ... : ... .. . ... : ... .. . ... ...
ROW 32 : ... .. . P7F ... ... : B-1 00 B P80 V02 ... : A-4 00 . P82 : ... .. F ... : C#0 00 . Z40 ...
ROW 33 : ... .. . ... ... ... : ... .. . ... V00 ... : ... .. . P80 : ... .. . ... : ... .. . ... ...
ROW 34 : ... .. . P80 ... ... : ... .. . ... ... ... : ... .. . ... : ... .. 0 ... : ... .. . ... ...
ROW 35 : ... .. . P81 ... ... : ... .. 7 ... ... ... : ... .. . ... : ... .. . ... : ... .. . ... ...
ROW 36 : ... .. . ... ... ... : ... .. 6 ... ... ... : ... .. . P7E : ... .. . ... : ... .. . ... ...
ROW 37 : ... .. . ... ... ... : ... .. 0 ... ... ... : ... .. . P7F : ... .. . ... : ... .. . ... ...
ROW 38 : ... .. . P80 ... ... : B-1 00 B P80 V02 ... : F#4 00 . P82 : 4-# 00 F ... : D#0 00 . Z40 ...
ROW 39 : ... .. . P7F ... ... : ... .. . ... V00 ... : ... .. . P80 : ... .. . ... : ... .. . ... ...
ROW 3A : ... .. . ... ... ... : ... .. . ... ... ... : ... .. . ... : ... .. 0 ... : ... .. . ... ...
ROW 3B : ... .. . P80 ... ... : ... .. 7 ... ... ... : ... .. . ... : ... .. . ... : ... .. . ... ...
ROW 3C : ... .. . P81 ... ... : ... .. 6 ... ... ... : ... .. . P7E : ... .. . ... : ... .. . ... ...
ROW 3D : ... .. . ... ... ... : ... .. 5 ... ... ... : ... .. . P7F : ... .. . ... : ... .. . ... ...
ROW 3E : ... .. . ... ... ... : ... .. 4 ... ... ... : ... .. . P80 : ... .. . ... : ... .. . ... ...
ROW 3F : ... .. . P7F ... ... : ... .. . ... ... ... : ... .. . ... : ... .. . ... : ... .. . ... ...
ROW 40 : ... .. . ... ... ... : ... .. . ... ... ... : ... .. . ... : ... .. . ... : ... .. . ... ...
ROW 41 : ... .. . ... ... ... : ... .. . ... ... ... : ... .. . ... : ... .. . ... : ... .. . ... ...
ROW 42 : ... .. . P81 ... ... : ... .. 0 ... ... ... : ... .. . ... : ... .. . ... : ... .. . ... ...
ROW 43 : ... .. . ... ... ... : ... .. B ... V02 ... : ... .. . ... : C-# 00 F ... : C#0 00 . Z40 ...
ROW 44 : ... .. . P80 ... ... : ... .. . ... V00 ... : ... .. . ... : ... .. . ... : ... .. . ... ...
ROW 45 : ... .. . P7F ... ... : ... .. . ... ... ... : ... .. . ... : ... .. 0 ... : ... .. . ... ...
ROW 46 : ... .. . ... ... ... : ... .. 7 ... ... ... : ... .. . ... : ... .. . ... : ... .. . ... ...
ROW 47 : ... .. . ... ... ... : ... .. 6 ... ... ... : ... .. . ... : ... .. . ... : ... .. . ... ...
ROW 48 : ... .. . P80 ... ... : ... .. 0 ... ... ... : ... .. . ... : ... .. . ... : ... .. . ... ...
ROW 49 : ... .. . P81 ... ... : B-1 00 B P80 V02 ... : A-4 00 . P82 : ... .. F ... : C#0 00 . Z40 ...
ROW 4A : ... .. . ... ... ... : ... .. . ... V00 ... : ... .. . P80 : ... .. . ... : ... .. . ... ...
ROW 4B : ... .. . P80 ... ... : ... .. . ... ... ... : ... .. . ... : ... .. 0 ... : ... .. . ... ...
ROW 4C : ... .. . P7F ... ... : ... .. 7 ... ... ... : ... .. . ... : ... .. . ... : ... .. . ... ...
ROW 4D : ... .. . ... ... ... : ... .. 6 ... ... ... : ... .. . P7E : ... .. . ... : ... .. . ... ...
ROW 4E : ... .. . ... ... ... : ... .. 0 ... ... ... : ... .. . P7F : ... .. . ... : ... .. . ... ...
ROW 4F : ... .. . P80 ... ... : B-1 00 B P80 V02 ... : B-4 00 . P82 : 4-# 00 F ... : D-0 00 . Z40 ...
ROW 50 : ... .. . P81 ... ... : ... .. . ... V00 ... : ... .. . P80 : ... .. . ... : ... .. . ... ...
ROW 51 : ... .. . ... ... ... : ... .. . ... ... ... : ... .. . ... : ... .. 0 ... : ... .. . ... ...
ROW 52 : ... .. . P80 ... ... : ... .. 7 ... ... ... : ... .. . ... : ... .. . ... : ... .. . ... ...
ROW 53 : ... .. . P7F ... ... : ... .. 6 ... ... ... : ... .. . P7E : ... .. . ... : ... .. . ... ...
ROW 54 : ... .. . ... ... ... : ... .. 5 ... ... ... : --- .. . ... : ... .. . ... : ... .. . ... ...
ROW 55 : ... .. . ... ... ... : ... .. 4 ... ... ... : ... .. . ... : ... .. . ... : ... .. . ... ...
ROW 56 : ... .. . P81 ... ... : ... .. . ... ... ... : ... .. . ... : ... .. . ... : ... .. . ... ...
ROW 57 : ... .. . ... ... ... : ... .. . ... ... ... : ... .. . ... : ... .. . ... : ... .. . ... ...
ROW 58 : ... .. . ... ... ... : ... .. . ... ... ... : ... .. . ... : ... .. . ... : ... .. . ... ...
ROW 59 : ... .. . P80 ... ... : ... .. . ... ... ... : ... .. . ... : ... .. . ... : ... .. . ... ...
ROW 5A : ... .. . P7F ... ... : ... .. 0 ... ... ... : ... .. . ... : ... .. . ... : ... .. . ... ...
ROW 5B : F#3 00 F P80 V00 ... : B-1 00 B P80 V02 ... : B-4 00 . P82 : C-# 00 F ... : C#0 00 . Z40 ...
ROW 5C : ... .. . P81 V02 ... : ... .. . ... V00 ... : ... .. . P80 : ... .. . ... : ... .. . ... ...
ROW 5D : ... .. . ... ... ... : ... .. . ... ... ... : ... .. . ... : ... .. 0 ... : ... .. . ... ...
ROW 5E : ... .. . P80 ... ... : ... .. 7 ... ... ... : ... .. . ... : ... .. . ... : ... .. . ... ...
ROW 5F : ... .. . P7F ... ... : ... .. 6 ... ... ... : ... .. . P7E : ... .. . ... : ... .. . ... ...
ROW 60 : ... .. . ... ... ... : ... .. 0 ... ... ... : ... .. . P7F : ... .. . ... : ... .. . ... ...
ROW 61 : ... .. . ... ... ... : B-1 00 B P80 V02 ... : A-4 00 . P82 : ... .. F ... : C#0 00 . Z40 ...
ROW 62 : ... .. . P81 ... ... : ... .. . ... V00 ... : ... .. . P80 : ... .. . ... : ... .. . ... ...
ROW 63 : ... .. . ... ... ... : ... .. . ... ... ... : ... .. . ... : ... .. 0 ... : ... .. . ... ...
ROW 64 : ... .. E ... ... ... : ... .. 7 ... ... ... : ... .. . ... : ... .. . ... : ... .. . ... ...
ROW 65 : ... .. C P7F ... ... : ... .. 0 ... ... ... : ... .. . P7F : ... .. . ... : ... .. . ... ...
ROW 66 : B-3 00 F P80 V00 ... : ... .. B ... V02 ... : F#4 00 . P82 : 4-# 00 F ... : D#0 00 . Z40 ...
ROW 67 : ... .. . P81 V02 ... : ... .. . ... V00 ... : ... .. . P80 : ... .. . ... : ... .. . ... ...
ROW 68 : ... .. . ... ... ... : ... .. . ... ... ... : ... .. . ... : ... .. 0 ... : ... .. . ... ...
ROW 69 : ... .. . P80 ... ... : ... .. 7 ... ... ... : ... .. . ... : ... .. . ... : ... .. . ... ...
ROW 6A : ... .. . P7F ... ... : ... .. 6 ... ... ... : ... .. . P7E : ... .. . ... : ... .. . ... ...
ROW 6B : ... .. . ... ... ... : ... .. 5 ... ... ... : ... .. . P7F : ... .. . ... : ... .. . ... ...
ROW 6C : ... .. . ... ... ... : ... .. 4 ... ... ... : ... .. . P80 : ... .. . ... : ... .. . ... ...
ROW 6D : ... .. . P81 ... ... : ... .. . ... ... ... : ... .. . ... : ... .. . ... : ... .. . ... ...
ROW 6E : ... .. . ... ... ... : ... .. . ... ... ... : ... .. . ... : ... .. . ... : ... .. . ... ...
ROW 6F : ... .. E ... ... ... : ... .. . ... ... ... : ... .. . ... : ... .. . ... : ... .. . ... ...
ROW 70 : ... .. D P80 ... ... : ... .. . ... ... ... : ... .. . ... : ... .. . ... : ... .. . ... ...
ROW 71 : ... .. C P7F ... ... : ... .. 0 ... ... ... : ... .. . ... : ... .. . ... : ... .. . ... ...
ROW 72 : D-4 00 F P80 V00 ... : B-1 00 B P80 V02 ... : ... .. . ... : C-# 00 F ... : C#0 00 . Z40 ...
ROW 73 : ... .. . P81 V02 ... : ... .. . ... V00 ... : ... .. . ... : ... .. . ... : ... .. . ... ...
ROW 74 : ... .. . ... ... ... : ... .. . ... ... ... : ... .. . ... : ... .. 0 ... : ... .. . ... ...
ROW 75 : ... .. . P80 ... ... : ... .. 7 ... ... ... : ... .. . ... : ... .. . ... : ... .. . ... ...
ROW 76 : ... .. . P7F ... ... : ... .. 6 ... ... ... : ... .. . ... : ... .. . ... : ... .. . ... ...
ROW 77 : ... .. . ... ... ... : ... .. 0 ... ... ... : ... .. . ... : ... .. . ... : ... .. . ... ...
ROW 78 : ... .. . ... ... ... : B-1 00 B P80 V02 ... : A-4 00 . P82 : ... .. F ... : C#0 00 . Z40 ...
ROW 79 : ... .. . P81 ... ... : ... .. . ... V00 ... : ... .. . P80 : ... .. . ... : ... .. . ... ...
ROW 7A : ... .. . ... ... ... : ... .. . ... ... ... : ... .. . ... : ... .. 0 ... : ... .. . ... ...
ROW 7B : ... .. E ... ... ... : ... .. 7 ... ... ... : ... .. . ... : ... .. . ... : ... .. . ... ...
ROW 7C : ... .. D P80 ... ... : ... .. 6 ... ... ... : ... .. . P7E : ... .. . ... : ... .. . ... ...
ROW 7D : ... .. C P7F ... ... : ... .. 0 ... ... ... : ... .. . P7F : ... .. . ... : ... .. . ... ...
ROW 7E : C#4 00 F P80 V00 ... : A-1 00 B P80 V02 ... : C#5 00 . P82 : 4-# 00 F ... : D-0 00 . Z40 ...
ROW 7F : ... .. . P81 V02 ... : ... .. . ... V00 ... : ... .. . P80 : ... .. . ... : ... .. . ... ...
ROW 80 : ... .. . ... ... ... : ... .. . ... ... ... : ... .. . ... : ... .. 0 ... : ... .. . ... ...
ROW 81 : ... .. . P80 ... ... : ... .. 7 ... ... ... : ... .. . ... : ... .. . ... : ... .. . ... ...
ROW 82 : ... .. . P7F ... ... : ... .. 6 ... ... ... : ... .. . P7E : ... .. . ... : ... .. . ... ...
ROW 83 : ... .. 0 ... ... ... : ... .. 5 ... ... ... : ... .. . P7F : ... .. . ... : ... .. . ... ...
ROW 84 : ... .. . ... ... ... : ... .. 4 ... ... ... : ... .. . P80 : ... .. . ... : ... .. . ... ...
ROW 85 : ... .. . ... ... ... : ... .. . ... ... ... : ... .. . ... : ... .. . ... : ... .. . ... ...
ROW 86 : ... .. . ... ... ... : ... .. . ... ... ... : ... .. . ... : ... .. . ... : ... .. . ... ...
ROW 87 : ... .. . ... ... ... : ... .. . ... ... ... : ... .. . ... : ... .. . ... : ... .. . ... ...
ROW 88 : ... .. . ... ... ... : ... .. 0 ... ... ... : ... .. . ... : ... .. . ... : ... .. . ... ...
ROW 89 : ... .. . ... ... ... : ... .. B ... V02 ... : ... .. . ... : C-# 00 F ... : C#0 00 . Z40 ...
ROW 8A : ... .. . ... ... ... : ... .. . ... V00 ... : ... .. . ... : ... .. . ... : ... .. . ... ...
ROW 8B : ... .. . ... ... ... : ... .. . ... ... ... : ... .. . ... : ... .. 0 ... : ... .. . ... ...
ROW 8C : ... .. . ... ... ... : ... .. 7 ... ... ... : ... .. . ... : ... .. . ... : ... .. . ... ...
ROW 8D : ... .. . ... ... ... : ... .. 6 ... ... ... : ... .. . ... : ... .. . ... : ... .. . ... ...
ROW 8E : ... .. . ... ... ... : ... .. 0 ... ... ... : ... .. . ... : ... .. . ... : ... .. . ... ...
ROW 8F : A-3 00 F P80 V00 ... : A-1 00 B P80 V02 ... : A-4 00 . P82 : ... .. F ... : C#0 00 . Z40 ...
ROW 90 : ... .. . P81 V02 ... : ... .. . ... V00 ... : ... .. . P80 : ... .. . ... : ... .. . ... ...
ROW 91 : ... .. . ... ... ... : ... .. . ... ... ... : ... .. . ... : ... .. 0 ... : ... .. . ... ...
ROW 92 : ... .. . P80 ... ... : ... .. 7 ... ... ... : ... .. . ... : ... .. . ... : ... .. . ... ...
ROW 93 : ... .. . P7F ... ... : ... .. 6 ... ... ... : ... .. . P7E : ... .. . ... : ... .. . ... ...
ROW 94 : ... .. . ... ... ... : ... .. 0 ... ... ... : ... .. . P7F : ... .. . ... : ... .. . ... ...
ROW 95 : E-3 00 F P80 V00 ... : A-1 00 B P80 V02 ... : E-4 00 . P82 : 4-# 00 F ... : D#0 00 . Z40 ...
ROW 96 : ... .. . P81 V02 ... : ... .. . ... V00 ... : ... .. . P80 : ... .. . ... : ... .. . ... ...
ROW 97 : ... .. . ... ... ... : ... .. . ... ... ... : ... .. . ... : ... .. 0 ... : ... .. . ... ...
ROW 98 : ... .. . P80 ... ... : ... .. 7 ... ... ... : ... .. . ... : ... .. . ... : ... .. . ... ...
ROW 99 : ... .. . P7F ... ... : ... .. 6 ... ... ... : ... .. . P7E : ... .. . ... : ... .. . ... ...
ROW 9A : ... .. . ... ... ... : ... .. 5 ... ... ... : ... .. . P7F : ... .. . ... : ... .. . ... ...
ROW 9B : ... .. . ... ... ... : ... .. 4 ... ... ... : ... .. . P80 : ... .. . ... : ... .. . ... ...
ROW 9C : ... .. . P81 ... ... : ... .. . ... ... ... : ... .. . ... : ... .. . ... : ... .. . ... ...
ROW 9D : ... .. . ... ... ... : ... .. . ... ... ... : ... .. . ... : ... .. . ... : ... .. . ... ...
ROW 9E : ... .. E ... ... ... : ... .. . ... ... ... : ... .. . ... : ... .. . ... : ... .. . ... ...
ROW 9F : ... .. D P80 ... ... : ... .. . ... ... ... : ... .. . ... : ... .. . ... : ... .. . ... ...
ROW A0 : ... .. C P7F ... ... : ... .. 0 ... ... ... : ... .. . ... : ... .. . ... : ... .. . ... ...
ROW A1 : ... .. B ... ... ... : A-1 00 B P80 V02 ... : ... .. . ... : C-# 00 F ... : C#0 00 . Z40 ...
ROW A2 : ... .. 9 P80 ... ... : ... .. . ... V00 ... : ... .. . ... : ... .. . ... : ... .. . ... ...
ROW A3 : ... .. 8 P81 ... ... : ... .. . ... ... ... : ... .. . ... : ... .. 0 ... : ... .. . ... ...
ROW A4 : ... .. 7 ... ... ... : ... .. 7 ... ... ... : ... .. . ... : ... .. . ... : ... .. . ... ...
ROW A5 : ... .. . ... ... ... : ... .. 6 ... ... ... : ... .. . ... : ... .. . ... : ... .. . ... ...
ROW A6 : ... .. . P80 ... ... : ... .. 0 ... ... ... : ... .. . ... : ... .. . ... : ... .. . ... ...
ROW A7 : ... .. . P7F ... ... : A-1 00 B P80 V02 ... : A-4 00 . P82 : ... .. F ... : C#0 00 . Z40 ...
ROW A8 : ... .. . ... ... ... : ... .. . ... V00 ... : ... .. . P80 : ... .. . ... : ... .. . ... ...
ROW A9 : ... .. . P80 ... ... : ... .. . ... ... ... : ... .. . ... : ... .. 0 ... : ... .. . ... ...
ROW AA : ... .. . P81 ... ... : ... .. 7 ... ... ... : ... .. . ... : ... .. . ... : ... .. . ... ...
ROW AB : ... .. . ... ... ... : ... .. 0 ... ... ... : ... .. . P7F : ... .. . ... : ... .. . ... ...
ROW AC : ... .. . P80 ... ... : ... .. B ... V02 ... : C#5 00 . P82 : 4-# 00 F ... : D-0 00 . Z40 ...
ROW AD : ... .. . P7F ... ... : ... .. . ... V00 ... : ... .. . P80 : ... .. . ... : ... .. . ... ...
ROW AE : ... .. . ... ... ... : ... .. . ... ... ... : ... .. . ... : ... .. 0 ... : ... .. . ... ...
ROW AF : ... .. . P80 ... ... : ... .. 7 ... ... ... : ... .. . ... : ... .. . ... : ... .. . ... ...
ROW B0 : ... .. . P81 ... ... : ... .. 6 ... ... ... : ... .. . P7E : ... .. . ... : ... .. . ... ...
ROW B1 : ... .. . ... ... ... : ... .. 5 ... ... ... : --- .. . ... : ... .. . ... : ... .. . ... ...
ROW B2 : ... .. . ... ... ... : ... .. 4 ... ... ... : ... .. . ... : ... .. . ... : ... .. . ... ...
ROW B3 : ... .. . P7F ... ... : ... .. . ... ... ... : ... .. . ... : ... .. . ... : ... .. . ... ...
ROW B4 : ... .. . ... ... ... : ... .. . ... ... ... : ... .. . ... : ... .. . ... : ... .. . ... ...
ROW B5 : ... .. . ... ... ... : ... .. . ... ... ... : ... .. . ... : ... .. . ... : ... .. . ... ...
ROW B6 : ... .. . P80 ... ... : ... .. . ... ... ... : ... .. . ... : ... .. . ... : ... .. . ... ...
ROW B7 : ... .. . P81 ... ... : ... .. 0 ... ... ... : ... .. . ... : ... .. . ... : ... .. . ... ...
ROW B8 : ... .. . ... ... ... : A-1 00 B P80 V02 ... : C#5 00 . P82 : C-# 00 F ... : C#0 00 . Z40 ...
ROW B9 : ... .. . P80 ... ... : ... .. . ... V00 ... : ... .. . P80 : ... .. . ... : ... .. . ... ...
ROW BA : ... .. . P7F ... ... : ... .. . ... ... ... : ... .. . ... : ... .. 0 ... : ... .. . ... ...
ROW BB : ... .. . ... ... ... : ... .. 7 ... ... ... : ... .. . ... : ... .. . ... : ... .. . ... ...
ROW BC : ... .. . ... ... ... : ... .. 6 ... ... ... : ... .. . P7E : ... .. . ... : ... .. . ... ...
ROW BD : ... .. . P80 ... ... : ... .. 0 ... ... ... : ... .. . P7F : ... .. . ... : ... .. . ... ...
ROW BE : ... .. . P81 ... ... : A-1 00 B P80 V02 ... : A-4 00 . P82 : ... .. F ... : C#0 00 . Z40 ...
ROW BF : ... .. . ... ... ... : ... .. . ... V00 ... : ... .. . P80 : ... .. . ... : ... .. . ... ...
ROW C0 : ... .. . P80 ... ... : ... .. . ... ... ... : ... .. . ... : ... .. 0 ... : ... .. . ... ...
ROW C1 : ... .. . P7F ... ... : ... .. 7 ... ... ... : ... .. . ... : ... .. . ... : ... .. . ... ...
ROW C2 : ... .. . ... ... ... : ... .. 6 ... ... ... : ... .. . P7E : ... .. . ... : ... .. . ... ...
ROW C3 : ... .. . ... ... ... : ... .. 0 ... ... ... : ... .. . P7F : ... .. . ... : ... .. . ... ...
ROW C4 : ... .. . P80 ... ... : F#1 00 B P80 V02 ... : E-4 00 . P82 : 4-# 00 F ... : D#0 00 . Z40 ...
ROW C5 : ... .. . P81 ... ... : ... .. . ... V00 ... : ... .. . P80 : ... .. . ... : ... .. . ... ...
ROW C6 : ... .. . ... ... ... : ... .. . ... ... ... : ... .. . ... : ... .. 0 ... : ... .. . ... ...
ROW C7 : ... .. . P80 ... ... : ... .. 7 ... ... ... : ... .. . ... : ... .. . ... : ... .. . ... ...
ROW C8 : ... .. . P7F ... ... : ... .. 6 ... ... ... : ... .. . P7E : ... .. . ... : ... .. . ... ...
ROW C9 : ... .. . ... ... ... : ... .. 5 ... ... ... : ... .. . P7F : ... .. . ... : ... .. . ... ...
ROW CA : ... .. . ... ... ... : ... .. 4 ... ... ... : ... .. . P80 : ... .. . ... : ... .. . ... ...
ROW CB : ... .. . P81 ... ... : ... .. . ... ... ... : ... .. . ... : ... .. . ... : ... .. . ... ...
ROW CC : ... .. . ... ... ... : ... .. . ... ... ... : ... .. . ... : ... .. . ... : ... .. . ... ...
ROW CD : ... .. . ... ... ... : ... .. . ... ... ... : ... .. . ... : ... .. . ... : ... .. . ... ...
ROW CE : ... .. . P7F ... ... : ... .. . ... ... ... : ... .. . ... : ... .. . ... : ... .. . ... ...
ROW CF : B-3 00 F P80 V00 ... : A-1 00 B ... V02 ... : ... .. . ... : C-# 00 F ... : C#0 00 . Z40 ...
ROW D0 : ... .. . P81 V02 ... : ... .. . ... V00 ... : ... .. . ... : ... .. . ... : ... .. . ... ...
ROW D1 : ... .. . ... ... ... : ... .. . ... ... ... : ... .. . ... : ... .. 0 ... : ... .. . ... ...
ROW D2 : ... .. . P80 ... ... : ... .. 7 ... ... ... : ... .. . ... : ... .. . ... : ... .. . ... ...
ROW D3 : ... .. . P7F ... ... : ... .. 6 ... ... ... : ... .. . ... : ... .. . ... : ... .. . ... ...
ROW D4 : ... .. . ... ... ... : ... .. 5 ... ... ... : ... .. . ... : ... .. . ... : ... .. . ... ...
ROW D5 : C#4 00 F P80 V00 ... : ... .. 4 ... ... ... : A-4 00 . P82 : ... .. . ... : C#0 00 . Z40 ...
ROW D6 : ... .. . P81 V02 ... : ... .. . ... ... ... : ... .. . P80 : ... .. . ... : ... .. . ... ...
ROW D7 : ... .. . ... ... ... : ... .. . ... ... ... : ... .. . ... : ... .. . ... : ... .. . ... ...
ROW D8 : ... .. . P80 ... ... : ... .. . ... ... ... : ... .. . ... : ... .. . ... : ... .. . ... ...
ROW D9 : ... .. . P7F ... ... : ... .. . ... ... ... : ... .. . P7E : ... .. . ... : ... .. . ... ...
ROW DA : ... .. . ... ... ... : ... .. . ... ... ... : --- .. . ... : ... .. . ... : ... .. . ... ...
ROW DB : D-4 00 F P80 V00 ... : B-1 00 B ... V02 ... : B-4 00 . P82 : 4-# 00 F ... : D-0 00 . Z40 ...
ROW DC : ... .. . P81 V02 ... : ... .. . ... V00 ... : ... .. . P80 : ... .. . ... : ... .. . ... ...
ROW DD : ... .. . ... ... ... : ... .. . ... ... ... : ... .. . ... : ... .. 0 ... : ... .. . ... ...
ROW DE : ... .. . P80 ... ... : ... .. 7 ... ... ... : ... .. . ... : ... .. . ... : ... .. . ... ...
ROW DF : ... .. . P7F ... ... : ... .. 6 ... ... ... : ... .. . P7E : ... .. . ... : ... .. . ... ...
ROW E0 : ... .. . ... ... ... : ... .. 5 ... ... ... : ... .. . P7F : ... .. . ... : ... .. . ... ...
ROW E1 : ... .. . ... ... ... : ... .. 4 ... ... ... : ... .. . P80 : ... .. . ... : ... .. . ... ...
ROW E2 : ... .. . P81 ... ... : ... .. . ... ... ... : ... .. . ... : ... .. . ... : ... .. . ... ...
ROW E3 : ... .. . ... ... ... : ... .. . ... ... ... : ... .. . ... : ... .. . ... : ... .. . ... ...
ROW E4 : ... .. E ... ... ... : ... .. . ... ... ... : ... .. . ... : ... .. . ... : ... .. . ... ...
ROW E5 : ... .. D P80 ... ... : ... .. . ... ... ... : ... .. . ... : ... .. . ... : ... .. . ... ...
ROW E6 : ... .. C P7F ... ... : ... .. 0 ... ... ... : ... .. . ... : ... .. . ... : ... .. . ... ...
ROW E7 : ... .. B ... ... ... : B-1 00 B P80 V02 ... : ... .. . ... : C-# 00 F ... : C#0 00 . Z40 ...
ROW E8 : ... .. 9 P80 ... ... : ... .. . ... V00 ... : ... .. . ... : ... .. . ... : ... .. . ... ...
ROW E9 : ... .. 8 P81 ... ... : ... .. . ... ... ... : ... .. . ... : ... .. 0 ... : ... .. . ... ...
ROW EA : ... .. 7 ... ... ... : ... .. 7 ... ... ... : ... .. . ... : ... .. . ... : ... .. . ... ...
ROW EB : ... .. . ... ... ... : ... .. 6 ... ... ... : ... .. . ... : ... .. . ... : ... .. . ... ...
ROW EC : ... .. . P80 ... ... : ... .. 0 ... ... ... : ... .. . ... : ... .. . ... : ... .. . ... ...
ROW ED : ... .. . P7F ... ... : B-1 00 B P80 V02 ... : A-4 00 . P82 : ... .. F ... : C#0 00 . Z40 ...
ROW EE : ... .. . ... ... ... : ... .. . ... V00 ... : ... .. . P80 : ... .. . ... : ... .. . ... ...
ROW EF : ... .. . P80 ... ... : ... .. . ... ... ... : ... .. . ... : ... .. 0 ... : ... .. . ... ...
ROW F0 : ... .. . P81 ... ... : ... .. 7 ... ... ... : ... .. . ... : ... .. . ... : ... .. . ... ...
ROW F1 : ... .. . ... ... ... : ... .. 0 ... ... ... : ... .. . P7F : ... .. . ... : ... .. . ... ...
ROW F2 : ... .. . P80 ... ... : ... .. B ... V02 ... : F#4 00 . P82 : 4-# 00 F ... : D#0 00 . Z40 ...
ROW F3 : ... .. . P7F ... ... : ... .. . ... V00 ... : ... .. . P80 : ... .. . ... : ... .. . ... ...
ROW F4 : ... .. . ... ... ... : ... .. . ... ... ... : ... .. . ... : ... .. 0 ... : ... .. . ... ...
ROW F5 : ... .. . P80 ... ... : ... .. 7 ... ... ... : ... .. . ... : ... .. . ... : ... .. . ... ...
ROW F6 : ... .. . P81 ... ... : ... .. 6 ... ... ... : ... .. . P7E : ... .. . ... : ... .. . ... ...
ROW F7 : ... .. . ... ... ... : ... .. 5 ... ... ... : ... .. . P7F : ... .. . ... : ... .. . ... ...
ROW F8 : ... .. . ... ... ... : ... .. 4 ... ... ... : ... .. . P80 : ... .. . ... : ... .. . ... ...
ROW F9 : ... .. . P7F ... ... : ... .. . ... ... ... : ... .. . ... : ... .. . ... : ... .. . ... ...
ROW FA : ... .. . ... ... ... : ... .. . ... ... ... : ... .. . ... : ... .. . ... : ... .. . ... ...
ROW FB : ... .. . ... ... ... : ... .. . ... ... ... : ... .. . ... : ... .. . ... : ... .. . ... ...
ROW FC : ... .. . P80 ... ... : ... .. . ... ... ... : ... .. . ... : ... .. . ... : ... .. . ... ...
ROW FD : ... .. . P81 ... ... : ... .. 0 ... ... ... : ... .. . ... : ... .. . ... : ... .. . ... ...
ROW FE : ... .. . ... ... ... : B-1 00 B P80 V02 ... : ... .. . ... : C-# 00 F ... : C#0 00 . Z40 ...
ROW FF : ... .. . P80 ... ... : ... .. . ... V00 ... : ... .. . ... : ... .. . ... : ... .. . ... ...

PATTERN 0E
ROW 00 : ... .. . P7F ... ... : ... .. . ... ... ... : ... .. . ... : ... .. 0 ... : ... .. . ... ...
ROW 01 : ... .. . ... ... ... : ... .. 7 ... ... ... : ... .. . ... : ... .. . ... : ... .. . ... ...
ROW 02 : ... .. . ... ... ... : ... .. 6 ... ... ... : ... .. . ... : ... .. . ... : ... .. . ... ...
ROW 03 : ... .. . P80 ... ... : ... .. 0 ... ... ... : ... .. . ... : ... .. . ... : ... .. . ... ...
ROW 04 : ... .. . P81 ... ... : B-1 00 B P80 V02 ... : A-4 00 . P82 : ... .. F ... : C#0 00 . Z40 ...
ROW 05 : ... .. . ... ... ... : ... .. . ... V00 ... : ... .. . P80 : ... .. . ... : ... .. . ... ...
ROW 06 : ... .. . P80 ... ... : ... .. . ... ... ... : ... .. . ... : ... .. 0 ... : ... .. . ... ...
ROW 07 : ... .. . P7F ... ... : ... .. 7 ... ... ... : ... .. . ... : ... .. . ... : ... .. . ... ...
ROW 08 : ... .. . ... ... ... : ... .. 6 ... ... ... : ... .. . P7E : ... .. . ... : ... .. . ... ...
ROW 09 : ... .. . ... ... ... : ... .. 0 ... ... ... : ... .. . P7F : ... .. . ... : ... .. . ... ...
ROW 0A : ... .. . P80 ... ... : B-1 00 B P80 V02 ... : B-4 00 . P82 : 4-# 00 F ... : D-0 00 . Z40 ...
ROW 0B : ... .. . P81 ... ... : ... .. . ... V00 ... : ... .. . P80 : ... .. . ... : ... .. . ... ...
ROW 0C : ... .. . ... ... ... : ... .. . ... ... ... : ... .. . ... : ... .. 0 ... : ... .. . ... ...
ROW 0D : ... .. . P80 ... ... : ... .. 7 ... ... ... : ... .. . ... : ... .. . ... : ... .. . ... ...
ROW 0E : ... .. . P7F ... ... : ... .. 6 ... ... ... : ... .. . P7E : ... .. . ... : ... .. . ... ...
ROW 0F : ... .. . ... ... ... : ... .. 5 ... ... ... : --- .. . ... : ... .. . ... : ... .. . ... ...
ROW 10 : ... .. . ... ... ... : ... .. 4 ... ... ... : ... .. . ... : ... .. . ... : ... .. . ... ...
ROW 11 : ... .. . P81 ... ... : ... .. . ... ... ... : ... .. . ... : ... .. . ... : ... .. . ... ...
ROW 12 : ... .. . ... ... ... : ... .. . ... ... ... : ... .. . ... : ... .. . ... : ... .. . ... ...
ROW 13 : ... .. . ... ... ... : ... .. . ... ... ... : ... .. . ... : ... .. . ... : ... .. . ... ...
ROW 14 : ... .. . P7F ... ... : ... .. 0 ... ... ... : ... .. . ... : ... .. . ... : ... .. . ... ...
ROW 15 : B-3 00 F P80 V00 ... : ... .. B ... V02 ... : B-4 00 . P82 : C-# 00 F ... : C#0 00 . Z40 ...
ROW 16 : ... .. . P81 V02 ... : ... .. . ... V00 ... : ... .. . P80 : ... .. . ... : ... .. . ... ...
ROW 17 : ... .. . ... ... ... : ... .. . ... ... ... : ... .. . ... : ... .. 0 ... : ... .. . ... ...
ROW 18 : ... .. . P80 ... ... : ... .. 7 ... ... ... : ... .. . ... : ... .. . ... : ... .. . ... ...
ROW 19 : ... .. . P7F ... ... : ... .. 6 ... ... ... : ... .. . P7E : ... .. . ... : ... .. . ... ...
ROW 1A : ... .. . ... ... ... : ... .. 0 ... ... ... : ... .. . P7F : ... .. . ... : ... .. . ... ...
ROW 1B : ... .. . ... ... ... : B-1 00 B P80 V02 ... : A-4 00 . P82 : ... .. F ... : C#0 00 . Z40 ...
ROW 1C : ... .. . P81 ... ... : ... .. . ... V00 ... : ... .. . P80 : ... .. . ... : ... .. . ... ...
ROW 1D : ... .. . ... ... ... : ... .. . ... ... ... : ... .. . ... : ... .. 0 ... : ... .. . ... ...
ROW 1E : ... .. E ... ... ... : ... .. 7 ... ... ... : ... .. . ... : ... .. . ... : ... .. . ... ...
ROW 1F : ... .. D P80 ... ... : ... .. 6 ... ... ... : ... .. . P7E : ... .. . ... : ... .. . ... ...
ROW 20 : ... .. C P7F ... ... : ... .. 0 ... ... ... : ... .. . P7F : ... .. . ... : ... .. . ... ...
ROW 21 : D-4 00 F P80 V00 ... : B-1 00 B P80 V02 ... : F#4 00 . P82 : 4-# 00 F ... : D#0 00 . Z40 ...
ROW 22 : ... .. . P81 V02 ... : ... .. . ... V00 ... : ... .. . P80 : ... .. . ... : ... .. . ... ...
ROW 23 : ... .. . ... ... ... : ... .. . ... ... ... : ... .. . ... : ... .. 0 ... : ... .. . ... ...
ROW 24 : ... .. . P80 ... ... : ... .. 7 ... ... ... : ... .. . ... : ... .. . ... : ... .. . ... ...
ROW 25 : ... .. . P7F ... ... : ... .. 6 ... ... ... : ... .. . P7E : ... .. . ... : ... .. . ... ...
ROW 26 : ... .. . ... ... ... : ... .. 5 ... ... ... : ... .. . P7F : ... .. . ... : ... .. . ... ...
ROW 27 : ... .. . ... ... ... : ... .. 4 ... ... ... : ... .. . P80 : ... .. . ... : ... .. . ... ...
ROW 28 : ... .. . P81 ... ... : ... .. . ... ... ... : ... .. . ... : ... .. . ... : ... .. . ... ...
ROW 29 : ... .. . ... ... ... : ... .. . ... ... ... : ... .. . ... : ... .. . ... : ... .. . ... ...
ROW 2A : ... .. E ... ... ... : ... .. . ... ... ... : ... .. . ... : ... .. . ... : ... .. . ... ...
ROW 2B : ... .. D P80 ... ... : ... .. . ... ... ... : ... .. . ... : ... .. . ... : ... .. . ... ...
ROW 2C : ... .. C P7F ... ... : ... .. 0 ... ... ... : ... .. . ... : ... .. . ... : ... .. . ... ...
ROW 2D : F#4 00 F P80 V00 ... : B-1 00 B P80 V02 ... : ... .. . ... : C-# 00 F ... : C#0 00 . Z40 ...
ROW 2E : ... .. . P81 V02 ... : ... .. . ... V00 ... : ... .. . ... : ... .. . ... : ... .. . ... ...
ROW 2F : ... .. . ... ... ... : ... .. . ... ... ... : ... .. . ... : ... .. 0 ... : ... .. . ... ...
ROW 30 : ... .. . P80 ... ... : ... .. 7 ... ... ... : ... .. . ... : ... .. . ... : ... .. . ... ...
ROW 31 : ... .. . P7F ... ... : ... .. 6 ... ... ... : ... .. . ... : ... .. . ... : ... .. . ... ...
ROW 32 : ... .. . ... ... ... : ... .. 0 ... ... ... : ... .. . ... : ... .. . ... : ... .. . ... ...
ROW 33 : ... .. . ... ... ... : B-1 00 B P80 V02 ... : A-4 00 . P82 : ... .. F ... : C#0 00 . Z40 ...
ROW 34 : ... .. . P81 ... ... : ... .. . ... V00 ... : ... .. . P80 : ... .. . ... : ... .. . ... ...
ROW 35 : ... .. . ... ... ... : ... .. . ... ... ... : ... .. . ... : ... .. 0 ... : ... .. . ... ...
ROW 36 : ... .. E ... ... ... : ... .. 7 ... ... ... : ... .. . ... : ... .. . ... : ... .. . ... ...
ROW 37 : ... .. C P7F ... ... : ... .. 0 ... ... ... : ... .. . P7F : ... .. . ... : ... .. . ... ...
ROW 38 : A-4 00 F P80 V00 ... : A-1 00 B ... V02 ... : C#5 00 . P82 : 4-# 00 F ... : D-0 00 . Z40 ...
ROW 39 : ... .. . P81 V02 ... : ... .. . ... V00 ... : ... .. . P80 : ... .. . ... : ... .. . ... ...
ROW 3A : ... .. . ... ... ... : ... .. . ... ... ... : ... .. . ... : ... .. 0 ... : ... .. . ... ...
ROW 3B : ... .. . P80 ... ... : ... .. 7 ... ... ... : ... .. . ... : ... .. . ... : ... .. . ... ...
ROW 3C : ... .. . P7F ... ... : ... .. 6 ... ... ... : ... .. . P7E : ... .. . ... : ... .. . ... ...
ROW 3D : ... .. 0 ... ... ... : ... .. 5 ... ... ... : ... .. . P7F : ... .. . ... : ... .. . ... ...
ROW 3E : ... .. . ... ... ... : ... .. 4 ... ... ... : ... .. . P80 : ... .. . ... : ... .. . ... ...
ROW 3F : ... .. . ... ... ... : ... .. . ... ... ... : ... .. . ... : ... .. . ... : ... .. . ... ...
ROW 40 : ... .. . ... ... ... : ... .. . ... ... ... : ... .. . ... : ... .. . ... : ... .. . ... ...
ROW 41 : ... .. . ... ... ... : ... .. . ... ... ... : ... .. . ... : ... .. . ... : ... .. . ... ...
ROW 42 : ... .. . ... ... ... : ... .. . ... ... ... : ... .. . ... : ... .. . ... : ... .. . ... ...
ROW 43 : ... .. . ... ... ... : ... .. 0 ... ... ... : ... .. . ... : ... .. . ... : ... .. . ... ...
ROW 44 : ... .. . ... ... ... : A-1 00 B P80 V02 ... : ... .. . ... : C-# 00 F ... : C#0 00 . Z40 ...
ROW 45 : ... .. . ... ... ... : ... .. . ... V00 ... : ... .. . ... : ... .. . ... : ... .. . ... ...
ROW 46 : ... .. . ... ... ... : ... .. . ... ... ... : ... .. . ... : ... .. 0 ... : ... .. . ... ...
ROW 47 : ... .. . ... ... ... : ... .. 7 ... ... ... : ... .. . ... : ... .. . ... : ... .. . ... ...
ROW 48 : ... .. . ... ... ... : ... .. 6 ... ... ... : ... .. . ... : ... .. . ... : ... .. . ... ...
ROW 49 : ... .. . ... ... ... : ... .. 0 ... ... ... : ... .. . ... : ... .. . ... : ... .. . ... ...
ROW 4A : E-4 00 F P80 V00 ... : A-1 00 B P80 V02 ... : A-4 00 . P82 : ... .. F ... : C#0 00 . Z40 ...
ROW 4B : ... .. . P81 V02 ... : ... .. . ... V00 ... : ... .. . P80 : ... .. . ... : ... .. . ... ...
ROW 4C : ... .. . ... ... ... : ... .. . ... ... ... : ... .. . ... : ... .. 0 ... : ... .. . ... ...
ROW 4D : ... .. . P80 ... ... : ... .. 7 ... ... ... : ... .. . ... : ... .. . ... : ... .. . ... ...
ROW 4E : ... .. . P7F ... ... : ... .. 6 ... ... ... : ... .. . P7E : ... .. . ... : ... .. . ... ...
ROW 4F : ... .. 0 ... ... ... : ... .. 0 ... ... ... : ... .. . P7F : ... .. . ... : ... .. . ... ...
ROW 50 : C#4 00 F P80 V00 ... : A-1 00 B P80 V02 ... : E-4 00 . P82 : 4-# 00 F ... : D#0 00 . Z40 ...
ROW 51 : ... .. . P81 V02 ... : ... .. . ... V00 ... : ... .. . P80 : ... .. . ... : ... .. . ... ...
ROW 52 : ... .. . ... ... ... : ... .. . ... ... ... : ... .. . ... : ... .. 0 ... : ... .. . ... ...
ROW 53 : ... .. . P80 ... ... : ... .. 7 ... ... ... : ... .. . ... : ... .. . ... : ... .. . ... ...
ROW 54 : ... .. . P7F ... ... : ... .. 6 ... ... ... : ... .. . P7E : ... .. . ... : ... .. . ... ...
ROW 55 : ... .. . ... ... ... : ... .. 5 ... ... ... : ... .. . P7F : ... .. . ... : ... .. . ... ...
ROW 56 : ... .. . ... ... ... : ... .. 4 ... ... ... : ... .. . P80 : ... .. . ... : ... .. . ... ...
ROW 57 : ... .. . P81 ... ... : ... .. . ... ... ... : ... .. . ... : ... .. . ... : ... .. . ... ...
ROW 58 : ... .. . ... ... ... : ... .. . ... ... ... : ... .. . ... : ... .. . ... : ... .. . ... ...
ROW 59 : ... .. E ... ... ... : ... .. . ... ... ... : ... .. . ... : ... .. . ... : ... .. . ... ...
ROW 5A : ... .. C P7F ... ... : ... .. 0 ... ... ... : ... .. . ... : ... .. . ... : ... .. . ... ...
ROW 5B : ... .. B ... ... ... : ... .. B ... V02 ... : ... .. . ... : C-# 00 F ... : C#0 00 . Z40 ...
ROW 5C : ... .. 9 P80 ... ... : ... .. . ... V00 ... : ... .. . ... : ... .. . ... : ... .. . ... ...
ROW 5D : ... .. 8 P81 ... ... : ... .. . ... ... ... : ... .. . ... : ... .. 0 ... : ... .. . ... ...
ROW 5E : ... .. 7 ... ... ... : ... .. 7 ... ... ... : ... .. . ... : ... .. . ... : ... .. . ... ...
ROW 5F : ... .. . ... ... ... : ... .. 6 ... ... ... : ... .. . ... : ... .. . ... : ... .. . ... ...
ROW 60 : ... .. . P80 ... ... : ... .. 0 ... ... ... : ... .. . ... : ... .. . ... : ... .. . ... ...
ROW 61 : ... .. . P7F ... ... : A-1 00 B P80 V02 ... : A-4 00 . P82 : ... .. F ... : C#0 00 . Z40 ...
ROW 62 : ... .. . ... ... ... : ... .. . ... V00 ... : ... .. . P80 : ... .. . ... : ... .. . ... ...
ROW 63 : ... .. . P80 ... ... : ... .. . ... ... ... : ... .. . ... : ... .. 0 ... : ... .. . ... ...
ROW 64 : ... .. . P81 ... ... : ... .. 7 ... ... ... : ... .. . ... : ... .. . ... : ... .. . ... ...
ROW 65 : ... .. . ... ... ... : ... .. 6 ... ... ... : ... .. . P7E : ... .. . ... : ... .. . ... ...
ROW 66 : ... .. . ... ... ... : ... .. 0 ... ... ... : ... .. . P7F : ... .. . ... : ... .. . ... ...
ROW 67 : ... .. . P80 ... ... : A-1 00 B P80 V02 ... : C#5 00 . P82 : 4-# 00 F ... : D-0 00 . Z40 ...
ROW 68 : ... .. . P7F ... ... : ... .. . ... V00 ... : ... .. . P80 : ... .. . ... : ... .. . ... ...
ROW 69 : ... .. . ... ... ... : ... .. . ... ... ... : ... .. . ... : ... .. 0 ... : ... .. . ... ...
ROW 6A : ... .. . P80 ... ... : ... .. 7 ... ... ... : ... .. . ... : ... .. . ... : ... .. . ... ...
ROW 6B : ... .. . P81 ... ... : ... .. 6 ... ... ... : ... .. . P7E : ... .. . ... : ... .. . ... ...
ROW 6C : ... .. . ... ... ... : ... .. 5 ... ... ... : --- .. . ... : ... .. . ... : ... .. . ... ...
ROW 6D : ... .. . ... ... ... : ... .. 4 ... ... ... : ... .. . ... : ... .. . ... : ... .. . ... ...
ROW 6E : ... .. . P7F ... ... : ... .. . ... ... ... : ... .. . ... : ... .. . ... : ... .. . ... ...
ROW 6F : ... .. . ... ... ... : ... .. . ... ... ... : ... .. . ... : ... .. . ... : ... .. . ... ...
ROW 70 : ... .. . ... ... ... : ... .. . ... ... ... : ... .. . ... : ... .. . ... : ... .. . ... ...
ROW 71 : ... .. . P80 ... ... : ... .. . ... ... ... : ... .. . ... : ... .. . ... : ... .. . ... ...
ROW 72 : ... .. . P81 ... ... : ... .. 0 ... ... ... : ... .. . ... : ... .. . ... : ... .. . ... ...
ROW 73 : ... .. . ... ... ... : A-1 00 B P80 V02 ... : C#5 00 . P82 : C-# 00 F ... : C#0 00 . Z40 ...
ROW 74 : ... .. . P80 ... ... : ... .. . ... V00 ... : ... .. . P80 : ... .. . ... : ... .. . ... ...
ROW 75 : ... .. . P7F ... ... : ... .. . ... ... ... : ... .. . ... : ... .. 0 ... : ... .. . ... ...
ROW 76 : ... .. . ... ... ... : ... .. 7 ... ... ... : ... .. . ... : ... .. . ... : ... .. . ... ...
ROW 77 : ... .. . ... ... ... : ... .. 6 ... ... ... : ... .. . P7E : ... .. . ... : ... .. . ... ...
ROW 78 : ... .. . P80 ... ... : ... .. 0 ... ... ... : ... .. . P7F : ... .. . ... : ... .. . ... ...
ROW 79 : ... .. . P81 ... ... : A-1 00 B P80 V02 ... : A-4 00 . P82 : ... .. F ... : C#0 00 . Z40 ...
ROW 7A : ... .. . ... ... ... : ... .. . ... V00 ... : ... .. . P80 : ... .. . ... : ... .. . ... ...
ROW 7B : ... .. . P80 ... ... : ... .. . ... ... ... : ... .. . ... : ... .. 0 ... : ... .. . ... ...
ROW 7C : ... .. . P7F ... ... : ... .. 7 ... ... ... : ... .. . ... : ... .. . ... : ... .. . ... ...
ROW 7D : ... .. . ... ... ... : ... .. 0 ... ... ... : ... .. . P7F : ... .. . ... : ... .. . ... ...
ROW 7E : ... .. . P80 ... ... : F#1 00 B ... V02 ... : E-4 00 . P82 : 4-# 00 F ... : D#0 00 . Z40 ...
ROW 7F : ... .. . P81 ... ... : ... .. . ... V00 ... : ... .. . P80 : ... .. . ... : ... .. . ... ...
ROW 80 : ... .. . ... ... ... : ... .. . ... ... ... : ... .. . ... : ... .. 0 ... : ... .. . ... ...
ROW 81 : ... .. . P80 ... ... : ... .. 7 ... ... ... : ... .. . ... : ... .. . ... : ... .. . ... ...
ROW 82 : ... .. . P7F ... ... : ... .. 6 ... ... ... : ... .. . P7E : ... .. . ... : ... .. . ... ...
ROW 83 : ... .. . ... ... ... : ... .. 5 ... ... ... : ... .. . P7F : ... .. . ... : ... .. . ... ...
ROW 84 : ... .. . ... ... ... : ... .. 4 ... ... ... : ... .. . P80 : ... .. . ... : ... .. . ... ...
ROW 85 : ... .. . P81 ... ... : ... .. . ... ... ... : ... .. . ... : ... .. . ... : ... .. . ... ...
ROW 86 : ... .. . ... ... ... : ... .. . ... ... ... : ... .. . ... : ... .. . ... : ... .. . ... ...
ROW 87 : ... .. . ... ... ... : ... .. . ... ... ... : ... .. . ... : ... .. . ... : ... .. . ... ...
ROW 88 : ... .. . P80 ... ... : ... .. . ... ... ... : ... .. . ... : ... .. . ... : ... .. . ... ...
ROW 89 : ... .. . P7F ... ... : ... .. . ... ... ... : ... .. . ... : ... .. . ... : ... .. . ... ...
ROW 8A : D-4 00 F P80 V00 ... : A-1 00 B ... V02 ... : ... .. . ... : C-# 00 F ... : C#0 00 . Z40 ...
ROW 8B : ... .. . P81 V02 ... : ... .. . ... V00 ... : ... .. . ... : ... .. . ... : ... .. . ... ...
ROW 8C : ... .. . ... ... ... : ... .. . ... ... ... : ... .. . ... : ... .. 0 ... : ... .. . ... ...
ROW 8D : ... .. . P80 ... ... : ... .. 7 ... ... ... : ... .. . ... : ... .. . ... : ... .. . ... ...
ROW 8E : ... .. . P7F ... ... : ... .. 6 ... ... ... : ... .. . ... : ... .. . ... : ... .. . ... ...
ROW 8F : ... .. . ... ... ... : ... .. 5 ... ... ... : ... .. . ... : ... .. . ... : ... .. . ... ...
ROW 90 : C#4 00 F P80 V00 ... : ... .. 4 ... ... ... : A-4 00 . P82 : ... .. . ... : C#0 00 . Z40 ...
ROW 91 : ... .. . P81 V02 ... : ... .. . ... ... ... : ... .. . P80 : ... .. . ... : ... .. . ... ...
ROW 92 : ... .. . ... ... ... : ... .. . ... ... ... : ... .. . ... : ... .. . ... : ... .. . ... ...
ROW 93 : ... .. . P80 ... ... : ... .. . ... ... ... : ... .. . ... : ... .. . ... : ... .. . ... ...
ROW 94 : ... .. . P7F ... ... : ... .. . ... ... ... : ... .. . P7E : ... .. . ... : ... .. . ... ...
ROW 95 : ... .. . ... ... ... : ... .. . ... ... ... : --- .. . ... : ... .. . ... : ... .. . ... ...
ROW 96 : B-3 00 9 P80 ... ... : B-1 00 B ... V02 ... : B-4 00 . P82 : 4-# 00 F ... : D-0 00 . Z40 ...
ROW 97 : ... .. B ... ... ... : ... .. . ... V00 ... : ... .. . P80 : ... .. . ... : ... .. . ... ...
ROW 98 : ... .. . ... ... ... : ... .. . ... ... ... : ... .. . ... : ... .. 0 ... : ... .. . ... ...
ROW 99 : ... .. . ... ... ... : ... .. 7 ... ... ... : ... .. . ... : ... .. . ... : ... .. . ... ...
ROW 9A : ... .. . ... ... ... : ... .. 6 ... ... ... : ... .. . P7E : ... .. . ... : ... .. . ... ...
ROW 9B : ... .. . ... ... ... : ... .. 5 ... ... ... : --- .. . ... : ... .. . ... : ... .. . ... ...
ROW 9C : ... .. . ... ... ... : ... .. 4 ... ... ... : ... .. . ... : ... .. . ... : ... .. . ... ...
ROW 9D : ... .. . ... ... ... : ... .. . ... ... ... : ... .. . ... : ... .. . ... : ... .. . ... ...
ROW 9E : ... .. . ... ... ... : ... .. . ... ... ... : ... .. . ... : ... .. . ... : ... .. . ... ...
ROW 9F : ... .. . ... ... ... : ... .. . ... ... ... : ... .. . ... : ... .. . ... : ... .. . ... ...
ROW A0 : ... .. . P81 ... ... : ... .. 0 ... ... ... : ... .. . ... : ... .. . ... : ... .. . ... ...
ROW A1 : ... .. . ... ... ... : ... .. B ... V02 ... : B-4 00 . P82 : C-# 00 F ... : D#0 00 . Z40 ...
ROW A2 : ... .. . ... ... ... : ... .. . ... V00 ... : ... .. . P80 : ... .. . ... : ... .. . ... ...
ROW A3 : ... .. . P80 ... ... : ... .. . ... ... ... : ... .. . ... : ... .. 0 ... : ... .. . ... ...
ROW A4 : ... .. . P7F ... ... : ... .. 7 ... ... ... : ... .. . ... : ... .. . ... : ... .. . ... ...
ROW A5 : ... .. . ... ... ... : ... .. 6 ... ... ... : ... .. . P7E : ... .. . ... : ... .. . ... ...
ROW A6 : ... .. . ... ... ... : ... .. 0 ... ... ... : ... .. . P7F : ... .. . ... : ... .. . ... ...
ROW A7 : ... .. . P80 ... ... : B-1 00 B P80 V02 ... : C#5 00 . P82 : ... .. F ... : C-0 00 . Z40 ...
ROW A8 : ... .. . P81 ... ... : ... .. . ... V00 ... : ... .. . P80 : ... .. . ... : ... .. . ... ...
ROW A9 : ... .. . ... ... ... : ... .. . ... ... ... : ... .. . ... : ... .. 0 ... : ... .. . ... ...
ROW AA : ... .. . ... ... ... : ... .. 7 ... ... ... : ... .. . ... : ... .. . ... : ... .. . ... ...
ROW AB : ... .. A P80 ... ... : ... .. 6 ... ... ... : ... .. . P7E : ... .. . ... : ... .. . ... ...
ROW AC : ... .. . P7F ... ... : ... .. 0 ... ... ... : ... .. . P7F : ... .. . ... : ... .. . ... ...
ROW AD : ... .. . ... ... ... : B-1 00 B P80 V02 ... : D-5 00 . P82 : 4-# 00 F ... : D#0 00 . Z40 ...
ROW AE : ... .. 9 P80 ... ... : ... .. . ... V00 ... : ... .. . P80 : ... .. . ... : ... .. . ... ...
ROW AF : ... .. . P81 ... ... : ... .. . ... ... ... : ... .. . ... : ... .. 0 ... : ... .. . ... ...
ROW B0 : ... .. 8 ... ... ... : ... .. 7 ... ... ... : ... .. . ... : ... .. . ... : ... .. . ... ...
ROW B1 : ... .. . ... ... ... : ... .. 6 ... ... ... : ... .. . P7E : ... .. . ... : ... .. . ... ...
ROW B2 : ... .. . ... ... ... : ... .. 5 ... ... ... : ... .. . P7F : ... .. . ... : ... .. . ... ...
ROW B3 : ... .. 7 P80 ... ... : ... .. 4 ... ... ... : ... .. . P80 : ... .. . ... : ... .. . ... ...
ROW B4 : ... .. . P7F ... ... : ... .. . ... ... ... : ... .. . ... : ... .. . ... : ... .. . ... ...
ROW B5 : ... .. 6 ... ... ... : ... .. . ... ... ... : ... .. . ... : ... .. . ... : ... .. . ... ...
ROW B6 : ... .. . P80 ... ... : ... .. . ... ... ... : ... .. . ... : ... .. . ... : ... .. . ... ...
ROW B7 : ... .. . P81 ... ... : ... .. . ... ... ... : ... .. . ... : ... .. . ... : ... .. . ... ...
ROW B8 : ... .. . ... ... ... : ... .. 0 ... ... ... : ... .. . ... : ... .. . ... : ... .. . ... ...
ROW B9 : ... .. . ... ... ... : B-1 00 B P80 V02 ... : E-5 00 . P82 : C-# 00 F ... : C-0 00 . Z40 ...
ROW BA : ... .. . P80 ... ... : ... .. . ... V00 ... : ... .. . P80 : ... .. . ... : ... .. . ... ...
ROW BB : ... .. . P7F ... ... : ... .. . ... ... ... : ... .. . ... : ... .. 0 ... : ... .. . ... ...
ROW BC : ... .. . ... ... ... : ... .. 7 ... ... ... : ... .. . ... : ... .. . ... : ... .. . ... ...
ROW BD : ... .. . ... ... ... : ... .. 6 ... ... ... : D#5 00 . P82 : ... .. . ... : ... .. . ... ...
ROW BE : ... .. . P80 ... ... : ... .. 0 ... ... ... : E-5 00 . P7F : ... .. . ... : ... .. . ... ...
ROW BF : ... .. . P81 ... ... : B-1 00 B P80 V02 ... : ... .. . P80 : ... .. F ... : C-0 00 . Z40 ...
ROW C0 : ... .. . ... ... ... : ... .. . ... V00 ... : ... .. . ... : ... .. . ... : ... .. . ... ...
ROW C1 : ... .. . ... ... ... : ... .. . ... ... ... : ... .. . ... : ... .. 0 ... : ... .. . ... ...
ROW C2 : ... .. . P80 ... ... : ... .. 7 ... ... ... : ... .. . ... : ... .. . ... : ... .. . ... ...
ROW C3 : ... .. . P7F ... ... : ... .. 0 ... ... ... : ... .. . ... : ... .. . ... : ... .. . ... ...
ROW C4 : ... .. . ... ... ... : ... .. B ... V02 ... : F#5 00 . P82 : 4-# 00 F ... : D-0 00 . Z40 ...
ROW C5 : ... .. . P81 ... ... : ... .. . ... V00 ... : ... .. . P80 : ... .. . ... : ... .. . ... ...
ROW C6 : ... .. . ... ... ... : ... .. . ... ... ... : ... .. . ... : ... .. 0 ... : ... .. . ... ...
ROW C7 : ... .. . ... ... ... : ... .. 7 ... ... ... : ... .. . ... : ... .. . ... : ... .. . ... ...
ROW C8 : ... .. . ... ... ... : ... .. 6 ... ... ... : F-5 00 . P82 : ... .. . ... : ... .. . ... ...
ROW C9 : ... .. . P80 ... ... : ... .. 5 ... ... ... : F#5 00 . P7F : ... .. . ... : ... .. . ... ...
ROW CA : ... .. . P7F ... ... : ... .. 4 ... ... ... : ... .. . P80 : ... .. . ... : ... .. . ... ...
ROW CB : ... .. . ... ... ... : ... .. . ... ... ... : ... .. . ... : ... .. . ... : ... .. . ... ...
ROW CC : ... .. . P80 ... ... : ... .. . ... ... ... : ... .. . ... : ... .. . ... : ... .. . ... ...
ROW CD : ... .. . P81 ... ... : ... .. . ... ... ... : ... .. . ... : ... .. . ... : ... .. . ... ...
ROW CE : ... .. . ... ... ... : ... .. . ... ... ... : ... .. . ... : ... .. . ... : ... .. . ... ...
ROW CF : ... .. . ... ... ... : ... .. 0 ... ... ... : ... .. . ... : ... .. . ... : ... .. . ... ...
ROW D0 : ... .. . ... ... ... : B-1 00 B P80 V02 ... : ... .. . ... : C-# 00 F ... : C-0 00 . Z40 ...
ROW D1 : ... .. . P7F ... ... : ... .. . ... V00 ... : ... .. . ... : ... .. . ... : ... .. . ... ...
ROW D2 : ... .. . ... ... ... : ... .. . ... ... ... : ... .. . ... : ... .. 0 ... : ... .. . ... ...
ROW D3 : ... .. . ... ... ... : ... .. 7 ... ... ... : ... .. . ... : ... .. . ... : ... .. . ... ...
ROW D4 : ... .. . P80 ... ... : ... .. 6 ... ... ... : ... .. . ... : ... .. . ... : ... .. . ... ...
ROW D5 : ... .. . P81 ... ... : ... .. 0 ... ... ... : ... .. . ... : ... .. . ... : ... .. . ... ...
ROW D6 : ... .. . ... ... ... : B-1 00 B P80 V02 ... : ... .. . ... : ... .. F ... : C-0 00 . Z40 ...
ROW D7 : ... .. . ... ... ... : ... .. . ... V00 ... : ... .. . ... : ... .. . ... : ... .. . ... ...
ROW D8 : ... .. . P80 ... ... : ... .. . ... ... ... : ... .. . ... : ... .. 0 ... : ... .. . ... ...
ROW D9 : ... .. . P7F ... ... : ... .. 7 ... ... ... : ... .. . ... : ... .. . ... : ... .. . ... ...
ROW DA : ... .. . ... ... ... : ... .. 6 ... ... ... : ... .. . ... : ... .. . ... : ... .. . ... ...
ROW DB : ... .. . ... ... ... : ... .. 0 ... ... ... : ... .. . ... : ... .. . ... : ... .. . ... ...
ROW DC : ... .. . P80 ... ... : B-1 00 B P80 V02 ... : ... .. . ... : 4-# 00 F ... : D#0 00 . Z40 ...
ROW DD : ... .. . P81 ... ... : ... .. . ... V00 ... : ... .. . ... : ... .. . ... : ... .. . ... ...
ROW DE : ... .. . ... ... ... : ... .. . ... ... ... : ... .. . ... : ... .. 0 ... : ... .. . ... ...
ROW DF : ... .. . ... ... ... : ... .. 7 ... ... ... : ... .. . ... : ... .. . ... : ... .. . ... ...
ROW E0 : ... .. . P80 ... ... : ... .. 6 ... ... ... : ... .. . ... : ... .. . ... : ... .. . ... ...
ROW E1 : ... .. . P7F ... ... : ... .. 5 ... ... ... : ... .. . ... : ... .. . ... : ... .. . ... ...
ROW E2 : ... .. . ... ... ... : ... .. 4 ... ... ... : ... .. . ... : ... .. . ... : ... .. . ... ...
ROW E3 : ... .. . P80 ... ... : ... .. . ... ... ... : ... .. . ... : ... .. . ... : ... .. . ... ...
ROW E4 : ... .. . P81 ... ... : ... .. . ... ... ... : ... .. . ... : ... .. . ... : ... .. . ... ...
ROW E5 : ... .. . ... ... ... : ... .. . ... ... ... : ... .. . ... : ... .. . ... : ... .. . ... ...
ROW E6 : ... .. . ... ... ... : ... .. 0 ... ... ... : ... .. . ... : ... .. . ... : ... .. . ... ...
ROW E7 : ... .. . P80 ... ... : ... .. B ... V02 ... : ... .. . ... : C-# 00 F ... : D#0 00 . Z40 ...
ROW E8 : ... .. . P7F ... ... : ... .. . ... V00 ... : ... .. . ... : ... .. . ... : ... .. . ... ...
ROW E9 : ... .. . ... ... ... : ... .. . ... ... ... : ... .. . ... : ... .. 0 ... : ... .. . ... ...
ROW EA : ... .. . P80 ... ... : ... .. 7 ... ... ... : ... .. . ... : ... .. . ... : ... .. . ... ...
ROW EB : ... .. . P81 ... ... : ... .. 6 ... ... ... : ... .. . ... : ... .. . ... : ... .. . ... ...
ROW EC : ... .. . ... ... ... : ... .. 0 ... ... ... : ... .. . ... : ... .. . ... : ... .. . ... ...
ROW ED : ... .. . ... ... ... : B-1 00 B P80 V02 ... : D-5 00 . P82 : ... .. F ... : ... .. . ... ...
ROW EE : ... .. . P80 ... ... : ... .. . ... V00 ... : ... .. . P80 : ... .. . ... : ... .. . ... ...
ROW EF : ... .. . P7F ... ... : ... .. . ... ... ... : ... .. . ... : ... .. 0 ... : ... .. . ... ...
ROW F0 : ... .. . ... ... ... : ... .. 7 ... ... ... : ... .. . ... : ... .. . ... : ... .. . ... ...
ROW F1 : ... .. . ... ... ... : ... .. 6 ... ... ... : ... .. . P7E : ... .. . ... : ... .. . ... ...
ROW F2 : ... .. . P80 ... ... : ... .. 0 ... ... ... : ... .. . P7F : ... .. . ... : ... .. . ... ...
ROW F3 : ... .. . P81 ... ... : A-1 00 B P80 V02 ... : E-5 00 . P82 : 4-# 00 F ... : D-0 00 . Z40 ...
ROW F4 : A-3 00 A P80 ... ... : ... .. . ... V00 ... : ... .. . P80 : ... .. . ... : ... .. . ... ...
ROW F5 : ... .. B ... ... ... : ... .. . ... ... ... : ... .. . ... : ... .. 0 ... : ... .. . ... ...
ROW F6 : ... .. . ... ... ... : ... .. 7 ... ... ... : ... .. . ... : ... .. . ... : ... .. . ... ...
ROW F7 : ... .. . ... ... ... : ... .. 6 ... ... ... : D#5 00 . P82 : ... .. . ... : ... .. . ... ...
ROW F8 : ... .. . ... ... ... : ... .. 5 ... ... ... : --- .. . ... : ... .. . ... : ... .. . ... ...
ROW F9 : ... .. . ... ... ... : ... .. 4 ... ... ... : ... .. . ... : ... .. . ... : ... .. . ... ...
ROW FA : ... .. . ... ... ... : ... .. . ... ... ... : ... .. . ... : ... .. . ... : ... .. . ... ...
ROW FB : ... .. . ... ... ... : ... .. . ... ... ... : ... .. . ... : ... .. . ... : ... .. . ... ...
ROW FC : ... .. . ... ... ... : ... .. . ... ... ... : ... .. . ... : ... .. . ... : ... .. . ... ...
ROW FD : ... .. . ... ... ... : ... .. . ... ... ... : ... .. . ... : ... .. . ... : ... .. . ... ...
ROW FE : ... .. . ... ... ... : ... .. 0 ... ... ... : ... .. . ... : ... .. . ... : ... .. . ... ...
ROW FF : ... .. . P81 ... ... : A-1 00 B P80 V02 ... : E-5 00 . ... : C-# 00 F ... : D#0 00 . Z40 ...

PATTERN 0F
ROW 00 : ... .. . ... ... ... : ... .. . ... V00 ... : ... .. . P80 : ... .. . ... : ... .. . ... ...
ROW 01 : ... .. . ... ... ... : ... .. . ... ... ... : ... .. . ... : ... .. 0 ... : ... .. . ... ...
ROW 02 : ... .. . P80 ... ... : ... .. 7 ... ... ... : ... .. . ... : ... .. . ... : ... .. . ... ...
ROW 03 : ... .. . P7F ... ... : ... .. 6 ... ... ... : D#5 00 . P82 : ... .. . ... : ... .. . ... ...
ROW 04 : ... .. . ... ... ... : ... .. 0 ... ... ... : E-5 00 . P7F : ... .. . ... : ... .. . ... ...
ROW 05 : ... .. . ... ... ... : A-1 00 B P80 V02 ... : D-5 00 . P82 : ... .. F ... : C-0 00 . Z40 ...
ROW 06 : ... .. . P81 ... ... : ... .. . ... V00 ... : ... .. . P80 : ... .. . ... : ... .. . ... ...
ROW 07 : ... .. . ... ... ... : ... .. . ... ... ... : ... .. . ... : ... .. 0 ... : ... .. . ... ...
ROW 08 : ... .. . ... ... ... : ... .. 7 ... ... ... : ... .. . ... : ... .. . ... : ... .. . ... ...
ROW 09 : ... .. A P80 ... ... : ... .. 0 ... ... ... : ... .. . P7F : ... .. . ... : ... .. . ... ...
ROW 0A : ... .. . P7F ... ... : ... .. B ... V02 ... : C#5 00 . P82 : 4-# 00 F ... : D#0 00 . Z40 ...
ROW 0B : ... .. 9 ... ... ... : ... .. . ... V00 ... : ... .. . P80 : ... .. . ... : ... .. . ... ...
ROW 0C : ... .. . P80 ... ... : ... .. . ... ... ... : ... .. . ... : ... .. 0 ... : ... .. . ... ...
ROW 0D : ... .. . P81 ... ... : ... .. 7 ... ... ... : ... .. . ... : ... .. . ... : ... .. . ... ...
ROW 0E : ... .. 8 ... ... ... : ... .. 6 ... ... ... : ... .. . P7E : ... .. . ... : ... .. . ... ...
ROW 0F : ... .. . ... ... ... : ... .. 5 ... ... ... : ... .. . P7F : ... .. . ... : ... .. . ... ...
ROW 10 : ... .. . ... ... ... : ... .. 4 ... ... ... : ... .. . P80 : ... .. . ... : ... .. . ... ...
ROW 11 : ... .. 7 P7F ... ... : ... .. . ... ... ... : ... .. . ... : ... .. . ... : ... .. . ... ...
ROW 12 : ... .. . ... ... ... : ... .. . ... ... ... : ... .. . ... : ... .. . ... : ... .. . ... ...
ROW 13 : ... .. 6 ... ... ... : ... .. . ... ... ... : ... .. . ... : ... .. . ... : ... .. . ... ...
ROW 14 : ... .. . P80 ... ... : ... .. . ... ... ... : ... .. . ... : ... .. . ... : ... .. . ... ...
ROW 15 : ... .. . P81 ... ... : ... .. 0 ... ... ... : ... .. . ... : ... .. . ... : ... .. . ... ...
ROW 16 : E-3 00 9 P80 ... ... : A-1 00 B P80 V02 ... : B-4 00 . P82 : C-# 00 F ... : C-0 00 . Z40 ...
ROW 17 : ... .. B ... ... ... : ... .. . ... V00 ... : ... .. . P80 : ... .. . ... : ... .. . ... ...
ROW 18 : ... .. . ... ... ... : ... .. . ... ... ... : ... .. . ... : ... .. 0 ... : ... .. . ... ...
ROW 19 : ... .. . ... ... ... : ... .. 7 ... ... ... : ... .. . ... : ... .. . ... : ... .. . ... ...
ROW 1A : ... .. . ... ... ... : ... .. 6 ... ... ... : ... .. . P7E : ... .. . ... : ... .. . ... ...
ROW 1B : ... .. . ... ... ... : ... .. 0 ... ... ... : ... .. . P7F : ... .. . ... : ... .. . ... ...
ROW 1C : ... .. . ... ... ... : A-1 00 B P80 V02 ... : ... .. . P80 : ... .. F ... : C-0 00 . Z40 ...
ROW 1D : ... .. . ... ... ... : ... .. . ... V00 ... : ... .. . ... : ... .. . ... : ... .. . ... ...
ROW 1E : ... .. . ... ... ... : ... .. . ... ... ... : ... .. . ... : ... .. 0 ... : ... .. . ... ...
ROW 1F : ... .. . ... ... ... : ... .. 7 ... ... ... : ... .. . ... : ... .. . ... : ... .. . ... ...
ROW 20 : ... .. . ... ... ... : ... .. 6 ... ... ... : ... .. . ... : ... .. . ... : ... .. . ... ...
ROW 21 : ... .. . P81 ... ... : ... .. 0 ... ... ... : ... .. . ... : ... .. . ... : ... .. . ... ...
ROW 22 : ... .. . ... ... ... : A-1 00 B P80 V02 ... : A-4 00 . P82 : 4-# 00 F ... : D-0 00 . Z40 ...
ROW 23 : ... .. . ... ... ... : ... .. . ... V00 ... : ... .. . P80 : ... .. . ... : ... .. . ... ...
ROW 24 : ... .. . P80 ... ... : ... .. . ... ... ... : ... .. . ... : ... .. 0 ... : ... .. . ... ...
ROW 25 : ... .. . P7F ... ... : ... .. 7 ... ... ... : ... .. . ... : ... .. . ... : ... .. . ... ...
ROW 26 : ... .. . ... ... ... : ... .. 6 ... ... ... : ... .. . P7E : ... .. . ... : ... .. . ... ...
ROW 27 : ... .. . ... ... ... : ... .. 5 ... ... ... : ... .. . P7F : ... .. . ... : ... .. . ... ...
ROW 28 : ... .. . P80 ... ... : ... .. 4 ... ... ... : ... .. . P80 : ... .. . ... : ... .. . ... ...
ROW 29 : ... .. . P81 ... ... : ... .. . ... ... ... : ... .. . ... : ... .. . ... : ... .. . ... ...
ROW 2A : ... .. . ... ... ... : ... .. . ... ... ... : ... .. . ... : ... .. . ... : ... .. . ... ...
ROW 2B : ... .. . ... ... ... : ... .. . ... ... ... : ... .. . ... : ... .. . ... : ... .. . ... ...
ROW 2C : ... .. A P7F ... ... : ... .. 0 ... ... ... : ... .. . ... : ... .. . ... : ... .. . ... ...
ROW 2D : ... .. . ... ... ... : ... .. B ... V02 ... : ... .. . ... : C-# 00 F ... : C-0 00 . Z40 ...
ROW 2E : ... .. 9 P80 ... ... : ... .. . ... V00 ... : ... .. . ... : ... .. . ... : ... .. . ... ...
ROW 2F : ... .. . P81 ... ... : ... .. . ... ... ... : ... .. . ... : ... .. 0 ... : ... .. . ... ...
ROW 30 : ... .. 8 ... ... ... : ... .. 7 ... ... ... : ... .. . ... : ... .. . ... : ... .. . ... ...
ROW 31 : ... .. . ... ... ... : ... .. 6 ... ... ... : ... .. . ... : ... .. . ... : ... .. . ... ...
ROW 32 : ... .. . ... ... ... : ... .. 0 ... ... ... : ... .. . ... : ... .. . ... : ... .. . ... ...
ROW 33 : ... .. 7 P80 ... ... : A-1 00 B P80 V02 ... : ... .. . ... : ... .. F ... : C-0 00 . Z40 ...
ROW 34 : ... .. . P7F ... ... : ... .. . ... V00 ... : ... .. . ... : ... .. . ... : ... .. . ... ...
ROW 35 : ... .. 6 ... ... ... : ... .. . ... ... ... : ... .. . ... : ... .. 0 ... : ... .. . ... ...
ROW 36 : ... .. . P80 ... ... : ... .. 7 ... ... ... : ... .. . ... : ... .. . ... : ... .. . ... ...
ROW 37 : ... .. . P81 ... ... : ... .. 6 ... ... ... : ... .. . ... : ... .. . ... : ... .. . ... ...
ROW 38 : ... .. . ... ... ... : ... .. 0 ... ... ... : ... .. . ... : ... .. . ... : ... .. . ... ...
ROW 39 : C#3 00 9 P80 ... ... : F#1 00 B P80 V02 ... : ... .. . ... : 4-# 00 F ... : D#0 00 . Z40 ...
ROW 3A : ... .. B ... ... ... : ... .. . ... V00 ... : ... .. . ... : ... .. . ... : ... .. . ... ...
ROW 3B : ... .. . ... ... ... : ... .. . ... ... ... : ... .. . ... : ... .. 0 ... : ... .. . ... ...
ROW 3C : ... .. . ... ... ... : ... .. 7 ... ... ... : ... .. . ... : ... .. . ... : ... .. . ... ...
ROW 3D : ... .. . ... ... ... : ... .. 6 ... ... ... : ... .. . ... : ... .. . ... : ... .. . ... ...
ROW 3E : ... .. . ... ... ... : ... .. 5 ... ... ... : ... .. . ... : ... .. . ... : ... .. . ... ...
ROW 3F : ... .. . ... ... ... : ... .. 4 ... ... ... : ... .. . ... : ... .. . ... : ... .. . ... ...
ROW 40 : ... .. . ... ... ... : ... .. . ... ... ... : ... .. . ... : ... .. . ... : ... .. . ... ...
ROW 41 : ... .. . ... ... ... : ... .. . ... ... ... : ... .. . ... : ... .. . ... : ... .. . ... ...
ROW 42 : ... .. . ... ... ... : ... .. . ... ... ... : ... .. . ... : ... .. . ... : ... .. . ... ...
ROW 43 : ... .. . ... ... ... : ... .. . ... ... ... : ... .. . ... : ... .. . ... : ... .. . ... ...
ROW 44 : ... .. . P81 ... ... : ... .. . ... ... ... : ... .. . ... : ... .. . ... : ... .. . ... ...
ROW 45 : ... .. . ... ... ... : A-1 00 B ... V02 ... : ... .. . ... : C-# 00 F ... : D#0 00 . Z40 ...
ROW 46 : ... .. . ... ... ... : ... .. . ... V00 ... : ... .. . ... : ... .. . ... : ... .. . ... ...
ROW 47 : ... .. . P80 ... ... : ... .. . ... ... ... : ... .. . ... : ... .. 0 ... : ... .. . ... ...
ROW 48 : ... .. . P7F ... ... : ... .. 7 ... ... ... : ... .. . ... : ... .. . ... : ... .. . ... ...
ROW 49 : ... .. . ... ... ... : ... .. 6 ... ... ... : ... .. . ... : ... .. . ... : ... .. . ... ...
ROW 4A : ... .. . ... ... ... : ... .. 5 ... ... ... : ... .. . ... : ... .. . ... : ... .. . ... ...
ROW 4B : ... .. . P80 ... ... : ... .. 4 ... ... ... : ... .. . ... : ... .. . ... : ... .. . ... ...
ROW 4C : ... .. . P81 ... ... : ... .. . ... ... ... : ... .. . ... : ... .. . ... : ... .. . ... ...
ROW 4D : ... .. . ... ... ... : ... .. . ... ... ... : ... .. . ... : ... .. . ... : ... .. . ... ...
ROW 4E : ... .. . ... ... ... : ... .. . ... ... ... : ... .. . ... : ... .. . ... : ... .. . ... ...
ROW 4F : ... .. A P7F ... ... : ... .. . ... ... ... : --- .. . ... : ... .. . ... : ... .. . ... ...
ROW 50 : B-2 00 9 P80 ... ... : B-1 00 B ... V02 ... : B-4 00 . P82 : 4-# 00 F ... : D-0 00 . Z40 ...
ROW 51 : ... .. B ... ... ... : ... .. . ... V00 ... : ... .. . P80 : ... .. . ... : ... .. . ... ...
ROW 52 : ... .. . ... ... ... : ... .. . ... ... ... : ... .. . ... : ... .. 0 ... : ... .. . ... ...
ROW 53 : ... .. . ... ... ... : ... .. 7 ... ... ... : ... .. . ... : ... .. . ... : ... .. . ... ...
ROW 54 : ... .. . ... ... ... : ... .. 6 ... ... ... : ... .. . P7E : ... .. . ... : ... .. . ... ...
ROW 55 : ... .. . ... ... ... : ... .. 5 ... ... ... : --- .. . ... : ... .. . ... : ... .. . ... ...
ROW 56 : ... .. . ... ... ... : ... .. 4 ... ... ... : ... .. . ... : ... .. . ... : ... .. . ... ...
ROW 57 : ... .. . ... ... ... : ... .. . ... ... ... : ... .. . ... : ... .. . ... : ... .. . ... ...
ROW 58 : ... .. . ... ... ... : ... .. . ... ... ... : ... .. . ... : ... .. . ... : ... .. . ... ...
ROW 59 : ... .. . ... ... ... : ... .. . ... ... ... : ... .. . ... : ... .. . ... : ... .. . ... ...
ROW 5A : ... .. . ... ... ... : ... .. . ... ... ... : ... .. . ... : ... .. . ... : ... .. . ... ...
ROW 5B : ... .. . P81 ... ... : ... .. 0 ... ... ... : ... .. . ... : ... .. . ... : ... .. . ... ...
ROW 5C : ... .. . ... ... ... : B-1 00 B P80 V02 ... : B-4 00 . P82 : C-# 00 F ... : D#0 00 . Z40 ...
ROW 5D : ... .. . ... ... ... : ... .. . ... V00 ... : ... .. . P80 : ... .. . ... : ... .. . ... ...
ROW 5E : ... .. . P80 ... ... : ... .. . ... ... ... : ... .. . ... : ... .. 0 ... : ... .. . ... ...
ROW 5F : ... .. . P7F ... ... : ... .. 7 ... ... ... : ... .. . ... : ... .. . ... : ... .. . ... ...
ROW 60 : ... .. . ... ... ... : ... .. 6 ... ... ... : ... .. . P7E : ... .. . ... : ... .. . ... ...
ROW 61 : ... .. . ... ... ... : ... .. 0 ... ... ... : ... .. . P7F : ... .. . ... : ... .. . ... ...
ROW 62 : ... .. . P80 ... ... : B-1 00 B P80 V02 ... : C#5 00 . P82 : ... .. F ... : C-0 00 . Z40 ...
ROW 63 : ... .. . P81 ... ... : ... .. . ... V00 ... : ... .. . P80 : ... .. . ... : ... .. . ... ...
ROW 64 : ... .. . ... ... ... : ... .. . ... ... ... : ... .. . ... : ... .. 0 ... : ... .. . ... ...
ROW 65 : ... .. . ... ... ... : ... .. 7 ... ... ... : ... .. . ... : ... .. . ... : ... .. . ... ...
ROW 66 : ... .. A P80 ... ... : ... .. 6 ... ... ... : ... .. . P7E : ... .. . ... : ... .. . ... ...
ROW 67 : ... .. . P7F ... ... : ... .. 0 ... ... ... : ... .. . P7F : ... .. . ... : ... .. . ... ...
ROW 68 : ... .. . ... ... ... : B-1 00 B P80 V02 ... : D-5 00 . P82 : 4-# 00 F ... : D#0 00 . Z40 ...
ROW 69 : ... .. 9 P80 ... ... : ... .. . ... V00 ... : ... .. . P80 : ... .. . ... : ... .. . ... ...
ROW 6A : ... .. . P81 ... ... : ... .. . ... ... ... : ... .. . ... : ... .. 0 ... : ... .. . ... ...
ROW 6B : ... .. 8 ... ... ... : ... .. 7 ... ... ... : ... .. . ... : ... .. . ... : ... .. . ... ...
ROW 6C : ... .. . ... ... ... : ... .. 6 ... ... ... : ... .. . P7E : ... .. . ... : ... .. . ... ...
ROW 6D : ... .. . ... ... ... : ... .. 5 ... ... ... : ... .. . P7F : ... .. . ... : ... .. . ... ...
ROW 6E : ... .. 7 P80 ... ... : ... .. 4 ... ... ... : ... .. . P80 : ... .. . ... : ... .. . ... ...
ROW 6F : ... .. . P7F ... ... : ... .. . ... ... ... : ... .. . ... : ... .. . ... : ... .. . ... ...
ROW 70 : ... .. 6 ... ... ... : ... .. . ... ... ... : ... .. . ... : ... .. . ... : ... .. . ... ...
ROW 71 : ... .. . P80 ... ... : ... .. . ... ... ... : ... .. . ... : ... .. . ... : ... .. . ... ...
ROW 72 : ... .. . P81 ... ... : ... .. 0 ... ... ... : ... .. . ... : ... .. . ... : ... .. . ... ...
ROW 73 : ... .. . ... ... ... : ... .. B ... V02 ... : E-5 00 . P82 : C-# 00 F ... : C-0 00 . Z40 ...
ROW 74 : ... .. . P80 ... ... : ... .. . ... V00 ... : ... .. . P80 : ... .. . ... : ... .. . ... ...
ROW 75 : ... .. . P7F ... ... : ... .. . ... ... ... : ... .. . ... : ... .. 0 ... : ... .. . ... ...
ROW 76 : ... .. . ... ... ... : ... .. 7 ... ... ... : ... .. . ... : ... .. . ... : ... .. . ... ...
ROW 77 : ... .. . ... ... ... : ... .. 6 ... ... ... : D#5 00 . P82 : ... .. . ... : ... .. . ... ...
ROW 78 : ... .. . P80 ... ... : ... .. 0 ... ... ... : E-5 00 . P7F : ... .. . ... : ... .. . ... ...
ROW 79 : ... .. . P81 ... ... : B-1 00 B P80 V02 ... : ... .. . P80 : ... .. F ... : C-0 00 . Z40 ...
ROW 7A : ... .. . ... ... ... : ... .. . ... V00 ... : ... .. . ... : ... .. . ... : ... .. . ... ...
ROW 7B : ... .. . ... ... ... : ... .. . ... ... ... : ... .. . ... : ... .. 0 ... : ... .. . ... ...
ROW 7C : ... .. . P80 ... ... : ... .. 7 ... ... ... : ... .. . ... : ... .. . ... : ... .. . ... ...
ROW 7D : ... .. . P7F ... ... : ... .. 6 ... ... ... : ... .. . ... : ... .. . ... : ... .. . ... ...
ROW 7E : ... .. . ... ... ... : ... .. 0 ... ... ... : ... .. . ... : ... .. . ... : ... .. . ... ...
ROW 7F : ... .. . ... ... ... : B-1 00 B P80 V02 ... : F#5 00 . P82 : 4-# 00 F ... : D-0 00 . Z40 ...
ROW 80 : ... .. . P81 ... ... : ... .. . ... V00 ... : ... .. . P80 : ... .. . ... : ... .. . ... ...
ROW 81 : ... .. . ... ... ... : ... .. . ... ... ... : ... .. . ... : ... .. 0 ... : ... .. . ... ...
ROW 82 : ... .. . ... ... ... : ... .. 7 ... ... ... : ... .. . ... : ... .. . ... : ... .. . ... ...
ROW 83 : ... .. . ... ... ... : ... .. 6 ... ... ... : F-5 00 . P82 : ... .. . ... : ... .. . ... ...
ROW 84 : ... .. . P80 ... ... : ... .. 5 ... ... ... : F#5 00 . P7F : ... .. . ... : ... .. . ... ...
ROW 85 : ... .. . P7F ... ... : ... .. 4 ... ... ... : ... .. . P80 : ... .. . ... : ... .. . ... ...
ROW 86 : ... .. . ... ... ... : ... .. . ... ... ... : ... .. . ... : ... .. . ... : ... .. . ... ...
ROW 87 : ... .. . P80 ... ... : ... .. . ... ... ... : ... .. . ... : ... .. . ... : ... .. . ... ...
ROW 88 : ... .. . P81 ... ... : ... .. . ... ... ... : ... .. . ... : ... .. . ... : ... .. . ... ...
ROW 89 : ... .. . ... ... ... : ... .. . ... ... ... : ... .. . ... : ... .. . ... : ... .. . ... ...
ROW 8A : ... .. . ... ... ... : ... .. 0 ... ... ... : ... .. . ... : ... .. . ... : ... .. . ... ...
ROW 8B : ... .. . ... ... ... : B-1 00 B P80 V02 ... : ... .. . ... : C-# 00 F ... : C-0 00 . Z40 ...
ROW 8C : ... .. . P7F ... ... : ... .. . ... V00 ... : ... .. . ... : ... .. . ... : ... .. . ... ...
ROW 8D : ... .. . ... ... ... : ... .. . ... ... ... : ... .. . ... : ... .. 0 ... : ... .. . ... ...
ROW 8E : ... .. . ... ... ... : ... .. 7 ... ... ... : ... .. . ... : ... .. . ... : ... .. . ... ...
ROW 8F : ... .. . P80 ... ... : ... .. 6 ... ... ... : ... .. . ... : ... .. . ... : ... .. . ... ...
ROW 90 : ... .. . P81 ... ... : ... .. 0 ... ... ... : ... .. . ... : ... .. . ... : ... .. . ... ...
ROW 91 : ... .. . ... ... ... : B-1 00 B P80 V02 ... : ... .. . ... : ... .. F ... : C-0 00 . Z40 ...
ROW 92 : ... .. . ... ... ... : ... .. . ... V00 ... : ... .. . ... : ... .. . ... : ... .. . ... ...
ROW 93 : ... .. . P80 ... ... : ... .. . ... ... ... : ... .. . ... : ... .. 0 ... : ... .. . ... ...
ROW 94 : ... .. . P7F ... ... : ... .. 7 ... ... ... : ... .. . ... : ... .. . ... : ... .. . ... ...
ROW 95 : ... .. . ... ... ... : ... .. 0 ... ... ... : ... .. . ... : ... .. . ... : ... .. . ... ...
ROW 96 : ... .. . P80 ... ... : ... .. B ... V02 ... : ... .. . ... : 4-# 00 F ... : D#0 00 . Z40 ...
ROW 97 : ... .. . P81 ... ... : ... .. . ... V00 ... : ... .. . ... : ... .. . ... : ... .. . ... ...
ROW 98 : ... .. . ... ... ... : ... .. . ... ... ... : ... .. . ... : ... .. 0 ... : ... .. . ... ...
ROW 99 : ... .. . ... ... ... : ... .. 7 ... ... ... : ... .. . ... : ... .. . ... : ... .. . ... ...
ROW 9A : ... .. . P80 ... ... : ... .. 6 ... ... ... : ... .. . ... : ... .. . ... : ... .. . ... ...
ROW 9B : ... .. . P7F ... ... : ... .. 5 ... ... ... : ... .. . ... : ... .. . ... : ... .. . ... ...
ROW 9C : ... .. . ... ... ... : ... .. 4 ... ... ... : ... .. . ... : ... .. . ... : ... .. . ... ...
ROW 9D : ... .. . P80 ... ... : ... .. . ... ... ... : ... .. . ... : ... .. . ... : ... .. . ... ...
ROW 9E : ... .. . P81 ... ... : ... .. . ... ... ... : ... .. . ... : ... .. . ... : ... .. . ... ...
ROW 9F : ... .. . ... ... ... : ... .. . ... ... ... : ... .. . ... : ... .. . ... : ... .. . ... ...
ROW A0 : ... .. . ... ... ... : ... .. . ... ... ... : ... .. . ... : ... .. . ... : ... .. . ... ...
ROW A1 : ... .. . ... ... ... : ... .. 0 ... ... ... : ... .. . ... : ... .. . ... : ... .. . ... ...
ROW A2 : ... .. . P80 ... ... : B-1 00 B P80 V02 ... : ... .. . ... : C-# 00 F ... : D#0 00 . Z40 ...
ROW A3 : ... .. . P7F ... ... : ... .. . ... V00 ... : ... .. . ... : ... .. . ... : ... .. . ... ...
ROW A4 : ... .. . ... ... ... : ... .. . ... ... ... : ... .. . ... : ... .. 0 ... : ... .. . ... ...
ROW A5 : ... .. . P80 ... ... : ... .. 7 ... ... ... : ... .. . ... : ... .. . ... : ... .. . ... ...
ROW A6 : ... .. . P81 ... ... : ... .. 6 ... ... ... : ... .. . ... : ... .. . ... : ... .. . ... ...
ROW A7 : ... .. . ... ... ... : ... .. 0 ... ... ... : ... .. . ... : ... .. . ... : ... .. . ... ...
ROW A8 : ... .. . ... ... ... : B-1 00 B P80 V02 ... : D-5 00 . P82 : ... .. F ... : ... .. . ... ...
ROW A9 : ... .. . P80 ... ... : ... .. . ... V00 ... : ... .. . P80 : ... .. . ... : ... .. . ... ...
ROW AA : ... .. . P7F ... ... : ... .. . ... ... ... : ... .. . ... : ... .. 0 ... : ... .. . ... ...
ROW AB : ... .. . ... ... ... : ... .. 7 ... ... ... : ... .. . ... : ... .. . ... : ... .. . ... ...
ROW AC : ... .. . ... ... ... : ... .. 6 ... ... ... : ... .. . P7E : ... .. . ... : ... .. . ... ...
ROW AD : ... .. . P80 ... ... : ... .. 0 ... ... ... : ... .. . P7F : ... .. . ... : ... .. . ... ...
ROW AE : ... .. . P81 ... ... : A-1 00 B P80 V02 ... : E-5 00 . P82 : 4-# 00 F ... : D-0 00 . Z40 ...
ROW AF : A-3 00 A P80 ... ... : ... .. . ... V00 ... : ... .. . P80 : ... .. . ... : ... .. . ... ...
ROW B0 : ... .. B ... ... ... : ... .. . ... ... ... : ... .. . ... : ... .. 0 ... : ... .. . ... ...
ROW B1 : ... .. . ... ... ... : ... .. 7 ... ... ... : ... .. . ... : ... .. . ... : ... .. . ... ...
ROW B2 : ... .. . ... ... ... : ... .. 6 ... ... ... : D#5 00 . P82 : ... .. . ... : ... .. . ... ...
ROW B3 : ... .. . ... ... ... : ... .. 5 ... ... ... : --- .. . ... : ... .. . ... : ... .. . ... ...
ROW B4 : ... .. . ... ... ... : ... .. 4 ... ... ... : ... .. . ... : ... .. . ... : ... .. . ... ...
ROW B5 : ... .. . ... ... ... : ... .. . ... ... ... : ... .. . ... : ... .. . ... : ... .. . ... ...
ROW B6 : ... .. . ... ... ... : ... .. . ... ... ... : ... .. . ... : ... .. . ... : ... .. . ... ...
ROW B7 : ... .. . ... ... ... : ... .. . ... ... ... : ... .. . ... : ... .. . ... : ... .. . ... ...
ROW B8 : ... .. . ... ... ... : ... .. 0 ... ... ... : ... .. . ... : ... .. . ... : ... .. . ... ...
ROW B9 : ... .. . P81 ... ... : ... .. B ... V02 ... : E-5 00 . ... : C-# 00 F ... : D#0 00 . Z40 ...
ROW BA : ... .. . ... ... ... : ... .. . ... V00 ... : ... .. . P80 : ... .. . ... : ... .. . ... ...
ROW BB : ... .. . ... ... ... : ... .. . ... ... ... : ... .. . ... : ... .. 0 ... : ... .. . ... ...
ROW BC : ... .. . P80 ... ... : ... .. 7 ... ... ... : ... .. . ... : ... .. . ... : ... .. . ... ...
ROW BD : ... .. . P7F ... ... : ... .. 6 ... ... ... : D#5 00 . P82 : ... .. . ... : ... .. . ... ...
ROW BE : ... .. . ... ... ... : ... .. 0 ... ... ... : E-5 00 . P7F : ... .. . ... : ... .. . ... ...
ROW BF : ... .. . ... ... ... : A-1 00 B P80 V02 ... : D-5 00 . P82 : ... .. F ... : C-0 00 . Z40 ...
ROW C0 : ... .. . P81 ... ... : ... .. . ... V00 ... : ... .. . P80 : ... .. . ... : ... .. . ... ...
ROW C1 : ... .. . ... ... ... : ... .. . ... ... ... : ... .. . ... : ... .. 0 ... : ... .. . ... ...
ROW C2 : ... .. . ... ... ... : ... .. 7 ... ... ... : ... .. . ... : ... .. . ... : ... .. . ... ...
ROW C3 : ... .. . ... ... ... : ... .. 6 ... ... ... : ... .. . P7E : ... .. . ... : ... .. . ... ...
ROW C4 : ... .. A P80 ... ... : ... .. 0 ... ... ... : ... .. . P7F : ... .. . ... : ... .. . ... ...
ROW C5 : ... .. . P7F ... ... : A-1 00 B P80 V02 ... : C#5 00 . P82 : 4-# 00 F ... : D#0 00 . Z40 ...
ROW C6 : ... .. 9 ... ... ... : ... .. . ... V00 ... : ... .. . P80 : ... .. . ... : ... .. . ... ...
ROW C7 : ... .. . P80 ... ... : ... .. . ... ... ... : ... .. . ... : ... .. 0 ... : ... .. . ... ...
ROW C8 : ... .. . P81 ... ... : ... .. 7 ... ... ... : ... .. . ... : ... .. . ... : ... .. . ... ...
ROW C9 : ... .. 8 ... ... ... : ... .. 6 ... ... ... : ... .. . P7E : ... .. . ... : ... .. . ... ...
ROW CA : ... .. . ... ... ... : ... .. 5 ... ... ... : ... .. . P7F : ... .. . ... : ... .. . ... ...
ROW CB : ... .. . ... ... ... : ... .. 4 ... ... ... : ... .. . P80 : ... .. . ... : ... .. . ... ...
ROW CC : ... .. 7 P7F ... ... : ... .. . ... ... ... : ... .. . ... : ... .. . ... : ... .. . ... ...
ROW CD : ... .. . ... ... ... : ... .. . ... ... ... : ... .. . ... : ... .. . ... : ... .. . ... ...
ROW CE : ... .. 6 ... ... ... : ... .. . ... ... ... : ... .. . ... : ... .. . ... : ... .. . ... ...
ROW CF : ... .. . P80 ... ... : ... .. . ... ... ... : ... .. . ... : ... .. . ... : ... .. . ... ...
ROW D0 : ... .. . P81 ... ... : ... .. 0 ... ... ... : ... .. . ... : ... .. . ... : ... .. . ... ...
ROW D1 : E-3 00 9 P80 ... ... : A-1 00 B P80 V02 ... : B-4 00 . P82 : C-# 00 F ... : C-0 00 . Z40 ...
ROW D2 : ... .. B ... ... ... : ... .. . ... V00 ... : ... .. . P80 : ... .. . ... : ... .. . ... ...
ROW D3 : ... .. . ... ... ... : ... .. . ... ... ... : ... .. . ... : ... .. 0 ... : ... .. . ... ...
ROW D4 : ... .. . ... ... ... : ... .. 7 ... ... ... : ... .. . ... : ... .. . ... : ... .. . ... ...
ROW D5 : ... .. . ... ... ... : ... .. 6 ... ... ... : ... .. . P7E : ... .. . ... : ... .. . ... ...
ROW D6 : ... .. . ... ... ... : ... .. 0 ... ... ... : ... .. . P7F : ... .. . ... : ... .. . ... ...
ROW D7 : ... .. . ... ... ... : A-1 00 B P80 V02 ... : ... .. . P80 : ... .. F ... : C-0 00 . Z40 ...
ROW D8 : ... .. . ... ... ... : ... .. . ... V00 ... : ... .. . ... : ... .. . ... : ... .. . ... ...
ROW D9 : ... .. . ... ... ... : ... .. . ... ... ... : ... .. . ... : ... .. 0 ... : ... .. . ... ...
ROW DA : ... .. . ... ... ... : ... .. 7 ... ... ... : ... .. . ... : ... .. . ... : ... .. . ... ...
ROW DB : ... .. . P81 ... ... : ... .. 0 ... ... ... : ... .. . ... : ... .. . ... : ... .. . ... ...
ROW DC : ... .. . ... ... ... : ... .. B ... V02 ... : A-4 00 . P82 : 4-# 00 F ... : D-0 00 . Z40 ...
ROW DD : ... .. . ... ... ... : ... .. . ... V00 ... : ... .. . P80 : ... .. . ... : ... .. . ... ...
ROW DE : ... .. . P80 ... ... : ... .. . ... ... ... : ... .. . ... : ... .. 0 ... : ... .. . ... ...
ROW DF : ... .. . P7F ... ... : ... .. 7 ... ... ... : ... .. . ... : ... .. . ... : ... .. . ... ...
ROW E0 : ... .. . ... ... ... : ... .. 6 ... ... ... : ... .. . P7E : ... .. . ... : ... .. . ... ...
ROW E1 : ... .. . ... ... ... : ... .. 5 ... ... ... : ... .. . P7F : ... .. . ... : ... .. . ... ...
ROW E2 : ... .. . P80 ... ... : ... .. 4 ... ... ... : ... .. . P80 : ... .. . ... : ... .. . ... ...
ROW E3 : ... .. . P81 ... ... : ... .. . ... ... ... : ... .. . ... : ... .. . ... : ... .. . ... ...
ROW E4 : ... .. . ... ... ... : ... .. . ... ... ... : ... .. . ... : ... .. . ... : ... .. . ... ...
ROW E5 : ... .. . ... ... ... : ... .. . ... ... ... : ... .. . ... : ... .. . ... : ... .. . ... ...
ROW E6 : ... .. A P80 ... ... : ... .. . ... ... ... : ... .. . ... : ... .. . ... : ... .. . ... ...
ROW E7 : ... .. . P7F ... ... : ... .. 0 ... ... ... : ... .. . ... : ... .. . ... : ... .. . ... ...
ROW E8 : ... .. . ... ... ... : A-1 00 B P80 V02 ... : ... .. . ... : C-# 00 F ... : C-0 00 . Z40 ...
ROW E9 : ... .. 9 P80 ... ... : ... .. . ... V00 ... : ... .. . ... : ... .. . ... : ... .. . ... ...
ROW EA : ... .. . P81 ... ... : ... .. . ... ... ... : ... .. . ... : ... .. 0 ... : ... .. . ... ...
ROW EB : ... .. 8 ... ... ... : ... .. 7 ... ... ... : ... .. . ... : ... .. . ... : ... .. . ... ...
ROW EC : ... .. . ... ... ... : ... .. 6 ... ... ... : ... .. . ... : ... .. . ... : ... .. . ... ...
ROW ED : ... .. . ... ... ... : ... .. 0 ... ... ... : ... .. . ... : ... .. . ... : ... .. . ... ...
ROW EE : ... .. 7 P80 ... ... : A-1 00 B P80 V02 ... : ... .. . ... : ... .. F ... : C-0 00 . Z40 ...
ROW EF : ... .. . P7F ... ... : ... .. . ... V00 ... : ... .. . ... : ... .. . ... : ... .. . ... ...
ROW F0 : ... .. 6 ... ... ... : ... .. . ... ... ... : ... .. . ... : ... .. 0 ... : ... .. . ... ...
ROW F1 : ... .. . P80 ... ... : ... .. 7 ... ... ... : ... .. . ... : ... .. . ... : ... .. . ... ...
ROW F2 : ... .. . P81 ... ... : ... .. 6 ... ... ... : ... .. . ... : ... .. . ... : ... .. . ... ...
ROW F3 : ... .. . ... ... ... : ... .. 0 ... ... ... : ... .. . ... : ... .. . ... : ... .. . ... ...
ROW F4 : C#4 00 9 P80 ... ... : F#1 00 B P80 V02 ... : ... .. . ... : 4-# 00 F ... : D#0 00 . Z40 ...
ROW F5 : ... .. B ... ... ... : ... .. . ... V00 ... : ... .. . ... : ... .. . ... : ... .. . ... ...
ROW F6 : ... .. . ... ... ... : ... .. . ... ... ... : ... .. . ... : ... .. 0 ... : ... .. . ... ...
ROW F7 : ... .. . ... ... ... : ... .. 7 ... ... ... : ... .. . ... : ... .. . ... : ... .. . ... ...
ROW F8 : ... .. . ... ... ... : ... .. 6 ... ... ... : ... .. . ... : ... .. . ... : ... .. . ... ...
ROW F9 : ... .. . ... ... ... : ... .. 5 ... ... ... : ... .. . ... : ... .. . ... : ... .. . ... ...
ROW FA : ... .. . ... ... ... : ... .. 4 ... ... ... : ... .. . ... : ... .. . ... : D#0 00 . Z40 ...
ROW FB : ... .. . ... ... ... : ... .. . ... ... ... : ... .. . ... : ... .. . ... : ... .. . ... ...
ROW FC : ... .. . ... ... ... : ... .. . ... ... ... : ... .. . ... : ... .. . ... : ... .. . ... ...
ROW FD : ... .. . ... ... ... : ... .. . ... ... ... : ... .. . ... : ... .. . ... : ... .. . ... ...
ROW FE : ... .. . P81 ... ... : ... .. . ... ... ... : ... .. . ... : ... .. . ... : ... .. . ... ...
ROW FF : ... .. . ... ... ... : A-1 00 B ... V02 ... : ... .. . ... : C-# 00 F ... : D#0 00 . Z40 ...

PATTERN 10
ROW 00 : ... .. . ... ... ... : ... .. . ... V00 ... : ... .. . ... : ... .. . ... : ... .. . ... ...
ROW 01 : ... .. . P80 ... ... : ... .. . ... ... ... : ... .. . ... : ... .. 0 ... : ... .. . ... ...
ROW 02 : ... .. . P7F ... ... : ... .. 7 ... ... ... : ... .. . ... : ... .. . ... : ... .. . ... ...
ROW 03 : ... .. . ... ... ... : ... .. 6 ... ... ... : ... .. . ... : ... .. . ... : ... .. . ... ...
ROW 04 : ... .. . ... ... ... : ... .. 5 ... ... ... : ... .. . ... : ... .. . ... : ... .. . ... ...
ROW 05 : ... .. . P80 ... ... : ... .. 4 ... ... ... : ... .. . ... : ... .. . ... : D#0 00 . Z40 ...
ROW 06 : ... .. . P81 ... ... : ... .. . ... ... ... : ... .. . ... : ... .. . ... : ... .. . ... ...
ROW 07 : ... .. . ... ... ... : ... .. . ... ... ... : ... .. . ... : ... .. . ... : ... .. . ... ...
ROW 08 : ... .. . ... ... ... : ... .. . ... ... ... : ... .. . ... : ... .. . ... : ... .. . ... ...
ROW 09 : ... .. A P80 ... ... : ... .. . ... ... ... : ... .. . ... : ... .. . ... : ... .. . ... ...
ROW 0A : ... .. . P7F ... ... : ... .. . ... ... ... : --- .. . ... : ... .. . ... : ... .. . ... ...
ROW 0B : G-2 00 D P8A ... ... : B-1 00 B ... V02 ... : B-4 00 . ... : 4-# 00 F ... : D-0 00 . Z40 ...
ROW 0C : B-2 00 E P80 ... ... : ... .. . ... V00 ... : ... .. . ... : ... .. . ... : ... .. . ... ...
ROW 0D : ... .. C ... ... ... : ... .. . ... ... ... : ... .. . ... : ... .. 0 ... : ... .. . ... ...
ROW 0E : ... .. B ... ... ... : ... .. 7 ... ... ... : ... .. . ... : ... .. . ... : ... .. . ... ...
ROW 0F : ... .. A ... ... ... : ... .. 6 ... ... ... : ... .. . ... : ... .. . ... : ... .. . ... ...
ROW 10 : ... .. 9 ... ... ... : ... .. 0 ... ... ... : ... .. . ... : ... .. . ... : ... .. . ... ...
ROW 11 : ... .. . ... ... ... : B-1 00 B P80 V02 ... : ... .. . ... : ... .. . ... : ... .. . ... ...
ROW 12 : ... .. . ... ... ... : ... .. . ... V00 ... : ... .. . ... : ... .. . ... : ... .. . ... ...
ROW 13 : ... .. . ... ... ... : ... .. . ... ... ... : ... .. . ... : ... .. . ... : ... .. . ... ...
ROW 14 : ... .. . ... ... ... : ... .. 7 ... ... ... : ... .. . ... : ... .. . ... : ... .. . ... ...
ROW 15 : ... .. . ... ... ... : ... .. 6 ... ... ... : ... .. . ... : ... .. . ... : ... .. . ... ...
ROW 16 : ... .. . ... ... ... : ... .. 0 ... ... ... : ... .. . ... : ... .. . ... : ... .. . ... ...
ROW 17 : ... .. . ... ... ... : B-1 00 B P80 V02 ... : ... .. . ... : C-# 00 F ... : C-0 00 . Z40 ...
ROW 18 : ... .. . ... ... ... : ... .. . ... V00 ... : ... .. . ... : ... .. . ... : ... .. . ... ...
ROW 19 : ... .. . ... ... ... : ... .. . ... ... ... : ... .. . ... : ... .. 0 ... : ... .. . ... ...
ROW 1A : ... .. . ... ... ... : ... .. 7 ... ... ... : ... .. . ... : ... .. . ... : ... .. . ... ...
ROW 1B : ... .. . ... ... ... : ... .. 6 ... ... ... : ... .. . ... : ... .. . ... : ... .. . ... ...
ROW 1C : ... .. . ... ... ... : ... .. 0 ... ... ... : ... .. . ... : ... .. . ... : ... .. . ... ...
ROW 1D : D-2 00 D P8A ... ... : B-1 00 B P80 V02 ... : ... .. . ... : ... .. F ... : ... .. . ... ...
ROW 1E : F#2 00 E P80 ... ... : ... .. . ... V00 ... : ... .. . ... : ... .. . ... : ... .. . ... ...
ROW 1F : ... .. C ... ... ... : ... .. . ... ... ... : ... .. . ... : ... .. 0 ... : ... .. . ... ...
ROW 20 : ... .. B ... ... ... : ... .. 7 ... ... ... : ... .. . ... : ... .. . ... : ... .. . ... ...
ROW 21 : ... .. 9 ... ... ... : ... .. 0 ... ... ... : ... .. . ... : ... .. . ... : ... .. . ... ...
ROW 22 : G-2 00 D P8A ... ... : ... .. B ... V02 ... : ... .. . ... : 4-# 00 F ... : D-0 00 . Z40 ...
ROW 23 : B-2 00 E P80 ... ... : ... .. . ... V00 ... : ... .. . ... : ... .. . ... : ... .. . ... ...
ROW 24 : ... .. C ... ... ... : ... .. . ... ... ... : ... .. . ... : ... .. 0 ... : ... .. . ... ...
ROW 25 : ... .. B ... ... ... : ... .. 7 ... ... ... : ... .. . ... : ... .. . ... : ... .. . ... ...
ROW 26 : ... .. A ... ... ... : ... .. 6 ... ... ... : ... .. . ... : ... .. . ... : ... .. . ... ...
ROW 27 : ... .. 9 ... ... ... : ... .. 5 ... ... ... : ... .. . ... : ... .. . ... : ... .. . ... ...
ROW 28 : ... .. . ... ... ... : ... .. 4 ... ... ... : ... .. . ... : ... .. . ... : ... .. . ... ...
ROW 29 : ... .. . ... ... ... : ... .. . ... ... ... : ... .. . ... : ... .. . ... : ... .. . ... ...
ROW 2A : ... .. . ... ... ... : ... .. . ... ... ... : ... .. . ... : ... .. . ... : ... .. . ... ...
ROW 2B : ... .. . ... ... ... : ... .. . ... ... ... : ... .. . ... : ... .. . ... : ... .. . ... ...
ROW 2C : ... .. . ... ... ... : ... .. . ... ... ... : ... .. . ... : ... .. . ... : ... .. . ... ...
ROW 2D : ... .. . ... ... ... : ... .. . ... ... ... : ... .. . ... : ... .. . ... : ... .. . ... ...
ROW 2E : ... .. . ... ... ... : ... .. . ... ... ... : ... .. . ... : C-# 00 F ... : D#0 00 . Z40 ...
ROW 2F : ... .. . ... ... ... : ... .. . ... ... ... : ... .. . ... : ... .. . ... : ... .. . ... ...
ROW 30 : ... .. . ... ... ... : ... .. . ... ... ... : ... .. . ... : ... .. 0 ... : ... .. . ... ...
ROW 31 : ... .. . ... ... ... : ... .. . ... ... ... : ... .. . ... : ... .. . ... : ... .. . ... ...
ROW 32 : ... .. . ... ... ... : ... .. . ... ... ... : ... .. . ... : ... .. . ... : ... .. . ... ...
ROW 33 : ... .. . ... ... ... : ... .. . ... ... ... : ... .. . ... : ... .. . ... : ... .. . ... ...
ROW 34 : A-2 00 D P8A ... ... : A-1 00 B ... V02 ... : ... .. . ... : ... .. F ... : D#0 00 . Z40 ...
ROW 35 : C#3 00 E P80 ... ... : ... .. . ... V00 ... : ... .. . ... : ... .. . ... : ... .. . ... ...
ROW 36 : ... .. C ... ... ... : ... .. . ... ... ... : ... .. . ... : ... .. 0 ... : ... .. . ... ...
ROW 37 : ... .. B ... ... ... : ... .. 7 ... ... ... : ... .. . ... : ... .. . ... : ... .. . ... ...
ROW 38 : ... .. A ... ... ... : ... .. 6 ... ... ... : ... .. . ... : ... .. . ... : ... .. . ... ...
ROW 39 : ... .. 9 ... ... ... : ... .. 0 ... ... ... : ... .. . ... : ... .. . ... : ... .. . ... ...
ROW 3A : A#2 00 D P8A ... ... : F#1 00 B P80 V02 ... : ... .. . ... : 4-# 00 F ... : D-0 00 . Z40 ...
ROW 3B : D-3 00 E P80 ... ... : ... .. . ... V00 ... : ... .. . ... : ... .. . ... : ... .. . ... ...
ROW 3C : ... .. C ... ... ... : ... .. . ... ... ... : ... .. . ... : ... .. 0 ... : ... .. . ... ...
ROW 3D : ... .. B ... ... ... : ... .. 7 ... ... ... : ... .. . ... : ... .. . ... : ... .. . ... ...
ROW 3E : ... .. A ... ... ... : ... .. 6 ... ... ... : ... .. . ... : ... .. . ... : ... .. . ... ...
ROW 3F : ... .. 0 ... ... ... : ... .. 0 ... ... ... : ... .. . ... : ... .. . ... : ... .. . ... ...
ROW 40 : ... .. . ... ... ... : F#1 00 B P80 V02 ... : ... .. . ... : ... .. . ... : ... .. . ... ...
ROW 41 : ... .. . ... ... ... : ... .. . ... V00 ... : ... .. . ... : ... .. . ... : ... .. . ... ...
ROW 42 : ... .. . ... ... ... : ... .. . ... ... ... : ... .. . ... : ... .. . ... : ... .. . ... ...
ROW 43 : ... .. . ... ... ... : ... .. 7 ... ... ... : ... .. . ... : ... .. . ... : ... .. . ... ...
ROW 44 : ... .. . ... ... ... : ... .. 0 ... ... ... : ... .. . ... : ... .. . ... : ... .. . ... ...
ROW 45 : A#2 00 D P8A ... ... : ... .. B ... V02 ... : ... .. . ... : C-# 00 F ... : C-0 00 . Z40 ...
ROW 46 : D-3 00 E P80 ... ... : ... .. . ... V00 ... : ... .. . ... : ... .. . ... : ... .. . ... ...
ROW 47 : ... .. C ... ... ... : ... .. . ... ... ... : ... .. . ... : ... .. 0 ... : ... .. . ... ...
ROW 48 : ... .. B ... ... ... : ... .. 7 ... ... ... : ... .. . ... : ... .. . ... : ... .. . ... ...
ROW 49 : ... .. A ... ... ... : ... .. 6 ... ... ... : ... .. . ... : ... .. . ... : ... .. . ... ...
ROW 4A : ... .. 9 ... ... ... : ... .. 0 ... ... ... : ... .. . ... : ... .. . ... : ... .. . ... ...
ROW 4B : G-2 00 D P8A ... ... : F#1 00 B P80 V02 ... : ... .. . ... : ... .. F ... : ... .. . ... ...
ROW 4C : B-2 00 E P80 ... ... : ... .. . ... V00 ... : ... .. . ... : ... .. . ... : ... .. . ... ...
ROW 4D : ... .. C ... ... ... : ... .. . ... ... ... : ... .. . ... : ... .. 0 ... : ... .. . ... ...
ROW 4E : ... .. B ... ... ... : ... .. 7 ... ... ... : ... .. . ... : ... .. . ... : ... .. . ... ...
ROW 4F : ... .. A ... ... ... : ... .. 6 ... ... ... : ... .. . ... : ... .. . ... : ... .. . ... ...
ROW 50 : ... .. 9 ... ... ... : ... .. 0 ... ... ... : ... .. . ... : ... .. . ... : ... .. . ... ...
ROW 51 : A#2 00 D P8A ... ... : F#1 00 B P80 V02 ... : ... .. . ... : 4-# 00 F ... : D-0 00 . Z40 ...
ROW 52 : D-3 00 E P80 ... ... : ... .. . ... V00 ... : ... .. . ... : ... .. . ... : ... .. . ... ...
ROW 53 : ... .. C ... ... ... : ... .. . ... ... ... : ... .. . ... : ... .. 0 ... : ... .. . ... ...
ROW 54 : ... .. B ... ... ... : ... .. 7 ... ... ... : ... .. . ... : ... .. . ... : ... .. . ... ...
ROW 55 : ... .. A ... ... ... : ... .. 6 ... ... ... : ... .. . ... : ... .. . ... : ... .. . ... ...
ROW 56 : ... .. 9 ... ... ... : ... .. 5 ... ... ... : ... .. . ... : ... .. . ... : ... .. . ... ...
ROW 57 : ... .. . ... ... ... : ... .. 4 ... ... ... : ... .. . ... : ... .. . ... : ... .. . ... ...
ROW 58 : ... .. . ... ... ... : ... .. . ... ... ... : ... .. . ... : ... .. . ... : ... .. . ... ...
ROW 59 : ... .. . ... ... ... : ... .. . ... ... ... : ... .. . ... : ... .. . ... : ... .. . ... ...
ROW 5A : ... .. . ... ... ... : ... .. . ... ... ... : ... .. . ... : ... .. . ... : ... .. . ... ...
ROW 5B : ... .. . ... ... ... : ... .. . ... ... ... : ... .. . ... : ... .. . ... : ... .. . ... ...
ROW 5C : ... .. . ... ... ... : ... .. . ... ... ... : ... .. . ... : ... .. . ... : ... .. . ... ...
ROW 5D : ... .. . ... ... ... : ... .. . ... ... ... : ... .. . P7F : C-# 00 F ... : D#0 00 . Z40 ...
ROW 5E : ... .. . ... ... ... : ... .. . ... ... ... : A#4 00 . P83 : ... .. . ... : ... .. . ... ...
ROW 5F : ... .. . ... ... ... : ... .. . ... ... ... : ... .. . P82 : ... .. 0 ... : ... .. . ... ...
ROW 60 : ... .. . ... ... ... : ... .. . ... ... ... : ... .. . P81 : ... .. . ... : ... .. . ... ...
ROW 61 : ... .. . ... ... ... : ... .. . ... ... ... : ... .. . P80 : ... .. . ... : ... .. . ... ...
ROW 62 : ... .. . ... ... ... : ... .. . ... ... ... : ... .. . P7F : ... .. . ... : ... .. . ... ...
ROW 63 : ... .. D P8A ... ... : B-1 00 B ... V02 ... : ... .. . P7E : ... .. F ... : D#0 00 . Z40 ...
ROW 64 : F#3 00 E P80 ... ... : ... .. . ... V00 ... : A-4 00 . P83 : ... .. . ... : ... .. . ... ...
ROW 65 : ... .. C ... ... ... : ... .. . ... ... ... : ... .. . P82 : ... .. 0 ... : ... .. . ... ...
ROW 66 : ... .. B ... ... ... : ... .. 7 ... ... ... : ... .. . P81 : ... .. . ... : ... .. . ... ...
ROW 67 : ... .. 9 ... ... ... : ... .. 5 ... ... ... : ... .. . P80 : ... .. . ... : ... .. . ... ...
ROW 68 : C-3 00 D P8A ... ... : A-1 00 B ... V02 ... : ... .. . ... : 4-# 00 F ... : D-0 00 . Z40 ...
ROW 69 : E-3 00 E P80 ... ... : ... .. . ... V00 ... : ... .. . ... : ... .. . ... : ... .. . ... ...
ROW 6A : ... .. C ... ... ... : ... .. . ... ... ... : ... .. . ... : ... .. 0 ... : ... .. . ... ...
ROW 6B : ... .. B ... ... ... : ... .. 7 ... ... ... : ... .. . ... : ... .. . ... : ... .. . ... ...
ROW 6C : ... .. A ... ... ... : ... .. 6 ... ... ... : ... .. . ... : ... .. . ... : ... .. . ... ...
ROW 6D : ... .. 9 ... ... ... : ... .. 0 ... ... ... : ... .. . ... : ... .. . ... : ... .. . ... ...
ROW 6E : ... .. . ... ... ... : A-1 00 B P80 V02 ... : ... .. . ... : ... .. . ... : ... .. . ... ...
ROW 6F : ... .. . ... ... ... : ... .. . ... V00 ... : ... .. . ... : ... .. . ... : ... .. . ... ...
ROW 70 : ... .. . ... ... ... : ... .. . ... ... ... : ... .. . ... : ... .. . ... : ... .. . ... ...
ROW 71 : ... .. . ... ... ... : ... .. 7 ... ... ... : ... .. . ... : ... .. . ... : ... .. . ... ...
ROW 72 : ... .. . ... ... ... : ... .. 6 ... ... ... : ... .. . ... : ... .. . ... : ... .. . ... ...
ROW 73 : ... .. . ... ... ... : ... .. 0 ... ... ... : ... .. . ... : ... .. . ... : ... .. . ... ...
ROW 74 : ... .. . ... ... ... : A-1 00 B P80 V02 ... : ... .. . ... : C-# 00 F ... : C-0 00 . Z40 ...
ROW 75 : ... .. . ... ... ... : ... .. . ... V00 ... : ... .. . ... : ... .. . ... : ... .. . ... ...
ROW 76 : ... .. . ... ... ... : ... .. . ... ... ... : ... .. . ... : ... .. 0 ... : ... .. . ... ...
ROW 77 : ... .. . ... ... ... : ... .. 7 ... ... ... : ... .. . ... : ... .. . ... : ... .. . ... ...
ROW 78 : ... .. . ... ... ... : ... .. 6 ... ... ... : ... .. . ... : ... .. . ... : ... .. . ... ...
ROW 79 : ... .. . ... ... ... : ... .. 0 ... ... ... : ... .. . ... : ... .. . ... : C-0 00 . Z40 ...
ROW 7A : D-3 00 D P8A ... ... : A-1 00 B P80 V02 ... : ... .. . ... : ... .. F ... : ... .. . ... ...
ROW 7B : F#3 00 E P80 ... ... : ... .. . ... V00 ... : ... .. . ... : ... .. . ... : ... .. . ... ...
ROW 7C : ... .. C ... ... ... : ... .. . ... ... ... : ... .. . ... : ... .. 0 ... : ... .. . ... ...
ROW 7D : ... .. B ... ... ... : ... .. 7 ... ... ... : ... .. . ... : ... .. . ... : ... .. . ... ...
ROW 7E : ... .. A ... ... ... : ... .. 6 ... ... ... : ... .. . ... : ... .. . ... : ... .. . ... ...
ROW 7F : ... .. 9 ... ... ... : ... .. 0 ... ... ... : ... .. . ... : ... .. . ... : ... .. . ... ...
ROW 80 : C-3 00 D P8A ... ... : A-1 00 B P80 V02 ... : ... .. . ... : 4-# 00 F ... : D-0 00 . Z40 ...
ROW 81 : E-3 00 E P80 ... ... : ... .. . ... V00 ... : ... .. . ... : ... .. . ... : ... .. . ... ...
ROW 82 : ... .. C ... ... ... : ... .. . ... ... ... : ... .. . ... : ... .. 0 ... : ... .. . ... ...
ROW 83 : ... .. B ... ... ... : ... .. 7 ... ... ... : ... .. . ... : ... .. . ... : ... .. . ... ...
ROW 84 : ... .. A ... ... ... : ... .. 6 ... ... ... : ... .. . ... : ... .. . ... : ... .. . ... ...
ROW 85 : ... .. 9 ... ... ... : ... .. 5 ... ... ... : ... .. . ... : ... .. . ... : ... .. . ... ...
ROW 86 : ... .. . ... ... ... : ... .. 4 ... ... ... : ... .. . ... : ... .. . ... : ... .. . ... ...
ROW 87 : ... .. . ... ... ... : ... .. . ... ... ... : ... .. . ... : ... .. . ... : ... .. . ... ...
ROW 88 : ... .. . ... ... ... : ... .. . ... ... ... : ... .. . ... : ... .. . ... : ... .. . ... ...
ROW 89 : ... .. . ... ... ... : ... .. . ... ... ... : ... .. . ... : ... .. . ... : ... .. . ... ...
ROW 8A : ... .. . ... ... ... : ... .. . ... ... ... : ... .. . ... : ... .. . ... : ... .. . ... ...
ROW 8B : ... .. . ... ... ... : ... .. . ... ... ... : E-4 00 . ... : C-# 00 F ... : D#0 00 . Z40 ...
ROW 8C : ... .. . ... ... ... : ... .. . ... ... ... : ... .. . ... : ... .. . ... : ... .. . ... ...
ROW 8D : ... .. . ... ... ... : ... .. . ... ... ... : ... .. . ... : ... .. 0 ... : ... .. . ... ...
ROW 8E : ... .. . ... ... ... : ... .. . ... ... ... : ... .. . ... : ... .. . ... : ... .. . ... ...
ROW 8F : ... .. . ... ... ... : ... .. . ... ... ... : ... .. . ... : ... .. . ... : ... .. . ... ...
ROW 90 : ... .. . ... ... ... : ... .. . ... ... ... : ... .. . ... : ... .. . ... : ... .. . ... ...
ROW 91 : A-2 00 D P8A ... ... : F#1 00 B ... V02 ... : ... .. . ... : ... .. F ... : D#0 00 . Z40 ...
ROW 92 : C#3 00 E P80 ... ... : ... .. . ... V00 ... : ... .. . ... : ... .. . ... : ... .. . ... ...
ROW 93 : ... .. C ... ... ... : ... .. . ... ... ... : ... .. . ... : ... .. 0 ... : ... .. . ... ...
ROW 94 : ... .. B ... ... ... : ... .. 7 ... ... ... : ... .. . ... : ... .. . ... : ... .. . ... ...
ROW 95 : ... .. A ... ... ... : ... .. 6 ... ... ... : ... .. . ... : ... .. . ... : ... .. . ... ...
ROW 96 : ... .. 9 ... ... ... : ... .. 5 ... ... ... : ... .. . ... : ... .. . ... : ... .. . ... ...
ROW 97 : F-2 00 D P8A ... ... : E-1 00 B ... V02 ... : ... .. . ... : 4-# 00 F ... : D-0 00 . Z40 ...
ROW 98 : A-2 00 E P80 ... ... : ... .. . ... V00 ... : ... .. . ... : ... .. . ... : ... .. . ... ...
ROW 99 : ... .. C ... ... ... : ... .. . ... ... ... : ... .. . ... : ... .. 0 ... : ... .. . ... ...
ROW 9A : ... .. B ... ... ... : ... .. 7 ... ... ... : ... .. . ... : ... .. . ... : ... .. . ... ...
ROW 9B : ... .. A ... ... ... : ... .. 6 ... ... ... : ... .. . ... : ... .. . ... : ... .. . ... ...
ROW 9C : ... .. 0 ... ... ... : ... .. 0 ... ... ... : ... .. . ... : ... .. . ... : ... .. . ... ...
ROW 9D : ... .. . ... ... ... : E-1 00 B P80 V02 ... : ... .. . ... : ... .. . ... : ... .. . ... ...
ROW 9E : ... .. . ... ... ... : ... .. . ... V00 ... : ... .. . ... : ... .. . ... : ... .. . ... ...
ROW 9F : ... .. . ... ... ... : ... .. . ... ... ... : ... .. . ... : ... .. . ... : ... .. . ... ...
ROW A0 : ... .. . ... ... ... : ... .. 7 ... ... ... : ... .. . ... : ... .. . ... : ... .. . ... ...
ROW A1 : ... .. . ... ... ... : ... .. 6 ... ... ... : ... .. . ... : ... .. . ... : ... .. . ... ...
ROW A2 : ... .. . ... ... ... : ... .. 0 ... ... ... : ... .. . ... : ... .. . ... : ... .. . ... ...
ROW A3 : F-2 00 D P8A ... ... : E-1 00 B P80 V02 ... : ... .. . ... : C-# 00 F ... : C-0 00 . Z40 ...
ROW A4 : A-2 00 E P80 ... ... : ... .. . ... V00 ... : ... .. . ... : ... .. . ... : ... .. . ... ...
ROW A5 : ... .. C ... ... ... : ... .. . ... ... ... : ... .. . ... : ... .. 0 ... : ... .. . ... ...
ROW A6 : ... .. B ... ... ... : ... .. 7 ... ... ... : ... .. . ... : ... .. . ... : ... .. . ... ...
ROW A7 : ... .. A ... ... ... : ... .. 6 ... ... ... : ... .. . ... : ... .. . ... : ... .. . ... ...
ROW A8 : ... .. 9 ... ... ... : ... .. 0 ... ... ... : ... .. . ... : ... .. . ... : ... .. . ... ...
ROW A9 : D-2 00 D P8A ... ... : E-1 00 B P80 V02 ... : ... .. . ... : ... .. F ... : ... .. . ... ...
ROW AA : F#2 00 E P80 ... ... : ... .. . ... V00 ... : ... .. . ... : ... .. . ... : ... .. . ... ...
ROW AB : ... .. C ... ... ... : ... .. . ... ... ... : ... .. . ... : ... .. 0 ... : ... .. . ... ...
ROW AC : ... .. B ... ... ... : ... .. 7 ... ... ... : ... .. . ... : ... .. . ... : ... .. . ... ...
ROW AD : ... .. 9 ... ... ... : ... .. 0 ... ... ... : ... .. . ... : ... .. . ... : ... .. . ... ...
ROW AE : A-2 00 D P8A ... ... : ... .. B ... V02 ... : C#4 00 . ... : 4-# 00 F ... : D-0 00 . Z40 ...
ROW AF : C#3 00 E P80 ... ... : ... .. . ... V00 ... : ... .. . ... : ... .. . ... : ... .. . ... ...
ROW B0 : ... .. C ... ... ... : ... .. . ... ... ... : ... .. . ... : ... .. 0 ... : ... .. . ... ...
ROW B1 : ... .. B ... ... ... : ... .. 7 ... ... ... : ... .. . ... : ... .. . ... : ... .. . ... ...
ROW B2 : ... .. A ... ... ... : ... .. 6 ... ... ... : ... .. . ... : ... .. . ... : ... .. . ... ...
ROW B3 : ... .. 9 ... ... ... : ... .. 5 ... ... ... : ... .. . ... : ... .. . ... : ... .. . ... ...
ROW B4 : ... .. . ... ... ... : ... .. 4 ... ... ... : ... .. . ... : ... .. . ... : ... .. . ... ...
ROW B5 : ... .. . ... ... ... : ... .. . ... ... ... : ... .. . ... : ... .. . ... : ... .. . ... ...
ROW B6 : ... .. . ... ... ... : ... .. . ... ... ... : ... .. . ... : ... .. . ... : ... .. . ... ...
ROW B7 : ... .. . ... ... ... : ... .. . ... ... ... : ... .. . ... : ... .. . ... : ... .. . ... ...
ROW B8 : ... .. . ... ... ... : ... .. . ... ... ... : ... .. . ... : ... .. . ... : ... .. . ... ...
ROW B9 : ... .. . ... ... ... : ... .. . ... ... ... : ... .. . ... : ... .. . ... : ... .. . ... ...
ROW BA : ... .. . ... ... ... : ... .. . ... ... ... : ... .. . ... : C-# 00 F ... : C#0 00 . Z40 ...
ROW BB : ... .. . ... ... ... : ... .. . ... ... ... : ... .. . ... : ... .. . ... : ... .. . ... ...
ROW BC : ... .. . ... ... ... : ... .. . ... ... ... : ... .. . ... : ... .. 0 ... : ... .. . ... ...
ROW BD : ... .. . ... ... ... : ... .. . ... ... ... : ... .. . ... : ... .. . ... : ... .. . ... ...
ROW BE : ... .. . ... ... ... : ... .. . ... ... ... : ... .. . ... : ... .. . ... : ... .. . ... ...
ROW BF : ... .. . ... ... ... : ... .. . ... ... ... : ... .. . ... : ... .. . ... : ... .. . ... ...
ROW C0 : F-2 00 D P8A ... ... : A-1 00 B ... V02 ... : ... .. . ... : ... .. . ... : ... .. . ... ...
ROW C1 : A-2 00 E P80 ... ... : ... .. . ... V00 ... : ... .. . ... : ... .. . ... : ... .. . ... ...
ROW C2 : ... .. C ... ... ... : ... .. . ... ... ... : ... .. . ... : ... .. . ... : ... .. . ... ...
ROW C3 : ... .. B ... ... ... : ... .. 7 ... ... ... : ... .. . ... : ... .. . ... : ... .. . ... ...
ROW C4 : ... .. A ... ... ... : ... .. 6 ... ... ... : ... .. . ... : ... .. . ... : ... .. . ... ...
ROW C5 : ... .. 0 ... ... ... : ... .. 0 ... ... ... : ... .. . ... : ... .. . ... : ... .. . ... ...
ROW C6 : G-2 00 D P8A ... ... : B-1 00 B P80 V02 ... : B-3 00 . ... : 4-# 00 F ... : D-0 00 . Z40 ...
ROW C7 : B-2 00 E P80 ... ... : ... .. . ... V00 ... : ... .. . ... : ... .. . ... : ... .. . ... ...
ROW C8 : ... .. C ... ... ... : ... .. . ... ... ... : ... .. . ... : ... .. 0 ... : ... .. . ... ...
ROW C9 : ... .. B ... ... ... : ... .. 7 ... ... ... : ... .. . ... : ... .. . ... : ... .. . ... ...
ROW CA : ... .. A ... ... ... : ... .. 6 ... ... ... : ... .. . ... : ... .. . ... : ... .. . ... ...
ROW CB : ... .. 9 ... ... ... : ... .. 0 ... ... ... : ... .. . ... : ... .. . ... : ... .. . ... ...
ROW CC : ... .. . ... ... ... : B-1 00 B P80 V02 ... : ... .. . ... : ... .. . ... : ... .. . ... ...
ROW CD : ... .. . ... ... ... : ... .. . ... V00 ... : ... .. . ... : ... .. . ... : ... .. . ... ...
ROW CE : ... .. . ... ... ... : ... .. . ... ... ... : ... .. . ... : ... .. . ... : ... .. . ... ...
ROW CF : ... .. . ... ... ... : ... .. 7 ... ... ... : ... .. . ... : ... .. . ... : ... .. . ... ...
ROW D0 : ... .. . ... ... ... : ... .. 0 ... ... ... : ... .. . ... : ... .. . ... : ... .. . ... ...
ROW D1 : ... .. . ... ... ... : ... .. B ... V02 ... : ... .. . ... : C-# 00 F ... : C-0 00 . Z40 ...
ROW D2 : ... .. . ... ... ... : ... .. . ... V00 ... : ... .. . ... : ... .. . ... : ... .. . ... ...
ROW D3 : ... .. . ... ... ... : ... .. . ... ... ... : ... .. . ... : ... .. 0 ... : ... .. . ... ...
ROW D4 : ... .. . ... ... ... : ... .. 7 ... ... ... : ... .. . ... : ... .. . ... : ... .. . ... ...
ROW D5 : ... .. . ... ... ... : ... .. 6 ... ... ... : ... .. . ... : ... .. . ... : ... .. . ... ...
ROW D6 : ... .. . ... ... ... : ... .. 0 ... ... ... : ... .. . ... : ... .. . ... : ... .. . ... ...
ROW D7 : D-2 00 D P8A ... ... : B-1 00 B P80 V02 ... : ... .. . ... : ... .. F ... : ... .. . ... ...
ROW D8 : F#2 00 E P80 ... ... : ... .. . ... V00 ... : ... .. . ... : ... .. . ... : ... .. . ... ...
ROW D9 : ... .. C ... ... ... : ... .. . ... ... ... : ... .. . ... : ... .. 0 ... : ... .. . ... ...
ROW DA : ... .. B ... ... ... : ... .. 7 ... ... ... : ... .. . ... : ... .. . ... : ... .. . ... ...
ROW DB : ... .. A ... ... ... : ... .. 6 ... ... ... : ... .. . ... : ... .. . ... : ... .. . ... ...
ROW DC : ... .. 9 ... ... ... : ... .. 0 ... ... ... : ... .. . ... : ... .. . ... : ... .. . ... ...
ROW DD : G-2 00 D P8A ... ... : B-1 00 B P80 V02 ... : ... .. . ... : 4-# 00 F ... : D-0 00 . Z40 ...
ROW DE : B-2 00 E P80 ... ... : ... .. . ... V00 ... : ... .. . ... : ... .. . ... : ... .. . ... ...
ROW DF : ... .. C ... ... ... : ... .. . ... ... ... : ... .. . ... : ... .. 0 ... : ... .. . ... ...
ROW E0 : ... .. B ... ... ... : ... .. 7 ... ... ... : ... .. . ... : ... .. . ... : ... .. . ... ...
ROW E1 : ... .. A ... ... ... : ... .. 6 ... ... ... : ... .. . ... : ... .. . ... : ... .. . ... ...
ROW E2 : ... .. 9 ... ... ... : ... .. 5 ... ... ... : ... .. . ... : ... .. . ... : ... .. . ... ...
ROW E3 : ... .. . ... ... ... : ... .. 4 ... ... ... : ... .. . ... : ... .. . ... : ... .. . ... ...
ROW E4 : ... .. . ... ... ... : ... .. . ... ... ... : ... .. . ... : ... .. . ... : ... .. . ... ...
ROW E5 : ... .. . ... ... ... : ... .. . ... ... ... : ... .. . ... : ... .. . ... : ... .. . ... ...
ROW E6 : ... .. . ... ... ... : ... .. . ... ... ... : ... .. . ... : ... .. . ... : ... .. . ... ...
ROW E7 : ... .. . ... ... ... : ... .. . ... ... ... : ... .. . ... : ... .. . ... : ... .. . ... ...
ROW E8 : ... .. . ... ... ... : ... .. . ... ... ... : ... .. . ... : ... .. . ... : ... .. . ... ...
ROW E9 : ... .. . ... ... ... : ... .. . ... ... ... : ... .. . ... : C-# 00 F ... : D#0 00 . Z40 ...
ROW EA : ... .. . ... ... ... : ... .. . ... ... ... : ... .. . ... : ... .. . ... : ... .. . ... ...
ROW EB : ... .. . ... ... ... : ... .. . ... ... ... : ... .. . ... : ... .. 0 ... : ... .. . ... ...
ROW EC : ... .. . ... ... ... : ... .. . ... ... ... : ... .. . ... : ... .. . ... : ... .. . ... ...
ROW ED : ... .. . ... ... ... : ... .. . ... ... ... : ... .. . ... : ... .. . ... : ... .. . ... ...
ROW EE : ... .. . ... ... ... : ... .. . ... ... ... : ... .. . ... : ... .. . ... : ... .. . ... ...
ROW EF : A-2 00 D P8A ... ... : A-1 00 B ... V02 ... : ... .. . ... : ... .. F ... : D#0 00 . Z40 ...
ROW F0 : C#3 00 E P80 ... ... : ... .. . ... V00 ... : ... .. . ... : ... .. . ... : ... .. . ... ...
ROW F1 : ... .. C ... ... ... : ... .. . ... ... ... : ... .. . ... : ... .. 0 ... : ... .. . ... ...
ROW F2 : ... .. B ... ... ... : ... .. 7 ... ... ... : ... .. . ... : ... .. . ... : ... .. . ... ...
ROW F3 : ... .. 9 ... ... ... : ... .. 0 ... ... ... : ... .. . ... : ... .. . ... : ... .. . ... ...
ROW F4 : A#2 00 D P8A ... ... : F#1 00 B ... V02 ... : ... .. . ... : 4-# 00 F ... : D-0 00 . Z40 ...
ROW F5 : D-3 00 E P80 ... ... : ... .. . ... V00 ... : ... .. . ... : ... .. . ... : ... .. . ... ...
ROW F6 : ... .. C ... ... ... : ... .. . ... ... ... : ... .. . ... : ... .. 0 ... : ... .. . ... ...
ROW F7 : ... .. B ... ... ... : ... .. 7 ... ... ... : ... .. . ... : ... .. . ... : ... .. . ... ...
ROW F8 : ... .. A ... ... ... : ... .. 6 ... ... ... : ... .. . ... : ... .. . ... : ... .. . ... ...
ROW F9 : ... .. 0 ... ... ... : ... .. 0 ... ... ... : ... .. . ... : ... .. . ... : ... .. . ... ...
ROW FA : ... .. . ... ... ... : F#1 00 B P80 V02 ... : ... .. . ... : ... .. . ... : ... .. . ... ...
ROW FB : ... .. . ... ... ... : ... .. . ... V00 ... : ... .. . ... : ... .. . ... : ... .. . ... ...
ROW FC : ... .. . ... ... ... : ... .. . ... ... ... : ... .. . ... : ... .. . ... : ... .. . ... ...
ROW FD : ... .. . ... ... ... : ... .. 7 ... ... ... : ... .. . ... : ... .. . ... : ... .. . ... ...
ROW FE : ... .. . ... ... ... : ... .. 6 ... ... ... : ... .. . ... : ... .. . ... : ... .. . ... ...
ROW FF : ... .. . ... ... ... : ... .. 0 ... ... ... : ... .. . ... : ... .. . ... : ... .. . ... ...

PATTERN 11
ROW 00 : A#2 00 D P8A ... ... : F#1 00 B P80 V02 ... : ... .. . ... : C-# 00 F ... : C-0 00 . Z40 ...
ROW 01 : D-3 00 E P80 ... ... : ... .. . ... V00 ... : ... .. . ... : ... .. . ... : ... .. . ... ...
ROW 02 : ... .. C ... ... ... : ... .. . ... ... ... : ... .. . ... : ... .. 0 ... : ... .. . ... ...
ROW 03 : ... .. B ... ... ... : ... .. 7 ... ... ... : ... .. . ... : ... .. . ... : ... .. . ... ...
ROW 04 : ... .. A ... ... ... : ... .. 6 ... ... ... : ... .. . ... : ... .. . ... : ... .. . ... ...
ROW 05 : ... .. 9 ... ... ... : ... .. 0 ... ... ... : ... .. . ... : ... .. . ... : ... .. . ... ...
ROW 06 : G-2 00 D P8A ... ... : F#1 00 B P80 V02 ... : ... .. . ... : ... .. F ... : ... .. . ... ...
ROW 07 : B-2 00 E P80 ... ... : ... .. . ... V00 ... : ... .. . ... : ... .. . ... : ... .. . ... ...
ROW 08 : ... .. C ... ... ... : ... .. . ... ... ... : ... .. . ... : ... .. 0 ... : ... .. . ... ...
ROW 09 : ... .. B ... ... ... : ... .. 7 ... ... ... : ... .. . ... : ... .. . ... : ... .. . ... ...
ROW 0A : ... .. A ... ... ... : ... .. 6 ... ... ... : ... .. . ... : ... .. . ... : ... .. . ... ...
ROW 0B : ... .. 9 ... ... ... : ... .. 0 ... ... ... : ... .. . ... : ... .. . ... : ... .. . ... ...
ROW 0C : A#2 00 D P8A ... ... : F#1 00 B P80 V02 ... : ... .. . ... : 4-# 00 F ... : D-0 00 . Z40 ...
ROW 0D : D-3 00 E P80 ... ... : ... .. . ... V00 ... : ... .. . ... : ... .. . ... : ... .. . ... ...
ROW 0E : ... .. C ... ... ... : ... .. . ... ... ... : ... .. . ... : ... .. 0 ... : ... .. . ... ...
ROW 0F : ... .. B ... ... ... : ... .. 7 ... ... ... : ... .. . ... : ... .. . ... : ... .. . ... ...
ROW 10 : ... .. A ... ... ... : ... .. 6 ... ... ... : ... .. . ... : ... .. . ... : ... .. . ... ...
ROW 11 : ... .. 9 ... ... ... : ... .. 5 ... ... ... : ... .. . ... : ... .. . ... : ... .. . ... ...
ROW 12 : ... .. . ... ... ... : ... .. 4 ... ... ... : ... .. . ... : ... .. . ... : ... .. . ... ...
ROW 13 : ... .. . ... ... ... : ... .. . ... ... ... : ... .. . ... : ... .. . ... : ... .. . ... ...
ROW 14 : ... .. . ... ... ... : ... .. . ... ... ... : ... .. . ... : ... .. . ... : ... .. . ... ...
ROW 15 : ... .. . ... ... ... : ... .. . ... ... ... : ... .. . ... : ... .. . ... : ... .. . ... ...
ROW 16 : ... .. . ... ... ... : ... .. . ... ... ... : ... .. . ... : ... .. . ... : ... .. . ... ...
ROW 17 : ... .. . ... ... ... : ... .. . ... ... ... : C-4 00 . P7C : C-# 00 F ... : D#0 00 . Z40 ...
ROW 18 : ... .. . ... ... ... : ... .. . ... ... ... : C#4 00 . P7E : ... .. . ... : ... .. . ... ...
ROW 19 : ... .. . ... ... ... : ... .. . ... ... ... : ... .. . P85 : ... .. 0 ... : ... .. . ... ...
ROW 1A : ... .. . ... ... ... : ... .. . ... ... ... : D-4 00 . P82 : ... .. . ... : ... .. . ... ...
ROW 1B : ... .. . ... ... ... : ... .. . ... ... ... : D#4 00 . P7F : ... .. . ... : ... .. . ... ...
ROW 1C : ... .. . ... ... ... : ... .. . ... ... ... : E-4 00 . P7D : ... .. . ... : ... .. . ... ...
ROW 1D : ... .. D P8A ... ... : B-1 00 B ... V02 ... : ... .. . P84 : ... .. F ... : D#0 00 . Z40 ...
ROW 1E : F#3 00 E P80 ... ... : ... .. . ... V00 ... : F#4 00 . P80 : ... .. . ... : ... .. . ... ...
ROW 1F : ... .. C ... ... ... : ... .. . ... ... ... : G-4 00 . ... : ... .. 0 ... : ... .. . ... ...
ROW 20 : ... .. B ... ... ... : ... .. 7 ... ... ... : G#4 00 . P7F : ... .. . ... : ... .. . ... ...
ROW 21 : ... .. A ... ... ... : ... .. 6 ... ... ... : A-4 00 . ... : ... .. . ... : ... .. . ... ...
ROW 22 : ... .. 9 ... ... ... : ... .. 5 ... ... ... : ... .. . P80 : ... .. . ... : ... .. . ... ...
ROW 23 : ... .. D P79 ... ... : A-1 00 B ... V02 ... : ... .. . ... : 4-# 00 F ... : D-0 00 . Z40 ...
ROW 24 : A-3 00 E P80 ... ... : ... .. . ... V00 ... : ... .. . ... : ... .. . ... : ... .. . ... ...
ROW 25 : ... .. C ... ... ... : ... .. . ... ... ... : ... .. . ... : ... .. 0 ... : ... .. . ... ...
ROW 26 : ... .. B ... ... ... : ... .. 7 ... ... ... : ... .. . ... : ... .. . ... : ... .. . ... ...
ROW 27 : ... .. A ... ... ... : ... .. 6 ... ... ... : ... .. . ... : ... .. . ... : ... .. . ... ...
ROW 28 : ... .. 9 ... ... ... : ... .. 0 ... ... ... : ... .. . ... : ... .. . ... : ... .. . ... ...
ROW 29 : ... .. . ... ... ... : A-1 00 B P80 V02 ... : ... .. . ... : ... .. . ... : ... .. . ... ...
ROW 2A : ... .. . ... ... ... : ... .. . ... V00 ... : ... .. . ... : ... .. . ... : ... .. . ... ...
ROW 2B : ... .. . ... ... ... : ... .. . ... ... ... : ... .. . ... : ... .. . ... : ... .. . ... ...
ROW 2C : ... .. . ... ... ... : ... .. 7 ... ... ... : ... .. . ... : ... .. . ... : ... .. . ... ...
ROW 2D : ... .. . ... ... ... : ... .. 6 ... ... ... : ... .. . ... : ... .. . ... : ... .. . ... ...
ROW 2E : ... .. . ... ... ... : ... .. 0 ... ... ... : ... .. . ... : ... .. . ... : ... .. . ... ...
ROW 2F : ... .. . ... ... ... : A-1 00 B P80 V02 ... : ... .. . ... : C-# 00 F ... : C-0 00 . Z40 ...
ROW 30 : ... .. . ... ... ... : ... .. . ... V00 ... : ... .. . ... : ... .. . ... : ... .. . ... ...
ROW 31 : ... .. . ... ... ... : ... .. . ... ... ... : ... .. . ... : ... .. 0 ... : ... .. . ... ...
ROW 32 : ... .. . ... ... ... : ... .. 7 ... ... ... : ... .. . ... : ... .. . ... : ... .. . ... ...
ROW 33 : ... .. . ... ... ... : ... .. 6 ... ... ... : ... .. . ... : ... .. . ... : ... .. . ... ...
ROW 34 : ... .. . ... ... ... : ... .. 0 ... ... ... : ... .. . ... : ... .. . ... : C-0 00 . Z40 ...
ROW 35 : D-3 00 D P8A ... ... : A-1 00 B P80 V02 ... : ... .. . ... : ... .. F ... : ... .. . ... ...
ROW 36 : F#3 00 E P80 ... ... : ... .. . ... V00 ... : ... .. . ... : ... .. . ... : ... .. . ... ...
ROW 37 : ... .. C ... ... ... : ... .. . ... ... ... : ... .. . ... : ... .. 0 ... : ... .. . ... ...
ROW 38 : ... .. B ... ... ... : ... .. 7 ... ... ... : ... .. . ... : ... .. . ... : ... .. . ... ...
ROW 39 : ... .. 9 ... ... ... : ... .. 0 ... ... ... : ... .. . ... : ... .. . ... : ... .. . ... ...
ROW 3A : C-3 00 D P8A ... ... : ... .. B ... V02 ... : ... .. . ... : 4-# 00 F ... : D-0 00 . Z40 ...
ROW 3B : E-3 00 E P80 ... ... : ... .. . ... V00 ... : ... .. . ... : ... .. . ... : ... .. . ... ...
ROW 3C : ... .. C ... ... ... : ... .. . ... ... ... : ... .. . ... : ... .. 0 ... : ... .. . ... ...
ROW 3D : ... .. B ... ... ... : ... .. 7 ... ... ... : ... .. . ... : ... .. . ... : ... .. . ... ...
ROW 3E : ... .. A ... ... ... : ... .. 6 ... ... ... : ... .. . ... : ... .. . ... : ... .. . ... ...
ROW 3F : ... .. 9 ... ... ... : ... .. 5 ... ... ... : ... .. . ... : ... .. . ... : ... .. . ... ...
ROW 40 : ... .. . ... ... ... : ... .. 4 ... ... ... : ... .. . ... : ... .. . ... : ... .. . ... ...
ROW 41 : ... .. . ... ... ... : ... .. . ... ... ... : ... .. . ... : ... .. . ... : ... .. . ... ...
ROW 42 : ... .. . ... ... ... : ... .. . ... ... ... : ... .. . ... : ... .. . ... : ... .. . ... ...
ROW 43 : ... .. . ... ... ... : ... .. . ... ... ... : ... .. . ... : ... .. . ... : ... .. . ... ...
ROW 44 : ... .. . ... ... ... : ... .. . ... ... ... : ... .. . ... : ... .. . ... : ... .. . ... ...
ROW 45 : ... .. . ... ... ... : ... .. . ... ... ... : ... .. . ... : ... .. . ... : ... .. . ... ...
ROW 46 : ... .. . ... ... ... : ... .. . ... ... ... : E-4 00 . ... : C-# 00 F ... : D#0 00 . Z40 ...
ROW 47 : ... .. . ... ... ... : ... .. . ... ... ... : ... .. . ... : ... .. . ... : ... .. . ... ...
ROW 48 : ... .. . ... ... ... : ... .. . ... ... ... : ... .. . ... : ... .. 0 ... : ... .. . ... ...
ROW 49 : ... .. . ... ... ... : ... .. . ... ... ... : ... .. . ... : ... .. . ... : ... .. . ... ...
ROW 4A : ... .. . ... ... ... : ... .. . ... ... ... : ... .. . ... : ... .. . ... : ... .. . ... ...
ROW 4B : ... .. . ... ... ... : ... .. . ... ... ... : ... .. . ... : ... .. . ... : ... .. . ... ...
ROW 4C : D-3 00 D P8A ... ... : F#1 00 B ... V02 ... : ... .. . ... : ... .. F ... : D#0 00 . Z40 ...
ROW 4D : F#3 00 E P80 ... ... : ... .. . ... V00 ... : ... .. . ... : ... .. . ... : ... .. . ... ...
ROW 4E : ... .. C ... ... ... : ... .. . ... ... ... : ... .. . ... : ... .. 0 ... : ... .. . ... ...
ROW 4F : ... .. B ... ... ... : ... .. 7 ... ... ... : ... .. . ... : ... .. . ... : ... .. . ... ...
ROW 50 : ... .. A ... ... ... : ... .. 6 ... ... ... : ... .. . ... : ... .. . ... : ... .. . ... ...
ROW 51 : ... .. 9 ... ... ... : ... .. 5 ... ... ... : ... .. . ... : ... .. . ... : ... .. . ... ...
ROW 52 : A-2 00 D P8A ... ... : E-1 00 B ... V02 ... : ... .. . ... : 4-# 00 F ... : D-0 00 . Z40 ...
ROW 53 : C#3 00 E P80 ... ... : ... .. . ... V00 ... : ... .. . ... : ... .. . ... : ... .. . ... ...
ROW 54 : ... .. C ... ... ... : ... .. . ... ... ... : ... .. . ... : ... .. 0 ... : ... .. . ... ...
ROW 55 : ... .. B ... ... ... : ... .. 7 ... ... ... : ... .. . ... : ... .. . ... : ... .. . ... ...
ROW 56 : ... .. A ... ... ... : ... .. 6 ... ... ... : ... .. . ... : ... .. . ... : ... .. . ... ...
ROW 57 : ... .. 0 ... ... ... : ... .. 0 ... ... ... : ... .. . ... : ... .. . ... : ... .. . ... ...
ROW 58 : ... .. . ... ... ... : E-1 00 B P80 V02 ... : ... .. . ... : ... .. . ... : ... .. . ... ...
ROW 59 : ... .. . ... ... ... : ... .. . ... V00 ... : ... .. . ... : ... .. . ... : ... .. . ... ...
ROW 5A : ... .. . ... ... ... : ... .. . ... ... ... : ... .. . ... : ... .. . ... : ... .. . ... ...
ROW 5B : ... .. . ... ... ... : ... .. 7 ... ... ... : ... .. . ... : ... .. . ... : ... .. . ... ...
ROW 5C : ... .. . ... ... ... : ... .. 0 ... ... ... : ... .. . ... : ... .. . ... : ... .. . ... ...
ROW 5D : A-2 00 D P8A ... ... : ... .. B ... V02 ... : ... .. . ... : C-# 00 F ... : C-0 00 . Z40 ...
ROW 5E : C#3 00 E P80 ... ... : ... .. . ... V00 ... : ... .. . ... : ... .. . ... : ... .. . ... ...
ROW 5F : ... .. C ... ... ... : ... .. . ... ... ... : ... .. . ... : ... .. 0 ... : ... .. . ... ...
ROW 60 : ... .. B ... ... ... : ... .. 7 ... ... ... : ... .. . ... : ... .. . ... : ... .. . ... ...
ROW 61 : ... .. A ... ... ... : ... .. 6 ... ... ... : ... .. . ... : ... .. . ... : ... .. . ... ...
ROW 62 : ... .. 9 ... ... ... : ... .. 0 ... ... ... : ... .. . ... : ... .. . ... : ... .. . ... ...
ROW 63 : G-2 00 D P8A ... ... : E-1 00 B P80 V02 ... : ... .. . ... : ... .. F ... : ... .. . ... ...
ROW 64 : B-2 00 E P80 ... ... : ... .. . ... V00 ... : ... .. . ... : ... .. . ... : ... .. . ... ...
ROW 65 : ... .. C ... ... ... : ... .. . ... ... ... : ... .. . ... : ... .. 0 ... : ... .. . ... ...
ROW 66 : ... .. B ... ... ... : ... .. 7 ... ... ... : ... .. . ... : ... .. . ... : ... .. . ... ...
ROW 67 : ... .. A ... ... ... : ... .. 6 ... ... ... : ... .. . ... : ... .. . ... : ... .. . ... ...
ROW 68 : ... .. 9 ... ... ... : ... .. 0 ... ... ... : ... .. . ... : ... .. . ... : ... .. . ... ...
ROW 69 : F-2 00 D P8A ... ... : E-1 00 B P80 V02 ... : C#5 00 . ... : 4-# 00 F ... : D-0 00 . Z40 ...
ROW 6A : A-2 00 E P80 ... ... : ... .. . ... V00 ... : ... .. . ... : ... .. . ... : ... .. . ... ...
ROW 6B : ... .. C ... ... ... : ... .. . ... ... ... : ... .. . ... : ... .. 0 ... : ... .. . ... ...
ROW 6C : ... .. B ... ... ... : ... .. 7 ... ... ... : ... .. . ... : ... .. . ... : ... .. . ... ...
ROW 6D : ... .. A ... ... ... : ... .. 6 ... ... ... : ... .. . ... : ... .. . ... : ... .. . ... ...
ROW 6E : ... .. 9 ... ... ... : ... .. 5 ... ... ... : ... .. . ... : ... .. . ... : ... .. . ... ...
ROW 6F : ... .. . ... ... ... : ... .. 4 ... ... ... : ... .. . ... : ... .. . ... : ... .. . ... ...
ROW 70 : ... .. . ... ... ... : ... .. . ... ... ... : ... .. . ... : ... .. . ... : ... .. . ... ...
ROW 71 : ... .. . ... ... ... : ... .. . ... ... ... : ... .. . ... : ... .. . ... : ... .. . ... ...
ROW 72 : ... .. . ... ... ... : ... .. . ... ... ... : ... .. . ... : ... .. . ... : ... .. . ... ...
ROW 73 : ... .. . ... ... ... : ... .. . ... ... ... : ... .. . ... : ... .. . ... : ... .. . ... ...
ROW 74 : ... .. . ... ... ... : ... .. . ... ... ... : ... .. . ... : ... .. . ... : ... .. . ... ...
ROW 75 : ... .. . ... ... ... : ... .. . ... ... ... : ... .. . ... : C-# 00 F ... : C#0 00 . Z40 ...
ROW 76 : ... .. . ... ... ... : ... .. . ... ... ... : D-5 00 . ... : ... .. . ... : ... .. . ... ...
ROW 77 : ... .. . ... ... ... : ... .. . ... ... ... : ... .. . ... : ... .. 0 ... : ... .. . ... ...
ROW 78 : ... .. . ... ... ... : ... .. . ... ... ... : ... .. . ... : ... .. . ... : ... .. . ... ...
ROW 79 : ... .. . ... ... ... : ... .. . ... ... ... : ... .. . ... : ... .. . ... : ... .. . ... ...
ROW 7A : ... .. . ... ... ... : ... .. . ... ... ... : ... .. . ... : ... .. . ... : ... .. . ... ...
ROW 7B : ... .. . ... ... ... : A-1 00 B ... V02 ... : ... .. . ... : ... .. . ... : ... .. . ... ...
ROW 7C : ... .. . ... ... ... : ... .. . ... V00 ... : C#5 00 . ... : ... .. . ... : ... .. . ... ...
ROW 7D : ... .. . ... ... ... : ... .. . ... ... ... : ... .. . ... : ... .. . ... : ... .. . ... ...
ROW 7E : ... .. . ... ... ... : ... .. 7 ... ... ... : ... .. . ... : ... .. . ... : ... .. . ... ...
ROW 7F : ... .. 0 ... ... ... : ... .. 0 ... ... ... : ... .. . ... : ... .. . ... : ... .. . ... ...
ROW 80 : B-3 00 9 ... ... ... : B-1 00 B ... V02 ... : B-4 00 . ... : 4-# 00 F ... : D-0 00 . Z40 ...
ROW 81 : C#4 00 9 ... ... ... : ... .. . ... V00 ... : ... .. . ... : ... .. . ... : ... .. . ... ...
ROW 82 : ... .. A ... ... ... : ... .. . ... ... ... : ... .. . ... : ... .. 0 ... : ... .. . ... ...
ROW 83 : B-3 00 9 ... ... ... : ... .. 7 ... ... ... : ... .. . ... : ... .. . ... : ... .. . ... ...
ROW 84 : ... .. A ... ... ... : ... .. 6 ... ... ... : ... .. . ... : ... .. . ... : ... .. . ... ...
ROW 85 : ... .. B ... ... ... : ... .. 0 ... ... ... : ... .. . ... : ... .. . ... : ... .. . ... ...
ROW 86 : ... .. . ... ... ... : B-1 00 B P80 V02 ... : ... .. . ... : ... .. . ... : ... .. . ... ...
ROW 87 : ... .. . ... ... ... : ... .. . ... V00 ... : ... .. . ... : ... .. . ... : ... .. . ... ...
ROW 88 : ... .. . ... ... ... : ... .. . ... ... ... : ... .. . ... : ... .. . ... : ... .. . ... ...
ROW 89 : ... .. . ... ... ... : ... .. 7 ... ... ... : ... .. . ... : ... .. . ... : ... .. . ... ...
ROW 8A : ... .. . ... ... ... : ... .. 6 ... ... ... : ... .. . ... : ... .. . ... : ... .. . ... ...
ROW 8B : ... .. . ... ... ... : ... .. 0 ... ... ... : ... .. . ... : ... .. . ... : ... .. . ... ...
ROW 8C : ... .. . ... ... ... : B-1 00 B P80 V02 ... : ... .. . ... : C-# 00 F ... : C-0 00 . Z40 ...
ROW 8D : ... .. . ... ... ... : ... .. . ... V00 ... : ... .. . ... : ... .. . ... : ... .. . ... ...
ROW 8E : ... .. . P81 ... ... : ... .. . ... ... ... : ... .. . ... : ... .. 0 ... : ... .. . ... ...
ROW 8F : ... .. . ... ... ... : ... .. 7 ... ... ... : ... .. . ... : ... .. . ... : ... .. . ... ...
ROW 90 : ... .. . ... ... ... : ... .. 6 ... ... ... : ... .. . ... : ... .. . ... : ... .. . ... ...
ROW 91 : ... .. . ... ... ... : ... .. 0 ... ... ... : ... .. . ... : ... .. . ... : ... .. . ... ...
ROW 92 : F#3 00 9 P80 ... ... : B-1 00 B P80 V02 ... : ... .. . ... : ... .. F ... : ... .. . ... ...
ROW 93 : ... .. B ... ... ... : ... .. . ... V00 ... : ... .. . ... : ... .. . ... : ... .. . ... ...
ROW 94 : ... .. . ... ... ... : ... .. . ... ... ... : ... .. . ... : ... .. 0 ... : ... .. . ... ...
ROW 95 : ... .. . ... ... ... : ... .. 7 ... ... ... : ... .. . ... : ... .. . ... : ... .. . ... ...
ROW 96 : ... .. . ... ... ... : ... .. 6 ... ... ... : ... .. . ... : ... .. . ... : ... .. . ... ...
ROW 97 : ... .. . ... ... ... : ... .. 0 ... ... ... : ... .. . ... : ... .. . ... : ... .. . ... ...
ROW 98 : A-3 00 9 ... ... ... : B-1 00 B P80 V02 ... : ... .. . ... : 4-# 00 F ... : D-0 00 . Z40 ...
ROW 99 : B-3 00 9 ... ... ... : ... .. . ... V00 ... : ... .. . ... : ... .. . ... : ... .. . ... ...
ROW 9A : ... .. A ... ... ... : ... .. . ... ... ... : ... .. . ... : ... .. 0 ... : ... .. . ... ...
ROW 9B : ... .. B ... ... ... : ... .. 7 ... ... ... : ... .. . ... : ... .. . ... : ... .. . ... ...
ROW 9C : ... .. . ... ... ... : ... .. 6 ... ... ... : ... .. . ... : ... .. . ... : ... .. . ... ...
ROW 9D : ... .. . ... ... ... : ... .. 5 ... ... ... : ... .. . ... : ... .. . ... : ... .. . ... ...
ROW 9E : ... .. . ... ... ... : ... .. 4 ... ... ... : ... .. . ... : ... .. . ... : ... .. . ... ...
ROW 9F : ... .. . ... ... ... : ... .. . ... ... ... : ... .. . ... : ... .. . ... : ... .. . ... ...
ROW A0 : ... .. . ... ... ... : ... .. . ... ... ... : ... .. . ... : ... .. . ... : ... .. . ... ...
ROW A1 : ... .. . ... ... ... : ... .. . ... ... ... : ... .. . ... : ... .. . ... : ... .. . ... ...
ROW A2 : ... .. . ... ... ... : ... .. . ... ... ... : ... .. . ... : ... .. . ... : ... .. . ... ...
ROW A3 : ... .. . ... ... ... : ... .. . ... ... ... : ... .. . ... : C-# 00 F ... : D#0 00 . Z40 ...
ROW A4 : ... .. . P81 ... ... : ... .. . ... ... ... : ... .. . ... : ... .. . ... : ... .. . ... ...
ROW A5 : ... .. . ... ... ... : ... .. . ... ... ... : ... .. . ... : ... .. 0 ... : ... .. . ... ...
ROW A6 : ... .. . ... ... ... : ... .. . ... ... ... : ... .. . ... : ... .. . ... : ... .. . ... ...
ROW A7 : ... .. . P80 ... ... : ... .. . ... ... ... : ... .. . ... : ... .. . ... : ... .. . ... ...
ROW A8 : ... .. . P7F ... ... : ... .. . ... ... ... : ... .. . ... : ... .. . ... : ... .. . ... ...
ROW A9 : C#4 00 9 P80 ... ... : A-1 00 B ... V02 ... : ... .. . ... : ... .. F ... : D#0 00 . Z40 ...
ROW AA : ... .. B ... ... ... : ... .. . ... V00 ... : ... .. . ... : ... .. . ... : ... .. . ... ...
ROW AB : ... .. . ... ... ... : ... .. . ... ... ... : ... .. . ... : ... .. 0 ... : ... .. . ... ...
ROW AC : ... .. . ... ... ... : ... .. 7 ... ... ... : ... .. . ... : ... .. . ... : ... .. . ... ...
ROW AD : ... .. . ... ... ... : ... .. 6 ... ... ... : ... .. . ... : ... .. . ... : ... .. . ... ...
ROW AE : ... .. . ... ... ... : ... .. 0 ... ... ... : ... .. . ... : ... .. . ... : ... .. . ... ...
ROW AF : B-3 00 9 ... ... ... : F#1 00 B P80 V02 ... : ... .. . ... : 4-# 00 F ... : D-0 00 . Z40 ...
ROW B0 : D-4 00 9 ... ... ... : ... .. . ... V00 ... : ... .. . ... : ... .. . ... : ... .. . ... ...
ROW B1 : ... .. A ... ... ... : ... .. . ... ... ... : ... .. . ... : ... .. 0 ... : ... .. . ... ...
ROW B2 : ... .. B ... ... ... : ... .. 7 ... ... ... : ... .. . ... : ... .. . ... : ... .. . ... ...
ROW B3 : ... .. . ... ... ... : ... .. 6 ... ... ... : ... .. . ... : ... .. . ... : ... .. . ... ...
ROW B4 : ... .. 0 ... ... ... : ... .. 0 ... ... ... : ... .. . ... : ... .. . ... : ... .. . ... ...
ROW B5 : ... .. . ... ... ... : F#1 00 B P80 V02 ... : ... .. . ... : ... .. . ... : ... .. . ... ...
ROW B6 : ... .. . ... ... ... : ... .. . ... V00 ... : ... .. . ... : ... .. . ... : ... .. . ... ...
ROW B7 : ... .. . ... ... ... : ... .. . ... ... ... : ... .. . ... : ... .. . ... : ... .. . ... ...
ROW B8 : ... .. . ... ... ... : ... .. 7 ... ... ... : ... .. . ... : ... .. . ... : ... .. . ... ...
ROW B9 : ... .. . ... ... ... : ... .. 6 ... ... ... : ... .. . ... : ... .. . ... : ... .. . ... ...
ROW BA : ... .. . ... ... ... : ... .. 0 ... ... ... : ... .. . ... : ... .. . ... : ... .. . ... ...
ROW BB : D-4 00 9 P80 ... ... : F#1 00 B P80 V02 ... : ... .. . ... : C-# 00 F ... : C-0 00 . Z40 ...
ROW BC : ... .. B ... ... ... : ... .. . ... V00 ... : ... .. . ... : ... .. . ... : ... .. . ... ...
ROW BD : ... .. . ... ... ... : ... .. . ... ... ... : ... .. . ... : ... .. 0 ... : ... .. . ... ...
ROW BE : ... .. . ... ... ... : ... .. 7 ... ... ... : ... .. . ... : ... .. . ... : ... .. . ... ...
ROW BF : ... .. . ... ... ... : ... .. 6 ... ... ... : ... .. . ... : ... .. . ... : ... .. . ... ...
ROW C0 : ... .. . ... ... ... : ... .. 0 ... ... ... : ... .. . ... : ... .. . ... : ... .. . ... ...
ROW C1 : B-3 00 9 ... ... ... : F#1 00 B P80 V02 ... : ... .. . ... : ... .. F ... : ... .. . ... ...
ROW C2 : ... .. B ... ... ... : ... .. . ... V00 ... : ... .. . ... : ... .. . ... : ... .. . ... ...
ROW C3 : ... .. . ... ... ... : ... .. . ... ... ... : ... .. . ... : ... .. 0 ... : ... .. . ... ...
ROW C4 : ... .. . ... ... ... : ... .. 7 ... ... ... : ... .. . ... : ... .. . ... : ... .. . ... ...
ROW C5 : ... .. . ... ... ... : ... .. 0 ... ... ... : ... .. . ... : ... .. . ... : ... .. . ... ...
ROW C6 : C#4 00 9 ... ... ... : ... .. B ... V02 ... : ... .. . ... : 4-# 00 F ... : D-0 00 . Z40 ...
ROW C7 : D-4 00 9 ... ... ... : ... .. . ... V00 ... : ... .. . ... : ... .. . ... : ... .. . ... ...
ROW C8 : ... .. A ... ... ... : ... .. . ... ... ... : ... .. . ... : ... .. 0 ... : ... .. . ... ...
ROW C9 : ... .. B ... ... ... : ... .. 7 ... ... ... : ... .. . ... : ... .. . ... : ... .. . ... ...
ROW CA : ... .. . ... ... ... : ... .. 6 ... ... ... : ... .. . ... : ... .. . ... : ... .. . ... ...
ROW CB : ... .. . ... ... ... : ... .. 5 ... ... ... : ... .. . ... : ... .. . ... : ... .. . ... ...
ROW CC : ... .. . ... ... ... : ... .. 4 ... ... ... : ... .. . ... : ... .. . ... : ... .. . ... ...
ROW CD : ... .. . ... ... ... : ... .. . ... ... ... : ... .. . ... : ... .. . ... : ... .. . ... ...
ROW CE : ... .. . ... ... ... : ... .. . ... ... ... : ... .. . ... : ... .. . ... : ... .. . ... ...
ROW CF : ... .. . ... ... ... : ... .. . ... ... ... : ... .. . ... : ... .. . ... : ... .. . ... ...
ROW D0 : ... .. . ... ... ... : ... .. . ... ... ... : ... .. . ... : ... .. . ... : ... .. . ... ...
ROW D1 : ... .. . ... ... ... : ... .. . ... ... ... : ... .. . ... : ... .. . ... : ... .. . ... ...
ROW D2 : ... .. . ... ... ... : ... .. . ... ... ... : ... .. . P7F : C-# 00 F ... : D#0 00 . Z40 ...
ROW D3 : ... .. . P81 ... ... : ... .. . ... ... ... : A#4 00 . P83 : ... .. . ... : ... .. . ... ...
ROW D4 : ... .. . ... ... ... : ... .. . ... ... ... : ... .. . P82 : ... .. 0 ... : ... .. . ... ...
ROW D5 : ... .. . ... ... ... : ... .. . ... ... ... : ... .. . P81 : ... .. . ... : ... .. . ... ...
ROW D6 : ... .. . P80 ... ... : ... .. . ... ... ... : ... .. . P80 : ... .. . ... : ... .. . ... ...
ROW D7 : ... .. . P7F ... ... : ... .. . ... ... ... : ... .. . P7F : ... .. . ... : ... .. . ... ...
ROW D8 : F#4 00 9 P80 ... ... : B-1 00 B ... V02 ... : ... .. . P7E : ... .. F ... : D#0 00 . Z40 ...
ROW D9 : ... .. B ... ... ... : ... .. . ... V00 ... : A-4 00 . P83 : ... .. . ... : ... .. . ... ...
ROW DA : ... .. . ... ... ... : ... .. . ... ... ... : ... .. . P82 : ... .. 0 ... : ... .. . ... ...
ROW DB : ... .. . ... ... ... : ... .. 7 ... ... ... : ... .. . P81 : ... .. . ... : ... .. . ... ...
ROW DC : ... .. . ... ... ... : ... .. 6 ... ... ... : ... .. . P80 : ... .. . ... : ... .. . ... ...
ROW DD : ... .. . ... ... ... : ... .. 5 ... ... ... : ... .. . ... : ... .. . ... : ... .. . ... ...
ROW DE : F-4 00 9 ... ... ... : A-1 00 B ... V02 ... : ... .. . ... : 4-# 00 F ... : D-0 00 . Z40 ...
ROW DF : E-4 00 9 ... ... ... : ... .. . ... V00 ... : ... .. . ... : ... .. . ... : ... .. . ... ...
ROW E0 : ... .. A ... ... ... : ... .. . ... ... ... : ... .. . ... : ... .. 0 ... : ... .. . ... ...
ROW E1 : ... .. B ... ... ... : ... .. 7 ... ... ... : ... .. . ... : ... .. . ... : ... .. . ... ...
ROW E2 : ... .. . ... ... ... : ... .. 6 ... ... ... : ... .. . ... : ... .. . ... : ... .. . ... ...
ROW E3 : ... .. . ... ... ... : ... .. 0 ... ... ... : ... .. . ... : ... .. . ... : ... .. . ... ...
ROW E4 : ... .. . ... ... ... : A-1 00 B P80 V02 ... : ... .. . ... : ... .. . ... : ... .. . ... ...
ROW E5 : ... .. . ... ... ... : ... .. . ... V00 ... : ... .. . ... : ... .. . ... : ... .. . ... ...
ROW E6 : ... .. . ... ... ... : ... .. . ... ... ... : ... .. . ... : ... .. . ... : ... .. . ... ...
ROW E7 : ... .. . ... ... ... : ... .. 7 ... ... ... : ... .. . ... : ... .. . ... : ... .. . ... ...
ROW E8 : ... .. . ... ... ... : ... .. 0 ... ... ... : ... .. . ... : ... .. . ... : ... .. . ... ...
ROW E9 : ... .. . ... ... ... : ... .. B ... V02 ... : ... .. . ... : C-# 00 F ... : C-0 00 . Z40 ...
ROW EA : ... .. . P81 ... ... : ... .. . ... V00 ... : ... .. . ... : ... .. . ... : ... .. . ... ...
ROW EB : ... .. . ... ... ... : ... .. . ... ... ... : ... .. . ... : ... .. 0 ... : ... .. . ... ...
ROW EC : ... .. . ... ... ... : ... .. 7 ... ... ... : ... .. . ... : ... .. . ... : ... .. . ... ...
ROW ED : ... .. . P80 ... ... : ... .. 6 ... ... ... : ... .. . ... : ... .. . ... : ... .. . ... ...
ROW EE : ... .. . P7F ... ... : ... .. 0 ... ... ... : ... .. . ... : ... .. . ... : C-0 00 . Z40 ...
ROW EF : F#4 00 9 P80 ... ... : A-1 00 B P80 V02 ... : ... .. . ... : ... .. F ... : ... .. . ... ...
ROW F0 : ... .. B ... ... ... : ... .. . ... V00 ... : ... .. . ... : ... .. . ... : ... .. . ... ...
ROW F1 : ... .. . ... ... ... : ... .. . ... ... ... : ... .. . ... : ... .. 0 ... : ... .. . ... ...
ROW F2 : ... .. . ... ... ... : ... .. 7 ... ... ... : ... .. . ... : ... .. . ... : ... .. . ... ...
ROW F3 : ... .. . ... ... ... : ... .. 6 ... ... ... : ... .. . ... : ... .. . ... : ... .. . ... ...
ROW F4 : ... .. . ... ... ... : ... .. 0 ... ... ... : ... .. . ... : ... .. . ... : ... .. . ... ...
ROW F5 : D-4 00 9 ... ... ... : A-1 00 B P80 V02 ... : ... .. . ... : 4-# 00 F ... : D-0 00 . Z40 ...
ROW F6 : E-4 00 9 ... ... ... : ... .. . ... V00 ... : ... .. . ... : ... .. . ... : ... .. . ... ...
ROW F7 : ... .. A ... ... ... : ... .. . ... ... ... : ... .. . ... : ... .. 0 ... : ... .. . ... ...
ROW F8 : ... .. B ... ... ... : ... .. 7 ... ... ... : ... .. . ... : ... .. . ... : ... .. . ... ...
ROW F9 : ... .. . ... ... ... : ... .. 6 ... ... ... : ... .. . ... : ... .. . ... : ... .. . ... ...
ROW FA : ... .. . ... ... ... : ... .. 5 ... ... ... : ... .. . ... : ... .. . ... : ... .. . ... ...
ROW FB : ... .. . ... ... ... : ... .. 4 ... ... ... : ... .. . ... : ... .. . ... : ... .. . ... ...
ROW FC : ... .. . ... ... ... : ... .. . ... ... ... : ... .. . ... : ... .. . ... : ... .. . ... ...
ROW FD : ... .. . ... ... ... : ... .. . ... ... ... : ... .. . ... : ... .. . ... : ... .. . ... ...
ROW FE : ... .. . ... ... ... : ... .. . ... ... ... : ... .. . ... : ... .. . ... : ... .. . ... ...
ROW FF : ... .. . ... ... ... : ... .. . ... ... ... : ... .. . ... : ... .. . ... : ... .. . ... ...

PATTERN 12
ROW 00 : ... .. . ... ... ... : ... .. . ... ... ... : ... .. . ... : ... .. . ... : ... .. . ... ...
ROW 01 : ... .. . ... ... ... : ... .. . ... ... ... : E-4 00 . ... : C-# 00 F ... : D#0 00 . Z40 ...
ROW 02 : ... .. . P81 ... ... : ... .. . ... ... ... : ... .. . ... : ... .. . ... : ... .. . ... ...
ROW 03 : ... .. . ... ... ... : ... .. . ... ... ... : ... .. . ... : ... .. 0 ... : ... .. . ... ...
ROW 04 : ... .. . ... ... ... : ... .. . ... ... ... : ... .. . ... : ... .. . ... : ... .. . ... ...
ROW 05 : ... .. . P80 ... ... : ... .. . ... ... ... : ... .. . ... : ... .. . ... : ... .. . ... ...
ROW 06 : ... .. . P7F ... ... : ... .. . ... ... ... : ... .. . ... : ... .. . ... : ... .. . ... ...
ROW 07 : C#4 00 9 P80 ... ... : F#1 00 B ... V02 ... : ... .. . ... : ... .. F ... : D#0 00 . Z40 ...
ROW 08 : ... .. B ... ... ... : ... .. . ... V00 ... : ... .. . ... : ... .. . ... : ... .. . ... ...
ROW 09 : ... .. . ... ... ... : ... .. . ... ... ... : ... .. . ... : ... .. 0 ... : ... .. . ... ...
ROW 0A : ... .. . ... ... ... : ... .. 7 ... ... ... : ... .. . ... : ... .. . ... : ... .. . ... ...
ROW 0B : ... .. . ... ... ... : ... .. 5 ... ... ... : ... .. . ... : ... .. . ... : ... .. . ... ...
ROW 0C : B-3 00 9 ... ... ... : E-1 00 B ... V02 ... : ... .. . ... : 4-# 00 F ... : D-0 00 . Z40 ...
ROW 0D : A-3 00 9 ... ... ... : ... .. . ... V00 ... : ... .. . ... : ... .. . ... : ... .. . ... ...
ROW 0E : ... .. A ... ... ... : ... .. . ... ... ... : ... .. . ... : ... .. 0 ... : ... .. . ... ...
ROW 0F : ... .. B ... ... ... : ... .. 7 ... ... ... : ... .. . ... : ... .. . ... : ... .. . ... ...
ROW 10 : ... .. . ... ... ... : ... .. 6 ... ... ... : ... .. . ... : ... .. . ... : ... .. . ... ...
ROW 11 : ... .. 0 ... ... ... : ... .. 0 ... ... ... : ... .. . ... : ... .. . ... : ... .. . ... ...
ROW 12 : ... .. . ... ... ... : E-1 00 B P80 V02 ... : ... .. . ... : ... .. . ... : ... .. . ... ...
ROW 13 : ... .. . ... ... ... : ... .. . ... V00 ... : ... .. . ... : ... .. . ... : ... .. . ... ...
ROW 14 : ... .. . ... ... ... : ... .. . ... ... ... : ... .. . ... : ... .. . ... : ... .. . ... ...
ROW 15 : ... .. . ... ... ... : ... .. 7 ... ... ... : ... .. . ... : ... .. . ... : ... .. . ... ...
ROW 16 : ... .. . ... ... ... : ... .. 6 ... ... ... : ... .. . ... : ... .. . ... : ... .. . ... ...
ROW 17 : ... .. . ... ... ... : ... .. 0 ... ... ... : ... .. . ... : ... .. . ... : ... .. . ... ...
ROW 18 : A-3 00 9 P80 ... ... : E-1 00 B P80 V02 ... : ... .. . ... : C-# 00 F ... : C-0 00 . Z40 ...
ROW 19 : ... .. B ... ... ... : ... .. . ... V00 ... : ... .. . ... : ... .. . ... : ... .. . ... ...
ROW 1A : ... .. . ... ... ... : ... .. . ... ... ... : ... .. . ... : ... .. 0 ... : ... .. . ... ...
ROW 1B : ... .. . ... ... ... : ... .. 7 ... ... ... : ... .. . ... : ... .. . ... : ... .. . ... ...
ROW 1C : ... .. . ... ... ... : ... .. 6 ... ... ... : ... .. . ... : ... .. . ... : ... .. . ... ...
ROW 1D : ... .. . ... ... ... : ... .. 0 ... ... ... : ... .. . ... : ... .. . ... : ... .. . ... ...
ROW 1E : F#3 00 9 ... ... ... : E-1 00 B P80 V02 ... : ... .. . ... : ... .. F ... : ... .. . ... ...
ROW 1F : ... .. B ... ... ... : ... .. . ... V00 ... : ... .. . ... : ... .. . ... : ... .. . ... ...
ROW 20 : ... .. . ... ... ... : ... .. . ... ... ... : ... .. . ... : ... .. 0 ... : ... .. . ... ...
ROW 21 : ... .. . ... ... ... : ... .. 7 ... ... ... : ... .. . ... : ... .. . ... : ... .. . ... ...
ROW 22 : ... .. . ... ... ... : ... .. 6 ... ... ... : ... .. . ... : ... .. . ... : ... .. . ... ...
ROW 23 : ... .. . ... ... ... : ... .. 0 ... ... ... : ... .. . ... : ... .. . ... : ... .. . ... ...
ROW 24 : B-3 00 9 ... ... ... : E-1 00 B P80 V02 ... : C#4 00 . ... : 4-# 00 F ... : D-0 00 . Z40 ...
ROW 25 : C#4 00 9 ... ... ... : ... .. . ... V00 ... : ... .. . ... : ... .. . ... : ... .. . ... ...
ROW 26 : ... .. A ... ... ... : ... .. . ... ... ... : ... .. . ... : ... .. 0 ... : ... .. . ... ...
ROW 27 : ... .. B ... ... ... : ... .. 7 ... ... ... : ... .. . ... : ... .. . ... : ... .. . ... ...
ROW 28 : ... .. . ... ... ... : ... .. 6 ... ... ... : ... .. . ... : ... .. . ... : ... .. . ... ...
ROW 29 : ... .. . ... ... ... : ... .. 5 ... ... ... : ... .. . ... : ... .. . ... : ... .. . ... ...
ROW 2A : ... .. . ... ... ... : ... .. 4 ... ... ... : ... .. . ... : ... .. . ... : ... .. . ... ...
ROW 2B : ... .. . ... ... ... : ... .. . ... ... ... : ... .. . ... : ... .. . ... : ... .. . ... ...
ROW 2C : ... .. . ... ... ... : ... .. . ... ... ... : ... .. . ... : ... .. . ... : ... .. . ... ...
ROW 2D : ... .. . ... ... ... : ... .. . ... ... ... : ... .. . ... : ... .. . ... : ... .. . ... ...
ROW 2E : ... .. . ... ... ... : ... .. . ... ... ... : ... .. . ... : ... .. . ... : ... .. . ... ...
ROW 2F : ... .. . ... ... ... : ... .. . ... ... ... : ... .. . ... : C-# 00 F ... : C#0 00 . Z40 ...
ROW 30 : ... .. . P81 ... ... : ... .. . ... ... ... : ... .. . ... : ... .. . ... : ... .. . ... ...
ROW 31 : ... .. . ... ... ... : ... .. . ... ... ... : ... .. . ... : ... .. 0 ... : ... .. . ... ...
ROW 32 : ... .. . ... ... ... : ... .. . ... ... ... : ... .. . ... : ... .. . ... : ... .. . ... ...
ROW 33 : ... .. . P80 ... ... : ... .. . ... ... ... : ... .. . ... : ... .. . ... : ... .. . ... ...
ROW 34 : ... .. . P7F ... ... : ... .. . ... ... ... : ... .. . ... : ... .. . ... : ... .. . ... ...
ROW 35 : D-4 00 9 P80 ... ... : A-1 00 B ... V02 ... : ... .. . ... : ... .. . ... : ... .. . ... ...
ROW 36 : ... .. B ... ... ... : ... .. . ... V00 ... : ... .. . ... : ... .. . ... : ... .. . ... ...
ROW 37 : C#4 00 9 ... ... ... : ... .. . ... ... ... : ... .. . ... : ... .. . ... : ... .. . ... ...
ROW 38 : ... .. A ... ... ... : ... .. 7 ... ... ... : ... .. . ... : ... .. . ... : ... .. . ... ...
ROW 39 : ... .. B ... ... ... : ... .. 6 ... ... ... : ... .. . ... : ... .. . ... : ... .. . ... ...
ROW 3A : ... .. 0 ... ... ... : ... .. 0 ... ... ... : ... .. . ... : ... .. . ... : ... .. . ... ...
ROW 3B : B-3 00 9 P80 ... ... : B-1 00 B P80 V02 ... : B-3 00 . ... : 4-# 00 F ... : D-0 00 . Z40 ...
ROW 3C : ... .. B ... ... ... : ... .. . ... V00 ... : ... .. . ... : ... .. . ... : ... .. . ... ...
ROW 3D : ... .. . ... ... ... : ... .. . ... ... ... : ... .. . ... : ... .. 0 ... : ... .. . ... ...
ROW 3E : ... .. . ... ... ... : ... .. 7 ... ... ... : ... .. . ... : ... .. . ... : ... .. . ... ...
ROW 3F : ... .. . ... ... ... : ... .. 6 ... ... ... : ... .. . ... : ... .. . ... : ... .. . ... ...
ROW 40 : ... .. . ... ... ... : ... .. 0 ... ... ... : ... .. . ... : ... .. . ... : ... .. . ... ...
ROW 41 : ... .. . ... ... ... : B-1 00 B P80 V02 ... : ... .. . ... : ... .. . ... : ... .. . ... ...
ROW 42 : ... .. . ... ... ... : ... .. . ... V00 ... : ... .. . ... : ... .. . ... : ... .. . ... ...
ROW 43 : ... .. . ... ... ... : ... .. . ... ... ... : ... .. . ... : ... .. . ... : ... .. . ... ...
ROW 44 : ... .. . ... ... ... : ... .. 7 ... ... ... : ... .. . ... : ... .. . ... : ... .. . ... ...
ROW 45 : ... .. . ... ... ... : ... .. 6 ... ... ... : ... .. . ... : ... .. . ... : ... .. . ... ...
ROW 46 : ... .. . P81 ... ... : ... .. 0 ... ... ... : ... .. . ... : ... .. . ... : ... .. . ... ...
ROW 47 : ... .. . ... ... ... : B-1 00 B P80 V02 ... : ... .. . ... : C-# 00 F ... : C-0 00 . Z40 ...
ROW 48 : ... .. . ... ... ... : ... .. . ... V00 ... : ... .. . ... : ... .. . ... : ... .. . ... ...
ROW 49 : ... .. . P80 ... ... : ... .. . ... ... ... : ... .. . ... : ... .. 0 ... : ... .. . ... ...
ROW 4A : ... .. . P7F ... ... : ... .. 7 ... ... ... : ... .. . ... : ... .. . ... : ... .. . ... ...
ROW 4B : ... .. . ... ... ... : ... .. 6 ... ... ... : ... .. . ... : ... .. . ... : ... .. . ... ...
ROW 4C : ... .. . ... ... ... : ... .. 0 ... ... ... : ... .. . ... : ... .. . ... : ... .. . ... ...
ROW 4D : F#3 00 9 P80 ... ... : B-1 00 B P80 V02 ... : ... .. . ... : ... .. F ... : ... .. . ... ...
ROW 4E : ... .. B ... ... ... : ... .. . ... V00 ... : ... .. . ... : ... .. . ... : ... .. . ... ...
ROW 4F : ... .. . ... ... ... : ... .. . ... ... ... : ... .. . ... : ... .. 0 ... : ... .. . ... ...
ROW 50 : ... .. . ... ... ... : ... .. 7 ... ... ... : ... .. . ... : ... .. . ... : ... .. . ... ...
ROW 51 : ... .. . ... ... ... : ... .. 0 ... ... ... : ... .. . ... : ... .. . ... : ... .. . ... ...
ROW 52 : A-3 00 9 ... ... ... : ... .. B ... V02 ... : ... .. . ... : 4-# 00 F ... : D-0 00 . Z40 ...
ROW 53 : B-3 00 9 ... ... ... : ... .. . ... V00 ... : ... .. . ... : ... .. . ... : ... .. . ... ...
ROW 54 : ... .. A ... ... ... : ... .. . ... ... ... : ... .. . ... : ... .. 0 ... : ... .. . ... ...
ROW 55 : ... .. B ... ... ... : ... .. 7 ... ... ... : ... .. . ... : ... .. . ... : ... .. . ... ...
ROW 56 : ... .. . ... ... ... : ... .. 6 ... ... ... : ... .. . ... : ... .. . ... : ... .. . ... ...
ROW 57 : ... .. . ... ... ... : ... .. 5 ... ... ... : ... .. . ... : ... .. . ... : ... .. . ... ...
ROW 58 : ... .. . ... ... ... : ... .. 4 ... ... ... : ... .. . ... : ... .. . ... : ... .. . ... ...
ROW 59 : ... .. . ... ... ... : ... .. . ... ... ... : ... .. . ... : ... .. . ... : ... .. . ... ...
ROW 5A : ... .. . ... ... ... : ... .. . ... ... ... : ... .. . ... : ... .. . ... : ... .. . ... ...
ROW 5B : ... .. . ... ... ... : ... .. . ... ... ... : ... .. . ... : ... .. . ... : ... .. . ... ...
ROW 5C : ... .. . ... ... ... : ... .. . ... ... ... : ... .. . ... : ... .. . ... : ... .. . ... ...
ROW 5D : ... .. . ... ... ... : ... .. . ... ... ... : ... .. . ... : ... .. . ... : ... .. . ... ...
ROW 5E : ... .. . ... ... ... : ... .. . ... ... ... : ... .. . ... : C-# 00 F ... : D#0 00 . Z40 ...
ROW 5F : ... .. . P81 ... ... : ... .. . ... ... ... : ... .. . ... : ... .. . ... : ... .. . ... ...
ROW 60 : ... .. . ... ... ... : ... .. . ... ... ... : ... .. . ... : ... .. 0 ... : ... .. . ... ...
ROW 61 : ... .. . ... ... ... : ... .. . ... ... ... : ... .. . ... : ... .. . ... : ... .. . ... ...
ROW 62 : ... .. . P80 ... ... : ... .. . ... ... ... : ... .. . ... : ... .. . ... : ... .. . ... ...
ROW 63 : ... .. . P7F ... ... : ... .. . ... ... ... : ... .. . ... : ... .. . ... : ... .. . ... ...
ROW 64 : C#4 00 9 P80 ... ... : A-1 00 B ... V02 ... : ... .. . ... : ... .. F ... : D#0 00 . Z40 ...
ROW 65 : ... .. B ... ... ... : ... .. . ... V00 ... : ... .. . ... : ... .. . ... : ... .. . ... ...
ROW 66 : ... .. . ... ... ... : ... .. . ... ... ... : ... .. . ... : ... .. 0 ... : ... .. . ... ...
ROW 67 : ... .. . ... ... ... : ... .. 7 ... ... ... : ... .. . ... : ... .. . ... : ... .. . ... ...
ROW 68 : ... .. . ... ... ... : ... .. 6 ... ... ... : ... .. . ... : ... .. . ... : ... .. . ... ...
ROW 69 : ... .. . ... ... ... : ... .. 0 ... ... ... : ... .. . ... : ... .. . ... : ... .. . ... ...
ROW 6A : B-3 00 9 ... ... ... : F#1 00 B P80 V02 ... : ... .. . ... : 4-# 00 F ... : D-0 00 . Z40 ...
ROW 6B : D-4 00 9 ... ... ... : ... .. . ... V00 ... : ... .. . ... : ... .. . ... : ... .. . ... ...
ROW 6C : ... .. A ... ... ... : ... .. . ... ... ... : ... .. . ... : ... .. 0 ... : ... .. . ... ...
ROW 6D : ... .. B ... ... ... : ... .. 7 ... ... ... : ... .. . ... : ... .. . ... : ... .. . ... ...
ROW 6E : ... .. . ... ... ... : ... .. 6 ... ... ... : ... .. . ... : ... .. . ... : ... .. . ... ...
ROW 6F : ... .. 0 ... ... ... : ... .. 0 ... ... ... : ... .. . ... : ... .. . ... : ... .. . ... ...
ROW 70 : ... .. . ... ... ... : F#1 00 B P80 V02 ... : ... .. . ... : ... .. . ... : ... .. . ... ...
ROW 71 : ... .. . ... ... ... : ... .. . ... V00 ... : ... .. . ... : ... .. . ... : ... .. . ... ...
ROW 72 : ... .. . ... ... ... : ... .. . ... ... ... : ... .. . ... : ... .. . ... : ... .. . ... ...
ROW 73 : ... .. . ... ... ... : ... .. 7 ... ... ... : ... .. . ... : ... .. . ... : ... .. . ... ...
ROW 74 : ... .. . ... ... ... : ... .. 0 ... ... ... : ... .. . ... : ... .. . ... : ... .. . ... ...
ROW 75 : D-4 00 9 P80 ... ... : ... .. B ... V02 ... : ... .. . ... : C-# 00 F ... : C-0 00 . Z40 ...
ROW 76 : ... .. B ... ... ... : ... .. . ... V00 ... : ... .. . ... : ... .. . ... : ... .. . ... ...
ROW 77 : ... .. . ... ... ... : ... .. . ... ... ... : ... .. . ... : ... .. 0 ... : ... .. . ... ...
ROW 78 : ... .. . ... ... ... : ... .. 7 ... ... ... : ... .. . ... : ... .. . ... : ... .. . ... ...
ROW 79 : ... .. . ... ... ... : ... .. 6 ... ... ... : ... .. . ... : ... .. . ... : ... .. . ... ...
ROW 7A : ... .. . ... ... ... : ... .. 0 ... ... ... : ... .. . ... : ... .. . ... : ... .. . ... ...
ROW 7B : A-3 00 9 ... ... ... : F#1 00 B P80 V02 ... : ... .. . ... : ... .. F ... : ... .. . ... ...
ROW 7C : B-3 00 9 ... ... ... : ... .. . ... V00 ... : ... .. . ... : ... .. . ... : ... .. . ... ...
ROW 7D : ... .. A ... ... ... : ... .. . ... ... ... : ... .. . ... : ... .. 0 ... : ... .. . ... ...
ROW 7E : ... .. B ... ... ... : ... .. 7 ... ... ... : ... .. . ... : ... .. . ... : ... .. . ... ...
ROW 7F : ... .. . ... ... ... : ... .. 6 ... ... ... : ... .. . ... : ... .. . ... : ... .. . ... ...
ROW 80 : ... .. . ... ... ... : ... .. 0 ... ... ... : ... .. . ... : ... .. . ... : ... .. . ... ...
ROW 81 : D-4 00 9 ... ... ... : F#1 00 B P80 V02 ... : ... .. . ... : 4-# 00 F ... : D-0 00 . Z40 ...
ROW 82 : ... .. B ... ... ... : ... .. . ... V00 ... : ... .. . ... : ... .. . ... : ... .. . ... ...
ROW 83 : ... .. . ... ... ... : ... .. . ... ... ... : ... .. . ... : ... .. 0 ... : ... .. . ... ...
ROW 84 : ... .. . ... ... ... : ... .. 7 ... ... ... : ... .. . ... : ... .. . ... : ... .. . ... ...
ROW 85 : ... .. . ... ... ... : ... .. 6 ... ... ... : ... .. . ... : ... .. . ... : ... .. . ... ...
ROW 86 : ... .. . ... ... ... : ... .. 5 ... ... ... : ... .. . ... : ... .. . ... : ... .. . ... ...
ROW 87 : ... .. . ... ... ... : ... .. 4 ... ... ... : ... .. . ... : ... .. . ... : ... .. . ... ...
ROW 88 : ... .. . ... ... ... : ... .. . ... ... ... : ... .. . ... : ... .. . ... : ... .. . ... ...
ROW 89 : ... .. . ... ... ... : ... .. . ... ... ... : ... .. . ... : ... .. . ... : ... .. . ... ...
ROW 8A : ... .. . ... ... ... : ... .. . ... ... ... : ... .. . ... : ... .. . ... : ... .. . ... ...
ROW 8B : ... .. . ... ... ... : ... .. . ... ... ... : ... .. . ... : ... .. . ... : ... .. . ... ...
ROW 8C : ... .. . P81 ... ... : ... .. . ... ... ... : ... .. . ... : ... .. . ... : ... .. . ... ...
ROW 8D : ... .. . ... ... ... : ... .. . ... ... ... : C-4 00 . P7C : C-# 00 F ... : D#0 00 . Z40 ...
ROW 8E : ... .. . ... ... ... : ... .. . ... ... ... : C#4 00 . P7E : ... .. . ... : ... .. . ... ...
ROW 8F : ... .. . P80 ... ... : ... .. . ... ... ... : ... .. . P85 : ... .. 0 ... : ... .. . ... ...
ROW 90 : ... .. . P7F ... ... : ... .. . ... ... ... : D-4 00 . P82 : ... .. . ... : ... .. . ... ...
ROW 91 : ... .. . ... ... ... : ... .. . ... ... ... : D#4 00 . P7F : ... .. . ... : ... .. . ... ...
ROW 92 : ... .. . ... ... ... : ... .. . ... ... ... : E-4 00 . P7D : ... .. . ... : ... .. . ... ...
ROW 93 : F#4 00 9 P80 ... ... : B-1 00 B ... V02 ... : ... .. . P84 : ... .. F ... : D#0 00 . Z40 ...
ROW 94 : ... .. B ... ... ... : ... .. . ... V00 ... : F#4 00 . P80 : ... .. . ... : ... .. . ... ...
ROW 95 : ... .. . ... ... ... : ... .. . ... ... ... : G-4 00 . ... : ... .. 0 ... : ... .. . ... ...
ROW 96 : ... .. . ... ... ... : ... .. 7 ... ... ... : G#4 00 . P7F : ... .. . ... : ... .. . ... ...
ROW 97 : ... .. . ... ... ... : ... .. 5 ... ... ... : A-4 00 . P80 : ... .. . ... : ... .. . ... ...
ROW 98 : G#4 00 9 ... ... ... : A-1 00 B ... V02 ... : ... .. . ... : 4-# 00 F ... : D-0 00 . Z40 ...
ROW 99 : A-4 00 9 ... ... ... : ... .. . ... V00 ... : ... .. . ... : ... .. . ... : ... .. . ... ...
ROW 9A : ... .. A ... ... ... : ... .. . ... ... ... : ... .. . ... : ... .. 0 ... : ... .. . ... ...
ROW 9B : ... .. B ... ... ... : ... .. 7 ... ... ... : ... .. . ... : ... .. . ... : ... .. . ... ...
ROW 9C : ... .. . ... ... ... : ... .. 6 ... ... ... : ... .. . ... : ... .. . ... : ... .. . ... ...
ROW 9D : ... .. 0 ... ... ... : ... .. 0 ... ... ... : ... .. . ... : ... .. . ... : ... .. . ... ...
ROW 9E : ... .. . ... ... ... : A-1 00 B P80 V02 ... : ... .. . ... : ... .. . ... : ... .. . ... ...
ROW 9F : ... .. . ... ... ... : ... .. . ... V00 ... : ... .. . ... : ... .. . ... : ... .. . ... ...
ROW A0 : ... .. . ... ... ... : ... .. . ... ... ... : ... .. . ... : ... .. . ... : ... .. . ... ...
ROW A1 : ... .. . ... ... ... : ... .. 7 ... ... ... : ... .. . ... : ... .. . ... : ... .. . ... ...
ROW A2 : ... .. . ... ... ... : ... .. 6 ... ... ... : ... .. . ... : ... .. . ... : ... .. . ... ...
ROW A3 : ... .. . ... ... ... : ... .. 0 ... ... ... : ... .. . ... : ... .. . ... : ... .. . ... ...
ROW A4 : A-4 00 9 P80 ... ... : A-1 00 B P80 V02 ... : ... .. . ... : C-# 00 F ... : C-0 00 . Z40 ...
ROW A5 : ... .. B ... ... ... : ... .. . ... V00 ... : ... .. . ... : ... .. . ... : ... .. . ... ...
ROW A6 : ... .. . ... ... ... : ... .. . ... ... ... : ... .. . ... : ... .. 0 ... : ... .. . ... ...
ROW A7 : ... .. . ... ... ... : ... .. 7 ... ... ... : ... .. . ... : ... .. . ... : ... .. . ... ...
ROW A8 : ... .. . ... ... ... : ... .. 6 ... ... ... : ... .. . ... : ... .. . ... : ... .. . ... ...
ROW A9 : ... .. . ... ... ... : ... .. 0 ... ... ... : ... .. . ... : ... .. . ... : ... .. . ... ...
ROW AA : F#4 00 9 ... ... ... : A-1 00 B P80 V02 ... : ... .. . ... : ... .. F ... : ... .. . ... ...
ROW AB : ... .. B ... ... ... : ... .. . ... V00 ... : ... .. . ... : ... .. . ... : ... .. . ... ...
ROW AC : ... .. . ... ... ... : ... .. . ... ... ... : ... .. . ... : ... .. 0 ... : ... .. . ... ...
ROW AD : ... .. . ... ... ... : ... .. 7 ... ... ... : ... .. . ... : ... .. . ... : ... .. . ... ...
ROW AE : ... .. . ... ... ... : ... .. 6 ... ... ... : ... .. . ... : ... .. . ... : ... .. . ... ...
ROW AF : ... .. . ... ... ... : ... .. 0 ... ... ... : ... .. . ... : ... .. . ... : ... .. . ... ...
ROW B0 : F-4 00 9 ... ... ... : A-1 00 B P80 V02 ... : ... .. . ... : 4-# 00 F ... : D-0 00 . Z40 ...
ROW B1 : E-4 00 9 ... ... ... : ... .. . ... V00 ... : ... .. . ... : ... .. . ... : ... .. . ... ...
ROW B2 : ... .. A ... ... ... : ... .. . ... ... ... : ... .. . ... : ... .. 0 ... : ... .. . ... ...
ROW B3 : ... .. B ... ... ... : ... .. 7 ... ... ... : ... .. . ... : ... .. . ... : ... .. . ... ...
ROW B4 : ... .. . ... ... ... : ... .. 6 ... ... ... : ... .. . ... : ... .. . ... : ... .. . ... ...
ROW B5 : ... .. . ... ... ... : ... .. 5 ... ... ... : ... .. . ... : ... .. . ... : ... .. . ... ...
ROW B6 : ... .. 0 ... ... ... : ... .. 4 ... ... ... : ... .. . ... : ... .. . ... : ... .. . ... ...
ROW B7 : ... .. . ... ... ... : ... .. . ... ... ... : ... .. . ... : ... .. . ... : ... .. . ... ...
ROW B8 : ... .. . ... ... ... : ... .. . ... ... ... : ... .. . ... : ... .. . ... : ... .. . ... ...
ROW B9 : ... .. . ... ... ... : ... .. . ... ... ... : ... .. . ... : ... .. . ... : ... .. . ... ...
ROW BA : ... .. . ... ... ... : ... .. . ... ... ... : ... .. . ... : ... .. . ... : ... .. . ... ...
ROW BB : E-4 00 9 P80 ... ... : ... .. . ... ... ... : E-4 00 . ... : C-# 00 F ... : D#0 00 . Z40 ...
ROW BC : ... .. B ... ... ... : ... .. . ... ... ... : ... .. . ... : ... .. . ... : ... .. . ... ...
ROW BD : ... .. . ... ... ... : ... .. . ... ... ... : ... .. . ... : ... .. 0 ... : ... .. . ... ...
ROW BE : ... .. . ... ... ... : ... .. . ... ... ... : ... .. . ... : ... .. . ... : ... .. . ... ...
ROW BF : ... .. . ... ... ... : ... .. . ... ... ... : ... .. . ... : ... .. . ... : ... .. . ... ...
ROW C0 : ... .. . ... ... ... : ... .. . ... ... ... : ... .. . ... : ... .. . ... : ... .. . ... ...
ROW C1 : F#4 00 9 ... ... ... : F#1 00 B ... V02 ... : ... .. . ... : ... .. F ... : D#0 00 . Z40 ...
ROW C2 : ... .. B ... ... ... : ... .. . ... V00 ... : ... .. . ... : ... .. . ... : ... .. . ... ...
ROW C3 : ... .. . ... ... ... : ... .. . ... ... ... : ... .. . ... : ... .. 0 ... : ... .. . ... ...
ROW C4 : ... .. . ... ... ... : ... .. 7 ... ... ... : ... .. . ... : ... .. . ... : ... .. . ... ...
ROW C5 : ... .. . ... ... ... : ... .. 6 ... ... ... : ... .. . ... : ... .. . ... : ... .. . ... ...
ROW C6 : ... .. . ... ... ... : ... .. 5 ... ... ... : ... .. . ... : ... .. . ... : ... .. . ... ...
ROW C7 : E-4 00 9 ... ... ... : E-1 00 B ... V02 ... : ... .. . ... : 4-# 00 F ... : D-0 00 . Z40 ...
ROW C8 : C#4 00 9 ... ... ... : ... .. . ... V00 ... : ... .. . ... : ... .. . ... : ... .. . ... ...
ROW C9 : ... .. A ... ... ... : ... .. . ... ... ... : ... .. . ... : ... .. 0 ... : ... .. . ... ...
ROW CA : ... .. B ... ... ... : ... .. 7 ... ... ... : ... .. . ... : ... .. . ... : ... .. . ... ...
ROW CB : ... .. . ... ... ... : ... .. 6 ... ... ... : ... .. . ... : ... .. . ... : ... .. . ... ...
ROW CC : ... .. . ... ... ... : ... .. 0 ... ... ... : ... .. . ... : ... .. . ... : ... .. . ... ...
ROW CD : ... .. 0 ... ... ... : E-1 00 B P80 V02 ... : ... .. . ... : ... .. . ... : ... .. . ... ...
ROW CE : ... .. . ... ... ... : ... .. . ... V00 ... : ... .. . ... : ... .. . ... : ... .. . ... ...
ROW CF : ... .. . ... ... ... : ... .. . ... ... ... : ... .. . ... : ... .. . ... : ... .. . ... ...
ROW D0 : ... .. . ... ... ... : ... .. 7 ... ... ... : ... .. . ... : ... .. . ... : ... .. . ... ...
ROW D1 : ... .. . ... ... ... : ... .. 6 ... ... ... : ... .. . ... : ... .. . ... : ... .. . ... ...
ROW D2 : ... .. . ... ... ... : ... .. 0 ... ... ... : ... .. . ... : ... .. . ... : ... .. . ... ...
ROW D3 : C#4 00 9 P80 ... ... : E-1 00 B P80 V02 ... : ... .. . ... : C-# 00 F ... : C-0 00 . Z40 ...
ROW D4 : ... .. B ... ... ... : ... .. . ... V00 ... : ... .. . ... : ... .. . ... : ... .. . ... ...
ROW D5 : ... .. . ... ... ... : ... .. . ... ... ... : ... .. . ... : ... .. 0 ... : ... .. . ... ...
ROW D6 : ... .. . ... ... ... : ... .. 7 ... ... ... : ... .. . ... : ... .. . ... : ... .. . ... ...
ROW D7 : ... .. . ... ... ... : ... .. 6 ... ... ... : ... .. . ... : ... .. . ... : ... .. . ... ...
ROW D8 : ... .. . ... ... ... : ... .. 0 ... ... ... : ... .. . ... : ... .. . ... : ... .. . ... ...
ROW D9 : C-4 00 9 ... ... ... : E-1 00 B P80 V02 ... : ... .. . ... : ... .. F ... : ... .. . ... ...
ROW DA : B-3 00 9 ... ... ... : ... .. . ... V00 ... : ... .. . ... : ... .. . ... : ... .. . ... ...
ROW DB : ... .. A ... ... ... : ... .. . ... ... ... : ... .. . ... : ... .. 0 ... : ... .. . ... ...
ROW DC : ... .. B ... ... ... : ... .. 7 ... ... ... : ... .. . ... : ... .. . ... : ... .. . ... ...
ROW DD : ... .. . ... ... ... : ... .. 0 ... ... ... : ... .. . ... : ... .. . ... : ... .. . ... ...
ROW DE : A-3 00 9 ... ... ... : ... .. B ... V02 ... : C#5 00 . ... : 4-# 00 F ... : C#0 00 . Z40 ...
ROW DF : ... .. B ... ... ... : ... .. . ... V00 ... : ... .. . ... : ... .. . ... : ... .. . ... ...
ROW E0 : ... .. . ... ... ... : ... .. . ... ... ... : ... .. . ... : ... .. 0 ... : ... .. . ... ...
ROW E1 : ... .. . ... ... ... : ... .. 7 ... ... ... : ... .. . ... : ... .. . ... : ... .. . ... ...
ROW E2 : ... .. . ... ... ... : ... .. 6 ... ... ... : ... .. . ... : ... .. . ... : ... .. . ... ...
ROW E3 : ... .. . ... ... ... : ... .. 5 ... ... ... : ... .. . ... : ... .. . ... : ... .. . ... ...
ROW E4 : ... .. . ... ... ... : ... .. 4 ... ... ... : ... .. . ... : ... .. . ... : C#0 00 . Z40 ...
ROW E5 : ... .. . ... ... ... : ... .. . ... ... ... : ... .. . ... : ... .. . ... : ... .. . ... ...
ROW E6 : ... .. . ... ... ... : ... .. . ... ... ... : ... .. . ... : ... .. . ... : ... .. . ... ...
ROW E7 : ... .. . ... ... ... : ... .. . ... ... ... : ... .. . ... : ... .. . ... : ... .. . ... ...
ROW E8 : ... .. . ... ... ... : ... .. . ... ... ... : ... .. . ... : ... .. . ... : ... .. . ... ...
ROW E9 : ... .. . P81 ... ... : ... .. . ... ... ... : ... .. . ... : ... .. . ... : ... .. . ... ...
ROW EA : C#4 00 9 P80 ... ... : ... .. . ... ... ... : ... .. . ... : C-# 00 F ... : C#0 00 . Z40 ...
ROW EB : ... .. B ... ... ... : ... .. . ... ... ... : D-5 00 . ... : ... .. . ... : ... .. . ... ...
ROW EC : ... .. . ... ... ... : ... .. . ... ... ... : ... .. . ... : ... .. 0 ... : ... .. . ... ...
ROW ED : ... .. . ... ... ... : ... .. . ... ... ... : ... .. . ... : ... .. . ... : ... .. . ... ...
ROW EE : ... .. . ... ... ... : ... .. . ... ... ... : ... .. . ... : ... .. . ... : ... .. . ... ...
ROW EF : ... .. . ... ... ... : ... .. . ... ... ... : ... .. . ... : ... .. . ... : ... .. . ... ...
ROW F0 : D-4 00 9 ... ... ... : A-1 00 B ... V02 ... : ... .. . ... : ... .. . ... : C#0 00 . Z40 ...
ROW F1 : ... .. B ... ... ... : ... .. . ... V00 ... : C#5 00 . ... : ... .. . ... : ... .. . ... ...
ROW F2 : C#4 00 9 ... ... ... : ... .. . ... ... ... : ... .. . ... : ... .. . ... : ... .. . ... ...
ROW F3 : ... .. A ... ... ... : ... .. 7 ... ... ... : ... .. . ... : ... .. . ... : ... .. . ... ...
ROW F4 : ... .. B ... ... ... : ... .. 6 ... ... ... : ... .. . ... : ... .. . ... : ... .. . ... ...
ROW F5 : ... .. 0 ... ... ... : ... .. 0 ... ... ... : ... .. . ... : ... .. . ... : ... .. . ... ...
ROW F6 : B-3 00 9 P80 ... ... : B-1 00 B P80 V02 ... : B-4 00 . P82 : 4-# 00 F ... : D-0 00 . Z40 ...
ROW F7 : ... .. B ... ... ... : ... .. . ... V00 ... : ... .. . P80 : ... .. . ... : ... .. . ... ...
ROW F8 : ... .. . ... ... ... : ... .. . ... ... ... : ... .. . ... : ... .. 0 ... : ... .. . ... ...
ROW F9 : ... .. . ... ... ... : ... .. 7 ... ... ... : ... .. . ... : ... .. . ... : ... .. . ... ...
ROW FA : ... .. . ... ... ... : ... .. 6 ... ... ... : ... .. . P7E : ... .. . ... : ... .. . ... ...
ROW FB : ... .. . ... ... ... : ... .. 5 ... ... ... : --- .. . ... : ... .. . ... : ... .. . ... ...
ROW FC : ... .. . ... ... ... : ... .. 4 ... ... ... : ... .. . ... : ... .. . ... : ... .. . ... ...
ROW FD : ... .. . ... ... ... : ... .. . ... ... ... : ... .. . ... : ... .. . ... : ... .. . ... ...
ROW FE : ... .. . ... ... ... : ... .. . ... ... ... : ... .. . ... : ... .. . ... : ... .. . ... ...
ROW FF : ... .. . ... ... ... : ... .. . ... ... ... : ... .. . ... : ... .. . ... : ... .. . ... ...

PATTERN 13
ROW 00 : ... .. . P81 ... ... : ... .. 0 ... ... ... : ... .. . ... : ... .. . ... : ... .. . ... ...
ROW 01 : ... .. . ... ... ... : ... .. B ... V02 ... : B-4 00 . P82 : C-# 00 F ... : C#0 00 . Z40 ...
ROW 02 : ... .. . ... ... ... : ... .. . ... V00 ... : ... .. . P80 : ... .. . ... : ... .. . ... ...
ROW 03 : ... .. . P80 ... ... : ... .. . ... ... ... : ... .. . ... : ... .. 0 ... : ... .. . ... ...
ROW 04 : ... .. . P7F ... ... : ... .. 7 ... ... ... : ... .. . ... : ... .. . ... : ... .. . ... ...
ROW 05 : ... .. . ... ... ... : ... .. 6 ... ... ... : ... .. . P7E : ... .. . ... : ... .. . ... ...
ROW 06 : ... .. . ... ... ... : ... .. 0 ... ... ... : ... .. . P7F : ... .. . ... : ... .. . ... ...
ROW 07 : ... .. . P80 ... ... : B-1 00 B P80 V02 ... : C#5 00 . P82 : ... .. F ... : C#0 00 . Z40 ...
ROW 08 : ... .. . P81 ... ... : ... .. . ... V00 ... : ... .. . P80 : ... .. . ... : ... .. . ... ...
ROW 09 : ... .. . ... ... ... : ... .. . ... ... ... : ... .. . ... : ... .. 0 ... : ... .. . ... ...
ROW 0A : ... .. . ... ... ... : ... .. 7 ... ... ... : ... .. . ... : ... .. . ... : ... .. . ... ...
ROW 0B : ... .. A P80 ... ... : ... .. 6 ... ... ... : ... .. . P7E : ... .. . ... : ... .. . ... ...
ROW 0C : ... .. . P7F ... ... : ... .. 0 ... ... ... : ... .. . P7F : ... .. . ... : ... .. . ... ...
ROW 0D : ... .. . ... ... ... : B-1 00 B P80 V02 ... : D-5 00 . P82 : 4-# 00 F ... : D#0 00 . Z40 ...
ROW 0E : ... .. 9 P80 ... ... : ... .. . ... V00 ... : ... .. . P80 : ... .. . ... : ... .. . ... ...
ROW 0F : ... .. . P81 ... ... : ... .. . ... ... ... : ... .. . ... : ... .. 0 ... : ... .. . ... ...
ROW 10 : ... .. 8 ... ... ... : ... .. 7 ... ... ... : ... .. . ... : ... .. . ... : ... .. . ... ...
ROW 11 : ... .. . ... ... ... : ... .. 6 ... ... ... : ... .. . P7E : ... .. . ... : ... .. . ... ...
ROW 12 : ... .. . ... ... ... : ... .. 5 ... ... ... : ... .. . P7F : ... .. . ... : ... .. . ... ...
ROW 13 : ... .. 7 P80 ... ... : ... .. 4 ... ... ... : ... .. . P80 : ... .. . ... : ... .. . ... ...
ROW 14 : ... .. . P7F ... ... : ... .. . ... ... ... : ... .. . ... : ... .. . ... : ... .. . ... ...
ROW 15 : ... .. 6 ... ... ... : ... .. . ... ... ... : ... .. . ... : ... .. . ... : ... .. . ... ...
ROW 16 : ... .. . P80 ... ... : ... .. . ... ... ... : ... .. . ... : ... .. . ... : ... .. . ... ...
ROW 17 : ... .. . P81 ... ... : ... .. . ... ... ... : ... .. . ... : ... .. . ... : ... .. . ... ...
ROW 18 : ... .. . ... ... ... : ... .. 0 ... ... ... : ... .. . ... : ... .. . ... : ... .. . ... ...
ROW 19 : ... .. . ... ... ... : B-1 00 B P80 V02 ... : E-5 00 . P82 : C-# 00 F ... : C#0 00 . Z40 ...
ROW 1A : ... .. . P80 ... ... : ... .. . ... V00 ... : ... .. . P80 : ... .. . ... : ... .. . ... ...
ROW 1B : ... .. . P7F ... ... : ... .. . ... ... ... : ... .. . ... : ... .. 0 ... : ... .. . ... ...
ROW 1C : ... .. . ... ... ... : ... .. 7 ... ... ... : ... .. . ... : ... .. . ... : ... .. . ... ...
ROW 1D : ... .. . ... ... ... : ... .. 6 ... ... ... : D#5 00 . P82 : ... .. . ... : ... .. . ... ...
ROW 1E : ... .. . P80 ... ... : ... .. 0 ... ... ... : E-5 00 . P7F : ... .. . ... : ... .. . ... ...
ROW 1F : ... .. . P81 ... ... : B-1 00 B P80 V02 ... : ... .. . P80 : ... .. F ... : C#0 00 . Z40 ...
ROW 20 : ... .. . ... ... ... : ... .. . ... V00 ... : ... .. . ... : ... .. . ... : ... .. . ... ...
ROW 21 : ... .. . ... ... ... : ... .. . ... ... ... : ... .. . ... : ... .. 0 ... : ... .. . ... ...
ROW 22 : ... .. . P80 ... ... : ... .. 7 ... ... ... : ... .. . ... : ... .. . ... : ... .. . ... ...
ROW 23 : ... .. . P7F ... ... : ... .. 0 ... ... ... : ... .. . ... : ... .. . ... : ... .. . ... ...
ROW 24 : ... .. . ... ... ... : ... .. B ... V02 ... : F#5 00 . P82 : 4-# 00 F ... : D-0 00 . Z40 ...
ROW 25 : ... .. . P81 ... ... : ... .. . ... V00 ... : ... .. . P80 : ... .. . ... : ... .. . ... ...
ROW 26 : ... .. . ... ... ... : ... .. . ... ... ... : ... .. . ... : ... .. 0 ... : ... .. . ... ...
ROW 27 : ... .. . ... ... ... : ... .. 7 ... ... ... : ... .. . ... : ... .. . ... : ... .. . ... ...
ROW 28 : ... .. . ... ... ... : ... .. 6 ... ... ... : F-5 00 . P82 : ... .. . ... : ... .. . ... ...
ROW 29 : ... .. . P80 ... ... : ... .. 5 ... ... ... : F#5 00 . P7F : ... .. . ... : ... .. . ... ...
ROW 2A : ... .. . P7F ... ... : ... .. 4 ... ... ... : ... .. . P80 : ... .. . ... : ... .. . ... ...
ROW 2B : ... .. . ... ... ... : ... .. . ... ... ... : ... .. . ... : ... .. . ... : ... .. . ... ...
ROW 2C : ... .. . P80 ... ... : ... .. . ... ... ... : ... .. . ... : ... .. . ... : ... .. . ... ...
ROW 2D : ... .. . P81 ... ... : ... .. . ... ... ... : ... .. . ... : ... .. . ... : ... .. . ... ...
ROW 2E : ... .. . ... ... ... : ... .. . ... ... ... : ... .. . ... : ... .. . ... : ... .. . ... ...
ROW 2F : ... .. . ... ... ... : ... .. 0 ... ... ... : ... .. . ... : ... .. . ... : ... .. . ... ...
ROW 30 : ... .. . ... ... ... : B-1 00 B P80 V02 ... : ... .. . ... : C-# 00 F ... : C#0 00 . Z40 ...
ROW 31 : ... .. . P7F ... ... : ... .. . ... V00 ... : ... .. . ... : ... .. . ... : ... .. . ... ...
ROW 32 : ... .. . ... ... ... : ... .. . ... ... ... : ... .. . ... : ... .. 0 ... : ... .. . ... ...
ROW 33 : ... .. . ... ... ... : ... .. 7 ... ... ... : ... .. . ... : ... .. . ... : ... .. . ... ...
ROW 34 : ... .. . P80 ... ... : ... .. 6 ... ... ... : ... .. . ... : ... .. . ... : ... .. . ... ...
ROW 35 : ... .. . P81 ... ... : ... .. 0 ... ... ... : ... .. . ... : ... .. . ... : ... .. . ... ...
ROW 36 : ... .. . ... ... ... : B-1 00 B P80 V02 ... : ... .. . ... : ... .. F ... : C#0 00 . Z40 ...
ROW 37 : ... .. . ... ... ... : ... .. . ... V00 ... : ... .. . ... : ... .. . ... : ... .. . ... ...
ROW 38 : ... .. . P80 ... ... : ... .. . ... ... ... : ... .. . ... : ... .. 0 ... : ... .. . ... ...
ROW 39 : ... .. . P7F ... ... : ... .. 7 ... ... ... : ... .. . ... : ... .. . ... : ... .. . ... ...
ROW 3A : ... .. . ... ... ... : ... .. 6 ... ... ... : ... .. . ... : ... .. . ... : ... .. . ... ...
ROW 3B : ... .. 0 ... ... ... : ... .. 0 ... ... ... : ... .. . ... : ... .. . ... : ... .. . ... ...
ROW 3C : B-2 00 9 P80 ... ... : B-1 00 B P80 V02 ... : ... .. . ... : 4-# 00 F ... : D#0 00 . Z40 ...
ROW 3D : ... .. B ... ... ... : ... .. . ... V00 ... : ... .. . ... : ... .. . ... : ... .. . ... ...
ROW 3E : ... .. . ... ... ... : ... .. . ... ... ... : ... .. . ... : ... .. 0 ... : ... .. . ... ...
ROW 3F : ... .. . ... ... ... : ... .. 7 ... ... ... : ... .. . ... : ... .. . ... : ... .. . ... ...
ROW 40 : ... .. . ... ... ... : ... .. 6 ... ... ... : ... .. . ... : ... .. . ... : ... .. . ... ...
ROW 41 : ... .. . ... ... ... : ... .. 5 ... ... ... : ... .. . ... : ... .. . ... : ... .. . ... ...
ROW 42 : ... .. . ... ... ... : ... .. 4 ... ... ... : ... .. . ... : ... .. . ... : ... .. . ... ...
ROW 43 : ... .. . ... ... ... : ... .. . ... ... ... : ... .. . ... : ... .. . ... : ... .. . ... ...
ROW 44 : ... .. . ... ... ... : ... .. . ... ... ... : ... .. . ... : ... .. . ... : ... .. . ... ...
ROW 45 : ... .. . ... ... ... : ... .. . ... ... ... : ... .. . ... : ... .. . ... : ... .. . ... ...
ROW 46 : ... .. . P81 ... ... : ... .. 0 ... ... ... : ... .. . ... : ... .. . ... : ... .. . ... ...
ROW 47 : ... .. . ... ... ... : ... .. B ... V02 ... : ... .. . ... : C-# 00 F ... : C#0 00 . Z40 ...
ROW 48 : ... .. . ... ... ... : ... .. . ... V00 ... : ... .. . ... : ... .. . ... : ... .. . ... ...
ROW 49 : ... .. . P80 ... ... : ... .. . ... ... ... : ... .. . ... : ... .. 0 ... : ... .. . ... ...
ROW 4A : ... .. . P7F ... ... : ... .. 7 ... ... ... : ... .. . ... : ... .. . ... : ... .. . ... ...
ROW 4B : ... .. . ... ... ... : ... .. 6 ... ... ... : ... .. . ... : ... .. . ... : ... .. . ... ...
ROW 4C : ... .. . ... ... ... : ... .. 0 ... ... ... : ... .. . ... : ... .. . ... : ... .. . ... ...
ROW 4D : ... .. . P80 ... ... : B-1 00 B P80 V02 ... : D-5 00 . P82 : ... .. F ... : C#0 00 . Z40 ...
ROW 4E : ... .. . P81 ... ... : ... .. . ... V00 ... : ... .. . P80 : ... .. . ... : ... .. . ... ...
ROW 4F : ... .. . ... ... ... : ... .. . ... ... ... : ... .. . ... : ... .. 0 ... : ... .. . ... ...
ROW 50 : ... .. . ... ... ... : ... .. 7 ... ... ... : ... .. . ... : ... .. . ... : ... .. . ... ...
ROW 51 : ... .. A P80 ... ... : ... .. 6 ... ... ... : ... .. . P7E : ... .. . ... : ... .. . ... ...
ROW 52 : ... .. 0 ... ... ... : ... .. 0 ... ... ... : ... .. . P7F : ... .. . ... : ... .. . ... ...
ROW 53 : A-2 00 9 P80 ... ... : A-1 00 B P80 V02 ... : E-5 00 . P82 : 4-# 00 F ... : D-0 00 . Z40 ...
ROW 54 : ... .. B ... ... ... : ... .. . ... V00 ... : ... .. . P80 : ... .. . ... : ... .. . ... ...
ROW 55 : ... .. . ... ... ... : ... .. . ... ... ... : ... .. . ... : ... .. 0 ... : ... .. . ... ...
ROW 56 : ... .. . ... ... ... : ... .. 7 ... ... ... : ... .. . ... : ... .. . ... : ... .. . ... ...
ROW 57 : ... .. . ... ... ... : ... .. 6 ... ... ... : D#5 00 . P82 : ... .. . ... : ... .. . ... ...
ROW 58 : ... .. . ... ... ... : ... .. 5 ... ... ... : --- .. . ... : ... .. . ... : ... .. . ... ...
ROW 59 : ... .. . ... ... ... : ... .. 4 ... ... ... : ... .. . ... : ... .. . ... : ... .. . ... ...
ROW 5A : ... .. . ... ... ... : ... .. . ... ... ... : ... .. . ... : ... .. . ... : ... .. . ... ...
ROW 5B : ... .. . ... ... ... : ... .. . ... ... ... : ... .. . ... : ... .. . ... : ... .. . ... ...
ROW 5C : ... .. . ... ... ... : ... .. . ... ... ... : ... .. . ... : ... .. . ... : ... .. . ... ...
ROW 5D : ... .. . ... ... ... : ... .. . ... ... ... : ... .. . ... : ... .. . ... : ... .. . ... ...
ROW 5E : ... .. . P81 ... ... : ... .. 0 ... ... ... : ... .. . ... : ... .. . ... : ... .. . ... ...
ROW 5F : ... .. . ... ... ... : A-1 00 B P80 V02 ... : E-5 00 . ... : C-# 00 F ... : C#0 00 . Z40 ...
ROW 60 : ... .. . ... ... ... : ... .. . ... V00 ... : ... .. . P80 : ... .. . ... : ... .. . ... ...
ROW 61 : ... .. . P80 ... ... : ... .. . ... ... ... : ... .. . ... : ... .. 0 ... : ... .. . ... ...
ROW 62 : ... .. . P7F ... ... : ... .. 7 ... ... ... : ... .. . ... : ... .. . ... : ... .. . ... ...
ROW 63 : ... .. . ... ... ... : ... .. 6 ... ... ... : D#5 00 . P82 : ... .. . ... : ... .. . ... ...
ROW 64 : ... .. . ... ... ... : ... .. 0 ... ... ... : E-5 00 . P7F : ... .. . ... : ... .. . ... ...
ROW 65 : ... .. . P80 ... ... : A-1 00 B P80 V02 ... : D-5 00 . P82 : ... .. F ... : C#0 00 . Z40 ...
ROW 66 : ... .. . P81 ... ... : ... .. . ... V00 ... : ... .. . P80 : ... .. . ... : ... .. . ... ...
ROW 67 : ... .. . ... ... ... : ... .. . ... ... ... : ... .. . ... : ... .. 0 ... : ... .. . ... ...
ROW 68 : ... .. . ... ... ... : ... .. 7 ... ... ... : ... .. . ... : ... .. . ... : ... .. . ... ...
ROW 69 : ... .. A P7F ... ... : ... .. 0 ... ... ... : ... .. . P7F : ... .. . ... : ... .. . ... ...
ROW 6A : ... .. . ... ... ... : ... .. B ... V02 ... : C#5 00 . P82 : 4-# 00 F ... : D#0 00 . Z40 ...
ROW 6B : ... .. 9 P80 ... ... : ... .. . ... V00 ... : ... .. . P80 : ... .. . ... : ... .. . ... ...
ROW 6C : ... .. . P81 ... ... : ... .. . ... ... ... : ... .. . ... : ... .. 0 ... : ... .. . ... ...
ROW 6D : ... .. 8 ... ... ... : ... .. 7 ... ... ... : ... .. . ... : ... .. . ... : ... .. . ... ...
ROW 6E : ... .. . ... ... ... : ... .. 6 ... ... ... : ... .. . P7E : ... .. . ... : ... .. . ... ...
ROW 6F : ... .. . ... ... ... : ... .. 5 ... ... ... : ... .. . P7F : ... .. . ... : ... .. . ... ...
ROW 70 : ... .. 7 P80 ... ... : ... .. 4 ... ... ... : ... .. . P80 : ... .. . ... : ... .. . ... ...
ROW 71 : ... .. . P7F ... ... : ... .. . ... ... ... : ... .. . ... : ... .. . ... : ... .. . ... ...
ROW 72 : ... .. 6 ... ... ... : ... .. . ... ... ... : ... .. . ... : ... .. . ... : ... .. . ... ...
ROW 73 : ... .. . P80 ... ... : ... .. . ... ... ... : ... .. . ... : ... .. . ... : ... .. . ... ...
ROW 74 : ... .. . P81 ... ... : ... .. . ... ... ... : ... .. . ... : ... .. . ... : ... .. . ... ...
ROW 75 : ... .. . ... ... ... : ... .. 0 ... ... ... : ... .. . ... : ... .. . ... : ... .. . ... ...
ROW 76 : ... .. . ... ... ... : A-1 00 B P80 V02 ... : B-4 00 . P82 : C-# 00 F ... : C#0 00 . Z40 ...
ROW 77 : ... .. . P80 ... ... : ... .. . ... V00 ... : ... .. . P80 : ... .. . ... : ... .. . ... ...
ROW 78 : ... .. . P7F ... ... : ... .. . ... ... ... : ... .. . ... : ... .. 0 ... : ... .. . ... ...
ROW 79 : ... .. . ... ... ... : ... .. 7 ... ... ... : ... .. . ... : ... .. . ... : ... .. . ... ...
ROW 7A : ... .. . ... ... ... : ... .. 6 ... ... ... : ... .. . P7E : ... .. . ... : ... .. . ... ...
ROW 7B : ... .. . P80 ... ... : ... .. 0 ... ... ... : ... .. . P7F : ... .. . ... : ... .. . ... ...
ROW 7C : ... .. . P81 ... ... : A-1 00 B P80 V02 ... : ... .. . P80 : ... .. F ... : C#0 00 . Z40 ...
ROW 7D : ... .. . ... ... ... : ... .. . ... V00 ... : ... .. . ... : ... .. . ... : ... .. . ... ...
ROW 7E : ... .. . ... ... ... : ... .. . ... ... ... : ... .. . ... : ... .. 0 ... : ... .. . ... ...
ROW 7F : ... .. . P80 ... ... : ... .. 7 ... ... ... : ... .. . ... : ... .. . ... : ... .. . ... ...
ROW 80 : ... .. . P7F ... ... : ... .. 6 ... ... ... : ... .. . ... : ... .. . ... : ... .. . ... ...
ROW 81 : ... .. . ... ... ... : ... .. 0 ... ... ... : ... .. . ... : ... .. . ... : ... .. . ... ...
ROW 82 : ... .. . ... ... ... : A-1 00 B P80 V02 ... : A-4 00 . P82 : 4-# 00 F ... : D-0 00 . Z40 ...
ROW 83 : ... .. . P81 ... ... : ... .. . ... V00 ... : ... .. . P80 : ... .. . ... : ... .. . ... ...
ROW 84 : ... .. . ... ... ... : ... .. . ... ... ... : ... .. . ... : ... .. 0 ... : ... .. . ... ...
ROW 85 : ... .. . ... ... ... : ... .. 7 ... ... ... : ... .. . ... : ... .. . ... : ... .. . ... ...
ROW 86 : ... .. . ... ... ... : ... .. 6 ... ... ... : ... .. . P7E : ... .. . ... : ... .. . ... ...
ROW 87 : ... .. . P80 ... ... : ... .. 5 ... ... ... : ... .. . P7F : ... .. . ... : ... .. . ... ...
ROW 88 : ... .. . P7F ... ... : ... .. 4 ... ... ... : ... .. . P80 : ... .. . ... : ... .. . ... ...
ROW 89 : ... .. . ... ... ... : ... .. . ... ... ... : ... .. . ... : ... .. . ... : ... .. . ... ...
ROW 8A : ... .. . P80 ... ... : ... .. . ... ... ... : ... .. . ... : ... .. . ... : ... .. . ... ...
ROW 8B : ... .. . P81 ... ... : ... .. . ... ... ... : ... .. . ... : ... .. . ... : ... .. . ... ...
ROW 8C : ... .. . ... ... ... : ... .. 0 ... ... ... : ... .. . ... : ... .. . ... : ... .. . ... ...
ROW 8D : ... .. . ... ... ... : ... .. B ... V02 ... : ... .. . ... : C-# 00 F ... : C#0 00 . Z40 ...
ROW 8E : ... .. . P7F ... ... : ... .. . ... V00 ... : ... .. . ... : ... .. . ... : ... .. . ... ...
ROW 8F : ... .. . ... ... ... : ... .. . ... ... ... : ... .. . ... : ... .. 0 ... : ... .. . ... ...
ROW 90 : ... .. . ... ... ... : ... .. 7 ... ... ... : ... .. . ... : ... .. . ... : ... .. . ... ...
ROW 91 : ... .. . P80 ... ... : ... .. 6 ... ... ... : ... .. . ... : ... .. . ... : ... .. . ... ...
ROW 92 : ... .. . P81 ... ... : ... .. 0 ... ... ... : ... .. . ... : ... .. . ... : ... .. . ... ...
ROW 93 : ... .. . ... ... ... : A-1 00 B P80 V02 ... : ... .. . ... : ... .. F ... : C#0 00 . Z40 ...
ROW 94 : ... .. . ... ... ... : ... .. . ... V00 ... : ... .. . ... : ... .. . ... : ... .. . ... ...
ROW 95 : ... .. . P80 ... ... : ... .. . ... ... ... : ... .. . ... : ... .. 0 ... : ... .. . ... ...
ROW 96 : ... .. . P7F ... ... : ... .. 7 ... ... ... : ... .. . ... : ... .. . ... : ... .. . ... ...
ROW 97 : ... .. . ... ... ... : ... .. 6 ... ... ... : ... .. . ... : ... .. . ... : ... .. . ... ...
ROW 98 : ... .. 0 ... ... ... : ... .. 0 ... ... ... : ... .. . ... : ... .. . ... : ... .. . ... ...
ROW 99 : C#3 00 9 P80 ... ... : F#1 00 B P80 V02 ... : ... .. . ... : 4-# 00 F ... : D#0 00 . Z40 ...
ROW 9A : ... .. B ... ... ... : ... .. . ... V00 ... : ... .. . ... : ... .. . ... : ... .. . ... ...
ROW 9B : ... .. . ... ... ... : ... .. . ... ... ... : ... .. . ... : ... .. 0 ... : ... .. . ... ...
ROW 9C : ... .. . ... ... ... : ... .. 7 ... ... ... : ... .. . ... : ... .. . ... : ... .. . ... ...
ROW 9D : ... .. . ... ... ... : ... .. 6 ... ... ... : ... .. . ... : ... .. . ... : ... .. . ... ...
ROW 9E : ... .. . ... ... ... : ... .. 5 ... ... ... : ... .. . ... : ... .. . ... : ... .. . ... ...
ROW 9F : ... .. . ... ... ... : ... .. 4 ... ... ... : ... .. . ... : ... .. . ... : ... .. . ... ...
ROW A0 : ... .. . ... ... ... : ... .. . ... ... ... : ... .. . ... : ... .. . ... : ... .. . ... ...
ROW A1 : ... .. . ... ... ... : ... .. . ... ... ... : ... .. . ... : ... .. . ... : ... .. . ... ...
ROW A2 : ... .. . ... ... ... : ... .. . ... ... ... : ... .. . ... : ... .. . ... : ... .. . ... ...
ROW A3 : ... .. . ... ... ... : ... .. . ... ... ... : ... .. . ... : ... .. . ... : ... .. . ... ...
ROW A4 : ... .. . P81 ... ... : ... .. . ... ... ... : ... .. . ... : ... .. . ... : ... .. . ... ...
ROW A5 : ... .. . ... ... ... : A-1 00 B ... V02 ... : ... .. . ... : C-# 00 F ... : C#0 00 . Z40 ...
ROW A6 : ... .. . ... ... ... : ... .. . ... V00 ... : ... .. . ... : ... .. . ... : ... .. . ... ...
ROW A7 : ... .. . P80 ... ... : ... .. . ... ... ... : ... .. . ... : ... .. 0 ... : ... .. . ... ...
ROW A8 : ... .. . P7F ... ... : ... .. 7 ... ... ... : ... .. . ... : ... .. . ... : ... .. . ... ...
ROW A9 : ... .. . ... ... ... : ... .. 6 ... ... ... : ... .. . ... : ... .. . ... : ... .. . ... ...
ROW AA : ... .. . ... ... ... : ... .. 5 ... ... ... : ... .. . ... : ... .. . ... : ... .. . ... ...
ROW AB : ... .. . P80 ... ... : ... .. 4 ... ... ... : ... .. . ... : ... .. . ... : C#0 00 . Z40 ...
ROW AC : ... .. . P81 ... ... : ... .. . ... ... ... : ... .. . ... : ... .. . ... : ... .. . ... ...
ROW AD : ... .. . ... ... ... : ... .. . ... ... ... : ... .. . ... : ... .. . ... : ... .. . ... ...
ROW AE : ... .. . ... ... ... : ... .. . ... ... ... : ... .. . ... : ... .. . ... : ... .. . ... ...
ROW AF : ... .. 0 P80 ... ... : ... .. . ... ... ... : --- .. . ... : ... .. . ... : ... .. . ... ...
ROW B0 : D-3 00 9 ... ... ... : B-1 00 B ... V02 ... : B-4 00 . P82 : 4-# 00 F ... : D-0 00 . Z40 ...
ROW B1 : ... .. B ... ... ... : ... .. . ... V00 ... : ... .. . P80 : ... .. . ... : ... .. . ... ...
ROW B2 : ... .. . ... ... ... : ... .. . ... ... ... : ... .. . ... : ... .. 0 ... : ... .. . ... ...
ROW B3 : ... .. . ... ... ... : ... .. 7 ... ... ... : ... .. . ... : ... .. . ... : ... .. . ... ...
ROW B4 : ... .. . ... ... ... : ... .. 6 ... ... ... : ... .. . P7E : ... .. . ... : ... .. . ... ...
ROW B5 : ... .. . ... ... ... : ... .. 5 ... ... ... : --- .. . ... : ... .. . ... : ... .. . ... ...
ROW B6 : ... .. . ... ... ... : ... .. 4 ... ... ... : ... .. . ... : ... .. . ... : ... .. . ... ...
ROW B7 : ... .. . ... ... ... : ... .. . ... ... ... : ... .. . ... : ... .. . ... : ... .. . ... ...
ROW B8 : ... .. . ... ... ... : ... .. . ... ... ... : ... .. . ... : ... .. . ... : ... .. . ... ...
ROW B9 : ... .. . ... ... ... : ... .. . ... ... ... : ... .. . ... : ... .. . ... : ... .. . ... ...
ROW BA : ... .. . ... ... ... : ... .. . ... ... ... : ... .. . ... : ... .. . ... : ... .. . ... ...
ROW BB : ... .. . P81 ... ... : ... .. 0 ... ... ... : ... .. . ... : ... .. . ... : ... .. . ... ...
ROW BC : ... .. . ... ... ... : B-1 00 B P80 V02 ... : B-4 00 . P82 : C-# 00 F ... : C#0 00 . Z40 ...
ROW BD : ... .. . ... ... ... : ... .. . ... V00 ... : ... .. . P80 : ... .. . ... : ... .. . ... ...
ROW BE : ... .. . P80 ... ... : ... .. . ... ... ... : ... .. . ... : ... .. 0 ... : ... .. . ... ...
ROW BF : ... .. . P7F ... ... : ... .. 7 ... ... ... : ... .. . ... : ... .. . ... : ... .. . ... ...
ROW C0 : ... .. . ... ... ... : ... .. 6 ... ... ... : ... .. . P7E : ... .. . ... : ... .. . ... ...
ROW C1 : ... .. . ... ... ... : ... .. 0 ... ... ... : ... .. . P7F : ... .. . ... : ... .. . ... ...
ROW C2 : ... .. . P80 ... ... : B-1 00 B P80 V02 ... : C#5 00 . P82 : ... .. F ... : C#0 00 . Z40 ...
ROW C3 : ... .. . P81 ... ... : ... .. . ... V00 ... : ... .. . P80 : ... .. . ... : ... .. . ... ...
ROW C4 : ... .. . ... ... ... : ... .. . ... ... ... : ... .. . ... : ... .. 0 ... : ... .. . ... ...
ROW C5 : ... .. . ... ... ... : ... .. 7 ... ... ... : ... .. . ... : ... .. . ... : ... .. . ... ...
ROW C6 : ... .. A P80 ... ... : ... .. 6 ... ... ... : ... .. . P7E : ... .. . ... : ... .. . ... ...
ROW C7 : ... .. . P7F ... ... : ... .. 0 ... ... ... : ... .. . P7F : ... .. . ... : ... .. . ... ...
ROW C8 : ... .. . ... ... ... : B-1 00 B P80 V02 ... : D-5 00 . P82 : 4-# 00 F ... : D#0 00 . Z40 ...
ROW C9 : ... .. 9 P80 ... ... : ... .. . ... V00 ... : ... .. . P80 : ... .. . ... : ... .. . ... ...
ROW CA : ... .. . P81 ... ... : ... .. . ... ... ... : ... .. . ... : ... .. 0 ... : ... .. . ... ...
ROW CB : ... .. 8 ... ... ... : ... .. 7 ... ... ... : ... .. . ... : ... .. . ... : ... .. . ... ...
ROW CC : ... .. . ... ... ... : ... .. 6 ... ... ... : ... .. . P7E : ... .. . ... : ... .. . ... ...
ROW CD : ... .. . ... ... ... : ... .. 5 ... ... ... : ... .. . P7F : ... .. . ... : ... .. . ... ...
ROW CE : ... .. 7 P80 ... ... : ... .. 4 ... ... ... : ... .. . P80 : ... .. . ... : ... .. . ... ...
ROW CF : ... .. . P7F ... ... : ... .. . ... ... ... : ... .. . ... : ... .. . ... : ... .. . ... ...
ROW D0 : ... .. 6 ... ... ... : ... .. . ... ... ... : ... .. . ... : ... .. . ... : ... .. . ... ...
ROW D1 : ... .. . P80 ... ... : ... .. . ... ... ... : ... .. . ... : ... .. . ... : ... .. . ... ...
ROW D2 : ... .. . P81 ... ... : ... .. 0 ... ... ... : ... .. . ... : ... .. . ... : ... .. . ... ...
ROW D3 : ... .. . ... ... ... : ... .. B ... V02 ... : E-5 00 . P82 : C-# 00 F ... : C#0 00 . Z40 ...
ROW D4 : ... .. . P80 ... ... : ... .. . ... V00 ... : ... .. . P80 : ... .. . ... : ... .. . ... ...
ROW D5 : ... .. . P7F ... ... : ... .. . ... ... ... : ... .. . ... : ... .. 0 ... : ... .. . ... ...
ROW D6 : ... .. . ... ... ... : ... .. 7 ... ... ... : ... .. . ... : ... .. . ... : ... .. . ... ...
ROW D7 : ... .. . ... ... ... : ... .. 6 ... ... ... : D#5 00 . P82 : ... .. . ... : ... .. . ... ...
ROW D8 : ... .. . P80 ... ... : ... .. 0 ... ... ... : E-5 00 . P7F : ... .. . ... : ... .. . ... ...
ROW D9 : ... .. . P81 ... ... : B-1 00 B P80 V02 ... : ... .. . P80 : ... .. F ... : C#0 00 . Z40 ...
ROW DA : ... .. . ... ... ... : ... .. . ... V00 ... : ... .. . ... : ... .. . ... : ... .. . ... ...
ROW DB : ... .. . ... ... ... : ... .. . ... ... ... : ... .. . ... : ... .. 0 ... : ... .. . ... ...
ROW DC : ... .. . P80 ... ... : ... .. 7 ... ... ... : ... .. . ... : ... .. . ... : ... .. . ... ...
ROW DD : ... .. . P7F ... ... : ... .. 6 ... ... ... : ... .. . ... : ... .. . ... : ... .. . ... ...
ROW DE : ... .. . ... ... ... : ... .. 0 ... ... ... : ... .. . ... : ... .. . ... : ... .. . ... ...
ROW DF : ... .. . ... ... ... : B-1 00 B P80 V02 ... : F#5 00 . P82 : 4-# 00 F ... : D-0 00 . Z40 ...
ROW E0 : ... .. . P81 ... ... : ... .. . ... V00 ... : ... .. . P80 : ... .. . ... : ... .. . ... ...
ROW E1 : ... .. . ... ... ... : ... .. . ... ... ... : ... .. . ... : ... .. 0 ... : ... .. . ... ...
ROW E2 : ... .. . ... ... ... : ... .. 7 ... ... ... : ... .. . ... : ... .. . ... : ... .. . ... ...
ROW E3 : ... .. . ... ... ... : ... .. 6 ... ... ... : F-5 00 . P82 : ... .. . ... : ... .. . ... ...
ROW E4 : ... .. . P80 ... ... : ... .. 5 ... ... ... : F#5 00 . P7F : ... .. . ... : ... .. . ... ...
ROW E5 : ... .. . P7F ... ... : ... .. 4 ... ... ... : ... .. . P80 : ... .. . ... : ... .. . ... ...
ROW E6 : ... .. . ... ... ... : ... .. . ... ... ... : ... .. . ... : ... .. . ... : ... .. . ... ...
ROW E7 : ... .. . P80 ... ... : ... .. . ... ... ... : ... .. . ... : ... .. . ... : ... .. . ... ...
ROW E8 : ... .. . P81 ... ... : ... .. . ... ... ... : ... .. . ... : ... .. . ... : ... .. . ... ...
ROW E9 : ... .. . ... ... ... : ... .. . ... ... ... : ... .. . ... : ... .. . ... : ... .. . ... ...
ROW EA : ... .. . ... ... ... : ... .. 0 ... ... ... : ... .. . ... : ... .. . ... : ... .. . ... ...
ROW EB : ... .. . ... ... ... : B-1 00 B P80 V02 ... : ... .. . ... : C-# 00 F ... : C#0 00 . Z40 ...
ROW EC : ... .. . P7F ... ... : ... .. . ... V00 ... : ... .. . ... : ... .. . ... : ... .. . ... ...
ROW ED : ... .. . ... ... ... : ... .. . ... ... ... : ... .. . ... : ... .. 0 ... : ... .. . ... ...
ROW EE : ... .. . ... ... ... : ... .. 7 ... ... ... : ... .. . ... : ... .. . ... : ... .. . ... ...
ROW EF : ... .. . P80 ... ... : ... .. 6 ... ... ... : ... .. . ... : ... .. . ... : ... .. . ... ...
ROW F0 : ... .. . P81 ... ... : ... .. 0 ... ... ... : ... .. . ... : ... .. . ... : ... .. . ... ...
ROW F1 : ... .. . ... ... ... : B-1 00 B P80 V02 ... : ... .. . ... : ... .. F ... : C#0 00 . Z40 ...
ROW F2 : ... .. . ... ... ... : ... .. . ... V00 ... : ... .. . ... : ... .. . ... : ... .. . ... ...
ROW F3 : ... .. . P80 ... ... : ... .. . ... ... ... : ... .. . ... : ... .. 0 ... : ... .. . ... ...
ROW F4 : ... .. . P7F ... ... : ... .. 7 ... ... ... : ... .. . ... : ... .. . ... : ... .. . ... ...
ROW F5 : ... .. 0 ... ... ... : ... .. 0 ... ... ... : ... .. . ... : ... .. . ... : ... .. . ... ...
ROW F6 : ... .. 9 P80 ... ... : ... .. B ... V02 ... : ... .. . ... : 4-# 00 F ... : D#0 00 . Z40 ...
ROW F7 : ... .. B ... ... ... : ... .. . ... V00 ... : ... .. . ... : ... .. . ... : ... .. . ... ...
ROW F8 : ... .. . ... ... ... : ... .. . ... ... ... : ... .. . ... : ... .. 0 ... : ... .. . ... ...
ROW F9 : ... .. . ... ... ... : ... .. 7 ... ... ... : ... .. . ... : ... .. . ... : ... .. . ... ...
ROW FA : ... .. . ... ... ... : ... .. 6 ... ... ... : ... .. . ... : ... .. . ... : ... .. . ... ...
ROW FB : ... .. . ... ... ... : ... .. 5 ... ... ... : ... .. . ... : ... .. . ... : ... .. . ... ...
ROW FC : ... .. . ... ... ... : ... .. 4 ... ... ... : ... .. . ... : ... .. . ... : ... .. . ... ...
ROW FD : ... .. . ... ... ... : ... .. . ... ... ... : ... .. . ... : ... .. . ... : ... .. . ... ...
ROW FE : ... .. . ... ... ... : ... .. . ... ... ... : ... .. . ... : ... .. . ... : ... .. . ... ...
ROW FF : ... .. . ... ... ... : ... .. . ... ... ... : ... .. . ... : ... .. . ... : ... .. . ... ...

PATTERN 14
ROW 00 : ... .. . ... ... ... : ... .. . ... ... ... : ... .. . ... : ... .. . ... : ... .. . ... ...
ROW 01 : ... .. . P81 ... ... : ... .. 0 ... ... ... : ... .. . ... : ... .. . ... : ... .. . ... ...
ROW 02 : ... .. . ... ... ... : B-1 00 B P80 V02 ... : ... .. . ... : C-# 00 F ... : C#0 00 . Z40 ...
ROW 03 : ... .. . ... ... ... : ... .. . ... V00 ... : ... .. . ... : ... .. . ... : ... .. . ... ...
ROW 04 : ... .. . P80 ... ... : ... .. . ... ... ... : ... .. . ... : ... .. 0 ... : ... .. . ... ...
ROW 05 : ... .. . P7F ... ... : ... .. 7 ... ... ... : ... .. . ... : ... .. . ... : ... .. . ... ...
ROW 06 : ... .. . ... ... ... : ... .. 6 ... ... ... : ... .. . ... : ... .. . ... : ... .. . ... ...
ROW 07 : ... .. . ... ... ... : ... .. 0 ... ... ... : ... .. . ... : ... .. . ... : ... .. . ... ...
ROW 08 : ... .. . P80 ... ... : B-1 00 B P80 V02 ... : D-5 00 . P82 : ... .. F ... : C#0 00 . Z40 ...
ROW 09 : ... .. . P81 ... ... : ... .. . ... V00 ... : ... .. . P80 : ... .. . ... : ... .. . ... ...
ROW 0A : ... .. . ... ... ... : ... .. . ... ... ... : ... .. . ... : ... .. 0 ... : ... .. . ... ...
ROW 0B : ... .. . ... ... ... : ... .. 7 ... ... ... : ... .. . ... : ... .. . ... : ... .. . ... ...
ROW 0C : ... .. A P80 ... ... : ... .. 6 ... ... ... : ... .. . P7E : ... .. . ... : ... .. . ... ...
ROW 0D : ... .. 0 ... ... ... : ... .. 0 ... ... ... : ... .. . P7F : ... .. . ... : ... .. . ... ...
ROW 0E : C#3 00 9 P80 ... ... : A-1 00 B P80 V02 ... : E-5 00 . P82 : 4-# 00 F ... : D-0 00 . Z40 ...
ROW 0F : ... .. B ... ... ... : ... .. . ... V00 ... : ... .. . P80 : ... .. . ... : ... .. . ... ...
ROW 10 : ... .. . ... ... ... : ... .. . ... ... ... : ... .. . ... : ... .. 0 ... : ... .. . ... ...
ROW 11 : ... .. . ... ... ... : ... .. 7 ... ... ... : ... .. . ... : ... .. . ... : ... .. . ... ...
ROW 12 : ... .. . ... ... ... : ... .. 6 ... ... ... : D#5 00 . P82 : ... .. . ... : ... .. . ... ...
ROW 13 : ... .. . ... ... ... : ... .. 5 ... ... ... : --- .. . ... : ... .. . ... : ... .. . ... ...
ROW 14 : ... .. . ... ... ... : ... .. 4 ... ... ... : ... .. . ... : ... .. . ... : ... .. . ... ...
ROW 15 : ... .. . ... ... ... : ... .. . ... ... ... : ... .. . ... : ... .. . ... : ... .. . ... ...
ROW 16 : ... .. . ... ... ... : ... .. . ... ... ... : ... .. . ... : ... .. . ... : ... .. . ... ...
ROW 17 : ... .. . ... ... ... : ... .. . ... ... ... : ... .. . ... : ... .. . ... : ... .. . ... ...
ROW 18 : ... .. . P81 ... ... : ... .. 0 ... ... ... : ... .. . ... : ... .. . ... : ... .. . ... ...
ROW 19 : ... .. . ... ... ... : ... .. B ... V02 ... : E-5 00 . ... : C-# 00 F ... : C#0 00 . Z40 ...
ROW 1A : ... .. . ... ... ... : ... .. . ... V00 ... : ... .. . P80 : ... .. . ... : ... .. . ... ...
ROW 1B : ... .. . P80 ... ... : ... .. . ... ... ... : ... .. . ... : ... .. 0 ... : ... .. . ... ...
ROW 1C : ... .. . P7F ... ... : ... .. 7 ... ... ... : ... .. . ... : ... .. . ... : ... .. . ... ...
ROW 1D : ... .. . ... ... ... : ... .. 6 ... ... ... : D#5 00 . P82 : ... .. . ... : ... .. . ... ...
ROW 1E : ... .. . ... ... ... : ... .. 0 ... ... ... : E-5 00 . P7F : ... .. . ... : ... .. . ... ...
ROW 1F : ... .. . P80 ... ... : A-1 00 B P80 V02 ... : D-5 00 . P82 : ... .. F ... : C#0 00 . Z40 ...
ROW 20 : ... .. . P81 ... ... : ... .. . ... V00 ... : ... .. . P80 : ... .. . ... : ... .. . ... ...
ROW 21 : ... .. . ... ... ... : ... .. . ... ... ... : ... .. . ... : ... .. 0 ... : ... .. . ... ...
ROW 22 : ... .. . ... ... ... : ... .. 7 ... ... ... : ... .. . ... : ... .. . ... : ... .. . ... ...
ROW 23 : ... .. A P80 ... ... : ... .. 6 ... ... ... : ... .. . P7E : ... .. . ... : ... .. . ... ...
ROW 24 : ... .. . P7F ... ... : ... .. 0 ... ... ... : ... .. . P7F : ... .. . ... : ... .. . ... ...
ROW 25 : ... .. . ... ... ... : A-1 00 B P80 V02 ... : C#5 00 . P82 : 4-# 00 F ... : D#0 00 . Z40 ...
ROW 26 : ... .. 9 P80 ... ... : ... .. . ... V00 ... : ... .. . P80 : ... .. . ... : ... .. . ... ...
ROW 27 : ... .. . P81 ... ... : ... .. . ... ... ... : ... .. . ... : ... .. 0 ... : ... .. . ... ...
ROW 28 : ... .. 8 ... ... ... : ... .. 7 ... ... ... : ... .. . ... : ... .. . ... : ... .. . ... ...
ROW 29 : ... .. . ... ... ... : ... .. 6 ... ... ... : ... .. . P7E : ... .. . ... : ... .. . ... ...
ROW 2A : ... .. . ... ... ... : ... .. 5 ... ... ... : ... .. . P7F : ... .. . ... : ... .. . ... ...
ROW 2B : ... .. 7 P80 ... ... : ... .. 4 ... ... ... : ... .. . P80 : ... .. . ... : ... .. . ... ...
ROW 2C : ... .. . P7F ... ... : ... .. . ... ... ... : ... .. . ... : ... .. . ... : ... .. . ... ...
ROW 2D : ... .. 6 ... ... ... : ... .. . ... ... ... : ... .. . ... : ... .. . ... : ... .. . ... ...
ROW 2E : ... .. . P80 ... ... : ... .. . ... ... ... : ... .. . ... : ... .. . ... : ... .. . ... ...
ROW 2F : ... .. . P81 ... ... : ... .. . ... ... ... : ... .. . ... : ... .. . ... : ... .. . ... ...
ROW 30 : ... .. . ... ... ... : ... .. 0 ... ... ... : ... .. . ... : ... .. . ... : ... .. . ... ...
ROW 31 : ... .. . ... ... ... : A-1 00 B P80 V02 ... : B-4 00 . P82 : C-# 00 F ... : C#0 00 . Z40 ...
ROW 32 : ... .. . P80 ... ... : ... .. . ... V00 ... : ... .. . P80 : ... .. . ... : ... .. . ... ...
ROW 33 : ... .. . P7F ... ... : ... .. . ... ... ... : ... .. . ... : ... .. 0 ... : ... .. . ... ...
ROW 34 : ... .. . ... ... ... : ... .. 7 ... ... ... : ... .. . ... : ... .. . ... : ... .. . ... ...
ROW 35 : ... .. . ... ... ... : ... .. 6 ... ... ... : ... .. . P7E : ... .. . ... : ... .. . ... ...
ROW 36 : ... .. . P80 ... ... : ... .. 0 ... ... ... : ... .. . P7F : ... .. . ... : ... .. . ... ...
ROW 37 : ... .. . P81 ... ... : A-1 00 B P80 V02 ... : ... .. . P80 : ... .. F ... : C#0 00 . Z40 ...
ROW 38 : ... .. . ... ... ... : ... .. . ... V00 ... : ... .. . ... : ... .. . ... : ... .. . ... ...
ROW 39 : ... .. . ... ... ... : ... .. . ... ... ... : ... .. . ... : ... .. 0 ... : ... .. . ... ...
ROW 3A : ... .. . P80 ... ... : ... .. 7 ... ... ... : ... .. . ... : ... .. . ... : ... .. . ... ...
ROW 3B : ... .. . P7F ... ... : ... .. 0 ... ... ... : ... .. . ... : ... .. . ... : ... .. . ... ...
ROW 3C : ... .. . ... ... ... : ... .. B ... V02 ... : A-4 00 . P82 : 4-# 00 F ... : D-0 00 . Z40 ...
ROW 3D : ... .. . P81 ... ... : ... .. . ... V00 ... : ... .. . P80 : ... .. . ... : ... .. . ... ...
ROW 3E : ... .. . ... ... ... : ... .. . ... ... ... : ... .. . ... : ... .. 0 ... : ... .. . ... ...
ROW 3F : ... .. . ... ... ... : ... .. 7 ... ... ... : ... .. . ... : ... .. . ... : ... .. . ... ...
ROW 40 : ... .. . ... ... ... : ... .. 6 ... ... ... : ... .. . P7E : ... .. . ... : ... .. . ... ...
ROW 41 : ... .. . P80 ... ... : ... .. 5 ... ... ... : ... .. . P7F : ... .. . ... : ... .. . ... ...
ROW 42 : ... .. . P7F ... ... : ... .. 4 ... ... ... : ... .. . P80 : ... .. . ... : ... .. . ... ...
ROW 43 : ... .. . ... ... ... : ... .. . ... ... ... : ... .. . ... : ... .. . ... : ... .. . ... ...
ROW 44 : ... .. . P80 ... ... : ... .. . ... ... ... : ... .. . ... : ... .. . ... : ... .. . ... ...
ROW 45 : ... .. . P81 ... ... : ... .. . ... ... ... : ... .. . ... : ... .. . ... : ... .. . ... ...
ROW 46 : ... .. . ... ... ... : ... .. . ... ... ... : ... .. . ... : ... .. . ... : ... .. . ... ...
ROW 47 : ... .. . ... ... ... : ... .. 0 ... ... ... : ... .. . ... : ... .. . ... : ... .. . ... ...
ROW 48 : ... .. . ... ... ... : A-1 00 B P80 V02 ... : ... .. . ... : C-# 00 F ... : C#0 00 . Z40 ...
ROW 49 : ... .. . P7F ... ... : ... .. . ... V00 ... : ... .. . ... : ... .. . ... : ... .. . ... ...
ROW 4A : ... .. . ... ... ... : ... .. . ... ... ... : ... .. . ... : ... .. 0 ... : ... .. . ... ...
ROW 4B : ... .. . ... ... ... : ... .. 7 ... ... ... : ... .. . ... : ... .. . ... : ... .. . ... ...
ROW 4C : ... .. . P80 ... ... : ... .. 6 ... ... ... : ... .. . ... : ... .. . ... : ... .. . ... ...
ROW 4D : ... .. . P81 ... ... : ... .. 0 ... ... ... : ... .. . ... : ... .. . ... : ... .. . ... ...
ROW 4E : ... .. . ... ... ... : A-1 00 B P80 V02 ... : ... .. . ... : ... .. F ... : C#0 00 . Z40 ...
ROW 4F : ... .. . ... ... ... : ... .. . ... V00 ... : ... .. . ... : ... .. . ... : ... .. . ... ...
ROW 50 : ... .. . P80 ... ... : ... .. . ... ... ... : ... .. . ... : ... .. 0 ... : ... .. . ... ...
ROW 51 : ... .. . P7F ... ... : ... .. 7 ... ... ... : ... .. . ... : ... .. . ... : ... .. . ... ...
ROW 52 : ... .. . ... ... ... : ... .. 6 ... ... ... : ... .. . ... : ... .. . ... : ... .. . ... ...
ROW 53 : ... .. . ... ... ... : ... .. 0 ... ... ... : ... .. . ... : ... .. . ... : ... .. . ... ...
ROW 54 : ... .. . P80 ... ... : F#1 00 B P80 V02 ... : ... .. . ... : 4-# 00 F ... : D#0 00 . Z40 ...
ROW 55 : ... .. . P81 ... ... : ... .. . ... V00 ... : ... .. . ... : ... .. . ... : ... .. . ... ...
ROW 56 : ... .. . ... ... ... : ... .. . ... ... ... : ... .. . ... : ... .. 0 ... : ... .. . ... ...
ROW 57 : ... .. . ... ... ... : ... .. 7 ... ... ... : ... .. . ... : ... .. . ... : ... .. . ... ...
ROW 58 : ... .. . P80 ... ... : ... .. 6 ... ... ... : ... .. . ... : ... .. . ... : ... .. . ... ...
ROW 59 : ... .. . P7F ... ... : ... .. 5 ... ... ... : ... .. . ... : ... .. . ... : ... .. . ... ...
ROW 5A : ... .. . ... ... ... : ... .. 4 ... ... ... : ... .. . ... : ... .. . ... : ... .. . ... ...
ROW 5B : ... .. . P80 ... ... : ... .. . ... ... ... : ... .. . ... : ... .. . ... : ... .. . ... ...
ROW 5C : ... .. . P81 ... ... : ... .. . ... ... ... : ... .. . ... : ... .. . ... : ... .. . ... ...
ROW 5D : ... .. . ... ... ... : ... .. . ... ... ... : ... .. . ... : ... .. . ... : ... .. . ... ...
ROW 5E : ... .. . ... ... ... : ... .. . ... ... ... : ... .. . ... : ... .. . ... : ... .. . ... ...
ROW 5F : ... .. . P80 ... ... : A-1 00 B ... V02 ... : ... .. . ... : C-# 00 F ... : C#0 00 . Z40 ...
ROW 60 : ... .. . P7F ... ... : ... .. . ... V00 ... : ... .. . ... : ... .. . ... : ... .. . ... ...
ROW 61 : ... .. . ... ... ... : ... .. . ... ... ... : ... .. . ... : ... .. 0 ... : ... .. . ... ...
ROW 62 : ... .. . P80 ... ... : ... .. 7 ... ... ... : ... .. . ... : ... .. . ... : ... .. . ... ...
ROW 63 : ... .. . P81 ... ... : ... .. 6 ... ... ... : ... .. . ... : ... .. . ... : ... .. . ... ...
ROW 64 : ... .. . ... ... ... : ... .. 5 ... ... ... : ... .. . ... : ... .. . ... : ... .. . ... ...
ROW 65 : ... .. . ... ... ... : ... .. 4 ... ... ... : ... .. . ... : ... .. . ... : C#0 00 . Z40 ...
ROW 66 : ... .. . P80 ... ... : ... .. . ... ... ... : ... .. . ... : ... .. . ... : ... .. . ... ...
ROW 67 : ... .. . P7F ... ... : ... .. . ... ... ... : ... .. . ... : ... .. . ... : ... .. . ... ...
ROW 68 : ... .. . ... ... ... : ... .. . ... ... ... : ... .. . ... : ... .. . ... : ... .. . ... ...
ROW 69 : ... .. . ... ... ... : ... .. . ... ... ... : ... .. . ... : ... .. . ... : ... .. . ... ...
ROW 6A : ... .. . P80 ... ... : ... .. . ... ... ... : --- .. . ... : ... .. . ... : ... .. . ... ...
ROW 6B : B-3 00 F ... V00 ... : B-3 00 9 ... V02 ... : B-3 00 . ... : ... .. . ... : C#0 00 . Z40 ...
ROW 6C : ... .. . P81 V02 ... : ... .. B ... ... ... : ... .. . ... : ... .. . ... : ... .. . ... ...
ROW 6D : ... .. . ... ... ... : ... .. . ... ... ... : ... .. . ... : ... .. . ... : ... .. . ... ...
ROW 6E : ... .. . P80 ... ... : ... .. . ... ... ... : ... .. . ... : ... .. . ... : ... .. . ... ...
ROW 6F : ... .. . P7F ... ... : ... .. . ... ... ... : ... .. . ... : ... .. . ... : ... .. . ... ...
ROW 70 : ... .. . ... ... ... : ... .. . ... ... ... : ... .. . ... : ... .. . ... : ... .. . ... ...
ROW 71 : ... .. . ... ... ... : ... .. . ... ... ... : ... .. . ... : ... .. . ... : ... .. . ... ...
ROW 72 : ... .. . P81 ... ... : ... .. . ... ... ... : ... .. . ... : ... .. . ... : ... .. . ... ...
ROW 73 : ... .. . ... ... ... : ... .. . ... ... ... : ... .. . ... : ... .. . ... : ... .. . ... ...
ROW 74 : ... .. E ... ... ... : ... .. . ... ... ... : ... .. . ... : ... .. . ... : ... .. . ... ...
ROW 75 : ... .. D P80 ... ... : ... .. . ... ... ... : ... .. . ... : ... .. . ... : ... .. . ... ...
ROW 76 : ... .. C P7F ... ... : ... .. . P81 ... ... : ... .. . ... : ... .. . ... : ... .. . ... ...
ROW 77 : ... .. B ... ... ... : ... .. . ... ... ... : ... .. . ... : ... .. . ... : ... .. . ... ...
ROW 78 : ... .. 9 P80 ... ... : ... .. . ... ... ... : ... .. . ... : ... .. . ... : ... .. . ... ...
ROW 79 : ... .. 8 P81 ... ... : ... .. . P80 ... ... : ... .. . ... : ... .. . ... : ... .. . ... ...
ROW 7A : ... .. 7 ... ... ... : ... .. . P7F ... ... : ... .. . ... : ... .. . ... : ... .. . ... ...
ROW 7B : ... .. . ... ... ... : ... .. . ... ... ... : ... .. . ... : ... .. . ... : ... .. . ... ...
ROW 7C : ... .. . P80 ... ... : ... .. . ... ... ... : ... .. . ... : ... .. . ... : ... .. . ... ...
ROW 7D : ... .. . P7F ... ... : ... .. . P80 ... ... : ... .. . ... : ... .. . ... : ... .. . ... ...
ROW 7E : ... .. . ... ... ... : ... .. . P81 ... ... : ... .. . ... : ... .. . ... : ... .. . ... ...
ROW 7F : ... .. . P80 ... ... : ... .. . ... ... ... : ... .. . ... : ... .. . ... : ... .. . ... ...
ROW 80 : ... .. . P81 ... ... : ... .. . ... ... ... : ... .. . ... : ... .. . ... : ... .. . ... ...
ROW 81 : ... .. . ... ... ... : ... .. A P7F ... ... : ... .. . ... : ... .. . ... : ... .. . ... ...
ROW 82 : ... .. . P80 ... ... : ... .. . ... ... ... : ... .. . ... : ... .. F ... : ... .. . ... ...
ROW 83 : ... .. . P7F ... ... : ... .. 9 P80 ... ... : ... .. . ... : ... .. . ... : ... .. . ... ...
ROW 84 : ... .. . ... ... ... : ... .. . P81 ... ... : ... .. . ... : ... .. 0 ... : ... .. . ... ...
ROW 85 : ... .. . P80 ... ... : ... .. 8 ... ... ... : ... .. . ... : ... .. . ... : ... .. . ... ...
ROW 86 : ... .. . P81 ... ... : ... .. . ... ... ... : ... .. . ... : ... .. . ... : ... .. . ... ...
ROW 87 : ... .. . ... ... ... : ... .. . ... ... ... : ... .. . ... : ... .. . ... : ... .. . ... ...
ROW 88 : ... .. . ... ... ... : ... .. 7 P80 ... ... : ... .. . ... : ... .. . ... : ... .. . ... ...
ROW 89 : ... .. . P7F ... ... : ... .. . P7F ... ... : ... .. . ... : ... .. . ... : ... .. . ... ...
ROW 8A : ... .. . ... ... ... : ... .. 6 ... ... ... : ... .. . ... : ... .. . ... : ... .. . ... ...
ROW 8B : ... .. . ... ... ... : ... .. . P80 ... ... : ... .. . ... : ... .. . ... : ... .. . ... ...
ROW 8C : ... .. . P80 ... ... : ... .. . P81 ... ... : ... .. . ... : ... .. . ... : ... .. . ... ...
ROW 8D : ... .. . P81 ... ... : ... .. . ... ... ... : ... .. . ... : ... .. . ... : ... .. . ... ...
ROW 8E : ... .. . ... ... ... : ... .. . ... ... ... : ... .. . ... : ... .. . ... : ... .. . ... ...
ROW 8F : ... .. . P80 ... ... : ... .. . P80 ... ... : ... .. . ... : ... .. . ... : ... .. . ... ...
ROW 90 : ... .. . P7F ... ... : ... .. . P7F ... ... : ... .. . ... : ... .. . ... : ... .. . ... ...
ROW 91 : ... .. . ... ... ... : ... .. . ... ... ... : ... .. . ... : ... .. . ... : ... .. . ... ...
ROW 92 : ... .. . ... ... ... : ... .. . ... ... ... : ... .. . ... : ... .. . ... : ... .. . ... ...
ROW 93 : ... .. . P80 ... ... : ... .. . P80 ... ... : ... .. . ... : ... .. . ... : ... .. . ... ...
ROW 94 : ... .. . P81 ... ... : ... .. . P81 ... ... : ... .. . ... : ... .. . ... : ... .. . ... ...
ROW 95 : ... .. . ... ... ... : ... .. . ... ... ... : ... .. . ... : ... .. . ... : ... .. . ... ...
ROW 96 : ... .. . P80 ... ... : ... .. . ... ... ... : ... .. . ... : ... .. . ... : ... .. . ... ...
ROW 97 : ... .. . P7F ... ... : ... .. . P80 ... ... : ... .. . ... : ... .. . ... : ... .. . ... ...
ROW 98 : ... .. . ... ... ... : ... .. . P7F ... ... : ... .. . ... : ... .. . ... : ... .. . ... ...
ROW 99 : ... .. . ... ... ... : ... .. . ... ... ... : ... .. . ... : ... .. . ... : ... .. . ... ...
ROW 9A : ... .. . P80 ... ... : ... .. . ... ... ... : ... .. . ... : ... .. . ... : C-0 00 . Z40 ...
ROW 9B : ... .. . P81 ... ... : ... .. . P81 ... ... : ... .. . ... : ... .. . ... : ... .. . ... ...
ROW 9C : ... .. . ... ... ... : ... .. . ... ... ... : ... .. . ... : ... .. . ... : ... .. . ... ...
ROW 9D : ... .. . P80 ... ... : ... .. . ... ... ... : ... .. . ... : ... .. . ... : ... .. . ... ...
ROW 9E : ... .. . P7F ... ... : ... .. . ... ... ... : ... .. . ... : ... .. . ... : ... .. . ... ...
ROW 9F : ... .. . ... ... ... : ... .. . P80 ... ... : ... .. . ... : ... .. . ... : ... .. . ... ...
ROW A0 : ... .. . ... ... ... : ... .. . P7F ... ... : ... .. . ... : ... .. . ... : C-0 00 . Z40 ...
ROW A1 : ... .. . P81 ... ... : ... .. . ... ... ... : ... .. . ... : ... .. . ... : ... .. . ... ...
ROW A2 : ... .. . ... ... ... : ... .. . P80 ... ... : ... .. . ... : ... .. . ... : ... .. . ... ...
ROW A3 : ... .. . ... ... ... : ... .. . P81 ... ... : ... .. . ... : ... .. . ... : ... .. . ... ...
ROW A4 : ... .. . P7F ... ... : ... .. . ... ... ... : ... .. . ... : ... .. . ... : ... .. . ... ...
ROW A5 : F#3 00 F P80 V00 ... : ... .. . ... ... ... : ... .. . ... : ... .. . ... : ... .. . ... ...
ROW A6 : ... .. . P81 V02 ... : ... .. . P7F ... ... : ... .. . ... : ... .. . ... : ... .. . ... ...
ROW A7 : ... .. . ... ... ... : ... .. . ... ... ... : ... .. . ... : ... .. . ... : ... .. . ... ...
ROW A8 : ... .. . P80 ... ... : ... .. . ... ... ... : ... .. . ... : ... .. . ... : ... .. . ... ...
ROW A9 : ... .. . P7F ... ... : ... .. . P80 ... ... : ... .. . ... : ... .. . ... : ... .. . ... ...
ROW AA : ... .. . ... ... ... : ... .. . P81 ... ... : ... .. . ... : ... .. . ... : ... .. . ... ...
ROW AB : ... .. . ... ... ... : ... .. . ... ... ... : ... .. . ... : ... .. . ... : ... .. . ... ...
ROW AC : ... .. . P81 ... ... : ... .. . ... ... ... : ... .. . ... : ... .. . ... : ... .. . ... ...
ROW AD : ... .. . ... ... ... : ... .. . P80 ... ... : ... .. . ... : ... .. . ... : ... .. . ... ...
ROW AE : ... .. E ... ... ... : ... .. . P7F ... ... : ... .. . ... : ... .. . ... : ... .. . ... ...
ROW AF : ... .. D P80 ... ... : ... .. . ... ... ... : ... .. . ... : ... .. . ... : ... .. . ... ...
ROW B0 : ... .. C P7F ... ... : ... .. . ... ... ... : ... .. . ... : ... .. . ... : ... .. . ... ...
ROW B1 : B-3 00 F P80 V00 ... : ... .. . P80 ... ... : ... .. . ... : ... .. F ... : ... .. . ... ...
ROW B2 : ... .. . P81 V02 ... : ... .. . P81 ... ... : ... .. . ... : ... .. . ... : ... .. . ... ...
ROW B3 : ... .. . ... ... ... : ... .. . ... ... ... : ... .. . ... : ... .. 0 ... : ... .. . ... ...
ROW B4 : ... .. . P80 ... ... : ... .. . ... ... ... : ... .. . ... : ... .. . ... : ... .. . ... ...
ROW B5 : ... .. . P7F ... ... : ... .. . P80 ... ... : ... .. . ... : ... .. . ... : ... .. . ... ...
ROW B6 : ... .. . ... ... ... : ... .. . P7F ... ... : ... .. . ... : ... .. . ... : ... .. . ... ...
ROW B7 : ... .. . ... ... ... : ... .. . ... ... ... : ... .. . ... : ... .. . ... : ... .. . ... ...
ROW B8 : ... .. . P81 ... ... : ... .. . P80 ... ... : ... .. . ... : ... .. . ... : ... .. . ... ...
ROW B9 : ... .. . ... ... ... : ... .. . P81 ... ... : ... .. . ... : ... .. . ... : ... .. . ... ...
ROW BA : ... .. E ... ... ... : ... .. . ... ... ... : ... .. . ... : ... .. . ... : ... .. . ... ...
ROW BB : ... .. D P80 ... ... : ... .. . ... ... ... : ... .. . ... : ... .. . ... : ... .. . ... ...
ROW BC : ... .. C P7F ... ... : ... .. . ... ... ... : ... .. . ... : ... .. . ... : ... .. . ... ...
ROW BD : D-4 00 F P80 V00 ... : ... .. . P80 ... ... : ... .. . ... : ... .. . ... : ... .. . ... ...
ROW BE : ... .. . P81 V02 ... : ... .. . P7F ... ... : ... .. . ... : ... .. . ... : ... .. . ... ...
ROW BF : ... .. . ... ... ... : ... .. . ... ... ... : ... .. . ... : ... .. . ... : ... .. . ... ...
ROW C0 : ... .. . P80 ... ... : ... .. . P80 ... ... : ... .. . ... : ... .. . ... : ... .. . ... ...
ROW C1 : ... .. . P7F ... ... : ... .. . P81 ... ... : ... .. . ... : ... .. . ... : ... .. . ... ...
ROW C2 : ... .. . ... ... ... : ... .. . ... ... ... : ... .. . ... : ... .. . ... : ... .. . ... ...
ROW C3 : ... .. . ... ... ... : ... .. . ... ... ... : ... .. . ... : ... .. . ... : ... .. . ... ...
ROW C4 : ... .. . P81 ... ... : ... .. . P80 ... ... : ... .. . ... : ... .. . ... : ... .. . ... ...
ROW C5 : ... .. . ... ... ... : ... .. . P7F ... ... : ... .. . ... : ... .. . ... : ... .. . ... ...
ROW C6 : ... .. E ... ... ... : ... .. . ... ... ... : ... .. . ... : ... .. . ... : ... .. . ... ...
ROW C7 : ... .. C P7F ... ... : ... .. . P80 ... ... : ... .. . ... : ... .. . ... : ... .. . ... ...
ROW C8 : C#4 00 F P80 V00 ... : A-3 00 9 ... ... ... : C#4 00 . ... : ... .. . ... : C#0 00 . Z40 ...
ROW C9 : ... .. . P81 V02 ... : ... .. B ... ... ... : ... .. . ... : ... .. . ... : ... .. . ... ...
ROW CA : ... .. . ... ... ... : ... .. . ... ... ... : ... .. . ... : ... .. . ... : ... .. . ... ...
ROW CB : ... .. . P80 ... ... : ... .. . ... ... ... : ... .. . ... : ... .. . ... : ... .. . ... ...
ROW CC : ... .. . P7F ... ... : ... .. . ... ... ... : ... .. . ... : ... .. . ... : ... .. . ... ...
ROW CD : ... .. 0 ... ... ... : ... .. . ... ... ... : ... .. . ... : ... .. . ... : ... .. . ... ...
ROW CE : ... .. . ... ... ... : ... .. . ... ... ... : ... .. . ... : ... .. . ... : ... .. . ... ...
ROW CF : ... .. . ... ... ... : ... .. . ... ... ... : ... .. . ... : ... .. . ... : ... .. . ... ...
ROW D0 : ... .. . ... ... ... : ... .. . ... ... ... : ... .. . ... : ... .. . ... : ... .. . ... ...
ROW D1 : ... .. . ... ... ... : ... .. . ... ... ... : ... .. . ... : ... .. . ... : ... .. . ... ...
ROW D2 : ... .. . ... ... ... : ... .. . ... ... ... : ... .. . ... : ... .. . ... : ... .. . ... ...
ROW D3 : ... .. . ... ... ... : ... .. . P81 ... ... : ... .. . ... : ... .. . ... : ... .. . ... ...
ROW D4 : ... .. . ... ... ... : ... .. . ... ... ... : ... .. . ... : ... .. . ... : ... .. . ... ...
ROW D5 : ... .. . ... ... ... : ... .. . ... ... ... : ... .. . ... : ... .. . ... : ... .. . ... ...
ROW D6 : ... .. . ... ... ... : ... .. . P80 ... ... : ... .. . ... : ... .. . ... : ... .. . ... ...
ROW D7 : ... .. . ... ... ... : ... .. . P7F ... ... : ... .. . ... : ... .. . ... : ... .. . ... ...
ROW D8 : ... .. . ... ... ... : ... .. . ... ... ... : ... .. . ... : ... .. . ... : ... .. . ... ...
ROW D9 : ... .. . ... ... ... : ... .. . ... ... ... : ... .. . ... : ... .. . ... : ... .. . ... ...
ROW DA : A-3 00 F P80 V00 ... : ... .. . P80 ... ... : ... .. . ... : ... .. . ... : ... .. . ... ...
ROW DB : ... .. . P81 V02 ... : ... .. . P81 ... ... : ... .. . ... : ... .. . ... : ... .. . ... ...
ROW DC : ... .. . ... ... ... : ... .. . ... ... ... : ... .. . ... : ... .. . ... : ... .. . ... ...
ROW DD : ... .. . P80 ... ... : ... .. . ... ... ... : ... .. . ... : ... .. . ... : ... .. . ... ...
ROW DE : ... .. . P7F ... ... : ... .. A P80 ... ... : ... .. . ... : ... .. . ... : ... .. . ... ...
ROW DF : ... .. . ... ... ... : ... .. . P7F ... ... : ... .. . ... : ... .. . ... : ... .. . ... ...
ROW E0 : E-3 00 F P80 V00 ... : ... .. . ... ... ... : ... .. . ... : ... .. F ... : ... .. . ... ...
ROW E1 : ... .. . P81 V02 ... : ... .. 9 P80 ... ... : ... .. . ... : ... .. . ... : ... .. . ... ...
ROW E2 : ... .. . ... ... ... : ... .. . P81 ... ... : ... .. . ... : ... .. 0 ... : ... .. . ... ...
ROW E3 : ... .. . P80 ... ... : ... .. 8 ... ... ... : ... .. . ... : ... .. . ... : ... .. . ... ...
ROW E4 : ... .. . P7F ... ... : ... .. . ... ... ... : ... .. . ... : ... .. . ... : ... .. . ... ...
ROW E5 : ... .. . ... ... ... : ... .. . ... ... ... : ... .. . ... : ... .. . ... : ... .. . ... ...
ROW E6 : ... .. . ... ... ... : ... .. 7 P80 ... ... : ... .. . ... : ... .. . ... : ... .. . ... ...
ROW E7 : ... .. . P81 ... ... : ... .. . P7F ... ... : ... .. . ... : ... .. . ... : ... .. . ... ...
ROW E8 : ... .. . ... ... ... : ... .. 6 ... ... ... : ... .. . ... : ... .. . ... : ... .. . ... ...
ROW E9 : ... .. E ... ... ... : ... .. . P80 ... ... : ... .. . ... : ... .. . ... : ... .. . ... ...
ROW EA : ... .. C P7F ... ... : ... .. . P81 ... ... : ... .. . ... : ... .. . ... : ... .. . ... ...
ROW EB : ... .. B ... ... ... : E-3 00 9 P80 ... ... : ... .. . ... : ... .. . ... : ... .. . ... ...
ROW EC : ... .. 9 P80 ... ... : ... .. B ... ... ... : ... .. . ... : ... .. . ... : ... .. . ... ...
ROW ED : ... .. 8 P81 ... ... : ... .. . ... ... ... : ... .. . ... : ... .. . ... : ... .. . ... ...
ROW EE : ... .. 7 ... ... ... : ... .. . ... ... ... : ... .. . ... : ... .. . ... : ... .. . ... ...
ROW EF : ... .. . ... ... ... : ... .. . ... ... ... : ... .. . ... : ... .. . ... : ... .. . ... ...
ROW F0 : ... .. . P80 ... ... : ... .. . ... ... ... : ... .. . ... : ... .. . ... : ... .. . ... ...
ROW F1 : ... .. . P7F ... ... : ... .. . ... ... ... : ... .. . ... : ... .. . ... : ... .. . ... ...
ROW F2 : ... .. . ... ... ... : ... .. . ... ... ... : ... .. . ... : ... .. . ... : ... .. . ... ...
ROW F3 : ... .. . P80 ... ... : ... .. . ... ... ... : ... .. . ... : ... .. . ... : ... .. . ... ...
ROW F4 : ... .. . P81 ... ... : ... .. . ... ... ... : ... .. . ... : ... .. . ... : ... .. . ... ...
ROW F5 : ... .. . ... ... ... : ... .. . ... ... ... : ... .. . ... : ... .. . ... : ... .. . ... ...
ROW F6 : ... .. . ... ... ... : ... .. . P81 ... ... : ... .. . ... : ... .. . ... : ... .. . ... ...
ROW F7 : ... .. . P80 ... ... : ... .. . ... ... ... : ... .. . ... : ... .. . ... : D#0 00 . Z40 ...
ROW F8 : ... .. . P7F ... ... : ... .. . ... ... ... : ... .. . ... : ... .. . ... : ... .. . ... ...
ROW F9 : ... .. . ... ... ... : ... .. . P80 ... ... : ... .. . ... : ... .. . ... : ... .. . ... ...
ROW FA : ... .. . P80 ... ... : ... .. . P7F ... ... : ... .. . ... : ... .. . ... : ... .. . ... ...
ROW FB : ... .. . P81 ... ... : ... .. . ... ... ... : ... .. . ... : ... .. . ... : ... .. . ... ...
ROW FC : ... .. . ... ... ... : ... .. . ... ... ... : ... .. . ... : ... .. . ... : ... .. . ... ...
ROW FD : ... .. . ... ... ... : ... .. . P80 ... ... : ... .. . ... : ... .. . ... : ... .. . ... ...
ROW FE : ... .. . P7F ... ... : ... .. . P81 ... ... : ... .. . ... : ... .. . ... : ... .. . ... ...
ROW FF : ... .. . ... ... ... : ... .. . ... ... ... : ... .. . ... : ... .. . ... : ... .. . ... ...

PATTERN 15
ROW 00 : ... .. . ... ... ... : ... .. . ... ... ... : ... .. . ... : ... .. . ... : ... .. . ... ...
ROW 01 : ... .. . P80 ... ... : ... .. A P80 ... ... : ... .. . ... : ... .. . ... : ... .. . ... ...
ROW 02 : ... .. . P81 ... ... : ... .. . P7F ... ... : ... .. . ... : ... .. . ... : ... .. . ... ...
ROW 03 : ... .. . ... ... ... : ... .. . ... ... ... : ... .. . ... : ... .. . ... : ... .. . ... ...
ROW 04 : ... .. . P80 ... ... : ... .. 9 P80 ... ... : ... .. . ... : ... .. . ... : ... .. . ... ...
ROW 05 : ... .. . P7F ... ... : ... .. . P81 ... ... : ... .. . ... : ... .. . ... : ... .. . ... ...
ROW 06 : ... .. . ... ... ... : ... .. 8 ... ... ... : ... .. . ... : ... .. . ... : ... .. . ... ...
ROW 07 : ... .. . ... ... ... : ... .. . ... ... ... : ... .. . ... : ... .. . ... : ... .. . ... ...
ROW 08 : ... .. . P80 ... ... : ... .. . ... ... ... : ... .. . ... : ... .. . ... : ... .. . ... ...
ROW 09 : ... .. . P81 ... ... : ... .. 7 P80 ... ... : ... .. . ... : ... .. . ... : ... .. . ... ...
ROW 0A : ... .. . ... ... ... : ... .. . P7F ... ... : ... .. . ... : ... .. . ... : ... .. . ... ...
ROW 0B : ... .. . P80 ... ... : ... .. 6 ... ... ... : ... .. . ... : ... .. . ... : ... .. . ... ...
ROW 0C : ... .. . P7F ... ... : ... .. . P80 ... ... : ... .. . ... : ... .. . ... : ... .. . ... ...
ROW 0D : ... .. . ... ... ... : ... .. . P81 ... ... : ... .. . ... : ... .. . ... : ... .. . ... ...
ROW 0E : ... .. . P80 ... ... : C#3 00 9 P80 ... ... : ... .. . ... : ... .. F ... : ... .. . ... ...
ROW 0F : ... .. . P81 ... ... : ... .. B ... ... ... : ... .. . ... : ... .. . ... : ... .. . ... ...
ROW 10 : ... .. . ... ... ... : ... .. . ... ... ... : ... .. . ... : ... .. 0 ... : ... .. . ... ...
ROW 11 : ... .. . P80 ... ... : ... .. . ... ... ... : ... .. . ... : ... .. . ... : ... .. . ... ...
ROW 12 : ... .. . P7F ... ... : ... .. . ... ... ... : ... .. . ... : ... .. . ... : ... .. . ... ...
ROW 13 : ... .. . ... ... ... : ... .. . ... ... ... : ... .. . ... : ... .. . ... : ... .. . ... ...
ROW 14 : ... .. . ... ... ... : ... .. . ... ... ... : ... .. . ... : ... .. . ... : ... .. . ... ...
ROW 15 : ... .. . P81 ... ... : ... .. . ... ... ... : ... .. . ... : ... .. . ... : ... .. . ... ...
ROW 16 : ... .. . ... ... ... : ... .. . ... ... ... : ... .. . ... : ... .. . ... : ... .. . ... ...
ROW 17 : ... .. . ... ... ... : ... .. . ... ... ... : ... .. . ... : ... .. . ... : ... .. . ... ...
ROW 18 : ... .. . P80 ... ... : ... .. . ... ... ... : ... .. . ... : ... .. . ... : ... .. . ... ...
ROW 19 : ... .. . P7F ... ... : ... .. . P81 ... ... : ... .. . ... : ... .. . ... : ... .. . ... ...
ROW 1A : B-3 00 F P80 V00 ... : ... .. . ... ... ... : ... .. . ... : ... .. . ... : D#0 00 . Z40 ...
ROW 1B : ... .. . P81 V02 ... : ... .. . ... ... ... : ... .. . ... : ... .. . ... : ... .. . ... ...
ROW 1C : ... .. . ... ... ... : ... .. . P80 ... ... : ... .. . ... : ... .. . ... : ... .. . ... ...
ROW 1D : ... .. . P80 ... ... : ... .. . P7F ... ... : ... .. . ... : ... .. . ... : ... .. . ... ...
ROW 1E : ... .. . P7F ... ... : ... .. . ... ... ... : ... .. . ... : ... .. . ... : ... .. . ... ...
ROW 1F : ... .. . ... ... ... : ... .. . ... ... ... : ... .. . ... : ... .. . ... : ... .. . ... ...
ROW 20 : C#4 00 F P80 V00 ... : ... .. . P80 ... ... : ... .. . ... : ... .. . ... : D#0 00 . Z40 ...
ROW 21 : ... .. . P81 V02 ... : ... .. . P81 ... ... : ... .. . ... : ... .. . ... : ... .. . ... ...
ROW 22 : ... .. . ... ... ... : ... .. . ... ... ... : ... .. . ... : ... .. . ... : ... .. . ... ...
ROW 23 : ... .. . P80 ... ... : ... .. . ... ... ... : ... .. . ... : ... .. . ... : ... .. . ... ...
ROW 24 : ... .. . P7F ... ... : ... .. A P80 ... ... : ... .. . ... : ... .. . ... : ... .. . ... ...
ROW 25 : ... .. . ... ... ... : ... .. . P7F ... ... : ... .. . ... : ... .. . ... : ... .. . ... ...
ROW 26 : D-4 00 F P80 V00 ... : B-2 00 9 P80 ... ... : D-4 00 . ... : ... .. . ... : C#0 00 . Z40 ...
ROW 27 : ... .. . P81 V02 ... : ... .. B ... ... ... : ... .. . ... : ... .. . ... : ... .. . ... ...
ROW 28 : ... .. . ... ... ... : ... .. . ... ... ... : ... .. . ... : ... .. . ... : ... .. . ... ...
ROW 29 : ... .. . P80 ... ... : ... .. . ... ... ... : ... .. . ... : ... .. . ... : ... .. . ... ...
ROW 2A : ... .. . P7F ... ... : ... .. . ... ... ... : ... .. . ... : ... .. . ... : ... .. . ... ...
ROW 2B : ... .. . ... ... ... : ... .. . ... ... ... : ... .. . ... : ... .. . ... : ... .. . ... ...
ROW 2C : ... .. . ... ... ... : ... .. . ... ... ... : ... .. . ... : ... .. . ... : ... .. . ... ...
ROW 2D : ... .. . P81 ... ... : ... .. . ... ... ... : ... .. . ... : ... .. . ... : ... .. . ... ...
ROW 2E : ... .. . ... ... ... : ... .. . ... ... ... : ... .. . ... : ... .. . ... : ... .. . ... ...
ROW 2F : ... .. E ... ... ... : ... .. . ... ... ... : ... .. . ... : ... .. . ... : ... .. . ... ...
ROW 30 : ... .. C P7F ... ... : ... .. . P81 ... ... : ... .. . ... : ... .. . ... : ... .. . ... ...
ROW 31 : ... .. B ... ... ... : ... .. . ... ... ... : ... .. . ... : ... .. . ... : ... .. . ... ...
ROW 32 : ... .. 9 P80 ... ... : ... .. . ... ... ... : ... .. . ... : ... .. . ... : ... .. . ... ...
ROW 33 : ... .. 8 P81 ... ... : ... .. . P80 ... ... : ... .. . ... : ... .. . ... : ... .. . ... ...
ROW 34 : ... .. 7 ... ... ... : ... .. . P7F ... ... : ... .. . ... : ... .. . ... : ... .. . ... ...
ROW 35 : ... .. . ... ... ... : ... .. . ... ... ... : ... .. . ... : ... .. . ... : ... .. . ... ...
ROW 36 : ... .. . P80 ... ... : ... .. . ... ... ... : ... .. . ... : ... .. . ... : ... .. . ... ...
ROW 37 : ... .. . P7F ... ... : ... .. . P80 ... ... : ... .. . ... : ... .. . ... : ... .. . ... ...
ROW 38 : ... .. . ... ... ... : ... .. . P81 ... ... : ... .. . ... : ... .. . ... : ... .. . ... ...
ROW 39 : ... .. . P80 ... ... : ... .. . ... ... ... : ... .. . ... : ... .. . ... : ... .. . ... ...
ROW 3A : ... .. . P81 ... ... : ... .. . ... ... ... : ... .. . ... : ... .. . ... : ... .. . ... ...
ROW 3B : ... .. . ... ... ... : ... .. A P80 ... ... : ... .. . ... : ... .. . ... : ... .. . ... ...
ROW 3C : ... .. . ... ... ... : ... .. . P7F ... ... : ... .. . ... : ... .. . ... : ... .. . ... ...
ROW 3D : ... .. . P80 ... ... : ... .. . ... ... ... : ... .. . ... : ... .. F ... : ... .. . ... ...
ROW 3E : ... .. . P7F ... ... : ... .. 9 P80 ... ... : ... .. . ... : ... .. . ... : ... .. . ... ...
ROW 3F : ... .. . ... ... ... : ... .. . P81 ... ... : ... .. . ... : ... .. 0 ... : ... .. . ... ...
ROW 40 : ... .. . P80 ... ... : ... .. 8 ... ... ... : ... .. . ... : ... .. . ... : ... .. . ... ...
ROW 41 : ... .. . P81 ... ... : ... .. . ... ... ... : ... .. . ... : ... .. . ... : ... .. . ... ...
ROW 42 : ... .. . ... ... ... : ... .. . ... ... ... : ... .. . ... : ... .. . ... : ... .. . ... ...
ROW 43 : ... .. . ... ... ... : ... .. 7 P80 ... ... : ... .. . ... : ... .. . ... : ... .. . ... ...
ROW 44 : ... .. . P7F ... ... : ... .. . P7F ... ... : ... .. . ... : ... .. . ... : ... .. . ... ...
ROW 45 : ... .. . ... ... ... : ... .. 6 ... ... ... : ... .. . ... : ... .. . ... : ... .. . ... ...
ROW 46 : ... .. . ... ... ... : ... .. . P80 ... ... : ... .. . ... : ... .. . ... : ... .. . ... ...
ROW 47 : ... .. . P80 ... ... : ... .. . P81 ... ... : ... .. . ... : ... .. . ... : ... .. . ... ...
ROW 48 : ... .. . P81 ... ... : ... .. . ... ... ... : ... .. . ... : ... .. . ... : ... .. . ... ...
ROW 49 : ... .. . ... ... ... : ... .. . ... ... ... : ... .. . ... : ... .. . ... : ... .. . ... ...
ROW 4A : ... .. . P80 ... ... : ... .. . P80 ... ... : ... .. . ... : ... .. . ... : ... .. . ... ...
ROW 4B : ... .. . P7F ... ... : ... .. . P7F ... ... : ... .. . ... : ... .. . ... : ... .. . ... ...
ROW 4C : ... .. . ... ... ... : ... .. . ... ... ... : ... .. . ... : ... .. . ... : ... .. . ... ...
ROW 4D : ... .. . ... ... ... : ... .. . ... ... ... : ... .. . ... : ... .. . ... : ... .. . ... ...
ROW 4E : ... .. . P80 ... ... : ... .. . P80 ... ... : ... .. . ... : ... .. . ... : ... .. . ... ...
ROW 4F : ... .. . P81 ... ... : ... .. . P81 ... ... : ... .. . ... : ... .. . ... : ... .. . ... ...
ROW 50 : ... .. . ... ... ... : ... .. . ... ... ... : ... .. . ... : ... .. . ... : ... .. . ... ...
ROW 51 : ... .. . P80 ... ... : ... .. . ... ... ... : ... .. . ... : ... .. . ... : ... .. . ... ...
ROW 52 : ... .. . P7F ... ... : ... .. . P80 ... ... : ... .. . ... : ... .. . ... : ... .. . ... ...
ROW 53 : ... .. . ... ... ... : ... .. . P7F ... ... : ... .. . ... : ... .. . ... : ... .. . ... ...
ROW 54 : ... .. . P80 ... ... : ... .. . ... ... ... : ... .. . ... : ... .. . ... : C-0 00 . Z40 ...
ROW 55 : ... .. . P81 ... ... : ... .. . P81 ... ... : ... .. . ... : ... .. . ... : ... .. . ... ...
ROW 56 : ... .. . ... ... ... : ... .. . ... ... ... : ... .. . ... : ... .. . ... : ... .. . ... ...
ROW 57 : ... .. . P80 ... ... : ... .. . ... ... ... : ... .. . ... : ... .. . ... : ... .. . ... ...
ROW 58 : ... .. . P7F ... ... : ... .. . ... ... ... : ... .. . ... : ... .. . ... : ... .. . ... ...
ROW 59 : ... .. . ... ... ... : ... .. . P80 ... ... : ... .. . ... : ... .. . ... : ... .. . ... ...
ROW 5A : ... .. . ... ... ... : ... .. . P7F ... ... : ... .. . ... : ... .. . ... : C-0 00 . Z40 ...
ROW 5B : ... .. . P81 ... ... : ... .. . ... ... ... : ... .. . ... : ... .. . ... : ... .. . ... ...
ROW 5C : ... .. . ... ... ... : ... .. . P80 ... ... : ... .. . ... : ... .. . ... : ... .. . ... ...
ROW 5D : ... .. . ... ... ... : ... .. . P81 ... ... : ... .. . ... : ... .. . ... : ... .. . ... ...
ROW 5E : ... .. . P80 ... ... : ... .. . ... ... ... : ... .. . ... : ... .. . ... : ... .. . ... ...
ROW 5F : ... .. . P7F ... ... : ... .. . ... ... ... : ... .. . ... : ... .. . ... : ... .. . ... ...
ROW 60 : B-3 00 F P80 V00 ... : ... .. . ... ... ... : ... .. . ... : ... .. . ... : ... .. . ... ...
ROW 61 : ... .. . P81 V02 ... : ... .. . P7F ... ... : ... .. . ... : ... .. . ... : ... .. . ... ...
ROW 62 : ... .. . ... ... ... : ... .. . ... ... ... : ... .. . ... : ... .. . ... : ... .. . ... ...
ROW 63 : ... .. . P80 ... ... : ... .. . ... ... ... : ... .. . ... : ... .. . ... : ... .. . ... ...
ROW 64 : ... .. . P7F ... ... : ... .. . P80 ... ... : ... .. . ... : ... .. . ... : ... .. . ... ...
ROW 65 : ... .. . ... ... ... : ... .. . P81 ... ... : ... .. . ... : ... .. . ... : ... .. . ... ...
ROW 66 : ... .. . ... ... ... : ... .. . ... ... ... : ... .. . ... : ... .. . ... : ... .. . ... ...
ROW 67 : ... .. . P81 ... ... : ... .. . ... ... ... : ... .. . ... : ... .. . ... : ... .. . ... ...
ROW 68 : ... .. . ... ... ... : ... .. . P80 ... ... : ... .. . ... : ... .. . ... : ... .. . ... ...
ROW 69 : ... .. E ... ... ... : ... .. . P7F ... ... : ... .. . ... : ... .. . ... : ... .. . ... ...
ROW 6A : ... .. D P80 ... ... : ... .. . ... ... ... : ... .. . ... : ... .. . ... : ... .. . ... ...
ROW 6B : ... .. C P7F ... ... : ... .. . ... ... ... : ... .. . ... : ... .. . ... : ... .. . ... ...
ROW 6C : D-4 00 F P80 V00 ... : ... .. . P80 ... ... : ... .. . ... : ... .. F ... : ... .. . ... ...
ROW 6D : ... .. . P81 V02 ... : ... .. . P81 ... ... : ... .. . ... : ... .. . ... : ... .. . ... ...
ROW 6E : ... .. . ... ... ... : ... .. . ... ... ... : ... .. . ... : ... .. 0 ... : ... .. . ... ...
ROW 6F : ... .. . P80 ... ... : ... .. . ... ... ... : ... .. . ... : ... .. . ... : ... .. . ... ...
ROW 70 : ... .. . P7F ... ... : ... .. . P80 ... ... : ... .. . ... : ... .. . ... : ... .. . ... ...
ROW 71 : ... .. . ... ... ... : ... .. . P7F ... ... : ... .. . ... : ... .. . ... : ... .. . ... ...
ROW 72 : ... .. . ... ... ... : ... .. . ... ... ... : ... .. . ... : ... .. . ... : ... .. . ... ...
ROW 73 : ... .. . P81 ... ... : ... .. . P80 ... ... : ... .. . ... : ... .. . ... : ... .. . ... ...
ROW 74 : ... .. . ... ... ... : ... .. . P81 ... ... : ... .. . ... : ... .. . ... : ... .. . ... ...
ROW 75 : ... .. E ... ... ... : ... .. . ... ... ... : ... .. . ... : ... .. . ... : ... .. . ... ...
ROW 76 : ... .. C P7F ... ... : ... .. . ... ... ... : ... .. . ... : ... .. . ... : ... .. . ... ...
ROW 77 : F#4 00 F P80 V00 ... : ... .. . P80 ... ... : ... .. . ... : ... .. . ... : ... .. . ... ...
ROW 78 : ... .. . P81 V02 ... : ... .. . P7F ... ... : ... .. . ... : ... .. . ... : ... .. . ... ...
ROW 79 : ... .. . ... ... ... : ... .. . ... ... ... : ... .. . ... : ... .. . ... : ... .. . ... ...
ROW 7A : ... .. . P80 ... ... : ... .. . P80 ... ... : ... .. . ... : ... .. . ... : ... .. . ... ...
ROW 7B : ... .. . P7F ... ... : ... .. . P81 ... ... : ... .. . ... : ... .. . ... : ... .. . ... ...
ROW 7C : ... .. . ... ... ... : ... .. . ... ... ... : ... .. . ... : ... .. . ... : ... .. . ... ...
ROW 7D : ... .. . ... ... ... : ... .. . ... ... ... : ... .. . ... : ... .. . ... : ... .. . ... ...
ROW 7E : ... .. . P81 ... ... : ... .. . P80 ... ... : ... .. . ... : ... .. . ... : ... .. . ... ...
ROW 7F : ... .. . ... ... ... : ... .. . P7F ... ... : ... .. . ... : ... .. . ... : ... .. . ... ...
ROW 80 : ... .. E ... ... ... : ... .. . ... ... ... : ... .. . ... : ... .. . ... : ... .. . ... ...
ROW 81 : ... .. D P80 ... ... : ... .. . ... ... ... : ... .. . ... : ... .. . ... : ... .. . ... ...
ROW 82 : ... .. C P7F ... ... : ... .. . P80 ... ... : ... .. . ... : ... .. . ... : ... .. . ... ...
ROW 83 : A-4 00 F P80 V00 ... : ... .. . P81 ... ... : E-4 00 . ... : ... .. . ... : D-0 00 . Z40 ...
ROW 84 : ... .. . P81 V02 ... : A-3 00 A P80 ... ... : ... .. . ... : ... .. . ... : ... .. . ... ...
ROW 85 : ... .. . ... ... ... : ... .. B ... ... ... : ... .. . ... : ... .. . ... : ... .. . ... ...
ROW 86 : ... .. . P80 ... ... : ... .. . ... ... ... : ... .. . ... : ... .. . ... : ... .. . ... ...
ROW 87 : ... .. . P7F ... ... : ... .. . ... ... ... : ... .. . ... : ... .. . ... : ... .. . ... ...
ROW 88 : ... .. 0 ... ... ... : ... .. . ... ... ... : ... .. . ... : ... .. . ... : ... .. . ... ...
ROW 89 : ... .. . ... ... ... : ... .. . ... ... ... : ... .. . ... : ... .. . ... : ... .. . ... ...
ROW 8A : ... .. . ... ... ... : ... .. . ... ... ... : ... .. . ... : ... .. . ... : ... .. . ... ...
ROW 8B : ... .. . ... ... ... : ... .. . ... ... ... : ... .. . ... : ... .. . ... : ... .. . ... ...
ROW 8C : ... .. . ... ... ... : ... .. . ... ... ... : ... .. . ... : ... .. . ... : ... .. . ... ...
ROW 8D : ... .. . ... ... ... : ... .. . ... ... ... : ... .. . ... : ... .. . ... : ... .. . ... ...
ROW 8E : ... .. . ... ... ... : ... .. . ... ... ... : ... .. . ... : ... .. . ... : ... .. . ... ...
ROW 8F : ... .. . ... ... ... : ... .. . P81 ... ... : ... .. . ... : ... .. . ... : ... .. . ... ...
ROW 90 : ... .. . ... ... ... : ... .. . ... ... ... : ... .. . ... : ... .. . ... : ... .. . ... ...
ROW 91 : ... .. . ... ... ... : ... .. . ... ... ... : ... .. . ... : ... .. . ... : ... .. . ... ...
ROW 92 : ... .. . ... ... ... : ... .. . P80 ... ... : ... .. . ... : ... .. . ... : ... .. . ... ...
ROW 93 : ... .. . ... ... ... : ... .. . P7F ... ... : ... .. . ... : ... .. . ... : ... .. . ... ...
ROW 94 : ... .. . ... ... ... : ... .. . ... ... ... : ... .. . ... : ... .. . ... : ... .. . ... ...
ROW 95 : E-4 00 F P80 V00 ... : ... .. . ... ... ... : ... .. . ... : ... .. . ... : C#0 00 . Z40 ...
ROW 96 : ... .. . P81 V02 ... : ... .. . P81 ... ... : ... .. . ... : ... .. . ... : ... .. . ... ...
ROW 97 : ... .. . ... ... ... : ... .. . ... ... ... : ... .. . ... : ... .. . ... : ... .. . ... ...
ROW 98 : ... .. . P80 ... ... : ... .. . ... ... ... : ... .. . ... : ... .. . ... : ... .. . ... ...
ROW 99 : ... .. 0 P7F ... ... : ... .. A P80 ... ... : ... .. . ... : ... .. . ... : ... .. . ... ...
ROW 9A : C#4 00 F P80 V00 ... : ... .. . P7F ... ... : ... .. . ... : ... .. F ... : C#0 00 . Z40 ...
ROW 9B : ... .. . P81 V02 ... : ... .. 9 ... ... ... : ... .. . ... : ... .. . ... : ... .. . ... ...
ROW 9C : ... .. . ... ... ... : ... .. . P80 ... ... : ... .. . ... : ... .. 0 ... : ... .. . ... ...
ROW 9D : ... .. . P80 ... ... : ... .. . P81 ... ... : ... .. . ... : ... .. . ... : ... .. . ... ...
ROW 9E : ... .. . P7F ... ... : ... .. 8 ... ... ... : ... .. . ... : ... .. . ... : ... .. . ... ...
ROW 9F : ... .. . ... ... ... : ... .. . ... ... ... : ... .. . ... : ... .. . ... : ... .. . ... ...
ROW A0 : ... .. . ... ... ... : ... .. . ... ... ... : ... .. . ... : ... .. . ... : ... .. . ... ...
ROW A1 : ... .. . P81 ... ... : ... .. 7 P7F ... ... : ... .. . ... : ... .. . ... : ... .. . ... ...
ROW A2 : ... .. . ... ... ... : ... .. . ... ... ... : ... .. . ... : ... .. . ... : ... .. . ... ...
ROW A3 : ... .. E ... ... ... : ... .. 6 ... ... ... : ... .. . ... : ... .. . ... : ... .. . ... ...
ROW A4 : ... .. D P80 ... ... : ... .. . P80 ... ... : ... .. . ... : ... .. . ... : ... .. . ... ...
ROW A5 : ... .. C P7F ... ... : ... .. . P81 ... ... : ... .. . ... : ... .. . ... : ... .. . ... ...
ROW A6 : ... .. B ... ... ... : E-3 00 9 P80 ... ... : ... .. . ... : ... .. . ... : ... .. . ... ...
ROW A7 : ... .. 9 P80 ... ... : ... .. B ... ... ... : ... .. . ... : ... .. . ... : ... .. . ... ...
ROW A8 : ... .. 8 P81 ... ... : ... .. . ... ... ... : ... .. . ... : ... .. . ... : ... .. . ... ...
ROW A9 : ... .. 7 ... ... ... : ... .. . ... ... ... : ... .. . ... : ... .. . ... : ... .. . ... ...
ROW AA : ... .. . ... ... ... : ... .. . ... ... ... : ... .. . ... : ... .. . ... : ... .. . ... ...
ROW AB : ... .. . P80 ... ... : ... .. . ... ... ... : ... .. . ... : ... .. . ... : ... .. . ... ...
ROW AC : ... .. . P7F ... ... : ... .. . ... ... ... : ... .. . ... : ... .. . ... : ... .. . ... ...
ROW AD : ... .. . ... ... ... : ... .. . ... ... ... : ... .. . ... : ... .. . ... : ... .. . ... ...
ROW AE : ... .. . P80 ... ... : ... .. . ... ... ... : ... .. . ... : ... .. . ... : ... .. . ... ...
ROW AF : ... .. . P81 ... ... : ... .. . ... ... ... : ... .. . ... : ... .. . ... : ... .. . ... ...
ROW B0 : ... .. . ... ... ... : ... .. . ... ... ... : ... .. . ... : ... .. . ... : ... .. . ... ...
ROW B1 : ... .. . ... ... ... : ... .. . P81 ... ... : ... .. . ... : ... .. . ... : ... .. . ... ...
ROW B2 : ... .. . P80 ... ... : ... .. . ... ... ... : ... .. . ... : ... .. . ... : ... .. . ... ...
ROW B3 : ... .. . P7F ... ... : ... .. . ... ... ... : ... .. . ... : ... .. . ... : ... .. . ... ...
ROW B4 : ... .. . ... ... ... : ... .. . P80 ... ... : ... .. . ... : ... .. . ... : ... .. . ... ...
ROW B5 : ... .. . P80 ... ... : ... .. . P7F ... ... : ... .. . ... : ... .. . ... : ... .. . ... ...
ROW B6 : ... .. . P81 ... ... : ... .. . ... ... ... : ... .. . ... : ... .. . ... : ... .. . ... ...
ROW B7 : ... .. . ... ... ... : ... .. . ... ... ... : ... .. . ... : ... .. . ... : ... .. . ... ...
ROW B8 : ... .. . ... ... ... : ... .. . P80 ... ... : ... .. . ... : ... .. . ... : ... .. . ... ...
ROW B9 : ... .. . P7F ... ... : ... .. . P81 ... ... : ... .. . ... : ... .. . ... : ... .. . ... ...
ROW BA : ... .. . ... ... ... : ... .. . ... ... ... : ... .. . ... : ... .. . ... : ... .. . ... ...
ROW BB : ... .. . ... ... ... : ... .. . ... ... ... : ... .. . ... : ... .. . ... : ... .. . ... ...
ROW BC : ... .. . P81 ... ... : ... .. A P7F ... ... : ... .. . ... : ... .. . ... : ... .. . ... ...
ROW BD : ... .. . ... ... ... : ... .. . ... ... ... : ... .. . ... : ... .. . ... : ... .. . ... ...
ROW BE : ... .. . P80 ... ... : ... .. 9 P80 ... ... : ... .. . ... : ... .. . ... : ... .. . ... ...
ROW BF : ... .. . P7F ... ... : ... .. . P81 ... ... : ... .. . ... : ... .. . ... : ... .. . ... ...
ROW C0 : ... .. . ... ... ... : ... .. 8 ... ... ... : ... .. . ... : ... .. . ... : ... .. . ... ...
ROW C1 : ... .. . ... ... ... : ... .. . ... ... ... : ... .. . ... : ... .. . ... : ... .. . ... ...
ROW C2 : ... .. . P80 ... ... : ... .. . ... ... ... : ... .. . ... : ... .. . ... : ... .. . ... ...
ROW C3 : ... .. . P81 ... ... : ... .. 7 P80 ... ... : ... .. . ... : ... .. . ... : ... .. . ... ...
ROW C4 : ... .. . ... ... ... : ... .. . P7F ... ... : ... .. . ... : ... .. . ... : ... .. . ... ...
ROW C5 : ... .. . P80 ... ... : ... .. 6 ... ... ... : ... .. . ... : ... .. . ... : ... .. . ... ...
ROW C6 : ... .. . P7F ... ... : ... .. . P80 ... ... : ... .. . ... : ... .. . ... : ... .. . ... ...
ROW C7 : ... .. . ... ... ... : ... .. . P81 ... ... : ... .. . ... : ... .. . ... : ... .. . ... ...
ROW C8 : ... .. . ... ... ... : ... .. . ... ... ... : ... .. . ... : ... .. . ... : ... .. . ... ...
ROW C9 : ... .. . P80 ... ... : C#4 00 9 P80 ... ... : ... .. . ... : ... .. F ... : ... .. . ... ...
ROW CA : ... .. . P81 ... ... : ... .. B ... ... ... : ... .. . ... : ... .. . ... : ... .. . ... ...
ROW CB : ... .. . ... ... ... : ... .. . ... ... ... : ... .. . ... : ... .. 0 ... : ... .. . ... ...
ROW CC : ... .. . P80 ... ... : ... .. . ... ... ... : ... .. . ... : ... .. . ... : ... .. . ... ...
ROW CD : ... .. . P7F ... ... : ... .. . ... ... ... : ... .. . ... : ... .. . ... : ... .. . ... ...
ROW CE : ... .. . ... ... ... : ... .. . ... ... ... : ... .. . ... : ... .. . ... : ... .. . ... ...
ROW CF : ... .. . ... ... ... : ... .. . ... ... ... : ... .. . ... : ... .. . ... : ... .. . ... ...
ROW D0 : ... .. . P81 ... ... : ... .. . ... ... ... : ... .. . ... : ... .. . ... : ... .. . ... ...
ROW D1 : ... .. . ... ... ... : ... .. . ... ... ... : ... .. . ... : ... .. . ... : ... .. . ... ...
ROW D2 : ... .. . ... ... ... : ... .. . ... ... ... : ... .. . ... : ... .. . ... : ... .. . ... ...
ROW D3 : ... .. . P80 ... ... : ... .. . ... ... ... : ... .. . ... : ... .. . ... : ... .. . ... ...
ROW D4 : ... .. . P7F ... ... : ... .. . P81 ... ... : ... .. . ... : ... .. . ... : ... .. . ... ...
ROW D5 : D-4 00 F P80 V00 ... : ... .. . ... ... ... : ... .. . ... : ... .. . ... : ... .. . ... ...
ROW D6 : ... .. . P81 V02 ... : ... .. . ... ... ... : ... .. . ... : ... .. . ... : ... .. . ... ...
ROW D7 : ... .. . ... ... ... : ... .. . P80 ... ... : ... .. . ... : ... .. . ... : ... .. . ... ...
ROW D8 : ... .. . P80 ... ... : ... .. . P7F ... ... : ... .. . ... : ... .. . ... : ... .. . ... ...
ROW D9 : ... .. . P7F ... ... : ... .. . ... ... ... : ... .. . ... : ... .. . ... : ... .. . ... ...
ROW DA : ... .. . ... ... ... : ... .. . ... ... ... : ... .. . ... : ... .. . ... : ... .. . ... ...
ROW DB : C#4 00 F P80 V00 ... : ... .. . P80 ... ... : ... .. . ... : ... .. . ... : ... .. . ... ...
ROW DC : ... .. . P81 V02 ... : ... .. . P81 ... ... : ... .. . ... : ... .. . ... : ... .. . ... ...
ROW DD : ... .. . ... ... ... : ... .. . ... ... ... : ... .. . ... : ... .. . ... : ... .. . ... ...
ROW DE : ... .. . P80 ... ... : ... .. . ... ... ... : ... .. . ... : ... .. . ... : ... .. . ... ...
ROW DF : ... .. . P7F ... ... : ... .. A P7F ... ... : ... .. . ... : ... .. . ... : ... .. . ... ...
ROW E0 : F#2 00 1 P80 V00 ... : B-3 00 9 P80 ... ... : B-3 00 . ... : ... .. . ... : D-0 00 . Z40 ...
ROW E1 : ... .. 9 ... V01 ... : ... .. B ... ... ... : ... .. . ... : ... .. . ... : ... .. . ... ...
ROW E2 : ... .. B ... ... ... : ... .. . ... ... ... : ... .. . ... : ... .. . ... : ... .. . ... ...
ROW E3 : ... .. . ... ... ... : ... .. . ... ... ... : ... .. . ... : ... .. . ... : ... .. . ... ...
ROW E4 : ... .. . ... ... ... : ... .. . ... ... ... : ... .. . ... : ... .. . ... : ... .. . ... ...
ROW E5 : ... .. . ... ... ... : ... .. . ... ... ... : ... .. . ... : ... .. . ... : ... .. . ... ...
ROW E6 : ... .. . ... ... ... : ... .. . ... ... ... : ... .. . ... : ... .. . ... : ... .. . ... ...
ROW E7 : ... .. . P7C ... ... : ... .. . ... ... ... : ... .. . ... : ... .. . ... : ... .. . ... ...
ROW E8 : ... .. . ... ... ... : ... .. . ... ... ... : ... .. . ... : ... .. . ... : ... .. . ... ...
ROW E9 : ... .. . P7D ... ... : ... .. . ... ... ... : ... .. . ... : ... .. . ... : ... .. . ... ...
ROW EA : ... .. . P80 ... ... : ... .. . ... ... ... : ... .. . ... : ... .. . ... : ... .. . ... ...
ROW EB : ... .. . P83 ... ... : ... .. . P81 ... ... : ... .. . ... : ... .. . ... : ... .. . ... ...
ROW EC : ... .. . P84 ... ... : A-3 00 9 P80 ... ... : ... .. . ... : ... .. . ... : ... .. . ... ...
ROW ED : ... .. . P83 ... ... : ... .. B ... ... ... : ... .. . ... : ... .. . ... : ... .. . ... ...
ROW EE : ... .. . P80 ... ... : ... .. . ... ... ... : ... .. . ... : ... .. . ... : ... .. . ... ...
ROW EF : ... .. . P7D ... ... : ... .. . ... ... ... : ... .. . ... : ... .. . ... : ... .. . ... ...
ROW F0 : ... .. . P7C ... ... : ... .. . ... ... ... : ... .. . ... : ... .. . ... : ... .. . ... ...
ROW F1 : ... .. . ... ... ... : ... .. . ... ... ... : ... .. . ... : ... .. . ... : ... .. . ... ...
ROW F2 : ... .. . P7D ... ... : ... .. . ... ... ... : ... .. . ... : ... .. . ... : ... .. . ... ...
ROW F3 : ... .. . P83 ... ... : ... .. . ... ... ... : ... .. . ... : ... .. . ... : ... .. . ... ...
ROW F4 : ... .. . P84 ... ... : ... .. . ... ... ... : ... .. . ... : ... .. . ... : ... .. . ... ...
ROW F5 : ... .. . ... ... ... : ... .. . ... ... ... : ... .. . ... : ... .. . ... : ... .. . ... ...
ROW F6 : ... .. . P83 ... ... : ... .. . ... ... ... : ... .. . ... : ... .. . ... : ... .. . ... ...
ROW F7 : ... .. . P80 ... ... : ... .. . P81 ... ... : ... .. . ... : ... .. . ... : ... .. . ... ...
ROW F8 : ... .. . P7D ... ... : F#3 00 9 P80 ... ... : ... .. . ... : ... .. F ... : ... .. . ... ...
ROW F9 : ... .. . P7C ... ... : ... .. B ... ... ... : ... .. . ... : ... .. . ... : ... .. . ... ...
ROW FA : ... .. . P7D ... ... : ... .. . ... ... ... : ... .. . ... : ... .. 0 ... : ... .. . ... ...
ROW FB : ... .. . P80 ... ... : ... .. . ... ... ... : ... .. . ... : ... .. . ... : ... .. . ... ...
ROW FC : ... .. . P83 ... ... : ... .. . ... ... ... : ... .. . ... : ... .. . ... : ... .. . ... ...
ROW FD : ... .. . P84 ... ... : ... .. . ... ... ... : ... .. . ... : ... .. . ... : ... .. . ... ...
ROW FE : ... .. . ... ... ... : ... .. . ... ... ... : ... .. . ... : ... .. . ... : ... .. . ... ...
ROW FF : ... .. . P80 ... ... : ... .. . ... ... ... : ... .. . ... : ... .. . ... : ... .. . ... ...

PATTERN 16
ROW 00 : ... .. . P7D ... ... : ... .. . ... ... ... : ... .. . ... : ... .. . ... : ... .. . ... ...
ROW 01 : ... .. . P7C ... ... : ... .. . ... ... ... : ... .. . ... : ... .. . ... : ... .. . ... ...
ROW 02 : ... .. . P7D ... ... : ... .. . P81 ... ... : ... .. . ... : ... .. . ... : ... .. . ... ...
ROW 03 : ... .. . P80 ... ... : A-3 00 9 P80 ... ... : ... .. . ... : ... .. . ... : ... .. . ... ...
ROW 04 : ... .. . P84 ... ... : ... .. B ... ... ... : ... .. . ... : ... .. . ... : ... .. . ... ...
ROW 05 : ... .. . ... ... ... : ... .. . ... ... ... : ... .. . ... : ... .. . ... : ... .. . ... ...
ROW 06 : ... .. . P83 ... ... : ... .. . ... ... ... : ... .. . ... : ... .. . ... : ... .. . ... ...
ROW 07 : ... .. . P80 ... ... : ... .. . ... ... ... : ... .. . ... : ... .. . ... : ... .. . ... ...
ROW 08 : ... .. . P7D ... ... : ... .. . ... ... ... : ... .. . ... : ... .. . ... : ... .. . ... ...
ROW 09 : ... .. . P7C ... ... : ... .. . ... ... ... : ... .. . ... : ... .. . ... : ... .. . ... ...
ROW 0A : ... .. . P7D ... ... : ... .. . ... ... ... : ... .. . ... : ... .. . ... : ... .. . ... ...
ROW 0B : ... .. . P80 ... ... : ... .. . ... ... ... : ... .. . ... : ... .. . ... : ... .. . ... ...
ROW 0C : ... .. . P83 ... ... : ... .. . ... ... ... : ... .. . ... : ... .. . ... : ... .. . ... ...
ROW 0D : ... .. . P84 ... ... : ... .. . ... ... ... : ... .. . ... : ... .. . ... : ... .. . ... ...
ROW 0E : ... .. . ... ... ... : ... .. . P81 ... ... : ... .. . ... : ... .. . ... : ... .. . ... ...
ROW 0F : ... .. . P83 ... ... : B-3 00 9 P80 ... ... : ... .. . ... : ... .. . ... : ... .. . ... ...
ROW 10 : ... .. . P7D ... ... : ... .. B ... ... ... : ... .. . ... : ... .. . ... : ... .. . ... ...
ROW 11 : ... .. . P7C ... ... : ... .. . ... ... ... : ... .. . ... : ... .. . ... : ... .. . ... ...
ROW 12 : ... .. . ... ... ... : ... .. . ... ... ... : ... .. . ... : ... .. . ... : ... .. . ... ...
ROW 13 : ... .. . P7D ... ... : ... .. . ... ... ... : ... .. . ... : ... .. . ... : ... .. . ... ...
ROW 14 : ... .. . P80 ... ... : ... .. . ... ... ... : ... .. . ... : ... .. . ... : ... .. . ... ...
ROW 15 : ... .. . P83 ... ... : ... .. . ... ... ... : ... .. . ... : ... .. . ... : ... .. . ... ...
ROW 16 : ... .. . P84 ... ... : ... .. . ... ... ... : ... .. . ... : ... .. . ... : ... .. . ... ...
ROW 17 : ... .. . P83 ... ... : ... .. . ... ... ... : ... .. . ... : ... .. . ... : ... .. . ... ...
ROW 18 : ... .. . P80 ... ... : ... .. . ... ... ... : ... .. . ... : ... .. . ... : ... .. . ... ...
ROW 19 : ... .. . P7D ... ... : ... .. . ... ... ... : ... .. . ... : ... .. . ... : ... .. . ... ...
ROW 1A : ... .. . P7C ... ... : ... .. . P81 ... ... : ... .. . ... : ... .. . ... : ... .. . ... ...
ROW 1B : ... .. . ... ... ... : A-3 00 9 P80 ... ... : ... .. . ... : ... .. . ... : ... .. . ... ...
ROW 1C : ... .. . P80 ... ... : ... .. B ... ... ... : ... .. . ... : ... .. . ... : ... .. . ... ...
ROW 1D : ... .. . P83 ... ... : ... .. . ... ... ... : ... .. . ... : ... .. . ... : ... .. . ... ...
ROW 1E : ... .. . P84 ... ... : ... .. . ... ... ... : ... .. . ... : ... .. . ... : ... .. . ... ...
ROW 1F : ... .. . ... ... ... : ... .. . ... ... ... : ... .. . ... : ... .. . ... : ... .. . ... ...
ROW 20 : ... .. . P83 ... ... : ... .. . ... ... ... : ... .. . ... : ... .. . ... : ... .. . ... ...
ROW 21 : ... .. . P80 ... ... : ... .. . ... ... ... : ... .. . ... : ... .. . ... : ... .. . ... ...
ROW 22 : ... .. . P7C ... ... : ... .. . ... ... ... : ... .. . ... : ... .. . ... : ... .. . ... ...
ROW 23 : ... .. . ... ... ... : ... .. . ... ... ... : ... .. . ... : ... .. . ... : ... .. . ... ...
ROW 24 : ... .. . P7D ... ... : ... .. . ... ... ... : ... .. . ... : ... .. . ... : ... .. . ... ...
ROW 25 : ... .. . P83 ... ... : ... .. . P81 ... ... : ... .. . ... : ... .. . ... : ... .. . ... ...
ROW 26 : ... .. . P84 ... ... : D-4 00 9 P80 ... ... : ... .. . ... : ... .. F ... : ... .. . ... ...
ROW 27 : ... .. . P83 ... ... : ... .. B ... ... ... : ... .. . ... : ... .. . ... : ... .. . ... ...
ROW 28 : ... .. . P80 ... ... : ... .. . ... ... ... : ... .. . ... : ... .. 0 ... : ... .. . ... ...
ROW 29 : ... .. . P7D ... ... : ... .. . ... ... ... : ... .. . ... : ... .. . ... : ... .. . ... ...
ROW 2A : ... .. . P7C ... ... : ... .. . ... ... ... : ... .. . ... : ... .. . ... : ... .. . ... ...
ROW 2B : ... .. . ... ... ... : ... .. . ... ... ... : ... .. . ... : ... .. . ... : ... .. . ... ...
ROW 2C : ... .. . P7D ... ... : ... .. . ... ... ... : ... .. . ... : ... .. . ... : ... .. . ... ...
ROW 2D : ... .. . P83 ... ... : ... .. . ... ... ... : ... .. . ... : ... .. . ... : ... .. . ... ...
ROW 2E : ... .. . P84 ... ... : ... .. . ... ... ... : ... .. . ... : ... .. . ... : ... .. . ... ...
ROW 2F : ... .. . ... ... ... : ... .. . ... ... ... : ... .. . ... : ... .. . ... : ... .. . ... ...
ROW 30 : ... .. . P83 ... ... : ... .. . ... ... ... : ... .. . ... : ... .. . ... : ... .. . ... ...
ROW 31 : ... .. . P80 ... ... : ... .. . P81 ... ... : ... .. . ... : ... .. . ... : ... .. . ... ...
ROW 32 : ... .. . P7D ... ... : E-4 00 9 P80 ... ... : ... .. . ... : ... .. . ... : ... .. . ... ...
ROW 33 : ... .. . P7C ... ... : ... .. B ... ... ... : ... .. . ... : ... .. . ... : ... .. . ... ...
ROW 34 : ... .. . P7D ... ... : ... .. . ... ... ... : ... .. . ... : ... .. . ... : ... .. . ... ...
ROW 35 : ... .. . P80 ... ... : ... .. . ... ... ... : ... .. . ... : ... .. . ... : ... .. . ... ...
ROW 36 : ... .. . P83 ... ... : ... .. . ... ... ... : ... .. . ... : ... .. . ... : ... .. . ... ...
ROW 37 : ... .. . P84 ... ... : ... .. . ... ... ... : ... .. . ... : ... .. . ... : ... .. . ... ...
ROW 38 : ... .. . ... ... ... : ... .. . ... ... ... : ... .. . ... : ... .. . ... : ... .. . ... ...
ROW 39 : ... .. . P80 ... ... : ... .. . ... ... ... : ... .. . ... : ... .. . ... : ... .. . ... ...
ROW 3A : ... .. . P7D ... ... : ... .. . ... ... ... : ... .. . ... : ... .. . ... : ... .. . ... ...
ROW 3B : ... .. . P7C ... ... : ... .. . ... ... ... : ... .. . ... : ... .. . ... : ... .. . ... ...
ROW 3C : ... .. . ... ... ... : ... .. . ... ... ... : ... .. . ... : ... .. . ... : ... .. . ... ...
ROW 3D : ... .. . P7D ... ... : ... .. 0 ... ... ... : ... .. . ... : ... .. . ... : ... .. . ... ...
ROW 3E : A-2 00 1 P80 V00 ... : C#4 00 9 P80 ... ... : C#4 00 . ... : ... .. . ... : D-0 00 . Z40 ...
ROW 3F : ... .. 9 ... V01 ... : ... .. B ... ... ... : ... .. . ... : ... .. . ... : ... .. . ... ...
ROW 40 : ... .. B ... ... ... : ... .. . ... ... ... : ... .. . ... : ... .. . ... : ... .. . ... ...
ROW 41 : ... .. . ... ... ... : ... .. . ... ... ... : ... .. . ... : ... .. . ... : ... .. . ... ...
ROW 42 : ... .. . ... ... ... : ... .. . ... ... ... : ... .. . ... : ... .. . ... : ... .. . ... ...
ROW 43 : ... .. . ... ... ... : ... .. . ... ... ... : ... .. . ... : ... .. . ... : ... .. . ... ...
ROW 44 : ... .. . ... ... ... : ... .. . ... ... ... : ... .. . ... : ... .. . ... : ... .. . ... ...
ROW 45 : ... .. . P7C ... ... : ... .. . ... ... ... : ... .. . ... : ... .. . ... : ... .. . ... ...
ROW 46 : ... .. . ... ... ... : ... .. . ... ... ... : ... .. . ... : ... .. . ... : ... .. . ... ...
ROW 47 : ... .. . P7D ... ... : ... .. . ... ... ... : ... .. . ... : ... .. . ... : ... .. . ... ...
ROW 48 : ... .. . P83 ... ... : ... .. . P81 ... ... : ... .. . ... : ... .. . ... : ... .. . ... ...
ROW 49 : ... .. . P84 ... ... : ... .. . ... ... ... : ... .. . ... : ... .. . ... : ... .. . ... ...
ROW 4A : ... .. . P83 ... ... : ... .. . ... ... ... : ... .. . ... : ... .. . ... : ... .. . ... ...
ROW 4B : ... .. . P80 ... ... : ... .. . P80 ... ... : ... .. . ... : ... .. . ... : ... .. . ... ...
ROW 4C : ... .. . P7D ... ... : ... .. . P7F ... ... : ... .. . ... : ... .. . ... : ... .. . ... ...
ROW 4D : ... .. . P7C ... ... : ... .. . ... ... ... : ... .. . ... : ... .. . ... : ... .. . ... ...
ROW 4E : ... .. . ... ... ... : ... .. . ... ... ... : ... .. . ... : ... .. . ... : ... .. . ... ...
ROW 4F : ... .. . P7D ... ... : ... .. . P80 ... ... : ... .. . ... : ... .. . ... : ... .. . ... ...
ROW 50 : ... .. . P83 ... ... : ... .. . P81 ... ... : ... .. . ... : ... .. . ... : ... .. . ... ...
ROW 51 : ... .. . P84 ... ... : ... .. . ... ... ... : ... .. . ... : ... .. . ... : ... .. . ... ...
ROW 52 : ... .. . ... ... ... : ... .. . ... ... ... : ... .. . ... : ... .. . ... : ... .. . ... ...
ROW 53 : ... .. . P83 ... ... : ... .. A P80 ... ... : ... .. . ... : ... .. . ... : ... .. . ... ...
ROW 54 : ... .. . P80 ... ... : ... .. . P7F ... ... : ... .. . ... : ... .. . ... : ... .. . ... ...
ROW 55 : ... .. . P7D ... ... : ... .. . ... ... ... : ... .. . ... : ... .. F ... : ... .. . ... ...
ROW 56 : ... .. . P7C ... ... : ... .. 9 P80 ... ... : ... .. . ... : ... .. . ... : ... .. . ... ...
ROW 57 : ... .. . P7D ... ... : ... .. . P81 ... ... : ... .. . ... : ... .. 0 ... : ... .. . ... ...
ROW 58 : ... .. . P80 ... ... : ... .. 8 ... ... ... : ... .. . ... : ... .. . ... : ... .. . ... ...
ROW 59 : ... .. . P83 ... ... : ... .. . ... ... ... : ... .. . ... : ... .. . ... : ... .. . ... ...
ROW 5A : ... .. . P84 ... ... : ... .. . ... ... ... : ... .. . ... : ... .. . ... : ... .. . ... ...
ROW 5B : ... .. . ... ... ... : ... .. 7 P80 ... ... : ... .. . ... : ... .. . ... : ... .. . ... ...
ROW 5C : ... .. . P80 ... ... : ... .. . P7F ... ... : ... .. . ... : ... .. . ... : ... .. . ... ...
ROW 5D : ... .. . P7D ... ... : ... .. 6 ... ... ... : ... .. . ... : ... .. . ... : ... .. . ... ...
ROW 5E : ... .. . P7C ... ... : ... .. . P80 ... ... : ... .. . ... : ... .. . ... : ... .. . ... ...
ROW 5F : ... .. . ... ... ... : ... .. . P81 ... ... : ... .. . ... : ... .. . ... : ... .. . ... ...
ROW 60 : ... .. . P7D ... ... : ... .. . ... ... ... : ... .. . ... : ... .. . ... : ... .. . ... ...
ROW 61 : ... .. . P80 ... ... : ... .. . ... ... ... : ... .. . ... : ... .. . ... : ... .. . ... ...
ROW 62 : ... .. . P84 ... ... : ... .. . P80 ... ... : ... .. . ... : ... .. . ... : ... .. . ... ...
ROW 63 : ... .. . ... ... ... : ... .. . P7F ... ... : ... .. . ... : ... .. . ... : ... .. . ... ...
ROW 64 : ... .. . P83 ... ... : ... .. . ... ... ... : ... .. . ... : ... .. . ... : ... .. . ... ...
ROW 65 : ... .. . P80 ... ... : ... .. . ... ... ... : ... .. . ... : ... .. . ... : ... .. . ... ...
ROW 66 : ... .. . P7D ... ... : ... .. . P80 ... ... : ... .. . ... : ... .. . ... : ... .. . ... ...
ROW 67 : ... .. . P7C ... ... : ... .. . P81 ... ... : ... .. . ... : ... .. . ... : ... .. . ... ...
ROW 68 : ... .. . P7D ... ... : ... .. . ... ... ... : ... .. . ... : ... .. . ... : ... .. . ... ...
ROW 69 : ... .. . P80 ... ... : ... .. . ... ... ... : ... .. . ... : ... .. . ... : ... .. . ... ...
ROW 6A : ... .. . P83 ... ... : ... .. . P80 ... ... : ... .. . ... : ... .. . ... : ... .. . ... ...
ROW 6B : ... .. . P84 ... ... : ... .. . P7F ... ... : ... .. . ... : ... .. . ... : ... .. . ... ...
ROW 6C : ... .. . P83 ... ... : ... .. . ... ... ... : ... .. . ... : ... .. . ... : ... .. . ... ...
ROW 6D : ... .. . P7D ... ... : ... .. . P81 ... ... : ... .. . ... : ... .. . ... : ... .. . ... ...
ROW 6E : ... .. . P7C ... ... : ... .. . ... ... ... : ... .. . ... : ... .. . ... : ... .. . ... ...
ROW 6F : ... .. . ... ... ... : ... .. . ... ... ... : ... .. . ... : ... .. . ... : ... .. . ... ...
ROW 70 : ... .. . P7D ... ... : ... .. . ... ... ... : ... .. . ... : ... .. . ... : ... .. . ... ...
ROW 71 : ... .. . P80 ... ... : ... .. . P80 ... ... : ... .. . ... : ... .. . ... : ... .. . ... ...
ROW 72 : ... .. . P83 ... ... : ... .. . P7F ... ... : ... .. . ... : ... .. . ... : ... .. . ... ...
ROW 73 : ... .. . P84 ... ... : ... .. . ... ... ... : ... .. . ... : ... .. . ... : ... .. . ... ...
ROW 74 : ... .. . P83 ... ... : ... .. . P80 ... ... : ... .. . ... : ... .. . ... : ... .. . ... ...
ROW 75 : ... .. . P80 ... ... : ... .. . P81 ... ... : ... .. . ... : ... .. . ... : ... .. . ... ...
ROW 76 : ... .. . P7D ... ... : ... .. . ... ... ... : ... .. . ... : ... .. . ... : ... .. . ... ...
ROW 77 : ... .. . P7C ... ... : ... .. . ... ... ... : ... .. . ... : ... .. . ... : ... .. . ... ...
ROW 78 : ... .. . ... ... ... : ... .. . ... ... ... : ... .. . ... : ... .. . ... : ... .. . ... ...
ROW 79 : ... .. . P80 ... ... : ... .. . P7F ... ... : ... .. . ... : ... .. . ... : ... .. . ... ...
ROW 7A : ... .. . P83 ... ... : ... .. . ... ... ... : ... .. . ... : ... .. . ... : ... .. . ... ...
ROW 7B : ... .. . P84 ... ... : ... .. . ... ... ... : ... .. . ... : ... .. . ... : ... .. . ... ...
ROW 7C : ... .. . ... ... ... : ... .. . P80 ... ... : ... .. . ... : ... .. . ... : ... .. . ... ...
ROW 7D : ... .. . P83 ... ... : ... .. . P81 ... ... : ... .. . ... : ... .. . ... : ... .. . ... ...
ROW 7E : ... .. . P80 ... ... : ... .. . ... ... ... : ... .. . ... : ... .. . ... : ... .. . ... ...
ROW 7F : ... .. . P7C ... ... : ... .. . ... ... ... : ... .. . ... : ... .. . ... : ... .. . ... ...
ROW 80 : ... .. . ... ... ... : ... .. . P80 ... ... : ... .. . ... : ... .. . ... : ... .. . ... ...
ROW 81 : ... .. . P7D ... ... : ... .. . P7F ... ... : ... .. . ... : ... .. . ... : ... .. . ... ...
ROW 82 : ... .. . P80 ... ... : ... .. . ... ... ... : ... .. . ... : ... .. . ... : ... .. . ... ...
ROW 83 : ... .. . P83 ... ... : ... .. . ... ... ... : ... .. . ... : ... .. . ... : ... .. . ... ...
ROW 84 : ... .. . P84 ... ... : ... .. . P80 ... ... : ... .. . ... : ... .. F ... : ... .. . ... ...
ROW 85 : ... .. . P83 ... ... : ... .. . P81 ... ... : ... .. . ... : ... .. . ... : ... .. . ... ...
ROW 86 : ... .. . P80 ... ... : ... .. . ... ... ... : ... .. . ... : ... .. 0 ... : ... .. . ... ...
ROW 87 : ... .. . P7D ... ... : ... .. . ... ... ... : ... .. . ... : ... .. . ... : ... .. . ... ...
ROW 88 : ... .. . P7C ... ... : ... .. . P80 ... ... : ... .. . ... : ... .. . ... : ... .. . ... ...
ROW 89 : ... .. . ... ... ... : ... .. . P7F ... ... : ... .. . ... : ... .. . ... : ... .. . ... ...
ROW 8A : ... .. . P7D ... ... : ... .. . ... ... ... : ... .. . ... : ... .. . ... : ... .. . ... ...
ROW 8B : ... .. . P83 ... ... : ... .. . P80 ... ... : ... .. . ... : ... .. . ... : ... .. . ... ...
ROW 8C : ... .. . P84 ... ... : ... .. . P81 ... ... : ... .. . ... : ... .. . ... : ... .. . ... ...
ROW 8D : ... .. . ... ... ... : ... .. . ... ... ... : ... .. . ... : ... .. . ... : ... .. . ... ...
ROW 8E : ... .. . P80 ... ... : ... .. . ... ... ... : ... .. . ... : ... .. . ... : ... .. . ... ...
ROW 8F : ... .. . P7D ... ... : ... .. . P80 ... ... : ... .. . ... : ... .. . ... : ... .. . ... ...
ROW 90 : ... .. . P7C ... ... : ... .. . P7F ... ... : ... .. . ... : ... .. . ... : ... .. . ... ...
ROW 91 : ... .. . P7D ... ... : ... .. . ... ... ... : ... .. . ... : ... .. . ... : ... .. . ... ...
ROW 92 : ... .. . P80 ... ... : ... .. . P80 ... ... : ... .. . ... : ... .. . ... : ... .. . ... ...
ROW 93 : ... .. . P83 ... ... : ... .. . P81 ... ... : ... .. . ... : ... .. . ... : ... .. . ... ...
ROW 94 : ... .. . P84 ... ... : ... .. . ... ... ... : ... .. . ... : ... .. . ... : ... .. . ... ...
ROW 95 : ... .. . ... ... ... : ... .. . ... ... ... : ... .. . ... : ... .. . ... : ... .. . ... ...
ROW 96 : ... .. . P80 ... ... : ... .. . P80 ... ... : ... .. . ... : ... .. . ... : ... .. . ... ...
ROW 97 : ... .. . P7D ... ... : ... .. . P7F ... ... : ... .. . ... : ... .. . ... : ... .. . ... ...
ROW 98 : ... .. . P7C ... ... : ... .. . ... ... ... : ... .. . ... : ... .. . ... : ... .. . ... ...
ROW 99 : ... .. . ... ... ... : ... .. . ... ... ... : ... .. . ... : ... .. . ... : ... .. . ... ...
ROW 9A : ... .. . P7D ... ... : ... .. . P80 ... ... : ... .. . ... : ... .. . ... : ... .. . ... ...
ROW 9B : F#2 00 1 P80 V00 ... : D-4 00 9 ... ... ... : D-4 00 . ... : ... .. . ... : ... .. . ... ...
ROW 9C : ... .. 9 ... V01 ... : ... .. B ... ... ... : ... .. . ... : ... .. . ... : D-0 00 . Z40 ...
ROW 9D : ... .. B ... ... ... : ... .. . ... ... ... : ... .. . ... : ... .. . ... : ... .. . ... ...
ROW 9E : ... .. . ... ... ... : ... .. . ... ... ... : ... .. . ... : ... .. . ... : ... .. . ... ...
ROW 9F : ... .. . ... ... ... : ... .. . ... ... ... : ... .. . ... : ... .. . ... : ... .. . ... ...
ROW A0 : ... .. . ... ... ... : ... .. . ... ... ... : ... .. . ... : ... .. . ... : ... .. . ... ...
ROW A1 : ... .. . ... ... ... : ... .. . ... ... ... : ... .. . ... : ... .. . ... : ... .. . ... ...
ROW A2 : ... .. . P7C ... ... : ... .. . ... ... ... : ... .. . ... : ... .. . ... : ... .. . ... ...
ROW A3 : ... .. . ... ... ... : ... .. . ... ... ... : ... .. . ... : ... .. . ... : ... .. . ... ...
ROW A4 : ... .. . P7D ... ... : ... .. . ... ... ... : ... .. . ... : ... .. . ... : ... .. . ... ...
ROW A5 : ... .. . P80 ... ... : ... .. . ... ... ... : ... .. . ... : ... .. . ... : ... .. . ... ...
ROW A6 : ... .. . P83 ... ... : ... .. . P81 ... ... : ... .. . ... : ... .. . ... : ... .. . ... ...
ROW A7 : ... .. . P84 ... ... : A-3 00 9 P80 ... ... : ... .. . ... : ... .. . ... : ... .. . ... ...
ROW A8 : ... .. . P83 ... ... : ... .. B ... ... ... : ... .. . ... : ... .. . ... : ... .. . ... ...
ROW A9 : ... .. . P80 ... ... : ... .. . ... ... ... : ... .. . ... : ... .. . ... : ... .. . ... ...
ROW AA : ... .. . P7D ... ... : ... .. . ... ... ... : ... .. . ... : ... .. . ... : ... .. . ... ...
ROW AB : ... .. . P7C ... ... : ... .. . ... ... ... : ... .. . ... : ... .. . ... : ... .. . ... ...
ROW AC : ... .. . ... ... ... : ... .. . ... ... ... : ... .. . ... : ... .. . ... : ... .. . ... ...
ROW AD : ... .. . P7D ... ... : ... .. . ... ... ... : ... .. . ... : ... .. . ... : ... .. . ... ...
ROW AE : ... .. . P83 ... ... : ... .. . ... ... ... : ... .. . ... : ... .. . ... : ... .. . ... ...
ROW AF : ... .. . P84 ... ... : ... .. . ... ... ... : ... .. . ... : ... .. . ... : ... .. . ... ...
ROW B0 : ... .. . ... ... ... : ... .. . ... ... ... : ... .. . ... : ... .. . ... : ... .. . ... ...
ROW B1 : ... .. . P80 ... ... : ... .. . P81 ... ... : ... .. . ... : ... .. . ... : ... .. . ... ...
ROW B2 : ... .. . P7D ... ... : D-4 00 9 P80 ... ... : ... .. . ... : ... .. F ... : ... .. . ... ...
ROW B3 : ... .. . P7C ... ... : ... .. B ... ... ... : ... .. . ... : ... .. . ... : ... .. . ... ...
ROW B4 : ... .. . P7D ... ... : ... .. . ... ... ... : ... .. . ... : ... .. 0 ... : ... .. . ... ...
ROW B5 : ... .. . P80 ... ... : ... .. . ... ... ... : ... .. . ... : ... .. . ... : ... .. . ... ...
ROW B6 : ... .. . P83 ... ... : ... .. . ... ... ... : ... .. . ... : ... .. . ... : ... .. . ... ...
ROW B7 : ... .. . P84 ... ... : ... .. . ... ... ... : ... .. . ... : ... .. . ... : ... .. . ... ...
ROW B8 : ... .. . ... ... ... : ... .. . ... ... ... : ... .. . ... : ... .. . ... : ... .. . ... ...
ROW B9 : ... .. . P80 ... ... : ... .. . ... ... ... : ... .. . ... : ... .. . ... : ... .. . ... ...
ROW BA : ... .. . P7D ... ... : ... .. . ... ... ... : ... .. . ... : ... .. . ... : ... .. . ... ...
ROW BB : ... .. . P7C ... ... : ... .. . ... ... ... : ... .. . ... : ... .. . ... : ... .. . ... ...
ROW BC : ... .. . ... ... ... : ... .. . ... ... ... : ... .. . ... : ... .. . ... : ... .. . ... ...
ROW BD : ... .. . P7D ... ... : ... .. . P81 ... ... : ... .. . ... : ... .. . ... : ... .. . ... ...
ROW BE : ... .. . P80 ... ... : E-4 00 9 P80 ... ... : ... .. . ... : ... .. . ... : ... .. . ... ...
ROW BF : ... .. . P84 ... ... : ... .. B ... ... ... : ... .. . ... : ... .. . ... : ... .. . ... ...
ROW C0 : ... .. . ... ... ... : ... .. . ... ... ... : ... .. . ... : ... .. . ... : ... .. . ... ...
ROW C1 : ... .. . P83 ... ... : ... .. . ... ... ... : ... .. . ... : ... .. . ... : ... .. . ... ...
ROW C2 : ... .. . P80 ... ... : ... .. . ... ... ... : ... .. . ... : ... .. . ... : ... .. . ... ...
ROW C3 : ... .. . P7D ... ... : ... .. . ... ... ... : ... .. . ... : ... .. . ... : ... .. . ... ...
ROW C4 : ... .. . P7C ... ... : ... .. . ... ... ... : ... .. . ... : ... .. . ... : ... .. . ... ...
ROW C5 : ... .. . P7D ... ... : ... .. . ... ... ... : ... .. . ... : ... .. . ... : ... .. . ... ...
ROW C6 : ... .. . P80 ... ... : ... .. . ... ... ... : ... .. . ... : ... .. . ... : ... .. . ... ...
ROW C7 : ... .. . P83 ... ... : ... .. . ... ... ... : ... .. . ... : ... .. . ... : ... .. . ... ...
ROW C8 : ... .. . P84 ... ... : ... .. . ... ... ... : ... .. . ... : ... .. . ... : ... .. . ... ...
ROW C9 : ... .. . ... ... ... : ... .. . P81 ... ... : ... .. . ... : ... .. . ... : ... .. . ... ...
ROW CA : ... .. . P83 ... ... : F#4 00 9 P80 ... ... : ... .. . ... : ... .. . ... : ... .. . ... ...
ROW CB : ... .. . P7D ... ... : ... .. B ... ... ... : ... .. . ... : ... .. . ... : ... .. . ... ...
ROW CC : ... .. . P7C ... ... : ... .. . ... ... ... : ... .. . ... : ... .. . ... : ... .. . ... ...
ROW CD : ... .. . ... ... ... : ... .. . ... ... ... : ... .. . ... : ... .. . ... : ... .. . ... ...
ROW CE : ... .. . P7D ... ... : ... .. . ... ... ... : ... .. . ... : ... .. . ... : ... .. . ... ...
ROW CF : ... .. . P80 ... ... : ... .. . ... ... ... : ... .. . ... : ... .. . ... : ... .. . ... ...
ROW D0 : ... .. . P83 ... ... : ... .. . ... ... ... : ... .. . ... : ... .. . ... : ... .. . ... ...
ROW D1 : ... .. . P84 ... ... : ... .. . ... ... ... : ... .. . ... : ... .. . ... : ... .. . ... ...
ROW D2 : ... .. . P83 ... ... : ... .. . ... ... ... : ... .. . ... : ... .. . ... : ... .. . ... ...
ROW D3 : ... .. . P80 ... ... : ... .. . ... ... ... : ... .. . ... : ... .. . ... : ... .. . ... ...
ROW D4 : ... .. . P7C ... ... : ... .. . P81 ... ... : ... .. . ... : ... .. . ... : ... .. . ... ...
ROW D5 : ... .. . ... ... ... : D-4 00 9 P80 ... ... : ... .. . ... : ... .. . ... : ... .. . ... ...
ROW D6 : ... .. . P80 ... ... : ... .. B ... ... ... : ... .. . ... : ... .. . ... : ... .. . ... ...
ROW D7 : ... .. . P83 ... ... : ... .. . ... ... ... : ... .. . ... : ... .. . ... : ... .. . ... ...
ROW D8 : ... .. . P84 ... ... : ... .. . ... ... ... : ... .. . ... : ... .. . ... : ... .. . ... ...
ROW D9 : ... .. . ... ... ... : ... .. . ... ... ... : ... .. . ... : ... .. . ... : ... .. . ... ...
ROW DA : ... .. . P83 ... ... : ... .. . ... ... ... : ... .. . ... : ... .. . ... : ... .. . ... ...
ROW DB : ... .. . P80 ... ... : ... .. . ... ... ... : ... .. . ... : ... .. . ... : ... .. . ... ...
ROW DC : ... .. . P7C ... ... : ... .. . ... ... ... : ... .. . ... : ... .. . ... : ... .. . ... ...
ROW DD : ... .. . ... ... ... : ... .. . ... ... ... : ... .. . ... : ... .. . ... : ... .. . ... ...
ROW DE : ... .. . P7D ... ... : ... .. . ... ... ... : ... .. . ... : ... .. . ... : ... .. . ... ...
ROW DF : ... .. . P80 ... ... : ... .. . ... ... ... : ... .. . ... : ... .. . ... : ... .. . ... ...
ROW E0 : ... .. . P83 ... ... : ... .. . P81 ... ... : ... .. . ... : ... .. . ... : ... .. . ... ...
ROW E1 : ... .. . P84 ... ... : A-4 00 9 P80 ... ... : ... .. . ... : ... .. F ... : ... .. . ... ...
ROW E2 : ... .. . P83 ... ... : ... .. B ... ... ... : ... .. . ... : ... .. . ... : ... .. . ... ...
ROW E3 : ... .. . P80 ... ... : ... .. . ... ... ... : ... .. . ... : ... .. 0 ... : ... .. . ... ...
ROW E4 : ... .. . P7D ... ... : ... .. . ... ... ... : ... .. . ... : ... .. . ... : ... .. . ... ...
ROW E5 : ... .. . P7C ... ... : ... .. . ... ... ... : ... .. . ... : ... .. . ... : ... .. . ... ...
ROW E6 : ... .. . ... ... ... : ... .. . ... ... ... : ... .. . ... : ... .. . ... : ... .. . ... ...
ROW E7 : ... .. . P7D ... ... : ... .. . ... ... ... : ... .. . ... : ... .. . ... : ... .. . ... ...
ROW E8 : ... .. . P83 ... ... : ... .. . ... ... ... : ... .. . ... : ... .. . ... : ... .. . ... ...
ROW E9 : ... .. . P84 ... ... : ... .. . ... ... ... : ... .. . ... : ... .. . ... : ... .. . ... ...
ROW EA : ... .. . ... ... ... : ... .. . ... ... ... : ... .. . ... : ... .. . ... : ... .. . ... ...
ROW EB : ... .. . P83 ... ... : ... .. . ... ... ... : ... .. . ... : ... .. . ... : ... .. . ... ...
ROW EC : ... .. . P80 ... ... : ... .. . P81 ... ... : ... .. . ... : ... .. . ... : ... .. . ... ...
ROW ED : ... .. . P7D ... ... : ... .. . ... ... ... : ... .. . ... : ... .. . ... : ... .. . ... ...
ROW EE : ... .. . P7C ... ... : ... .. . ... ... ... : ... .. . ... : ... .. . ... : ... .. . ... ...
ROW EF : ... .. . P7D ... ... : ... .. . P80 ... ... : ... .. . ... : ... .. . ... : ... .. . ... ...
ROW F0 : ... .. . P80 ... ... : ... .. . P7F ... ... : ... .. . ... : ... .. . ... : ... .. . ... ...
ROW F1 : ... .. . P83 ... ... : ... .. . ... ... ... : ... .. . ... : ... .. . ... : ... .. . ... ...
ROW F2 : ... .. . P84 ... ... : ... .. . ... ... ... : ... .. . ... : ... .. . ... : ... .. . ... ...
ROW F3 : ... .. . ... ... ... : E-4 00 9 P80 ... ... : ... .. . ... : ... .. . ... : ... .. . ... ...
ROW F4 : ... .. . P80 ... ... : ... .. B ... ... ... : ... .. . ... : ... .. . ... : ... .. . ... ...
ROW F5 : ... .. . P7D ... ... : ... .. . ... ... ... : ... .. . ... : ... .. . ... : ... .. . ... ...
ROW F6 : ... .. . P7C ... ... : ... .. . ... ... ... : ... .. . ... : ... .. . ... : ... .. . ... ...
ROW F7 : ... .. . P7D ... ... : ... .. . ... ... ... : ... .. . ... : ... .. . ... : ... .. . ... ...
ROW F8 : E-2 00 1 P80 V00 ... : C#4 00 9 ... ... ... : E-4 00 . ... : ... .. . ... : D-0 00 . Z40 ...
ROW F9 : ... .. 9 ... V01 ... : ... .. B ... ... ... : ... .. . ... : ... .. . ... : ... .. . ... ...
ROW FA : ... .. B ... ... ... : ... .. . ... ... ... : ... .. . ... : ... .. . ... : ... .. . ... ...
ROW FB : ... .. . ... ... ... : ... .. . ... ... ... : ... .. . ... : ... .. . ... : ... .. . ... ...
ROW FC : ... .. . ... ... ... : ... .. . ... ... ... : ... .. . ... : ... .. . ... : ... .. . ... ...
ROW FD : ... .. . ... ... ... : ... .. . ... ... ... : ... .. . ... : ... .. . ... : ... .. . ... ...
ROW FE : ... .. . ... ... ... : ... .. . ... ... ... : ... .. . ... : ... .. . ... : ... .. . ... ...
ROW FF : ... .. . P7C ... ... : ... .. . ... ... ... : ... .. . ... : ... .. . ... : ... .. . ... ...

PATTERN 17
ROW 00 : ... .. . ... ... ... : ... .. . ... ... ... : ... .. . ... : ... .. . ... : ... .. . ... ...
ROW 01 : ... .. . P7D ... ... : ... .. . ... ... ... : ... .. . ... : ... .. . ... : ... .. . ... ...
ROW 02 : ... .. . P80 ... ... : ... .. . ... ... ... : ... .. . ... : ... .. . ... : ... .. . ... ...
ROW 03 : ... .. . P83 ... ... : ... .. . P81 ... ... : ... .. . ... : ... .. . ... : ... .. . ... ...
ROW 04 : ... .. . P84 ... ... : ... .. . ... ... ... : ... .. . ... : ... .. . ... : ... .. . ... ...
ROW 05 : ... .. . P83 ... ... : ... .. . ... ... ... : ... .. . ... : ... .. . ... : ... .. . ... ...
ROW 06 : ... .. . P80 ... ... : ... .. . P80 ... ... : ... .. . ... : ... .. . ... : ... .. . ... ...
ROW 07 : ... .. . P7D ... ... : ... .. . P7F ... ... : ... .. . ... : ... .. . ... : ... .. . ... ...
ROW 08 : ... .. . P7C ... ... : ... .. . ... ... ... : ... .. . ... : ... .. . ... : ... .. . ... ...
ROW 09 : ... .. . ... ... ... : ... .. . ... ... ... : ... .. . ... : ... .. . ... : ... .. . ... ...
ROW 0A : ... .. . P7D ... ... : ... .. . P80 ... ... : ... .. . ... : ... .. . ... : ... .. . ... ...
ROW 0B : ... .. . P83 ... ... : ... .. . P81 ... ... : ... .. . ... : ... .. . ... : ... .. . ... ...
ROW 0C : ... .. . P84 ... ... : ... .. . ... ... ... : ... .. . ... : ... .. . ... : ... .. . ... ...
ROW 0D : ... .. . ... ... ... : ... .. . ... ... ... : ... .. . ... : ... .. . ... : ... .. . ... ...
ROW 0E : ... .. . P83 ... ... : ... .. A P80 ... ... : ... .. . ... : ... .. . ... : ... .. . ... ...
ROW 0F : ... .. . P80 ... ... : ... .. . P7F ... ... : ... .. . ... : ... .. . ... : ... .. . ... ...
ROW 10 : ... .. . P7D ... ... : ... .. . ... ... ... : ... .. . ... : ... .. F ... : ... .. . ... ...
ROW 11 : ... .. . P7C ... ... : ... .. 9 P80 ... ... : ... .. . ... : ... .. . ... : ... .. . ... ...
ROW 12 : ... .. . P7D ... ... : ... .. . P81 ... ... : ... .. . ... : ... .. 0 ... : ... .. . ... ...
ROW 13 : ... .. . P80 ... ... : ... .. 8 ... ... ... : ... .. . ... : ... .. . ... : ... .. . ... ...
ROW 14 : ... .. . P83 ... ... : ... .. . ... ... ... : ... .. . ... : ... .. . ... : ... .. . ... ...
ROW 15 : ... .. . P84 ... ... : ... .. . ... ... ... : ... .. . ... : ... .. . ... : ... .. . ... ...
ROW 16 : ... .. . ... ... ... : ... .. 7 P80 ... ... : ... .. . ... : ... .. . ... : ... .. . ... ...
ROW 17 : ... .. . P80 ... ... : ... .. . P7F ... ... : ... .. . ... : ... .. . ... : ... .. . ... ...
ROW 18 : ... .. . P7D ... ... : ... .. 6 ... ... ... : ... .. . ... : ... .. . ... : ... .. . ... ...
ROW 19 : ... .. . P7C ... ... : ... .. . P80 ... ... : ... .. . ... : ... .. . ... : ... .. . ... ...
ROW 1A : ... .. . P7D ... ... : ... .. . P81 ... ... : ... .. . ... : ... .. . ... : ... .. . ... ...
ROW 1B : ... .. . P80 ... ... : ... .. . ... ... ... : ... .. . ... : ... .. . ... : ... .. . ... ...
ROW 1C : ... .. . P84 ... ... : ... .. . P80 ... ... : ... .. . ... : ... .. . ... : ... .. . ... ...
ROW 1D : ... .. . ... ... ... : ... .. . P7F ... ... : ... .. . ... : ... .. . ... : ... .. . ... ...
ROW 1E : ... .. . P83 ... ... : ... .. . ... ... ... : ... .. . ... : ... .. . ... : ... .. . ... ...
ROW 1F : ... .. . P80 ... ... : ... .. . ... ... ... : ... .. . ... : ... .. . ... : ... .. . ... ...
ROW 20 : ... .. . P7D ... ... : ... .. . P80 ... ... : ... .. . ... : ... .. . ... : ... .. . ... ...
ROW 21 : ... .. . P7C ... ... : ... .. . P81 ... ... : ... .. . ... : ... .. . ... : ... .. . ... ...
ROW 22 : ... .. . P7D ... ... : ... .. . ... ... ... : ... .. . ... : ... .. . ... : ... .. . ... ...
ROW 23 : ... .. . P80 ... ... : ... .. . ... ... ... : ... .. . ... : ... .. . ... : ... .. . ... ...
ROW 24 : ... .. . P83 ... ... : ... .. . P80 ... ... : ... .. . ... : ... .. . ... : ... .. . ... ...
ROW 25 : ... .. . P84 ... ... : ... .. . P7F ... ... : ... .. . ... : ... .. . ... : ... .. . ... ...
ROW 26 : ... .. . ... ... ... : ... .. . ... ... ... : ... .. . ... : ... .. . ... : ... .. . ... ...
ROW 27 : ... .. . P83 ... ... : ... .. . ... ... ... : ... .. . ... : ... .. . ... : ... .. . ... ...
ROW 28 : ... .. . P7D ... ... : ... .. . P81 ... ... : ... .. . ... : ... .. . ... : ... .. . ... ...
ROW 29 : ... .. . P7C ... ... : ... .. . ... ... ... : ... .. . ... : ... .. . ... : ... .. . ... ...
ROW 2A : ... .. . ... ... ... : ... .. . ... ... ... : ... .. . ... : ... .. . ... : ... .. . ... ...
ROW 2B : ... .. . P7D ... ... : ... .. . ... ... ... : ... .. . ... : ... .. . ... : ... .. . ... ...
ROW 2C : ... .. . P80 ... ... : ... .. . P80 ... ... : ... .. . ... : ... .. . ... : ... .. . ... ...
ROW 2D : ... .. . P83 ... ... : ... .. . P7F ... ... : ... .. . ... : ... .. . ... : ... .. . ... ...
ROW 2E : ... .. . P84 ... ... : ... .. . ... ... ... : ... .. . ... : ... .. . ... : ... .. . ... ...
ROW 2F : ... .. . P83 ... ... : ... .. . P80 ... ... : ... .. . ... : ... .. . ... : ... .. . ... ...
ROW 30 : ... .. . P80 ... ... : ... .. . P81 ... ... : ... .. . ... : ... .. . ... : ... .. . ... ...
ROW 31 : ... .. . P7D ... ... : ... .. . ... ... ... : ... .. . ... : ... .. . ... : ... .. . ... ...
ROW 32 : ... .. . P7C ... ... : ... .. . ... ... ... : ... .. . ... : ... .. . ... : ... .. . ... ...
ROW 33 : ... .. . ... ... ... : ... .. . ... ... ... : ... .. . ... : ... .. . ... : ... .. . ... ...
ROW 34 : ... .. . P80 ... ... : ... .. . P7F ... ... : ... .. . ... : ... .. . ... : ... .. . ... ...
ROW 35 : ... .. . P83 ... ... : ... .. . ... ... ... : ... .. . ... : ... .. . ... : ... .. . ... ...
ROW 36 : ... .. . P84 ... ... : ... .. . ... ... ... : ... .. . ... : ... .. . ... : ... .. . ... ...
ROW 37 : ... .. . ... ... ... : ... .. . P80 ... ... : ... .. . ... : ... .. . ... : ... .. . ... ...
ROW 38 : ... .. . P83 ... ... : ... .. . P81 ... ... : ... .. . ... : ... .. . ... : ... .. . ... ...
ROW 39 : ... .. . P80 ... ... : ... .. . ... ... ... : ... .. . ... : ... .. . ... : ... .. . ... ...
ROW 3A : ... .. . P7C ... ... : ... .. . ... ... ... : ... .. . ... : ... .. . ... : ... .. . ... ...
ROW 3B : ... .. . ... ... ... : ... .. . P80 ... ... : ... .. . ... : ... .. . ... : ... .. . ... ...
ROW 3C : ... .. . P7D ... ... : ... .. . P7F ... ... : ... .. . ... : ... .. . ... : ... .. . ... ...
ROW 3D : ... .. . P83 ... ... : ... .. . ... ... ... : ... .. . ... : ... .. . ... : ... .. . ... ...
ROW 3E : ... .. . P84 ... ... : D-2 00 D P8A ... ... : ... .. . ... : ... .. F ... : ... .. . ... ...
ROW 3F : ... .. . P83 ... ... : F#2 00 E P80 ... ... : ... .. . ... : ... .. . ... : ... .. . ... ...
ROW 40 : ... .. . P80 ... ... : ... .. C ... ... ... : ... .. . ... : ... .. 0 ... : ... .. . ... ...
ROW 41 : ... .. . P7D ... ... : ... .. B ... ... ... : ... .. . ... : ... .. . ... : ... .. . ... ...
ROW 42 : ... .. . P7C ... ... : ... .. A ... ... ... : ... .. . ... : ... .. . ... : ... .. . ... ...
ROW 43 : ... .. . ... ... ... : ... .. 9 ... ... ... : ... .. . ... : ... .. . ... : ... .. . ... ...
ROW 44 : ... .. . P7D ... ... : C-2 00 D P8A ... ... : ... .. . ... : ... .. . ... : ... .. . ... ...
ROW 45 : ... .. . P83 ... ... : E-2 00 E P80 ... ... : ... .. . ... : ... .. . ... : ... .. . ... ...
ROW 46 : ... .. . P84 ... ... : ... .. C ... ... ... : ... .. . ... : ... .. . ... : ... .. . ... ...
ROW 47 : ... .. . ... ... ... : ... .. B ... ... ... : ... .. . ... : ... .. . ... : ... .. . ... ...
ROW 48 : ... .. . P83 ... ... : ... .. A ... ... ... : ... .. . ... : ... .. . ... : ... .. . ... ...
ROW 49 : ... .. . P80 ... ... : ... .. 9 ... ... ... : ... .. . ... : ... .. . ... : ... .. . ... ...
ROW 4A : ... .. . P7D ... ... : A#1 00 D P8A ... ... : ... .. . ... : ... .. . ... : ... .. . ... ...
ROW 4B : ... .. . P7C ... ... : D-2 00 E P80 ... ... : ... .. . ... : ... .. . ... : ... .. . ... ...
ROW 4C : ... .. . P7D ... ... : ... .. C ... ... ... : ... .. . ... : ... .. . ... : ... .. . ... ...
ROW 4D : ... .. . P80 ... ... : ... .. B ... ... ... : ... .. . ... : ... .. . ... : ... .. . ... ...
ROW 4E : ... .. . P83 ... ... : ... .. A ... ... ... : ... .. . ... : ... .. . ... : ... .. . ... ...
ROW 4F : ... .. . P84 ... ... : ... .. 9 ... ... ... : ... .. . ... : ... .. . ... : ... .. . ... ...
ROW 50 : ... .. . ... ... ... : A-1 00 D P8A ... ... : ... .. . ... : ... .. . ... : ... .. . ... ...
ROW 51 : ... .. . P80 ... ... : C#2 00 E P80 ... ... : ... .. . ... : ... .. . ... : ... .. . ... ...
ROW 52 : ... .. . P7D ... ... : ... .. C ... ... ... : ... .. . ... : ... .. . ... : ... .. . ... ...
ROW 53 : ... .. . P7C ... ... : ... .. B ... ... ... : ... .. . ... : ... .. . ... : ... .. . ... ...
ROW 54 : ... .. . ... ... ... : ... .. A ... ... ... : ... .. . ... : ... .. . ... : ... .. . ... ...
ROW 55 : ... .. . P7D ... ... : ... .. 9 ... ... ... : ... .. . ... : ... .. . ... : ... .. . ... ...
ROW 56 : G-1 00 D P8A V02 ... : B-2 00 9 ... ... ... : B-3 00 . ... : ... .. . ... : ... .. . ... ...
ROW 57 : B-1 00 E P80 ... ... : ... .. B ... ... ... : ... .. . ... : ... .. . ... : ... .. . ... ...
ROW 58 : ... .. C ... ... ... : ... .. . ... ... ... : ... .. . ... : ... .. . ... : ... .. . ... ...
ROW 59 : ... .. B ... ... ... : ... .. . ... ... ... : ... .. . ... : ... .. . ... : ... .. . ... ...
ROW 5A : ... .. A ... ... ... : ... .. . ... ... ... : ... .. . ... : ... .. . ... : ... .. . ... ...
ROW 5B : ... .. 0 ... ... ... : ... .. . ... ... ... : ... .. . ... : ... .. . ... : ... .. . ... ...
ROW 5C : G-1 00 D P8A ... ... : ... .. . ... ... ... : ... .. . ... : ... .. . ... : ... .. . ... ...
ROW 5D : B-1 00 E P80 ... ... : ... .. . ... ... ... : ... .. . ... : ... .. . ... : ... .. . ... ...
ROW 5E : ... .. C ... ... ... : ... .. . ... ... ... : ... .. . ... : ... .. . ... : ... .. . ... ...
ROW 5F : ... .. B ... ... ... : ... .. . ... ... ... : ... .. . ... : ... .. . ... : ... .. . ... ...
ROW 60 : ... .. 0 ... ... ... : ... .. . P81 ... ... : ... .. . ... : ... .. . ... : ... .. . ... ...
ROW 61 : G-1 00 D P8A ... ... : ... .. . ... ... ... : ... .. . ... : ... .. . ... : ... .. . ... ...
ROW 62 : B-1 00 E P80 ... ... : ... .. . ... ... ... : ... .. . ... : ... .. . ... : ... .. . ... ...
ROW 63 : ... .. C ... ... ... : ... .. . P80 ... ... : ... .. . ... : ... .. . ... : ... .. . ... ...
ROW 64 : ... .. B ... ... ... : ... .. . P7F ... ... : ... .. . ... : ... .. . ... : ... .. . ... ...
ROW 65 : ... .. A ... ... ... : ... .. . ... ... ... : ... .. . ... : ... .. . ... : ... .. . ... ...
ROW 66 : ... .. 9 ... ... ... : ... .. . ... ... ... : ... .. . ... : ... .. . ... : ... .. . ... ...
ROW 67 : ... .. . ... ... ... : ... .. . P80 ... ... : ... .. . ... : ... .. . ... : ... .. . ... ...
ROW 68 : ... .. . ... ... ... : ... .. . P81 ... ... : ... .. . ... : ... .. . ... : ... .. . ... ...
ROW 69 : ... .. . ... ... ... : ... .. . ... ... ... : ... .. . ... : ... .. . ... : ... .. . ... ...
ROW 6A : ... .. . ... ... ... : ... .. . ... ... ... : ... .. . ... : ... .. . ... : ... .. . ... ...
ROW 6B : ... .. . ... ... ... : ... .. A P80 ... ... : ... .. . ... : ... .. . ... : ... .. . ... ...
ROW 6C : ... .. . ... ... ... : ... .. . P7F ... ... : ... .. . ... : ... .. . ... : ... .. . ... ...
ROW 6D : ... .. . ... ... ... : ... .. . ... ... ... : ... .. . ... : ... .. F ... : ... .. . ... ...
ROW 6E : ... .. . ... ... ... : ... .. 9 P80 ... ... : ... .. . ... : ... .. . ... : ... .. . ... ...
ROW 6F : ... .. . ... ... ... : ... .. . ... ... ... : ... .. . ... : ... .. . ... : ... .. . ... ...
ROW 70 : ... .. . ... ... ... : ... .. . ... ... ... : ... .. . ... : ... .. . ... : ... .. . ... ...
ROW 71 : ... .. . ... ... ... : ... .. . ... ... ... : ... .. . ... : ... .. . ... : ... .. . ... ...
ROW 72 : ... .. . ... ... ... : ... .. . ... ... ... : ... .. . ... : ... .. . ... : ... .. . ... ...
ROW 73 : ... .. . ... ... ... : ... .. . ... ... ... : ... .. . ... : ... .. . ... : ... .. . ... ...
ROW 74 : ... .. . ... ... ... : ... .. . ... ... ... : ... .. . ... : ... .. . ... : ... .. . ... ...
ROW 75 : ... .. . ... ... ... : ... .. . ... ... ... : ... .. . ... : ... .. . ... : ... .. . ... ...
ROW 76 : ... .. . ... ... ... : ... .. . ... ... ... : ... .. . ... : ... .. . ... : ... .. . ... ...
ROW 77 : ... .. . ... ... ... : ... .. . ... ... ... : ... .. . ... : ... .. . ... : ... .. . ... ...
ROW 78 : ... .. . ... ... ... : ... .. . ... ... ... : ... .. . ... : ... .. . ... : ... .. . ... ...
ROW 79 : ... .. . ... ... ... : ... .. . ... ... ... : ... .. . ... : ... .. . ... : ... .. . ... ...
ROW 7A : ... .. . ... ... ... : ... .. . ... ... ... : ... .. . ... : ... .. . ... : ... .. . ... ...
ROW 7B : ... .. . ... ... ... : ... .. . ... ... ... : ... .. . ... : ... .. . ... : ... .. . ... ...
ROW 7C : ... .. . ... ... ... : ... .. . ... ... ... : ... .. . ... : ... .. . ... : ... .. . ... ...
ROW 7D : ... .. . ... ... ... : ... .. . ... ... ... : ... .. . ... : ... .. . ... : ... .. . ... ...
ROW 7E : ... .. . ... ... ... : ... .. . ... ... ... : ... .. . ... : ... .. . ... : ... .. . ... ...
ROW 7F : ... .. . ... ... ... : ... .. . ... ... ... : ... .. . ... : ... .. . ... : ... .. . ... ...
ROW 80 : ... .. . ... ... ... : ... .. . ... ... ... : ... .. . ... : ... .. . ... : ... .. . ... ...
ROW 81 : ... .. . ... ... ... : ... .. . ... ... ... : ... .. . ... : ... .. . ... : ... .. . ... ...
ROW 82 : ... .. . ... ... ... : ... .. . ... ... ... : ... .. . ... : ... .. . ... : ... .. . ... ...
ROW 83 : ... .. . ... ... ... : ... .. . ... ... ... : ... .. . ... : ... .. . ... : ... .. . ... ...
ROW 84 : ... .. . ... ... ... : ... .. . ... ... ... : ... .. . ... : ... .. . ... : ... .. . ... ...
ROW 85 : ... .. . ... ... ... : ... .. . ... ... ... : ... .. . ... : ... .. . ... : ... .. . ... ...
ROW 86 : ... .. . ... ... ... : ... .. . ... ... ... : ... .. . ... : ... .. . ... : ... .. . ... ...
ROW 87 : ... .. . ... ... ... : ... .. . ... ... ... : ... .. . ... : ... .. . ... : ... .. . ... ...
ROW 88 : ... .. . ... ... ... : ... .. . ... ... ... : ... .. . ... : ... .. . ... : ... .. . ... ...
ROW 89 : ... .. . ... ... ... : ... .. . ... ... ... : ... .. . ... : ... .. . ... : ... .. . ... ...
ROW 8A : ... .. . ... ... ... : ... .. . ... ... ... : ... .. . ... : ... .. . ... : ... .. . ... ...
ROW 8B : ... .. . ... ... ... : ... .. . ... ... ... : ... .. . ... : ... .. . ... : ... .. . ... ...
ROW 8C : ... .. . ... ... ... : ... .. . ... ... ... : ... .. . ... : ... .. . ... : ... .. . ... ...
ROW 8D : ... .. . ... ... ... : ... .. . ... ... ... : ... .. . ... : ... .. . ... : ... .. . ... ...
ROW 8E : ... .. . ... ... ... : ... .. . ... ... ... : ... .. . ... : ... .. . ... : ... .. . ... ...
ROW 8F : ... .. . ... ... ... : ... .. . ... ... ... : ... .. . ... : ... .. . ... : ... .. . ... ...
ROW 90 : ... .. . ... ... ... : ... .. . ... ... ... : ... .. . ... : ... .. . ... : ... .. . ... ...
ROW 91 : ... .. . ... ... ... : ... .. . ... ... ... : ... .. . ... : ... .. . ... : ... .. . ... ...
ROW 92 : ... .. . ... ... ... : ... .. . ... ... ... : ... .. . ... : ... .. . ... : ... .. . ... ...
ROW 93 : ... .. . ... ... ... : ... .. . ... ... ... : ... .. . ... : ... .. . ... : ... .. . ... ...
ROW 94 : ... .. . ... ... ... : ... .. . ... ... ... : ... .. . ... : ... .. . ... : ... .. . ... ...
ROW 95 : ... .. . ... ... ... : ... .. . ... ... ... : ... .. . ... : ... .. . ... : ... .. . ... ...
ROW 96 : ... .. . ... ... ... : ... .. . ... ... ... : ... .. . ... : ... .. . ... : ... .. . ... ...
ROW 97 : ... .. . ... ... ... : ... .. . ... ... ... : ... .. . ... : ... .. . ... : ... .. . ... ...
ROW 98 : ... .. . ... ... ... : ... .. . ... ... ... : ... .. . ... : ... .. . ... : ... .. . ... ...
ROW 99 : ... .. . ... ... ... : ... .. . ... ... ... : ... .. . ... : ... .. . ... : ... .. . ... ...
ROW 9A : ... .. . ... ... ... : ... .. . ... ... ... : ... .. . ... : ... .. . ... : ... .. . ... ...
ROW 9B : ... .. . ... ... ... : ... .. . ... ... ... : ... .. . ... : ... .. . ... : ... .. . ... ...
ROW 9C : ... .. . ... ... ... : ... .. . ... ... ... : ... .. . ... : ... .. . ... : ... .. . ... ...
ROW 9D : ... .. . ... ... ... : ... .. . ... ... ... : ... .. . ... : ... .. . ... : ... .. . ... ...
ROW 9E : ... .. . ... ... ... : ... .. . ... ... ... : ... .. . ... : ... .. . ... : ... .. . ... ...
ROW 9F : ... .. . ... ... ... : ... .. . ... ... ... : ... .. . ... : ... .. . ... : ... .. . ... ...
ROW A0 : ... .. . ... ... ... : ... .. . ... ... ... : ... .. . ... : ... .. . ... : ... .. . ... ...
ROW A1 : ... .. . ... ... ... : ... .. . ... ... ... : ... .. . ... : ... .. . ... : ... .. . ... ...
ROW A2 : ... .. . ... ... ... : ... .. . ... ... ... : ... .. . ... : ... .. . ... : ... .. . ... ...
ROW A3 : ... .. . ... ... ... : ... .. . ... ... ... : ... .. . ... : ... .. . ... : ... .. . ... ...
ROW A4 : ... .. . ... ... ... : ... .. . ... ... ... : ... .. . ... : ... .. . ... : ... .. . ... ...
ROW A5 : ... .. . ... ... ... : ... .. . ... ... ... : ... .. . ... : ... .. . ... : ... .. . ... ...
ROW A6 : ... .. . ... ... ... : ... .. . ... ... ... : ... .. . ... : ... .. . ... : ... .. . ... ...
ROW A7 : ... .. . ... ... ... : ... .. . ... ... ... : ... .. . ... : ... .. . ... : ... .. . ... ...
ROW A8 : ... .. . ... ... ... : ... .. . ... ... ... : ... .. . ... : ... .. . ... : ... .. . ... ...
ROW A9 : ... .. . ... ... ... : ... .. . ... ... ... : ... .. . ... : ... .. . ... : ... .. . ... ...
ROW AA : ... .. . ... ... ... : ... .. . ... ... ... : ... .. . ... : ... .. . ... : ... .. . ... ...
ROW AB : ... .. . ... ... ... : ... .. . ... ... ... : ... .. . ... : ... .. . ... : ... .. . ... ...
ROW AC : ... .. . ... ... ... : ... .. . ... ... ... : ... .. . ... : ... .. . ... : ... .. . ... ...
ROW AD : ... .. . ... ... ... : ... .. . ... ... ... : ... .. . ... : ... .. . ... : ... .. . ... ...
ROW AE : ... .. . ... ... ... : ... .. . ... ... ... : ... .. . ... : ... .. . ... : ... .. . ... ...
ROW AF : ... .. . ... ... ... : ... .. . ... ... ... : ... .. . ... : ... .. . ... : ... .. . ... ...
ROW B0 : ... .. . ... ... ... : ... .. . ... ... ... : ... .. . ... : ... .. . ... : ... .. . ... ...
ROW B1 : ... .. . ... ... ... : ... .. . ... ... ... : ... .. . ... : ... .. . ... : ... .. . ... ...
ROW B2 : ... .. . ... ... ... : ... .. . ... ... ... : ... .. . ... : ... .. . ... : ... .. . ... ...
ROW B3 : ... .. . ... ... ... : ... .. . ... ... ... : ... .. . ... : ... .. . ... : ... .. . ... ...
ROW B4 : ... .. . ... ... ... : ... .. . ... ... ... : ... .. . ... : ... .. . ... : ... .. . ... ...
ROW B5 : ... .. . ... ... ... : ... .. . ... ... ... : ... .. . ... : ... .. . ... : ... .. . ... ...
ROW B6 : ... .. . ... ... ... : ... .. . ... ... ... : ... .. . ... : ... .. . ... : ... .. . ... ...
ROW B7 : ... .. . ... ... ... : ... .. . ... ... ... : ... .. . ... : ... .. . ... : ... .. . ... ...
ROW B8 : ... .. . ... ... ... : ... .. . ... ... ... : ... .. . ... : ... .. . ... : ... .. . ... ...
ROW B9 : ... .. . ... ... ... : ... .. . ... ... ... : ... .. . ... : ... .. . ... : ... .. . ... ...
ROW BA : ... .. . ... ... ... : ... .. . ... ... ... : ... .. . ... : ... .. . ... : ... .. . ... ...
ROW BB : ... .. . ... ... ... : ... .. . ... ... ... : ... .. . ... : ... .. . ... : ... .. . ... ...
ROW BC : ... .. . ... ... ... : ... .. . ... ... ... : ... .. . ... : ... .. . ... : ... .. . ... ...
ROW BD : ... .. . ... ... ... : ... .. . ... ... ... : ... .. . ... : ... .. . ... : ... .. . ... ...
ROW BE : ... .. . ... ... ... : ... .. . ... ... ... : ... .. . ... : ... .. . ... : ... .. . ... ...
ROW BF : ... .. . ... ... ... : ... .. . ... ... ... : ... .. . ... : ... .. . ... : ... .. . ... ...
ROW C0 : ... .. . ... ... ... : ... .. . ... ... ... : ... .. . ... : ... .. . ... : ... .. . ... ...
ROW C1 : ... .. . ... ... ... : ... .. . ... ... ... : ... .. . ... : ... .. . ... : ... .. . ... ...
ROW C2 : ... .. . ... ... ... : ... .. . ... ... ... : ... .. . ... : ... .. . ... : ... .. . ... ...
ROW C3 : ... .. . ... ... ... : ... .. . ... ... ... : ... .. . ... : ... .. . ... : ... .. . ... ...
ROW C4 : ... .. . ... ... ... : ... .. . ... ... ... : ... .. . ... : ... .. . ... : ... .. . ... ...
ROW C5 : ... .. . ... ... ... : ... .. . ... ... ... : ... .. . ... : ... .. . ... : ... .. . ... ...
ROW C6 : ... .. . ... ... ... : ... .. . ... ... ... : ... .. . ... : ... .. . ... : ... .. . ... ...
ROW C7 : ... .. . ... ... ... : ... .. . ... ... ... : ... .. . ... : ... .. . ... : ... .. . ... ...
ROW C8 : ... .. . ... ... ... : ... .. . ... ... ... : ... .. . ... : ... .. . ... : ... .. . ... ...
ROW C9 : ... .. . ... ... ... : ... .. . ... ... ... : ... .. . ... : ... .. . ... : ... .. . ... ...
ROW CA : ... .. . ... ... ... : ... .. . ... ... ... : ... .. . ... : ... .. . ... : ... .. . ... ...
ROW CB : ... .. . ... ... ... : ... .. . ... ... ... : ... .. . ... : ... .. . ... : ... .. . ... ...
ROW CC : ... .. . ... ... ... : ... .. . ... ... ... : ... .. . ... : ... .. . ... : ... .. . ... ...
ROW CD : ... .. . ... ... ... : ... .. . ... ... ... : ... .. . ... : ... .. . ... : ... .. . ... ...
ROW CE : ... .. . ... ... ... : ... .. . ... ... ... : ... .. . ... : ... .. . ... : ... .. . ... ...
ROW CF : ... .. . ... ... ... : ... .. . ... ... ... : ... .. . ... : ... .. . ... : ... .. . ... ...
ROW D0 : ... .. . ... ... ... : ... .. . ... ... ... : ... .. . ... : ... .. . ... : ... .. . ... ...
ROW D1 : ... .. . ... ... ... : ... .. . ... ... ... : ... .. . ... : ... .. . ... : ... .. . ... ...
ROW D2 : ... .. . ... ... ... : ... .. . ... ... ... : ... .. . ... : ... .. . ... : ... .. . ... ...
ROW D3 : ... .. . ... ... ... : ... .. . ... ... ... : ... .. . ... : ... .. . ... : ... .. . ... ...
ROW D4 : ... .. . ... ... ... : ... .. . ... ... ... : ... .. . ... : ... .. . ... : ... .. . ... ...
ROW D5 : ... .. . ... ... ... : ... .. . ... ... ... : ... .. . ... : ... .. . ... : ... .. . ... ...
ROW D6 : ... .. . ... ... ... : ... .. . ... ... ... : ... .. . ... : ... .. . ... : ... .. . ... ...
ROW D7 : ... .. . ... ... ... : ... .. . ... ... ... : ... .. . ... : ... .. . ... : ... .. . ... ...
ROW D8 : ... .. . ... ... ... : ... .. . ... ... ... : ... .. . ... : ... .. . ... : ... .. . ... ...
ROW D9 : ... .. . ... ... ... : ... .. . ... ... ... : ... .. . ... : ... .. . ... : ... .. . ... ...
ROW DA : ... .. . ... ... ... : ... .. . ... ... ... : ... .. . ... : ... .. . ... : ... .. . ... ...
ROW DB : ... .. . ... ... ... : ... .. . ... ... ... : ... .. . ... : ... .. . ... : ... .. . ... ...
ROW DC : ... .. . ... ... ... : ... .. . ... ... ... : ... .. . ... : ... .. . ... : ... .. . ... ...
ROW DD : ... .. . ... ... ... : ... .. . ... ... ... : ... .. . ... : ... .. . ... : ... .. . ... ...
ROW DE : ... .. . ... ... ... : ... .. . ... ... ... : ... .. . ... : ... .. . ... : ... .. . ... ...
ROW DF : ... .. . ... ... ... : ... .. . ... ... ... : ... .. . ... : ... .. . ... : ... .. . ... ...
ROW E0 : ... .. . ... ... ... : ... .. . ... ... ... : ... .. . ... : ... .. . ... : ... .. . ... ...
ROW E1 : ... .. . ... ... ... : ... .. . ... ... ... : ... .. . ... : ... .. . ... : ... .. . ... ...
ROW E2 : ... .. . ... ... ... : ... .. . ... ... ... : ... .. . ... : ... .. . ... : ... .. . ... ...
ROW E3 : ... .. . ... ... ... : ... .. . ... ... ... : ... .. . ... : ... .. . ... : ... .. . ... ...
ROW E4 : ... .. . ... ... ... : ... .. . ... ... ... : ... .. . ... : ... .. . ... : ... .. . ... ...
ROW E5 : ... .. . ... ... ... : ... .. . ... ... ... : ... .. . ... : ... .. . ... : ... .. . ... ...
ROW E6 : ... .. . ... ... ... : ... .. . ... ... ... : ... .. . ... : ... .. . ... : ... .. . ... ...
ROW E7 : ... .. . ... ... ... : ... .. . ... ... ... : ... .. . ... : ... .. . ... : ... .. . ... ...
ROW E8 : ... .. . ... ... ... : ... .. . ... ... ... : ... .. . ... : ... .. . ... : ... .. . ... ...
ROW E9 : ... .. . ... ... ... : ... .. . ... ... ... : ... .. . ... : ... .. . ... : ... .. . ... ...
ROW EA : ... .. . ... ... ... : ... .. . ... ... ... : ... .. . ... : ... .. . ... : ... .. . ... ...
ROW EB : ... .. . ... ... ... : ... .. . ... ... ... : ... .. . ... : ... .. . ... : ... .. . ... ...
ROW EC : ... .. . ... ... ... : ... .. . ... ... ... : ... .. . ... : ... .. . ... : ... .. . ... ...
ROW ED : ... .. . ... ... ... : ... .. . ... ... ... : ... .. . ... : ... .. . ... : ... .. . ... ...
ROW EE : ... .. . ... ... ... : ... .. . ... ... ... : ... .. . ... : ... .. . ... : ... .. . ... ...
ROW EF : ... .. . ... ... ... : ... .. . ... ... ... : ... .. . ... : ... .. . ... : ... .. . ... ...
ROW F0 : ... .. . ... ... ... : ... .. . ... ... ... : ... .. . ... : ... .. . ... : ... .. . ... ...
ROW F1 : ... .. . ... ... ... : ... .. . ... ... ... : ... .. . ... : ... .. . ... : ... .. . ... ...
ROW F2 : ... .. . ... ... ... : ... .. . ... ... ... : ... .. . ... : ... .. . ... : ... .. . ... ...
ROW F3 : ... .. . ... ... ... : ... .. . ... ... ... : ... .. . ... : ... .. . ... : ... .. . ... ...
ROW F4 : ... .. . ... ... ... : ... .. . ... ... ... : ... .. . ... : ... .. . ... : ... .. . ... ...
ROW F5 : ... .. . ... ... ... : ... .. . ... ... ... : ... .. . ... : ... .. . ... : ... .. . ... ...
ROW F6 : ... .. . ... ... ... : ... .. . ... ... ... : ... .. . ... : ... .. . ... : ... .. . ... ...
ROW F7 : ... .. . ... ... ... : ... .. . ... ... ... : ... .. . ... : ... .. . ... : ... .. . ... ...
ROW F8 : ... .. . ... ... ... : ... .. . ... ... ... : ... .. . ... : ... .. . ... : ... .. . ... ...
ROW F9 : ... .. . ... ... ... : ... .. . ... ... ... : ... .. . ... : ... .. . ... : ... .. . ... ...
ROW FA : ... .. . ... ... ... : ... .. . ... ... ... : ... .. . ... : ... .. . ... : ... .. . ... ...
ROW FB : ... .. . ... ... ... : ... .. . ... ... ... : ... .. . ... : ... .. . ... : ... .. . ... ...
ROW FC : ... .. . ... ... ... : ... .. . ... ... ... : ... .. . ... : ... .. . ... : ... .. . ... ...
ROW FD : ... .. . ... ... ... : ... .. . ... ... ... : ... .. . ... : ... .. . ... : ... .. . ... ...
ROW FE : ... .. . ... ... ... : ... .. . ... ... ... : ... .. . ... : ... .. . ... : ... .. . ... ...
ROW FF : ... .. . ... ... ... : ... .. . ... ... ... : ... .. . ... : ... .. . ... : ... .. . ... ...

# End of export
