# FamiTracker text export 0.4.2

# Song information
TITLE           "Perihelium"
AUTHOR          "Ozzed"
COPYRIGHT       "2015"

# Song comment
COMMENT ""

# Global settings
MACHINE         0
FRAMERATE       0
EXPANSION       0
VIBRATO         1
SPLIT           21

# Macros

# DPCM samples

# Instruments
INST2A03   0    -1  -1  -1  -1  -1 "blank"

# Tracks

TRACK 256   1 150 "New song"
COLUMNS : 3 3 1 1 2

ORDER 00 : 00 00 00 00 00
ORDER 01 : 01 01 01 01 01
ORDER 02 : 02 02 02 02 02
ORDER 03 : 03 03 03 03 03
ORDER 04 : 04 04 04 04 04
ORDER 05 : 05 05 05 05 05
ORDER 06 : 06 06 06 06 06
ORDER 07 : 07 07 07 07 07
ORDER 08 : 08 08 08 08 08
ORDER 09 : 09 09 09 09 09
ORDER 0A : 0A 0A 0A 0A 0A
ORDER 0B : 0B 0B 0B 0B 0B
ORDER 0C : 0C 0C 0C 0C 0C
ORDER 0D : 0D 0D 0D 0D 0D
ORDER 0E : 0E 0E 0E 0E 0E
ORDER 0F : 0F 0F 0F 0F 0F
ORDER 10 : 10 10 10 10 10
ORDER 11 : 11 11 11 11 11
ORDER 12 : 12 12 12 12 12
ORDER 13 : 13 13 13 13 13
ORDER 14 : 14 14 14 14 14
ORDER 15 : 15 15 15 15 15
ORDER 16 : 16 16 16 16 16

PATTERN 00
ROW 00 : --- .. 0 P80 V00 ... : --- .. 0 P80 V00 ... : --- .. . P80 : F-# 00 0 V00 : === 00 . Z00 ...
ROW 01 : G-2 00 F ... V01 ... : C-3 00 F ... V01 ... : C-3 00 . ... : ... .. . ... : ... .. . ... ...
ROW 02 : ... .. E ... ... ... : ... .. E ... ... ... : ... .. . ... : ... .. . ... : ... .. . ... ...
ROW 03 : ... .. . ... ... ... : ... .. . ... ... ... : ... .. . ... : ... .. . ... : ... .. . ... ...
ROW 04 : ... .. . ... ... ... : ... .. . ... ... ... : ... .. . ... : ... .. . ... : ... .. . ... ...
ROW 05 : ... .. D ... ... ... : ... .. D ... ... ... : ... .. . ... : ... .. . ... : ... .. . ... ...
ROW 06 : ... .. . ... ... ... : ... .. . ... ... ... : ... .. . ... : ... .. . ... : ... .. . ... ...
ROW 07 : ... .. . ... ... ... : ... .. . ... ... ... : ... .. . ... : ... .. . ... : ... .. . ... ...
ROW 08 : ... .. C ... ... ... : ... .. C ... ... ... : ... .. . ... : ... .. . ... : ... .. . ... ...
ROW 09 : ... .. . ... ... ... : ... .. . ... ... ... : ... .. . ... : ... .. . ... : ... .. . ... ...
ROW 0A : ... .. . ... ... ... : ... .. . ... ... ... : ... .. . ... : ... .. . ... : ... .. . ... ...
ROW 0B : ... .. B ... ... ... : ... .. B ... ... ... : ... .. . ... : ... .. . ... : ... .. . ... ...
ROW 0C : ... .. . ... ... ... : ... .. . ... ... ... : ... .. . ... : ... .. . ... : ... .. . ... ...
ROW 0D : ... .. . ... ... ... : ... .. . ... ... ... : ... .. . ... : ... .. . ... : ... .. . ... ...
ROW 0E : ... .. A ... ... ... : ... .. A ... ... ... : ... .. . ... : ... .. . ... : ... .. . ... ...
ROW 0F : ... .. . ... ... ... : ... .. . ... ... ... : ... .. . ... : ... .. . ... : ... .. . ... ...
ROW 10 : ... .. . ... ... ... : ... .. . ... ... ... : ... .. . ... : ... .. . ... : ... .. . ... ...
ROW 11 : ... .. 9 ... ... ... : ... .. 9 ... ... ... : ... .. . ... : ... .. . ... : ... .. . ... ...
ROW 12 : ... .. . ... ... ... : ... .. . ... ... ... : ... .. . ... : ... .. . ... : ... .. . ... ...
ROW 13 : ... .. . ... ... ... : ... .. . ... ... ... : ... .. . ... : ... .. . ... : ... .. . ... ...
ROW 14 : ... .. 8 ... ... ... : ... .. 8 ... ... ... : ... .. . ... : ... .. . ... : ... .. . ... ...
ROW 15 : ... .. . ... ... ... : ... .. . ... ... ... : ... .. . ... : ... .. . ... : ... .. . ... ...
ROW 16 : ... .. 7 ... ... ... : ... .. 7 ... ... ... : ... .. . ... : ... .. . ... : ... .. . ... ...
ROW 17 : ... .. . ... ... ... : ... .. . ... ... ... : ... .. . ... : ... .. . ... : ... .. . ... ...
ROW 18 : ... .. 0 ... V00 ... : ... .. 0 ... V00 ... : ... .. . ... : ... .. . ... : ... .. . ... ...
ROW 19 : C-3 00 F P80 V01 ... : E-3 00 F P80 V01 ... : ... .. . ... : ... .. . ... : ... .. . ... ...
ROW 1A : ... .. E ... ... ... : ... .. E ... ... ... : ... .. . ... : ... .. . ... : ... .. . ... ...
ROW 1B : ... .. . ... ... ... : ... .. . ... ... ... : ... .. . ... : ... .. . ... : ... .. . ... ...
ROW 1C : ... .. . ... ... ... : ... .. . ... ... ... : ... .. . ... : ... .. . ... : ... .. . ... ...
ROW 1D : ... .. D ... ... ... : ... .. D ... ... ... : ... .. . ... : ... .. . ... : ... .. . ... ...
ROW 1E : ... .. . ... ... ... : ... .. . ... ... ... : ... .. . ... : ... .. . ... : ... .. . ... ...
ROW 1F : ... .. . ... ... ... : ... .. . ... ... ... : ... .. . ... : ... .. . ... : ... .. . ... ...
ROW 20 : ... .. C ... ... ... : ... .. C ... ... ... : ... .. . ... : ... .. . ... : ... .. . ... ...
ROW 21 : ... .. . ... ... ... : ... .. . ... ... ... : ... .. . ... : ... .. . ... : ... .. . ... ...
ROW 22 : ... .. . ... ... ... : ... .. . ... ... ... : ... .. . ... : ... .. . ... : ... .. . ... ...
ROW 23 : ... .. B ... ... ... : ... .. B ... ... ... : ... .. . ... : ... .. . ... : ... .. . ... ...
ROW 24 : ... .. 0 ... V00 ... : ... .. 0 ... V00 ... : ... .. . ... : ... .. . ... : ... .. . ... ...
ROW 25 : E-3 00 F P80 V01 ... : G-3 00 F P80 V01 ... : ... .. . ... : ... .. . ... : ... .. . ... ...
ROW 26 : ... .. E ... ... ... : ... .. E ... ... ... : ... .. . ... : ... .. . ... : ... .. . ... ...
ROW 27 : ... .. . ... ... ... : ... .. . ... ... ... : ... .. . ... : ... .. . ... : ... .. . ... ...
ROW 28 : ... .. . ... ... ... : ... .. . ... ... ... : ... .. . ... : ... .. . ... : ... .. . ... ...
ROW 29 : ... .. D ... ... ... : ... .. D ... ... ... : ... .. . ... : ... .. . ... : ... .. . ... ...
ROW 2A : ... .. 0 ... V00 ... : ... .. 0 ... V00 ... : ... .. . ... : ... .. . ... : ... .. . ... ...
ROW 2B : E-3 00 F P80 V01 ... : G-3 00 F P80 V01 ... : ... .. . ... : ... .. . ... : ... .. . ... ...
ROW 2C : ... .. E ... ... ... : ... .. E ... ... ... : ... .. . ... : ... .. . ... : ... .. . ... ...
ROW 2D : ... .. . ... ... ... : ... .. . ... ... ... : ... .. . ... : ... .. . ... : ... .. . ... ...
ROW 2E : ... .. . ... ... ... : ... .. . ... ... ... : ... .. . ... : ... .. . ... : ... .. . ... ...
ROW 2F : ... .. D ... ... ... : ... .. D ... ... ... : ... .. . ... : ... .. . ... : ... .. . ... ...
ROW 30 : ... .. 0 ... V00 ... : ... .. 0 ... V00 ... : ... .. . ... : ... .. . ... : ... .. . ... ...
ROW 31 : E-3 00 F P80 V01 ... : G-3 00 F P80 V01 ... : ... .. . ... : ... .. . ... : ... .. . ... ...
ROW 32 : ... .. E ... ... ... : ... .. E ... ... ... : ... .. . ... : ... .. . ... : ... .. . ... ...
ROW 33 : ... .. . ... ... ... : ... .. . ... ... ... : ... .. . ... : ... .. . ... : ... .. . ... ...
ROW 34 : ... .. . ... ... ... : ... .. . ... ... ... : ... .. . ... : ... .. . ... : ... .. . ... ...
ROW 35 : ... .. D ... ... ... : ... .. D ... ... ... : ... .. . ... : ... .. . ... : ... .. . ... ...
ROW 36 : ... .. . ... ... ... : ... .. . ... ... ... : ... .. . ... : ... .. . ... : ... .. . ... ...
ROW 37 : ... .. . ... ... ... : ... .. . ... ... ... : ... .. . ... : ... .. . ... : ... .. . ... ...
ROW 38 : ... .. C ... ... ... : ... .. C ... ... ... : ... .. . ... : ... .. . ... : ... .. . ... ...
ROW 39 : ... .. . ... ... ... : ... .. . ... ... ... : ... .. . ... : ... .. . ... : ... .. . ... ...
ROW 3A : ... .. . ... ... ... : ... .. . ... ... ... : ... .. . ... : ... .. . ... : ... .. . ... ...
ROW 3B : ... .. B ... ... ... : ... .. B ... ... ... : ... .. . ... : ... .. . ... : ... .. . ... ...
ROW 3C : ... .. 0 ... V00 ... : ... .. 0 ... V00 ... : ... .. . ... : ... .. . ... : ... .. . ... ...
ROW 3D : C-3 00 F P80 V01 ... : E-3 00 F P80 V01 ... : ... .. . ... : ... .. . ... : ... .. . ... ...
ROW 3E : ... .. E ... ... ... : ... .. E ... ... ... : ... .. . ... : ... .. . ... : ... .. . ... ...
ROW 3F : ... .. . ... ... ... : ... .. . ... ... ... : ... .. . ... : ... .. . ... : ... .. . ... ...
ROW 40 : ... .. . ... ... ... : ... .. . ... ... ... : ... .. . ... : ... .. . ... : ... .. . ... ...
ROW 41 : ... .. D ... ... ... : ... .. D ... ... ... : ... .. . ... : ... .. . ... : ... .. . ... ...
ROW 42 : ... .. . ... ... ... : ... .. . ... ... ... : ... .. . ... : ... .. . ... : ... .. . ... ...
ROW 43 : ... .. . ... ... ... : ... .. . ... ... ... : ... .. . ... : ... .. . ... : ... .. . ... ...
ROW 44 : ... .. C ... ... ... : ... .. C ... ... ... : ... .. . ... : ... .. . ... : ... .. . ... ...
ROW 45 : ... .. . ... ... ... : ... .. . ... ... ... : ... .. . ... : ... .. . ... : ... .. . ... ...
ROW 46 : ... .. . ... ... ... : ... .. . ... ... ... : ... .. . ... : ... .. . ... : ... .. . ... ...
ROW 47 : ... .. B ... ... ... : ... .. B ... ... ... : ... .. . ... : ... .. . ... : ... .. . ... ...
ROW 48 : ... .. 0 ... V00 ... : ... .. 0 ... V00 ... : ... .. . ... : ... .. . ... : ... .. . ... ...
ROW 49 : G-2 00 F P80 V01 ... : D-3 00 F P80 V01 ... : ... .. . ... : ... .. . ... : ... .. . ... ...
ROW 4A : ... .. E ... ... ... : ... .. E ... ... ... : ... .. . ... : ... .. . ... : ... .. . ... ...
ROW 4B : ... .. . ... ... ... : ... .. . ... ... ... : ... .. . ... : ... .. . ... : ... .. . ... ...
ROW 4C : ... .. . ... ... ... : ... .. . ... ... ... : ... .. . ... : ... .. . ... : ... .. . ... ...
ROW 4D : ... .. D ... ... ... : ... .. D ... ... ... : ... .. . ... : ... .. . ... : ... .. . ... ...
ROW 4E : ... .. . ... ... ... : ... .. . ... ... ... : ... .. . ... : ... .. . ... : ... .. . ... ...
ROW 4F : ... .. . ... ... ... : ... .. . ... ... ... : ... .. . ... : ... .. . ... : ... .. . ... ...
ROW 50 : ... .. C ... ... ... : ... .. C ... ... ... : ... .. . ... : ... .. . ... : ... .. . ... ...
ROW 51 : ... .. . ... ... ... : ... .. . ... ... ... : ... .. . ... : ... .. . ... : ... .. . ... ...
ROW 52 : ... .. . ... ... ... : ... .. . ... ... ... : ... .. . ... : ... .. . ... : ... .. . ... ...
ROW 53 : ... .. B ... ... ... : ... .. B ... ... ... : ... .. . ... : ... .. . ... : ... .. . ... ...
ROW 54 : ... .. 0 ... V00 ... : ... .. 0 ... V00 ... : ... .. . ... : ... .. . ... : ... .. . ... ...
ROW 55 : C-3 00 F P80 V01 ... : E-3 00 F P80 V01 ... : ... .. . ... : ... .. . ... : ... .. . ... ...
ROW 56 : ... .. E ... ... ... : ... .. E ... ... ... : ... .. . ... : ... .. . ... : ... .. . ... ...
ROW 57 : ... .. . ... ... ... : ... .. . ... ... ... : ... .. . ... : ... .. . ... : ... .. . ... ...
ROW 58 : ... .. . ... ... ... : ... .. . ... ... ... : ... .. . ... : ... .. . ... : ... .. . ... ...
ROW 59 : ... .. D ... ... ... : ... .. D ... ... ... : ... .. . ... : ... .. . ... : ... .. . ... ...
ROW 5A : ... .. . ... ... ... : ... .. . ... ... ... : ... .. . ... : ... .. . ... : ... .. . ... ...
ROW 5B : ... .. . ... ... ... : ... .. . ... ... ... : ... .. . ... : ... .. . ... : ... .. . ... ...
ROW 5C : ... .. C ... ... ... : ... .. C ... ... ... : ... .. . ... : ... .. . ... : ... .. . ... ...
ROW 5D : ... .. . ... ... ... : ... .. . ... ... ... : ... .. . ... : ... .. . ... : ... .. . ... ...
ROW 5E : ... .. . ... ... ... : ... .. . ... ... ... : ... .. . ... : ... .. . ... : ... .. . ... ...
ROW 5F : ... .. B ... ... ... : ... .. B ... ... ... : ... .. . ... : ... .. . ... : ... .. . ... ...
ROW 60 : ... .. 0 ... V00 ... : ... .. 0 ... V00 ... : --- .. . ... : ... .. . ... : ... .. . ... ...
ROW 61 : F-3 00 F P80 V01 ... : A-3 00 F P80 V01 ... : F-2 00 . ... : ... .. . ... : ... .. . ... ...
ROW 62 : ... .. E ... ... ... : ... .. E ... ... ... : ... .. . ... : ... .. . ... : ... .. . ... ...
ROW 63 : ... .. . ... ... ... : ... .. . ... ... ... : ... .. . ... : ... .. . ... : ... .. . ... ...
ROW 64 : ... .. . ... ... ... : ... .. . ... ... ... : ... .. . ... : ... .. . ... : ... .. . ... ...
ROW 65 : ... .. D ... ... ... : ... .. D ... ... ... : ... .. . ... : ... .. . ... : ... .. . ... ...
ROW 66 : ... .. . ... ... ... : ... .. . ... ... ... : ... .. . ... : ... .. . ... : ... .. . ... ...
ROW 67 : ... .. . ... ... ... : ... .. . ... ... ... : ... .. . ... : ... .. . ... : ... .. . ... ...
ROW 68 : ... .. C ... ... ... : ... .. C ... ... ... : ... .. . ... : ... .. . ... : ... .. . ... ...
ROW 69 : ... .. . ... ... ... : ... .. . ... ... ... : ... .. . ... : ... .. . ... : ... .. . ... ...
ROW 6A : ... .. . ... ... ... : ... .. . ... ... ... : ... .. . ... : ... .. . ... : ... .. . ... ...
ROW 6B : ... .. B ... ... ... : ... .. B ... ... ... : ... .. . ... : ... .. . ... : ... .. . ... ...
ROW 6C : ... .. . ... ... ... : ... .. . ... ... ... : ... .. . ... : ... .. . ... : ... .. . ... ...
ROW 6D : ... .. . ... ... ... : ... .. . ... ... ... : ... .. . ... : ... .. . ... : ... .. . ... ...
ROW 6E : ... .. A ... ... ... : ... .. A ... ... ... : ... .. . ... : ... .. . ... : ... .. . ... ...
ROW 6F : ... .. . ... ... ... : ... .. . ... ... ... : ... .. . ... : ... .. . ... : ... .. . ... ...
ROW 70 : ... .. . ... ... ... : ... .. . ... ... ... : ... .. . ... : ... .. . ... : ... .. . ... ...
ROW 71 : ... .. 9 ... ... ... : ... .. 9 ... ... ... : ... .. . ... : ... .. . ... : ... .. . ... ...
ROW 72 : ... .. . ... ... ... : ... .. . ... ... ... : ... .. . ... : ... .. . ... : ... .. . ... ...
ROW 73 : ... .. . ... ... ... : ... .. . ... ... ... : ... .. . ... : ... .. . ... : ... .. . ... ...
ROW 74 : ... .. 8 ... ... ... : ... .. 8 ... ... ... : ... .. . ... : ... .. . ... : ... .. . ... ...
ROW 75 : ... .. . ... ... ... : ... .. . ... ... ... : ... .. . ... : ... .. . ... : ... .. . ... ...
ROW 76 : ... .. 7 ... ... ... : ... .. 7 ... ... ... : ... .. . ... : ... .. . ... : ... .. . ... ...
ROW 77 : ... .. . ... ... ... : ... .. . ... ... ... : ... .. . ... : ... .. . ... : ... .. . ... ...
ROW 78 : ... .. 0 ... V00 ... : ... .. 0 ... V00 ... : ... .. . ... : ... .. . ... : ... .. . ... ...
ROW 79 : F-3 00 F P80 V01 ... : A-3 00 F P80 V01 ... : ... .. . ... : ... .. . ... : ... .. . ... ...
ROW 7A : ... .. E ... ... ... : ... .. E ... ... ... : ... .. . ... : ... .. . ... : ... .. . ... ...
ROW 7B : ... .. . ... ... ... : ... .. . ... ... ... : ... .. . ... : ... .. . ... : ... .. . ... ...
ROW 7C : ... .. . ... ... ... : ... .. . ... ... ... : ... .. . ... : ... .. . ... : ... .. . ... ...
ROW 7D : ... .. D ... ... ... : ... .. D ... ... ... : ... .. . ... : ... .. . ... : ... .. . ... ...
ROW 7E : ... .. . ... ... ... : ... .. . ... ... ... : ... .. . ... : ... .. . ... : ... .. . ... ...
ROW 7F : ... .. . ... ... ... : ... .. . ... ... ... : ... .. . ... : ... .. . ... : ... .. . ... ...
ROW 80 : ... .. C ... ... ... : ... .. C ... ... ... : ... .. . ... : ... .. . ... : ... .. . ... ...
ROW 81 : ... .. . ... ... ... : ... .. . ... ... ... : ... .. . ... : ... .. . ... : ... .. . ... ...
ROW 82 : ... .. . ... ... ... : ... .. . ... ... ... : ... .. . ... : ... .. . ... : ... .. . ... ...
ROW 83 : ... .. B ... ... ... : ... .. B ... ... ... : ... .. . ... : ... .. . ... : ... .. . ... ...
ROW 84 : ... .. 0 ... V00 ... : ... .. 0 ... V00 ... : ... .. . ... : ... .. . ... : ... .. . ... ...
ROW 85 : E-3 00 F P80 V01 ... : G-3 00 F P80 V01 ... : ... .. . ... : ... .. . ... : ... .. . ... ...
ROW 86 : ... .. E ... ... ... : ... .. E ... ... ... : ... .. . ... : ... .. . ... : ... .. . ... ...
ROW 87 : ... .. . ... ... ... : ... .. . ... ... ... : ... .. . ... : ... .. . ... : ... .. . ... ...
ROW 88 : ... .. . ... ... ... : ... .. . ... ... ... : ... .. . ... : ... .. . ... : ... .. . ... ...
ROW 89 : ... .. D ... ... ... : ... .. D ... ... ... : ... .. . ... : ... .. . ... : ... .. . ... ...
ROW 8A : ... .. 0 ... V00 ... : ... .. 0 ... V00 ... : ... .. . ... : ... .. . ... : ... .. . ... ...
ROW 8B : E-3 00 F P80 V01 ... : G-3 00 F P80 V01 ... : ... .. . ... : ... .. . ... : ... .. . ... ...
ROW 8C : ... .. E ... ... ... : ... .. E ... ... ... : ... .. . ... : ... .. . ... : ... .. . ... ...
ROW 8D : ... .. . ... ... ... : ... .. . ... ... ... : ... .. . ... : ... .. . ... : ... .. . ... ...
ROW 8E : ... .. . ... ... ... : ... .. . ... ... ... : ... .. . ... : ... .. . ... : ... .. . ... ...
ROW 8F : ... .. D ... ... ... : ... .. D ... ... ... : ... .. . ... : ... .. . ... : ... .. . ... ...
ROW 90 : ... .. 0 ... V00 ... : ... .. 0 ... V00 ... : --- .. . ... : ... .. . ... : ... .. . ... ...
ROW 91 : E-3 00 F P80 V01 ... : G-3 00 F P80 V01 ... : G-2 00 . ... : ... .. . ... : ... .. . ... ...
ROW 92 : ... .. E ... ... ... : ... .. E ... ... ... : ... .. . ... : ... .. . ... : ... .. . ... ...
ROW 93 : ... .. . ... ... ... : ... .. . ... ... ... : ... .. . ... : ... .. . ... : ... .. . ... ...
ROW 94 : ... .. . ... ... ... : ... .. . ... ... ... : ... .. . ... : ... .. . ... : ... .. . ... ...
ROW 95 : ... .. D ... ... ... : ... .. D ... ... ... : ... .. . ... : ... .. . ... : ... .. . ... ...
ROW 96 : ... .. . ... ... ... : ... .. . ... ... ... : ... .. . ... : ... .. . ... : ... .. . ... ...
ROW 97 : ... .. . ... ... ... : ... .. . ... ... ... : ... .. . ... : ... .. . ... : ... .. . ... ...
ROW 98 : ... .. C ... ... ... : ... .. C ... ... ... : ... .. . ... : ... .. . ... : ... .. . ... ...
ROW 99 : ... .. . ... ... ... : ... .. . ... ... ... : ... .. . ... : ... .. . ... : ... .. . ... ...
ROW 9A : ... .. . ... ... ... : ... .. . ... ... ... : ... .. . ... : ... .. . ... : ... .. . ... ...
ROW 9B : ... .. B ... ... ... : ... .. B ... ... ... : ... .. . ... : ... .. . ... : ... .. . ... ...
ROW 9C : ... .. 0 ... V00 ... : ... .. 0 ... V00 ... : ... .. . ... : ... .. . ... : ... .. . ... ...
ROW 9D : C-3 00 F P80 V01 ... : E-3 00 F P80 V01 ... : ... .. . ... : ... .. . ... : ... .. . ... ...
ROW 9E : ... .. E ... ... ... : ... .. E ... ... ... : ... .. . ... : ... .. . ... : ... .. . ... ...
ROW 9F : ... .. . ... ... ... : ... .. . ... ... ... : ... .. . ... : ... .. . ... : ... .. . ... ...
ROW A0 : ... .. . ... ... ... : ... .. . ... ... ... : ... .. . ... : ... .. . ... : ... .. . ... ...
ROW A1 : ... .. D ... ... ... : ... .. D ... ... ... : ... .. . ... : ... .. . ... : ... .. . ... ...
ROW A2 : ... .. . ... ... ... : ... .. . ... ... ... : ... .. . ... : ... .. . ... : ... .. . ... ...
ROW A3 : ... .. . ... ... ... : ... .. . ... ... ... : ... .. . ... : ... .. . ... : ... .. . ... ...
ROW A4 : ... .. C ... ... ... : ... .. C ... ... ... : ... .. . ... : ... .. . ... : ... .. . ... ...
ROW A5 : ... .. . ... ... ... : ... .. . ... ... ... : ... .. . ... : ... .. . ... : ... .. . ... ...
ROW A6 : ... .. . ... ... ... : ... .. . ... ... ... : ... .. . ... : ... .. . ... : ... .. . ... ...
ROW A7 : ... .. B ... ... ... : ... .. B ... ... ... : ... .. . ... : ... .. . ... : ... .. . ... ...
ROW A8 : ... .. 0 ... V00 ... : ... .. 0 ... V00 ... : ... .. . ... : ... .. . ... : ... .. . ... ...
ROW A9 : G-2 00 F P80 V01 ... : D-3 00 F P80 V01 ... : ... .. . ... : ... .. . ... : ... .. . ... ...
ROW AA : ... .. E ... ... ... : ... .. E ... ... ... : ... .. . ... : ... .. . ... : ... .. . ... ...
ROW AB : ... .. . ... ... ... : ... .. . ... ... ... : ... .. . ... : ... .. . ... : ... .. . ... ...
ROW AC : ... .. . ... ... ... : ... .. . ... ... ... : ... .. . ... : ... .. . ... : ... .. . ... ...
ROW AD : ... .. D ... ... ... : ... .. D ... ... ... : ... .. . ... : ... .. . ... : ... .. . ... ...
ROW AE : ... .. . ... ... ... : ... .. . ... ... ... : ... .. . ... : ... .. . ... : ... .. . ... ...
ROW AF : ... .. . ... ... ... : ... .. . ... ... ... : ... .. . ... : ... .. . ... : ... .. . ... ...
ROW B0 : ... .. C ... ... ... : ... .. C ... ... ... : ... .. . ... : ... .. . ... : ... .. . ... ...
ROW B1 : ... .. . ... ... ... : ... .. . ... ... ... : ... .. . ... : ... .. . ... : ... .. . ... ...
ROW B2 : ... .. . ... ... ... : ... .. . ... ... ... : ... .. . ... : ... .. . ... : ... .. . ... ...
ROW B3 : ... .. B ... ... ... : ... .. B ... ... ... : ... .. . ... : ... .. . ... : ... .. . ... ...
ROW B4 : ... .. 0 ... V00 ... : ... .. 0 ... V00 ... : ... .. . ... : ... .. . ... : ... .. . ... ...
ROW B5 : C-3 00 F P80 V01 ... : E-3 00 F P80 V01 ... : ... .. . ... : ... .. . ... : ... .. . ... ...
ROW B6 : ... .. E ... ... ... : ... .. E ... ... ... : ... .. . ... : ... .. . ... : ... .. . ... ...
ROW B7 : ... .. . ... ... ... : ... .. . ... ... ... : ... .. . ... : ... .. . ... : ... .. . ... ...
ROW B8 : ... .. . ... ... ... : ... .. . ... ... ... : ... .. . ... : ... .. . ... : ... .. . ... ...
ROW B9 : ... .. D ... ... ... : ... .. D ... ... ... : ... .. . ... : ... .. . ... : ... .. . ... ...
ROW BA : ... .. . ... ... ... : ... .. . ... ... ... : ... .. . ... : ... .. . ... : ... .. . ... ...
ROW BB : ... .. . ... ... ... : ... .. . ... ... ... : ... .. . ... : ... .. . ... : ... .. . ... ...
ROW BC : ... .. C ... ... ... : ... .. C ... ... ... : ... .. . ... : ... .. . ... : ... .. . ... ...
ROW BD : ... .. . ... ... ... : ... .. . ... ... ... : ... .. . ... : ... .. . ... : ... .. . ... ...
ROW BE : ... .. . ... ... ... : ... .. . ... ... ... : ... .. . ... : ... .. . ... : ... .. . ... ...
ROW BF : ... .. B ... ... ... : ... .. B ... ... ... : ... .. . ... : ... .. . ... : ... .. . ... ...
ROW C0 : ... .. 0 ... V00 ... : ... .. 0 ... V00 ... : --- .. . ... : ... .. . ... : ... .. . ... ...
ROW C1 : G-2 00 F P80 V01 ... : C-3 00 F P80 V01 ... : C-3 00 . ... : ... .. . ... : ... .. . ... ...
ROW C2 : ... .. E ... ... ... : ... .. E ... ... ... : ... .. . ... : ... .. . ... : ... .. . ... ...
ROW C3 : ... .. . ... ... ... : ... .. . ... ... ... : ... .. . ... : ... .. . ... : ... .. . ... ...
ROW C4 : ... .. . ... ... ... : ... .. . ... ... ... : ... .. . ... : ... .. . ... : ... .. . ... ...
ROW C5 : ... .. D ... ... ... : ... .. D ... ... ... : ... .. . ... : ... .. . ... : ... .. . ... ...
ROW C6 : ... .. . ... ... ... : ... .. . ... ... ... : ... .. . ... : ... .. . ... : ... .. . ... ...
ROW C7 : ... .. . ... ... ... : ... .. . ... ... ... : ... .. . ... : ... .. . ... : ... .. . ... ...
ROW C8 : ... .. C ... ... ... : ... .. C ... ... ... : ... .. . ... : ... .. . ... : ... .. . ... ...
ROW C9 : ... .. . ... ... ... : ... .. . ... ... ... : ... .. . ... : ... .. . ... : ... .. . ... ...
ROW CA : ... .. . ... ... ... : ... .. . ... ... ... : ... .. . ... : ... .. . ... : ... .. . ... ...
ROW CB : ... .. B ... ... ... : ... .. B ... ... ... : ... .. . ... : ... .. . ... : ... .. . ... ...
ROW CC : ... .. . ... ... ... : ... .. . ... ... ... : ... .. . ... : ... .. . ... : ... .. . ... ...
ROW CD : ... .. . ... ... ... : ... .. . ... ... ... : ... .. . ... : ... .. . ... : ... .. . ... ...
ROW CE : ... .. A ... ... ... : ... .. A ... ... ... : ... .. . ... : ... .. . ... : ... .. . ... ...
ROW CF : ... .. . ... ... ... : ... .. . ... ... ... : ... .. . ... : ... .. . ... : ... .. . ... ...
ROW D0 : ... .. . ... ... ... : ... .. . ... ... ... : ... .. . ... : ... .. . ... : ... .. . ... ...
ROW D1 : ... .. 9 ... ... ... : ... .. 9 ... ... ... : ... .. . ... : ... .. . ... : ... .. . ... ...
ROW D2 : ... .. . ... ... ... : ... .. . ... ... ... : ... .. . ... : ... .. . ... : ... .. . ... ...
ROW D3 : ... .. . ... ... ... : ... .. . ... ... ... : ... .. . ... : ... .. . ... : ... .. . ... ...
ROW D4 : ... .. 8 ... ... ... : ... .. 8 ... ... ... : ... .. . ... : ... .. . ... : ... .. . ... ...
ROW D5 : ... .. . ... ... ... : ... .. . ... ... ... : ... .. . ... : ... .. . ... : ... .. . ... ...
ROW D6 : ... .. 7 ... ... ... : ... .. 7 ... ... ... : ... .. . ... : ... .. . ... : ... .. . ... ...
ROW D7 : ... .. . ... ... ... : ... .. . ... ... ... : ... .. . ... : ... .. . ... : ... .. . ... ...
ROW D8 : ... .. 0 ... V00 ... : ... .. 0 ... V00 ... : ... .. . ... : ... .. . ... : ... .. . ... ...
ROW D9 : C-3 00 F P80 V01 ... : E-3 00 F P80 V01 ... : ... .. . ... : ... .. . ... : ... .. . ... ...
ROW DA : ... .. E ... ... ... : ... .. E ... ... ... : ... .. . ... : ... .. . ... : ... .. . ... ...
ROW DB : ... .. . ... ... ... : ... .. . ... ... ... : ... .. . ... : ... .. . ... : ... .. . ... ...
ROW DC : ... .. . ... ... ... : ... .. . ... ... ... : ... .. . ... : ... .. . ... : ... .. . ... ...
ROW DD : ... .. D ... ... ... : ... .. D ... ... ... : ... .. . ... : ... .. . ... : ... .. . ... ...
ROW DE : ... .. . ... ... ... : ... .. . ... ... ... : ... .. . ... : ... .. . ... : ... .. . ... ...
ROW DF : ... .. . ... ... ... : ... .. . ... ... ... : ... .. . ... : ... .. . ... : ... .. . ... ...
ROW E0 : ... .. C ... ... ... : ... .. C ... ... ... : ... .. . ... : ... .. . ... : ... .. . ... ...
ROW E1 : ... .. . ... ... ... : ... .. . ... ... ... : ... .. . ... : ... .. . ... : ... .. . ... ...
ROW E2 : ... .. . ... ... ... : ... .. . ... ... ... : ... .. . ... : ... .. . ... : ... .. . ... ...
ROW E3 : ... .. B ... ... ... : ... .. B ... ... ... : ... .. . ... : ... .. . ... : ... .. . ... ...
ROW E4 : ... .. 0 ... V00 ... : ... .. 0 ... V00 ... : ... .. . ... : ... .. . ... : ... .. . ... ...
ROW E5 : E-3 00 F P80 V01 ... : G-3 00 F P80 V01 ... : ... .. . ... : ... .. . ... : ... .. . ... ...
ROW E6 : ... .. E ... ... ... : ... .. E ... ... ... : ... .. . ... : ... .. . ... : ... .. . ... ...
ROW E7 : ... .. . ... ... ... : ... .. . ... ... ... : ... .. . ... : ... .. . ... : ... .. . ... ...
ROW E8 : ... .. . ... ... ... : ... .. . ... ... ... : ... .. . ... : ... .. . ... : ... .. . ... ...
ROW E9 : ... .. D ... ... ... : ... .. D ... ... ... : ... .. . ... : ... .. . ... : ... .. . ... ...
ROW EA : ... .. 0 ... V00 ... : ... .. 0 ... V00 ... : ... .. . ... : ... .. . ... : ... .. . ... ...
ROW EB : E-3 00 F P80 V01 ... : G-3 00 F P80 V01 ... : ... .. . ... : ... .. . ... : ... .. . ... ...
ROW EC : ... .. E ... ... ... : ... .. E ... ... ... : ... .. . ... : ... .. . ... : ... .. . ... ...
ROW ED : ... .. . ... ... ... : ... .. . ... ... ... : ... .. . ... : ... .. . ... : ... .. . ... ...
ROW EE : ... .. . ... ... ... : ... .. . ... ... ... : ... .. . ... : ... .. . ... : ... .. . ... ...
ROW EF : ... .. D ... ... ... : ... .. D ... ... ... : ... .. . ... : ... .. . ... : ... .. . ... ...
ROW F0 : ... .. 0 ... V00 ... : ... .. 0 ... V00 ... : ... .. . ... : ... .. . ... : ... .. . ... ...
ROW F1 : E-3 00 F P80 V01 ... : G-3 00 F P80 V01 ... : ... .. . ... : ... .. . ... : ... .. . ... ...
ROW F2 : ... .. E ... ... ... : ... .. E ... ... ... : ... .. . ... : ... .. . ... : ... .. . ... ...
ROW F3 : ... .. . ... ... ... : ... .. . ... ... ... : ... .. . ... : ... .. . ... : ... .. . ... ...
ROW F4 : ... .. . ... ... ... : ... .. . ... ... ... : ... .. . ... : ... .. . ... : ... .. . ... ...
ROW F5 : ... .. D ... ... ... : ... .. D ... ... ... : ... .. . ... : ... .. . ... : ... .. . ... ...
ROW F6 : ... .. . ... ... ... : ... .. . ... ... ... : ... .. . ... : ... .. . ... : ... .. . ... ...
ROW F7 : ... .. . ... ... ... : ... .. . ... ... ... : ... .. . ... : ... .. . ... : ... .. . ... ...
ROW F8 : ... .. C ... ... ... : ... .. C ... ... ... : ... .. . ... : ... .. . ... : ... .. . ... ...
ROW F9 : ... .. . ... ... ... : ... .. . ... ... ... : ... .. . ... : ... .. . ... : ... .. . ... ...
ROW FA : ... .. . ... ... ... : ... .. . ... ... ... : ... .. . ... : ... .. . ... : ... .. . ... ...
ROW FB : ... .. B ... ... ... : ... .. B ... ... ... : ... .. . ... : ... .. . ... : ... .. . ... ...
ROW FC : ... .. 0 ... V00 ... : ... .. 0 ... V00 ... : ... .. . ... : ... .. . ... : ... .. . ... ...
ROW FD : C-3 00 F P80 V01 ... : E-3 00 F P80 V01 ... : ... .. . ... : ... .. . ... : ... .. . ... ...
ROW FE : ... .. E ... ... ... : ... .. E ... ... ... : ... .. . ... : ... .. . ... : ... .. . ... ...
ROW FF : ... .. . ... ... ... : ... .. . ... ... ... : ... .. . ... : ... .. . ... : ... .. . ... ...

PATTERN 01
ROW 00 : ... .. . ... ... ... : ... .. . ... ... ... : ... .. . ... : ... .. . ... : ... .. . ... ...
ROW 01 : ... .. D ... ... ... : ... .. D ... ... ... : ... .. . ... : ... .. . ... : ... .. . ... ...
ROW 02 : ... .. . ... ... ... : ... .. . ... ... ... : ... .. . ... : ... .. . ... : ... .. . ... ...
ROW 03 : ... .. . ... ... ... : ... .. . ... ... ... : ... .. . ... : ... .. . ... : ... .. . ... ...
ROW 04 : ... .. C ... ... ... : ... .. C ... ... ... : ... .. . ... : ... .. . ... : ... .. . ... ...
ROW 05 : ... .. . ... ... ... : ... .. . ... ... ... : ... .. . ... : ... .. . ... : ... .. . ... ...
ROW 06 : ... .. . ... ... ... : ... .. . ... ... ... : ... .. . ... : ... .. . ... : ... .. . ... ...
ROW 07 : ... .. B ... ... ... : ... .. B ... ... ... : ... .. . ... : ... .. . ... : ... .. . ... ...
ROW 08 : ... .. 0 ... V00 ... : ... .. 0 ... V00 ... : ... .. . ... : ... .. . ... : ... .. . ... ...
ROW 09 : G-2 00 F P80 V01 ... : D-3 00 F P80 V01 ... : ... .. . ... : ... .. . ... : ... .. . ... ...
ROW 0A : ... .. E ... ... ... : ... .. E ... ... ... : ... .. . ... : ... .. . ... : ... .. . ... ...
ROW 0B : ... .. . ... ... ... : ... .. . ... ... ... : ... .. . ... : ... .. . ... : ... .. . ... ...
ROW 0C : ... .. . ... ... ... : ... .. . ... ... ... : ... .. . ... : ... .. . ... : ... .. . ... ...
ROW 0D : ... .. D ... ... ... : ... .. D ... ... ... : ... .. . ... : ... .. . ... : ... .. . ... ...
ROW 0E : ... .. . ... ... ... : ... .. . ... ... ... : ... .. . ... : ... .. . ... : ... .. . ... ...
ROW 0F : ... .. . ... ... ... : ... .. . ... ... ... : ... .. . ... : ... .. . ... : ... .. . ... ...
ROW 10 : ... .. C ... ... ... : ... .. C ... ... ... : ... .. . ... : ... .. . ... : ... .. . ... ...
ROW 11 : ... .. . ... ... ... : ... .. . ... ... ... : ... .. . ... : ... .. . ... : ... .. . ... ...
ROW 12 : ... .. . ... ... ... : ... .. . ... ... ... : ... .. . ... : ... .. . ... : ... .. . ... ...
ROW 13 : ... .. B ... ... ... : ... .. B ... ... ... : ... .. . ... : ... .. . ... : ... .. . ... ...
ROW 14 : ... .. 0 ... V00 ... : ... .. 0 ... V00 ... : ... .. . ... : ... .. . ... : ... .. . ... ...
ROW 15 : C-3 00 F P80 V01 ... : E-3 00 F P80 V01 ... : ... .. . ... : ... .. . ... : ... .. . ... ...
ROW 16 : ... .. E ... ... ... : ... .. E ... ... ... : ... .. . ... : ... .. . ... : ... .. . ... ...
ROW 17 : ... .. . ... ... ... : ... .. . ... ... ... : ... .. . ... : ... .. . ... : ... .. . ... ...
ROW 18 : ... .. . ... ... ... : ... .. . ... ... ... : ... .. . ... : ... .. . ... : ... .. . ... ...
ROW 19 : ... .. D ... ... ... : ... .. D ... ... ... : ... .. . ... : ... .. . ... : ... .. . ... ...
ROW 1A : ... .. . ... ... ... : ... .. . ... ... ... : ... .. . ... : ... .. . ... : ... .. . ... ...
ROW 1B : ... .. . ... ... ... : ... .. . ... ... ... : ... .. . ... : ... .. . ... : ... .. . ... ...
ROW 1C : ... .. C ... ... ... : ... .. C ... ... ... : ... .. . ... : ... .. . ... : ... .. . ... ...
ROW 1D : ... .. . ... ... ... : ... .. . ... ... ... : ... .. . ... : ... .. . ... : ... .. . ... ...
ROW 1E : ... .. . ... ... ... : ... .. . ... ... ... : ... .. . ... : ... .. . ... : ... .. . ... ...
ROW 1F : ... .. B ... ... ... : ... .. B ... ... ... : ... .. . ... : ... .. . ... : ... .. . ... ...
ROW 20 : ... .. 0 ... V00 ... : ... .. 0 ... V00 ... : --- .. . ... : ... .. . ... : ... .. . ... ...
ROW 21 : F-3 00 F P80 V01 ... : A-3 00 F P80 V01 ... : F-2 00 . ... : ... .. . ... : ... .. . ... ...
ROW 22 : ... .. E ... ... ... : ... .. E ... ... ... : ... .. . ... : ... .. . ... : ... .. . ... ...
ROW 23 : ... .. . ... ... ... : ... .. . ... ... ... : ... .. . ... : ... .. . ... : ... .. . ... ...
ROW 24 : ... .. . ... ... ... : ... .. . ... ... ... : ... .. . ... : ... .. . ... : ... .. . ... ...
ROW 25 : ... .. D ... ... ... : ... .. D ... ... ... : ... .. . ... : ... .. . ... : ... .. . ... ...
ROW 26 : ... .. . ... ... ... : ... .. . ... ... ... : ... .. . ... : ... .. . ... : ... .. . ... ...
ROW 27 : ... .. . ... ... ... : ... .. . ... ... ... : ... .. . ... : ... .. . ... : ... .. . ... ...
ROW 28 : ... .. C ... ... ... : ... .. C ... ... ... : ... .. . ... : ... .. . ... : ... .. . ... ...
ROW 29 : ... .. . ... ... ... : ... .. . ... ... ... : ... .. . ... : ... .. . ... : ... .. . ... ...
ROW 2A : ... .. . ... ... ... : ... .. . ... ... ... : ... .. . ... : ... .. . ... : ... .. . ... ...
ROW 2B : ... .. B ... ... ... : ... .. B ... ... ... : ... .. . ... : ... .. . ... : ... .. . ... ...
ROW 2C : ... .. . ... ... ... : ... .. . ... ... ... : ... .. . ... : ... .. . ... : ... .. . ... ...
ROW 2D : ... .. . ... ... ... : ... .. . ... ... ... : ... .. . ... : ... .. . ... : ... .. . ... ...
ROW 2E : ... .. A ... ... ... : ... .. A ... ... ... : ... .. . ... : ... .. . ... : ... .. . ... ...
ROW 2F : ... .. . ... ... ... : ... .. . ... ... ... : ... .. . ... : ... .. . ... : ... .. . ... ...
ROW 30 : ... .. . ... ... ... : ... .. . ... ... ... : ... .. . ... : ... .. . ... : ... .. . ... ...
ROW 31 : ... .. 9 ... ... ... : ... .. 9 ... ... ... : ... .. . ... : ... .. . ... : ... .. . ... ...
ROW 32 : ... .. . ... ... ... : ... .. . ... ... ... : ... .. . ... : ... .. . ... : ... .. . ... ...
ROW 33 : ... .. . ... ... ... : ... .. . ... ... ... : ... .. . ... : ... .. . ... : ... .. . ... ...
ROW 34 : ... .. 8 ... ... ... : ... .. 8 ... ... ... : ... .. . ... : ... .. . ... : ... .. . ... ...
ROW 35 : ... .. . ... ... ... : ... .. . ... ... ... : ... .. . ... : ... .. . ... : ... .. . ... ...
ROW 36 : ... .. 7 ... ... ... : ... .. 7 ... ... ... : ... .. . ... : ... .. . ... : ... .. . ... ...
ROW 37 : ... .. . ... ... ... : ... .. . ... ... ... : ... .. . ... : ... .. . ... : ... .. . ... ...
ROW 38 : ... .. 0 ... V00 ... : ... .. 0 ... V00 ... : ... .. . ... : ... .. . ... : ... .. . ... ...
ROW 39 : F-3 00 F P80 V01 ... : A-3 00 F P80 V01 ... : ... .. . ... : ... .. . ... : ... .. . ... ...
ROW 3A : ... .. E ... ... ... : ... .. E ... ... ... : ... .. . ... : ... .. . ... : ... .. . ... ...
ROW 3B : ... .. . ... ... ... : ... .. . ... ... ... : ... .. . ... : ... .. . ... : ... .. . ... ...
ROW 3C : ... .. . ... ... ... : ... .. . ... ... ... : ... .. . ... : ... .. . ... : ... .. . ... ...
ROW 3D : ... .. D ... ... ... : ... .. D ... ... ... : ... .. . ... : ... .. . ... : ... .. . ... ...
ROW 3E : ... .. . ... ... ... : ... .. . ... ... ... : ... .. . ... : ... .. . ... : ... .. . ... ...
ROW 3F : ... .. . ... ... ... : ... .. . ... ... ... : ... .. . ... : ... .. . ... : ... .. . ... ...
ROW 40 : ... .. C ... ... ... : ... .. C ... ... ... : ... .. . ... : ... .. . ... : ... .. . ... ...
ROW 41 : ... .. . ... ... ... : ... .. . ... ... ... : ... .. . ... : ... .. . ... : ... .. . ... ...
ROW 42 : ... .. . ... ... ... : ... .. . ... ... ... : ... .. . ... : ... .. . ... : ... .. . ... ...
ROW 43 : ... .. B ... ... ... : ... .. B ... ... ... : ... .. . ... : ... .. . ... : ... .. . ... ...
ROW 44 : ... .. 0 ... V00 ... : ... .. 0 ... V00 ... : ... .. . ... : ... .. . ... : ... .. . ... ...
ROW 45 : G-3 00 F P80 V01 ... : B-3 00 F P80 V01 ... : ... .. . ... : ... .. . ... : ... .. . ... ...
ROW 46 : ... .. E ... ... ... : ... .. E ... ... ... : ... .. . ... : ... .. . ... : ... .. . ... ...
ROW 47 : ... .. . ... ... ... : ... .. . ... ... ... : ... .. . ... : ... .. . ... : ... .. . ... ...
ROW 48 : ... .. . ... ... ... : ... .. . ... ... ... : ... .. . ... : ... .. . ... : ... .. . ... ...
ROW 49 : ... .. D ... ... ... : ... .. D ... ... ... : ... .. . ... : ... .. . ... : ... .. . ... ...
ROW 4A : ... .. 0 ... V00 ... : ... .. 0 ... V00 ... : ... .. . ... : ... .. . ... : ... .. . ... ...
ROW 4B : G-3 00 F P80 V01 ... : B-3 00 F P80 V01 ... : ... .. . ... : ... .. . ... : ... .. . ... ...
ROW 4C : ... .. E ... ... ... : ... .. E ... ... ... : ... .. . ... : ... .. . ... : ... .. . ... ...
ROW 4D : ... .. . ... ... ... : ... .. . ... ... ... : ... .. . ... : ... .. . ... : ... .. . ... ...
ROW 4E : ... .. . ... ... ... : ... .. . ... ... ... : ... .. . ... : ... .. . ... : ... .. . ... ...
ROW 4F : ... .. D ... ... ... : ... .. D ... ... ... : ... .. . ... : ... .. . ... : ... .. . ... ...
ROW 50 : ... .. 0 ... V00 ... : ... .. 0 ... V00 ... : --- .. . ... : ... .. . ... : ... .. . ... ...
ROW 51 : G-3 00 F P80 V01 ... : C-4 00 F P80 V01 ... : G-2 00 . ... : ... .. . ... : ... .. . ... ...
ROW 52 : ... .. E ... ... ... : ... .. E ... ... ... : ... .. . ... : ... .. . ... : ... .. . ... ...
ROW 53 : ... .. . ... ... ... : ... .. . ... ... ... : ... .. . ... : ... .. . ... : ... .. . ... ...
ROW 54 : ... .. . ... ... ... : ... .. . ... ... ... : ... .. . ... : ... .. . ... : ... .. . ... ...
ROW 55 : ... .. D ... ... ... : ... .. D ... ... ... : ... .. . ... : ... .. . ... : ... .. . ... ...
ROW 56 : ... .. . ... ... ... : ... .. . ... ... ... : ... .. . ... : ... .. . ... : ... .. . ... ...
ROW 57 : ... .. . ... ... ... : ... .. . ... ... ... : ... .. . ... : ... .. . ... : ... .. . ... ...
ROW 58 : ... .. C ... ... ... : ... .. C ... ... ... : ... .. . ... : ... .. . ... : ... .. . ... ...
ROW 59 : ... .. . ... ... ... : ... .. . ... ... ... : ... .. . ... : ... .. . ... : ... .. . ... ...
ROW 5A : ... .. . ... ... ... : ... .. . ... ... ... : ... .. . ... : ... .. . ... : ... .. . ... ...
ROW 5B : ... .. B ... ... ... : ... .. B ... ... ... : ... .. . ... : ... .. . ... : ... .. . ... ...
ROW 5C : ... .. 0 ... V00 ... : ... .. 0 ... V00 ... : ... .. . ... : ... .. . ... : ... .. . ... ...
ROW 5D : E-3 00 F P80 V01 ... : G-3 00 F P80 V01 ... : ... .. . ... : ... .. . ... : ... .. . ... ...
ROW 5E : ... .. E ... ... ... : ... .. E ... ... ... : ... .. . ... : ... .. . ... : ... .. . ... ...
ROW 5F : ... .. . ... ... ... : ... .. . ... ... ... : ... .. . ... : ... .. . ... : ... .. . ... ...
ROW 60 : ... .. . ... ... ... : ... .. . ... ... ... : ... .. . ... : ... .. . ... : ... .. . ... ...
ROW 61 : ... .. D ... ... ... : ... .. D ... ... ... : ... .. . ... : ... .. . ... : ... .. . ... ...
ROW 62 : ... .. . ... ... ... : ... .. . ... ... ... : ... .. . ... : ... .. . ... : ... .. . ... ...
ROW 63 : ... .. . ... ... ... : ... .. . ... ... ... : ... .. . ... : ... .. . ... : ... .. . ... ...
ROW 64 : ... .. C ... ... ... : ... .. C ... ... ... : ... .. . ... : ... .. . ... : ... .. . ... ...
ROW 65 : ... .. . ... ... ... : ... .. . ... ... ... : ... .. . ... : ... .. . ... : ... .. . ... ...
ROW 66 : ... .. . ... ... ... : ... .. . ... ... ... : ... .. . ... : ... .. . ... : ... .. . ... ...
ROW 67 : ... .. B ... ... ... : ... .. B ... ... ... : ... .. . ... : ... .. . ... : ... .. . ... ...
ROW 68 : ... .. 0 ... V00 ... : ... .. 0 ... V00 ... : ... .. . ... : ... .. . ... : ... .. . ... ...
ROW 69 : C-3 00 F P80 V01 ... : F-3 00 F P80 V01 ... : ... .. . ... : ... .. . ... : ... .. . ... ...
ROW 6A : ... .. E ... ... ... : ... .. E ... ... ... : ... .. . ... : ... .. . ... : ... .. . ... ...
ROW 6B : ... .. . ... ... ... : ... .. . ... ... ... : ... .. . ... : ... .. . ... : ... .. . ... ...
ROW 6C : ... .. . ... ... ... : ... .. . ... ... ... : ... .. . ... : ... .. . ... : ... .. . ... ...
ROW 6D : ... .. D ... ... ... : ... .. D ... ... ... : ... .. . ... : ... .. . ... : ... .. . ... ...
ROW 6E : ... .. . ... ... ... : ... .. . ... ... ... : ... .. . ... : ... .. . ... : ... .. . ... ...
ROW 6F : ... .. . ... ... ... : ... .. . ... ... ... : ... .. . ... : ... .. . ... : ... .. . ... ...
ROW 70 : ... .. C ... ... ... : ... .. C ... ... ... : ... .. . ... : ... .. . ... : ... .. . ... ...
ROW 71 : ... .. . ... ... ... : ... .. . ... ... ... : ... .. . ... : ... .. . ... : ... .. . ... ...
ROW 72 : ... .. . ... ... ... : ... .. . ... ... ... : ... .. . ... : ... .. . ... : ... .. . ... ...
ROW 73 : ... .. B ... ... ... : ... .. B ... ... ... : ... .. . ... : ... .. . ... : ... .. . ... ...
ROW 74 : ... .. 0 ... V00 ... : ... .. 0 ... V00 ... : ... .. . ... : ... .. . ... : ... .. . ... ...
ROW 75 : E-3 00 F P80 V01 ... : G-3 00 F P80 V01 ... : ... .. . ... : ... .. . ... : ... .. . ... ...
ROW 76 : ... .. E ... ... ... : ... .. E ... ... ... : ... .. . ... : ... .. . ... : ... .. . ... ...
ROW 77 : ... .. . ... ... ... : ... .. . ... ... ... : ... .. . ... : ... .. . ... : ... .. . ... ...
ROW 78 : ... .. . ... ... ... : ... .. . ... ... ... : ... .. . ... : ... .. . ... : ... .. . ... ...
ROW 79 : ... .. D ... ... ... : ... .. D ... ... ... : ... .. . ... : ... .. . ... : ... .. . ... ...
ROW 7A : ... .. . ... ... ... : ... .. . ... ... ... : ... .. . ... : ... .. . ... : ... .. . ... ...
ROW 7B : ... .. . ... ... ... : ... .. . ... ... ... : ... .. . ... : ... .. . ... : ... .. . ... ...
ROW 7C : ... .. C ... ... ... : ... .. C ... ... ... : ... .. . ... : ... .. . ... : ... .. . ... ...
ROW 7D : ... .. . ... ... ... : ... .. . ... ... ... : ... .. . ... : ... .. . ... : ... .. . ... ...
ROW 7E : ... .. . ... ... ... : ... .. . ... ... ... : ... .. . ... : ... .. . ... : ... .. . ... ...
ROW 7F : ... .. B ... ... ... : ... .. B ... ... ... : ... .. . ... : ... .. . ... : ... .. . ... ...
ROW 80 : ... .. 0 ... V00 ... : ... .. 0 ... V00 ... : --- .. . ... : ... .. . ... : ... .. . ... ...
ROW 81 : G-2 00 F P80 V01 ... : C-3 00 F P80 V01 ... : C-3 00 . ... : ... .. . ... : ... .. . ... ...
ROW 82 : ... .. E ... ... ... : ... .. E ... ... ... : ... .. . ... : ... .. . ... : ... .. . ... ...
ROW 83 : ... .. . ... ... ... : ... .. . ... ... ... : ... .. . ... : ... .. . ... : ... .. . ... ...
ROW 84 : ... .. . ... ... ... : ... .. . ... ... ... : ... .. . ... : ... .. . ... : ... .. . ... ...
ROW 85 : ... .. D ... ... ... : ... .. D ... ... ... : ... .. . ... : ... .. . ... : ... .. . ... ...
ROW 86 : ... .. . ... ... ... : ... .. . ... ... ... : ... .. . ... : ... .. . ... : ... .. . ... ...
ROW 87 : ... .. . ... ... ... : ... .. . ... ... ... : ... .. . ... : ... .. . ... : ... .. . ... ...
ROW 88 : ... .. C ... ... ... : ... .. C ... ... ... : ... .. . ... : ... .. . ... : ... .. . ... ...
ROW 89 : ... .. . ... ... ... : ... .. . ... ... ... : ... .. . ... : ... .. . ... : ... .. . ... ...
ROW 8A : ... .. . ... ... ... : ... .. . ... ... ... : ... .. . ... : ... .. . ... : ... .. . ... ...
ROW 8B : ... .. B ... ... ... : ... .. B ... ... ... : ... .. . ... : ... .. . ... : ... .. . ... ...
ROW 8C : ... .. . ... ... ... : ... .. . ... ... ... : ... .. . ... : ... .. . ... : ... .. . ... ...
ROW 8D : ... .. . ... ... ... : ... .. . ... ... ... : ... .. . ... : ... .. . ... : ... .. . ... ...
ROW 8E : ... .. A ... ... ... : ... .. A ... ... ... : ... .. . ... : ... .. . ... : ... .. . ... ...
ROW 8F : ... .. . ... ... ... : ... .. . ... ... ... : ... .. . ... : ... .. . ... : ... .. . ... ...
ROW 90 : ... .. . ... ... ... : ... .. . ... ... ... : ... .. . ... : ... .. . ... : ... .. . ... ...
ROW 91 : ... .. 9 ... ... ... : ... .. 9 ... ... ... : ... .. . ... : ... .. . ... : ... .. . ... ...
ROW 92 : ... .. . ... ... ... : ... .. . ... ... ... : ... .. . ... : ... .. . ... : ... .. . ... ...
ROW 93 : ... .. . ... ... ... : ... .. . ... ... ... : ... .. . ... : ... .. . ... : ... .. . ... ...
ROW 94 : ... .. 8 ... ... ... : ... .. 8 ... ... ... : ... .. . ... : ... .. . ... : ... .. . ... ...
ROW 95 : ... .. . ... ... ... : ... .. . ... ... ... : ... .. . ... : ... .. . ... : ... .. . ... ...
ROW 96 : ... .. 7 ... ... ... : ... .. 7 ... ... ... : ... .. . ... : ... .. . ... : ... .. . ... ...
ROW 97 : ... .. . ... ... ... : ... .. . ... ... ... : ... .. . ... : ... .. . ... : ... .. . ... ...
ROW 98 : ... .. 0 ... V00 ... : ... .. 0 ... V00 ... : ... .. . ... : ... .. . ... : ... .. . ... ...
ROW 99 : C-3 00 F P80 V01 ... : E-3 00 F P80 V01 ... : ... .. . ... : ... .. . ... : ... .. . ... ...
ROW 9A : ... .. E ... ... ... : ... .. E ... ... ... : ... .. . ... : ... .. . ... : ... .. . ... ...
ROW 9B : ... .. . ... ... ... : ... .. . ... ... ... : ... .. . ... : ... .. . ... : ... .. . ... ...
ROW 9C : ... .. . ... ... ... : ... .. . ... ... ... : ... .. . ... : ... .. . ... : ... .. . ... ...
ROW 9D : ... .. D ... ... ... : ... .. D ... ... ... : ... .. . ... : ... .. . ... : ... .. . ... ...
ROW 9E : ... .. . ... ... ... : ... .. . ... ... ... : ... .. . ... : ... .. . ... : ... .. . ... ...
ROW 9F : ... .. . ... ... ... : ... .. . ... ... ... : ... .. . ... : ... .. . ... : ... .. . ... ...
ROW A0 : ... .. C ... ... ... : ... .. C ... ... ... : ... .. . ... : ... .. . ... : ... .. . ... ...
ROW A1 : ... .. . ... ... ... : ... .. . ... ... ... : ... .. . ... : ... .. . ... : ... .. . ... ...
ROW A2 : ... .. . ... ... ... : ... .. . ... ... ... : ... .. . ... : ... .. . ... : ... .. . ... ...
ROW A3 : ... .. B ... ... ... : ... .. B ... ... ... : ... .. . ... : ... .. . ... : ... .. . ... ...
ROW A4 : ... .. 0 ... V00 ... : ... .. 0 ... V00 ... : ... .. . ... : ... .. . ... : ... .. . ... ...
ROW A5 : E-3 00 F P80 V01 ... : G-3 00 F P80 V01 ... : ... .. . ... : ... .. . ... : ... .. . ... ...
ROW A6 : ... .. E ... ... ... : ... .. E ... ... ... : ... .. . ... : ... .. . ... : ... .. . ... ...
ROW A7 : ... .. . ... ... ... : ... .. . ... ... ... : ... .. . ... : ... .. . ... : ... .. . ... ...
ROW A8 : ... .. . ... ... ... : ... .. . ... ... ... : ... .. . ... : ... .. . ... : ... .. . ... ...
ROW A9 : ... .. D ... ... ... : ... .. D ... ... ... : ... .. . ... : ... .. . ... : ... .. . ... ...
ROW AA : ... .. 0 ... V00 ... : ... .. 0 ... V00 ... : ... .. . ... : ... .. . ... : ... .. . ... ...
ROW AB : E-3 00 F P80 V01 ... : G-3 00 F P80 V01 ... : ... .. . ... : ... .. . ... : ... .. . ... ...
ROW AC : ... .. E ... ... ... : ... .. E ... ... ... : ... .. . ... : ... .. . ... : ... .. . ... ...
ROW AD : ... .. . ... ... ... : ... .. . ... ... ... : ... .. . ... : ... .. . ... : ... .. . ... ...
ROW AE : ... .. . ... ... ... : ... .. . ... ... ... : ... .. . ... : ... .. . ... : ... .. . ... ...
ROW AF : ... .. D ... ... ... : ... .. D ... ... ... : ... .. . ... : ... .. . ... : ... .. . ... ...
ROW B0 : ... .. 0 ... V00 ... : ... .. 0 ... V00 ... : ... .. . ... : ... .. . ... : ... .. . ... ...
ROW B1 : E-3 00 F P80 V01 ... : G-3 00 F P80 V01 ... : ... .. . ... : ... .. . ... : ... .. . ... ...
ROW B2 : ... .. E ... ... ... : ... .. E ... ... ... : ... .. . ... : ... .. . ... : ... .. . ... ...
ROW B3 : ... .. . ... ... ... : ... .. . ... ... ... : ... .. . ... : ... .. . ... : ... .. . ... ...
ROW B4 : ... .. . ... ... ... : ... .. . ... ... ... : ... .. . ... : ... .. . ... : ... .. . ... ...
ROW B5 : ... .. D ... ... ... : ... .. D ... ... ... : ... .. . ... : ... .. . ... : ... .. . ... ...
ROW B6 : ... .. . ... ... ... : ... .. . ... ... ... : ... .. . ... : ... .. . ... : ... .. . ... ...
ROW B7 : ... .. . ... ... ... : ... .. . ... ... ... : ... .. . ... : ... .. . ... : ... .. . ... ...
ROW B8 : ... .. C ... ... ... : ... .. C ... ... ... : ... .. . ... : ... .. . ... : ... .. . ... ...
ROW B9 : ... .. . ... ... ... : ... .. . ... ... ... : ... .. . ... : ... .. . ... : ... .. . ... ...
ROW BA : ... .. . ... ... ... : ... .. . ... ... ... : ... .. . ... : ... .. . ... : ... .. . ... ...
ROW BB : ... .. B ... ... ... : ... .. B ... ... ... : ... .. . ... : ... .. . ... : ... .. . ... ...
ROW BC : ... .. 0 ... V00 ... : ... .. 0 ... V00 ... : ... .. . ... : ... .. . ... : ... .. . ... ...
ROW BD : C-3 00 F P80 V01 ... : E-3 00 F P80 V01 ... : ... .. . ... : ... .. . ... : ... .. . ... ...
ROW BE : ... .. E ... ... ... : ... .. E ... ... ... : ... .. . ... : ... .. . ... : ... .. . ... ...
ROW BF : ... .. . ... ... ... : ... .. . ... ... ... : ... .. . ... : ... .. . ... : ... .. . ... ...
ROW C0 : ... .. . ... ... ... : ... .. . ... ... ... : ... .. . ... : ... .. . ... : ... .. . ... ...
ROW C1 : ... .. D ... ... ... : ... .. D ... ... ... : ... .. . ... : ... .. . ... : ... .. . ... ...
ROW C2 : ... .. . ... ... ... : ... .. . ... ... ... : ... .. . ... : ... .. . ... : ... .. . ... ...
ROW C3 : ... .. . ... ... ... : ... .. . ... ... ... : ... .. . ... : ... .. . ... : ... .. . ... ...
ROW C4 : ... .. C ... ... ... : ... .. C ... ... ... : ... .. . ... : ... .. . ... : ... .. . ... ...
ROW C5 : ... .. . ... ... ... : ... .. . ... ... ... : ... .. . ... : ... .. . ... : ... .. . ... ...
ROW C6 : ... .. . ... ... ... : ... .. . ... ... ... : ... .. . ... : ... .. . ... : ... .. . ... ...
ROW C7 : ... .. B ... ... ... : ... .. B ... ... ... : ... .. . ... : ... .. . ... : ... .. . ... ...
ROW C8 : ... .. 0 ... V00 ... : ... .. 0 ... V00 ... : ... .. . ... : ... .. . ... : ... .. . ... ...
ROW C9 : G-2 00 F P80 V01 ... : D-3 00 F P80 V01 ... : ... .. . ... : ... .. . ... : ... .. . ... ...
ROW CA : ... .. E ... ... ... : ... .. E ... ... ... : ... .. . ... : ... .. . ... : ... .. . ... ...
ROW CB : ... .. . ... ... ... : ... .. . ... ... ... : ... .. . ... : ... .. . ... : ... .. . ... ...
ROW CC : ... .. . ... ... ... : ... .. . ... ... ... : ... .. . ... : ... .. . ... : ... .. . ... ...
ROW CD : ... .. D ... ... ... : ... .. D ... ... ... : ... .. . ... : ... .. . ... : ... .. . ... ...
ROW CE : ... .. . ... ... ... : ... .. . ... ... ... : ... .. . ... : ... .. . ... : ... .. . ... ...
ROW CF : ... .. . ... ... ... : ... .. . ... ... ... : ... .. . ... : ... .. . ... : ... .. . ... ...
ROW D0 : ... .. C ... ... ... : ... .. C ... ... ... : ... .. . ... : ... .. . ... : ... .. . ... ...
ROW D1 : ... .. . ... ... ... : ... .. . ... ... ... : ... .. . ... : ... .. . ... : ... .. . ... ...
ROW D2 : ... .. . ... ... ... : ... .. . ... ... ... : ... .. . ... : ... .. . ... : ... .. . ... ...
ROW D3 : ... .. B ... ... ... : ... .. B ... ... ... : ... .. . ... : ... .. . ... : ... .. . ... ...
ROW D4 : ... .. 0 ... V00 ... : ... .. 0 ... V00 ... : ... .. . ... : ... .. . ... : ... .. . ... ...
ROW D5 : C-3 00 F P80 V01 ... : E-3 00 F P80 V01 ... : ... .. . ... : ... .. . ... : ... .. . ... ...
ROW D6 : ... .. E ... ... ... : ... .. E ... ... ... : ... .. . ... : ... .. . ... : ... .. . ... ...
ROW D7 : ... .. . ... ... ... : ... .. . ... ... ... : ... .. . ... : ... .. . ... : ... .. . ... ...
ROW D8 : ... .. . ... ... ... : ... .. . ... ... ... : ... .. . ... : ... .. . ... : ... .. . ... ...
ROW D9 : ... .. D ... ... ... : ... .. D ... ... ... : ... .. . ... : ... .. . ... : ... .. . ... ...
ROW DA : ... .. . ... ... ... : ... .. . ... ... ... : ... .. . ... : ... .. . ... : ... .. . ... ...
ROW DB : ... .. . ... ... ... : ... .. . ... ... ... : ... .. . ... : ... .. . ... : ... .. . ... ...
ROW DC : ... .. C ... ... ... : ... .. C ... ... ... : ... .. . ... : ... .. . ... : ... .. . ... ...
ROW DD : ... .. . ... ... ... : ... .. . ... ... ... : ... .. . ... : ... .. . ... : ... .. . ... ...
ROW DE : ... .. . ... ... ... : ... .. . ... ... ... : ... .. . ... : ... .. . ... : ... .. . ... ...
ROW DF : ... .. B ... ... ... : ... .. B ... ... ... : ... .. . ... : ... .. . ... : ... .. . ... ...
ROW E0 : ... .. 0 ... V00 ... : ... .. 0 ... V00 ... : --- .. . ... : ... .. . ... : ... .. . ... ...
ROW E1 : F-3 00 F P80 V01 ... : A-3 00 F P80 V01 ... : F-2 00 . ... : ... .. . ... : ... .. . ... ...
ROW E2 : ... .. E ... ... ... : ... .. E ... ... ... : ... .. . ... : ... .. . ... : ... .. . ... ...
ROW E3 : ... .. . ... ... ... : ... .. . ... ... ... : ... .. . ... : ... .. . ... : ... .. . ... ...
ROW E4 : ... .. . ... ... ... : ... .. . ... ... ... : ... .. . ... : ... .. . ... : ... .. . ... ...
ROW E5 : ... .. D ... ... ... : ... .. D ... ... ... : ... .. . ... : ... .. . ... : ... .. . ... ...
ROW E6 : ... .. . ... ... ... : ... .. . ... ... ... : ... .. . ... : ... .. . ... : ... .. . ... ...
ROW E7 : ... .. . ... ... ... : ... .. . ... ... ... : ... .. . ... : ... .. . ... : ... .. . ... ...
ROW E8 : ... .. C ... ... ... : ... .. C ... ... ... : ... .. . ... : ... .. . ... : ... .. . ... ...
ROW E9 : ... .. . ... ... ... : ... .. . ... ... ... : ... .. . ... : ... .. . ... : ... .. . ... ...
ROW EA : ... .. . ... ... ... : ... .. . ... ... ... : ... .. . ... : ... .. . ... : ... .. . ... ...
ROW EB : ... .. B ... ... ... : ... .. B ... ... ... : ... .. . ... : ... .. . ... : ... .. . ... ...
ROW EC : ... .. . ... ... ... : ... .. . ... ... ... : ... .. . ... : ... .. . ... : ... .. . ... ...
ROW ED : ... .. . ... ... ... : ... .. . ... ... ... : ... .. . ... : ... .. . ... : ... .. . ... ...
ROW EE : ... .. A ... ... ... : ... .. A ... ... ... : ... .. . ... : ... .. . ... : ... .. . ... ...
ROW EF : ... .. . ... ... ... : ... .. . ... ... ... : ... .. . ... : ... .. . ... : ... .. . ... ...
ROW F0 : ... .. . ... ... ... : ... .. . ... ... ... : ... .. . ... : ... .. . ... : ... .. . ... ...
ROW F1 : ... .. 9 ... ... ... : ... .. 9 ... ... ... : ... .. . ... : ... .. . ... : ... .. . ... ...
ROW F2 : ... .. . ... ... ... : ... .. . ... ... ... : ... .. . ... : ... .. . ... : ... .. . ... ...
ROW F3 : ... .. . ... ... ... : ... .. . ... ... ... : ... .. . ... : ... .. . ... : ... .. . ... ...
ROW F4 : ... .. 8 ... ... ... : ... .. 8 ... ... ... : ... .. . ... : ... .. . ... : ... .. . ... ...
ROW F5 : ... .. . ... ... ... : ... .. . ... ... ... : ... .. . ... : ... .. . ... : ... .. . ... ...
ROW F6 : ... .. 7 ... ... ... : ... .. 7 ... ... ... : ... .. . ... : ... .. . ... : ... .. . ... ...
ROW F7 : ... .. . ... ... ... : ... .. . ... ... ... : ... .. . ... : ... .. . ... : ... .. . ... ...
ROW F8 : ... .. 0 ... V00 ... : ... .. 0 ... V00 ... : ... .. . ... : ... .. . ... : ... .. . ... ...
ROW F9 : F-3 00 F P80 V01 ... : A-3 00 F P80 V01 ... : ... .. . ... : ... .. . ... : ... .. . ... ...
ROW FA : ... .. E ... ... ... : ... .. E ... ... ... : ... .. . ... : ... .. . ... : ... .. . ... ...
ROW FB : ... .. . ... ... ... : ... .. . ... ... ... : ... .. . ... : ... .. . ... : ... .. . ... ...
ROW FC : ... .. . ... ... ... : ... .. . ... ... ... : ... .. . ... : ... .. . ... : ... .. . ... ...
ROW FD : ... .. D ... ... ... : ... .. D ... ... ... : ... .. . ... : ... .. . ... : ... .. . ... ...
ROW FE : ... .. . ... ... ... : ... .. . ... ... ... : ... .. . ... : ... .. . ... : ... .. . ... ...
ROW FF : ... .. . ... ... ... : ... .. . ... ... ... : ... .. . ... : ... .. . ... : ... .. . ... ...

PATTERN 02
ROW 00 : ... .. C ... ... ... : ... .. C ... ... ... : ... .. . ... : ... .. . ... : ... .. . ... ...
ROW 01 : ... .. . ... ... ... : ... .. . ... ... ... : ... .. . ... : ... .. . ... : ... .. . ... ...
ROW 02 : ... .. . ... ... ... : ... .. . ... ... ... : ... .. . ... : ... .. . ... : ... .. . ... ...
ROW 03 : ... .. B ... ... ... : ... .. B ... ... ... : ... .. . ... : ... .. . ... : ... .. . ... ...
ROW 04 : ... .. 0 ... V00 ... : ... .. 0 ... V00 ... : ... .. . ... : ... .. . ... : ... .. . ... ...
ROW 05 : E-3 00 F P80 V01 ... : G-3 00 F P80 V01 ... : ... .. . ... : ... .. . ... : ... .. . ... ...
ROW 06 : ... .. E ... ... ... : ... .. E ... ... ... : ... .. . ... : ... .. . ... : ... .. . ... ...
ROW 07 : ... .. . ... ... ... : ... .. . ... ... ... : ... .. . ... : ... .. . ... : ... .. . ... ...
ROW 08 : ... .. . ... ... ... : ... .. . ... ... ... : ... .. . ... : ... .. . ... : ... .. . ... ...
ROW 09 : ... .. D ... ... ... : ... .. D ... ... ... : ... .. . ... : ... .. . ... : ... .. . ... ...
ROW 0A : ... .. 0 ... V00 ... : ... .. 0 ... V00 ... : ... .. . ... : ... .. . ... : ... .. . ... ...
ROW 0B : E-3 00 F P80 V01 ... : G-3 00 F P80 V01 ... : ... .. . ... : ... .. . ... : ... .. . ... ...
ROW 0C : ... .. E ... ... ... : ... .. E ... ... ... : ... .. . ... : ... .. . ... : ... .. . ... ...
ROW 0D : ... .. . ... ... ... : ... .. . ... ... ... : ... .. . ... : ... .. . ... : ... .. . ... ...
ROW 0E : ... .. . ... ... ... : ... .. . ... ... ... : ... .. . ... : ... .. . ... : ... .. . ... ...
ROW 0F : ... .. D ... ... ... : ... .. D ... ... ... : ... .. . ... : ... .. . ... : ... .. . ... ...
ROW 10 : ... .. 0 ... V00 ... : ... .. 0 ... V00 ... : --- .. . ... : ... .. . ... : ... .. . ... ...
ROW 11 : E-3 00 F P80 V01 ... : G-3 00 F P80 V01 ... : G-2 00 . ... : ... .. . ... : ... .. . ... ...
ROW 12 : ... .. E ... ... ... : ... .. E ... ... ... : ... .. . ... : ... .. . ... : ... .. . ... ...
ROW 13 : ... .. . ... ... ... : ... .. . ... ... ... : ... .. . ... : ... .. . ... : ... .. . ... ...
ROW 14 : ... .. . ... ... ... : ... .. . ... ... ... : ... .. . ... : ... .. . ... : ... .. . ... ...
ROW 15 : ... .. D ... ... ... : ... .. D ... ... ... : ... .. . ... : ... .. . ... : ... .. . ... ...
ROW 16 : ... .. . ... ... ... : ... .. . ... ... ... : ... .. . ... : ... .. . ... : ... .. . ... ...
ROW 17 : ... .. . ... ... ... : ... .. . ... ... ... : ... .. . ... : ... .. . ... : ... .. . ... ...
ROW 18 : ... .. C ... ... ... : ... .. C ... ... ... : ... .. . ... : ... .. . ... : ... .. . ... ...
ROW 19 : ... .. . ... ... ... : ... .. . ... ... ... : ... .. . ... : ... .. . ... : ... .. . ... ...
ROW 1A : ... .. . ... ... ... : ... .. . ... ... ... : ... .. . ... : ... .. . ... : ... .. . ... ...
ROW 1B : ... .. B ... ... ... : ... .. B ... ... ... : ... .. . ... : ... .. . ... : ... .. . ... ...
ROW 1C : ... .. 0 ... V00 ... : ... .. 0 ... V00 ... : ... .. . ... : ... .. . ... : ... .. . ... ...
ROW 1D : C-3 00 F P80 V01 ... : E-3 00 F P80 V01 ... : ... .. . ... : ... .. . ... : ... .. . ... ...
ROW 1E : ... .. E ... ... ... : ... .. E ... ... ... : ... .. . ... : ... .. . ... : ... .. . ... ...
ROW 1F : ... .. . ... ... ... : ... .. . ... ... ... : ... .. . ... : ... .. . ... : ... .. . ... ...
ROW 20 : ... .. . ... ... ... : ... .. . ... ... ... : ... .. . ... : ... .. . ... : ... .. . ... ...
ROW 21 : ... .. D ... ... ... : ... .. D ... ... ... : ... .. . ... : ... .. . ... : ... .. . ... ...
ROW 22 : ... .. . ... ... ... : ... .. . ... ... ... : ... .. . ... : ... .. . ... : ... .. . ... ...
ROW 23 : ... .. . ... ... ... : ... .. . ... ... ... : ... .. . ... : ... .. . ... : ... .. . ... ...
ROW 24 : ... .. C ... ... ... : ... .. C ... ... ... : ... .. . ... : ... .. . ... : ... .. . ... ...
ROW 25 : ... .. . ... ... ... : ... .. . ... ... ... : ... .. . ... : ... .. . ... : ... .. . ... ...
ROW 26 : ... .. . ... ... ... : ... .. . ... ... ... : ... .. . ... : ... .. . ... : ... .. . ... ...
ROW 27 : ... .. B ... ... ... : ... .. B ... ... ... : ... .. . ... : ... .. . ... : ... .. . ... ...
ROW 28 : ... .. 0 ... V00 ... : ... .. 0 ... V00 ... : ... .. . ... : ... .. . ... : ... .. . ... ...
ROW 29 : G-2 00 F P80 V01 ... : D-3 00 F P80 V01 ... : ... .. . ... : ... .. . ... : ... .. . ... ...
ROW 2A : ... .. E ... ... ... : ... .. E ... ... ... : ... .. . ... : ... .. . ... : ... .. . ... ...
ROW 2B : ... .. . ... ... ... : ... .. . ... ... ... : ... .. . ... : ... .. . ... : ... .. . ... ...
ROW 2C : ... .. . ... ... ... : ... .. . ... ... ... : ... .. . ... : ... .. . ... : ... .. . ... ...
ROW 2D : ... .. D ... ... ... : ... .. D ... ... ... : ... .. . ... : ... .. . ... : ... .. . ... ...
ROW 2E : ... .. . ... ... ... : ... .. . ... ... ... : ... .. . ... : ... .. . ... : ... .. . ... ...
ROW 2F : ... .. . ... ... ... : ... .. . ... ... ... : ... .. . ... : ... .. . ... : ... .. . ... ...
ROW 30 : ... .. C ... ... ... : ... .. C ... ... ... : ... .. . ... : ... .. . ... : ... .. . ... ...
ROW 31 : ... .. . ... ... ... : ... .. . ... ... ... : ... .. . ... : ... .. . ... : ... .. . ... ...
ROW 32 : ... .. . ... ... ... : ... .. . ... ... ... : ... .. . ... : ... .. . ... : ... .. . ... ...
ROW 33 : ... .. B ... ... ... : ... .. B ... ... ... : ... .. . ... : ... .. . ... : ... .. . ... ...
ROW 34 : ... .. 0 ... V00 ... : ... .. 0 ... V00 ... : ... .. . ... : ... .. . ... : ... .. . ... ...
ROW 35 : C-3 00 F P80 V01 ... : E-3 00 F P80 V01 ... : ... .. . ... : ... .. . ... : ... .. . ... ...
ROW 36 : ... .. E ... ... ... : ... .. E ... ... ... : ... .. . ... : ... .. . ... : ... .. . ... ...
ROW 37 : ... .. . ... ... ... : ... .. . ... ... ... : ... .. . ... : ... .. . ... : ... .. . ... ...
ROW 38 : ... .. . ... ... ... : ... .. . ... ... ... : ... .. . ... : ... .. . ... : ... .. . ... ...
ROW 39 : ... .. D ... ... ... : ... .. D ... ... ... : ... .. . ... : ... .. . ... : ... .. . ... ...
ROW 3A : ... .. . ... ... ... : ... .. . ... ... ... : ... .. . ... : ... .. . ... : ... .. . ... ...
ROW 3B : ... .. . ... ... ... : ... .. . ... ... ... : ... .. . ... : ... .. . ... : ... .. . ... ...
ROW 3C : ... .. C ... ... ... : ... .. C ... ... ... : ... .. . ... : ... .. . ... : ... .. . ... ...
ROW 3D : ... .. . ... ... ... : ... .. . ... ... ... : ... .. . ... : ... .. . ... : ... .. . ... ...
ROW 3E : ... .. . ... ... ... : ... .. . ... ... ... : ... .. . ... : ... .. . ... : ... .. . ... ...
ROW 3F : ... .. B ... ... ... : ... .. B ... ... ... : ... .. . ... : ... .. . ... : ... .. . ... ...
ROW 40 : ... .. 0 ... V00 ... : ... .. 0 ... V00 ... : --- .. . ... : ... .. . ... : ... .. . ... ...
ROW 41 : G-2 00 F P80 V01 ... : C-3 00 F P80 V01 ... : C-3 00 . ... : ... .. . ... : ... .. . ... ...
ROW 42 : ... .. E ... ... ... : ... .. E ... ... ... : ... .. . ... : ... .. . ... : ... .. . ... ...
ROW 43 : ... .. . ... ... ... : ... .. . ... ... ... : ... .. . ... : ... .. . ... : ... .. . ... ...
ROW 44 : ... .. . ... ... ... : ... .. . ... ... ... : ... .. . ... : ... .. . ... : ... .. . ... ...
ROW 45 : ... .. D ... ... ... : ... .. D ... ... ... : ... .. . ... : ... .. . ... : ... .. . ... ...
ROW 46 : ... .. . ... ... ... : ... .. . ... ... ... : ... .. . ... : ... .. . ... : ... .. . ... ...
ROW 47 : ... .. . ... ... ... : ... .. . ... ... ... : ... .. . ... : ... .. . ... : ... .. . ... ...
ROW 48 : ... .. C ... ... ... : ... .. C ... ... ... : ... .. . ... : ... .. . ... : ... .. . ... ...
ROW 49 : ... .. . ... ... ... : ... .. . ... ... ... : ... .. . ... : ... .. . ... : ... .. . ... ...
ROW 4A : ... .. . ... ... ... : ... .. . ... ... ... : ... .. . ... : ... .. . ... : ... .. . ... ...
ROW 4B : ... .. B ... ... ... : ... .. B ... ... ... : ... .. . ... : ... .. . ... : ... .. . ... ...
ROW 4C : ... .. . ... ... ... : ... .. . ... ... ... : ... .. . ... : ... .. . ... : ... .. . ... ...
ROW 4D : ... .. . ... ... ... : ... .. . ... ... ... : ... .. . ... : ... .. . ... : ... .. . ... ...
ROW 4E : ... .. A ... ... ... : ... .. A ... ... ... : ... .. . ... : ... .. . ... : ... .. . ... ...
ROW 4F : ... .. . ... ... ... : ... .. . ... ... ... : ... .. . ... : ... .. . ... : ... .. . ... ...
ROW 50 : ... .. . ... ... ... : ... .. . ... ... ... : ... .. . ... : ... .. . ... : ... .. . ... ...
ROW 51 : ... .. 9 ... ... ... : ... .. 9 ... ... ... : ... .. . ... : ... .. . ... : ... .. . ... ...
ROW 52 : ... .. . ... ... ... : ... .. . ... ... ... : ... .. . ... : ... .. . ... : ... .. . ... ...
ROW 53 : ... .. . ... ... ... : ... .. . ... ... ... : ... .. . ... : ... .. . ... : ... .. . ... ...
ROW 54 : ... .. 8 ... ... ... : ... .. 8 ... ... ... : ... .. . ... : ... .. . ... : ... .. . ... ...
ROW 55 : ... .. . ... ... ... : ... .. . ... ... ... : ... .. . ... : ... .. . ... : ... .. . ... ...
ROW 56 : ... .. 7 ... ... ... : ... .. 7 ... ... ... : ... .. . ... : ... .. . ... : ... .. . ... ...
ROW 57 : ... .. . ... ... ... : ... .. . ... ... ... : ... .. . ... : ... .. . ... : ... .. . ... ...
ROW 58 : ... .. 0 ... V00 ... : ... .. 0 ... V00 ... : ... .. . ... : ... .. . ... : ... .. . ... ...
ROW 59 : C-3 00 F P80 V01 ... : E-3 00 F P80 V01 ... : ... .. . ... : ... .. . ... : ... .. . ... ...
ROW 5A : ... .. E ... ... ... : ... .. E ... ... ... : ... .. . ... : ... .. . ... : ... .. . ... ...
ROW 5B : ... .. . ... ... ... : ... .. . ... ... ... : ... .. . ... : ... .. . ... : ... .. . ... ...
ROW 5C : ... .. . ... ... ... : ... .. . ... ... ... : ... .. . ... : ... .. . ... : ... .. . ... ...
ROW 5D : ... .. D ... ... ... : ... .. D ... ... ... : ... .. . ... : ... .. . ... : ... .. . ... ...
ROW 5E : ... .. . ... ... ... : ... .. . ... ... ... : ... .. . ... : ... .. . ... : ... .. . ... ...
ROW 5F : ... .. . ... ... ... : ... .. . ... ... ... : ... .. . ... : ... .. . ... : ... .. . ... ...
ROW 60 : ... .. C ... ... ... : ... .. C ... ... ... : ... .. . ... : ... .. . ... : ... .. . ... ...
ROW 61 : ... .. . ... ... ... : ... .. . ... ... ... : ... .. . ... : ... .. . ... : ... .. . ... ...
ROW 62 : ... .. . ... ... ... : ... .. . ... ... ... : ... .. . ... : ... .. . ... : ... .. . ... ...
ROW 63 : ... .. B ... ... ... : ... .. B ... ... ... : ... .. . ... : ... .. . ... : ... .. . ... ...
ROW 64 : ... .. 0 ... V00 ... : ... .. 0 ... V00 ... : ... .. . ... : ... .. . ... : ... .. . ... ...
ROW 65 : E-3 00 F P80 V01 ... : G-3 00 F P80 V01 ... : ... .. . ... : ... .. . ... : ... .. . ... ...
ROW 66 : ... .. E ... ... ... : ... .. E ... ... ... : ... .. . ... : ... .. . ... : ... .. . ... ...
ROW 67 : ... .. . ... ... ... : ... .. . ... ... ... : ... .. . ... : ... .. . ... : ... .. . ... ...
ROW 68 : ... .. . ... ... ... : ... .. . ... ... ... : ... .. . ... : ... .. . ... : ... .. . ... ...
ROW 69 : ... .. D ... ... ... : ... .. D ... ... ... : ... .. . ... : ... .. . ... : ... .. . ... ...
ROW 6A : ... .. 0 ... V00 ... : ... .. 0 ... V00 ... : ... .. . ... : ... .. . ... : ... .. . ... ...
ROW 6B : E-3 00 F P80 V01 ... : G-3 00 F P80 V01 ... : ... .. . ... : ... .. . ... : ... .. . ... ...
ROW 6C : ... .. E ... ... ... : ... .. E ... ... ... : ... .. . ... : ... .. . ... : ... .. . ... ...
ROW 6D : ... .. . ... ... ... : ... .. . ... ... ... : ... .. . ... : ... .. . ... : ... .. . ... ...
ROW 6E : ... .. . ... ... ... : ... .. . ... ... ... : ... .. . ... : ... .. . ... : ... .. . ... ...
ROW 6F : ... .. D ... ... ... : ... .. D ... ... ... : ... .. . ... : ... .. . ... : ... .. . ... ...
ROW 70 : ... .. 0 ... V00 ... : ... .. 0 ... V00 ... : ... .. . ... : ... .. . ... : ... .. . ... ...
ROW 71 : E-3 00 F P80 V01 ... : G-3 00 F P80 V01 ... : ... .. . ... : ... .. . ... : ... .. . ... ...
ROW 72 : ... .. E ... ... ... : ... .. E ... ... ... : ... .. . ... : ... .. . ... : ... .. . ... ...
ROW 73 : ... .. . ... ... ... : ... .. . ... ... ... : ... .. . ... : ... .. . ... : ... .. . ... ...
ROW 74 : ... .. . ... ... ... : ... .. . ... ... ... : ... .. . ... : ... .. . ... : ... .. . ... ...
ROW 75 : ... .. D ... ... ... : ... .. D ... ... ... : ... .. . ... : ... .. . ... : ... .. . ... ...
ROW 76 : ... .. . ... ... ... : ... .. . ... ... ... : ... .. . ... : ... .. . ... : ... .. . ... ...
ROW 77 : ... .. . ... ... ... : ... .. . ... ... ... : ... .. . ... : ... .. . ... : ... .. . ... ...
ROW 78 : ... .. C ... ... ... : ... .. C ... ... ... : ... .. . ... : ... .. . ... : ... .. . ... ...
ROW 79 : ... .. . ... ... ... : ... .. . ... ... ... : ... .. . ... : ... .. . ... : ... .. . ... ...
ROW 7A : ... .. . ... ... ... : ... .. . ... ... ... : ... .. . ... : ... .. . ... : ... .. . ... ...
ROW 7B : ... .. B ... ... ... : ... .. B ... ... ... : ... .. . ... : ... .. . ... : ... .. . ... ...
ROW 7C : ... .. 0 ... V00 ... : ... .. 0 ... V00 ... : ... .. . ... : ... .. . ... : ... .. . ... ...
ROW 7D : C-3 00 F P80 V01 ... : E-3 00 F P80 V01 ... : ... .. . ... : ... .. . ... : ... .. . ... ...
ROW 7E : ... .. E ... ... ... : ... .. E ... ... ... : ... .. . ... : ... .. . ... : ... .. . ... ...
ROW 7F : ... .. . ... ... ... : ... .. . ... ... ... : ... .. . ... : ... .. . ... : ... .. . ... ...
ROW 80 : ... .. . ... ... ... : ... .. . ... ... ... : ... .. . ... : ... .. . ... : ... .. . ... ...
ROW 81 : ... .. D ... ... ... : ... .. D ... ... ... : ... .. . ... : ... .. . ... : ... .. . ... ...
ROW 82 : ... .. . ... ... ... : ... .. . ... ... ... : ... .. . ... : ... .. . ... : ... .. . ... ...
ROW 83 : ... .. . ... ... ... : ... .. . ... ... ... : ... .. . ... : ... .. . ... : ... .. . ... ...
ROW 84 : ... .. C ... ... ... : ... .. C ... ... ... : ... .. . ... : ... .. . ... : ... .. . ... ...
ROW 85 : ... .. . ... ... ... : ... .. . ... ... ... : ... .. . ... : ... .. . ... : ... .. . ... ...
ROW 86 : ... .. . ... ... ... : ... .. . ... ... ... : ... .. . ... : ... .. . ... : ... .. . ... ...
ROW 87 : ... .. B ... ... ... : ... .. B ... ... ... : ... .. . ... : ... .. . ... : ... .. . ... ...
ROW 88 : ... .. 0 ... V00 ... : ... .. 0 ... V00 ... : ... .. . ... : ... .. . ... : ... .. . ... ...
ROW 89 : ... .. . ... ... ... : ... .. . ... ... ... : ... .. . ... : ... .. . ... : ... .. . ... ...
ROW 8A : ... .. . ... ... ... : ... .. . ... ... ... : ... .. . ... : ... .. . ... : ... .. . ... ...
ROW 8B : ... .. . ... ... ... : ... .. . ... ... ... : ... .. . ... : ... .. . ... : ... .. . ... ...
ROW 8C : ... .. . ... ... ... : ... .. . ... ... ... : ... .. . ... : ... .. . ... : ... .. . ... ...
ROW 8D : ... .. . ... ... ... : ... .. . ... ... ... : ... .. . ... : ... .. . ... : ... .. . ... ...
ROW 8E : ... .. . ... ... ... : ... .. . ... ... ... : ... .. . ... : ... .. . ... : ... .. . ... ...
ROW 8F : ... .. . ... ... ... : ... .. . ... ... ... : ... .. . ... : ... .. . ... : ... .. . ... ...
ROW 90 : ... .. . ... ... ... : ... .. . ... ... ... : ... .. . ... : ... .. . ... : ... .. . ... ...
ROW 91 : ... .. . ... ... ... : ... .. . ... ... ... : ... .. . ... : ... .. . ... : ... .. . ... ...
ROW 92 : ... .. . ... ... ... : ... .. . ... ... ... : ... .. . ... : ... .. . ... : ... .. . ... ...
ROW 93 : ... .. . ... ... ... : ... .. . ... ... ... : ... .. . ... : ... .. . ... : ... .. . ... ...
ROW 94 : ... .. . ... ... ... : ... .. . ... ... ... : ... .. . ... : ... .. . ... : ... .. . ... ...
ROW 95 : E-3 00 F P80 V01 ... : G-3 00 F P80 V01 ... : ... .. . ... : ... .. . ... : ... .. . ... ...
ROW 96 : ... .. E ... ... ... : ... .. E ... ... ... : ... .. . ... : ... .. . ... : ... .. . ... ...
ROW 97 : ... .. . ... ... ... : ... .. . ... ... ... : ... .. . ... : ... .. . ... : ... .. . ... ...
ROW 98 : ... .. . ... ... ... : ... .. . ... ... ... : ... .. . ... : ... .. . ... : ... .. . ... ...
ROW 99 : ... .. D ... ... ... : ... .. D ... ... ... : ... .. . ... : ... .. . ... : ... .. . ... ...
ROW 9A : ... .. 0 ... V00 ... : ... .. 0 ... V00 ... : ... .. . ... : ... .. . ... : ... .. . ... ...
ROW 9B : E-3 00 F P80 V01 ... : G-3 00 F P80 V01 ... : ... .. . ... : ... .. . ... : ... .. . ... ...
ROW 9C : ... .. E ... ... ... : ... .. E ... ... ... : ... .. . ... : ... .. . ... : ... .. . ... ...
ROW 9D : ... .. . ... ... ... : ... .. . ... ... ... : ... .. . ... : ... .. . ... : ... .. . ... ...
ROW 9E : ... .. . ... ... ... : ... .. . ... ... ... : ... .. . ... : ... .. . ... : ... .. . ... ...
ROW 9F : ... .. D ... ... ... : ... .. D ... ... ... : ... .. . ... : ... .. . ... : ... .. . ... ...
ROW A0 : ... .. 0 ... V00 ... : ... .. 0 ... V00 ... : F-3 00 . P7A : 4-# 00 1 ... : ... .. . ... ...
ROW A1 : E-3 00 F P80 V01 ... : G-3 00 F P80 V01 ... : C-3 00 . P76 : ... .. . ... : ... .. . ... ...
ROW A2 : ... .. E ... ... ... : ... .. E ... ... ... : G#2 00 . P75 : ... .. . ... : ... .. . ... ...
ROW A3 : ... .. . ... ... ... : ... .. . ... ... ... : E-2 00 . P91 : ... .. . ... : ... .. . ... ...
ROW A4 : ... .. . ... ... ... : ... .. . ... ... ... : D-2 00 . P74 : ... .. . ... : ... .. . ... ...
ROW A5 : ... .. D ... ... ... : ... .. D ... ... ... : B-1 00 . P94 : ... .. . ... : ... .. . ... ...
ROW A6 : ... .. . ... ... ... : ... .. . ... ... ... : F-3 00 . P7A : ... .. 2 ... : ... .. . ... ...
ROW A7 : ... .. . ... ... ... : ... .. . ... ... ... : C-3 00 . P76 : ... .. . ... : ... .. . ... ...
ROW A8 : ... .. C ... ... ... : ... .. C ... ... ... : G#2 00 . P75 : ... .. . ... : ... .. . ... ...
ROW A9 : ... .. . ... ... ... : ... .. . ... ... ... : E-2 00 . P91 : ... .. 1 ... : ... .. . ... ...
ROW AA : ... .. . ... ... ... : ... .. . ... ... ... : D-2 00 . P74 : ... .. . ... : ... .. . ... ...
ROW AB : ... .. B ... ... ... : ... .. B ... ... ... : B-1 00 . P94 : ... .. . ... : ... .. . ... ...
ROW AC : ... .. 0 ... V00 ... : ... .. 0 ... V00 ... : F-3 00 . P7A : ... .. 3 ... : ... .. . ... ...
ROW AD : C-3 00 F P80 V01 ... : E-3 00 F P80 V01 ... : C-3 00 . P76 : ... .. . ... : ... .. . ... ...
ROW AE : ... .. E ... ... ... : ... .. E ... ... ... : G#2 00 . P75 : ... .. . ... : ... .. . ... ...
ROW AF : ... .. . ... ... ... : ... .. . ... ... ... : E-2 00 . P91 : ... .. 2 ... : ... .. . ... ...
ROW B0 : ... .. . ... ... ... : ... .. . ... ... ... : D-2 00 . P74 : ... .. . ... : ... .. . ... ...
ROW B1 : ... .. D ... ... ... : ... .. D ... ... ... : B-1 00 . P94 : ... .. 1 ... : ... .. . ... ...
ROW B2 : ... .. . ... ... ... : ... .. . ... ... ... : F-3 00 . P7A : ... .. 4 ... : ... .. . ... ...
ROW B3 : ... .. . ... ... ... : ... .. . ... ... ... : C-3 00 . P76 : ... .. . ... : ... .. . ... ...
ROW B4 : ... .. C ... ... ... : ... .. C ... ... ... : G#2 00 . P75 : ... .. . ... : ... .. . ... ...
ROW B5 : ... .. . ... ... ... : ... .. . ... ... ... : E-2 00 . P91 : ... .. 3 ... : ... .. . ... ...
ROW B6 : ... .. . ... ... ... : ... .. . ... ... ... : D-2 00 . P74 : ... .. 2 ... : ... .. . ... ...
ROW B7 : ... .. B ... ... ... : ... .. B ... ... ... : B-1 00 . P94 : ... .. . ... : ... .. . ... ...
ROW B8 : ... .. 0 ... V00 ... : ... .. 0 ... V00 ... : F-3 00 . P7A : ... .. 5 ... : ... .. . ... ...
ROW B9 : ... .. . ... ... ... : ... .. . ... ... ... : C-3 00 . P76 : ... .. . ... : ... .. . ... ...
ROW BA : ... .. . ... ... ... : ... .. . ... ... ... : G#2 00 . P75 : ... .. . ... : ... .. . ... ...
ROW BB : ... .. . ... ... ... : ... .. . ... ... ... : E-2 00 . P91 : ... .. 4 ... : ... .. . ... ...
ROW BC : ... .. . ... ... ... : ... .. . ... ... ... : D-2 00 . P74 : ... .. 3 ... : ... .. . ... ...
ROW BD : ... .. . ... ... ... : ... .. . ... ... ... : B-1 00 . P94 : ... .. . ... : ... .. . ... ...
ROW BE : ... .. . ... ... ... : ... .. . ... ... ... : F-3 00 . P7A : ... .. 6 ... : ... .. . ... ...
ROW BF : ... .. . ... ... ... : ... .. . ... ... ... : C-3 00 . P76 : ... .. . ... : ... .. . ... ...
ROW C0 : ... .. . ... ... ... : ... .. . ... ... ... : G#2 00 . P75 : ... .. . ... : ... .. . ... ...
ROW C1 : ... .. . ... ... ... : ... .. . ... ... ... : E-2 00 . P91 : ... .. 4 ... : ... .. . ... ...
ROW C2 : ... .. . ... ... ... : ... .. . ... ... ... : D-2 00 . P74 : ... .. . ... : ... .. . ... ...
ROW C3 : ... .. . ... ... ... : ... .. . ... ... ... : B-1 00 . P94 : ... .. 3 ... : ... .. . ... ...
ROW C4 : ... .. . ... ... ... : ... .. . ... ... ... : F-3 00 . P7A : ... .. 7 ... : ... .. . ... ...
ROW C5 : E-3 00 F P80 V01 ... : G-3 00 F P80 V01 ... : C-3 00 . P76 : ... .. . ... : ... .. . ... ...
ROW C6 : ... .. E ... ... ... : ... .. E ... ... ... : G#2 00 . P75 : ... .. . ... : ... .. . ... ...
ROW C7 : ... .. . ... ... ... : ... .. . ... ... ... : E-2 00 . P91 : ... .. 5 ... : ... .. . ... ...
ROW C8 : ... .. . ... ... ... : ... .. . ... ... ... : D-2 00 . P74 : ... .. . ... : ... .. . ... ...
ROW C9 : ... .. D ... ... ... : ... .. D ... ... ... : B-1 00 . P94 : ... .. 4 ... : ... .. . ... ...
ROW CA : ... .. 0 ... V00 ... : ... .. 0 ... V00 ... : F-3 00 . P7A : ... .. 8 ... : ... .. . ... ...
ROW CB : E-3 00 F P80 V01 ... : G-3 00 F P80 V01 ... : C-3 00 . P76 : ... .. . ... : ... .. . ... ...
ROW CC : ... .. E ... ... ... : ... .. E ... ... ... : G#2 00 . P75 : ... .. . ... : ... .. . ... ...
ROW CD : ... .. . ... ... ... : ... .. . ... ... ... : E-2 00 . P91 : ... .. 6 ... : ... .. . ... ...
ROW CE : ... .. . ... ... ... : ... .. . ... ... ... : D-2 00 . P74 : ... .. 5 ... : ... .. . ... ...
ROW CF : ... .. D ... ... ... : ... .. D ... ... ... : B-1 00 . P94 : ... .. 4 ... : ... .. . ... ...
ROW D0 : ... .. 0 ... V00 ... : ... .. 0 ... V00 ... : F-3 00 . P7A : ... .. 9 ... : ... .. . ... ...
ROW D1 : E-3 00 F P80 V01 ... : G-3 00 F P80 V01 ... : C-3 00 . P76 : ... .. . ... : ... .. . ... ...
ROW D2 : ... .. E ... ... ... : ... .. E ... ... ... : G#2 00 . P75 : ... .. . ... : ... .. . ... ...
ROW D3 : ... .. . ... ... ... : ... .. . ... ... ... : E-2 00 . P91 : ... .. 7 ... : ... .. . ... ...
ROW D4 : ... .. . ... ... ... : ... .. . ... ... ... : D-2 00 . P74 : ... .. 6 ... : ... .. . ... ...
ROW D5 : ... .. D ... ... ... : ... .. D ... ... ... : B-1 00 . P94 : ... .. 5 ... : ... .. . ... ...
ROW D6 : ... .. . ... ... ... : ... .. . ... ... ... : F-3 00 . P7A : ... .. A ... : ... .. . ... ...
ROW D7 : ... .. . ... ... ... : ... .. . ... ... ... : C-3 00 . P76 : ... .. . ... : ... .. . ... ...
ROW D8 : ... .. C ... ... ... : ... .. C ... ... ... : G#2 00 . P75 : ... .. . ... : ... .. . ... ...
ROW D9 : ... .. . ... ... ... : ... .. . ... ... ... : E-2 00 . P91 : ... .. 8 ... : ... .. . ... ...
ROW DA : ... .. . ... ... ... : ... .. . ... ... ... : D-2 00 . P74 : ... .. 7 ... : ... .. . ... ...
ROW DB : ... .. B ... ... ... : ... .. B ... ... ... : B-1 00 . P94 : ... .. 6 ... : ... .. . ... ...
ROW DC : ... .. 0 ... V00 ... : ... .. 0 ... V00 ... : F-3 00 . P7A : ... .. B ... : ... .. . ... ...
ROW DD : C-3 00 F P80 V01 ... : E-3 00 F P80 V01 ... : C-3 00 . P76 : ... .. . ... : ... .. . ... ...
ROW DE : ... .. E ... ... ... : ... .. E ... ... ... : G#2 00 . P75 : ... .. . ... : ... .. . ... ...
ROW DF : ... .. . ... ... ... : ... .. . ... ... ... : E-2 00 . P91 : ... .. 8 ... : ... .. . ... ...
ROW E0 : ... .. . ... ... ... : ... .. . ... ... ... : D-2 00 . P74 : ... .. . ... : ... .. . ... ...
ROW E1 : ... .. D ... ... ... : ... .. D ... ... ... : B-1 00 . P94 : ... .. 6 ... : ... .. . ... ...
ROW E2 : ... .. . ... ... ... : ... .. . ... ... ... : F-3 00 . P7A : ... .. C ... : ... .. . ... ...
ROW E3 : ... .. . ... ... ... : ... .. . ... ... ... : C-3 00 . P76 : ... .. . ... : ... .. . ... ...
ROW E4 : ... .. C ... ... ... : ... .. C ... ... ... : G#2 00 . P75 : ... .. . ... : ... .. . ... ...
ROW E5 : ... .. . ... ... ... : ... .. . ... ... ... : E-2 00 . P91 : ... .. 9 ... : ... .. . ... ...
ROW E6 : ... .. . ... ... ... : ... .. . ... ... ... : D-2 00 . P74 : ... .. 8 ... : ... .. . ... ...
ROW E7 : ... .. B ... ... ... : ... .. B ... ... ... : B-1 00 . P94 : ... .. 7 ... : ... .. . ... ...
ROW E8 : ... .. 0 ... V00 ... : ... .. 0 ... V00 ... : F-3 00 . P7A : ... .. D ... : ... .. . ... ...
ROW E9 : ... .. . ... ... ... : ... .. . ... ... ... : C-3 00 . P76 : ... .. . ... : ... .. . ... ...
ROW EA : ... .. . ... ... ... : ... .. . ... ... ... : G#2 00 . P75 : ... .. . ... : ... .. . ... ...
ROW EB : ... .. . ... ... ... : ... .. . ... ... ... : E-2 00 . P91 : ... .. A ... : ... .. . ... ...
ROW EC : ... .. . ... ... ... : ... .. . ... ... ... : D-2 00 . P74 : ... .. 9 ... : ... .. . ... ...
ROW ED : ... .. . ... ... ... : ... .. . ... ... ... : B-1 00 . P94 : ... .. 7 ... : ... .. . ... ...
ROW EE : ... .. . ... ... ... : ... .. . ... ... ... : F-3 00 . P7A : ... .. E ... : ... .. . ... ...
ROW EF : ... .. . ... ... ... : ... .. . ... ... ... : C-3 00 . P76 : ... .. . ... : ... .. . ... ...
ROW F0 : ... .. . ... ... ... : ... .. . ... ... ... : G#2 00 . P75 : ... .. . ... : ... .. . ... ...
ROW F1 : ... .. . ... ... ... : ... .. . ... ... ... : E-2 00 . P91 : ... .. B ... : ... .. . ... ...
ROW F2 : ... .. . ... ... ... : ... .. . ... ... ... : D-2 00 . P74 : ... .. A ... : ... .. . ... ...
ROW F3 : ... .. . ... ... ... : ... .. . ... ... ... : B-1 00 . P94 : ... .. 8 ... : ... .. . ... ...
ROW F4 : ... .. . ... ... ... : ... .. . ... ... ... : F-3 00 . P7A : ... .. F ... : ... .. . ... ...
ROW F5 : E-3 00 F P80 V01 ... : G-3 00 F P80 V01 ... : C-3 00 . P76 : ... .. . ... : ... .. . ... ...
ROW F6 : ... .. E ... ... ... : ... .. E ... ... ... : G#2 00 . P75 : ... .. . ... : ... .. . ... ...
ROW F7 : ... .. . ... ... ... : ... .. . ... ... ... : E-2 00 . P91 : ... .. C ... : ... .. . ... ...
ROW F8 : ... .. . ... ... ... : ... .. . ... ... ... : D-2 00 . P74 : ... .. B ... : ... .. . ... ...
ROW F9 : ... .. D ... ... ... : ... .. D ... ... ... : B-1 00 . P94 : ... .. 9 ... : ... .. . ... ...
ROW FA : ... .. 0 ... V00 ... : ... .. 0 ... V00 ... : F-3 00 . P7A : ... .. F ... : ... .. . ... ...
ROW FB : E-3 00 F P80 V01 ... : G-3 00 F P80 V01 ... : C-3 00 . P76 : ... .. . ... : ... .. . ... ...
ROW FC : ... .. E ... ... ... : ... .. E ... ... ... : G#2 00 . P75 : ... .. . ... : ... .. . ... ...
ROW FD : ... .. . ... ... ... : ... .. . ... ... ... : E-2 00 . P91 : ... .. C ... : ... .. . ... ...
ROW FE : ... .. . ... ... ... : ... .. . ... ... ... : D-2 00 . P74 : ... .. B ... : ... .. . ... ...
ROW FF : ... .. D ... ... ... : ... .. D ... ... ... : B-1 00 . P94 : ... .. 9 ... : ... .. . ... ...

PATTERN 03
ROW 00 : ... .. 0 ... V00 ... : ... .. 0 ... V00 ... : A#3 00 . P81 : 1-# 00 F ... : ... .. . ... ...
ROW 01 : G-2 00 F P80 V01 ... : C-3 00 F P80 V01 ... : D#3 00 . P89 : ... .. . ... : ... .. . ... ...
ROW 02 : ... .. E ... ... ... : ... .. E ... ... ... : B-2 00 . P76 : ... .. . ... : ... .. . ... ...
ROW 03 : ... .. . ... ... ... : ... .. . ... ... ... : G-2 00 . P7C : ... .. C ... : ... .. . ... ...
ROW 04 : ... .. . ... ... ... : ... .. . ... ... ... : E-2 00 . P78 : ... .. B ... : ... .. . ... ...
ROW 05 : ... .. D ... ... ... : ... .. D ... ... ... : C#2 00 . P88 : ... .. 9 ... : ... .. . ... ...
ROW 06 : ... .. . ... ... ... : ... .. . ... ... ... : B-1 00 . P7B : ... .. 6 ... : ... .. . ... ...
ROW 07 : ... .. . ... ... ... : ... .. . ... ... ... : A-1 00 . P7A : ... .. 5 ... : ... .. . ... ...
ROW 08 : ... .. C ... ... ... : ... .. C ... ... ... : G-1 00 . P86 : ... .. 3 ... : ... .. . ... ...
ROW 09 : ... .. . ... ... ... : ... .. . ... ... ... : F-1 00 . PA2 : ... .. 1 ... : ... .. . ... ...
ROW 0A : ... .. . ... ... ... : ... .. . ... ... ... : --- .. . ... : ... .. 0 ... : ... .. . ... ...
ROW 0B : ... .. B ... ... ... : ... .. B ... ... ... : ... .. . ... : ... .. . ... : ... .. . ... ...
ROW 0C : ... .. . ... ... ... : ... .. . ... ... ... : ... .. . ... : D-# 00 F ... : ... .. . ... ...
ROW 0D : ... .. . ... ... ... : ... .. . ... ... ... : C-3 00 . P80 : ... .. . ... : ... .. . ... ...
ROW 0E : ... .. A ... ... ... : ... .. A ... ... ... : ... .. . ... : ... .. . ... : ... .. . ... ...
ROW 0F : ... .. . ... ... ... : ... .. . ... ... ... : ... .. . ... : ... .. C ... : ... .. . ... ...
ROW 10 : ... .. . ... ... ... : ... .. . ... ... ... : ... .. . ... : ... .. B ... : ... .. . ... ...
ROW 11 : ... .. 9 ... ... ... : ... .. 9 ... ... ... : ... .. . ... : ... .. 9 ... : ... .. . ... ...
ROW 12 : ... .. . ... ... ... : ... .. . ... ... ... : ... .. . ... : ... .. 6 ... : ... .. . ... ...
ROW 13 : ... .. . ... ... ... : ... .. . ... ... ... : ... .. . ... : ... .. 5 ... : ... .. . ... ...
ROW 14 : ... .. 8 ... ... ... : ... .. 8 ... ... ... : ... .. . ... : ... .. 3 ... : ... .. . ... ...
ROW 15 : ... .. . ... ... ... : ... .. . ... ... ... : ... .. . ... : ... .. 1 ... : ... .. . ... ...
ROW 16 : ... .. 7 ... ... ... : ... .. 7 ... ... ... : ... .. . ... : ... .. 0 ... : ... .. . ... ...
ROW 17 : ... .. . ... ... ... : ... .. . ... ... ... : ... .. . ... : ... .. . ... : ... .. . ... ...
ROW 18 : ... .. 0 ... V00 ... : ... .. 0 ... V00 ... : A#3 00 . P81 : 4-# 00 F ... : ... .. . ... ...
ROW 19 : C-3 00 F P80 V01 ... : E-3 00 F P80 V01 ... : D#3 00 . P89 : ... .. . ... : ... .. . ... ...
ROW 1A : ... .. E ... ... ... : ... .. E ... ... ... : B-2 00 . P76 : ... .. . ... : ... .. . ... ...
ROW 1B : ... .. . ... ... ... : ... .. . ... ... ... : G-2 00 . P7C : ... .. C ... : ... .. . ... ...
ROW 1C : ... .. . ... ... ... : ... .. . ... ... ... : E-2 00 . P78 : ... .. B ... : ... .. . ... ...
ROW 1D : ... .. D ... ... ... : ... .. D ... ... ... : C#2 00 . P88 : ... .. 9 ... : ... .. . ... ...
ROW 1E : ... .. . ... ... ... : ... .. . ... ... ... : B-1 00 . P7B : ... .. 6 ... : ... .. . ... ...
ROW 1F : ... .. . ... ... ... : ... .. . ... ... ... : A-1 00 . P7A : ... .. 5 ... : ... .. . ... ...
ROW 20 : ... .. C ... ... ... : ... .. C ... ... ... : G-1 00 . P86 : ... .. 3 ... : ... .. . ... ...
ROW 21 : ... .. . ... ... ... : ... .. . ... ... ... : F-1 00 . PA2 : ... .. 1 ... : ... .. . ... ...
ROW 22 : ... .. . ... ... ... : ... .. . ... ... ... : --- .. . ... : ... .. 0 ... : ... .. . ... ...
ROW 23 : ... .. B ... ... ... : ... .. B ... ... ... : ... .. . ... : ... .. . ... : ... .. . ... ...
ROW 24 : ... .. 0 ... V00 ... : ... .. 0 ... V00 ... : ... .. . ... : D-# 00 F ... : ... .. . ... ...
ROW 25 : E-3 00 F P80 V01 ... : G-3 00 F P80 V01 ... : C-3 00 . P80 : ... .. . ... : ... .. . ... ...
ROW 26 : ... .. E ... ... ... : ... .. E ... ... ... : ... .. . ... : ... .. . ... : ... .. . ... ...
ROW 27 : ... .. . ... ... ... : ... .. . ... ... ... : ... .. . ... : ... .. C ... : ... .. . ... ...
ROW 28 : ... .. . ... ... ... : ... .. . ... ... ... : ... .. . ... : ... .. B ... : ... .. . ... ...
ROW 29 : ... .. D ... ... ... : ... .. D ... ... ... : ... .. . ... : ... .. 9 ... : ... .. . ... ...
ROW 2A : ... .. 0 ... V00 ... : ... .. 0 ... V00 ... : ... .. . ... : ... .. 6 ... : ... .. . ... ...
ROW 2B : E-3 00 F P80 V01 ... : G-3 00 F P80 V01 ... : ... .. . ... : ... .. 5 ... : ... .. . ... ...
ROW 2C : ... .. E ... ... ... : ... .. E ... ... ... : ... .. . ... : ... .. 3 ... : ... .. . ... ...
ROW 2D : ... .. . ... ... ... : ... .. . ... ... ... : ... .. . ... : ... .. 1 ... : ... .. . ... ...
ROW 2E : ... .. . ... ... ... : ... .. . ... ... ... : ... .. . ... : ... .. 0 ... : ... .. . ... ...
ROW 2F : ... .. D ... ... ... : ... .. D ... ... ... : ... .. . ... : ... .. . ... : ... .. . ... ...
ROW 30 : ... .. 0 ... V00 ... : ... .. 0 ... V00 ... : A#3 00 . P81 : 1-# 00 F ... : ... .. . ... ...
ROW 31 : E-3 00 F P80 V01 ... : G-3 00 F P80 V01 ... : D#3 00 . P89 : ... .. . ... : ... .. . ... ...
ROW 32 : ... .. E ... ... ... : ... .. E ... ... ... : B-2 00 . P76 : ... .. . ... : ... .. . ... ...
ROW 33 : ... .. . ... ... ... : ... .. . ... ... ... : G-2 00 . P7C : ... .. C ... : ... .. . ... ...
ROW 34 : ... .. . ... ... ... : ... .. . ... ... ... : E-2 00 . P78 : ... .. B ... : ... .. . ... ...
ROW 35 : ... .. D ... ... ... : ... .. D ... ... ... : C#2 00 . P88 : ... .. 9 ... : ... .. . ... ...
ROW 36 : ... .. . ... ... ... : ... .. . ... ... ... : B-1 00 . P7B : ... .. 6 ... : ... .. . ... ...
ROW 37 : ... .. . ... ... ... : ... .. . ... ... ... : A-1 00 . P7A : ... .. 5 ... : ... .. . ... ...
ROW 38 : ... .. C ... ... ... : ... .. C ... ... ... : G-1 00 . P86 : ... .. 3 ... : ... .. . ... ...
ROW 39 : ... .. . ... ... ... : ... .. . ... ... ... : F-1 00 . PA2 : ... .. 1 ... : ... .. . ... ...
ROW 3A : ... .. . ... ... ... : ... .. . ... ... ... : --- .. . ... : ... .. 0 ... : ... .. . ... ...
ROW 3B : ... .. B ... ... ... : ... .. B ... ... ... : ... .. . ... : ... .. . ... : ... .. . ... ...
ROW 3C : ... .. 0 ... V00 ... : ... .. 0 ... V00 ... : ... .. . ... : D-# 00 F ... : ... .. . ... ...
ROW 3D : C-3 00 F P80 V01 ... : E-3 00 F P80 V01 ... : C-3 00 . P80 : ... .. . ... : ... .. . ... ...
ROW 3E : ... .. E ... ... ... : ... .. E ... ... ... : ... .. . ... : ... .. . ... : ... .. . ... ...
ROW 3F : ... .. . ... ... ... : ... .. . ... ... ... : ... .. . ... : ... .. C ... : ... .. . ... ...
ROW 40 : ... .. . ... ... ... : ... .. . ... ... ... : ... .. . ... : ... .. B ... : ... .. . ... ...
ROW 41 : ... .. D ... ... ... : ... .. D ... ... ... : ... .. . ... : ... .. 9 ... : ... .. . ... ...
ROW 42 : ... .. . ... ... ... : ... .. . ... ... ... : ... .. . ... : ... .. 6 ... : ... .. . ... ...
ROW 43 : ... .. . ... ... ... : ... .. . ... ... ... : ... .. . ... : ... .. 5 ... : ... .. . ... ...
ROW 44 : ... .. C ... ... ... : ... .. C ... ... ... : ... .. . ... : ... .. 3 ... : ... .. . ... ...
ROW 45 : ... .. . ... ... ... : ... .. . ... ... ... : ... .. . ... : ... .. 1 ... : ... .. . ... ...
ROW 46 : ... .. . ... ... ... : ... .. . ... ... ... : ... .. . ... : ... .. 0 ... : ... .. . ... ...
ROW 47 : ... .. B ... ... ... : ... .. B ... ... ... : ... .. . ... : ... .. . ... : ... .. . ... ...
ROW 48 : ... .. 0 ... V00 ... : ... .. 0 ... V00 ... : A#3 00 . P81 : 4-# 00 F ... : ... .. . ... ...
ROW 49 : G-2 00 F P80 V01 ... : D-3 00 F P80 V01 ... : D#3 00 . P89 : ... .. . ... : ... .. . ... ...
ROW 4A : ... .. E ... ... ... : ... .. E ... ... ... : B-2 00 . P76 : ... .. . ... : ... .. . ... ...
ROW 4B : ... .. . ... ... ... : ... .. . ... ... ... : G-2 00 . P7C : ... .. C ... : ... .. . ... ...
ROW 4C : ... .. . ... ... ... : ... .. . ... ... ... : E-2 00 . P78 : ... .. B ... : ... .. . ... ...
ROW 4D : ... .. D ... ... ... : ... .. D ... ... ... : C#2 00 . P88 : ... .. 9 ... : ... .. . ... ...
ROW 4E : ... .. . ... ... ... : ... .. . ... ... ... : B-1 00 . P7B : ... .. 6 ... : ... .. . ... ...
ROW 4F : ... .. . ... ... ... : ... .. . ... ... ... : A-1 00 . P7A : ... .. 5 ... : ... .. . ... ...
ROW 50 : ... .. C ... ... ... : ... .. C ... ... ... : G-1 00 . P86 : ... .. 3 ... : ... .. . ... ...
ROW 51 : ... .. . ... ... ... : ... .. . ... ... ... : F-1 00 . PA2 : ... .. 1 ... : ... .. . ... ...
ROW 52 : ... .. . ... ... ... : ... .. . ... ... ... : --- .. . ... : ... .. 0 ... : ... .. . ... ...
ROW 53 : ... .. B ... ... ... : ... .. B ... ... ... : ... .. . ... : ... .. . ... : ... .. . ... ...
ROW 54 : ... .. 0 ... V00 ... : ... .. 0 ... V00 ... : ... .. . ... : D-# 00 F ... : ... .. . ... ...
ROW 55 : C-3 00 F P80 V01 ... : E-3 00 F P80 V01 ... : C-3 00 . P80 : ... .. . ... : ... .. . ... ...
ROW 56 : ... .. E ... ... ... : ... .. E ... ... ... : ... .. . ... : ... .. . ... : ... .. . ... ...
ROW 57 : ... .. . ... ... ... : ... .. . ... ... ... : ... .. . ... : ... .. C ... : ... .. . ... ...
ROW 58 : ... .. . ... ... ... : ... .. . ... ... ... : ... .. . ... : ... .. B ... : ... .. . ... ...
ROW 59 : ... .. D ... ... ... : ... .. D ... ... ... : ... .. . ... : ... .. 9 ... : ... .. . ... ...
ROW 5A : ... .. . ... ... ... : ... .. . ... ... ... : ... .. . ... : ... .. 6 ... : ... .. . ... ...
ROW 5B : ... .. . ... ... ... : ... .. . ... ... ... : ... .. . ... : ... .. 5 ... : ... .. . ... ...
ROW 5C : ... .. C ... ... ... : ... .. C ... ... ... : ... .. . ... : ... .. 3 ... : ... .. . ... ...
ROW 5D : ... .. . ... ... ... : ... .. . ... ... ... : ... .. . ... : ... .. 1 ... : ... .. . ... ...
ROW 5E : ... .. . ... ... ... : ... .. . ... ... ... : ... .. . ... : ... .. 0 ... : ... .. . ... ...
ROW 5F : ... .. B ... ... ... : ... .. B ... ... ... : ... .. . ... : ... .. . ... : ... .. . ... ...
ROW 60 : ... .. 0 ... V00 ... : ... .. 0 ... V00 ... : A#3 00 . P81 : 1-# 00 F ... : ... .. . ... ...
ROW 61 : F-3 00 F P80 V01 ... : A-3 00 F P80 V01 ... : D#3 00 . P89 : ... .. . ... : ... .. . ... ...
ROW 62 : ... .. E ... ... ... : ... .. E ... ... ... : B-2 00 . P76 : ... .. . ... : ... .. . ... ...
ROW 63 : ... .. . ... ... ... : ... .. . ... ... ... : G-2 00 . P7C : ... .. C ... : ... .. . ... ...
ROW 64 : ... .. . ... ... ... : ... .. . ... ... ... : E-2 00 . P78 : ... .. B ... : ... .. . ... ...
ROW 65 : ... .. D ... ... ... : ... .. D ... ... ... : C#2 00 . P88 : ... .. 9 ... : ... .. . ... ...
ROW 66 : ... .. . ... ... ... : ... .. . ... ... ... : B-1 00 . P7B : ... .. 6 ... : ... .. . ... ...
ROW 67 : ... .. . ... ... ... : ... .. . ... ... ... : A-1 00 . P7A : ... .. 5 ... : ... .. . ... ...
ROW 68 : ... .. C ... ... ... : ... .. C ... ... ... : G-1 00 . P86 : ... .. 3 ... : ... .. . ... ...
ROW 69 : ... .. . ... ... ... : ... .. . ... ... ... : F-1 00 . PA2 : ... .. 1 ... : ... .. . ... ...
ROW 6A : ... .. . ... ... ... : ... .. . ... ... ... : --- .. . ... : ... .. 0 ... : ... .. . ... ...
ROW 6B : ... .. B ... ... ... : ... .. B ... ... ... : ... .. . ... : ... .. . ... : ... .. . ... ...
ROW 6C : ... .. . ... ... ... : ... .. . ... ... ... : ... .. . ... : D-# 00 F ... : ... .. . ... ...
ROW 6D : ... .. . ... ... ... : ... .. . ... ... ... : F-2 00 . P80 : ... .. . ... : ... .. . ... ...
ROW 6E : ... .. A ... ... ... : ... .. A ... ... ... : ... .. . ... : ... .. . ... : ... .. . ... ...
ROW 6F : ... .. . ... ... ... : ... .. . ... ... ... : ... .. . ... : ... .. C ... : ... .. . ... ...
ROW 70 : ... .. . ... ... ... : ... .. . ... ... ... : ... .. . ... : ... .. B ... : ... .. . ... ...
ROW 71 : ... .. 9 ... ... ... : ... .. 9 ... ... ... : ... .. . ... : ... .. 9 ... : ... .. . ... ...
ROW 72 : ... .. . ... ... ... : ... .. . ... ... ... : ... .. . ... : ... .. 6 ... : ... .. . ... ...
ROW 73 : ... .. . ... ... ... : ... .. . ... ... ... : ... .. . ... : ... .. 5 ... : ... .. . ... ...
ROW 74 : ... .. 8 ... ... ... : ... .. 8 ... ... ... : ... .. . ... : ... .. 3 ... : ... .. . ... ...
ROW 75 : ... .. . ... ... ... : ... .. . ... ... ... : ... .. . ... : ... .. 1 ... : ... .. . ... ...
ROW 76 : ... .. 7 ... ... ... : ... .. 7 ... ... ... : ... .. . ... : ... .. 0 ... : ... .. . ... ...
ROW 77 : ... .. . ... ... ... : ... .. . ... ... ... : ... .. . ... : ... .. . ... : ... .. . ... ...
ROW 78 : ... .. 0 ... V00 ... : ... .. 0 ... V00 ... : A#3 00 . P81 : 4-# 00 F ... : ... .. . ... ...
ROW 79 : F-3 00 F P80 V01 ... : A-3 00 F P80 V01 ... : D#3 00 . P89 : ... .. . ... : ... .. . ... ...
ROW 7A : ... .. E ... ... ... : ... .. E ... ... ... : B-2 00 . P76 : ... .. . ... : ... .. . ... ...
ROW 7B : ... .. . ... ... ... : ... .. . ... ... ... : G-2 00 . P7C : ... .. C ... : ... .. . ... ...
ROW 7C : ... .. . ... ... ... : ... .. . ... ... ... : E-2 00 . P78 : ... .. B ... : ... .. . ... ...
ROW 7D : ... .. D ... ... ... : ... .. D ... ... ... : C#2 00 . P88 : ... .. 9 ... : ... .. . ... ...
ROW 7E : ... .. . ... ... ... : ... .. . ... ... ... : B-1 00 . P7B : ... .. 6 ... : ... .. . ... ...
ROW 7F : ... .. . ... ... ... : ... .. . ... ... ... : A-1 00 . P7A : ... .. 5 ... : ... .. . ... ...
ROW 80 : ... .. C ... ... ... : ... .. C ... ... ... : G-1 00 . P86 : ... .. 3 ... : ... .. . ... ...
ROW 81 : ... .. . ... ... ... : ... .. . ... ... ... : F-1 00 . PA2 : ... .. 1 ... : ... .. . ... ...
ROW 82 : ... .. . ... ... ... : ... .. . ... ... ... : --- .. . ... : ... .. 0 ... : ... .. . ... ...
ROW 83 : ... .. B ... ... ... : ... .. B ... ... ... : ... .. . ... : ... .. . ... : ... .. . ... ...
ROW 84 : ... .. 0 ... V00 ... : ... .. 0 ... V00 ... : ... .. . ... : D-# 00 F ... : ... .. . ... ...
ROW 85 : E-3 00 F P80 V01 ... : G-3 00 F P80 V01 ... : F-2 00 . P80 : ... .. . ... : ... .. . ... ...
ROW 86 : ... .. E ... ... ... : ... .. E ... ... ... : ... .. . ... : ... .. . ... : ... .. . ... ...
ROW 87 : ... .. . ... ... ... : ... .. . ... ... ... : ... .. . ... : ... .. C ... : ... .. . ... ...
ROW 88 : ... .. . ... ... ... : ... .. . ... ... ... : ... .. . ... : ... .. B ... : ... .. . ... ...
ROW 89 : ... .. D ... ... ... : ... .. D ... ... ... : ... .. . ... : ... .. 9 ... : ... .. . ... ...
ROW 8A : ... .. 0 ... V00 ... : ... .. 0 ... V00 ... : ... .. . ... : ... .. 6 ... : ... .. . ... ...
ROW 8B : E-3 00 F P80 V01 ... : G-3 00 F P80 V01 ... : ... .. . ... : ... .. 5 ... : ... .. . ... ...
ROW 8C : ... .. E ... ... ... : ... .. E ... ... ... : ... .. . ... : ... .. 3 ... : ... .. . ... ...
ROW 8D : ... .. . ... ... ... : ... .. . ... ... ... : ... .. . ... : ... .. 1 ... : ... .. . ... ...
ROW 8E : ... .. . ... ... ... : ... .. . ... ... ... : ... .. . ... : ... .. 0 ... : ... .. . ... ...
ROW 8F : ... .. D ... ... ... : ... .. D ... ... ... : ... .. . ... : ... .. . ... : ... .. . ... ...
ROW 90 : ... .. 0 ... V00 ... : ... .. 0 ... V00 ... : A#3 00 . P81 : 1-# 00 F ... : ... .. . ... ...
ROW 91 : E-3 00 F P80 V01 ... : G-3 00 F P80 V01 ... : D#3 00 . P89 : ... .. . ... : ... .. . ... ...
ROW 92 : ... .. E ... ... ... : ... .. E ... ... ... : B-2 00 . P76 : ... .. . ... : ... .. . ... ...
ROW 93 : ... .. . ... ... ... : ... .. . ... ... ... : G-2 00 . P7C : ... .. C ... : ... .. . ... ...
ROW 94 : ... .. . ... ... ... : ... .. . ... ... ... : E-2 00 . P78 : ... .. B ... : ... .. . ... ...
ROW 95 : ... .. D ... ... ... : ... .. D ... ... ... : C#2 00 . P88 : ... .. 9 ... : ... .. . ... ...
ROW 96 : ... .. . ... ... ... : ... .. . ... ... ... : B-1 00 . P7B : ... .. 6 ... : ... .. . ... ...
ROW 97 : ... .. . ... ... ... : ... .. . ... ... ... : A-1 00 . P7A : ... .. 5 ... : ... .. . ... ...
ROW 98 : ... .. C ... ... ... : ... .. C ... ... ... : G-1 00 . P86 : ... .. 3 ... : ... .. . ... ...
ROW 99 : ... .. . ... ... ... : ... .. . ... ... ... : F-1 00 . PA2 : ... .. 1 ... : ... .. . ... ...
ROW 9A : ... .. . ... ... ... : ... .. . ... ... ... : --- .. . ... : ... .. 0 ... : ... .. . ... ...
ROW 9B : ... .. B ... ... ... : ... .. B ... ... ... : ... .. . ... : ... .. . ... : ... .. . ... ...
ROW 9C : ... .. 0 ... V00 ... : ... .. 0 ... V00 ... : ... .. . ... : D-# 00 F ... : ... .. . ... ...
ROW 9D : C-3 00 F P80 V01 ... : E-3 00 F P80 V01 ... : G-2 00 . P80 : ... .. . ... : ... .. . ... ...
ROW 9E : ... .. E ... ... ... : ... .. E ... ... ... : ... .. . ... : ... .. . ... : ... .. . ... ...
ROW 9F : ... .. . ... ... ... : ... .. . ... ... ... : ... .. . ... : ... .. C ... : ... .. . ... ...
ROW A0 : ... .. . ... ... ... : ... .. . ... ... ... : ... .. . ... : ... .. B ... : ... .. . ... ...
ROW A1 : ... .. D ... ... ... : ... .. D ... ... ... : ... .. . ... : ... .. 9 ... : ... .. . ... ...
ROW A2 : ... .. . ... ... ... : ... .. . ... ... ... : ... .. . ... : ... .. 6 ... : ... .. . ... ...
ROW A3 : ... .. . ... ... ... : ... .. . ... ... ... : ... .. . ... : ... .. 5 ... : ... .. . ... ...
ROW A4 : ... .. C ... ... ... : ... .. C ... ... ... : ... .. . ... : ... .. 3 ... : ... .. . ... ...
ROW A5 : ... .. . ... ... ... : ... .. . ... ... ... : ... .. . ... : ... .. 1 ... : ... .. . ... ...
ROW A6 : ... .. . ... ... ... : ... .. . ... ... ... : ... .. . ... : ... .. 0 ... : ... .. . ... ...
ROW A7 : ... .. B ... ... ... : ... .. B ... ... ... : ... .. . ... : ... .. . ... : ... .. . ... ...
ROW A8 : ... .. 0 ... V00 ... : ... .. 0 ... V00 ... : A#3 00 . P81 : 4-# 00 F ... : ... .. . ... ...
ROW A9 : G-2 00 F P80 V01 ... : D-3 00 F P80 V01 ... : D#3 00 . P89 : ... .. . ... : ... .. . ... ...
ROW AA : ... .. E ... ... ... : ... .. E ... ... ... : B-2 00 . P76 : ... .. . ... : ... .. . ... ...
ROW AB : ... .. . ... ... ... : ... .. . ... ... ... : G-2 00 . P7C : ... .. C ... : ... .. . ... ...
ROW AC : ... .. . ... ... ... : ... .. . ... ... ... : E-2 00 . P78 : ... .. B ... : ... .. . ... ...
ROW AD : ... .. D ... ... ... : ... .. D ... ... ... : C#2 00 . P88 : ... .. 9 ... : ... .. . ... ...
ROW AE : ... .. . ... ... ... : ... .. . ... ... ... : B-1 00 . P7B : ... .. 6 ... : ... .. . ... ...
ROW AF : ... .. . ... ... ... : ... .. . ... ... ... : A-1 00 . P7A : ... .. 5 ... : ... .. . ... ...
ROW B0 : ... .. C ... ... ... : ... .. C ... ... ... : G-1 00 . P86 : ... .. 3 ... : ... .. . ... ...
ROW B1 : ... .. . ... ... ... : ... .. . ... ... ... : F-1 00 . PA2 : ... .. 1 ... : ... .. . ... ...
ROW B2 : ... .. . ... ... ... : ... .. . ... ... ... : --- .. . ... : ... .. 0 ... : ... .. . ... ...
ROW B3 : ... .. B ... ... ... : ... .. B ... ... ... : ... .. . ... : ... .. . ... : ... .. . ... ...
ROW B4 : ... .. 0 ... V00 ... : ... .. 0 ... V00 ... : ... .. . ... : D-# 00 F ... : ... .. . ... ...
ROW B5 : C-3 00 F P80 V01 ... : E-3 00 F P80 V01 ... : G-2 00 . P80 : ... .. . ... : ... .. . ... ...
ROW B6 : ... .. E ... ... ... : ... .. E ... ... ... : ... .. . ... : ... .. . ... : ... .. . ... ...
ROW B7 : ... .. . ... ... ... : ... .. . ... ... ... : ... .. . ... : ... .. C ... : ... .. . ... ...
ROW B8 : ... .. . ... ... ... : ... .. . ... ... ... : ... .. . ... : ... .. B ... : ... .. . ... ...
ROW B9 : ... .. D ... ... ... : ... .. D ... ... ... : ... .. . ... : ... .. 9 ... : ... .. . ... ...
ROW BA : ... .. . ... ... ... : ... .. . ... ... ... : ... .. . ... : ... .. 6 ... : ... .. . ... ...
ROW BB : ... .. . ... ... ... : ... .. . ... ... ... : ... .. . ... : ... .. 5 ... : ... .. . ... ...
ROW BC : ... .. C ... ... ... : ... .. C ... ... ... : ... .. . ... : ... .. 3 ... : ... .. . ... ...
ROW BD : ... .. . ... ... ... : ... .. . ... ... ... : ... .. . ... : ... .. 1 ... : ... .. . ... ...
ROW BE : ... .. . ... ... ... : ... .. . ... ... ... : ... .. . ... : ... .. 0 ... : ... .. . ... ...
ROW BF : ... .. B ... ... ... : ... .. B ... ... ... : ... .. . ... : ... .. . ... : ... .. . ... ...
ROW C0 : ... .. 0 ... V00 ... : ... .. 0 ... V00 ... : A#3 00 . P81 : 1-# 00 F ... : ... .. . ... ...
ROW C1 : G-2 00 F P80 V01 ... : C-3 00 F P80 V01 ... : D#3 00 . P89 : ... .. . ... : ... .. . ... ...
ROW C2 : ... .. E ... ... ... : ... .. E ... ... ... : B-2 00 . P76 : ... .. . ... : ... .. . ... ...
ROW C3 : ... .. . ... ... ... : ... .. . ... ... ... : G-2 00 . P7C : ... .. C ... : ... .. . ... ...
ROW C4 : ... .. . ... ... ... : ... .. . ... ... ... : E-2 00 . P78 : ... .. B ... : ... .. . ... ...
ROW C5 : ... .. D ... ... ... : ... .. D ... ... ... : C#2 00 . P88 : ... .. 9 ... : ... .. . ... ...
ROW C6 : ... .. . ... ... ... : ... .. . ... ... ... : B-1 00 . P7B : ... .. 6 ... : ... .. . ... ...
ROW C7 : ... .. . ... ... ... : ... .. . ... ... ... : A-1 00 . P7A : ... .. 5 ... : ... .. . ... ...
ROW C8 : ... .. C ... ... ... : ... .. C ... ... ... : G-1 00 . P86 : ... .. 3 ... : ... .. . ... ...
ROW C9 : ... .. . ... ... ... : ... .. . ... ... ... : F-1 00 . PA2 : ... .. 1 ... : ... .. . ... ...
ROW CA : ... .. . ... ... ... : ... .. . ... ... ... : --- .. . ... : ... .. 0 ... : ... .. . ... ...
ROW CB : ... .. B ... ... ... : ... .. B ... ... ... : ... .. . ... : ... .. . ... : ... .. . ... ...
ROW CC : ... .. . ... ... ... : ... .. . ... ... ... : ... .. . ... : D-# 00 F ... : ... .. . ... ...
ROW CD : ... .. . ... ... ... : ... .. . ... ... ... : C-3 00 . P80 : ... .. . ... : ... .. . ... ...
ROW CE : ... .. A ... ... ... : ... .. A ... ... ... : ... .. . ... : ... .. . ... : ... .. . ... ...
ROW CF : ... .. . ... ... ... : ... .. . ... ... ... : ... .. . ... : ... .. C ... : ... .. . ... ...
ROW D0 : ... .. . ... ... ... : ... .. . ... ... ... : ... .. . ... : ... .. B ... : ... .. . ... ...
ROW D1 : ... .. 9 ... ... ... : ... .. 9 ... ... ... : ... .. . ... : ... .. 9 ... : ... .. . ... ...
ROW D2 : ... .. . ... ... ... : ... .. . ... ... ... : ... .. . ... : ... .. 6 ... : ... .. . ... ...
ROW D3 : ... .. . ... ... ... : ... .. . ... ... ... : ... .. . ... : ... .. 5 ... : ... .. . ... ...
ROW D4 : ... .. 8 ... ... ... : ... .. 8 ... ... ... : ... .. . ... : ... .. 3 ... : ... .. . ... ...
ROW D5 : ... .. . ... ... ... : ... .. . ... ... ... : ... .. . ... : ... .. 1 ... : ... .. . ... ...
ROW D6 : ... .. 7 ... ... ... : ... .. 7 ... ... ... : ... .. . ... : ... .. 0 ... : ... .. . ... ...
ROW D7 : ... .. . ... ... ... : ... .. . ... ... ... : ... .. . ... : ... .. . ... : ... .. . ... ...
ROW D8 : ... .. 0 ... V00 ... : ... .. 0 ... V00 ... : A#3 00 . P81 : 4-# 00 F ... : ... .. . ... ...
ROW D9 : C-3 00 F P80 V01 ... : E-3 00 F P80 V01 ... : D#3 00 . P89 : ... .. . ... : ... .. . ... ...
ROW DA : ... .. E ... ... ... : ... .. E ... ... ... : B-2 00 . P76 : ... .. . ... : ... .. . ... ...
ROW DB : ... .. . ... ... ... : ... .. . ... ... ... : G-2 00 . P7C : ... .. C ... : ... .. . ... ...
ROW DC : ... .. . ... ... ... : ... .. . ... ... ... : E-2 00 . P78 : ... .. B ... : ... .. . ... ...
ROW DD : ... .. D ... ... ... : ... .. D ... ... ... : C#2 00 . P88 : ... .. 9 ... : ... .. . ... ...
ROW DE : ... .. . ... ... ... : ... .. . ... ... ... : B-1 00 . P7B : ... .. 6 ... : ... .. . ... ...
ROW DF : ... .. . ... ... ... : ... .. . ... ... ... : A-1 00 . P7A : ... .. 5 ... : ... .. . ... ...
ROW E0 : ... .. C ... ... ... : ... .. C ... ... ... : G-1 00 . P86 : ... .. 3 ... : ... .. . ... ...
ROW E1 : ... .. . ... ... ... : ... .. . ... ... ... : F-1 00 . PA2 : ... .. 1 ... : ... .. . ... ...
ROW E2 : ... .. . ... ... ... : ... .. . ... ... ... : --- .. . ... : ... .. 0 ... : ... .. . ... ...
ROW E3 : ... .. B ... ... ... : ... .. B ... ... ... : ... .. . ... : ... .. . ... : ... .. . ... ...
ROW E4 : ... .. 0 ... V00 ... : ... .. 0 ... V00 ... : ... .. . ... : D-# 00 F ... : ... .. . ... ...
ROW E5 : E-3 00 F P80 V01 ... : G-3 00 F P80 V01 ... : C-3 00 . P80 : ... .. . ... : ... .. . ... ...
ROW E6 : ... .. E ... ... ... : ... .. E ... ... ... : ... .. . ... : ... .. . ... : ... .. . ... ...
ROW E7 : ... .. . ... ... ... : ... .. . ... ... ... : ... .. . ... : ... .. C ... : ... .. . ... ...
ROW E8 : ... .. . ... ... ... : ... .. . ... ... ... : ... .. . ... : ... .. B ... : ... .. . ... ...
ROW E9 : ... .. D ... ... ... : ... .. D ... ... ... : ... .. . ... : ... .. 9 ... : ... .. . ... ...
ROW EA : ... .. 0 ... V00 ... : ... .. 0 ... V00 ... : ... .. . ... : ... .. 6 ... : ... .. . ... ...
ROW EB : E-3 00 F P80 V01 ... : G-3 00 F P80 V01 ... : ... .. . ... : ... .. 5 ... : ... .. . ... ...
ROW EC : ... .. E ... ... ... : ... .. E ... ... ... : ... .. . ... : ... .. 3 ... : ... .. . ... ...
ROW ED : ... .. . ... ... ... : ... .. . ... ... ... : ... .. . ... : ... .. 1 ... : ... .. . ... ...
ROW EE : ... .. . ... ... ... : ... .. . ... ... ... : ... .. . ... : ... .. 0 ... : ... .. . ... ...
ROW EF : ... .. D ... ... ... : ... .. D ... ... ... : ... .. . ... : ... .. . ... : ... .. . ... ...
ROW F0 : ... .. 0 ... V00 ... : ... .. 0 ... V00 ... : A#3 00 . P81 : 1-# 00 F ... : ... .. . ... ...
ROW F1 : E-3 00 F P80 V01 ... : G-3 00 F P80 V01 ... : D#3 00 . P89 : ... .. . ... : ... .. . ... ...
ROW F2 : ... .. E ... ... ... : ... .. E ... ... ... : B-2 00 . P76 : ... .. . ... : ... .. . ... ...
ROW F3 : ... .. . ... ... ... : ... .. . ... ... ... : G-2 00 . P7C : ... .. C ... : ... .. . ... ...
ROW F4 : ... .. . ... ... ... : ... .. . ... ... ... : E-2 00 . P78 : ... .. B ... : ... .. . ... ...
ROW F5 : ... .. D ... ... ... : ... .. D ... ... ... : C#2 00 . P88 : ... .. 9 ... : ... .. . ... ...
ROW F6 : ... .. . ... ... ... : ... .. . ... ... ... : B-1 00 . P7B : ... .. 6 ... : ... .. . ... ...
ROW F7 : ... .. . ... ... ... : ... .. . ... ... ... : A-1 00 . P7A : ... .. 5 ... : ... .. . ... ...
ROW F8 : ... .. C ... ... ... : ... .. C ... ... ... : G-1 00 . P86 : ... .. 3 ... : ... .. . ... ...
ROW F9 : ... .. . ... ... ... : ... .. . ... ... ... : F-1 00 . PA2 : ... .. 1 ... : ... .. . ... ...
ROW FA : ... .. . ... ... ... : ... .. . ... ... ... : --- .. . ... : ... .. 0 ... : ... .. . ... ...
ROW FB : ... .. B ... ... ... : ... .. B ... ... ... : ... .. . ... : ... .. . ... : ... .. . ... ...
ROW FC : ... .. 0 ... V00 ... : ... .. 0 ... V00 ... : ... .. . ... : D-# 00 F ... : ... .. . ... ...
ROW FD : C-3 00 F P80 V01 ... : E-3 00 F P80 V01 ... : C-3 00 . P80 : ... .. . ... : ... .. . ... ...
ROW FE : ... .. E ... ... ... : ... .. E ... ... ... : ... .. . ... : ... .. . ... : ... .. . ... ...
ROW FF : ... .. . ... ... ... : ... .. . ... ... ... : ... .. . ... : ... .. C ... : ... .. . ... ...

PATTERN 04
ROW 00 : ... .. . ... ... ... : ... .. . ... ... ... : ... .. . ... : ... .. B ... : ... .. . ... ...
ROW 01 : ... .. D ... ... ... : ... .. D ... ... ... : ... .. . ... : ... .. 9 ... : ... .. . ... ...
ROW 02 : ... .. . ... ... ... : ... .. . ... ... ... : ... .. . ... : ... .. 6 ... : ... .. . ... ...
ROW 03 : ... .. . ... ... ... : ... .. . ... ... ... : ... .. . ... : ... .. 5 ... : ... .. . ... ...
ROW 04 : ... .. C ... ... ... : ... .. C ... ... ... : ... .. . ... : ... .. 3 ... : ... .. . ... ...
ROW 05 : ... .. . ... ... ... : ... .. . ... ... ... : ... .. . ... : ... .. 1 ... : ... .. . ... ...
ROW 06 : ... .. . ... ... ... : ... .. . ... ... ... : ... .. . ... : ... .. 0 ... : ... .. . ... ...
ROW 07 : ... .. B ... ... ... : ... .. B ... ... ... : ... .. . ... : ... .. . ... : ... .. . ... ...
ROW 08 : ... .. 0 ... V00 ... : ... .. 0 ... V00 ... : A#3 00 . P81 : 4-# 00 F ... : ... .. . ... ...
ROW 09 : G-2 00 F P80 V01 ... : D-3 00 F P80 V01 ... : D#3 00 . P89 : ... .. . ... : ... .. . ... ...
ROW 0A : ... .. E ... ... ... : ... .. E ... ... ... : B-2 00 . P76 : ... .. . ... : ... .. . ... ...
ROW 0B : ... .. . ... ... ... : ... .. . ... ... ... : G-2 00 . P7C : ... .. C ... : ... .. . ... ...
ROW 0C : ... .. . ... ... ... : ... .. . ... ... ... : E-2 00 . P78 : ... .. B ... : ... .. . ... ...
ROW 0D : ... .. D ... ... ... : ... .. D ... ... ... : C#2 00 . P88 : ... .. 9 ... : ... .. . ... ...
ROW 0E : ... .. . ... ... ... : ... .. . ... ... ... : B-1 00 . P7B : ... .. 6 ... : ... .. . ... ...
ROW 0F : ... .. . ... ... ... : ... .. . ... ... ... : A-1 00 . P7A : ... .. 5 ... : ... .. . ... ...
ROW 10 : ... .. C ... ... ... : ... .. C ... ... ... : G-1 00 . P86 : ... .. 3 ... : ... .. . ... ...
ROW 11 : ... .. . ... ... ... : ... .. . ... ... ... : F-1 00 . PA2 : ... .. 1 ... : ... .. . ... ...
ROW 12 : ... .. . ... ... ... : ... .. . ... ... ... : --- .. . ... : ... .. 0 ... : ... .. . ... ...
ROW 13 : ... .. B ... ... ... : ... .. B ... ... ... : ... .. . ... : ... .. . ... : ... .. . ... ...
ROW 14 : ... .. 0 ... V00 ... : ... .. 0 ... V00 ... : ... .. . ... : D-# 00 F ... : ... .. . ... ...
ROW 15 : C-3 00 F P80 V01 ... : E-3 00 F P80 V01 ... : C-3 00 . P80 : ... .. . ... : ... .. . ... ...
ROW 16 : ... .. E ... ... ... : ... .. E ... ... ... : ... .. . ... : ... .. . ... : ... .. . ... ...
ROW 17 : ... .. . ... ... ... : ... .. . ... ... ... : ... .. . ... : ... .. C ... : ... .. . ... ...
ROW 18 : ... .. . ... ... ... : ... .. . ... ... ... : ... .. . ... : ... .. B ... : ... .. . ... ...
ROW 19 : ... .. D ... ... ... : ... .. D ... ... ... : ... .. . ... : ... .. 9 ... : ... .. . ... ...
ROW 1A : ... .. . ... ... ... : ... .. . ... ... ... : ... .. . ... : ... .. 6 ... : ... .. . ... ...
ROW 1B : ... .. . ... ... ... : ... .. . ... ... ... : ... .. . ... : ... .. 5 ... : ... .. . ... ...
ROW 1C : ... .. C ... ... ... : ... .. C ... ... ... : ... .. . ... : ... .. 3 ... : ... .. . ... ...
ROW 1D : ... .. . ... ... ... : ... .. . ... ... ... : ... .. . ... : ... .. 1 ... : ... .. . ... ...
ROW 1E : ... .. . ... ... ... : ... .. . ... ... ... : ... .. . ... : ... .. 0 ... : ... .. . ... ...
ROW 1F : ... .. B ... ... ... : ... .. B ... ... ... : ... .. . ... : ... .. . ... : ... .. . ... ...
ROW 20 : ... .. 0 ... V00 ... : ... .. 0 ... V00 ... : A#3 00 . P81 : 1-# 00 F ... : ... .. . ... ...
ROW 21 : F-3 00 F P80 V01 ... : A-3 00 F P80 V01 ... : D#3 00 . P89 : ... .. . ... : ... .. . ... ...
ROW 22 : ... .. E ... ... ... : ... .. E ... ... ... : B-2 00 . P76 : ... .. . ... : ... .. . ... ...
ROW 23 : ... .. . ... ... ... : ... .. . ... ... ... : G-2 00 . P7C : ... .. C ... : ... .. . ... ...
ROW 24 : ... .. . ... ... ... : ... .. . ... ... ... : E-2 00 . P78 : ... .. B ... : ... .. . ... ...
ROW 25 : ... .. D ... ... ... : ... .. D ... ... ... : C#2 00 . P88 : ... .. 9 ... : ... .. . ... ...
ROW 26 : ... .. . ... ... ... : ... .. . ... ... ... : B-1 00 . P7B : ... .. 6 ... : ... .. . ... ...
ROW 27 : ... .. . ... ... ... : ... .. . ... ... ... : A-1 00 . P7A : ... .. 5 ... : ... .. . ... ...
ROW 28 : ... .. C ... ... ... : ... .. C ... ... ... : G-1 00 . P86 : ... .. 3 ... : ... .. . ... ...
ROW 29 : ... .. . ... ... ... : ... .. . ... ... ... : F-1 00 . PA2 : ... .. 1 ... : ... .. . ... ...
ROW 2A : ... .. . ... ... ... : ... .. . ... ... ... : --- .. . ... : ... .. 0 ... : ... .. . ... ...
ROW 2B : ... .. B ... ... ... : ... .. B ... ... ... : ... .. . ... : ... .. . ... : ... .. . ... ...
ROW 2C : ... .. . ... ... ... : ... .. . ... ... ... : ... .. . ... : D-# 00 F ... : ... .. . ... ...
ROW 2D : ... .. . ... ... ... : ... .. . ... ... ... : F-2 00 . P80 : ... .. . ... : ... .. . ... ...
ROW 2E : ... .. A ... ... ... : ... .. A ... ... ... : ... .. . ... : ... .. . ... : ... .. . ... ...
ROW 2F : ... .. . ... ... ... : ... .. . ... ... ... : ... .. . ... : ... .. C ... : ... .. . ... ...
ROW 30 : ... .. . ... ... ... : ... .. . ... ... ... : ... .. . ... : ... .. B ... : ... .. . ... ...
ROW 31 : ... .. 9 ... ... ... : ... .. 9 ... ... ... : ... .. . ... : ... .. 9 ... : ... .. . ... ...
ROW 32 : ... .. . ... ... ... : ... .. . ... ... ... : ... .. . ... : ... .. 6 ... : ... .. . ... ...
ROW 33 : ... .. . ... ... ... : ... .. . ... ... ... : ... .. . ... : ... .. 5 ... : ... .. . ... ...
ROW 34 : ... .. 8 ... ... ... : ... .. 8 ... ... ... : ... .. . ... : ... .. 3 ... : ... .. . ... ...
ROW 35 : ... .. . ... ... ... : ... .. . ... ... ... : ... .. . ... : ... .. 1 ... : ... .. . ... ...
ROW 36 : ... .. 7 ... ... ... : ... .. 7 ... ... ... : ... .. . ... : ... .. 0 ... : ... .. . ... ...
ROW 37 : ... .. . ... ... ... : ... .. . ... ... ... : ... .. . ... : ... .. . ... : ... .. . ... ...
ROW 38 : ... .. 0 ... V00 ... : ... .. 0 ... V00 ... : A#3 00 . P81 : 4-# 00 F ... : ... .. . ... ...
ROW 39 : F-3 00 F P80 V01 ... : A-3 00 F P80 V01 ... : D#3 00 . P89 : ... .. . ... : ... .. . ... ...
ROW 3A : ... .. E ... ... ... : ... .. E ... ... ... : B-2 00 . P76 : ... .. . ... : ... .. . ... ...
ROW 3B : ... .. . ... ... ... : ... .. . ... ... ... : G-2 00 . P7C : ... .. C ... : ... .. . ... ...
ROW 3C : ... .. . ... ... ... : ... .. . ... ... ... : E-2 00 . P78 : ... .. B ... : ... .. . ... ...
ROW 3D : ... .. D ... ... ... : ... .. D ... ... ... : C#2 00 . P88 : ... .. 9 ... : ... .. . ... ...
ROW 3E : ... .. . ... ... ... : ... .. . ... ... ... : B-1 00 . P7B : ... .. 6 ... : ... .. . ... ...
ROW 3F : ... .. . ... ... ... : ... .. . ... ... ... : A-1 00 . P7A : ... .. 5 ... : ... .. . ... ...
ROW 40 : ... .. C ... ... ... : ... .. C ... ... ... : G-1 00 . P86 : ... .. 3 ... : ... .. . ... ...
ROW 41 : ... .. . ... ... ... : ... .. . ... ... ... : F-1 00 . PA2 : ... .. 1 ... : ... .. . ... ...
ROW 42 : ... .. . ... ... ... : ... .. . ... ... ... : --- .. . ... : ... .. 0 ... : ... .. . ... ...
ROW 43 : ... .. B ... ... ... : ... .. B ... ... ... : ... .. . ... : ... .. . ... : ... .. . ... ...
ROW 44 : ... .. 0 ... V00 ... : ... .. 0 ... V00 ... : ... .. . ... : D-# 00 F ... : ... .. . ... ...
ROW 45 : G-3 00 F P80 V01 ... : B-3 00 F P80 V01 ... : F-2 00 . P80 : ... .. . ... : ... .. . ... ...
ROW 46 : ... .. E ... ... ... : ... .. E ... ... ... : ... .. . ... : ... .. . ... : ... .. . ... ...
ROW 47 : ... .. . ... ... ... : ... .. . ... ... ... : ... .. . ... : ... .. C ... : ... .. . ... ...
ROW 48 : ... .. . ... ... ... : ... .. . ... ... ... : ... .. . ... : ... .. B ... : ... .. . ... ...
ROW 49 : ... .. D ... ... ... : ... .. D ... ... ... : ... .. . ... : ... .. 9 ... : ... .. . ... ...
ROW 4A : ... .. 0 ... V00 ... : ... .. 0 ... V00 ... : ... .. . ... : ... .. 6 ... : ... .. . ... ...
ROW 4B : G-3 00 F P80 V01 ... : B-3 00 F P80 V01 ... : ... .. . ... : ... .. 5 ... : ... .. . ... ...
ROW 4C : ... .. E ... ... ... : ... .. E ... ... ... : ... .. . ... : ... .. 3 ... : ... .. . ... ...
ROW 4D : ... .. . ... ... ... : ... .. . ... ... ... : ... .. . ... : ... .. 1 ... : ... .. . ... ...
ROW 4E : ... .. . ... ... ... : ... .. . ... ... ... : ... .. . ... : ... .. 0 ... : ... .. . ... ...
ROW 4F : ... .. D ... ... ... : ... .. D ... ... ... : ... .. . ... : ... .. . ... : ... .. . ... ...
ROW 50 : ... .. 0 ... V00 ... : ... .. 0 ... V00 ... : A#3 00 . P81 : 1-# 00 F ... : ... .. . ... ...
ROW 51 : G-3 00 F P80 V01 ... : C-4 00 F P80 V01 ... : D#3 00 . P89 : ... .. . ... : ... .. . ... ...
ROW 52 : ... .. E ... ... ... : ... .. E ... ... ... : B-2 00 . P76 : ... .. . ... : ... .. . ... ...
ROW 53 : ... .. . ... ... ... : ... .. . ... ... ... : G-2 00 . P7C : ... .. C ... : ... .. . ... ...
ROW 54 : ... .. . ... ... ... : ... .. . ... ... ... : E-2 00 . P78 : ... .. B ... : ... .. . ... ...
ROW 55 : ... .. D ... ... ... : ... .. D ... ... ... : C#2 00 . P88 : ... .. 9 ... : ... .. . ... ...
ROW 56 : ... .. . ... ... ... : ... .. . ... ... ... : B-1 00 . P7B : ... .. 6 ... : ... .. . ... ...
ROW 57 : ... .. . ... ... ... : ... .. . ... ... ... : A-1 00 . P7A : ... .. 5 ... : ... .. . ... ...
ROW 58 : ... .. C ... ... ... : ... .. C ... ... ... : G-1 00 . P86 : ... .. 3 ... : ... .. . ... ...
ROW 59 : ... .. . ... ... ... : ... .. . ... ... ... : F-1 00 . PA2 : ... .. 1 ... : ... .. . ... ...
ROW 5A : ... .. . ... ... ... : ... .. . ... ... ... : --- .. . ... : ... .. 0 ... : ... .. . ... ...
ROW 5B : ... .. B ... ... ... : ... .. B ... ... ... : ... .. . ... : ... .. . ... : ... .. . ... ...
ROW 5C : ... .. 0 ... V00 ... : ... .. 0 ... V00 ... : ... .. . ... : D-# 00 F ... : ... .. . ... ...
ROW 5D : E-3 00 F P80 V01 ... : G-3 00 F P80 V01 ... : G-2 00 . P80 : ... .. . ... : ... .. . ... ...
ROW 5E : ... .. E ... ... ... : ... .. E ... ... ... : ... .. . ... : ... .. . ... : ... .. . ... ...
ROW 5F : ... .. . ... ... ... : ... .. . ... ... ... : ... .. . ... : ... .. C ... : ... .. . ... ...
ROW 60 : ... .. . ... ... ... : ... .. . ... ... ... : ... .. . ... : ... .. B ... : ... .. . ... ...
ROW 61 : ... .. D ... ... ... : ... .. D ... ... ... : ... .. . ... : ... .. 9 ... : ... .. . ... ...
ROW 62 : ... .. . ... ... ... : ... .. . ... ... ... : ... .. . ... : ... .. 6 ... : ... .. . ... ...
ROW 63 : ... .. . ... ... ... : ... .. . ... ... ... : ... .. . ... : ... .. 5 ... : ... .. . ... ...
ROW 64 : ... .. C ... ... ... : ... .. C ... ... ... : ... .. . ... : ... .. 3 ... : ... .. . ... ...
ROW 65 : ... .. . ... ... ... : ... .. . ... ... ... : ... .. . ... : ... .. 1 ... : ... .. . ... ...
ROW 66 : ... .. . ... ... ... : ... .. . ... ... ... : ... .. . ... : ... .. 0 ... : ... .. . ... ...
ROW 67 : ... .. B ... ... ... : ... .. B ... ... ... : ... .. . ... : ... .. . ... : ... .. . ... ...
ROW 68 : ... .. 0 ... V00 ... : ... .. 0 ... V00 ... : A#3 00 . P81 : 4-# 00 F ... : ... .. . ... ...
ROW 69 : C-3 00 F P80 V01 ... : F-3 00 F P80 V01 ... : D#3 00 . P89 : ... .. . ... : ... .. . ... ...
ROW 6A : ... .. E ... ... ... : ... .. E ... ... ... : B-2 00 . P76 : ... .. . ... : ... .. . ... ...
ROW 6B : ... .. . ... ... ... : ... .. . ... ... ... : G-2 00 . P7C : ... .. C ... : ... .. . ... ...
ROW 6C : ... .. . ... ... ... : ... .. . ... ... ... : E-2 00 . P78 : ... .. B ... : ... .. . ... ...
ROW 6D : ... .. D ... ... ... : ... .. D ... ... ... : C#2 00 . P88 : ... .. 9 ... : ... .. . ... ...
ROW 6E : ... .. . ... ... ... : ... .. . ... ... ... : B-1 00 . P7B : ... .. 6 ... : ... .. . ... ...
ROW 6F : ... .. . ... ... ... : ... .. . ... ... ... : A-1 00 . P7A : ... .. 5 ... : ... .. . ... ...
ROW 70 : ... .. C ... ... ... : ... .. C ... ... ... : G-1 00 . P86 : ... .. 3 ... : ... .. . ... ...
ROW 71 : ... .. . ... ... ... : ... .. . ... ... ... : F-1 00 . PA2 : ... .. 1 ... : ... .. . ... ...
ROW 72 : ... .. . ... ... ... : ... .. . ... ... ... : --- .. . ... : ... .. 0 ... : ... .. . ... ...
ROW 73 : ... .. B ... ... ... : ... .. B ... ... ... : ... .. . ... : ... .. . ... : ... .. . ... ...
ROW 74 : ... .. 0 ... V00 ... : ... .. 0 ... V00 ... : ... .. . ... : D-# 00 F ... : ... .. . ... ...
ROW 75 : E-3 00 F P80 V01 ... : G-3 00 F P80 V01 ... : G-2 00 . P80 : ... .. . ... : ... .. . ... ...
ROW 76 : ... .. E ... ... ... : ... .. E ... ... ... : ... .. . ... : ... .. . ... : ... .. . ... ...
ROW 77 : ... .. . ... ... ... : ... .. . ... ... ... : ... .. . ... : ... .. C ... : ... .. . ... ...
ROW 78 : ... .. . ... ... ... : ... .. . ... ... ... : ... .. . ... : ... .. B ... : ... .. . ... ...
ROW 79 : ... .. D ... ... ... : ... .. D ... ... ... : ... .. . ... : ... .. 9 ... : ... .. . ... ...
ROW 7A : ... .. . ... ... ... : ... .. . ... ... ... : ... .. . ... : ... .. 6 ... : ... .. . ... ...
ROW 7B : ... .. . ... ... ... : ... .. . ... ... ... : ... .. . ... : ... .. 5 ... : ... .. . ... ...
ROW 7C : ... .. C ... ... ... : ... .. C ... ... ... : ... .. . ... : ... .. 3 ... : ... .. . ... ...
ROW 7D : ... .. . ... ... ... : ... .. . ... ... ... : ... .. . ... : ... .. 1 ... : ... .. . ... ...
ROW 7E : ... .. . ... ... ... : ... .. . ... ... ... : ... .. . ... : ... .. 0 ... : ... .. . ... ...
ROW 7F : ... .. B ... ... ... : ... .. B ... ... ... : ... .. . ... : ... .. . ... : ... .. . ... ...
ROW 80 : ... .. 0 ... V00 ... : ... .. 0 ... V00 ... : A#3 00 . P81 : 1-# 00 F ... : ... .. . ... ...
ROW 81 : G-2 00 F P80 V01 ... : C-3 00 F P80 V01 ... : D#3 00 . P89 : ... .. . ... : ... .. . ... ...
ROW 82 : ... .. E ... ... ... : ... .. E ... ... ... : B-2 00 . P76 : ... .. . ... : ... .. . ... ...
ROW 83 : ... .. . ... ... ... : ... .. . ... ... ... : G-2 00 . P7C : ... .. C ... : ... .. . ... ...
ROW 84 : ... .. . ... ... ... : ... .. . ... ... ... : E-2 00 . P78 : ... .. B ... : ... .. . ... ...
ROW 85 : ... .. D ... ... ... : ... .. D ... ... ... : C#2 00 . P88 : ... .. 9 ... : ... .. . ... ...
ROW 86 : ... .. . ... ... ... : ... .. . ... ... ... : B-1 00 . P7B : ... .. 6 ... : ... .. . ... ...
ROW 87 : ... .. . ... ... ... : ... .. . ... ... ... : A-1 00 . P7A : ... .. 5 ... : ... .. . ... ...
ROW 88 : ... .. C ... ... ... : ... .. C ... ... ... : G-1 00 . P86 : ... .. 3 ... : ... .. . ... ...
ROW 89 : ... .. . ... ... ... : ... .. . ... ... ... : F-1 00 . PA2 : ... .. 1 ... : ... .. . ... ...
ROW 8A : ... .. . ... ... ... : ... .. . ... ... ... : --- .. . ... : ... .. 0 ... : ... .. . ... ...
ROW 8B : ... .. B ... ... ... : ... .. B ... ... ... : ... .. . ... : ... .. . ... : ... .. . ... ...
ROW 8C : ... .. . ... ... ... : ... .. . ... ... ... : ... .. . ... : D-# 00 F ... : ... .. . ... ...
ROW 8D : ... .. . ... ... ... : ... .. . ... ... ... : C-3 00 . P80 : ... .. . ... : ... .. . ... ...
ROW 8E : ... .. A ... ... ... : ... .. A ... ... ... : ... .. . ... : ... .. . ... : ... .. . ... ...
ROW 8F : ... .. . ... ... ... : ... .. . ... ... ... : ... .. . ... : ... .. C ... : ... .. . ... ...
ROW 90 : ... .. . ... ... ... : ... .. . ... ... ... : ... .. . ... : ... .. B ... : ... .. . ... ...
ROW 91 : ... .. 9 ... ... ... : ... .. 9 ... ... ... : ... .. . ... : ... .. 9 ... : ... .. . ... ...
ROW 92 : ... .. . ... ... ... : ... .. . ... ... ... : ... .. . ... : ... .. 6 ... : ... .. . ... ...
ROW 93 : ... .. . ... ... ... : ... .. . ... ... ... : ... .. . ... : ... .. 5 ... : ... .. . ... ...
ROW 94 : ... .. 8 ... ... ... : ... .. 8 ... ... ... : ... .. . ... : ... .. 3 ... : ... .. . ... ...
ROW 95 : ... .. . ... ... ... : ... .. . ... ... ... : ... .. . ... : ... .. 1 ... : ... .. . ... ...
ROW 96 : ... .. 7 ... ... ... : ... .. 7 ... ... ... : ... .. . ... : ... .. 0 ... : ... .. . ... ...
ROW 97 : ... .. . ... ... ... : ... .. . ... ... ... : ... .. . ... : ... .. . ... : ... .. . ... ...
ROW 98 : ... .. 0 ... V00 ... : ... .. 0 ... V00 ... : A#3 00 . P81 : 4-# 00 F ... : ... .. . ... ...
ROW 99 : C-3 00 F P80 V01 ... : E-3 00 F P80 V01 ... : D#3 00 . P89 : ... .. . ... : ... .. . ... ...
ROW 9A : ... .. E ... ... ... : ... .. E ... ... ... : B-2 00 . P76 : ... .. . ... : ... .. . ... ...
ROW 9B : ... .. . ... ... ... : ... .. . ... ... ... : G-2 00 . P7C : ... .. C ... : ... .. . ... ...
ROW 9C : ... .. . ... ... ... : ... .. . ... ... ... : E-2 00 . P78 : ... .. B ... : ... .. . ... ...
ROW 9D : ... .. D ... ... ... : ... .. D ... ... ... : C#2 00 . P88 : ... .. 9 ... : ... .. . ... ...
ROW 9E : ... .. . ... ... ... : ... .. . ... ... ... : B-1 00 . P7B : ... .. 6 ... : ... .. . ... ...
ROW 9F : ... .. . ... ... ... : ... .. . ... ... ... : A-1 00 . P7A : ... .. 5 ... : ... .. . ... ...
ROW A0 : ... .. C ... ... ... : ... .. C ... ... ... : G-1 00 . P86 : ... .. 3 ... : ... .. . ... ...
ROW A1 : ... .. . ... ... ... : ... .. . ... ... ... : F-1 00 . PA2 : ... .. 1 ... : ... .. . ... ...
ROW A2 : ... .. . ... ... ... : ... .. . ... ... ... : --- .. . ... : ... .. 0 ... : ... .. . ... ...
ROW A3 : ... .. B ... ... ... : ... .. B ... ... ... : ... .. . ... : ... .. . ... : ... .. . ... ...
ROW A4 : ... .. 0 ... V00 ... : ... .. 0 ... V00 ... : ... .. . ... : D-# 00 F ... : ... .. . ... ...
ROW A5 : E-3 00 F P80 V01 ... : G-3 00 F P80 V01 ... : C-3 00 . P80 : ... .. . ... : ... .. . ... ...
ROW A6 : ... .. E ... ... ... : ... .. E ... ... ... : ... .. . ... : ... .. . ... : ... .. . ... ...
ROW A7 : ... .. . ... ... ... : ... .. . ... ... ... : ... .. . ... : ... .. C ... : ... .. . ... ...
ROW A8 : ... .. . ... ... ... : ... .. . ... ... ... : ... .. . ... : ... .. B ... : ... .. . ... ...
ROW A9 : ... .. D ... ... ... : ... .. D ... ... ... : ... .. . ... : ... .. 9 ... : ... .. . ... ...
ROW AA : ... .. 0 ... V00 ... : ... .. 0 ... V00 ... : ... .. . ... : ... .. 6 ... : ... .. . ... ...
ROW AB : E-3 00 F P80 V01 ... : G-3 00 F P80 V01 ... : ... .. . ... : ... .. 5 ... : ... .. . ... ...
ROW AC : ... .. E ... ... ... : ... .. E ... ... ... : ... .. . ... : ... .. 3 ... : ... .. . ... ...
ROW AD : ... .. . ... ... ... : ... .. . ... ... ... : ... .. . ... : ... .. 1 ... : ... .. . ... ...
ROW AE : ... .. . ... ... ... : ... .. . ... ... ... : ... .. . ... : ... .. 0 ... : ... .. . ... ...
ROW AF : ... .. D ... ... ... : ... .. D ... ... ... : ... .. . ... : ... .. . ... : ... .. . ... ...
ROW B0 : ... .. 0 ... V00 ... : ... .. 0 ... V00 ... : A#3 00 . P81 : 1-# 00 F ... : ... .. . ... ...
ROW B1 : E-3 00 F P80 V01 ... : G-3 00 F P80 V01 ... : D#3 00 . P89 : ... .. . ... : ... .. . ... ...
ROW B2 : ... .. E ... ... ... : ... .. E ... ... ... : B-2 00 . P76 : ... .. . ... : ... .. . ... ...
ROW B3 : ... .. . ... ... ... : ... .. . ... ... ... : G-2 00 . P7C : ... .. C ... : ... .. . ... ...
ROW B4 : ... .. . ... ... ... : ... .. . ... ... ... : E-2 00 . P78 : ... .. B ... : ... .. . ... ...
ROW B5 : ... .. D ... ... ... : ... .. D ... ... ... : C#2 00 . P88 : ... .. 9 ... : ... .. . ... ...
ROW B6 : ... .. . ... ... ... : ... .. . ... ... ... : B-1 00 . P7B : ... .. 6 ... : ... .. . ... ...
ROW B7 : ... .. . ... ... ... : ... .. . ... ... ... : A-1 00 . P7A : ... .. 5 ... : ... .. . ... ...
ROW B8 : ... .. C ... ... ... : ... .. C ... ... ... : G-1 00 . P86 : ... .. 3 ... : ... .. . ... ...
ROW B9 : ... .. . ... ... ... : ... .. . ... ... ... : F-1 00 . PA2 : ... .. 1 ... : ... .. . ... ...
ROW BA : ... .. . ... ... ... : ... .. . ... ... ... : --- .. . ... : ... .. 0 ... : ... .. . ... ...
ROW BB : ... .. B ... ... ... : ... .. B ... ... ... : ... .. . ... : ... .. . ... : ... .. . ... ...
ROW BC : ... .. 0 ... V00 ... : ... .. 0 ... V00 ... : ... .. . ... : D-# 00 F ... : ... .. . ... ...
ROW BD : C-3 00 F P80 V01 ... : E-3 00 F P80 V01 ... : C-3 00 . P80 : ... .. . ... : ... .. . ... ...
ROW BE : ... .. E ... ... ... : ... .. E ... ... ... : ... .. . ... : ... .. . ... : ... .. . ... ...
ROW BF : ... .. . ... ... ... : ... .. . ... ... ... : ... .. . ... : ... .. C ... : ... .. . ... ...
ROW C0 : ... .. . ... ... ... : ... .. . ... ... ... : ... .. . ... : ... .. B ... : ... .. . ... ...
ROW C1 : ... .. D ... ... ... : ... .. D ... ... ... : ... .. . ... : ... .. 9 ... : ... .. . ... ...
ROW C2 : ... .. . ... ... ... : ... .. . ... ... ... : ... .. . ... : ... .. 6 ... : ... .. . ... ...
ROW C3 : ... .. . ... ... ... : ... .. . ... ... ... : ... .. . ... : ... .. 5 ... : ... .. . ... ...
ROW C4 : ... .. C ... ... ... : ... .. C ... ... ... : ... .. . ... : ... .. 3 ... : ... .. . ... ...
ROW C5 : ... .. . ... ... ... : ... .. . ... ... ... : ... .. . ... : ... .. 1 ... : ... .. . ... ...
ROW C6 : ... .. . ... ... ... : ... .. . ... ... ... : ... .. . ... : ... .. 0 ... : ... .. . ... ...
ROW C7 : ... .. B ... ... ... : ... .. B ... ... ... : ... .. . ... : ... .. . ... : ... .. . ... ...
ROW C8 : ... .. 0 ... V00 ... : ... .. 0 ... V00 ... : A#3 00 . P81 : 4-# 00 F ... : ... .. . ... ...
ROW C9 : G-2 00 F P80 V01 ... : D-3 00 F P80 V01 ... : D#3 00 . P89 : ... .. . ... : ... .. . ... ...
ROW CA : ... .. E ... ... ... : ... .. E ... ... ... : B-2 00 . P76 : ... .. . ... : ... .. . ... ...
ROW CB : ... .. . ... ... ... : ... .. . ... ... ... : G-2 00 . P7C : ... .. C ... : ... .. . ... ...
ROW CC : ... .. . ... ... ... : ... .. . ... ... ... : E-2 00 . P78 : ... .. B ... : ... .. . ... ...
ROW CD : ... .. D ... ... ... : ... .. D ... ... ... : C#2 00 . P88 : ... .. 9 ... : ... .. . ... ...
ROW CE : ... .. . ... ... ... : ... .. . ... ... ... : B-1 00 . P7B : ... .. 6 ... : ... .. . ... ...
ROW CF : ... .. . ... ... ... : ... .. . ... ... ... : A-1 00 . P7A : ... .. 5 ... : ... .. . ... ...
ROW D0 : ... .. C ... ... ... : ... .. C ... ... ... : G-1 00 . P86 : ... .. 3 ... : ... .. . ... ...
ROW D1 : ... .. . ... ... ... : ... .. . ... ... ... : F-1 00 . PA2 : ... .. 1 ... : ... .. . ... ...
ROW D2 : ... .. . ... ... ... : ... .. . ... ... ... : --- .. . ... : ... .. 0 ... : ... .. . ... ...
ROW D3 : ... .. B ... ... ... : ... .. B ... ... ... : ... .. . ... : ... .. . ... : ... .. . ... ...
ROW D4 : ... .. 0 ... V00 ... : ... .. 0 ... V00 ... : ... .. . ... : D-# 00 F ... : ... .. . ... ...
ROW D5 : C-3 00 F P80 V01 ... : E-3 00 F P80 V01 ... : C-3 00 . P80 : ... .. . ... : ... .. . ... ...
ROW D6 : ... .. E ... ... ... : ... .. E ... ... ... : ... .. . ... : ... .. . ... : ... .. . ... ...
ROW D7 : ... .. . ... ... ... : ... .. . ... ... ... : ... .. . ... : ... .. C ... : ... .. . ... ...
ROW D8 : ... .. . ... ... ... : ... .. . ... ... ... : ... .. . ... : ... .. B ... : ... .. . ... ...
ROW D9 : ... .. D ... ... ... : ... .. D ... ... ... : ... .. . ... : ... .. 9 ... : ... .. . ... ...
ROW DA : ... .. . ... ... ... : ... .. . ... ... ... : ... .. . ... : ... .. 6 ... : ... .. . ... ...
ROW DB : ... .. . ... ... ... : ... .. . ... ... ... : ... .. . ... : ... .. 5 ... : ... .. . ... ...
ROW DC : ... .. C ... ... ... : ... .. C ... ... ... : ... .. . ... : ... .. 3 ... : ... .. . ... ...
ROW DD : ... .. . ... ... ... : ... .. . ... ... ... : ... .. . ... : ... .. 1 ... : ... .. . ... ...
ROW DE : ... .. . ... ... ... : ... .. . ... ... ... : ... .. . ... : ... .. 0 ... : ... .. . ... ...
ROW DF : ... .. B ... ... ... : ... .. B ... ... ... : ... .. . ... : ... .. . ... : ... .. . ... ...
ROW E0 : ... .. 0 ... V00 ... : ... .. 0 ... V00 ... : A#3 00 . P81 : 1-# 00 F ... : ... .. . ... ...
ROW E1 : F-3 00 F P80 V01 ... : A-3 00 F P80 V01 ... : D#3 00 . P89 : ... .. . ... : ... .. . ... ...
ROW E2 : ... .. E ... ... ... : ... .. E ... ... ... : B-2 00 . P76 : ... .. . ... : ... .. . ... ...
ROW E3 : ... .. . ... ... ... : ... .. . ... ... ... : G-2 00 . P7C : ... .. C ... : ... .. . ... ...
ROW E4 : ... .. . ... ... ... : ... .. . ... ... ... : E-2 00 . P78 : ... .. B ... : ... .. . ... ...
ROW E5 : ... .. D ... ... ... : ... .. D ... ... ... : C#2 00 . P88 : ... .. 9 ... : ... .. . ... ...
ROW E6 : ... .. . ... ... ... : ... .. . ... ... ... : B-1 00 . P7B : ... .. 6 ... : ... .. . ... ...
ROW E7 : ... .. . ... ... ... : ... .. . ... ... ... : A-1 00 . P7A : ... .. 5 ... : ... .. . ... ...
ROW E8 : ... .. C ... ... ... : ... .. C ... ... ... : G-1 00 . P86 : ... .. 3 ... : ... .. . ... ...
ROW E9 : ... .. . ... ... ... : ... .. . ... ... ... : F-1 00 . PA2 : ... .. 1 ... : ... .. . ... ...
ROW EA : ... .. . ... ... ... : ... .. . ... ... ... : --- .. . ... : ... .. 0 ... : ... .. . ... ...
ROW EB : ... .. B ... ... ... : ... .. B ... ... ... : ... .. . ... : ... .. . ... : ... .. . ... ...
ROW EC : ... .. . ... ... ... : ... .. . ... ... ... : ... .. . ... : D-# 00 F ... : ... .. . ... ...
ROW ED : ... .. . ... ... ... : ... .. . ... ... ... : F-2 00 . P80 : ... .. . ... : ... .. . ... ...
ROW EE : ... .. A ... ... ... : ... .. A ... ... ... : ... .. . ... : ... .. . ... : ... .. . ... ...
ROW EF : ... .. . ... ... ... : ... .. . ... ... ... : ... .. . ... : ... .. C ... : ... .. . ... ...
ROW F0 : ... .. . ... ... ... : ... .. . ... ... ... : ... .. . ... : ... .. B ... : ... .. . ... ...
ROW F1 : ... .. 9 ... ... ... : ... .. 9 ... ... ... : ... .. . ... : ... .. 9 ... : ... .. . ... ...
ROW F2 : ... .. . ... ... ... : ... .. . ... ... ... : ... .. . ... : ... .. 6 ... : ... .. . ... ...
ROW F3 : ... .. . ... ... ... : ... .. . ... ... ... : ... .. . ... : ... .. 5 ... : ... .. . ... ...
ROW F4 : ... .. 8 ... ... ... : ... .. 8 ... ... ... : ... .. . ... : ... .. 3 ... : ... .. . ... ...
ROW F5 : ... .. . ... ... ... : ... .. . ... ... ... : ... .. . ... : ... .. 1 ... : ... .. . ... ...
ROW F6 : ... .. 7 ... ... ... : ... .. 7 ... ... ... : ... .. . ... : ... .. 0 ... : ... .. . ... ...
ROW F7 : ... .. . ... ... ... : ... .. . ... ... ... : ... .. . ... : ... .. . ... : ... .. . ... ...
ROW F8 : ... .. 0 ... V00 ... : ... .. 0 ... V00 ... : A#3 00 . P81 : 4-# 00 F ... : ... .. . ... ...
ROW F9 : F-3 00 F P80 V01 ... : A-3 00 F P80 V01 ... : D#3 00 . P89 : ... .. . ... : ... .. . ... ...
ROW FA : ... .. E ... ... ... : ... .. E ... ... ... : B-2 00 . P76 : ... .. . ... : ... .. . ... ...
ROW FB : ... .. . ... ... ... : ... .. . ... ... ... : G-2 00 . P7C : ... .. C ... : ... .. . ... ...
ROW FC : ... .. . ... ... ... : ... .. . ... ... ... : E-2 00 . P78 : ... .. B ... : ... .. . ... ...
ROW FD : ... .. D ... ... ... : ... .. D ... ... ... : C#2 00 . P88 : ... .. 9 ... : ... .. . ... ...
ROW FE : ... .. . ... ... ... : ... .. . ... ... ... : B-1 00 . P7B : ... .. 6 ... : ... .. . ... ...
ROW FF : ... .. . ... ... ... : ... .. . ... ... ... : A-1 00 . P7A : ... .. 5 ... : ... .. . ... ...

PATTERN 05
ROW 00 : ... .. C ... ... ... : ... .. C ... ... ... : G-1 00 . P86 : ... .. 3 ... : ... .. . ... ...
ROW 01 : ... .. . ... ... ... : ... .. . ... ... ... : F-1 00 . PA2 : ... .. 1 ... : ... .. . ... ...
ROW 02 : ... .. . ... ... ... : ... .. . ... ... ... : --- .. . ... : ... .. 0 ... : ... .. . ... ...
ROW 03 : ... .. B ... ... ... : ... .. B ... ... ... : ... .. . ... : ... .. . ... : ... .. . ... ...
ROW 04 : ... .. 0 ... V00 ... : ... .. 0 ... V00 ... : ... .. . ... : D-# 00 F ... : ... .. . ... ...
ROW 05 : E-3 00 F P80 V01 ... : G-3 00 F P80 V01 ... : F-2 00 . P80 : ... .. . ... : ... .. . ... ...
ROW 06 : ... .. E ... ... ... : ... .. E ... ... ... : ... .. . ... : ... .. . ... : ... .. . ... ...
ROW 07 : ... .. . ... ... ... : ... .. . ... ... ... : ... .. . ... : ... .. C ... : ... .. . ... ...
ROW 08 : ... .. . ... ... ... : ... .. . ... ... ... : ... .. . ... : ... .. B ... : ... .. . ... ...
ROW 09 : ... .. D ... ... ... : ... .. D ... ... ... : ... .. . ... : ... .. 9 ... : ... .. . ... ...
ROW 0A : ... .. 0 ... V00 ... : ... .. 0 ... V00 ... : ... .. . ... : ... .. 6 ... : ... .. . ... ...
ROW 0B : E-3 00 F P80 V01 ... : G-3 00 F P80 V01 ... : ... .. . ... : ... .. 5 ... : ... .. . ... ...
ROW 0C : ... .. E ... ... ... : ... .. E ... ... ... : ... .. . ... : ... .. 3 ... : ... .. . ... ...
ROW 0D : ... .. . ... ... ... : ... .. . ... ... ... : ... .. . ... : ... .. 1 ... : ... .. . ... ...
ROW 0E : ... .. . ... ... ... : ... .. . ... ... ... : ... .. . ... : ... .. 0 ... : ... .. . ... ...
ROW 0F : ... .. D ... ... ... : ... .. D ... ... ... : ... .. . ... : ... .. . ... : ... .. . ... ...
ROW 10 : ... .. 0 ... V00 ... : ... .. 0 ... V00 ... : A#3 00 . P81 : 1-# 00 F ... : ... .. . ... ...
ROW 11 : E-3 00 F P80 V01 ... : G-3 00 F P80 V01 ... : D#3 00 . P89 : ... .. . ... : ... .. . ... ...
ROW 12 : ... .. E ... ... ... : ... .. E ... ... ... : B-2 00 . P76 : ... .. . ... : ... .. . ... ...
ROW 13 : ... .. . ... ... ... : ... .. . ... ... ... : G-2 00 . P7C : ... .. C ... : ... .. . ... ...
ROW 14 : ... .. . ... ... ... : ... .. . ... ... ... : E-2 00 . P78 : ... .. B ... : ... .. . ... ...
ROW 15 : ... .. D ... ... ... : ... .. D ... ... ... : C#2 00 . P88 : ... .. 9 ... : ... .. . ... ...
ROW 16 : ... .. . ... ... ... : ... .. . ... ... ... : B-1 00 . P7B : ... .. 6 ... : ... .. . ... ...
ROW 17 : ... .. . ... ... ... : ... .. . ... ... ... : A-1 00 . P7A : ... .. 5 ... : ... .. . ... ...
ROW 18 : ... .. C ... ... ... : ... .. C ... ... ... : G-1 00 . P86 : ... .. 3 ... : ... .. . ... ...
ROW 19 : ... .. . ... ... ... : ... .. . ... ... ... : F-1 00 . PA2 : ... .. 1 ... : ... .. . ... ...
ROW 1A : ... .. . ... ... ... : ... .. . ... ... ... : --- .. . ... : ... .. 0 ... : ... .. . ... ...
ROW 1B : ... .. B ... ... ... : ... .. B ... ... ... : ... .. . ... : ... .. . ... : ... .. . ... ...
ROW 1C : ... .. 0 ... V00 ... : ... .. 0 ... V00 ... : ... .. . ... : D-# 00 F ... : ... .. . ... ...
ROW 1D : C-3 00 F P80 V01 ... : E-3 00 F P80 V01 ... : G-2 00 . P80 : ... .. . ... : ... .. . ... ...
ROW 1E : ... .. E ... ... ... : ... .. E ... ... ... : ... .. . ... : ... .. . ... : ... .. . ... ...
ROW 1F : ... .. . ... ... ... : ... .. . ... ... ... : ... .. . ... : ... .. C ... : ... .. . ... ...
ROW 20 : ... .. . ... ... ... : ... .. . ... ... ... : ... .. . ... : ... .. B ... : ... .. . ... ...
ROW 21 : ... .. D ... ... ... : ... .. D ... ... ... : ... .. . ... : ... .. 9 ... : ... .. . ... ...
ROW 22 : ... .. . ... ... ... : ... .. . ... ... ... : ... .. . ... : ... .. 6 ... : ... .. . ... ...
ROW 23 : ... .. . ... ... ... : ... .. . ... ... ... : ... .. . ... : ... .. 5 ... : ... .. . ... ...
ROW 24 : ... .. C ... ... ... : ... .. C ... ... ... : ... .. . ... : ... .. 3 ... : ... .. . ... ...
ROW 25 : ... .. . ... ... ... : ... .. . ... ... ... : ... .. . ... : ... .. 1 ... : ... .. . ... ...
ROW 26 : ... .. . ... ... ... : ... .. . ... ... ... : ... .. . ... : ... .. 0 ... : ... .. . ... ...
ROW 27 : ... .. B ... ... ... : ... .. B ... ... ... : ... .. . ... : ... .. . ... : ... .. . ... ...
ROW 28 : ... .. 0 ... V00 ... : ... .. 0 ... V00 ... : A#3 00 . P81 : 4-# 00 F ... : ... .. . ... ...
ROW 29 : G-2 00 F P80 V01 ... : D-3 00 F P80 V01 ... : D#3 00 . P89 : ... .. . ... : ... .. . ... ...
ROW 2A : ... .. E ... ... ... : ... .. E ... ... ... : B-2 00 . P76 : ... .. . ... : ... .. . ... ...
ROW 2B : ... .. . ... ... ... : ... .. . ... ... ... : G-2 00 . P7C : ... .. C ... : ... .. . ... ...
ROW 2C : ... .. . ... ... ... : ... .. . ... ... ... : E-2 00 . P78 : ... .. B ... : ... .. . ... ...
ROW 2D : ... .. D ... ... ... : ... .. D ... ... ... : C#2 00 . P88 : ... .. 9 ... : ... .. . ... ...
ROW 2E : ... .. . ... ... ... : ... .. . ... ... ... : B-1 00 . P7B : ... .. 6 ... : ... .. . ... ...
ROW 2F : ... .. . ... ... ... : ... .. . ... ... ... : A-1 00 . P7A : ... .. 5 ... : ... .. . ... ...
ROW 30 : ... .. C ... ... ... : ... .. C ... ... ... : G-1 00 . P86 : ... .. 3 ... : ... .. . ... ...
ROW 31 : ... .. . ... ... ... : ... .. . ... ... ... : F-1 00 . PA2 : ... .. 1 ... : ... .. . ... ...
ROW 32 : ... .. . ... ... ... : ... .. . ... ... ... : --- .. . ... : ... .. 0 ... : ... .. . ... ...
ROW 33 : ... .. B ... ... ... : ... .. B ... ... ... : ... .. . ... : ... .. . ... : ... .. . ... ...
ROW 34 : ... .. 0 ... V00 ... : ... .. 0 ... V00 ... : ... .. . ... : D-# 00 F ... : ... .. . ... ...
ROW 35 : C-3 00 F P80 V01 ... : E-3 00 F P80 V01 ... : G-2 00 . P80 : ... .. . ... : ... .. . ... ...
ROW 36 : ... .. E ... ... ... : ... .. E ... ... ... : ... .. . ... : ... .. . ... : ... .. . ... ...
ROW 37 : ... .. . ... ... ... : ... .. . ... ... ... : ... .. . ... : ... .. C ... : ... .. . ... ...
ROW 38 : ... .. . ... ... ... : ... .. . ... ... ... : ... .. . ... : ... .. B ... : ... .. . ... ...
ROW 39 : ... .. D ... ... ... : ... .. D ... ... ... : ... .. . ... : ... .. 9 ... : ... .. . ... ...
ROW 3A : ... .. . ... ... ... : ... .. . ... ... ... : ... .. . ... : ... .. 6 ... : ... .. . ... ...
ROW 3B : ... .. . ... ... ... : ... .. . ... ... ... : ... .. . ... : ... .. 5 ... : ... .. . ... ...
ROW 3C : ... .. C ... ... ... : ... .. C ... ... ... : ... .. . ... : ... .. 3 ... : ... .. . ... ...
ROW 3D : ... .. . ... ... ... : ... .. . ... ... ... : ... .. . ... : ... .. 1 ... : ... .. . ... ...
ROW 3E : ... .. . ... ... ... : ... .. . ... ... ... : ... .. . ... : ... .. 0 ... : ... .. . ... ...
ROW 3F : ... .. B ... ... ... : ... .. B ... ... ... : ... .. . ... : ... .. . ... : ... .. . ... ...
ROW 40 : ... .. 0 ... V00 ... : ... .. 0 ... V00 ... : A#3 00 . P81 : 1-# 00 F ... : ... .. . ... ...
ROW 41 : G-2 00 F P80 V01 ... : C-3 00 F P80 V01 ... : D#3 00 . P89 : ... .. . ... : ... .. . ... ...
ROW 42 : ... .. E ... ... ... : ... .. E ... ... ... : B-2 00 . P76 : ... .. . ... : ... .. . ... ...
ROW 43 : ... .. . ... ... ... : ... .. . ... ... ... : G-2 00 . P7C : ... .. C ... : ... .. . ... ...
ROW 44 : ... .. . ... ... ... : ... .. . ... ... ... : E-2 00 . P78 : ... .. B ... : ... .. . ... ...
ROW 45 : ... .. D ... ... ... : ... .. D ... ... ... : C#2 00 . P88 : ... .. 9 ... : ... .. . ... ...
ROW 46 : ... .. . ... ... ... : ... .. . ... ... ... : B-1 00 . P7B : ... .. 6 ... : ... .. . ... ...
ROW 47 : ... .. . ... ... ... : ... .. . ... ... ... : A-1 00 . P7A : ... .. 5 ... : ... .. . ... ...
ROW 48 : ... .. C ... ... ... : ... .. C ... ... ... : G-1 00 . P86 : ... .. 3 ... : ... .. . ... ...
ROW 49 : ... .. . ... ... ... : ... .. . ... ... ... : F-1 00 . PA2 : ... .. 1 ... : ... .. . ... ...
ROW 4A : ... .. . ... ... ... : ... .. . ... ... ... : --- .. . ... : ... .. 0 ... : ... .. . ... ...
ROW 4B : ... .. B ... ... ... : ... .. B ... ... ... : ... .. . ... : ... .. . ... : ... .. . ... ...
ROW 4C : ... .. . ... ... ... : ... .. . ... ... ... : ... .. . ... : D-# 00 F ... : ... .. . ... ...
ROW 4D : ... .. . ... ... ... : ... .. . ... ... ... : C-3 00 . P80 : ... .. . ... : ... .. . ... ...
ROW 4E : ... .. A ... ... ... : ... .. A ... ... ... : ... .. . ... : ... .. . ... : ... .. . ... ...
ROW 4F : ... .. . ... ... ... : ... .. . ... ... ... : ... .. . ... : ... .. C ... : ... .. . ... ...
ROW 50 : ... .. . ... ... ... : ... .. . ... ... ... : ... .. . ... : ... .. B ... : ... .. . ... ...
ROW 51 : ... .. 9 ... ... ... : ... .. 9 ... ... ... : ... .. . ... : ... .. 9 ... : ... .. . ... ...
ROW 52 : ... .. . ... ... ... : ... .. . ... ... ... : ... .. . ... : ... .. 6 ... : ... .. . ... ...
ROW 53 : ... .. . ... ... ... : ... .. . ... ... ... : ... .. . ... : ... .. 5 ... : ... .. . ... ...
ROW 54 : ... .. 8 ... ... ... : ... .. 8 ... ... ... : ... .. . ... : ... .. 3 ... : ... .. . ... ...
ROW 55 : ... .. . ... ... ... : ... .. . ... ... ... : ... .. . ... : ... .. 1 ... : ... .. . ... ...
ROW 56 : ... .. 7 ... ... ... : ... .. 7 ... ... ... : ... .. . ... : ... .. 0 ... : ... .. . ... ...
ROW 57 : ... .. . ... ... ... : ... .. . ... ... ... : ... .. . ... : ... .. . ... : ... .. . ... ...
ROW 58 : ... .. 0 ... V00 ... : ... .. 0 ... V00 ... : A#3 00 . P81 : 4-# 00 F ... : ... .. . ... ...
ROW 59 : C-3 00 F P80 V01 ... : E-3 00 F P80 V01 ... : D#3 00 . P89 : ... .. . ... : ... .. . ... ...
ROW 5A : ... .. E ... ... ... : ... .. E ... ... ... : B-2 00 . P76 : ... .. . ... : ... .. . ... ...
ROW 5B : ... .. . ... ... ... : ... .. . ... ... ... : G-2 00 . P7C : ... .. C ... : ... .. . ... ...
ROW 5C : ... .. . ... ... ... : ... .. . ... ... ... : E-2 00 . P78 : ... .. B ... : ... .. . ... ...
ROW 5D : ... .. D ... ... ... : ... .. D ... ... ... : C#2 00 . P88 : ... .. 9 ... : ... .. . ... ...
ROW 5E : ... .. . ... ... ... : ... .. . ... ... ... : B-1 00 . P7B : ... .. 6 ... : ... .. . ... ...
ROW 5F : ... .. . ... ... ... : ... .. . ... ... ... : A-1 00 . P7A : ... .. 5 ... : ... .. . ... ...
ROW 60 : ... .. C ... ... ... : ... .. C ... ... ... : G-1 00 . P86 : ... .. 3 ... : ... .. . ... ...
ROW 61 : ... .. . ... ... ... : ... .. . ... ... ... : F-1 00 . PA2 : ... .. 1 ... : ... .. . ... ...
ROW 62 : ... .. . ... ... ... : ... .. . ... ... ... : --- .. . ... : ... .. 0 ... : ... .. . ... ...
ROW 63 : ... .. B ... ... ... : ... .. B ... ... ... : ... .. . ... : ... .. . ... : ... .. . ... ...
ROW 64 : ... .. 0 ... V00 ... : ... .. 0 ... V00 ... : ... .. . ... : D-# 00 F ... : ... .. . ... ...
ROW 65 : E-3 00 F P80 V01 ... : G-3 00 F P80 V01 ... : C-3 00 . P80 : ... .. . ... : ... .. . ... ...
ROW 66 : ... .. E ... ... ... : ... .. E ... ... ... : ... .. . ... : ... .. . ... : ... .. . ... ...
ROW 67 : ... .. . ... ... ... : ... .. . ... ... ... : ... .. . ... : ... .. C ... : ... .. . ... ...
ROW 68 : ... .. . ... ... ... : ... .. . ... ... ... : ... .. . ... : ... .. B ... : ... .. . ... ...
ROW 69 : ... .. D ... ... ... : ... .. D ... ... ... : ... .. . ... : ... .. 9 ... : ... .. . ... ...
ROW 6A : ... .. 0 ... V00 ... : ... .. 0 ... V00 ... : ... .. . ... : ... .. 6 ... : ... .. . ... ...
ROW 6B : E-3 00 F P80 V01 ... : G-3 00 F P80 V01 ... : ... .. . ... : ... .. 5 ... : ... .. . ... ...
ROW 6C : ... .. E ... ... ... : ... .. E ... ... ... : ... .. . ... : ... .. 3 ... : ... .. . ... ...
ROW 6D : ... .. . ... ... ... : ... .. . ... ... ... : ... .. . ... : ... .. 1 ... : ... .. . ... ...
ROW 6E : ... .. . ... ... ... : ... .. . ... ... ... : ... .. . ... : ... .. 0 ... : ... .. . ... ...
ROW 6F : ... .. D ... ... ... : ... .. D ... ... ... : ... .. . ... : ... .. . ... : ... .. . ... ...
ROW 70 : ... .. 0 ... V00 ... : ... .. 0 ... V00 ... : A#3 00 . P81 : 1-# 00 F ... : ... .. . ... ...
ROW 71 : E-3 00 F P80 V01 ... : G-3 00 F P80 V01 ... : D#3 00 . P89 : ... .. . ... : ... .. . ... ...
ROW 72 : ... .. E ... ... ... : ... .. E ... ... ... : B-2 00 . P76 : ... .. . ... : ... .. . ... ...
ROW 73 : ... .. . ... ... ... : ... .. . ... ... ... : G-2 00 . P7C : ... .. C ... : ... .. . ... ...
ROW 74 : ... .. . ... ... ... : ... .. . ... ... ... : E-2 00 . P78 : ... .. B ... : ... .. . ... ...
ROW 75 : ... .. D ... ... ... : ... .. D ... ... ... : C#2 00 . P88 : ... .. 9 ... : ... .. . ... ...
ROW 76 : ... .. . ... ... ... : ... .. . ... ... ... : B-1 00 . P7B : ... .. 6 ... : ... .. . ... ...
ROW 77 : ... .. . ... ... ... : ... .. . ... ... ... : A-1 00 . P7A : ... .. 5 ... : ... .. . ... ...
ROW 78 : ... .. C ... ... ... : ... .. C ... ... ... : G-1 00 . P86 : ... .. 3 ... : ... .. . ... ...
ROW 79 : ... .. . ... ... ... : ... .. . ... ... ... : F-1 00 . PA2 : ... .. 1 ... : ... .. . ... ...
ROW 7A : ... .. . ... ... ... : ... .. . ... ... ... : --- .. . ... : ... .. 0 ... : ... .. . ... ...
ROW 7B : ... .. B ... ... ... : ... .. B ... ... ... : ... .. . ... : ... .. . ... : ... .. . ... ...
ROW 7C : ... .. 0 ... V00 ... : ... .. 0 ... V00 ... : ... .. . ... : D-# 00 F ... : ... .. . ... ...
ROW 7D : C-3 00 F P80 V01 ... : E-3 00 F P80 V01 ... : C-3 00 . P80 : ... .. . ... : ... .. . ... ...
ROW 7E : ... .. E ... ... ... : ... .. E ... ... ... : ... .. . ... : ... .. . ... : ... .. . ... ...
ROW 7F : ... .. . ... ... ... : ... .. . ... ... ... : ... .. . ... : ... .. C ... : ... .. . ... ...
ROW 80 : ... .. . ... ... ... : ... .. . ... ... ... : ... .. . ... : ... .. B ... : ... .. . ... ...
ROW 81 : ... .. D ... ... ... : ... .. D ... ... ... : ... .. . ... : ... .. 9 ... : ... .. . ... ...
ROW 82 : ... .. . ... ... ... : ... .. . ... ... ... : ... .. . ... : ... .. 6 ... : ... .. . ... ...
ROW 83 : ... .. . ... ... ... : ... .. . ... ... ... : ... .. . ... : ... .. 5 ... : ... .. . ... ...
ROW 84 : ... .. C ... ... ... : ... .. C ... ... ... : ... .. . ... : ... .. 3 ... : ... .. . ... ...
ROW 85 : ... .. . ... ... ... : ... .. . ... ... ... : ... .. . ... : ... .. 1 ... : ... .. . ... ...
ROW 86 : ... .. . ... ... ... : ... .. . ... ... ... : ... .. . ... : ... .. 0 ... : ... .. . ... ...
ROW 87 : ... .. B ... ... ... : ... .. B ... ... ... : ... .. . ... : ... .. . ... : ... .. . ... ...
ROW 88 : ... .. 0 ... V00 ... : ... .. 0 ... V00 ... : A#3 00 . P81 : 4-# 00 F ... : ... .. . ... ...
ROW 89 : ... .. . ... ... ... : ... .. . ... ... ... : D#3 00 . P89 : ... .. . ... : ... .. . ... ...
ROW 8A : ... .. . ... ... ... : ... .. . ... ... ... : B-2 00 . P76 : ... .. . ... : ... .. . ... ...
ROW 8B : ... .. . ... ... ... : ... .. . ... ... ... : G-2 00 . P7C : ... .. C ... : ... .. . ... ...
ROW 8C : ... .. . ... ... ... : ... .. . ... ... ... : E-2 00 . P78 : ... .. B ... : ... .. . ... ...
ROW 8D : ... .. . ... ... ... : ... .. . ... ... ... : C#2 00 . P88 : ... .. 9 ... : ... .. . ... ...
ROW 8E : ... .. . ... ... ... : ... .. . ... ... ... : B-1 00 . P7B : ... .. 6 ... : ... .. . ... ...
ROW 8F : ... .. . ... ... ... : ... .. . ... ... ... : A-1 00 . P7A : ... .. 5 ... : ... .. . ... ...
ROW 90 : ... .. . ... ... ... : ... .. . ... ... ... : G-1 00 . P86 : ... .. 3 ... : ... .. . ... ...
ROW 91 : ... .. . ... ... ... : ... .. . ... ... ... : F-1 00 . PA2 : ... .. 1 ... : ... .. . ... ...
ROW 92 : ... .. . ... ... ... : ... .. . ... ... ... : --- .. . ... : ... .. 0 ... : ... .. . ... ...
ROW 93 : ... .. . ... ... ... : ... .. . ... ... ... : ... .. . ... : ... .. . ... : ... .. . ... ...
ROW 94 : ... .. . ... ... ... : ... .. . ... ... ... : ... .. . ... : D-# 00 F ... : ... .. . ... ...
ROW 95 : E-3 00 F P80 V01 ... : G-3 00 F P80 V01 ... : C-3 00 . P80 : ... .. . ... : ... .. . ... ...
ROW 96 : ... .. E ... ... ... : ... .. E ... ... ... : ... .. . ... : ... .. . ... : ... .. . ... ...
ROW 97 : ... .. . ... ... ... : ... .. . ... ... ... : ... .. . ... : ... .. C ... : ... .. . ... ...
ROW 98 : ... .. . ... ... ... : ... .. . ... ... ... : ... .. . ... : ... .. B ... : ... .. . ... ...
ROW 99 : ... .. D ... ... ... : ... .. D ... ... ... : ... .. . ... : ... .. 9 ... : ... .. . ... ...
ROW 9A : ... .. 0 ... V00 ... : ... .. 0 ... V00 ... : ... .. . ... : ... .. 6 ... : ... .. . ... ...
ROW 9B : E-3 00 F P80 V01 ... : G-3 00 F P80 V01 ... : ... .. . ... : ... .. 5 ... : ... .. . ... ...
ROW 9C : ... .. E ... ... ... : ... .. E ... ... ... : ... .. . ... : ... .. 3 ... : ... .. . ... ...
ROW 9D : ... .. . ... ... ... : ... .. . ... ... ... : ... .. . ... : ... .. 1 ... : ... .. . ... ...
ROW 9E : ... .. . ... ... ... : ... .. . ... ... ... : ... .. . ... : ... .. 0 ... : ... .. . ... ...
ROW 9F : ... .. D ... ... ... : ... .. D ... ... ... : ... .. . ... : ... .. . ... : ... .. . ... ...
ROW A0 : ... .. 0 ... V00 ... : ... .. 0 ... V00 ... : A#3 00 . P81 : 1-# 00 F ... : ... .. . ... ...
ROW A1 : E-3 00 F P80 V01 ... : G-3 00 F P80 V01 ... : D#3 00 . P89 : ... .. . ... : ... .. . ... ...
ROW A2 : ... .. E ... ... ... : ... .. E ... ... ... : B-2 00 . P76 : ... .. . ... : ... .. . ... ...
ROW A3 : ... .. . ... ... ... : ... .. . ... ... ... : G-2 00 . P7C : ... .. C ... : ... .. . ... ...
ROW A4 : ... .. . ... ... ... : ... .. . ... ... ... : E-2 00 . P78 : ... .. B ... : ... .. . ... ...
ROW A5 : ... .. D ... ... ... : ... .. D ... ... ... : C#2 00 . P88 : ... .. 9 ... : ... .. . ... ...
ROW A6 : ... .. . ... ... ... : ... .. . ... ... ... : B-1 00 . P7B : ... .. 6 ... : ... .. . ... ...
ROW A7 : ... .. . ... ... ... : ... .. . ... ... ... : A-1 00 . P7A : ... .. 5 ... : ... .. . ... ...
ROW A8 : ... .. C ... ... ... : ... .. C ... ... ... : G-1 00 . P86 : ... .. 3 ... : ... .. . ... ...
ROW A9 : ... .. . ... ... ... : ... .. . ... ... ... : F-1 00 . PA2 : ... .. 1 ... : ... .. . ... ...
ROW AA : ... .. . ... ... ... : ... .. . ... ... ... : --- .. . ... : ... .. 0 ... : ... .. . ... ...
ROW AB : ... .. B ... ... ... : ... .. B ... ... ... : ... .. . ... : ... .. . ... : ... .. . ... ...
ROW AC : ... .. 0 ... V00 ... : ... .. 0 ... V00 ... : ... .. . ... : D-# 00 F ... : ... .. . ... ...
ROW AD : C-3 00 F P80 V01 ... : E-3 00 F P80 V01 ... : C-3 00 . P80 : ... .. . ... : ... .. . ... ...
ROW AE : ... .. E ... ... ... : ... .. E ... ... ... : ... .. . ... : ... .. . ... : ... .. . ... ...
ROW AF : ... .. . ... ... ... : ... .. . ... ... ... : ... .. . ... : ... .. C ... : ... .. . ... ...
ROW B0 : ... .. . ... ... ... : ... .. . ... ... ... : ... .. . ... : ... .. B ... : ... .. . ... ...
ROW B1 : ... .. D ... ... ... : ... .. D ... ... ... : ... .. . ... : ... .. 9 ... : ... .. . ... ...
ROW B2 : ... .. . ... ... ... : ... .. . ... ... ... : ... .. . ... : ... .. 6 ... : ... .. . ... ...
ROW B3 : ... .. . ... ... ... : ... .. . ... ... ... : ... .. . ... : ... .. 5 ... : ... .. . ... ...
ROW B4 : ... .. C ... ... ... : ... .. C ... ... ... : ... .. . ... : ... .. 3 ... : ... .. . ... ...
ROW B5 : ... .. . ... ... ... : ... .. . ... ... ... : ... .. . ... : ... .. 1 ... : ... .. . ... ...
ROW B6 : ... .. . ... ... ... : ... .. . ... ... ... : ... .. . ... : ... .. 0 ... : ... .. . ... ...
ROW B7 : ... .. B ... ... ... : ... .. B ... ... ... : ... .. . ... : ... .. . ... : ... .. . ... ...
ROW B8 : ... .. 0 ... V00 ... : ... .. 0 ... V00 ... : A#3 00 . P81 : 4-# 00 F ... : ... .. . ... ...
ROW B9 : ... .. . ... ... ... : ... .. . ... ... ... : D#3 00 . P89 : ... .. . ... : ... .. . ... ...
ROW BA : ... .. . ... ... ... : ... .. . ... ... ... : B-2 00 . P76 : ... .. . ... : ... .. . ... ...
ROW BB : ... .. . ... ... ... : ... .. . ... ... ... : G-2 00 . P7C : ... .. C ... : ... .. . ... ...
ROW BC : ... .. . ... ... ... : ... .. . ... ... ... : E-2 00 . P78 : ... .. B ... : ... .. . ... ...
ROW BD : ... .. . ... ... ... : ... .. . ... ... ... : C#2 00 . P88 : ... .. 9 ... : ... .. . ... ...
ROW BE : ... .. . ... ... ... : ... .. . ... ... ... : B-1 00 . P7B : ... .. 6 ... : ... .. . ... ...
ROW BF : ... .. . ... ... ... : ... .. . ... ... ... : A-1 00 . P7A : ... .. 5 ... : ... .. . ... ...
ROW C0 : ... .. . ... ... ... : ... .. . ... ... ... : G-1 00 . P86 : ... .. 3 ... : ... .. . ... ...
ROW C1 : ... .. . ... ... ... : ... .. . ... ... ... : F-1 00 . PA2 : ... .. 1 ... : ... .. . ... ...
ROW C2 : ... .. . ... ... ... : ... .. . ... ... ... : --- .. . ... : ... .. 0 ... : ... .. . ... ...
ROW C3 : ... .. . ... ... ... : ... .. . ... ... ... : ... .. . ... : ... .. . ... : ... .. . ... ...
ROW C4 : ... .. . ... ... ... : ... .. . ... ... ... : ... .. . ... : D-# 00 F ... : ... .. . ... ...
ROW C5 : E-3 00 F P80 V01 ... : G-3 00 F P80 V01 ... : C-3 00 . P80 : ... .. . ... : ... .. . ... ...
ROW C6 : ... .. E ... ... ... : ... .. E ... ... ... : ... .. . ... : ... .. . ... : ... .. . ... ...
ROW C7 : ... .. . ... ... ... : ... .. . ... ... ... : ... .. . ... : ... .. C ... : ... .. . ... ...
ROW C8 : ... .. . ... ... ... : ... .. . ... ... ... : ... .. . ... : ... .. B ... : ... .. . ... ...
ROW C9 : ... .. D ... ... ... : ... .. D ... ... ... : ... .. . ... : ... .. 9 ... : ... .. . ... ...
ROW CA : ... .. 0 ... V00 ... : ... .. 0 ... V00 ... : ... .. . ... : ... .. 6 ... : ... .. . ... ...
ROW CB : E-3 00 F P80 V01 ... : G-3 00 F P80 V01 ... : ... .. . ... : ... .. 5 ... : ... .. . ... ...
ROW CC : ... .. E ... ... ... : ... .. E ... ... ... : ... .. . ... : ... .. 3 ... : ... .. . ... ...
ROW CD : ... .. . ... ... ... : ... .. . ... ... ... : ... .. . ... : ... .. 1 ... : ... .. . ... ...
ROW CE : ... .. . ... ... ... : ... .. . ... ... ... : ... .. . ... : ... .. 0 ... : ... .. . ... ...
ROW CF : ... .. D ... ... ... : ... .. D ... ... ... : ... .. . ... : ... .. . ... : ... .. . ... ...
ROW D0 : ... .. 0 ... V00 ... : ... .. 0 ... V00 ... : A#3 00 . P81 : 1-# 00 F ... : ... .. . ... ...
ROW D1 : E-3 00 F P80 V01 ... : G-3 00 F P80 V01 ... : D#3 00 . P89 : ... .. . ... : ... .. . ... ...
ROW D2 : ... .. E ... ... ... : ... .. E ... ... ... : B-2 00 . P76 : ... .. . ... : ... .. . ... ...
ROW D3 : ... .. . ... ... ... : ... .. . ... ... ... : G-2 00 . P7C : ... .. C ... : ... .. . ... ...
ROW D4 : ... .. . ... ... ... : ... .. . ... ... ... : E-2 00 . P78 : ... .. B ... : ... .. . ... ...
ROW D5 : ... .. D ... ... ... : ... .. D ... ... ... : C#2 00 . P88 : ... .. 9 ... : ... .. . ... ...
ROW D6 : ... .. . ... ... ... : ... .. . ... ... ... : B-1 00 . P7B : ... .. 6 ... : ... .. . ... ...
ROW D7 : ... .. . ... ... ... : ... .. . ... ... ... : A-1 00 . P7A : ... .. 5 ... : ... .. . ... ...
ROW D8 : ... .. C ... ... ... : ... .. C ... ... ... : G-1 00 . P86 : ... .. 3 ... : ... .. . ... ...
ROW D9 : ... .. . ... ... ... : ... .. . ... ... ... : F-1 00 . PA2 : ... .. 1 ... : ... .. . ... ...
ROW DA : ... .. . ... ... ... : ... .. . ... ... ... : --- .. . ... : ... .. 0 ... : ... .. . ... ...
ROW DB : ... .. B ... ... ... : ... .. B ... ... ... : ... .. . ... : ... .. . ... : ... .. . ... ...
ROW DC : ... .. 0 ... V00 ... : ... .. 0 ... V00 ... : ... .. . ... : D-# 00 F ... : ... .. . ... ...
ROW DD : C-3 00 F P80 V01 ... : E-3 00 F P80 V01 ... : C-3 00 . P80 : ... .. . ... : ... .. . ... ...
ROW DE : ... .. E ... ... ... : ... .. E ... ... ... : ... .. . ... : ... .. . ... : ... .. . ... ...
ROW DF : ... .. . ... ... ... : ... .. . ... ... ... : ... .. . ... : ... .. C ... : ... .. . ... ...
ROW E0 : ... .. . ... ... ... : ... .. . ... ... ... : ... .. . ... : ... .. B ... : ... .. . ... ...
ROW E1 : ... .. D ... ... ... : ... .. D ... ... ... : ... .. . ... : ... .. 9 ... : ... .. . ... ...
ROW E2 : ... .. . ... ... ... : ... .. . ... ... ... : ... .. . ... : ... .. 6 ... : ... .. . ... ...
ROW E3 : ... .. . ... ... ... : ... .. . ... ... ... : ... .. . ... : ... .. 5 ... : ... .. . ... ...
ROW E4 : ... .. C ... ... ... : ... .. C ... ... ... : ... .. . ... : ... .. 3 ... : ... .. . ... ...
ROW E5 : ... .. . ... ... ... : ... .. . ... ... ... : ... .. . ... : ... .. 1 ... : ... .. . ... ...
ROW E6 : ... .. . ... ... ... : ... .. . ... ... ... : ... .. . ... : ... .. 0 ... : ... .. . ... ...
ROW E7 : ... .. B ... ... ... : ... .. B ... ... ... : ... .. . ... : ... .. . ... : ... .. . ... ...
ROW E8 : ... .. 0 ... V00 ... : ... .. 0 ... V00 ... : A#3 00 . P81 : 4-# 00 F ... : ... .. . ... ...
ROW E9 : ... .. . ... ... ... : ... .. . ... ... ... : D#3 00 . P89 : ... .. . ... : ... .. . ... ...
ROW EA : ... .. . ... ... ... : ... .. . ... ... ... : B-2 00 . P76 : ... .. . ... : ... .. . ... ...
ROW EB : ... .. . ... ... ... : ... .. . ... ... ... : G-2 00 . P7C : ... .. C ... : ... .. . ... ...
ROW EC : ... .. . ... ... ... : ... .. . ... ... ... : E-2 00 . P78 : ... .. B ... : ... .. . ... ...
ROW ED : ... .. . ... ... ... : ... .. . ... ... ... : C#2 00 . P88 : ... .. 9 ... : ... .. . ... ...
ROW EE : ... .. . ... ... ... : ... .. . ... ... ... : B-1 00 . P7B : ... .. 6 ... : ... .. . ... ...
ROW EF : ... .. . ... ... ... : ... .. . ... ... ... : A-1 00 . P7A : ... .. 5 ... : ... .. . ... ...
ROW F0 : ... .. . ... ... ... : ... .. . ... ... ... : G-1 00 . P86 : ... .. 3 ... : ... .. . ... ...
ROW F1 : ... .. . ... ... ... : ... .. . ... ... ... : F-1 00 . PA2 : ... .. 1 ... : ... .. . ... ...
ROW F2 : ... .. . ... ... ... : ... .. . ... ... ... : --- .. . ... : ... .. 0 ... : ... .. . ... ...
ROW F3 : ... .. . ... ... ... : ... .. . ... ... ... : ... .. . ... : ... .. . ... : ... .. . ... ...
ROW F4 : ... .. . ... ... ... : ... .. . ... ... ... : ... .. . ... : D-# 00 F ... : ... .. . ... ...
ROW F5 : E-3 00 F P80 V01 ... : G-3 00 F P80 V01 ... : C-3 00 . P80 : ... .. . ... : ... .. . ... ...
ROW F6 : ... .. E ... ... ... : ... .. E ... ... ... : ... .. . ... : ... .. . ... : ... .. . ... ...
ROW F7 : ... .. . ... ... ... : ... .. . ... ... ... : ... .. . ... : ... .. C ... : ... .. . ... ...
ROW F8 : ... .. . ... ... ... : ... .. . ... ... ... : ... .. . ... : ... .. B ... : ... .. . ... ...
ROW F9 : ... .. D ... ... ... : ... .. D ... ... ... : ... .. . ... : ... .. 9 ... : ... .. . ... ...
ROW FA : ... .. 0 ... V00 ... : ... .. 0 ... V00 ... : ... .. . ... : ... .. 6 ... : ... .. . ... ...
ROW FB : E-3 00 F P80 V01 ... : G-3 00 F P80 V01 ... : ... .. . ... : ... .. 5 ... : ... .. . ... ...
ROW FC : ... .. E ... ... ... : ... .. E ... ... ... : ... .. . ... : ... .. 3 ... : ... .. . ... ...
ROW FD : ... .. . ... ... ... : ... .. . ... ... ... : ... .. . ... : ... .. 1 ... : ... .. . ... ...
ROW FE : ... .. . ... ... ... : ... .. . ... ... ... : ... .. . ... : ... .. 0 ... : ... .. . ... ...
ROW FF : ... .. D ... ... ... : ... .. D ... ... ... : ... .. . ... : ... .. . ... : ... .. . ... ...

PATTERN 06
ROW 00 : ... .. 0 ... V00 ... : ... .. 0 ... V00 ... : --- .. . ... : 1-# 00 F ... : ... .. . ... ...
ROW 01 : A-2 00 F P80 V01 ... : F-3 00 F P80 V01 ... : D#3 00 . P89 : ... .. . ... : ... .. . ... ...
ROW 02 : ... .. E ... ... ... : ... .. E ... ... ... : B-2 00 . P76 : ... .. . ... : ... .. . ... ...
ROW 03 : ... .. . ... ... ... : ... .. . ... ... ... : G-2 00 . P7C : ... .. C ... : ... .. . ... ...
ROW 04 : ... .. . ... ... ... : ... .. . ... ... ... : E-2 00 . P78 : ... .. B ... : ... .. . ... ...
ROW 05 : ... .. D ... ... ... : ... .. D ... ... ... : C#2 00 . P88 : ... .. 9 ... : ... .. . ... ...
ROW 06 : ... .. . ... ... ... : ... .. . ... ... ... : B-1 00 . P7B : ... .. 6 ... : ... .. . ... ...
ROW 07 : ... .. . ... ... ... : ... .. . ... ... ... : A-1 00 . P7A : ... .. 5 ... : ... .. . ... ...
ROW 08 : ... .. C ... ... ... : ... .. C ... ... ... : G-1 00 . P86 : ... .. 3 ... : ... .. . ... ...
ROW 09 : ... .. . ... ... ... : ... .. . ... ... ... : F-1 00 . PA2 : ... .. 1 ... : ... .. . ... ...
ROW 0A : ... .. . ... ... ... : ... .. . ... ... ... : E-1 00 . P7E : ... .. 0 ... : ... .. . ... ...
ROW 0B : ... .. B ... ... ... : ... .. B ... ... ... : D#1 00 . P5F : ... .. . ... : ... .. . ... ...
ROW 0C : ... .. . ... ... ... : ... .. . ... ... ... : --- .. . ... : D-# 00 F ... : ... .. . ... ...
ROW 0D : ... .. . ... ... ... : ... .. . ... ... ... : F-2 00 . P80 : ... .. . ... : ... .. . ... ...
ROW 0E : ... .. A ... ... ... : ... .. A ... ... ... : ... .. . ... : ... .. . ... : ... .. . ... ...
ROW 0F : ... .. . ... ... ... : ... .. . ... ... ... : ... .. . ... : ... .. C ... : ... .. . ... ...
ROW 10 : ... .. . ... ... ... : ... .. . ... ... ... : ... .. . ... : ... .. B ... : ... .. . ... ...
ROW 11 : ... .. 9 ... ... ... : ... .. 9 ... ... ... : ... .. . ... : ... .. 9 ... : ... .. . ... ...
ROW 12 : ... .. . ... ... ... : ... .. . ... ... ... : ... .. . ... : ... .. 6 ... : ... .. . ... ...
ROW 13 : ... .. . ... ... ... : ... .. . ... ... ... : ... .. . ... : ... .. 5 ... : ... .. . ... ...
ROW 14 : ... .. 8 ... ... ... : ... .. 8 ... ... ... : ... .. . ... : ... .. 3 ... : ... .. . ... ...
ROW 15 : ... .. . ... ... ... : ... .. . ... ... ... : ... .. . ... : ... .. 1 ... : ... .. . ... ...
ROW 16 : ... .. 7 ... ... ... : ... .. 7 ... ... ... : ... .. . ... : ... .. 0 ... : ... .. . ... ...
ROW 17 : ... .. . ... ... ... : ... .. . ... ... ... : ... .. . ... : ... .. . ... : ... .. . ... ...
ROW 18 : ... .. 6 ... ... ... : ... .. 6 ... ... ... : --- .. . ... : 4-# 00 F ... : ... .. . ... ...
ROW 19 : ... .. . ... ... ... : ... .. . ... ... ... : D#3 00 . P89 : ... .. . ... : ... .. . ... ...
ROW 1A : ... .. . ... ... ... : ... .. . ... ... ... : B-2 00 . P76 : ... .. . ... : ... .. . ... ...
ROW 1B : ... .. 5 ... ... ... : ... .. 5 ... ... ... : G-2 00 . P7C : ... .. C ... : ... .. . ... ...
ROW 1C : ... .. . ... ... ... : ... .. . ... ... ... : E-2 00 . P78 : ... .. B ... : ... .. . ... ...
ROW 1D : ... .. 4 ... ... ... : ... .. 4 ... ... ... : C#2 00 . P88 : ... .. 9 ... : ... .. . ... ...
ROW 1E : ... .. . ... ... ... : ... .. . ... ... ... : B-1 00 . P7B : ... .. 6 ... : ... .. . ... ...
ROW 1F : ... .. 3 ... ... ... : ... .. 3 ... ... ... : A-1 00 . P7A : ... .. 5 ... : ... .. . ... ...
ROW 20 : ... .. . ... ... ... : ... .. . ... ... ... : G-1 00 . P86 : ... .. 3 ... : ... .. . ... ...
ROW 21 : ... .. 2 ... ... ... : ... .. 2 ... ... ... : F-1 00 . PA2 : ... .. 1 ... : ... .. . ... ...
ROW 22 : ... .. 1 ... ... ... : ... .. 1 ... ... ... : E-1 00 . P7E : ... .. 0 ... : ... .. . ... ...
ROW 23 : ... .. . ... ... ... : ... .. . ... ... ... : D#1 00 . P5F : ... .. . ... : ... .. . ... ...
ROW 24 : ... .. . ... ... ... : ... .. . ... ... ... : --- .. . ... : D-# 00 F ... : ... .. . ... ...
ROW 25 : ... .. . ... ... ... : ... .. . ... ... ... : F-2 00 . P80 : ... .. . ... : ... .. . ... ...
ROW 26 : ... .. . ... ... ... : ... .. . ... ... ... : ... .. . ... : ... .. . ... : ... .. . ... ...
ROW 27 : ... .. . ... ... ... : ... .. . ... ... ... : ... .. . ... : ... .. C ... : ... .. . ... ...
ROW 28 : ... .. . ... ... ... : ... .. . ... ... ... : ... .. . ... : ... .. B ... : ... .. . ... ...
ROW 29 : ... .. . ... ... ... : ... .. . ... ... ... : ... .. . ... : ... .. 9 ... : ... .. . ... ...
ROW 2A : ... .. . ... ... ... : ... .. . ... ... ... : ... .. . ... : ... .. 6 ... : ... .. . ... ...
ROW 2B : ... .. . ... ... ... : ... .. . ... ... ... : ... .. . ... : ... .. 5 ... : ... .. . ... ...
ROW 2C : ... .. . ... ... ... : ... .. . ... ... ... : ... .. . ... : ... .. 3 ... : ... .. . ... ...
ROW 2D : ... .. . ... ... ... : ... .. . ... ... ... : ... .. . ... : ... .. 1 ... : ... .. . ... ...
ROW 2E : ... .. . ... ... ... : ... .. . ... ... ... : ... .. . ... : ... .. 0 ... : ... .. . ... ...
ROW 2F : ... .. . ... ... ... : ... .. . ... ... ... : ... .. . ... : ... .. . ... : ... .. . ... ...
ROW 30 : ... .. . ... ... ... : ... .. . ... ... ... : --- .. . ... : 1-# 00 F ... : ... .. . ... ...
ROW 31 : ... .. . ... ... ... : ... .. . ... ... ... : D#3 00 . P89 : ... .. . ... : ... .. . ... ...
ROW 32 : ... .. . ... ... ... : ... .. . ... ... ... : B-2 00 . P76 : ... .. . ... : ... .. . ... ...
ROW 33 : ... .. . ... ... ... : ... .. . ... ... ... : G-2 00 . P7C : ... .. C ... : ... .. . ... ...
ROW 34 : ... .. . ... ... ... : ... .. . ... ... ... : E-2 00 . P78 : ... .. B ... : ... .. . ... ...
ROW 35 : ... .. . ... ... ... : ... .. . ... ... ... : C#2 00 . P88 : ... .. 9 ... : ... .. . ... ...
ROW 36 : ... .. . ... ... ... : ... .. . ... ... ... : B-1 00 . P7B : ... .. 6 ... : ... .. . ... ...
ROW 37 : ... .. . ... ... ... : ... .. . ... ... ... : A-1 00 . P7A : ... .. 5 ... : ... .. . ... ...
ROW 38 : ... .. . ... ... ... : ... .. . ... ... ... : G-1 00 . P86 : ... .. 3 ... : ... .. . ... ...
ROW 39 : ... .. . ... ... ... : ... .. . ... ... ... : F-1 00 . PA2 : ... .. 1 ... : ... .. . ... ...
ROW 3A : ... .. . ... ... ... : ... .. . ... ... ... : E-1 00 . P7E : ... .. 0 ... : ... .. . ... ...
ROW 3B : ... .. . ... ... ... : ... .. . ... ... ... : D#1 00 . P5F : ... .. . ... : ... .. . ... ...
ROW 3C : ... .. 0 ... V00 ... : ... .. 0 ... V00 ... : --- .. . ... : D-# 00 F ... : ... .. . ... ...
ROW 3D : A-2 00 F P80 V01 ... : F-3 00 F P80 V01 ... : F-2 00 . P80 : ... .. . ... : ... .. . ... ...
ROW 3E : ... .. E ... ... ... : ... .. E ... ... ... : ... .. . ... : ... .. . ... : ... .. . ... ...
ROW 3F : ... .. . ... ... ... : ... .. . ... ... ... : ... .. . ... : ... .. C ... : ... .. . ... ...
ROW 40 : ... .. . ... ... ... : ... .. . ... ... ... : ... .. . ... : ... .. B ... : ... .. . ... ...
ROW 41 : ... .. D ... ... ... : ... .. D ... ... ... : ... .. . ... : ... .. 9 ... : ... .. . ... ...
ROW 42 : ... .. . ... ... ... : ... .. . ... ... ... : ... .. . ... : ... .. 6 ... : ... .. . ... ...
ROW 43 : ... .. . ... ... ... : ... .. . ... ... ... : ... .. . ... : ... .. 5 ... : ... .. . ... ...
ROW 44 : ... .. C ... ... ... : ... .. C ... ... ... : ... .. . ... : ... .. 3 ... : ... .. . ... ...
ROW 45 : ... .. . ... ... ... : ... .. . ... ... ... : ... .. . ... : ... .. 1 ... : ... .. . ... ...
ROW 46 : ... .. . ... ... ... : ... .. . ... ... ... : ... .. . ... : ... .. 0 ... : ... .. . ... ...
ROW 47 : ... .. B ... ... ... : ... .. B ... ... ... : ... .. . ... : ... .. . ... : ... .. . ... ...
ROW 48 : ... .. 0 ... V00 ... : ... .. 0 ... V00 ... : --- .. . ... : 4-# 00 F ... : ... .. . ... ...
ROW 49 : G-2 00 F P80 V01 ... : E-3 00 F P80 V01 ... : D#3 00 . P89 : ... .. . ... : ... .. . ... ...
ROW 4A : ... .. E ... ... ... : ... .. E ... ... ... : B-2 00 . P76 : ... .. . ... : ... .. . ... ...
ROW 4B : ... .. . ... ... ... : ... .. . ... ... ... : G-2 00 . P7C : ... .. C ... : ... .. . ... ...
ROW 4C : ... .. . ... ... ... : ... .. . ... ... ... : E-2 00 . P78 : ... .. B ... : ... .. . ... ...
ROW 4D : ... .. D ... ... ... : ... .. D ... ... ... : C#2 00 . P88 : ... .. 9 ... : ... .. . ... ...
ROW 4E : ... .. . ... ... ... : ... .. . ... ... ... : B-1 00 . P7B : ... .. 6 ... : ... .. . ... ...
ROW 4F : ... .. . ... ... ... : ... .. . ... ... ... : A-1 00 . P7A : ... .. 5 ... : ... .. . ... ...
ROW 50 : ... .. C ... ... ... : ... .. C ... ... ... : G-1 00 . P86 : ... .. 3 ... : ... .. . ... ...
ROW 51 : ... .. . ... ... ... : ... .. . ... ... ... : F-1 00 . PA2 : ... .. 1 ... : ... .. . ... ...
ROW 52 : ... .. . ... ... ... : ... .. . ... ... ... : E-1 00 . P7E : ... .. 0 ... : ... .. . ... ...
ROW 53 : ... .. B ... ... ... : ... .. B ... ... ... : D#1 00 . P5F : ... .. . ... : ... .. . ... ...
ROW 54 : ... .. 0 ... V00 ... : ... .. 0 ... V00 ... : --- .. . ... : D-# 00 F ... : ... .. . ... ...
ROW 55 : E-2 00 F P80 V01 ... : C-3 00 F P80 V01 ... : F-2 00 . P80 : ... .. . ... : ... .. . ... ...
ROW 56 : ... .. E ... ... ... : ... .. E ... ... ... : ... .. . ... : ... .. . ... : ... .. . ... ...
ROW 57 : ... .. . ... ... ... : ... .. . ... ... ... : ... .. . ... : ... .. C ... : ... .. . ... ...
ROW 58 : ... .. . ... ... ... : ... .. . ... ... ... : ... .. . ... : ... .. B ... : ... .. . ... ...
ROW 59 : ... .. D ... ... ... : ... .. D ... ... ... : ... .. . ... : ... .. 9 ... : ... .. . ... ...
ROW 5A : ... .. . ... ... ... : ... .. . ... ... ... : ... .. . ... : ... .. 6 ... : ... .. . ... ...
ROW 5B : ... .. . ... ... ... : ... .. . ... ... ... : ... .. . ... : ... .. 5 ... : ... .. . ... ...
ROW 5C : ... .. C ... ... ... : ... .. C ... ... ... : ... .. . ... : ... .. 3 ... : ... .. . ... ...
ROW 5D : ... .. . ... ... ... : ... .. . ... ... ... : ... .. . ... : ... .. 1 ... : ... .. . ... ...
ROW 5E : ... .. . ... ... ... : ... .. . ... ... ... : ... .. . ... : ... .. 0 ... : ... .. . ... ...
ROW 5F : ... .. B ... ... ... : ... .. B ... ... ... : ... .. . ... : ... .. . ... : ... .. . ... ...
ROW 60 : ... .. 0 ... V00 ... : ... .. 0 ... V00 ... : --- .. . ... : 1-# 00 F ... : ... .. . ... ...
ROW 61 : D-3 00 F P80 V01 ... : G-3 00 F P80 V01 ... : D#3 00 . P89 : ... .. . ... : ... .. . ... ...
ROW 62 : ... .. E ... ... ... : ... .. E ... ... ... : B-2 00 . P76 : ... .. . ... : ... .. . ... ...
ROW 63 : ... .. . ... ... ... : ... .. . ... ... ... : G-2 00 . P7C : ... .. C ... : ... .. . ... ...
ROW 64 : ... .. . ... ... ... : ... .. . ... ... ... : E-2 00 . P78 : ... .. B ... : ... .. . ... ...
ROW 65 : ... .. D ... ... ... : ... .. D ... ... ... : C#2 00 . P88 : ... .. 9 ... : ... .. . ... ...
ROW 66 : ... .. . ... ... ... : ... .. . ... ... ... : B-1 00 . P7B : ... .. 6 ... : ... .. . ... ...
ROW 67 : ... .. . ... ... ... : ... .. . ... ... ... : A-1 00 . P7A : ... .. 5 ... : ... .. . ... ...
ROW 68 : ... .. C ... ... ... : ... .. C ... ... ... : G-1 00 . P86 : ... .. 3 ... : ... .. . ... ...
ROW 69 : ... .. . ... ... ... : ... .. . ... ... ... : F-1 00 . PA2 : ... .. 1 ... : ... .. . ... ...
ROW 6A : ... .. . ... ... ... : ... .. . ... ... ... : E-1 00 . P7E : ... .. 0 ... : ... .. . ... ...
ROW 6B : ... .. B ... ... ... : ... .. B ... ... ... : D#1 00 . P5F : ... .. . ... : ... .. . ... ...
ROW 6C : ... .. . ... ... ... : ... .. . ... ... ... : --- .. . ... : D-# 00 F ... : ... .. . ... ...
ROW 6D : ... .. . ... ... ... : ... .. . ... ... ... : G-2 00 . P80 : ... .. . ... : ... .. . ... ...
ROW 6E : ... .. A ... ... ... : ... .. A ... ... ... : ... .. . ... : ... .. . ... : ... .. . ... ...
ROW 6F : ... .. . ... ... ... : ... .. . ... ... ... : ... .. . ... : ... .. C ... : ... .. . ... ...
ROW 70 : ... .. . ... ... ... : ... .. . ... ... ... : ... .. . ... : ... .. B ... : ... .. . ... ...
ROW 71 : ... .. 9 ... ... ... : ... .. 9 ... ... ... : ... .. . ... : ... .. 9 ... : ... .. . ... ...
ROW 72 : ... .. . ... ... ... : ... .. . ... ... ... : ... .. . ... : ... .. 6 ... : ... .. . ... ...
ROW 73 : ... .. . ... ... ... : ... .. . ... ... ... : ... .. . ... : ... .. 5 ... : ... .. . ... ...
ROW 74 : ... .. 8 ... ... ... : ... .. 8 ... ... ... : ... .. . ... : ... .. 3 ... : ... .. . ... ...
ROW 75 : ... .. . ... ... ... : ... .. . ... ... ... : ... .. . ... : ... .. 1 ... : ... .. . ... ...
ROW 76 : ... .. 7 ... ... ... : ... .. 7 ... ... ... : ... .. . ... : ... .. 0 ... : ... .. . ... ...
ROW 77 : ... .. . ... ... ... : ... .. . ... ... ... : ... .. . ... : ... .. . ... : ... .. . ... ...
ROW 78 : ... .. 0 ... V00 ... : ... .. 0 ... V00 ... : --- .. . ... : 4-# 00 F ... : ... .. . ... ...
ROW 79 : D-3 00 F P80 V01 ... : F-3 00 F P80 V01 ... : D#3 00 . P89 : ... .. . ... : ... .. . ... ...
ROW 7A : ... .. E ... ... ... : ... .. E ... ... ... : B-2 00 . P76 : ... .. . ... : ... .. . ... ...
ROW 7B : ... .. . ... ... ... : ... .. . ... ... ... : G-2 00 . P7C : ... .. C ... : ... .. . ... ...
ROW 7C : ... .. . ... ... ... : ... .. . ... ... ... : E-2 00 . P78 : ... .. B ... : ... .. . ... ...
ROW 7D : ... .. D ... ... ... : ... .. D ... ... ... : C#2 00 . P88 : ... .. 9 ... : ... .. . ... ...
ROW 7E : ... .. . ... ... ... : ... .. . ... ... ... : B-1 00 . P7B : ... .. 6 ... : ... .. . ... ...
ROW 7F : ... .. . ... ... ... : ... .. . ... ... ... : A-1 00 . P7A : ... .. 5 ... : ... .. . ... ...
ROW 80 : ... .. C ... ... ... : ... .. C ... ... ... : G-1 00 . P86 : ... .. 3 ... : ... .. . ... ...
ROW 81 : ... .. . ... ... ... : ... .. . ... ... ... : F-1 00 . PA2 : ... .. 1 ... : ... .. . ... ...
ROW 82 : ... .. . ... ... ... : ... .. . ... ... ... : E-1 00 . P7E : ... .. 0 ... : ... .. . ... ...
ROW 83 : ... .. B ... ... ... : ... .. B ... ... ... : D#1 00 . P5F : ... .. . ... : ... .. . ... ...
ROW 84 : ... .. . ... ... ... : ... .. . ... ... ... : --- .. . ... : D-# 00 F ... : ... .. . ... ...
ROW 85 : ... .. . ... ... ... : ... .. . ... ... ... : G-2 00 . P80 : ... .. . ... : ... .. . ... ...
ROW 86 : ... .. A ... ... ... : ... .. A ... ... ... : ... .. . ... : ... .. . ... : ... .. . ... ...
ROW 87 : ... .. . ... ... ... : ... .. . ... ... ... : ... .. . ... : ... .. C ... : ... .. . ... ...
ROW 88 : ... .. . ... ... ... : ... .. . ... ... ... : ... .. . ... : ... .. B ... : ... .. . ... ...
ROW 89 : ... .. 9 ... ... ... : ... .. 9 ... ... ... : ... .. . ... : ... .. 9 ... : ... .. . ... ...
ROW 8A : ... .. . ... ... ... : ... .. . ... ... ... : ... .. . ... : ... .. 6 ... : ... .. . ... ...
ROW 8B : ... .. . ... ... ... : ... .. . ... ... ... : ... .. . ... : ... .. 5 ... : ... .. . ... ...
ROW 8C : ... .. 8 ... ... ... : ... .. 8 ... ... ... : ... .. . ... : ... .. 3 ... : ... .. . ... ...
ROW 8D : ... .. . ... ... ... : ... .. . ... ... ... : ... .. . ... : ... .. 1 ... : ... .. . ... ...
ROW 8E : ... .. 7 ... ... ... : ... .. 7 ... ... ... : ... .. . ... : ... .. 0 ... : ... .. . ... ...
ROW 8F : ... .. . ... ... ... : ... .. . ... ... ... : ... .. . ... : ... .. . ... : ... .. . ... ...
ROW 90 : ... .. 0 ... V00 ... : ... .. 0 ... V00 ... : --- .. . ... : 1-# 00 F ... : ... .. . ... ...
ROW 91 : C-3 00 F P80 V01 ... : E-3 00 F P80 V01 ... : D#3 00 . P89 : ... .. . ... : ... .. . ... ...
ROW 92 : ... .. E ... ... ... : ... .. E ... ... ... : B-2 00 . P76 : ... .. . ... : ... .. . ... ...
ROW 93 : ... .. . ... ... ... : ... .. . ... ... ... : G-2 00 . P7C : ... .. C ... : ... .. . ... ...
ROW 94 : ... .. . ... ... ... : ... .. . ... ... ... : E-2 00 . P78 : ... .. B ... : ... .. . ... ...
ROW 95 : ... .. D ... ... ... : ... .. D ... ... ... : C#2 00 . P88 : ... .. 9 ... : ... .. . ... ...
ROW 96 : ... .. . ... ... ... : ... .. . ... ... ... : B-1 00 . P7B : ... .. 6 ... : ... .. . ... ...
ROW 97 : ... .. . ... ... ... : ... .. . ... ... ... : A-1 00 . P7A : ... .. 5 ... : ... .. . ... ...
ROW 98 : ... .. C ... ... ... : ... .. C ... ... ... : G-1 00 . P86 : ... .. 3 ... : ... .. . ... ...
ROW 99 : ... .. . ... ... ... : ... .. . ... ... ... : F-1 00 . PA2 : ... .. 1 ... : ... .. . ... ...
ROW 9A : ... .. . ... ... ... : ... .. . ... ... ... : E-1 00 . P7E : ... .. 0 ... : ... .. . ... ...
ROW 9B : ... .. B ... ... ... : ... .. B ... ... ... : D#1 00 . P5F : ... .. . ... : ... .. . ... ...
ROW 9C : ... .. . ... ... ... : ... .. . ... ... ... : --- .. . ... : D-# 00 F ... : ... .. . ... ...
ROW 9D : ... .. . ... ... ... : ... .. . ... ... ... : G-2 00 . P80 : ... .. . ... : ... .. . ... ...
ROW 9E : ... .. A ... ... ... : ... .. A ... ... ... : ... .. . ... : ... .. . ... : ... .. . ... ...
ROW 9F : ... .. . ... ... ... : ... .. . ... ... ... : ... .. . ... : ... .. C ... : ... .. . ... ...
ROW A0 : ... .. . ... ... ... : ... .. . ... ... ... : ... .. . ... : ... .. B ... : ... .. . ... ...
ROW A1 : ... .. 9 ... ... ... : ... .. 9 ... ... ... : ... .. . ... : ... .. 9 ... : ... .. . ... ...
ROW A2 : ... .. . ... ... ... : ... .. . ... ... ... : ... .. . ... : ... .. 6 ... : ... .. . ... ...
ROW A3 : ... .. . ... ... ... : ... .. . ... ... ... : ... .. . ... : ... .. 5 ... : ... .. . ... ...
ROW A4 : ... .. 8 ... ... ... : ... .. 8 ... ... ... : ... .. . ... : ... .. 3 ... : ... .. . ... ...
ROW A5 : ... .. . ... ... ... : ... .. . ... ... ... : ... .. . ... : ... .. 1 ... : ... .. . ... ...
ROW A6 : ... .. 7 ... ... ... : ... .. 7 ... ... ... : ... .. . ... : ... .. 0 ... : ... .. . ... ...
ROW A7 : ... .. . ... ... ... : ... .. . ... ... ... : ... .. . ... : ... .. . ... : ... .. . ... ...
ROW A8 : ... .. 0 ... V00 ... : ... .. 0 ... V00 ... : --- .. . ... : 4-# 00 F ... : ... .. . ... ...
ROW A9 : B-2 00 F P80 V01 ... : D-3 00 F P80 V01 ... : D#3 00 . P89 : ... .. . ... : ... .. . ... ...
ROW AA : ... .. E ... ... ... : ... .. E ... ... ... : B-2 00 . P76 : ... .. . ... : ... .. . ... ...
ROW AB : ... .. . ... ... ... : ... .. . ... ... ... : G-2 00 . P7C : ... .. C ... : ... .. . ... ...
ROW AC : ... .. . ... ... ... : ... .. . ... ... ... : E-2 00 . P78 : ... .. B ... : ... .. . ... ...
ROW AD : ... .. D ... ... ... : ... .. D ... ... ... : C#2 00 . P88 : ... .. 9 ... : ... .. . ... ...
ROW AE : ... .. . ... ... ... : ... .. . ... ... ... : B-1 00 . P7B : ... .. 6 ... : ... .. . ... ...
ROW AF : ... .. . ... ... ... : ... .. . ... ... ... : A-1 00 . P7A : ... .. 5 ... : ... .. . ... ...
ROW B0 : ... .. C ... ... ... : ... .. C ... ... ... : G-1 00 . P86 : ... .. 3 ... : ... .. . ... ...
ROW B1 : ... .. . ... ... ... : ... .. . ... ... ... : F-1 00 . PA2 : ... .. 1 ... : ... .. . ... ...
ROW B2 : ... .. . ... ... ... : ... .. . ... ... ... : E-1 00 . P7E : ... .. 0 ... : ... .. . ... ...
ROW B3 : ... .. B ... ... ... : ... .. B ... ... ... : D#1 00 . P5F : ... .. . ... : ... .. . ... ...
ROW B4 : ... .. . ... ... ... : ... .. . ... ... ... : --- .. . ... : D-# 00 F ... : ... .. . ... ...
ROW B5 : ... .. . ... ... ... : ... .. . ... ... ... : G-2 00 . P80 : ... .. . ... : ... .. . ... ...
ROW B6 : ... .. A ... ... ... : ... .. A ... ... ... : ... .. . ... : ... .. . ... : ... .. . ... ...
ROW B7 : ... .. . ... ... ... : ... .. . ... ... ... : ... .. . ... : ... .. C ... : ... .. . ... ...
ROW B8 : ... .. . ... ... ... : ... .. . ... ... ... : ... .. . ... : ... .. B ... : ... .. . ... ...
ROW B9 : ... .. 9 ... ... ... : ... .. 9 ... ... ... : ... .. . ... : ... .. 9 ... : ... .. . ... ...
ROW BA : ... .. . ... ... ... : ... .. . ... ... ... : ... .. . ... : ... .. 6 ... : ... .. . ... ...
ROW BB : ... .. . ... ... ... : ... .. . ... ... ... : ... .. . ... : ... .. 5 ... : ... .. . ... ...
ROW BC : ... .. 8 ... ... ... : ... .. 8 ... ... ... : ... .. . ... : ... .. 3 ... : ... .. . ... ...
ROW BD : ... .. . ... ... ... : ... .. . ... ... ... : ... .. . ... : ... .. 1 ... : ... .. . ... ...
ROW BE : ... .. 7 ... ... ... : ... .. 7 ... ... ... : ... .. . ... : ... .. 0 ... : ... .. . ... ...
ROW BF : ... .. . ... ... ... : ... .. . ... ... ... : ... .. . ... : ... .. . ... : ... .. . ... ...
ROW C0 : ... .. 0 ... V00 ... : ... .. 0 ... V00 ... : --- .. . ... : 1-# 00 F ... : ... .. . ... ...
ROW C1 : A-2 00 F P80 V01 ... : F-3 00 F P80 V01 ... : D#3 00 . P89 : ... .. . ... : ... .. . ... ...
ROW C2 : ... .. E ... ... ... : ... .. E ... ... ... : B-2 00 . P76 : ... .. . ... : ... .. . ... ...
ROW C3 : ... .. . ... ... ... : ... .. . ... ... ... : G-2 00 . P7C : ... .. C ... : ... .. . ... ...
ROW C4 : ... .. . ... ... ... : ... .. . ... ... ... : E-2 00 . P78 : ... .. B ... : ... .. . ... ...
ROW C5 : ... .. D ... ... ... : ... .. D ... ... ... : C#2 00 . P88 : ... .. 9 ... : ... .. . ... ...
ROW C6 : ... .. . ... ... ... : ... .. . ... ... ... : B-1 00 . P7B : ... .. 6 ... : ... .. . ... ...
ROW C7 : ... .. . ... ... ... : ... .. . ... ... ... : A-1 00 . P7A : ... .. 5 ... : ... .. . ... ...
ROW C8 : ... .. C ... ... ... : ... .. C ... ... ... : G-1 00 . P86 : ... .. 3 ... : ... .. . ... ...
ROW C9 : ... .. . ... ... ... : ... .. . ... ... ... : F-1 00 . PA2 : ... .. 1 ... : ... .. . ... ...
ROW CA : ... .. . ... ... ... : ... .. . ... ... ... : E-1 00 . P7E : ... .. 0 ... : ... .. . ... ...
ROW CB : ... .. B ... ... ... : ... .. B ... ... ... : D#1 00 . P5F : ... .. . ... : ... .. . ... ...
ROW CC : ... .. . ... ... ... : ... .. . ... ... ... : --- .. . ... : D-# 00 F ... : ... .. . ... ...
ROW CD : ... .. . ... ... ... : ... .. . ... ... ... : F-2 00 . P80 : ... .. . ... : ... .. . ... ...
ROW CE : ... .. A ... ... ... : ... .. A ... ... ... : ... .. . ... : ... .. . ... : ... .. . ... ...
ROW CF : ... .. . ... ... ... : ... .. . ... ... ... : ... .. . ... : ... .. C ... : ... .. . ... ...
ROW D0 : ... .. . ... ... ... : ... .. . ... ... ... : ... .. . ... : ... .. B ... : ... .. . ... ...
ROW D1 : ... .. 9 ... ... ... : ... .. 9 ... ... ... : ... .. . ... : ... .. 9 ... : ... .. . ... ...
ROW D2 : ... .. . ... ... ... : ... .. . ... ... ... : ... .. . ... : ... .. 6 ... : ... .. . ... ...
ROW D3 : ... .. . ... ... ... : ... .. . ... ... ... : ... .. . ... : ... .. 5 ... : ... .. . ... ...
ROW D4 : ... .. 8 ... ... ... : ... .. 8 ... ... ... : ... .. . ... : ... .. 3 ... : ... .. . ... ...
ROW D5 : ... .. . ... ... ... : ... .. . ... ... ... : ... .. . ... : ... .. 1 ... : ... .. . ... ...
ROW D6 : ... .. 7 ... ... ... : ... .. 7 ... ... ... : ... .. . ... : ... .. 0 ... : ... .. . ... ...
ROW D7 : ... .. . ... ... ... : ... .. . ... ... ... : ... .. . ... : ... .. . ... : ... .. . ... ...
ROW D8 : ... .. 6 ... ... ... : ... .. 6 ... ... ... : --- .. . ... : 4-# 00 F ... : ... .. . ... ...
ROW D9 : ... .. . ... ... ... : ... .. . ... ... ... : D#3 00 . P89 : ... .. . ... : ... .. . ... ...
ROW DA : ... .. . ... ... ... : ... .. . ... ... ... : B-2 00 . P76 : ... .. . ... : ... .. . ... ...
ROW DB : ... .. 5 ... ... ... : ... .. 5 ... ... ... : G-2 00 . P7C : ... .. C ... : ... .. . ... ...
ROW DC : ... .. . ... ... ... : ... .. . ... ... ... : E-2 00 . P78 : ... .. B ... : ... .. . ... ...
ROW DD : ... .. 4 ... ... ... : ... .. 4 ... ... ... : C#2 00 . P88 : ... .. 9 ... : ... .. . ... ...
ROW DE : ... .. . ... ... ... : ... .. . ... ... ... : B-1 00 . P7B : ... .. 6 ... : ... .. . ... ...
ROW DF : ... .. 3 ... ... ... : ... .. 3 ... ... ... : A-1 00 . P7A : ... .. 5 ... : ... .. . ... ...
ROW E0 : ... .. . ... ... ... : ... .. . ... ... ... : G-1 00 . P86 : ... .. 3 ... : ... .. . ... ...
ROW E1 : ... .. 2 ... ... ... : ... .. 2 ... ... ... : F-1 00 . PA2 : ... .. 1 ... : ... .. . ... ...
ROW E2 : ... .. 1 ... ... ... : ... .. 1 ... ... ... : E-1 00 . P7E : ... .. 0 ... : ... .. . ... ...
ROW E3 : ... .. . ... ... ... : ... .. . ... ... ... : D#1 00 . P5F : ... .. . ... : ... .. . ... ...
ROW E4 : ... .. . ... ... ... : ... .. . ... ... ... : --- .. . ... : D-# 00 F ... : ... .. . ... ...
ROW E5 : ... .. . ... ... ... : ... .. . ... ... ... : F-2 00 . P80 : ... .. . ... : ... .. . ... ...
ROW E6 : ... .. . ... ... ... : ... .. . ... ... ... : ... .. . ... : ... .. . ... : ... .. . ... ...
ROW E7 : ... .. . ... ... ... : ... .. . ... ... ... : ... .. . ... : ... .. C ... : ... .. . ... ...
ROW E8 : ... .. . ... ... ... : ... .. . ... ... ... : ... .. . ... : ... .. B ... : ... .. . ... ...
ROW E9 : ... .. . ... ... ... : ... .. . ... ... ... : ... .. . ... : ... .. 9 ... : ... .. . ... ...
ROW EA : ... .. . ... ... ... : ... .. . ... ... ... : ... .. . ... : ... .. 6 ... : ... .. . ... ...
ROW EB : ... .. . ... ... ... : ... .. . ... ... ... : ... .. . ... : ... .. 5 ... : ... .. . ... ...
ROW EC : ... .. . ... ... ... : ... .. . ... ... ... : ... .. . ... : ... .. 3 ... : ... .. . ... ...
ROW ED : ... .. . ... ... ... : ... .. . ... ... ... : ... .. . ... : ... .. 1 ... : ... .. . ... ...
ROW EE : ... .. . ... ... ... : ... .. . ... ... ... : ... .. . ... : ... .. 0 ... : ... .. . ... ...
ROW EF : ... .. . ... ... ... : ... .. . ... ... ... : ... .. . ... : ... .. . ... : ... .. . ... ...
ROW F0 : ... .. . ... ... ... : ... .. . ... ... ... : --- .. . ... : 1-# 00 F ... : ... .. . ... ...
ROW F1 : ... .. . ... ... ... : ... .. . ... ... ... : D#3 00 . P89 : ... .. . ... : ... .. . ... ...
ROW F2 : ... .. . ... ... ... : ... .. . ... ... ... : B-2 00 . P76 : ... .. . ... : ... .. . ... ...
ROW F3 : ... .. . ... ... ... : ... .. . ... ... ... : G-2 00 . P7C : ... .. C ... : ... .. . ... ...
ROW F4 : ... .. . ... ... ... : ... .. . ... ... ... : E-2 00 . P78 : ... .. B ... : ... .. . ... ...
ROW F5 : ... .. . ... ... ... : ... .. . ... ... ... : C#2 00 . P88 : ... .. 9 ... : ... .. . ... ...
ROW F6 : ... .. . ... ... ... : ... .. . ... ... ... : B-1 00 . P7B : ... .. 6 ... : ... .. . ... ...
ROW F7 : ... .. . ... ... ... : ... .. . ... ... ... : A-1 00 . P7A : ... .. 5 ... : ... .. . ... ...
ROW F8 : ... .. . ... ... ... : ... .. . ... ... ... : G-1 00 . P86 : ... .. 3 ... : ... .. . ... ...
ROW F9 : ... .. . ... ... ... : ... .. . ... ... ... : F-1 00 . PA2 : ... .. 1 ... : ... .. . ... ...
ROW FA : ... .. . ... ... ... : ... .. . ... ... ... : E-1 00 . P7E : ... .. 0 ... : ... .. . ... ...
ROW FB : ... .. . ... ... ... : ... .. . ... ... ... : D#1 00 . P5F : ... .. . ... : ... .. . ... ...
ROW FC : ... .. 0 ... V00 ... : ... .. 0 ... V00 ... : --- .. . ... : D-# 00 F ... : ... .. . ... ...
ROW FD : A-2 00 F P80 V01 ... : F-3 00 F P80 V01 ... : F-2 00 . P80 : ... .. . ... : ... .. . ... ...
ROW FE : ... .. E ... ... ... : ... .. E ... ... ... : ... .. . ... : ... .. . ... : ... .. . ... ...
ROW FF : ... .. . ... ... ... : ... .. . ... ... ... : ... .. . ... : ... .. C ... : ... .. . ... ...

PATTERN 07
ROW 00 : ... .. . ... ... ... : ... .. . ... ... ... : ... .. . ... : ... .. B ... : ... .. . ... ...
ROW 01 : ... .. D ... ... ... : ... .. D ... ... ... : ... .. . ... : ... .. 9 ... : ... .. . ... ...
ROW 02 : ... .. . ... ... ... : ... .. . ... ... ... : ... .. . ... : ... .. 6 ... : ... .. . ... ...
ROW 03 : ... .. . ... ... ... : ... .. . ... ... ... : ... .. . ... : ... .. 5 ... : ... .. . ... ...
ROW 04 : ... .. C ... ... ... : ... .. C ... ... ... : ... .. . ... : ... .. 3 ... : ... .. . ... ...
ROW 05 : ... .. . ... ... ... : ... .. . ... ... ... : ... .. . ... : ... .. 1 ... : ... .. . ... ...
ROW 06 : ... .. . ... ... ... : ... .. . ... ... ... : ... .. . ... : ... .. 0 ... : ... .. . ... ...
ROW 07 : ... .. B ... ... ... : ... .. B ... ... ... : ... .. . ... : ... .. . ... : ... .. . ... ...
ROW 08 : ... .. 0 ... V00 ... : ... .. 0 ... V00 ... : --- .. . ... : 4-# 00 F ... : ... .. . ... ...
ROW 09 : G-2 00 F P80 V01 ... : E-3 00 F P80 V01 ... : D#3 00 . P89 : ... .. . ... : ... .. . ... ...
ROW 0A : ... .. E ... ... ... : ... .. E ... ... ... : B-2 00 . P76 : ... .. . ... : ... .. . ... ...
ROW 0B : ... .. . ... ... ... : ... .. . ... ... ... : G-2 00 . P7C : ... .. C ... : ... .. . ... ...
ROW 0C : ... .. . ... ... ... : ... .. . ... ... ... : E-2 00 . P78 : ... .. B ... : ... .. . ... ...
ROW 0D : ... .. D ... ... ... : ... .. D ... ... ... : C#2 00 . P88 : ... .. 9 ... : ... .. . ... ...
ROW 0E : ... .. . ... ... ... : ... .. . ... ... ... : B-1 00 . P7B : ... .. 6 ... : ... .. . ... ...
ROW 0F : ... .. . ... ... ... : ... .. . ... ... ... : A-1 00 . P7A : ... .. 5 ... : ... .. . ... ...
ROW 10 : ... .. C ... ... ... : ... .. C ... ... ... : G-1 00 . P86 : ... .. 3 ... : ... .. . ... ...
ROW 11 : ... .. . ... ... ... : ... .. . ... ... ... : F-1 00 . PA2 : ... .. 1 ... : ... .. . ... ...
ROW 12 : ... .. . ... ... ... : ... .. . ... ... ... : E-1 00 . P7E : ... .. 0 ... : ... .. . ... ...
ROW 13 : ... .. B ... ... ... : ... .. B ... ... ... : D#1 00 . P5F : ... .. . ... : ... .. . ... ...
ROW 14 : ... .. 0 ... V00 ... : ... .. 0 ... V00 ... : --- .. . ... : D-# 00 F ... : ... .. . ... ...
ROW 15 : E-2 00 F P80 V01 ... : C-3 00 F P80 V01 ... : F-2 00 . P80 : ... .. . ... : ... .. . ... ...
ROW 16 : ... .. E ... ... ... : ... .. E ... ... ... : ... .. . ... : ... .. . ... : ... .. . ... ...
ROW 17 : ... .. . ... ... ... : ... .. . ... ... ... : ... .. . ... : ... .. C ... : ... .. . ... ...
ROW 18 : ... .. . ... ... ... : ... .. . ... ... ... : ... .. . ... : ... .. B ... : ... .. . ... ...
ROW 19 : ... .. D ... ... ... : ... .. D ... ... ... : ... .. . ... : ... .. 9 ... : ... .. . ... ...
ROW 1A : ... .. . ... ... ... : ... .. . ... ... ... : ... .. . ... : ... .. 6 ... : ... .. . ... ...
ROW 1B : ... .. . ... ... ... : ... .. . ... ... ... : ... .. . ... : ... .. 5 ... : ... .. . ... ...
ROW 1C : ... .. C ... ... ... : ... .. C ... ... ... : ... .. . ... : ... .. 3 ... : ... .. . ... ...
ROW 1D : ... .. . ... ... ... : ... .. . ... ... ... : ... .. . ... : ... .. 1 ... : ... .. . ... ...
ROW 1E : ... .. . ... ... ... : ... .. . ... ... ... : ... .. . ... : ... .. 0 ... : ... .. . ... ...
ROW 1F : ... .. B ... ... ... : ... .. B ... ... ... : ... .. . ... : ... .. . ... : ... .. . ... ...
ROW 20 : ... .. 0 ... V00 ... : ... .. 0 ... V00 ... : --- .. . ... : 1-# 00 F ... : ... .. . ... ...
ROW 21 : D-3 00 F P80 V01 ... : G-3 00 F P80 V01 ... : D#3 00 . P89 : ... .. . ... : ... .. . ... ...
ROW 22 : ... .. E ... ... ... : ... .. E ... ... ... : B-2 00 . P76 : ... .. . ... : ... .. . ... ...
ROW 23 : ... .. . ... ... ... : ... .. . ... ... ... : G-2 00 . P7C : ... .. C ... : ... .. . ... ...
ROW 24 : ... .. . ... ... ... : ... .. . ... ... ... : E-2 00 . P78 : ... .. B ... : ... .. . ... ...
ROW 25 : ... .. D ... ... ... : ... .. D ... ... ... : C#2 00 . P88 : ... .. 9 ... : ... .. . ... ...
ROW 26 : ... .. . ... ... ... : ... .. . ... ... ... : B-1 00 . P7B : ... .. 6 ... : ... .. . ... ...
ROW 27 : ... .. . ... ... ... : ... .. . ... ... ... : A-1 00 . P7A : ... .. 5 ... : ... .. . ... ...
ROW 28 : ... .. C ... ... ... : ... .. C ... ... ... : G-1 00 . P86 : ... .. 3 ... : ... .. . ... ...
ROW 29 : ... .. . ... ... ... : ... .. . ... ... ... : F-1 00 . PA2 : ... .. 1 ... : ... .. . ... ...
ROW 2A : ... .. . ... ... ... : ... .. . ... ... ... : E-1 00 . P7E : ... .. 0 ... : ... .. . ... ...
ROW 2B : ... .. B ... ... ... : ... .. B ... ... ... : D#1 00 . P5F : ... .. . ... : ... .. . ... ...
ROW 2C : ... .. . ... ... ... : ... .. . ... ... ... : --- .. . ... : D-# 00 F ... : ... .. . ... ...
ROW 2D : ... .. . ... ... ... : ... .. . ... ... ... : G-2 00 . P80 : ... .. . ... : ... .. . ... ...
ROW 2E : ... .. A ... ... ... : ... .. A ... ... ... : ... .. . ... : ... .. . ... : ... .. . ... ...
ROW 2F : ... .. . ... ... ... : ... .. . ... ... ... : ... .. . ... : ... .. C ... : ... .. . ... ...
ROW 30 : ... .. . ... ... ... : ... .. . ... ... ... : ... .. . ... : ... .. B ... : ... .. . ... ...
ROW 31 : ... .. 9 ... ... ... : ... .. 9 ... ... ... : ... .. . ... : ... .. 9 ... : ... .. . ... ...
ROW 32 : ... .. . ... ... ... : ... .. . ... ... ... : ... .. . ... : ... .. 6 ... : ... .. . ... ...
ROW 33 : ... .. . ... ... ... : ... .. . ... ... ... : ... .. . ... : ... .. 5 ... : ... .. . ... ...
ROW 34 : ... .. 8 ... ... ... : ... .. 8 ... ... ... : ... .. . ... : ... .. 3 ... : ... .. . ... ...
ROW 35 : ... .. . ... ... ... : ... .. . ... ... ... : ... .. . ... : ... .. 1 ... : ... .. . ... ...
ROW 36 : ... .. 7 ... ... ... : ... .. 7 ... ... ... : ... .. . ... : ... .. 0 ... : ... .. . ... ...
ROW 37 : ... .. . ... ... ... : ... .. . ... ... ... : ... .. . ... : ... .. . ... : ... .. . ... ...
ROW 38 : ... .. 0 ... V00 ... : ... .. 0 ... V00 ... : --- .. . ... : 4-# 00 F ... : ... .. . ... ...
ROW 39 : D-3 00 F P80 V01 ... : F-3 00 F P80 V01 ... : D#3 00 . P89 : ... .. . ... : ... .. . ... ...
ROW 3A : ... .. E ... ... ... : ... .. E ... ... ... : B-2 00 . P76 : ... .. . ... : ... .. . ... ...
ROW 3B : ... .. . ... ... ... : ... .. . ... ... ... : G-2 00 . P7C : ... .. C ... : ... .. . ... ...
ROW 3C : ... .. . ... ... ... : ... .. . ... ... ... : E-2 00 . P78 : ... .. B ... : ... .. . ... ...
ROW 3D : ... .. D ... ... ... : ... .. D ... ... ... : C#2 00 . P88 : ... .. 9 ... : ... .. . ... ...
ROW 3E : ... .. . ... ... ... : ... .. . ... ... ... : B-1 00 . P7B : ... .. 6 ... : ... .. . ... ...
ROW 3F : ... .. . ... ... ... : ... .. . ... ... ... : A-1 00 . P7A : ... .. 5 ... : ... .. . ... ...
ROW 40 : ... .. C ... ... ... : ... .. C ... ... ... : G-1 00 . P86 : ... .. 3 ... : ... .. . ... ...
ROW 41 : ... .. . ... ... ... : ... .. . ... ... ... : F-1 00 . PA2 : ... .. 1 ... : ... .. . ... ...
ROW 42 : ... .. . ... ... ... : ... .. . ... ... ... : E-1 00 . P7E : ... .. 0 ... : ... .. . ... ...
ROW 43 : ... .. B ... ... ... : ... .. B ... ... ... : D#1 00 . P5F : ... .. . ... : ... .. . ... ...
ROW 44 : ... .. . ... ... ... : ... .. . ... ... ... : --- .. . ... : D-# 00 F ... : ... .. . ... ...
ROW 45 : ... .. . ... ... ... : ... .. . ... ... ... : G-2 00 . P80 : ... .. . ... : ... .. . ... ...
ROW 46 : ... .. A ... ... ... : ... .. A ... ... ... : ... .. . ... : ... .. . ... : ... .. . ... ...
ROW 47 : ... .. . ... ... ... : ... .. . ... ... ... : ... .. . ... : ... .. C ... : ... .. . ... ...
ROW 48 : ... .. . ... ... ... : ... .. . ... ... ... : ... .. . ... : ... .. B ... : ... .. . ... ...
ROW 49 : ... .. 9 ... ... ... : ... .. 9 ... ... ... : ... .. . ... : ... .. 9 ... : ... .. . ... ...
ROW 4A : ... .. . ... ... ... : ... .. . ... ... ... : ... .. . ... : ... .. 6 ... : ... .. . ... ...
ROW 4B : ... .. . ... ... ... : ... .. . ... ... ... : ... .. . ... : ... .. 5 ... : ... .. . ... ...
ROW 4C : ... .. 8 ... ... ... : ... .. 8 ... ... ... : ... .. . ... : ... .. 3 ... : ... .. . ... ...
ROW 4D : ... .. . ... ... ... : ... .. . ... ... ... : ... .. . ... : ... .. 1 ... : ... .. . ... ...
ROW 4E : ... .. 7 ... ... ... : ... .. 7 ... ... ... : ... .. . ... : ... .. 0 ... : ... .. . ... ...
ROW 4F : ... .. . ... ... ... : ... .. . ... ... ... : ... .. . ... : ... .. . ... : ... .. . ... ...
ROW 50 : ... .. 0 ... V00 ... : ... .. 0 ... V00 ... : --- .. . ... : 1-# 00 F ... : ... .. . ... ...
ROW 51 : C-3 00 F P80 V01 ... : E-3 00 F P80 V01 ... : D#3 00 . P89 : ... .. . ... : ... .. . ... ...
ROW 52 : ... .. E ... ... ... : ... .. E ... ... ... : B-2 00 . P76 : ... .. . ... : ... .. . ... ...
ROW 53 : ... .. . ... ... ... : ... .. . ... ... ... : G-2 00 . P7C : ... .. C ... : ... .. . ... ...
ROW 54 : ... .. . ... ... ... : ... .. . ... ... ... : E-2 00 . P78 : ... .. B ... : ... .. . ... ...
ROW 55 : ... .. D ... ... ... : ... .. D ... ... ... : C#2 00 . P88 : ... .. 9 ... : ... .. . ... ...
ROW 56 : ... .. . ... ... ... : ... .. . ... ... ... : B-1 00 . P7B : ... .. 6 ... : ... .. . ... ...
ROW 57 : ... .. . ... ... ... : ... .. . ... ... ... : A-1 00 . P7A : ... .. 5 ... : ... .. . ... ...
ROW 58 : ... .. C ... ... ... : ... .. C ... ... ... : G-1 00 . P86 : ... .. 3 ... : ... .. . ... ...
ROW 59 : ... .. . ... ... ... : ... .. . ... ... ... : F-1 00 . PA2 : ... .. 1 ... : ... .. . ... ...
ROW 5A : ... .. . ... ... ... : ... .. . ... ... ... : E-1 00 . P7E : ... .. 0 ... : ... .. . ... ...
ROW 5B : ... .. B ... ... ... : ... .. B ... ... ... : D#1 00 . P5F : ... .. . ... : ... .. . ... ...
ROW 5C : ... .. . ... ... ... : ... .. . ... ... ... : --- .. . ... : D-# 00 F ... : ... .. . ... ...
ROW 5D : ... .. . ... ... ... : ... .. . ... ... ... : G-2 00 . P80 : ... .. . ... : ... .. . ... ...
ROW 5E : ... .. A ... ... ... : ... .. A ... ... ... : ... .. . ... : ... .. . ... : ... .. . ... ...
ROW 5F : ... .. . ... ... ... : ... .. . ... ... ... : ... .. . ... : ... .. C ... : ... .. . ... ...
ROW 60 : ... .. . ... ... ... : ... .. . ... ... ... : ... .. . ... : ... .. B ... : ... .. . ... ...
ROW 61 : ... .. 9 ... ... ... : ... .. 9 ... ... ... : ... .. . ... : ... .. 9 ... : ... .. . ... ...
ROW 62 : ... .. . ... ... ... : ... .. . ... ... ... : ... .. . ... : ... .. 6 ... : ... .. . ... ...
ROW 63 : ... .. . ... ... ... : ... .. . ... ... ... : ... .. . ... : ... .. 5 ... : ... .. . ... ...
ROW 64 : ... .. 8 ... ... ... : ... .. 8 ... ... ... : ... .. . ... : ... .. 3 ... : ... .. . ... ...
ROW 65 : ... .. . ... ... ... : ... .. . ... ... ... : ... .. . ... : ... .. 1 ... : ... .. . ... ...
ROW 66 : ... .. 7 ... ... ... : ... .. 7 ... ... ... : ... .. . ... : ... .. 0 ... : ... .. . ... ...
ROW 67 : ... .. . ... ... ... : ... .. . ... ... ... : ... .. . ... : ... .. . ... : ... .. . ... ...
ROW 68 : ... .. 0 ... V00 ... : ... .. 0 ... V00 ... : --- .. . ... : 4-# 00 F ... : ... .. . ... ...
ROW 69 : B-2 00 F P80 V01 ... : D-3 00 F P80 V01 ... : D#3 00 . P89 : ... .. . ... : ... .. . ... ...
ROW 6A : ... .. E ... ... ... : ... .. E ... ... ... : B-2 00 . P76 : ... .. . ... : ... .. . ... ...
ROW 6B : ... .. . ... ... ... : ... .. . ... ... ... : G-2 00 . P7C : ... .. C ... : ... .. . ... ...
ROW 6C : ... .. . ... ... ... : ... .. . ... ... ... : E-2 00 . P78 : ... .. B ... : ... .. . ... ...
ROW 6D : ... .. D ... ... ... : ... .. D ... ... ... : C#2 00 . P88 : ... .. 9 ... : ... .. . ... ...
ROW 6E : ... .. . ... ... ... : ... .. . ... ... ... : B-1 00 . P7B : ... .. 6 ... : ... .. . ... ...
ROW 6F : ... .. . ... ... ... : ... .. . ... ... ... : A-1 00 . P7A : ... .. 5 ... : ... .. . ... ...
ROW 70 : ... .. C ... ... ... : ... .. C ... ... ... : G-1 00 . P86 : ... .. 3 ... : ... .. . ... ...
ROW 71 : ... .. . ... ... ... : ... .. . ... ... ... : F-1 00 . PA2 : ... .. 1 ... : ... .. . ... ...
ROW 72 : ... .. . ... ... ... : ... .. . ... ... ... : E-1 00 . P7E : ... .. 0 ... : ... .. . ... ...
ROW 73 : ... .. B ... ... ... : ... .. B ... ... ... : D#1 00 . P5F : ... .. . ... : ... .. . ... ...
ROW 74 : ... .. . ... ... ... : ... .. . ... ... ... : --- .. . ... : D-# 00 F ... : ... .. . ... ...
ROW 75 : ... .. . ... ... ... : ... .. . ... ... ... : G-2 00 . P80 : ... .. . ... : ... .. . ... ...
ROW 76 : ... .. A ... ... ... : ... .. A ... ... ... : ... .. . ... : ... .. . ... : ... .. . ... ...
ROW 77 : ... .. . ... ... ... : ... .. . ... ... ... : ... .. . ... : ... .. C ... : ... .. . ... ...
ROW 78 : ... .. . ... ... ... : ... .. . ... ... ... : ... .. . ... : ... .. B ... : ... .. . ... ...
ROW 79 : ... .. 9 ... ... ... : ... .. 9 ... ... ... : ... .. . ... : ... .. 9 ... : ... .. . ... ...
ROW 7A : ... .. . ... ... ... : ... .. . ... ... ... : ... .. . ... : ... .. 6 ... : ... .. . ... ...
ROW 7B : ... .. . ... ... ... : ... .. . ... ... ... : ... .. . ... : ... .. 5 ... : ... .. . ... ...
ROW 7C : ... .. 8 ... ... ... : ... .. 8 ... ... ... : ... .. . ... : ... .. 3 ... : ... .. . ... ...
ROW 7D : ... .. . ... ... ... : ... .. . ... ... ... : ... .. . ... : ... .. 1 ... : ... .. . ... ...
ROW 7E : ... .. 7 ... ... ... : ... .. 7 ... ... ... : ... .. . ... : ... .. 0 ... : ... .. . ... ...
ROW 7F : ... .. . ... ... ... : ... .. . ... ... ... : ... .. . ... : ... .. . ... : ... .. . ... ...
ROW 80 : ... .. 0 ... V00 ... : ... .. 0 ... V00 ... : A#3 00 . P81 : 1-# 00 F ... : ... .. . ... ...
ROW 81 : G-2 00 F P80 V01 ... : C-3 00 F P80 V01 ... : D#3 00 . P89 : ... .. . ... : ... .. . ... ...
ROW 82 : ... .. E ... ... ... : ... .. E ... ... ... : B-2 00 . P76 : ... .. . ... : ... .. . ... ...
ROW 83 : ... .. . ... ... ... : ... .. . ... ... ... : G-2 00 . P7C : ... .. C ... : ... .. . ... ...
ROW 84 : ... .. . ... ... ... : ... .. . ... ... ... : E-2 00 . P78 : ... .. B ... : ... .. . ... ...
ROW 85 : ... .. D ... ... ... : ... .. D ... ... ... : C#2 00 . P88 : ... .. 9 ... : ... .. . ... ...
ROW 86 : ... .. . ... ... ... : ... .. . ... ... ... : B-1 00 . P7B : ... .. 6 ... : ... .. . ... ...
ROW 87 : ... .. . ... ... ... : ... .. . ... ... ... : A-1 00 . P7A : ... .. 5 ... : ... .. . ... ...
ROW 88 : ... .. C ... ... ... : ... .. C ... ... ... : G-1 00 . P86 : ... .. 3 ... : ... .. . ... ...
ROW 89 : ... .. . ... ... ... : ... .. . ... ... ... : F-1 00 . PA2 : ... .. 1 ... : ... .. . ... ...
ROW 8A : ... .. . ... ... ... : ... .. . ... ... ... : --- .. . ... : ... .. 0 ... : ... .. . ... ...
ROW 8B : ... .. B ... ... ... : ... .. B ... ... ... : ... .. . ... : ... .. . ... : ... .. . ... ...
ROW 8C : ... .. . ... ... ... : ... .. . ... ... ... : ... .. . ... : D-# 00 F ... : ... .. . ... ...
ROW 8D : ... .. . ... ... ... : ... .. . ... ... ... : C-3 00 . P80 : ... .. . ... : ... .. . ... ...
ROW 8E : ... .. A ... ... ... : ... .. A ... ... ... : ... .. . ... : ... .. . ... : ... .. . ... ...
ROW 8F : ... .. . ... ... ... : ... .. . ... ... ... : ... .. . ... : ... .. C ... : ... .. . ... ...
ROW 90 : ... .. . ... ... ... : ... .. . ... ... ... : ... .. . ... : ... .. B ... : ... .. . ... ...
ROW 91 : ... .. 9 ... ... ... : ... .. 9 ... ... ... : ... .. . ... : ... .. 9 ... : ... .. . ... ...
ROW 92 : ... .. . ... ... ... : ... .. . ... ... ... : ... .. . ... : ... .. 6 ... : ... .. . ... ...
ROW 93 : ... .. . ... ... ... : ... .. . ... ... ... : ... .. . ... : ... .. 5 ... : ... .. . ... ...
ROW 94 : ... .. 8 ... ... ... : ... .. 8 ... ... ... : ... .. . ... : ... .. 3 ... : ... .. . ... ...
ROW 95 : ... .. . ... ... ... : ... .. . ... ... ... : ... .. . ... : ... .. 1 ... : ... .. . ... ...
ROW 96 : ... .. 7 ... ... ... : ... .. 7 ... ... ... : ... .. . ... : ... .. 0 ... : ... .. . ... ...
ROW 97 : ... .. . ... ... ... : ... .. . ... ... ... : ... .. . ... : ... .. . ... : ... .. . ... ...
ROW 98 : ... .. 0 ... V00 ... : ... .. 0 ... V00 ... : A#3 00 . P81 : 4-# 00 F ... : ... .. . ... ...
ROW 99 : C-3 00 F P80 V01 ... : E-3 00 F P80 V01 ... : D#3 00 . P89 : ... .. . ... : ... .. . ... ...
ROW 9A : ... .. E ... ... ... : ... .. E ... ... ... : B-2 00 . P76 : ... .. . ... : ... .. . ... ...
ROW 9B : ... .. . ... ... ... : ... .. . ... ... ... : G-2 00 . P7C : ... .. C ... : ... .. . ... ...
ROW 9C : ... .. . ... ... ... : ... .. . ... ... ... : E-2 00 . P78 : ... .. B ... : ... .. . ... ...
ROW 9D : ... .. D ... ... ... : ... .. D ... ... ... : C#2 00 . P88 : ... .. 9 ... : ... .. . ... ...
ROW 9E : ... .. . ... ... ... : ... .. . ... ... ... : B-1 00 . P7B : ... .. 6 ... : ... .. . ... ...
ROW 9F : ... .. . ... ... ... : ... .. . ... ... ... : A-1 00 . P7A : ... .. 5 ... : ... .. . ... ...
ROW A0 : ... .. C ... ... ... : ... .. C ... ... ... : G-1 00 . P86 : ... .. 3 ... : ... .. . ... ...
ROW A1 : ... .. . ... ... ... : ... .. . ... ... ... : F-1 00 . PA2 : ... .. 1 ... : ... .. . ... ...
ROW A2 : ... .. . ... ... ... : ... .. . ... ... ... : --- .. . ... : ... .. 0 ... : ... .. . ... ...
ROW A3 : ... .. B ... ... ... : ... .. B ... ... ... : ... .. . ... : ... .. . ... : ... .. . ... ...
ROW A4 : ... .. 0 ... V00 ... : ... .. 0 ... V00 ... : ... .. . ... : D-# 00 F ... : ... .. . ... ...
ROW A5 : E-3 00 F P80 V01 ... : G-3 00 F P80 V01 ... : C-3 00 . P80 : ... .. . ... : ... .. . ... ...
ROW A6 : ... .. E ... ... ... : ... .. E ... ... ... : ... .. . ... : ... .. . ... : ... .. . ... ...
ROW A7 : ... .. . ... ... ... : ... .. . ... ... ... : ... .. . ... : ... .. C ... : ... .. . ... ...
ROW A8 : ... .. . ... ... ... : ... .. . ... ... ... : ... .. . ... : ... .. B ... : ... .. . ... ...
ROW A9 : ... .. D ... ... ... : ... .. D ... ... ... : ... .. . ... : ... .. 9 ... : ... .. . ... ...
ROW AA : ... .. 0 ... V00 ... : ... .. 0 ... V00 ... : ... .. . ... : ... .. 6 ... : ... .. . ... ...
ROW AB : E-3 00 F P80 V01 ... : G-3 00 F P80 V01 ... : ... .. . ... : ... .. 5 ... : ... .. . ... ...
ROW AC : ... .. E ... ... ... : ... .. E ... ... ... : ... .. . ... : ... .. 3 ... : ... .. . ... ...
ROW AD : ... .. . ... ... ... : ... .. . ... ... ... : ... .. . ... : ... .. 1 ... : ... .. . ... ...
ROW AE : ... .. . ... ... ... : ... .. . ... ... ... : ... .. . ... : ... .. 0 ... : ... .. . ... ...
ROW AF : ... .. D ... ... ... : ... .. D ... ... ... : ... .. . ... : ... .. . ... : ... .. . ... ...
ROW B0 : ... .. 0 ... V00 ... : ... .. 0 ... V00 ... : A#3 00 . P81 : 1-# 00 F ... : ... .. . ... ...
ROW B1 : E-3 00 F P80 V01 ... : G-3 00 F P80 V01 ... : D#3 00 . P89 : ... .. . ... : ... .. . ... ...
ROW B2 : ... .. E ... ... ... : ... .. E ... ... ... : B-2 00 . P76 : ... .. . ... : ... .. . ... ...
ROW B3 : ... .. . ... ... ... : ... .. . ... ... ... : G-2 00 . P7C : ... .. C ... : ... .. . ... ...
ROW B4 : ... .. . ... ... ... : ... .. . ... ... ... : E-2 00 . P78 : ... .. B ... : ... .. . ... ...
ROW B5 : ... .. D ... ... ... : ... .. D ... ... ... : C#2 00 . P88 : ... .. 9 ... : ... .. . ... ...
ROW B6 : ... .. . ... ... ... : ... .. . ... ... ... : B-1 00 . P7B : ... .. 6 ... : ... .. . ... ...
ROW B7 : ... .. . ... ... ... : ... .. . ... ... ... : A-1 00 . P7A : ... .. 5 ... : ... .. . ... ...
ROW B8 : ... .. C ... ... ... : ... .. C ... ... ... : G-1 00 . P86 : ... .. 3 ... : ... .. . ... ...
ROW B9 : ... .. . ... ... ... : ... .. . ... ... ... : F-1 00 . PA2 : ... .. 1 ... : ... .. . ... ...
ROW BA : ... .. . ... ... ... : ... .. . ... ... ... : --- .. . ... : ... .. 0 ... : ... .. . ... ...
ROW BB : ... .. B ... ... ... : ... .. B ... ... ... : ... .. . ... : ... .. . ... : ... .. . ... ...
ROW BC : ... .. 0 ... V00 ... : ... .. 0 ... V00 ... : ... .. . ... : D-# 00 F ... : ... .. . ... ...
ROW BD : C-3 00 F P80 V01 ... : E-3 00 F P80 V01 ... : C-3 00 . P80 : ... .. . ... : ... .. . ... ...
ROW BE : ... .. E ... ... ... : ... .. E ... ... ... : ... .. . ... : ... .. . ... : ... .. . ... ...
ROW BF : ... .. . ... ... ... : ... .. . ... ... ... : ... .. . ... : ... .. C ... : ... .. . ... ...
ROW C0 : ... .. . ... ... ... : ... .. . ... ... ... : ... .. . ... : ... .. B ... : ... .. . ... ...
ROW C1 : ... .. D ... ... ... : ... .. D ... ... ... : ... .. . ... : ... .. 9 ... : ... .. . ... ...
ROW C2 : ... .. . ... ... ... : ... .. . ... ... ... : ... .. . ... : ... .. 6 ... : ... .. . ... ...
ROW C3 : ... .. . ... ... ... : ... .. . ... ... ... : ... .. . ... : ... .. 5 ... : ... .. . ... ...
ROW C4 : ... .. C ... ... ... : ... .. C ... ... ... : ... .. . ... : ... .. 3 ... : ... .. . ... ...
ROW C5 : ... .. . ... ... ... : ... .. . ... ... ... : ... .. . ... : ... .. 1 ... : ... .. . ... ...
ROW C6 : ... .. . ... ... ... : ... .. . ... ... ... : ... .. . ... : ... .. 0 ... : ... .. . ... ...
ROW C7 : ... .. B ... ... ... : ... .. B ... ... ... : ... .. . ... : ... .. . ... : ... .. . ... ...
ROW C8 : ... .. 0 ... V00 ... : ... .. 0 ... V00 ... : A#3 00 . P81 : 4-# 00 F ... : ... .. . ... ...
ROW C9 : G-2 00 F P80 V01 ... : D-3 00 F P80 V01 ... : D#3 00 . P89 : ... .. . ... : ... .. . ... ...
ROW CA : ... .. E ... ... ... : ... .. E ... ... ... : B-2 00 . P76 : ... .. . ... : ... .. . ... ...
ROW CB : ... .. . ... ... ... : ... .. . ... ... ... : G-2 00 . P7C : ... .. C ... : ... .. . ... ...
ROW CC : ... .. . ... ... ... : ... .. . ... ... ... : E-2 00 . P78 : ... .. B ... : ... .. . ... ...
ROW CD : ... .. D ... ... ... : ... .. D ... ... ... : C#2 00 . P88 : ... .. 9 ... : ... .. . ... ...
ROW CE : ... .. . ... ... ... : ... .. . ... ... ... : B-1 00 . P7B : ... .. 6 ... : ... .. . ... ...
ROW CF : ... .. . ... ... ... : ... .. . ... ... ... : A-1 00 . P7A : ... .. 5 ... : ... .. . ... ...
ROW D0 : ... .. C ... ... ... : ... .. C ... ... ... : G-1 00 . P86 : ... .. 3 ... : ... .. . ... ...
ROW D1 : ... .. . ... ... ... : ... .. . ... ... ... : F-1 00 . PA2 : ... .. 1 ... : ... .. . ... ...
ROW D2 : ... .. . ... ... ... : ... .. . ... ... ... : --- .. . ... : ... .. 0 ... : ... .. . ... ...
ROW D3 : ... .. B ... ... ... : ... .. B ... ... ... : ... .. . ... : ... .. . ... : ... .. . ... ...
ROW D4 : ... .. 0 ... V00 ... : ... .. 0 ... V00 ... : ... .. . ... : D-# 00 F ... : ... .. . ... ...
ROW D5 : C-3 00 F P80 V01 ... : E-3 00 F P80 V01 ... : C-3 00 . P80 : ... .. . ... : ... .. . ... ...
ROW D6 : ... .. E ... ... ... : ... .. E ... ... ... : ... .. . ... : ... .. . ... : ... .. . ... ...
ROW D7 : ... .. . ... ... ... : ... .. . ... ... ... : ... .. . ... : ... .. C ... : ... .. . ... ...
ROW D8 : ... .. . ... ... ... : ... .. . ... ... ... : ... .. . ... : ... .. B ... : ... .. . ... ...
ROW D9 : ... .. D ... ... ... : ... .. D ... ... ... : ... .. . ... : ... .. 9 ... : ... .. . ... ...
ROW DA : ... .. . ... ... ... : ... .. . ... ... ... : ... .. . ... : ... .. 6 ... : ... .. . ... ...
ROW DB : ... .. . ... ... ... : ... .. . ... ... ... : ... .. . ... : ... .. 5 ... : ... .. . ... ...
ROW DC : ... .. C ... ... ... : ... .. C ... ... ... : ... .. . ... : ... .. 3 ... : ... .. . ... ...
ROW DD : ... .. . ... ... ... : ... .. . ... ... ... : ... .. . ... : ... .. 1 ... : ... .. . ... ...
ROW DE : ... .. . ... ... ... : ... .. . ... ... ... : ... .. . ... : ... .. 0 ... : ... .. . ... ...
ROW DF : ... .. B ... ... ... : ... .. B ... ... ... : ... .. . ... : ... .. . ... : ... .. . ... ...
ROW E0 : ... .. 0 ... V00 ... : ... .. 0 ... V00 ... : A#3 00 . P81 : 1-# 00 F ... : ... .. . ... ...
ROW E1 : F-3 00 F P80 V01 ... : A-3 00 F P80 V01 ... : D#3 00 . P89 : ... .. . ... : ... .. . ... ...
ROW E2 : ... .. E ... ... ... : ... .. E ... ... ... : B-2 00 . P76 : ... .. . ... : ... .. . ... ...
ROW E3 : ... .. . ... ... ... : ... .. . ... ... ... : G-2 00 . P7C : ... .. C ... : ... .. . ... ...
ROW E4 : ... .. . ... ... ... : ... .. . ... ... ... : E-2 00 . P78 : ... .. B ... : ... .. . ... ...
ROW E5 : ... .. D ... ... ... : ... .. D ... ... ... : C#2 00 . P88 : ... .. 9 ... : ... .. . ... ...
ROW E6 : ... .. . ... ... ... : ... .. . ... ... ... : B-1 00 . P7B : ... .. 6 ... : ... .. . ... ...
ROW E7 : ... .. . ... ... ... : ... .. . ... ... ... : A-1 00 . P7A : ... .. 5 ... : ... .. . ... ...
ROW E8 : ... .. C ... ... ... : ... .. C ... ... ... : G-1 00 . P86 : ... .. 3 ... : ... .. . ... ...
ROW E9 : ... .. . ... ... ... : ... .. . ... ... ... : F-1 00 . PA2 : ... .. 1 ... : ... .. . ... ...
ROW EA : ... .. . ... ... ... : ... .. . ... ... ... : --- .. . ... : ... .. 0 ... : ... .. . ... ...
ROW EB : ... .. B ... ... ... : ... .. B ... ... ... : ... .. . ... : ... .. . ... : ... .. . ... ...
ROW EC : ... .. . ... ... ... : ... .. . ... ... ... : ... .. . ... : D-# 00 F ... : ... .. . ... ...
ROW ED : ... .. . ... ... ... : ... .. . ... ... ... : F-2 00 . P80 : ... .. . ... : ... .. . ... ...
ROW EE : ... .. A ... ... ... : ... .. A ... ... ... : ... .. . ... : ... .. . ... : ... .. . ... ...
ROW EF : ... .. . ... ... ... : ... .. . ... ... ... : ... .. . ... : ... .. C ... : ... .. . ... ...
ROW F0 : ... .. . ... ... ... : ... .. . ... ... ... : ... .. . ... : ... .. B ... : ... .. . ... ...
ROW F1 : ... .. 9 ... ... ... : ... .. 9 ... ... ... : ... .. . ... : ... .. 9 ... : ... .. . ... ...
ROW F2 : ... .. . ... ... ... : ... .. . ... ... ... : ... .. . ... : ... .. 6 ... : ... .. . ... ...
ROW F3 : ... .. . ... ... ... : ... .. . ... ... ... : ... .. . ... : ... .. 5 ... : ... .. . ... ...
ROW F4 : ... .. 8 ... ... ... : ... .. 8 ... ... ... : ... .. . ... : ... .. 3 ... : ... .. . ... ...
ROW F5 : ... .. . ... ... ... : ... .. . ... ... ... : ... .. . ... : ... .. 1 ... : ... .. . ... ...
ROW F6 : ... .. 7 ... ... ... : ... .. 7 ... ... ... : ... .. . ... : ... .. 0 ... : ... .. . ... ...
ROW F7 : ... .. . ... ... ... : ... .. . ... ... ... : ... .. . ... : ... .. . ... : ... .. . ... ...
ROW F8 : ... .. 0 ... V00 ... : ... .. 0 ... V00 ... : A#3 00 . P81 : 4-# 00 F ... : ... .. . ... ...
ROW F9 : F-3 00 F P80 V01 ... : A-3 00 F P80 V01 ... : D#3 00 . P89 : ... .. . ... : ... .. . ... ...
ROW FA : ... .. E ... ... ... : ... .. E ... ... ... : B-2 00 . P76 : ... .. . ... : ... .. . ... ...
ROW FB : ... .. . ... ... ... : ... .. . ... ... ... : G-2 00 . P7C : ... .. C ... : ... .. . ... ...
ROW FC : ... .. . ... ... ... : ... .. . ... ... ... : E-2 00 . P78 : ... .. B ... : ... .. . ... ...
ROW FD : ... .. D ... ... ... : ... .. D ... ... ... : C#2 00 . P88 : ... .. 9 ... : ... .. . ... ...
ROW FE : ... .. . ... ... ... : ... .. . ... ... ... : B-1 00 . P7B : ... .. 6 ... : ... .. . ... ...
ROW FF : ... .. . ... ... ... : ... .. . ... ... ... : A-1 00 . P7A : ... .. 5 ... : ... .. . ... ...

PATTERN 08
ROW 00 : ... .. C ... ... ... : ... .. C ... ... ... : G-1 00 . P86 : ... .. 3 ... : ... .. . ... ...
ROW 01 : ... .. . ... ... ... : ... .. . ... ... ... : F-1 00 . PA2 : ... .. 1 ... : ... .. . ... ...
ROW 02 : ... .. . ... ... ... : ... .. . ... ... ... : --- .. . ... : ... .. 0 ... : ... .. . ... ...
ROW 03 : ... .. B ... ... ... : ... .. B ... ... ... : ... .. . ... : ... .. . ... : ... .. . ... ...
ROW 04 : ... .. 0 ... V00 ... : ... .. 0 ... V00 ... : ... .. . ... : D-# 00 F ... : ... .. . ... ...
ROW 05 : E-3 00 F P80 V01 ... : G-3 00 F P80 V01 ... : F-2 00 . P80 : ... .. . ... : ... .. . ... ...
ROW 06 : ... .. E ... ... ... : ... .. E ... ... ... : ... .. . ... : ... .. . ... : ... .. . ... ...
ROW 07 : ... .. . ... ... ... : ... .. . ... ... ... : ... .. . ... : ... .. C ... : ... .. . ... ...
ROW 08 : ... .. . ... ... ... : ... .. . ... ... ... : ... .. . ... : ... .. B ... : ... .. . ... ...
ROW 09 : ... .. D ... ... ... : ... .. D ... ... ... : ... .. . ... : ... .. 9 ... : ... .. . ... ...
ROW 0A : ... .. 0 ... V00 ... : ... .. 0 ... V00 ... : ... .. . ... : ... .. 6 ... : ... .. . ... ...
ROW 0B : E-3 00 F P80 V01 ... : G-3 00 F P80 V01 ... : ... .. . ... : ... .. 5 ... : ... .. . ... ...
ROW 0C : ... .. E ... ... ... : ... .. E ... ... ... : ... .. . ... : ... .. 3 ... : ... .. . ... ...
ROW 0D : ... .. . ... ... ... : ... .. . ... ... ... : ... .. . ... : ... .. 1 ... : ... .. . ... ...
ROW 0E : ... .. . ... ... ... : ... .. . ... ... ... : ... .. . ... : ... .. 0 ... : ... .. . ... ...
ROW 0F : ... .. D ... ... ... : ... .. D ... ... ... : ... .. . ... : ... .. . ... : ... .. . ... ...
ROW 10 : ... .. 0 ... V00 ... : ... .. 0 ... V00 ... : A#3 00 . P81 : 1-# 00 F ... : ... .. . ... ...
ROW 11 : E-3 00 F P80 V01 ... : G-3 00 F P80 V01 ... : D#3 00 . P89 : ... .. . ... : ... .. . ... ...
ROW 12 : ... .. E ... ... ... : ... .. E ... ... ... : B-2 00 . P76 : ... .. . ... : ... .. . ... ...
ROW 13 : ... .. . ... ... ... : ... .. . ... ... ... : G-2 00 . P7C : ... .. C ... : ... .. . ... ...
ROW 14 : ... .. . ... ... ... : ... .. . ... ... ... : E-2 00 . P78 : ... .. B ... : ... .. . ... ...
ROW 15 : ... .. D ... ... ... : ... .. D ... ... ... : C#2 00 . P88 : ... .. 9 ... : ... .. . ... ...
ROW 16 : ... .. . ... ... ... : ... .. . ... ... ... : B-1 00 . P7B : ... .. 6 ... : ... .. . ... ...
ROW 17 : ... .. . ... ... ... : ... .. . ... ... ... : A-1 00 . P7A : ... .. 5 ... : ... .. . ... ...
ROW 18 : ... .. C ... ... ... : ... .. C ... ... ... : G-1 00 . P86 : ... .. 3 ... : ... .. . ... ...
ROW 19 : ... .. . ... ... ... : ... .. . ... ... ... : F-1 00 . PA2 : ... .. 1 ... : ... .. . ... ...
ROW 1A : ... .. . ... ... ... : ... .. . ... ... ... : --- .. . ... : ... .. 0 ... : ... .. . ... ...
ROW 1B : ... .. B ... ... ... : ... .. B ... ... ... : ... .. . ... : ... .. . ... : ... .. . ... ...
ROW 1C : ... .. 0 ... V00 ... : ... .. 0 ... V00 ... : ... .. . ... : D-# 00 F ... : ... .. . ... ...
ROW 1D : C-3 00 F P80 V01 ... : E-3 00 F P80 V01 ... : G-2 00 . P80 : ... .. . ... : ... .. . ... ...
ROW 1E : ... .. E ... ... ... : ... .. E ... ... ... : ... .. . ... : ... .. . ... : ... .. . ... ...
ROW 1F : ... .. . ... ... ... : ... .. . ... ... ... : ... .. . ... : ... .. C ... : ... .. . ... ...
ROW 20 : ... .. . ... ... ... : ... .. . ... ... ... : ... .. . ... : ... .. B ... : ... .. . ... ...
ROW 21 : ... .. D ... ... ... : ... .. D ... ... ... : ... .. . ... : ... .. 9 ... : ... .. . ... ...
ROW 22 : ... .. . ... ... ... : ... .. . ... ... ... : ... .. . ... : ... .. 6 ... : ... .. . ... ...
ROW 23 : ... .. . ... ... ... : ... .. . ... ... ... : ... .. . ... : ... .. 5 ... : ... .. . ... ...
ROW 24 : ... .. C ... ... ... : ... .. C ... ... ... : ... .. . ... : ... .. 3 ... : ... .. . ... ...
ROW 25 : ... .. . ... ... ... : ... .. . ... ... ... : ... .. . ... : ... .. 1 ... : ... .. . ... ...
ROW 26 : ... .. . ... ... ... : ... .. . ... ... ... : ... .. . ... : ... .. 0 ... : ... .. . ... ...
ROW 27 : ... .. B ... ... ... : ... .. B ... ... ... : ... .. . ... : ... .. . ... : ... .. . ... ...
ROW 28 : ... .. 0 ... V00 ... : ... .. 0 ... V00 ... : A#3 00 . P81 : 4-# 00 F ... : ... .. . ... ...
ROW 29 : G-2 00 F P80 V01 ... : D-3 00 F P80 V01 ... : D#3 00 . P89 : ... .. . ... : ... .. . ... ...
ROW 2A : ... .. E ... ... ... : ... .. E ... ... ... : B-2 00 . P76 : ... .. . ... : ... .. . ... ...
ROW 2B : ... .. . ... ... ... : ... .. . ... ... ... : G-2 00 . P7C : ... .. C ... : ... .. . ... ...
ROW 2C : ... .. . ... ... ... : ... .. . ... ... ... : E-2 00 . P78 : ... .. B ... : ... .. . ... ...
ROW 2D : ... .. D ... ... ... : ... .. D ... ... ... : C#2 00 . P88 : ... .. 9 ... : ... .. . ... ...
ROW 2E : ... .. . ... ... ... : ... .. . ... ... ... : B-1 00 . P7B : ... .. 6 ... : ... .. . ... ...
ROW 2F : ... .. . ... ... ... : ... .. . ... ... ... : A-1 00 . P7A : ... .. 5 ... : ... .. . ... ...
ROW 30 : ... .. C ... ... ... : ... .. C ... ... ... : G-1 00 . P86 : ... .. 3 ... : ... .. . ... ...
ROW 31 : ... .. . ... ... ... : ... .. . ... ... ... : F-1 00 . PA2 : ... .. 1 ... : ... .. . ... ...
ROW 32 : ... .. . ... ... ... : ... .. . ... ... ... : --- .. . ... : ... .. 0 ... : ... .. . ... ...
ROW 33 : ... .. B ... ... ... : ... .. B ... ... ... : ... .. . ... : ... .. . ... : ... .. . ... ...
ROW 34 : ... .. 0 ... V00 ... : ... .. 0 ... V00 ... : ... .. . ... : D-# 00 F ... : ... .. . ... ...
ROW 35 : C-3 00 F P80 V01 ... : E-3 00 F P80 V01 ... : G-2 00 . P80 : ... .. . ... : ... .. . ... ...
ROW 36 : ... .. E ... ... ... : ... .. E ... ... ... : ... .. . ... : ... .. . ... : ... .. . ... ...
ROW 37 : ... .. . ... ... ... : ... .. . ... ... ... : ... .. . ... : ... .. C ... : ... .. . ... ...
ROW 38 : ... .. . ... ... ... : ... .. . ... ... ... : ... .. . ... : ... .. B ... : ... .. . ... ...
ROW 39 : ... .. D ... ... ... : ... .. D ... ... ... : ... .. . ... : ... .. 9 ... : ... .. . ... ...
ROW 3A : ... .. . ... ... ... : ... .. . ... ... ... : ... .. . ... : ... .. 6 ... : ... .. . ... ...
ROW 3B : ... .. . ... ... ... : ... .. . ... ... ... : ... .. . ... : ... .. 5 ... : ... .. . ... ...
ROW 3C : ... .. C ... ... ... : ... .. C ... ... ... : ... .. . ... : ... .. 3 ... : ... .. . ... ...
ROW 3D : ... .. . ... ... ... : ... .. . ... ... ... : ... .. . ... : ... .. 1 ... : ... .. . ... ...
ROW 3E : ... .. . ... ... ... : ... .. . ... ... ... : ... .. . ... : ... .. 0 ... : ... .. . ... ...
ROW 3F : ... .. B ... ... ... : ... .. B ... ... ... : ... .. . ... : ... .. . ... : ... .. . ... ...
ROW 40 : ... .. 0 ... V00 ... : ... .. 0 ... V00 ... : A#3 00 . P81 : 1-# 00 F ... : ... .. . ... ...
ROW 41 : G-2 00 F P80 V01 ... : C-3 00 F P80 V01 ... : D#3 00 . P89 : ... .. . ... : ... .. . ... ...
ROW 42 : ... .. E ... ... ... : ... .. E ... ... ... : B-2 00 . P76 : ... .. . ... : ... .. . ... ...
ROW 43 : ... .. . ... ... ... : ... .. . ... ... ... : G-2 00 . P7C : ... .. C ... : ... .. . ... ...
ROW 44 : ... .. . ... ... ... : ... .. . ... ... ... : E-2 00 . P78 : ... .. B ... : ... .. . ... ...
ROW 45 : ... .. D ... ... ... : ... .. D ... ... ... : C#2 00 . P88 : ... .. 9 ... : ... .. . ... ...
ROW 46 : ... .. . ... ... ... : ... .. . ... ... ... : B-1 00 . P7B : ... .. 6 ... : ... .. . ... ...
ROW 47 : ... .. . ... ... ... : ... .. . ... ... ... : A-1 00 . P7A : ... .. 5 ... : ... .. . ... ...
ROW 48 : ... .. C ... ... ... : ... .. C ... ... ... : G-1 00 . P86 : ... .. 3 ... : ... .. . ... ...
ROW 49 : ... .. . ... ... ... : ... .. . ... ... ... : F-1 00 . PA2 : ... .. 1 ... : ... .. . ... ...
ROW 4A : ... .. . ... ... ... : ... .. . ... ... ... : --- .. . ... : ... .. 0 ... : ... .. . ... ...
ROW 4B : ... .. B ... ... ... : ... .. B ... ... ... : ... .. . ... : ... .. . ... : ... .. . ... ...
ROW 4C : ... .. . ... ... ... : ... .. . ... ... ... : ... .. . ... : D-# 00 F ... : ... .. . ... ...
ROW 4D : ... .. . ... ... ... : ... .. . ... ... ... : C-3 00 . P80 : ... .. . ... : ... .. . ... ...
ROW 4E : ... .. A ... ... ... : ... .. A ... ... ... : ... .. . ... : ... .. . ... : ... .. . ... ...
ROW 4F : ... .. . ... ... ... : ... .. . ... ... ... : ... .. . ... : ... .. C ... : ... .. . ... ...
ROW 50 : ... .. . ... ... ... : ... .. . ... ... ... : ... .. . ... : ... .. B ... : ... .. . ... ...
ROW 51 : ... .. 9 ... ... ... : ... .. 9 ... ... ... : ... .. . ... : ... .. 9 ... : ... .. . ... ...
ROW 52 : ... .. . ... ... ... : ... .. . ... ... ... : ... .. . ... : ... .. 6 ... : ... .. . ... ...
ROW 53 : ... .. . ... ... ... : ... .. . ... ... ... : ... .. . ... : ... .. 5 ... : ... .. . ... ...
ROW 54 : ... .. 8 ... ... ... : ... .. 8 ... ... ... : ... .. . ... : ... .. 3 ... : ... .. . ... ...
ROW 55 : ... .. . ... ... ... : ... .. . ... ... ... : ... .. . ... : ... .. 1 ... : ... .. . ... ...
ROW 56 : ... .. 7 ... ... ... : ... .. 7 ... ... ... : ... .. . ... : ... .. 0 ... : ... .. . ... ...
ROW 57 : ... .. . ... ... ... : ... .. . ... ... ... : ... .. . ... : ... .. . ... : ... .. . ... ...
ROW 58 : ... .. 0 ... V00 ... : ... .. 0 ... V00 ... : A#3 00 . P81 : 4-# 00 F ... : ... .. . ... ...
ROW 59 : C-3 00 F P80 V01 ... : E-3 00 F P80 V01 ... : D#3 00 . P89 : ... .. . ... : ... .. . ... ...
ROW 5A : ... .. E ... ... ... : ... .. E ... ... ... : B-2 00 . P76 : ... .. . ... : ... .. . ... ...
ROW 5B : ... .. . ... ... ... : ... .. . ... ... ... : G-2 00 . P7C : ... .. C ... : ... .. . ... ...
ROW 5C : ... .. . ... ... ... : ... .. . ... ... ... : E-2 00 . P78 : ... .. B ... : ... .. . ... ...
ROW 5D : ... .. D ... ... ... : ... .. D ... ... ... : C#2 00 . P88 : ... .. 9 ... : ... .. . ... ...
ROW 5E : ... .. . ... ... ... : ... .. . ... ... ... : B-1 00 . P7B : ... .. 6 ... : ... .. . ... ...
ROW 5F : ... .. . ... ... ... : ... .. . ... ... ... : A-1 00 . P7A : ... .. 5 ... : ... .. . ... ...
ROW 60 : ... .. C ... ... ... : ... .. C ... ... ... : G-1 00 . P86 : ... .. 3 ... : ... .. . ... ...
ROW 61 : ... .. . ... ... ... : ... .. . ... ... ... : F-1 00 . PA2 : ... .. 1 ... : ... .. . ... ...
ROW 62 : ... .. . ... ... ... : ... .. . ... ... ... : --- .. . ... : ... .. 0 ... : ... .. . ... ...
ROW 63 : ... .. B ... ... ... : ... .. B ... ... ... : ... .. . ... : ... .. . ... : ... .. . ... ...
ROW 64 : ... .. 0 ... V00 ... : ... .. 0 ... V00 ... : ... .. . ... : D-# 00 F ... : ... .. . ... ...
ROW 65 : E-3 00 F P80 V01 ... : G-3 00 F P80 V01 ... : C-3 00 . P80 : ... .. . ... : ... .. . ... ...
ROW 66 : ... .. E ... ... ... : ... .. E ... ... ... : ... .. . ... : ... .. . ... : ... .. . ... ...
ROW 67 : ... .. . ... ... ... : ... .. . ... ... ... : ... .. . ... : ... .. C ... : ... .. . ... ...
ROW 68 : ... .. . ... ... ... : ... .. . ... ... ... : ... .. . ... : ... .. B ... : ... .. . ... ...
ROW 69 : ... .. D ... ... ... : ... .. D ... ... ... : ... .. . ... : ... .. 9 ... : ... .. . ... ...
ROW 6A : ... .. 0 ... V00 ... : ... .. 0 ... V00 ... : ... .. . ... : ... .. 6 ... : ... .. . ... ...
ROW 6B : E-3 00 F P80 V01 ... : G-3 00 F P80 V01 ... : ... .. . ... : ... .. 5 ... : ... .. . ... ...
ROW 6C : ... .. E ... ... ... : ... .. E ... ... ... : ... .. . ... : ... .. 3 ... : ... .. . ... ...
ROW 6D : ... .. . ... ... ... : ... .. . ... ... ... : ... .. . ... : ... .. 1 ... : ... .. . ... ...
ROW 6E : ... .. . ... ... ... : ... .. . ... ... ... : ... .. . ... : ... .. 0 ... : ... .. . ... ...
ROW 6F : ... .. D ... ... ... : ... .. D ... ... ... : ... .. . ... : ... .. . ... : ... .. . ... ...
ROW 70 : ... .. 0 ... V00 ... : ... .. 0 ... V00 ... : A#3 00 . P81 : 1-# 00 F ... : ... .. . ... ...
ROW 71 : E-3 00 F P80 V01 ... : G-3 00 F P80 V01 ... : D#3 00 . P89 : ... .. . ... : ... .. . ... ...
ROW 72 : ... .. E ... ... ... : ... .. E ... ... ... : B-2 00 . P76 : ... .. . ... : ... .. . ... ...
ROW 73 : ... .. . ... ... ... : ... .. . ... ... ... : G-2 00 . P7C : ... .. C ... : ... .. . ... ...
ROW 74 : ... .. . ... ... ... : ... .. . ... ... ... : E-2 00 . P78 : ... .. B ... : ... .. . ... ...
ROW 75 : ... .. D ... ... ... : ... .. D ... ... ... : C#2 00 . P88 : ... .. 9 ... : ... .. . ... ...
ROW 76 : ... .. . ... ... ... : ... .. . ... ... ... : B-1 00 . P7B : ... .. 6 ... : ... .. . ... ...
ROW 77 : ... .. . ... ... ... : ... .. . ... ... ... : A-1 00 . P7A : ... .. 5 ... : ... .. . ... ...
ROW 78 : ... .. C ... ... ... : ... .. C ... ... ... : G-1 00 . P86 : ... .. 3 ... : ... .. . ... ...
ROW 79 : ... .. . ... ... ... : ... .. . ... ... ... : F-1 00 . PA2 : ... .. 1 ... : ... .. . ... ...
ROW 7A : ... .. . ... ... ... : ... .. . ... ... ... : --- .. . ... : ... .. 0 ... : ... .. . ... ...
ROW 7B : ... .. B ... ... ... : ... .. B ... ... ... : ... .. . ... : ... .. . ... : ... .. . ... ...
ROW 7C : ... .. 0 ... V00 ... : ... .. 0 ... V00 ... : ... .. . ... : D-# 00 F ... : ... .. . ... ...
ROW 7D : C-3 00 F P80 V01 ... : E-3 00 F P80 V01 ... : C-3 00 . P80 : ... .. . ... : ... .. . ... ...
ROW 7E : ... .. E ... ... ... : ... .. E ... ... ... : ... .. . ... : ... .. . ... : ... .. . ... ...
ROW 7F : ... .. . ... ... ... : ... .. . ... ... ... : ... .. . ... : ... .. C ... : ... .. . ... ...
ROW 80 : ... .. . ... ... ... : ... .. . ... ... ... : ... .. . ... : ... .. B ... : ... .. . ... ...
ROW 81 : ... .. D ... ... ... : ... .. D ... ... ... : ... .. . ... : ... .. 9 ... : ... .. . ... ...
ROW 82 : ... .. . ... ... ... : ... .. . ... ... ... : ... .. . ... : ... .. 6 ... : ... .. . ... ...
ROW 83 : ... .. . ... ... ... : ... .. . ... ... ... : ... .. . ... : ... .. 5 ... : ... .. . ... ...
ROW 84 : ... .. C ... ... ... : ... .. C ... ... ... : ... .. . ... : ... .. 3 ... : ... .. . ... ...
ROW 85 : ... .. . ... ... ... : ... .. . ... ... ... : ... .. . ... : ... .. 1 ... : ... .. . ... ...
ROW 86 : ... .. . ... ... ... : ... .. . ... ... ... : ... .. . ... : ... .. 0 ... : ... .. . ... ...
ROW 87 : ... .. B ... ... ... : ... .. B ... ... ... : ... .. . ... : ... .. . ... : ... .. . ... ...
ROW 88 : ... .. 0 ... V00 ... : ... .. 0 ... V00 ... : A#3 00 . P81 : 4-# 00 F ... : ... .. . ... ...
ROW 89 : G-2 00 F P80 V01 ... : D-3 00 F P80 V01 ... : D#3 00 . P89 : ... .. . ... : ... .. . ... ...
ROW 8A : ... .. E ... ... ... : ... .. E ... ... ... : B-2 00 . P76 : ... .. . ... : ... .. . ... ...
ROW 8B : ... .. . ... ... ... : ... .. . ... ... ... : G-2 00 . P7C : ... .. C ... : ... .. . ... ...
ROW 8C : ... .. . ... ... ... : ... .. . ... ... ... : E-2 00 . P78 : ... .. B ... : ... .. . ... ...
ROW 8D : ... .. D ... ... ... : ... .. D ... ... ... : C#2 00 . P88 : ... .. 9 ... : ... .. . ... ...
ROW 8E : ... .. . ... ... ... : ... .. . ... ... ... : B-1 00 . P7B : ... .. 6 ... : ... .. . ... ...
ROW 8F : ... .. . ... ... ... : ... .. . ... ... ... : A-1 00 . P7A : ... .. 5 ... : ... .. . ... ...
ROW 90 : ... .. C ... ... ... : ... .. C ... ... ... : G-1 00 . P86 : ... .. 3 ... : ... .. . ... ...
ROW 91 : ... .. . ... ... ... : ... .. . ... ... ... : F-1 00 . PA2 : ... .. 1 ... : ... .. . ... ...
ROW 92 : ... .. . ... ... ... : ... .. . ... ... ... : --- .. . ... : ... .. 0 ... : ... .. . ... ...
ROW 93 : ... .. B ... ... ... : ... .. B ... ... ... : ... .. . ... : ... .. . ... : ... .. . ... ...
ROW 94 : ... .. 0 ... V00 ... : ... .. 0 ... V00 ... : ... .. . ... : D-# 00 F ... : ... .. . ... ...
ROW 95 : C-3 00 F P80 V01 ... : E-3 00 F P80 V01 ... : C-3 00 . P80 : ... .. . ... : ... .. . ... ...
ROW 96 : ... .. E ... ... ... : ... .. E ... ... ... : ... .. . ... : ... .. . ... : ... .. . ... ...
ROW 97 : ... .. . ... ... ... : ... .. . ... ... ... : ... .. . ... : ... .. C ... : ... .. . ... ...
ROW 98 : ... .. . ... ... ... : ... .. . ... ... ... : ... .. . ... : ... .. B ... : ... .. . ... ...
ROW 99 : ... .. D ... ... ... : ... .. D ... ... ... : ... .. . ... : ... .. 9 ... : ... .. . ... ...
ROW 9A : ... .. . ... ... ... : ... .. . ... ... ... : ... .. . ... : ... .. 6 ... : ... .. . ... ...
ROW 9B : ... .. . ... ... ... : ... .. . ... ... ... : ... .. . ... : ... .. 5 ... : ... .. . ... ...
ROW 9C : ... .. C ... ... ... : ... .. C ... ... ... : ... .. . ... : ... .. 3 ... : ... .. . ... ...
ROW 9D : ... .. . ... ... ... : ... .. . ... ... ... : ... .. . ... : ... .. 1 ... : ... .. . ... ...
ROW 9E : ... .. . ... ... ... : ... .. . ... ... ... : ... .. . ... : ... .. 0 ... : ... .. . ... ...
ROW 9F : ... .. B ... ... ... : ... .. B ... ... ... : ... .. . ... : ... .. . ... : ... .. . ... ...
ROW A0 : ... .. 0 ... V00 ... : ... .. 0 ... V00 ... : A#3 00 . P81 : 1-# 00 F ... : ... .. . ... ...
ROW A1 : F-3 00 F P80 V01 ... : A-3 00 F P80 V01 ... : D#3 00 . P89 : ... .. . ... : ... .. . ... ...
ROW A2 : ... .. E ... ... ... : ... .. E ... ... ... : B-2 00 . P76 : ... .. . ... : ... .. . ... ...
ROW A3 : ... .. . ... ... ... : ... .. . ... ... ... : G-2 00 . P7C : ... .. C ... : ... .. . ... ...
ROW A4 : ... .. . ... ... ... : ... .. . ... ... ... : E-2 00 . P78 : ... .. B ... : ... .. . ... ...
ROW A5 : ... .. D ... ... ... : ... .. D ... ... ... : C#2 00 . P88 : ... .. 9 ... : ... .. . ... ...
ROW A6 : ... .. . ... ... ... : ... .. . ... ... ... : B-1 00 . P7B : ... .. 6 ... : ... .. . ... ...
ROW A7 : ... .. . ... ... ... : ... .. . ... ... ... : A-1 00 . P7A : ... .. 5 ... : ... .. . ... ...
ROW A8 : ... .. C ... ... ... : ... .. C ... ... ... : G-1 00 . P86 : ... .. 3 ... : ... .. . ... ...
ROW A9 : ... .. . ... ... ... : ... .. . ... ... ... : F-1 00 . PA2 : ... .. 1 ... : ... .. . ... ...
ROW AA : ... .. . ... ... ... : ... .. . ... ... ... : --- .. . ... : ... .. 0 ... : ... .. . ... ...
ROW AB : ... .. B ... ... ... : ... .. B ... ... ... : ... .. . ... : ... .. . ... : ... .. . ... ...
ROW AC : ... .. . ... ... ... : ... .. . ... ... ... : ... .. . ... : D-# 00 F ... : ... .. . ... ...
ROW AD : ... .. . ... ... ... : ... .. . ... ... ... : F-2 00 . P80 : ... .. . ... : ... .. . ... ...
ROW AE : ... .. A ... ... ... : ... .. A ... ... ... : ... .. . ... : ... .. . ... : ... .. . ... ...
ROW AF : ... .. . ... ... ... : ... .. . ... ... ... : ... .. . ... : ... .. C ... : ... .. . ... ...
ROW B0 : ... .. . ... ... ... : ... .. . ... ... ... : ... .. . ... : ... .. B ... : ... .. . ... ...
ROW B1 : ... .. 9 ... ... ... : ... .. 9 ... ... ... : ... .. . ... : ... .. 9 ... : ... .. . ... ...
ROW B2 : ... .. . ... ... ... : ... .. . ... ... ... : ... .. . ... : ... .. 6 ... : ... .. . ... ...
ROW B3 : ... .. . ... ... ... : ... .. . ... ... ... : ... .. . ... : ... .. 5 ... : ... .. . ... ...
ROW B4 : ... .. 8 ... ... ... : ... .. 8 ... ... ... : ... .. . ... : ... .. 3 ... : ... .. . ... ...
ROW B5 : ... .. . ... ... ... : ... .. . ... ... ... : ... .. . ... : ... .. 1 ... : ... .. . ... ...
ROW B6 : ... .. 7 ... ... ... : ... .. 7 ... ... ... : ... .. . ... : ... .. 0 ... : ... .. . ... ...
ROW B7 : ... .. . ... ... ... : ... .. . ... ... ... : ... .. . ... : ... .. . ... : ... .. . ... ...
ROW B8 : ... .. 0 ... V00 ... : ... .. 0 ... V00 ... : A#3 00 . P81 : 4-# 00 F ... : ... .. . ... ...
ROW B9 : F-3 00 F P80 V01 ... : A-3 00 F P80 V01 ... : D#3 00 . P89 : ... .. . ... : ... .. . ... ...
ROW BA : ... .. E ... ... ... : ... .. E ... ... ... : B-2 00 . P76 : ... .. . ... : ... .. . ... ...
ROW BB : ... .. . ... ... ... : ... .. . ... ... ... : G-2 00 . P7C : ... .. C ... : ... .. . ... ...
ROW BC : ... .. . ... ... ... : ... .. . ... ... ... : E-2 00 . P78 : ... .. B ... : ... .. . ... ...
ROW BD : ... .. D ... ... ... : ... .. D ... ... ... : C#2 00 . P88 : ... .. 9 ... : ... .. . ... ...
ROW BE : ... .. . ... ... ... : ... .. . ... ... ... : B-1 00 . P7B : ... .. 6 ... : ... .. . ... ...
ROW BF : ... .. . ... ... ... : ... .. . ... ... ... : A-1 00 . P7A : ... .. 5 ... : ... .. . ... ...
ROW C0 : ... .. C ... ... ... : ... .. C ... ... ... : G-1 00 . P86 : ... .. 3 ... : ... .. . ... ...
ROW C1 : ... .. . ... ... ... : ... .. . ... ... ... : F-1 00 . PA2 : ... .. 1 ... : ... .. . ... ...
ROW C2 : ... .. . ... ... ... : ... .. . ... ... ... : --- .. . ... : ... .. 0 ... : ... .. . ... ...
ROW C3 : ... .. B ... ... ... : ... .. B ... ... ... : ... .. . ... : ... .. . ... : ... .. . ... ...
ROW C4 : ... .. 0 ... V00 ... : ... .. 0 ... V00 ... : ... .. . ... : D-# 00 F ... : ... .. . ... ...
ROW C5 : G-3 00 F P80 V01 ... : B-3 00 F P80 V01 ... : F-2 00 . P80 : ... .. . ... : ... .. . ... ...
ROW C6 : ... .. E ... ... ... : ... .. E ... ... ... : ... .. . ... : ... .. . ... : ... .. . ... ...
ROW C7 : ... .. . ... ... ... : ... .. . ... ... ... : ... .. . ... : ... .. C ... : ... .. . ... ...
ROW C8 : ... .. . ... ... ... : ... .. . ... ... ... : ... .. . ... : ... .. B ... : ... .. . ... ...
ROW C9 : ... .. D ... ... ... : ... .. D ... ... ... : ... .. . ... : ... .. 9 ... : ... .. . ... ...
ROW CA : ... .. 0 ... V00 ... : ... .. 0 ... V00 ... : ... .. . ... : ... .. 6 ... : ... .. . ... ...
ROW CB : G-3 00 F P80 V01 ... : B-3 00 F P80 V01 ... : ... .. . ... : ... .. 5 ... : ... .. . ... ...
ROW CC : ... .. E ... ... ... : ... .. E ... ... ... : ... .. . ... : ... .. 3 ... : ... .. . ... ...
ROW CD : ... .. . ... ... ... : ... .. . ... ... ... : ... .. . ... : ... .. 1 ... : ... .. . ... ...
ROW CE : ... .. . ... ... ... : ... .. . ... ... ... : ... .. . ... : ... .. 0 ... : ... .. . ... ...
ROW CF : ... .. D ... ... ... : ... .. D ... ... ... : ... .. . ... : ... .. . ... : ... .. . ... ...
ROW D0 : ... .. 0 ... V00 ... : ... .. 0 ... V00 ... : A#3 00 . P81 : 1-# 00 F ... : ... .. . ... ...
ROW D1 : G-3 00 F P80 V01 ... : C-4 00 F P80 V01 ... : D#3 00 . P89 : ... .. . ... : ... .. . ... ...
ROW D2 : ... .. E ... ... ... : ... .. E ... ... ... : B-2 00 . P76 : ... .. . ... : ... .. . ... ...
ROW D3 : ... .. . ... ... ... : ... .. . ... ... ... : G-2 00 . P7C : ... .. C ... : ... .. . ... ...
ROW D4 : ... .. . ... ... ... : ... .. . ... ... ... : E-2 00 . P78 : ... .. B ... : ... .. . ... ...
ROW D5 : ... .. D ... ... ... : ... .. D ... ... ... : C#2 00 . P88 : ... .. 9 ... : ... .. . ... ...
ROW D6 : ... .. . ... ... ... : ... .. . ... ... ... : B-1 00 . P7B : ... .. 6 ... : ... .. . ... ...
ROW D7 : ... .. . ... ... ... : ... .. . ... ... ... : A-1 00 . P7A : ... .. 5 ... : ... .. . ... ...
ROW D8 : ... .. C ... ... ... : ... .. C ... ... ... : G-1 00 . P86 : ... .. 3 ... : ... .. . ... ...
ROW D9 : ... .. . ... ... ... : ... .. . ... ... ... : F-1 00 . PA2 : ... .. 1 ... : ... .. . ... ...
ROW DA : ... .. . ... ... ... : ... .. . ... ... ... : --- .. . ... : ... .. 0 ... : ... .. . ... ...
ROW DB : ... .. B ... ... ... : ... .. B ... ... ... : ... .. . ... : ... .. . ... : ... .. . ... ...
ROW DC : ... .. 0 ... V00 ... : ... .. 0 ... V00 ... : ... .. . ... : D-# 00 F ... : ... .. . ... ...
ROW DD : E-3 00 F P80 V01 ... : G-3 00 F P80 V01 ... : G-2 00 . P80 : ... .. . ... : ... .. . ... ...
ROW DE : ... .. E ... ... ... : ... .. E ... ... ... : ... .. . ... : ... .. . ... : ... .. . ... ...
ROW DF : ... .. . ... ... ... : ... .. . ... ... ... : ... .. . ... : ... .. C ... : ... .. . ... ...
ROW E0 : ... .. . ... ... ... : ... .. . ... ... ... : ... .. . ... : ... .. B ... : ... .. . ... ...
ROW E1 : ... .. D ... ... ... : ... .. D ... ... ... : ... .. . ... : ... .. 9 ... : ... .. . ... ...
ROW E2 : ... .. . ... ... ... : ... .. . ... ... ... : ... .. . ... : ... .. 6 ... : ... .. . ... ...
ROW E3 : ... .. . ... ... ... : ... .. . ... ... ... : ... .. . ... : ... .. 5 ... : ... .. . ... ...
ROW E4 : ... .. C ... ... ... : ... .. C ... ... ... : ... .. . ... : ... .. 3 ... : ... .. . ... ...
ROW E5 : ... .. . ... ... ... : ... .. . ... ... ... : ... .. . ... : ... .. 1 ... : ... .. . ... ...
ROW E6 : ... .. . ... ... ... : ... .. . ... ... ... : ... .. . ... : ... .. 0 ... : ... .. . ... ...
ROW E7 : ... .. B ... ... ... : ... .. B ... ... ... : ... .. . ... : ... .. . ... : ... .. . ... ...
ROW E8 : ... .. 0 ... V00 ... : ... .. 0 ... V00 ... : A#3 00 . P81 : 4-# 00 F ... : ... .. . ... ...
ROW E9 : C-3 00 F P80 V01 ... : F-3 00 F P80 V01 ... : D#3 00 . P89 : ... .. . ... : ... .. . ... ...
ROW EA : ... .. E ... ... ... : ... .. E ... ... ... : B-2 00 . P76 : ... .. . ... : ... .. . ... ...
ROW EB : ... .. . ... ... ... : ... .. . ... ... ... : G-2 00 . P7C : ... .. C ... : ... .. . ... ...
ROW EC : ... .. . ... ... ... : ... .. . ... ... ... : E-2 00 . P78 : ... .. B ... : ... .. . ... ...
ROW ED : ... .. D ... ... ... : ... .. D ... ... ... : C#2 00 . P88 : ... .. 9 ... : ... .. . ... ...
ROW EE : ... .. . ... ... ... : ... .. . ... ... ... : B-1 00 . P7B : ... .. 6 ... : ... .. . ... ...
ROW EF : ... .. . ... ... ... : ... .. . ... ... ... : A-1 00 . P7A : ... .. 5 ... : ... .. . ... ...
ROW F0 : ... .. C ... ... ... : ... .. C ... ... ... : G-1 00 . P86 : ... .. 3 ... : ... .. . ... ...
ROW F1 : ... .. . ... ... ... : ... .. . ... ... ... : F-1 00 . PA2 : ... .. 1 ... : ... .. . ... ...
ROW F2 : ... .. . ... ... ... : ... .. . ... ... ... : --- .. . ... : ... .. 0 ... : ... .. . ... ...
ROW F3 : ... .. B ... ... ... : ... .. B ... ... ... : ... .. . ... : ... .. . ... : ... .. . ... ...
ROW F4 : ... .. 0 ... V00 ... : ... .. 0 ... V00 ... : ... .. . ... : D-# 00 F ... : ... .. . ... ...
ROW F5 : E-3 00 F P80 V01 ... : G-3 00 F P80 V01 ... : G-2 00 . P80 : ... .. . ... : ... .. . ... ...
ROW F6 : ... .. E ... ... ... : ... .. E ... ... ... : ... .. . ... : ... .. . ... : ... .. . ... ...
ROW F7 : ... .. . ... ... ... : ... .. . ... ... ... : ... .. . ... : ... .. C ... : ... .. . ... ...
ROW F8 : ... .. . ... ... ... : ... .. . ... ... ... : ... .. . ... : ... .. B ... : ... .. . ... ...
ROW F9 : ... .. D ... ... ... : ... .. D ... ... ... : ... .. . ... : ... .. 9 ... : ... .. . ... ...
ROW FA : ... .. . ... ... ... : ... .. . ... ... ... : ... .. . ... : ... .. 6 ... : ... .. . ... ...
ROW FB : ... .. . ... ... ... : ... .. . ... ... ... : ... .. . ... : ... .. 5 ... : ... .. . ... ...
ROW FC : ... .. C ... ... ... : ... .. C ... ... ... : ... .. . ... : ... .. 3 ... : ... .. . ... ...
ROW FD : ... .. . ... ... ... : ... .. . ... ... ... : ... .. . ... : ... .. 1 ... : ... .. . ... ...
ROW FE : ... .. . ... ... ... : ... .. . ... ... ... : ... .. . ... : ... .. 0 ... : ... .. . ... ...
ROW FF : ... .. B ... ... ... : ... .. B ... ... ... : ... .. . ... : ... .. . ... : ... .. . ... ...

PATTERN 09
ROW 00 : ... .. 0 ... V00 ... : ... .. 0 ... V00 ... : A#3 00 . P81 : 1-# 00 F ... : ... .. . ... ...
ROW 01 : G-2 00 F P80 V01 ... : C-3 00 F P80 V01 ... : D#3 00 . P89 : ... .. . ... : ... .. . ... ...
ROW 02 : ... .. E ... ... ... : ... .. E ... ... ... : B-2 00 . P76 : ... .. . ... : ... .. . ... ...
ROW 03 : ... .. . ... ... ... : ... .. . ... ... ... : G-2 00 . P7C : ... .. C ... : ... .. . ... ...
ROW 04 : ... .. . ... ... ... : ... .. . ... ... ... : E-2 00 . P78 : ... .. B ... : ... .. . ... ...
ROW 05 : ... .. D ... ... ... : ... .. D ... ... ... : C#2 00 . P88 : ... .. 9 ... : ... .. . ... ...
ROW 06 : ... .. . ... ... ... : ... .. . ... ... ... : B-1 00 . P7B : ... .. 6 ... : ... .. . ... ...
ROW 07 : ... .. . ... ... ... : ... .. . ... ... ... : A-1 00 . P7A : ... .. 5 ... : ... .. . ... ...
ROW 08 : ... .. C ... ... ... : ... .. C ... ... ... : G-1 00 . P86 : ... .. 3 ... : ... .. . ... ...
ROW 09 : ... .. . ... ... ... : ... .. . ... ... ... : F-1 00 . PA2 : ... .. 1 ... : ... .. . ... ...
ROW 0A : ... .. . ... ... ... : ... .. . ... ... ... : --- .. . ... : ... .. 0 ... : ... .. . ... ...
ROW 0B : ... .. B ... ... ... : ... .. B ... ... ... : ... .. . ... : ... .. . ... : ... .. . ... ...
ROW 0C : ... .. . ... ... ... : ... .. . ... ... ... : ... .. . ... : D-# 00 F ... : ... .. . ... ...
ROW 0D : ... .. . ... ... ... : ... .. . ... ... ... : C-3 00 . P80 : ... .. . ... : ... .. . ... ...
ROW 0E : ... .. A ... ... ... : ... .. A ... ... ... : ... .. . ... : ... .. . ... : ... .. . ... ...
ROW 0F : ... .. . ... ... ... : ... .. . ... ... ... : ... .. . ... : ... .. C ... : ... .. . ... ...
ROW 10 : ... .. . ... ... ... : ... .. . ... ... ... : ... .. . ... : ... .. B ... : ... .. . ... ...
ROW 11 : ... .. 9 ... ... ... : ... .. 9 ... ... ... : ... .. . ... : ... .. 9 ... : ... .. . ... ...
ROW 12 : ... .. . ... ... ... : ... .. . ... ... ... : ... .. . ... : ... .. 6 ... : ... .. . ... ...
ROW 13 : ... .. . ... ... ... : ... .. . ... ... ... : ... .. . ... : ... .. 5 ... : ... .. . ... ...
ROW 14 : ... .. 8 ... ... ... : ... .. 8 ... ... ... : ... .. . ... : ... .. 3 ... : ... .. . ... ...
ROW 15 : ... .. . ... ... ... : ... .. . ... ... ... : ... .. . ... : ... .. 1 ... : ... .. . ... ...
ROW 16 : ... .. 7 ... ... ... : ... .. 7 ... ... ... : ... .. . ... : ... .. 0 ... : ... .. . ... ...
ROW 17 : ... .. . ... ... ... : ... .. . ... ... ... : ... .. . ... : ... .. . ... : ... .. . ... ...
ROW 18 : ... .. 0 ... V00 ... : ... .. 0 ... V00 ... : A#3 00 . P81 : 4-# 00 F ... : ... .. . ... ...
ROW 19 : C-3 00 F P80 V01 ... : E-3 00 F P80 V01 ... : D#3 00 . P89 : ... .. . ... : ... .. . ... ...
ROW 1A : ... .. E ... ... ... : ... .. E ... ... ... : B-2 00 . P76 : ... .. . ... : ... .. . ... ...
ROW 1B : ... .. . ... ... ... : ... .. . ... ... ... : G-2 00 . P7C : ... .. C ... : ... .. . ... ...
ROW 1C : ... .. . ... ... ... : ... .. . ... ... ... : E-2 00 . P78 : ... .. B ... : ... .. . ... ...
ROW 1D : ... .. D ... ... ... : ... .. D ... ... ... : C#2 00 . P88 : ... .. 9 ... : ... .. . ... ...
ROW 1E : ... .. . ... ... ... : ... .. . ... ... ... : B-1 00 . P7B : ... .. 6 ... : ... .. . ... ...
ROW 1F : ... .. . ... ... ... : ... .. . ... ... ... : A-1 00 . P7A : ... .. 5 ... : ... .. . ... ...
ROW 20 : ... .. C ... ... ... : ... .. C ... ... ... : G-1 00 . P86 : ... .. 3 ... : ... .. . ... ...
ROW 21 : ... .. . ... ... ... : ... .. . ... ... ... : F-1 00 . PA2 : ... .. 1 ... : ... .. . ... ...
ROW 22 : ... .. . ... ... ... : ... .. . ... ... ... : --- .. . ... : ... .. 0 ... : ... .. . ... ...
ROW 23 : ... .. B ... ... ... : ... .. B ... ... ... : ... .. . ... : ... .. . ... : ... .. . ... ...
ROW 24 : ... .. 0 ... V00 ... : ... .. 0 ... V00 ... : ... .. . ... : D-# 00 F ... : ... .. . ... ...
ROW 25 : E-3 00 F P80 V01 ... : G-3 00 F P80 V01 ... : C-3 00 . P80 : ... .. . ... : ... .. . ... ...
ROW 26 : ... .. E ... ... ... : ... .. E ... ... ... : ... .. . ... : ... .. . ... : ... .. . ... ...
ROW 27 : ... .. . ... ... ... : ... .. . ... ... ... : ... .. . ... : ... .. C ... : ... .. . ... ...
ROW 28 : ... .. . ... ... ... : ... .. . ... ... ... : ... .. . ... : ... .. B ... : ... .. . ... ...
ROW 29 : ... .. D ... ... ... : ... .. D ... ... ... : ... .. . ... : ... .. 9 ... : ... .. . ... ...
ROW 2A : ... .. 0 ... V00 ... : ... .. 0 ... V00 ... : ... .. . ... : ... .. 6 ... : ... .. . ... ...
ROW 2B : E-3 00 F P80 V01 ... : G-3 00 F P80 V01 ... : ... .. . ... : ... .. 5 ... : ... .. . ... ...
ROW 2C : ... .. E ... ... ... : ... .. E ... ... ... : ... .. . ... : ... .. 3 ... : ... .. . ... ...
ROW 2D : ... .. . ... ... ... : ... .. . ... ... ... : ... .. . ... : ... .. 1 ... : ... .. . ... ...
ROW 2E : ... .. . ... ... ... : ... .. . ... ... ... : ... .. . ... : ... .. 0 ... : ... .. . ... ...
ROW 2F : ... .. D ... ... ... : ... .. D ... ... ... : ... .. . ... : ... .. . ... : ... .. . ... ...
ROW 30 : ... .. 0 ... V00 ... : ... .. 0 ... V00 ... : A#3 00 . P81 : 1-# 00 F ... : ... .. . ... ...
ROW 31 : E-3 00 F P80 V01 ... : G-3 00 F P80 V01 ... : D#3 00 . P89 : ... .. . ... : ... .. . ... ...
ROW 32 : ... .. E ... ... ... : ... .. E ... ... ... : B-2 00 . P76 : ... .. . ... : ... .. . ... ...
ROW 33 : ... .. . ... ... ... : ... .. . ... ... ... : G-2 00 . P7C : ... .. C ... : ... .. . ... ...
ROW 34 : ... .. . ... ... ... : ... .. . ... ... ... : E-2 00 . P78 : ... .. B ... : ... .. . ... ...
ROW 35 : ... .. D ... ... ... : ... .. D ... ... ... : C#2 00 . P88 : ... .. 9 ... : ... .. . ... ...
ROW 36 : ... .. . ... ... ... : ... .. . ... ... ... : B-1 00 . P7B : ... .. 6 ... : ... .. . ... ...
ROW 37 : ... .. . ... ... ... : ... .. . ... ... ... : A-1 00 . P7A : ... .. 5 ... : ... .. . ... ...
ROW 38 : ... .. C ... ... ... : ... .. C ... ... ... : G-1 00 . P86 : ... .. 3 ... : ... .. . ... ...
ROW 39 : ... .. . ... ... ... : ... .. . ... ... ... : F-1 00 . PA2 : ... .. 1 ... : ... .. . ... ...
ROW 3A : ... .. . ... ... ... : ... .. . ... ... ... : --- .. . ... : ... .. 0 ... : ... .. . ... ...
ROW 3B : ... .. B ... ... ... : ... .. B ... ... ... : ... .. . ... : ... .. . ... : ... .. . ... ...
ROW 3C : ... .. 0 ... V00 ... : ... .. 0 ... V00 ... : ... .. . ... : D-# 00 F ... : ... .. . ... ...
ROW 3D : C-3 00 F P80 V01 ... : E-3 00 F P80 V01 ... : C-3 00 . P80 : ... .. . ... : ... .. . ... ...
ROW 3E : ... .. E ... ... ... : ... .. E ... ... ... : ... .. . ... : ... .. . ... : ... .. . ... ...
ROW 3F : ... .. . ... ... ... : ... .. . ... ... ... : ... .. . ... : ... .. C ... : ... .. . ... ...
ROW 40 : ... .. . ... ... ... : ... .. . ... ... ... : ... .. . ... : ... .. B ... : ... .. . ... ...
ROW 41 : ... .. D ... ... ... : ... .. D ... ... ... : ... .. . ... : ... .. 9 ... : ... .. . ... ...
ROW 42 : ... .. . ... ... ... : ... .. . ... ... ... : ... .. . ... : ... .. 6 ... : ... .. . ... ...
ROW 43 : ... .. . ... ... ... : ... .. . ... ... ... : ... .. . ... : ... .. 5 ... : ... .. . ... ...
ROW 44 : ... .. C ... ... ... : ... .. C ... ... ... : ... .. . ... : ... .. 3 ... : ... .. . ... ...
ROW 45 : ... .. . ... ... ... : ... .. . ... ... ... : ... .. . ... : ... .. 1 ... : ... .. . ... ...
ROW 46 : ... .. . ... ... ... : ... .. . ... ... ... : ... .. . ... : ... .. 0 ... : ... .. . ... ...
ROW 47 : ... .. B ... ... ... : ... .. B ... ... ... : ... .. . ... : ... .. . ... : ... .. . ... ...
ROW 48 : ... .. 0 ... V00 ... : ... .. 0 ... V00 ... : A#3 00 . P81 : 4-# 00 F ... : ... .. . ... ...
ROW 49 : G-2 00 F P80 V01 ... : D-3 00 F P80 V01 ... : D#3 00 . P89 : ... .. . ... : ... .. . ... ...
ROW 4A : ... .. E ... ... ... : ... .. E ... ... ... : B-2 00 . P76 : ... .. . ... : ... .. . ... ...
ROW 4B : ... .. . ... ... ... : ... .. . ... ... ... : G-2 00 . P7C : ... .. C ... : ... .. . ... ...
ROW 4C : ... .. . ... ... ... : ... .. . ... ... ... : E-2 00 . P78 : ... .. B ... : ... .. . ... ...
ROW 4D : ... .. D ... ... ... : ... .. D ... ... ... : C#2 00 . P88 : ... .. 9 ... : ... .. . ... ...
ROW 4E : ... .. . ... ... ... : ... .. . ... ... ... : B-1 00 . P7B : ... .. 6 ... : ... .. . ... ...
ROW 4F : ... .. . ... ... ... : ... .. . ... ... ... : A-1 00 . P7A : ... .. 5 ... : ... .. . ... ...
ROW 50 : ... .. C ... ... ... : ... .. C ... ... ... : G-1 00 . P86 : ... .. 3 ... : ... .. . ... ...
ROW 51 : ... .. . ... ... ... : ... .. . ... ... ... : F-1 00 . PA2 : ... .. 1 ... : ... .. . ... ...
ROW 52 : ... .. . ... ... ... : ... .. . ... ... ... : --- .. . ... : ... .. 0 ... : ... .. . ... ...
ROW 53 : ... .. B ... ... ... : ... .. B ... ... ... : ... .. . ... : ... .. . ... : ... .. . ... ...
ROW 54 : ... .. 0 ... V00 ... : ... .. 0 ... V00 ... : ... .. . ... : D-# 00 F ... : ... .. . ... ...
ROW 55 : C-3 00 F P80 V01 ... : E-3 00 F P80 V01 ... : C-3 00 . P80 : ... .. . ... : ... .. . ... ...
ROW 56 : ... .. E ... ... ... : ... .. E ... ... ... : ... .. . ... : ... .. . ... : ... .. . ... ...
ROW 57 : ... .. . ... ... ... : ... .. . ... ... ... : ... .. . ... : ... .. C ... : ... .. . ... ...
ROW 58 : ... .. . ... ... ... : ... .. . ... ... ... : ... .. . ... : ... .. B ... : ... .. . ... ...
ROW 59 : ... .. D ... ... ... : ... .. D ... ... ... : ... .. . ... : ... .. 9 ... : ... .. . ... ...
ROW 5A : ... .. . ... ... ... : ... .. . ... ... ... : ... .. . ... : ... .. 6 ... : ... .. . ... ...
ROW 5B : ... .. . ... ... ... : ... .. . ... ... ... : ... .. . ... : ... .. 5 ... : ... .. . ... ...
ROW 5C : ... .. C ... ... ... : ... .. C ... ... ... : ... .. . ... : ... .. 3 ... : ... .. . ... ...
ROW 5D : ... .. . ... ... ... : ... .. . ... ... ... : ... .. . ... : ... .. 1 ... : ... .. . ... ...
ROW 5E : ... .. . ... ... ... : ... .. . ... ... ... : ... .. . ... : ... .. 0 ... : ... .. . ... ...
ROW 5F : ... .. B ... ... ... : ... .. B ... ... ... : ... .. . ... : ... .. . ... : ... .. . ... ...
ROW 60 : ... .. 0 ... V00 ... : ... .. 0 ... V00 ... : A#3 00 . P81 : 1-# 00 F ... : ... .. . ... ...
ROW 61 : F-3 00 F P80 V01 ... : A-3 00 F P80 V01 ... : D#3 00 . P89 : ... .. . ... : ... .. . ... ...
ROW 62 : ... .. E ... ... ... : ... .. E ... ... ... : B-2 00 . P76 : ... .. . ... : ... .. . ... ...
ROW 63 : ... .. . ... ... ... : ... .. . ... ... ... : G-2 00 . P7C : ... .. C ... : ... .. . ... ...
ROW 64 : ... .. . ... ... ... : ... .. . ... ... ... : E-2 00 . P78 : ... .. B ... : ... .. . ... ...
ROW 65 : ... .. D ... ... ... : ... .. D ... ... ... : C#2 00 . P88 : ... .. 9 ... : ... .. . ... ...
ROW 66 : ... .. . ... ... ... : ... .. . ... ... ... : B-1 00 . P7B : ... .. 6 ... : ... .. . ... ...
ROW 67 : ... .. . ... ... ... : ... .. . ... ... ... : A-1 00 . P7A : ... .. 5 ... : ... .. . ... ...
ROW 68 : ... .. C ... ... ... : ... .. C ... ... ... : G-1 00 . P86 : ... .. 3 ... : ... .. . ... ...
ROW 69 : ... .. . ... ... ... : ... .. . ... ... ... : F-1 00 . PA2 : ... .. 1 ... : ... .. . ... ...
ROW 6A : ... .. . ... ... ... : ... .. . ... ... ... : --- .. . ... : ... .. 0 ... : ... .. . ... ...
ROW 6B : ... .. B ... ... ... : ... .. B ... ... ... : ... .. . ... : ... .. . ... : ... .. . ... ...
ROW 6C : ... .. . ... ... ... : ... .. . ... ... ... : ... .. . ... : D-# 00 F ... : ... .. . ... ...
ROW 6D : ... .. . ... ... ... : ... .. . ... ... ... : F-2 00 . P80 : ... .. . ... : ... .. . ... ...
ROW 6E : ... .. A ... ... ... : ... .. A ... ... ... : ... .. . ... : ... .. . ... : ... .. . ... ...
ROW 6F : ... .. . ... ... ... : ... .. . ... ... ... : ... .. . ... : ... .. C ... : ... .. . ... ...
ROW 70 : ... .. . ... ... ... : ... .. . ... ... ... : ... .. . ... : ... .. B ... : ... .. . ... ...
ROW 71 : ... .. 9 ... ... ... : ... .. 9 ... ... ... : ... .. . ... : ... .. 9 ... : ... .. . ... ...
ROW 72 : ... .. . ... ... ... : ... .. . ... ... ... : ... .. . ... : ... .. 6 ... : ... .. . ... ...
ROW 73 : ... .. . ... ... ... : ... .. . ... ... ... : ... .. . ... : ... .. 5 ... : ... .. . ... ...
ROW 74 : ... .. 8 ... ... ... : ... .. 8 ... ... ... : ... .. . ... : ... .. 3 ... : ... .. . ... ...
ROW 75 : ... .. . ... ... ... : ... .. . ... ... ... : ... .. . ... : ... .. 1 ... : ... .. . ... ...
ROW 76 : ... .. 7 ... ... ... : ... .. 7 ... ... ... : ... .. . ... : ... .. 0 ... : ... .. . ... ...
ROW 77 : ... .. . ... ... ... : ... .. . ... ... ... : ... .. . ... : ... .. . ... : ... .. . ... ...
ROW 78 : ... .. 0 ... V00 ... : ... .. 0 ... V00 ... : A#3 00 . P81 : 4-# 00 F ... : ... .. . ... ...
ROW 79 : F-3 00 F P80 V01 ... : A-3 00 F P80 V01 ... : D#3 00 . P89 : ... .. . ... : ... .. . ... ...
ROW 7A : ... .. E ... ... ... : ... .. E ... ... ... : B-2 00 . P76 : ... .. . ... : ... .. . ... ...
ROW 7B : ... .. . ... ... ... : ... .. . ... ... ... : G-2 00 . P7C : ... .. C ... : ... .. . ... ...
ROW 7C : ... .. . ... ... ... : ... .. . ... ... ... : E-2 00 . P78 : ... .. B ... : ... .. . ... ...
ROW 7D : ... .. D ... ... ... : ... .. D ... ... ... : C#2 00 . P88 : ... .. 9 ... : ... .. . ... ...
ROW 7E : ... .. . ... ... ... : ... .. . ... ... ... : B-1 00 . P7B : ... .. 6 ... : ... .. . ... ...
ROW 7F : ... .. . ... ... ... : ... .. . ... ... ... : A-1 00 . P7A : ... .. 5 ... : ... .. . ... ...
ROW 80 : ... .. C ... ... ... : ... .. C ... ... ... : G-1 00 . P86 : ... .. 3 ... : ... .. . ... ...
ROW 81 : ... .. . ... ... ... : ... .. . ... ... ... : F-1 00 . PA2 : ... .. 1 ... : ... .. . ... ...
ROW 82 : ... .. . ... ... ... : ... .. . ... ... ... : --- .. . ... : ... .. 0 ... : ... .. . ... ...
ROW 83 : ... .. B ... ... ... : ... .. B ... ... ... : ... .. . ... : ... .. . ... : ... .. . ... ...
ROW 84 : ... .. 0 ... V00 ... : ... .. 0 ... V00 ... : ... .. . ... : D-# 00 F ... : ... .. . ... ...
ROW 85 : E-3 00 F P80 V01 ... : G-3 00 F P80 V01 ... : F-2 00 . P80 : ... .. . ... : ... .. . ... ...
ROW 86 : ... .. E ... ... ... : ... .. E ... ... ... : ... .. . ... : ... .. . ... : ... .. . ... ...
ROW 87 : ... .. . ... ... ... : ... .. . ... ... ... : ... .. . ... : ... .. C ... : ... .. . ... ...
ROW 88 : ... .. . ... ... ... : ... .. . ... ... ... : ... .. . ... : ... .. B ... : ... .. . ... ...
ROW 89 : ... .. D ... ... ... : ... .. D ... ... ... : ... .. . ... : ... .. 9 ... : ... .. . ... ...
ROW 8A : ... .. 0 ... V00 ... : ... .. 0 ... V00 ... : ... .. . ... : ... .. 6 ... : ... .. . ... ...
ROW 8B : E-3 00 F P80 V01 ... : G-3 00 F P80 V01 ... : ... .. . ... : ... .. 5 ... : ... .. . ... ...
ROW 8C : ... .. E ... ... ... : ... .. E ... ... ... : ... .. . ... : ... .. 3 ... : ... .. . ... ...
ROW 8D : ... .. . ... ... ... : ... .. . ... ... ... : ... .. . ... : ... .. 1 ... : ... .. . ... ...
ROW 8E : ... .. . ... ... ... : ... .. . ... ... ... : ... .. . ... : ... .. 0 ... : ... .. . ... ...
ROW 8F : ... .. D ... ... ... : ... .. D ... ... ... : ... .. . ... : ... .. . ... : ... .. . ... ...
ROW 90 : ... .. 0 ... V00 ... : ... .. 0 ... V00 ... : A#3 00 . P81 : 1-# 00 F ... : ... .. . ... ...
ROW 91 : E-3 00 F P80 V01 ... : G-3 00 F P80 V01 ... : D#3 00 . P89 : ... .. . ... : ... .. . ... ...
ROW 92 : ... .. E ... ... ... : ... .. E ... ... ... : B-2 00 . P76 : ... .. . ... : ... .. . ... ...
ROW 93 : ... .. . ... ... ... : ... .. . ... ... ... : G-2 00 . P7C : ... .. C ... : ... .. . ... ...
ROW 94 : ... .. . ... ... ... : ... .. . ... ... ... : E-2 00 . P78 : ... .. B ... : ... .. . ... ...
ROW 95 : ... .. D ... ... ... : ... .. D ... ... ... : C#2 00 . P88 : ... .. 9 ... : ... .. . ... ...
ROW 96 : ... .. . ... ... ... : ... .. . ... ... ... : B-1 00 . P7B : ... .. 6 ... : ... .. . ... ...
ROW 97 : ... .. . ... ... ... : ... .. . ... ... ... : A-1 00 . P7A : ... .. 5 ... : ... .. . ... ...
ROW 98 : ... .. C ... ... ... : ... .. C ... ... ... : G-1 00 . P86 : ... .. 3 ... : ... .. . ... ...
ROW 99 : ... .. . ... ... ... : ... .. . ... ... ... : F-1 00 . PA2 : ... .. 1 ... : ... .. . ... ...
ROW 9A : ... .. . ... ... ... : ... .. . ... ... ... : --- .. . ... : ... .. 0 ... : ... .. . ... ...
ROW 9B : ... .. B ... ... ... : ... .. B ... ... ... : ... .. . ... : ... .. . ... : ... .. . ... ...
ROW 9C : ... .. 0 ... V00 ... : ... .. 0 ... V00 ... : ... .. . ... : D-# 00 F ... : ... .. . ... ...
ROW 9D : C-3 00 F P80 V01 ... : E-3 00 F P80 V01 ... : G-2 00 . P80 : ... .. . ... : ... .. . ... ...
ROW 9E : ... .. E ... ... ... : ... .. E ... ... ... : ... .. . ... : ... .. . ... : ... .. . ... ...
ROW 9F : ... .. . ... ... ... : ... .. . ... ... ... : ... .. . ... : ... .. C ... : ... .. . ... ...
ROW A0 : ... .. . ... ... ... : ... .. . ... ... ... : ... .. . ... : ... .. B ... : ... .. . ... ...
ROW A1 : ... .. D ... ... ... : ... .. D ... ... ... : ... .. . ... : ... .. 9 ... : ... .. . ... ...
ROW A2 : ... .. . ... ... ... : ... .. . ... ... ... : ... .. . ... : ... .. 6 ... : ... .. . ... ...
ROW A3 : ... .. . ... ... ... : ... .. . ... ... ... : ... .. . ... : ... .. 5 ... : ... .. . ... ...
ROW A4 : ... .. C ... ... ... : ... .. C ... ... ... : ... .. . ... : ... .. 3 ... : ... .. . ... ...
ROW A5 : ... .. . ... ... ... : ... .. . ... ... ... : ... .. . ... : ... .. 1 ... : ... .. . ... ...
ROW A6 : ... .. . ... ... ... : ... .. . ... ... ... : ... .. . ... : ... .. 0 ... : ... .. . ... ...
ROW A7 : ... .. B ... ... ... : ... .. B ... ... ... : ... .. . ... : ... .. . ... : ... .. . ... ...
ROW A8 : ... .. 0 ... V00 ... : ... .. 0 ... V00 ... : A#3 00 . P81 : 4-# 00 F ... : ... .. . ... ...
ROW A9 : G-2 00 F P80 V01 ... : D-3 00 F P80 V01 ... : D#3 00 . P89 : ... .. . ... : ... .. . ... ...
ROW AA : ... .. E ... ... ... : ... .. E ... ... ... : B-2 00 . P76 : ... .. . ... : ... .. . ... ...
ROW AB : ... .. . ... ... ... : ... .. . ... ... ... : G-2 00 . P7C : ... .. C ... : ... .. . ... ...
ROW AC : ... .. . ... ... ... : ... .. . ... ... ... : E-2 00 . P78 : ... .. B ... : ... .. . ... ...
ROW AD : ... .. D ... ... ... : ... .. D ... ... ... : C#2 00 . P88 : ... .. 9 ... : ... .. . ... ...
ROW AE : ... .. . ... ... ... : ... .. . ... ... ... : B-1 00 . P7B : ... .. 6 ... : ... .. . ... ...
ROW AF : ... .. . ... ... ... : ... .. . ... ... ... : A-1 00 . P7A : ... .. 5 ... : ... .. . ... ...
ROW B0 : ... .. C ... ... ... : ... .. C ... ... ... : G-1 00 . P86 : ... .. 3 ... : ... .. . ... ...
ROW B1 : ... .. . ... ... ... : ... .. . ... ... ... : F-1 00 . PA2 : ... .. 1 ... : ... .. . ... ...
ROW B2 : ... .. . ... ... ... : ... .. . ... ... ... : --- .. . ... : ... .. 0 ... : ... .. . ... ...
ROW B3 : ... .. B ... ... ... : ... .. B ... ... ... : ... .. . ... : ... .. . ... : ... .. . ... ...
ROW B4 : ... .. 0 ... V00 ... : ... .. 0 ... V00 ... : ... .. . ... : D-# 00 F ... : ... .. . ... ...
ROW B5 : C-3 00 F P80 V01 ... : E-3 00 F P80 V01 ... : G-2 00 . P80 : ... .. . ... : ... .. . ... ...
ROW B6 : ... .. E ... ... ... : ... .. E ... ... ... : ... .. . ... : ... .. . ... : ... .. . ... ...
ROW B7 : ... .. . ... ... ... : ... .. . ... ... ... : ... .. . ... : ... .. C ... : ... .. . ... ...
ROW B8 : ... .. . ... ... ... : ... .. . ... ... ... : ... .. . ... : ... .. B ... : ... .. . ... ...
ROW B9 : ... .. D ... ... ... : ... .. D ... ... ... : ... .. . ... : ... .. 9 ... : ... .. . ... ...
ROW BA : ... .. . ... ... ... : ... .. . ... ... ... : ... .. . ... : ... .. 6 ... : ... .. . ... ...
ROW BB : ... .. . ... ... ... : ... .. . ... ... ... : ... .. . ... : ... .. 5 ... : ... .. . ... ...
ROW BC : ... .. C ... ... ... : ... .. C ... ... ... : ... .. . ... : ... .. 3 ... : ... .. . ... ...
ROW BD : ... .. . ... ... ... : ... .. . ... ... ... : ... .. . ... : ... .. 1 ... : ... .. . ... ...
ROW BE : ... .. . ... ... ... : ... .. . ... ... ... : ... .. . ... : ... .. 0 ... : ... .. . ... ...
ROW BF : ... .. B ... ... ... : ... .. B ... ... ... : ... .. . ... : ... .. . ... : ... .. . ... ...
ROW C0 : ... .. 0 ... V00 ... : ... .. 0 ... V00 ... : A#3 00 . P81 : 1-# 00 F ... : ... .. . ... ...
ROW C1 : G-2 00 F P80 V01 ... : C-3 00 F P80 V01 ... : D#3 00 . P89 : ... .. . ... : ... .. . ... ...
ROW C2 : ... .. E ... ... ... : ... .. E ... ... ... : B-2 00 . P76 : ... .. . ... : ... .. . ... ...
ROW C3 : ... .. . ... ... ... : ... .. . ... ... ... : G-2 00 . P7C : ... .. C ... : ... .. . ... ...
ROW C4 : ... .. . ... ... ... : ... .. . ... ... ... : E-2 00 . P78 : ... .. B ... : ... .. . ... ...
ROW C5 : ... .. D ... ... ... : ... .. D ... ... ... : C#2 00 . P88 : ... .. 9 ... : ... .. . ... ...
ROW C6 : ... .. . ... ... ... : ... .. . ... ... ... : B-1 00 . P7B : ... .. 6 ... : ... .. . ... ...
ROW C7 : ... .. . ... ... ... : ... .. . ... ... ... : A-1 00 . P7A : ... .. 5 ... : ... .. . ... ...
ROW C8 : ... .. C ... ... ... : ... .. C ... ... ... : G-1 00 . P86 : ... .. 3 ... : ... .. . ... ...
ROW C9 : ... .. . ... ... ... : ... .. . ... ... ... : F-1 00 . PA2 : ... .. 1 ... : ... .. . ... ...
ROW CA : ... .. . ... ... ... : ... .. . ... ... ... : --- .. . ... : ... .. 0 ... : ... .. . ... ...
ROW CB : ... .. B ... ... ... : ... .. B ... ... ... : ... .. . ... : ... .. . ... : ... .. . ... ...
ROW CC : ... .. . ... ... ... : ... .. . ... ... ... : ... .. . ... : D-# 00 F ... : ... .. . ... ...
ROW CD : ... .. . ... ... ... : ... .. . ... ... ... : C-3 00 . P80 : ... .. . ... : ... .. . ... ...
ROW CE : ... .. A ... ... ... : ... .. A ... ... ... : ... .. . ... : ... .. . ... : ... .. . ... ...
ROW CF : ... .. . ... ... ... : ... .. . ... ... ... : ... .. . ... : ... .. C ... : ... .. . ... ...
ROW D0 : ... .. . ... ... ... : ... .. . ... ... ... : ... .. . ... : ... .. B ... : ... .. . ... ...
ROW D1 : ... .. 9 ... ... ... : ... .. 9 ... ... ... : ... .. . ... : ... .. 9 ... : ... .. . ... ...
ROW D2 : ... .. . ... ... ... : ... .. . ... ... ... : ... .. . ... : ... .. 6 ... : ... .. . ... ...
ROW D3 : ... .. . ... ... ... : ... .. . ... ... ... : ... .. . ... : ... .. 5 ... : ... .. . ... ...
ROW D4 : ... .. 8 ... ... ... : ... .. 8 ... ... ... : ... .. . ... : ... .. 3 ... : ... .. . ... ...
ROW D5 : ... .. . ... ... ... : ... .. . ... ... ... : ... .. . ... : ... .. 1 ... : ... .. . ... ...
ROW D6 : ... .. 7 ... ... ... : ... .. 7 ... ... ... : ... .. . ... : ... .. 0 ... : ... .. . ... ...
ROW D7 : ... .. . ... ... ... : ... .. . ... ... ... : ... .. . ... : ... .. . ... : ... .. . ... ...
ROW D8 : ... .. 0 ... V00 ... : ... .. 0 ... V00 ... : A#3 00 . P81 : 4-# 00 F ... : ... .. . ... ...
ROW D9 : C-3 00 F P80 V01 ... : E-3 00 F P80 V01 ... : D#3 00 . P89 : ... .. . ... : ... .. . ... ...
ROW DA : ... .. E ... ... ... : ... .. E ... ... ... : B-2 00 . P76 : ... .. . ... : ... .. . ... ...
ROW DB : ... .. . ... ... ... : ... .. . ... ... ... : G-2 00 . P7C : ... .. C ... : ... .. . ... ...
ROW DC : ... .. . ... ... ... : ... .. . ... ... ... : E-2 00 . P78 : ... .. B ... : ... .. . ... ...
ROW DD : ... .. D ... ... ... : ... .. D ... ... ... : C#2 00 . P88 : ... .. 9 ... : ... .. . ... ...
ROW DE : ... .. . ... ... ... : ... .. . ... ... ... : B-1 00 . P7B : ... .. 6 ... : ... .. . ... ...
ROW DF : ... .. . ... ... ... : ... .. . ... ... ... : A-1 00 . P7A : ... .. 5 ... : ... .. . ... ...
ROW E0 : ... .. C ... ... ... : ... .. C ... ... ... : G-1 00 . P86 : ... .. 3 ... : ... .. . ... ...
ROW E1 : ... .. . ... ... ... : ... .. . ... ... ... : F-1 00 . PA2 : ... .. 1 ... : ... .. . ... ...
ROW E2 : ... .. . ... ... ... : ... .. . ... ... ... : --- .. . ... : ... .. 0 ... : ... .. . ... ...
ROW E3 : ... .. B ... ... ... : ... .. B ... ... ... : ... .. . ... : ... .. . ... : ... .. . ... ...
ROW E4 : ... .. 0 ... V00 ... : ... .. 0 ... V00 ... : ... .. . ... : D-# 00 F ... : ... .. . ... ...
ROW E5 : E-3 00 F P80 V01 ... : G-3 00 F P80 V01 ... : C-3 00 . P80 : ... .. . ... : ... .. . ... ...
ROW E6 : ... .. E ... ... ... : ... .. E ... ... ... : ... .. . ... : ... .. . ... : ... .. . ... ...
ROW E7 : ... .. . ... ... ... : ... .. . ... ... ... : ... .. . ... : ... .. C ... : ... .. . ... ...
ROW E8 : ... .. . ... ... ... : ... .. . ... ... ... : ... .. . ... : ... .. B ... : ... .. . ... ...
ROW E9 : ... .. D ... ... ... : ... .. D ... ... ... : ... .. . ... : ... .. 9 ... : ... .. . ... ...
ROW EA : ... .. 0 ... V00 ... : ... .. 0 ... V00 ... : ... .. . ... : ... .. 6 ... : ... .. . ... ...
ROW EB : E-3 00 F P80 V01 ... : G-3 00 F P80 V01 ... : ... .. . ... : ... .. 5 ... : ... .. . ... ...
ROW EC : ... .. E ... ... ... : ... .. E ... ... ... : ... .. . ... : ... .. 3 ... : ... .. . ... ...
ROW ED : ... .. . ... ... ... : ... .. . ... ... ... : ... .. . ... : ... .. 1 ... : ... .. . ... ...
ROW EE : ... .. . ... ... ... : ... .. . ... ... ... : ... .. . ... : ... .. 0 ... : ... .. . ... ...
ROW EF : ... .. D ... ... ... : ... .. D ... ... ... : ... .. . ... : ... .. . ... : ... .. . ... ...
ROW F0 : ... .. 0 ... V00 ... : ... .. 0 ... V00 ... : A#3 00 . P81 : 1-# 00 F ... : ... .. . ... ...
ROW F1 : E-3 00 F P80 V01 ... : G-3 00 F P80 V01 ... : D#3 00 . P89 : ... .. . ... : ... .. . ... ...
ROW F2 : ... .. E ... ... ... : ... .. E ... ... ... : B-2 00 . P76 : ... .. . ... : ... .. . ... ...
ROW F3 : ... .. . ... ... ... : ... .. . ... ... ... : G-2 00 . P7C : ... .. C ... : ... .. . ... ...
ROW F4 : ... .. . ... ... ... : ... .. . ... ... ... : E-2 00 . P78 : ... .. B ... : ... .. . ... ...
ROW F5 : ... .. D ... ... ... : ... .. D ... ... ... : C#2 00 . P88 : ... .. 9 ... : ... .. . ... ...
ROW F6 : ... .. . ... ... ... : ... .. . ... ... ... : B-1 00 . P7B : ... .. 6 ... : ... .. . ... ...
ROW F7 : ... .. . ... ... ... : ... .. . ... ... ... : A-1 00 . P7A : ... .. 5 ... : ... .. . ... ...
ROW F8 : ... .. C ... ... ... : ... .. C ... ... ... : G-1 00 . P86 : ... .. 3 ... : ... .. . ... ...
ROW F9 : ... .. . ... ... ... : ... .. . ... ... ... : F-1 00 . PA2 : ... .. 1 ... : ... .. . ... ...
ROW FA : ... .. . ... ... ... : ... .. . ... ... ... : --- .. . ... : ... .. 0 ... : ... .. . ... ...
ROW FB : ... .. B ... ... ... : ... .. B ... ... ... : ... .. . ... : ... .. . ... : ... .. . ... ...
ROW FC : ... .. 0 ... V00 ... : ... .. 0 ... V00 ... : ... .. . ... : D-# 00 F ... : ... .. . ... ...
ROW FD : C-3 00 F P80 V01 ... : E-3 00 F P80 V01 ... : C-3 00 . P80 : ... .. . ... : ... .. . ... ...
ROW FE : ... .. E ... ... ... : ... .. E ... ... ... : ... .. . ... : ... .. . ... : ... .. . ... ...
ROW FF : ... .. . ... ... ... : ... .. . ... ... ... : ... .. . ... : ... .. C ... : ... .. . ... ...

PATTERN 0A
ROW 00 : ... .. . ... ... ... : ... .. . ... ... ... : ... .. . ... : ... .. B ... : ... .. . ... ...
ROW 01 : ... .. D ... ... ... : ... .. D ... ... ... : ... .. . ... : ... .. 9 ... : ... .. . ... ...
ROW 02 : ... .. . ... ... ... : ... .. . ... ... ... : ... .. . ... : ... .. 6 ... : ... .. . ... ...
ROW 03 : ... .. . ... ... ... : ... .. . ... ... ... : ... .. . ... : ... .. 5 ... : ... .. . ... ...
ROW 04 : ... .. C ... ... ... : ... .. C ... ... ... : ... .. . ... : ... .. 3 ... : ... .. . ... ...
ROW 05 : ... .. . ... ... ... : ... .. . ... ... ... : ... .. . ... : ... .. 1 ... : ... .. . ... ...
ROW 06 : ... .. . ... ... ... : ... .. . ... ... ... : ... .. . ... : ... .. 0 ... : ... .. . ... ...
ROW 07 : ... .. B ... ... ... : ... .. B ... ... ... : ... .. . ... : ... .. . ... : ... .. . ... ...
ROW 08 : ... .. 0 ... V00 ... : ... .. 0 ... V00 ... : A#3 00 . P81 : 4-# 00 F ... : ... .. . ... ...
ROW 09 : ... .. . ... ... ... : ... .. . ... ... ... : D#3 00 . P89 : ... .. . ... : ... .. . ... ...
ROW 0A : ... .. . ... ... ... : ... .. . ... ... ... : B-2 00 . P76 : ... .. . ... : ... .. . ... ...
ROW 0B : ... .. . ... ... ... : ... .. . ... ... ... : G-2 00 . P7C : ... .. C ... : ... .. . ... ...
ROW 0C : ... .. . ... ... ... : ... .. . ... ... ... : E-2 00 . P78 : ... .. B ... : ... .. . ... ...
ROW 0D : ... .. . ... ... ... : ... .. . ... ... ... : C#2 00 . P88 : ... .. 9 ... : ... .. . ... ...
ROW 0E : ... .. . ... ... ... : ... .. . ... ... ... : B-1 00 . P7B : ... .. 6 ... : ... .. . ... ...
ROW 0F : ... .. . ... ... ... : ... .. . ... ... ... : A-1 00 . P7A : ... .. 5 ... : ... .. . ... ...
ROW 10 : ... .. . ... ... ... : ... .. . ... ... ... : G-1 00 . P86 : ... .. 3 ... : ... .. . ... ...
ROW 11 : ... .. . ... ... ... : ... .. . ... ... ... : F-1 00 . PA2 : ... .. 1 ... : ... .. . ... ...
ROW 12 : ... .. . ... ... ... : ... .. . ... ... ... : --- .. . ... : ... .. 0 ... : ... .. . ... ...
ROW 13 : ... .. . ... ... ... : ... .. . ... ... ... : ... .. . ... : ... .. . ... : ... .. . ... ...
ROW 14 : ... .. . ... ... ... : ... .. . ... ... ... : ... .. . ... : D-# 00 F ... : ... .. . ... ...
ROW 15 : E-3 00 F P80 V01 ... : G-3 00 F P80 V01 ... : C-3 00 . P80 : ... .. . ... : ... .. . ... ...
ROW 16 : ... .. E ... ... ... : ... .. E ... ... ... : ... .. . ... : ... .. . ... : ... .. . ... ...
ROW 17 : ... .. . ... ... ... : ... .. . ... ... ... : ... .. . ... : ... .. C ... : ... .. . ... ...
ROW 18 : ... .. . ... ... ... : ... .. . ... ... ... : ... .. . ... : ... .. B ... : ... .. . ... ...
ROW 19 : ... .. D ... ... ... : ... .. D ... ... ... : ... .. . ... : ... .. 9 ... : ... .. . ... ...
ROW 1A : ... .. 0 ... V00 ... : ... .. 0 ... V00 ... : ... .. . ... : ... .. 6 ... : ... .. . ... ...
ROW 1B : E-3 00 F P80 V01 ... : G-3 00 F P80 V01 ... : ... .. . ... : ... .. 5 ... : ... .. . ... ...
ROW 1C : ... .. E ... ... ... : ... .. E ... ... ... : ... .. . ... : ... .. 3 ... : ... .. . ... ...
ROW 1D : ... .. . ... ... ... : ... .. . ... ... ... : ... .. . ... : ... .. 1 ... : ... .. . ... ...
ROW 1E : ... .. . ... ... ... : ... .. . ... ... ... : ... .. . ... : ... .. 0 ... : ... .. . ... ...
ROW 1F : ... .. D ... ... ... : ... .. D ... ... ... : ... .. . ... : ... .. . ... : ... .. . ... ...
ROW 20 : ... .. 0 ... V00 ... : ... .. 0 ... V00 ... : A#3 00 . P81 : 1-# 00 F ... : ... .. . ... ...
ROW 21 : E-3 00 F P80 V01 ... : G-3 00 F P80 V01 ... : D#3 00 . P89 : ... .. . ... : ... .. . ... ...
ROW 22 : ... .. E ... ... ... : ... .. E ... ... ... : B-2 00 . P76 : ... .. . ... : ... .. . ... ...
ROW 23 : ... .. . ... ... ... : ... .. . ... ... ... : G-2 00 . P7C : ... .. C ... : ... .. . ... ...
ROW 24 : ... .. . ... ... ... : ... .. . ... ... ... : E-2 00 . P78 : ... .. B ... : ... .. . ... ...
ROW 25 : ... .. D ... ... ... : ... .. D ... ... ... : C#2 00 . P88 : ... .. 9 ... : ... .. . ... ...
ROW 26 : ... .. . ... ... ... : ... .. . ... ... ... : B-1 00 . P7B : ... .. 6 ... : ... .. . ... ...
ROW 27 : ... .. . ... ... ... : ... .. . ... ... ... : A-1 00 . P7A : ... .. 5 ... : ... .. . ... ...
ROW 28 : ... .. C ... ... ... : ... .. C ... ... ... : G-1 00 . P86 : ... .. 3 ... : ... .. . ... ...
ROW 29 : ... .. . ... ... ... : ... .. . ... ... ... : F-1 00 . PA2 : ... .. 1 ... : ... .. . ... ...
ROW 2A : ... .. . ... ... ... : ... .. . ... ... ... : --- .. . ... : ... .. 0 ... : ... .. . ... ...
ROW 2B : ... .. B ... ... ... : ... .. B ... ... ... : ... .. . ... : ... .. . ... : ... .. . ... ...
ROW 2C : ... .. 0 ... V00 ... : ... .. 0 ... V00 ... : ... .. . ... : D-# 00 F ... : ... .. . ... ...
ROW 2D : C-3 00 F P80 V01 ... : E-3 00 F P80 V01 ... : C-3 00 . P80 : ... .. . ... : ... .. . ... ...
ROW 2E : ... .. E ... ... ... : ... .. E ... ... ... : ... .. . ... : ... .. . ... : ... .. . ... ...
ROW 2F : ... .. . ... ... ... : ... .. . ... ... ... : ... .. . ... : ... .. C ... : ... .. . ... ...
ROW 30 : ... .. . ... ... ... : ... .. . ... ... ... : ... .. . ... : ... .. B ... : ... .. . ... ...
ROW 31 : ... .. D ... ... ... : ... .. D ... ... ... : ... .. . ... : ... .. 9 ... : ... .. . ... ...
ROW 32 : ... .. . ... ... ... : ... .. . ... ... ... : ... .. . ... : ... .. 6 ... : ... .. . ... ...
ROW 33 : ... .. . ... ... ... : ... .. . ... ... ... : ... .. . ... : ... .. 5 ... : ... .. . ... ...
ROW 34 : ... .. C ... ... ... : ... .. C ... ... ... : ... .. . ... : ... .. 3 ... : ... .. . ... ...
ROW 35 : ... .. . ... ... ... : ... .. . ... ... ... : ... .. . ... : ... .. 1 ... : ... .. . ... ...
ROW 36 : ... .. . ... ... ... : ... .. . ... ... ... : ... .. . ... : ... .. 0 ... : ... .. . ... ...
ROW 37 : ... .. B ... ... ... : ... .. B ... ... ... : ... .. . ... : ... .. . ... : ... .. . ... ...
ROW 38 : ... .. 0 ... V00 ... : ... .. 0 ... V00 ... : A#3 00 . P81 : 4-# 00 F ... : ... .. . ... ...
ROW 39 : ... .. . ... ... ... : ... .. . ... ... ... : D#3 00 . P89 : ... .. . ... : ... .. . ... ...
ROW 3A : ... .. . ... ... ... : ... .. . ... ... ... : B-2 00 . P76 : ... .. . ... : ... .. . ... ...
ROW 3B : ... .. . ... ... ... : ... .. . ... ... ... : G-2 00 . P7C : ... .. C ... : ... .. . ... ...
ROW 3C : ... .. . ... ... ... : ... .. . ... ... ... : E-2 00 . P78 : ... .. B ... : ... .. . ... ...
ROW 3D : ... .. . ... ... ... : ... .. . ... ... ... : C#2 00 . P88 : ... .. 9 ... : ... .. . ... ...
ROW 3E : ... .. . ... ... ... : ... .. . ... ... ... : B-1 00 . P7B : ... .. 6 ... : ... .. . ... ...
ROW 3F : ... .. . ... ... ... : ... .. . ... ... ... : A-1 00 . P7A : ... .. 5 ... : ... .. . ... ...
ROW 40 : ... .. . ... ... ... : ... .. . ... ... ... : G-1 00 . P86 : ... .. 3 ... : ... .. . ... ...
ROW 41 : ... .. . ... ... ... : ... .. . ... ... ... : F-1 00 . PA2 : ... .. 1 ... : ... .. . ... ...
ROW 42 : ... .. . ... ... ... : ... .. . ... ... ... : --- .. . ... : ... .. 0 ... : ... .. . ... ...
ROW 43 : ... .. . ... ... ... : ... .. . ... ... ... : ... .. . ... : ... .. . ... : ... .. . ... ...
ROW 44 : ... .. . ... ... ... : ... .. . ... ... ... : ... .. . ... : D-# 00 F ... : ... .. . ... ...
ROW 45 : E-3 00 F P80 V01 ... : G-3 00 F P80 V01 ... : C-3 00 . P80 : ... .. . ... : ... .. . ... ...
ROW 46 : ... .. E ... ... ... : ... .. E ... ... ... : ... .. . ... : ... .. . ... : ... .. . ... ...
ROW 47 : ... .. . ... ... ... : ... .. . ... ... ... : ... .. . ... : ... .. C ... : ... .. . ... ...
ROW 48 : ... .. . ... ... ... : ... .. . ... ... ... : ... .. . ... : ... .. B ... : ... .. . ... ...
ROW 49 : ... .. D ... ... ... : ... .. D ... ... ... : ... .. . ... : ... .. 9 ... : ... .. . ... ...
ROW 4A : ... .. 0 ... V00 ... : ... .. 0 ... V00 ... : ... .. . ... : ... .. 6 ... : ... .. . ... ...
ROW 4B : E-3 00 F P80 V01 ... : G-3 00 F P80 V01 ... : ... .. . ... : ... .. 5 ... : ... .. . ... ...
ROW 4C : ... .. E ... ... ... : ... .. E ... ... ... : ... .. . ... : ... .. 3 ... : ... .. . ... ...
ROW 4D : ... .. . ... ... ... : ... .. . ... ... ... : ... .. . ... : ... .. 1 ... : ... .. . ... ...
ROW 4E : ... .. . ... ... ... : ... .. . ... ... ... : ... .. . ... : ... .. 0 ... : ... .. . ... ...
ROW 4F : ... .. D ... ... ... : ... .. D ... ... ... : ... .. . ... : ... .. . ... : ... .. . ... ...
ROW 50 : ... .. 0 ... V00 ... : ... .. 0 ... V00 ... : A#3 00 . P81 : 1-# 00 F ... : ... .. . ... ...
ROW 51 : E-3 00 F P80 V01 ... : G-3 00 F P80 V01 ... : D#3 00 . P89 : ... .. . ... : ... .. . ... ...
ROW 52 : ... .. E ... ... ... : ... .. E ... ... ... : B-2 00 . P76 : ... .. . ... : ... .. . ... ...
ROW 53 : ... .. . ... ... ... : ... .. . ... ... ... : G-2 00 . P7C : ... .. C ... : ... .. . ... ...
ROW 54 : ... .. . ... ... ... : ... .. . ... ... ... : E-2 00 . P78 : ... .. B ... : ... .. . ... ...
ROW 55 : ... .. D ... ... ... : ... .. D ... ... ... : C#2 00 . P88 : ... .. 9 ... : ... .. . ... ...
ROW 56 : ... .. . ... ... ... : ... .. . ... ... ... : B-1 00 . P7B : ... .. 6 ... : ... .. . ... ...
ROW 57 : ... .. . ... ... ... : ... .. . ... ... ... : A-1 00 . P7A : ... .. 5 ... : ... .. . ... ...
ROW 58 : ... .. C ... ... ... : ... .. C ... ... ... : G-1 00 . P86 : ... .. 3 ... : ... .. . ... ...
ROW 59 : ... .. . ... ... ... : ... .. . ... ... ... : F-1 00 . PA2 : ... .. 1 ... : ... .. . ... ...
ROW 5A : ... .. . ... ... ... : ... .. . ... ... ... : --- .. . ... : ... .. 0 ... : ... .. . ... ...
ROW 5B : ... .. B ... ... ... : ... .. B ... ... ... : ... .. . ... : ... .. . ... : ... .. . ... ...
ROW 5C : ... .. 0 ... V00 ... : ... .. 0 ... V00 ... : ... .. . ... : D-# 00 F ... : ... .. . ... ...
ROW 5D : C-3 00 F P80 V01 ... : E-3 00 F P80 V01 ... : C-3 00 . P80 : ... .. . ... : ... .. . ... ...
ROW 5E : ... .. E ... ... ... : ... .. E ... ... ... : ... .. . ... : ... .. . ... : ... .. . ... ...
ROW 5F : ... .. . ... ... ... : ... .. . ... ... ... : ... .. . ... : ... .. C ... : ... .. . ... ...
ROW 60 : ... .. . ... ... ... : ... .. . ... ... ... : ... .. . ... : ... .. B ... : ... .. . ... ...
ROW 61 : ... .. D ... ... ... : ... .. D ... ... ... : ... .. . ... : ... .. 9 ... : ... .. . ... ...
ROW 62 : ... .. . ... ... ... : ... .. . ... ... ... : ... .. . ... : ... .. 6 ... : ... .. . ... ...
ROW 63 : ... .. . ... ... ... : ... .. . ... ... ... : ... .. . ... : ... .. 5 ... : ... .. . ... ...
ROW 64 : ... .. C ... ... ... : ... .. C ... ... ... : ... .. . ... : ... .. 3 ... : ... .. . ... ...
ROW 65 : ... .. . ... ... ... : ... .. . ... ... ... : ... .. . ... : ... .. 1 ... : ... .. . ... ...
ROW 66 : ... .. . ... ... ... : ... .. . ... ... ... : ... .. . ... : ... .. 0 ... : ... .. . ... ...
ROW 67 : ... .. B ... ... ... : ... .. B ... ... ... : ... .. . ... : ... .. . ... : ... .. . ... ...
ROW 68 : ... .. 0 ... V00 ... : ... .. 0 ... V00 ... : A#3 00 . P81 : 4-# 00 F ... : ... .. . ... ...
ROW 69 : ... .. . ... ... ... : ... .. . ... ... ... : D#3 00 . P89 : ... .. . ... : ... .. . ... ...
ROW 6A : ... .. . ... ... ... : ... .. . ... ... ... : B-2 00 . P76 : ... .. . ... : ... .. . ... ...
ROW 6B : ... .. . ... ... ... : ... .. . ... ... ... : G-2 00 . P7C : ... .. C ... : ... .. . ... ...
ROW 6C : ... .. . ... ... ... : ... .. . ... ... ... : E-2 00 . P78 : ... .. B ... : ... .. . ... ...
ROW 6D : ... .. . ... ... ... : ... .. . ... ... ... : C#2 00 . P88 : ... .. 9 ... : ... .. . ... ...
ROW 6E : ... .. . ... ... ... : ... .. . ... ... ... : B-1 00 . P7B : ... .. 6 ... : ... .. . ... ...
ROW 6F : ... .. . ... ... ... : ... .. . ... ... ... : A-1 00 . P7A : ... .. 5 ... : ... .. . ... ...
ROW 70 : ... .. . ... ... ... : ... .. . ... ... ... : G-1 00 . P86 : ... .. 3 ... : ... .. . ... ...
ROW 71 : ... .. . ... ... ... : ... .. . ... ... ... : F-1 00 . PA2 : ... .. 1 ... : ... .. . ... ...
ROW 72 : ... .. . ... ... ... : ... .. . ... ... ... : --- .. . ... : ... .. 0 ... : ... .. . ... ...
ROW 73 : ... .. . ... ... ... : ... .. . ... ... ... : ... .. . ... : ... .. . ... : ... .. . ... ...
ROW 74 : ... .. . ... ... ... : ... .. . ... ... ... : ... .. . ... : D-# 00 F ... : ... .. . ... ...
ROW 75 : E-3 00 F P80 V01 ... : G-3 00 F P80 V01 ... : C-3 00 . P80 : ... .. . ... : ... .. . ... ...
ROW 76 : ... .. E ... ... ... : ... .. E ... ... ... : ... .. . ... : ... .. . ... : ... .. . ... ...
ROW 77 : ... .. . ... ... ... : ... .. . ... ... ... : ... .. . ... : ... .. C ... : ... .. . ... ...
ROW 78 : ... .. . ... ... ... : ... .. . ... ... ... : ... .. . ... : ... .. B ... : ... .. . ... ...
ROW 79 : ... .. D ... ... ... : ... .. D ... ... ... : ... .. . ... : ... .. 9 ... : ... .. . ... ...
ROW 7A : ... .. 0 ... V00 ... : ... .. 0 ... V00 ... : ... .. . ... : ... .. 6 ... : ... .. . ... ...
ROW 7B : E-3 00 F P80 V01 ... : G-3 00 F P80 V01 ... : ... .. . ... : ... .. 5 ... : ... .. . ... ...
ROW 7C : ... .. E ... ... ... : ... .. E ... ... ... : ... .. . ... : ... .. 3 ... : ... .. . ... ...
ROW 7D : ... .. . ... ... ... : ... .. . ... ... ... : ... .. . ... : ... .. 1 ... : ... .. . ... ...
ROW 7E : ... .. . ... ... ... : ... .. . ... ... ... : ... .. . ... : ... .. 0 ... : ... .. . ... ...
ROW 7F : ... .. D ... ... ... : ... .. D ... ... ... : ... .. . ... : ... .. . ... : ... .. . ... ...
ROW 80 : ... .. 0 ... V00 ... : ... .. 0 ... V00 ... : --- .. . ... : 1-# 00 F ... : ... .. . ... ...
ROW 81 : D-3 00 F P80 V01 ... : G-3 00 F P80 V01 ... : D#3 00 . P89 : ... .. . ... : ... .. . ... ...
ROW 82 : ... .. E ... ... ... : ... .. E ... ... ... : B-2 00 . P76 : ... .. . ... : ... .. . ... ...
ROW 83 : ... .. . ... ... ... : ... .. . ... ... ... : G-2 00 . P7C : ... .. C ... : ... .. . ... ...
ROW 84 : ... .. . ... ... ... : ... .. . ... ... ... : E-2 00 . P78 : ... .. B ... : ... .. . ... ...
ROW 85 : ... .. D ... ... ... : ... .. D ... ... ... : C#2 00 . P88 : ... .. 9 ... : ... .. . ... ...
ROW 86 : ... .. . ... ... ... : ... .. . ... ... ... : B-1 00 . P7B : ... .. 6 ... : ... .. . ... ...
ROW 87 : ... .. . ... ... ... : ... .. . ... ... ... : A-1 00 . P7A : ... .. 5 ... : ... .. . ... ...
ROW 88 : ... .. C ... ... ... : ... .. C ... ... ... : G-1 00 . P86 : ... .. 3 ... : ... .. . ... ...
ROW 89 : ... .. . ... ... ... : ... .. . ... ... ... : F-1 00 . PA2 : ... .. 1 ... : ... .. . ... ...
ROW 8A : ... .. . ... ... ... : ... .. . ... ... ... : E-1 00 . P7E : ... .. 0 ... : ... .. . ... ...
ROW 8B : ... .. B ... ... ... : ... .. B ... ... ... : D#1 00 . P5F : ... .. . ... : ... .. . ... ...
ROW 8C : ... .. . ... ... ... : ... .. . ... ... ... : --- .. . ... : D-# 00 F ... : ... .. . ... ...
ROW 8D : ... .. . ... ... ... : ... .. . ... ... ... : G-2 00 . P80 : ... .. . ... : ... .. . ... ...
ROW 8E : ... .. A ... ... ... : ... .. A ... ... ... : ... .. . ... : ... .. . ... : ... .. . ... ...
ROW 8F : ... .. . ... ... ... : ... .. . ... ... ... : ... .. . ... : ... .. C ... : ... .. . ... ...
ROW 90 : ... .. . ... ... ... : ... .. . ... ... ... : ... .. . ... : ... .. B ... : ... .. . ... ...
ROW 91 : ... .. 9 ... ... ... : ... .. 9 ... ... ... : ... .. . ... : ... .. 9 ... : ... .. . ... ...
ROW 92 : ... .. . ... ... ... : ... .. . ... ... ... : ... .. . ... : ... .. 6 ... : ... .. . ... ...
ROW 93 : ... .. . ... ... ... : ... .. . ... ... ... : ... .. . ... : ... .. 5 ... : ... .. . ... ...
ROW 94 : ... .. 8 ... ... ... : ... .. 8 ... ... ... : ... .. . ... : ... .. 3 ... : ... .. . ... ...
ROW 95 : ... .. . ... ... ... : ... .. . ... ... ... : ... .. . ... : ... .. 1 ... : ... .. . ... ...
ROW 96 : ... .. 7 ... ... ... : ... .. 7 ... ... ... : ... .. . ... : ... .. 0 ... : ... .. . ... ...
ROW 97 : ... .. . ... ... ... : ... .. . ... ... ... : ... .. . ... : ... .. . ... : ... .. . ... ...
ROW 98 : ... .. 6 ... ... ... : ... .. 6 ... ... ... : --- .. . ... : 4-# 00 F ... : ... .. . ... ...
ROW 99 : ... .. . ... ... ... : ... .. . ... ... ... : D#3 00 . P89 : ... .. . ... : ... .. . ... ...
ROW 9A : ... .. . ... ... ... : ... .. . ... ... ... : B-2 00 . P76 : ... .. . ... : ... .. . ... ...
ROW 9B : ... .. 5 ... ... ... : ... .. 5 ... ... ... : G-2 00 . P7C : ... .. C ... : ... .. . ... ...
ROW 9C : ... .. . ... ... ... : ... .. . ... ... ... : E-2 00 . P78 : ... .. B ... : ... .. . ... ...
ROW 9D : ... .. 4 ... ... ... : ... .. 4 ... ... ... : C#2 00 . P88 : ... .. 9 ... : ... .. . ... ...
ROW 9E : ... .. . ... ... ... : ... .. . ... ... ... : B-1 00 . P7B : ... .. 6 ... : ... .. . ... ...
ROW 9F : ... .. 3 ... ... ... : ... .. 3 ... ... ... : A-1 00 . P7A : ... .. 5 ... : ... .. . ... ...
ROW A0 : ... .. . ... ... ... : ... .. . ... ... ... : G-1 00 . P86 : ... .. 3 ... : ... .. . ... ...
ROW A1 : ... .. 2 ... ... ... : ... .. 2 ... ... ... : F-1 00 . PA2 : ... .. 1 ... : ... .. . ... ...
ROW A2 : ... .. 1 ... ... ... : ... .. 1 ... ... ... : E-1 00 . P7E : ... .. 0 ... : ... .. . ... ...
ROW A3 : ... .. . ... ... ... : ... .. . ... ... ... : D#1 00 . P5F : ... .. . ... : ... .. . ... ...
ROW A4 : ... .. . ... ... ... : ... .. . ... ... ... : --- .. . ... : D-# 00 F ... : ... .. . ... ...
ROW A5 : ... .. . ... ... ... : ... .. . ... ... ... : G-2 00 . P80 : ... .. . ... : ... .. . ... ...
ROW A6 : ... .. . ... ... ... : ... .. . ... ... ... : ... .. . ... : ... .. . ... : ... .. . ... ...
ROW A7 : ... .. . ... ... ... : ... .. . ... ... ... : ... .. . ... : ... .. C ... : ... .. . ... ...
ROW A8 : ... .. . ... ... ... : ... .. . ... ... ... : ... .. . ... : ... .. B ... : ... .. . ... ...
ROW A9 : ... .. . ... ... ... : ... .. . ... ... ... : ... .. . ... : ... .. 9 ... : ... .. . ... ...
ROW AA : ... .. . ... ... ... : ... .. . ... ... ... : ... .. . ... : ... .. 6 ... : ... .. . ... ...
ROW AB : ... .. . ... ... ... : ... .. . ... ... ... : ... .. . ... : ... .. 5 ... : ... .. . ... ...
ROW AC : ... .. . ... ... ... : ... .. . ... ... ... : ... .. . ... : ... .. 3 ... : ... .. . ... ...
ROW AD : ... .. . ... ... ... : ... .. . ... ... ... : ... .. . ... : ... .. 1 ... : ... .. . ... ...
ROW AE : ... .. . ... ... ... : ... .. . ... ... ... : ... .. . ... : ... .. 0 ... : ... .. . ... ...
ROW AF : ... .. . ... ... ... : ... .. . ... ... ... : ... .. . ... : ... .. . ... : ... .. . ... ...
ROW B0 : ... .. . ... ... ... : ... .. . ... ... ... : --- .. . ... : 1-# 00 F ... : ... .. . ... ...
ROW B1 : ... .. . ... ... ... : ... .. . ... ... ... : D#3 00 . P89 : ... .. . ... : ... .. . ... ...
ROW B2 : ... .. . ... ... ... : ... .. . ... ... ... : B-2 00 . P76 : ... .. . ... : ... .. . ... ...
ROW B3 : ... .. . ... ... ... : ... .. . ... ... ... : G-2 00 . P7C : ... .. C ... : ... .. . ... ...
ROW B4 : ... .. . ... ... ... : ... .. . ... ... ... : E-2 00 . P78 : ... .. B ... : ... .. . ... ...
ROW B5 : ... .. . ... ... ... : ... .. . ... ... ... : C#2 00 . P88 : ... .. 9 ... : ... .. . ... ...
ROW B6 : ... .. . ... ... ... : ... .. . ... ... ... : B-1 00 . P7B : ... .. 6 ... : ... .. . ... ...
ROW B7 : ... .. . ... ... ... : ... .. . ... ... ... : A-1 00 . P7A : ... .. 5 ... : ... .. . ... ...
ROW B8 : ... .. . ... ... ... : ... .. . ... ... ... : G-1 00 . P86 : ... .. 3 ... : ... .. . ... ...
ROW B9 : ... .. . ... ... ... : ... .. . ... ... ... : F-1 00 . PA2 : ... .. 1 ... : ... .. . ... ...
ROW BA : ... .. . ... ... ... : ... .. . ... ... ... : E-1 00 . P7E : ... .. 0 ... : ... .. . ... ...
ROW BB : ... .. . ... ... ... : ... .. . ... ... ... : D#1 00 . P5F : ... .. . ... : ... .. . ... ...
ROW BC : ... .. 0 ... V00 ... : ... .. 0 ... V00 ... : --- .. . ... : D-# 00 F ... : ... .. . ... ...
ROW BD : G-2 00 F P80 V01 ... : D-3 00 F P80 V01 ... : G-2 00 . P80 : ... .. . ... : ... .. . ... ...
ROW BE : ... .. E ... ... ... : ... .. E ... ... ... : ... .. . ... : ... .. . ... : ... .. . ... ...
ROW BF : ... .. . ... ... ... : ... .. . ... ... ... : ... .. . ... : ... .. C ... : ... .. . ... ...
ROW C0 : ... .. . ... ... ... : ... .. . ... ... ... : ... .. . ... : ... .. B ... : ... .. . ... ...
ROW C1 : ... .. D ... ... ... : ... .. D ... ... ... : ... .. . ... : ... .. 9 ... : ... .. . ... ...
ROW C2 : ... .. . ... ... ... : ... .. . ... ... ... : ... .. . ... : ... .. 6 ... : ... .. . ... ...
ROW C3 : ... .. . ... ... ... : ... .. . ... ... ... : ... .. . ... : ... .. 5 ... : ... .. . ... ...
ROW C4 : ... .. C ... ... ... : ... .. C ... ... ... : ... .. . ... : ... .. 3 ... : ... .. . ... ...
ROW C5 : ... .. . ... ... ... : ... .. . ... ... ... : ... .. . ... : ... .. 1 ... : ... .. . ... ...
ROW C6 : ... .. . ... ... ... : ... .. . ... ... ... : ... .. . ... : ... .. 0 ... : ... .. . ... ...
ROW C7 : ... .. B ... ... ... : ... .. B ... ... ... : ... .. . ... : ... .. . ... : ... .. . ... ...
ROW C8 : ... .. 0 ... V00 ... : ... .. 0 ... V00 ... : --- .. . ... : 4-# 00 F ... : ... .. . ... ...
ROW C9 : D-3 00 F P80 V01 ... : G-3 00 F P80 V01 ... : D#3 00 . P89 : ... .. . ... : ... .. . ... ...
ROW CA : ... .. E ... ... ... : ... .. E ... ... ... : B-2 00 . P76 : ... .. . ... : ... .. . ... ...
ROW CB : ... .. . ... ... ... : ... .. . ... ... ... : G-2 00 . P7C : ... .. C ... : ... .. . ... ...
ROW CC : ... .. . ... ... ... : ... .. . ... ... ... : E-2 00 . P78 : ... .. B ... : ... .. . ... ...
ROW CD : ... .. D ... ... ... : ... .. D ... ... ... : C#2 00 . P88 : ... .. 9 ... : ... .. . ... ...
ROW CE : ... .. . ... ... ... : ... .. . ... ... ... : B-1 00 . P7B : ... .. 6 ... : ... .. . ... ...
ROW CF : ... .. . ... ... ... : ... .. . ... ... ... : A-1 00 . P7A : ... .. 5 ... : ... .. . ... ...
ROW D0 : ... .. C ... ... ... : ... .. C ... ... ... : G-1 00 . P86 : ... .. 3 ... : ... .. . ... ...
ROW D1 : ... .. . ... ... ... : ... .. . ... ... ... : F-1 00 . PA2 : ... .. 1 ... : ... .. . ... ...
ROW D2 : ... .. . ... ... ... : ... .. . ... ... ... : E-1 00 . P7E : ... .. 0 ... : ... .. . ... ...
ROW D3 : ... .. B ... ... ... : ... .. B ... ... ... : D#1 00 . P5F : ... .. . ... : ... .. . ... ...
ROW D4 : ... .. . ... ... ... : ... .. . ... ... ... : --- .. . ... : D-# 00 F ... : ... .. . ... ...
ROW D5 : ... .. . ... ... ... : ... .. . ... ... ... : G-2 00 . P80 : ... .. . ... : ... .. . ... ...
ROW D6 : ... .. A ... ... ... : ... .. A ... ... ... : ... .. . ... : ... .. . ... : ... .. . ... ...
ROW D7 : ... .. . ... ... ... : ... .. . ... ... ... : ... .. . ... : ... .. C ... : ... .. . ... ...
ROW D8 : ... .. . ... ... ... : ... .. . ... ... ... : ... .. . ... : ... .. B ... : ... .. . ... ...
ROW D9 : ... .. 9 ... ... ... : ... .. 9 ... ... ... : ... .. . ... : ... .. 9 ... : ... .. . ... ...
ROW DA : ... .. . ... ... ... : ... .. . ... ... ... : ... .. . ... : ... .. 6 ... : ... .. . ... ...
ROW DB : ... .. . ... ... ... : ... .. . ... ... ... : ... .. . ... : ... .. 5 ... : ... .. . ... ...
ROW DC : ... .. 8 ... ... ... : ... .. 8 ... ... ... : ... .. . ... : ... .. 3 ... : ... .. . ... ...
ROW DD : ... .. . ... ... ... : ... .. . ... ... ... : ... .. . ... : ... .. 1 ... : ... .. . ... ...
ROW DE : ... .. 7 ... ... ... : ... .. 7 ... ... ... : ... .. . ... : ... .. 0 ... : ... .. . ... ...
ROW DF : ... .. . ... ... ... : ... .. . ... ... ... : ... .. . ... : ... .. . ... : ... .. . ... ...
ROW E0 : ... .. 0 ... V00 ... : ... .. 0 ... V00 ... : --- .. . ... : 1-# 00 F ... : ... .. . ... ...
ROW E1 : F-3 00 F P80 V01 ... : A-3 00 F P80 V01 ... : D#3 00 . P89 : ... .. . ... : ... .. . ... ...
ROW E2 : ... .. E ... ... ... : ... .. E ... ... ... : B-2 00 . P76 : ... .. . ... : ... .. . ... ...
ROW E3 : ... .. . ... ... ... : ... .. . ... ... ... : G-2 00 . P7C : ... .. C ... : ... .. . ... ...
ROW E4 : ... .. . ... ... ... : ... .. . ... ... ... : E-2 00 . P78 : ... .. B ... : ... .. . ... ...
ROW E5 : ... .. D ... ... ... : ... .. D ... ... ... : C#2 00 . P88 : ... .. 9 ... : ... .. . ... ...
ROW E6 : ... .. . ... ... ... : ... .. . ... ... ... : B-1 00 . P7B : ... .. 6 ... : ... .. . ... ...
ROW E7 : ... .. . ... ... ... : ... .. . ... ... ... : A-1 00 . P7A : ... .. 5 ... : ... .. . ... ...
ROW E8 : ... .. C ... ... ... : ... .. C ... ... ... : G-1 00 . P86 : ... .. 3 ... : ... .. . ... ...
ROW E9 : ... .. . ... ... ... : ... .. . ... ... ... : F-1 00 . PA2 : ... .. 1 ... : ... .. . ... ...
ROW EA : ... .. . ... ... ... : ... .. . ... ... ... : E-1 00 . P7E : ... .. 0 ... : ... .. . ... ...
ROW EB : ... .. B ... ... ... : ... .. B ... ... ... : D#1 00 . P5F : ... .. . ... : ... .. . ... ...
ROW EC : ... .. . ... ... ... : ... .. . ... ... ... : --- .. . ... : D-# 00 F ... : ... .. . ... ...
ROW ED : ... .. . ... ... ... : ... .. . ... ... ... : F-2 00 . P80 : ... .. . ... : ... .. . ... ...
ROW EE : ... .. A ... ... ... : ... .. A ... ... ... : ... .. . ... : ... .. . ... : ... .. . ... ...
ROW EF : ... .. . ... ... ... : ... .. . ... ... ... : ... .. . ... : ... .. C ... : ... .. . ... ...
ROW F0 : ... .. . ... ... ... : ... .. . ... ... ... : ... .. . ... : ... .. B ... : ... .. . ... ...
ROW F1 : ... .. 9 ... ... ... : ... .. 9 ... ... ... : ... .. . ... : ... .. 9 ... : ... .. . ... ...
ROW F2 : ... .. . ... ... ... : ... .. . ... ... ... : ... .. . ... : ... .. 6 ... : ... .. . ... ...
ROW F3 : ... .. . ... ... ... : ... .. . ... ... ... : ... .. . ... : ... .. 5 ... : ... .. . ... ...
ROW F4 : ... .. 8 ... ... ... : ... .. 8 ... ... ... : ... .. . ... : ... .. 3 ... : ... .. . ... ...
ROW F5 : ... .. . ... ... ... : ... .. . ... ... ... : ... .. . ... : ... .. 1 ... : ... .. . ... ...
ROW F6 : ... .. 7 ... ... ... : ... .. 7 ... ... ... : ... .. . ... : ... .. 0 ... : ... .. . ... ...
ROW F7 : ... .. . ... ... ... : ... .. . ... ... ... : ... .. . ... : ... .. . ... : ... .. . ... ...
ROW F8 : ... .. 0 ... V00 ... : ... .. 0 ... V00 ... : --- .. . ... : 4-# 00 F ... : ... .. . ... ...
ROW F9 : G-3 00 F P80 V01 ... : B-3 00 F P80 V01 ... : D#3 00 . P89 : ... .. . ... : ... .. . ... ...
ROW FA : ... .. E ... ... ... : ... .. E ... ... ... : B-2 00 . P76 : ... .. . ... : ... .. . ... ...
ROW FB : ... .. . ... ... ... : ... .. . ... ... ... : G-2 00 . P7C : ... .. C ... : ... .. . ... ...
ROW FC : ... .. . ... ... ... : ... .. . ... ... ... : E-2 00 . P78 : ... .. B ... : ... .. . ... ...
ROW FD : ... .. D ... ... ... : ... .. D ... ... ... : C#2 00 . P88 : ... .. 9 ... : ... .. . ... ...
ROW FE : ... .. . ... ... ... : ... .. . ... ... ... : B-1 00 . P7B : ... .. 6 ... : ... .. . ... ...
ROW FF : ... .. . ... ... ... : ... .. . ... ... ... : A-1 00 . P7A : ... .. 5 ... : ... .. . ... ...

PATTERN 0B
ROW 00 : ... .. C ... ... ... : ... .. C ... ... ... : G-1 00 . P86 : ... .. 3 ... : ... .. . ... ...
ROW 01 : ... .. . ... ... ... : ... .. . ... ... ... : F-1 00 . PA2 : ... .. 1 ... : ... .. . ... ...
ROW 02 : ... .. . ... ... ... : ... .. . ... ... ... : E-1 00 . P7E : ... .. 0 ... : ... .. . ... ...
ROW 03 : ... .. B ... ... ... : ... .. B ... ... ... : D#1 00 . P5F : ... .. . ... : ... .. . ... ...
ROW 04 : ... .. 0 ... V00 ... : ... .. 0 ... V00 ... : --- .. . ... : D-# 00 F ... : ... .. . ... ...
ROW 05 : A-3 00 F P80 V01 ... : C-4 00 F P80 V01 ... : F-2 00 . P80 : ... .. . ... : ... .. . ... ...
ROW 06 : ... .. E ... ... ... : ... .. E ... ... ... : ... .. . ... : ... .. . ... : ... .. . ... ...
ROW 07 : ... .. . ... ... ... : ... .. . ... ... ... : ... .. . ... : ... .. C ... : ... .. . ... ...
ROW 08 : ... .. . ... ... ... : ... .. . ... ... ... : ... .. . ... : ... .. B ... : ... .. . ... ...
ROW 09 : ... .. D ... ... ... : ... .. D ... ... ... : ... .. . ... : ... .. 9 ... : ... .. . ... ...
ROW 0A : ... .. . ... ... ... : ... .. . ... ... ... : ... .. . ... : ... .. 6 ... : ... .. . ... ...
ROW 0B : ... .. . ... ... ... : ... .. . ... ... ... : ... .. . ... : ... .. 5 ... : ... .. . ... ...
ROW 0C : ... .. C ... ... ... : ... .. C ... ... ... : ... .. . ... : ... .. 3 ... : ... .. . ... ...
ROW 0D : ... .. . ... ... ... : ... .. . ... ... ... : ... .. . ... : ... .. 1 ... : ... .. . ... ...
ROW 0E : ... .. . ... ... ... : ... .. . ... ... ... : ... .. . ... : ... .. 0 ... : ... .. . ... ...
ROW 0F : ... .. B ... ... ... : ... .. B ... ... ... : ... .. . ... : ... .. . ... : ... .. . ... ...
ROW 10 : ... .. . ... ... ... : ... .. . ... ... ... : --- .. . ... : 1-# 00 F ... : ... .. . ... ...
ROW 11 : ... .. . ... ... ... : ... .. . ... ... ... : D#3 00 . P89 : ... .. . ... : ... .. . ... ...
ROW 12 : ... .. A ... ... ... : ... .. A ... ... ... : B-2 00 . P76 : ... .. . ... : ... .. . ... ...
ROW 13 : ... .. . ... ... ... : ... .. . ... ... ... : G-2 00 . P7C : ... .. C ... : ... .. . ... ...
ROW 14 : ... .. . ... ... ... : ... .. . ... ... ... : E-2 00 . P78 : ... .. B ... : ... .. . ... ...
ROW 15 : ... .. 9 ... ... ... : ... .. 9 ... ... ... : C#2 00 . P88 : ... .. 9 ... : ... .. . ... ...
ROW 16 : ... .. . ... ... ... : ... .. . ... ... ... : B-1 00 . P7B : ... .. 6 ... : ... .. . ... ...
ROW 17 : ... .. . ... ... ... : ... .. . ... ... ... : A-1 00 . P7A : ... .. 5 ... : ... .. . ... ...
ROW 18 : ... .. 8 ... ... ... : ... .. 8 ... ... ... : G-1 00 . P86 : ... .. 3 ... : ... .. . ... ...
ROW 19 : ... .. . ... ... ... : ... .. . ... ... ... : F-1 00 . PA2 : ... .. 1 ... : ... .. . ... ...
ROW 1A : ... .. 7 ... ... ... : ... .. 7 ... ... ... : E-1 00 . P7E : ... .. 0 ... : ... .. . ... ...
ROW 1B : ... .. . ... ... ... : ... .. . ... ... ... : D#1 00 . P5F : ... .. . ... : ... .. . ... ...
ROW 1C : ... .. 0 ... V00 ... : ... .. 0 ... V00 ... : --- .. . ... : D-# 00 F ... : ... .. . ... ...
ROW 1D : C-4 00 F P80 V01 ... : E-4 00 F P80 V01 ... : F-2 00 . P80 : ... .. . ... : ... .. . ... ...
ROW 1E : ... .. E ... ... ... : ... .. E ... ... ... : ... .. . ... : ... .. . ... : ... .. . ... ...
ROW 1F : ... .. . ... ... ... : ... .. . ... ... ... : ... .. . ... : ... .. C ... : ... .. . ... ...
ROW 20 : ... .. . ... ... ... : ... .. . ... ... ... : ... .. . ... : ... .. B ... : ... .. . ... ...
ROW 21 : ... .. D ... ... ... : ... .. D ... ... ... : ... .. . ... : ... .. 9 ... : ... .. . ... ...
ROW 22 : ... .. . ... ... ... : ... .. . ... ... ... : ... .. . ... : ... .. 6 ... : ... .. . ... ...
ROW 23 : ... .. . ... ... ... : ... .. . ... ... ... : ... .. . ... : ... .. 5 ... : ... .. . ... ...
ROW 24 : ... .. C ... ... ... : ... .. C ... ... ... : ... .. . ... : ... .. 3 ... : ... .. . ... ...
ROW 25 : ... .. . ... ... ... : ... .. . ... ... ... : ... .. . ... : ... .. 1 ... : ... .. . ... ...
ROW 26 : ... .. . ... ... ... : ... .. . ... ... ... : ... .. . ... : ... .. 0 ... : ... .. . ... ...
ROW 27 : ... .. B ... ... ... : ... .. B ... ... ... : ... .. . ... : ... .. . ... : ... .. . ... ...
ROW 28 : ... .. 0 ... V00 ... : ... .. 0 ... V00 ... : --- .. . ... : 4-# 00 F ... : ... .. . ... ...
ROW 29 : B-3 00 F P80 V01 ... : D-4 00 F P80 V01 ... : D#3 00 . P89 : ... .. . ... : ... .. . ... ...
ROW 2A : ... .. E ... ... ... : ... .. E ... ... ... : B-2 00 . P76 : ... .. . ... : ... .. . ... ...
ROW 2B : ... .. . ... ... ... : ... .. . ... ... ... : G-2 00 . P7C : ... .. C ... : ... .. . ... ...
ROW 2C : ... .. . ... ... ... : ... .. . ... ... ... : E-2 00 . P78 : ... .. B ... : ... .. . ... ...
ROW 2D : ... .. D ... ... ... : ... .. D ... ... ... : C#2 00 . P88 : ... .. 9 ... : ... .. . ... ...
ROW 2E : ... .. . ... ... ... : ... .. . ... ... ... : B-1 00 . P7B : ... .. 6 ... : ... .. . ... ...
ROW 2F : ... .. . ... ... ... : ... .. . ... ... ... : A-1 00 . P7A : ... .. 5 ... : ... .. . ... ...
ROW 30 : ... .. C ... ... ... : ... .. C ... ... ... : G-1 00 . P86 : ... .. 3 ... : ... .. . ... ...
ROW 31 : ... .. . ... ... ... : ... .. . ... ... ... : F-1 00 . PA2 : ... .. 1 ... : ... .. . ... ...
ROW 32 : ... .. . ... ... ... : ... .. . ... ... ... : E-1 00 . P7E : ... .. 0 ... : ... .. . ... ...
ROW 33 : ... .. B ... ... ... : ... .. B ... ... ... : D#1 00 . P5F : ... .. . ... : ... .. . ... ...
ROW 34 : ... .. 0 ... V00 ... : ... .. 0 ... V00 ... : --- .. . ... : D-# 00 F ... : ... .. . ... ...
ROW 35 : A-3 00 F P80 V01 ... : C-4 00 F P80 V01 ... : F-2 00 . P80 : ... .. . ... : ... .. . ... ...
ROW 36 : ... .. E ... ... ... : ... .. E ... ... ... : ... .. . ... : ... .. . ... : ... .. . ... ...
ROW 37 : ... .. . ... ... ... : ... .. . ... ... ... : ... .. . ... : ... .. C ... : ... .. . ... ...
ROW 38 : ... .. . ... ... ... : ... .. . ... ... ... : ... .. . ... : ... .. B ... : ... .. . ... ...
ROW 39 : ... .. D ... ... ... : ... .. D ... ... ... : ... .. . ... : ... .. 9 ... : ... .. . ... ...
ROW 3A : ... .. . ... ... ... : ... .. . ... ... ... : ... .. . ... : ... .. 6 ... : ... .. . ... ...
ROW 3B : ... .. . ... ... ... : ... .. . ... ... ... : ... .. . ... : ... .. 5 ... : ... .. . ... ...
ROW 3C : ... .. C ... ... ... : ... .. C ... ... ... : ... .. . ... : ... .. 3 ... : ... .. . ... ...
ROW 3D : ... .. . ... ... ... : ... .. . ... ... ... : ... .. . ... : ... .. 1 ... : ... .. . ... ...
ROW 3E : ... .. . ... ... ... : ... .. . ... ... ... : ... .. . ... : ... .. 0 ... : ... .. . ... ...
ROW 3F : ... .. B ... ... ... : ... .. B ... ... ... : ... .. . ... : ... .. . ... : ... .. . ... ...
ROW 40 : ... .. 0 ... V00 ... : ... .. 0 ... V00 ... : --- .. . ... : 1-# 00 F ... : ... .. . ... ...
ROW 41 : E-4 00 F P80 V01 ... : G-4 00 F P80 V01 ... : D#3 00 . P89 : ... .. . ... : ... .. . ... ...
ROW 42 : ... .. E ... ... ... : ... .. E ... ... ... : B-2 00 . P76 : ... .. . ... : ... .. . ... ...
ROW 43 : ... .. . ... ... ... : ... .. . ... ... ... : G-2 00 . P7C : ... .. C ... : ... .. . ... ...
ROW 44 : ... .. . ... ... ... : ... .. . ... ... ... : E-2 00 . P78 : ... .. B ... : ... .. . ... ...
ROW 45 : ... .. D ... ... ... : ... .. D ... ... ... : C#2 00 . P88 : ... .. 9 ... : ... .. . ... ...
ROW 46 : ... .. . ... ... ... : ... .. . ... ... ... : B-1 00 . P7B : ... .. 6 ... : ... .. . ... ...
ROW 47 : ... .. . ... ... ... : ... .. . ... ... ... : A-1 00 . P7A : ... .. 5 ... : ... .. . ... ...
ROW 48 : ... .. C ... ... ... : ... .. C ... ... ... : G-1 00 . P86 : ... .. 3 ... : ... .. . ... ...
ROW 49 : ... .. . ... ... ... : ... .. . ... ... ... : F-1 00 . PA2 : ... .. 1 ... : ... .. . ... ...
ROW 4A : ... .. . ... ... ... : ... .. . ... ... ... : E-1 00 . P7E : ... .. 0 ... : ... .. . ... ...
ROW 4B : ... .. B ... ... ... : ... .. B ... ... ... : D#1 00 . P5F : ... .. . ... : ... .. . ... ...
ROW 4C : ... .. . ... ... ... : ... .. . ... ... ... : --- .. . ... : D-# 00 F ... : ... .. . ... ...
ROW 4D : ... .. . ... ... ... : ... .. . ... ... ... : C-3 00 . P80 : ... .. . ... : ... .. . ... ...
ROW 4E : ... .. A ... ... ... : ... .. A ... ... ... : ... .. . ... : ... .. . ... : ... .. . ... ...
ROW 4F : ... .. . ... ... ... : ... .. . ... ... ... : ... .. . ... : ... .. C ... : ... .. . ... ...
ROW 50 : ... .. . ... ... ... : ... .. . ... ... ... : ... .. . ... : ... .. B ... : ... .. . ... ...
ROW 51 : ... .. 9 ... ... ... : ... .. 9 ... ... ... : ... .. . ... : ... .. 9 ... : ... .. . ... ...
ROW 52 : ... .. . ... ... ... : ... .. . ... ... ... : ... .. . ... : ... .. 6 ... : ... .. . ... ...
ROW 53 : ... .. . ... ... ... : ... .. . ... ... ... : ... .. . ... : ... .. 5 ... : ... .. . ... ...
ROW 54 : ... .. 8 ... ... ... : ... .. 8 ... ... ... : ... .. . ... : ... .. 3 ... : ... .. . ... ...
ROW 55 : ... .. . ... ... ... : ... .. . ... ... ... : ... .. . ... : ... .. 1 ... : ... .. . ... ...
ROW 56 : ... .. 7 ... ... ... : ... .. 7 ... ... ... : ... .. . ... : ... .. 0 ... : ... .. . ... ...
ROW 57 : ... .. . ... ... ... : ... .. . ... ... ... : ... .. . ... : ... .. . ... : ... .. . ... ...
ROW 58 : ... .. 6 ... ... ... : ... .. 6 ... ... ... : --- .. . ... : 4-# 00 F ... : ... .. . ... ...
ROW 59 : ... .. . ... ... ... : ... .. . ... ... ... : D#3 00 . P89 : ... .. . ... : ... .. . ... ...
ROW 5A : ... .. . ... ... ... : ... .. . ... ... ... : B-2 00 . P76 : ... .. . ... : ... .. . ... ...
ROW 5B : ... .. 5 ... ... ... : ... .. 5 ... ... ... : G-2 00 . P7C : ... .. C ... : ... .. . ... ...
ROW 5C : ... .. . ... ... ... : ... .. . ... ... ... : E-2 00 . P78 : ... .. B ... : ... .. . ... ...
ROW 5D : ... .. 4 ... ... ... : ... .. 4 ... ... ... : C#2 00 . P88 : ... .. 9 ... : ... .. . ... ...
ROW 5E : ... .. . ... ... ... : ... .. . ... ... ... : B-1 00 . P7B : ... .. 6 ... : ... .. . ... ...
ROW 5F : ... .. 3 ... ... ... : ... .. 3 ... ... ... : A-1 00 . P7A : ... .. 5 ... : ... .. . ... ...
ROW 60 : ... .. . ... ... ... : ... .. . ... ... ... : G-1 00 . P86 : ... .. 3 ... : ... .. . ... ...
ROW 61 : ... .. 2 ... ... ... : ... .. 2 ... ... ... : F-1 00 . PA2 : ... .. 1 ... : ... .. . ... ...
ROW 62 : ... .. 1 ... ... ... : ... .. 1 ... ... ... : E-1 00 . P7E : ... .. 0 ... : ... .. . ... ...
ROW 63 : ... .. . ... ... ... : ... .. . ... ... ... : D#1 00 . P5F : ... .. . ... : ... .. . ... ...
ROW 64 : ... .. 0 ... V00 ... : ... .. 0 ... V00 ... : --- .. . ... : D-# 00 F ... : ... .. . ... ...
ROW 65 : C-4 00 F P80 V01 ... : F-4 00 F P80 V01 ... : C-3 00 . P80 : ... .. . ... : ... .. . ... ...
ROW 66 : ... .. E ... ... ... : ... .. E ... ... ... : ... .. . ... : ... .. . ... : ... .. . ... ...
ROW 67 : ... .. . ... ... ... : ... .. . ... ... ... : ... .. . ... : ... .. C ... : ... .. . ... ...
ROW 68 : ... .. . ... ... ... : ... .. . ... ... ... : ... .. . ... : ... .. B ... : ... .. . ... ...
ROW 69 : ... .. D ... ... ... : ... .. D ... ... ... : ... .. . ... : ... .. 9 ... : ... .. . ... ...
ROW 6A : ... .. . ... ... ... : ... .. . ... ... ... : ... .. . ... : ... .. 6 ... : ... .. . ... ...
ROW 6B : ... .. . ... ... ... : ... .. . ... ... ... : ... .. . ... : ... .. 5 ... : ... .. . ... ...
ROW 6C : ... .. C ... ... ... : ... .. C ... ... ... : ... .. . ... : ... .. 3 ... : ... .. . ... ...
ROW 6D : ... .. . ... ... ... : ... .. . ... ... ... : ... .. . ... : ... .. 1 ... : ... .. . ... ...
ROW 6E : ... .. . ... ... ... : ... .. . ... ... ... : ... .. . ... : ... .. 0 ... : ... .. . ... ...
ROW 6F : ... .. B ... ... ... : ... .. B ... ... ... : ... .. . ... : ... .. . ... : ... .. . ... ...
ROW 70 : ... .. . ... ... ... : ... .. . ... ... ... : --- .. . ... : 1-# 00 F ... : ... .. . ... ...
ROW 71 : ... .. . ... ... ... : ... .. . ... ... ... : D#3 00 . P89 : ... .. . ... : ... .. . ... ...
ROW 72 : ... .. A ... ... ... : ... .. A ... ... ... : B-2 00 . P76 : ... .. . ... : ... .. . ... ...
ROW 73 : ... .. . ... ... ... : ... .. . ... ... ... : G-2 00 . P7C : ... .. C ... : ... .. . ... ...
ROW 74 : ... .. . ... ... ... : ... .. . ... ... ... : E-2 00 . P78 : ... .. B ... : ... .. . ... ...
ROW 75 : ... .. 9 ... ... ... : ... .. 9 ... ... ... : C#2 00 . P88 : ... .. 9 ... : ... .. . ... ...
ROW 76 : ... .. . ... ... ... : ... .. . ... ... ... : B-1 00 . P7B : ... .. 6 ... : ... .. . ... ...
ROW 77 : ... .. . ... ... ... : ... .. . ... ... ... : A-1 00 . P7A : ... .. 5 ... : ... .. . ... ...
ROW 78 : ... .. 8 ... ... ... : ... .. 8 ... ... ... : G-1 00 . P86 : ... .. 3 ... : ... .. . ... ...
ROW 79 : ... .. . ... ... ... : ... .. . ... ... ... : F-1 00 . PA2 : ... .. 1 ... : ... .. . ... ...
ROW 7A : ... .. 7 ... ... ... : ... .. 7 ... ... ... : E-1 00 . P7E : ... .. 0 ... : ... .. . ... ...
ROW 7B : ... .. . ... ... ... : ... .. . ... ... ... : D#1 00 . P5F : ... .. . ... : ... .. . ... ...
ROW 7C : ... .. 6 ... ... ... : ... .. 6 ... ... ... : --- .. . ... : D-# 00 F ... : ... .. . ... ...
ROW 7D : ... .. . ... ... ... : ... .. . ... ... ... : C-3 00 . P80 : ... .. . ... : ... .. . ... ...
ROW 7E : ... .. . ... ... ... : ... .. . ... ... ... : ... .. . ... : ... .. . ... : ... .. . ... ...
ROW 7F : ... .. 5 ... ... ... : ... .. 5 ... ... ... : ... .. . ... : ... .. C ... : ... .. . ... ...
ROW 80 : ... .. . ... ... ... : ... .. . ... ... ... : ... .. . ... : ... .. B ... : ... .. . ... ...
ROW 81 : ... .. 4 ... ... ... : ... .. 4 ... ... ... : ... .. . ... : ... .. 9 ... : ... .. . ... ...
ROW 82 : ... .. . ... ... ... : ... .. . ... ... ... : ... .. . ... : ... .. 6 ... : ... .. . ... ...
ROW 83 : ... .. 3 ... ... ... : ... .. 3 ... ... ... : ... .. . ... : ... .. 5 ... : ... .. . ... ...
ROW 84 : ... .. . ... ... ... : ... .. . ... ... ... : ... .. . ... : ... .. 3 ... : ... .. . ... ...
ROW 85 : ... .. 2 ... ... ... : ... .. 2 ... ... ... : ... .. . ... : ... .. 1 ... : ... .. . ... ...
ROW 86 : ... .. 1 ... ... ... : ... .. 1 ... ... ... : ... .. . ... : ... .. 0 ... : ... .. . ... ...
ROW 87 : ... .. . ... ... ... : ... .. . ... ... ... : ... .. . ... : ... .. . ... : ... .. . ... ...
ROW 88 : ... .. 0 ... V00 ... : ... .. 0 ... V00 ... : --- .. . ... : 4-# 00 F ... : ... .. . ... ...
ROW 89 : C-4 00 F P80 V01 ... : E-4 00 F P80 V01 ... : D#3 00 . P89 : ... .. . ... : ... .. . ... ...
ROW 8A : ... .. E ... ... ... : ... .. E ... ... ... : B-2 00 . P76 : ... .. . ... : ... .. . ... ...
ROW 8B : ... .. . ... ... ... : ... .. . ... ... ... : G-2 00 . P7C : ... .. C ... : ... .. . ... ...
ROW 8C : ... .. . ... ... ... : ... .. . ... ... ... : E-2 00 . P78 : ... .. B ... : ... .. . ... ...
ROW 8D : ... .. D ... ... ... : ... .. D ... ... ... : C#2 00 . P88 : ... .. 9 ... : ... .. . ... ...
ROW 8E : ... .. . ... ... ... : ... .. . ... ... ... : B-1 00 . P7B : ... .. 6 ... : ... .. . ... ...
ROW 8F : ... .. . ... ... ... : ... .. . ... ... ... : A-1 00 . P7A : ... .. 5 ... : ... .. . ... ...
ROW 90 : ... .. C ... ... ... : ... .. C ... ... ... : G-1 00 . P86 : ... .. 3 ... : ... .. . ... ...
ROW 91 : ... .. . ... ... ... : ... .. . ... ... ... : F-1 00 . PA2 : ... .. 1 ... : ... .. . ... ...
ROW 92 : ... .. . ... ... ... : ... .. . ... ... ... : E-1 00 . P7E : ... .. 0 ... : ... .. . ... ...
ROW 93 : ... .. B ... ... ... : ... .. B ... ... ... : D#1 00 . P5F : ... .. . ... : ... .. . ... ...
ROW 94 : ... .. . ... ... ... : ... .. . ... ... ... : --- .. . ... : D-# 00 F ... : ... .. . ... ...
ROW 95 : ... .. . ... ... ... : ... .. . ... ... ... : C-3 00 . P80 : ... .. . ... : ... .. . ... ...
ROW 96 : ... .. A ... ... ... : ... .. A ... ... ... : ... .. . ... : ... .. . ... : ... .. . ... ...
ROW 97 : ... .. . ... ... ... : ... .. . ... ... ... : ... .. . ... : ... .. C ... : ... .. . ... ...
ROW 98 : ... .. . ... ... ... : ... .. . ... ... ... : ... .. . ... : ... .. B ... : ... .. . ... ...
ROW 99 : ... .. 9 ... ... ... : ... .. 9 ... ... ... : ... .. . ... : ... .. 9 ... : ... .. . ... ...
ROW 9A : ... .. . ... ... ... : ... .. . ... ... ... : ... .. . ... : ... .. 6 ... : ... .. . ... ...
ROW 9B : ... .. . ... ... ... : ... .. . ... ... ... : ... .. . ... : ... .. 5 ... : ... .. . ... ...
ROW 9C : ... .. 8 ... ... ... : ... .. 8 ... ... ... : ... .. . ... : ... .. 3 ... : ... .. . ... ...
ROW 9D : ... .. . ... ... ... : ... .. . ... ... ... : ... .. . ... : ... .. 1 ... : ... .. . ... ...
ROW 9E : ... .. 7 ... ... ... : ... .. 7 ... ... ... : ... .. . ... : ... .. 0 ... : ... .. . ... ...
ROW 9F : ... .. . ... ... ... : ... .. . ... ... ... : ... .. . ... : ... .. . ... : ... .. . ... ...
ROW A0 : ... .. 0 ... V00 ... : ... .. 0 ... V00 ... : --- .. . ... : 1-# 00 F ... : ... .. . ... ...
ROW A1 : G-3 00 F P80 V01 ... : D-4 00 F P80 V01 ... : D#3 00 . P89 : ... .. . ... : ... .. . ... ...
ROW A2 : ... .. E ... ... ... : ... .. E ... ... ... : B-2 00 . P76 : ... .. . ... : ... .. . ... ...
ROW A3 : ... .. . ... ... ... : ... .. . ... ... ... : G-2 00 . P7C : ... .. C ... : ... .. . ... ...
ROW A4 : ... .. . ... ... ... : ... .. . ... ... ... : E-2 00 . P78 : ... .. B ... : ... .. . ... ...
ROW A5 : ... .. D ... ... ... : ... .. D ... ... ... : C#2 00 . P88 : ... .. 9 ... : ... .. . ... ...
ROW A6 : ... .. . ... ... ... : ... .. . ... ... ... : B-1 00 . P7B : ... .. 6 ... : ... .. . ... ...
ROW A7 : ... .. . ... ... ... : ... .. . ... ... ... : A-1 00 . P7A : ... .. 5 ... : ... .. . ... ...
ROW A8 : ... .. C ... ... ... : ... .. C ... ... ... : G-1 00 . P86 : ... .. 3 ... : ... .. . ... ...
ROW A9 : ... .. . ... ... ... : ... .. . ... ... ... : F-1 00 . PA2 : ... .. 1 ... : ... .. . ... ...
ROW AA : ... .. . ... ... ... : ... .. . ... ... ... : E-1 00 . P7E : ... .. 0 ... : ... .. . ... ...
ROW AB : ... .. B ... ... ... : ... .. B ... ... ... : D#1 00 . P5F : ... .. . ... : ... .. . ... ...
ROW AC : ... .. . ... ... ... : ... .. . ... ... ... : --- .. . ... : D-# 00 F ... : ... .. . ... ...
ROW AD : ... .. . ... ... ... : ... .. . ... ... ... : G-2 00 . P80 : ... .. . ... : ... .. . ... ...
ROW AE : ... .. A ... ... ... : ... .. A ... ... ... : ... .. . ... : ... .. . ... : ... .. . ... ...
ROW AF : ... .. . ... ... ... : ... .. . ... ... ... : ... .. . ... : ... .. C ... : ... .. . ... ...
ROW B0 : ... .. . ... ... ... : ... .. . ... ... ... : ... .. . ... : ... .. B ... : ... .. . ... ...
ROW B1 : ... .. 9 ... ... ... : ... .. 9 ... ... ... : ... .. . ... : ... .. 9 ... : ... .. . ... ...
ROW B2 : ... .. . ... ... ... : ... .. . ... ... ... : ... .. . ... : ... .. 6 ... : ... .. . ... ...
ROW B3 : ... .. . ... ... ... : ... .. . ... ... ... : ... .. . ... : ... .. 5 ... : ... .. . ... ...
ROW B4 : ... .. 8 ... ... ... : ... .. 8 ... ... ... : ... .. . ... : ... .. 3 ... : ... .. . ... ...
ROW B5 : ... .. . ... ... ... : ... .. . ... ... ... : ... .. . ... : ... .. 1 ... : ... .. . ... ...
ROW B6 : ... .. 7 ... ... ... : ... .. 7 ... ... ... : ... .. . ... : ... .. 0 ... : ... .. . ... ...
ROW B7 : ... .. . ... ... ... : ... .. . ... ... ... : ... .. . ... : ... .. . ... : ... .. . ... ...
ROW B8 : ... .. 0 ... V00 ... : ... .. 0 ... V00 ... : --- .. . ... : 4-# 00 F ... : ... .. . ... ...
ROW B9 : G-3 00 F P80 V01 ... : B-3 00 F P80 V01 ... : D#3 00 . P89 : ... .. . ... : ... .. . ... ...
ROW BA : ... .. E ... ... ... : ... .. E ... ... ... : B-2 00 . P76 : ... .. . ... : ... .. . ... ...
ROW BB : ... .. . ... ... ... : ... .. . ... ... ... : G-2 00 . P7C : ... .. C ... : ... .. . ... ...
ROW BC : ... .. . ... ... ... : ... .. . ... ... ... : E-2 00 . P78 : ... .. B ... : ... .. . ... ...
ROW BD : ... .. D ... ... ... : ... .. D ... ... ... : C#2 00 . P88 : ... .. 9 ... : ... .. . ... ...
ROW BE : ... .. . ... ... ... : ... .. . ... ... ... : B-1 00 . P7B : ... .. 6 ... : ... .. . ... ...
ROW BF : ... .. . ... ... ... : ... .. . ... ... ... : A-1 00 . P7A : ... .. 5 ... : ... .. . ... ...
ROW C0 : ... .. C ... ... ... : ... .. C ... ... ... : G-1 00 . P86 : ... .. 3 ... : ... .. . ... ...
ROW C1 : ... .. . ... ... ... : ... .. . ... ... ... : F-1 00 . PA2 : ... .. 1 ... : ... .. . ... ...
ROW C2 : ... .. . ... ... ... : ... .. . ... ... ... : E-1 00 . P7E : ... .. 0 ... : ... .. . ... ...
ROW C3 : ... .. B ... ... ... : ... .. B ... ... ... : D#1 00 . P5F : ... .. . ... : ... .. . ... ...
ROW C4 : ... .. 0 ... V00 ... : ... .. 0 ... V00 ... : --- .. . ... : D-# 00 F ... : ... .. . ... ...
ROW C5 : D-3 00 F P80 V01 ... : G-3 00 F P80 V01 ... : G-2 00 . P80 : ... .. . ... : ... .. . ... ...
ROW C6 : ... .. E ... ... ... : ... .. E ... ... ... : ... .. . ... : ... .. . ... : ... .. . ... ...
ROW C7 : ... .. . ... ... ... : ... .. . ... ... ... : ... .. . ... : ... .. C ... : ... .. . ... ...
ROW C8 : ... .. . ... ... ... : ... .. . ... ... ... : ... .. . ... : ... .. B ... : ... .. . ... ...
ROW C9 : ... .. D ... ... ... : ... .. D ... ... ... : ... .. . ... : ... .. 9 ... : ... .. . ... ...
ROW CA : ... .. . ... ... ... : ... .. . ... ... ... : ... .. . ... : ... .. 6 ... : ... .. . ... ...
ROW CB : ... .. . ... ... ... : ... .. . ... ... ... : ... .. . ... : ... .. 5 ... : ... .. . ... ...
ROW CC : ... .. C ... ... ... : ... .. C ... ... ... : ... .. . ... : ... .. 3 ... : ... .. . ... ...
ROW CD : ... .. . ... ... ... : ... .. . ... ... ... : ... .. . ... : ... .. 1 ... : ... .. . ... ...
ROW CE : ... .. . ... ... ... : ... .. . ... ... ... : ... .. . ... : ... .. 0 ... : ... .. . ... ...
ROW CF : ... .. B ... ... ... : ... .. B ... ... ... : ... .. . ... : ... .. . ... : ... .. . ... ...
ROW D0 : ... .. . ... ... ... : ... .. . ... ... ... : --- .. . ... : 1-# 00 F ... : ... .. . ... ...
ROW D1 : ... .. . ... ... ... : ... .. . ... ... ... : D#3 00 . P89 : ... .. . ... : ... .. . ... ...
ROW D2 : ... .. A ... ... ... : ... .. A ... ... ... : B-2 00 . P76 : ... .. . ... : ... .. . ... ...
ROW D3 : ... .. . ... ... ... : ... .. . ... ... ... : G-2 00 . P7C : ... .. C ... : ... .. . ... ...
ROW D4 : ... .. . ... ... ... : ... .. . ... ... ... : E-2 00 . P78 : ... .. B ... : ... .. . ... ...
ROW D5 : ... .. 9 ... ... ... : ... .. 9 ... ... ... : C#2 00 . P88 : ... .. 9 ... : ... .. . ... ...
ROW D6 : ... .. . ... ... ... : ... .. . ... ... ... : B-1 00 . P7B : ... .. 6 ... : ... .. . ... ...
ROW D7 : ... .. . ... ... ... : ... .. . ... ... ... : A-1 00 . P7A : ... .. 5 ... : ... .. . ... ...
ROW D8 : ... .. 8 ... ... ... : ... .. 8 ... ... ... : G-1 00 . P86 : ... .. 3 ... : ... .. . ... ...
ROW D9 : ... .. . ... ... ... : ... .. . ... ... ... : F-1 00 . PA2 : ... .. 1 ... : ... .. . ... ...
ROW DA : ... .. 7 ... ... ... : ... .. 7 ... ... ... : E-1 00 . P7E : ... .. 0 ... : ... .. . ... ...
ROW DB : ... .. . ... ... ... : ... .. . ... ... ... : D#1 00 . P5F : ... .. . ... : ... .. . ... ...
ROW DC : ... .. 0 ... V00 ... : ... .. 0 ... V00 ... : --- .. . ... : D-# 00 F ... : ... .. . ... ...
ROW DD : G-3 00 F P80 V01 ... : B-3 00 F P80 V01 ... : G-2 00 . P80 : ... .. . ... : ... .. . ... ...
ROW DE : ... .. E ... ... ... : ... .. E ... ... ... : ... .. . ... : ... .. . ... : ... .. . ... ...
ROW DF : ... .. . ... ... ... : ... .. . ... ... ... : ... .. . ... : ... .. C ... : ... .. . ... ...
ROW E0 : ... .. . ... ... ... : ... .. . ... ... ... : ... .. . ... : ... .. B ... : ... .. . ... ...
ROW E1 : ... .. D ... ... ... : ... .. D ... ... ... : ... .. . ... : ... .. 9 ... : ... .. . ... ...
ROW E2 : ... .. . ... ... ... : ... .. . ... ... ... : ... .. . ... : ... .. 6 ... : ... .. . ... ...
ROW E3 : ... .. . ... ... ... : ... .. . ... ... ... : ... .. . ... : ... .. 5 ... : ... .. . ... ...
ROW E4 : ... .. C ... ... ... : ... .. C ... ... ... : ... .. . ... : ... .. 3 ... : ... .. . ... ...
ROW E5 : ... .. . ... ... ... : ... .. . ... ... ... : ... .. . ... : ... .. 1 ... : ... .. . ... ...
ROW E6 : ... .. . ... ... ... : ... .. . ... ... ... : ... .. . ... : ... .. 0 ... : ... .. . ... ...
ROW E7 : ... .. B ... ... ... : ... .. B ... ... ... : ... .. . ... : ... .. . ... : ... .. . ... ...
ROW E8 : ... .. 0 ... V00 ... : ... .. 0 ... V00 ... : --- .. . ... : 4-# 00 F ... : ... .. . ... ...
ROW E9 : D-3 00 F P80 V01 ... : A-3 00 F P80 V01 ... : D#3 00 . P89 : ... .. . ... : ... .. . ... ...
ROW EA : ... .. E ... ... ... : ... .. E ... ... ... : B-2 00 . P76 : ... .. . ... : ... .. . ... ...
ROW EB : ... .. . ... ... ... : ... .. . ... ... ... : G-2 00 . P7C : ... .. C ... : ... .. . ... ...
ROW EC : ... .. . ... ... ... : ... .. . ... ... ... : E-2 00 . P78 : ... .. B ... : ... .. . ... ...
ROW ED : ... .. D ... ... ... : ... .. D ... ... ... : C#2 00 . P88 : ... .. 9 ... : ... .. . ... ...
ROW EE : ... .. . ... ... ... : ... .. . ... ... ... : B-1 00 . P7B : ... .. 6 ... : ... .. . ... ...
ROW EF : ... .. . ... ... ... : ... .. . ... ... ... : A-1 00 . P7A : ... .. 5 ... : ... .. . ... ...
ROW F0 : ... .. C ... ... ... : ... .. C ... ... ... : G-1 00 . P86 : ... .. 3 ... : ... .. . ... ...
ROW F1 : ... .. . ... ... ... : ... .. . ... ... ... : F-1 00 . PA2 : ... .. 1 ... : ... .. . ... ...
ROW F2 : ... .. . ... ... ... : ... .. . ... ... ... : E-1 00 . P7E : ... .. 0 ... : ... .. . ... ...
ROW F3 : ... .. B ... ... ... : ... .. B ... ... ... : D#1 00 . P5F : ... .. . ... : ... .. . ... ...
ROW F4 : ... .. 0 ... V00 ... : ... .. 0 ... V00 ... : --- .. . ... : D-# 00 F ... : ... .. . ... ...
ROW F5 : D-3 00 F P80 V01 ... : G-3 00 F P80 V01 ... : G-2 00 . P80 : ... .. . ... : ... .. . ... ...
ROW F6 : ... .. E ... ... ... : ... .. E ... ... ... : ... .. . ... : ... .. . ... : ... .. . ... ...
ROW F7 : ... .. . ... ... ... : ... .. . ... ... ... : ... .. . ... : ... .. C ... : ... .. . ... ...
ROW F8 : ... .. . ... ... ... : ... .. . ... ... ... : ... .. . ... : ... .. B ... : ... .. . ... ...
ROW F9 : ... .. D ... ... ... : ... .. D ... ... ... : ... .. . ... : ... .. 9 ... : ... .. . ... ...
ROW FA : ... .. . ... ... ... : ... .. . ... ... ... : ... .. . ... : ... .. 6 ... : ... .. . ... ...
ROW FB : ... .. . ... ... ... : ... .. . ... ... ... : ... .. . ... : ... .. 5 ... : ... .. . ... ...
ROW FC : ... .. C ... ... ... : ... .. C ... ... ... : ... .. . ... : ... .. 3 ... : ... .. . ... ...
ROW FD : ... .. . ... ... ... : ... .. . ... ... ... : ... .. . ... : ... .. 1 ... : ... .. . ... ...
ROW FE : ... .. . ... ... ... : ... .. . ... ... ... : ... .. . ... : ... .. 0 ... : ... .. . ... ...
ROW FF : ... .. B ... ... ... : ... .. B ... ... ... : ... .. . ... : ... .. . ... : ... .. . ... ...

PATTERN 0C
ROW 00 : ... .. 0 ... V00 ... : ... .. 0 ... V00 ... : --- .. . ... : 1-# 00 F ... : ... .. . ... ...
ROW 01 : D-3 00 F P80 V01 ... : G-3 00 F P80 V01 ... : D#3 00 . P89 : ... .. . ... : ... .. . ... ...
ROW 02 : ... .. E ... ... ... : ... .. E ... ... ... : B-2 00 . P76 : ... .. . ... : ... .. . ... ...
ROW 03 : ... .. . ... ... ... : ... .. . ... ... ... : G-2 00 . P7C : ... .. C ... : ... .. . ... ...
ROW 04 : ... .. . ... ... ... : ... .. . ... ... ... : E-2 00 . P78 : ... .. B ... : ... .. . ... ...
ROW 05 : ... .. D ... ... ... : ... .. D ... ... ... : C#2 00 . P88 : ... .. 9 ... : ... .. . ... ...
ROW 06 : ... .. . ... ... ... : ... .. . ... ... ... : B-1 00 . P7B : ... .. 6 ... : ... .. . ... ...
ROW 07 : ... .. . ... ... ... : ... .. . ... ... ... : A-1 00 . P7A : ... .. 5 ... : ... .. . ... ...
ROW 08 : ... .. C ... ... ... : ... .. C ... ... ... : G-1 00 . P86 : ... .. 3 ... : ... .. . ... ...
ROW 09 : ... .. . ... ... ... : ... .. . ... ... ... : F-1 00 . PA2 : ... .. 1 ... : ... .. . ... ...
ROW 0A : ... .. . ... ... ... : ... .. . ... ... ... : E-1 00 . P7E : ... .. 0 ... : ... .. . ... ...
ROW 0B : ... .. B ... ... ... : ... .. B ... ... ... : D#1 00 . P5F : ... .. . ... : ... .. . ... ...
ROW 0C : ... .. . ... ... ... : ... .. . ... ... ... : --- .. . ... : D-# 00 F ... : ... .. . ... ...
ROW 0D : ... .. . ... ... ... : ... .. . ... ... ... : G-2 00 . P80 : ... .. . ... : ... .. . ... ...
ROW 0E : ... .. A ... ... ... : ... .. A ... ... ... : ... .. . ... : ... .. . ... : ... .. . ... ...
ROW 0F : ... .. . ... ... ... : ... .. . ... ... ... : ... .. . ... : ... .. C ... : ... .. . ... ...
ROW 10 : ... .. . ... ... ... : ... .. . ... ... ... : ... .. . ... : ... .. B ... : ... .. . ... ...
ROW 11 : ... .. 9 ... ... ... : ... .. 9 ... ... ... : ... .. . ... : ... .. 9 ... : ... .. . ... ...
ROW 12 : ... .. . ... ... ... : ... .. . ... ... ... : ... .. . ... : ... .. 6 ... : ... .. . ... ...
ROW 13 : ... .. . ... ... ... : ... .. . ... ... ... : ... .. . ... : ... .. 5 ... : ... .. . ... ...
ROW 14 : ... .. 8 ... ... ... : ... .. 8 ... ... ... : ... .. . ... : ... .. 3 ... : ... .. . ... ...
ROW 15 : ... .. . ... ... ... : ... .. . ... ... ... : ... .. . ... : ... .. 1 ... : ... .. . ... ...
ROW 16 : ... .. 7 ... ... ... : ... .. 7 ... ... ... : ... .. . ... : ... .. 0 ... : ... .. . ... ...
ROW 17 : ... .. . ... ... ... : ... .. . ... ... ... : ... .. . ... : ... .. . ... : ... .. . ... ...
ROW 18 : ... .. 6 ... ... ... : ... .. 6 ... ... ... : --- .. . ... : 4-# 00 F ... : ... .. . ... ...
ROW 19 : ... .. . ... ... ... : ... .. . ... ... ... : D#3 00 . P89 : ... .. . ... : ... .. . ... ...
ROW 1A : ... .. . ... ... ... : ... .. . ... ... ... : B-2 00 . P76 : ... .. . ... : ... .. . ... ...
ROW 1B : ... .. 5 ... ... ... : ... .. 5 ... ... ... : G-2 00 . P7C : ... .. C ... : ... .. . ... ...
ROW 1C : ... .. . ... ... ... : ... .. . ... ... ... : E-2 00 . P78 : ... .. B ... : ... .. . ... ...
ROW 1D : ... .. 4 ... ... ... : ... .. 4 ... ... ... : C#2 00 . P88 : ... .. 9 ... : ... .. . ... ...
ROW 1E : ... .. . ... ... ... : ... .. . ... ... ... : B-1 00 . P7B : ... .. 6 ... : ... .. . ... ...
ROW 1F : ... .. 3 ... ... ... : ... .. 3 ... ... ... : A-1 00 . P7A : ... .. 5 ... : ... .. . ... ...
ROW 20 : ... .. . ... ... ... : ... .. . ... ... ... : G-1 00 . P86 : ... .. 3 ... : ... .. . ... ...
ROW 21 : ... .. 2 ... ... ... : ... .. 2 ... ... ... : F-1 00 . PA2 : ... .. 1 ... : ... .. . ... ...
ROW 22 : ... .. 1 ... ... ... : ... .. 1 ... ... ... : E-1 00 . P7E : ... .. 0 ... : ... .. . ... ...
ROW 23 : ... .. . ... ... ... : ... .. . ... ... ... : D#1 00 . P5F : ... .. . ... : ... .. . ... ...
ROW 24 : ... .. . ... ... ... : ... .. . ... ... ... : --- .. . ... : D-# 00 F ... : ... .. . ... ...
ROW 25 : ... .. . ... ... ... : ... .. . ... ... ... : G-2 00 . P80 : ... .. . ... : ... .. . ... ...
ROW 26 : ... .. . ... ... ... : ... .. . ... ... ... : ... .. . ... : ... .. . ... : ... .. . ... ...
ROW 27 : ... .. . ... ... ... : ... .. . ... ... ... : ... .. . ... : ... .. C ... : ... .. . ... ...
ROW 28 : ... .. . ... ... ... : ... .. . ... ... ... : ... .. . ... : ... .. B ... : ... .. . ... ...
ROW 29 : ... .. . ... ... ... : ... .. . ... ... ... : ... .. . ... : ... .. 9 ... : ... .. . ... ...
ROW 2A : ... .. . ... ... ... : ... .. . ... ... ... : ... .. . ... : ... .. 6 ... : ... .. . ... ...
ROW 2B : ... .. . ... ... ... : ... .. . ... ... ... : ... .. . ... : ... .. 5 ... : ... .. . ... ...
ROW 2C : ... .. . ... ... ... : ... .. . ... ... ... : ... .. . ... : ... .. 3 ... : ... .. . ... ...
ROW 2D : ... .. . ... ... ... : ... .. . ... ... ... : ... .. . ... : ... .. 1 ... : ... .. . ... ...
ROW 2E : ... .. . ... ... ... : ... .. . ... ... ... : ... .. . ... : ... .. 0 ... : ... .. . ... ...
ROW 2F : ... .. . ... ... ... : ... .. . ... ... ... : ... .. . ... : ... .. . ... : ... .. . ... ...
ROW 30 : ... .. . ... ... ... : ... .. . ... ... ... : --- .. . ... : 1-# 00 F ... : ... .. . ... ...
ROW 31 : ... .. . ... ... ... : ... .. . ... ... ... : D#3 00 . P89 : ... .. . ... : ... .. . ... ...
ROW 32 : ... .. . ... ... ... : ... .. . ... ... ... : B-2 00 . P76 : ... .. . ... : ... .. . ... ...
ROW 33 : ... .. . ... ... ... : ... .. . ... ... ... : G-2 00 . P7C : ... .. C ... : ... .. . ... ...
ROW 34 : ... .. . ... ... ... : ... .. . ... ... ... : E-2 00 . P78 : ... .. B ... : ... .. . ... ...
ROW 35 : ... .. . ... ... ... : ... .. . ... ... ... : C#2 00 . P88 : ... .. 9 ... : ... .. . ... ...
ROW 36 : ... .. . ... ... ... : ... .. . ... ... ... : B-1 00 . P7B : ... .. 6 ... : ... .. . ... ...
ROW 37 : ... .. . ... ... ... : ... .. . ... ... ... : A-1 00 . P7A : ... .. 5 ... : ... .. . ... ...
ROW 38 : ... .. . ... ... ... : ... .. . ... ... ... : G-1 00 . P86 : ... .. 3 ... : ... .. . ... ...
ROW 39 : ... .. . ... ... ... : ... .. . ... ... ... : F-1 00 . PA2 : ... .. 1 ... : ... .. . ... ...
ROW 3A : ... .. . ... ... ... : ... .. . ... ... ... : E-1 00 . P7E : ... .. 0 ... : ... .. . ... ...
ROW 3B : ... .. . ... ... ... : ... .. . ... ... ... : D#1 00 . P5F : ... .. . ... : ... .. . ... ...
ROW 3C : ... .. 0 ... V00 ... : ... .. 0 ... V00 ... : --- .. . ... : D-# 00 F ... : ... .. . ... ...
ROW 3D : G-2 00 F P80 V01 ... : D-3 00 F P80 V01 ... : G-2 00 . P80 : ... .. . ... : ... .. . ... ...
ROW 3E : ... .. E ... ... ... : ... .. E ... ... ... : ... .. . ... : ... .. . ... : ... .. . ... ...
ROW 3F : ... .. . ... ... ... : ... .. . ... ... ... : ... .. . ... : ... .. C ... : ... .. . ... ...
ROW 40 : ... .. . ... ... ... : ... .. . ... ... ... : ... .. . ... : ... .. B ... : ... .. . ... ...
ROW 41 : ... .. D ... ... ... : ... .. D ... ... ... : ... .. . ... : ... .. 9 ... : ... .. . ... ...
ROW 42 : ... .. . ... ... ... : ... .. . ... ... ... : ... .. . ... : ... .. 6 ... : ... .. . ... ...
ROW 43 : ... .. . ... ... ... : ... .. . ... ... ... : ... .. . ... : ... .. 5 ... : ... .. . ... ...
ROW 44 : ... .. C ... ... ... : ... .. C ... ... ... : ... .. . ... : ... .. 3 ... : ... .. . ... ...
ROW 45 : ... .. . ... ... ... : ... .. . ... ... ... : ... .. . ... : ... .. 1 ... : ... .. . ... ...
ROW 46 : ... .. . ... ... ... : ... .. . ... ... ... : ... .. . ... : ... .. 0 ... : ... .. . ... ...
ROW 47 : ... .. B ... ... ... : ... .. B ... ... ... : ... .. . ... : ... .. . ... : ... .. . ... ...
ROW 48 : ... .. 0 ... V00 ... : ... .. 0 ... V00 ... : --- .. . ... : 4-# 00 F ... : ... .. . ... ...
ROW 49 : D-3 00 F P80 V01 ... : G-3 00 F P80 V01 ... : D#3 00 . P89 : ... .. . ... : ... .. . ... ...
ROW 4A : ... .. E ... ... ... : ... .. E ... ... ... : B-2 00 . P76 : ... .. . ... : ... .. . ... ...
ROW 4B : ... .. . ... ... ... : ... .. . ... ... ... : G-2 00 . P7C : ... .. C ... : ... .. . ... ...
ROW 4C : ... .. . ... ... ... : ... .. . ... ... ... : E-2 00 . P78 : ... .. B ... : ... .. . ... ...
ROW 4D : ... .. D ... ... ... : ... .. D ... ... ... : C#2 00 . P88 : ... .. 9 ... : ... .. . ... ...
ROW 4E : ... .. . ... ... ... : ... .. . ... ... ... : B-1 00 . P7B : ... .. 6 ... : ... .. . ... ...
ROW 4F : ... .. . ... ... ... : ... .. . ... ... ... : A-1 00 . P7A : ... .. 5 ... : ... .. . ... ...
ROW 50 : ... .. C ... ... ... : ... .. C ... ... ... : G-1 00 . P86 : ... .. 3 ... : ... .. . ... ...
ROW 51 : ... .. . ... ... ... : ... .. . ... ... ... : F-1 00 . PA2 : ... .. 1 ... : ... .. . ... ...
ROW 52 : ... .. . ... ... ... : ... .. . ... ... ... : E-1 00 . P7E : ... .. 0 ... : ... .. . ... ...
ROW 53 : ... .. B ... ... ... : ... .. B ... ... ... : D#1 00 . P5F : ... .. . ... : ... .. . ... ...
ROW 54 : ... .. . ... ... ... : ... .. . ... ... ... : --- .. . ... : D-# 00 F ... : ... .. . ... ...
ROW 55 : ... .. . ... ... ... : ... .. . ... ... ... : G-2 00 . P80 : ... .. . ... : ... .. . ... ...
ROW 56 : ... .. A ... ... ... : ... .. A ... ... ... : ... .. . ... : ... .. . ... : ... .. . ... ...
ROW 57 : ... .. . ... ... ... : ... .. . ... ... ... : ... .. . ... : ... .. C ... : ... .. . ... ...
ROW 58 : ... .. . ... ... ... : ... .. . ... ... ... : ... .. . ... : ... .. B ... : ... .. . ... ...
ROW 59 : ... .. 9 ... ... ... : ... .. 9 ... ... ... : ... .. . ... : ... .. 9 ... : ... .. . ... ...
ROW 5A : ... .. . ... ... ... : ... .. . ... ... ... : ... .. . ... : ... .. 6 ... : ... .. . ... ...
ROW 5B : ... .. . ... ... ... : ... .. . ... ... ... : ... .. . ... : ... .. 5 ... : ... .. . ... ...
ROW 5C : ... .. 8 ... ... ... : ... .. 8 ... ... ... : ... .. . ... : ... .. 3 ... : ... .. . ... ...
ROW 5D : ... .. . ... ... ... : ... .. . ... ... ... : ... .. . ... : ... .. 1 ... : ... .. . ... ...
ROW 5E : ... .. 7 ... ... ... : ... .. 7 ... ... ... : ... .. . ... : ... .. 0 ... : ... .. . ... ...
ROW 5F : ... .. . ... ... ... : ... .. . ... ... ... : ... .. . ... : ... .. . ... : ... .. . ... ...
ROW 60 : ... .. 0 ... V00 ... : ... .. 0 ... V00 ... : --- .. . ... : 1-# 00 F ... : ... .. . ... ...
ROW 61 : F-3 00 F P80 V01 ... : A-3 00 F P80 V01 ... : D#3 00 . P89 : ... .. . ... : ... .. . ... ...
ROW 62 : ... .. E ... ... ... : ... .. E ... ... ... : B-2 00 . P76 : ... .. . ... : ... .. . ... ...
ROW 63 : ... .. . ... ... ... : ... .. . ... ... ... : G-2 00 . P7C : ... .. C ... : ... .. . ... ...
ROW 64 : ... .. . ... ... ... : ... .. . ... ... ... : E-2 00 . P78 : ... .. B ... : ... .. . ... ...
ROW 65 : ... .. D ... ... ... : ... .. D ... ... ... : C#2 00 . P88 : ... .. 9 ... : ... .. . ... ...
ROW 66 : ... .. . ... ... ... : ... .. . ... ... ... : B-1 00 . P7B : ... .. 6 ... : ... .. . ... ...
ROW 67 : ... .. . ... ... ... : ... .. . ... ... ... : A-1 00 . P7A : ... .. 5 ... : ... .. . ... ...
ROW 68 : ... .. C ... ... ... : ... .. C ... ... ... : G-1 00 . P86 : ... .. 3 ... : ... .. . ... ...
ROW 69 : ... .. . ... ... ... : ... .. . ... ... ... : F-1 00 . PA2 : ... .. 1 ... : ... .. . ... ...
ROW 6A : ... .. . ... ... ... : ... .. . ... ... ... : E-1 00 . P7E : ... .. 0 ... : ... .. . ... ...
ROW 6B : ... .. B ... ... ... : ... .. B ... ... ... : D#1 00 . P5F : ... .. . ... : ... .. . ... ...
ROW 6C : ... .. . ... ... ... : ... .. . ... ... ... : --- .. . ... : D-# 00 F ... : ... .. . ... ...
ROW 6D : ... .. . ... ... ... : ... .. . ... ... ... : F-2 00 . P80 : ... .. . ... : ... .. . ... ...
ROW 6E : ... .. A ... ... ... : ... .. A ... ... ... : ... .. . ... : ... .. . ... : ... .. . ... ...
ROW 6F : ... .. . ... ... ... : ... .. . ... ... ... : ... .. . ... : ... .. C ... : ... .. . ... ...
ROW 70 : ... .. . ... ... ... : ... .. . ... ... ... : ... .. . ... : ... .. B ... : ... .. . ... ...
ROW 71 : ... .. 9 ... ... ... : ... .. 9 ... ... ... : ... .. . ... : ... .. 9 ... : ... .. . ... ...
ROW 72 : ... .. . ... ... ... : ... .. . ... ... ... : ... .. . ... : ... .. 6 ... : ... .. . ... ...
ROW 73 : ... .. . ... ... ... : ... .. . ... ... ... : ... .. . ... : ... .. 5 ... : ... .. . ... ...
ROW 74 : ... .. 8 ... ... ... : ... .. 8 ... ... ... : ... .. . ... : ... .. 3 ... : ... .. . ... ...
ROW 75 : ... .. . ... ... ... : ... .. . ... ... ... : ... .. . ... : ... .. 1 ... : ... .. . ... ...
ROW 76 : ... .. 7 ... ... ... : ... .. 7 ... ... ... : ... .. . ... : ... .. 0 ... : ... .. . ... ...
ROW 77 : ... .. . ... ... ... : ... .. . ... ... ... : ... .. . ... : ... .. . ... : ... .. . ... ...
ROW 78 : ... .. 0 ... V00 ... : ... .. 0 ... V00 ... : --- .. . ... : 4-# 00 F ... : ... .. . ... ...
ROW 79 : G-3 00 F P80 V01 ... : B-3 00 F P80 V01 ... : D#3 00 . P89 : ... .. . ... : ... .. . ... ...
ROW 7A : ... .. E ... ... ... : ... .. E ... ... ... : B-2 00 . P76 : ... .. . ... : ... .. . ... ...
ROW 7B : ... .. . ... ... ... : ... .. . ... ... ... : G-2 00 . P7C : ... .. C ... : ... .. . ... ...
ROW 7C : ... .. . ... ... ... : ... .. . ... ... ... : E-2 00 . P78 : ... .. B ... : ... .. . ... ...
ROW 7D : ... .. D ... ... ... : ... .. D ... ... ... : C#2 00 . P88 : ... .. 9 ... : ... .. . ... ...
ROW 7E : ... .. . ... ... ... : ... .. . ... ... ... : B-1 00 . P7B : ... .. 6 ... : ... .. . ... ...
ROW 7F : ... .. . ... ... ... : ... .. . ... ... ... : A-1 00 . P7A : ... .. 5 ... : ... .. . ... ...
ROW 80 : ... .. C ... ... ... : ... .. C ... ... ... : G-1 00 . P86 : ... .. 3 ... : ... .. . ... ...
ROW 81 : ... .. . ... ... ... : ... .. . ... ... ... : F-1 00 . PA2 : ... .. 1 ... : ... .. . ... ...
ROW 82 : ... .. . ... ... ... : ... .. . ... ... ... : E-1 00 . P7E : ... .. 0 ... : ... .. . ... ...
ROW 83 : ... .. B ... ... ... : ... .. B ... ... ... : D#1 00 . P5F : ... .. . ... : ... .. . ... ...
ROW 84 : ... .. 0 ... V00 ... : ... .. 0 ... V00 ... : --- .. . ... : D-# 00 F ... : ... .. . ... ...
ROW 85 : A-3 00 F P80 V01 ... : C-4 00 F P80 V01 ... : F-2 00 . P80 : ... .. . ... : ... .. . ... ...
ROW 86 : ... .. E ... ... ... : ... .. E ... ... ... : ... .. . ... : ... .. . ... : ... .. . ... ...
ROW 87 : ... .. . ... ... ... : ... .. . ... ... ... : ... .. . ... : ... .. C ... : ... .. . ... ...
ROW 88 : ... .. . ... ... ... : ... .. . ... ... ... : ... .. . ... : ... .. B ... : ... .. . ... ...
ROW 89 : ... .. D ... ... ... : ... .. D ... ... ... : ... .. . ... : ... .. 9 ... : ... .. . ... ...
ROW 8A : ... .. . ... ... ... : ... .. . ... ... ... : ... .. . ... : ... .. 6 ... : ... .. . ... ...
ROW 8B : ... .. . ... ... ... : ... .. . ... ... ... : ... .. . ... : ... .. 5 ... : ... .. . ... ...
ROW 8C : ... .. C ... ... ... : ... .. C ... ... ... : ... .. . ... : ... .. 3 ... : ... .. . ... ...
ROW 8D : ... .. . ... ... ... : ... .. . ... ... ... : ... .. . ... : ... .. 1 ... : ... .. . ... ...
ROW 8E : ... .. . ... ... ... : ... .. . ... ... ... : ... .. . ... : ... .. 0 ... : ... .. . ... ...
ROW 8F : ... .. B ... ... ... : ... .. B ... ... ... : ... .. . ... : ... .. . ... : ... .. . ... ...
ROW 90 : ... .. . ... ... ... : ... .. . ... ... ... : --- .. . ... : 1-# 00 F ... : ... .. . ... ...
ROW 91 : ... .. . ... ... ... : ... .. . ... ... ... : D#3 00 . P89 : ... .. . ... : ... .. . ... ...
ROW 92 : ... .. A ... ... ... : ... .. A ... ... ... : B-2 00 . P76 : ... .. . ... : ... .. . ... ...
ROW 93 : ... .. . ... ... ... : ... .. . ... ... ... : G-2 00 . P7C : ... .. C ... : ... .. . ... ...
ROW 94 : ... .. . ... ... ... : ... .. . ... ... ... : E-2 00 . P78 : ... .. B ... : ... .. . ... ...
ROW 95 : ... .. 9 ... ... ... : ... .. 9 ... ... ... : C#2 00 . P88 : ... .. 9 ... : ... .. . ... ...
ROW 96 : ... .. . ... ... ... : ... .. . ... ... ... : B-1 00 . P7B : ... .. 6 ... : ... .. . ... ...
ROW 97 : ... .. . ... ... ... : ... .. . ... ... ... : A-1 00 . P7A : ... .. 5 ... : ... .. . ... ...
ROW 98 : ... .. 8 ... ... ... : ... .. 8 ... ... ... : G-1 00 . P86 : ... .. 3 ... : ... .. . ... ...
ROW 99 : ... .. . ... ... ... : ... .. . ... ... ... : F-1 00 . PA2 : ... .. 1 ... : ... .. . ... ...
ROW 9A : ... .. 7 ... ... ... : ... .. 7 ... ... ... : E-1 00 . P7E : ... .. 0 ... : ... .. . ... ...
ROW 9B : ... .. . ... ... ... : ... .. . ... ... ... : D#1 00 . P5F : ... .. . ... : ... .. . ... ...
ROW 9C : ... .. 0 ... V00 ... : ... .. 0 ... V00 ... : --- .. . ... : D-# 00 F ... : ... .. . ... ...
ROW 9D : C-4 00 F P80 V01 ... : E-4 00 F P80 V01 ... : F-2 00 . P80 : ... .. . ... : ... .. . ... ...
ROW 9E : ... .. E ... ... ... : ... .. E ... ... ... : ... .. . ... : ... .. . ... : ... .. . ... ...
ROW 9F : ... .. . ... ... ... : ... .. . ... ... ... : ... .. . ... : ... .. C ... : ... .. . ... ...
ROW A0 : ... .. . ... ... ... : ... .. . ... ... ... : ... .. . ... : ... .. B ... : ... .. . ... ...
ROW A1 : ... .. D ... ... ... : ... .. D ... ... ... : ... .. . ... : ... .. 9 ... : ... .. . ... ...
ROW A2 : ... .. . ... ... ... : ... .. . ... ... ... : ... .. . ... : ... .. 6 ... : ... .. . ... ...
ROW A3 : ... .. . ... ... ... : ... .. . ... ... ... : ... .. . ... : ... .. 5 ... : ... .. . ... ...
ROW A4 : ... .. C ... ... ... : ... .. C ... ... ... : ... .. . ... : ... .. 3 ... : ... .. . ... ...
ROW A5 : ... .. . ... ... ... : ... .. . ... ... ... : ... .. . ... : ... .. 1 ... : ... .. . ... ...
ROW A6 : ... .. . ... ... ... : ... .. . ... ... ... : ... .. . ... : ... .. 0 ... : ... .. . ... ...
ROW A7 : ... .. B ... ... ... : ... .. B ... ... ... : ... .. . ... : ... .. . ... : ... .. . ... ...
ROW A8 : ... .. 0 ... V00 ... : ... .. 0 ... V00 ... : --- .. . ... : 4-# 00 F ... : ... .. . ... ...
ROW A9 : B-3 00 F P80 V01 ... : D-4 00 F P80 V01 ... : D#3 00 . P89 : ... .. . ... : ... .. . ... ...
ROW AA : ... .. E ... ... ... : ... .. E ... ... ... : B-2 00 . P76 : ... .. . ... : ... .. . ... ...
ROW AB : ... .. . ... ... ... : ... .. . ... ... ... : G-2 00 . P7C : ... .. C ... : ... .. . ... ...
ROW AC : ... .. . ... ... ... : ... .. . ... ... ... : E-2 00 . P78 : ... .. B ... : ... .. . ... ...
ROW AD : ... .. D ... ... ... : ... .. D ... ... ... : C#2 00 . P88 : ... .. 9 ... : ... .. . ... ...
ROW AE : ... .. . ... ... ... : ... .. . ... ... ... : B-1 00 . P7B : ... .. 6 ... : ... .. . ... ...
ROW AF : ... .. . ... ... ... : ... .. . ... ... ... : A-1 00 . P7A : ... .. 5 ... : ... .. . ... ...
ROW B0 : ... .. C ... ... ... : ... .. C ... ... ... : G-1 00 . P86 : ... .. 3 ... : ... .. . ... ...
ROW B1 : ... .. . ... ... ... : ... .. . ... ... ... : F-1 00 . PA2 : ... .. 1 ... : ... .. . ... ...
ROW B2 : ... .. . ... ... ... : ... .. . ... ... ... : E-1 00 . P7E : ... .. 0 ... : ... .. . ... ...
ROW B3 : ... .. B ... ... ... : ... .. B ... ... ... : D#1 00 . P5F : ... .. . ... : ... .. . ... ...
ROW B4 : ... .. 0 ... V00 ... : ... .. 0 ... V00 ... : --- .. . ... : D-# 00 F ... : ... .. . ... ...
ROW B5 : A-3 00 F P80 V01 ... : C-4 00 F P80 V01 ... : F-2 00 . P80 : ... .. . ... : ... .. . ... ...
ROW B6 : ... .. E ... ... ... : ... .. E ... ... ... : ... .. . ... : ... .. . ... : ... .. . ... ...
ROW B7 : ... .. . ... ... ... : ... .. . ... ... ... : ... .. . ... : ... .. C ... : ... .. . ... ...
ROW B8 : ... .. . ... ... ... : ... .. . ... ... ... : ... .. . ... : ... .. B ... : ... .. . ... ...
ROW B9 : ... .. D ... ... ... : ... .. D ... ... ... : ... .. . ... : ... .. 9 ... : ... .. . ... ...
ROW BA : ... .. . ... ... ... : ... .. . ... ... ... : ... .. . ... : ... .. 6 ... : ... .. . ... ...
ROW BB : ... .. . ... ... ... : ... .. . ... ... ... : ... .. . ... : ... .. 5 ... : ... .. . ... ...
ROW BC : ... .. C ... ... ... : ... .. C ... ... ... : ... .. . ... : ... .. 3 ... : ... .. . ... ...
ROW BD : ... .. . ... ... ... : ... .. . ... ... ... : ... .. . ... : ... .. 1 ... : ... .. . ... ...
ROW BE : ... .. . ... ... ... : ... .. . ... ... ... : ... .. . ... : ... .. 0 ... : ... .. . ... ...
ROW BF : ... .. B ... ... ... : ... .. B ... ... ... : ... .. . ... : ... .. . ... : ... .. . ... ...
ROW C0 : ... .. 0 ... V00 ... : ... .. 0 ... V00 ... : --- .. . ... : 1-# 00 F ... : ... .. . ... ...
ROW C1 : E-4 00 F P80 V01 ... : G-4 00 F P80 V01 ... : D#3 00 . P89 : ... .. . ... : ... .. . ... ...
ROW C2 : ... .. E ... ... ... : ... .. E ... ... ... : B-2 00 . P76 : ... .. . ... : ... .. . ... ...
ROW C3 : ... .. . ... ... ... : ... .. . ... ... ... : G-2 00 . P7C : ... .. C ... : ... .. . ... ...
ROW C4 : ... .. . ... ... ... : ... .. . ... ... ... : E-2 00 . P78 : ... .. B ... : ... .. . ... ...
ROW C5 : ... .. D ... ... ... : ... .. D ... ... ... : C#2 00 . P88 : ... .. 9 ... : ... .. . ... ...
ROW C6 : ... .. . ... ... ... : ... .. . ... ... ... : B-1 00 . P7B : ... .. 6 ... : ... .. . ... ...
ROW C7 : ... .. . ... ... ... : ... .. . ... ... ... : A-1 00 . P7A : ... .. 5 ... : ... .. . ... ...
ROW C8 : ... .. C ... ... ... : ... .. C ... ... ... : G-1 00 . P86 : ... .. 3 ... : ... .. . ... ...
ROW C9 : ... .. . ... ... ... : ... .. . ... ... ... : F-1 00 . PA2 : ... .. 1 ... : ... .. . ... ...
ROW CA : ... .. . ... ... ... : ... .. . ... ... ... : E-1 00 . P7E : ... .. 0 ... : ... .. . ... ...
ROW CB : ... .. B ... ... ... : ... .. B ... ... ... : D#1 00 . P5F : ... .. . ... : ... .. . ... ...
ROW CC : ... .. . ... ... ... : ... .. . ... ... ... : --- .. . ... : D-# 00 F ... : ... .. . ... ...
ROW CD : ... .. . ... ... ... : ... .. . ... ... ... : C-3 00 . P80 : ... .. . ... : ... .. . ... ...
ROW CE : ... .. A ... ... ... : ... .. A ... ... ... : ... .. . ... : ... .. . ... : ... .. . ... ...
ROW CF : ... .. . ... ... ... : ... .. . ... ... ... : ... .. . ... : ... .. C ... : ... .. . ... ...
ROW D0 : ... .. . ... ... ... : ... .. . ... ... ... : ... .. . ... : ... .. B ... : ... .. . ... ...
ROW D1 : ... .. 9 ... ... ... : ... .. 9 ... ... ... : ... .. . ... : ... .. 9 ... : ... .. . ... ...
ROW D2 : ... .. . ... ... ... : ... .. . ... ... ... : ... .. . ... : ... .. 6 ... : ... .. . ... ...
ROW D3 : ... .. . ... ... ... : ... .. . ... ... ... : ... .. . ... : ... .. 5 ... : ... .. . ... ...
ROW D4 : ... .. 8 ... ... ... : ... .. 8 ... ... ... : ... .. . ... : ... .. 3 ... : ... .. . ... ...
ROW D5 : ... .. . ... ... ... : ... .. . ... ... ... : ... .. . ... : ... .. 1 ... : ... .. . ... ...
ROW D6 : ... .. 7 ... ... ... : ... .. 7 ... ... ... : ... .. . ... : ... .. 0 ... : ... .. . ... ...
ROW D7 : ... .. . ... ... ... : ... .. . ... ... ... : ... .. . ... : ... .. . ... : ... .. . ... ...
ROW D8 : ... .. 6 ... ... ... : ... .. 6 ... ... ... : --- .. . ... : 4-# 00 F ... : ... .. . ... ...
ROW D9 : ... .. . ... ... ... : ... .. . ... ... ... : D#3 00 . P89 : ... .. . ... : ... .. . ... ...
ROW DA : ... .. . ... ... ... : ... .. . ... ... ... : B-2 00 . P76 : ... .. . ... : ... .. . ... ...
ROW DB : ... .. 5 ... ... ... : ... .. 5 ... ... ... : G-2 00 . P7C : ... .. C ... : ... .. . ... ...
ROW DC : ... .. . ... ... ... : ... .. . ... ... ... : E-2 00 . P78 : ... .. B ... : ... .. . ... ...
ROW DD : ... .. 4 ... ... ... : ... .. 4 ... ... ... : C#2 00 . P88 : ... .. 9 ... : ... .. . ... ...
ROW DE : ... .. . ... ... ... : ... .. . ... ... ... : B-1 00 . P7B : ... .. 6 ... : ... .. . ... ...
ROW DF : ... .. 3 ... ... ... : ... .. 3 ... ... ... : A-1 00 . P7A : ... .. 5 ... : ... .. . ... ...
ROW E0 : ... .. . ... ... ... : ... .. . ... ... ... : G-1 00 . P86 : ... .. 3 ... : ... .. . ... ...
ROW E1 : ... .. 2 ... ... ... : ... .. 2 ... ... ... : F-1 00 . PA2 : ... .. 1 ... : ... .. . ... ...
ROW E2 : ... .. 1 ... ... ... : ... .. 1 ... ... ... : E-1 00 . P7E : ... .. 0 ... : ... .. . ... ...
ROW E3 : ... .. . ... ... ... : ... .. . ... ... ... : D#1 00 . P5F : ... .. . ... : ... .. . ... ...
ROW E4 : ... .. 0 ... V00 ... : ... .. 0 ... V00 ... : --- .. . ... : D-# 00 F ... : ... .. . ... ...
ROW E5 : C-4 00 F P80 V01 ... : F-4 00 F P80 V01 ... : C-3 00 . P80 : ... .. . ... : ... .. . ... ...
ROW E6 : ... .. E ... ... ... : ... .. E ... ... ... : ... .. . ... : ... .. . ... : ... .. . ... ...
ROW E7 : ... .. . ... ... ... : ... .. . ... ... ... : ... .. . ... : ... .. C ... : ... .. . ... ...
ROW E8 : ... .. . ... ... ... : ... .. . ... ... ... : ... .. . ... : ... .. B ... : ... .. . ... ...
ROW E9 : ... .. D ... ... ... : ... .. D ... ... ... : ... .. . ... : ... .. 9 ... : ... .. . ... ...
ROW EA : ... .. . ... ... ... : ... .. . ... ... ... : ... .. . ... : ... .. 6 ... : ... .. . ... ...
ROW EB : ... .. . ... ... ... : ... .. . ... ... ... : ... .. . ... : ... .. 5 ... : ... .. . ... ...
ROW EC : ... .. C ... ... ... : ... .. C ... ... ... : ... .. . ... : ... .. 3 ... : ... .. . ... ...
ROW ED : ... .. . ... ... ... : ... .. . ... ... ... : ... .. . ... : ... .. 1 ... : ... .. . ... ...
ROW EE : ... .. . ... ... ... : ... .. . ... ... ... : ... .. . ... : ... .. 0 ... : ... .. . ... ...
ROW EF : ... .. B ... ... ... : ... .. B ... ... ... : ... .. . ... : ... .. . ... : ... .. . ... ...
ROW F0 : ... .. . ... ... ... : ... .. . ... ... ... : --- .. . ... : 1-# 00 F ... : ... .. . ... ...
ROW F1 : ... .. . ... ... ... : ... .. . ... ... ... : D#3 00 . P89 : ... .. . ... : ... .. . ... ...
ROW F2 : ... .. A ... ... ... : ... .. A ... ... ... : B-2 00 . P76 : ... .. . ... : ... .. . ... ...
ROW F3 : ... .. . ... ... ... : ... .. . ... ... ... : G-2 00 . P7C : ... .. C ... : ... .. . ... ...
ROW F4 : ... .. . ... ... ... : ... .. . ... ... ... : E-2 00 . P78 : ... .. B ... : ... .. . ... ...
ROW F5 : ... .. 9 ... ... ... : ... .. 9 ... ... ... : C#2 00 . P88 : ... .. 9 ... : ... .. . ... ...
ROW F6 : ... .. . ... ... ... : ... .. . ... ... ... : B-1 00 . P7B : ... .. 6 ... : ... .. . ... ...
ROW F7 : ... .. . ... ... ... : ... .. . ... ... ... : A-1 00 . P7A : ... .. 5 ... : ... .. . ... ...
ROW F8 : ... .. 8 ... ... ... : ... .. 8 ... ... ... : G-1 00 . P86 : ... .. 3 ... : ... .. . ... ...
ROW F9 : ... .. . ... ... ... : ... .. . ... ... ... : F-1 00 . PA2 : ... .. 1 ... : ... .. . ... ...
ROW FA : ... .. 7 ... ... ... : ... .. 7 ... ... ... : E-1 00 . P7E : ... .. 0 ... : ... .. . ... ...
ROW FB : ... .. . ... ... ... : ... .. . ... ... ... : D#1 00 . P5F : ... .. . ... : ... .. . ... ...
ROW FC : ... .. 6 ... ... ... : ... .. 6 ... ... ... : --- .. . ... : D-# 00 F ... : ... .. . ... ...
ROW FD : ... .. . ... ... ... : ... .. . ... ... ... : C-3 00 . P80 : ... .. . ... : ... .. . ... ...
ROW FE : ... .. . ... ... ... : ... .. . ... ... ... : ... .. . ... : ... .. . ... : ... .. . ... ...
ROW FF : ... .. 5 ... ... ... : ... .. 5 ... ... ... : ... .. . ... : ... .. C ... : ... .. . ... ...

PATTERN 0D
ROW 00 : ... .. . ... ... ... : ... .. . ... ... ... : ... .. . ... : ... .. B ... : ... .. . ... ...
ROW 01 : ... .. 4 ... ... ... : ... .. 4 ... ... ... : ... .. . ... : ... .. 9 ... : ... .. . ... ...
ROW 02 : ... .. . ... ... ... : ... .. . ... ... ... : ... .. . ... : ... .. 6 ... : ... .. . ... ...
ROW 03 : ... .. 3 ... ... ... : ... .. 3 ... ... ... : ... .. . ... : ... .. 5 ... : ... .. . ... ...
ROW 04 : ... .. . ... ... ... : ... .. . ... ... ... : ... .. . ... : ... .. 3 ... : ... .. . ... ...
ROW 05 : ... .. 2 ... ... ... : ... .. 2 ... ... ... : ... .. . ... : ... .. 1 ... : ... .. . ... ...
ROW 06 : ... .. 1 ... ... ... : ... .. 1 ... ... ... : ... .. . ... : ... .. 0 ... : ... .. . ... ...
ROW 07 : ... .. . ... ... ... : ... .. . ... ... ... : ... .. . ... : ... .. . ... : ... .. . ... ...
ROW 08 : ... .. 0 ... V00 ... : ... .. 0 ... V00 ... : --- .. . ... : 4-# 00 F ... : ... .. . ... ...
ROW 09 : C-4 00 F P80 V01 ... : E-4 00 F P80 V01 ... : D#3 00 . P89 : ... .. . ... : ... .. . ... ...
ROW 0A : ... .. E ... ... ... : ... .. E ... ... ... : B-2 00 . P76 : ... .. . ... : ... .. . ... ...
ROW 0B : ... .. . ... ... ... : ... .. . ... ... ... : G-2 00 . P7C : ... .. C ... : ... .. . ... ...
ROW 0C : ... .. . ... ... ... : ... .. . ... ... ... : E-2 00 . P78 : ... .. B ... : ... .. . ... ...
ROW 0D : ... .. D ... ... ... : ... .. D ... ... ... : C#2 00 . P88 : ... .. 9 ... : ... .. . ... ...
ROW 0E : ... .. . ... ... ... : ... .. . ... ... ... : B-1 00 . P7B : ... .. 6 ... : ... .. . ... ...
ROW 0F : ... .. . ... ... ... : ... .. . ... ... ... : A-1 00 . P7A : ... .. 5 ... : ... .. . ... ...
ROW 10 : ... .. C ... ... ... : ... .. C ... ... ... : G-1 00 . P86 : ... .. 3 ... : ... .. . ... ...
ROW 11 : ... .. . ... ... ... : ... .. . ... ... ... : F-1 00 . PA2 : ... .. 1 ... : ... .. . ... ...
ROW 12 : ... .. . ... ... ... : ... .. . ... ... ... : E-1 00 . P7E : ... .. 0 ... : ... .. . ... ...
ROW 13 : ... .. B ... ... ... : ... .. B ... ... ... : D#1 00 . P5F : ... .. . ... : ... .. . ... ...
ROW 14 : ... .. . ... ... ... : ... .. . ... ... ... : --- .. . ... : D-# 00 F ... : ... .. . ... ...
ROW 15 : ... .. . ... ... ... : ... .. . ... ... ... : C-3 00 . P80 : ... .. . ... : ... .. . ... ...
ROW 16 : ... .. A ... ... ... : ... .. A ... ... ... : ... .. . ... : ... .. . ... : ... .. . ... ...
ROW 17 : ... .. . ... ... ... : ... .. . ... ... ... : ... .. . ... : ... .. C ... : ... .. . ... ...
ROW 18 : ... .. . ... ... ... : ... .. . ... ... ... : ... .. . ... : ... .. B ... : ... .. . ... ...
ROW 19 : ... .. 9 ... ... ... : ... .. 9 ... ... ... : ... .. . ... : ... .. 9 ... : ... .. . ... ...
ROW 1A : ... .. . ... ... ... : ... .. . ... ... ... : ... .. . ... : ... .. 6 ... : ... .. . ... ...
ROW 1B : ... .. . ... ... ... : ... .. . ... ... ... : ... .. . ... : ... .. 5 ... : ... .. . ... ...
ROW 1C : ... .. 8 ... ... ... : ... .. 8 ... ... ... : ... .. . ... : ... .. 3 ... : ... .. . ... ...
ROW 1D : ... .. . ... ... ... : ... .. . ... ... ... : ... .. . ... : ... .. 1 ... : ... .. . ... ...
ROW 1E : ... .. 7 ... ... ... : ... .. 7 ... ... ... : ... .. . ... : ... .. 0 ... : ... .. . ... ...
ROW 1F : ... .. . ... ... ... : ... .. . ... ... ... : ... .. . ... : ... .. . ... : ... .. . ... ...
ROW 20 : ... .. 0 ... V00 ... : ... .. 0 ... V00 ... : --- .. . ... : 1-# 00 F ... : ... .. . ... ...
ROW 21 : G-3 00 F P80 V01 ... : D-4 00 F P80 V01 ... : D#3 00 . P89 : ... .. . ... : ... .. . ... ...
ROW 22 : ... .. E ... ... ... : ... .. E ... ... ... : B-2 00 . P76 : ... .. . ... : ... .. . ... ...
ROW 23 : ... .. . ... ... ... : ... .. . ... ... ... : G-2 00 . P7C : ... .. C ... : ... .. . ... ...
ROW 24 : ... .. . ... ... ... : ... .. . ... ... ... : E-2 00 . P78 : ... .. B ... : ... .. . ... ...
ROW 25 : ... .. D ... ... ... : ... .. D ... ... ... : C#2 00 . P88 : ... .. 9 ... : ... .. . ... ...
ROW 26 : ... .. . ... ... ... : ... .. . ... ... ... : B-1 00 . P7B : ... .. 6 ... : ... .. . ... ...
ROW 27 : ... .. . ... ... ... : ... .. . ... ... ... : A-1 00 . P7A : ... .. 5 ... : ... .. . ... ...
ROW 28 : ... .. C ... ... ... : ... .. C ... ... ... : G-1 00 . P86 : ... .. 3 ... : ... .. . ... ...
ROW 29 : ... .. . ... ... ... : ... .. . ... ... ... : F-1 00 . PA2 : ... .. 1 ... : ... .. . ... ...
ROW 2A : ... .. . ... ... ... : ... .. . ... ... ... : E-1 00 . P7E : ... .. 0 ... : ... .. . ... ...
ROW 2B : ... .. B ... ... ... : ... .. B ... ... ... : D#1 00 . P5F : ... .. . ... : ... .. . ... ...
ROW 2C : ... .. . ... ... ... : ... .. . ... ... ... : --- .. . ... : D-# 00 F ... : ... .. . ... ...
ROW 2D : ... .. . ... ... ... : ... .. . ... ... ... : G-2 00 . P80 : ... .. . ... : ... .. . ... ...
ROW 2E : ... .. A ... ... ... : ... .. A ... ... ... : ... .. . ... : ... .. . ... : ... .. . ... ...
ROW 2F : ... .. . ... ... ... : ... .. . ... ... ... : ... .. . ... : ... .. C ... : ... .. . ... ...
ROW 30 : ... .. . ... ... ... : ... .. . ... ... ... : ... .. . ... : ... .. B ... : ... .. . ... ...
ROW 31 : ... .. 9 ... ... ... : ... .. 9 ... ... ... : ... .. . ... : ... .. 9 ... : ... .. . ... ...
ROW 32 : ... .. . ... ... ... : ... .. . ... ... ... : ... .. . ... : ... .. 6 ... : ... .. . ... ...
ROW 33 : ... .. . ... ... ... : ... .. . ... ... ... : ... .. . ... : ... .. 5 ... : ... .. . ... ...
ROW 34 : ... .. 8 ... ... ... : ... .. 8 ... ... ... : ... .. . ... : ... .. 3 ... : ... .. . ... ...
ROW 35 : ... .. . ... ... ... : ... .. . ... ... ... : ... .. . ... : ... .. 1 ... : ... .. . ... ...
ROW 36 : ... .. 7 ... ... ... : ... .. 7 ... ... ... : ... .. . ... : ... .. 0 ... : ... .. . ... ...
ROW 37 : ... .. . ... ... ... : ... .. . ... ... ... : ... .. . ... : ... .. . ... : ... .. . ... ...
ROW 38 : ... .. 0 ... V00 ... : ... .. 0 ... V00 ... : --- .. . ... : 4-# 00 F ... : ... .. . ... ...
ROW 39 : G-3 00 F P80 V01 ... : B-3 00 F P80 V01 ... : D#3 00 . P89 : ... .. . ... : ... .. . ... ...
ROW 3A : ... .. E ... ... ... : ... .. E ... ... ... : B-2 00 . P76 : ... .. . ... : ... .. . ... ...
ROW 3B : ... .. . ... ... ... : ... .. . ... ... ... : G-2 00 . P7C : ... .. C ... : ... .. . ... ...
ROW 3C : ... .. . ... ... ... : ... .. . ... ... ... : E-2 00 . P78 : ... .. B ... : ... .. . ... ...
ROW 3D : ... .. D ... ... ... : ... .. D ... ... ... : C#2 00 . P88 : ... .. 9 ... : ... .. . ... ...
ROW 3E : ... .. . ... ... ... : ... .. . ... ... ... : B-1 00 . P7B : ... .. 6 ... : ... .. . ... ...
ROW 3F : ... .. . ... ... ... : ... .. . ... ... ... : A-1 00 . P7A : ... .. 5 ... : ... .. . ... ...
ROW 40 : ... .. C ... ... ... : ... .. C ... ... ... : G-1 00 . P86 : ... .. 3 ... : ... .. . ... ...
ROW 41 : ... .. . ... ... ... : ... .. . ... ... ... : F-1 00 . PA2 : ... .. 1 ... : ... .. . ... ...
ROW 42 : ... .. . ... ... ... : ... .. . ... ... ... : E-1 00 . P7E : ... .. 0 ... : ... .. . ... ...
ROW 43 : ... .. B ... ... ... : ... .. B ... ... ... : D#1 00 . P5F : ... .. . ... : ... .. . ... ...
ROW 44 : ... .. 0 ... V00 ... : ... .. 0 ... V00 ... : --- .. . ... : D-# 00 F ... : ... .. . ... ...
ROW 45 : D-3 00 F P80 V01 ... : G-3 00 F P80 V01 ... : G-2 00 . P80 : ... .. . ... : ... .. . ... ...
ROW 46 : ... .. E ... ... ... : ... .. E ... ... ... : ... .. . ... : ... .. . ... : ... .. . ... ...
ROW 47 : ... .. . ... ... ... : ... .. . ... ... ... : ... .. . ... : ... .. C ... : ... .. . ... ...
ROW 48 : ... .. . ... ... ... : ... .. . ... ... ... : ... .. . ... : ... .. B ... : ... .. . ... ...
ROW 49 : ... .. D ... ... ... : ... .. D ... ... ... : ... .. . ... : ... .. 9 ... : ... .. . ... ...
ROW 4A : ... .. . ... ... ... : ... .. . ... ... ... : ... .. . ... : ... .. 6 ... : ... .. . ... ...
ROW 4B : ... .. . ... ... ... : ... .. . ... ... ... : ... .. . ... : ... .. 5 ... : ... .. . ... ...
ROW 4C : ... .. C ... ... ... : ... .. C ... ... ... : ... .. . ... : ... .. 3 ... : ... .. . ... ...
ROW 4D : ... .. . ... ... ... : ... .. . ... ... ... : ... .. . ... : ... .. 1 ... : ... .. . ... ...
ROW 4E : ... .. . ... ... ... : ... .. . ... ... ... : ... .. . ... : ... .. 0 ... : ... .. . ... ...
ROW 4F : ... .. B ... ... ... : ... .. B ... ... ... : ... .. . ... : ... .. . ... : ... .. . ... ...
ROW 50 : ... .. . ... ... ... : ... .. . ... ... ... : --- .. . ... : 1-# 00 F ... : ... .. . ... ...
ROW 51 : ... .. . ... ... ... : ... .. . ... ... ... : D#3 00 . P89 : ... .. . ... : ... .. . ... ...
ROW 52 : ... .. A ... ... ... : ... .. A ... ... ... : B-2 00 . P76 : ... .. . ... : ... .. . ... ...
ROW 53 : ... .. . ... ... ... : ... .. . ... ... ... : G-2 00 . P7C : ... .. C ... : ... .. . ... ...
ROW 54 : ... .. . ... ... ... : ... .. . ... ... ... : E-2 00 . P78 : ... .. B ... : ... .. . ... ...
ROW 55 : ... .. 9 ... ... ... : ... .. 9 ... ... ... : C#2 00 . P88 : ... .. 9 ... : ... .. . ... ...
ROW 56 : ... .. . ... ... ... : ... .. . ... ... ... : B-1 00 . P7B : ... .. 6 ... : ... .. . ... ...
ROW 57 : ... .. . ... ... ... : ... .. . ... ... ... : A-1 00 . P7A : ... .. 5 ... : ... .. . ... ...
ROW 58 : ... .. 8 ... ... ... : ... .. 8 ... ... ... : G-1 00 . P86 : ... .. 3 ... : ... .. . ... ...
ROW 59 : ... .. . ... ... ... : ... .. . ... ... ... : F-1 00 . PA2 : ... .. 1 ... : ... .. . ... ...
ROW 5A : ... .. 7 ... ... ... : ... .. 7 ... ... ... : E-1 00 . P7E : ... .. 0 ... : ... .. . ... ...
ROW 5B : ... .. . ... ... ... : ... .. . ... ... ... : D#1 00 . P5F : ... .. . ... : ... .. . ... ...
ROW 5C : ... .. 0 ... V00 ... : ... .. 0 ... V00 ... : --- .. . ... : D-# 00 F ... : ... .. . ... ...
ROW 5D : G-3 00 F P80 V01 ... : B-3 00 F P80 V01 ... : G-2 00 . P80 : ... .. . ... : ... .. . ... ...
ROW 5E : ... .. E ... ... ... : ... .. E ... ... ... : ... .. . ... : ... .. . ... : ... .. . ... ...
ROW 5F : ... .. . ... ... ... : ... .. . ... ... ... : ... .. . ... : ... .. C ... : ... .. . ... ...
ROW 60 : ... .. . ... ... ... : ... .. . ... ... ... : ... .. . ... : ... .. B ... : ... .. . ... ...
ROW 61 : ... .. D ... ... ... : ... .. D ... ... ... : ... .. . ... : ... .. 9 ... : ... .. . ... ...
ROW 62 : ... .. . ... ... ... : ... .. . ... ... ... : ... .. . ... : ... .. 6 ... : ... .. . ... ...
ROW 63 : ... .. . ... ... ... : ... .. . ... ... ... : ... .. . ... : ... .. 5 ... : ... .. . ... ...
ROW 64 : ... .. C ... ... ... : ... .. C ... ... ... : ... .. . ... : ... .. 3 ... : ... .. . ... ...
ROW 65 : ... .. . ... ... ... : ... .. . ... ... ... : ... .. . ... : ... .. 1 ... : ... .. . ... ...
ROW 66 : ... .. . ... ... ... : ... .. . ... ... ... : ... .. . ... : ... .. 0 ... : ... .. . ... ...
ROW 67 : ... .. B ... ... ... : ... .. B ... ... ... : ... .. . ... : ... .. . ... : ... .. . ... ...
ROW 68 : ... .. 0 ... V00 ... : ... .. 0 ... V00 ... : --- .. . ... : 4-# 00 F ... : ... .. . ... ...
ROW 69 : A-3 00 F P80 V01 ... : C-4 00 F P80 V01 ... : D#3 00 . P89 : ... .. . ... : ... .. . ... ...
ROW 6A : ... .. E ... ... ... : ... .. E ... ... ... : B-2 00 . P76 : ... .. . ... : ... .. . ... ...
ROW 6B : ... .. . ... ... ... : ... .. . ... ... ... : G-2 00 . P7C : ... .. C ... : ... .. . ... ...
ROW 6C : ... .. . ... ... ... : ... .. . ... ... ... : E-2 00 . P78 : ... .. B ... : ... .. . ... ...
ROW 6D : ... .. D ... ... ... : ... .. D ... ... ... : C#2 00 . P88 : ... .. 9 ... : ... .. . ... ...
ROW 6E : ... .. . ... ... ... : ... .. . ... ... ... : B-1 00 . P7B : ... .. 6 ... : ... .. . ... ...
ROW 6F : ... .. . ... ... ... : ... .. . ... ... ... : A-1 00 . P7A : ... .. 5 ... : ... .. . ... ...
ROW 70 : ... .. C ... ... ... : ... .. C ... ... ... : G-1 00 . P86 : ... .. 3 ... : ... .. . ... ...
ROW 71 : ... .. . ... ... ... : ... .. . ... ... ... : F-1 00 . PA2 : ... .. 1 ... : ... .. . ... ...
ROW 72 : ... .. . ... ... ... : ... .. . ... ... ... : E-1 00 . P7E : ... .. 0 ... : ... .. . ... ...
ROW 73 : ... .. B ... ... ... : ... .. B ... ... ... : D#1 00 . P5F : ... .. . ... : ... .. . ... ...
ROW 74 : ... .. 0 ... V00 ... : ... .. 0 ... V00 ... : --- .. . ... : D-# 00 F ... : ... .. . ... ...
ROW 75 : B-3 00 F P80 V01 ... : D-4 00 F P80 V01 ... : G-2 00 . P80 : ... .. . ... : ... .. . ... ...
ROW 76 : ... .. E ... ... ... : ... .. E ... ... ... : ... .. . ... : ... .. . ... : ... .. . ... ...
ROW 77 : ... .. . ... ... ... : ... .. . ... ... ... : ... .. . ... : ... .. C ... : ... .. . ... ...
ROW 78 : ... .. . ... ... ... : ... .. . ... ... ... : ... .. . ... : ... .. B ... : ... .. . ... ...
ROW 79 : ... .. D ... ... ... : ... .. D ... ... ... : ... .. . ... : ... .. 9 ... : ... .. . ... ...
ROW 7A : ... .. . ... ... ... : ... .. . ... ... ... : ... .. . ... : ... .. 6 ... : ... .. . ... ...
ROW 7B : ... .. . ... ... ... : ... .. . ... ... ... : ... .. . ... : ... .. 5 ... : ... .. . ... ...
ROW 7C : ... .. C ... ... ... : ... .. C ... ... ... : ... .. . ... : ... .. 3 ... : ... .. . ... ...
ROW 7D : ... .. . ... ... ... : ... .. . ... ... ... : ... .. . ... : ... .. 1 ... : ... .. . ... ...
ROW 7E : ... .. . ... ... ... : ... .. . ... ... ... : ... .. . ... : ... .. 0 ... : ... .. . ... ...
ROW 7F : ... .. B ... ... ... : ... .. B ... ... ... : ... .. . ... : ... .. . ... : ... .. . ... ...
ROW 80 : ... .. 0 ... V00 ... : ... .. 0 ... V00 ... : A#3 00 . P81 : 1-# 00 F ... : ... .. . ... ...
ROW 81 : G-2 00 F P80 V01 ... : C-3 00 F P80 V01 ... : D#3 00 . P89 : ... .. . ... : ... .. . ... ...
ROW 82 : ... .. E ... ... ... : ... .. E ... ... ... : B-2 00 . P76 : ... .. . ... : ... .. . ... ...
ROW 83 : ... .. . ... ... ... : ... .. . ... ... ... : G-2 00 . P7C : ... .. C ... : ... .. . ... ...
ROW 84 : ... .. . ... ... ... : ... .. . ... ... ... : E-2 00 . P78 : ... .. B ... : ... .. . ... ...
ROW 85 : ... .. D ... ... ... : ... .. D ... ... ... : C#2 00 . P88 : ... .. 9 ... : ... .. . ... ...
ROW 86 : ... .. . ... ... ... : ... .. . ... ... ... : B-1 00 . P7B : ... .. 6 ... : ... .. . ... ...
ROW 87 : ... .. . ... ... ... : ... .. . ... ... ... : A-1 00 . P7A : ... .. 5 ... : ... .. . ... ...
ROW 88 : ... .. C ... ... ... : ... .. C ... ... ... : G-1 00 . P86 : ... .. 3 ... : ... .. . ... ...
ROW 89 : ... .. . ... ... ... : ... .. . ... ... ... : F-1 00 . PA2 : ... .. 1 ... : ... .. . ... ...
ROW 8A : ... .. . ... ... ... : ... .. . ... ... ... : --- .. . ... : ... .. 0 ... : ... .. . ... ...
ROW 8B : ... .. B ... ... ... : ... .. B ... ... ... : ... .. . ... : ... .. . ... : ... .. . ... ...
ROW 8C : ... .. . ... ... ... : ... .. . ... ... ... : ... .. . ... : D-# 00 F ... : ... .. . ... ...
ROW 8D : ... .. . ... ... ... : ... .. . ... ... ... : C-3 00 . P80 : ... .. . ... : ... .. . ... ...
ROW 8E : ... .. A ... ... ... : ... .. A ... ... ... : ... .. . ... : ... .. . ... : ... .. . ... ...
ROW 8F : ... .. . ... ... ... : ... .. . ... ... ... : ... .. . ... : ... .. C ... : ... .. . ... ...
ROW 90 : ... .. . ... ... ... : ... .. . ... ... ... : ... .. . ... : ... .. B ... : ... .. . ... ...
ROW 91 : ... .. 9 ... ... ... : ... .. 9 ... ... ... : ... .. . ... : ... .. 9 ... : ... .. . ... ...
ROW 92 : ... .. . ... ... ... : ... .. . ... ... ... : ... .. . ... : ... .. 6 ... : ... .. . ... ...
ROW 93 : ... .. . ... ... ... : ... .. . ... ... ... : ... .. . ... : ... .. 5 ... : ... .. . ... ...
ROW 94 : ... .. 8 ... ... ... : ... .. 8 ... ... ... : ... .. . ... : ... .. 3 ... : ... .. . ... ...
ROW 95 : ... .. . ... ... ... : ... .. . ... ... ... : ... .. . ... : ... .. 1 ... : ... .. . ... ...
ROW 96 : ... .. 7 ... ... ... : ... .. 7 ... ... ... : ... .. . ... : ... .. 0 ... : ... .. . ... ...
ROW 97 : ... .. . ... ... ... : ... .. . ... ... ... : ... .. . ... : ... .. . ... : ... .. . ... ...
ROW 98 : ... .. 0 ... V00 ... : ... .. 0 ... V00 ... : A#3 00 . P81 : 4-# 00 F ... : ... .. . ... ...
ROW 99 : C-3 00 F P80 V01 ... : E-3 00 F P80 V01 ... : D#3 00 . P89 : ... .. . ... : ... .. . ... ...
ROW 9A : ... .. E ... ... ... : ... .. E ... ... ... : B-2 00 . P76 : ... .. . ... : ... .. . ... ...
ROW 9B : ... .. . ... ... ... : ... .. . ... ... ... : G-2 00 . P7C : ... .. C ... : ... .. . ... ...
ROW 9C : ... .. . ... ... ... : ... .. . ... ... ... : E-2 00 . P78 : ... .. B ... : ... .. . ... ...
ROW 9D : ... .. D ... ... ... : ... .. D ... ... ... : C#2 00 . P88 : ... .. 9 ... : ... .. . ... ...
ROW 9E : ... .. . ... ... ... : ... .. . ... ... ... : B-1 00 . P7B : ... .. 6 ... : ... .. . ... ...
ROW 9F : ... .. . ... ... ... : ... .. . ... ... ... : A-1 00 . P7A : ... .. 5 ... : ... .. . ... ...
ROW A0 : ... .. C ... ... ... : ... .. C ... ... ... : G-1 00 . P86 : ... .. 3 ... : ... .. . ... ...
ROW A1 : ... .. . ... ... ... : ... .. . ... ... ... : F-1 00 . PA2 : ... .. 1 ... : ... .. . ... ...
ROW A2 : ... .. . ... ... ... : ... .. . ... ... ... : --- .. . ... : ... .. 0 ... : ... .. . ... ...
ROW A3 : ... .. B ... ... ... : ... .. B ... ... ... : ... .. . ... : ... .. . ... : ... .. . ... ...
ROW A4 : ... .. 0 ... V00 ... : ... .. 0 ... V00 ... : ... .. . ... : D-# 00 F ... : ... .. . ... ...
ROW A5 : E-3 00 F P80 V01 ... : G-3 00 F P80 V01 ... : C-3 00 . P80 : ... .. . ... : ... .. . ... ...
ROW A6 : ... .. E ... ... ... : ... .. E ... ... ... : ... .. . ... : ... .. . ... : ... .. . ... ...
ROW A7 : ... .. . ... ... ... : ... .. . ... ... ... : ... .. . ... : ... .. C ... : ... .. . ... ...
ROW A8 : ... .. . ... ... ... : ... .. . ... ... ... : ... .. . ... : ... .. B ... : ... .. . ... ...
ROW A9 : ... .. D ... ... ... : ... .. D ... ... ... : ... .. . ... : ... .. 9 ... : ... .. . ... ...
ROW AA : ... .. 0 ... V00 ... : ... .. 0 ... V00 ... : ... .. . ... : ... .. 6 ... : ... .. . ... ...
ROW AB : E-3 00 F P80 V01 ... : G-3 00 F P80 V01 ... : ... .. . ... : ... .. 5 ... : ... .. . ... ...
ROW AC : ... .. E ... ... ... : ... .. E ... ... ... : ... .. . ... : ... .. 3 ... : ... .. . ... ...
ROW AD : ... .. . ... ... ... : ... .. . ... ... ... : ... .. . ... : ... .. 1 ... : ... .. . ... ...
ROW AE : ... .. . ... ... ... : ... .. . ... ... ... : ... .. . ... : ... .. 0 ... : ... .. . ... ...
ROW AF : ... .. D ... ... ... : ... .. D ... ... ... : ... .. . ... : ... .. . ... : ... .. . ... ...
ROW B0 : ... .. 0 ... V00 ... : ... .. 0 ... V00 ... : A#3 00 . P81 : 1-# 00 F ... : ... .. . ... ...
ROW B1 : E-3 00 F P80 V01 ... : G-3 00 F P80 V01 ... : D#3 00 . P89 : ... .. . ... : ... .. . ... ...
ROW B2 : ... .. E ... ... ... : ... .. E ... ... ... : B-2 00 . P76 : ... .. . ... : ... .. . ... ...
ROW B3 : ... .. . ... ... ... : ... .. . ... ... ... : G-2 00 . P7C : ... .. C ... : ... .. . ... ...
ROW B4 : ... .. . ... ... ... : ... .. . ... ... ... : E-2 00 . P78 : ... .. B ... : ... .. . ... ...
ROW B5 : ... .. D ... ... ... : ... .. D ... ... ... : C#2 00 . P88 : ... .. 9 ... : ... .. . ... ...
ROW B6 : ... .. . ... ... ... : ... .. . ... ... ... : B-1 00 . P7B : ... .. 6 ... : ... .. . ... ...
ROW B7 : ... .. . ... ... ... : ... .. . ... ... ... : A-1 00 . P7A : ... .. 5 ... : ... .. . ... ...
ROW B8 : ... .. C ... ... ... : ... .. C ... ... ... : G-1 00 . P86 : ... .. 3 ... : ... .. . ... ...
ROW B9 : ... .. . ... ... ... : ... .. . ... ... ... : F-1 00 . PA2 : ... .. 1 ... : ... .. . ... ...
ROW BA : ... .. . ... ... ... : ... .. . ... ... ... : --- .. . ... : ... .. 0 ... : ... .. . ... ...
ROW BB : ... .. B ... ... ... : ... .. B ... ... ... : ... .. . ... : ... .. . ... : ... .. . ... ...
ROW BC : ... .. 0 ... V00 ... : ... .. 0 ... V00 ... : ... .. . ... : D-# 00 F ... : ... .. . ... ...
ROW BD : C-3 00 F P80 V01 ... : E-3 00 F P80 V01 ... : C-3 00 . P80 : ... .. . ... : ... .. . ... ...
ROW BE : ... .. E ... ... ... : ... .. E ... ... ... : ... .. . ... : ... .. . ... : ... .. . ... ...
ROW BF : ... .. . ... ... ... : ... .. . ... ... ... : ... .. . ... : ... .. C ... : ... .. . ... ...
ROW C0 : ... .. . ... ... ... : ... .. . ... ... ... : ... .. . ... : ... .. B ... : ... .. . ... ...
ROW C1 : ... .. D ... ... ... : ... .. D ... ... ... : ... .. . ... : ... .. 9 ... : ... .. . ... ...
ROW C2 : ... .. . ... ... ... : ... .. . ... ... ... : ... .. . ... : ... .. 6 ... : ... .. . ... ...
ROW C3 : ... .. . ... ... ... : ... .. . ... ... ... : ... .. . ... : ... .. 5 ... : ... .. . ... ...
ROW C4 : ... .. C ... ... ... : ... .. C ... ... ... : ... .. . ... : ... .. 3 ... : ... .. . ... ...
ROW C5 : ... .. . ... ... ... : ... .. . ... ... ... : ... .. . ... : ... .. 1 ... : ... .. . ... ...
ROW C6 : ... .. . ... ... ... : ... .. . ... ... ... : ... .. . ... : ... .. 0 ... : ... .. . ... ...
ROW C7 : ... .. B ... ... ... : ... .. B ... ... ... : ... .. . ... : ... .. . ... : ... .. . ... ...
ROW C8 : ... .. 0 ... V00 ... : ... .. 0 ... V00 ... : A#3 00 . P81 : 4-# 00 F ... : ... .. . ... ...
ROW C9 : G-2 00 F P80 V01 ... : D-3 00 F P80 V01 ... : D#3 00 . P89 : ... .. . ... : ... .. . ... ...
ROW CA : ... .. E ... ... ... : ... .. E ... ... ... : B-2 00 . P76 : ... .. . ... : ... .. . ... ...
ROW CB : ... .. . ... ... ... : ... .. . ... ... ... : G-2 00 . P7C : ... .. C ... : ... .. . ... ...
ROW CC : ... .. . ... ... ... : ... .. . ... ... ... : E-2 00 . P78 : ... .. B ... : ... .. . ... ...
ROW CD : ... .. D ... ... ... : ... .. D ... ... ... : C#2 00 . P88 : ... .. 9 ... : ... .. . ... ...
ROW CE : ... .. . ... ... ... : ... .. . ... ... ... : B-1 00 . P7B : ... .. 6 ... : ... .. . ... ...
ROW CF : ... .. . ... ... ... : ... .. . ... ... ... : A-1 00 . P7A : ... .. 5 ... : ... .. . ... ...
ROW D0 : ... .. C ... ... ... : ... .. C ... ... ... : G-1 00 . P86 : ... .. 3 ... : ... .. . ... ...
ROW D1 : ... .. . ... ... ... : ... .. . ... ... ... : F-1 00 . PA2 : ... .. 1 ... : ... .. . ... ...
ROW D2 : ... .. . ... ... ... : ... .. . ... ... ... : --- .. . ... : ... .. 0 ... : ... .. . ... ...
ROW D3 : ... .. B ... ... ... : ... .. B ... ... ... : ... .. . ... : ... .. . ... : ... .. . ... ...
ROW D4 : ... .. 0 ... V00 ... : ... .. 0 ... V00 ... : ... .. . ... : D-# 00 F ... : ... .. . ... ...
ROW D5 : C-3 00 F P80 V01 ... : E-3 00 F P80 V01 ... : C-3 00 . P80 : ... .. . ... : ... .. . ... ...
ROW D6 : ... .. E ... ... ... : ... .. E ... ... ... : ... .. . ... : ... .. . ... : ... .. . ... ...
ROW D7 : ... .. . ... ... ... : ... .. . ... ... ... : ... .. . ... : ... .. C ... : ... .. . ... ...
ROW D8 : ... .. . ... ... ... : ... .. . ... ... ... : ... .. . ... : ... .. B ... : ... .. . ... ...
ROW D9 : ... .. D ... ... ... : ... .. D ... ... ... : ... .. . ... : ... .. 9 ... : ... .. . ... ...
ROW DA : ... .. . ... ... ... : ... .. . ... ... ... : ... .. . ... : ... .. 6 ... : ... .. . ... ...
ROW DB : ... .. . ... ... ... : ... .. . ... ... ... : ... .. . ... : ... .. 5 ... : ... .. . ... ...
ROW DC : ... .. C ... ... ... : ... .. C ... ... ... : ... .. . ... : ... .. 3 ... : ... .. . ... ...
ROW DD : ... .. . ... ... ... : ... .. . ... ... ... : ... .. . ... : ... .. 1 ... : ... .. . ... ...
ROW DE : ... .. . ... ... ... : ... .. . ... ... ... : ... .. . ... : ... .. 0 ... : ... .. . ... ...
ROW DF : ... .. B ... ... ... : ... .. B ... ... ... : ... .. . ... : ... .. . ... : ... .. . ... ...
ROW E0 : ... .. 0 ... V00 ... : ... .. 0 ... V00 ... : A#3 00 . P81 : 1-# 00 F ... : ... .. . ... ...
ROW E1 : F-3 00 F P80 V01 ... : A-3 00 F P80 V01 ... : D#3 00 . P89 : ... .. . ... : ... .. . ... ...
ROW E2 : ... .. E ... ... ... : ... .. E ... ... ... : B-2 00 . P76 : ... .. . ... : ... .. . ... ...
ROW E3 : ... .. . ... ... ... : ... .. . ... ... ... : G-2 00 . P7C : ... .. C ... : ... .. . ... ...
ROW E4 : ... .. . ... ... ... : ... .. . ... ... ... : E-2 00 . P78 : ... .. B ... : ... .. . ... ...
ROW E5 : ... .. D ... ... ... : ... .. D ... ... ... : C#2 00 . P88 : ... .. 9 ... : ... .. . ... ...
ROW E6 : ... .. . ... ... ... : ... .. . ... ... ... : B-1 00 . P7B : ... .. 6 ... : ... .. . ... ...
ROW E7 : ... .. . ... ... ... : ... .. . ... ... ... : A-1 00 . P7A : ... .. 5 ... : ... .. . ... ...
ROW E8 : ... .. C ... ... ... : ... .. C ... ... ... : G-1 00 . P86 : ... .. 3 ... : ... .. . ... ...
ROW E9 : ... .. . ... ... ... : ... .. . ... ... ... : F-1 00 . PA2 : ... .. 1 ... : ... .. . ... ...
ROW EA : ... .. . ... ... ... : ... .. . ... ... ... : --- .. . ... : ... .. 0 ... : ... .. . ... ...
ROW EB : ... .. B ... ... ... : ... .. B ... ... ... : ... .. . ... : ... .. . ... : ... .. . ... ...
ROW EC : ... .. . ... ... ... : ... .. . ... ... ... : ... .. . ... : D-# 00 F ... : ... .. . ... ...
ROW ED : ... .. . ... ... ... : ... .. . ... ... ... : F-2 00 . P80 : ... .. . ... : ... .. . ... ...
ROW EE : ... .. A ... ... ... : ... .. A ... ... ... : ... .. . ... : ... .. . ... : ... .. . ... ...
ROW EF : ... .. . ... ... ... : ... .. . ... ... ... : ... .. . ... : ... .. C ... : ... .. . ... ...
ROW F0 : ... .. . ... ... ... : ... .. . ... ... ... : ... .. . ... : ... .. B ... : ... .. . ... ...
ROW F1 : ... .. 9 ... ... ... : ... .. 9 ... ... ... : ... .. . ... : ... .. 9 ... : ... .. . ... ...
ROW F2 : ... .. . ... ... ... : ... .. . ... ... ... : ... .. . ... : ... .. 6 ... : ... .. . ... ...
ROW F3 : ... .. . ... ... ... : ... .. . ... ... ... : ... .. . ... : ... .. 5 ... : ... .. . ... ...
ROW F4 : ... .. 8 ... ... ... : ... .. 8 ... ... ... : ... .. . ... : ... .. 3 ... : ... .. . ... ...
ROW F5 : ... .. . ... ... ... : ... .. . ... ... ... : ... .. . ... : ... .. 1 ... : ... .. . ... ...
ROW F6 : ... .. 7 ... ... ... : ... .. 7 ... ... ... : ... .. . ... : ... .. 0 ... : ... .. . ... ...
ROW F7 : ... .. . ... ... ... : ... .. . ... ... ... : ... .. . ... : ... .. . ... : ... .. . ... ...
ROW F8 : ... .. 0 ... V00 ... : ... .. 0 ... V00 ... : A#3 00 . P81 : 4-# 00 F ... : ... .. . ... ...
ROW F9 : F-3 00 F P80 V01 ... : A-3 00 F P80 V01 ... : D#3 00 . P89 : ... .. . ... : ... .. . ... ...
ROW FA : ... .. E ... ... ... : ... .. E ... ... ... : B-2 00 . P76 : ... .. . ... : ... .. . ... ...
ROW FB : ... .. . ... ... ... : ... .. . ... ... ... : G-2 00 . P7C : ... .. C ... : ... .. . ... ...
ROW FC : ... .. . ... ... ... : ... .. . ... ... ... : E-2 00 . P78 : ... .. B ... : ... .. . ... ...
ROW FD : ... .. D ... ... ... : ... .. D ... ... ... : C#2 00 . P88 : ... .. 9 ... : ... .. . ... ...
ROW FE : ... .. . ... ... ... : ... .. . ... ... ... : B-1 00 . P7B : ... .. 6 ... : ... .. . ... ...
ROW FF : ... .. . ... ... ... : ... .. . ... ... ... : A-1 00 . P7A : ... .. 5 ... : ... .. . ... ...

PATTERN 0E
ROW 00 : ... .. C ... ... ... : ... .. C ... ... ... : G-1 00 . P86 : ... .. 3 ... : ... .. . ... ...
ROW 01 : ... .. . ... ... ... : ... .. . ... ... ... : F-1 00 . PA2 : ... .. 1 ... : ... .. . ... ...
ROW 02 : ... .. . ... ... ... : ... .. . ... ... ... : --- .. . ... : ... .. 0 ... : ... .. . ... ...
ROW 03 : ... .. B ... ... ... : ... .. B ... ... ... : ... .. . ... : ... .. . ... : ... .. . ... ...
ROW 04 : ... .. 0 ... V00 ... : ... .. 0 ... V00 ... : ... .. . ... : D-# 00 F ... : ... .. . ... ...
ROW 05 : E-3 00 F P80 V01 ... : G-3 00 F P80 V01 ... : F-2 00 . P80 : ... .. . ... : ... .. . ... ...
ROW 06 : ... .. E ... ... ... : ... .. E ... ... ... : ... .. . ... : ... .. . ... : ... .. . ... ...
ROW 07 : ... .. . ... ... ... : ... .. . ... ... ... : ... .. . ... : ... .. C ... : ... .. . ... ...
ROW 08 : ... .. . ... ... ... : ... .. . ... ... ... : ... .. . ... : ... .. B ... : ... .. . ... ...
ROW 09 : ... .. D ... ... ... : ... .. D ... ... ... : ... .. . ... : ... .. 9 ... : ... .. . ... ...
ROW 0A : ... .. 0 ... V00 ... : ... .. 0 ... V00 ... : ... .. . ... : ... .. 6 ... : ... .. . ... ...
ROW 0B : E-3 00 F P80 V01 ... : G-3 00 F P80 V01 ... : ... .. . ... : ... .. 5 ... : ... .. . ... ...
ROW 0C : ... .. E ... ... ... : ... .. E ... ... ... : ... .. . ... : ... .. 3 ... : ... .. . ... ...
ROW 0D : ... .. . ... ... ... : ... .. . ... ... ... : ... .. . ... : ... .. 1 ... : ... .. . ... ...
ROW 0E : ... .. . ... ... ... : ... .. . ... ... ... : ... .. . ... : ... .. 0 ... : ... .. . ... ...
ROW 0F : ... .. D ... ... ... : ... .. D ... ... ... : ... .. . ... : ... .. . ... : ... .. . ... ...
ROW 10 : ... .. 0 ... V00 ... : ... .. 0 ... V00 ... : A#3 00 . P81 : 1-# 00 F ... : ... .. . ... ...
ROW 11 : E-3 00 F P80 V01 ... : G-3 00 F P80 V01 ... : D#3 00 . P89 : ... .. . ... : ... .. . ... ...
ROW 12 : ... .. E ... ... ... : ... .. E ... ... ... : B-2 00 . P76 : ... .. . ... : ... .. . ... ...
ROW 13 : ... .. . ... ... ... : ... .. . ... ... ... : G-2 00 . P7C : ... .. C ... : ... .. . ... ...
ROW 14 : ... .. . ... ... ... : ... .. . ... ... ... : E-2 00 . P78 : ... .. B ... : ... .. . ... ...
ROW 15 : ... .. D ... ... ... : ... .. D ... ... ... : C#2 00 . P88 : ... .. 9 ... : ... .. . ... ...
ROW 16 : ... .. . ... ... ... : ... .. . ... ... ... : B-1 00 . P7B : ... .. 6 ... : ... .. . ... ...
ROW 17 : ... .. . ... ... ... : ... .. . ... ... ... : A-1 00 . P7A : ... .. 5 ... : ... .. . ... ...
ROW 18 : ... .. C ... ... ... : ... .. C ... ... ... : G-1 00 . P86 : ... .. 3 ... : ... .. . ... ...
ROW 19 : ... .. . ... ... ... : ... .. . ... ... ... : F-1 00 . PA2 : ... .. 1 ... : ... .. . ... ...
ROW 1A : ... .. . ... ... ... : ... .. . ... ... ... : --- .. . ... : ... .. 0 ... : ... .. . ... ...
ROW 1B : ... .. B ... ... ... : ... .. B ... ... ... : ... .. . ... : ... .. . ... : ... .. . ... ...
ROW 1C : ... .. 0 ... V00 ... : ... .. 0 ... V00 ... : ... .. . ... : D-# 00 F ... : ... .. . ... ...
ROW 1D : C-3 00 F P80 V01 ... : E-3 00 F P80 V01 ... : G-2 00 . P80 : ... .. . ... : ... .. . ... ...
ROW 1E : ... .. E ... ... ... : ... .. E ... ... ... : ... .. . ... : ... .. . ... : ... .. . ... ...
ROW 1F : ... .. . ... ... ... : ... .. . ... ... ... : ... .. . ... : ... .. C ... : ... .. . ... ...
ROW 20 : ... .. . ... ... ... : ... .. . ... ... ... : ... .. . ... : ... .. B ... : ... .. . ... ...
ROW 21 : ... .. D ... ... ... : ... .. D ... ... ... : ... .. . ... : ... .. 9 ... : ... .. . ... ...
ROW 22 : ... .. . ... ... ... : ... .. . ... ... ... : ... .. . ... : ... .. 6 ... : ... .. . ... ...
ROW 23 : ... .. . ... ... ... : ... .. . ... ... ... : ... .. . ... : ... .. 5 ... : ... .. . ... ...
ROW 24 : ... .. C ... ... ... : ... .. C ... ... ... : ... .. . ... : ... .. 3 ... : ... .. . ... ...
ROW 25 : ... .. . ... ... ... : ... .. . ... ... ... : ... .. . ... : ... .. 1 ... : ... .. . ... ...
ROW 26 : ... .. . ... ... ... : ... .. . ... ... ... : ... .. . ... : ... .. 0 ... : ... .. . ... ...
ROW 27 : ... .. B ... ... ... : ... .. B ... ... ... : ... .. . ... : ... .. . ... : ... .. . ... ...
ROW 28 : ... .. 0 ... V00 ... : ... .. 0 ... V00 ... : A#3 00 . P81 : 4-# 00 F ... : ... .. . ... ...
ROW 29 : G-2 00 F P80 V01 ... : D-3 00 F P80 V01 ... : D#3 00 . P89 : ... .. . ... : ... .. . ... ...
ROW 2A : ... .. E ... ... ... : ... .. E ... ... ... : B-2 00 . P76 : ... .. . ... : ... .. . ... ...
ROW 2B : ... .. . ... ... ... : ... .. . ... ... ... : G-2 00 . P7C : ... .. C ... : ... .. . ... ...
ROW 2C : ... .. . ... ... ... : ... .. . ... ... ... : E-2 00 . P78 : ... .. B ... : ... .. . ... ...
ROW 2D : ... .. D ... ... ... : ... .. D ... ... ... : C#2 00 . P88 : ... .. 9 ... : ... .. . ... ...
ROW 2E : ... .. . ... ... ... : ... .. . ... ... ... : B-1 00 . P7B : ... .. 6 ... : ... .. . ... ...
ROW 2F : ... .. . ... ... ... : ... .. . ... ... ... : A-1 00 . P7A : ... .. 5 ... : ... .. . ... ...
ROW 30 : ... .. C ... ... ... : ... .. C ... ... ... : G-1 00 . P86 : ... .. 3 ... : ... .. . ... ...
ROW 31 : ... .. . ... ... ... : ... .. . ... ... ... : F-1 00 . PA2 : ... .. 1 ... : ... .. . ... ...
ROW 32 : ... .. . ... ... ... : ... .. . ... ... ... : --- .. . ... : ... .. 0 ... : ... .. . ... ...
ROW 33 : ... .. B ... ... ... : ... .. B ... ... ... : ... .. . ... : ... .. . ... : ... .. . ... ...
ROW 34 : ... .. 0 ... V00 ... : ... .. 0 ... V00 ... : ... .. . ... : D-# 00 F ... : ... .. . ... ...
ROW 35 : C-3 00 F P80 V01 ... : E-3 00 F P80 V01 ... : G-2 00 . P80 : ... .. . ... : ... .. . ... ...
ROW 36 : ... .. E ... ... ... : ... .. E ... ... ... : ... .. . ... : ... .. . ... : ... .. . ... ...
ROW 37 : ... .. . ... ... ... : ... .. . ... ... ... : ... .. . ... : ... .. C ... : ... .. . ... ...
ROW 38 : ... .. . ... ... ... : ... .. . ... ... ... : ... .. . ... : ... .. B ... : ... .. . ... ...
ROW 39 : ... .. D ... ... ... : ... .. D ... ... ... : ... .. . ... : ... .. 9 ... : ... .. . ... ...
ROW 3A : ... .. . ... ... ... : ... .. . ... ... ... : ... .. . ... : ... .. 6 ... : ... .. . ... ...
ROW 3B : ... .. . ... ... ... : ... .. . ... ... ... : ... .. . ... : ... .. 5 ... : ... .. . ... ...
ROW 3C : ... .. C ... ... ... : ... .. C ... ... ... : ... .. . ... : ... .. 3 ... : ... .. . ... ...
ROW 3D : ... .. . ... ... ... : ... .. . ... ... ... : ... .. . ... : ... .. 1 ... : ... .. . ... ...
ROW 3E : ... .. . ... ... ... : ... .. . ... ... ... : ... .. . ... : ... .. 0 ... : ... .. . ... ...
ROW 3F : ... .. B ... ... ... : ... .. B ... ... ... : ... .. . ... : ... .. . ... : ... .. . ... ...
ROW 40 : ... .. 0 ... V00 ... : ... .. 0 ... V00 ... : A#3 00 . P81 : 1-# 00 F ... : ... .. . ... ...
ROW 41 : G-2 00 F P80 V01 ... : C-3 00 F P80 V01 ... : D#3 00 . P89 : ... .. . ... : ... .. . ... ...
ROW 42 : ... .. E ... ... ... : ... .. E ... ... ... : B-2 00 . P76 : ... .. . ... : ... .. . ... ...
ROW 43 : ... .. . ... ... ... : ... .. . ... ... ... : G-2 00 . P7C : ... .. C ... : ... .. . ... ...
ROW 44 : ... .. . ... ... ... : ... .. . ... ... ... : E-2 00 . P78 : ... .. B ... : ... .. . ... ...
ROW 45 : ... .. D ... ... ... : ... .. D ... ... ... : C#2 00 . P88 : ... .. 9 ... : ... .. . ... ...
ROW 46 : ... .. . ... ... ... : ... .. . ... ... ... : B-1 00 . P7B : ... .. 6 ... : ... .. . ... ...
ROW 47 : ... .. . ... ... ... : ... .. . ... ... ... : A-1 00 . P7A : ... .. 5 ... : ... .. . ... ...
ROW 48 : ... .. C ... ... ... : ... .. C ... ... ... : G-1 00 . P86 : ... .. 3 ... : ... .. . ... ...
ROW 49 : ... .. . ... ... ... : ... .. . ... ... ... : F-1 00 . PA2 : ... .. 1 ... : ... .. . ... ...
ROW 4A : ... .. . ... ... ... : ... .. . ... ... ... : --- .. . ... : ... .. 0 ... : ... .. . ... ...
ROW 4B : ... .. B ... ... ... : ... .. B ... ... ... : ... .. . ... : ... .. . ... : ... .. . ... ...
ROW 4C : ... .. . ... ... ... : ... .. . ... ... ... : ... .. . ... : D-# 00 F ... : ... .. . ... ...
ROW 4D : ... .. . ... ... ... : ... .. . ... ... ... : C-3 00 . P80 : ... .. . ... : ... .. . ... ...
ROW 4E : ... .. A ... ... ... : ... .. A ... ... ... : ... .. . ... : ... .. . ... : ... .. . ... ...
ROW 4F : ... .. . ... ... ... : ... .. . ... ... ... : ... .. . ... : ... .. C ... : ... .. . ... ...
ROW 50 : ... .. . ... ... ... : ... .. . ... ... ... : ... .. . ... : ... .. B ... : ... .. . ... ...
ROW 51 : ... .. 9 ... ... ... : ... .. 9 ... ... ... : ... .. . ... : ... .. 9 ... : ... .. . ... ...
ROW 52 : ... .. . ... ... ... : ... .. . ... ... ... : ... .. . ... : ... .. 6 ... : ... .. . ... ...
ROW 53 : ... .. . ... ... ... : ... .. . ... ... ... : ... .. . ... : ... .. 5 ... : ... .. . ... ...
ROW 54 : ... .. 8 ... ... ... : ... .. 8 ... ... ... : ... .. . ... : ... .. 3 ... : ... .. . ... ...
ROW 55 : ... .. . ... ... ... : ... .. . ... ... ... : ... .. . ... : ... .. 1 ... : ... .. . ... ...
ROW 56 : ... .. 7 ... ... ... : ... .. 7 ... ... ... : ... .. . ... : ... .. 0 ... : ... .. . ... ...
ROW 57 : ... .. . ... ... ... : ... .. . ... ... ... : ... .. . ... : ... .. . ... : ... .. . ... ...
ROW 58 : ... .. 0 ... V00 ... : ... .. 0 ... V00 ... : A#3 00 . P81 : 4-# 00 F ... : ... .. . ... ...
ROW 59 : C-3 00 F P80 V01 ... : E-3 00 F P80 V01 ... : D#3 00 . P89 : ... .. . ... : ... .. . ... ...
ROW 5A : ... .. E ... ... ... : ... .. E ... ... ... : B-2 00 . P76 : ... .. . ... : ... .. . ... ...
ROW 5B : ... .. . ... ... ... : ... .. . ... ... ... : G-2 00 . P7C : ... .. C ... : ... .. . ... ...
ROW 5C : ... .. . ... ... ... : ... .. . ... ... ... : E-2 00 . P78 : ... .. B ... : ... .. . ... ...
ROW 5D : ... .. D ... ... ... : ... .. D ... ... ... : C#2 00 . P88 : ... .. 9 ... : ... .. . ... ...
ROW 5E : ... .. . ... ... ... : ... .. . ... ... ... : B-1 00 . P7B : ... .. 6 ... : ... .. . ... ...
ROW 5F : ... .. . ... ... ... : ... .. . ... ... ... : A-1 00 . P7A : ... .. 5 ... : ... .. . ... ...
ROW 60 : ... .. C ... ... ... : ... .. C ... ... ... : G-1 00 . P86 : ... .. 3 ... : ... .. . ... ...
ROW 61 : ... .. . ... ... ... : ... .. . ... ... ... : F-1 00 . PA2 : ... .. 1 ... : ... .. . ... ...
ROW 62 : ... .. . ... ... ... : ... .. . ... ... ... : --- .. . ... : ... .. 0 ... : ... .. . ... ...
ROW 63 : ... .. B ... ... ... : ... .. B ... ... ... : ... .. . ... : ... .. . ... : ... .. . ... ...
ROW 64 : ... .. 0 ... V00 ... : ... .. 0 ... V00 ... : ... .. . ... : D-# 00 F ... : ... .. . ... ...
ROW 65 : E-3 00 F P80 V01 ... : G-3 00 F P80 V01 ... : C-3 00 . P80 : ... .. . ... : ... .. . ... ...
ROW 66 : ... .. E ... ... ... : ... .. E ... ... ... : ... .. . ... : ... .. . ... : ... .. . ... ...
ROW 67 : ... .. . ... ... ... : ... .. . ... ... ... : ... .. . ... : ... .. C ... : ... .. . ... ...
ROW 68 : ... .. . ... ... ... : ... .. . ... ... ... : ... .. . ... : ... .. B ... : ... .. . ... ...
ROW 69 : ... .. D ... ... ... : ... .. D ... ... ... : ... .. . ... : ... .. 9 ... : ... .. . ... ...
ROW 6A : ... .. 0 ... V00 ... : ... .. 0 ... V00 ... : ... .. . ... : ... .. 6 ... : ... .. . ... ...
ROW 6B : E-3 00 F P80 V01 ... : G-3 00 F P80 V01 ... : ... .. . ... : ... .. 5 ... : ... .. . ... ...
ROW 6C : ... .. E ... ... ... : ... .. E ... ... ... : ... .. . ... : ... .. 3 ... : ... .. . ... ...
ROW 6D : ... .. . ... ... ... : ... .. . ... ... ... : ... .. . ... : ... .. 1 ... : ... .. . ... ...
ROW 6E : ... .. . ... ... ... : ... .. . ... ... ... : ... .. . ... : ... .. 0 ... : ... .. . ... ...
ROW 6F : ... .. D ... ... ... : ... .. D ... ... ... : ... .. . ... : ... .. . ... : ... .. . ... ...
ROW 70 : ... .. 0 ... V00 ... : ... .. 0 ... V00 ... : A#3 00 . P81 : 1-# 00 F ... : ... .. . ... ...
ROW 71 : E-3 00 F P80 V01 ... : G-3 00 F P80 V01 ... : D#3 00 . P89 : ... .. . ... : ... .. . ... ...
ROW 72 : ... .. E ... ... ... : ... .. E ... ... ... : B-2 00 . P76 : ... .. . ... : ... .. . ... ...
ROW 73 : ... .. . ... ... ... : ... .. . ... ... ... : G-2 00 . P7C : ... .. C ... : ... .. . ... ...
ROW 74 : ... .. . ... ... ... : ... .. . ... ... ... : E-2 00 . P78 : ... .. B ... : ... .. . ... ...
ROW 75 : ... .. D ... ... ... : ... .. D ... ... ... : C#2 00 . P88 : ... .. 9 ... : ... .. . ... ...
ROW 76 : ... .. . ... ... ... : ... .. . ... ... ... : B-1 00 . P7B : ... .. 6 ... : ... .. . ... ...
ROW 77 : ... .. . ... ... ... : ... .. . ... ... ... : A-1 00 . P7A : ... .. 5 ... : ... .. . ... ...
ROW 78 : ... .. C ... ... ... : ... .. C ... ... ... : G-1 00 . P86 : ... .. 3 ... : ... .. . ... ...
ROW 79 : ... .. . ... ... ... : ... .. . ... ... ... : F-1 00 . PA2 : ... .. 1 ... : ... .. . ... ...
ROW 7A : ... .. . ... ... ... : ... .. . ... ... ... : --- .. . ... : ... .. 0 ... : ... .. . ... ...
ROW 7B : ... .. B ... ... ... : ... .. B ... ... ... : ... .. . ... : ... .. . ... : ... .. . ... ...
ROW 7C : ... .. 0 ... V00 ... : ... .. 0 ... V00 ... : ... .. . ... : D-# 00 F ... : ... .. . ... ...
ROW 7D : C-3 00 F P80 V01 ... : E-3 00 F P80 V01 ... : C-3 00 . P80 : ... .. . ... : ... .. . ... ...
ROW 7E : ... .. E ... ... ... : ... .. E ... ... ... : ... .. . ... : ... .. . ... : ... .. . ... ...
ROW 7F : ... .. . ... ... ... : ... .. . ... ... ... : ... .. . ... : ... .. C ... : ... .. . ... ...
ROW 80 : ... .. . ... ... ... : ... .. . ... ... ... : ... .. . ... : ... .. B ... : ... .. . ... ...
ROW 81 : ... .. D ... ... ... : ... .. D ... ... ... : ... .. . ... : ... .. 9 ... : ... .. . ... ...
ROW 82 : ... .. . ... ... ... : ... .. . ... ... ... : ... .. . ... : ... .. 6 ... : ... .. . ... ...
ROW 83 : ... .. . ... ... ... : ... .. . ... ... ... : ... .. . ... : ... .. 5 ... : ... .. . ... ...
ROW 84 : ... .. C ... ... ... : ... .. C ... ... ... : ... .. . ... : ... .. 3 ... : ... .. . ... ...
ROW 85 : ... .. . ... ... ... : ... .. . ... ... ... : ... .. . ... : ... .. 1 ... : ... .. . ... ...
ROW 86 : ... .. . ... ... ... : ... .. . ... ... ... : ... .. . ... : ... .. 0 ... : ... .. . ... ...
ROW 87 : ... .. B ... ... ... : ... .. B ... ... ... : ... .. . ... : ... .. . ... : ... .. . ... ...
ROW 88 : ... .. 0 ... V00 ... : ... .. 0 ... V00 ... : A#3 00 . P81 : 4-# 00 F ... : ... .. . ... ...
ROW 89 : G-2 00 F P80 V01 ... : D-3 00 F P80 V01 ... : D#3 00 . P89 : ... .. . ... : ... .. . ... ...
ROW 8A : ... .. E ... ... ... : ... .. E ... ... ... : B-2 00 . P76 : ... .. . ... : ... .. . ... ...
ROW 8B : ... .. . ... ... ... : ... .. . ... ... ... : G-2 00 . P7C : ... .. C ... : ... .. . ... ...
ROW 8C : ... .. . ... ... ... : ... .. . ... ... ... : E-2 00 . P78 : ... .. B ... : ... .. . ... ...
ROW 8D : ... .. D ... ... ... : ... .. D ... ... ... : C#2 00 . P88 : ... .. 9 ... : ... .. . ... ...
ROW 8E : ... .. . ... ... ... : ... .. . ... ... ... : B-1 00 . P7B : ... .. 6 ... : ... .. . ... ...
ROW 8F : ... .. . ... ... ... : ... .. . ... ... ... : A-1 00 . P7A : ... .. 5 ... : ... .. . ... ...
ROW 90 : ... .. C ... ... ... : ... .. C ... ... ... : G-1 00 . P86 : ... .. 3 ... : ... .. . ... ...
ROW 91 : ... .. . ... ... ... : ... .. . ... ... ... : F-1 00 . PA2 : ... .. 1 ... : ... .. . ... ...
ROW 92 : ... .. . ... ... ... : ... .. . ... ... ... : --- .. . ... : ... .. 0 ... : ... .. . ... ...
ROW 93 : ... .. B ... ... ... : ... .. B ... ... ... : ... .. . ... : ... .. . ... : ... .. . ... ...
ROW 94 : ... .. 0 ... V00 ... : ... .. 0 ... V00 ... : ... .. . ... : D-# 00 F ... : ... .. . ... ...
ROW 95 : C-3 00 F P80 V01 ... : E-3 00 F P80 V01 ... : C-3 00 . P80 : ... .. . ... : ... .. . ... ...
ROW 96 : ... .. E ... ... ... : ... .. E ... ... ... : ... .. . ... : ... .. . ... : ... .. . ... ...
ROW 97 : ... .. . ... ... ... : ... .. . ... ... ... : ... .. . ... : ... .. C ... : ... .. . ... ...
ROW 98 : ... .. . ... ... ... : ... .. . ... ... ... : ... .. . ... : ... .. B ... : ... .. . ... ...
ROW 99 : ... .. D ... ... ... : ... .. D ... ... ... : ... .. . ... : ... .. 9 ... : ... .. . ... ...
ROW 9A : ... .. . ... ... ... : ... .. . ... ... ... : ... .. . ... : ... .. 6 ... : ... .. . ... ...
ROW 9B : ... .. . ... ... ... : ... .. . ... ... ... : ... .. . ... : ... .. 5 ... : ... .. . ... ...
ROW 9C : ... .. C ... ... ... : ... .. C ... ... ... : ... .. . ... : ... .. 3 ... : ... .. . ... ...
ROW 9D : ... .. . ... ... ... : ... .. . ... ... ... : ... .. . ... : ... .. 1 ... : ... .. . ... ...
ROW 9E : ... .. . ... ... ... : ... .. . ... ... ... : ... .. . ... : ... .. 0 ... : ... .. . ... ...
ROW 9F : ... .. B ... ... ... : ... .. B ... ... ... : ... .. . ... : ... .. . ... : ... .. . ... ...
ROW A0 : ... .. 0 ... V00 ... : ... .. 0 ... V00 ... : A#3 00 . P81 : 1-# 00 F ... : ... .. . ... ...
ROW A1 : F-3 00 F P80 V01 ... : A-3 00 F P80 V01 ... : D#3 00 . P89 : ... .. . ... : ... .. . ... ...
ROW A2 : ... .. E ... ... ... : ... .. E ... ... ... : B-2 00 . P76 : ... .. . ... : ... .. . ... ...
ROW A3 : ... .. . ... ... ... : ... .. . ... ... ... : G-2 00 . P7C : ... .. C ... : ... .. . ... ...
ROW A4 : ... .. . ... ... ... : ... .. . ... ... ... : E-2 00 . P78 : ... .. B ... : ... .. . ... ...
ROW A5 : ... .. D ... ... ... : ... .. D ... ... ... : C#2 00 . P88 : ... .. 9 ... : ... .. . ... ...
ROW A6 : ... .. . ... ... ... : ... .. . ... ... ... : B-1 00 . P7B : ... .. 6 ... : ... .. . ... ...
ROW A7 : ... .. . ... ... ... : ... .. . ... ... ... : A-1 00 . P7A : ... .. 5 ... : ... .. . ... ...
ROW A8 : ... .. C ... ... ... : ... .. C ... ... ... : G-1 00 . P86 : ... .. 3 ... : ... .. . ... ...
ROW A9 : ... .. . ... ... ... : ... .. . ... ... ... : F-1 00 . PA2 : ... .. 1 ... : ... .. . ... ...
ROW AA : ... .. . ... ... ... : ... .. . ... ... ... : --- .. . ... : ... .. 0 ... : ... .. . ... ...
ROW AB : ... .. B ... ... ... : ... .. B ... ... ... : ... .. . ... : ... .. . ... : ... .. . ... ...
ROW AC : ... .. . ... ... ... : ... .. . ... ... ... : ... .. . ... : D-# 00 F ... : ... .. . ... ...
ROW AD : ... .. . ... ... ... : ... .. . ... ... ... : F-2 00 . P80 : ... .. . ... : ... .. . ... ...
ROW AE : ... .. A ... ... ... : ... .. A ... ... ... : ... .. . ... : ... .. . ... : ... .. . ... ...
ROW AF : ... .. . ... ... ... : ... .. . ... ... ... : ... .. . ... : ... .. C ... : ... .. . ... ...
ROW B0 : ... .. . ... ... ... : ... .. . ... ... ... : ... .. . ... : ... .. B ... : ... .. . ... ...
ROW B1 : ... .. 9 ... ... ... : ... .. 9 ... ... ... : ... .. . ... : ... .. 9 ... : ... .. . ... ...
ROW B2 : ... .. . ... ... ... : ... .. . ... ... ... : ... .. . ... : ... .. 6 ... : ... .. . ... ...
ROW B3 : ... .. . ... ... ... : ... .. . ... ... ... : ... .. . ... : ... .. 5 ... : ... .. . ... ...
ROW B4 : ... .. 8 ... ... ... : ... .. 8 ... ... ... : ... .. . ... : ... .. 3 ... : ... .. . ... ...
ROW B5 : ... .. . ... ... ... : ... .. . ... ... ... : ... .. . ... : ... .. 1 ... : ... .. . ... ...
ROW B6 : ... .. 7 ... ... ... : ... .. 7 ... ... ... : ... .. . ... : ... .. 0 ... : ... .. . ... ...
ROW B7 : ... .. . ... ... ... : ... .. . ... ... ... : ... .. . ... : ... .. . ... : ... .. . ... ...
ROW B8 : ... .. 0 ... V00 ... : ... .. 0 ... V00 ... : A#3 00 . P81 : 4-# 00 F ... : ... .. . ... ...
ROW B9 : F-3 00 F P80 V01 ... : A-3 00 F P80 V01 ... : D#3 00 . P89 : ... .. . ... : ... .. . ... ...
ROW BA : ... .. E ... ... ... : ... .. E ... ... ... : B-2 00 . P76 : ... .. . ... : ... .. . ... ...
ROW BB : ... .. . ... ... ... : ... .. . ... ... ... : G-2 00 . P7C : ... .. C ... : ... .. . ... ...
ROW BC : ... .. . ... ... ... : ... .. . ... ... ... : E-2 00 . P78 : ... .. B ... : ... .. . ... ...
ROW BD : ... .. D ... ... ... : ... .. D ... ... ... : C#2 00 . P88 : ... .. 9 ... : ... .. . ... ...
ROW BE : ... .. . ... ... ... : ... .. . ... ... ... : B-1 00 . P7B : ... .. 6 ... : ... .. . ... ...
ROW BF : ... .. . ... ... ... : ... .. . ... ... ... : A-1 00 . P7A : ... .. 5 ... : ... .. . ... ...
ROW C0 : ... .. C ... ... ... : ... .. C ... ... ... : G-1 00 . P86 : ... .. 3 ... : ... .. . ... ...
ROW C1 : ... .. . ... ... ... : ... .. . ... ... ... : F-1 00 . PA2 : ... .. 1 ... : ... .. . ... ...
ROW C2 : ... .. . ... ... ... : ... .. . ... ... ... : --- .. . ... : ... .. 0 ... : ... .. . ... ...
ROW C3 : ... .. B ... ... ... : ... .. B ... ... ... : ... .. . ... : ... .. . ... : ... .. . ... ...
ROW C4 : ... .. 0 ... V00 ... : ... .. 0 ... V00 ... : ... .. . ... : D-# 00 F ... : ... .. . ... ...
ROW C5 : G-3 00 F P80 V01 ... : B-3 00 F P80 V01 ... : F-2 00 . P80 : ... .. . ... : ... .. . ... ...
ROW C6 : ... .. E ... ... ... : ... .. E ... ... ... : ... .. . ... : ... .. . ... : ... .. . ... ...
ROW C7 : ... .. . ... ... ... : ... .. . ... ... ... : ... .. . ... : ... .. C ... : ... .. . ... ...
ROW C8 : ... .. . ... ... ... : ... .. . ... ... ... : ... .. . ... : ... .. B ... : ... .. . ... ...
ROW C9 : ... .. D ... ... ... : ... .. D ... ... ... : ... .. . ... : ... .. 9 ... : ... .. . ... ...
ROW CA : ... .. 0 ... V00 ... : ... .. 0 ... V00 ... : ... .. . ... : ... .. 6 ... : ... .. . ... ...
ROW CB : G-3 00 F P80 V01 ... : B-3 00 F P80 V01 ... : ... .. . ... : ... .. 5 ... : ... .. . ... ...
ROW CC : ... .. E ... ... ... : ... .. E ... ... ... : ... .. . ... : ... .. 3 ... : ... .. . ... ...
ROW CD : ... .. . ... ... ... : ... .. . ... ... ... : ... .. . ... : ... .. 1 ... : ... .. . ... ...
ROW CE : ... .. . ... ... ... : ... .. . ... ... ... : ... .. . ... : ... .. 0 ... : ... .. . ... ...
ROW CF : ... .. D ... ... ... : ... .. D ... ... ... : ... .. . ... : ... .. . ... : ... .. . ... ...
ROW D0 : ... .. 0 ... V00 ... : ... .. 0 ... V00 ... : A#3 00 . P81 : 1-# 00 F ... : ... .. . ... ...
ROW D1 : G-3 00 F P80 V01 ... : C-4 00 F P80 V01 ... : D#3 00 . P89 : ... .. . ... : ... .. . ... ...
ROW D2 : ... .. E ... ... ... : ... .. E ... ... ... : B-2 00 . P76 : ... .. . ... : ... .. . ... ...
ROW D3 : ... .. . ... ... ... : ... .. . ... ... ... : G-2 00 . P7C : ... .. C ... : ... .. . ... ...
ROW D4 : ... .. . ... ... ... : ... .. . ... ... ... : E-2 00 . P78 : ... .. B ... : ... .. . ... ...
ROW D5 : ... .. D ... ... ... : ... .. D ... ... ... : C#2 00 . P88 : ... .. 9 ... : ... .. . ... ...
ROW D6 : ... .. . ... ... ... : ... .. . ... ... ... : B-1 00 . P7B : ... .. 6 ... : ... .. . ... ...
ROW D7 : ... .. . ... ... ... : ... .. . ... ... ... : A-1 00 . P7A : ... .. 5 ... : ... .. . ... ...
ROW D8 : ... .. C ... ... ... : ... .. C ... ... ... : G-1 00 . P86 : ... .. 3 ... : ... .. . ... ...
ROW D9 : ... .. . ... ... ... : ... .. . ... ... ... : F-1 00 . PA2 : ... .. 1 ... : ... .. . ... ...
ROW DA : ... .. . ... ... ... : ... .. . ... ... ... : --- .. . ... : ... .. 0 ... : ... .. . ... ...
ROW DB : ... .. B ... ... ... : ... .. B ... ... ... : ... .. . ... : ... .. . ... : ... .. . ... ...
ROW DC : ... .. 0 ... V00 ... : ... .. 0 ... V00 ... : ... .. . ... : D-# 00 F ... : ... .. . ... ...
ROW DD : E-3 00 F P80 V01 ... : G-3 00 F P80 V01 ... : G-2 00 . P80 : ... .. . ... : ... .. . ... ...
ROW DE : ... .. E ... ... ... : ... .. E ... ... ... : ... .. . ... : ... .. . ... : ... .. . ... ...
ROW DF : ... .. . ... ... ... : ... .. . ... ... ... : ... .. . ... : ... .. C ... : ... .. . ... ...
ROW E0 : ... .. . ... ... ... : ... .. . ... ... ... : ... .. . ... : ... .. B ... : ... .. . ... ...
ROW E1 : ... .. D ... ... ... : ... .. D ... ... ... : ... .. . ... : ... .. 9 ... : ... .. . ... ...
ROW E2 : ... .. . ... ... ... : ... .. . ... ... ... : ... .. . ... : ... .. 6 ... : ... .. . ... ...
ROW E3 : ... .. . ... ... ... : ... .. . ... ... ... : ... .. . ... : ... .. 5 ... : ... .. . ... ...
ROW E4 : ... .. C ... ... ... : ... .. C ... ... ... : ... .. . ... : ... .. 3 ... : ... .. . ... ...
ROW E5 : ... .. . ... ... ... : ... .. . ... ... ... : ... .. . ... : ... .. 1 ... : ... .. . ... ...
ROW E6 : ... .. . ... ... ... : ... .. . ... ... ... : ... .. . ... : ... .. 0 ... : ... .. . ... ...
ROW E7 : ... .. B ... ... ... : ... .. B ... ... ... : ... .. . ... : ... .. . ... : ... .. . ... ...
ROW E8 : ... .. 0 ... V00 ... : ... .. 0 ... V00 ... : A#3 00 . P81 : 4-# 00 F ... : ... .. . ... ...
ROW E9 : C-3 00 F P80 V01 ... : F-3 00 F P80 V01 ... : D#3 00 . P89 : ... .. . ... : ... .. . ... ...
ROW EA : ... .. E ... ... ... : ... .. E ... ... ... : B-2 00 . P76 : ... .. . ... : ... .. . ... ...
ROW EB : ... .. . ... ... ... : ... .. . ... ... ... : G-2 00 . P7C : ... .. C ... : ... .. . ... ...
ROW EC : ... .. . ... ... ... : ... .. . ... ... ... : E-2 00 . P78 : ... .. B ... : ... .. . ... ...
ROW ED : ... .. D ... ... ... : ... .. D ... ... ... : C#2 00 . P88 : ... .. 9 ... : ... .. . ... ...
ROW EE : ... .. . ... ... ... : ... .. . ... ... ... : B-1 00 . P7B : ... .. 6 ... : ... .. . ... ...
ROW EF : ... .. . ... ... ... : ... .. . ... ... ... : A-1 00 . P7A : ... .. 5 ... : ... .. . ... ...
ROW F0 : ... .. C ... ... ... : ... .. C ... ... ... : G-1 00 . P86 : ... .. 3 ... : ... .. . ... ...
ROW F1 : ... .. . ... ... ... : ... .. . ... ... ... : F-1 00 . PA2 : ... .. 1 ... : ... .. . ... ...
ROW F2 : ... .. . ... ... ... : ... .. . ... ... ... : --- .. . ... : ... .. 0 ... : ... .. . ... ...
ROW F3 : ... .. B ... ... ... : ... .. B ... ... ... : ... .. . ... : ... .. . ... : ... .. . ... ...
ROW F4 : ... .. 0 ... V00 ... : ... .. 0 ... V00 ... : ... .. . ... : D-# 00 F ... : ... .. . ... ...
ROW F5 : E-3 00 F P80 V01 ... : G-3 00 F P80 V01 ... : G-2 00 . P80 : ... .. . ... : ... .. . ... ...
ROW F6 : ... .. E ... ... ... : ... .. E ... ... ... : ... .. . ... : ... .. . ... : ... .. . ... ...
ROW F7 : ... .. . ... ... ... : ... .. . ... ... ... : ... .. . ... : ... .. C ... : ... .. . ... ...
ROW F8 : ... .. . ... ... ... : ... .. . ... ... ... : ... .. . ... : ... .. B ... : ... .. . ... ...
ROW F9 : ... .. D ... ... ... : ... .. D ... ... ... : ... .. . ... : ... .. 9 ... : ... .. . ... ...
ROW FA : ... .. . ... ... ... : ... .. . ... ... ... : ... .. . ... : ... .. 6 ... : ... .. . ... ...
ROW FB : ... .. . ... ... ... : ... .. . ... ... ... : ... .. . ... : ... .. 5 ... : ... .. . ... ...
ROW FC : ... .. C ... ... ... : ... .. C ... ... ... : ... .. . ... : ... .. 3 ... : ... .. . ... ...
ROW FD : ... .. . ... ... ... : ... .. . ... ... ... : ... .. . ... : ... .. 1 ... : ... .. . ... ...
ROW FE : ... .. . ... ... ... : ... .. . ... ... ... : ... .. . ... : ... .. 0 ... : ... .. . ... ...
ROW FF : ... .. B ... ... ... : ... .. B ... ... ... : ... .. . ... : ... .. . ... : ... .. . ... ...

PATTERN 0F
ROW 00 : ... .. 0 ... V00 ... : ... .. 0 ... V00 ... : A#3 00 . P81 : 1-# 00 F ... : ... .. . ... ...
ROW 01 : G-2 00 F P80 V01 ... : C-3 00 F P80 V01 ... : D#3 00 . P89 : ... .. . ... : ... .. . ... ...
ROW 02 : ... .. E ... ... ... : ... .. E ... ... ... : B-2 00 . P76 : ... .. . ... : ... .. . ... ...
ROW 03 : ... .. . ... ... ... : ... .. . ... ... ... : G-2 00 . P7C : ... .. C ... : ... .. . ... ...
ROW 04 : ... .. . ... ... ... : ... .. . ... ... ... : E-2 00 . P78 : ... .. B ... : ... .. . ... ...
ROW 05 : ... .. D ... ... ... : ... .. D ... ... ... : C#2 00 . P88 : ... .. 9 ... : ... .. . ... ...
ROW 06 : ... .. . ... ... ... : ... .. . ... ... ... : B-1 00 . P7B : ... .. 6 ... : ... .. . ... ...
ROW 07 : ... .. . ... ... ... : ... .. . ... ... ... : A-1 00 . P7A : ... .. 5 ... : ... .. . ... ...
ROW 08 : ... .. C ... ... ... : ... .. C ... ... ... : G-1 00 . P86 : ... .. 3 ... : ... .. . ... ...
ROW 09 : ... .. . ... ... ... : ... .. . ... ... ... : F-1 00 . PA2 : ... .. 1 ... : ... .. . ... ...
ROW 0A : ... .. . ... ... ... : ... .. . ... ... ... : --- .. . ... : ... .. 0 ... : ... .. . ... ...
ROW 0B : ... .. B ... ... ... : ... .. B ... ... ... : ... .. . ... : ... .. . ... : ... .. . ... ...
ROW 0C : ... .. . ... ... ... : ... .. . ... ... ... : ... .. . ... : D-# 00 F ... : ... .. . ... ...
ROW 0D : ... .. . ... ... ... : ... .. . ... ... ... : C-3 00 . P80 : ... .. . ... : ... .. . ... ...
ROW 0E : ... .. A ... ... ... : ... .. A ... ... ... : ... .. . ... : ... .. . ... : ... .. . ... ...
ROW 0F : ... .. . ... ... ... : ... .. . ... ... ... : ... .. . ... : ... .. C ... : ... .. . ... ...
ROW 10 : ... .. . ... ... ... : ... .. . ... ... ... : ... .. . ... : ... .. B ... : ... .. . ... ...
ROW 11 : ... .. 9 ... ... ... : ... .. 9 ... ... ... : ... .. . ... : ... .. 9 ... : ... .. . ... ...
ROW 12 : ... .. . ... ... ... : ... .. . ... ... ... : ... .. . ... : ... .. 6 ... : ... .. . ... ...
ROW 13 : ... .. . ... ... ... : ... .. . ... ... ... : ... .. . ... : ... .. 5 ... : ... .. . ... ...
ROW 14 : ... .. 8 ... ... ... : ... .. 8 ... ... ... : ... .. . ... : ... .. 3 ... : ... .. . ... ...
ROW 15 : ... .. . ... ... ... : ... .. . ... ... ... : ... .. . ... : ... .. 1 ... : ... .. . ... ...
ROW 16 : ... .. 7 ... ... ... : ... .. 7 ... ... ... : ... .. . ... : ... .. 0 ... : ... .. . ... ...
ROW 17 : ... .. . ... ... ... : ... .. . ... ... ... : ... .. . ... : ... .. . ... : ... .. . ... ...
ROW 18 : ... .. 0 ... V00 ... : ... .. 0 ... V00 ... : A#3 00 . P81 : 4-# 00 F ... : ... .. . ... ...
ROW 19 : C-3 00 F P80 V01 ... : E-3 00 F P80 V01 ... : D#3 00 . P89 : ... .. . ... : ... .. . ... ...
ROW 1A : ... .. E ... ... ... : ... .. E ... ... ... : B-2 00 . P76 : ... .. . ... : ... .. . ... ...
ROW 1B : ... .. . ... ... ... : ... .. . ... ... ... : G-2 00 . P7C : ... .. C ... : ... .. . ... ...
ROW 1C : ... .. . ... ... ... : ... .. . ... ... ... : E-2 00 . P78 : ... .. B ... : ... .. . ... ...
ROW 1D : ... .. D ... ... ... : ... .. D ... ... ... : C#2 00 . P88 : ... .. 9 ... : ... .. . ... ...
ROW 1E : ... .. . ... ... ... : ... .. . ... ... ... : B-1 00 . P7B : ... .. 6 ... : ... .. . ... ...
ROW 1F : ... .. . ... ... ... : ... .. . ... ... ... : A-1 00 . P7A : ... .. 5 ... : ... .. . ... ...
ROW 20 : ... .. C ... ... ... : ... .. C ... ... ... : G-1 00 . P86 : ... .. 3 ... : ... .. . ... ...
ROW 21 : ... .. . ... ... ... : ... .. . ... ... ... : F-1 00 . PA2 : ... .. 1 ... : ... .. . ... ...
ROW 22 : ... .. . ... ... ... : ... .. . ... ... ... : --- .. . ... : ... .. 0 ... : ... .. . ... ...
ROW 23 : ... .. B ... ... ... : ... .. B ... ... ... : ... .. . ... : ... .. . ... : ... .. . ... ...
ROW 24 : ... .. 0 ... V00 ... : ... .. 0 ... V00 ... : ... .. . ... : D-# 00 F ... : ... .. . ... ...
ROW 25 : E-3 00 F P80 V01 ... : G-3 00 F P80 V01 ... : C-3 00 . P80 : ... .. . ... : ... .. . ... ...
ROW 26 : ... .. E ... ... ... : ... .. E ... ... ... : ... .. . ... : ... .. . ... : ... .. . ... ...
ROW 27 : ... .. . ... ... ... : ... .. . ... ... ... : ... .. . ... : ... .. C ... : ... .. . ... ...
ROW 28 : ... .. . ... ... ... : ... .. . ... ... ... : ... .. . ... : ... .. B ... : ... .. . ... ...
ROW 29 : ... .. D ... ... ... : ... .. D ... ... ... : ... .. . ... : ... .. 9 ... : ... .. . ... ...
ROW 2A : ... .. 0 ... V00 ... : ... .. 0 ... V00 ... : ... .. . ... : ... .. 6 ... : ... .. . ... ...
ROW 2B : E-3 00 F P80 V01 ... : G-3 00 F P80 V01 ... : ... .. . ... : ... .. 5 ... : ... .. . ... ...
ROW 2C : ... .. E ... ... ... : ... .. E ... ... ... : ... .. . ... : ... .. 3 ... : ... .. . ... ...
ROW 2D : ... .. . ... ... ... : ... .. . ... ... ... : ... .. . ... : ... .. 1 ... : ... .. . ... ...
ROW 2E : ... .. . ... ... ... : ... .. . ... ... ... : ... .. . ... : ... .. 0 ... : ... .. . ... ...
ROW 2F : ... .. D ... ... ... : ... .. D ... ... ... : ... .. . ... : ... .. . ... : ... .. . ... ...
ROW 30 : ... .. 0 ... V00 ... : ... .. 0 ... V00 ... : A#3 00 . P81 : 1-# 00 F ... : ... .. . ... ...
ROW 31 : E-3 00 F P80 V01 ... : G-3 00 F P80 V01 ... : D#3 00 . P89 : ... .. . ... : ... .. . ... ...
ROW 32 : ... .. E ... ... ... : ... .. E ... ... ... : B-2 00 . P76 : ... .. . ... : ... .. . ... ...
ROW 33 : ... .. . ... ... ... : ... .. . ... ... ... : G-2 00 . P7C : ... .. C ... : ... .. . ... ...
ROW 34 : ... .. . ... ... ... : ... .. . ... ... ... : E-2 00 . P78 : ... .. B ... : ... .. . ... ...
ROW 35 : ... .. D ... ... ... : ... .. D ... ... ... : C#2 00 . P88 : ... .. 9 ... : ... .. . ... ...
ROW 36 : ... .. . ... ... ... : ... .. . ... ... ... : B-1 00 . P7B : ... .. 6 ... : ... .. . ... ...
ROW 37 : ... .. . ... ... ... : ... .. . ... ... ... : A-1 00 . P7A : ... .. 5 ... : ... .. . ... ...
ROW 38 : ... .. C ... ... ... : ... .. C ... ... ... : G-1 00 . P86 : ... .. 3 ... : ... .. . ... ...
ROW 39 : ... .. . ... ... ... : ... .. . ... ... ... : F-1 00 . PA2 : ... .. 1 ... : ... .. . ... ...
ROW 3A : ... .. . ... ... ... : ... .. . ... ... ... : --- .. . ... : ... .. 0 ... : ... .. . ... ...
ROW 3B : ... .. B ... ... ... : ... .. B ... ... ... : ... .. . ... : ... .. . ... : ... .. . ... ...
ROW 3C : ... .. 0 ... V00 ... : ... .. 0 ... V00 ... : ... .. . ... : D-# 00 F ... : ... .. . ... ...
ROW 3D : C-3 00 F P80 V01 ... : E-3 00 F P80 V01 ... : C-3 00 . P80 : ... .. . ... : ... .. . ... ...
ROW 3E : ... .. E ... ... ... : ... .. E ... ... ... : ... .. . ... : ... .. . ... : ... .. . ... ...
ROW 3F : ... .. . ... ... ... : ... .. . ... ... ... : ... .. . ... : ... .. C ... : ... .. . ... ...
ROW 40 : ... .. . ... ... ... : ... .. . ... ... ... : ... .. . ... : ... .. B ... : ... .. . ... ...
ROW 41 : ... .. D ... ... ... : ... .. D ... ... ... : ... .. . ... : ... .. 9 ... : ... .. . ... ...
ROW 42 : ... .. . ... ... ... : ... .. . ... ... ... : ... .. . ... : ... .. 6 ... : ... .. . ... ...
ROW 43 : ... .. . ... ... ... : ... .. . ... ... ... : ... .. . ... : ... .. 5 ... : ... .. . ... ...
ROW 44 : ... .. C ... ... ... : ... .. C ... ... ... : ... .. . ... : ... .. 3 ... : ... .. . ... ...
ROW 45 : ... .. . ... ... ... : ... .. . ... ... ... : ... .. . ... : ... .. 1 ... : ... .. . ... ...
ROW 46 : ... .. . ... ... ... : ... .. . ... ... ... : ... .. . ... : ... .. 0 ... : ... .. . ... ...
ROW 47 : ... .. B ... ... ... : ... .. B ... ... ... : ... .. . ... : ... .. . ... : ... .. . ... ...
ROW 48 : ... .. 0 ... V00 ... : ... .. 0 ... V00 ... : A#3 00 . P81 : 4-# 00 F ... : ... .. . ... ...
ROW 49 : G-2 00 F P80 V01 ... : D-3 00 F P80 V01 ... : D#3 00 . P89 : ... .. . ... : ... .. . ... ...
ROW 4A : ... .. E ... ... ... : ... .. E ... ... ... : B-2 00 . P76 : ... .. . ... : ... .. . ... ...
ROW 4B : ... .. . ... ... ... : ... .. . ... ... ... : G-2 00 . P7C : ... .. C ... : ... .. . ... ...
ROW 4C : ... .. . ... ... ... : ... .. . ... ... ... : E-2 00 . P78 : ... .. B ... : ... .. . ... ...
ROW 4D : ... .. D ... ... ... : ... .. D ... ... ... : C#2 00 . P88 : ... .. 9 ... : ... .. . ... ...
ROW 4E : ... .. . ... ... ... : ... .. . ... ... ... : B-1 00 . P7B : ... .. 6 ... : ... .. . ... ...
ROW 4F : ... .. . ... ... ... : ... .. . ... ... ... : A-1 00 . P7A : ... .. 5 ... : ... .. . ... ...
ROW 50 : ... .. C ... ... ... : ... .. C ... ... ... : G-1 00 . P86 : ... .. 3 ... : ... .. . ... ...
ROW 51 : ... .. . ... ... ... : ... .. . ... ... ... : F-1 00 . PA2 : ... .. 1 ... : ... .. . ... ...
ROW 52 : ... .. . ... ... ... : ... .. . ... ... ... : --- .. . ... : ... .. 0 ... : ... .. . ... ...
ROW 53 : ... .. B ... ... ... : ... .. B ... ... ... : ... .. . ... : ... .. . ... : ... .. . ... ...
ROW 54 : ... .. 0 ... V00 ... : ... .. 0 ... V00 ... : ... .. . ... : D-# 00 F ... : ... .. . ... ...
ROW 55 : C-3 00 F P80 V01 ... : E-3 00 F P80 V01 ... : C-3 00 . P80 : ... .. . ... : ... .. . ... ...
ROW 56 : ... .. E ... ... ... : ... .. E ... ... ... : ... .. . ... : ... .. . ... : ... .. . ... ...
ROW 57 : ... .. . ... ... ... : ... .. . ... ... ... : ... .. . ... : ... .. C ... : ... .. . ... ...
ROW 58 : ... .. . ... ... ... : ... .. . ... ... ... : ... .. . ... : ... .. B ... : ... .. . ... ...
ROW 59 : ... .. D ... ... ... : ... .. D ... ... ... : ... .. . ... : ... .. 9 ... : ... .. . ... ...
ROW 5A : ... .. . ... ... ... : ... .. . ... ... ... : ... .. . ... : ... .. 6 ... : ... .. . ... ...
ROW 5B : ... .. . ... ... ... : ... .. . ... ... ... : ... .. . ... : ... .. 5 ... : ... .. . ... ...
ROW 5C : ... .. C ... ... ... : ... .. C ... ... ... : ... .. . ... : ... .. 3 ... : ... .. . ... ...
ROW 5D : ... .. . ... ... ... : ... .. . ... ... ... : ... .. . ... : ... .. 1 ... : ... .. . ... ...
ROW 5E : ... .. . ... ... ... : ... .. . ... ... ... : ... .. . ... : ... .. 0 ... : ... .. . ... ...
ROW 5F : ... .. B ... ... ... : ... .. B ... ... ... : ... .. . ... : ... .. . ... : ... .. . ... ...
ROW 60 : ... .. 0 ... V00 ... : ... .. 0 ... V00 ... : A#3 00 . P81 : 1-# 00 F ... : ... .. . ... ...
ROW 61 : F-3 00 F P80 V01 ... : A-3 00 F P80 V01 ... : D#3 00 . P89 : ... .. . ... : ... .. . ... ...
ROW 62 : ... .. E ... ... ... : ... .. E ... ... ... : B-2 00 . P76 : ... .. . ... : ... .. . ... ...
ROW 63 : ... .. . ... ... ... : ... .. . ... ... ... : G-2 00 . P7C : ... .. C ... : ... .. . ... ...
ROW 64 : ... .. . ... ... ... : ... .. . ... ... ... : E-2 00 . P78 : ... .. B ... : ... .. . ... ...
ROW 65 : ... .. D ... ... ... : ... .. D ... ... ... : C#2 00 . P88 : ... .. 9 ... : ... .. . ... ...
ROW 66 : ... .. . ... ... ... : ... .. . ... ... ... : B-1 00 . P7B : ... .. 6 ... : ... .. . ... ...
ROW 67 : ... .. . ... ... ... : ... .. . ... ... ... : A-1 00 . P7A : ... .. 5 ... : ... .. . ... ...
ROW 68 : ... .. C ... ... ... : ... .. C ... ... ... : G-1 00 . P86 : ... .. 3 ... : ... .. . ... ...
ROW 69 : ... .. . ... ... ... : ... .. . ... ... ... : F-1 00 . PA2 : ... .. 1 ... : ... .. . ... ...
ROW 6A : ... .. . ... ... ... : ... .. . ... ... ... : --- .. . ... : ... .. 0 ... : ... .. . ... ...
ROW 6B : ... .. B ... ... ... : ... .. B ... ... ... : ... .. . ... : ... .. . ... : ... .. . ... ...
ROW 6C : ... .. . ... ... ... : ... .. . ... ... ... : ... .. . ... : D-# 00 F ... : ... .. . ... ...
ROW 6D : ... .. . ... ... ... : ... .. . ... ... ... : F-2 00 . P80 : ... .. . ... : ... .. . ... ...
ROW 6E : ... .. A ... ... ... : ... .. A ... ... ... : ... .. . ... : ... .. . ... : ... .. . ... ...
ROW 6F : ... .. . ... ... ... : ... .. . ... ... ... : ... .. . ... : ... .. C ... : ... .. . ... ...
ROW 70 : ... .. . ... ... ... : ... .. . ... ... ... : ... .. . ... : ... .. B ... : ... .. . ... ...
ROW 71 : ... .. 9 ... ... ... : ... .. 9 ... ... ... : ... .. . ... : ... .. 9 ... : ... .. . ... ...
ROW 72 : ... .. . ... ... ... : ... .. . ... ... ... : ... .. . ... : ... .. 6 ... : ... .. . ... ...
ROW 73 : ... .. . ... ... ... : ... .. . ... ... ... : ... .. . ... : ... .. 5 ... : ... .. . ... ...
ROW 74 : ... .. 8 ... ... ... : ... .. 8 ... ... ... : ... .. . ... : ... .. 3 ... : ... .. . ... ...
ROW 75 : ... .. . ... ... ... : ... .. . ... ... ... : ... .. . ... : ... .. 1 ... : ... .. . ... ...
ROW 76 : ... .. 7 ... ... ... : ... .. 7 ... ... ... : ... .. . ... : ... .. 0 ... : ... .. . ... ...
ROW 77 : ... .. . ... ... ... : ... .. . ... ... ... : ... .. . ... : ... .. . ... : ... .. . ... ...
ROW 78 : ... .. 0 ... V00 ... : ... .. 0 ... V00 ... : A#3 00 . P81 : 4-# 00 F ... : ... .. . ... ...
ROW 79 : F-3 00 F P80 V01 ... : A-3 00 F P80 V01 ... : D#3 00 . P89 : ... .. . ... : ... .. . ... ...
ROW 7A : ... .. E ... ... ... : ... .. E ... ... ... : B-2 00 . P76 : ... .. . ... : ... .. . ... ...
ROW 7B : ... .. . ... ... ... : ... .. . ... ... ... : G-2 00 . P7C : ... .. C ... : ... .. . ... ...
ROW 7C : ... .. . ... ... ... : ... .. . ... ... ... : E-2 00 . P78 : ... .. B ... : ... .. . ... ...
ROW 7D : ... .. D ... ... ... : ... .. D ... ... ... : C#2 00 . P88 : ... .. 9 ... : ... .. . ... ...
ROW 7E : ... .. . ... ... ... : ... .. . ... ... ... : B-1 00 . P7B : ... .. 6 ... : ... .. . ... ...
ROW 7F : ... .. . ... ... ... : ... .. . ... ... ... : A-1 00 . P7A : ... .. 5 ... : ... .. . ... ...
ROW 80 : ... .. C ... ... ... : ... .. C ... ... ... : G-1 00 . P86 : ... .. 3 ... : ... .. . ... ...
ROW 81 : ... .. . ... ... ... : ... .. . ... ... ... : F-1 00 . PA2 : ... .. 1 ... : ... .. . ... ...
ROW 82 : ... .. . ... ... ... : ... .. . ... ... ... : --- .. . ... : ... .. 0 ... : ... .. . ... ...
ROW 83 : ... .. B ... ... ... : ... .. B ... ... ... : ... .. . ... : ... .. . ... : ... .. . ... ...
ROW 84 : ... .. 0 ... V00 ... : ... .. 0 ... V00 ... : ... .. . ... : D-# 00 F ... : ... .. . ... ...
ROW 85 : E-3 00 F P80 V01 ... : G-3 00 F P80 V01 ... : F-2 00 . P80 : ... .. . ... : ... .. . ... ...
ROW 86 : ... .. E ... ... ... : ... .. E ... ... ... : ... .. . ... : ... .. . ... : ... .. . ... ...
ROW 87 : ... .. . ... ... ... : ... .. . ... ... ... : ... .. . ... : ... .. C ... : ... .. . ... ...
ROW 88 : ... .. . ... ... ... : ... .. . ... ... ... : ... .. . ... : ... .. B ... : ... .. . ... ...
ROW 89 : ... .. D ... ... ... : ... .. D ... ... ... : ... .. . ... : ... .. 9 ... : ... .. . ... ...
ROW 8A : ... .. 0 ... V00 ... : ... .. 0 ... V00 ... : ... .. . ... : ... .. 6 ... : ... .. . ... ...
ROW 8B : E-3 00 F P80 V01 ... : G-3 00 F P80 V01 ... : ... .. . ... : ... .. 5 ... : ... .. . ... ...
ROW 8C : ... .. E ... ... ... : ... .. E ... ... ... : ... .. . ... : ... .. 3 ... : ... .. . ... ...
ROW 8D : ... .. . ... ... ... : ... .. . ... ... ... : ... .. . ... : ... .. 1 ... : ... .. . ... ...
ROW 8E : ... .. . ... ... ... : ... .. . ... ... ... : ... .. . ... : ... .. 0 ... : ... .. . ... ...
ROW 8F : ... .. D ... ... ... : ... .. D ... ... ... : ... .. . ... : ... .. . ... : ... .. . ... ...
ROW 90 : ... .. 0 ... V00 ... : ... .. 0 ... V00 ... : A#3 00 . P81 : 1-# 00 F ... : ... .. . ... ...
ROW 91 : E-3 00 F P80 V01 ... : G-3 00 F P80 V01 ... : D#3 00 . P89 : ... .. . ... : ... .. . ... ...
ROW 92 : ... .. E ... ... ... : ... .. E ... ... ... : B-2 00 . P76 : ... .. . ... : ... .. . ... ...
ROW 93 : ... .. . ... ... ... : ... .. . ... ... ... : G-2 00 . P7C : ... .. C ... : ... .. . ... ...
ROW 94 : ... .. . ... ... ... : ... .. . ... ... ... : E-2 00 . P78 : ... .. B ... : ... .. . ... ...
ROW 95 : ... .. D ... ... ... : ... .. D ... ... ... : C#2 00 . P88 : ... .. 9 ... : ... .. . ... ...
ROW 96 : ... .. . ... ... ... : ... .. . ... ... ... : B-1 00 . P7B : ... .. 6 ... : ... .. . ... ...
ROW 97 : ... .. . ... ... ... : ... .. . ... ... ... : A-1 00 . P7A : ... .. 5 ... : ... .. . ... ...
ROW 98 : ... .. C ... ... ... : ... .. C ... ... ... : G-1 00 . P86 : ... .. 3 ... : ... .. . ... ...
ROW 99 : ... .. . ... ... ... : ... .. . ... ... ... : F-1 00 . PA2 : ... .. 1 ... : ... .. . ... ...
ROW 9A : ... .. . ... ... ... : ... .. . ... ... ... : --- .. . ... : ... .. 0 ... : ... .. . ... ...
ROW 9B : ... .. B ... ... ... : ... .. B ... ... ... : ... .. . ... : ... .. . ... : ... .. . ... ...
ROW 9C : ... .. 0 ... V00 ... : ... .. 0 ... V00 ... : ... .. . ... : D-# 00 F ... : ... .. . ... ...
ROW 9D : C-3 00 F P80 V01 ... : E-3 00 F P80 V01 ... : G-2 00 . P80 : ... .. . ... : ... .. . ... ...
ROW 9E : ... .. E ... ... ... : ... .. E ... ... ... : ... .. . ... : ... .. . ... : ... .. . ... ...
ROW 9F : ... .. . ... ... ... : ... .. . ... ... ... : ... .. . ... : ... .. C ... : ... .. . ... ...
ROW A0 : ... .. . ... ... ... : ... .. . ... ... ... : ... .. . ... : ... .. B ... : ... .. . ... ...
ROW A1 : ... .. D ... ... ... : ... .. D ... ... ... : ... .. . ... : ... .. 9 ... : ... .. . ... ...
ROW A2 : ... .. . ... ... ... : ... .. . ... ... ... : ... .. . ... : ... .. 6 ... : ... .. . ... ...
ROW A3 : ... .. . ... ... ... : ... .. . ... ... ... : ... .. . ... : ... .. 5 ... : ... .. . ... ...
ROW A4 : ... .. C ... ... ... : ... .. C ... ... ... : ... .. . ... : ... .. 3 ... : ... .. . ... ...
ROW A5 : ... .. . ... ... ... : ... .. . ... ... ... : ... .. . ... : ... .. 1 ... : ... .. . ... ...
ROW A6 : ... .. . ... ... ... : ... .. . ... ... ... : ... .. . ... : ... .. 0 ... : ... .. . ... ...
ROW A7 : ... .. B ... ... ... : ... .. B ... ... ... : ... .. . ... : ... .. . ... : ... .. . ... ...
ROW A8 : ... .. 0 ... V00 ... : ... .. 0 ... V00 ... : A#3 00 . P81 : 4-# 00 F ... : ... .. . ... ...
ROW A9 : G-2 00 F P80 V01 ... : D-3 00 F P80 V01 ... : D#3 00 . P89 : ... .. . ... : ... .. . ... ...
ROW AA : ... .. E ... ... ... : ... .. E ... ... ... : B-2 00 . P76 : ... .. . ... : ... .. . ... ...
ROW AB : ... .. . ... ... ... : ... .. . ... ... ... : G-2 00 . P7C : ... .. C ... : ... .. . ... ...
ROW AC : ... .. . ... ... ... : ... .. . ... ... ... : E-2 00 . P78 : ... .. B ... : ... .. . ... ...
ROW AD : ... .. D ... ... ... : ... .. D ... ... ... : C#2 00 . P88 : ... .. 9 ... : ... .. . ... ...
ROW AE : ... .. . ... ... ... : ... .. . ... ... ... : B-1 00 . P7B : ... .. 6 ... : ... .. . ... ...
ROW AF : ... .. . ... ... ... : ... .. . ... ... ... : A-1 00 . P7A : ... .. 5 ... : ... .. . ... ...
ROW B0 : ... .. C ... ... ... : ... .. C ... ... ... : G-1 00 . P86 : ... .. 3 ... : ... .. . ... ...
ROW B1 : ... .. . ... ... ... : ... .. . ... ... ... : F-1 00 . PA2 : ... .. 1 ... : ... .. . ... ...
ROW B2 : ... .. . ... ... ... : ... .. . ... ... ... : --- .. . ... : ... .. 0 ... : ... .. . ... ...
ROW B3 : ... .. B ... ... ... : ... .. B ... ... ... : ... .. . ... : ... .. . ... : ... .. . ... ...
ROW B4 : ... .. 0 ... V00 ... : ... .. 0 ... V00 ... : ... .. . ... : D-# 00 F ... : ... .. . ... ...
ROW B5 : C-3 00 F P80 V01 ... : E-3 00 F P80 V01 ... : G-2 00 . P80 : ... .. . ... : ... .. . ... ...
ROW B6 : ... .. E ... ... ... : ... .. E ... ... ... : ... .. . ... : ... .. . ... : ... .. . ... ...
ROW B7 : ... .. . ... ... ... : ... .. . ... ... ... : ... .. . ... : ... .. C ... : ... .. . ... ...
ROW B8 : ... .. . ... ... ... : ... .. . ... ... ... : ... .. . ... : ... .. B ... : ... .. . ... ...
ROW B9 : ... .. D ... ... ... : ... .. D ... ... ... : ... .. . ... : ... .. 9 ... : ... .. . ... ...
ROW BA : ... .. . ... ... ... : ... .. . ... ... ... : ... .. . ... : ... .. 6 ... : ... .. . ... ...
ROW BB : ... .. . ... ... ... : ... .. . ... ... ... : ... .. . ... : ... .. 5 ... : ... .. . ... ...
ROW BC : ... .. C ... ... ... : ... .. C ... ... ... : ... .. . ... : ... .. 3 ... : ... .. . ... ...
ROW BD : ... .. . ... ... ... : ... .. . ... ... ... : ... .. . ... : ... .. 1 ... : ... .. . ... ...
ROW BE : ... .. . ... ... ... : ... .. . ... ... ... : ... .. . ... : ... .. 0 ... : ... .. . ... ...
ROW BF : ... .. B ... ... ... : ... .. B ... ... ... : ... .. . ... : ... .. . ... : ... .. . ... ...
ROW C0 : ... .. 0 ... V00 ... : ... .. 0 ... V00 ... : A#3 00 . P81 : 1-# 00 F ... : ... .. . ... ...
ROW C1 : G-2 00 F P80 V01 ... : C-3 00 F P80 V01 ... : D#3 00 . P89 : ... .. . ... : ... .. . ... ...
ROW C2 : ... .. E ... ... ... : ... .. E ... ... ... : B-2 00 . P76 : ... .. . ... : ... .. . ... ...
ROW C3 : ... .. . ... ... ... : ... .. . ... ... ... : G-2 00 . P7C : ... .. C ... : ... .. . ... ...
ROW C4 : ... .. . ... ... ... : ... .. . ... ... ... : E-2 00 . P78 : ... .. B ... : ... .. . ... ...
ROW C5 : ... .. D ... ... ... : ... .. D ... ... ... : C#2 00 . P88 : ... .. 9 ... : ... .. . ... ...
ROW C6 : ... .. . ... ... ... : ... .. . ... ... ... : B-1 00 . P7B : ... .. 6 ... : ... .. . ... ...
ROW C7 : ... .. . ... ... ... : ... .. . ... ... ... : A-1 00 . P7A : ... .. 5 ... : ... .. . ... ...
ROW C8 : ... .. C ... ... ... : ... .. C ... ... ... : G-1 00 . P86 : ... .. 3 ... : ... .. . ... ...
ROW C9 : ... .. . ... ... ... : ... .. . ... ... ... : F-1 00 . PA2 : ... .. 1 ... : ... .. . ... ...
ROW CA : ... .. . ... ... ... : ... .. . ... ... ... : --- .. . ... : ... .. 0 ... : ... .. . ... ...
ROW CB : ... .. B ... ... ... : ... .. B ... ... ... : ... .. . ... : ... .. . ... : ... .. . ... ...
ROW CC : ... .. . ... ... ... : ... .. . ... ... ... : ... .. . ... : D-# 00 F ... : ... .. . ... ...
ROW CD : ... .. . ... ... ... : ... .. . ... ... ... : C-3 00 . P80 : ... .. . ... : ... .. . ... ...
ROW CE : ... .. A ... ... ... : ... .. A ... ... ... : ... .. . ... : ... .. . ... : ... .. . ... ...
ROW CF : ... .. . ... ... ... : ... .. . ... ... ... : ... .. . ... : ... .. C ... : ... .. . ... ...
ROW D0 : ... .. . ... ... ... : ... .. . ... ... ... : ... .. . ... : ... .. B ... : ... .. . ... ...
ROW D1 : ... .. 9 ... ... ... : ... .. 9 ... ... ... : ... .. . ... : ... .. 9 ... : ... .. . ... ...
ROW D2 : ... .. . ... ... ... : ... .. . ... ... ... : ... .. . ... : ... .. 6 ... : ... .. . ... ...
ROW D3 : ... .. . ... ... ... : ... .. . ... ... ... : ... .. . ... : ... .. 5 ... : ... .. . ... ...
ROW D4 : ... .. 8 ... ... ... : ... .. 8 ... ... ... : ... .. . ... : ... .. 3 ... : ... .. . ... ...
ROW D5 : ... .. . ... ... ... : ... .. . ... ... ... : ... .. . ... : ... .. 1 ... : ... .. . ... ...
ROW D6 : ... .. 7 ... ... ... : ... .. 7 ... ... ... : ... .. . ... : ... .. 0 ... : ... .. . ... ...
ROW D7 : ... .. . ... ... ... : ... .. . ... ... ... : ... .. . ... : ... .. . ... : ... .. . ... ...
ROW D8 : ... .. 0 ... V00 ... : ... .. 0 ... V00 ... : A#3 00 . P81 : 4-# 00 F ... : ... .. . ... ...
ROW D9 : C-3 00 F P80 V01 ... : E-3 00 F P80 V01 ... : D#3 00 . P89 : ... .. . ... : ... .. . ... ...
ROW DA : ... .. E ... ... ... : ... .. E ... ... ... : B-2 00 . P76 : ... .. . ... : ... .. . ... ...
ROW DB : ... .. . ... ... ... : ... .. . ... ... ... : G-2 00 . P7C : ... .. C ... : ... .. . ... ...
ROW DC : ... .. . ... ... ... : ... .. . ... ... ... : E-2 00 . P78 : ... .. B ... : ... .. . ... ...
ROW DD : ... .. D ... ... ... : ... .. D ... ... ... : C#2 00 . P88 : ... .. 9 ... : ... .. . ... ...
ROW DE : ... .. . ... ... ... : ... .. . ... ... ... : B-1 00 . P7B : ... .. 6 ... : ... .. . ... ...
ROW DF : ... .. . ... ... ... : ... .. . ... ... ... : A-1 00 . P7A : ... .. 5 ... : ... .. . ... ...
ROW E0 : ... .. C ... ... ... : ... .. C ... ... ... : G-1 00 . P86 : ... .. 3 ... : ... .. . ... ...
ROW E1 : ... .. . ... ... ... : ... .. . ... ... ... : F-1 00 . PA2 : ... .. 1 ... : ... .. . ... ...
ROW E2 : ... .. . ... ... ... : ... .. . ... ... ... : --- .. . ... : ... .. 0 ... : ... .. . ... ...
ROW E3 : ... .. B ... ... ... : ... .. B ... ... ... : ... .. . ... : ... .. . ... : ... .. . ... ...
ROW E4 : ... .. 0 ... V00 ... : ... .. 0 ... V00 ... : ... .. . ... : D-# 00 F ... : ... .. . ... ...
ROW E5 : E-3 00 F P80 V01 ... : G-3 00 F P80 V01 ... : C-3 00 . P80 : ... .. . ... : ... .. . ... ...
ROW E6 : ... .. E ... ... ... : ... .. E ... ... ... : ... .. . ... : ... .. . ... : ... .. . ... ...
ROW E7 : ... .. . ... ... ... : ... .. . ... ... ... : ... .. . ... : ... .. C ... : ... .. . ... ...
ROW E8 : ... .. . ... ... ... : ... .. . ... ... ... : ... .. . ... : ... .. B ... : ... .. . ... ...
ROW E9 : ... .. D ... ... ... : ... .. D ... ... ... : ... .. . ... : ... .. 9 ... : ... .. . ... ...
ROW EA : ... .. 0 ... V00 ... : ... .. 0 ... V00 ... : ... .. . ... : ... .. 6 ... : ... .. . ... ...
ROW EB : E-3 00 F P80 V01 ... : G-3 00 F P80 V01 ... : ... .. . ... : ... .. 5 ... : ... .. . ... ...
ROW EC : ... .. E ... ... ... : ... .. E ... ... ... : ... .. . ... : ... .. 3 ... : ... .. . ... ...
ROW ED : ... .. . ... ... ... : ... .. . ... ... ... : ... .. . ... : ... .. 1 ... : ... .. . ... ...
ROW EE : ... .. . ... ... ... : ... .. . ... ... ... : ... .. . ... : ... .. 0 ... : ... .. . ... ...
ROW EF : ... .. D ... ... ... : ... .. D ... ... ... : ... .. . ... : ... .. . ... : ... .. . ... ...
ROW F0 : ... .. 0 ... V00 ... : ... .. 0 ... V00 ... : A#3 00 . P81 : 1-# 00 F ... : ... .. . ... ...
ROW F1 : E-3 00 F P80 V01 ... : G-3 00 F P80 V01 ... : D#3 00 . P89 : ... .. . ... : ... .. . ... ...
ROW F2 : ... .. E ... ... ... : ... .. E ... ... ... : B-2 00 . P76 : ... .. . ... : ... .. . ... ...
ROW F3 : ... .. . ... ... ... : ... .. . ... ... ... : G-2 00 . P7C : ... .. C ... : ... .. . ... ...
ROW F4 : ... .. . ... ... ... : ... .. . ... ... ... : E-2 00 . P78 : ... .. B ... : ... .. . ... ...
ROW F5 : ... .. D ... ... ... : ... .. D ... ... ... : C#2 00 . P88 : ... .. 9 ... : ... .. . ... ...
ROW F6 : ... .. . ... ... ... : ... .. . ... ... ... : B-1 00 . P7B : ... .. 6 ... : ... .. . ... ...
ROW F7 : ... .. . ... ... ... : ... .. . ... ... ... : A-1 00 . P7A : ... .. 5 ... : ... .. . ... ...
ROW F8 : ... .. C ... ... ... : ... .. C ... ... ... : G-1 00 . P86 : ... .. 3 ... : ... .. . ... ...
ROW F9 : ... .. . ... ... ... : ... .. . ... ... ... : F-1 00 . PA2 : ... .. 1 ... : ... .. . ... ...
ROW FA : ... .. . ... ... ... : ... .. . ... ... ... : --- .. . ... : ... .. 0 ... : ... .. . ... ...
ROW FB : ... .. B ... ... ... : ... .. B ... ... ... : ... .. . ... : ... .. . ... : ... .. . ... ...
ROW FC : ... .. 0 ... V00 ... : ... .. 0 ... V00 ... : ... .. . ... : D-# 00 F ... : ... .. . ... ...
ROW FD : C-3 00 F P80 V01 ... : E-3 00 F P80 V01 ... : C-3 00 . P80 : ... .. . ... : ... .. . ... ...
ROW FE : ... .. E ... ... ... : ... .. E ... ... ... : ... .. . ... : ... .. . ... : ... .. . ... ...
ROW FF : ... .. . ... ... ... : ... .. . ... ... ... : ... .. . ... : ... .. C ... : ... .. . ... ...

PATTERN 10
ROW 00 : ... .. . ... ... ... : ... .. . ... ... ... : ... .. . ... : ... .. B ... : ... .. . ... ...
ROW 01 : ... .. D ... ... ... : ... .. D ... ... ... : ... .. . ... : ... .. 9 ... : ... .. . ... ...
ROW 02 : ... .. . ... ... ... : ... .. . ... ... ... : ... .. . ... : ... .. 6 ... : ... .. . ... ...
ROW 03 : ... .. . ... ... ... : ... .. . ... ... ... : ... .. . ... : ... .. 5 ... : ... .. . ... ...
ROW 04 : ... .. C ... ... ... : ... .. C ... ... ... : ... .. . ... : ... .. 3 ... : ... .. . ... ...
ROW 05 : ... .. . ... ... ... : ... .. . ... ... ... : ... .. . ... : ... .. 1 ... : ... .. . ... ...
ROW 06 : ... .. . ... ... ... : ... .. . ... ... ... : ... .. . ... : ... .. 0 ... : ... .. . ... ...
ROW 07 : ... .. B ... ... ... : ... .. B ... ... ... : ... .. . ... : ... .. . ... : ... .. . ... ...
ROW 08 : ... .. 0 ... V00 ... : ... .. 0 ... V00 ... : A#3 00 . P81 : 4-# 00 F ... : ... .. . ... ...
ROW 09 : ... .. . ... ... ... : ... .. . ... ... ... : D#3 00 . P89 : ... .. . ... : ... .. . ... ...
ROW 0A : ... .. . ... ... ... : ... .. . ... ... ... : B-2 00 . P76 : ... .. . ... : ... .. . ... ...
ROW 0B : ... .. . ... ... ... : ... .. . ... ... ... : G-2 00 . P7C : ... .. C ... : ... .. . ... ...
ROW 0C : ... .. . ... ... ... : ... .. . ... ... ... : E-2 00 . P78 : ... .. B ... : ... .. . ... ...
ROW 0D : ... .. . ... ... ... : ... .. . ... ... ... : C#2 00 . P88 : ... .. 9 ... : ... .. . ... ...
ROW 0E : ... .. . ... ... ... : ... .. . ... ... ... : B-1 00 . P7B : ... .. 6 ... : ... .. . ... ...
ROW 0F : ... .. . ... ... ... : ... .. . ... ... ... : A-1 00 . P7A : ... .. 5 ... : ... .. . ... ...
ROW 10 : ... .. . ... ... ... : ... .. . ... ... ... : G-1 00 . P86 : ... .. 3 ... : ... .. . ... ...
ROW 11 : ... .. . ... ... ... : ... .. . ... ... ... : F-1 00 . PA2 : ... .. 1 ... : ... .. . ... ...
ROW 12 : ... .. . ... ... ... : ... .. . ... ... ... : --- .. . ... : ... .. 0 ... : ... .. . ... ...
ROW 13 : ... .. . ... ... ... : ... .. . ... ... ... : ... .. . ... : ... .. . ... : ... .. . ... ...
ROW 14 : ... .. . ... ... ... : ... .. . ... ... ... : ... .. . ... : D-# 00 F ... : ... .. . ... ...
ROW 15 : E-3 00 F P80 V01 ... : G-3 00 F P80 V01 ... : C-3 00 . P80 : ... .. . ... : ... .. . ... ...
ROW 16 : ... .. E ... ... ... : ... .. E ... ... ... : ... .. . ... : ... .. . ... : ... .. . ... ...
ROW 17 : ... .. . ... ... ... : ... .. . ... ... ... : ... .. . ... : ... .. C ... : ... .. . ... ...
ROW 18 : ... .. . ... ... ... : ... .. . ... ... ... : ... .. . ... : ... .. B ... : ... .. . ... ...
ROW 19 : ... .. D ... ... ... : ... .. D ... ... ... : ... .. . ... : ... .. 9 ... : ... .. . ... ...
ROW 1A : ... .. 0 ... V00 ... : ... .. 0 ... V00 ... : ... .. . ... : ... .. 6 ... : ... .. . ... ...
ROW 1B : E-3 00 F P80 V01 ... : G-3 00 F P80 V01 ... : ... .. . ... : ... .. 5 ... : ... .. . ... ...
ROW 1C : ... .. E ... ... ... : ... .. E ... ... ... : ... .. . ... : ... .. 3 ... : ... .. . ... ...
ROW 1D : ... .. . ... ... ... : ... .. . ... ... ... : ... .. . ... : ... .. 1 ... : ... .. . ... ...
ROW 1E : ... .. . ... ... ... : ... .. . ... ... ... : ... .. . ... : ... .. 0 ... : ... .. . ... ...
ROW 1F : ... .. D ... ... ... : ... .. D ... ... ... : ... .. . ... : ... .. . ... : ... .. . ... ...
ROW 20 : ... .. 0 ... V00 ... : ... .. 0 ... V00 ... : A#3 00 . P81 : 1-# 00 F ... : ... .. . ... ...
ROW 21 : E-3 00 F P80 V01 ... : G-3 00 F P80 V01 ... : D#3 00 . P89 : ... .. . ... : ... .. . ... ...
ROW 22 : ... .. E ... ... ... : ... .. E ... ... ... : B-2 00 . P76 : ... .. . ... : ... .. . ... ...
ROW 23 : ... .. . ... ... ... : ... .. . ... ... ... : G-2 00 . P7C : ... .. C ... : ... .. . ... ...
ROW 24 : ... .. . ... ... ... : ... .. . ... ... ... : E-2 00 . P78 : ... .. B ... : ... .. . ... ...
ROW 25 : ... .. D ... ... ... : ... .. D ... ... ... : C#2 00 . P88 : ... .. 9 ... : ... .. . ... ...
ROW 26 : ... .. . ... ... ... : ... .. . ... ... ... : B-1 00 . P7B : ... .. 6 ... : ... .. . ... ...
ROW 27 : ... .. . ... ... ... : ... .. . ... ... ... : A-1 00 . P7A : ... .. 5 ... : ... .. . ... ...
ROW 28 : ... .. C ... ... ... : ... .. C ... ... ... : G-1 00 . P86 : ... .. 3 ... : ... .. . ... ...
ROW 29 : ... .. . ... ... ... : ... .. . ... ... ... : F-1 00 . PA2 : ... .. 1 ... : ... .. . ... ...
ROW 2A : ... .. . ... ... ... : ... .. . ... ... ... : --- .. . ... : ... .. 0 ... : ... .. . ... ...
ROW 2B : ... .. B ... ... ... : ... .. B ... ... ... : ... .. . ... : ... .. . ... : ... .. . ... ...
ROW 2C : ... .. 0 ... V00 ... : ... .. 0 ... V00 ... : ... .. . ... : D-# 00 F ... : ... .. . ... ...
ROW 2D : C-3 00 F P80 V01 ... : E-3 00 F P80 V01 ... : C-3 00 . P80 : ... .. . ... : ... .. . ... ...
ROW 2E : ... .. E ... ... ... : ... .. E ... ... ... : ... .. . ... : ... .. . ... : ... .. . ... ...
ROW 2F : ... .. . ... ... ... : ... .. . ... ... ... : ... .. . ... : ... .. C ... : ... .. . ... ...
ROW 30 : ... .. . ... ... ... : ... .. . ... ... ... : ... .. . ... : ... .. B ... : ... .. . ... ...
ROW 31 : ... .. D ... ... ... : ... .. D ... ... ... : ... .. . ... : ... .. 9 ... : ... .. . ... ...
ROW 32 : ... .. . ... ... ... : ... .. . ... ... ... : ... .. . ... : ... .. 6 ... : ... .. . ... ...
ROW 33 : ... .. . ... ... ... : ... .. . ... ... ... : ... .. . ... : ... .. 5 ... : ... .. . ... ...
ROW 34 : ... .. C ... ... ... : ... .. C ... ... ... : ... .. . ... : ... .. 3 ... : ... .. . ... ...
ROW 35 : ... .. . ... ... ... : ... .. . ... ... ... : ... .. . ... : ... .. 1 ... : ... .. . ... ...
ROW 36 : ... .. . ... ... ... : ... .. . ... ... ... : ... .. . ... : ... .. 0 ... : ... .. . ... ...
ROW 37 : ... .. B ... ... ... : ... .. B ... ... ... : ... .. . ... : ... .. . ... : ... .. . ... ...
ROW 38 : ... .. 0 ... V00 ... : ... .. 0 ... V00 ... : A#3 00 . P81 : 4-# 00 F ... : ... .. . ... ...
ROW 39 : ... .. . ... ... ... : ... .. . ... ... ... : D#3 00 . P89 : ... .. . ... : ... .. . ... ...
ROW 3A : ... .. . ... ... ... : ... .. . ... ... ... : B-2 00 . P76 : ... .. . ... : ... .. . ... ...
ROW 3B : ... .. . ... ... ... : ... .. . ... ... ... : G-2 00 . P7C : ... .. C ... : ... .. . ... ...
ROW 3C : ... .. . ... ... ... : ... .. . ... ... ... : E-2 00 . P78 : ... .. B ... : ... .. . ... ...
ROW 3D : ... .. . ... ... ... : ... .. . ... ... ... : C#2 00 . P88 : ... .. 9 ... : ... .. . ... ...
ROW 3E : ... .. . ... ... ... : ... .. . ... ... ... : B-1 00 . P7B : ... .. 6 ... : ... .. . ... ...
ROW 3F : ... .. . ... ... ... : ... .. . ... ... ... : A-1 00 . P7A : ... .. 5 ... : ... .. . ... ...
ROW 40 : ... .. . ... ... ... : ... .. . ... ... ... : G-1 00 . P86 : ... .. 3 ... : ... .. . ... ...
ROW 41 : ... .. . ... ... ... : ... .. . ... ... ... : F-1 00 . PA2 : ... .. 1 ... : ... .. . ... ...
ROW 42 : ... .. . ... ... ... : ... .. . ... ... ... : --- .. . ... : ... .. 0 ... : ... .. . ... ...
ROW 43 : ... .. . ... ... ... : ... .. . ... ... ... : ... .. . ... : ... .. . ... : ... .. . ... ...
ROW 44 : ... .. . ... ... ... : ... .. . ... ... ... : ... .. . ... : D-# 00 F ... : ... .. . ... ...
ROW 45 : E-3 00 F P80 V01 ... : G-3 00 F P80 V01 ... : C-3 00 . P80 : ... .. . ... : ... .. . ... ...
ROW 46 : ... .. E ... ... ... : ... .. E ... ... ... : ... .. . ... : ... .. . ... : ... .. . ... ...
ROW 47 : ... .. . ... ... ... : ... .. . ... ... ... : ... .. . ... : ... .. C ... : ... .. . ... ...
ROW 48 : ... .. . ... ... ... : ... .. . ... ... ... : ... .. . ... : ... .. B ... : ... .. . ... ...
ROW 49 : ... .. D ... ... ... : ... .. D ... ... ... : ... .. . ... : ... .. 9 ... : ... .. . ... ...
ROW 4A : ... .. 0 ... V00 ... : ... .. 0 ... V00 ... : ... .. . ... : ... .. 6 ... : ... .. . ... ...
ROW 4B : E-3 00 F P80 V01 ... : G-3 00 F P80 V01 ... : ... .. . ... : ... .. 5 ... : ... .. . ... ...
ROW 4C : ... .. E ... ... ... : ... .. E ... ... ... : ... .. . ... : ... .. 3 ... : ... .. . ... ...
ROW 4D : ... .. . ... ... ... : ... .. . ... ... ... : ... .. . ... : ... .. 1 ... : ... .. . ... ...
ROW 4E : ... .. . ... ... ... : ... .. . ... ... ... : ... .. . ... : ... .. 0 ... : ... .. . ... ...
ROW 4F : ... .. D ... ... ... : ... .. D ... ... ... : ... .. . ... : ... .. . ... : ... .. . ... ...
ROW 50 : ... .. 0 ... V00 ... : ... .. 0 ... V00 ... : A#3 00 . P81 : 1-# 00 F ... : ... .. . ... ...
ROW 51 : E-3 00 F P80 V01 ... : G-3 00 F P80 V01 ... : D#3 00 . P89 : ... .. . ... : ... .. . ... ...
ROW 52 : ... .. E ... ... ... : ... .. E ... ... ... : B-2 00 . P76 : ... .. . ... : ... .. . ... ...
ROW 53 : ... .. . ... ... ... : ... .. . ... ... ... : G-2 00 . P7C : ... .. C ... : ... .. . ... ...
ROW 54 : ... .. . ... ... ... : ... .. . ... ... ... : E-2 00 . P78 : ... .. B ... : ... .. . ... ...
ROW 55 : ... .. D ... ... ... : ... .. D ... ... ... : C#2 00 . P88 : ... .. 9 ... : ... .. . ... ...
ROW 56 : ... .. . ... ... ... : ... .. . ... ... ... : B-1 00 . P7B : ... .. 6 ... : ... .. . ... ...
ROW 57 : ... .. . ... ... ... : ... .. . ... ... ... : A-1 00 . P7A : ... .. 5 ... : ... .. . ... ...
ROW 58 : ... .. C ... ... ... : ... .. C ... ... ... : G-1 00 . P86 : ... .. 3 ... : ... .. . ... ...
ROW 59 : ... .. . ... ... ... : ... .. . ... ... ... : F-1 00 . PA2 : ... .. 1 ... : ... .. . ... ...
ROW 5A : ... .. . ... ... ... : ... .. . ... ... ... : --- .. . ... : ... .. 0 ... : ... .. . ... ...
ROW 5B : ... .. B ... ... ... : ... .. B ... ... ... : ... .. . ... : ... .. . ... : ... .. . ... ...
ROW 5C : ... .. 0 ... V00 ... : ... .. 0 ... V00 ... : ... .. . ... : D-# 00 F ... : ... .. . ... ...
ROW 5D : C-3 00 F P80 V01 ... : E-3 00 F P80 V01 ... : C-3 00 . P80 : ... .. . ... : ... .. . ... ...
ROW 5E : ... .. E ... ... ... : ... .. E ... ... ... : ... .. . ... : ... .. . ... : ... .. . ... ...
ROW 5F : ... .. . ... ... ... : ... .. . ... ... ... : ... .. . ... : ... .. C ... : ... .. . ... ...
ROW 60 : ... .. . ... ... ... : ... .. . ... ... ... : ... .. . ... : ... .. B ... : ... .. . ... ...
ROW 61 : ... .. D ... ... ... : ... .. D ... ... ... : ... .. . ... : ... .. 9 ... : ... .. . ... ...
ROW 62 : ... .. . ... ... ... : ... .. . ... ... ... : ... .. . ... : ... .. 6 ... : ... .. . ... ...
ROW 63 : ... .. . ... ... ... : ... .. . ... ... ... : ... .. . ... : ... .. 5 ... : ... .. . ... ...
ROW 64 : ... .. C ... ... ... : ... .. C ... ... ... : ... .. . ... : ... .. 3 ... : ... .. . ... ...
ROW 65 : ... .. . ... ... ... : ... .. . ... ... ... : ... .. . ... : ... .. 1 ... : ... .. . ... ...
ROW 66 : ... .. . ... ... ... : ... .. . ... ... ... : ... .. . ... : ... .. 0 ... : ... .. . ... ...
ROW 67 : ... .. B ... ... ... : ... .. B ... ... ... : ... .. . ... : ... .. . ... : ... .. . ... ...
ROW 68 : ... .. 0 ... V00 ... : ... .. 0 ... V00 ... : A#3 00 . P81 : 4-# 00 F ... : ... .. . ... ...
ROW 69 : ... .. . ... ... ... : ... .. . ... ... ... : D#3 00 . P89 : ... .. . ... : ... .. . ... ...
ROW 6A : ... .. . ... ... ... : ... .. . ... ... ... : B-2 00 . P76 : ... .. . ... : ... .. . ... ...
ROW 6B : ... .. . ... ... ... : ... .. . ... ... ... : G-2 00 . P7C : ... .. C ... : ... .. . ... ...
ROW 6C : ... .. . ... ... ... : ... .. . ... ... ... : E-2 00 . P78 : ... .. B ... : ... .. . ... ...
ROW 6D : ... .. . ... ... ... : ... .. . ... ... ... : C#2 00 . P88 : ... .. 9 ... : ... .. . ... ...
ROW 6E : ... .. . ... ... ... : ... .. . ... ... ... : B-1 00 . P7B : ... .. 6 ... : ... .. . ... ...
ROW 6F : ... .. . ... ... ... : ... .. . ... ... ... : A-1 00 . P7A : ... .. 5 ... : ... .. . ... ...
ROW 70 : ... .. . ... ... ... : ... .. . ... ... ... : G-1 00 . P86 : ... .. 3 ... : ... .. . ... ...
ROW 71 : ... .. . ... ... ... : ... .. . ... ... ... : F-1 00 . PA2 : ... .. 1 ... : ... .. . ... ...
ROW 72 : ... .. . ... ... ... : ... .. . ... ... ... : --- .. . ... : ... .. 0 ... : ... .. . ... ...
ROW 73 : ... .. . ... ... ... : ... .. . ... ... ... : ... .. . ... : ... .. . ... : ... .. . ... ...
ROW 74 : ... .. . ... ... ... : ... .. . ... ... ... : ... .. . ... : D-# 00 F ... : ... .. . ... ...
ROW 75 : E-3 00 F P80 V01 ... : G-3 00 F P80 V01 ... : C-3 00 . P80 : ... .. . ... : ... .. . ... ...
ROW 76 : ... .. E ... ... ... : ... .. E ... ... ... : ... .. . ... : ... .. . ... : ... .. . ... ...
ROW 77 : ... .. . ... ... ... : ... .. . ... ... ... : ... .. . ... : ... .. C ... : ... .. . ... ...
ROW 78 : ... .. . ... ... ... : ... .. . ... ... ... : ... .. . ... : ... .. B ... : ... .. . ... ...
ROW 79 : ... .. D ... ... ... : ... .. D ... ... ... : ... .. . ... : ... .. 9 ... : ... .. . ... ...
ROW 7A : ... .. 0 ... V00 ... : ... .. 0 ... V00 ... : ... .. . ... : ... .. 6 ... : ... .. . ... ...
ROW 7B : E-3 00 F P80 V01 ... : G-3 00 F P80 V01 ... : ... .. . ... : ... .. 5 ... : ... .. . ... ...
ROW 7C : ... .. E ... ... ... : ... .. E ... ... ... : ... .. . ... : ... .. 3 ... : ... .. . ... ...
ROW 7D : ... .. . ... ... ... : ... .. . ... ... ... : ... .. . ... : ... .. 1 ... : ... .. . ... ...
ROW 7E : ... .. . ... ... ... : ... .. . ... ... ... : ... .. . ... : ... .. 0 ... : ... .. . ... ...
ROW 7F : ... .. D ... ... ... : ... .. D ... ... ... : ... .. . ... : ... .. . ... : ... .. . ... ...
ROW 80 : ... .. 0 ... V00 ... : ... .. 0 ... V00 ... : A#3 00 . P81 : ... .. . ... : ... .. . ... ...
ROW 81 : E-3 00 F P80 V01 ... : A-3 00 F P80 V01 ... : D#3 00 . P89 : 1-# 00 F V01 : ... .. . ... ...
ROW 82 : ... .. E ... ... ... : ... .. E ... ... ... : B-2 00 . P76 : ... .. E ... : ... .. . ... ...
ROW 83 : ... .. . ... ... ... : ... .. . ... ... ... : G-2 00 . P7C : ... .. . ... : ... .. . ... ...
ROW 84 : ... .. . ... ... ... : ... .. . ... ... ... : E-2 00 . P78 : ... .. . ... : ... .. . ... ...
ROW 85 : ... .. D ... ... ... : ... .. D ... ... ... : C#2 00 . P88 : ... .. D ... : ... .. . ... ...
ROW 86 : ... .. . ... ... ... : ... .. . ... ... ... : B-1 00 . P7B : ... .. . ... : ... .. . ... ...
ROW 87 : ... .. . ... ... ... : ... .. . ... ... ... : A-1 00 . P7A : ... .. . ... : ... .. . ... ...
ROW 88 : ... .. C ... ... ... : ... .. C ... ... ... : G-1 00 . P86 : ... .. C ... : ... .. . ... ...
ROW 89 : ... .. . ... ... ... : ... .. . ... ... ... : F-1 00 . PA2 : ... .. . ... : ... .. . ... ...
ROW 8A : ... .. . ... ... ... : ... .. . ... ... ... : --- .. . ... : ... .. . ... : ... .. . ... ...
ROW 8B : ... .. B ... ... ... : ... .. B ... ... ... : ... .. . ... : ... .. B ... : ... .. . ... ...
ROW 8C : ... .. . ... ... ... : ... .. . ... ... ... : A-2 00 . P80 : ... .. . ... : ... .. . ... ...
ROW 8D : ... .. . ... ... ... : ... .. . ... ... ... : ... .. . ... : ... .. . ... : ... .. . ... ...
ROW 8E : ... .. A ... ... ... : ... .. A ... ... ... : ... .. . ... : ... .. A ... : ... .. . ... ...
ROW 8F : ... .. . ... ... ... : ... .. . ... ... ... : ... .. . ... : ... .. . ... : ... .. . ... ...
ROW 90 : ... .. . ... ... ... : ... .. . ... ... ... : ... .. . ... : ... .. . ... : ... .. . ... ...
ROW 91 : ... .. 9 ... ... ... : ... .. 9 ... ... ... : ... .. . ... : ... .. 9 ... : ... .. . ... ...
ROW 92 : ... .. . ... ... ... : ... .. . ... ... ... : ... .. . ... : ... .. . ... : ... .. . ... ...
ROW 93 : ... .. . ... ... ... : ... .. . ... ... ... : ... .. . ... : ... .. . ... : ... .. . ... ...
ROW 94 : ... .. 8 ... ... ... : ... .. 8 ... ... ... : ... .. . ... : ... .. 8 ... : ... .. . ... ...
ROW 95 : ... .. . ... ... ... : ... .. . ... ... ... : ... .. . ... : ... .. . ... : ... .. . ... ...
ROW 96 : ... .. 7 ... ... ... : ... .. 7 ... ... ... : --- .. . ... : ... .. 7 ... : ... .. . ... ...
ROW 97 : ... .. . ... ... ... : ... .. . ... ... ... : ... .. . ... : ... .. . ... : ... .. . ... ...
ROW 98 : ... .. 0 ... V00 ... : ... .. 0 ... V00 ... : A#3 00 . P81 : ... .. 6 ... : ... .. . ... ...
ROW 99 : A-3 00 F P80 V01 ... : C-4 00 F P80 V01 ... : D#3 00 . P89 : ... .. . ... : ... .. . ... ...
ROW 9A : ... .. E ... ... ... : ... .. E ... ... ... : B-2 00 . P76 : ... .. . ... : ... .. . ... ...
ROW 9B : ... .. . ... ... ... : ... .. . ... ... ... : G-2 00 . P7C : ... .. 5 ... : ... .. . ... ...
ROW 9C : ... .. . ... ... ... : ... .. . ... ... ... : E-2 00 . P78 : ... .. . ... : ... .. . ... ...
ROW 9D : ... .. D ... ... ... : ... .. D ... ... ... : C#2 00 . P88 : ... .. 4 ... : ... .. . ... ...
ROW 9E : ... .. . ... ... ... : ... .. . ... ... ... : B-1 00 . P7B : ... .. . ... : ... .. . ... ...
ROW 9F : ... .. . ... ... ... : ... .. . ... ... ... : A-1 00 . P7A : ... .. 3 ... : ... .. . ... ...
ROW A0 : ... .. C ... ... ... : ... .. C ... ... ... : G-1 00 . P86 : ... .. . ... : ... .. . ... ...
ROW A1 : ... .. . ... ... ... : ... .. . ... ... ... : F-1 00 . PA2 : ... .. 2 ... : ... .. . ... ...
ROW A2 : ... .. . ... ... ... : ... .. . ... ... ... : --- .. . ... : ... .. 1 ... : ... .. . ... ...
ROW A3 : ... .. B ... ... ... : ... .. B ... ... ... : ... .. . ... : ... .. . ... : ... .. . ... ...
ROW A4 : ... .. 0 ... V00 ... : ... .. 0 ... V00 ... : A-2 00 . P80 : ... .. . ... : ... .. . ... ...
ROW A5 : C-4 00 F P80 V01 ... : E-4 00 F P80 V01 ... : ... .. . ... : ... .. . ... : ... .. . ... ...
ROW A6 : ... .. E ... ... ... : ... .. E ... ... ... : ... .. . ... : ... .. . ... : ... .. . ... ...
ROW A7 : ... .. . ... ... ... : ... .. . ... ... ... : ... .. . ... : ... .. . ... : ... .. . ... ...
ROW A8 : ... .. . ... ... ... : ... .. . ... ... ... : ... .. . ... : ... .. . ... : ... .. . ... ...
ROW A9 : ... .. D ... ... ... : ... .. D ... ... ... : ... .. . ... : ... .. . ... : ... .. . ... ...
ROW AA : ... .. . ... ... ... : ... .. . ... ... ... : ... .. . ... : ... .. . ... : ... .. . ... ...
ROW AB : ... .. . ... ... ... : ... .. . ... ... ... : ... .. . ... : ... .. . ... : ... .. . ... ...
ROW AC : ... .. C ... ... ... : ... .. C ... ... ... : ... .. . ... : ... .. . ... : ... .. . ... ...
ROW AD : ... .. . ... ... ... : ... .. . ... ... ... : ... .. . ... : ... .. . ... : ... .. . ... ...
ROW AE : ... .. . ... ... ... : ... .. . ... ... ... : --- .. . ... : ... .. . ... : ... .. . ... ...
ROW AF : ... .. B ... ... ... : ... .. B ... ... ... : ... .. . ... : ... .. . ... : ... .. . ... ...
ROW B0 : ... .. 0 ... V00 ... : ... .. 0 ... V00 ... : A#3 00 . P81 : ... .. . ... : ... .. . ... ...
ROW B1 : C-4 00 F P80 V01 ... : F-4 00 F P80 V01 ... : D#3 00 . P89 : ... .. . ... : ... .. . ... ...
ROW B2 : ... .. E ... ... ... : ... .. E ... ... ... : B-2 00 . P76 : ... .. . ... : ... .. . ... ...
ROW B3 : ... .. . ... ... ... : ... .. . ... ... ... : G-2 00 . P7C : ... .. . ... : ... .. . ... ...
ROW B4 : ... .. . ... ... ... : ... .. . ... ... ... : E-2 00 . P78 : ... .. . ... : ... .. . ... ...
ROW B5 : ... .. D ... ... ... : ... .. D ... ... ... : C#2 00 . P88 : ... .. . ... : ... .. . ... ...
ROW B6 : ... .. . ... ... ... : ... .. . ... ... ... : B-1 00 . P7B : ... .. . ... : ... .. . ... ...
ROW B7 : ... .. . ... ... ... : ... .. . ... ... ... : A-1 00 . P7A : ... .. . ... : ... .. . ... ...
ROW B8 : ... .. C ... ... ... : ... .. C ... ... ... : G-1 00 . P86 : ... .. . ... : ... .. . ... ...
ROW B9 : ... .. . ... ... ... : ... .. . ... ... ... : F-1 00 . PA2 : ... .. . ... : ... .. . ... ...
ROW BA : ... .. . ... ... ... : ... .. . ... ... ... : --- .. . ... : ... .. . ... : ... .. . ... ...
ROW BB : ... .. B ... ... ... : ... .. B ... ... ... : ... .. . ... : ... .. . ... : ... .. . ... ...
ROW BC : ... .. 0 ... V00 ... : ... .. 0 ... V00 ... : A-2 00 . P80 : ... .. . ... : ... .. . ... ...
ROW BD : E-3 00 F P80 V01 ... : A-3 00 F P80 V01 ... : ... .. . ... : ... .. . ... : ... .. . ... ...
ROW BE : ... .. E ... ... ... : ... .. E ... ... ... : ... .. . ... : ... .. . ... : ... .. . ... ...
ROW BF : ... .. . ... ... ... : ... .. . ... ... ... : ... .. . ... : ... .. . ... : ... .. . ... ...
ROW C0 : ... .. . ... ... ... : ... .. . ... ... ... : ... .. . ... : ... .. . ... : ... .. . ... ...
ROW C1 : ... .. D ... ... ... : ... .. D ... ... ... : ... .. . ... : ... .. . ... : ... .. . ... ...
ROW C2 : ... .. 0 ... V00 ... : ... .. 0 ... V00 ... : ... .. . ... : ... .. . ... : ... .. . ... ...
ROW C3 : E-3 00 F P80 V01 ... : A-3 00 F P80 V01 ... : ... .. . ... : ... .. . ... : ... .. . ... ...
ROW C4 : ... .. E ... ... ... : ... .. E ... ... ... : ... .. . ... : ... .. . ... : ... .. . ... ...
ROW C5 : ... .. . ... ... ... : ... .. . ... ... ... : ... .. . ... : ... .. . ... : ... .. . ... ...
ROW C6 : ... .. . ... ... ... : ... .. . ... ... ... : --- .. . ... : ... .. . ... : ... .. . ... ...
ROW C7 : ... .. D ... ... ... : ... .. D ... ... ... : ... .. . ... : ... .. . ... : ... .. . ... ...
ROW C8 : ... .. 0 ... V00 ... : ... .. 0 ... V00 ... : A#3 00 . P81 : ... .. . ... : ... .. . ... ...
ROW C9 : C-4 00 F P80 V01 ... : E-4 00 F P80 V01 ... : D#3 00 . P89 : ... .. . ... : ... .. . ... ...
ROW CA : ... .. E ... ... ... : ... .. E ... ... ... : B-2 00 . P76 : ... .. . ... : ... .. . ... ...
ROW CB : ... .. . ... ... ... : ... .. . ... ... ... : G-2 00 . P7C : ... .. . ... : ... .. . ... ...
ROW CC : ... .. . ... ... ... : ... .. . ... ... ... : E-2 00 . P78 : ... .. . ... : ... .. . ... ...
ROW CD : ... .. D ... ... ... : ... .. D ... ... ... : C#2 00 . P88 : ... .. . ... : ... .. . ... ...
ROW CE : ... .. . ... ... ... : ... .. . ... ... ... : B-1 00 . P7B : ... .. . ... : ... .. . ... ...
ROW CF : ... .. . ... ... ... : ... .. . ... ... ... : A-1 00 . P7A : ... .. . ... : ... .. . ... ...
ROW D0 : ... .. C ... ... ... : ... .. C ... ... ... : G-1 00 . P86 : ... .. . ... : ... .. . ... ...
ROW D1 : ... .. . ... ... ... : ... .. . ... ... ... : F-1 00 . PA2 : ... .. . ... : ... .. . ... ...
ROW D2 : ... .. . ... ... ... : ... .. . ... ... ... : --- .. . ... : ... .. . ... : ... .. . ... ...
ROW D3 : ... .. B ... ... ... : ... .. B ... ... ... : ... .. . ... : ... .. . ... : ... .. . ... ...
ROW D4 : ... .. 0 ... V00 ... : ... .. 0 ... V00 ... : A-2 00 . P80 : ... .. . ... : ... .. . ... ...
ROW D5 : A-3 00 F P80 V01 ... : D-4 00 F P80 V01 ... : ... .. . ... : ... .. . ... : ... .. . ... ...
ROW D6 : ... .. E ... ... ... : ... .. E ... ... ... : ... .. . ... : ... .. . ... : ... .. . ... ...
ROW D7 : ... .. . ... ... ... : ... .. . ... ... ... : ... .. . ... : ... .. . ... : ... .. . ... ...
ROW D8 : ... .. . ... ... ... : ... .. . ... ... ... : ... .. . ... : ... .. . ... : ... .. . ... ...
ROW D9 : ... .. D ... ... ... : ... .. D ... ... ... : ... .. . ... : ... .. . ... : ... .. . ... ...
ROW DA : ... .. . ... ... ... : ... .. . ... ... ... : ... .. . ... : ... .. . ... : ... .. . ... ...
ROW DB : ... .. . ... ... ... : ... .. . ... ... ... : ... .. . ... : ... .. . ... : ... .. . ... ...
ROW DC : ... .. C ... ... ... : ... .. C ... ... ... : ... .. . ... : ... .. . ... : ... .. . ... ...
ROW DD : ... .. . ... ... ... : ... .. . ... ... ... : ... .. . ... : ... .. . ... : ... .. . ... ...
ROW DE : ... .. . ... ... ... : ... .. . ... ... ... : --- .. . ... : ... .. . ... : ... .. . ... ...
ROW DF : ... .. B ... ... ... : ... .. B ... ... ... : ... .. . ... : ... .. . ... : ... .. . ... ...
ROW E0 : ... .. 0 ... V00 ... : ... .. 0 ... V00 ... : A#3 00 . P81 : ... .. . ... : ... .. . ... ...
ROW E1 : A-3 00 F P80 V01 ... : C-4 00 F P80 V01 ... : D#3 00 . P89 : ... .. . ... : ... .. . ... ...
ROW E2 : ... .. E ... ... ... : ... .. E ... ... ... : B-2 00 . P76 : ... .. . ... : ... .. . ... ...
ROW E3 : ... .. . ... ... ... : ... .. . ... ... ... : G-2 00 . P7C : ... .. . ... : ... .. . ... ...
ROW E4 : ... .. . ... ... ... : ... .. . ... ... ... : E-2 00 . P78 : ... .. . ... : ... .. . ... ...
ROW E5 : ... .. D ... ... ... : ... .. D ... ... ... : C#2 00 . P88 : ... .. . ... : ... .. . ... ...
ROW E6 : ... .. . ... ... ... : ... .. . ... ... ... : B-1 00 . P7B : ... .. . ... : ... .. . ... ...
ROW E7 : ... .. . ... ... ... : ... .. . ... ... ... : A-1 00 . P7A : ... .. . ... : ... .. . ... ...
ROW E8 : ... .. C ... ... ... : ... .. C ... ... ... : G-1 00 . P86 : ... .. . ... : ... .. . ... ...
ROW E9 : ... .. . ... ... ... : ... .. . ... ... ... : F-1 00 . PA2 : ... .. . ... : ... .. . ... ...
ROW EA : ... .. . ... ... ... : ... .. . ... ... ... : --- .. . ... : ... .. . ... : ... .. . ... ...
ROW EB : ... .. B ... ... ... : ... .. B ... ... ... : ... .. . ... : ... .. . ... : ... .. . ... ...
ROW EC : ... .. 0 ... V00 ... : ... .. 0 ... V00 ... : F-2 00 . P80 : ... .. . ... : ... .. . ... ...
ROW ED : A-2 00 F P80 V01 ... : C-3 00 F P80 V01 ... : ... .. . ... : ... .. . ... : ... .. . ... ...
ROW EE : ... .. E ... ... ... : ... .. E ... ... ... : ... .. . ... : ... .. . ... : ... .. . ... ...
ROW EF : ... .. . ... ... ... : ... .. . ... ... ... : ... .. . ... : ... .. . ... : ... .. . ... ...
ROW F0 : ... .. . ... ... ... : ... .. . ... ... ... : ... .. . ... : ... .. . ... : ... .. . ... ...
ROW F1 : ... .. D ... ... ... : ... .. D ... ... ... : ... .. . ... : ... .. . ... : ... .. . ... ...
ROW F2 : ... .. 0 ... V00 ... : ... .. 0 ... V00 ... : ... .. . ... : ... .. . ... : ... .. . ... ...
ROW F3 : A-2 00 F P80 V01 ... : C-3 00 F P80 V01 ... : ... .. . ... : ... .. . ... : ... .. . ... ...
ROW F4 : ... .. E ... ... ... : ... .. E ... ... ... : ... .. . ... : ... .. . ... : ... .. . ... ...
ROW F5 : ... .. . ... ... ... : ... .. . ... ... ... : ... .. . ... : ... .. . ... : ... .. . ... ...
ROW F6 : ... .. . ... ... ... : ... .. . ... ... ... : --- .. . ... : ... .. . ... : ... .. . ... ...
ROW F7 : ... .. D ... ... ... : ... .. D ... ... ... : ... .. . ... : ... .. . ... : ... .. . ... ...
ROW F8 : ... .. 0 ... V00 ... : ... .. 0 ... V00 ... : A#3 00 . P81 : ... .. . ... : ... .. . ... ...
ROW F9 : F-3 00 F P80 V01 ... : A-3 00 F P80 V01 ... : D#3 00 . P89 : ... .. . ... : ... .. . ... ...
ROW FA : ... .. E ... ... ... : ... .. E ... ... ... : B-2 00 . P76 : ... .. . ... : ... .. . ... ...
ROW FB : ... .. . ... ... ... : ... .. . ... ... ... : G-2 00 . P7C : ... .. . ... : ... .. . ... ...
ROW FC : ... .. . ... ... ... : ... .. . ... ... ... : E-2 00 . P78 : ... .. . ... : ... .. . ... ...
ROW FD : ... .. D ... ... ... : ... .. D ... ... ... : C#2 00 . P88 : ... .. . ... : ... .. . ... ...
ROW FE : ... .. . ... ... ... : ... .. . ... ... ... : B-1 00 . P7B : ... .. . ... : ... .. . ... ...
ROW FF : ... .. . ... ... ... : ... .. . ... ... ... : A-1 00 . P7A : ... .. . ... : ... .. . ... ...

PATTERN 11
ROW 00 : ... .. C ... ... ... : ... .. C ... ... ... : G-1 00 . P86 : ... .. . ... : ... .. . ... ...
ROW 01 : ... .. . ... ... ... : ... .. . ... ... ... : F-1 00 . PA2 : ... .. . ... : ... .. . ... ...
ROW 02 : ... .. . ... ... ... : ... .. . ... ... ... : --- .. . ... : ... .. . ... : ... .. . ... ...
ROW 03 : ... .. B ... ... ... : ... .. B ... ... ... : ... .. . ... : ... .. . ... : ... .. . ... ...
ROW 04 : ... .. 0 ... V00 ... : ... .. 0 ... V00 ... : F-2 00 . P80 : ... .. . ... : ... .. . ... ...
ROW 05 : A-3 00 F P80 V01 ... : C-4 00 F P80 V01 ... : ... .. . ... : ... .. . ... : ... .. . ... ...
ROW 06 : ... .. E ... ... ... : ... .. E ... ... ... : ... .. . ... : ... .. . ... : ... .. . ... ...
ROW 07 : ... .. . ... ... ... : ... .. . ... ... ... : ... .. . ... : ... .. . ... : ... .. . ... ...
ROW 08 : ... .. . ... ... ... : ... .. . ... ... ... : ... .. . ... : ... .. . ... : ... .. . ... ...
ROW 09 : ... .. D ... ... ... : ... .. D ... ... ... : ... .. . ... : ... .. . ... : ... .. . ... ...
ROW 0A : ... .. . ... ... ... : ... .. . ... ... ... : ... .. . ... : ... .. . ... : ... .. . ... ...
ROW 0B : ... .. . ... ... ... : ... .. . ... ... ... : ... .. . ... : ... .. . ... : ... .. . ... ...
ROW 0C : ... .. C ... ... ... : ... .. C ... ... ... : ... .. . ... : ... .. . ... : ... .. . ... ...
ROW 0D : ... .. . ... ... ... : ... .. . ... ... ... : ... .. . ... : ... .. . ... : ... .. . ... ...
ROW 0E : ... .. . ... ... ... : ... .. . ... ... ... : --- .. . ... : ... .. . ... : ... .. . ... ...
ROW 0F : ... .. B ... ... ... : ... .. B ... ... ... : ... .. . ... : ... .. . ... : ... .. . ... ...
ROW 10 : ... .. 0 ... V00 ... : ... .. 0 ... V00 ... : A#3 00 . P81 : ... .. . ... : ... .. . ... ...
ROW 11 : A-3 00 F P80 V01 ... : D-4 00 F P80 V01 ... : D#3 00 . P89 : ... .. . ... : ... .. . ... ...
ROW 12 : ... .. E ... ... ... : ... .. E ... ... ... : B-2 00 . P76 : ... .. . ... : ... .. . ... ...
ROW 13 : ... .. . ... ... ... : ... .. . ... ... ... : G-2 00 . P7C : ... .. . ... : ... .. . ... ...
ROW 14 : ... .. . ... ... ... : ... .. . ... ... ... : E-2 00 . P78 : ... .. . ... : ... .. . ... ...
ROW 15 : ... .. D ... ... ... : ... .. D ... ... ... : C#2 00 . P88 : ... .. . ... : ... .. . ... ...
ROW 16 : ... .. . ... ... ... : ... .. . ... ... ... : B-1 00 . P7B : ... .. . ... : ... .. . ... ...
ROW 17 : ... .. . ... ... ... : ... .. . ... ... ... : A-1 00 . P7A : ... .. . ... : ... .. . ... ...
ROW 18 : ... .. C ... ... ... : ... .. C ... ... ... : G-1 00 . P86 : ... .. . ... : ... .. . ... ...
ROW 19 : ... .. . ... ... ... : ... .. . ... ... ... : F-1 00 . PA2 : ... .. . ... : ... .. . ... ...
ROW 1A : ... .. . ... ... ... : ... .. . ... ... ... : --- .. . ... : ... .. . ... : ... .. . ... ...
ROW 1B : ... .. B ... ... ... : ... .. B ... ... ... : ... .. . ... : ... .. . ... : ... .. . ... ...
ROW 1C : ... .. 0 ... V00 ... : ... .. 0 ... V00 ... : F-2 00 . P80 : ... .. . ... : ... .. . ... ...
ROW 1D : A-3 00 F P80 V01 ... : C-4 00 F P80 V01 ... : ... .. . ... : ... .. . ... : ... .. . ... ...
ROW 1E : ... .. E ... ... ... : ... .. E ... ... ... : ... .. . ... : ... .. . ... : ... .. . ... ...
ROW 1F : ... .. . ... ... ... : ... .. . ... ... ... : ... .. . ... : ... .. . ... : ... .. . ... ...
ROW 20 : ... .. . ... ... ... : ... .. . ... ... ... : ... .. . ... : ... .. . ... : ... .. . ... ...
ROW 21 : ... .. D ... ... ... : ... .. D ... ... ... : ... .. . ... : ... .. . ... : ... .. . ... ...
ROW 22 : ... .. . ... ... ... : ... .. . ... ... ... : ... .. . ... : ... .. . ... : ... .. . ... ...
ROW 23 : ... .. . ... ... ... : ... .. . ... ... ... : ... .. . ... : ... .. . ... : ... .. . ... ...
ROW 24 : ... .. C ... ... ... : ... .. C ... ... ... : ... .. . ... : ... .. . ... : ... .. . ... ...
ROW 25 : ... .. . ... ... ... : ... .. . ... ... ... : ... .. . ... : ... .. . ... : ... .. . ... ...
ROW 26 : ... .. . ... ... ... : ... .. . ... ... ... : --- .. . ... : ... .. . ... : ... .. . ... ...
ROW 27 : ... .. B ... ... ... : ... .. B ... ... ... : ... .. . ... : ... .. . ... : ... .. . ... ...
ROW 28 : ... .. 0 ... V00 ... : ... .. 0 ... V00 ... : A#3 00 . P81 : ... .. . ... : ... .. . ... ...
ROW 29 : A-3 00 F P80 V01 ... : B-3 00 F P80 V01 ... : D#3 00 . P89 : ... .. . ... : ... .. . ... ...
ROW 2A : ... .. E ... ... ... : ... .. E ... ... ... : B-2 00 . P76 : ... .. . ... : ... .. . ... ...
ROW 2B : ... .. . ... ... ... : ... .. . ... ... ... : G-2 00 . P7C : ... .. . ... : ... .. . ... ...
ROW 2C : ... .. . ... ... ... : ... .. . ... ... ... : E-2 00 . P78 : ... .. . ... : ... .. . ... ...
ROW 2D : ... .. D ... ... ... : ... .. D ... ... ... : C#2 00 . P88 : ... .. . ... : ... .. . ... ...
ROW 2E : ... .. . ... ... ... : ... .. . ... ... ... : B-1 00 . P7B : ... .. . ... : ... .. . ... ...
ROW 2F : ... .. . ... ... ... : ... .. . ... ... ... : A-1 00 . P7A : ... .. . ... : ... .. . ... ...
ROW 30 : ... .. C ... ... ... : ... .. C ... ... ... : G-1 00 . P86 : ... .. . ... : ... .. . ... ...
ROW 31 : ... .. . ... ... ... : ... .. . ... ... ... : F-1 00 . PA2 : ... .. . ... : ... .. . ... ...
ROW 32 : ... .. . ... ... ... : ... .. . ... ... ... : --- .. . ... : ... .. . ... : ... .. . ... ...
ROW 33 : ... .. B ... ... ... : ... .. B ... ... ... : ... .. . ... : ... .. . ... : ... .. . ... ...
ROW 34 : ... .. 0 ... V00 ... : ... .. 0 ... V00 ... : F-2 00 . P80 : ... .. . ... : ... .. . ... ...
ROW 35 : A-3 00 F P80 V01 ... : C-4 00 F P80 V01 ... : ... .. . ... : ... .. . ... : ... .. . ... ...
ROW 36 : ... .. E ... ... ... : ... .. E ... ... ... : ... .. . ... : ... .. . ... : ... .. . ... ...
ROW 37 : ... .. . ... ... ... : ... .. . ... ... ... : ... .. . ... : ... .. . ... : ... .. . ... ...
ROW 38 : ... .. . ... ... ... : ... .. . ... ... ... : ... .. . ... : ... .. . ... : ... .. . ... ...
ROW 39 : ... .. D ... ... ... : ... .. D ... ... ... : ... .. . ... : ... .. . ... : ... .. . ... ...
ROW 3A : ... .. . ... ... ... : ... .. . ... ... ... : ... .. . ... : ... .. . ... : ... .. . ... ...
ROW 3B : ... .. . ... ... ... : ... .. . ... ... ... : ... .. . ... : ... .. . ... : ... .. . ... ...
ROW 3C : ... .. C ... ... ... : ... .. C ... ... ... : ... .. . ... : ... .. . ... : ... .. . ... ...
ROW 3D : ... .. . ... ... ... : ... .. . ... ... ... : ... .. . ... : ... .. . ... : ... .. . ... ...
ROW 3E : ... .. . ... ... ... : ... .. . ... ... ... : --- .. . ... : ... .. . ... : ... .. . ... ...
ROW 3F : ... .. B ... ... ... : ... .. B ... ... ... : ... .. . ... : ... .. . ... : ... .. . ... ...
ROW 40 : ... .. 0 ... V00 ... : ... .. 0 ... V00 ... : A#3 00 . P81 : ... .. . ... : ... .. . ... ...
ROW 41 : G-3 00 F P80 V01 ... : B-3 00 F P80 V01 ... : D#3 00 . P89 : ... .. . ... : ... .. . ... ...
ROW 42 : ... .. E ... ... ... : ... .. E ... ... ... : B-2 00 . P76 : ... .. . ... : ... .. . ... ...
ROW 43 : ... .. . ... ... ... : ... .. . ... ... ... : G-2 00 . P7C : ... .. . ... : ... .. . ... ...
ROW 44 : ... .. . ... ... ... : ... .. . ... ... ... : E-2 00 . P78 : ... .. . ... : ... .. . ... ...
ROW 45 : ... .. D ... ... ... : ... .. D ... ... ... : C#2 00 . P88 : ... .. . ... : ... .. . ... ...
ROW 46 : ... .. . ... ... ... : ... .. . ... ... ... : B-1 00 . P7B : ... .. . ... : ... .. . ... ...
ROW 47 : ... .. . ... ... ... : ... .. . ... ... ... : A-1 00 . P7A : ... .. . ... : ... .. . ... ...
ROW 48 : ... .. C ... ... ... : ... .. C ... ... ... : G-1 00 . P86 : ... .. . ... : ... .. . ... ...
ROW 49 : ... .. . ... ... ... : ... .. . ... ... ... : F-1 00 . PA2 : ... .. . ... : ... .. . ... ...
ROW 4A : ... .. . ... ... ... : ... .. . ... ... ... : --- .. . ... : ... .. . ... : ... .. . ... ...
ROW 4B : ... .. B ... ... ... : ... .. B ... ... ... : ... .. . ... : ... .. . ... : ... .. . ... ...
ROW 4C : ... .. 0 ... V00 ... : ... .. 0 ... V00 ... : G-2 00 . P80 : ... .. . ... : ... .. . ... ...
ROW 4D : D-3 00 F P80 V01 ... : G-3 00 F P80 V01 ... : ... .. . ... : ... .. . ... : ... .. . ... ...
ROW 4E : ... .. E ... ... ... : ... .. E ... ... ... : ... .. . ... : ... .. . ... : ... .. . ... ...
ROW 4F : ... .. . ... ... ... : ... .. . ... ... ... : ... .. . ... : ... .. . ... : ... .. . ... ...
ROW 50 : ... .. . ... ... ... : ... .. . ... ... ... : ... .. . ... : ... .. . ... : ... .. . ... ...
ROW 51 : ... .. D ... ... ... : ... .. D ... ... ... : ... .. . ... : ... .. . ... : ... .. . ... ...
ROW 52 : ... .. 0 ... V00 ... : ... .. 0 ... V00 ... : ... .. . ... : ... .. . ... : ... .. . ... ...
ROW 53 : D-3 00 F P80 V01 ... : G-3 00 F P80 V01 ... : ... .. . ... : ... .. . ... : ... .. . ... ...
ROW 54 : ... .. E ... ... ... : ... .. E ... ... ... : ... .. . ... : ... .. . ... : ... .. . ... ...
ROW 55 : ... .. . ... ... ... : ... .. . ... ... ... : ... .. . ... : ... .. . ... : ... .. . ... ...
ROW 56 : ... .. . ... ... ... : ... .. . ... ... ... : --- .. . ... : ... .. . ... : ... .. . ... ...
ROW 57 : ... .. D ... ... ... : ... .. D ... ... ... : ... .. . ... : ... .. . ... : ... .. . ... ...
ROW 58 : ... .. 0 ... V00 ... : ... .. 0 ... V00 ... : A#3 00 . P81 : ... .. . ... : ... .. . ... ...
ROW 59 : G-3 00 F P80 V01 ... : B-3 00 F P80 V01 ... : D#3 00 . P89 : ... .. . ... : ... .. . ... ...
ROW 5A : ... .. E ... ... ... : ... .. E ... ... ... : B-2 00 . P76 : ... .. . ... : ... .. . ... ...
ROW 5B : ... .. . ... ... ... : ... .. . ... ... ... : G-2 00 . P7C : ... .. . ... : ... .. . ... ...
ROW 5C : ... .. . ... ... ... : ... .. . ... ... ... : E-2 00 . P78 : ... .. . ... : ... .. . ... ...
ROW 5D : ... .. D ... ... ... : ... .. D ... ... ... : C#2 00 . P88 : ... .. . ... : ... .. . ... ...
ROW 5E : ... .. . ... ... ... : ... .. . ... ... ... : B-1 00 . P7B : ... .. . ... : ... .. . ... ...
ROW 5F : ... .. . ... ... ... : ... .. . ... ... ... : A-1 00 . P7A : ... .. . ... : ... .. . ... ...
ROW 60 : ... .. C ... ... ... : ... .. C ... ... ... : G-1 00 . P86 : ... .. . ... : ... .. . ... ...
ROW 61 : ... .. . ... ... ... : ... .. . ... ... ... : F-1 00 . PA2 : ... .. . ... : ... .. . ... ...
ROW 62 : ... .. . ... ... ... : ... .. . ... ... ... : --- .. . ... : ... .. . ... : ... .. . ... ...
ROW 63 : ... .. B ... ... ... : ... .. B ... ... ... : ... .. . ... : ... .. . ... : ... .. . ... ...
ROW 64 : ... .. 0 ... V00 ... : ... .. 0 ... V00 ... : G-2 00 . P80 : ... .. . ... : ... .. . ... ...
ROW 65 : G-3 00 F P80 V01 ... : D-4 00 F P80 V01 ... : ... .. . ... : ... .. . ... : ... .. . ... ...
ROW 66 : ... .. E ... ... ... : ... .. E ... ... ... : ... .. . ... : ... .. . ... : ... .. . ... ...
ROW 67 : ... .. . ... ... ... : ... .. . ... ... ... : ... .. . ... : ... .. . ... : ... .. . ... ...
ROW 68 : ... .. . ... ... ... : ... .. . ... ... ... : ... .. . ... : ... .. . ... : ... .. . ... ...
ROW 69 : ... .. D ... ... ... : ... .. D ... ... ... : ... .. . ... : ... .. . ... : ... .. . ... ...
ROW 6A : ... .. . ... ... ... : ... .. . ... ... ... : ... .. . ... : ... .. . ... : ... .. . ... ...
ROW 6B : ... .. . ... ... ... : ... .. . ... ... ... : ... .. . ... : ... .. . ... : ... .. . ... ...
ROW 6C : ... .. C ... ... ... : ... .. C ... ... ... : ... .. . ... : ... .. . ... : ... .. . ... ...
ROW 6D : ... .. . ... ... ... : ... .. . ... ... ... : ... .. . ... : ... .. . ... : ... .. . ... ...
ROW 6E : ... .. . ... ... ... : ... .. . ... ... ... : --- .. . ... : ... .. . ... : ... .. . ... ...
ROW 6F : ... .. B ... ... ... : ... .. B ... ... ... : ... .. . ... : ... .. . ... : ... .. . ... ...
ROW 70 : ... .. 0 ... V00 ... : ... .. 0 ... V00 ... : A#3 00 . P81 : ... .. . ... : ... .. . ... ...
ROW 71 : G-3 00 F P80 V01 ... : E-4 00 F P80 V01 ... : D#3 00 . P89 : ... .. . ... : ... .. . ... ...
ROW 72 : ... .. E ... ... ... : ... .. E ... ... ... : B-2 00 . P76 : ... .. . ... : ... .. . ... ...
ROW 73 : ... .. . ... ... ... : ... .. . ... ... ... : G-2 00 . P7C : ... .. . ... : ... .. . ... ...
ROW 74 : ... .. . ... ... ... : ... .. . ... ... ... : E-2 00 . P78 : ... .. . ... : ... .. . ... ...
ROW 75 : ... .. D ... ... ... : ... .. D ... ... ... : C#2 00 . P88 : ... .. . ... : ... .. . ... ...
ROW 76 : ... .. . ... ... ... : ... .. . ... ... ... : B-1 00 . P7B : ... .. . ... : ... .. . ... ...
ROW 77 : ... .. . ... ... ... : ... .. . ... ... ... : A-1 00 . P7A : ... .. . ... : ... .. . ... ...
ROW 78 : ... .. C ... ... ... : ... .. C ... ... ... : G-1 00 . P86 : ... .. . ... : ... .. . ... ...
ROW 79 : ... .. . ... ... ... : ... .. . ... ... ... : F-1 00 . PA2 : ... .. . ... : ... .. . ... ...
ROW 7A : ... .. . ... ... ... : ... .. . ... ... ... : --- .. . ... : ... .. . ... : ... .. . ... ...
ROW 7B : ... .. B ... ... ... : ... .. B ... ... ... : ... .. . ... : ... .. . ... : ... .. . ... ...
ROW 7C : ... .. 0 ... V00 ... : ... .. 0 ... V00 ... : G-2 00 . P80 : ... .. . ... : ... .. . ... ...
ROW 7D : G-3 00 F P80 V01 ... : D-4 00 F P80 V01 ... : ... .. . ... : ... .. . ... : ... .. . ... ...
ROW 7E : ... .. E ... ... ... : ... .. E ... ... ... : ... .. . ... : ... .. . ... : ... .. . ... ...
ROW 7F : ... .. . ... ... ... : ... .. . ... ... ... : ... .. . ... : ... .. . ... : ... .. . ... ...
ROW 80 : ... .. . ... ... ... : ... .. . ... ... ... : ... .. . ... : ... .. . ... : ... .. . ... ...
ROW 81 : ... .. D ... ... ... : ... .. D ... ... ... : ... .. . ... : ... .. . ... : ... .. . ... ...
ROW 82 : ... .. . ... ... ... : ... .. . ... ... ... : ... .. . ... : ... .. . ... : ... .. . ... ...
ROW 83 : ... .. . ... ... ... : ... .. . ... ... ... : ... .. . ... : ... .. . ... : ... .. . ... ...
ROW 84 : ... .. C ... ... ... : ... .. C ... ... ... : ... .. . ... : ... .. . ... : ... .. . ... ...
ROW 85 : ... .. . ... ... ... : ... .. . ... ... ... : ... .. . ... : ... .. . ... : ... .. . ... ...
ROW 86 : ... .. . ... ... ... : ... .. . ... ... ... : --- .. . ... : ... .. . ... : ... .. . ... ...
ROW 87 : ... .. B ... ... ... : ... .. B ... ... ... : ... .. . ... : ... .. . ... : ... .. . ... ...
ROW 88 : ... .. 0 ... V00 ... : ... .. 0 ... V00 ... : A#3 00 . P81 : ... .. . ... : ... .. . ... ...
ROW 89 : G-3 00 F P80 V01 ... : C-4 00 F P80 V01 ... : D#3 00 . P89 : ... .. . ... : ... .. . ... ...
ROW 8A : ... .. E ... ... ... : ... .. E ... ... ... : B-2 00 . P76 : ... .. . ... : ... .. . ... ...
ROW 8B : ... .. . ... ... ... : ... .. . ... ... ... : G-2 00 . P7C : ... .. . ... : ... .. . ... ...
ROW 8C : ... .. . ... ... ... : ... .. . ... ... ... : E-2 00 . P78 : ... .. . ... : ... .. . ... ...
ROW 8D : ... .. D ... ... ... : ... .. D ... ... ... : C#2 00 . P88 : ... .. . ... : ... .. . ... ...
ROW 8E : ... .. . ... ... ... : ... .. . ... ... ... : B-1 00 . P7B : ... .. . ... : ... .. . ... ...
ROW 8F : ... .. . ... ... ... : ... .. . ... ... ... : A-1 00 . P7A : ... .. . ... : ... .. . ... ...
ROW 90 : ... .. C ... ... ... : ... .. C ... ... ... : G-1 00 . P86 : ... .. . ... : ... .. . ... ...
ROW 91 : ... .. . ... ... ... : ... .. . ... ... ... : F-1 00 . PA2 : ... .. . ... : ... .. . ... ...
ROW 92 : ... .. . ... ... ... : ... .. . ... ... ... : --- .. . ... : ... .. . ... : ... .. . ... ...
ROW 93 : ... .. B ... ... ... : ... .. B ... ... ... : ... .. . ... : ... .. . ... : ... .. . ... ...
ROW 94 : ... .. 0 ... V00 ... : ... .. 0 ... V00 ... : G-2 00 . P80 : ... .. . ... : ... .. . ... ...
ROW 95 : G-3 00 F P80 V01 ... : B-3 00 F P80 V01 ... : ... .. . ... : ... .. . ... : ... .. . ... ...
ROW 96 : ... .. E ... ... ... : ... .. E ... ... ... : ... .. . ... : ... .. . ... : ... .. . ... ...
ROW 97 : ... .. . ... ... ... : ... .. . ... ... ... : ... .. . ... : ... .. . ... : ... .. . ... ...
ROW 98 : ... .. . ... ... ... : ... .. . ... ... ... : ... .. . ... : ... .. . ... : ... .. . ... ...
ROW 99 : ... .. D ... ... ... : ... .. D ... ... ... : ... .. . ... : ... .. . ... : ... .. . ... ...
ROW 9A : ... .. . ... ... ... : ... .. . ... ... ... : ... .. . ... : ... .. . ... : ... .. . ... ...
ROW 9B : ... .. . ... ... ... : ... .. . ... ... ... : ... .. . ... : ... .. . ... : ... .. . ... ...
ROW 9C : ... .. C ... ... ... : ... .. C ... ... ... : ... .. . ... : ... .. . ... : ... .. . ... ...
ROW 9D : ... .. . ... ... ... : ... .. . ... ... ... : ... .. . ... : ... .. . ... : ... .. . ... ...
ROW 9E : ... .. . ... ... ... : ... .. . ... ... ... : --- .. . ... : ... .. . ... : ... .. . ... ...
ROW 9F : ... .. B ... ... ... : ... .. B ... ... ... : ... .. . ... : ... .. . ... : ... .. . ... ...
ROW A0 : ... .. 0 ... V00 ... : ... .. 0 ... V00 ... : A#3 00 . P81 : ... .. . ... : ... .. . ... ...
ROW A1 : A-3 00 F P80 V01 ... : C-4 00 F P80 V01 ... : D#3 00 . P89 : ... .. . ... : ... .. . ... ...
ROW A2 : ... .. E ... ... ... : ... .. E ... ... ... : B-2 00 . P76 : ... .. . ... : ... .. . ... ...
ROW A3 : ... .. . ... ... ... : ... .. . ... ... ... : G-2 00 . P7C : ... .. . ... : ... .. . ... ...
ROW A4 : ... .. . ... ... ... : ... .. . ... ... ... : E-2 00 . P78 : ... .. . ... : ... .. . ... ...
ROW A5 : ... .. D ... ... ... : ... .. D ... ... ... : C#2 00 . P88 : ... .. . ... : ... .. . ... ...
ROW A6 : ... .. . ... ... ... : ... .. . ... ... ... : B-1 00 . P7B : ... .. . ... : ... .. . ... ...
ROW A7 : ... .. . ... ... ... : ... .. . ... ... ... : A-1 00 . P7A : ... .. . ... : ... .. . ... ...
ROW A8 : ... .. C ... ... ... : ... .. C ... ... ... : G-1 00 . P86 : ... .. . ... : ... .. . ... ...
ROW A9 : ... .. . ... ... ... : ... .. . ... ... ... : F-1 00 . PA2 : ... .. . ... : ... .. . ... ...
ROW AA : ... .. . ... ... ... : ... .. . ... ... ... : --- .. . ... : ... .. . ... : ... .. . ... ...
ROW AB : ... .. B ... ... ... : ... .. B ... ... ... : ... .. . ... : ... .. . ... : ... .. . ... ...
ROW AC : ... .. 0 ... V00 ... : ... .. 0 ... V00 ... : A-2 00 . P80 : ... .. . ... : ... .. . ... ...
ROW AD : E-3 00 F P80 V01 ... : A-3 00 F P80 V01 ... : ... .. . ... : ... .. . ... : ... .. . ... ...
ROW AE : ... .. E ... ... ... : ... .. E ... ... ... : ... .. . ... : ... .. . ... : ... .. . ... ...
ROW AF : ... .. . ... ... ... : ... .. . ... ... ... : ... .. . ... : ... .. . ... : ... .. . ... ...
ROW B0 : ... .. . ... ... ... : ... .. . ... ... ... : ... .. . ... : ... .. . ... : ... .. . ... ...
ROW B1 : ... .. D ... ... ... : ... .. D ... ... ... : ... .. . ... : ... .. . ... : ... .. . ... ...
ROW B2 : ... .. 0 ... V00 ... : ... .. 0 ... V00 ... : ... .. . ... : ... .. . ... : ... .. . ... ...
ROW B3 : E-3 00 F P80 V01 ... : A-3 00 F P80 V01 ... : ... .. . ... : ... .. . ... : ... .. . ... ...
ROW B4 : ... .. E ... ... ... : ... .. E ... ... ... : ... .. . ... : ... .. . ... : ... .. . ... ...
ROW B5 : ... .. . ... ... ... : ... .. . ... ... ... : ... .. . ... : ... .. . ... : ... .. . ... ...
ROW B6 : ... .. . ... ... ... : ... .. . ... ... ... : --- .. . ... : ... .. . ... : ... .. . ... ...
ROW B7 : ... .. D ... ... ... : ... .. D ... ... ... : ... .. . ... : ... .. . ... : ... .. . ... ...
ROW B8 : ... .. 0 ... V00 ... : ... .. 0 ... V00 ... : A#3 00 . P81 : ... .. . ... : ... .. . ... ...
ROW B9 : A-3 00 F P80 V01 ... : C-4 00 F P80 V01 ... : D#3 00 . P89 : ... .. . ... : ... .. . ... ...
ROW BA : ... .. E ... ... ... : ... .. E ... ... ... : B-2 00 . P76 : ... .. . ... : ... .. . ... ...
ROW BB : ... .. . ... ... ... : ... .. . ... ... ... : G-2 00 . P7C : ... .. . ... : ... .. . ... ...
ROW BC : ... .. . ... ... ... : ... .. . ... ... ... : E-2 00 . P78 : ... .. . ... : ... .. . ... ...
ROW BD : ... .. D ... ... ... : ... .. D ... ... ... : C#2 00 . P88 : ... .. . ... : ... .. . ... ...
ROW BE : ... .. . ... ... ... : ... .. . ... ... ... : B-1 00 . P7B : ... .. . ... : ... .. . ... ...
ROW BF : ... .. . ... ... ... : ... .. . ... ... ... : A-1 00 . P7A : ... .. . ... : ... .. . ... ...
ROW C0 : ... .. C ... ... ... : ... .. C ... ... ... : G-1 00 . P86 : ... .. . ... : ... .. . ... ...
ROW C1 : ... .. . ... ... ... : ... .. . ... ... ... : F-1 00 . PA2 : ... .. . ... : ... .. . ... ...
ROW C2 : ... .. . ... ... ... : ... .. . ... ... ... : --- .. . ... : ... .. . ... : ... .. . ... ...
ROW C3 : ... .. B ... ... ... : ... .. B ... ... ... : ... .. . ... : ... .. . ... : ... .. . ... ...
ROW C4 : ... .. 0 ... V00 ... : ... .. 0 ... V00 ... : A-2 00 . P80 : ... .. . ... : ... .. . ... ...
ROW C5 : G-3 00 F P80 V01 ... : B-3 00 F P80 V01 ... : ... .. . ... : ... .. . ... : ... .. . ... ...
ROW C6 : ... .. E ... ... ... : ... .. E ... ... ... : ... .. . ... : ... .. . ... : ... .. . ... ...
ROW C7 : ... .. . ... ... ... : ... .. . ... ... ... : ... .. . ... : ... .. . ... : ... .. . ... ...
ROW C8 : ... .. . ... ... ... : ... .. . ... ... ... : ... .. . ... : ... .. . ... : ... .. . ... ...
ROW C9 : ... .. D ... ... ... : ... .. D ... ... ... : ... .. . ... : ... .. . ... : ... .. . ... ...
ROW CA : ... .. . ... ... ... : ... .. . ... ... ... : ... .. . ... : ... .. . ... : ... .. . ... ...
ROW CB : ... .. . ... ... ... : ... .. . ... ... ... : ... .. . ... : ... .. . ... : ... .. . ... ...
ROW CC : ... .. C ... ... ... : ... .. C ... ... ... : ... .. . ... : ... .. . ... : ... .. . ... ...
ROW CD : ... .. . ... ... ... : ... .. . ... ... ... : ... .. . ... : ... .. . ... : ... .. . ... ...
ROW CE : ... .. . ... ... ... : ... .. . ... ... ... : --- .. . ... : ... .. . ... : ... .. . ... ...
ROW CF : ... .. B ... ... ... : ... .. B ... ... ... : ... .. . ... : ... .. . ... : ... .. . ... ...
ROW D0 : ... .. 0 ... V00 ... : ... .. 0 ... V00 ... : A#3 00 . P81 : ... .. . ... : ... .. . ... ...
ROW D1 : A-3 00 F P80 V01 ... : C-4 00 F P80 V01 ... : D#3 00 . P89 : ... .. . ... : ... .. . ... ...
ROW D2 : ... .. E ... ... ... : ... .. E ... ... ... : B-2 00 . P76 : ... .. . ... : ... .. . ... ...
ROW D3 : ... .. . ... ... ... : ... .. . ... ... ... : G-2 00 . P7C : ... .. . ... : ... .. . ... ...
ROW D4 : ... .. . ... ... ... : ... .. . ... ... ... : E-2 00 . P78 : ... .. . ... : ... .. . ... ...
ROW D5 : ... .. D ... ... ... : ... .. D ... ... ... : C#2 00 . P88 : ... .. . ... : ... .. . ... ...
ROW D6 : ... .. . ... ... ... : ... .. . ... ... ... : B-1 00 . P7B : ... .. . ... : ... .. . ... ...
ROW D7 : ... .. . ... ... ... : ... .. . ... ... ... : A-1 00 . P7A : ... .. . ... : ... .. . ... ...
ROW D8 : ... .. C ... ... ... : ... .. C ... ... ... : G-1 00 . P86 : ... .. . ... : ... .. . ... ...
ROW D9 : ... .. . ... ... ... : ... .. . ... ... ... : F-1 00 . PA2 : ... .. . ... : ... .. . ... ...
ROW DA : ... .. . ... ... ... : ... .. . ... ... ... : --- .. . ... : ... .. . ... : ... .. . ... ...
ROW DB : ... .. B ... ... ... : ... .. B ... ... ... : ... .. . ... : ... .. . ... : ... .. . ... ...
ROW DC : ... .. 0 ... V00 ... : ... .. 0 ... V00 ... : A-2 00 . P80 : ... .. . ... : ... .. . ... ...
ROW DD : E-3 00 F P80 V01 ... : A-3 00 F P80 V01 ... : ... .. . ... : ... .. . ... : ... .. . ... ...
ROW DE : ... .. E ... ... ... : ... .. E ... ... ... : ... .. . ... : ... .. . ... : ... .. . ... ...
ROW DF : ... .. . ... ... ... : ... .. . ... ... ... : ... .. . ... : ... .. . ... : ... .. . ... ...
ROW E0 : ... .. . ... ... ... : ... .. . ... ... ... : ... .. . ... : ... .. . ... : ... .. . ... ...
ROW E1 : ... .. D ... ... ... : ... .. D ... ... ... : ... .. . ... : ... .. . ... : ... .. . ... ...
ROW E2 : ... .. 0 ... V00 ... : ... .. 0 ... V00 ... : ... .. . ... : ... .. . ... : ... .. . ... ...
ROW E3 : E-3 00 F P80 V01 ... : A-3 00 F P80 V01 ... : ... .. . ... : ... .. . ... : ... .. . ... ...
ROW E4 : ... .. E ... ... ... : ... .. E ... ... ... : ... .. . ... : ... .. . ... : ... .. . ... ...
ROW E5 : ... .. . ... ... ... : ... .. . ... ... ... : ... .. . ... : ... .. . ... : ... .. . ... ...
ROW E6 : ... .. . ... ... ... : ... .. . ... ... ... : --- .. . ... : ... .. . ... : ... .. . ... ...
ROW E7 : ... .. D ... ... ... : ... .. D ... ... ... : ... .. . ... : ... .. . ... : ... .. . ... ...
ROW E8 : ... .. 0 ... V00 ... : ... .. 0 ... V00 ... : A#3 00 . P81 : 4-# 00 F V00 : ... .. . ... ...
ROW E9 : E-3 00 F P80 V01 ... : G-3 00 F P80 V01 ... : D#3 00 . P89 : ... .. . ... : ... .. . ... ...
ROW EA : ... .. E ... ... ... : ... .. E ... ... ... : B-2 00 . P76 : ... .. . ... : ... .. . ... ...
ROW EB : ... .. . ... ... ... : ... .. . ... ... ... : G-2 00 . P7C : ... .. C ... : ... .. . ... ...
ROW EC : ... .. . ... ... ... : ... .. . ... ... ... : E-2 00 . P78 : ... .. B ... : ... .. . ... ...
ROW ED : ... .. D ... ... ... : ... .. D ... ... ... : C#2 00 . P88 : ... .. 9 ... : ... .. . ... ...
ROW EE : ... .. . ... ... ... : ... .. . ... ... ... : B-1 00 . P7B : ... .. F ... : ... .. . ... ...
ROW EF : ... .. . ... ... ... : ... .. . ... ... ... : A-1 00 . P7A : ... .. . ... : ... .. . ... ...
ROW F0 : ... .. C ... ... ... : ... .. C ... ... ... : G-1 00 . P86 : ... .. . ... : ... .. . ... ...
ROW F1 : ... .. . ... ... ... : ... .. . ... ... ... : F-1 00 . PA2 : ... .. C ... : ... .. . ... ...
ROW F2 : ... .. . ... ... ... : ... .. . ... ... ... : --- .. . ... : ... .. B ... : ... .. . ... ...
ROW F3 : ... .. B ... ... ... : ... .. B ... ... ... : ... .. . ... : ... .. 9 ... : ... .. . ... ...
ROW F4 : ... .. 0 ... V00 ... : ... .. 0 ... V00 ... : A-2 00 . P80 : ... .. F ... : ... .. . ... ...
ROW F5 : E-3 00 F P80 V01 ... : G#3 00 F P80 V01 ... : ... .. . ... : ... .. . ... : ... .. . ... ...
ROW F6 : ... .. E ... ... ... : ... .. E ... ... ... : ... .. . ... : ... .. . ... : ... .. . ... ...
ROW F7 : ... .. . ... ... ... : ... .. . ... ... ... : ... .. . ... : ... .. C ... : ... .. . ... ...
ROW F8 : ... .. . ... ... ... : ... .. . ... ... ... : ... .. . ... : ... .. B ... : ... .. . ... ...
ROW F9 : ... .. D ... ... ... : ... .. D ... ... ... : ... .. . ... : ... .. 9 ... : ... .. . ... ...
ROW FA : ... .. . ... ... ... : ... .. . ... ... ... : ... .. . ... : ... .. F ... : ... .. . ... ...
ROW FB : ... .. . ... ... ... : ... .. . ... ... ... : ... .. . ... : ... .. . ... : ... .. . ... ...
ROW FC : ... .. C ... ... ... : ... .. C ... ... ... : ... .. . ... : ... .. . ... : ... .. . ... ...
ROW FD : ... .. . ... ... ... : ... .. . ... ... ... : ... .. . ... : ... .. C ... : ... .. . ... ...
ROW FE : ... .. . ... ... ... : ... .. . ... ... ... : --- .. . ... : ... .. B ... : ... .. . ... ...
ROW FF : ... .. B ... ... ... : ... .. B ... ... ... : ... .. . ... : ... .. 9 ... : ... .. . ... ...

PATTERN 12
ROW 00 : ... .. 0 ... V00 ... : ... .. 0 ... V00 ... : A#3 00 . P81 : ... .. 0 ... : ... .. . ... ...
ROW 01 : E-3 00 F P80 V01 ... : A-3 00 F P80 V01 ... : D#3 00 . P89 : 1-# 00 F V01 : ... .. . ... ...
ROW 02 : ... .. E ... ... ... : ... .. E ... ... ... : B-2 00 . P76 : ... .. E ... : ... .. . ... ...
ROW 03 : ... .. . ... ... ... : ... .. . ... ... ... : G-2 00 . P7C : ... .. . ... : ... .. . ... ...
ROW 04 : ... .. . ... ... ... : ... .. . ... ... ... : E-2 00 . P78 : ... .. . ... : ... .. . ... ...
ROW 05 : ... .. D ... ... ... : ... .. D ... ... ... : C#2 00 . P88 : ... .. D ... : ... .. . ... ...
ROW 06 : ... .. . ... ... ... : ... .. . ... ... ... : B-1 00 . P7B : ... .. . ... : ... .. . ... ...
ROW 07 : ... .. . ... ... ... : ... .. . ... ... ... : A-1 00 . P7A : ... .. . ... : ... .. . ... ...
ROW 08 : ... .. C ... ... ... : ... .. C ... ... ... : G-1 00 . P86 : ... .. C ... : ... .. . ... ...
ROW 09 : ... .. . ... ... ... : ... .. . ... ... ... : F-1 00 . PA2 : ... .. . ... : ... .. . ... ...
ROW 0A : ... .. . ... ... ... : ... .. . ... ... ... : --- .. . ... : ... .. . ... : ... .. . ... ...
ROW 0B : ... .. B ... ... ... : ... .. B ... ... ... : ... .. . ... : ... .. B ... : ... .. . ... ...
ROW 0C : ... .. . ... ... ... : ... .. . ... ... ... : A-2 00 . P80 : ... .. . ... : ... .. . ... ...
ROW 0D : ... .. . ... ... ... : ... .. . ... ... ... : ... .. . ... : ... .. . ... : ... .. . ... ...
ROW 0E : ... .. A ... ... ... : ... .. A ... ... ... : ... .. . ... : ... .. A ... : ... .. . ... ...
ROW 0F : ... .. . ... ... ... : ... .. . ... ... ... : ... .. . ... : ... .. . ... : ... .. . ... ...
ROW 10 : ... .. . ... ... ... : ... .. . ... ... ... : ... .. . ... : ... .. . ... : ... .. . ... ...
ROW 11 : ... .. 9 ... ... ... : ... .. 9 ... ... ... : ... .. . ... : ... .. 9 ... : ... .. . ... ...
ROW 12 : ... .. . ... ... ... : ... .. . ... ... ... : ... .. . ... : ... .. . ... : ... .. . ... ...
ROW 13 : ... .. . ... ... ... : ... .. . ... ... ... : ... .. . ... : ... .. . ... : ... .. . ... ...
ROW 14 : ... .. 8 ... ... ... : ... .. 8 ... ... ... : ... .. . ... : ... .. 8 ... : ... .. . ... ...
ROW 15 : ... .. . ... ... ... : ... .. . ... ... ... : ... .. . ... : ... .. . ... : ... .. . ... ...
ROW 16 : ... .. 7 ... ... ... : ... .. 7 ... ... ... : --- .. . ... : ... .. 7 ... : ... .. . ... ...
ROW 17 : ... .. . ... ... ... : ... .. . ... ... ... : ... .. . ... : ... .. . ... : ... .. . ... ...
ROW 18 : ... .. 0 ... V00 ... : ... .. 0 ... V00 ... : A#3 00 . P81 : ... .. 6 ... : ... .. . ... ...
ROW 19 : A-3 00 F P80 V01 ... : C-4 00 F P80 V01 ... : D#3 00 . P89 : ... .. . ... : ... .. . ... ...
ROW 1A : ... .. E ... ... ... : ... .. E ... ... ... : B-2 00 . P76 : ... .. . ... : ... .. . ... ...
ROW 1B : ... .. . ... ... ... : ... .. . ... ... ... : G-2 00 . P7C : ... .. 5 ... : ... .. . ... ...
ROW 1C : ... .. . ... ... ... : ... .. . ... ... ... : E-2 00 . P78 : ... .. . ... : ... .. . ... ...
ROW 1D : ... .. D ... ... ... : ... .. D ... ... ... : C#2 00 . P88 : ... .. 4 ... : ... .. . ... ...
ROW 1E : ... .. . ... ... ... : ... .. . ... ... ... : B-1 00 . P7B : ... .. . ... : ... .. . ... ...
ROW 1F : ... .. . ... ... ... : ... .. . ... ... ... : A-1 00 . P7A : ... .. 3 ... : ... .. . ... ...
ROW 20 : ... .. C ... ... ... : ... .. C ... ... ... : G-1 00 . P86 : ... .. . ... : ... .. . ... ...
ROW 21 : ... .. . ... ... ... : ... .. . ... ... ... : F-1 00 . PA2 : ... .. 2 ... : ... .. . ... ...
ROW 22 : ... .. . ... ... ... : ... .. . ... ... ... : --- .. . ... : ... .. 1 ... : ... .. . ... ...
ROW 23 : ... .. B ... ... ... : ... .. B ... ... ... : ... .. . ... : ... .. . ... : ... .. . ... ...
ROW 24 : ... .. 0 ... V00 ... : ... .. 0 ... V00 ... : A-2 00 . P80 : ... .. . ... : ... .. . ... ...
ROW 25 : C-4 00 F P80 V01 ... : E-4 00 F P80 V01 ... : ... .. . ... : ... .. . ... : ... .. . ... ...
ROW 26 : ... .. E ... ... ... : ... .. E ... ... ... : ... .. . ... : ... .. . ... : ... .. . ... ...
ROW 27 : ... .. . ... ... ... : ... .. . ... ... ... : ... .. . ... : ... .. . ... : ... .. . ... ...
ROW 28 : ... .. . ... ... ... : ... .. . ... ... ... : ... .. . ... : ... .. . ... : ... .. . ... ...
ROW 29 : ... .. D ... ... ... : ... .. D ... ... ... : ... .. . ... : ... .. . ... : ... .. . ... ...
ROW 2A : ... .. . ... ... ... : ... .. . ... ... ... : ... .. . ... : ... .. . ... : ... .. . ... ...
ROW 2B : ... .. . ... ... ... : ... .. . ... ... ... : ... .. . ... : ... .. . ... : ... .. . ... ...
ROW 2C : ... .. C ... ... ... : ... .. C ... ... ... : ... .. . ... : ... .. . ... : ... .. . ... ...
ROW 2D : ... .. . ... ... ... : ... .. . ... ... ... : ... .. . ... : ... .. . ... : ... .. . ... ...
ROW 2E : ... .. . ... ... ... : ... .. . ... ... ... : --- .. . ... : ... .. . ... : ... .. . ... ...
ROW 2F : ... .. B ... ... ... : ... .. B ... ... ... : ... .. . ... : ... .. . ... : ... .. . ... ...
ROW 30 : ... .. 0 ... V00 ... : ... .. 0 ... V00 ... : A#3 00 . P81 : ... .. . ... : ... .. . ... ...
ROW 31 : C-4 00 F P80 V01 ... : F-4 00 F P80 V01 ... : D#3 00 . P89 : ... .. . ... : ... .. . ... ...
ROW 32 : ... .. E ... ... ... : ... .. E ... ... ... : B-2 00 . P76 : ... .. . ... : ... .. . ... ...
ROW 33 : ... .. . ... ... ... : ... .. . ... ... ... : G-2 00 . P7C : ... .. . ... : ... .. . ... ...
ROW 34 : ... .. . ... ... ... : ... .. . ... ... ... : E-2 00 . P78 : ... .. . ... : ... .. . ... ...
ROW 35 : ... .. D ... ... ... : ... .. D ... ... ... : C#2 00 . P88 : ... .. . ... : ... .. . ... ...
ROW 36 : ... .. . ... ... ... : ... .. . ... ... ... : B-1 00 . P7B : ... .. . ... : ... .. . ... ...
ROW 37 : ... .. . ... ... ... : ... .. . ... ... ... : A-1 00 . P7A : ... .. . ... : ... .. . ... ...
ROW 38 : ... .. C ... ... ... : ... .. C ... ... ... : G-1 00 . P86 : ... .. . ... : ... .. . ... ...
ROW 39 : ... .. . ... ... ... : ... .. . ... ... ... : F-1 00 . PA2 : ... .. . ... : ... .. . ... ...
ROW 3A : ... .. . ... ... ... : ... .. . ... ... ... : --- .. . ... : ... .. . ... : ... .. . ... ...
ROW 3B : ... .. B ... ... ... : ... .. B ... ... ... : ... .. . ... : ... .. . ... : ... .. . ... ...
ROW 3C : ... .. 0 ... V00 ... : ... .. 0 ... V00 ... : A-2 00 . P80 : ... .. . ... : ... .. . ... ...
ROW 3D : E-3 00 F P80 V01 ... : A-3 00 F P80 V01 ... : ... .. . ... : ... .. . ... : ... .. . ... ...
ROW 3E : ... .. E ... ... ... : ... .. E ... ... ... : ... .. . ... : ... .. . ... : ... .. . ... ...
ROW 3F : ... .. . ... ... ... : ... .. . ... ... ... : ... .. . ... : ... .. . ... : ... .. . ... ...
ROW 40 : ... .. . ... ... ... : ... .. . ... ... ... : ... .. . ... : ... .. . ... : ... .. . ... ...
ROW 41 : ... .. D ... ... ... : ... .. D ... ... ... : ... .. . ... : ... .. . ... : ... .. . ... ...
ROW 42 : ... .. 0 ... V00 ... : ... .. 0 ... V00 ... : ... .. . ... : ... .. . ... : ... .. . ... ...
ROW 43 : E-3 00 F P80 V01 ... : A-3 00 F P80 V01 ... : ... .. . ... : ... .. . ... : ... .. . ... ...
ROW 44 : ... .. E ... ... ... : ... .. E ... ... ... : ... .. . ... : ... .. . ... : ... .. . ... ...
ROW 45 : ... .. . ... ... ... : ... .. . ... ... ... : ... .. . ... : ... .. . ... : ... .. . ... ...
ROW 46 : ... .. . ... ... ... : ... .. . ... ... ... : --- .. . ... : ... .. . ... : ... .. . ... ...
ROW 47 : ... .. D ... ... ... : ... .. D ... ... ... : ... .. . ... : ... .. . ... : ... .. . ... ...
ROW 48 : ... .. 0 ... V00 ... : ... .. 0 ... V00 ... : A#3 00 . P81 : ... .. . ... : ... .. . ... ...
ROW 49 : C-4 00 F P80 V01 ... : E-4 00 F P80 V01 ... : D#3 00 . P89 : ... .. . ... : ... .. . ... ...
ROW 4A : ... .. E ... ... ... : ... .. E ... ... ... : B-2 00 . P76 : ... .. . ... : ... .. . ... ...
ROW 4B : ... .. . ... ... ... : ... .. . ... ... ... : G-2 00 . P7C : ... .. . ... : ... .. . ... ...
ROW 4C : ... .. . ... ... ... : ... .. . ... ... ... : E-2 00 . P78 : ... .. . ... : ... .. . ... ...
ROW 4D : ... .. D ... ... ... : ... .. D ... ... ... : C#2 00 . P88 : ... .. . ... : ... .. . ... ...
ROW 4E : ... .. . ... ... ... : ... .. . ... ... ... : B-1 00 . P7B : ... .. . ... : ... .. . ... ...
ROW 4F : ... .. . ... ... ... : ... .. . ... ... ... : A-1 00 . P7A : ... .. . ... : ... .. . ... ...
ROW 50 : ... .. C ... ... ... : ... .. C ... ... ... : G-1 00 . P86 : ... .. . ... : ... .. . ... ...
ROW 51 : ... .. . ... ... ... : ... .. . ... ... ... : F-1 00 . PA2 : ... .. . ... : ... .. . ... ...
ROW 52 : ... .. . ... ... ... : ... .. . ... ... ... : --- .. . ... : ... .. . ... : ... .. . ... ...
ROW 53 : ... .. B ... ... ... : ... .. B ... ... ... : ... .. . ... : ... .. . ... : ... .. . ... ...
ROW 54 : ... .. 0 ... V00 ... : ... .. 0 ... V00 ... : A-2 00 . P80 : ... .. . ... : ... .. . ... ...
ROW 55 : A-3 00 F P80 V01 ... : D-4 00 F P80 V01 ... : ... .. . ... : ... .. . ... : ... .. . ... ...
ROW 56 : ... .. E ... ... ... : ... .. E ... ... ... : ... .. . ... : ... .. . ... : ... .. . ... ...
ROW 57 : ... .. . ... ... ... : ... .. . ... ... ... : ... .. . ... : ... .. . ... : ... .. . ... ...
ROW 58 : ... .. . ... ... ... : ... .. . ... ... ... : ... .. . ... : ... .. . ... : ... .. . ... ...
ROW 59 : ... .. D ... ... ... : ... .. D ... ... ... : ... .. . ... : ... .. . ... : ... .. . ... ...
ROW 5A : ... .. . ... ... ... : ... .. . ... ... ... : ... .. . ... : ... .. . ... : ... .. . ... ...
ROW 5B : ... .. . ... ... ... : ... .. . ... ... ... : ... .. . ... : ... .. . ... : ... .. . ... ...
ROW 5C : ... .. C ... ... ... : ... .. C ... ... ... : ... .. . ... : ... .. . ... : ... .. . ... ...
ROW 5D : ... .. . ... ... ... : ... .. . ... ... ... : ... .. . ... : ... .. . ... : ... .. . ... ...
ROW 5E : ... .. . ... ... ... : ... .. . ... ... ... : --- .. . ... : ... .. . ... : ... .. . ... ...
ROW 5F : ... .. B ... ... ... : ... .. B ... ... ... : ... .. . ... : ... .. . ... : ... .. . ... ...
ROW 60 : ... .. 0 ... V00 ... : ... .. 0 ... V00 ... : A#3 00 . P81 : ... .. . ... : ... .. . ... ...
ROW 61 : A-3 00 F P80 V01 ... : C-4 00 F P80 V01 ... : D#3 00 . P89 : ... .. . ... : ... .. . ... ...
ROW 62 : ... .. E ... ... ... : ... .. E ... ... ... : B-2 00 . P76 : ... .. . ... : ... .. . ... ...
ROW 63 : ... .. . ... ... ... : ... .. . ... ... ... : G-2 00 . P7C : ... .. . ... : ... .. . ... ...
ROW 64 : ... .. . ... ... ... : ... .. . ... ... ... : E-2 00 . P78 : ... .. . ... : ... .. . ... ...
ROW 65 : ... .. D ... ... ... : ... .. D ... ... ... : C#2 00 . P88 : ... .. . ... : ... .. . ... ...
ROW 66 : ... .. . ... ... ... : ... .. . ... ... ... : B-1 00 . P7B : ... .. . ... : ... .. . ... ...
ROW 67 : ... .. . ... ... ... : ... .. . ... ... ... : A-1 00 . P7A : ... .. . ... : ... .. . ... ...
ROW 68 : ... .. C ... ... ... : ... .. C ... ... ... : G-1 00 . P86 : ... .. . ... : ... .. . ... ...
ROW 69 : ... .. . ... ... ... : ... .. . ... ... ... : F-1 00 . PA2 : ... .. . ... : ... .. . ... ...
ROW 6A : ... .. . ... ... ... : ... .. . ... ... ... : --- .. . ... : ... .. . ... : ... .. . ... ...
ROW 6B : ... .. B ... ... ... : ... .. B ... ... ... : ... .. . ... : ... .. . ... : ... .. . ... ...
ROW 6C : ... .. 0 ... V00 ... : ... .. 0 ... V00 ... : F-2 00 . P80 : ... .. . ... : ... .. . ... ...
ROW 6D : A-2 00 F P80 V01 ... : C-3 00 F P80 V01 ... : ... .. . ... : ... .. . ... : ... .. . ... ...
ROW 6E : ... .. E ... ... ... : ... .. E ... ... ... : ... .. . ... : ... .. . ... : ... .. . ... ...
ROW 6F : ... .. . ... ... ... : ... .. . ... ... ... : ... .. . ... : ... .. . ... : ... .. . ... ...
ROW 70 : ... .. . ... ... ... : ... .. . ... ... ... : ... .. . ... : ... .. . ... : ... .. . ... ...
ROW 71 : ... .. D ... ... ... : ... .. D ... ... ... : ... .. . ... : ... .. . ... : ... .. . ... ...
ROW 72 : ... .. 0 ... V00 ... : ... .. 0 ... V00 ... : ... .. . ... : ... .. . ... : ... .. . ... ...
ROW 73 : A-2 00 F P80 V01 ... : C-3 00 F P80 V01 ... : ... .. . ... : ... .. . ... : ... .. . ... ...
ROW 74 : ... .. E ... ... ... : ... .. E ... ... ... : ... .. . ... : ... .. . ... : ... .. . ... ...
ROW 75 : ... .. . ... ... ... : ... .. . ... ... ... : ... .. . ... : ... .. . ... : ... .. . ... ...
ROW 76 : ... .. . ... ... ... : ... .. . ... ... ... : --- .. . ... : ... .. . ... : ... .. . ... ...
ROW 77 : ... .. D ... ... ... : ... .. D ... ... ... : ... .. . ... : ... .. . ... : ... .. . ... ...
ROW 78 : ... .. 0 ... V00 ... : ... .. 0 ... V00 ... : A#3 00 . P81 : ... .. . ... : ... .. . ... ...
ROW 79 : F-3 00 F P80 V01 ... : A-3 00 F P80 V01 ... : D#3 00 . P89 : ... .. . ... : ... .. . ... ...
ROW 7A : ... .. E ... ... ... : ... .. E ... ... ... : B-2 00 . P76 : ... .. . ... : ... .. . ... ...
ROW 7B : ... .. . ... ... ... : ... .. . ... ... ... : G-2 00 . P7C : ... .. . ... : ... .. . ... ...
ROW 7C : ... .. . ... ... ... : ... .. . ... ... ... : E-2 00 . P78 : ... .. . ... : ... .. . ... ...
ROW 7D : ... .. D ... ... ... : ... .. D ... ... ... : C#2 00 . P88 : ... .. . ... : ... .. . ... ...
ROW 7E : ... .. . ... ... ... : ... .. . ... ... ... : B-1 00 . P7B : ... .. . ... : ... .. . ... ...
ROW 7F : ... .. . ... ... ... : ... .. . ... ... ... : A-1 00 . P7A : ... .. . ... : ... .. . ... ...
ROW 80 : ... .. C ... ... ... : ... .. C ... ... ... : G-1 00 . P86 : ... .. . ... : ... .. . ... ...
ROW 81 : ... .. . ... ... ... : ... .. . ... ... ... : F-1 00 . PA2 : ... .. . ... : ... .. . ... ...
ROW 82 : ... .. . ... ... ... : ... .. . ... ... ... : --- .. . ... : ... .. . ... : ... .. . ... ...
ROW 83 : ... .. B ... ... ... : ... .. B ... ... ... : ... .. . ... : ... .. . ... : ... .. . ... ...
ROW 84 : ... .. 0 ... V00 ... : ... .. 0 ... V00 ... : F-2 00 . P80 : ... .. . ... : ... .. . ... ...
ROW 85 : A-3 00 F P80 V01 ... : C-4 00 F P80 V01 ... : ... .. . ... : ... .. . ... : ... .. . ... ...
ROW 86 : ... .. E ... ... ... : ... .. E ... ... ... : ... .. . ... : ... .. . ... : ... .. . ... ...
ROW 87 : ... .. . ... ... ... : ... .. . ... ... ... : ... .. . ... : ... .. . ... : ... .. . ... ...
ROW 88 : ... .. . ... ... ... : ... .. . ... ... ... : ... .. . ... : ... .. . ... : ... .. . ... ...
ROW 89 : ... .. D ... ... ... : ... .. D ... ... ... : ... .. . ... : ... .. . ... : ... .. . ... ...
ROW 8A : ... .. . ... ... ... : ... .. . ... ... ... : ... .. . ... : ... .. . ... : ... .. . ... ...
ROW 8B : ... .. . ... ... ... : ... .. . ... ... ... : ... .. . ... : ... .. . ... : ... .. . ... ...
ROW 8C : ... .. C ... ... ... : ... .. C ... ... ... : ... .. . ... : ... .. . ... : ... .. . ... ...
ROW 8D : ... .. . ... ... ... : ... .. . ... ... ... : ... .. . ... : ... .. . ... : ... .. . ... ...
ROW 8E : ... .. . ... ... ... : ... .. . ... ... ... : --- .. . ... : ... .. . ... : ... .. . ... ...
ROW 8F : ... .. B ... ... ... : ... .. B ... ... ... : ... .. . ... : ... .. . ... : ... .. . ... ...
ROW 90 : ... .. 0 ... V00 ... : ... .. 0 ... V00 ... : A#3 00 . P81 : ... .. . ... : ... .. . ... ...
ROW 91 : A-3 00 F P80 V01 ... : D-4 00 F P80 V01 ... : D#3 00 . P89 : ... .. . ... : ... .. . ... ...
ROW 92 : ... .. E ... ... ... : ... .. E ... ... ... : B-2 00 . P76 : ... .. . ... : ... .. . ... ...
ROW 93 : ... .. . ... ... ... : ... .. . ... ... ... : G-2 00 . P7C : ... .. . ... : ... .. . ... ...
ROW 94 : ... .. . ... ... ... : ... .. . ... ... ... : E-2 00 . P78 : ... .. . ... : ... .. . ... ...
ROW 95 : ... .. D ... ... ... : ... .. D ... ... ... : C#2 00 . P88 : ... .. . ... : ... .. . ... ...
ROW 96 : ... .. . ... ... ... : ... .. . ... ... ... : B-1 00 . P7B : ... .. . ... : ... .. . ... ...
ROW 97 : ... .. . ... ... ... : ... .. . ... ... ... : A-1 00 . P7A : ... .. . ... : ... .. . ... ...
ROW 98 : ... .. C ... ... ... : ... .. C ... ... ... : G-1 00 . P86 : ... .. . ... : ... .. . ... ...
ROW 99 : ... .. . ... ... ... : ... .. . ... ... ... : F-1 00 . PA2 : ... .. . ... : ... .. . ... ...
ROW 9A : ... .. . ... ... ... : ... .. . ... ... ... : --- .. . ... : ... .. . ... : ... .. . ... ...
ROW 9B : ... .. B ... ... ... : ... .. B ... ... ... : ... .. . ... : ... .. . ... : ... .. . ... ...
ROW 9C : ... .. 0 ... V00 ... : ... .. 0 ... V00 ... : F-2 00 . P80 : ... .. . ... : ... .. . ... ...
ROW 9D : A-3 00 F P80 V01 ... : C-4 00 F P80 V01 ... : ... .. . ... : ... .. . ... : ... .. . ... ...
ROW 9E : ... .. E ... ... ... : ... .. E ... ... ... : ... .. . ... : ... .. . ... : ... .. . ... ...
ROW 9F : ... .. . ... ... ... : ... .. . ... ... ... : ... .. . ... : ... .. . ... : ... .. . ... ...
ROW A0 : ... .. . ... ... ... : ... .. . ... ... ... : ... .. . ... : ... .. . ... : ... .. . ... ...
ROW A1 : ... .. D ... ... ... : ... .. D ... ... ... : ... .. . ... : ... .. . ... : ... .. . ... ...
ROW A2 : ... .. . ... ... ... : ... .. . ... ... ... : ... .. . ... : ... .. . ... : ... .. . ... ...
ROW A3 : ... .. . ... ... ... : ... .. . ... ... ... : ... .. . ... : ... .. . ... : ... .. . ... ...
ROW A4 : ... .. C ... ... ... : ... .. C ... ... ... : ... .. . ... : ... .. . ... : ... .. . ... ...
ROW A5 : ... .. . ... ... ... : ... .. . ... ... ... : ... .. . ... : ... .. . ... : ... .. . ... ...
ROW A6 : ... .. . ... ... ... : ... .. . ... ... ... : --- .. . ... : ... .. . ... : ... .. . ... ...
ROW A7 : ... .. B ... ... ... : ... .. B ... ... ... : ... .. . ... : ... .. . ... : ... .. . ... ...
ROW A8 : ... .. 0 ... V00 ... : ... .. 0 ... V00 ... : A#3 00 . P81 : ... .. . ... : ... .. . ... ...
ROW A9 : A-3 00 F P80 V01 ... : B-3 00 F P80 V01 ... : D#3 00 . P89 : ... .. . ... : ... .. . ... ...
ROW AA : ... .. E ... ... ... : ... .. E ... ... ... : B-2 00 . P76 : ... .. . ... : ... .. . ... ...
ROW AB : ... .. . ... ... ... : ... .. . ... ... ... : G-2 00 . P7C : ... .. . ... : ... .. . ... ...
ROW AC : ... .. . ... ... ... : ... .. . ... ... ... : E-2 00 . P78 : ... .. . ... : ... .. . ... ...
ROW AD : ... .. D ... ... ... : ... .. D ... ... ... : C#2 00 . P88 : ... .. . ... : ... .. . ... ...
ROW AE : ... .. . ... ... ... : ... .. . ... ... ... : B-1 00 . P7B : ... .. . ... : ... .. . ... ...
ROW AF : ... .. . ... ... ... : ... .. . ... ... ... : A-1 00 . P7A : ... .. . ... : ... .. . ... ...
ROW B0 : ... .. C ... ... ... : ... .. C ... ... ... : G-1 00 . P86 : ... .. . ... : ... .. . ... ...
ROW B1 : ... .. . ... ... ... : ... .. . ... ... ... : F-1 00 . PA2 : ... .. . ... : ... .. . ... ...
ROW B2 : ... .. . ... ... ... : ... .. . ... ... ... : --- .. . ... : ... .. . ... : ... .. . ... ...
ROW B3 : ... .. B ... ... ... : ... .. B ... ... ... : ... .. . ... : ... .. . ... : ... .. . ... ...
ROW B4 : ... .. 0 ... V00 ... : ... .. 0 ... V00 ... : F-2 00 . P80 : ... .. . ... : ... .. . ... ...
ROW B5 : A-3 00 F P80 V01 ... : C-4 00 F P80 V01 ... : ... .. . ... : ... .. . ... : ... .. . ... ...
ROW B6 : ... .. E ... ... ... : ... .. E ... ... ... : ... .. . ... : ... .. . ... : ... .. . ... ...
ROW B7 : ... .. . ... ... ... : ... .. . ... ... ... : ... .. . ... : ... .. . ... : ... .. . ... ...
ROW B8 : ... .. . ... ... ... : ... .. . ... ... ... : ... .. . ... : ... .. . ... : ... .. . ... ...
ROW B9 : ... .. D ... ... ... : ... .. D ... ... ... : ... .. . ... : ... .. . ... : ... .. . ... ...
ROW BA : ... .. . ... ... ... : ... .. . ... ... ... : ... .. . ... : ... .. . ... : ... .. . ... ...
ROW BB : ... .. . ... ... ... : ... .. . ... ... ... : ... .. . ... : ... .. . ... : ... .. . ... ...
ROW BC : ... .. C ... ... ... : ... .. C ... ... ... : ... .. . ... : ... .. . ... : ... .. . ... ...
ROW BD : ... .. . ... ... ... : ... .. . ... ... ... : ... .. . ... : ... .. . ... : ... .. . ... ...
ROW BE : ... .. . ... ... ... : ... .. . ... ... ... : --- .. . ... : ... .. . ... : ... .. . ... ...
ROW BF : ... .. B ... ... ... : ... .. B ... ... ... : ... .. . ... : ... .. . ... : ... .. . ... ...
ROW C0 : ... .. 0 ... V00 ... : ... .. 0 ... V00 ... : A#3 00 . P81 : ... .. . ... : ... .. . ... ...
ROW C1 : G-3 00 F P80 V01 ... : B-3 00 F P80 V01 ... : D#3 00 . P89 : ... .. . ... : ... .. . ... ...
ROW C2 : ... .. E ... ... ... : ... .. E ... ... ... : B-2 00 . P76 : ... .. . ... : ... .. . ... ...
ROW C3 : ... .. . ... ... ... : ... .. . ... ... ... : G-2 00 . P7C : ... .. . ... : ... .. . ... ...
ROW C4 : ... .. . ... ... ... : ... .. . ... ... ... : E-2 00 . P78 : ... .. . ... : ... .. . ... ...
ROW C5 : ... .. D ... ... ... : ... .. D ... ... ... : C#2 00 . P88 : ... .. . ... : ... .. . ... ...
ROW C6 : ... .. . ... ... ... : ... .. . ... ... ... : B-1 00 . P7B : ... .. . ... : ... .. . ... ...
ROW C7 : ... .. . ... ... ... : ... .. . ... ... ... : A-1 00 . P7A : ... .. . ... : ... .. . ... ...
ROW C8 : ... .. C ... ... ... : ... .. C ... ... ... : G-1 00 . P86 : ... .. . ... : ... .. . ... ...
ROW C9 : ... .. . ... ... ... : ... .. . ... ... ... : F-1 00 . PA2 : ... .. . ... : ... .. . ... ...
ROW CA : ... .. . ... ... ... : ... .. . ... ... ... : --- .. . ... : ... .. . ... : ... .. . ... ...
ROW CB : ... .. B ... ... ... : ... .. B ... ... ... : ... .. . ... : ... .. . ... : ... .. . ... ...
ROW CC : ... .. 0 ... V00 ... : ... .. 0 ... V00 ... : G-2 00 . P80 : ... .. . ... : ... .. . ... ...
ROW CD : D-3 00 F P80 V01 ... : G-3 00 F P80 V01 ... : ... .. . ... : ... .. . ... : ... .. . ... ...
ROW CE : ... .. E ... ... ... : ... .. E ... ... ... : ... .. . ... : ... .. . ... : ... .. . ... ...
ROW CF : ... .. . ... ... ... : ... .. . ... ... ... : ... .. . ... : ... .. . ... : ... .. . ... ...
ROW D0 : ... .. . ... ... ... : ... .. . ... ... ... : ... .. . ... : ... .. . ... : ... .. . ... ...
ROW D1 : ... .. D ... ... ... : ... .. D ... ... ... : ... .. . ... : ... .. . ... : ... .. . ... ...
ROW D2 : ... .. 0 ... V00 ... : ... .. 0 ... V00 ... : ... .. . ... : ... .. . ... : ... .. . ... ...
ROW D3 : D-3 00 F P80 V01 ... : G-3 00 F P80 V01 ... : ... .. . ... : ... .. . ... : ... .. . ... ...
ROW D4 : ... .. E ... ... ... : ... .. E ... ... ... : ... .. . ... : ... .. . ... : ... .. . ... ...
ROW D5 : ... .. . ... ... ... : ... .. . ... ... ... : ... .. . ... : ... .. . ... : ... .. . ... ...
ROW D6 : ... .. . ... ... ... : ... .. . ... ... ... : --- .. . ... : ... .. . ... : ... .. . ... ...
ROW D7 : ... .. D ... ... ... : ... .. D ... ... ... : ... .. . ... : ... .. . ... : ... .. . ... ...
ROW D8 : ... .. 0 ... V00 ... : ... .. 0 ... V00 ... : A#3 00 . P81 : ... .. . ... : ... .. . ... ...
ROW D9 : G-3 00 F P80 V01 ... : B-3 00 F P80 V01 ... : D#3 00 . P89 : ... .. . ... : ... .. . ... ...
ROW DA : ... .. E ... ... ... : ... .. E ... ... ... : B-2 00 . P76 : ... .. . ... : ... .. . ... ...
ROW DB : ... .. . ... ... ... : ... .. . ... ... ... : G-2 00 . P7C : ... .. . ... : ... .. . ... ...
ROW DC : ... .. . ... ... ... : ... .. . ... ... ... : E-2 00 . P78 : ... .. . ... : ... .. . ... ...
ROW DD : ... .. D ... ... ... : ... .. D ... ... ... : C#2 00 . P88 : ... .. . ... : ... .. . ... ...
ROW DE : ... .. . ... ... ... : ... .. . ... ... ... : B-1 00 . P7B : ... .. . ... : ... .. . ... ...
ROW DF : ... .. . ... ... ... : ... .. . ... ... ... : A-1 00 . P7A : ... .. . ... : ... .. . ... ...
ROW E0 : ... .. C ... ... ... : ... .. C ... ... ... : G-1 00 . P86 : ... .. . ... : ... .. . ... ...
ROW E1 : ... .. . ... ... ... : ... .. . ... ... ... : F-1 00 . PA2 : ... .. . ... : ... .. . ... ...
ROW E2 : ... .. . ... ... ... : ... .. . ... ... ... : --- .. . ... : ... .. . ... : ... .. . ... ...
ROW E3 : ... .. B ... ... ... : ... .. B ... ... ... : ... .. . ... : ... .. . ... : ... .. . ... ...
ROW E4 : ... .. 0 ... V00 ... : ... .. 0 ... V00 ... : G-2 00 . P80 : ... .. . ... : ... .. . ... ...
ROW E5 : G-3 00 F P80 V01 ... : D-4 00 F P80 V01 ... : ... .. . ... : ... .. . ... : ... .. . ... ...
ROW E6 : ... .. E ... ... ... : ... .. E ... ... ... : ... .. . ... : ... .. . ... : ... .. . ... ...
ROW E7 : ... .. . ... ... ... : ... .. . ... ... ... : ... .. . ... : ... .. . ... : ... .. . ... ...
ROW E8 : ... .. . ... ... ... : ... .. . ... ... ... : ... .. . ... : ... .. . ... : ... .. . ... ...
ROW E9 : ... .. D ... ... ... : ... .. D ... ... ... : ... .. . ... : ... .. . ... : ... .. . ... ...
ROW EA : ... .. . ... ... ... : ... .. . ... ... ... : ... .. . ... : ... .. . ... : ... .. . ... ...
ROW EB : ... .. . ... ... ... : ... .. . ... ... ... : ... .. . ... : ... .. . ... : ... .. . ... ...
ROW EC : ... .. C ... ... ... : ... .. C ... ... ... : ... .. . ... : ... .. . ... : ... .. . ... ...
ROW ED : ... .. . ... ... ... : ... .. . ... ... ... : ... .. . ... : ... .. . ... : ... .. . ... ...
ROW EE : ... .. . ... ... ... : ... .. . ... ... ... : --- .. . ... : ... .. . ... : ... .. . ... ...
ROW EF : ... .. B ... ... ... : ... .. B ... ... ... : ... .. . ... : ... .. . ... : ... .. . ... ...
ROW F0 : ... .. 0 ... V00 ... : ... .. 0 ... V00 ... : A#3 00 . P81 : ... .. . ... : ... .. . ... ...
ROW F1 : G-3 00 F P80 V01 ... : E-4 00 F P80 V01 ... : D#3 00 . P89 : ... .. . ... : ... .. . ... ...
ROW F2 : ... .. E ... ... ... : ... .. E ... ... ... : B-2 00 . P76 : ... .. . ... : ... .. . ... ...
ROW F3 : ... .. . ... ... ... : ... .. . ... ... ... : G-2 00 . P7C : ... .. . ... : ... .. . ... ...
ROW F4 : ... .. . ... ... ... : ... .. . ... ... ... : E-2 00 . P78 : ... .. . ... : ... .. . ... ...
ROW F5 : ... .. D ... ... ... : ... .. D ... ... ... : C#2 00 . P88 : ... .. . ... : ... .. . ... ...
ROW F6 : ... .. . ... ... ... : ... .. . ... ... ... : B-1 00 . P7B : ... .. . ... : ... .. . ... ...
ROW F7 : ... .. . ... ... ... : ... .. . ... ... ... : A-1 00 . P7A : ... .. . ... : ... .. . ... ...
ROW F8 : ... .. C ... ... ... : ... .. C ... ... ... : G-1 00 . P86 : ... .. . ... : ... .. . ... ...
ROW F9 : ... .. . ... ... ... : ... .. . ... ... ... : F-1 00 . PA2 : ... .. . ... : ... .. . ... ...
ROW FA : ... .. . ... ... ... : ... .. . ... ... ... : --- .. . ... : ... .. . ... : ... .. . ... ...
ROW FB : ... .. B ... ... ... : ... .. B ... ... ... : ... .. . ... : ... .. . ... : ... .. . ... ...
ROW FC : ... .. 0 ... V00 ... : ... .. 0 ... V00 ... : G-2 00 . P80 : ... .. . ... : ... .. . ... ...
ROW FD : G-3 00 F P80 V01 ... : D-4 00 F P80 V01 ... : ... .. . ... : ... .. . ... : ... .. . ... ...
ROW FE : ... .. E ... ... ... : ... .. E ... ... ... : ... .. . ... : ... .. . ... : ... .. . ... ...
ROW FF : ... .. . ... ... ... : ... .. . ... ... ... : ... .. . ... : ... .. . ... : ... .. . ... ...

PATTERN 13
ROW 00 : ... .. . ... ... ... : ... .. . ... ... ... : ... .. . ... : ... .. . ... : ... .. . ... ...
ROW 01 : ... .. D ... ... ... : ... .. D ... ... ... : ... .. . ... : ... .. . ... : ... .. . ... ...
ROW 02 : ... .. . ... ... ... : ... .. . ... ... ... : ... .. . ... : ... .. . ... : ... .. . ... ...
ROW 03 : ... .. . ... ... ... : ... .. . ... ... ... : ... .. . ... : ... .. . ... : ... .. . ... ...
ROW 04 : ... .. C ... ... ... : ... .. C ... ... ... : ... .. . ... : ... .. . ... : ... .. . ... ...
ROW 05 : ... .. . ... ... ... : ... .. . ... ... ... : ... .. . ... : ... .. . ... : ... .. . ... ...
ROW 06 : ... .. . ... ... ... : ... .. . ... ... ... : --- .. . ... : ... .. . ... : ... .. . ... ...
ROW 07 : ... .. B ... ... ... : ... .. B ... ... ... : ... .. . ... : ... .. . ... : ... .. . ... ...
ROW 08 : ... .. 0 ... V00 ... : ... .. 0 ... V00 ... : A#3 00 . P81 : ... .. . ... : ... .. . ... ...
ROW 09 : G-3 00 F P80 V01 ... : C-4 00 F P80 V01 ... : D#3 00 . P89 : ... .. . ... : ... .. . ... ...
ROW 0A : ... .. E ... ... ... : ... .. E ... ... ... : B-2 00 . P76 : ... .. . ... : ... .. . ... ...
ROW 0B : ... .. . ... ... ... : ... .. . ... ... ... : G-2 00 . P7C : ... .. . ... : ... .. . ... ...
ROW 0C : ... .. . ... ... ... : ... .. . ... ... ... : E-2 00 . P78 : ... .. . ... : ... .. . ... ...
ROW 0D : ... .. D ... ... ... : ... .. D ... ... ... : C#2 00 . P88 : ... .. . ... : ... .. . ... ...
ROW 0E : ... .. . ... ... ... : ... .. . ... ... ... : B-1 00 . P7B : ... .. . ... : ... .. . ... ...
ROW 0F : ... .. . ... ... ... : ... .. . ... ... ... : A-1 00 . P7A : ... .. . ... : ... .. . ... ...
ROW 10 : ... .. C ... ... ... : ... .. C ... ... ... : G-1 00 . P86 : ... .. . ... : ... .. . ... ...
ROW 11 : ... .. . ... ... ... : ... .. . ... ... ... : F-1 00 . PA2 : ... .. . ... : ... .. . ... ...
ROW 12 : ... .. . ... ... ... : ... .. . ... ... ... : --- .. . ... : ... .. . ... : ... .. . ... ...
ROW 13 : ... .. B ... ... ... : ... .. B ... ... ... : ... .. . ... : ... .. . ... : ... .. . ... ...
ROW 14 : ... .. 0 ... V00 ... : ... .. 0 ... V00 ... : G-2 00 . P80 : ... .. . ... : ... .. . ... ...
ROW 15 : G-3 00 F P80 V01 ... : B-3 00 F P80 V01 ... : ... .. . ... : ... .. . ... : ... .. . ... ...
ROW 16 : ... .. E ... ... ... : ... .. E ... ... ... : ... .. . ... : ... .. . ... : ... .. . ... ...
ROW 17 : ... .. . ... ... ... : ... .. . ... ... ... : ... .. . ... : ... .. . ... : ... .. . ... ...
ROW 18 : ... .. . ... ... ... : ... .. . ... ... ... : ... .. . ... : ... .. . ... : ... .. . ... ...
ROW 19 : ... .. D ... ... ... : ... .. D ... ... ... : ... .. . ... : ... .. . ... : ... .. . ... ...
ROW 1A : ... .. . ... ... ... : ... .. . ... ... ... : ... .. . ... : ... .. . ... : ... .. . ... ...
ROW 1B : ... .. . ... ... ... : ... .. . ... ... ... : ... .. . ... : ... .. . ... : ... .. . ... ...
ROW 1C : ... .. C ... ... ... : ... .. C ... ... ... : ... .. . ... : ... .. . ... : ... .. . ... ...
ROW 1D : ... .. . ... ... ... : ... .. . ... ... ... : ... .. . ... : ... .. . ... : ... .. . ... ...
ROW 1E : ... .. . ... ... ... : ... .. . ... ... ... : --- .. . ... : ... .. . ... : ... .. . ... ...
ROW 1F : ... .. B ... ... ... : ... .. B ... ... ... : ... .. . ... : ... .. . ... : ... .. . ... ...
ROW 20 : ... .. 0 ... V00 ... : ... .. 0 ... V00 ... : A#3 00 . P81 : ... .. . ... : ... .. . ... ...
ROW 21 : A-3 00 F P80 V01 ... : C-4 00 F P80 V01 ... : D#3 00 . P89 : ... .. . ... : ... .. . ... ...
ROW 22 : ... .. E ... ... ... : ... .. E ... ... ... : B-2 00 . P76 : ... .. . ... : ... .. . ... ...
ROW 23 : ... .. . ... ... ... : ... .. . ... ... ... : G-2 00 . P7C : ... .. . ... : ... .. . ... ...
ROW 24 : ... .. . ... ... ... : ... .. . ... ... ... : E-2 00 . P78 : ... .. . ... : ... .. . ... ...
ROW 25 : ... .. D ... ... ... : ... .. D ... ... ... : C#2 00 . P88 : ... .. . ... : ... .. . ... ...
ROW 26 : ... .. . ... ... ... : ... .. . ... ... ... : B-1 00 . P7B : ... .. . ... : ... .. . ... ...
ROW 27 : ... .. . ... ... ... : ... .. . ... ... ... : A-1 00 . P7A : ... .. . ... : ... .. . ... ...
ROW 28 : ... .. C ... ... ... : ... .. C ... ... ... : G-1 00 . P86 : ... .. . ... : ... .. . ... ...
ROW 29 : ... .. . ... ... ... : ... .. . ... ... ... : F-1 00 . PA2 : ... .. . ... : ... .. . ... ...
ROW 2A : ... .. . ... ... ... : ... .. . ... ... ... : --- .. . ... : ... .. . ... : ... .. . ... ...
ROW 2B : ... .. B ... ... ... : ... .. B ... ... ... : ... .. . ... : ... .. . ... : ... .. . ... ...
ROW 2C : ... .. 0 ... V00 ... : ... .. 0 ... V00 ... : A-2 00 . P80 : ... .. . ... : ... .. . ... ...
ROW 2D : E-3 00 F P80 V01 ... : A-3 00 F P80 V01 ... : ... .. . ... : ... .. . ... : ... .. . ... ...
ROW 2E : ... .. E ... ... ... : ... .. E ... ... ... : ... .. . ... : ... .. . ... : ... .. . ... ...
ROW 2F : ... .. . ... ... ... : ... .. . ... ... ... : ... .. . ... : ... .. . ... : ... .. . ... ...
ROW 30 : ... .. . ... ... ... : ... .. . ... ... ... : ... .. . ... : ... .. . ... : ... .. . ... ...
ROW 31 : ... .. D ... ... ... : ... .. D ... ... ... : ... .. . ... : ... .. . ... : ... .. . ... ...
ROW 32 : ... .. 0 ... V00 ... : ... .. 0 ... V00 ... : ... .. . ... : ... .. . ... : ... .. . ... ...
ROW 33 : E-3 00 F P80 V01 ... : A-3 00 F P80 V01 ... : ... .. . ... : ... .. . ... : ... .. . ... ...
ROW 34 : ... .. E ... ... ... : ... .. E ... ... ... : ... .. . ... : ... .. . ... : ... .. . ... ...
ROW 35 : ... .. . ... ... ... : ... .. . ... ... ... : ... .. . ... : ... .. . ... : ... .. . ... ...
ROW 36 : ... .. . ... ... ... : ... .. . ... ... ... : --- .. . ... : ... .. . ... : ... .. . ... ...
ROW 37 : ... .. D ... ... ... : ... .. D ... ... ... : ... .. . ... : ... .. . ... : ... .. . ... ...
ROW 38 : ... .. 0 ... V00 ... : ... .. 0 ... V00 ... : A#3 00 . P81 : ... .. . ... : ... .. . ... ...
ROW 39 : A-3 00 F P80 V01 ... : C-4 00 F P80 V01 ... : D#3 00 . P89 : ... .. . ... : ... .. . ... ...
ROW 3A : ... .. E ... ... ... : ... .. E ... ... ... : B-2 00 . P76 : ... .. . ... : ... .. . ... ...
ROW 3B : ... .. . ... ... ... : ... .. . ... ... ... : G-2 00 . P7C : ... .. . ... : ... .. . ... ...
ROW 3C : ... .. . ... ... ... : ... .. . ... ... ... : E-2 00 . P78 : ... .. . ... : ... .. . ... ...
ROW 3D : ... .. D ... ... ... : ... .. D ... ... ... : C#2 00 . P88 : ... .. . ... : ... .. . ... ...
ROW 3E : ... .. . ... ... ... : ... .. . ... ... ... : B-1 00 . P7B : ... .. . ... : ... .. . ... ...
ROW 3F : ... .. . ... ... ... : ... .. . ... ... ... : A-1 00 . P7A : ... .. . ... : ... .. . ... ...
ROW 40 : ... .. C ... ... ... : ... .. C ... ... ... : G-1 00 . P86 : ... .. . ... : ... .. . ... ...
ROW 41 : ... .. . ... ... ... : ... .. . ... ... ... : F-1 00 . PA2 : ... .. . ... : ... .. . ... ...
ROW 42 : ... .. . ... ... ... : ... .. . ... ... ... : --- .. . ... : ... .. . ... : ... .. . ... ...
ROW 43 : ... .. B ... ... ... : ... .. B ... ... ... : ... .. . ... : ... .. . ... : ... .. . ... ...
ROW 44 : ... .. 0 ... V00 ... : ... .. 0 ... V00 ... : A-2 00 . P80 : ... .. . ... : ... .. . ... ...
ROW 45 : G-3 00 F P80 V01 ... : B-3 00 F P80 V01 ... : ... .. . ... : ... .. . ... : ... .. . ... ...
ROW 46 : ... .. E ... ... ... : ... .. E ... ... ... : ... .. . ... : ... .. . ... : ... .. . ... ...
ROW 47 : ... .. . ... ... ... : ... .. . ... ... ... : ... .. . ... : ... .. . ... : ... .. . ... ...
ROW 48 : ... .. . ... ... ... : ... .. . ... ... ... : ... .. . ... : ... .. . ... : ... .. . ... ...
ROW 49 : ... .. D ... ... ... : ... .. D ... ... ... : ... .. . ... : ... .. . ... : ... .. . ... ...
ROW 4A : ... .. . ... ... ... : ... .. . ... ... ... : ... .. . ... : ... .. . ... : ... .. . ... ...
ROW 4B : ... .. . ... ... ... : ... .. . ... ... ... : ... .. . ... : ... .. . ... : ... .. . ... ...
ROW 4C : ... .. C ... ... ... : ... .. C ... ... ... : ... .. . ... : ... .. . ... : ... .. . ... ...
ROW 4D : ... .. . ... ... ... : ... .. . ... ... ... : ... .. . ... : ... .. . ... : ... .. . ... ...
ROW 4E : ... .. . ... ... ... : ... .. . ... ... ... : --- .. . ... : ... .. . ... : ... .. . ... ...
ROW 4F : ... .. B ... ... ... : ... .. B ... ... ... : ... .. . ... : ... .. . ... : ... .. . ... ...
ROW 50 : ... .. 0 ... V00 ... : ... .. 0 ... V00 ... : A#3 00 . P81 : ... .. . ... : ... .. . ... ...
ROW 51 : A-3 00 F P80 V01 ... : C-4 00 F P80 V01 ... : D#3 00 . P89 : ... .. . ... : ... .. . ... ...
ROW 52 : ... .. E ... ... ... : ... .. E ... ... ... : B-2 00 . P76 : ... .. . ... : ... .. . ... ...
ROW 53 : ... .. . ... ... ... : ... .. . ... ... ... : G-2 00 . P7C : ... .. . ... : ... .. . ... ...
ROW 54 : ... .. . ... ... ... : ... .. . ... ... ... : E-2 00 . P78 : ... .. . ... : ... .. . ... ...
ROW 55 : ... .. D ... ... ... : ... .. D ... ... ... : C#2 00 . P88 : ... .. . ... : ... .. . ... ...
ROW 56 : ... .. . ... ... ... : ... .. . ... ... ... : B-1 00 . P7B : ... .. . ... : ... .. . ... ...
ROW 57 : ... .. . ... ... ... : ... .. . ... ... ... : A-1 00 . P7A : ... .. . ... : ... .. . ... ...
ROW 58 : ... .. C ... ... ... : ... .. C ... ... ... : G-1 00 . P86 : ... .. . ... : ... .. . ... ...
ROW 59 : ... .. . ... ... ... : ... .. . ... ... ... : F-1 00 . PA2 : ... .. . ... : ... .. . ... ...
ROW 5A : ... .. . ... ... ... : ... .. . ... ... ... : --- .. . ... : ... .. . ... : ... .. . ... ...
ROW 5B : ... .. B ... ... ... : ... .. B ... ... ... : ... .. . ... : ... .. . ... : ... .. . ... ...
ROW 5C : ... .. 0 ... V00 ... : ... .. 0 ... V00 ... : A-2 00 . P80 : ... .. . ... : ... .. . ... ...
ROW 5D : E-3 00 F P80 V01 ... : A-3 00 F P80 V01 ... : ... .. . ... : ... .. . ... : ... .. . ... ...
ROW 5E : ... .. E ... ... ... : ... .. E ... ... ... : ... .. . ... : ... .. . ... : ... .. . ... ...
ROW 5F : ... .. . ... ... ... : ... .. . ... ... ... : ... .. . ... : ... .. . ... : ... .. . ... ...
ROW 60 : ... .. . ... ... ... : ... .. . ... ... ... : ... .. . ... : ... .. . ... : ... .. . ... ...
ROW 61 : ... .. D ... ... ... : ... .. D ... ... ... : ... .. . ... : ... .. . ... : ... .. . ... ...
ROW 62 : ... .. 0 ... V00 ... : ... .. 0 ... V00 ... : ... .. . ... : ... .. . ... : ... .. . ... ...
ROW 63 : E-3 00 F P80 V01 ... : A-3 00 F P80 V01 ... : ... .. . ... : ... .. . ... : ... .. . ... ...
ROW 64 : ... .. E ... ... ... : ... .. E ... ... ... : ... .. . ... : ... .. . ... : ... .. . ... ...
ROW 65 : ... .. . ... ... ... : ... .. . ... ... ... : ... .. . ... : ... .. . ... : ... .. . ... ...
ROW 66 : ... .. . ... ... ... : ... .. . ... ... ... : --- .. . ... : ... .. . ... : ... .. . ... ...
ROW 67 : ... .. D ... ... ... : ... .. D ... ... ... : ... .. . ... : ... .. . ... : ... .. . ... ...
ROW 68 : ... .. 0 ... V00 ... : ... .. 0 ... V00 ... : A#3 00 . P81 : 4-# 00 F V00 : ... .. . ... ...
ROW 69 : E-3 00 F P80 V01 ... : G-3 00 F P80 V01 ... : D#3 00 . P89 : ... .. . ... : ... .. . ... ...
ROW 6A : ... .. E ... ... ... : ... .. E ... ... ... : B-2 00 . P76 : ... .. . ... : ... .. . ... ...
ROW 6B : ... .. . ... ... ... : ... .. . ... ... ... : G-2 00 . P7C : ... .. C ... : ... .. . ... ...
ROW 6C : ... .. . ... ... ... : ... .. . ... ... ... : E-2 00 . P78 : ... .. B ... : ... .. . ... ...
ROW 6D : ... .. D ... ... ... : ... .. D ... ... ... : C#2 00 . P88 : ... .. 9 ... : ... .. . ... ...
ROW 6E : ... .. . ... ... ... : ... .. . ... ... ... : B-1 00 . P7B : ... .. F ... : ... .. . ... ...
ROW 6F : ... .. . ... ... ... : ... .. . ... ... ... : A-1 00 . P7A : ... .. . ... : ... .. . ... ...
ROW 70 : ... .. C ... ... ... : ... .. C ... ... ... : G-1 00 . P86 : ... .. . ... : ... .. . ... ...
ROW 71 : ... .. . ... ... ... : ... .. . ... ... ... : F-1 00 . PA2 : ... .. C ... : ... .. . ... ...
ROW 72 : ... .. . ... ... ... : ... .. . ... ... ... : --- .. . ... : ... .. B ... : ... .. . ... ...
ROW 73 : ... .. B ... ... ... : ... .. B ... ... ... : ... .. . ... : ... .. 9 ... : ... .. . ... ...
ROW 74 : ... .. 0 ... V00 ... : ... .. 0 ... V00 ... : A-2 00 . P80 : ... .. F ... : ... .. . ... ...
ROW 75 : E-3 00 F P80 V01 ... : G#3 00 F P80 V01 ... : ... .. . ... : ... .. . ... : ... .. . ... ...
ROW 76 : ... .. E ... ... ... : ... .. E ... ... ... : ... .. . ... : ... .. . ... : ... .. . ... ...
ROW 77 : ... .. . ... ... ... : ... .. . ... ... ... : ... .. . ... : ... .. C ... : ... .. . ... ...
ROW 78 : ... .. . ... ... ... : ... .. . ... ... ... : ... .. . ... : ... .. B ... : ... .. . ... ...
ROW 79 : ... .. D ... ... ... : ... .. D ... ... ... : ... .. . ... : ... .. 9 ... : ... .. . ... ...
ROW 7A : ... .. . ... ... ... : ... .. . ... ... ... : ... .. . ... : ... .. F ... : ... .. . ... ...
ROW 7B : ... .. . ... ... ... : ... .. . ... ... ... : ... .. . ... : ... .. . ... : ... .. . ... ...
ROW 7C : ... .. C ... ... ... : ... .. C ... ... ... : ... .. . ... : ... .. . ... : ... .. . ... ...
ROW 7D : ... .. . ... ... ... : ... .. . ... ... ... : ... .. . ... : ... .. C ... : ... .. . ... ...
ROW 7E : ... .. . ... ... ... : ... .. . ... ... ... : --- .. . ... : ... .. B ... : ... .. . ... ...
ROW 7F : ... .. B ... ... ... : ... .. B ... ... ... : ... .. . ... : ... .. 9 ... : ... .. . ... ...
ROW 80 : ... .. 0 ... V00 ... : ... .. 0 ... V00 ... : A#3 00 . P81 : 1-# 00 F ... : ... .. . ... ...
ROW 81 : G-2 00 F P80 V01 ... : C-3 00 F P80 V01 ... : D#3 00 . P89 : ... .. . ... : ... .. . ... ...
ROW 82 : ... .. E ... ... ... : ... .. E ... ... ... : B-2 00 . P76 : ... .. . ... : ... .. . ... ...
ROW 83 : ... .. . ... ... ... : ... .. . ... ... ... : G-2 00 . P7C : ... .. C ... : ... .. . ... ...
ROW 84 : ... .. . ... ... ... : ... .. . ... ... ... : E-2 00 . P78 : ... .. B ... : ... .. . ... ...
ROW 85 : ... .. D ... ... ... : ... .. D ... ... ... : C#2 00 . P88 : ... .. 9 ... : ... .. . ... ...
ROW 86 : ... .. . ... ... ... : ... .. . ... ... ... : B-1 00 . P7B : ... .. 6 ... : ... .. . ... ...
ROW 87 : ... .. . ... ... ... : ... .. . ... ... ... : A-1 00 . P7A : ... .. 5 ... : ... .. . ... ...
ROW 88 : ... .. C ... ... ... : ... .. C ... ... ... : G-1 00 . P86 : ... .. 3 ... : ... .. . ... ...
ROW 89 : ... .. . ... ... ... : ... .. . ... ... ... : F-1 00 . PA2 : ... .. 1 ... : ... .. . ... ...
ROW 8A : ... .. . ... ... ... : ... .. . ... ... ... : --- .. . ... : ... .. 0 ... : ... .. . ... ...
ROW 8B : ... .. B ... ... ... : ... .. B ... ... ... : ... .. . ... : ... .. . ... : ... .. . ... ...
ROW 8C : ... .. . ... ... ... : ... .. . ... ... ... : ... .. . ... : D-# 00 F ... : ... .. . ... ...
ROW 8D : ... .. . ... ... ... : ... .. . ... ... ... : C-3 00 . P80 : ... .. . ... : ... .. . ... ...
ROW 8E : ... .. A ... ... ... : ... .. A ... ... ... : ... .. . ... : ... .. . ... : ... .. . ... ...
ROW 8F : ... .. . ... ... ... : ... .. . ... ... ... : ... .. . ... : ... .. C ... : ... .. . ... ...
ROW 90 : ... .. . ... ... ... : ... .. . ... ... ... : ... .. . ... : ... .. B ... : ... .. . ... ...
ROW 91 : ... .. 9 ... ... ... : ... .. 9 ... ... ... : ... .. . ... : ... .. 9 ... : ... .. . ... ...
ROW 92 : ... .. . ... ... ... : ... .. . ... ... ... : ... .. . ... : ... .. 6 ... : ... .. . ... ...
ROW 93 : ... .. . ... ... ... : ... .. . ... ... ... : ... .. . ... : ... .. 5 ... : ... .. . ... ...
ROW 94 : ... .. 8 ... ... ... : ... .. 8 ... ... ... : ... .. . ... : ... .. 3 ... : ... .. . ... ...
ROW 95 : ... .. . ... ... ... : ... .. . ... ... ... : ... .. . ... : ... .. 1 ... : ... .. . ... ...
ROW 96 : ... .. 7 ... ... ... : ... .. 7 ... ... ... : ... .. . ... : ... .. 0 ... : ... .. . ... ...
ROW 97 : ... .. . ... ... ... : ... .. . ... ... ... : ... .. . ... : ... .. . ... : ... .. . ... ...
ROW 98 : ... .. 0 ... V00 ... : ... .. 0 ... V00 ... : A#3 00 . P81 : 4-# 00 F ... : ... .. . ... ...
ROW 99 : C-3 00 F P80 V01 ... : E-3 00 F P80 V01 ... : D#3 00 . P89 : ... .. . ... : ... .. . ... ...
ROW 9A : ... .. E ... ... ... : ... .. E ... ... ... : B-2 00 . P76 : ... .. . ... : ... .. . ... ...
ROW 9B : ... .. . ... ... ... : ... .. . ... ... ... : G-2 00 . P7C : ... .. C ... : ... .. . ... ...
ROW 9C : ... .. . ... ... ... : ... .. . ... ... ... : E-2 00 . P78 : ... .. B ... : ... .. . ... ...
ROW 9D : ... .. D ... ... ... : ... .. D ... ... ... : C#2 00 . P88 : ... .. 9 ... : ... .. . ... ...
ROW 9E : ... .. . ... ... ... : ... .. . ... ... ... : B-1 00 . P7B : ... .. 6 ... : ... .. . ... ...
ROW 9F : ... .. . ... ... ... : ... .. . ... ... ... : A-1 00 . P7A : ... .. 5 ... : ... .. . ... ...
ROW A0 : ... .. C ... ... ... : ... .. C ... ... ... : G-1 00 . P86 : ... .. 3 ... : ... .. . ... ...
ROW A1 : ... .. . ... ... ... : ... .. . ... ... ... : F-1 00 . PA2 : ... .. 1 ... : ... .. . ... ...
ROW A2 : ... .. . ... ... ... : ... .. . ... ... ... : --- .. . ... : ... .. 0 ... : ... .. . ... ...
ROW A3 : ... .. B ... ... ... : ... .. B ... ... ... : ... .. . ... : ... .. . ... : ... .. . ... ...
ROW A4 : ... .. 0 ... V00 ... : ... .. 0 ... V00 ... : ... .. . ... : D-# 00 F ... : ... .. . ... ...
ROW A5 : E-3 00 F P80 V01 ... : G-3 00 F P80 V01 ... : C-3 00 . P80 : ... .. . ... : ... .. . ... ...
ROW A6 : ... .. E ... ... ... : ... .. E ... ... ... : ... .. . ... : ... .. . ... : ... .. . ... ...
ROW A7 : ... .. . ... ... ... : ... .. . ... ... ... : ... .. . ... : ... .. C ... : ... .. . ... ...
ROW A8 : ... .. . ... ... ... : ... .. . ... ... ... : ... .. . ... : ... .. B ... : ... .. . ... ...
ROW A9 : ... .. D ... ... ... : ... .. D ... ... ... : ... .. . ... : ... .. 9 ... : ... .. . ... ...
ROW AA : ... .. 0 ... V00 ... : ... .. 0 ... V00 ... : ... .. . ... : ... .. 6 ... : ... .. . ... ...
ROW AB : E-3 00 F P80 V01 ... : G-3 00 F P80 V01 ... : ... .. . ... : ... .. 5 ... : ... .. . ... ...
ROW AC : ... .. E ... ... ... : ... .. E ... ... ... : ... .. . ... : ... .. 3 ... : ... .. . ... ...
ROW AD : ... .. . ... ... ... : ... .. . ... ... ... : ... .. . ... : ... .. 1 ... : ... .. . ... ...
ROW AE : ... .. . ... ... ... : ... .. . ... ... ... : ... .. . ... : ... .. 0 ... : ... .. . ... ...
ROW AF : ... .. D ... ... ... : ... .. D ... ... ... : ... .. . ... : ... .. . ... : ... .. . ... ...
ROW B0 : ... .. 0 ... V00 ... : ... .. 0 ... V00 ... : A#3 00 . P81 : 1-# 00 F ... : ... .. . ... ...
ROW B1 : E-3 00 F P80 V01 ... : G-3 00 F P80 V01 ... : D#3 00 . P89 : ... .. . ... : ... .. . ... ...
ROW B2 : ... .. E ... ... ... : ... .. E ... ... ... : B-2 00 . P76 : ... .. . ... : ... .. . ... ...
ROW B3 : ... .. . ... ... ... : ... .. . ... ... ... : G-2 00 . P7C : ... .. C ... : ... .. . ... ...
ROW B4 : ... .. . ... ... ... : ... .. . ... ... ... : E-2 00 . P78 : ... .. B ... : ... .. . ... ...
ROW B5 : ... .. D ... ... ... : ... .. D ... ... ... : C#2 00 . P88 : ... .. 9 ... : ... .. . ... ...
ROW B6 : ... .. . ... ... ... : ... .. . ... ... ... : B-1 00 . P7B : ... .. 6 ... : ... .. . ... ...
ROW B7 : ... .. . ... ... ... : ... .. . ... ... ... : A-1 00 . P7A : ... .. 5 ... : ... .. . ... ...
ROW B8 : ... .. C ... ... ... : ... .. C ... ... ... : G-1 00 . P86 : ... .. 3 ... : ... .. . ... ...
ROW B9 : ... .. . ... ... ... : ... .. . ... ... ... : F-1 00 . PA2 : ... .. 1 ... : ... .. . ... ...
ROW BA : ... .. . ... ... ... : ... .. . ... ... ... : --- .. . ... : ... .. 0 ... : ... .. . ... ...
ROW BB : ... .. B ... ... ... : ... .. B ... ... ... : ... .. . ... : ... .. . ... : ... .. . ... ...
ROW BC : ... .. 0 ... V00 ... : ... .. 0 ... V00 ... : ... .. . ... : D-# 00 F ... : ... .. . ... ...
ROW BD : C-3 00 F P80 V01 ... : E-3 00 F P80 V01 ... : C-3 00 . P80 : ... .. . ... : ... .. . ... ...
ROW BE : ... .. E ... ... ... : ... .. E ... ... ... : ... .. . ... : ... .. . ... : ... .. . ... ...
ROW BF : ... .. . ... ... ... : ... .. . ... ... ... : ... .. . ... : ... .. C ... : ... .. . ... ...
ROW C0 : ... .. . ... ... ... : ... .. . ... ... ... : ... .. . ... : ... .. B ... : ... .. . ... ...
ROW C1 : ... .. D ... ... ... : ... .. D ... ... ... : ... .. . ... : ... .. 9 ... : ... .. . ... ...
ROW C2 : ... .. . ... ... ... : ... .. . ... ... ... : ... .. . ... : ... .. 6 ... : ... .. . ... ...
ROW C3 : ... .. . ... ... ... : ... .. . ... ... ... : ... .. . ... : ... .. 5 ... : ... .. . ... ...
ROW C4 : ... .. C ... ... ... : ... .. C ... ... ... : ... .. . ... : ... .. 3 ... : ... .. . ... ...
ROW C5 : ... .. . ... ... ... : ... .. . ... ... ... : ... .. . ... : ... .. 1 ... : ... .. . ... ...
ROW C6 : ... .. . ... ... ... : ... .. . ... ... ... : ... .. . ... : ... .. 0 ... : ... .. . ... ...
ROW C7 : ... .. B ... ... ... : ... .. B ... ... ... : ... .. . ... : ... .. . ... : ... .. . ... ...
ROW C8 : ... .. 0 ... V00 ... : ... .. 0 ... V00 ... : A#3 00 . P81 : 4-# 00 F ... : ... .. . ... ...
ROW C9 : G-2 00 F P80 V01 ... : D-3 00 F P80 V01 ... : D#3 00 . P89 : ... .. . ... : ... .. . ... ...
ROW CA : ... .. E ... ... ... : ... .. E ... ... ... : B-2 00 . P76 : ... .. . ... : ... .. . ... ...
ROW CB : ... .. . ... ... ... : ... .. . ... ... ... : G-2 00 . P7C : ... .. C ... : ... .. . ... ...
ROW CC : ... .. . ... ... ... : ... .. . ... ... ... : E-2 00 . P78 : ... .. B ... : ... .. . ... ...
ROW CD : ... .. D ... ... ... : ... .. D ... ... ... : C#2 00 . P88 : ... .. 9 ... : ... .. . ... ...
ROW CE : ... .. . ... ... ... : ... .. . ... ... ... : B-1 00 . P7B : ... .. 6 ... : ... .. . ... ...
ROW CF : ... .. . ... ... ... : ... .. . ... ... ... : A-1 00 . P7A : ... .. 5 ... : ... .. . ... ...
ROW D0 : ... .. C ... ... ... : ... .. C ... ... ... : G-1 00 . P86 : ... .. 3 ... : ... .. . ... ...
ROW D1 : ... .. . ... ... ... : ... .. . ... ... ... : F-1 00 . PA2 : ... .. 1 ... : ... .. . ... ...
ROW D2 : ... .. . ... ... ... : ... .. . ... ... ... : --- .. . ... : ... .. 0 ... : ... .. . ... ...
ROW D3 : ... .. B ... ... ... : ... .. B ... ... ... : ... .. . ... : ... .. . ... : ... .. . ... ...
ROW D4 : ... .. 0 ... V00 ... : ... .. 0 ... V00 ... : ... .. . ... : D-# 00 F ... : ... .. . ... ...
ROW D5 : C-3 00 F P80 V01 ... : E-3 00 F P80 V01 ... : C-3 00 . P80 : ... .. . ... : ... .. . ... ...
ROW D6 : ... .. E ... ... ... : ... .. E ... ... ... : ... .. . ... : ... .. . ... : ... .. . ... ...
ROW D7 : ... .. . ... ... ... : ... .. . ... ... ... : ... .. . ... : ... .. C ... : ... .. . ... ...
ROW D8 : ... .. . ... ... ... : ... .. . ... ... ... : ... .. . ... : ... .. B ... : ... .. . ... ...
ROW D9 : ... .. D ... ... ... : ... .. D ... ... ... : ... .. . ... : ... .. 9 ... : ... .. . ... ...
ROW DA : ... .. . ... ... ... : ... .. . ... ... ... : ... .. . ... : ... .. 6 ... : ... .. . ... ...
ROW DB : ... .. . ... ... ... : ... .. . ... ... ... : ... .. . ... : ... .. 5 ... : ... .. . ... ...
ROW DC : ... .. C ... ... ... : ... .. C ... ... ... : ... .. . ... : ... .. 3 ... : ... .. . ... ...
ROW DD : ... .. . ... ... ... : ... .. . ... ... ... : ... .. . ... : ... .. 1 ... : ... .. . ... ...
ROW DE : ... .. . ... ... ... : ... .. . ... ... ... : ... .. . ... : ... .. 0 ... : ... .. . ... ...
ROW DF : ... .. B ... ... ... : ... .. B ... ... ... : ... .. . ... : ... .. . ... : ... .. . ... ...
ROW E0 : ... .. 0 ... V00 ... : ... .. 0 ... V00 ... : A#3 00 . P81 : 1-# 00 F ... : ... .. . ... ...
ROW E1 : F-3 00 F P80 V01 ... : A-3 00 F P80 V01 ... : D#3 00 . P89 : ... .. . ... : ... .. . ... ...
ROW E2 : ... .. E ... ... ... : ... .. E ... ... ... : B-2 00 . P76 : ... .. . ... : ... .. . ... ...
ROW E3 : ... .. . ... ... ... : ... .. . ... ... ... : G-2 00 . P7C : ... .. C ... : ... .. . ... ...
ROW E4 : ... .. . ... ... ... : ... .. . ... ... ... : E-2 00 . P78 : ... .. B ... : ... .. . ... ...
ROW E5 : ... .. D ... ... ... : ... .. D ... ... ... : C#2 00 . P88 : ... .. 9 ... : ... .. . ... ...
ROW E6 : ... .. . ... ... ... : ... .. . ... ... ... : B-1 00 . P7B : ... .. 6 ... : ... .. . ... ...
ROW E7 : ... .. . ... ... ... : ... .. . ... ... ... : A-1 00 . P7A : ... .. 5 ... : ... .. . ... ...
ROW E8 : ... .. C ... ... ... : ... .. C ... ... ... : G-1 00 . P86 : ... .. 3 ... : ... .. . ... ...
ROW E9 : ... .. . ... ... ... : ... .. . ... ... ... : F-1 00 . PA2 : ... .. 1 ... : ... .. . ... ...
ROW EA : ... .. . ... ... ... : ... .. . ... ... ... : --- .. . ... : ... .. 0 ... : ... .. . ... ...
ROW EB : ... .. B ... ... ... : ... .. B ... ... ... : ... .. . ... : ... .. . ... : ... .. . ... ...
ROW EC : ... .. . ... ... ... : ... .. . ... ... ... : ... .. . ... : D-# 00 F ... : ... .. . ... ...
ROW ED : ... .. . ... ... ... : ... .. . ... ... ... : F-2 00 . P80 : ... .. . ... : ... .. . ... ...
ROW EE : ... .. A ... ... ... : ... .. A ... ... ... : ... .. . ... : ... .. . ... : ... .. . ... ...
ROW EF : ... .. . ... ... ... : ... .. . ... ... ... : ... .. . ... : ... .. C ... : ... .. . ... ...
ROW F0 : ... .. . ... ... ... : ... .. . ... ... ... : ... .. . ... : ... .. B ... : ... .. . ... ...
ROW F1 : ... .. 9 ... ... ... : ... .. 9 ... ... ... : ... .. . ... : ... .. 9 ... : ... .. . ... ...
ROW F2 : ... .. . ... ... ... : ... .. . ... ... ... : ... .. . ... : ... .. 6 ... : ... .. . ... ...
ROW F3 : ... .. . ... ... ... : ... .. . ... ... ... : ... .. . ... : ... .. 5 ... : ... .. . ... ...
ROW F4 : ... .. 8 ... ... ... : ... .. 8 ... ... ... : ... .. . ... : ... .. 3 ... : ... .. . ... ...
ROW F5 : ... .. . ... ... ... : ... .. . ... ... ... : ... .. . ... : ... .. 1 ... : ... .. . ... ...
ROW F6 : ... .. 7 ... ... ... : ... .. 7 ... ... ... : ... .. . ... : ... .. 0 ... : ... .. . ... ...
ROW F7 : ... .. . ... ... ... : ... .. . ... ... ... : ... .. . ... : ... .. . ... : ... .. . ... ...
ROW F8 : ... .. 0 ... V00 ... : ... .. 0 ... V00 ... : A#3 00 . P81 : 4-# 00 F ... : ... .. . ... ...
ROW F9 : F-3 00 F P80 V01 ... : A-3 00 F P80 V01 ... : D#3 00 . P89 : ... .. . ... : ... .. . ... ...
ROW FA : ... .. E ... ... ... : ... .. E ... ... ... : B-2 00 . P76 : ... .. . ... : ... .. . ... ...
ROW FB : ... .. . ... ... ... : ... .. . ... ... ... : G-2 00 . P7C : ... .. C ... : ... .. . ... ...
ROW FC : ... .. . ... ... ... : ... .. . ... ... ... : E-2 00 . P78 : ... .. B ... : ... .. . ... ...
ROW FD : ... .. D ... ... ... : ... .. D ... ... ... : C#2 00 . P88 : ... .. 9 ... : ... .. . ... ...
ROW FE : ... .. . ... ... ... : ... .. . ... ... ... : B-1 00 . P7B : ... .. 6 ... : ... .. . ... ...
ROW FF : ... .. . ... ... ... : ... .. . ... ... ... : A-1 00 . P7A : ... .. 5 ... : ... .. . ... ...

PATTERN 14
ROW 00 : ... .. C ... ... ... : ... .. C ... ... ... : G-1 00 . P86 : ... .. 3 ... : ... .. . ... ...
ROW 01 : ... .. . ... ... ... : ... .. . ... ... ... : F-1 00 . PA2 : ... .. 1 ... : ... .. . ... ...
ROW 02 : ... .. . ... ... ... : ... .. . ... ... ... : --- .. . ... : ... .. 0 ... : ... .. . ... ...
ROW 03 : ... .. B ... ... ... : ... .. B ... ... ... : ... .. . ... : ... .. . ... : ... .. . ... ...
ROW 04 : ... .. 0 ... V00 ... : ... .. 0 ... V00 ... : ... .. . ... : D-# 00 F ... : ... .. . ... ...
ROW 05 : E-3 00 F P80 V01 ... : G-3 00 F P80 V01 ... : F-2 00 . P80 : ... .. . ... : ... .. . ... ...
ROW 06 : ... .. E ... ... ... : ... .. E ... ... ... : ... .. . ... : ... .. . ... : ... .. . ... ...
ROW 07 : ... .. . ... ... ... : ... .. . ... ... ... : ... .. . ... : ... .. C ... : ... .. . ... ...
ROW 08 : ... .. . ... ... ... : ... .. . ... ... ... : ... .. . ... : ... .. B ... : ... .. . ... ...
ROW 09 : ... .. D ... ... ... : ... .. D ... ... ... : ... .. . ... : ... .. 9 ... : ... .. . ... ...
ROW 0A : ... .. 0 ... V00 ... : ... .. 0 ... V00 ... : ... .. . ... : ... .. 6 ... : ... .. . ... ...
ROW 0B : E-3 00 F P80 V01 ... : G-3 00 F P80 V01 ... : ... .. . ... : ... .. 5 ... : ... .. . ... ...
ROW 0C : ... .. E ... ... ... : ... .. E ... ... ... : ... .. . ... : ... .. 3 ... : ... .. . ... ...
ROW 0D : ... .. . ... ... ... : ... .. . ... ... ... : ... .. . ... : ... .. 1 ... : ... .. . ... ...
ROW 0E : ... .. . ... ... ... : ... .. . ... ... ... : ... .. . ... : ... .. 0 ... : ... .. . ... ...
ROW 0F : ... .. D ... ... ... : ... .. D ... ... ... : ... .. . ... : ... .. . ... : ... .. . ... ...
ROW 10 : ... .. 0 ... V00 ... : ... .. 0 ... V00 ... : A#3 00 . P81 : 1-# 00 F ... : ... .. . ... ...
ROW 11 : E-3 00 F P80 V01 ... : G-3 00 F P80 V01 ... : D#3 00 . P89 : ... .. . ... : ... .. . ... ...
ROW 12 : ... .. E ... ... ... : ... .. E ... ... ... : B-2 00 . P76 : ... .. . ... : ... .. . ... ...
ROW 13 : ... .. . ... ... ... : ... .. . ... ... ... : G-2 00 . P7C : ... .. C ... : ... .. . ... ...
ROW 14 : ... .. . ... ... ... : ... .. . ... ... ... : E-2 00 . P78 : ... .. B ... : ... .. . ... ...
ROW 15 : ... .. D ... ... ... : ... .. D ... ... ... : C#2 00 . P88 : ... .. 9 ... : ... .. . ... ...
ROW 16 : ... .. . ... ... ... : ... .. . ... ... ... : B-1 00 . P7B : ... .. 6 ... : ... .. . ... ...
ROW 17 : ... .. . ... ... ... : ... .. . ... ... ... : A-1 00 . P7A : ... .. 5 ... : ... .. . ... ...
ROW 18 : ... .. C ... ... ... : ... .. C ... ... ... : G-1 00 . P86 : ... .. 3 ... : ... .. . ... ...
ROW 19 : ... .. . ... ... ... : ... .. . ... ... ... : F-1 00 . PA2 : ... .. 1 ... : ... .. . ... ...
ROW 1A : ... .. . ... ... ... : ... .. . ... ... ... : --- .. . ... : ... .. 0 ... : ... .. . ... ...
ROW 1B : ... .. B ... ... ... : ... .. B ... ... ... : ... .. . ... : ... .. . ... : ... .. . ... ...
ROW 1C : ... .. 0 ... V00 ... : ... .. 0 ... V00 ... : ... .. . ... : D-# 00 F ... : ... .. . ... ...
ROW 1D : C-3 00 F P80 V01 ... : E-3 00 F P80 V01 ... : G-2 00 . P80 : ... .. . ... : ... .. . ... ...
ROW 1E : ... .. E ... ... ... : ... .. E ... ... ... : ... .. . ... : ... .. . ... : ... .. . ... ...
ROW 1F : ... .. . ... ... ... : ... .. . ... ... ... : ... .. . ... : ... .. C ... : ... .. . ... ...
ROW 20 : ... .. . ... ... ... : ... .. . ... ... ... : ... .. . ... : ... .. B ... : ... .. . ... ...
ROW 21 : ... .. D ... ... ... : ... .. D ... ... ... : ... .. . ... : ... .. 9 ... : ... .. . ... ...
ROW 22 : ... .. . ... ... ... : ... .. . ... ... ... : ... .. . ... : ... .. 6 ... : ... .. . ... ...
ROW 23 : ... .. . ... ... ... : ... .. . ... ... ... : ... .. . ... : ... .. 5 ... : ... .. . ... ...
ROW 24 : ... .. C ... ... ... : ... .. C ... ... ... : ... .. . ... : ... .. 3 ... : ... .. . ... ...
ROW 25 : ... .. . ... ... ... : ... .. . ... ... ... : ... .. . ... : ... .. 1 ... : ... .. . ... ...
ROW 26 : ... .. . ... ... ... : ... .. . ... ... ... : ... .. . ... : ... .. 0 ... : ... .. . ... ...
ROW 27 : ... .. B ... ... ... : ... .. B ... ... ... : ... .. . ... : ... .. . ... : ... .. . ... ...
ROW 28 : ... .. 0 ... V00 ... : ... .. 0 ... V00 ... : A#3 00 . P81 : 4-# 00 F ... : ... .. . ... ...
ROW 29 : G-2 00 F P80 V01 ... : D-3 00 F P80 V01 ... : D#3 00 . P89 : ... .. . ... : ... .. . ... ...
ROW 2A : ... .. E ... ... ... : ... .. E ... ... ... : B-2 00 . P76 : ... .. . ... : ... .. . ... ...
ROW 2B : ... .. . ... ... ... : ... .. . ... ... ... : G-2 00 . P7C : ... .. C ... : ... .. . ... ...
ROW 2C : ... .. . ... ... ... : ... .. . ... ... ... : E-2 00 . P78 : ... .. B ... : ... .. . ... ...
ROW 2D : ... .. D ... ... ... : ... .. D ... ... ... : C#2 00 . P88 : ... .. 9 ... : ... .. . ... ...
ROW 2E : ... .. . ... ... ... : ... .. . ... ... ... : B-1 00 . P7B : ... .. 6 ... : ... .. . ... ...
ROW 2F : ... .. . ... ... ... : ... .. . ... ... ... : A-1 00 . P7A : ... .. 5 ... : ... .. . ... ...
ROW 30 : ... .. C ... ... ... : ... .. C ... ... ... : G-1 00 . P86 : ... .. 3 ... : ... .. . ... ...
ROW 31 : ... .. . ... ... ... : ... .. . ... ... ... : F-1 00 . PA2 : ... .. 1 ... : ... .. . ... ...
ROW 32 : ... .. . ... ... ... : ... .. . ... ... ... : --- .. . ... : ... .. 0 ... : ... .. . ... ...
ROW 33 : ... .. B ... ... ... : ... .. B ... ... ... : ... .. . ... : ... .. . ... : ... .. . ... ...
ROW 34 : ... .. 0 ... V00 ... : ... .. 0 ... V00 ... : ... .. . ... : D-# 00 F ... : ... .. . ... ...
ROW 35 : C-3 00 F P80 V01 ... : E-3 00 F P80 V01 ... : G-2 00 . P80 : ... .. . ... : ... .. . ... ...
ROW 36 : ... .. E ... ... ... : ... .. E ... ... ... : ... .. . ... : ... .. . ... : ... .. . ... ...
ROW 37 : ... .. . ... ... ... : ... .. . ... ... ... : ... .. . ... : ... .. C ... : ... .. . ... ...
ROW 38 : ... .. . ... ... ... : ... .. . ... ... ... : ... .. . ... : ... .. B ... : ... .. . ... ...
ROW 39 : ... .. D ... ... ... : ... .. D ... ... ... : ... .. . ... : ... .. 9 ... : ... .. . ... ...
ROW 3A : ... .. . ... ... ... : ... .. . ... ... ... : ... .. . ... : ... .. 6 ... : ... .. . ... ...
ROW 3B : ... .. . ... ... ... : ... .. . ... ... ... : ... .. . ... : ... .. 5 ... : ... .. . ... ...
ROW 3C : ... .. C ... ... ... : ... .. C ... ... ... : ... .. . ... : ... .. 3 ... : ... .. . ... ...
ROW 3D : ... .. . ... ... ... : ... .. . ... ... ... : ... .. . ... : ... .. 1 ... : ... .. . ... ...
ROW 3E : ... .. . ... ... ... : ... .. . ... ... ... : ... .. . ... : ... .. 0 ... : ... .. . ... ...
ROW 3F : ... .. B ... ... ... : ... .. B ... ... ... : ... .. . ... : ... .. . ... : ... .. . ... ...
ROW 40 : ... .. 0 ... V00 ... : ... .. 0 ... V00 ... : A#3 00 . P81 : 1-# 00 F ... : ... .. . ... ...
ROW 41 : G-2 00 F P80 V01 ... : C-3 00 F P80 V01 ... : D#3 00 . P89 : ... .. . ... : ... .. . ... ...
ROW 42 : ... .. E ... ... ... : ... .. E ... ... ... : B-2 00 . P76 : ... .. . ... : ... .. . ... ...
ROW 43 : ... .. . ... ... ... : ... .. . ... ... ... : G-2 00 . P7C : ... .. C ... : ... .. . ... ...
ROW 44 : ... .. . ... ... ... : ... .. . ... ... ... : E-2 00 . P78 : ... .. B ... : ... .. . ... ...
ROW 45 : ... .. D ... ... ... : ... .. D ... ... ... : C#2 00 . P88 : ... .. 9 ... : ... .. . ... ...
ROW 46 : ... .. . ... ... ... : ... .. . ... ... ... : B-1 00 . P7B : ... .. 6 ... : ... .. . ... ...
ROW 47 : ... .. . ... ... ... : ... .. . ... ... ... : A-1 00 . P7A : ... .. 5 ... : ... .. . ... ...
ROW 48 : ... .. C ... ... ... : ... .. C ... ... ... : G-1 00 . P86 : ... .. 3 ... : ... .. . ... ...
ROW 49 : ... .. . ... ... ... : ... .. . ... ... ... : F-1 00 . PA2 : ... .. 1 ... : ... .. . ... ...
ROW 4A : ... .. . ... ... ... : ... .. . ... ... ... : --- .. . ... : ... .. 0 ... : ... .. . ... ...
ROW 4B : ... .. B ... ... ... : ... .. B ... ... ... : ... .. . ... : ... .. . ... : ... .. . ... ...
ROW 4C : ... .. . ... ... ... : ... .. . ... ... ... : ... .. . ... : D-# 00 F ... : ... .. . ... ...
ROW 4D : ... .. . ... ... ... : ... .. . ... ... ... : C-3 00 . P80 : ... .. . ... : ... .. . ... ...
ROW 4E : ... .. A ... ... ... : ... .. A ... ... ... : ... .. . ... : ... .. . ... : ... .. . ... ...
ROW 4F : ... .. . ... ... ... : ... .. . ... ... ... : ... .. . ... : ... .. C ... : ... .. . ... ...
ROW 50 : ... .. . ... ... ... : ... .. . ... ... ... : ... .. . ... : ... .. B ... : ... .. . ... ...
ROW 51 : ... .. 9 ... ... ... : ... .. 9 ... ... ... : ... .. . ... : ... .. 9 ... : ... .. . ... ...
ROW 52 : ... .. . ... ... ... : ... .. . ... ... ... : ... .. . ... : ... .. 6 ... : ... .. . ... ...
ROW 53 : ... .. . ... ... ... : ... .. . ... ... ... : ... .. . ... : ... .. 5 ... : ... .. . ... ...
ROW 54 : ... .. 8 ... ... ... : ... .. 8 ... ... ... : ... .. . ... : ... .. 3 ... : ... .. . ... ...
ROW 55 : ... .. . ... ... ... : ... .. . ... ... ... : ... .. . ... : ... .. 1 ... : ... .. . ... ...
ROW 56 : ... .. 7 ... ... ... : ... .. 7 ... ... ... : ... .. . ... : ... .. 0 ... : ... .. . ... ...
ROW 57 : ... .. . ... ... ... : ... .. . ... ... ... : ... .. . ... : ... .. . ... : ... .. . ... ...
ROW 58 : ... .. 0 ... V00 ... : ... .. 0 ... V00 ... : A#3 00 . P81 : 4-# 00 F ... : ... .. . ... ...
ROW 59 : C-3 00 F P80 V01 ... : E-3 00 F P80 V01 ... : D#3 00 . P89 : ... .. . ... : ... .. . ... ...
ROW 5A : ... .. E ... ... ... : ... .. E ... ... ... : B-2 00 . P76 : ... .. . ... : ... .. . ... ...
ROW 5B : ... .. . ... ... ... : ... .. . ... ... ... : G-2 00 . P7C : ... .. C ... : ... .. . ... ...
ROW 5C : ... .. . ... ... ... : ... .. . ... ... ... : E-2 00 . P78 : ... .. B ... : ... .. . ... ...
ROW 5D : ... .. D ... ... ... : ... .. D ... ... ... : C#2 00 . P88 : ... .. 9 ... : ... .. . ... ...
ROW 5E : ... .. . ... ... ... : ... .. . ... ... ... : B-1 00 . P7B : ... .. 6 ... : ... .. . ... ...
ROW 5F : ... .. . ... ... ... : ... .. . ... ... ... : A-1 00 . P7A : ... .. 5 ... : ... .. . ... ...
ROW 60 : ... .. C ... ... ... : ... .. C ... ... ... : G-1 00 . P86 : ... .. 3 ... : ... .. . ... ...
ROW 61 : ... .. . ... ... ... : ... .. . ... ... ... : F-1 00 . PA2 : ... .. 1 ... : ... .. . ... ...
ROW 62 : ... .. . ... ... ... : ... .. . ... ... ... : --- .. . ... : ... .. 0 ... : ... .. . ... ...
ROW 63 : ... .. B ... ... ... : ... .. B ... ... ... : ... .. . ... : ... .. . ... : ... .. . ... ...
ROW 64 : ... .. 0 ... V00 ... : ... .. 0 ... V00 ... : ... .. . ... : D-# 00 F ... : ... .. . ... ...
ROW 65 : E-3 00 F P80 V01 ... : G-3 00 F P80 V01 ... : C-3 00 . P80 : ... .. . ... : ... .. . ... ...
ROW 66 : ... .. E ... ... ... : ... .. E ... ... ... : ... .. . ... : ... .. . ... : ... .. . ... ...
ROW 67 : ... .. . ... ... ... : ... .. . ... ... ... : ... .. . ... : ... .. C ... : ... .. . ... ...
ROW 68 : ... .. . ... ... ... : ... .. . ... ... ... : ... .. . ... : ... .. B ... : ... .. . ... ...
ROW 69 : ... .. D ... ... ... : ... .. D ... ... ... : ... .. . ... : ... .. 9 ... : ... .. . ... ...
ROW 6A : ... .. 0 ... V00 ... : ... .. 0 ... V00 ... : ... .. . ... : ... .. 6 ... : ... .. . ... ...
ROW 6B : E-3 00 F P80 V01 ... : G-3 00 F P80 V01 ... : ... .. . ... : ... .. 5 ... : ... .. . ... ...
ROW 6C : ... .. E ... ... ... : ... .. E ... ... ... : ... .. . ... : ... .. 3 ... : ... .. . ... ...
ROW 6D : ... .. . ... ... ... : ... .. . ... ... ... : ... .. . ... : ... .. 1 ... : ... .. . ... ...
ROW 6E : ... .. . ... ... ... : ... .. . ... ... ... : ... .. . ... : ... .. 0 ... : ... .. . ... ...
ROW 6F : ... .. D ... ... ... : ... .. D ... ... ... : ... .. . ... : ... .. . ... : ... .. . ... ...
ROW 70 : ... .. 0 ... V00 ... : ... .. 0 ... V00 ... : A#3 00 . P81 : 1-# 00 F ... : ... .. . ... ...
ROW 71 : E-3 00 F P80 V01 ... : G-3 00 F P80 V01 ... : D#3 00 . P89 : ... .. . ... : ... .. . ... ...
ROW 72 : ... .. E ... ... ... : ... .. E ... ... ... : B-2 00 . P76 : ... .. . ... : ... .. . ... ...
ROW 73 : ... .. . ... ... ... : ... .. . ... ... ... : G-2 00 . P7C : ... .. C ... : ... .. . ... ...
ROW 74 : ... .. . ... ... ... : ... .. . ... ... ... : E-2 00 . P78 : ... .. B ... : ... .. . ... ...
ROW 75 : ... .. D ... ... ... : ... .. D ... ... ... : C#2 00 . P88 : ... .. 9 ... : ... .. . ... ...
ROW 76 : ... .. . ... ... ... : ... .. . ... ... ... : B-1 00 . P7B : ... .. 6 ... : ... .. . ... ...
ROW 77 : ... .. . ... ... ... : ... .. . ... ... ... : A-1 00 . P7A : ... .. 5 ... : ... .. . ... ...
ROW 78 : ... .. C ... ... ... : ... .. C ... ... ... : G-1 00 . P86 : ... .. 3 ... : ... .. . ... ...
ROW 79 : ... .. . ... ... ... : ... .. . ... ... ... : F-1 00 . PA2 : ... .. 1 ... : ... .. . ... ...
ROW 7A : ... .. . ... ... ... : ... .. . ... ... ... : --- .. . ... : ... .. 0 ... : ... .. . ... ...
ROW 7B : ... .. B ... ... ... : ... .. B ... ... ... : ... .. . ... : ... .. . ... : ... .. . ... ...
ROW 7C : ... .. 0 ... V00 ... : ... .. 0 ... V00 ... : ... .. . ... : D-# 00 F ... : ... .. . ... ...
ROW 7D : C-3 00 F P80 V01 ... : E-3 00 F P80 V01 ... : C-3 00 . P80 : ... .. . ... : ... .. . ... ...
ROW 7E : ... .. E ... ... ... : ... .. E ... ... ... : ... .. . ... : ... .. . ... : ... .. . ... ...
ROW 7F : ... .. . ... ... ... : ... .. . ... ... ... : ... .. . ... : ... .. C ... : ... .. . ... ...
ROW 80 : ... .. . ... ... ... : ... .. . ... ... ... : ... .. . ... : ... .. B ... : ... .. . ... ...
ROW 81 : ... .. D ... ... ... : ... .. D ... ... ... : ... .. . ... : ... .. 9 ... : ... .. . ... ...
ROW 82 : ... .. . ... ... ... : ... .. . ... ... ... : ... .. . ... : ... .. 6 ... : ... .. . ... ...
ROW 83 : ... .. . ... ... ... : ... .. . ... ... ... : ... .. . ... : ... .. 5 ... : ... .. . ... ...
ROW 84 : ... .. C ... ... ... : ... .. C ... ... ... : ... .. . ... : ... .. 3 ... : ... .. . ... ...
ROW 85 : ... .. . ... ... ... : ... .. . ... ... ... : ... .. . ... : ... .. 1 ... : ... .. . ... ...
ROW 86 : ... .. . ... ... ... : ... .. . ... ... ... : ... .. . ... : ... .. 0 ... : ... .. . ... ...
ROW 87 : ... .. B ... ... ... : ... .. B ... ... ... : ... .. . ... : ... .. . ... : ... .. . ... ...
ROW 88 : ... .. 0 ... V00 ... : ... .. 0 ... V00 ... : A#3 00 . P81 : 4-# 00 F ... : ... .. . ... ...
ROW 89 : G-2 00 F P80 V01 ... : D-3 00 F P80 V01 ... : D#3 00 . P89 : ... .. . ... : ... .. . ... ...
ROW 8A : ... .. E ... ... ... : ... .. E ... ... ... : B-2 00 . P76 : ... .. . ... : ... .. . ... ...
ROW 8B : ... .. . ... ... ... : ... .. . ... ... ... : G-2 00 . P7C : ... .. C ... : ... .. . ... ...
ROW 8C : ... .. . ... ... ... : ... .. . ... ... ... : E-2 00 . P78 : ... .. B ... : ... .. . ... ...
ROW 8D : ... .. D ... ... ... : ... .. D ... ... ... : C#2 00 . P88 : ... .. 9 ... : ... .. . ... ...
ROW 8E : ... .. . ... ... ... : ... .. . ... ... ... : B-1 00 . P7B : ... .. 6 ... : ... .. . ... ...
ROW 8F : ... .. . ... ... ... : ... .. . ... ... ... : A-1 00 . P7A : ... .. 5 ... : ... .. . ... ...
ROW 90 : ... .. C ... ... ... : ... .. C ... ... ... : G-1 00 . P86 : ... .. 3 ... : ... .. . ... ...
ROW 91 : ... .. . ... ... ... : ... .. . ... ... ... : F-1 00 . PA2 : ... .. 1 ... : ... .. . ... ...
ROW 92 : ... .. . ... ... ... : ... .. . ... ... ... : --- .. . ... : ... .. 0 ... : ... .. . ... ...
ROW 93 : ... .. B ... ... ... : ... .. B ... ... ... : ... .. . ... : ... .. . ... : ... .. . ... ...
ROW 94 : ... .. 0 ... V00 ... : ... .. 0 ... V00 ... : ... .. . ... : D-# 00 F ... : ... .. . ... ...
ROW 95 : C-3 00 F P80 V01 ... : E-3 00 F P80 V01 ... : C-3 00 . P80 : ... .. . ... : ... .. . ... ...
ROW 96 : ... .. E ... ... ... : ... .. E ... ... ... : ... .. . ... : ... .. . ... : ... .. . ... ...
ROW 97 : ... .. . ... ... ... : ... .. . ... ... ... : ... .. . ... : ... .. C ... : ... .. . ... ...
ROW 98 : ... .. . ... ... ... : ... .. . ... ... ... : ... .. . ... : ... .. B ... : ... .. . ... ...
ROW 99 : ... .. D ... ... ... : ... .. D ... ... ... : ... .. . ... : ... .. 9 ... : ... .. . ... ...
ROW 9A : ... .. . ... ... ... : ... .. . ... ... ... : ... .. . ... : ... .. 6 ... : ... .. . ... ...
ROW 9B : ... .. . ... ... ... : ... .. . ... ... ... : ... .. . ... : ... .. 5 ... : ... .. . ... ...
ROW 9C : ... .. C ... ... ... : ... .. C ... ... ... : ... .. . ... : ... .. 3 ... : ... .. . ... ...
ROW 9D : ... .. . ... ... ... : ... .. . ... ... ... : ... .. . ... : ... .. 1 ... : ... .. . ... ...
ROW 9E : ... .. . ... ... ... : ... .. . ... ... ... : ... .. . ... : ... .. 0 ... : ... .. . ... ...
ROW 9F : ... .. B ... ... ... : ... .. B ... ... ... : ... .. . ... : ... .. . ... : ... .. . ... ...
ROW A0 : ... .. 0 ... V00 ... : ... .. 0 ... V00 ... : A#3 00 . P81 : 1-# 00 F ... : ... .. . ... ...
ROW A1 : F-3 00 F P80 V01 ... : A-3 00 F P80 V01 ... : D#3 00 . P89 : ... .. . ... : ... .. . ... ...
ROW A2 : ... .. E ... ... ... : ... .. E ... ... ... : B-2 00 . P76 : ... .. . ... : ... .. . ... ...
ROW A3 : ... .. . ... ... ... : ... .. . ... ... ... : G-2 00 . P7C : ... .. C ... : ... .. . ... ...
ROW A4 : ... .. . ... ... ... : ... .. . ... ... ... : E-2 00 . P78 : ... .. B ... : ... .. . ... ...
ROW A5 : ... .. D ... ... ... : ... .. D ... ... ... : C#2 00 . P88 : ... .. 9 ... : ... .. . ... ...
ROW A6 : ... .. . ... ... ... : ... .. . ... ... ... : B-1 00 . P7B : ... .. 6 ... : ... .. . ... ...
ROW A7 : ... .. . ... ... ... : ... .. . ... ... ... : A-1 00 . P7A : ... .. 5 ... : ... .. . ... ...
ROW A8 : ... .. C ... ... ... : ... .. C ... ... ... : G-1 00 . P86 : ... .. 3 ... : ... .. . ... ...
ROW A9 : ... .. . ... ... ... : ... .. . ... ... ... : F-1 00 . PA2 : ... .. 1 ... : ... .. . ... ...
ROW AA : ... .. . ... ... ... : ... .. . ... ... ... : --- .. . ... : ... .. 0 ... : ... .. . ... ...
ROW AB : ... .. B ... ... ... : ... .. B ... ... ... : ... .. . ... : ... .. . ... : ... .. . ... ...
ROW AC : ... .. . ... ... ... : ... .. . ... ... ... : ... .. . ... : D-# 00 F ... : ... .. . ... ...
ROW AD : ... .. . ... ... ... : ... .. . ... ... ... : F-2 00 . P80 : ... .. . ... : ... .. . ... ...
ROW AE : ... .. A ... ... ... : ... .. A ... ... ... : ... .. . ... : ... .. . ... : ... .. . ... ...
ROW AF : ... .. . ... ... ... : ... .. . ... ... ... : ... .. . ... : ... .. C ... : ... .. . ... ...
ROW B0 : ... .. . ... ... ... : ... .. . ... ... ... : ... .. . ... : ... .. B ... : ... .. . ... ...
ROW B1 : ... .. 9 ... ... ... : ... .. 9 ... ... ... : ... .. . ... : ... .. 9 ... : ... .. . ... ...
ROW B2 : ... .. . ... ... ... : ... .. . ... ... ... : ... .. . ... : ... .. 6 ... : ... .. . ... ...
ROW B3 : ... .. . ... ... ... : ... .. . ... ... ... : ... .. . ... : ... .. 5 ... : ... .. . ... ...
ROW B4 : ... .. 8 ... ... ... : ... .. 8 ... ... ... : ... .. . ... : ... .. 3 ... : ... .. . ... ...
ROW B5 : ... .. . ... ... ... : ... .. . ... ... ... : ... .. . ... : ... .. 1 ... : ... .. . ... ...
ROW B6 : ... .. 7 ... ... ... : ... .. 7 ... ... ... : ... .. . ... : ... .. 0 ... : ... .. . ... ...
ROW B7 : ... .. . ... ... ... : ... .. . ... ... ... : ... .. . ... : ... .. . ... : ... .. . ... ...
ROW B8 : ... .. 0 ... V00 ... : ... .. 0 ... V00 ... : A#3 00 . P81 : 4-# 00 F ... : ... .. . ... ...
ROW B9 : F-3 00 F P80 V01 ... : A-3 00 F P80 V01 ... : D#3 00 . P89 : ... .. . ... : ... .. . ... ...
ROW BA : ... .. E ... ... ... : ... .. E ... ... ... : B-2 00 . P76 : ... .. . ... : ... .. . ... ...
ROW BB : ... .. . ... ... ... : ... .. . ... ... ... : G-2 00 . P7C : ... .. C ... : ... .. . ... ...
ROW BC : ... .. . ... ... ... : ... .. . ... ... ... : E-2 00 . P78 : ... .. B ... : ... .. . ... ...
ROW BD : ... .. D ... ... ... : ... .. D ... ... ... : C#2 00 . P88 : ... .. 9 ... : ... .. . ... ...
ROW BE : ... .. . ... ... ... : ... .. . ... ... ... : B-1 00 . P7B : ... .. 6 ... : ... .. . ... ...
ROW BF : ... .. . ... ... ... : ... .. . ... ... ... : A-1 00 . P7A : ... .. 5 ... : ... .. . ... ...
ROW C0 : ... .. C ... ... ... : ... .. C ... ... ... : G-1 00 . P86 : ... .. 3 ... : ... .. . ... ...
ROW C1 : ... .. . ... ... ... : ... .. . ... ... ... : F-1 00 . PA2 : ... .. 1 ... : ... .. . ... ...
ROW C2 : ... .. . ... ... ... : ... .. . ... ... ... : --- .. . ... : ... .. 0 ... : ... .. . ... ...
ROW C3 : ... .. B ... ... ... : ... .. B ... ... ... : ... .. . ... : ... .. . ... : ... .. . ... ...
ROW C4 : ... .. 0 ... V00 ... : ... .. 0 ... V00 ... : ... .. . ... : D-# 00 F ... : ... .. . ... ...
ROW C5 : G-3 00 F P80 V01 ... : B-3 00 F P80 V01 ... : F-2 00 . P80 : ... .. . ... : ... .. . ... ...
ROW C6 : ... .. E ... ... ... : ... .. E ... ... ... : ... .. . ... : ... .. . ... : ... .. . ... ...
ROW C7 : ... .. . ... ... ... : ... .. . ... ... ... : ... .. . ... : ... .. C ... : ... .. . ... ...
ROW C8 : ... .. . ... ... ... : ... .. . ... ... ... : ... .. . ... : ... .. B ... : ... .. . ... ...
ROW C9 : ... .. D ... ... ... : ... .. D ... ... ... : ... .. . ... : ... .. 9 ... : ... .. . ... ...
ROW CA : ... .. 0 ... V00 ... : ... .. 0 ... V00 ... : ... .. . ... : ... .. 6 ... : ... .. . ... ...
ROW CB : G-3 00 F P80 V01 ... : B-3 00 F P80 V01 ... : ... .. . ... : ... .. 5 ... : ... .. . ... ...
ROW CC : ... .. E ... ... ... : ... .. E ... ... ... : ... .. . ... : ... .. 3 ... : ... .. . ... ...
ROW CD : ... .. . ... ... ... : ... .. . ... ... ... : ... .. . ... : ... .. 1 ... : ... .. . ... ...
ROW CE : ... .. . ... ... ... : ... .. . ... ... ... : ... .. . ... : ... .. 0 ... : ... .. . ... ...
ROW CF : ... .. D ... ... ... : ... .. D ... ... ... : ... .. . ... : ... .. . ... : ... .. . ... ...
ROW D0 : ... .. 0 ... V00 ... : ... .. 0 ... V00 ... : A#3 00 . P81 : 1-# 00 F ... : ... .. . ... ...
ROW D1 : G-3 00 F P80 V01 ... : C-4 00 F P80 V01 ... : D#3 00 . P89 : ... .. . ... : ... .. . ... ...
ROW D2 : ... .. E ... ... ... : ... .. E ... ... ... : B-2 00 . P76 : ... .. . ... : ... .. . ... ...
ROW D3 : ... .. . ... ... ... : ... .. . ... ... ... : G-2 00 . P7C : ... .. C ... : ... .. . ... ...
ROW D4 : ... .. . ... ... ... : ... .. . ... ... ... : E-2 00 . P78 : ... .. B ... : ... .. . ... ...
ROW D5 : ... .. D ... ... ... : ... .. D ... ... ... : C#2 00 . P88 : ... .. 9 ... : ... .. . ... ...
ROW D6 : ... .. . ... ... ... : ... .. . ... ... ... : B-1 00 . P7B : ... .. 6 ... : ... .. . ... ...
ROW D7 : ... .. . ... ... ... : ... .. . ... ... ... : A-1 00 . P7A : ... .. 5 ... : ... .. . ... ...
ROW D8 : ... .. C ... ... ... : ... .. C ... ... ... : G-1 00 . P86 : ... .. 3 ... : ... .. . ... ...
ROW D9 : ... .. . ... ... ... : ... .. . ... ... ... : F-1 00 . PA2 : ... .. 1 ... : ... .. . ... ...
ROW DA : ... .. . ... ... ... : ... .. . ... ... ... : --- .. . ... : ... .. 0 ... : ... .. . ... ...
ROW DB : ... .. B ... ... ... : ... .. B ... ... ... : ... .. . ... : ... .. . ... : ... .. . ... ...
ROW DC : ... .. 0 ... V00 ... : ... .. 0 ... V00 ... : ... .. . ... : D-# 00 F ... : ... .. . ... ...
ROW DD : E-3 00 F P80 V01 ... : G-3 00 F P80 V01 ... : G-2 00 . P80 : ... .. . ... : ... .. . ... ...
ROW DE : ... .. E ... ... ... : ... .. E ... ... ... : ... .. . ... : ... .. . ... : ... .. . ... ...
ROW DF : ... .. . ... ... ... : ... .. . ... ... ... : ... .. . ... : ... .. C ... : ... .. . ... ...
ROW E0 : ... .. . ... ... ... : ... .. . ... ... ... : ... .. . ... : ... .. B ... : ... .. . ... ...
ROW E1 : ... .. D ... ... ... : ... .. D ... ... ... : ... .. . ... : ... .. 9 ... : ... .. . ... ...
ROW E2 : ... .. . ... ... ... : ... .. . ... ... ... : ... .. . ... : ... .. 6 ... : ... .. . ... ...
ROW E3 : ... .. . ... ... ... : ... .. . ... ... ... : ... .. . ... : ... .. 5 ... : ... .. . ... ...
ROW E4 : ... .. C ... ... ... : ... .. C ... ... ... : ... .. . ... : ... .. 3 ... : ... .. . ... ...
ROW E5 : ... .. . ... ... ... : ... .. . ... ... ... : ... .. . ... : ... .. 1 ... : ... .. . ... ...
ROW E6 : ... .. . ... ... ... : ... .. . ... ... ... : ... .. . ... : ... .. 0 ... : ... .. . ... ...
ROW E7 : ... .. B ... ... ... : ... .. B ... ... ... : ... .. . ... : ... .. . ... : ... .. . ... ...
ROW E8 : ... .. 0 ... V00 ... : ... .. 0 ... V00 ... : A#3 00 . P81 : 4-# 00 F ... : ... .. . ... ...
ROW E9 : C-3 00 F P80 V01 ... : F-3 00 F P80 V01 ... : D#3 00 . P89 : ... .. . ... : ... .. . ... ...
ROW EA : ... .. E ... ... ... : ... .. E ... ... ... : B-2 00 . P76 : ... .. . ... : ... .. . ... ...
ROW EB : ... .. . ... ... ... : ... .. . ... ... ... : G-2 00 . P7C : ... .. C ... : ... .. . ... ...
ROW EC : ... .. . ... ... ... : ... .. . ... ... ... : E-2 00 . P78 : ... .. B ... : ... .. . ... ...
ROW ED : ... .. D ... ... ... : ... .. D ... ... ... : C#2 00 . P88 : ... .. 9 ... : ... .. . ... ...
ROW EE : ... .. . ... ... ... : ... .. . ... ... ... : B-1 00 . P7B : ... .. 6 ... : ... .. . ... ...
ROW EF : ... .. . ... ... ... : ... .. . ... ... ... : A-1 00 . P7A : ... .. 5 ... : ... .. . ... ...
ROW F0 : ... .. C ... ... ... : ... .. C ... ... ... : G-1 00 . P86 : ... .. 3 ... : ... .. . ... ...
ROW F1 : ... .. . ... ... ... : ... .. . ... ... ... : F-1 00 . PA2 : ... .. 1 ... : ... .. . ... ...
ROW F2 : ... .. . ... ... ... : ... .. . ... ... ... : --- .. . ... : ... .. 0 ... : ... .. . ... ...
ROW F3 : ... .. B ... ... ... : ... .. B ... ... ... : ... .. . ... : ... .. . ... : ... .. . ... ...
ROW F4 : ... .. 0 ... V00 ... : ... .. 0 ... V00 ... : ... .. . ... : D-# 00 F ... : ... .. . ... ...
ROW F5 : E-3 00 F P80 V01 ... : G-3 00 F P80 V01 ... : G-2 00 . P80 : ... .. . ... : ... .. . ... ...
ROW F6 : ... .. E ... ... ... : ... .. E ... ... ... : ... .. . ... : ... .. . ... : ... .. . ... ...
ROW F7 : ... .. . ... ... ... : ... .. . ... ... ... : ... .. . ... : ... .. C ... : ... .. . ... ...
ROW F8 : ... .. . ... ... ... : ... .. . ... ... ... : ... .. . ... : ... .. B ... : ... .. . ... ...
ROW F9 : ... .. D ... ... ... : ... .. D ... ... ... : ... .. . ... : ... .. 9 ... : ... .. . ... ...
ROW FA : ... .. . ... ... ... : ... .. . ... ... ... : ... .. . ... : ... .. 6 ... : ... .. . ... ...
ROW FB : ... .. . ... ... ... : ... .. . ... ... ... : ... .. . ... : ... .. 5 ... : ... .. . ... ...
ROW FC : ... .. C ... ... ... : ... .. C ... ... ... : ... .. . ... : ... .. 3 ... : ... .. . ... ...
ROW FD : ... .. . ... ... ... : ... .. . ... ... ... : ... .. . ... : ... .. 1 ... : ... .. . ... ...
ROW FE : ... .. . ... ... ... : ... .. . ... ... ... : ... .. . ... : ... .. 0 ... : ... .. . ... ...
ROW FF : ... .. B ... ... ... : ... .. B ... ... ... : ... .. . ... : ... .. . ... : ... .. . ... ...

PATTERN 15
ROW 00 : ... .. 0 ... V00 ... : ... .. 0 ... V00 ... : A#3 00 . P81 : 1-# 00 F ... : ... .. . ... ...
ROW 01 : G-2 00 F P80 V01 ... : C-3 00 F P80 V01 ... : D#3 00 . P89 : ... .. . ... : ... .. . ... ...
ROW 02 : ... .. E ... ... ... : ... .. E ... ... ... : B-2 00 . P76 : ... .. . ... : ... .. . ... ...
ROW 03 : ... .. . ... ... ... : ... .. . ... ... ... : G-2 00 . P7C : ... .. C ... : ... .. . ... ...
ROW 04 : ... .. . ... ... ... : ... .. . ... ... ... : E-2 00 . P78 : ... .. B ... : ... .. . ... ...
ROW 05 : ... .. D ... ... ... : ... .. D ... ... ... : C#2 00 . P88 : ... .. 9 ... : ... .. . ... ...
ROW 06 : ... .. . ... ... ... : ... .. . ... ... ... : B-1 00 . P7B : ... .. 6 ... : ... .. . ... ...
ROW 07 : ... .. . ... ... ... : ... .. . ... ... ... : A-1 00 . P7A : ... .. 5 ... : ... .. . ... ...
ROW 08 : ... .. C ... ... ... : ... .. C ... ... ... : G-1 00 . P86 : ... .. 3 ... : ... .. . ... ...
ROW 09 : ... .. . ... ... ... : ... .. . ... ... ... : F-1 00 . PA2 : ... .. 1 ... : ... .. . ... ...
ROW 0A : ... .. . ... ... ... : ... .. . ... ... ... : --- .. . ... : ... .. 0 ... : ... .. . ... ...
ROW 0B : ... .. B ... ... ... : ... .. B ... ... ... : ... .. . ... : ... .. . ... : ... .. . ... ...
ROW 0C : ... .. . ... ... ... : ... .. . ... ... ... : ... .. . ... : D-# 00 F ... : ... .. . ... ...
ROW 0D : ... .. . ... ... ... : ... .. . ... ... ... : C-3 00 . P80 : ... .. . ... : ... .. . ... ...
ROW 0E : ... .. A ... ... ... : ... .. A ... ... ... : ... .. . ... : ... .. . ... : ... .. . ... ...
ROW 0F : ... .. . ... ... ... : ... .. . ... ... ... : ... .. . ... : ... .. C ... : ... .. . ... ...
ROW 10 : ... .. . ... ... ... : ... .. . ... ... ... : ... .. . ... : ... .. B ... : ... .. . ... ...
ROW 11 : ... .. 9 ... ... ... : ... .. 9 ... ... ... : ... .. . ... : ... .. 9 ... : ... .. . ... ...
ROW 12 : ... .. . ... ... ... : ... .. . ... ... ... : ... .. . ... : ... .. 6 ... : ... .. . ... ...
ROW 13 : ... .. . ... ... ... : ... .. . ... ... ... : ... .. . ... : ... .. 5 ... : ... .. . ... ...
ROW 14 : ... .. 8 ... ... ... : ... .. 8 ... ... ... : ... .. . ... : ... .. 3 ... : ... .. . ... ...
ROW 15 : ... .. . ... ... ... : ... .. . ... ... ... : ... .. . ... : ... .. 1 ... : ... .. . ... ...
ROW 16 : ... .. 7 ... ... ... : ... .. 7 ... ... ... : ... .. . ... : ... .. 0 ... : ... .. . ... ...
ROW 17 : ... .. . ... ... ... : ... .. . ... ... ... : ... .. . ... : ... .. . ... : ... .. . ... ...
ROW 18 : ... .. 0 ... V00 ... : ... .. 0 ... V00 ... : A#3 00 . P81 : 4-# 00 F ... : ... .. . ... ...
ROW 19 : C-3 00 F P80 V01 ... : E-3 00 F P80 V01 ... : D#3 00 . P89 : ... .. . ... : ... .. . ... ...
ROW 1A : ... .. E ... ... ... : ... .. E ... ... ... : B-2 00 . P76 : ... .. . ... : ... .. . ... ...
ROW 1B : ... .. . ... ... ... : ... .. . ... ... ... : G-2 00 . P7C : ... .. C ... : ... .. . ... ...
ROW 1C : ... .. . ... ... ... : ... .. . ... ... ... : E-2 00 . P78 : ... .. B ... : ... .. . ... ...
ROW 1D : ... .. D ... ... ... : ... .. D ... ... ... : C#2 00 . P88 : ... .. 9 ... : ... .. . ... ...
ROW 1E : ... .. . ... ... ... : ... .. . ... ... ... : B-1 00 . P7B : ... .. 6 ... : ... .. . ... ...
ROW 1F : ... .. . ... ... ... : ... .. . ... ... ... : A-1 00 . P7A : ... .. 5 ... : ... .. . ... ...
ROW 20 : ... .. C ... ... ... : ... .. C ... ... ... : G-1 00 . P86 : ... .. 3 ... : ... .. . ... ...
ROW 21 : ... .. . ... ... ... : ... .. . ... ... ... : F-1 00 . PA2 : ... .. 1 ... : ... .. . ... ...
ROW 22 : ... .. . ... ... ... : ... .. . ... ... ... : --- .. . ... : ... .. 0 ... : ... .. . ... ...
ROW 23 : ... .. B ... ... ... : ... .. B ... ... ... : ... .. . ... : ... .. . ... : ... .. . ... ...
ROW 24 : ... .. 0 ... V00 ... : ... .. 0 ... V00 ... : ... .. . ... : D-# 00 F ... : ... .. . ... ...
ROW 25 : E-3 00 F P80 V01 ... : G-3 00 F P80 V01 ... : C-3 00 . P80 : ... .. . ... : ... .. . ... ...
ROW 26 : ... .. E ... ... ... : ... .. E ... ... ... : ... .. . ... : ... .. . ... : ... .. . ... ...
ROW 27 : ... .. . ... ... ... : ... .. . ... ... ... : ... .. . ... : ... .. C ... : ... .. . ... ...
ROW 28 : ... .. . ... ... ... : ... .. . ... ... ... : ... .. . ... : ... .. B ... : ... .. . ... ...
ROW 29 : ... .. D ... ... ... : ... .. D ... ... ... : ... .. . ... : ... .. 9 ... : ... .. . ... ...
ROW 2A : ... .. 0 ... V00 ... : ... .. 0 ... V00 ... : ... .. . ... : ... .. 6 ... : ... .. . ... ...
ROW 2B : E-3 00 F P80 V01 ... : G-3 00 F P80 V01 ... : ... .. . ... : ... .. 5 ... : ... .. . ... ...
ROW 2C : ... .. E ... ... ... : ... .. E ... ... ... : ... .. . ... : ... .. 3 ... : ... .. . ... ...
ROW 2D : ... .. . ... ... ... : ... .. . ... ... ... : ... .. . ... : ... .. 1 ... : ... .. . ... ...
ROW 2E : ... .. . ... ... ... : ... .. . ... ... ... : ... .. . ... : ... .. 0 ... : ... .. . ... ...
ROW 2F : ... .. D ... ... ... : ... .. D ... ... ... : ... .. . ... : ... .. . ... : ... .. . ... ...
ROW 30 : ... .. 0 ... V00 ... : ... .. 0 ... V00 ... : A#3 00 . P81 : 1-# 00 F ... : ... .. . ... ...
ROW 31 : E-3 00 F P80 V01 ... : G-3 00 F P80 V01 ... : D#3 00 . P89 : ... .. . ... : ... .. . ... ...
ROW 32 : ... .. E ... ... ... : ... .. E ... ... ... : B-2 00 . P76 : ... .. . ... : ... .. . ... ...
ROW 33 : ... .. . ... ... ... : ... .. . ... ... ... : G-2 00 . P7C : ... .. C ... : ... .. . ... ...
ROW 34 : ... .. . ... ... ... : ... .. . ... ... ... : E-2 00 . P78 : ... .. B ... : ... .. . ... ...
ROW 35 : ... .. D ... ... ... : ... .. D ... ... ... : C#2 00 . P88 : ... .. 9 ... : ... .. . ... ...
ROW 36 : ... .. . ... ... ... : ... .. . ... ... ... : B-1 00 . P7B : ... .. 6 ... : ... .. . ... ...
ROW 37 : ... .. . ... ... ... : ... .. . ... ... ... : A-1 00 . P7A : ... .. 5 ... : ... .. . ... ...
ROW 38 : ... .. C ... ... ... : ... .. C ... ... ... : G-1 00 . P86 : ... .. 3 ... : ... .. . ... ...
ROW 39 : ... .. . ... ... ... : ... .. . ... ... ... : F-1 00 . PA2 : ... .. 1 ... : ... .. . ... ...
ROW 3A : ... .. . ... ... ... : ... .. . ... ... ... : --- .. . ... : ... .. 0 ... : ... .. . ... ...
ROW 3B : ... .. B ... ... ... : ... .. B ... ... ... : ... .. . ... : ... .. . ... : ... .. . ... ...
ROW 3C : ... .. 0 ... V00 ... : ... .. 0 ... V00 ... : ... .. . ... : D-# 00 F ... : ... .. . ... ...
ROW 3D : C-3 00 F P80 V01 ... : E-3 00 F P80 V01 ... : C-3 00 . P80 : ... .. . ... : ... .. . ... ...
ROW 3E : ... .. E ... ... ... : ... .. E ... ... ... : ... .. . ... : ... .. . ... : ... .. . ... ...
ROW 3F : ... .. . ... ... ... : ... .. . ... ... ... : ... .. . ... : ... .. C ... : ... .. . ... ...
ROW 40 : ... .. . ... ... ... : ... .. . ... ... ... : ... .. . ... : ... .. B ... : ... .. . ... ...
ROW 41 : ... .. D ... ... ... : ... .. D ... ... ... : ... .. . ... : ... .. 9 ... : ... .. . ... ...
ROW 42 : ... .. . ... ... ... : ... .. . ... ... ... : ... .. . ... : ... .. 6 ... : ... .. . ... ...
ROW 43 : ... .. . ... ... ... : ... .. . ... ... ... : ... .. . ... : ... .. 5 ... : ... .. . ... ...
ROW 44 : ... .. C ... ... ... : ... .. C ... ... ... : ... .. . ... : ... .. 3 ... : ... .. . ... ...
ROW 45 : ... .. . ... ... ... : ... .. . ... ... ... : ... .. . ... : ... .. 1 ... : ... .. . ... ...
ROW 46 : ... .. . ... ... ... : ... .. . ... ... ... : ... .. . ... : ... .. 0 ... : ... .. . ... ...
ROW 47 : ... .. B ... ... ... : ... .. B ... ... ... : ... .. . ... : ... .. . ... : ... .. . ... ...
ROW 48 : ... .. 0 ... V00 ... : ... .. 0 ... V00 ... : A#3 00 . P81 : 4-# 00 F ... : ... .. . ... ...
ROW 49 : G-2 00 F P80 V01 ... : D-3 00 F P80 V01 ... : D#3 00 . P89 : ... .. . ... : ... .. . ... ...
ROW 4A : ... .. E ... ... ... : ... .. E ... ... ... : B-2 00 . P76 : ... .. . ... : ... .. . ... ...
ROW 4B : ... .. . ... ... ... : ... .. . ... ... ... : G-2 00 . P7C : ... .. C ... : ... .. . ... ...
ROW 4C : ... .. . ... ... ... : ... .. . ... ... ... : E-2 00 . P78 : ... .. B ... : ... .. . ... ...
ROW 4D : ... .. D ... ... ... : ... .. D ... ... ... : C#2 00 . P88 : ... .. 9 ... : ... .. . ... ...
ROW 4E : ... .. . ... ... ... : ... .. . ... ... ... : B-1 00 . P7B : ... .. 6 ... : ... .. . ... ...
ROW 4F : ... .. . ... ... ... : ... .. . ... ... ... : A-1 00 . P7A : ... .. 5 ... : ... .. . ... ...
ROW 50 : ... .. C ... ... ... : ... .. C ... ... ... : G-1 00 . P86 : ... .. 3 ... : ... .. . ... ...
ROW 51 : ... .. . ... ... ... : ... .. . ... ... ... : F-1 00 . PA2 : ... .. 1 ... : ... .. . ... ...
ROW 52 : ... .. . ... ... ... : ... .. . ... ... ... : --- .. . ... : ... .. 0 ... : ... .. . ... ...
ROW 53 : ... .. B ... ... ... : ... .. B ... ... ... : ... .. . ... : ... .. . ... : ... .. . ... ...
ROW 54 : ... .. 0 ... V00 ... : ... .. 0 ... V00 ... : ... .. . ... : D-# 00 F ... : ... .. . ... ...
ROW 55 : C-3 00 F P80 V01 ... : E-3 00 F P80 V01 ... : C-3 00 . P80 : ... .. . ... : ... .. . ... ...
ROW 56 : ... .. E ... ... ... : ... .. E ... ... ... : ... .. . ... : ... .. . ... : ... .. . ... ...
ROW 57 : ... .. . ... ... ... : ... .. . ... ... ... : ... .. . ... : ... .. C ... : ... .. . ... ...
ROW 58 : ... .. . ... ... ... : ... .. . ... ... ... : ... .. . ... : ... .. B ... : ... .. . ... ...
ROW 59 : ... .. D ... ... ... : ... .. D ... ... ... : ... .. . ... : ... .. 9 ... : ... .. . ... ...
ROW 5A : ... .. . ... ... ... : ... .. . ... ... ... : ... .. . ... : ... .. 6 ... : ... .. . ... ...
ROW 5B : ... .. . ... ... ... : ... .. . ... ... ... : ... .. . ... : ... .. 5 ... : ... .. . ... ...
ROW 5C : ... .. C ... ... ... : ... .. C ... ... ... : ... .. . ... : ... .. 3 ... : ... .. . ... ...
ROW 5D : ... .. . ... ... ... : ... .. . ... ... ... : ... .. . ... : ... .. 1 ... : ... .. . ... ...
ROW 5E : ... .. . ... ... ... : ... .. . ... ... ... : ... .. . ... : ... .. 0 ... : ... .. . ... ...
ROW 5F : ... .. B ... ... ... : ... .. B ... ... ... : ... .. . ... : ... .. . ... : ... .. . ... ...
ROW 60 : ... .. 0 ... V00 ... : ... .. 0 ... V00 ... : A#3 00 . P81 : 1-# 00 F ... : ... .. . ... ...
ROW 61 : F-3 00 F P80 V01 ... : A-3 00 F P80 V01 ... : D#3 00 . P89 : ... .. . ... : ... .. . ... ...
ROW 62 : ... .. E ... ... ... : ... .. E ... ... ... : B-2 00 . P76 : ... .. . ... : ... .. . ... ...
ROW 63 : ... .. . ... ... ... : ... .. . ... ... ... : G-2 00 . P7C : ... .. C ... : ... .. . ... ...
ROW 64 : ... .. . ... ... ... : ... .. . ... ... ... : E-2 00 . P78 : ... .. B ... : ... .. . ... ...
ROW 65 : ... .. D ... ... ... : ... .. D ... ... ... : C#2 00 . P88 : ... .. 9 ... : ... .. . ... ...
ROW 66 : ... .. . ... ... ... : ... .. . ... ... ... : B-1 00 . P7B : ... .. 6 ... : ... .. . ... ...
ROW 67 : ... .. . ... ... ... : ... .. . ... ... ... : A-1 00 . P7A : ... .. 5 ... : ... .. . ... ...
ROW 68 : ... .. C ... ... ... : ... .. C ... ... ... : G-1 00 . P86 : ... .. 3 ... : ... .. . ... ...
ROW 69 : ... .. . ... ... ... : ... .. . ... ... ... : F-1 00 . PA2 : ... .. 1 ... : ... .. . ... ...
ROW 6A : ... .. . ... ... ... : ... .. . ... ... ... : --- .. . ... : ... .. 0 ... : ... .. . ... ...
ROW 6B : ... .. B ... ... ... : ... .. B ... ... ... : ... .. . ... : ... .. . ... : ... .. . ... ...
ROW 6C : ... .. . ... ... ... : ... .. . ... ... ... : ... .. . ... : D-# 00 F ... : ... .. . ... ...
ROW 6D : ... .. . ... ... ... : ... .. . ... ... ... : F-2 00 . P80 : ... .. . ... : ... .. . ... ...
ROW 6E : ... .. A ... ... ... : ... .. A ... ... ... : ... .. . ... : ... .. . ... : ... .. . ... ...
ROW 6F : ... .. . ... ... ... : ... .. . ... ... ... : ... .. . ... : ... .. C ... : ... .. . ... ...
ROW 70 : ... .. . ... ... ... : ... .. . ... ... ... : ... .. . ... : ... .. B ... : ... .. . ... ...
ROW 71 : ... .. 9 ... ... ... : ... .. 9 ... ... ... : ... .. . ... : ... .. 9 ... : ... .. . ... ...
ROW 72 : ... .. . ... ... ... : ... .. . ... ... ... : ... .. . ... : ... .. 6 ... : ... .. . ... ...
ROW 73 : ... .. . ... ... ... : ... .. . ... ... ... : ... .. . ... : ... .. 5 ... : ... .. . ... ...
ROW 74 : ... .. 8 ... ... ... : ... .. 8 ... ... ... : ... .. . ... : ... .. 3 ... : ... .. . ... ...
ROW 75 : ... .. . ... ... ... : ... .. . ... ... ... : ... .. . ... : ... .. 1 ... : ... .. . ... ...
ROW 76 : ... .. 7 ... ... ... : ... .. 7 ... ... ... : ... .. . ... : ... .. 0 ... : ... .. . ... ...
ROW 77 : ... .. . ... ... ... : ... .. . ... ... ... : ... .. . ... : ... .. . ... : ... .. . ... ...
ROW 78 : ... .. 0 ... V00 ... : ... .. 0 ... V00 ... : A#3 00 . P81 : 4-# 00 F ... : ... .. . ... ...
ROW 79 : F-3 00 F P80 V01 ... : A-3 00 F P80 V01 ... : D#3 00 . P89 : ... .. . ... : ... .. . ... ...
ROW 7A : ... .. E ... ... ... : ... .. E ... ... ... : B-2 00 . P76 : ... .. . ... : ... .. . ... ...
ROW 7B : ... .. . ... ... ... : ... .. . ... ... ... : G-2 00 . P7C : ... .. C ... : ... .. . ... ...
ROW 7C : ... .. . ... ... ... : ... .. . ... ... ... : E-2 00 . P78 : ... .. B ... : ... .. . ... ...
ROW 7D : ... .. D ... ... ... : ... .. D ... ... ... : C#2 00 . P88 : ... .. 9 ... : ... .. . ... ...
ROW 7E : ... .. . ... ... ... : ... .. . ... ... ... : B-1 00 . P7B : ... .. 6 ... : ... .. . ... ...
ROW 7F : ... .. . ... ... ... : ... .. . ... ... ... : A-1 00 . P7A : ... .. 5 ... : ... .. . ... ...
ROW 80 : ... .. C ... ... ... : ... .. C ... ... ... : G-1 00 . P86 : ... .. 3 ... : ... .. . ... ...
ROW 81 : ... .. . ... ... ... : ... .. . ... ... ... : F-1 00 . PA2 : ... .. 1 ... : ... .. . ... ...
ROW 82 : ... .. . ... ... ... : ... .. . ... ... ... : --- .. . ... : ... .. 0 ... : ... .. . ... ...
ROW 83 : ... .. B ... ... ... : ... .. B ... ... ... : ... .. . ... : ... .. . ... : ... .. . ... ...
ROW 84 : ... .. 0 ... V00 ... : ... .. 0 ... V00 ... : ... .. . ... : D-# 00 F ... : ... .. . ... ...
ROW 85 : E-3 00 F P80 V01 ... : G-3 00 F P80 V01 ... : F-2 00 . P80 : ... .. . ... : ... .. . ... ...
ROW 86 : ... .. E ... ... ... : ... .. E ... ... ... : ... .. . ... : ... .. . ... : ... .. . ... ...
ROW 87 : ... .. . ... ... ... : ... .. . ... ... ... : ... .. . ... : ... .. C ... : ... .. . ... ...
ROW 88 : ... .. . ... ... ... : ... .. . ... ... ... : ... .. . ... : ... .. B ... : ... .. . ... ...
ROW 89 : ... .. D ... ... ... : ... .. D ... ... ... : ... .. . ... : ... .. 9 ... : ... .. . ... ...
ROW 8A : ... .. 0 ... V00 ... : ... .. 0 ... V00 ... : ... .. . ... : ... .. 6 ... : ... .. . ... ...
ROW 8B : E-3 00 F P80 V01 ... : G-3 00 F P80 V01 ... : ... .. . ... : ... .. 5 ... : ... .. . ... ...
ROW 8C : ... .. E ... ... ... : ... .. E ... ... ... : ... .. . ... : ... .. 3 ... : ... .. . ... ...
ROW 8D : ... .. . ... ... ... : ... .. . ... ... ... : ... .. . ... : ... .. 1 ... : ... .. . ... ...
ROW 8E : ... .. . ... ... ... : ... .. . ... ... ... : ... .. . ... : ... .. 0 ... : ... .. . ... ...
ROW 8F : ... .. D ... ... ... : ... .. D ... ... ... : ... .. . ... : ... .. . ... : ... .. . ... ...
ROW 90 : ... .. 0 ... V00 ... : ... .. 0 ... V00 ... : A#3 00 . P81 : 1-# 00 F ... : ... .. . ... ...
ROW 91 : E-3 00 F P80 V01 ... : G-3 00 F P80 V01 ... : D#3 00 . P89 : ... .. . ... : ... .. . ... ...
ROW 92 : ... .. E ... ... ... : ... .. E ... ... ... : B-2 00 . P76 : ... .. . ... : ... .. . ... ...
ROW 93 : ... .. . ... ... ... : ... .. . ... ... ... : G-2 00 . P7C : ... .. C ... : ... .. . ... ...
ROW 94 : ... .. . ... ... ... : ... .. . ... ... ... : E-2 00 . P78 : ... .. B ... : ... .. . ... ...
ROW 95 : ... .. D ... ... ... : ... .. D ... ... ... : C#2 00 . P88 : ... .. 9 ... : ... .. . ... ...
ROW 96 : ... .. . ... ... ... : ... .. . ... ... ... : B-1 00 . P7B : ... .. 6 ... : ... .. . ... ...
ROW 97 : ... .. . ... ... ... : ... .. . ... ... ... : A-1 00 . P7A : ... .. 5 ... : ... .. . ... ...
ROW 98 : ... .. C ... ... ... : ... .. C ... ... ... : G-1 00 . P86 : ... .. 3 ... : ... .. . ... ...
ROW 99 : ... .. . ... ... ... : ... .. . ... ... ... : F-1 00 . PA2 : ... .. 1 ... : ... .. . ... ...
ROW 9A : ... .. . ... ... ... : ... .. . ... ... ... : --- .. . ... : ... .. 0 ... : ... .. . ... ...
ROW 9B : ... .. B ... ... ... : ... .. B ... ... ... : ... .. . ... : ... .. . ... : ... .. . ... ...
ROW 9C : ... .. 0 ... V00 ... : ... .. 0 ... V00 ... : ... .. . ... : D-# 00 F ... : ... .. . ... ...
ROW 9D : C-3 00 F P80 V01 ... : E-3 00 F P80 V01 ... : G-2 00 . P80 : ... .. . ... : ... .. . ... ...
ROW 9E : ... .. E ... ... ... : ... .. E ... ... ... : ... .. . ... : ... .. . ... : ... .. . ... ...
ROW 9F : ... .. . ... ... ... : ... .. . ... ... ... : ... .. . ... : ... .. C ... : ... .. . ... ...
ROW A0 : ... .. . ... ... ... : ... .. . ... ... ... : ... .. . ... : ... .. B ... : ... .. . ... ...
ROW A1 : ... .. D ... ... ... : ... .. D ... ... ... : ... .. . ... : ... .. 9 ... : ... .. . ... ...
ROW A2 : ... .. . ... ... ... : ... .. . ... ... ... : ... .. . ... : ... .. 6 ... : ... .. . ... ...
ROW A3 : ... .. . ... ... ... : ... .. . ... ... ... : ... .. . ... : ... .. 5 ... : ... .. . ... ...
ROW A4 : ... .. C ... ... ... : ... .. C ... ... ... : ... .. . ... : ... .. 3 ... : ... .. . ... ...
ROW A5 : ... .. . ... ... ... : ... .. . ... ... ... : ... .. . ... : ... .. 1 ... : ... .. . ... ...
ROW A6 : ... .. . ... ... ... : ... .. . ... ... ... : ... .. . ... : ... .. 0 ... : ... .. . ... ...
ROW A7 : ... .. B ... ... ... : ... .. B ... ... ... : ... .. . ... : ... .. . ... : ... .. . ... ...
ROW A8 : ... .. 0 ... V00 ... : ... .. 0 ... V00 ... : A#3 00 . P81 : 4-# 00 F ... : ... .. . ... ...
ROW A9 : G-2 00 F P80 V01 ... : D-3 00 F P80 V01 ... : D#3 00 . P89 : ... .. . ... : ... .. . ... ...
ROW AA : ... .. E ... ... ... : ... .. E ... ... ... : B-2 00 . P76 : ... .. . ... : ... .. . ... ...
ROW AB : ... .. . ... ... ... : ... .. . ... ... ... : G-2 00 . P7C : ... .. C ... : ... .. . ... ...
ROW AC : ... .. . ... ... ... : ... .. . ... ... ... : E-2 00 . P78 : ... .. B ... : ... .. . ... ...
ROW AD : ... .. D ... ... ... : ... .. D ... ... ... : C#2 00 . P88 : ... .. 9 ... : ... .. . ... ...
ROW AE : ... .. . ... ... ... : ... .. . ... ... ... : B-1 00 . P7B : ... .. 6 ... : ... .. . ... ...
ROW AF : ... .. . ... ... ... : ... .. . ... ... ... : A-1 00 . P7A : ... .. 5 ... : ... .. . ... ...
ROW B0 : ... .. C ... ... ... : ... .. C ... ... ... : G-1 00 . P86 : ... .. 3 ... : ... .. . ... ...
ROW B1 : ... .. . ... ... ... : ... .. . ... ... ... : F-1 00 . PA2 : ... .. 1 ... : ... .. . ... ...
ROW B2 : ... .. . ... ... ... : ... .. . ... ... ... : --- .. . ... : ... .. 0 ... : ... .. . ... ...
ROW B3 : ... .. B ... ... ... : ... .. B ... ... ... : ... .. . ... : ... .. . ... : ... .. . ... ...
ROW B4 : ... .. 0 ... V00 ... : ... .. 0 ... V00 ... : ... .. . ... : D-# 00 F ... : ... .. . ... ...
ROW B5 : C-3 00 F P80 V01 ... : E-3 00 F P80 V01 ... : G-2 00 . P80 : ... .. . ... : ... .. . ... ...
ROW B6 : ... .. E ... ... ... : ... .. E ... ... ... : ... .. . ... : ... .. . ... : ... .. . ... ...
ROW B7 : ... .. . ... ... ... : ... .. . ... ... ... : ... .. . ... : ... .. C ... : ... .. . ... ...
ROW B8 : ... .. . ... ... ... : ... .. . ... ... ... : ... .. . ... : ... .. B ... : ... .. . ... ...
ROW B9 : ... .. D ... ... ... : ... .. D ... ... ... : ... .. . ... : ... .. 9 ... : ... .. . ... ...
ROW BA : ... .. . ... ... ... : ... .. . ... ... ... : ... .. . ... : ... .. 6 ... : ... .. . ... ...
ROW BB : ... .. . ... ... ... : ... .. . ... ... ... : ... .. . ... : ... .. 5 ... : ... .. . ... ...
ROW BC : ... .. C ... ... ... : ... .. C ... ... ... : ... .. . ... : ... .. 3 ... : ... .. . ... ...
ROW BD : ... .. . ... ... ... : ... .. . ... ... ... : ... .. . ... : ... .. 1 ... : ... .. . ... ...
ROW BE : ... .. . ... ... ... : ... .. . ... ... ... : ... .. . ... : ... .. 0 ... : ... .. . ... ...
ROW BF : ... .. B ... ... ... : ... .. B ... ... ... : ... .. . ... : ... .. . ... : ... .. . ... ...
ROW C0 : ... .. 0 ... V00 ... : ... .. 0 ... V00 ... : A#3 00 . P81 : 1-# 00 F ... : ... .. . ... ...
ROW C1 : G-2 00 F P80 V01 ... : C-3 00 F P80 V01 ... : D#3 00 . P89 : ... .. . ... : ... .. . ... ...
ROW C2 : ... .. E ... ... ... : ... .. E ... ... ... : B-2 00 . P76 : ... .. . ... : ... .. . ... ...
ROW C3 : ... .. . ... ... ... : ... .. . ... ... ... : G-2 00 . P7C : ... .. C ... : ... .. . ... ...
ROW C4 : ... .. . ... ... ... : ... .. . ... ... ... : E-2 00 . P78 : ... .. B ... : ... .. . ... ...
ROW C5 : ... .. D ... ... ... : ... .. D ... ... ... : C#2 00 . P88 : ... .. 9 ... : ... .. . ... ...
ROW C6 : ... .. . ... ... ... : ... .. . ... ... ... : B-1 00 . P7B : ... .. 6 ... : ... .. . ... ...
ROW C7 : ... .. . ... ... ... : ... .. . ... ... ... : A-1 00 . P7A : ... .. 5 ... : ... .. . ... ...
ROW C8 : ... .. C ... ... ... : ... .. C ... ... ... : G-1 00 . P86 : ... .. 3 ... : ... .. . ... ...
ROW C9 : ... .. . ... ... ... : ... .. . ... ... ... : F-1 00 . PA2 : ... .. 1 ... : ... .. . ... ...
ROW CA : ... .. . ... ... ... : ... .. . ... ... ... : --- .. . ... : ... .. 0 ... : ... .. . ... ...
ROW CB : ... .. B ... ... ... : ... .. B ... ... ... : ... .. . ... : ... .. . ... : ... .. . ... ...
ROW CC : ... .. . ... ... ... : ... .. . ... ... ... : ... .. . ... : D-# 00 F ... : ... .. . ... ...
ROW CD : ... .. . ... ... ... : ... .. . ... ... ... : C-3 00 . P80 : ... .. . ... : ... .. . ... ...
ROW CE : ... .. A ... ... ... : ... .. A ... ... ... : ... .. . ... : ... .. . ... : ... .. . ... ...
ROW CF : ... .. . ... ... ... : ... .. . ... ... ... : ... .. . ... : ... .. C ... : ... .. . ... ...
ROW D0 : ... .. . ... ... ... : ... .. . ... ... ... : ... .. . ... : ... .. B ... : ... .. . ... ...
ROW D1 : ... .. 9 ... ... ... : ... .. 9 ... ... ... : ... .. . ... : ... .. 9 ... : ... .. . ... ...
ROW D2 : ... .. . ... ... ... : ... .. . ... ... ... : ... .. . ... : ... .. 6 ... : ... .. . ... ...
ROW D3 : ... .. . ... ... ... : ... .. . ... ... ... : ... .. . ... : ... .. 5 ... : ... .. . ... ...
ROW D4 : ... .. 8 ... ... ... : ... .. 8 ... ... ... : ... .. . ... : ... .. 3 ... : ... .. . ... ...
ROW D5 : ... .. . ... ... ... : ... .. . ... ... ... : ... .. . ... : ... .. 1 ... : ... .. . ... ...
ROW D6 : ... .. 7 ... ... ... : ... .. 7 ... ... ... : ... .. . ... : ... .. 0 ... : ... .. . ... ...
ROW D7 : ... .. . ... ... ... : ... .. . ... ... ... : ... .. . ... : ... .. . ... : ... .. . ... ...
ROW D8 : ... .. 0 ... V00 ... : ... .. 0 ... V00 ... : A#3 00 . P81 : 4-# 00 F ... : ... .. . ... ...
ROW D9 : C-3 00 F P80 V01 ... : E-3 00 F P80 V01 ... : D#3 00 . P89 : ... .. . ... : ... .. . ... ...
ROW DA : ... .. E ... ... ... : ... .. E ... ... ... : B-2 00 . P76 : ... .. . ... : ... .. . ... ...
ROW DB : ... .. . ... ... ... : ... .. . ... ... ... : G-2 00 . P7C : ... .. C ... : ... .. . ... ...
ROW DC : ... .. . ... ... ... : ... .. . ... ... ... : E-2 00 . P78 : ... .. B ... : ... .. . ... ...
ROW DD : ... .. D ... ... ... : ... .. D ... ... ... : C#2 00 . P88 : ... .. 9 ... : ... .. . ... ...
ROW DE : ... .. . ... ... ... : ... .. . ... ... ... : B-1 00 . P7B : ... .. 6 ... : ... .. . ... ...
ROW DF : ... .. . ... ... ... : ... .. . ... ... ... : A-1 00 . P7A : ... .. 5 ... : ... .. . ... ...
ROW E0 : ... .. C ... ... ... : ... .. C ... ... ... : G-1 00 . P86 : ... .. 3 ... : ... .. . ... ...
ROW E1 : ... .. . ... ... ... : ... .. . ... ... ... : F-1 00 . PA2 : ... .. 1 ... : ... .. . ... ...
ROW E2 : ... .. . ... ... ... : ... .. . ... ... ... : --- .. . ... : ... .. 0 ... : ... .. . ... ...
ROW E3 : ... .. B ... ... ... : ... .. B ... ... ... : ... .. . ... : ... .. . ... : ... .. . ... ...
ROW E4 : ... .. 0 ... V00 ... : ... .. 0 ... V00 ... : ... .. . ... : D-# 00 F ... : ... .. . ... ...
ROW E5 : E-3 00 F P80 V01 ... : G-3 00 F P80 V01 ... : C-3 00 . P80 : ... .. . ... : ... .. . ... ...
ROW E6 : ... .. E ... ... ... : ... .. E ... ... ... : ... .. . ... : ... .. . ... : ... .. . ... ...
ROW E7 : ... .. . ... ... ... : ... .. . ... ... ... : ... .. . ... : ... .. C ... : ... .. . ... ...
ROW E8 : ... .. . ... ... ... : ... .. . ... ... ... : ... .. . ... : ... .. B ... : ... .. . ... ...
ROW E9 : ... .. D ... ... ... : ... .. D ... ... ... : ... .. . ... : ... .. 9 ... : ... .. . ... ...
ROW EA : ... .. 0 ... V00 ... : ... .. 0 ... V00 ... : ... .. . ... : ... .. 6 ... : ... .. . ... ...
ROW EB : E-3 00 F P80 V01 ... : G-3 00 F P80 V01 ... : ... .. . ... : ... .. 5 ... : ... .. . ... ...
ROW EC : ... .. E ... ... ... : ... .. E ... ... ... : ... .. . ... : ... .. 3 ... : ... .. . ... ...
ROW ED : ... .. . ... ... ... : ... .. . ... ... ... : ... .. . ... : ... .. 1 ... : ... .. . ... ...
ROW EE : ... .. . ... ... ... : ... .. . ... ... ... : ... .. . ... : ... .. 0 ... : ... .. . ... ...
ROW EF : ... .. D ... ... ... : ... .. D ... ... ... : ... .. . ... : ... .. . ... : ... .. . ... ...
ROW F0 : ... .. 0 ... V00 ... : ... .. 0 ... V00 ... : A#3 00 . P81 : 1-# 00 F ... : ... .. . ... ...
ROW F1 : E-3 00 F P80 V01 ... : G-3 00 F P80 V01 ... : D#3 00 . P89 : ... .. . ... : ... .. . ... ...
ROW F2 : ... .. E ... ... ... : ... .. E ... ... ... : B-2 00 . P76 : ... .. . ... : ... .. . ... ...
ROW F3 : ... .. . ... ... ... : ... .. . ... ... ... : G-2 00 . P7C : ... .. C ... : ... .. . ... ...
ROW F4 : ... .. . ... ... ... : ... .. . ... ... ... : E-2 00 . P78 : ... .. B ... : ... .. . ... ...
ROW F5 : ... .. D ... ... ... : ... .. D ... ... ... : C#2 00 . P88 : ... .. 9 ... : ... .. . ... ...
ROW F6 : ... .. . ... ... ... : ... .. . ... ... ... : B-1 00 . P7B : ... .. 6 ... : ... .. . ... ...
ROW F7 : ... .. . ... ... ... : ... .. . ... ... ... : A-1 00 . P7A : ... .. 5 ... : ... .. . ... ...
ROW F8 : ... .. C ... ... ... : ... .. C ... ... ... : G-1 00 . P86 : ... .. 3 ... : ... .. . ... ...
ROW F9 : ... .. . ... ... ... : ... .. . ... ... ... : F-1 00 . PA2 : ... .. 1 ... : ... .. . ... ...
ROW FA : ... .. . ... ... ... : ... .. . ... ... ... : --- .. . ... : ... .. 0 ... : ... .. . ... ...
ROW FB : ... .. B ... ... ... : ... .. B ... ... ... : ... .. . ... : ... .. . ... : ... .. . ... ...
ROW FC : ... .. 0 ... V00 ... : ... .. 0 ... V00 ... : ... .. . ... : D-# 00 F ... : ... .. . ... ...
ROW FD : C-3 00 F P80 V01 ... : E-3 00 F P80 V01 ... : C-3 00 . P80 : ... .. . ... : ... .. . ... ...
ROW FE : ... .. E ... ... ... : ... .. E ... ... ... : ... .. . ... : ... .. . ... : ... .. . ... ...
ROW FF : ... .. . ... ... ... : ... .. . ... ... ... : ... .. . ... : ... .. C ... : ... .. . ... ...

PATTERN 16
ROW 00 : ... .. . ... ... ... : ... .. . ... ... ... : ... .. . ... : ... .. B ... : ... .. . ... ...
ROW 01 : ... .. D ... ... ... : ... .. D ... ... ... : ... .. . ... : ... .. 9 ... : ... .. . ... ...
ROW 02 : ... .. . ... ... ... : ... .. . ... ... ... : ... .. . ... : ... .. 6 ... : ... .. . ... ...
ROW 03 : ... .. . ... ... ... : ... .. . ... ... ... : ... .. . ... : ... .. 5 ... : ... .. . ... ...
ROW 04 : ... .. C ... ... ... : ... .. C ... ... ... : ... .. . ... : ... .. 3 ... : ... .. . ... ...
ROW 05 : ... .. . ... ... ... : ... .. . ... ... ... : ... .. . ... : ... .. 1 ... : ... .. . ... ...
ROW 06 : ... .. . ... ... ... : ... .. . ... ... ... : ... .. . ... : ... .. 0 ... : ... .. . ... ...
ROW 07 : ... .. B ... ... ... : ... .. B ... ... ... : ... .. . ... : ... .. . ... : ... .. . ... ...
ROW 08 : ... .. 0 ... V00 ... : ... .. 0 ... V00 ... : A#3 00 . P81 : 4-# 00 F ... : ... .. . ... ...
ROW 09 : ... .. . ... ... ... : ... .. . ... ... ... : D#3 00 . P89 : ... .. . ... : ... .. . ... ...
ROW 0A : ... .. . ... ... ... : ... .. . ... ... ... : B-2 00 . P76 : ... .. . ... : ... .. . ... ...
ROW 0B : ... .. . ... ... ... : ... .. . ... ... ... : G-2 00 . P7C : ... .. C ... : ... .. . ... ...
ROW 0C : ... .. . ... ... ... : ... .. . ... ... ... : E-2 00 . P78 : ... .. B ... : ... .. . ... ...
ROW 0D : ... .. . ... ... ... : ... .. . ... ... ... : C#2 00 . P88 : ... .. 9 ... : ... .. . ... ...
ROW 0E : ... .. . ... ... ... : ... .. . ... ... ... : B-1 00 . P7B : ... .. 6 ... : ... .. . ... ...
ROW 0F : ... .. . ... ... ... : ... .. . ... ... ... : A-1 00 . P7A : ... .. 5 ... : ... .. . ... ...
ROW 10 : ... .. . ... ... ... : ... .. . ... ... ... : G-1 00 . P86 : ... .. 3 ... : ... .. . ... ...
ROW 11 : ... .. . ... ... ... : ... .. . ... ... ... : F-1 00 . PA2 : ... .. 1 ... : ... .. . ... ...
ROW 12 : ... .. . ... ... ... : ... .. . ... ... ... : --- .. . ... : ... .. 0 ... : ... .. . ... ...
ROW 13 : ... .. . ... ... ... : ... .. . ... ... ... : ... .. . ... : ... .. . ... : ... .. . ... ...
ROW 14 : ... .. . ... ... ... : ... .. . ... ... ... : ... .. . ... : D-# 00 F ... : ... .. . ... ...
ROW 15 : E-3 00 F P80 V01 ... : G-3 00 F P80 V01 ... : C-3 00 . P80 : ... .. . ... : ... .. . ... ...
ROW 16 : ... .. E ... ... ... : ... .. E ... ... ... : ... .. . ... : ... .. . ... : ... .. . ... ...
ROW 17 : ... .. . ... ... ... : ... .. . ... ... ... : ... .. . ... : ... .. C ... : ... .. . ... ...
ROW 18 : ... .. . ... ... ... : ... .. . ... ... ... : ... .. . ... : ... .. B ... : ... .. . ... ...
ROW 19 : ... .. D ... ... ... : ... .. D ... ... ... : ... .. . ... : ... .. 9 ... : ... .. . ... ...
ROW 1A : ... .. 0 ... V00 ... : ... .. 0 ... V00 ... : ... .. . ... : ... .. 6 ... : ... .. . ... ...
ROW 1B : E-3 00 F P80 V01 ... : G-3 00 F P80 V01 ... : ... .. . ... : ... .. 5 ... : ... .. . ... ...
ROW 1C : ... .. E ... ... ... : ... .. E ... ... ... : ... .. . ... : ... .. 3 ... : ... .. . ... ...
ROW 1D : ... .. . ... ... ... : ... .. . ... ... ... : ... .. . ... : ... .. 1 ... : ... .. . ... ...
ROW 1E : ... .. . ... ... ... : ... .. . ... ... ... : ... .. . ... : ... .. 0 ... : ... .. . ... ...
ROW 1F : ... .. D ... ... ... : ... .. D ... ... ... : ... .. . ... : ... .. . ... : ... .. . ... ...
ROW 20 : ... .. 0 ... V00 ... : ... .. 0 ... V00 ... : A#3 00 . P81 : 1-# 00 F ... : ... .. . ... ...
ROW 21 : E-3 00 F P80 V01 ... : G-3 00 F P80 V01 ... : D#3 00 . P89 : ... .. . ... : ... .. . ... ...
ROW 22 : ... .. E ... ... ... : ... .. E ... ... ... : B-2 00 . P76 : ... .. . ... : ... .. . ... ...
ROW 23 : ... .. . ... ... ... : ... .. . ... ... ... : G-2 00 . P7C : ... .. C ... : ... .. . ... ...
ROW 24 : ... .. . ... ... ... : ... .. . ... ... ... : E-2 00 . P78 : ... .. B ... : ... .. . ... ...
ROW 25 : ... .. D ... ... ... : ... .. D ... ... ... : C#2 00 . P88 : ... .. 9 ... : ... .. . ... ...
ROW 26 : ... .. . ... ... ... : ... .. . ... ... ... : B-1 00 . P7B : ... .. 6 ... : ... .. . ... ...
ROW 27 : ... .. . ... ... ... : ... .. . ... ... ... : A-1 00 . P7A : ... .. 5 ... : ... .. . ... ...
ROW 28 : ... .. C ... ... ... : ... .. C ... ... ... : G-1 00 . P86 : ... .. 3 ... : ... .. . ... ...
ROW 29 : ... .. . ... ... ... : ... .. . ... ... ... : F-1 00 . PA2 : ... .. 1 ... : ... .. . ... ...
ROW 2A : ... .. . ... ... ... : ... .. . ... ... ... : --- .. . ... : ... .. 0 ... : ... .. . ... ...
ROW 2B : ... .. B ... ... ... : ... .. B ... ... ... : ... .. . ... : ... .. . ... : ... .. . ... ...
ROW 2C : ... .. 0 ... V00 ... : ... .. 0 ... V00 ... : ... .. . ... : D-# 00 F ... : ... .. . ... ...
ROW 2D : C-3 00 F P80 V01 ... : E-3 00 F P80 V01 ... : C-3 00 . P80 : ... .. . ... : ... .. . ... ...
ROW 2E : ... .. E ... ... ... : ... .. E ... ... ... : ... .. . ... : ... .. . ... : ... .. . ... ...
ROW 2F : ... .. . ... ... ... : ... .. . ... ... ... : ... .. . ... : ... .. C ... : ... .. . ... ...
ROW 30 : ... .. . ... ... ... : ... .. . ... ... ... : ... .. . ... : ... .. B ... : ... .. . ... ...
ROW 31 : ... .. D ... ... ... : ... .. D ... ... ... : ... .. . ... : ... .. 9 ... : ... .. . ... ...
ROW 32 : ... .. . ... ... ... : ... .. . ... ... ... : ... .. . ... : ... .. 6 ... : ... .. . ... ...
ROW 33 : ... .. . ... ... ... : ... .. . ... ... ... : ... .. . ... : ... .. 5 ... : ... .. . ... ...
ROW 34 : ... .. C ... ... ... : ... .. C ... ... ... : ... .. . ... : ... .. 3 ... : ... .. . ... ...
ROW 35 : ... .. . ... ... ... : ... .. . ... ... ... : ... .. . ... : ... .. 1 ... : ... .. . ... ...
ROW 36 : ... .. . ... ... ... : ... .. . ... ... ... : ... .. . ... : ... .. 0 ... : ... .. . ... ...
ROW 37 : ... .. B ... ... ... : ... .. B ... ... ... : ... .. . ... : ... .. . ... : ... .. . ... ...
ROW 38 : ... .. 0 ... V00 ... : ... .. 0 ... V00 ... : A#3 00 . P81 : 4-# 00 F ... : ... .. . ... ...
ROW 39 : ... .. . ... ... ... : ... .. . ... ... ... : D#3 00 . P89 : ... .. . ... : ... .. . ... ...
ROW 3A : ... .. . ... ... ... : ... .. . ... ... ... : B-2 00 . P76 : ... .. . ... : ... .. . ... ...
ROW 3B : ... .. . ... ... ... : ... .. . ... ... ... : G-2 00 . P7C : ... .. C ... : ... .. . ... ...
ROW 3C : ... .. . ... ... ... : ... .. . ... ... ... : E-2 00 . P78 : ... .. B ... : ... .. . ... ...
ROW 3D : ... .. . ... ... ... : ... .. . ... ... ... : C#2 00 . P88 : ... .. 9 ... : ... .. . ... ...
ROW 3E : ... .. . ... ... ... : ... .. . ... ... ... : B-1 00 . P7B : ... .. 6 ... : ... .. . ... ...
ROW 3F : ... .. . ... ... ... : ... .. . ... ... ... : A-1 00 . P7A : ... .. 5 ... : ... .. . ... ...
ROW 40 : ... .. . ... ... ... : ... .. . ... ... ... : G-1 00 . P86 : ... .. 3 ... : ... .. . ... ...
ROW 41 : ... .. . ... ... ... : ... .. . ... ... ... : F-1 00 . PA2 : ... .. 1 ... : ... .. . ... ...
ROW 42 : ... .. . ... ... ... : ... .. . ... ... ... : --- .. . ... : ... .. 0 ... : ... .. . ... ...
ROW 43 : ... .. . ... ... ... : ... .. . ... ... ... : ... .. . ... : ... .. . ... : ... .. . ... ...
ROW 44 : ... .. . ... ... ... : ... .. . ... ... ... : ... .. . ... : D-# 00 F ... : ... .. . ... ...
ROW 45 : E-3 00 F P80 V01 ... : G-3 00 F P80 V01 ... : C-3 00 . P80 : ... .. . ... : ... .. . ... ...
ROW 46 : ... .. E ... ... ... : ... .. E ... ... ... : ... .. . ... : ... .. . ... : ... .. . ... ...
ROW 47 : ... .. . ... ... ... : ... .. . ... ... ... : ... .. . ... : ... .. C ... : ... .. . ... ...
ROW 48 : ... .. . ... ... ... : ... .. . ... ... ... : ... .. . ... : ... .. B ... : ... .. . ... ...
ROW 49 : ... .. D ... ... ... : ... .. D ... ... ... : ... .. . ... : ... .. 9 ... : ... .. . ... ...
ROW 4A : ... .. 0 ... V00 ... : ... .. 0 ... V00 ... : ... .. . ... : ... .. 6 ... : ... .. . ... ...
ROW 4B : E-3 00 F P80 V01 ... : G-3 00 F P80 V01 ... : ... .. . ... : ... .. 5 ... : ... .. . ... ...
ROW 4C : ... .. E ... ... ... : ... .. E ... ... ... : ... .. . ... : ... .. 3 ... : ... .. . ... ...
ROW 4D : ... .. . ... ... ... : ... .. . ... ... ... : ... .. . ... : ... .. 1 ... : ... .. . ... ...
ROW 4E : ... .. . ... ... ... : ... .. . ... ... ... : ... .. . ... : ... .. 0 ... : ... .. . ... ...
ROW 4F : ... .. D ... ... ... : ... .. D ... ... ... : ... .. . ... : ... .. . ... : ... .. . ... ...
ROW 50 : ... .. 0 ... V00 ... : ... .. 0 ... V00 ... : A#3 00 . P81 : 1-# 00 F ... : ... .. . ... ...
ROW 51 : E-3 00 F P80 V01 ... : G-3 00 F P80 V01 ... : D#3 00 . P89 : ... .. . ... : ... .. . ... ...
ROW 52 : ... .. E ... ... ... : ... .. E ... ... ... : B-2 00 . P76 : ... .. . ... : ... .. . ... ...
ROW 53 : ... .. . ... ... ... : ... .. . ... ... ... : G-2 00 . P7C : ... .. C ... : ... .. . ... ...
ROW 54 : ... .. . ... ... ... : ... .. . ... ... ... : E-2 00 . P78 : ... .. B ... : ... .. . ... ...
ROW 55 : ... .. D ... ... ... : ... .. D ... ... ... : C#2 00 . P88 : ... .. 9 ... : ... .. . ... ...
ROW 56 : ... .. . ... ... ... : ... .. . ... ... ... : B-1 00 . P7B : ... .. 6 ... : ... .. . ... ...
ROW 57 : ... .. . ... ... ... : ... .. . ... ... ... : A-1 00 . P7A : ... .. 5 ... : ... .. . ... ...
ROW 58 : ... .. C ... ... ... : ... .. C ... ... ... : G-1 00 . P86 : ... .. 3 ... : ... .. . ... ...
ROW 59 : ... .. . ... ... ... : ... .. . ... ... ... : F-1 00 . PA2 : ... .. 1 ... : ... .. . ... ...
ROW 5A : ... .. . ... ... ... : ... .. . ... ... ... : --- .. . ... : ... .. 0 ... : ... .. . ... ...
ROW 5B : ... .. B ... ... ... : ... .. B ... ... ... : ... .. . ... : ... .. . ... : ... .. . ... ...
ROW 5C : ... .. 0 ... V00 ... : ... .. 0 ... V00 ... : ... .. . ... : D-# 00 F ... : ... .. . ... ...
ROW 5D : C-3 00 F P80 V01 ... : E-3 00 F P80 V01 ... : C-3 00 . P80 : ... .. . ... : ... .. . ... ...
ROW 5E : ... .. E ... ... ... : ... .. E ... ... ... : ... .. . ... : ... .. . ... : ... .. . ... ...
ROW 5F : ... .. . ... ... ... : ... .. . ... ... ... : ... .. . ... : ... .. C ... : ... .. . ... ...
ROW 60 : ... .. . ... ... ... : ... .. . ... ... ... : ... .. . ... : ... .. B ... : ... .. . ... ...
ROW 61 : ... .. D ... ... ... : ... .. D ... ... ... : ... .. . ... : ... .. 9 ... : ... .. . ... ...
ROW 62 : ... .. . ... ... ... : ... .. . ... ... ... : ... .. . ... : ... .. 6 ... : ... .. . ... ...
ROW 63 : ... .. . ... ... ... : ... .. . ... ... ... : ... .. . ... : ... .. 5 ... : ... .. . ... ...
ROW 64 : ... .. C ... ... ... : ... .. C ... ... ... : ... .. . ... : ... .. 3 ... : ... .. . ... ...
ROW 65 : ... .. . ... ... ... : ... .. . ... ... ... : ... .. . ... : ... .. 1 ... : ... .. . ... ...
ROW 66 : ... .. . ... ... ... : ... .. . ... ... ... : ... .. . ... : ... .. 0 ... : ... .. . ... ...
ROW 67 : ... .. B ... ... ... : ... .. B ... ... ... : ... .. . ... : ... .. . ... : ... .. . ... ...
ROW 68 : ... .. 0 ... V00 ... : ... .. 0 ... V00 ... : A#3 00 . P81 : 4-# 00 F ... : ... .. . ... ...
ROW 69 : ... .. . ... ... ... : ... .. . ... ... ... : D#3 00 . P89 : ... .. . ... : ... .. . ... ...
ROW 6A : ... .. . ... ... ... : ... .. . ... ... ... : B-2 00 . P76 : ... .. . ... : ... .. . ... ...
ROW 6B : ... .. . ... ... ... : ... .. . ... ... ... : G-2 00 . P7C : ... .. C ... : ... .. . ... ...
ROW 6C : ... .. . ... ... ... : ... .. . ... ... ... : E-2 00 . P78 : ... .. B ... : ... .. . ... ...
ROW 6D : ... .. . ... ... ... : ... .. . ... ... ... : C#2 00 . P88 : ... .. 9 ... : ... .. . ... ...
ROW 6E : ... .. . ... ... ... : ... .. . ... ... ... : B-1 00 . P7B : ... .. 6 ... : ... .. . ... ...
ROW 6F : ... .. . ... ... ... : ... .. . ... ... ... : A-1 00 . P7A : ... .. 5 ... : ... .. . ... ...
ROW 70 : ... .. . ... ... ... : ... .. . ... ... ... : G-1 00 . P86 : ... .. 3 ... : ... .. . ... ...
ROW 71 : ... .. . ... ... ... : ... .. . ... ... ... : F-1 00 . PA2 : ... .. 1 ... : ... .. . ... ...
ROW 72 : ... .. . ... ... ... : ... .. . ... ... ... : --- .. . ... : ... .. 0 ... : ... .. . ... ...
ROW 73 : ... .. . ... ... ... : ... .. . ... ... ... : ... .. . ... : ... .. . ... : ... .. . ... ...
ROW 74 : ... .. . ... ... ... : ... .. . ... ... ... : ... .. . ... : D-# 00 F ... : ... .. . ... ...
ROW 75 : E-3 00 F P80 V01 ... : G-3 00 F P80 V01 ... : C-3 00 . P80 : ... .. . ... : ... .. . ... ...
ROW 76 : ... .. E ... ... ... : ... .. E ... ... ... : ... .. . ... : ... .. . ... : ... .. . ... ...
ROW 77 : ... .. . ... ... ... : ... .. . ... ... ... : ... .. . ... : ... .. C ... : ... .. . ... ...
ROW 78 : ... .. . ... ... ... : ... .. . ... ... ... : ... .. . ... : ... .. B ... : ... .. . ... ...
ROW 79 : ... .. D ... ... ... : ... .. D ... ... ... : ... .. . ... : ... .. 9 ... : ... .. . ... ...
ROW 7A : ... .. 0 ... V00 ... : ... .. 0 ... V00 ... : ... .. . ... : ... .. 6 ... : ... .. . ... ...
ROW 7B : E-3 00 F P80 V01 ... : G-3 00 F P80 V01 ... : ... .. . ... : ... .. 5 ... : ... .. . ... ...
ROW 7C : ... .. E ... ... ... : ... .. E ... ... ... : ... .. . ... : ... .. 3 ... : ... .. . ... ...
ROW 7D : ... .. . ... ... ... : ... .. . ... ... ... : ... .. . ... : ... .. 1 ... : ... .. . ... ...
ROW 7E : ... .. . ... ... ... : ... .. . ... ... ... : ... .. . ... : ... .. 0 ... : ... .. . ... ...
ROW 7F : ... .. D ... ... ... : ... .. D ... ... ... : ... .. . ... : ... .. . ... : ... .. . ... ...
ROW 80 : ... .. 0 ... V00 ... : ... .. 0 ... V00 ... : A#3 00 . P81 : ... .. . ... : ... .. . ... ...
ROW 81 : G-3 00 F P80 V01 ... : C-4 00 F P80 V01 ... : D#3 00 . P89 : 1-# 00 F V01 : ... .. . ... ...
ROW 82 : ... .. E ... ... ... : ... .. E ... ... ... : B-2 00 . P76 : ... .. E ... : ... .. . ... ...
ROW 83 : ... .. . ... ... ... : ... .. . ... ... ... : G-2 00 . P7C : ... .. . ... : ... .. . ... ...
ROW 84 : ... .. . ... ... ... : ... .. . ... ... ... : E-2 00 . P78 : ... .. . ... : ... .. . ... ...
ROW 85 : ... .. D ... ... ... : ... .. D ... ... ... : C#2 00 . P88 : ... .. D ... : ... .. . ... ...
ROW 86 : ... .. . ... ... ... : ... .. . ... ... ... : B-1 00 . P7B : ... .. . ... : ... .. . ... ...
ROW 87 : ... .. . ... ... ... : ... .. . ... ... ... : A-1 00 . P7A : ... .. . ... : ... .. . ... ...
ROW 88 : ... .. C ... ... ... : ... .. C ... ... ... : G-1 00 . P86 : ... .. C ... : ... .. . ... ...
ROW 89 : ... .. . ... ... ... : ... .. . ... ... ... : F-1 00 . PA2 : ... .. . ... : ... .. . ... ...
ROW 8A : ... .. . ... ... ... : ... .. . ... ... ... : --- .. . ... : ... .. . ... : ... .. . ... ...
ROW 8B : ... .. B ... ... ... : ... .. B ... ... ... : ... .. . ... : ... .. B ... : ... .. . ... ...
ROW 8C : ... .. . ... ... ... : ... .. . ... ... ... : ... .. . ... : ... .. . ... : ... .. . ... ...
ROW 8D : ... .. . ... ... ... : ... .. . ... ... ... : C-3 00 . P80 : ... .. . ... : ... .. . ... ...
ROW 8E : ... .. A ... ... ... : ... .. A ... ... ... : ... .. . ... : ... .. A ... : ... .. . ... ...
ROW 8F : ... .. . ... ... ... : ... .. . ... ... ... : ... .. . ... : ... .. . ... : ... .. . ... ...
ROW 90 : ... .. . ... ... ... : ... .. . ... ... ... : ... .. . ... : ... .. . ... : ... .. . ... ...
ROW 91 : ... .. 9 ... ... ... : ... .. 9 ... ... ... : ... .. . ... : ... .. 9 ... : ... .. . ... ...
ROW 92 : ... .. . ... ... ... : ... .. . ... ... ... : ... .. . ... : ... .. . ... : ... .. . ... ...
ROW 93 : ... .. . ... ... ... : ... .. . ... ... ... : ... .. . ... : ... .. . ... : ... .. . ... ...
ROW 94 : ... .. 8 ... ... ... : ... .. 8 ... ... ... : ... .. . ... : ... .. 8 ... : ... .. . ... ...
ROW 95 : ... .. . ... ... ... : ... .. . ... ... ... : ... .. . ... : ... .. . ... : ... .. . ... ...
ROW 96 : ... .. 7 ... ... ... : ... .. 7 ... ... ... : ... .. . ... : ... .. 7 ... : ... .. . ... ...
ROW 97 : ... .. . ... ... ... : ... .. . ... ... ... : ... .. . ... : ... .. . ... : ... .. . ... ...
ROW 98 : ... .. . ... ... ... : ... .. . ... ... ... : ... .. . ... : ... .. 6 ... : ... .. . ... ...
ROW 99 : ... .. . ... ... ... : ... .. . ... ... ... : ... .. . ... : ... .. . ... : ... .. . ... ...
ROW 9A : ... .. . ... ... ... : ... .. . ... ... ... : ... .. . ... : ... .. . ... : ... .. . ... ...
ROW 9B : ... .. . ... ... ... : ... .. . ... ... ... : ... .. . ... : ... .. 5 ... : ... .. . ... ...
ROW 9C : ... .. . ... ... ... : ... .. . ... ... ... : ... .. . ... : ... .. . ... : ... .. . ... ...
ROW 9D : ... .. . ... ... ... : ... .. . ... ... ... : ... .. . ... : ... .. 4 ... : ... .. . ... ...
ROW 9E : ... .. . ... ... ... : ... .. . ... ... ... : ... .. . ... : ... .. . ... : ... .. . ... ...
ROW 9F : ... .. . ... ... ... : ... .. . ... ... ... : ... .. . ... : ... .. 3 ... : ... .. . ... ...
ROW A0 : ... .. . ... ... ... : ... .. . ... ... ... : ... .. . ... : ... .. . ... : ... .. . ... ...
ROW A1 : ... .. . ... ... ... : ... .. . ... ... ... : ... .. . ... : ... .. 2 ... : ... .. . ... ...
ROW A2 : ... .. . ... ... ... : ... .. . ... ... ... : ... .. . ... : ... .. 1 ... : ... .. . ... ...
ROW A3 : ... .. . ... ... ... : ... .. . ... ... ... : ... .. . D00 : ... .. . ... : ... .. . ... ...
ROW A4 : ... .. . ... ... ... : ... .. . ... ... ... : ... .. . ... : ... .. . ... : ... .. . ... ...
ROW A5 : ... .. . ... ... ... : ... .. . ... ... ... : ... .. . ... : ... .. . ... : ... .. . ... ...
ROW A6 : ... .. . ... ... ... : ... .. . ... ... ... : ... .. . ... : ... .. . ... : ... .. . ... ...
ROW A7 : ... .. . ... ... ... : ... .. . ... ... ... : ... .. . ... : ... .. . ... : ... .. . ... ...
ROW A8 : ... .. . ... ... ... : ... .. . ... ... ... : ... .. . ... : ... .. . ... : ... .. . ... ...
ROW A9 : ... .. . ... ... ... : ... .. . ... ... ... : ... .. . ... : ... .. . ... : ... .. . ... ...
ROW AA : ... .. . ... ... ... : ... .. . ... ... ... : ... .. . ... : ... .. . ... : ... .. . ... ...
ROW AB : ... .. . ... ... ... : ... .. . ... ... ... : ... .. . ... : ... .. . ... : ... .. . ... ...
ROW AC : ... .. . ... ... ... : ... .. . ... ... ... : ... .. . ... : ... .. . ... : ... .. . ... ...
ROW AD : ... .. . ... ... ... : ... .. . ... ... ... : ... .. . ... : ... .. . ... : ... .. . ... ...
ROW AE : ... .. . ... ... ... : ... .. . ... ... ... : ... .. . ... : ... .. . ... : ... .. . ... ...
ROW AF : ... .. . ... ... ... : ... .. . ... ... ... : ... .. . ... : ... .. . ... : ... .. . ... ...
ROW B0 : ... .. . ... ... ... : ... .. . ... ... ... : ... .. . ... : ... .. . ... : ... .. . ... ...
ROW B1 : ... .. . ... ... ... : ... .. . ... ... ... : ... .. . ... : ... .. . ... : ... .. . ... ...
ROW B2 : ... .. . ... ... ... : ... .. . ... ... ... : ... .. . ... : ... .. . ... : ... .. . ... ...
ROW B3 : ... .. . ... ... ... : ... .. . ... ... ... : ... .. . ... : ... .. . ... : ... .. . ... ...
ROW B4 : ... .. . ... ... ... : ... .. . ... ... ... : ... .. . ... : ... .. . ... : ... .. . ... ...
ROW B5 : ... .. . ... ... ... : ... .. . ... ... ... : ... .. . ... : ... .. . ... : ... .. . ... ...
ROW B6 : ... .. . ... ... ... : ... .. . ... ... ... : ... .. . ... : ... .. . ... : ... .. . ... ...
ROW B7 : ... .. . ... ... ... : ... .. . ... ... ... : ... .. . ... : ... .. . ... : ... .. . ... ...
ROW B8 : ... .. . ... ... ... : ... .. . ... ... ... : ... .. . ... : ... .. . ... : ... .. . ... ...
ROW B9 : ... .. . ... ... ... : ... .. . ... ... ... : ... .. . ... : ... .. . ... : ... .. . ... ...
ROW BA : ... .. . ... ... ... : ... .. . ... ... ... : ... .. . ... : ... .. . ... : ... .. . ... ...
ROW BB : ... .. . ... ... ... : ... .. . ... ... ... : ... .. . ... : ... .. . ... : ... .. . ... ...
ROW BC : ... .. . ... ... ... : ... .. . ... ... ... : ... .. . ... : ... .. . ... : ... .. . ... ...
ROW BD : ... .. . ... ... ... : ... .. . ... ... ... : ... .. . ... : ... .. . ... : ... .. . ... ...
ROW BE : ... .. . ... ... ... : ... .. . ... ... ... : ... .. . ... : ... .. . ... : ... .. . ... ...
ROW BF : ... .. . ... ... ... : ... .. . ... ... ... : ... .. . ... : ... .. . ... : ... .. . ... ...
ROW C0 : ... .. . ... ... ... : ... .. . ... ... ... : ... .. . ... : ... .. . ... : ... .. . ... ...
ROW C1 : ... .. . ... ... ... : ... .. . ... ... ... : ... .. . ... : ... .. . ... : ... .. . ... ...
ROW C2 : ... .. . ... ... ... : ... .. . ... ... ... : ... .. . ... : ... .. . ... : ... .. . ... ...
ROW C3 : ... .. . ... ... ... : ... .. . ... ... ... : ... .. . ... : ... .. . ... : ... .. . ... ...
ROW C4 : ... .. . ... ... ... : ... .. . ... ... ... : ... .. . ... : ... .. . ... : ... .. . ... ...
ROW C5 : ... .. . ... ... ... : ... .. . ... ... ... : ... .. . ... : ... .. . ... : ... .. . ... ...
ROW C6 : ... .. . ... ... ... : ... .. . ... ... ... : ... .. . ... : ... .. . ... : ... .. . ... ...
ROW C7 : ... .. . ... ... ... : ... .. . ... ... ... : ... .. . ... : ... .. . ... : ... .. . ... ...
ROW C8 : ... .. . ... ... ... : ... .. . ... ... ... : ... .. . ... : ... .. . ... : ... .. . ... ...
ROW C9 : ... .. . ... ... ... : ... .. . ... ... ... : ... .. . ... : ... .. . ... : ... .. . ... ...
ROW CA : ... .. . ... ... ... : ... .. . ... ... ... : ... .. . ... : ... .. . ... : ... .. . ... ...
ROW CB : ... .. . ... ... ... : ... .. . ... ... ... : ... .. . ... : ... .. . ... : ... .. . ... ...
ROW CC : ... .. . ... ... ... : ... .. . ... ... ... : ... .. . ... : ... .. . ... : ... .. . ... ...
ROW CD : ... .. . ... ... ... : ... .. . ... ... ... : ... .. . ... : ... .. . ... : ... .. . ... ...
ROW CE : ... .. . ... ... ... : ... .. . ... ... ... : ... .. . ... : ... .. . ... : ... .. . ... ...
ROW CF : ... .. . ... ... ... : ... .. . ... ... ... : ... .. . ... : ... .. . ... : ... .. . ... ...
ROW D0 : ... .. . ... ... ... : ... .. . ... ... ... : ... .. . ... : ... .. . ... : ... .. . ... ...
ROW D1 : ... .. . ... ... ... : ... .. . ... ... ... : ... .. . ... : ... .. . ... : ... .. . ... ...
ROW D2 : ... .. . ... ... ... : ... .. . ... ... ... : ... .. . ... : ... .. . ... : ... .. . ... ...
ROW D3 : ... .. . ... ... ... : ... .. . ... ... ... : ... .. . ... : ... .. . ... : ... .. . ... ...
ROW D4 : ... .. . ... ... ... : ... .. . ... ... ... : ... .. . ... : ... .. . ... : ... .. . ... ...
ROW D5 : ... .. . ... ... ... : ... .. . ... ... ... : ... .. . ... : ... .. . ... : ... .. . ... ...
ROW D6 : ... .. . ... ... ... : ... .. . ... ... ... : ... .. . ... : ... .. . ... : ... .. . ... ...
ROW D7 : ... .. . ... ... ... : ... .. . ... ... ... : ... .. . ... : ... .. . ... : ... .. . ... ...
ROW D8 : ... .. . ... ... ... : ... .. . ... ... ... : ... .. . ... : ... .. . ... : ... .. . ... ...
ROW D9 : ... .. . ... ... ... : ... .. . ... ... ... : ... .. . ... : ... .. . ... : ... .. . ... ...
ROW DA : ... .. . ... ... ... : ... .. . ... ... ... : ... .. . ... : ... .. . ... : ... .. . ... ...
ROW DB : ... .. . ... ... ... : ... .. . ... ... ... : ... .. . ... : ... .. . ... : ... .. . ... ...
ROW DC : ... .. . ... ... ... : ... .. . ... ... ... : ... .. . ... : ... .. . ... : ... .. . ... ...
ROW DD : ... .. . ... ... ... : ... .. . ... ... ... : ... .. . ... : ... .. . ... : ... .. . ... ...
ROW DE : ... .. . ... ... ... : ... .. . ... ... ... : ... .. . ... : ... .. . ... : ... .. . ... ...
ROW DF : ... .. . ... ... ... : ... .. . ... ... ... : ... .. . ... : ... .. . ... : ... .. . ... ...
ROW E0 : ... .. . ... ... ... : ... .. . ... ... ... : ... .. . ... : ... .. . ... : ... .. . ... ...
ROW E1 : ... .. . ... ... ... : ... .. . ... ... ... : ... .. . ... : ... .. . ... : ... .. . ... ...
ROW E2 : ... .. . ... ... ... : ... .. . ... ... ... : ... .. . ... : ... .. . ... : ... .. . ... ...
ROW E3 : ... .. . ... ... ... : ... .. . ... ... ... : ... .. . ... : ... .. . ... : ... .. . ... ...
ROW E4 : ... .. . ... ... ... : ... .. . ... ... ... : ... .. . ... : ... .. . ... : ... .. . ... ...
ROW E5 : ... .. . ... ... ... : ... .. . ... ... ... : ... .. . ... : ... .. . ... : ... .. . ... ...
ROW E6 : ... .. . ... ... ... : ... .. . ... ... ... : ... .. . ... : ... .. . ... : ... .. . ... ...
ROW E7 : ... .. . ... ... ... : ... .. . ... ... ... : ... .. . ... : ... .. . ... : ... .. . ... ...
ROW E8 : ... .. . ... ... ... : ... .. . ... ... ... : ... .. . ... : ... .. . ... : ... .. . ... ...
ROW E9 : ... .. . ... ... ... : ... .. . ... ... ... : ... .. . ... : ... .. . ... : ... .. . ... ...
ROW EA : ... .. . ... ... ... : ... .. . ... ... ... : ... .. . ... : ... .. . ... : ... .. . ... ...
ROW EB : ... .. . ... ... ... : ... .. . ... ... ... : ... .. . ... : ... .. . ... : ... .. . ... ...
ROW EC : ... .. . ... ... ... : ... .. . ... ... ... : ... .. . ... : ... .. . ... : ... .. . ... ...
ROW ED : ... .. . ... ... ... : ... .. . ... ... ... : ... .. . ... : ... .. . ... : ... .. . ... ...
ROW EE : ... .. . ... ... ... : ... .. . ... ... ... : ... .. . ... : ... .. . ... : ... .. . ... ...
ROW EF : ... .. . ... ... ... : ... .. . ... ... ... : ... .. . ... : ... .. . ... : ... .. . ... ...
ROW F0 : ... .. . ... ... ... : ... .. . ... ... ... : ... .. . ... : ... .. . ... : ... .. . ... ...
ROW F1 : ... .. . ... ... ... : ... .. . ... ... ... : ... .. . ... : ... .. . ... : ... .. . ... ...
ROW F2 : ... .. . ... ... ... : ... .. . ... ... ... : ... .. . ... : ... .. . ... : ... .. . ... ...
ROW F3 : ... .. . ... ... ... : ... .. . ... ... ... : ... .. . ... : ... .. . ... : ... .. . ... ...
ROW F4 : ... .. . ... ... ... : ... .. . ... ... ... : ... .. . ... : ... .. . ... : ... .. . ... ...
ROW F5 : ... .. . ... ... ... : ... .. . ... ... ... : ... .. . ... : ... .. . ... : ... .. . ... ...
ROW F6 : ... .. . ... ... ... : ... .. . ... ... ... : ... .. . ... : ... .. . ... : ... .. . ... ...
ROW F7 : ... .. . ... ... ... : ... .. . ... ... ... : ... .. . ... : ... .. . ... : ... .. . ... ...
ROW F8 : ... .. . ... ... ... : ... .. . ... ... ... : ... .. . ... : ... .. . ... : ... .. . ... ...
ROW F9 : ... .. . ... ... ... : ... .. . ... ... ... : ... .. . ... : ... .. . ... : ... .. . ... ...
ROW FA : ... .. . ... ... ... : ... .. . ... ... ... : ... .. . ... : ... .. . ... : ... .. . ... ...
ROW FB : ... .. . ... ... ... : ... .. . ... ... ... : ... .. . ... : ... .. . ... : ... .. . ... ...
ROW FC : ... .. . ... ... ... : ... .. . ... ... ... : ... .. . ... : ... .. . ... : ... .. . ... ...
ROW FD : ... .. . ... ... ... : ... .. . ... ... ... : ... .. . ... : ... .. . ... : ... .. . ... ...
ROW FE : ... .. . ... ... ... : ... .. . ... ... ... : ... .. . ... : ... .. . ... : ... .. . ... ...
ROW FF : ... .. . ... ... ... : ... .. . ... ... ... : ... .. . ... : ... .. . ... : ... .. . ... ...

PATTERN 17
ROW 00 : ... .. . ... ... ... : ... .. . ... ... ... : ... .. . ... : ... .. . ... : ... .. . ... ...
ROW 01 : ... .. . ... ... ... : ... .. . ... ... ... : ... .. . ... : ... .. . ... : ... .. . ... ...
ROW 02 : ... .. . ... ... ... : ... .. . ... ... ... : ... .. . ... : ... .. . ... : ... .. . ... ...
ROW 03 : ... .. . ... ... ... : ... .. . ... ... ... : ... .. . ... : ... .. . ... : ... .. . ... ...
ROW 04 : ... .. 0 ... V00 ... : ... .. . ... V00 ... : ... .. . ... : ... .. . ... : ... .. . ... ...
ROW 05 : D-3 00 F P80 V01 ... : G-3 00 F P80 V01 ... : ... .. . ... : ... .. . ... : ... .. . ... ...
ROW 06 : ... .. E ... ... ... : ... .. E ... ... ... : ... .. . ... : ... .. . ... : ... .. . ... ...
ROW 07 : ... .. . ... ... ... : ... .. . ... ... ... : ... .. . ... : ... .. . ... : ... .. . ... ...
ROW 08 : ... .. . ... ... ... : ... .. . ... ... ... : ... .. . ... : ... .. . ... : ... .. . ... ...
ROW 09 : ... .. D ... ... ... : ... .. D ... ... ... : ... .. . ... : ... .. . ... : ... .. . ... ...
ROW 0A : ... .. 0 ... V00 ... : ... .. 0 ... V00 ... : ... .. . ... : ... .. . ... : ... .. . ... ...
ROW 0B : D-3 00 F P80 V01 ... : G-3 00 F P80 V01 ... : ... .. . ... : ... .. . ... : ... .. . ... ...
ROW 0C : ... .. E ... ... ... : ... .. E ... ... ... : ... .. . ... : ... .. . ... : ... .. . ... ...
ROW 0D : ... .. . ... ... ... : ... .. . ... ... ... : ... .. . ... : ... .. . ... : ... .. . ... ...
ROW 0E : ... .. . ... ... ... : ... .. . ... ... ... : ... .. . ... : ... .. . ... : ... .. . ... ...
ROW 0F : ... .. D ... ... ... : ... .. D ... ... ... : ... .. . ... : ... .. . ... : ... .. . ... ...
ROW 10 : ... .. 0 ... V00 ... : ... .. 0 ... V00 ... : --- .. . ... : ... .. . ... : ... .. . ... ...
ROW 11 : D-3 00 F P80 V01 ... : F-3 00 F P80 V01 ... : G-2 00 . ... : ... .. . ... : ... .. . ... ...
ROW 12 : ... .. E ... ... ... : ... .. E ... ... ... : ... .. . ... : ... .. . ... : ... .. . ... ...
ROW 13 : ... .. . ... ... ... : ... .. . ... ... ... : ... .. . ... : ... .. . ... : ... .. . ... ...
ROW 14 : ... .. . ... ... ... : ... .. . ... ... ... : ... .. . ... : ... .. . ... : ... .. . ... ...
ROW 15 : ... .. D ... ... ... : ... .. D ... ... ... : ... .. . ... : ... .. . ... : ... .. . ... ...
ROW 16 : ... .. . ... ... ... : ... .. . ... ... ... : ... .. . ... : ... .. . ... : ... .. . ... ...
ROW 17 : ... .. . ... ... ... : ... .. . ... ... ... : ... .. . ... : ... .. . ... : ... .. . ... ...
ROW 18 : ... .. C ... ... ... : ... .. C ... ... ... : ... .. . ... : ... .. . ... : ... .. . ... ...
ROW 19 : ... .. . ... ... ... : ... .. . ... ... ... : ... .. . ... : ... .. . ... : ... .. . ... ...
ROW 1A : ... .. . ... ... ... : ... .. . ... ... ... : ... .. . ... : ... .. . ... : ... .. . ... ...
ROW 1B : ... .. B ... ... ... : ... .. B ... ... ... : ... .. . ... : ... .. . ... : ... .. . ... ...
ROW 1C : ... .. 0 ... V00 ... : ... .. 0 ... V00 ... : ... .. . ... : ... .. . ... : ... .. . ... ...
ROW 1D : D-3 00 F P80 V01 ... : G-3 00 F P80 V01 ... : ... .. . ... : ... .. . ... : ... .. . ... ...
ROW 1E : ... .. E ... ... ... : ... .. E ... ... ... : ... .. . ... : ... .. . ... : ... .. . ... ...
ROW 1F : ... .. . ... ... ... : ... .. . ... ... ... : ... .. . ... : ... .. . ... : ... .. . ... ...
ROW 20 : ... .. . ... ... ... : ... .. . ... ... ... : ... .. . ... : ... .. . ... : ... .. . ... ...
ROW 21 : ... .. D ... ... ... : ... .. D ... ... ... : ... .. . ... : ... .. . ... : ... .. . ... ...
ROW 22 : ... .. . ... ... ... : ... .. . ... ... ... : ... .. . ... : ... .. . ... : ... .. . ... ...
ROW 23 : ... .. . ... ... ... : ... .. . ... ... ... : ... .. . ... : ... .. . ... : ... .. . ... ...
ROW 24 : ... .. C ... ... ... : ... .. C ... ... ... : ... .. . ... : ... .. . ... : ... .. . ... ...
ROW 25 : ... .. . ... ... ... : ... .. . ... ... ... : ... .. . ... : ... .. . ... : ... .. . ... ...
ROW 26 : ... .. . ... ... ... : ... .. . ... ... ... : ... .. . ... : ... .. . ... : ... .. . ... ...
ROW 27 : ... .. B ... ... ... : ... .. B ... ... ... : ... .. . ... : ... .. . ... : ... .. . ... ...
ROW 28 : ... .. 0 ... V00 ... : ... .. 0 ... V00 ... : ... .. . ... : ... .. . ... : ... .. . ... ...
ROW 29 : F-3 00 F P80 V01 ... : A-3 00 F P80 V01 ... : ... .. . ... : ... .. . ... : ... .. . ... ...
ROW 2A : ... .. E ... ... ... : ... .. E ... ... ... : ... .. . ... : ... .. . ... : ... .. . ... ...
ROW 2B : ... .. . ... ... ... : ... .. . ... ... ... : ... .. . ... : ... .. . ... : ... .. . ... ...
ROW 2C : ... .. . ... ... ... : ... .. . ... ... ... : ... .. . ... : ... .. . ... : ... .. . ... ...
ROW 2D : ... .. D ... ... ... : ... .. D ... ... ... : ... .. . ... : ... .. . ... : ... .. . ... ...
ROW 2E : ... .. . ... ... ... : ... .. . ... ... ... : ... .. . ... : ... .. . ... : ... .. . ... ...
ROW 2F : ... .. . ... ... ... : ... .. . ... ... ... : ... .. . ... : ... .. . ... : ... .. . ... ...
ROW 30 : ... .. C ... ... ... : ... .. C ... ... ... : ... .. . ... : ... .. . ... : ... .. . ... ...
ROW 31 : ... .. . ... ... ... : ... .. . ... ... ... : ... .. . ... : ... .. . ... : ... .. . ... ...
ROW 32 : ... .. . ... ... ... : ... .. . ... ... ... : ... .. . ... : ... .. . ... : ... .. . ... ...
ROW 33 : ... .. B ... ... ... : ... .. B ... ... ... : ... .. . ... : ... .. . ... : ... .. . ... ...
ROW 34 : ... .. 0 ... V00 ... : ... .. 0 ... V00 ... : ... .. . ... : ... .. . ... : ... .. . ... ...
ROW 35 : G-3 00 F P80 V01 ... : C-4 00 F P80 V01 ... : ... .. . ... : ... .. . ... : ... .. . ... ...
ROW 36 : ... .. E ... ... ... : ... .. E ... ... ... : ... .. . ... : ... .. . ... : ... .. . ... ...
ROW 37 : ... .. . ... ... ... : ... .. . ... ... ... : ... .. . ... : ... .. . ... : ... .. . ... ...
ROW 38 : ... .. . ... ... ... : ... .. . ... ... ... : ... .. . ... : ... .. . ... : ... .. . ... ...
ROW 39 : ... .. D ... ... ... : ... .. D ... ... ... : ... .. . ... : ... .. . ... : ... .. . ... ...
ROW 3A : ... .. . ... ... ... : ... .. . ... ... ... : ... .. . ... : ... .. . ... : ... .. . ... ...
ROW 3B : ... .. . ... ... ... : ... .. . ... ... ... : ... .. . ... : ... .. . ... : ... .. . ... ...
ROW 3C : ... .. C ... ... ... : ... .. C ... ... ... : ... .. . ... : ... .. . ... : ... .. . ... ...
ROW 3D : ... .. . ... ... ... : ... .. . ... ... ... : ... .. . ... : ... .. . ... : ... .. . ... ...
ROW 3E : ... .. . ... ... ... : ... .. . ... ... ... : ... .. . ... : ... .. . ... : ... .. . ... ...
ROW 3F : ... .. B ... ... ... : ... .. B ... ... ... : ... .. . ... : ... .. . ... : ... .. . ... ...
ROW 40 : ... .. 0 ... V00 ... : ... .. 0 ... V00 ... : --- .. . ... : ... .. . ... : ... .. . ... ...
ROW 41 : D-3 00 F P80 V01 ... : G-3 00 F P80 V01 ... : G-2 00 . ... : ... .. . ... : ... .. . ... ...
ROW 42 : ... .. E ... ... ... : ... .. E ... ... ... : ... .. . ... : ... .. . ... : ... .. . ... ...
ROW 43 : ... .. . ... ... ... : ... .. . ... ... ... : ... .. . ... : ... .. . ... : ... .. . ... ...
ROW 44 : ... .. . ... ... ... : ... .. . ... ... ... : ... .. . ... : ... .. . ... : ... .. . ... ...
ROW 45 : ... .. D ... ... ... : ... .. D ... ... ... : ... .. . ... : ... .. . ... : ... .. . ... ...
ROW 46 : ... .. . ... ... ... : ... .. . ... ... ... : ... .. . ... : ... .. . ... : ... .. . ... ...
ROW 47 : ... .. . ... ... ... : ... .. . ... ... ... : ... .. . ... : ... .. . ... : ... .. . ... ...
ROW 48 : ... .. C ... ... ... : ... .. C ... ... ... : ... .. . ... : ... .. . ... : ... .. . ... ...
ROW 49 : ... .. . ... ... ... : ... .. . ... ... ... : ... .. . ... : ... .. . ... : ... .. . ... ...
ROW 4A : ... .. . ... ... ... : ... .. . ... ... ... : ... .. . ... : ... .. . ... : ... .. . ... ...
ROW 4B : ... .. B ... ... ... : ... .. B ... ... ... : ... .. . ... : ... .. . ... : ... .. . ... ...
ROW 4C : ... .. . ... ... ... : ... .. . ... ... ... : ... .. . ... : ... .. . ... : ... .. . ... ...
ROW 4D : ... .. . ... ... ... : ... .. . ... ... ... : ... .. . ... : ... .. . ... : ... .. . ... ...
ROW 4E : ... .. A ... ... ... : ... .. A ... ... ... : ... .. . ... : ... .. . ... : ... .. . ... ...
ROW 4F : ... .. . ... ... ... : ... .. . ... ... ... : ... .. . ... : ... .. . ... : ... .. . ... ...
ROW 50 : ... .. . ... ... ... : ... .. . ... ... ... : ... .. . ... : ... .. . ... : ... .. . ... ...
ROW 51 : ... .. 9 ... ... ... : ... .. 9 ... ... ... : ... .. . ... : ... .. . ... : ... .. . ... ...
ROW 52 : ... .. . ... ... ... : ... .. . ... ... ... : ... .. . ... : ... .. . ... : ... .. . ... ...
ROW 53 : ... .. . ... ... ... : ... .. . ... ... ... : ... .. . ... : ... .. . ... : ... .. . ... ...
ROW 54 : ... .. 8 ... ... ... : ... .. 8 ... ... ... : ... .. . ... : ... .. . ... : ... .. . ... ...
ROW 55 : ... .. . ... ... ... : ... .. . ... ... ... : ... .. . ... : ... .. . ... : ... .. . ... ...
ROW 56 : ... .. 7 ... ... ... : ... .. 7 ... ... ... : ... .. . ... : ... .. . ... : ... .. . ... ...
ROW 57 : ... .. . ... ... ... : ... .. . ... ... ... : ... .. . ... : ... .. . ... : ... .. . ... ...
ROW 58 : ... .. 0 ... V00 ... : ... .. 0 ... V00 ... : ... .. . ... : ... .. . ... : ... .. . ... ...
ROW 59 : F-3 00 F P80 V01 ... : A-3 00 F P80 V01 ... : ... .. . ... : ... .. . ... : ... .. . ... ...
ROW 5A : ... .. E ... ... ... : ... .. E ... ... ... : ... .. . ... : ... .. . ... : ... .. . ... ...
ROW 5B : ... .. . ... ... ... : ... .. . ... ... ... : ... .. . ... : ... .. . ... : ... .. . ... ...
ROW 5C : ... .. . ... ... ... : ... .. . ... ... ... : ... .. . ... : ... .. . ... : ... .. . ... ...
ROW 5D : ... .. D ... ... ... : ... .. D ... ... ... : ... .. . ... : ... .. . ... : ... .. . ... ...
ROW 5E : ... .. . ... ... ... : ... .. . ... ... ... : ... .. . ... : ... .. . ... : ... .. . ... ...
ROW 5F : ... .. . ... ... ... : ... .. . ... ... ... : ... .. . ... : ... .. . ... : ... .. . ... ...
ROW 60 : ... .. C ... ... ... : ... .. C ... ... ... : ... .. . ... : ... .. . ... : ... .. . ... ...
ROW 61 : ... .. . ... ... ... : ... .. . ... ... ... : ... .. . ... : ... .. . ... : ... .. . ... ...
ROW 62 : ... .. . ... ... ... : ... .. . ... ... ... : ... .. . ... : ... .. . ... : ... .. . ... ...
ROW 63 : ... .. B ... ... ... : ... .. B ... ... ... : ... .. . ... : ... .. . ... : ... .. . ... ...
ROW 64 : ... .. 0 ... V00 ... : ... .. 0 ... V00 ... : ... .. . ... : ... .. . ... : ... .. . ... ...
ROW 65 : F-3 00 F P80 V01 ... : C-4 00 F P80 V01 ... : ... .. . ... : ... .. . ... : ... .. . ... ...
ROW 66 : ... .. E ... ... ... : ... .. E ... ... ... : ... .. . ... : ... .. . ... : ... .. . ... ...
ROW 67 : ... .. . ... ... ... : ... .. . ... ... ... : ... .. . ... : ... .. . ... : ... .. . ... ...
ROW 68 : ... .. . ... ... ... : ... .. . ... ... ... : ... .. . ... : ... .. . ... : ... .. . ... ...
ROW 69 : ... .. D ... ... ... : ... .. D ... ... ... : ... .. . ... : ... .. . ... : ... .. . ... ...
ROW 6A : ... .. 0 ... V00 ... : ... .. 0 ... V00 ... : ... .. . ... : ... .. . ... : ... .. . ... ...
ROW 6B : F-3 00 F P80 V01 ... : C-4 00 F P80 V01 ... : ... .. . ... : ... .. . ... : ... .. . ... ...
ROW 6C : ... .. E ... ... ... : ... .. E ... ... ... : ... .. . ... : ... .. . ... : ... .. . ... ...
ROW 6D : ... .. . ... ... ... : ... .. . ... ... ... : ... .. . ... : ... .. . ... : ... .. . ... ...
ROW 6E : ... .. . ... ... ... : ... .. . ... ... ... : ... .. . ... : ... .. . ... : ... .. . ... ...
ROW 6F : ... .. D ... ... ... : ... .. D ... ... ... : ... .. . ... : ... .. . ... : ... .. . ... ...
ROW 70 : ... .. 0 ... V00 ... : ... .. 0 ... V00 ... : ... .. . ... : ... .. . ... : ... .. . ... ...
ROW 71 : C-4 00 F P80 V01 ... : F-4 00 F P80 V01 ... : ... .. . ... : ... .. . ... : ... .. . ... ...
ROW 72 : ... .. E ... ... ... : ... .. E ... ... ... : ... .. . ... : ... .. . ... : ... .. . ... ...
ROW 73 : ... .. . ... ... ... : ... .. . ... ... ... : ... .. . ... : ... .. . ... : ... .. . ... ...
ROW 74 : ... .. . ... ... ... : ... .. . ... ... ... : ... .. . ... : ... .. . ... : ... .. . ... ...
ROW 75 : ... .. D ... ... ... : ... .. D ... ... ... : ... .. . ... : ... .. . ... : ... .. . ... ...
ROW 76 : ... .. . ... ... ... : ... .. . ... ... ... : ... .. . ... : ... .. . ... : ... .. . ... ...
ROW 77 : ... .. . ... ... ... : ... .. . ... ... ... : ... .. . ... : ... .. . ... : ... .. . ... ...
ROW 78 : ... .. C ... ... ... : ... .. C ... ... ... : ... .. . ... : ... .. . ... : ... .. . ... ...
ROW 79 : ... .. . ... ... ... : ... .. . ... ... ... : ... .. . ... : ... .. . ... : ... .. . ... ...
ROW 7A : ... .. . ... ... ... : ... .. . ... ... ... : ... .. . ... : ... .. . ... : ... .. . ... ...
ROW 7B : ... .. B ... ... ... : ... .. B ... ... ... : ... .. . ... : ... .. . ... : ... .. . ... ...
ROW 7C : ... .. 0 ... V00 ... : ... .. 0 ... V00 ... : ... .. . ... : ... .. . ... : ... .. . ... ...
ROW 7D : F-3 00 F P80 V01 ... : C-4 00 F P80 V01 ... : ... .. . ... : ... .. . ... : ... .. . ... ...
ROW 7E : ... .. E ... ... ... : ... .. E ... ... ... : ... .. . ... : ... .. . ... : ... .. . ... ...
ROW 7F : ... .. . ... ... ... : ... .. . ... ... ... : ... .. . ... : ... .. . ... : ... .. . ... ...
ROW 80 : ... .. . ... ... ... : ... .. . ... ... ... : ... .. . ... : ... .. . ... : ... .. . ... ...
ROW 81 : ... .. D ... ... ... : ... .. D ... ... ... : ... .. . ... : ... .. . ... : ... .. . ... ...
ROW 82 : ... .. . ... ... ... : ... .. . ... ... ... : ... .. . ... : ... .. . ... : ... .. . ... ...
ROW 83 : ... .. . ... ... ... : ... .. . ... ... ... : ... .. . ... : ... .. . ... : ... .. . ... ...
ROW 84 : ... .. C ... ... ... : ... .. C ... ... ... : ... .. . ... : ... .. . ... : ... .. . ... ...
ROW 85 : ... .. . ... ... ... : ... .. . ... ... ... : ... .. . ... : ... .. . ... : ... .. . ... ...
ROW 86 : ... .. . ... ... ... : ... .. . ... ... ... : ... .. . ... : ... .. . ... : ... .. . ... ...
ROW 87 : ... .. B ... ... ... : ... .. B ... ... ... : ... .. . ... : ... .. . ... : ... .. . ... ...
ROW 88 : ... .. 0 ... V00 ... : ... .. 0 ... V00 ... : ... .. . ... : ... .. . ... : ... .. . ... ...
ROW 89 : C-3 00 F P80 V01 ... : F-3 00 F P80 V01 ... : ... .. . ... : ... .. . ... : ... .. . ... ...
ROW 8A : ... .. E ... ... ... : ... .. E ... ... ... : ... .. . ... : ... .. . ... : ... .. . ... ...
ROW 8B : ... .. . ... ... ... : ... .. . ... ... ... : ... .. . ... : ... .. . ... : ... .. . ... ...
ROW 8C : ... .. . ... ... ... : ... .. . ... ... ... : ... .. . ... : ... .. . ... : ... .. . ... ...
ROW 8D : ... .. D ... ... ... : ... .. D ... ... ... : ... .. . ... : ... .. . ... : ... .. . ... ...
ROW 8E : ... .. . ... ... ... : ... .. . ... ... ... : ... .. . ... : ... .. . ... : ... .. . ... ...
ROW 8F : ... .. . ... ... ... : ... .. . ... ... ... : ... .. . ... : ... .. . ... : ... .. . ... ...
ROW 90 : ... .. C ... ... ... : ... .. C ... ... ... : ... .. . ... : ... .. . ... : ... .. . ... ...
ROW 91 : ... .. . ... ... ... : ... .. . ... ... ... : ... .. . ... : ... .. . ... : ... .. . ... ...
ROW 92 : ... .. . ... ... ... : ... .. . ... ... ... : ... .. . ... : ... .. . ... : ... .. . ... ...
ROW 93 : ... .. B ... ... ... : ... .. B ... ... ... : ... .. . ... : ... .. . ... : ... .. . ... ...
ROW 94 : ... .. 0 ... V00 ... : ... .. 0 ... V00 ... : ... .. . ... : ... .. . ... : ... .. . ... ...
ROW 95 : C-4 00 F P80 V01 ... : F-4 00 F P80 V01 ... : ... .. . ... : ... .. . ... : ... .. . ... ...
ROW 96 : ... .. E ... ... ... : ... .. E ... ... ... : ... .. . ... : ... .. . ... : ... .. . ... ...
ROW 97 : ... .. . ... ... ... : ... .. . ... ... ... : ... .. . ... : ... .. . ... : ... .. . ... ...
ROW 98 : ... .. . ... ... ... : ... .. . ... ... ... : ... .. . ... : ... .. . ... : ... .. . ... ...
ROW 99 : ... .. D ... ... ... : ... .. D ... ... ... : ... .. . ... : ... .. . ... : ... .. . ... ...
ROW 9A : ... .. . ... ... ... : ... .. . ... ... ... : ... .. . ... : ... .. . ... : ... .. . ... ...
ROW 9B : ... .. . ... ... ... : ... .. . ... ... ... : ... .. . ... : ... .. . ... : ... .. . ... ...
ROW 9C : ... .. C ... ... ... : ... .. C ... ... ... : ... .. . ... : ... .. . ... : ... .. . ... ...
ROW 9D : ... .. . ... ... ... : ... .. . ... ... ... : ... .. . ... : ... .. . ... : ... .. . ... ...
ROW 9E : ... .. . ... ... ... : ... .. . ... ... ... : ... .. . ... : ... .. . ... : ... .. . ... ...
ROW 9F : ... .. B ... ... ... : ... .. B ... ... ... : ... .. . ... : ... .. . ... : ... .. . ... ...
ROW A0 : ... .. 0 ... V00 ... : ... .. 0 ... V00 ... : --- .. . ... : ... .. . ... : ... .. . ... ...
ROW A1 : C-4 00 F P80 V01 ... : E-4 00 F P80 V01 ... : C-3 00 . ... : ... .. . ... : ... .. . ... ...
ROW A2 : ... .. E ... ... ... : ... .. E ... ... ... : ... .. . ... : ... .. . ... : ... .. . ... ...
ROW A3 : ... .. . ... ... ... : ... .. . ... ... ... : ... .. . ... : ... .. . ... : ... .. . ... ...
ROW A4 : ... .. . ... ... ... : ... .. . ... ... ... : ... .. . ... : ... .. . ... : ... .. . ... ...
ROW A5 : ... .. D ... ... ... : ... .. D ... ... ... : ... .. . ... : ... .. . ... : ... .. . ... ...
ROW A6 : ... .. . ... ... ... : ... .. . ... ... ... : ... .. . ... : ... .. . ... : ... .. . ... ...
ROW A7 : ... .. . ... ... ... : ... .. . ... ... ... : ... .. . ... : ... .. . ... : ... .. . ... ...
ROW A8 : ... .. C ... ... ... : ... .. C ... ... ... : ... .. . ... : ... .. . ... : ... .. . ... ...
ROW A9 : ... .. . ... ... ... : ... .. . ... ... ... : ... .. . ... : ... .. . ... : ... .. . ... ...
ROW AA : ... .. . ... ... ... : ... .. . ... ... ... : ... .. . ... : ... .. . ... : ... .. . ... ...
ROW AB : ... .. B ... ... ... : ... .. B ... ... ... : ... .. . ... : ... .. . ... : ... .. . ... ...
ROW AC : ... .. . ... ... ... : ... .. . ... ... ... : ... .. . ... : ... .. . ... : ... .. . ... ...
ROW AD : ... .. . ... ... ... : ... .. . ... ... ... : ... .. . ... : ... .. . ... : ... .. . ... ...
ROW AE : ... .. A ... ... ... : ... .. A ... ... ... : ... .. . ... : ... .. . ... : ... .. . ... ...
ROW AF : ... .. . ... ... ... : ... .. . ... ... ... : ... .. . ... : ... .. . ... : ... .. . ... ...
ROW B0 : ... .. . ... ... ... : ... .. . ... ... ... : ... .. . ... : ... .. . ... : ... .. . ... ...
ROW B1 : ... .. 9 ... ... ... : ... .. 9 ... ... ... : ... .. . ... : ... .. . ... : ... .. . ... ...
ROW B2 : ... .. . ... ... ... : ... .. . ... ... ... : ... .. . ... : ... .. . ... : ... .. . ... ...
ROW B3 : ... .. . ... ... ... : ... .. . ... ... ... : ... .. . ... : ... .. . ... : ... .. . ... ...
ROW B4 : ... .. 8 ... ... ... : ... .. 8 ... ... ... : ... .. . ... : ... .. . ... : ... .. . ... ...
ROW B5 : ... .. . ... ... ... : ... .. . ... ... ... : ... .. . ... : ... .. . ... : ... .. . ... ...
ROW B6 : ... .. 7 ... ... ... : ... .. 7 ... ... ... : ... .. . ... : ... .. . ... : ... .. . ... ...
ROW B7 : ... .. . ... ... ... : ... .. . ... ... ... : ... .. . ... : ... .. . ... : ... .. . ... ...
ROW B8 : ... .. 6 ... ... ... : ... .. 6 ... ... ... : ... .. . ... : ... .. . ... : ... .. . ... ...
ROW B9 : ... .. . ... ... ... : ... .. . ... ... ... : ... .. . ... : ... .. . ... : ... .. . ... ...
ROW BA : ... .. . ... ... ... : ... .. . ... ... ... : ... .. . ... : ... .. . ... : ... .. . ... ...
ROW BB : ... .. 5 ... ... ... : ... .. 5 ... ... ... : ... .. . ... : ... .. . ... : ... .. . ... ...
ROW BC : ... .. . ... ... ... : ... .. . ... ... ... : ... .. . ... : ... .. . ... : ... .. . ... ...
ROW BD : ... .. 4 ... ... ... : ... .. 4 ... ... ... : ... .. . ... : ... .. . ... : ... .. . ... ...
ROW BE : ... .. . ... ... ... : ... .. . ... ... ... : ... .. . ... : ... .. . ... : ... .. . ... ...
ROW BF : ... .. 3 ... ... ... : ... .. 3 ... ... ... : ... .. . ... : ... .. . ... : ... .. . ... ...
ROW C0 : ... .. . ... ... ... : ... .. . ... ... ... : ... .. . ... : ... .. . ... : ... .. . ... ...
ROW C1 : ... .. 2 ... ... ... : ... .. 2 ... ... ... : ... .. . ... : ... .. . ... : ... .. . ... ...
ROW C2 : ... .. 1 ... ... ... : ... .. 1 ... ... ... : ... .. . ... : ... .. . ... : ... .. . ... ...
ROW C3 : ... .. . ... ... ... : ... .. . ... ... ... : ... .. . ... : ... .. . ... : ... .. . ... ...
ROW C4 : ... .. 0 ... V00 ... : ... .. 0 ... V00 ... : ... .. . ... : ... .. . ... : ... .. . ... ...
ROW C5 : E-4 00 F P80 V01 ... : G-4 00 F P80 V01 ... : ... .. . ... : ... .. . ... : ... .. . ... ...
ROW C6 : ... .. E ... ... ... : ... .. E ... ... ... : ... .. . ... : ... .. . ... : ... .. . ... ...
ROW C7 : ... .. . ... ... ... : ... .. . ... ... ... : ... .. . ... : ... .. . ... : ... .. . ... ...
ROW C8 : ... .. . ... ... ... : ... .. . ... ... ... : ... .. . ... : ... .. . ... : ... .. . ... ...
ROW C9 : ... .. D ... ... ... : ... .. D ... ... ... : ... .. . ... : ... .. . ... : ... .. . ... ...
ROW CA : ... .. 0 ... V00 ... : ... .. 0 ... V00 ... : ... .. . ... : ... .. . ... : ... .. . ... ...
ROW CB : E-4 00 F P80 V01 ... : G-4 00 F P80 V01 ... : ... .. . ... : ... .. . ... : ... .. . ... ...
ROW CC : ... .. E ... ... ... : ... .. E ... ... ... : ... .. . ... : ... .. . ... : ... .. . ... ...
ROW CD : ... .. . ... ... ... : ... .. . ... ... ... : ... .. . ... : ... .. . ... : ... .. . ... ...
ROW CE : ... .. . ... ... ... : ... .. . ... ... ... : ... .. . ... : ... .. . ... : ... .. . ... ...
ROW CF : ... .. D ... ... ... : ... .. D ... ... ... : ... .. . ... : ... .. . ... : ... .. . ... ...
ROW D0 : ... .. 0 ... V00 ... : ... .. 0 ... V00 ... : --- .. . ... : ... .. . ... : ... .. . ... ...
ROW D1 : C-4 00 F P80 V01 ... : F-4 00 F P80 V01 ... : C-3 00 . ... : ... .. . ... : ... .. . ... ...
ROW D2 : ... .. E ... ... ... : ... .. E ... ... ... : ... .. . ... : ... .. . ... : ... .. . ... ...
ROW D3 : ... .. . ... ... ... : ... .. . ... ... ... : ... .. . ... : ... .. . ... : ... .. . ... ...
ROW D4 : ... .. . ... ... ... : ... .. . ... ... ... : ... .. . ... : ... .. . ... : ... .. . ... ...
ROW D5 : ... .. D ... ... ... : ... .. D ... ... ... : ... .. . ... : ... .. . ... : ... .. . ... ...
ROW D6 : ... .. . ... ... ... : ... .. . ... ... ... : ... .. . ... : ... .. . ... : ... .. . ... ...
ROW D7 : ... .. . ... ... ... : ... .. . ... ... ... : ... .. . ... : ... .. . ... : ... .. . ... ...
ROW D8 : ... .. C ... ... ... : ... .. C ... ... ... : ... .. . ... : ... .. . ... : ... .. . ... ...
ROW D9 : ... .. . ... ... ... : ... .. . ... ... ... : ... .. . ... : ... .. . ... : ... .. . ... ...
ROW DA : ... .. . ... ... ... : ... .. . ... ... ... : ... .. . ... : ... .. . ... : ... .. . ... ...
ROW DB : ... .. B ... ... ... : ... .. B ... ... ... : ... .. . ... : ... .. . ... : ... .. . ... ...
ROW DC : ... .. 0 ... V00 ... : ... .. 0 ... V00 ... : ... .. . ... : ... .. . ... : ... .. . ... ...
ROW DD : C-4 00 F P80 V01 ... : E-4 00 F P80 V01 ... : ... .. . ... : ... .. . ... : ... .. . ... ...
ROW DE : ... .. E ... ... ... : ... .. E ... ... ... : ... .. . ... : ... .. . ... : ... .. . ... ...
ROW DF : ... .. . ... ... ... : ... .. . ... ... ... : ... .. . ... : ... .. . ... : ... .. . ... ...
ROW E0 : ... .. . ... ... ... : ... .. . ... ... ... : ... .. . ... : ... .. . ... : ... .. . ... ...
ROW E1 : ... .. D ... ... ... : ... .. D ... ... ... : ... .. . ... : ... .. . ... : ... .. . ... ...
ROW E2 : ... .. . ... ... ... : ... .. . ... ... ... : ... .. . ... : ... .. . ... : ... .. . ... ...
ROW E3 : ... .. . ... ... ... : ... .. . ... ... ... : ... .. . ... : ... .. . ... : ... .. . ... ...
ROW E4 : ... .. C ... ... ... : ... .. C ... ... ... : ... .. . ... : ... .. . ... : ... .. . ... ...
ROW E5 : ... .. . ... ... ... : ... .. . ... ... ... : ... .. . ... : ... .. . ... : ... .. . ... ...
ROW E6 : ... .. . ... ... ... : ... .. . ... ... ... : ... .. . ... : ... .. . ... : ... .. . ... ...
ROW E7 : ... .. B ... ... ... : ... .. B ... ... ... : ... .. . ... : ... .. . ... : ... .. . ... ...
ROW E8 : ... .. 0 ... V00 ... : ... .. 0 ... V00 ... : ... .. . ... : 4-# 00 F V00 : ... .. . ... ...
ROW E9 : G-3 00 F P80 V01 ... : D-4 00 F P80 V01 ... : ... .. . ... : ... .. . ... : ... .. . ... ...
ROW EA : ... .. E ... ... ... : ... .. E ... ... ... : ... .. . ... : ... .. . ... : ... .. . ... ...
ROW EB : ... .. . ... ... ... : ... .. . ... ... ... : ... .. . ... : ... .. C ... : ... .. . ... ...
ROW EC : ... .. . ... ... ... : ... .. . ... ... ... : ... .. . ... : ... .. B ... : ... .. . ... ...
ROW ED : ... .. D ... ... ... : ... .. D ... ... ... : ... .. . ... : ... .. 9 ... : ... .. . ... ...
ROW EE : ... .. . ... ... ... : ... .. . ... ... ... : ... .. . ... : ... .. F ... : ... .. . ... ...
ROW EF : ... .. . ... ... ... : ... .. . ... ... ... : ... .. . ... : ... .. . ... : ... .. . ... ...
ROW F0 : ... .. C ... ... ... : ... .. C ... ... ... : ... .. . ... : ... .. . ... : ... .. . ... ...
ROW F1 : ... .. . ... ... ... : ... .. . ... ... ... : ... .. . ... : ... .. C ... : ... .. . ... ...
ROW F2 : ... .. . ... ... ... : ... .. . ... ... ... : ... .. . ... : ... .. B ... : ... .. . ... ...
ROW F3 : ... .. B ... ... ... : ... .. B ... ... ... : ... .. . ... : ... .. 9 ... : ... .. . ... ...
ROW F4 : ... .. 0 ... V00 ... : ... .. 0 ... V00 ... : ... .. . ... : ... .. F ... : ... .. . ... ...
ROW F5 : G-3 00 F P80 V01 ... : C-4 00 F P80 V01 ... : ... .. . ... : ... .. . ... : ... .. . ... ...
ROW F6 : ... .. E ... ... ... : ... .. E ... ... ... : ... .. . ... : ... .. . ... : ... .. . ... ...
ROW F7 : ... .. . ... ... ... : ... .. . ... ... ... : ... .. . ... : ... .. C ... : ... .. . ... ...
ROW F8 : ... .. . ... ... ... : ... .. . ... ... ... : ... .. . ... : ... .. B ... : ... .. . ... ...
ROW F9 : ... .. D ... ... ... : ... .. D ... ... ... : ... .. . ... : ... .. 9 ... : ... .. . ... ...
ROW FA : ... .. . ... ... ... : ... .. . ... ... ... : ... .. . ... : ... .. F ... : ... .. . ... ...
ROW FB : ... .. . ... ... ... : ... .. . ... ... ... : ... .. . ... : ... .. . ... : ... .. . ... ...
ROW FC : ... .. C ... ... ... : ... .. C ... ... ... : ... .. . ... : ... .. . ... : ... .. . ... ...
ROW FD : ... .. . ... ... ... : ... .. . ... ... ... : ... .. . ... : ... .. C ... : ... .. . ... ...
ROW FE : ... .. . ... ... ... : ... .. . ... ... ... : ... .. . ... : ... .. B ... : ... .. . ... ...
ROW FF : ... .. B ... ... ... : ... .. B ... ... ... : ... .. . ... : ... .. 9 ... : ... .. . ... ...

PATTERN 18
ROW 00 : ... .. 0 ... V00 ... : ... .. 0 ... V00 ... : A#3 00 . P81 : ... .. 0 ... : ... .. . ... ...
ROW 01 : G-3 00 F P80 V01 ... : C-4 00 F P80 V01 ... : D#3 00 . P89 : 1-# 00 F V01 : ... .. . ... ...
ROW 02 : ... .. E ... ... ... : ... .. E ... ... ... : B-2 00 . P76 : ... .. E ... : ... .. . ... ...
ROW 03 : ... .. . ... ... ... : ... .. . ... ... ... : G-2 00 . P7C : ... .. . ... : ... .. . ... ...
ROW 04 : ... .. . ... ... ... : ... .. . ... ... ... : E-2 00 . P78 : ... .. . ... : ... .. . ... ...
ROW 05 : ... .. D ... ... ... : ... .. D ... ... ... : C#2 00 . P88 : ... .. D ... : ... .. . ... ...
ROW 06 : ... .. . ... ... ... : ... .. . ... ... ... : B-1 00 . P7B : ... .. . ... : ... .. . ... ...
ROW 07 : ... .. . ... ... ... : ... .. . ... ... ... : A-1 00 . P7A : ... .. . ... : ... .. . ... ...
ROW 08 : ... .. C ... ... ... : ... .. C ... ... ... : G-1 00 . P86 : ... .. C ... : ... .. . ... ...
ROW 09 : ... .. . ... ... ... : ... .. . ... ... ... : F-1 00 . PA2 : ... .. . ... : ... .. . ... ...
ROW 0A : ... .. . ... ... ... : ... .. . ... ... ... : --- .. . ... : ... .. . ... : ... .. . ... ...
ROW 0B : ... .. B ... ... ... : ... .. B ... ... ... : ... .. . ... : ... .. B ... : ... .. . ... ...
ROW 0C : ... .. . ... ... ... : ... .. . ... ... ... : ... .. . ... : ... .. . ... : ... .. . ... ...
ROW 0D : ... .. . ... ... ... : ... .. . ... ... ... : C-3 00 . P80 : ... .. . ... : ... .. . ... ...
ROW 0E : ... .. A ... ... ... : ... .. A ... ... ... : ... .. . ... : ... .. A ... : ... .. . ... ...
ROW 0F : ... .. . ... ... ... : ... .. . ... ... ... : ... .. . ... : ... .. . ... : ... .. . ... ...
ROW 10 : ... .. . ... ... ... : ... .. . ... ... ... : ... .. . ... : ... .. . ... : ... .. . ... ...
ROW 11 : ... .. 9 ... ... ... : ... .. 9 ... ... ... : ... .. . ... : ... .. 9 ... : ... .. . ... ...
ROW 12 : ... .. . ... ... ... : ... .. . ... ... ... : ... .. . ... : ... .. . ... : ... .. . ... ...
ROW 13 : ... .. . ... ... ... : ... .. . ... ... ... : ... .. . ... : ... .. . ... : ... .. . ... ...
ROW 14 : ... .. 8 ... ... ... : ... .. 8 ... ... ... : ... .. . ... : ... .. 8 ... : ... .. . ... ...
ROW 15 : ... .. . ... ... ... : ... .. . ... ... ... : ... .. . ... : ... .. . ... : ... .. . ... ...
ROW 16 : ... .. 7 ... ... ... : ... .. 7 ... ... ... : ... .. . ... : ... .. 7 ... : ... .. . ... ...
ROW 17 : ... .. . ... ... ... : ... .. . ... ... ... : ... .. . ... : ... .. . ... : ... .. . ... ...
ROW 18 : ... .. 0 ... V00 ... : ... .. 0 ... V00 ... : ... .. . ... : ... .. 6 ... : ... .. . ... ...
ROW 19 : C-4 00 F P80 V01 ... : E-4 00 F P80 V01 ... : ... .. . ... : ... .. . ... : ... .. . ... ...
ROW 1A : ... .. E ... ... ... : ... .. E ... ... ... : ... .. . ... : ... .. . ... : ... .. . ... ...
ROW 1B : ... .. . ... ... ... : ... .. . ... ... ... : ... .. . ... : ... .. 5 ... : ... .. . ... ...
ROW 1C : ... .. . ... ... ... : ... .. . ... ... ... : ... .. . ... : ... .. . ... : ... .. . ... ...
ROW 1D : ... .. D ... ... ... : ... .. D ... ... ... : ... .. . ... : ... .. 4 ... : ... .. . ... ...
ROW 1E : ... .. . ... ... ... : ... .. . ... ... ... : ... .. . ... : ... .. . ... : ... .. . ... ...
ROW 1F : ... .. . ... ... ... : ... .. . ... ... ... : ... .. . ... : ... .. 3 ... : ... .. . ... ...
ROW 20 : ... .. C ... ... ... : ... .. C ... ... ... : ... .. . ... : ... .. . ... : ... .. . ... ...
ROW 21 : ... .. . ... ... ... : ... .. . ... ... ... : ... .. . ... : ... .. 2 ... : ... .. . ... ...
ROW 22 : ... .. . ... ... ... : ... .. . ... ... ... : ... .. . ... : ... .. 1 ... : ... .. . ... ...
ROW 23 : ... .. B ... ... ... : ... .. B ... ... ... : ... .. . ... : ... .. . ... : ... .. . ... ...
ROW 24 : ... .. 0 ... V00 ... : ... .. 0 ... V00 ... : ... .. . ... : ... .. . ... : ... .. . ... ...
ROW 25 : C-4 00 F P80 V01 ... : F-4 00 F P80 V01 ... : ... .. . ... : ... .. . ... : ... .. . ... ...
ROW 26 : ... .. E ... ... ... : ... .. E ... ... ... : ... .. . ... : ... .. . ... : ... .. . ... ...
ROW 27 : ... .. . ... ... ... : ... .. . ... ... ... : ... .. . ... : ... .. . ... : ... .. . ... ...
ROW 28 : ... .. . ... ... ... : ... .. . ... ... ... : ... .. . ... : ... .. . ... : ... .. . ... ...
ROW 29 : ... .. D ... ... ... : ... .. D ... ... ... : ... .. . ... : ... .. . ... : ... .. . ... ...
ROW 2A : ... .. 0 ... V00 ... : ... .. 0 ... V00 ... : ... .. . ... : ... .. . ... : ... .. . ... ...
ROW 2B : C-4 00 F P80 V01 ... : F-4 00 F P80 V01 ... : ... .. . ... : ... .. . ... : ... .. . ... ...
ROW 2C : ... .. E ... ... ... : ... .. E ... ... ... : ... .. . ... : ... .. . ... : ... .. . ... ...
ROW 2D : ... .. . ... ... ... : ... .. . ... ... ... : ... .. . ... : ... .. . ... : ... .. . ... ...
ROW 2E : ... .. . ... ... ... : ... .. . ... ... ... : ... .. . ... : ... .. . ... : ... .. . ... ...
ROW 2F : ... .. D ... ... ... : ... .. D ... ... ... : ... .. . ... : ... .. . ... : ... .. . ... ...
ROW 30 : ... .. 0 ... V00 ... : ... .. 0 ... V00 ... : ... .. . ... : ... .. . ... : ... .. . ... ...
ROW 31 : G-3 00 F P80 V01 ... : C-4 00 F P80 V01 ... : ... .. . ... : ... .. . ... : ... .. . ... ...
ROW 32 : ... .. E ... ... ... : ... .. E ... ... ... : ... .. . ... : ... .. . ... : ... .. . ... ...
ROW 33 : ... .. . ... ... ... : ... .. . ... ... ... : ... .. . ... : ... .. . ... : ... .. . ... ...
ROW 34 : ... .. . ... ... ... : ... .. . ... ... ... : ... .. . ... : ... .. . ... : ... .. . ... ...
ROW 35 : ... .. D ... ... ... : ... .. D ... ... ... : ... .. . ... : ... .. . ... : ... .. . ... ...
ROW 36 : ... .. . ... ... ... : ... .. . ... ... ... : ... .. . ... : ... .. . ... : ... .. . ... ...
ROW 37 : ... .. . ... ... ... : ... .. . ... ... ... : ... .. . ... : ... .. . ... : ... .. . ... ...
ROW 38 : ... .. C ... ... ... : ... .. C ... ... ... : ... .. . ... : ... .. . ... : ... .. . ... ...
ROW 39 : ... .. . ... ... ... : ... .. . ... ... ... : ... .. . ... : ... .. . ... : ... .. . ... ...
ROW 3A : ... .. . ... ... ... : ... .. . ... ... ... : ... .. . ... : ... .. . ... : ... .. . ... ...
ROW 3B : ... .. B ... ... ... : ... .. B ... ... ... : ... .. . ... : ... .. . ... : ... .. . ... ...
ROW 3C : ... .. 0 ... V00 ... : ... .. 0 ... V00 ... : ... .. . ... : ... .. . ... : ... .. . ... ...
ROW 3D : E-3 00 F P80 V01 ... : G-3 00 F P80 V01 ... : ... .. . ... : ... .. . ... : ... .. . ... ...
ROW 3E : ... .. E ... ... ... : ... .. E ... ... ... : ... .. . ... : ... .. . ... : ... .. . ... ...
ROW 3F : ... .. . ... ... ... : ... .. . ... ... ... : ... .. . ... : ... .. . ... : ... .. . ... ...
ROW 40 : ... .. . ... ... ... : ... .. . ... ... ... : ... .. . ... : ... .. . ... : ... .. . ... ...
ROW 41 : ... .. D ... ... ... : ... .. D ... ... ... : ... .. . ... : ... .. . ... : ... .. . ... ...
ROW 42 : ... .. . ... ... ... : ... .. . ... ... ... : ... .. . ... : ... .. . ... : ... .. . ... ...
ROW 43 : ... .. . ... ... ... : ... .. . ... ... ... : ... .. . ... : ... .. . ... : ... .. . ... ...
ROW 44 : ... .. C ... ... ... : ... .. C ... ... ... : ... .. . ... : ... .. . ... : ... .. . ... ...
ROW 45 : ... .. . ... ... ... : ... .. . ... ... ... : ... .. . ... : ... .. . ... : ... .. . ... ...
ROW 46 : ... .. . ... ... ... : ... .. . ... ... ... : ... .. . ... : ... .. . ... : ... .. . ... ...
ROW 47 : ... .. B ... ... ... : ... .. B ... ... ... : ... .. . ... : ... .. . ... : ... .. . ... ...
ROW 48 : ... .. 0 ... V00 ... : ... .. 0 ... V00 ... : ... .. . ... : ... .. . ... : ... .. . ... ...
ROW 49 : F-3 00 F P80 V01 ... : A-3 00 F P80 V01 ... : ... .. . ... : ... .. . ... : ... .. . ... ...
ROW 4A : ... .. E ... ... ... : ... .. E ... ... ... : ... .. . ... : ... .. . ... : ... .. . ... ...
ROW 4B : ... .. . ... ... ... : ... .. . ... ... ... : ... .. . ... : ... .. . ... : ... .. . ... ...
ROW 4C : ... .. . ... ... ... : ... .. . ... ... ... : ... .. . ... : ... .. . ... : ... .. . ... ...
ROW 4D : ... .. D ... ... ... : ... .. D ... ... ... : ... .. . ... : ... .. . ... : ... .. . ... ...
ROW 4E : ... .. . ... ... ... : ... .. . ... ... ... : ... .. . ... : ... .. . ... : ... .. . ... ...
ROW 4F : ... .. . ... ... ... : ... .. . ... ... ... : ... .. . ... : ... .. . ... : ... .. . ... ...
ROW 50 : ... .. C ... ... ... : ... .. C ... ... ... : ... .. . ... : ... .. . ... : ... .. . ... ...
ROW 51 : ... .. . ... ... ... : ... .. . ... ... ... : ... .. . ... : ... .. . ... : ... .. . ... ...
ROW 52 : ... .. . ... ... ... : ... .. . ... ... ... : ... .. . ... : ... .. . ... : ... .. . ... ...
ROW 53 : ... .. B ... ... ... : ... .. B ... ... ... : ... .. . ... : ... .. . ... : ... .. . ... ...
ROW 54 : ... .. 0 ... V00 ... : ... .. 0 ... V00 ... : ... .. . ... : ... .. . ... : ... .. . ... ...
ROW 55 : G-3 00 F P80 V01 ... : C-4 00 F P80 V01 ... : ... .. . ... : ... .. . ... : ... .. . ... ...
ROW 56 : ... .. E ... ... ... : ... .. E ... ... ... : ... .. . ... : ... .. . ... : ... .. . ... ...
ROW 57 : ... .. . ... ... ... : ... .. . ... ... ... : ... .. . ... : ... .. . ... : ... .. . ... ...
ROW 58 : ... .. . ... ... ... : ... .. . ... ... ... : ... .. . ... : ... .. . ... : ... .. . ... ...
ROW 59 : ... .. D ... ... ... : ... .. D ... ... ... : ... .. . ... : ... .. . ... : ... .. . ... ...
ROW 5A : ... .. . ... ... ... : ... .. . ... ... ... : ... .. . ... : ... .. . ... : ... .. . ... ...
ROW 5B : ... .. . ... ... ... : ... .. . ... ... ... : ... .. . ... : ... .. . ... : ... .. . ... ...
ROW 5C : ... .. C ... ... ... : ... .. C ... ... ... : ... .. . ... : ... .. . ... : ... .. . ... ...
ROW 5D : ... .. . ... ... ... : ... .. . ... ... ... : ... .. . ... : ... .. . ... : ... .. . ... ...
ROW 5E : ... .. . ... ... ... : ... .. . ... ... ... : ... .. . ... : ... .. . ... : ... .. . ... ...
ROW 5F : ... .. B ... ... ... : ... .. B ... ... ... : ... .. . ... : ... .. . ... : ... .. . ... ...
ROW 60 : ... .. 0 ... V00 ... : ... .. 0 ... V00 ... : --- .. . ... : ... .. . ... : ... .. . ... ...
ROW 61 : G-3 00 F P80 V01 ... : B-3 00 F P80 V01 ... : G-2 00 . ... : ... .. . ... : ... .. . ... ...
ROW 62 : ... .. E ... ... ... : ... .. E ... ... ... : ... .. . ... : ... .. . ... : ... .. . ... ...
ROW 63 : ... .. . ... ... ... : ... .. . ... ... ... : ... .. . ... : ... .. . ... : ... .. . ... ...
ROW 64 : ... .. . ... ... ... : ... .. . ... ... ... : ... .. . ... : ... .. . ... : ... .. . ... ...
ROW 65 : ... .. D ... ... ... : ... .. D ... ... ... : ... .. . ... : ... .. . ... : ... .. . ... ...
ROW 66 : ... .. . ... ... ... : ... .. . ... ... ... : ... .. . ... : ... .. . ... : ... .. . ... ...
ROW 67 : ... .. . ... ... ... : ... .. . ... ... ... : ... .. . ... : ... .. . ... : ... .. . ... ...
ROW 68 : ... .. C ... ... ... : ... .. C ... ... ... : ... .. . ... : ... .. . ... : ... .. . ... ...
ROW 69 : ... .. . ... ... ... : ... .. . ... ... ... : ... .. . ... : ... .. . ... : ... .. . ... ...
ROW 6A : ... .. . ... ... ... : ... .. . ... ... ... : ... .. . ... : ... .. . ... : ... .. . ... ...
ROW 6B : ... .. B ... ... ... : ... .. B ... ... ... : ... .. . ... : ... .. . ... : ... .. . ... ...
ROW 6C : ... .. . ... ... ... : ... .. . ... ... ... : ... .. . ... : ... .. . ... : ... .. . ... ...
ROW 6D : ... .. . ... ... ... : ... .. . ... ... ... : ... .. . ... : ... .. . ... : ... .. . ... ...
ROW 6E : ... .. A ... ... ... : ... .. A ... ... ... : ... .. . ... : ... .. . ... : ... .. . ... ...
ROW 6F : ... .. . ... ... ... : ... .. . ... ... ... : ... .. . ... : ... .. . ... : ... .. . ... ...
ROW 70 : ... .. . ... ... ... : ... .. . ... ... ... : ... .. . ... : ... .. . ... : ... .. . ... ...
ROW 71 : ... .. 9 ... ... ... : ... .. 9 ... ... ... : ... .. . ... : ... .. . ... : ... .. . ... ...
ROW 72 : ... .. . ... ... ... : ... .. . ... ... ... : ... .. . ... : ... .. . ... : ... .. . ... ...
ROW 73 : ... .. . ... ... ... : ... .. . ... ... ... : ... .. . ... : ... .. . ... : ... .. . ... ...
ROW 74 : ... .. 8 ... ... ... : ... .. 8 ... ... ... : ... .. . ... : ... .. . ... : ... .. . ... ...
ROW 75 : ... .. . ... ... ... : ... .. . ... ... ... : ... .. . ... : ... .. . ... : ... .. . ... ...
ROW 76 : ... .. 7 ... ... ... : ... .. 7 ... ... ... : ... .. . ... : ... .. . ... : ... .. . ... ...
ROW 77 : ... .. . ... ... ... : ... .. . ... ... ... : ... .. . ... : ... .. . ... : ... .. . ... ...
ROW 78 : ... .. 6 ... ... ... : ... .. 6 ... ... ... : ... .. . ... : ... .. . ... : ... .. . ... ...
ROW 79 : ... .. . ... ... ... : ... .. . ... ... ... : ... .. . ... : ... .. . ... : ... .. . ... ...
ROW 7A : ... .. . ... ... ... : ... .. . ... ... ... : ... .. . ... : ... .. . ... : ... .. . ... ...
ROW 7B : ... .. 5 ... ... ... : ... .. 5 ... ... ... : ... .. . ... : ... .. . ... : ... .. . ... ...
ROW 7C : ... .. . ... ... ... : ... .. . ... ... ... : ... .. . ... : ... .. . ... : ... .. . ... ...
ROW 7D : ... .. 4 ... ... ... : ... .. 4 ... ... ... : ... .. . ... : ... .. . ... : ... .. . ... ...
ROW 7E : ... .. . ... ... ... : ... .. . ... ... ... : ... .. . ... : ... .. . ... : ... .. . ... ...
ROW 7F : ... .. 3 ... ... ... : ... .. 3 ... ... ... : ... .. . ... : ... .. . ... : ... .. . ... ...
ROW 80 : ... .. . ... ... ... : ... .. . ... ... ... : ... .. . ... : ... .. . ... : ... .. . ... ...
ROW 81 : ... .. 2 ... ... ... : ... .. 2 ... ... ... : ... .. . ... : ... .. . ... : ... .. . ... ...
ROW 82 : ... .. 1 ... ... ... : ... .. 1 ... ... ... : ... .. . ... : ... .. . ... : ... .. . ... ...
ROW 83 : ... .. . ... ... ... : ... .. . ... ... ... : ... .. . ... : ... .. . ... : ... .. . ... ...
ROW 84 : ... .. 0 ... V00 ... : ... .. 0 ... V00 ... : ... .. . ... : ... .. . ... : ... .. . ... ...
ROW 85 : D-3 00 F P80 V01 ... : G-3 00 F P80 V01 ... : ... .. . ... : ... .. . ... : ... .. . ... ...
ROW 86 : ... .. E ... ... ... : ... .. E ... ... ... : ... .. . ... : ... .. . ... : ... .. . ... ...
ROW 87 : ... .. . ... ... ... : ... .. . ... ... ... : ... .. . ... : ... .. . ... : ... .. . ... ...
ROW 88 : ... .. . ... ... ... : ... .. . ... ... ... : ... .. . ... : ... .. . ... : ... .. . ... ...
ROW 89 : ... .. D ... ... ... : ... .. D ... ... ... : ... .. . ... : ... .. . ... : ... .. . ... ...
ROW 8A : ... .. 0 ... V00 ... : ... .. 0 ... V00 ... : ... .. . ... : ... .. . ... : ... .. . ... ...
ROW 8B : D-3 00 F P80 V01 ... : G-3 00 F P80 V01 ... : ... .. . ... : ... .. . ... : ... .. . ... ...
ROW 8C : ... .. E ... ... ... : ... .. E ... ... ... : ... .. . ... : ... .. . ... : ... .. . ... ...
ROW 8D : ... .. . ... ... ... : ... .. . ... ... ... : ... .. . ... : ... .. . ... : ... .. . ... ...
ROW 8E : ... .. . ... ... ... : ... .. . ... ... ... : ... .. . ... : ... .. . ... : ... .. . ... ...
ROW 8F : ... .. D ... ... ... : ... .. D ... ... ... : ... .. . ... : ... .. . ... : ... .. . ... ...
ROW 90 : ... .. 0 ... V00 ... : ... .. 0 ... V00 ... : --- .. . ... : ... .. . ... : ... .. . ... ...
ROW 91 : D-3 00 F P80 V01 ... : F-3 00 F P80 V01 ... : G-2 00 . ... : ... .. . ... : ... .. . ... ...
ROW 92 : ... .. E ... ... ... : ... .. E ... ... ... : ... .. . ... : ... .. . ... : ... .. . ... ...
ROW 93 : ... .. . ... ... ... : ... .. . ... ... ... : ... .. . ... : ... .. . ... : ... .. . ... ...
ROW 94 : ... .. . ... ... ... : ... .. . ... ... ... : ... .. . ... : ... .. . ... : ... .. . ... ...
ROW 95 : ... .. D ... ... ... : ... .. D ... ... ... : ... .. . ... : ... .. . ... : ... .. . ... ...
ROW 96 : ... .. . ... ... ... : ... .. . ... ... ... : ... .. . ... : ... .. . ... : ... .. . ... ...
ROW 97 : ... .. . ... ... ... : ... .. . ... ... ... : ... .. . ... : ... .. . ... : ... .. . ... ...
ROW 98 : ... .. C ... ... ... : ... .. C ... ... ... : ... .. . ... : ... .. . ... : ... .. . ... ...
ROW 99 : ... .. . ... ... ... : ... .. . ... ... ... : ... .. . ... : ... .. . ... : ... .. . ... ...
ROW 9A : ... .. . ... ... ... : ... .. . ... ... ... : ... .. . ... : ... .. . ... : ... .. . ... ...
ROW 9B : ... .. B ... ... ... : ... .. B ... ... ... : ... .. . ... : ... .. . ... : ... .. . ... ...
ROW 9C : ... .. 0 ... V00 ... : ... .. 0 ... V00 ... : ... .. . ... : ... .. . ... : ... .. . ... ...
ROW 9D : D-3 00 F P80 V01 ... : G-3 00 F P80 V01 ... : ... .. . ... : ... .. . ... : ... .. . ... ...
ROW 9E : ... .. E ... ... ... : ... .. E ... ... ... : ... .. . ... : ... .. . ... : ... .. . ... ...
ROW 9F : ... .. . ... ... ... : ... .. . ... ... ... : ... .. . ... : ... .. . ... : ... .. . ... ...
ROW A0 : ... .. . ... ... ... : ... .. . ... ... ... : ... .. . ... : ... .. . ... : ... .. . ... ...
ROW A1 : ... .. D ... ... ... : ... .. D ... ... ... : ... .. . ... : ... .. . ... : ... .. . ... ...
ROW A2 : ... .. . ... ... ... : ... .. . ... ... ... : ... .. . ... : ... .. . ... : ... .. . ... ...
ROW A3 : ... .. . ... ... ... : ... .. . ... ... ... : ... .. . ... : ... .. . ... : ... .. . ... ...
ROW A4 : ... .. C ... ... ... : ... .. C ... ... ... : ... .. . ... : ... .. . ... : ... .. . ... ...
ROW A5 : ... .. . ... ... ... : ... .. . ... ... ... : ... .. . ... : ... .. . ... : ... .. . ... ...
ROW A6 : ... .. . ... ... ... : ... .. . ... ... ... : ... .. . ... : ... .. . ... : ... .. . ... ...
ROW A7 : ... .. B ... ... ... : ... .. B ... ... ... : ... .. . ... : ... .. . ... : ... .. . ... ...
ROW A8 : ... .. 0 ... V00 ... : ... .. 0 ... V00 ... : ... .. . ... : ... .. . ... : ... .. . ... ...
ROW A9 : F-3 00 F P80 V01 ... : A-3 00 F P80 V01 ... : ... .. . ... : ... .. . ... : ... .. . ... ...
ROW AA : ... .. E ... ... ... : ... .. E ... ... ... : ... .. . ... : ... .. . ... : ... .. . ... ...
ROW AB : ... .. . ... ... ... : ... .. . ... ... ... : ... .. . ... : ... .. . ... : ... .. . ... ...
ROW AC : ... .. . ... ... ... : ... .. . ... ... ... : ... .. . ... : ... .. . ... : ... .. . ... ...
ROW AD : ... .. D ... ... ... : ... .. D ... ... ... : ... .. . ... : ... .. . ... : ... .. . ... ...
ROW AE : ... .. . ... ... ... : ... .. . ... ... ... : ... .. . ... : ... .. . ... : ... .. . ... ...
ROW AF : ... .. . ... ... ... : ... .. . ... ... ... : ... .. . ... : ... .. . ... : ... .. . ... ...
ROW B0 : ... .. C ... ... ... : ... .. C ... ... ... : ... .. . ... : ... .. . ... : ... .. . ... ...
ROW B1 : ... .. . ... ... ... : ... .. . ... ... ... : ... .. . ... : ... .. . ... : ... .. . ... ...
ROW B2 : ... .. . ... ... ... : ... .. . ... ... ... : ... .. . ... : ... .. . ... : ... .. . ... ...
ROW B3 : ... .. B ... ... ... : ... .. B ... ... ... : ... .. . ... : ... .. . ... : ... .. . ... ...
ROW B4 : ... .. 0 ... V00 ... : ... .. 0 ... V00 ... : ... .. . ... : ... .. . ... : ... .. . ... ...
ROW B5 : G-3 00 F P80 V01 ... : C-4 00 F P80 V01 ... : ... .. . ... : ... .. . ... : ... .. . ... ...
ROW B6 : ... .. E ... ... ... : ... .. E ... ... ... : ... .. . ... : ... .. . ... : ... .. . ... ...
ROW B7 : ... .. . ... ... ... : ... .. . ... ... ... : ... .. . ... : ... .. . ... : ... .. . ... ...
ROW B8 : ... .. . ... ... ... : ... .. . ... ... ... : ... .. . ... : ... .. . ... : ... .. . ... ...
ROW B9 : ... .. D ... ... ... : ... .. D ... ... ... : ... .. . ... : ... .. . ... : ... .. . ... ...
ROW BA : ... .. . ... ... ... : ... .. . ... ... ... : ... .. . ... : ... .. . ... : ... .. . ... ...
ROW BB : ... .. . ... ... ... : ... .. . ... ... ... : ... .. . ... : ... .. . ... : ... .. . ... ...
ROW BC : ... .. C ... ... ... : ... .. C ... ... ... : ... .. . ... : ... .. . ... : ... .. . ... ...
ROW BD : ... .. . ... ... ... : ... .. . ... ... ... : ... .. . ... : ... .. . ... : ... .. . ... ...
ROW BE : ... .. . ... ... ... : ... .. . ... ... ... : ... .. . ... : ... .. . ... : ... .. . ... ...
ROW BF : ... .. B ... ... ... : ... .. B ... ... ... : ... .. . ... : ... .. . ... : ... .. . ... ...
ROW C0 : ... .. 0 ... V00 ... : ... .. 0 ... V00 ... : --- .. . ... : ... .. . ... : ... .. . ... ...
ROW C1 : D-3 00 F P80 V01 ... : G-3 00 F P80 V01 ... : G-2 00 . ... : ... .. . ... : ... .. . ... ...
ROW C2 : ... .. E ... ... ... : ... .. E ... ... ... : ... .. . ... : ... .. . ... : ... .. . ... ...
ROW C3 : ... .. . ... ... ... : ... .. . ... ... ... : ... .. . ... : ... .. . ... : ... .. . ... ...
ROW C4 : ... .. . ... ... ... : ... .. . ... ... ... : ... .. . ... : ... .. . ... : ... .. . ... ...
ROW C5 : ... .. D ... ... ... : ... .. D ... ... ... : ... .. . ... : ... .. . ... : ... .. . ... ...
ROW C6 : ... .. . ... ... ... : ... .. . ... ... ... : ... .. . ... : ... .. . ... : ... .. . ... ...
ROW C7 : ... .. . ... ... ... : ... .. . ... ... ... : ... .. . ... : ... .. . ... : ... .. . ... ...
ROW C8 : ... .. C ... ... ... : ... .. C ... ... ... : ... .. . ... : ... .. . ... : ... .. . ... ...
ROW C9 : ... .. . ... ... ... : ... .. . ... ... ... : ... .. . ... : ... .. . ... : ... .. . ... ...
ROW CA : ... .. . ... ... ... : ... .. . ... ... ... : ... .. . ... : ... .. . ... : ... .. . ... ...
ROW CB : ... .. B ... ... ... : ... .. B ... ... ... : ... .. . ... : ... .. . ... : ... .. . ... ...
ROW CC : ... .. . ... ... ... : ... .. . ... ... ... : ... .. . ... : ... .. . ... : ... .. . ... ...
ROW CD : ... .. . ... ... ... : ... .. . ... ... ... : ... .. . ... : ... .. . ... : ... .. . ... ...
ROW CE : ... .. A ... ... ... : ... .. A ... ... ... : ... .. . ... : ... .. . ... : ... .. . ... ...
ROW CF : ... .. . ... ... ... : ... .. . ... ... ... : ... .. . ... : ... .. . ... : ... .. . ... ...
ROW D0 : ... .. . ... ... ... : ... .. . ... ... ... : ... .. . ... : ... .. . ... : ... .. . ... ...
ROW D1 : ... .. 9 ... ... ... : ... .. 9 ... ... ... : ... .. . ... : ... .. . ... : ... .. . ... ...
ROW D2 : ... .. . ... ... ... : ... .. . ... ... ... : ... .. . ... : ... .. . ... : ... .. . ... ...
ROW D3 : ... .. . ... ... ... : ... .. . ... ... ... : ... .. . ... : ... .. . ... : ... .. . ... ...
ROW D4 : ... .. 8 ... ... ... : ... .. 8 ... ... ... : ... .. . ... : ... .. . ... : ... .. . ... ...
ROW D5 : ... .. . ... ... ... : ... .. . ... ... ... : ... .. . ... : ... .. . ... : ... .. . ... ...
ROW D6 : ... .. 7 ... ... ... : ... .. 7 ... ... ... : ... .. . ... : ... .. . ... : ... .. . ... ...
ROW D7 : ... .. . ... ... ... : ... .. . ... ... ... : ... .. . ... : ... .. . ... : ... .. . ... ...
ROW D8 : ... .. 0 ... V00 ... : ... .. 0 ... V00 ... : ... .. . ... : ... .. . ... : ... .. . ... ...
ROW D9 : F-3 00 F P80 V01 ... : A-3 00 F P80 V01 ... : ... .. . ... : ... .. . ... : ... .. . ... ...
ROW DA : ... .. E ... ... ... : ... .. E ... ... ... : ... .. . ... : ... .. . ... : ... .. . ... ...
ROW DB : ... .. . ... ... ... : ... .. . ... ... ... : ... .. . ... : ... .. . ... : ... .. . ... ...
ROW DC : ... .. . ... ... ... : ... .. . ... ... ... : ... .. . ... : ... .. . ... : ... .. . ... ...
ROW DD : ... .. D ... ... ... : ... .. D ... ... ... : ... .. . ... : ... .. . ... : ... .. . ... ...
ROW DE : ... .. . ... ... ... : ... .. . ... ... ... : ... .. . ... : ... .. . ... : ... .. . ... ...
ROW DF : ... .. . ... ... ... : ... .. . ... ... ... : ... .. . ... : ... .. . ... : ... .. . ... ...
ROW E0 : ... .. C ... ... ... : ... .. C ... ... ... : ... .. . ... : ... .. . ... : ... .. . ... ...
ROW E1 : ... .. . ... ... ... : ... .. . ... ... ... : ... .. . ... : ... .. . ... : ... .. . ... ...
ROW E2 : ... .. . ... ... ... : ... .. . ... ... ... : ... .. . ... : ... .. . ... : ... .. . ... ...
ROW E3 : ... .. B ... ... ... : ... .. B ... ... ... : ... .. . ... : ... .. . ... : ... .. . ... ...
ROW E4 : ... .. 0 ... V00 ... : ... .. 0 ... V00 ... : ... .. . ... : ... .. . ... : ... .. . ... ...
ROW E5 : F-3 00 F P80 V01 ... : C-4 00 F P80 V01 ... : ... .. . ... : ... .. . ... : ... .. . ... ...
ROW E6 : ... .. E ... ... ... : ... .. E ... ... ... : ... .. . ... : ... .. . ... : ... .. . ... ...
ROW E7 : ... .. . ... ... ... : ... .. . ... ... ... : ... .. . ... : ... .. . ... : ... .. . ... ...
ROW E8 : ... .. . ... ... ... : ... .. . ... ... ... : ... .. . ... : ... .. . ... : ... .. . ... ...
ROW E9 : ... .. D ... ... ... : ... .. D ... ... ... : ... .. . ... : ... .. . ... : ... .. . ... ...
ROW EA : ... .. 0 ... V00 ... : ... .. 0 ... V00 ... : ... .. . ... : ... .. . ... : ... .. . ... ...
ROW EB : F-3 00 F P80 V01 ... : C-4 00 F P80 V01 ... : ... .. . ... : ... .. . ... : ... .. . ... ...
ROW EC : ... .. E ... ... ... : ... .. E ... ... ... : ... .. . ... : ... .. . ... : ... .. . ... ...
ROW ED : ... .. . ... ... ... : ... .. . ... ... ... : ... .. . ... : ... .. . ... : ... .. . ... ...
ROW EE : ... .. . ... ... ... : ... .. . ... ... ... : ... .. . ... : ... .. . ... : ... .. . ... ...
ROW EF : ... .. D ... ... ... : ... .. D ... ... ... : ... .. . ... : ... .. . ... : ... .. . ... ...
ROW F0 : ... .. 0 ... V00 ... : ... .. 0 ... V00 ... : ... .. . ... : ... .. . ... : ... .. . ... ...
ROW F1 : C-4 00 F P80 V01 ... : F-4 00 F P80 V01 ... : ... .. . ... : ... .. . ... : ... .. . ... ...
ROW F2 : ... .. E ... ... ... : ... .. E ... ... ... : ... .. . ... : ... .. . ... : ... .. . ... ...
ROW F3 : ... .. . ... ... ... : ... .. . ... ... ... : ... .. . ... : ... .. . ... : ... .. . ... ...
ROW F4 : ... .. . ... ... ... : ... .. . ... ... ... : ... .. . ... : ... .. . ... : ... .. . ... ...
ROW F5 : ... .. D ... ... ... : ... .. D ... ... ... : ... .. . ... : ... .. . ... : ... .. . ... ...
ROW F6 : ... .. . ... ... ... : ... .. . ... ... ... : ... .. . ... : ... .. . ... : ... .. . ... ...
ROW F7 : ... .. . ... ... ... : ... .. . ... ... ... : ... .. . ... : ... .. . ... : ... .. . ... ...
ROW F8 : ... .. C ... ... ... : ... .. C ... ... ... : ... .. . ... : ... .. . ... : ... .. . ... ...
ROW F9 : ... .. . ... ... ... : ... .. . ... ... ... : ... .. . ... : ... .. . ... : ... .. . ... ...
ROW FA : ... .. . ... ... ... : ... .. . ... ... ... : ... .. . ... : ... .. . ... : ... .. . ... ...
ROW FB : ... .. B ... ... ... : ... .. B ... ... ... : ... .. . ... : ... .. . ... : ... .. . ... ...
ROW FC : ... .. 0 ... V00 ... : ... .. 0 ... V00 ... : ... .. . ... : ... .. . ... : ... .. . ... ...
ROW FD : F-3 00 F P80 V01 ... : C-4 00 F P80 V01 ... : ... .. . ... : ... .. . ... : ... .. . ... ...
ROW FE : ... .. E ... ... ... : ... .. E ... ... ... : ... .. . ... : ... .. . ... : ... .. . ... ...
ROW FF : ... .. . ... ... ... : ... .. . ... ... ... : ... .. . ... : ... .. . ... : ... .. . ... ...

PATTERN 19
ROW 00 : ... .. . ... ... ... : ... .. . ... ... ... : ... .. . ... : ... .. . ... : ... .. . ... ...
ROW 01 : ... .. D ... ... ... : ... .. D ... ... ... : ... .. . ... : ... .. . ... : ... .. . ... ...
ROW 02 : ... .. . ... ... ... : ... .. . ... ... ... : ... .. . ... : ... .. . ... : ... .. . ... ...
ROW 03 : ... .. . ... ... ... : ... .. . ... ... ... : ... .. . ... : ... .. . ... : ... .. . ... ...
ROW 04 : ... .. C ... ... ... : ... .. C ... ... ... : ... .. . ... : ... .. . ... : ... .. . ... ...
ROW 05 : ... .. . ... ... ... : ... .. . ... ... ... : ... .. . ... : ... .. . ... : ... .. . ... ...
ROW 06 : ... .. . ... ... ... : ... .. . ... ... ... : ... .. . ... : ... .. . ... : ... .. . ... ...
ROW 07 : ... .. B ... ... ... : ... .. B ... ... ... : ... .. . ... : ... .. . ... : ... .. . ... ...
ROW 08 : ... .. 0 ... V00 ... : ... .. 0 ... V00 ... : ... .. . ... : ... .. . ... : ... .. . ... ...
ROW 09 : C-3 00 F P80 V01 ... : F-3 00 F P80 V01 ... : ... .. . ... : ... .. . ... : ... .. . ... ...
ROW 0A : ... .. E ... ... ... : ... .. E ... ... ... : ... .. . ... : ... .. . ... : ... .. . ... ...
ROW 0B : ... .. . ... ... ... : ... .. . ... ... ... : ... .. . ... : ... .. . ... : ... .. . ... ...
ROW 0C : ... .. . ... ... ... : ... .. . ... ... ... : ... .. . ... : ... .. . ... : ... .. . ... ...
ROW 0D : ... .. D ... ... ... : ... .. D ... ... ... : ... .. . ... : ... .. . ... : ... .. . ... ...
ROW 0E : ... .. . ... ... ... : ... .. . ... ... ... : ... .. . ... : ... .. . ... : ... .. . ... ...
ROW 0F : ... .. . ... ... ... : ... .. . ... ... ... : ... .. . ... : ... .. . ... : ... .. . ... ...
ROW 10 : ... .. C ... ... ... : ... .. C ... ... ... : ... .. . ... : ... .. . ... : ... .. . ... ...
ROW 11 : ... .. . ... ... ... : ... .. . ... ... ... : ... .. . ... : ... .. . ... : ... .. . ... ...
ROW 12 : ... .. . ... ... ... : ... .. . ... ... ... : ... .. . ... : ... .. . ... : ... .. . ... ...
ROW 13 : ... .. B ... ... ... : ... .. B ... ... ... : ... .. . ... : ... .. . ... : ... .. . ... ...
ROW 14 : ... .. 0 ... V00 ... : ... .. 0 ... V00 ... : ... .. . ... : ... .. . ... : ... .. . ... ...
ROW 15 : C-4 00 F P80 V01 ... : F-4 00 F P80 V01 ... : ... .. . ... : ... .. . ... : ... .. . ... ...
ROW 16 : ... .. E ... ... ... : ... .. E ... ... ... : ... .. . ... : ... .. . ... : ... .. . ... ...
ROW 17 : ... .. . ... ... ... : ... .. . ... ... ... : ... .. . ... : ... .. . ... : ... .. . ... ...
ROW 18 : ... .. . ... ... ... : ... .. . ... ... ... : ... .. . ... : ... .. . ... : ... .. . ... ...
ROW 19 : ... .. D ... ... ... : ... .. D ... ... ... : ... .. . ... : ... .. . ... : ... .. . ... ...
ROW 1A : ... .. . ... ... ... : ... .. . ... ... ... : ... .. . ... : ... .. . ... : ... .. . ... ...
ROW 1B : ... .. . ... ... ... : ... .. . ... ... ... : ... .. . ... : ... .. . ... : ... .. . ... ...
ROW 1C : ... .. C ... ... ... : ... .. C ... ... ... : ... .. . ... : ... .. . ... : ... .. . ... ...
ROW 1D : ... .. . ... ... ... : ... .. . ... ... ... : ... .. . ... : ... .. . ... : ... .. . ... ...
ROW 1E : ... .. . ... ... ... : ... .. . ... ... ... : ... .. . ... : ... .. . ... : ... .. . ... ...
ROW 1F : ... .. B ... ... ... : ... .. B ... ... ... : ... .. . ... : ... .. . ... : ... .. . ... ...
ROW 20 : ... .. 0 ... V00 ... : ... .. 0 ... V00 ... : --- .. . ... : ... .. . ... : ... .. . ... ...
ROW 21 : C-4 00 F P80 V01 ... : E-4 00 F P80 V01 ... : C-3 00 . ... : ... .. . ... : ... .. . ... ...
ROW 22 : ... .. E ... ... ... : ... .. E ... ... ... : ... .. . ... : ... .. . ... : ... .. . ... ...
ROW 23 : ... .. . ... ... ... : ... .. . ... ... ... : ... .. . ... : ... .. . ... : ... .. . ... ...
ROW 24 : ... .. . ... ... ... : ... .. . ... ... ... : ... .. . ... : ... .. . ... : ... .. . ... ...
ROW 25 : ... .. D ... ... ... : ... .. D ... ... ... : ... .. . ... : ... .. . ... : ... .. . ... ...
ROW 26 : ... .. . ... ... ... : ... .. . ... ... ... : ... .. . ... : ... .. . ... : ... .. . ... ...
ROW 27 : ... .. . ... ... ... : ... .. . ... ... ... : ... .. . ... : ... .. . ... : ... .. . ... ...
ROW 28 : ... .. C ... ... ... : ... .. C ... ... ... : ... .. . ... : ... .. . ... : ... .. . ... ...
ROW 29 : ... .. . ... ... ... : ... .. . ... ... ... : ... .. . ... : ... .. . ... : ... .. . ... ...
ROW 2A : ... .. . ... ... ... : ... .. . ... ... ... : ... .. . ... : ... .. . ... : ... .. . ... ...
ROW 2B : ... .. B ... ... ... : ... .. B ... ... ... : ... .. . ... : ... .. . ... : ... .. . ... ...
ROW 2C : ... .. . ... ... ... : ... .. . ... ... ... : ... .. . ... : ... .. . ... : ... .. . ... ...
ROW 2D : ... .. . ... ... ... : ... .. . ... ... ... : ... .. . ... : ... .. . ... : ... .. . ... ...
ROW 2E : ... .. A ... ... ... : ... .. A ... ... ... : ... .. . ... : ... .. . ... : ... .. . ... ...
ROW 2F : ... .. . ... ... ... : ... .. . ... ... ... : ... .. . ... : ... .. . ... : ... .. . ... ...
ROW 30 : ... .. . ... ... ... : ... .. . ... ... ... : ... .. . ... : ... .. . ... : ... .. . ... ...
ROW 31 : ... .. 9 ... ... ... : ... .. 9 ... ... ... : ... .. . ... : ... .. . ... : ... .. . ... ...
ROW 32 : ... .. . ... ... ... : ... .. . ... ... ... : ... .. . ... : ... .. . ... : ... .. . ... ...
ROW 33 : ... .. . ... ... ... : ... .. . ... ... ... : ... .. . ... : ... .. . ... : ... .. . ... ...
ROW 34 : ... .. 8 ... ... ... : ... .. 8 ... ... ... : ... .. . ... : ... .. . ... : ... .. . ... ...
ROW 35 : ... .. . ... ... ... : ... .. . ... ... ... : ... .. . ... : ... .. . ... : ... .. . ... ...
ROW 36 : ... .. 7 ... ... ... : ... .. 7 ... ... ... : ... .. . ... : ... .. . ... : ... .. . ... ...
ROW 37 : ... .. . ... ... ... : ... .. . ... ... ... : ... .. . ... : ... .. . ... : ... .. . ... ...
ROW 38 : ... .. 6 ... ... ... : ... .. 6 ... ... ... : ... .. . ... : ... .. . ... : ... .. . ... ...
ROW 39 : ... .. . ... ... ... : ... .. . ... ... ... : ... .. . ... : ... .. . ... : ... .. . ... ...
ROW 3A : ... .. . ... ... ... : ... .. . ... ... ... : ... .. . ... : ... .. . ... : ... .. . ... ...
ROW 3B : ... .. 5 ... ... ... : ... .. 5 ... ... ... : ... .. . ... : ... .. . ... : ... .. . ... ...
ROW 3C : ... .. . ... ... ... : ... .. . ... ... ... : ... .. . ... : ... .. . ... : ... .. . ... ...
ROW 3D : ... .. 4 ... ... ... : ... .. 4 ... ... ... : ... .. . ... : ... .. . ... : ... .. . ... ...
ROW 3E : ... .. . ... ... ... : ... .. . ... ... ... : ... .. . ... : ... .. . ... : ... .. . ... ...
ROW 3F : ... .. 3 ... ... ... : ... .. 3 ... ... ... : ... .. . ... : ... .. . ... : ... .. . ... ...
ROW 40 : ... .. . ... ... ... : ... .. . ... ... ... : ... .. . ... : ... .. . ... : ... .. . ... ...
ROW 41 : ... .. 2 ... ... ... : ... .. 2 ... ... ... : ... .. . ... : ... .. . ... : ... .. . ... ...
ROW 42 : ... .. 1 ... ... ... : ... .. 1 ... ... ... : ... .. . ... : ... .. . ... : ... .. . ... ...
ROW 43 : ... .. . ... ... ... : ... .. . ... ... ... : ... .. . ... : ... .. . ... : ... .. . ... ...
ROW 44 : ... .. 0 ... V00 ... : ... .. 0 ... V00 ... : ... .. . ... : ... .. . ... : ... .. . ... ...
ROW 45 : E-4 00 F P80 V01 ... : G-4 00 F P80 V01 ... : ... .. . ... : ... .. . ... : ... .. . ... ...
ROW 46 : ... .. E ... ... ... : ... .. E ... ... ... : ... .. . ... : ... .. . ... : ... .. . ... ...
ROW 47 : ... .. . ... ... ... : ... .. . ... ... ... : ... .. . ... : ... .. . ... : ... .. . ... ...
ROW 48 : ... .. . ... ... ... : ... .. . ... ... ... : ... .. . ... : ... .. . ... : ... .. . ... ...
ROW 49 : ... .. D ... ... ... : ... .. D ... ... ... : ... .. . ... : ... .. . ... : ... .. . ... ...
ROW 4A : ... .. 0 ... V00 ... : ... .. 0 ... V00 ... : ... .. . ... : ... .. . ... : ... .. . ... ...
ROW 4B : E-4 00 F P80 V01 ... : G-4 00 F P80 V01 ... : ... .. . ... : ... .. . ... : ... .. . ... ...
ROW 4C : ... .. E ... ... ... : ... .. E ... ... ... : ... .. . ... : ... .. . ... : ... .. . ... ...
ROW 4D : ... .. . ... ... ... : ... .. . ... ... ... : ... .. . ... : ... .. . ... : ... .. . ... ...
ROW 4E : ... .. . ... ... ... : ... .. . ... ... ... : ... .. . ... : ... .. . ... : ... .. . ... ...
ROW 4F : ... .. D ... ... ... : ... .. D ... ... ... : ... .. . ... : ... .. . ... : ... .. . ... ...
ROW 50 : ... .. 0 ... V00 ... : ... .. 0 ... V00 ... : --- .. . ... : ... .. . ... : ... .. . ... ...
ROW 51 : C-4 00 F P80 V01 ... : F-4 00 F P80 V01 ... : C-3 00 . ... : ... .. . ... : ... .. . ... ...
ROW 52 : ... .. E ... ... ... : ... .. E ... ... ... : ... .. . ... : ... .. . ... : ... .. . ... ...
ROW 53 : ... .. . ... ... ... : ... .. . ... ... ... : ... .. . ... : ... .. . ... : ... .. . ... ...
ROW 54 : ... .. . ... ... ... : ... .. . ... ... ... : ... .. . ... : ... .. . ... : ... .. . ... ...
ROW 55 : ... .. D ... ... ... : ... .. D ... ... ... : ... .. . ... : ... .. . ... : ... .. . ... ...
ROW 56 : ... .. . ... ... ... : ... .. . ... ... ... : ... .. . ... : ... .. . ... : ... .. . ... ...
ROW 57 : ... .. . ... ... ... : ... .. . ... ... ... : ... .. . ... : ... .. . ... : ... .. . ... ...
ROW 58 : ... .. C ... ... ... : ... .. C ... ... ... : ... .. . ... : ... .. . ... : ... .. . ... ...
ROW 59 : ... .. . ... ... ... : ... .. . ... ... ... : ... .. . ... : ... .. . ... : ... .. . ... ...
ROW 5A : ... .. . ... ... ... : ... .. . ... ... ... : ... .. . ... : ... .. . ... : ... .. . ... ...
ROW 5B : ... .. B ... ... ... : ... .. B ... ... ... : ... .. . ... : ... .. . ... : ... .. . ... ...
ROW 5C : ... .. 0 ... V00 ... : ... .. 0 ... V00 ... : ... .. . ... : ... .. . ... : ... .. . ... ...
ROW 5D : C-4 00 F P80 V01 ... : E-4 00 F P80 V01 ... : ... .. . ... : ... .. . ... : ... .. . ... ...
ROW 5E : ... .. E ... ... ... : ... .. E ... ... ... : ... .. . ... : ... .. . ... : ... .. . ... ...
ROW 5F : ... .. . ... ... ... : ... .. . ... ... ... : ... .. . ... : ... .. . ... : ... .. . ... ...
ROW 60 : ... .. . ... ... ... : ... .. . ... ... ... : ... .. . ... : ... .. . ... : ... .. . ... ...
ROW 61 : ... .. D ... ... ... : ... .. D ... ... ... : ... .. . ... : ... .. . ... : ... .. . ... ...
ROW 62 : ... .. . ... ... ... : ... .. . ... ... ... : ... .. . ... : ... .. . ... : ... .. . ... ...
ROW 63 : ... .. . ... ... ... : ... .. . ... ... ... : ... .. . ... : ... .. . ... : ... .. . ... ...
ROW 64 : ... .. C ... ... ... : ... .. C ... ... ... : ... .. . ... : ... .. . ... : ... .. . ... ...
ROW 65 : ... .. . ... ... ... : ... .. . ... ... ... : ... .. . ... : ... .. . ... : ... .. . ... ...
ROW 66 : ... .. . ... ... ... : ... .. . ... ... ... : ... .. . ... : ... .. . ... : ... .. . ... ...
ROW 67 : ... .. B ... ... ... : ... .. B ... ... ... : ... .. . ... : ... .. . ... : ... .. . ... ...
ROW 68 : ... .. 0 ... V00 ... : ... .. 0 ... V00 ... : ... .. . ... : 4-# 00 F V00 : ... .. . ... ...
ROW 69 : G-3 00 F P80 V01 ... : D-4 00 F P80 V01 ... : ... .. . ... : ... .. . ... : ... .. . ... ...
ROW 6A : ... .. E ... ... ... : ... .. E ... ... ... : ... .. . ... : ... .. . ... : ... .. . ... ...
ROW 6B : ... .. . ... ... ... : ... .. . ... ... ... : ... .. . ... : ... .. C ... : ... .. . ... ...
ROW 6C : ... .. . ... ... ... : ... .. . ... ... ... : ... .. . ... : ... .. B ... : ... .. . ... ...
ROW 6D : ... .. D ... ... ... : ... .. D ... ... ... : ... .. . ... : ... .. 9 ... : ... .. . ... ...
ROW 6E : ... .. . ... ... ... : ... .. . ... ... ... : ... .. . ... : ... .. F ... : ... .. . ... ...
ROW 6F : ... .. . ... ... ... : ... .. . ... ... ... : ... .. . ... : ... .. . ... : ... .. . ... ...
ROW 70 : ... .. C ... ... ... : ... .. C ... ... ... : ... .. . ... : ... .. . ... : ... .. . ... ...
ROW 71 : ... .. . ... ... ... : ... .. . ... ... ... : ... .. . ... : ... .. C ... : ... .. . ... ...
ROW 72 : ... .. . ... ... ... : ... .. . ... ... ... : ... .. . ... : ... .. B ... : ... .. . ... ...
ROW 73 : ... .. B ... ... ... : ... .. B ... ... ... : ... .. . ... : ... .. 9 ... : ... .. . ... ...
ROW 74 : ... .. 0 ... V00 ... : ... .. 0 ... V00 ... : ... .. . ... : ... .. F ... : ... .. . ... ...
ROW 75 : G-3 00 F P80 V01 ... : C-4 00 F P80 V01 ... : ... .. . ... : ... .. . ... : ... .. . ... ...
ROW 76 : ... .. E ... ... ... : ... .. E ... ... ... : ... .. . ... : ... .. . ... : ... .. . ... ...
ROW 77 : ... .. . ... ... ... : ... .. . ... ... ... : ... .. . ... : ... .. C ... : ... .. . ... ...
ROW 78 : ... .. . ... ... ... : ... .. . ... ... ... : ... .. . ... : ... .. B ... : ... .. . ... ...
ROW 79 : ... .. D ... ... ... : ... .. D ... ... ... : ... .. . ... : ... .. 9 ... : ... .. . ... ...
ROW 7A : ... .. . ... ... ... : ... .. . ... ... ... : ... .. . ... : ... .. F ... : ... .. . ... ...
ROW 7B : ... .. . ... ... ... : ... .. . ... ... ... : ... .. . ... : ... .. . ... : ... .. . ... ...
ROW 7C : ... .. C ... ... ... : ... .. C ... ... ... : ... .. . ... : ... .. . ... : ... .. . ... ...
ROW 7D : ... .. . ... ... ... : ... .. . ... ... ... : ... .. . ... : ... .. C ... : ... .. . ... ...
ROW 7E : ... .. . ... ... ... : ... .. . ... ... ... : ... .. . ... : ... .. B ... : ... .. . ... ...
ROW 7F : ... .. B ... ... ... : ... .. B ... ... ... : ... .. . ... : ... .. 9 ... : ... .. . ... ...
ROW 80 : ... .. 0 ... V00 ... : ... .. 0 ... V00 ... : A#3 00 . P81 : 1-# 00 F ... : ... .. . ... ...
ROW 81 : G-2 00 F P80 V01 ... : C-3 00 F P80 V01 ... : D#3 00 . P89 : ... .. . ... : ... .. . ... ...
ROW 82 : ... .. E ... ... ... : ... .. E ... ... ... : B-2 00 . P76 : ... .. . ... : ... .. . ... ...
ROW 83 : ... .. . ... ... ... : ... .. . ... ... ... : G-2 00 . P7C : ... .. C ... : ... .. . ... ...
ROW 84 : ... .. . ... ... ... : ... .. . ... ... ... : E-2 00 . P78 : ... .. B ... : ... .. . ... ...
ROW 85 : ... .. D ... ... ... : ... .. D ... ... ... : C#2 00 . P88 : ... .. 9 ... : ... .. . ... ...
ROW 86 : ... .. . ... ... ... : ... .. . ... ... ... : B-1 00 . P7B : ... .. 6 ... : ... .. . ... ...
ROW 87 : ... .. . ... ... ... : ... .. . ... ... ... : A-1 00 . P7A : ... .. 5 ... : ... .. . ... ...
ROW 88 : ... .. C ... ... ... : ... .. C ... ... ... : G-1 00 . P86 : ... .. 3 ... : ... .. . ... ...
ROW 89 : ... .. . ... ... ... : ... .. . ... ... ... : F-1 00 . PA2 : ... .. 1 ... : ... .. . ... ...
ROW 8A : ... .. . ... ... ... : ... .. . ... ... ... : --- .. . ... : ... .. 0 ... : ... .. . ... ...
ROW 8B : ... .. B ... ... ... : ... .. B ... ... ... : ... .. . ... : ... .. . ... : ... .. . ... ...
ROW 8C : ... .. . ... ... ... : ... .. . ... ... ... : ... .. . ... : D-# 00 F ... : ... .. . ... ...
ROW 8D : ... .. . ... ... ... : ... .. . ... ... ... : C-3 00 . P80 : ... .. . ... : ... .. . ... ...
ROW 8E : ... .. A ... ... ... : ... .. A ... ... ... : ... .. . ... : ... .. . ... : ... .. . ... ...
ROW 8F : ... .. . ... ... ... : ... .. . ... ... ... : ... .. . ... : ... .. C ... : ... .. . ... ...
ROW 90 : ... .. . ... ... ... : ... .. . ... ... ... : ... .. . ... : ... .. B ... : ... .. . ... ...
ROW 91 : ... .. 9 ... ... ... : ... .. 9 ... ... ... : ... .. . ... : ... .. 9 ... : ... .. . ... ...
ROW 92 : ... .. . ... ... ... : ... .. . ... ... ... : ... .. . ... : ... .. 6 ... : ... .. . ... ...
ROW 93 : ... .. . ... ... ... : ... .. . ... ... ... : ... .. . ... : ... .. 5 ... : ... .. . ... ...
ROW 94 : ... .. 8 ... ... ... : ... .. 8 ... ... ... : ... .. . ... : ... .. 3 ... : ... .. . ... ...
ROW 95 : ... .. . ... ... ... : ... .. . ... ... ... : ... .. . ... : ... .. 1 ... : ... .. . ... ...
ROW 96 : ... .. 7 ... ... ... : ... .. 7 ... ... ... : ... .. . ... : ... .. 0 ... : ... .. . ... ...
ROW 97 : ... .. . ... ... ... : ... .. . ... ... ... : ... .. . ... : ... .. . ... : ... .. . ... ...
ROW 98 : ... .. 0 ... V00 ... : ... .. 0 ... V00 ... : A#3 00 . P81 : 4-# 00 F ... : ... .. . ... ...
ROW 99 : C-3 00 F P80 V01 ... : E-3 00 F P80 V01 ... : D#3 00 . P89 : ... .. . ... : ... .. . ... ...
ROW 9A : ... .. E ... ... ... : ... .. E ... ... ... : B-2 00 . P76 : ... .. . ... : ... .. . ... ...
ROW 9B : ... .. . ... ... ... : ... .. . ... ... ... : G-2 00 . P7C : ... .. C ... : ... .. . ... ...
ROW 9C : ... .. . ... ... ... : ... .. . ... ... ... : E-2 00 . P78 : ... .. B ... : ... .. . ... ...
ROW 9D : ... .. D ... ... ... : ... .. D ... ... ... : C#2 00 . P88 : ... .. 9 ... : ... .. . ... ...
ROW 9E : ... .. . ... ... ... : ... .. . ... ... ... : B-1 00 . P7B : ... .. 6 ... : ... .. . ... ...
ROW 9F : ... .. . ... ... ... : ... .. . ... ... ... : A-1 00 . P7A : ... .. 5 ... : ... .. . ... ...
ROW A0 : ... .. C ... ... ... : ... .. C ... ... ... : G-1 00 . P86 : ... .. 3 ... : ... .. . ... ...
ROW A1 : ... .. . ... ... ... : ... .. . ... ... ... : F-1 00 . PA2 : ... .. 1 ... : ... .. . ... ...
ROW A2 : ... .. . ... ... ... : ... .. . ... ... ... : --- .. . ... : ... .. 0 ... : ... .. . ... ...
ROW A3 : ... .. B ... ... ... : ... .. B ... ... ... : ... .. . ... : ... .. . ... : ... .. . ... ...
ROW A4 : ... .. 0 ... V00 ... : ... .. 0 ... V00 ... : ... .. . ... : D-# 00 F ... : ... .. . ... ...
ROW A5 : E-3 00 F P80 V01 ... : G-3 00 F P80 V01 ... : C-3 00 . P80 : ... .. . ... : ... .. . ... ...
ROW A6 : ... .. E ... ... ... : ... .. E ... ... ... : ... .. . ... : ... .. . ... : ... .. . ... ...
ROW A7 : ... .. . ... ... ... : ... .. . ... ... ... : ... .. . ... : ... .. C ... : ... .. . ... ...
ROW A8 : ... .. . ... ... ... : ... .. . ... ... ... : ... .. . ... : ... .. B ... : ... .. . ... ...
ROW A9 : ... .. D ... ... ... : ... .. D ... ... ... : ... .. . ... : ... .. 9 ... : ... .. . ... ...
ROW AA : ... .. 0 ... V00 ... : ... .. 0 ... V00 ... : ... .. . ... : ... .. 6 ... : ... .. . ... ...
ROW AB : E-3 00 F P80 V01 ... : G-3 00 F P80 V01 ... : ... .. . ... : ... .. 5 ... : ... .. . ... ...
ROW AC : ... .. E ... ... ... : ... .. E ... ... ... : ... .. . ... : ... .. 3 ... : ... .. . ... ...
ROW AD : ... .. . ... ... ... : ... .. . ... ... ... : ... .. . ... : ... .. 1 ... : ... .. . ... ...
ROW AE : ... .. . ... ... ... : ... .. . ... ... ... : ... .. . ... : ... .. 0 ... : ... .. . ... ...
ROW AF : ... .. D ... ... ... : ... .. D ... ... ... : ... .. . ... : ... .. . ... : ... .. . ... ...
ROW B0 : ... .. 0 ... V00 ... : ... .. 0 ... V00 ... : A#3 00 . P81 : 1-# 00 F ... : ... .. . ... ...
ROW B1 : E-3 00 F P80 V01 ... : G-3 00 F P80 V01 ... : D#3 00 . P89 : ... .. . ... : ... .. . ... ...
ROW B2 : ... .. E ... ... ... : ... .. E ... ... ... : B-2 00 . P76 : ... .. . ... : ... .. . ... ...
ROW B3 : ... .. . ... ... ... : ... .. . ... ... ... : G-2 00 . P7C : ... .. C ... : ... .. . ... ...
ROW B4 : ... .. . ... ... ... : ... .. . ... ... ... : E-2 00 . P78 : ... .. B ... : ... .. . ... ...
ROW B5 : ... .. D ... ... ... : ... .. D ... ... ... : C#2 00 . P88 : ... .. 9 ... : ... .. . ... ...
ROW B6 : ... .. . ... ... ... : ... .. . ... ... ... : B-1 00 . P7B : ... .. 6 ... : ... .. . ... ...
ROW B7 : ... .. . ... ... ... : ... .. . ... ... ... : A-1 00 . P7A : ... .. 5 ... : ... .. . ... ...
ROW B8 : ... .. C ... ... ... : ... .. C ... ... ... : G-1 00 . P86 : ... .. 3 ... : ... .. . ... ...
ROW B9 : ... .. . ... ... ... : ... .. . ... ... ... : F-1 00 . PA2 : ... .. 1 ... : ... .. . ... ...
ROW BA : ... .. . ... ... ... : ... .. . ... ... ... : --- .. . ... : ... .. 0 ... : ... .. . ... ...
ROW BB : ... .. B ... ... ... : ... .. B ... ... ... : ... .. . ... : ... .. . ... : ... .. . ... ...
ROW BC : ... .. 0 ... V00 ... : ... .. 0 ... V00 ... : ... .. . ... : D-# 00 F ... : ... .. . ... ...
ROW BD : C-3 00 F P80 V01 ... : E-3 00 F P80 V01 ... : C-3 00 . P80 : ... .. . ... : ... .. . ... ...
ROW BE : ... .. E ... ... ... : ... .. E ... ... ... : ... .. . ... : ... .. . ... : ... .. . ... ...
ROW BF : ... .. . ... ... ... : ... .. . ... ... ... : ... .. . ... : ... .. C ... : ... .. . ... ...
ROW C0 : ... .. . ... ... ... : ... .. . ... ... ... : ... .. . ... : ... .. B ... : ... .. . ... ...
ROW C1 : ... .. D ... ... ... : ... .. D ... ... ... : ... .. . ... : ... .. 9 ... : ... .. . ... ...
ROW C2 : ... .. . ... ... ... : ... .. . ... ... ... : ... .. . ... : ... .. 6 ... : ... .. . ... ...
ROW C3 : ... .. . ... ... ... : ... .. . ... ... ... : ... .. . ... : ... .. 5 ... : ... .. . ... ...
ROW C4 : ... .. C ... ... ... : ... .. C ... ... ... : ... .. . ... : ... .. 3 ... : ... .. . ... ...
ROW C5 : ... .. . ... ... ... : ... .. . ... ... ... : ... .. . ... : ... .. 1 ... : ... .. . ... ...
ROW C6 : ... .. . ... ... ... : ... .. . ... ... ... : ... .. . ... : ... .. 0 ... : ... .. . ... ...
ROW C7 : ... .. B ... ... ... : ... .. B ... ... ... : ... .. . ... : ... .. . ... : ... .. . ... ...
ROW C8 : ... .. 0 ... V00 ... : ... .. 0 ... V00 ... : A#3 00 . P81 : 4-# 00 F ... : ... .. . ... ...
ROW C9 : G-2 00 F P80 V01 ... : D-3 00 F P80 V01 ... : D#3 00 . P89 : ... .. . ... : ... .. . ... ...
ROW CA : ... .. E ... ... ... : ... .. E ... ... ... : B-2 00 . P76 : ... .. . ... : ... .. . ... ...
ROW CB : ... .. . ... ... ... : ... .. . ... ... ... : G-2 00 . P7C : ... .. C ... : ... .. . ... ...
ROW CC : ... .. . ... ... ... : ... .. . ... ... ... : E-2 00 . P78 : ... .. B ... : ... .. . ... ...
ROW CD : ... .. D ... ... ... : ... .. D ... ... ... : C#2 00 . P88 : ... .. 9 ... : ... .. . ... ...
ROW CE : ... .. . ... ... ... : ... .. . ... ... ... : B-1 00 . P7B : ... .. 6 ... : ... .. . ... ...
ROW CF : ... .. . ... ... ... : ... .. . ... ... ... : A-1 00 . P7A : ... .. 5 ... : ... .. . ... ...
ROW D0 : ... .. C ... ... ... : ... .. C ... ... ... : G-1 00 . P86 : ... .. 3 ... : ... .. . ... ...
ROW D1 : ... .. . ... ... ... : ... .. . ... ... ... : F-1 00 . PA2 : ... .. 1 ... : ... .. . ... ...
ROW D2 : ... .. . ... ... ... : ... .. . ... ... ... : --- .. . ... : ... .. 0 ... : ... .. . ... ...
ROW D3 : ... .. B ... ... ... : ... .. B ... ... ... : ... .. . ... : ... .. . ... : ... .. . ... ...
ROW D4 : ... .. 0 ... V00 ... : ... .. 0 ... V00 ... : ... .. . ... : D-# 00 F ... : ... .. . ... ...
ROW D5 : C-3 00 F P80 V01 ... : E-3 00 F P80 V01 ... : C-3 00 . P80 : ... .. . ... : ... .. . ... ...
ROW D6 : ... .. E ... ... ... : ... .. E ... ... ... : ... .. . ... : ... .. . ... : ... .. . ... ...
ROW D7 : ... .. . ... ... ... : ... .. . ... ... ... : ... .. . ... : ... .. C ... : ... .. . ... ...
ROW D8 : ... .. . ... ... ... : ... .. . ... ... ... : ... .. . ... : ... .. B ... : ... .. . ... ...
ROW D9 : ... .. D ... ... ... : ... .. D ... ... ... : ... .. . ... : ... .. 9 ... : ... .. . ... ...
ROW DA : ... .. . ... ... ... : ... .. . ... ... ... : ... .. . ... : ... .. 6 ... : ... .. . ... ...
ROW DB : ... .. . ... ... ... : ... .. . ... ... ... : ... .. . ... : ... .. 5 ... : ... .. . ... ...
ROW DC : ... .. C ... ... ... : ... .. C ... ... ... : ... .. . ... : ... .. 3 ... : ... .. . ... ...
ROW DD : ... .. . ... ... ... : ... .. . ... ... ... : ... .. . ... : ... .. 1 ... : ... .. . ... ...
ROW DE : ... .. . ... ... ... : ... .. . ... ... ... : ... .. . ... : ... .. 0 ... : ... .. . ... ...
ROW DF : ... .. B ... ... ... : ... .. B ... ... ... : ... .. . ... : ... .. . ... : ... .. . ... ...
ROW E0 : ... .. 0 ... V00 ... : ... .. 0 ... V00 ... : A#3 00 . P81 : 1-# 00 F ... : ... .. . ... ...
ROW E1 : F-3 00 F P80 V01 ... : A-3 00 F P80 V01 ... : D#3 00 . P89 : ... .. . ... : ... .. . ... ...
ROW E2 : ... .. E ... ... ... : ... .. E ... ... ... : B-2 00 . P76 : ... .. . ... : ... .. . ... ...
ROW E3 : ... .. . ... ... ... : ... .. . ... ... ... : G-2 00 . P7C : ... .. C ... : ... .. . ... ...
ROW E4 : ... .. . ... ... ... : ... .. . ... ... ... : E-2 00 . P78 : ... .. B ... : ... .. . ... ...
ROW E5 : ... .. D ... ... ... : ... .. D ... ... ... : C#2 00 . P88 : ... .. 9 ... : ... .. . ... ...
ROW E6 : ... .. . ... ... ... : ... .. . ... ... ... : B-1 00 . P7B : ... .. 6 ... : ... .. . ... ...
ROW E7 : ... .. . ... ... ... : ... .. . ... ... ... : A-1 00 . P7A : ... .. 5 ... : ... .. . ... ...
ROW E8 : ... .. C ... ... ... : ... .. C ... ... ... : G-1 00 . P86 : ... .. 3 ... : ... .. . ... ...
ROW E9 : ... .. . ... ... ... : ... .. . ... ... ... : F-1 00 . PA2 : ... .. 1 ... : ... .. . ... ...
ROW EA : ... .. . ... ... ... : ... .. . ... ... ... : --- .. . ... : ... .. 0 ... : ... .. . ... ...
ROW EB : ... .. B ... ... ... : ... .. B ... ... ... : ... .. . ... : ... .. . ... : ... .. . ... ...
ROW EC : ... .. . ... ... ... : ... .. . ... ... ... : ... .. . ... : D-# 00 F ... : ... .. . ... ...
ROW ED : ... .. . ... ... ... : ... .. . ... ... ... : F-2 00 . P80 : ... .. . ... : ... .. . ... ...
ROW EE : ... .. A ... ... ... : ... .. A ... ... ... : ... .. . ... : ... .. . ... : ... .. . ... ...
ROW EF : ... .. . ... ... ... : ... .. . ... ... ... : ... .. . ... : ... .. C ... : ... .. . ... ...
ROW F0 : ... .. . ... ... ... : ... .. . ... ... ... : ... .. . ... : ... .. B ... : ... .. . ... ...
ROW F1 : ... .. 9 ... ... ... : ... .. 9 ... ... ... : ... .. . ... : ... .. 9 ... : ... .. . ... ...
ROW F2 : ... .. . ... ... ... : ... .. . ... ... ... : ... .. . ... : ... .. 6 ... : ... .. . ... ...
ROW F3 : ... .. . ... ... ... : ... .. . ... ... ... : ... .. . ... : ... .. 5 ... : ... .. . ... ...
ROW F4 : ... .. 8 ... ... ... : ... .. 8 ... ... ... : ... .. . ... : ... .. 3 ... : ... .. . ... ...
ROW F5 : ... .. . ... ... ... : ... .. . ... ... ... : ... .. . ... : ... .. 1 ... : ... .. . ... ...
ROW F6 : ... .. 7 ... ... ... : ... .. 7 ... ... ... : ... .. . ... : ... .. 0 ... : ... .. . ... ...
ROW F7 : ... .. . ... ... ... : ... .. . ... ... ... : ... .. . ... : ... .. . ... : ... .. . ... ...
ROW F8 : ... .. 0 ... V00 ... : ... .. 0 ... V00 ... : A#3 00 . P81 : 4-# 00 F ... : ... .. . ... ...
ROW F9 : F-3 00 F P80 V01 ... : A-3 00 F P80 V01 ... : D#3 00 . P89 : ... .. . ... : ... .. . ... ...
ROW FA : ... .. E ... ... ... : ... .. E ... ... ... : B-2 00 . P76 : ... .. . ... : ... .. . ... ...
ROW FB : ... .. . ... ... ... : ... .. . ... ... ... : G-2 00 . P7C : ... .. C ... : ... .. . ... ...
ROW FC : ... .. . ... ... ... : ... .. . ... ... ... : E-2 00 . P78 : ... .. B ... : ... .. . ... ...
ROW FD : ... .. D ... ... ... : ... .. D ... ... ... : C#2 00 . P88 : ... .. 9 ... : ... .. . ... ...
ROW FE : ... .. . ... ... ... : ... .. . ... ... ... : B-1 00 . P7B : ... .. 6 ... : ... .. . ... ...
ROW FF : ... .. . ... ... ... : ... .. . ... ... ... : A-1 00 . P7A : ... .. 5 ... : ... .. . ... ...

PATTERN 1A
ROW 00 : ... .. C ... ... ... : ... .. C ... ... ... : G-1 00 . P86 : ... .. 3 ... : ... .. . ... ...
ROW 01 : ... .. . ... ... ... : ... .. . ... ... ... : F-1 00 . PA2 : ... .. 1 ... : ... .. . ... ...
ROW 02 : ... .. . ... ... ... : ... .. . ... ... ... : --- .. . ... : ... .. 0 ... : ... .. . ... ...
ROW 03 : ... .. B ... ... ... : ... .. B ... ... ... : ... .. . ... : ... .. . ... : ... .. . ... ...
ROW 04 : ... .. 0 ... V00 ... : ... .. 0 ... V00 ... : ... .. . ... : D-# 00 F ... : ... .. . ... ...
ROW 05 : E-3 00 F P80 V01 ... : G-3 00 F P80 V01 ... : F-2 00 . P80 : ... .. . ... : ... .. . ... ...
ROW 06 : ... .. E ... ... ... : ... .. E ... ... ... : ... .. . ... : ... .. . ... : ... .. . ... ...
ROW 07 : ... .. . ... ... ... : ... .. . ... ... ... : ... .. . ... : ... .. C ... : ... .. . ... ...
ROW 08 : ... .. . ... ... ... : ... .. . ... ... ... : ... .. . ... : ... .. B ... : ... .. . ... ...
ROW 09 : ... .. D ... ... ... : ... .. D ... ... ... : ... .. . ... : ... .. 9 ... : ... .. . ... ...
ROW 0A : ... .. 0 ... V00 ... : ... .. 0 ... V00 ... : ... .. . ... : ... .. 6 ... : ... .. . ... ...
ROW 0B : E-3 00 F P80 V01 ... : G-3 00 F P80 V01 ... : ... .. . ... : ... .. 5 ... : ... .. . ... ...
ROW 0C : ... .. E ... ... ... : ... .. E ... ... ... : ... .. . ... : ... .. 3 ... : ... .. . ... ...
ROW 0D : ... .. . ... ... ... : ... .. . ... ... ... : ... .. . ... : ... .. 1 ... : ... .. . ... ...
ROW 0E : ... .. . ... ... ... : ... .. . ... ... ... : ... .. . ... : ... .. 0 ... : ... .. . ... ...
ROW 0F : ... .. D ... ... ... : ... .. D ... ... ... : ... .. . ... : ... .. . ... : ... .. . ... ...
ROW 10 : ... .. 0 ... V00 ... : ... .. 0 ... V00 ... : A#3 00 . P81 : 1-# 00 F ... : ... .. . ... ...
ROW 11 : E-3 00 F P80 V01 ... : G-3 00 F P80 V01 ... : D#3 00 . P89 : ... .. . ... : ... .. . ... ...
ROW 12 : ... .. E ... ... ... : ... .. E ... ... ... : B-2 00 . P76 : ... .. . ... : ... .. . ... ...
ROW 13 : ... .. . ... ... ... : ... .. . ... ... ... : G-2 00 . P7C : ... .. C ... : ... .. . ... ...
ROW 14 : ... .. . ... ... ... : ... .. . ... ... ... : E-2 00 . P78 : ... .. B ... : ... .. . ... ...
ROW 15 : ... .. D ... ... ... : ... .. D ... ... ... : C#2 00 . P88 : ... .. 9 ... : ... .. . ... ...
ROW 16 : ... .. . ... ... ... : ... .. . ... ... ... : B-1 00 . P7B : ... .. 6 ... : ... .. . ... ...
ROW 17 : ... .. . ... ... ... : ... .. . ... ... ... : A-1 00 . P7A : ... .. 5 ... : ... .. . ... ...
ROW 18 : ... .. C ... ... ... : ... .. C ... ... ... : G-1 00 . P86 : ... .. 3 ... : ... .. . ... ...
ROW 19 : ... .. . ... ... ... : ... .. . ... ... ... : F-1 00 . PA2 : ... .. 1 ... : ... .. . ... ...
ROW 1A : ... .. . ... ... ... : ... .. . ... ... ... : --- .. . ... : ... .. 0 ... : ... .. . ... ...
ROW 1B : ... .. B ... ... ... : ... .. B ... ... ... : ... .. . ... : ... .. . ... : ... .. . ... ...
ROW 1C : ... .. 0 ... V00 ... : ... .. 0 ... V00 ... : ... .. . ... : D-# 00 F ... : ... .. . ... ...
ROW 1D : C-3 00 F P80 V01 ... : E-3 00 F P80 V01 ... : G-2 00 . P80 : ... .. . ... : ... .. . ... ...
ROW 1E : ... .. E ... ... ... : ... .. E ... ... ... : ... .. . ... : ... .. . ... : ... .. . ... ...
ROW 1F : ... .. . ... ... ... : ... .. . ... ... ... : ... .. . ... : ... .. C ... : ... .. . ... ...
ROW 20 : ... .. . ... ... ... : ... .. . ... ... ... : ... .. . ... : ... .. B ... : ... .. . ... ...
ROW 21 : ... .. D ... ... ... : ... .. D ... ... ... : ... .. . ... : ... .. 9 ... : ... .. . ... ...
ROW 22 : ... .. . ... ... ... : ... .. . ... ... ... : ... .. . ... : ... .. 6 ... : ... .. . ... ...
ROW 23 : ... .. . ... ... ... : ... .. . ... ... ... : ... .. . ... : ... .. 5 ... : ... .. . ... ...
ROW 24 : ... .. C ... ... ... : ... .. C ... ... ... : ... .. . ... : ... .. 3 ... : ... .. . ... ...
ROW 25 : ... .. . ... ... ... : ... .. . ... ... ... : ... .. . ... : ... .. 1 ... : ... .. . ... ...
ROW 26 : ... .. . ... ... ... : ... .. . ... ... ... : ... .. . ... : ... .. 0 ... : ... .. . ... ...
ROW 27 : ... .. B ... ... ... : ... .. B ... ... ... : ... .. . ... : ... .. . ... : ... .. . ... ...
ROW 28 : ... .. 0 ... V00 ... : ... .. 0 ... V00 ... : A#3 00 . P81 : 4-# 00 F ... : ... .. . ... ...
ROW 29 : G-2 00 F P80 V01 ... : D-3 00 F P80 V01 ... : D#3 00 . P89 : ... .. . ... : ... .. . ... ...
ROW 2A : ... .. E ... ... ... : ... .. E ... ... ... : B-2 00 . P76 : ... .. . ... : ... .. . ... ...
ROW 2B : ... .. . ... ... ... : ... .. . ... ... ... : G-2 00 . P7C : ... .. C ... : ... .. . ... ...
ROW 2C : ... .. . ... ... ... : ... .. . ... ... ... : E-2 00 . P78 : ... .. B ... : ... .. . ... ...
ROW 2D : ... .. D ... ... ... : ... .. D ... ... ... : C#2 00 . P88 : ... .. 9 ... : ... .. . ... ...
ROW 2E : ... .. . ... ... ... : ... .. . ... ... ... : B-1 00 . P7B : ... .. 6 ... : ... .. . ... ...
ROW 2F : ... .. . ... ... ... : ... .. . ... ... ... : A-1 00 . P7A : ... .. 5 ... : ... .. . ... ...
ROW 30 : ... .. C ... ... ... : ... .. C ... ... ... : G-1 00 . P86 : ... .. 3 ... : ... .. . ... ...
ROW 31 : ... .. . ... ... ... : ... .. . ... ... ... : F-1 00 . PA2 : ... .. 1 ... : ... .. . ... ...
ROW 32 : ... .. . ... ... ... : ... .. . ... ... ... : --- .. . ... : ... .. 0 ... : ... .. . ... ...
ROW 33 : ... .. B ... ... ... : ... .. B ... ... ... : ... .. . ... : ... .. . ... : ... .. . ... ...
ROW 34 : ... .. 0 ... V00 ... : ... .. 0 ... V00 ... : ... .. . ... : D-# 00 F ... : ... .. . ... ...
ROW 35 : C-3 00 F P80 V01 ... : E-3 00 F P80 V01 ... : G-2 00 . P80 : ... .. . ... : ... .. . ... ...
ROW 36 : ... .. E ... ... ... : ... .. E ... ... ... : ... .. . ... : ... .. . ... : ... .. . ... ...
ROW 37 : ... .. . ... ... ... : ... .. . ... ... ... : ... .. . ... : ... .. C ... : ... .. . ... ...
ROW 38 : ... .. . ... ... ... : ... .. . ... ... ... : ... .. . ... : ... .. B ... : ... .. . ... ...
ROW 39 : ... .. D ... ... ... : ... .. D ... ... ... : ... .. . ... : ... .. 9 ... : ... .. . ... ...
ROW 3A : ... .. . ... ... ... : ... .. . ... ... ... : ... .. . ... : ... .. 6 ... : ... .. . ... ...
ROW 3B : ... .. . ... ... ... : ... .. . ... ... ... : ... .. . ... : ... .. 5 ... : ... .. . ... ...
ROW 3C : ... .. C ... ... ... : ... .. C ... ... ... : ... .. . ... : ... .. 3 ... : ... .. . ... ...
ROW 3D : ... .. . ... ... ... : ... .. . ... ... ... : ... .. . ... : ... .. 1 ... : ... .. . ... ...
ROW 3E : ... .. . ... ... ... : ... .. . ... ... ... : ... .. . ... : ... .. 0 ... : ... .. . ... ...
ROW 3F : ... .. B ... ... ... : ... .. B ... ... ... : ... .. . ... : ... .. . ... : ... .. . ... ...
ROW 40 : ... .. 0 ... V00 ... : ... .. 0 ... V00 ... : A#3 00 . P81 : 1-# 00 F ... : ... .. . ... ...
ROW 41 : G-2 00 F P80 V01 ... : C-3 00 F P80 V01 ... : D#3 00 . P89 : ... .. . ... : ... .. . ... ...
ROW 42 : ... .. E ... ... ... : ... .. E ... ... ... : B-2 00 . P76 : ... .. . ... : ... .. . ... ...
ROW 43 : ... .. . ... ... ... : ... .. . ... ... ... : G-2 00 . P7C : ... .. C ... : ... .. . ... ...
ROW 44 : ... .. . ... ... ... : ... .. . ... ... ... : E-2 00 . P78 : ... .. B ... : ... .. . ... ...
ROW 45 : ... .. D ... ... ... : ... .. D ... ... ... : C#2 00 . P88 : ... .. 9 ... : ... .. . ... ...
ROW 46 : ... .. . ... ... ... : ... .. . ... ... ... : B-1 00 . P7B : ... .. 6 ... : ... .. . ... ...
ROW 47 : ... .. . ... ... ... : ... .. . ... ... ... : A-1 00 . P7A : ... .. 5 ... : ... .. . ... ...
ROW 48 : ... .. C ... ... ... : ... .. C ... ... ... : G-1 00 . P86 : ... .. 3 ... : ... .. . ... ...
ROW 49 : ... .. . ... ... ... : ... .. . ... ... ... : F-1 00 . PA2 : ... .. 1 ... : ... .. . ... ...
ROW 4A : ... .. . ... ... ... : ... .. . ... ... ... : --- .. . ... : ... .. 0 ... : ... .. . ... ...
ROW 4B : ... .. B ... ... ... : ... .. B ... ... ... : ... .. . ... : ... .. . ... : ... .. . ... ...
ROW 4C : ... .. . ... ... ... : ... .. . ... ... ... : ... .. . ... : D-# 00 F ... : ... .. . ... ...
ROW 4D : ... .. . ... ... ... : ... .. . ... ... ... : C-3 00 . P80 : ... .. . ... : ... .. . ... ...
ROW 4E : ... .. A ... ... ... : ... .. A ... ... ... : ... .. . ... : ... .. . ... : ... .. . ... ...
ROW 4F : ... .. . ... ... ... : ... .. . ... ... ... : ... .. . ... : ... .. C ... : ... .. . ... ...
ROW 50 : ... .. . ... ... ... : ... .. . ... ... ... : ... .. . ... : ... .. B ... : ... .. . ... ...
ROW 51 : ... .. 9 ... ... ... : ... .. 9 ... ... ... : ... .. . ... : ... .. 9 ... : ... .. . ... ...
ROW 52 : ... .. . ... ... ... : ... .. . ... ... ... : ... .. . ... : ... .. 6 ... : ... .. . ... ...
ROW 53 : ... .. . ... ... ... : ... .. . ... ... ... : ... .. . ... : ... .. 5 ... : ... .. . ... ...
ROW 54 : ... .. 8 ... ... ... : ... .. 8 ... ... ... : ... .. . ... : ... .. 3 ... : ... .. . ... ...
ROW 55 : ... .. . ... ... ... : ... .. . ... ... ... : ... .. . ... : ... .. 1 ... : ... .. . ... ...
ROW 56 : ... .. 7 ... ... ... : ... .. 7 ... ... ... : ... .. . ... : ... .. 0 ... : ... .. . ... ...
ROW 57 : ... .. . ... ... ... : ... .. . ... ... ... : ... .. . ... : ... .. . ... : ... .. . ... ...
ROW 58 : ... .. 0 ... V00 ... : ... .. 0 ... V00 ... : A#3 00 . P81 : 4-# 00 F ... : ... .. . ... ...
ROW 59 : C-3 00 F P80 V01 ... : E-3 00 F P80 V01 ... : D#3 00 . P89 : ... .. . ... : ... .. . ... ...
ROW 5A : ... .. E ... ... ... : ... .. E ... ... ... : B-2 00 . P76 : ... .. . ... : ... .. . ... ...
ROW 5B : ... .. . ... ... ... : ... .. . ... ... ... : G-2 00 . P7C : ... .. C ... : ... .. . ... ...
ROW 5C : ... .. . ... ... ... : ... .. . ... ... ... : E-2 00 . P78 : ... .. B ... : ... .. . ... ...
ROW 5D : ... .. D ... ... ... : ... .. D ... ... ... : C#2 00 . P88 : ... .. 9 ... : ... .. . ... ...
ROW 5E : ... .. . ... ... ... : ... .. . ... ... ... : B-1 00 . P7B : ... .. 6 ... : ... .. . ... ...
ROW 5F : ... .. . ... ... ... : ... .. . ... ... ... : A-1 00 . P7A : ... .. 5 ... : ... .. . ... ...
ROW 60 : ... .. C ... ... ... : ... .. C ... ... ... : G-1 00 . P86 : ... .. 3 ... : ... .. . ... ...
ROW 61 : ... .. . ... ... ... : ... .. . ... ... ... : F-1 00 . PA2 : ... .. 1 ... : ... .. . ... ...
ROW 62 : ... .. . ... ... ... : ... .. . ... ... ... : --- .. . ... : ... .. 0 ... : ... .. . ... ...
ROW 63 : ... .. B ... ... ... : ... .. B ... ... ... : ... .. . ... : ... .. . ... : ... .. . ... ...
ROW 64 : ... .. 0 ... V00 ... : ... .. 0 ... V00 ... : ... .. . ... : D-# 00 F ... : ... .. . ... ...
ROW 65 : E-3 00 F P80 V01 ... : G-3 00 F P80 V01 ... : C-3 00 . P80 : ... .. . ... : ... .. . ... ...
ROW 66 : ... .. E ... ... ... : ... .. E ... ... ... : ... .. . ... : ... .. . ... : ... .. . ... ...
ROW 67 : ... .. . ... ... ... : ... .. . ... ... ... : ... .. . ... : ... .. C ... : ... .. . ... ...
ROW 68 : ... .. . ... ... ... : ... .. . ... ... ... : ... .. . ... : ... .. B ... : ... .. . ... ...
ROW 69 : ... .. D ... ... ... : ... .. D ... ... ... : ... .. . ... : ... .. 9 ... : ... .. . ... ...
ROW 6A : ... .. 0 ... V00 ... : ... .. 0 ... V00 ... : ... .. . ... : ... .. 6 ... : ... .. . ... ...
ROW 6B : E-3 00 F P80 V01 ... : G-3 00 F P80 V01 ... : ... .. . ... : ... .. 5 ... : ... .. . ... ...
ROW 6C : ... .. E ... ... ... : ... .. E ... ... ... : ... .. . ... : ... .. 3 ... : ... .. . ... ...
ROW 6D : ... .. . ... ... ... : ... .. . ... ... ... : ... .. . ... : ... .. 1 ... : ... .. . ... ...
ROW 6E : ... .. . ... ... ... : ... .. . ... ... ... : ... .. . ... : ... .. 0 ... : ... .. . ... ...
ROW 6F : ... .. D ... ... ... : ... .. D ... ... ... : ... .. . ... : ... .. . ... : ... .. . ... ...
ROW 70 : ... .. 0 ... V00 ... : ... .. 0 ... V00 ... : A#3 00 . P81 : 1-# 00 F ... : ... .. . ... ...
ROW 71 : E-3 00 F P80 V01 ... : G-3 00 F P80 V01 ... : D#3 00 . P89 : ... .. . ... : ... .. . ... ...
ROW 72 : ... .. E ... ... ... : ... .. E ... ... ... : B-2 00 . P76 : ... .. . ... : ... .. . ... ...
ROW 73 : ... .. . ... ... ... : ... .. . ... ... ... : G-2 00 . P7C : ... .. C ... : ... .. . ... ...
ROW 74 : ... .. . ... ... ... : ... .. . ... ... ... : E-2 00 . P78 : ... .. B ... : ... .. . ... ...
ROW 75 : ... .. D ... ... ... : ... .. D ... ... ... : C#2 00 . P88 : ... .. 9 ... : ... .. . ... ...
ROW 76 : ... .. . ... ... ... : ... .. . ... ... ... : B-1 00 . P7B : ... .. 6 ... : ... .. . ... ...
ROW 77 : ... .. . ... ... ... : ... .. . ... ... ... : A-1 00 . P7A : ... .. 5 ... : ... .. . ... ...
ROW 78 : ... .. C ... ... ... : ... .. C ... ... ... : G-1 00 . P86 : ... .. 3 ... : ... .. . ... ...
ROW 79 : ... .. . ... ... ... : ... .. . ... ... ... : F-1 00 . PA2 : ... .. 1 ... : ... .. . ... ...
ROW 7A : ... .. . ... ... ... : ... .. . ... ... ... : --- .. . ... : ... .. 0 ... : ... .. . ... ...
ROW 7B : ... .. B ... ... ... : ... .. B ... ... ... : ... .. . ... : ... .. . ... : ... .. . ... ...
ROW 7C : ... .. 0 ... V00 ... : ... .. 0 ... V00 ... : ... .. . ... : D-# 00 F ... : ... .. . ... ...
ROW 7D : C-3 00 F P80 V01 ... : E-3 00 F P80 V01 ... : C-3 00 . P80 : ... .. . ... : ... .. . ... ...
ROW 7E : ... .. E ... ... ... : ... .. E ... ... ... : ... .. . ... : ... .. . ... : ... .. . ... ...
ROW 7F : ... .. . ... ... ... : ... .. . ... ... ... : ... .. . ... : ... .. C ... : ... .. . ... ...
ROW 80 : ... .. . ... ... ... : ... .. . ... ... ... : ... .. . ... : ... .. B ... : ... .. . ... ...
ROW 81 : ... .. D ... ... ... : ... .. D ... ... ... : ... .. . ... : ... .. 9 ... : ... .. . ... ...
ROW 82 : ... .. . ... ... ... : ... .. . ... ... ... : ... .. . ... : ... .. 6 ... : ... .. . ... ...
ROW 83 : ... .. . ... ... ... : ... .. . ... ... ... : ... .. . ... : ... .. 5 ... : ... .. . ... ...
ROW 84 : ... .. C ... ... ... : ... .. C ... ... ... : ... .. . ... : ... .. 3 ... : ... .. . ... ...
ROW 85 : ... .. . ... ... ... : ... .. . ... ... ... : ... .. . ... : ... .. 1 ... : ... .. . ... ...
ROW 86 : ... .. . ... ... ... : ... .. . ... ... ... : ... .. . ... : ... .. 0 ... : ... .. . ... ...
ROW 87 : ... .. B ... ... ... : ... .. B ... ... ... : ... .. . ... : ... .. . ... : ... .. . ... ...
ROW 88 : ... .. 0 ... V00 ... : ... .. 0 ... V00 ... : A#3 00 . P81 : 4-# 00 F ... : ... .. . ... ...
ROW 89 : G-2 00 F P80 V01 ... : D-3 00 F P80 V01 ... : D#3 00 . P89 : ... .. . ... : ... .. . ... ...
ROW 8A : ... .. E ... ... ... : ... .. E ... ... ... : B-2 00 . P76 : ... .. . ... : ... .. . ... ...
ROW 8B : ... .. . ... ... ... : ... .. . ... ... ... : G-2 00 . P7C : ... .. C ... : ... .. . ... ...
ROW 8C : ... .. . ... ... ... : ... .. . ... ... ... : E-2 00 . P78 : ... .. B ... : ... .. . ... ...
ROW 8D : ... .. D ... ... ... : ... .. D ... ... ... : C#2 00 . P88 : ... .. 9 ... : ... .. . ... ...
ROW 8E : ... .. . ... ... ... : ... .. . ... ... ... : B-1 00 . P7B : ... .. 6 ... : ... .. . ... ...
ROW 8F : ... .. . ... ... ... : ... .. . ... ... ... : A-1 00 . P7A : ... .. 5 ... : ... .. . ... ...
ROW 90 : ... .. C ... ... ... : ... .. C ... ... ... : G-1 00 . P86 : ... .. 3 ... : ... .. . ... ...
ROW 91 : ... .. . ... ... ... : ... .. . ... ... ... : F-1 00 . PA2 : ... .. 1 ... : ... .. . ... ...
ROW 92 : ... .. . ... ... ... : ... .. . ... ... ... : --- .. . ... : ... .. 0 ... : ... .. . ... ...
ROW 93 : ... .. B ... ... ... : ... .. B ... ... ... : ... .. . ... : ... .. . ... : ... .. . ... ...
ROW 94 : ... .. 0 ... V00 ... : ... .. 0 ... V00 ... : ... .. . ... : D-# 00 F ... : ... .. . ... ...
ROW 95 : C-3 00 F P80 V01 ... : E-3 00 F P80 V01 ... : C-3 00 . P80 : ... .. . ... : ... .. . ... ...
ROW 96 : ... .. E ... ... ... : ... .. E ... ... ... : ... .. . ... : ... .. . ... : ... .. . ... ...
ROW 97 : ... .. . ... ... ... : ... .. . ... ... ... : ... .. . ... : ... .. C ... : ... .. . ... ...
ROW 98 : ... .. . ... ... ... : ... .. . ... ... ... : ... .. . ... : ... .. B ... : ... .. . ... ...
ROW 99 : ... .. D ... ... ... : ... .. D ... ... ... : ... .. . ... : ... .. 9 ... : ... .. . ... ...
ROW 9A : ... .. . ... ... ... : ... .. . ... ... ... : ... .. . ... : ... .. 6 ... : ... .. . ... ...
ROW 9B : ... .. . ... ... ... : ... .. . ... ... ... : ... .. . ... : ... .. 5 ... : ... .. . ... ...
ROW 9C : ... .. C ... ... ... : ... .. C ... ... ... : ... .. . ... : ... .. 3 ... : ... .. . ... ...
ROW 9D : ... .. . ... ... ... : ... .. . ... ... ... : ... .. . ... : ... .. 1 ... : ... .. . ... ...
ROW 9E : ... .. . ... ... ... : ... .. . ... ... ... : ... .. . ... : ... .. 0 ... : ... .. . ... ...
ROW 9F : ... .. B ... ... ... : ... .. B ... ... ... : ... .. . ... : ... .. . ... : ... .. . ... ...
ROW A0 : ... .. 0 ... V00 ... : ... .. 0 ... V00 ... : A#3 00 . P81 : 1-# 00 F ... : ... .. . ... ...
ROW A1 : F-3 00 F P80 V01 ... : A-3 00 F P80 V01 ... : D#3 00 . P89 : ... .. . ... : ... .. . ... ...
ROW A2 : ... .. E ... ... ... : ... .. E ... ... ... : B-2 00 . P76 : ... .. . ... : ... .. . ... ...
ROW A3 : ... .. . ... ... ... : ... .. . ... ... ... : G-2 00 . P7C : ... .. C ... : ... .. . ... ...
ROW A4 : ... .. . ... ... ... : ... .. . ... ... ... : E-2 00 . P78 : ... .. B ... : ... .. . ... ...
ROW A5 : ... .. D ... ... ... : ... .. D ... ... ... : C#2 00 . P88 : ... .. 9 ... : ... .. . ... ...
ROW A6 : ... .. . ... ... ... : ... .. . ... ... ... : B-1 00 . P7B : ... .. 6 ... : ... .. . ... ...
ROW A7 : ... .. . ... ... ... : ... .. . ... ... ... : A-1 00 . P7A : ... .. 5 ... : ... .. . ... ...
ROW A8 : ... .. C ... ... ... : ... .. C ... ... ... : G-1 00 . P86 : ... .. 3 ... : ... .. . ... ...
ROW A9 : ... .. . ... ... ... : ... .. . ... ... ... : F-1 00 . PA2 : ... .. 1 ... : ... .. . ... ...
ROW AA : ... .. . ... ... ... : ... .. . ... ... ... : --- .. . ... : ... .. 0 ... : ... .. . ... ...
ROW AB : ... .. B ... ... ... : ... .. B ... ... ... : ... .. . ... : ... .. . ... : ... .. . ... ...
ROW AC : ... .. . ... ... ... : ... .. . ... ... ... : ... .. . ... : D-# 00 F ... : ... .. . ... ...
ROW AD : ... .. . ... ... ... : ... .. . ... ... ... : F-2 00 . P80 : ... .. . ... : ... .. . ... ...
ROW AE : ... .. A ... ... ... : ... .. A ... ... ... : ... .. . ... : ... .. . ... : ... .. . ... ...
ROW AF : ... .. . ... ... ... : ... .. . ... ... ... : ... .. . ... : ... .. C ... : ... .. . ... ...
ROW B0 : ... .. . ... ... ... : ... .. . ... ... ... : ... .. . ... : ... .. B ... : ... .. . ... ...
ROW B1 : ... .. 9 ... ... ... : ... .. 9 ... ... ... : ... .. . ... : ... .. 9 ... : ... .. . ... ...
ROW B2 : ... .. . ... ... ... : ... .. . ... ... ... : ... .. . ... : ... .. 6 ... : ... .. . ... ...
ROW B3 : ... .. . ... ... ... : ... .. . ... ... ... : ... .. . ... : ... .. 5 ... : ... .. . ... ...
ROW B4 : ... .. 8 ... ... ... : ... .. 8 ... ... ... : ... .. . ... : ... .. 3 ... : ... .. . ... ...
ROW B5 : ... .. . ... ... ... : ... .. . ... ... ... : ... .. . ... : ... .. 1 ... : ... .. . ... ...
ROW B6 : ... .. 7 ... ... ... : ... .. 7 ... ... ... : ... .. . ... : ... .. 0 ... : ... .. . ... ...
ROW B7 : ... .. . ... ... ... : ... .. . ... ... ... : ... .. . ... : ... .. . ... : ... .. . ... ...
ROW B8 : ... .. 0 ... V00 ... : ... .. 0 ... V00 ... : A#3 00 . P81 : 4-# 00 F ... : ... .. . ... ...
ROW B9 : F-3 00 F P80 V01 ... : A-3 00 F P80 V01 ... : D#3 00 . P89 : ... .. . ... : ... .. . ... ...
ROW BA : ... .. E ... ... ... : ... .. E ... ... ... : B-2 00 . P76 : ... .. . ... : ... .. . ... ...
ROW BB : ... .. . ... ... ... : ... .. . ... ... ... : G-2 00 . P7C : ... .. C ... : ... .. . ... ...
ROW BC : ... .. . ... ... ... : ... .. . ... ... ... : E-2 00 . P78 : ... .. B ... : ... .. . ... ...
ROW BD : ... .. D ... ... ... : ... .. D ... ... ... : C#2 00 . P88 : ... .. 9 ... : ... .. . ... ...
ROW BE : ... .. . ... ... ... : ... .. . ... ... ... : B-1 00 . P7B : ... .. 6 ... : ... .. . ... ...
ROW BF : ... .. . ... ... ... : ... .. . ... ... ... : A-1 00 . P7A : ... .. 5 ... : ... .. . ... ...
ROW C0 : ... .. C ... ... ... : ... .. C ... ... ... : G-1 00 . P86 : ... .. 3 ... : ... .. . ... ...
ROW C1 : ... .. . ... ... ... : ... .. . ... ... ... : F-1 00 . PA2 : ... .. 1 ... : ... .. . ... ...
ROW C2 : ... .. . ... ... ... : ... .. . ... ... ... : --- .. . ... : ... .. 0 ... : ... .. . ... ...
ROW C3 : ... .. B ... ... ... : ... .. B ... ... ... : ... .. . ... : ... .. . ... : ... .. . ... ...
ROW C4 : ... .. 0 ... V00 ... : ... .. 0 ... V00 ... : ... .. . ... : D-# 00 F ... : ... .. . ... ...
ROW C5 : G-3 00 F P80 V01 ... : B-3 00 F P80 V01 ... : F-2 00 . P80 : ... .. . ... : ... .. . ... ...
ROW C6 : ... .. E ... ... ... : ... .. E ... ... ... : ... .. . ... : ... .. . ... : ... .. . ... ...
ROW C7 : ... .. . ... ... ... : ... .. . ... ... ... : ... .. . ... : ... .. C ... : ... .. . ... ...
ROW C8 : ... .. . ... ... ... : ... .. . ... ... ... : ... .. . ... : ... .. B ... : ... .. . ... ...
ROW C9 : ... .. D ... ... ... : ... .. D ... ... ... : ... .. . ... : ... .. 9 ... : ... .. . ... ...
ROW CA : ... .. 0 ... V00 ... : ... .. 0 ... V00 ... : ... .. . ... : ... .. 6 ... : ... .. . ... ...
ROW CB : G-3 00 F P80 V01 ... : B-3 00 F P80 V01 ... : ... .. . ... : ... .. 5 ... : ... .. . ... ...
ROW CC : ... .. E ... ... ... : ... .. E ... ... ... : ... .. . ... : ... .. 3 ... : ... .. . ... ...
ROW CD : ... .. . ... ... ... : ... .. . ... ... ... : ... .. . ... : ... .. 1 ... : ... .. . ... ...
ROW CE : ... .. . ... ... ... : ... .. . ... ... ... : ... .. . ... : ... .. 0 ... : ... .. . ... ...
ROW CF : ... .. D ... ... ... : ... .. D ... ... ... : ... .. . ... : ... .. . ... : ... .. . ... ...
ROW D0 : ... .. 0 ... V00 ... : ... .. 0 ... V00 ... : A#3 00 . P81 : 1-# 00 F ... : ... .. . ... ...
ROW D1 : G-3 00 F P80 V01 ... : C-4 00 F P80 V01 ... : D#3 00 . P89 : ... .. . ... : ... .. . ... ...
ROW D2 : ... .. E ... ... ... : ... .. E ... ... ... : B-2 00 . P76 : ... .. . ... : ... .. . ... ...
ROW D3 : ... .. . ... ... ... : ... .. . ... ... ... : G-2 00 . P7C : ... .. C ... : ... .. . ... ...
ROW D4 : ... .. . ... ... ... : ... .. . ... ... ... : E-2 00 . P78 : ... .. B ... : ... .. . ... ...
ROW D5 : ... .. D ... ... ... : ... .. D ... ... ... : C#2 00 . P88 : ... .. 9 ... : ... .. . ... ...
ROW D6 : ... .. . ... ... ... : ... .. . ... ... ... : B-1 00 . P7B : ... .. 6 ... : ... .. . ... ...
ROW D7 : ... .. . ... ... ... : ... .. . ... ... ... : A-1 00 . P7A : ... .. 5 ... : ... .. . ... ...
ROW D8 : ... .. C ... ... ... : ... .. C ... ... ... : G-1 00 . P86 : ... .. 3 ... : ... .. . ... ...
ROW D9 : ... .. . ... ... ... : ... .. . ... ... ... : F-1 00 . PA2 : ... .. 1 ... : ... .. . ... ...
ROW DA : ... .. . ... ... ... : ... .. . ... ... ... : --- .. . ... : ... .. 0 ... : ... .. . ... ...
ROW DB : ... .. B ... ... ... : ... .. B ... ... ... : ... .. . ... : ... .. . ... : ... .. . ... ...
ROW DC : ... .. 0 ... V00 ... : ... .. 0 ... V00 ... : ... .. . ... : D-# 00 F ... : ... .. . ... ...
ROW DD : E-3 00 F P80 V01 ... : G-3 00 F P80 V01 ... : G-2 00 . P80 : ... .. . ... : ... .. . ... ...
ROW DE : ... .. E ... ... ... : ... .. E ... ... ... : ... .. . ... : ... .. . ... : ... .. . ... ...
ROW DF : ... .. . ... ... ... : ... .. . ... ... ... : ... .. . ... : ... .. C ... : ... .. . ... ...
ROW E0 : ... .. . ... ... ... : ... .. . ... ... ... : ... .. . ... : ... .. B ... : ... .. . ... ...
ROW E1 : ... .. D ... ... ... : ... .. D ... ... ... : ... .. . ... : ... .. 9 ... : ... .. . ... ...
ROW E2 : ... .. . ... ... ... : ... .. . ... ... ... : ... .. . ... : ... .. 6 ... : ... .. . ... ...
ROW E3 : ... .. . ... ... ... : ... .. . ... ... ... : ... .. . ... : ... .. 5 ... : ... .. . ... ...
ROW E4 : ... .. C ... ... ... : ... .. C ... ... ... : ... .. . ... : ... .. 3 ... : ... .. . ... ...
ROW E5 : ... .. . ... ... ... : ... .. . ... ... ... : ... .. . ... : ... .. 1 ... : ... .. . ... ...
ROW E6 : ... .. . ... ... ... : ... .. . ... ... ... : ... .. . ... : ... .. 0 ... : ... .. . ... ...
ROW E7 : ... .. B ... ... ... : ... .. B ... ... ... : ... .. . ... : ... .. . ... : ... .. . ... ...
ROW E8 : ... .. 0 ... V00 ... : ... .. 0 ... V00 ... : A#3 00 . P81 : 4-# 00 F ... : ... .. . ... ...
ROW E9 : C-3 00 F P80 V01 ... : F-3 00 F P80 V01 ... : D#3 00 . P89 : ... .. . ... : ... .. . ... ...
ROW EA : ... .. E ... ... ... : ... .. E ... ... ... : B-2 00 . P76 : ... .. . ... : ... .. . ... ...
ROW EB : ... .. . ... ... ... : ... .. . ... ... ... : G-2 00 . P7C : ... .. C ... : ... .. . ... ...
ROW EC : ... .. . ... ... ... : ... .. . ... ... ... : E-2 00 . P78 : ... .. B ... : ... .. . ... ...
ROW ED : ... .. D ... ... ... : ... .. D ... ... ... : C#2 00 . P88 : ... .. 9 ... : ... .. . ... ...
ROW EE : ... .. . ... ... ... : ... .. . ... ... ... : B-1 00 . P7B : ... .. 6 ... : ... .. . ... ...
ROW EF : ... .. . ... ... ... : ... .. . ... ... ... : A-1 00 . P7A : ... .. 5 ... : ... .. . ... ...
ROW F0 : ... .. C ... ... ... : ... .. C ... ... ... : G-1 00 . P86 : ... .. 3 ... : ... .. . ... ...
ROW F1 : ... .. . ... ... ... : ... .. . ... ... ... : F-1 00 . PA2 : ... .. 1 ... : ... .. . ... ...
ROW F2 : ... .. . ... ... ... : ... .. . ... ... ... : --- .. . ... : ... .. 0 ... : ... .. . ... ...
ROW F3 : ... .. B ... ... ... : ... .. B ... ... ... : ... .. . ... : ... .. . ... : ... .. . ... ...
ROW F4 : ... .. 0 ... V00 ... : ... .. 0 ... V00 ... : ... .. . ... : D-# 00 F ... : ... .. . ... ...
ROW F5 : E-3 00 F P80 V01 ... : G-3 00 F P80 V01 ... : G-2 00 . P80 : ... .. . ... : ... .. . ... ...
ROW F6 : ... .. E ... ... ... : ... .. E ... ... ... : ... .. . ... : ... .. . ... : ... .. . ... ...
ROW F7 : ... .. . ... ... ... : ... .. . ... ... ... : ... .. . ... : ... .. C ... : ... .. . ... ...
ROW F8 : ... .. . ... ... ... : ... .. . ... ... ... : ... .. . ... : ... .. B ... : ... .. . ... ...
ROW F9 : ... .. D ... ... ... : ... .. D ... ... ... : ... .. . ... : ... .. 9 ... : ... .. . ... ...
ROW FA : ... .. . ... ... ... : ... .. . ... ... ... : ... .. . ... : ... .. 6 ... : ... .. . ... ...
ROW FB : ... .. . ... ... ... : ... .. . ... ... ... : ... .. . ... : ... .. 5 ... : ... .. . ... ...
ROW FC : ... .. C ... ... ... : ... .. C ... ... ... : ... .. . ... : ... .. 3 ... : ... .. . ... ...
ROW FD : ... .. . ... ... ... : ... .. . ... ... ... : ... .. . ... : ... .. 1 ... : ... .. . ... ...
ROW FE : ... .. . ... ... ... : ... .. . ... ... ... : ... .. . ... : ... .. 0 ... : ... .. . ... ...
ROW FF : ... .. B ... ... ... : ... .. B ... ... ... : ... .. . ... : ... .. . ... : ... .. . ... ...

PATTERN 1B
ROW 00 : ... .. 0 ... V00 ... : ... .. 0 ... V00 ... : A#3 00 . P81 : 1-# 00 F ... : ... .. . ... ...
ROW 01 : G-2 00 F P80 V01 ... : C-3 00 F P80 V01 ... : D#3 00 . P89 : ... .. . ... : ... .. . ... ...
ROW 02 : ... .. E ... ... ... : ... .. E ... ... ... : B-2 00 . P76 : ... .. . ... : ... .. . ... ...
ROW 03 : ... .. . ... ... ... : ... .. . ... ... ... : G-2 00 . P7C : ... .. C ... : ... .. . ... ...
ROW 04 : ... .. . ... ... ... : ... .. . ... ... ... : E-2 00 . P78 : ... .. B ... : ... .. . ... ...
ROW 05 : ... .. D ... ... ... : ... .. D ... ... ... : C#2 00 . P88 : ... .. 9 ... : ... .. . ... ...
ROW 06 : ... .. . ... ... ... : ... .. . ... ... ... : B-1 00 . P7B : ... .. 6 ... : ... .. . ... ...
ROW 07 : ... .. . ... ... ... : ... .. . ... ... ... : A-1 00 . P7A : ... .. 5 ... : ... .. . ... ...
ROW 08 : ... .. C ... ... ... : ... .. C ... ... ... : G-1 00 . P86 : ... .. 3 ... : ... .. . ... ...
ROW 09 : ... .. . ... ... ... : ... .. . ... ... ... : F-1 00 . PA2 : ... .. 1 ... : ... .. . ... ...
ROW 0A : ... .. . ... ... ... : ... .. . ... ... ... : --- .. . ... : ... .. 0 ... : ... .. . ... ...
ROW 0B : ... .. B ... ... ... : ... .. B ... ... ... : ... .. . ... : ... .. . ... : ... .. . ... ...
ROW 0C : ... .. . ... ... ... : ... .. . ... ... ... : ... .. . ... : D-# 00 F ... : ... .. . ... ...
ROW 0D : ... .. . ... ... ... : ... .. . ... ... ... : C-3 00 . P80 : ... .. . ... : ... .. . ... ...
ROW 0E : ... .. A ... ... ... : ... .. A ... ... ... : ... .. . ... : ... .. . ... : ... .. . ... ...
ROW 0F : ... .. . ... ... ... : ... .. . ... ... ... : ... .. . ... : ... .. C ... : ... .. . ... ...
ROW 10 : ... .. . ... ... ... : ... .. . ... ... ... : ... .. . ... : ... .. B ... : ... .. . ... ...
ROW 11 : ... .. 9 ... ... ... : ... .. 9 ... ... ... : ... .. . ... : ... .. 9 ... : ... .. . ... ...
ROW 12 : ... .. . ... ... ... : ... .. . ... ... ... : ... .. . ... : ... .. 6 ... : ... .. . ... ...
ROW 13 : ... .. . ... ... ... : ... .. . ... ... ... : ... .. . ... : ... .. 5 ... : ... .. . ... ...
ROW 14 : ... .. 8 ... ... ... : ... .. 8 ... ... ... : ... .. . ... : ... .. 3 ... : ... .. . ... ...
ROW 15 : ... .. . ... ... ... : ... .. . ... ... ... : ... .. . ... : ... .. 1 ... : ... .. . ... ...
ROW 16 : ... .. 7 ... ... ... : ... .. 7 ... ... ... : ... .. . ... : ... .. 0 ... : ... .. . ... ...
ROW 17 : ... .. . ... ... ... : ... .. . ... ... ... : ... .. . ... : ... .. . ... : ... .. . ... ...
ROW 18 : ... .. 0 ... V00 ... : ... .. 0 ... V00 ... : A#3 00 . P81 : 4-# 00 F ... : ... .. . ... ...
ROW 19 : C-3 00 F P80 V01 ... : E-3 00 F P80 V01 ... : D#3 00 . P89 : ... .. . ... : ... .. . ... ...
ROW 1A : ... .. E ... ... ... : ... .. E ... ... ... : B-2 00 . P76 : ... .. . ... : ... .. . ... ...
ROW 1B : ... .. . ... ... ... : ... .. . ... ... ... : G-2 00 . P7C : ... .. C ... : ... .. . ... ...
ROW 1C : ... .. . ... ... ... : ... .. . ... ... ... : E-2 00 . P78 : ... .. B ... : ... .. . ... ...
ROW 1D : ... .. D ... ... ... : ... .. D ... ... ... : C#2 00 . P88 : ... .. 9 ... : ... .. . ... ...
ROW 1E : ... .. . ... ... ... : ... .. . ... ... ... : B-1 00 . P7B : ... .. 6 ... : ... .. . ... ...
ROW 1F : ... .. . ... ... ... : ... .. . ... ... ... : A-1 00 . P7A : ... .. 5 ... : ... .. . ... ...
ROW 20 : ... .. C ... ... ... : ... .. C ... ... ... : G-1 00 . P86 : ... .. 3 ... : ... .. . ... ...
ROW 21 : ... .. . ... ... ... : ... .. . ... ... ... : F-1 00 . PA2 : ... .. 1 ... : ... .. . ... ...
ROW 22 : ... .. . ... ... ... : ... .. . ... ... ... : --- .. . ... : ... .. 0 ... : ... .. . ... ...
ROW 23 : ... .. B ... ... ... : ... .. B ... ... ... : ... .. . ... : ... .. . ... : ... .. . ... ...
ROW 24 : ... .. 0 ... V00 ... : ... .. 0 ... V00 ... : ... .. . ... : D-# 00 F ... : ... .. . ... ...
ROW 25 : E-3 00 F P80 V01 ... : G-3 00 F P80 V01 ... : C-3 00 . P80 : ... .. . ... : ... .. . ... ...
ROW 26 : ... .. E ... ... ... : ... .. E ... ... ... : ... .. . ... : ... .. . ... : ... .. . ... ...
ROW 27 : ... .. . ... ... ... : ... .. . ... ... ... : ... .. . ... : ... .. C ... : ... .. . ... ...
ROW 28 : ... .. . ... ... ... : ... .. . ... ... ... : ... .. . ... : ... .. B ... : ... .. . ... ...
ROW 29 : ... .. D ... ... ... : ... .. D ... ... ... : ... .. . ... : ... .. 9 ... : ... .. . ... ...
ROW 2A : ... .. 0 ... V00 ... : ... .. 0 ... V00 ... : ... .. . ... : ... .. 6 ... : ... .. . ... ...
ROW 2B : E-3 00 F P80 V01 ... : G-3 00 F P80 V01 ... : ... .. . ... : ... .. 5 ... : ... .. . ... ...
ROW 2C : ... .. E ... ... ... : ... .. E ... ... ... : ... .. . ... : ... .. 3 ... : ... .. . ... ...
ROW 2D : ... .. . ... ... ... : ... .. . ... ... ... : ... .. . ... : ... .. 1 ... : ... .. . ... ...
ROW 2E : ... .. . ... ... ... : ... .. . ... ... ... : ... .. . ... : ... .. 0 ... : ... .. . ... ...
ROW 2F : ... .. D ... ... ... : ... .. D ... ... ... : ... .. . ... : ... .. . ... : ... .. . ... ...
ROW 30 : ... .. 0 ... V00 ... : ... .. 0 ... V00 ... : A#3 00 . P81 : 1-# 00 F ... : ... .. . ... ...
ROW 31 : E-3 00 F P80 V01 ... : G-3 00 F P80 V01 ... : D#3 00 . P89 : ... .. . ... : ... .. . ... ...
ROW 32 : ... .. E ... ... ... : ... .. E ... ... ... : B-2 00 . P76 : ... .. . ... : ... .. . ... ...
ROW 33 : ... .. . ... ... ... : ... .. . ... ... ... : G-2 00 . P7C : ... .. C ... : ... .. . ... ...
ROW 34 : ... .. . ... ... ... : ... .. . ... ... ... : E-2 00 . P78 : ... .. B ... : ... .. . ... ...
ROW 35 : ... .. D ... ... ... : ... .. D ... ... ... : C#2 00 . P88 : ... .. 9 ... : ... .. . ... ...
ROW 36 : ... .. . ... ... ... : ... .. . ... ... ... : B-1 00 . P7B : ... .. 6 ... : ... .. . ... ...
ROW 37 : ... .. . ... ... ... : ... .. . ... ... ... : A-1 00 . P7A : ... .. 5 ... : ... .. . ... ...
ROW 38 : ... .. C ... ... ... : ... .. C ... ... ... : G-1 00 . P86 : ... .. 3 ... : ... .. . ... ...
ROW 39 : ... .. . ... ... ... : ... .. . ... ... ... : F-1 00 . PA2 : ... .. 1 ... : ... .. . ... ...
ROW 3A : ... .. . ... ... ... : ... .. . ... ... ... : --- .. . ... : ... .. 0 ... : ... .. . ... ...
ROW 3B : ... .. B ... ... ... : ... .. B ... ... ... : ... .. . ... : ... .. . ... : ... .. . ... ...
ROW 3C : ... .. 0 ... V00 ... : ... .. 0 ... V00 ... : ... .. . ... : D-# 00 F ... : ... .. . ... ...
ROW 3D : C-3 00 F P80 V01 ... : E-3 00 F P80 V01 ... : C-3 00 . P80 : ... .. . ... : ... .. . ... ...
ROW 3E : ... .. E ... ... ... : ... .. E ... ... ... : ... .. . ... : ... .. . ... : ... .. . ... ...
ROW 3F : ... .. . ... ... ... : ... .. . ... ... ... : ... .. . ... : ... .. C ... : ... .. . ... ...
ROW 40 : ... .. . ... ... ... : ... .. . ... ... ... : ... .. . ... : ... .. B ... : ... .. . ... ...
ROW 41 : ... .. D ... ... ... : ... .. D ... ... ... : ... .. . ... : ... .. 9 ... : ... .. . ... ...
ROW 42 : ... .. . ... ... ... : ... .. . ... ... ... : ... .. . ... : ... .. 6 ... : ... .. . ... ...
ROW 43 : ... .. . ... ... ... : ... .. . ... ... ... : ... .. . ... : ... .. 5 ... : ... .. . ... ...
ROW 44 : ... .. C ... ... ... : ... .. C ... ... ... : ... .. . ... : ... .. 3 ... : ... .. . ... ...
ROW 45 : ... .. . ... ... ... : ... .. . ... ... ... : ... .. . ... : ... .. 1 ... : ... .. . ... ...
ROW 46 : ... .. . ... ... ... : ... .. . ... ... ... : ... .. . ... : ... .. 0 ... : ... .. . ... ...
ROW 47 : ... .. B ... ... ... : ... .. B ... ... ... : ... .. . ... : ... .. . ... : ... .. . ... ...
ROW 48 : ... .. 0 ... V00 ... : ... .. 0 ... V00 ... : A#3 00 . P81 : 4-# 00 F ... : ... .. . ... ...
ROW 49 : G-2 00 F P80 V01 ... : D-3 00 F P80 V01 ... : D#3 00 . P89 : ... .. . ... : ... .. . ... ...
ROW 4A : ... .. E ... ... ... : ... .. E ... ... ... : B-2 00 . P76 : ... .. . ... : ... .. . ... ...
ROW 4B : ... .. . ... ... ... : ... .. . ... ... ... : G-2 00 . P7C : ... .. C ... : ... .. . ... ...
ROW 4C : ... .. . ... ... ... : ... .. . ... ... ... : E-2 00 . P78 : ... .. B ... : ... .. . ... ...
ROW 4D : ... .. D ... ... ... : ... .. D ... ... ... : C#2 00 . P88 : ... .. 9 ... : ... .. . ... ...
ROW 4E : ... .. . ... ... ... : ... .. . ... ... ... : B-1 00 . P7B : ... .. 6 ... : ... .. . ... ...
ROW 4F : ... .. . ... ... ... : ... .. . ... ... ... : A-1 00 . P7A : ... .. 5 ... : ... .. . ... ...
ROW 50 : ... .. C ... ... ... : ... .. C ... ... ... : G-1 00 . P86 : ... .. 3 ... : ... .. . ... ...
ROW 51 : ... .. . ... ... ... : ... .. . ... ... ... : F-1 00 . PA2 : ... .. 1 ... : ... .. . ... ...
ROW 52 : ... .. . ... ... ... : ... .. . ... ... ... : --- .. . ... : ... .. 0 ... : ... .. . ... ...
ROW 53 : ... .. B ... ... ... : ... .. B ... ... ... : ... .. . ... : ... .. . ... : ... .. . ... ...
ROW 54 : ... .. 0 ... V00 ... : ... .. 0 ... V00 ... : ... .. . ... : D-# 00 F ... : ... .. . ... ...
ROW 55 : C-3 00 F P80 V01 ... : E-3 00 F P80 V01 ... : C-3 00 . P80 : ... .. . ... : ... .. . ... ...
ROW 56 : ... .. E ... ... ... : ... .. E ... ... ... : ... .. . ... : ... .. . ... : ... .. . ... ...
ROW 57 : ... .. . ... ... ... : ... .. . ... ... ... : ... .. . ... : ... .. C ... : ... .. . ... ...
ROW 58 : ... .. . ... ... ... : ... .. . ... ... ... : ... .. . ... : ... .. B ... : ... .. . ... ...
ROW 59 : ... .. D ... ... ... : ... .. D ... ... ... : ... .. . ... : ... .. 9 ... : ... .. . ... ...
ROW 5A : ... .. . ... ... ... : ... .. . ... ... ... : ... .. . ... : ... .. 6 ... : ... .. . ... ...
ROW 5B : ... .. . ... ... ... : ... .. . ... ... ... : ... .. . ... : ... .. 5 ... : ... .. . ... ...
ROW 5C : ... .. C ... ... ... : ... .. C ... ... ... : ... .. . ... : ... .. 3 ... : ... .. . ... ...
ROW 5D : ... .. . ... ... ... : ... .. . ... ... ... : ... .. . ... : ... .. 1 ... : ... .. . ... ...
ROW 5E : ... .. . ... ... ... : ... .. . ... ... ... : ... .. . ... : ... .. 0 ... : ... .. . ... ...
ROW 5F : ... .. B ... ... ... : ... .. B ... ... ... : ... .. . ... : ... .. . ... : ... .. . ... ...
ROW 60 : ... .. 0 ... V00 ... : ... .. 0 ... V00 ... : A#3 00 . P81 : 1-# 00 F ... : ... .. . ... ...
ROW 61 : F-3 00 F P80 V01 ... : A-3 00 F P80 V01 ... : D#3 00 . P89 : ... .. . ... : ... .. . ... ...
ROW 62 : ... .. E ... ... ... : ... .. E ... ... ... : B-2 00 . P76 : ... .. . ... : ... .. . ... ...
ROW 63 : ... .. . ... ... ... : ... .. . ... ... ... : G-2 00 . P7C : ... .. C ... : ... .. . ... ...
ROW 64 : ... .. . ... ... ... : ... .. . ... ... ... : E-2 00 . P78 : ... .. B ... : ... .. . ... ...
ROW 65 : ... .. D ... ... ... : ... .. D ... ... ... : C#2 00 . P88 : ... .. 9 ... : ... .. . ... ...
ROW 66 : ... .. . ... ... ... : ... .. . ... ... ... : B-1 00 . P7B : ... .. 6 ... : ... .. . ... ...
ROW 67 : ... .. . ... ... ... : ... .. . ... ... ... : A-1 00 . P7A : ... .. 5 ... : ... .. . ... ...
ROW 68 : ... .. C ... ... ... : ... .. C ... ... ... : G-1 00 . P86 : ... .. 3 ... : ... .. . ... ...
ROW 69 : ... .. . ... ... ... : ... .. . ... ... ... : F-1 00 . PA2 : ... .. 1 ... : ... .. . ... ...
ROW 6A : ... .. . ... ... ... : ... .. . ... ... ... : --- .. . ... : ... .. 0 ... : ... .. . ... ...
ROW 6B : ... .. B ... ... ... : ... .. B ... ... ... : ... .. . ... : ... .. . ... : ... .. . ... ...
ROW 6C : ... .. . ... ... ... : ... .. . ... ... ... : ... .. . ... : D-# 00 F ... : ... .. . ... ...
ROW 6D : ... .. . ... ... ... : ... .. . ... ... ... : F-2 00 . P80 : ... .. . ... : ... .. . ... ...
ROW 6E : ... .. A ... ... ... : ... .. A ... ... ... : ... .. . ... : ... .. . ... : ... .. . ... ...
ROW 6F : ... .. . ... ... ... : ... .. . ... ... ... : ... .. . ... : ... .. C ... : ... .. . ... ...
ROW 70 : ... .. . ... ... ... : ... .. . ... ... ... : ... .. . ... : ... .. B ... : ... .. . ... ...
ROW 71 : ... .. 9 ... ... ... : ... .. 9 ... ... ... : ... .. . ... : ... .. 9 ... : ... .. . ... ...
ROW 72 : ... .. . ... ... ... : ... .. . ... ... ... : ... .. . ... : ... .. 6 ... : ... .. . ... ...
ROW 73 : ... .. . ... ... ... : ... .. . ... ... ... : ... .. . ... : ... .. 5 ... : ... .. . ... ...
ROW 74 : ... .. 8 ... ... ... : ... .. 8 ... ... ... : ... .. . ... : ... .. 3 ... : ... .. . ... ...
ROW 75 : ... .. . ... ... ... : ... .. . ... ... ... : ... .. . ... : ... .. 1 ... : ... .. . ... ...
ROW 76 : ... .. 7 ... ... ... : ... .. 7 ... ... ... : ... .. . ... : ... .. 0 ... : ... .. . ... ...
ROW 77 : ... .. . ... ... ... : ... .. . ... ... ... : ... .. . ... : ... .. . ... : ... .. . ... ...
ROW 78 : ... .. 0 ... V00 ... : ... .. 0 ... V00 ... : A#3 00 . P81 : 4-# 00 F ... : ... .. . ... ...
ROW 79 : F-3 00 F P80 V01 ... : A-3 00 F P80 V01 ... : D#3 00 . P89 : ... .. . ... : ... .. . ... ...
ROW 7A : ... .. E ... ... ... : ... .. E ... ... ... : B-2 00 . P76 : ... .. . ... : ... .. . ... ...
ROW 7B : ... .. . ... ... ... : ... .. . ... ... ... : G-2 00 . P7C : ... .. C ... : ... .. . ... ...
ROW 7C : ... .. . ... ... ... : ... .. . ... ... ... : E-2 00 . P78 : ... .. B ... : ... .. . ... ...
ROW 7D : ... .. D ... ... ... : ... .. D ... ... ... : C#2 00 . P88 : ... .. 9 ... : ... .. . ... ...
ROW 7E : ... .. . ... ... ... : ... .. . ... ... ... : B-1 00 . P7B : ... .. 6 ... : ... .. . ... ...
ROW 7F : ... .. . ... ... ... : ... .. . ... ... ... : A-1 00 . P7A : ... .. 5 ... : ... .. . ... ...
ROW 80 : ... .. C ... ... ... : ... .. C ... ... ... : G-1 00 . P86 : ... .. 3 ... : ... .. . ... ...
ROW 81 : ... .. . ... ... ... : ... .. . ... ... ... : F-1 00 . PA2 : ... .. 1 ... : ... .. . ... ...
ROW 82 : ... .. . ... ... ... : ... .. . ... ... ... : --- .. . ... : ... .. 0 ... : ... .. . ... ...
ROW 83 : ... .. B ... ... ... : ... .. B ... ... ... : ... .. . ... : ... .. . ... : ... .. . ... ...
ROW 84 : ... .. 0 ... V00 ... : ... .. 0 ... V00 ... : ... .. . ... : D-# 00 F ... : ... .. . ... ...
ROW 85 : E-3 00 F P80 V01 ... : G-3 00 F P80 V01 ... : F-2 00 . P80 : ... .. . ... : ... .. . ... ...
ROW 86 : ... .. E ... ... ... : ... .. E ... ... ... : ... .. . ... : ... .. . ... : ... .. . ... ...
ROW 87 : ... .. . ... ... ... : ... .. . ... ... ... : ... .. . ... : ... .. C ... : ... .. . ... ...
ROW 88 : ... .. . ... ... ... : ... .. . ... ... ... : ... .. . ... : ... .. B ... : ... .. . ... ...
ROW 89 : ... .. D ... ... ... : ... .. D ... ... ... : ... .. . ... : ... .. 9 ... : ... .. . ... ...
ROW 8A : ... .. 0 ... V00 ... : ... .. 0 ... V00 ... : ... .. . ... : ... .. 6 ... : ... .. . ... ...
ROW 8B : E-3 00 F P80 V01 ... : G-3 00 F P80 V01 ... : ... .. . ... : ... .. 5 ... : ... .. . ... ...
ROW 8C : ... .. E ... ... ... : ... .. E ... ... ... : ... .. . ... : ... .. 3 ... : ... .. . ... ...
ROW 8D : ... .. . ... ... ... : ... .. . ... ... ... : ... .. . ... : ... .. 1 ... : ... .. . ... ...
ROW 8E : ... .. . ... ... ... : ... .. . ... ... ... : ... .. . ... : ... .. 0 ... : ... .. . ... ...
ROW 8F : ... .. D ... ... ... : ... .. D ... ... ... : ... .. . ... : ... .. . ... : ... .. . ... ...
ROW 90 : ... .. 0 ... V00 ... : ... .. 0 ... V00 ... : A#3 00 . P81 : 1-# 00 F ... : ... .. . ... ...
ROW 91 : E-3 00 F P80 V01 ... : G-3 00 F P80 V01 ... : D#3 00 . P89 : ... .. . ... : ... .. . ... ...
ROW 92 : ... .. E ... ... ... : ... .. E ... ... ... : B-2 00 . P76 : ... .. . ... : ... .. . ... ...
ROW 93 : ... .. . ... ... ... : ... .. . ... ... ... : G-2 00 . P7C : ... .. C ... : ... .. . ... ...
ROW 94 : ... .. . ... ... ... : ... .. . ... ... ... : E-2 00 . P78 : ... .. B ... : ... .. . ... ...
ROW 95 : ... .. D ... ... ... : ... .. D ... ... ... : C#2 00 . P88 : ... .. 9 ... : ... .. . ... ...
ROW 96 : ... .. . ... ... ... : ... .. . ... ... ... : B-1 00 . P7B : ... .. 6 ... : ... .. . ... ...
ROW 97 : ... .. . ... ... ... : ... .. . ... ... ... : A-1 00 . P7A : ... .. 5 ... : ... .. . ... ...
ROW 98 : ... .. C ... ... ... : ... .. C ... ... ... : G-1 00 . P86 : ... .. 3 ... : ... .. . ... ...
ROW 99 : ... .. . ... ... ... : ... .. . ... ... ... : F-1 00 . PA2 : ... .. 1 ... : ... .. . ... ...
ROW 9A : ... .. . ... ... ... : ... .. . ... ... ... : --- .. . ... : ... .. 0 ... : ... .. . ... ...
ROW 9B : ... .. B ... ... ... : ... .. B ... ... ... : ... .. . ... : ... .. . ... : ... .. . ... ...
ROW 9C : ... .. 0 ... V00 ... : ... .. 0 ... V00 ... : ... .. . ... : D-# 00 F ... : ... .. . ... ...
ROW 9D : C-3 00 F P80 V01 ... : E-3 00 F P80 V01 ... : G-2 00 . P80 : ... .. . ... : ... .. . ... ...
ROW 9E : ... .. E ... ... ... : ... .. E ... ... ... : ... .. . ... : ... .. . ... : ... .. . ... ...
ROW 9F : ... .. . ... ... ... : ... .. . ... ... ... : ... .. . ... : ... .. C ... : ... .. . ... ...
ROW A0 : ... .. . ... ... ... : ... .. . ... ... ... : ... .. . ... : ... .. B ... : ... .. . ... ...
ROW A1 : ... .. D ... ... ... : ... .. D ... ... ... : ... .. . ... : ... .. 9 ... : ... .. . ... ...
ROW A2 : ... .. . ... ... ... : ... .. . ... ... ... : ... .. . ... : ... .. 6 ... : ... .. . ... ...
ROW A3 : ... .. . ... ... ... : ... .. . ... ... ... : ... .. . ... : ... .. 5 ... : ... .. . ... ...
ROW A4 : ... .. C ... ... ... : ... .. C ... ... ... : ... .. . ... : ... .. 3 ... : ... .. . ... ...
ROW A5 : ... .. . ... ... ... : ... .. . ... ... ... : ... .. . ... : ... .. 1 ... : ... .. . ... ...
ROW A6 : ... .. . ... ... ... : ... .. . ... ... ... : ... .. . ... : ... .. 0 ... : ... .. . ... ...
ROW A7 : ... .. B ... ... ... : ... .. B ... ... ... : ... .. . ... : ... .. . ... : ... .. . ... ...
ROW A8 : ... .. 0 ... V00 ... : ... .. 0 ... V00 ... : A#3 00 . P81 : 4-# 00 F ... : ... .. . ... ...
ROW A9 : G-2 00 F P80 V01 ... : D-3 00 F P80 V01 ... : D#3 00 . P89 : ... .. . ... : ... .. . ... ...
ROW AA : ... .. E ... ... ... : ... .. E ... ... ... : B-2 00 . P76 : ... .. . ... : ... .. . ... ...
ROW AB : ... .. . ... ... ... : ... .. . ... ... ... : G-2 00 . P7C : ... .. C ... : ... .. . ... ...
ROW AC : ... .. . ... ... ... : ... .. . ... ... ... : E-2 00 . P78 : ... .. B ... : ... .. . ... ...
ROW AD : ... .. D ... ... ... : ... .. D ... ... ... : C#2 00 . P88 : ... .. 9 ... : ... .. . ... ...
ROW AE : ... .. . ... ... ... : ... .. . ... ... ... : B-1 00 . P7B : ... .. 6 ... : ... .. . ... ...
ROW AF : ... .. . ... ... ... : ... .. . ... ... ... : A-1 00 . P7A : ... .. 5 ... : ... .. . ... ...
ROW B0 : ... .. C ... ... ... : ... .. C ... ... ... : G-1 00 . P86 : ... .. 3 ... : ... .. . ... ...
ROW B1 : ... .. . ... ... ... : ... .. . ... ... ... : F-1 00 . PA2 : ... .. 1 ... : ... .. . ... ...
ROW B2 : ... .. . ... ... ... : ... .. . ... ... ... : --- .. . ... : ... .. 0 ... : ... .. . ... ...
ROW B3 : ... .. B ... ... ... : ... .. B ... ... ... : ... .. . ... : ... .. . ... : ... .. . ... ...
ROW B4 : ... .. 0 ... V00 ... : ... .. 0 ... V00 ... : ... .. . ... : D-# 00 F ... : ... .. . ... ...
ROW B5 : C-3 00 F P80 V01 ... : E-3 00 F P80 V01 ... : G-2 00 . P80 : ... .. . ... : ... .. . ... ...
ROW B6 : ... .. E ... ... ... : ... .. E ... ... ... : ... .. . ... : ... .. . ... : ... .. . ... ...
ROW B7 : ... .. . ... ... ... : ... .. . ... ... ... : ... .. . ... : ... .. C ... : ... .. . ... ...
ROW B8 : ... .. . ... ... ... : ... .. . ... ... ... : ... .. . ... : ... .. B ... : ... .. . ... ...
ROW B9 : ... .. D ... ... ... : ... .. D ... ... ... : ... .. . ... : ... .. 9 ... : ... .. . ... ...
ROW BA : ... .. . ... ... ... : ... .. . ... ... ... : ... .. . ... : ... .. 6 ... : ... .. . ... ...
ROW BB : ... .. . ... ... ... : ... .. . ... ... ... : ... .. . ... : ... .. 5 ... : ... .. . ... ...
ROW BC : ... .. C ... ... ... : ... .. C ... ... ... : ... .. . ... : ... .. 3 ... : ... .. . ... ...
ROW BD : ... .. . ... ... ... : ... .. . ... ... ... : ... .. . ... : ... .. 1 ... : ... .. . ... ...
ROW BE : ... .. . ... ... ... : ... .. . ... ... ... : ... .. . ... : ... .. 0 ... : ... .. . ... ...
ROW BF : ... .. B ... ... ... : ... .. B ... ... ... : ... .. . ... : ... .. . ... : ... .. . ... ...
ROW C0 : ... .. 0 ... V00 ... : ... .. 0 ... V00 ... : A#3 00 . P81 : 1-# 00 F ... : ... .. . ... ...
ROW C1 : G-2 00 F P80 V01 ... : C-3 00 F P80 V01 ... : D#3 00 . P89 : ... .. . ... : ... .. . ... ...
ROW C2 : ... .. E ... ... ... : ... .. E ... ... ... : B-2 00 . P76 : ... .. . ... : ... .. . ... ...
ROW C3 : ... .. . ... ... ... : ... .. . ... ... ... : G-2 00 . P7C : ... .. C ... : ... .. . ... ...
ROW C4 : ... .. . ... ... ... : ... .. . ... ... ... : E-2 00 . P78 : ... .. B ... : ... .. . ... ...
ROW C5 : ... .. D ... ... ... : ... .. D ... ... ... : C#2 00 . P88 : ... .. 9 ... : ... .. . ... ...
ROW C6 : ... .. . ... ... ... : ... .. . ... ... ... : B-1 00 . P7B : ... .. 6 ... : ... .. . ... ...
ROW C7 : ... .. . ... ... ... : ... .. . ... ... ... : A-1 00 . P7A : ... .. 5 ... : ... .. . ... ...
ROW C8 : ... .. C ... ... ... : ... .. C ... ... ... : G-1 00 . P86 : ... .. 3 ... : ... .. . ... ...
ROW C9 : ... .. . ... ... ... : ... .. . ... ... ... : F-1 00 . PA2 : ... .. 1 ... : ... .. . ... ...
ROW CA : ... .. . ... ... ... : ... .. . ... ... ... : --- .. . ... : ... .. 0 ... : ... .. . ... ...
ROW CB : ... .. B ... ... ... : ... .. B ... ... ... : ... .. . ... : ... .. . ... : ... .. . ... ...
ROW CC : ... .. . ... ... ... : ... .. . ... ... ... : ... .. . ... : D-# 00 F ... : ... .. . ... ...
ROW CD : ... .. . ... ... ... : ... .. . ... ... ... : C-3 00 . P80 : ... .. . ... : ... .. . ... ...
ROW CE : ... .. A ... ... ... : ... .. A ... ... ... : ... .. . ... : ... .. . ... : ... .. . ... ...
ROW CF : ... .. . ... ... ... : ... .. . ... ... ... : ... .. . ... : ... .. C ... : ... .. . ... ...
ROW D0 : ... .. . ... ... ... : ... .. . ... ... ... : ... .. . ... : ... .. B ... : ... .. . ... ...
ROW D1 : ... .. 9 ... ... ... : ... .. 9 ... ... ... : ... .. . ... : ... .. 9 ... : ... .. . ... ...
ROW D2 : ... .. . ... ... ... : ... .. . ... ... ... : ... .. . ... : ... .. 6 ... : ... .. . ... ...
ROW D3 : ... .. . ... ... ... : ... .. . ... ... ... : ... .. . ... : ... .. 5 ... : ... .. . ... ...
ROW D4 : ... .. 8 ... ... ... : ... .. 8 ... ... ... : ... .. . ... : ... .. 3 ... : ... .. . ... ...
ROW D5 : ... .. . ... ... ... : ... .. . ... ... ... : ... .. . ... : ... .. 1 ... : ... .. . ... ...
ROW D6 : ... .. 7 ... ... ... : ... .. 7 ... ... ... : ... .. . ... : ... .. 0 ... : ... .. . ... ...
ROW D7 : ... .. . ... ... ... : ... .. . ... ... ... : ... .. . ... : ... .. . ... : ... .. . ... ...
ROW D8 : ... .. 0 ... V00 ... : ... .. 0 ... V00 ... : A#3 00 . P81 : 4-# 00 F ... : ... .. . ... ...
ROW D9 : C-3 00 F P80 V01 ... : E-3 00 F P80 V01 ... : D#3 00 . P89 : ... .. . ... : ... .. . ... ...
ROW DA : ... .. E ... ... ... : ... .. E ... ... ... : B-2 00 . P76 : ... .. . ... : ... .. . ... ...
ROW DB : ... .. . ... ... ... : ... .. . ... ... ... : G-2 00 . P7C : ... .. C ... : ... .. . ... ...
ROW DC : ... .. . ... ... ... : ... .. . ... ... ... : E-2 00 . P78 : ... .. B ... : ... .. . ... ...
ROW DD : ... .. D ... ... ... : ... .. D ... ... ... : C#2 00 . P88 : ... .. 9 ... : ... .. . ... ...
ROW DE : ... .. . ... ... ... : ... .. . ... ... ... : B-1 00 . P7B : ... .. 6 ... : ... .. . ... ...
ROW DF : ... .. . ... ... ... : ... .. . ... ... ... : A-1 00 . P7A : ... .. 5 ... : ... .. . ... ...
ROW E0 : ... .. C ... ... ... : ... .. C ... ... ... : G-1 00 . P86 : ... .. 3 ... : ... .. . ... ...
ROW E1 : ... .. . ... ... ... : ... .. . ... ... ... : F-1 00 . PA2 : ... .. 1 ... : ... .. . ... ...
ROW E2 : ... .. . ... ... ... : ... .. . ... ... ... : --- .. . ... : ... .. 0 ... : ... .. . ... ...
ROW E3 : ... .. B ... ... ... : ... .. B ... ... ... : ... .. . ... : ... .. . ... : ... .. . ... ...
ROW E4 : ... .. 0 ... V00 ... : ... .. 0 ... V00 ... : ... .. . ... : D-# 00 F ... : ... .. . ... ...
ROW E5 : E-3 00 F P80 V01 ... : G-3 00 F P80 V01 ... : C-3 00 . P80 : ... .. . ... : ... .. . ... ...
ROW E6 : ... .. E ... ... ... : ... .. E ... ... ... : ... .. . ... : ... .. . ... : ... .. . ... ...
ROW E7 : ... .. . ... ... ... : ... .. . ... ... ... : ... .. . ... : ... .. C ... : ... .. . ... ...
ROW E8 : ... .. . ... ... ... : ... .. . ... ... ... : ... .. . ... : ... .. B ... : ... .. . ... ...
ROW E9 : ... .. D ... ... ... : ... .. D ... ... ... : ... .. . ... : ... .. 9 ... : ... .. . ... ...
ROW EA : ... .. 0 ... V00 ... : ... .. 0 ... V00 ... : ... .. . ... : ... .. 6 ... : ... .. . ... ...
ROW EB : E-3 00 F P80 V01 ... : G-3 00 F P80 V01 ... : ... .. . ... : ... .. 5 ... : ... .. . ... ...
ROW EC : ... .. E ... ... ... : ... .. E ... ... ... : ... .. . ... : ... .. 3 ... : ... .. . ... ...
ROW ED : ... .. . ... ... ... : ... .. . ... ... ... : ... .. . ... : ... .. 1 ... : ... .. . ... ...
ROW EE : ... .. . ... ... ... : ... .. . ... ... ... : ... .. . ... : ... .. 0 ... : ... .. . ... ...
ROW EF : ... .. D ... ... ... : ... .. D ... ... ... : ... .. . ... : ... .. . ... : ... .. . ... ...
ROW F0 : ... .. 0 ... V00 ... : ... .. 0 ... V00 ... : A#3 00 . P81 : 1-# 00 F ... : ... .. . ... ...
ROW F1 : E-3 00 F P80 V01 ... : G-3 00 F P80 V01 ... : D#3 00 . P89 : ... .. . ... : ... .. . ... ...
ROW F2 : ... .. E ... ... ... : ... .. E ... ... ... : B-2 00 . P76 : ... .. . ... : ... .. . ... ...
ROW F3 : ... .. . ... ... ... : ... .. . ... ... ... : G-2 00 . P7C : ... .. C ... : ... .. . ... ...
ROW F4 : ... .. . ... ... ... : ... .. . ... ... ... : E-2 00 . P78 : ... .. B ... : ... .. . ... ...
ROW F5 : ... .. D ... ... ... : ... .. D ... ... ... : C#2 00 . P88 : ... .. 9 ... : ... .. . ... ...
ROW F6 : ... .. . ... ... ... : ... .. . ... ... ... : B-1 00 . P7B : ... .. 6 ... : ... .. . ... ...
ROW F7 : ... .. . ... ... ... : ... .. . ... ... ... : A-1 00 . P7A : ... .. 5 ... : ... .. . ... ...
ROW F8 : ... .. C ... ... ... : ... .. C ... ... ... : G-1 00 . P86 : ... .. 3 ... : ... .. . ... ...
ROW F9 : ... .. . ... ... ... : ... .. . ... ... ... : F-1 00 . PA2 : ... .. 1 ... : ... .. . ... ...
ROW FA : ... .. . ... ... ... : ... .. . ... ... ... : --- .. . ... : ... .. 0 ... : ... .. . ... ...
ROW FB : ... .. B ... ... ... : ... .. B ... ... ... : ... .. . ... : ... .. . ... : ... .. . ... ...
ROW FC : ... .. 0 ... V00 ... : ... .. 0 ... V00 ... : ... .. . ... : D-# 00 F ... : ... .. . ... ...
ROW FD : C-3 00 F P80 V01 ... : E-3 00 F P80 V01 ... : C-3 00 . P80 : ... .. . ... : ... .. . ... ...
ROW FE : ... .. E ... ... ... : ... .. E ... ... ... : ... .. . ... : ... .. . ... : ... .. . ... ...
ROW FF : ... .. . ... ... ... : ... .. . ... ... ... : ... .. . ... : ... .. C ... : ... .. . ... ...

PATTERN 1C
ROW 00 : ... .. . ... ... ... : ... .. . ... ... ... : ... .. . ... : ... .. B ... : ... .. . ... ...
ROW 01 : ... .. D ... ... ... : ... .. D ... ... ... : ... .. . ... : ... .. 9 ... : ... .. . ... ...
ROW 02 : ... .. . ... ... ... : ... .. . ... ... ... : ... .. . ... : ... .. 6 ... : ... .. . ... ...
ROW 03 : ... .. . ... ... ... : ... .. . ... ... ... : ... .. . ... : ... .. 5 ... : ... .. . ... ...
ROW 04 : ... .. C ... ... ... : ... .. C ... ... ... : ... .. . ... : ... .. 3 ... : ... .. . ... ...
ROW 05 : ... .. . ... ... ... : ... .. . ... ... ... : ... .. . ... : ... .. 1 ... : ... .. . ... ...
ROW 06 : ... .. . ... ... ... : ... .. . ... ... ... : ... .. . ... : ... .. 0 ... : ... .. . ... ...
ROW 07 : ... .. B ... ... ... : ... .. B ... ... ... : ... .. . ... : ... .. . ... : ... .. . ... ...
ROW 08 : ... .. 0 ... V00 ... : ... .. 0 ... V00 ... : A#3 00 . P81 : 4-# 00 F ... : ... .. . ... ...
ROW 09 : ... .. . ... ... ... : ... .. . ... ... ... : D#3 00 . P89 : ... .. . ... : ... .. . ... ...
ROW 0A : ... .. . ... ... ... : ... .. . ... ... ... : B-2 00 . P76 : ... .. . ... : ... .. . ... ...
ROW 0B : ... .. . ... ... ... : ... .. . ... ... ... : G-2 00 . P7C : ... .. C ... : ... .. . ... ...
ROW 0C : ... .. . ... ... ... : ... .. . ... ... ... : E-2 00 . P78 : ... .. B ... : ... .. . ... ...
ROW 0D : ... .. . ... ... ... : ... .. . ... ... ... : C#2 00 . P88 : ... .. 9 ... : ... .. . ... ...
ROW 0E : ... .. . ... ... ... : ... .. . ... ... ... : B-1 00 . P7B : ... .. 6 ... : ... .. . ... ...
ROW 0F : ... .. . ... ... ... : ... .. . ... ... ... : A-1 00 . P7A : ... .. 5 ... : ... .. . ... ...
ROW 10 : ... .. . ... ... ... : ... .. . ... ... ... : G-1 00 . P86 : ... .. 3 ... : ... .. . ... ...
ROW 11 : ... .. . ... ... ... : ... .. . ... ... ... : F-1 00 . PA2 : ... .. 1 ... : ... .. . ... ...
ROW 12 : ... .. . ... ... ... : ... .. . ... ... ... : --- .. . ... : ... .. 0 ... : ... .. . ... ...
ROW 13 : ... .. . ... ... ... : ... .. . ... ... ... : ... .. . ... : ... .. . ... : ... .. . ... ...
ROW 14 : ... .. . ... ... ... : ... .. . ... ... ... : ... .. . ... : D-# 00 F ... : ... .. . ... ...
ROW 15 : E-3 00 F P80 V01 ... : G-3 00 F P80 V01 ... : C-3 00 . P80 : ... .. . ... : ... .. . ... ...
ROW 16 : ... .. E ... ... ... : ... .. E ... ... ... : ... .. . ... : ... .. . ... : ... .. . ... ...
ROW 17 : ... .. . ... ... ... : ... .. . ... ... ... : ... .. . ... : ... .. C ... : ... .. . ... ...
ROW 18 : ... .. . ... ... ... : ... .. . ... ... ... : ... .. . ... : ... .. B ... : ... .. . ... ...
ROW 19 : ... .. D ... ... ... : ... .. D ... ... ... : ... .. . ... : ... .. 9 ... : ... .. . ... ...
ROW 1A : ... .. 0 ... V00 ... : ... .. 0 ... V00 ... : ... .. . ... : ... .. 6 ... : ... .. . ... ...
ROW 1B : E-3 00 F P80 V01 ... : G-3 00 F P80 V01 ... : ... .. . ... : ... .. 5 ... : ... .. . ... ...
ROW 1C : ... .. E ... ... ... : ... .. E ... ... ... : ... .. . ... : ... .. 3 ... : ... .. . ... ...
ROW 1D : ... .. . ... ... ... : ... .. . ... ... ... : ... .. . ... : ... .. 1 ... : ... .. . ... ...
ROW 1E : ... .. . ... ... ... : ... .. . ... ... ... : ... .. . ... : ... .. 0 ... : ... .. . ... ...
ROW 1F : ... .. . ... ... ... : ... .. . ... ... ... : ... .. . ... : ... .. . ... : ... .. . ... ...
ROW 20 : ... .. . ... ... ... : ... .. . ... ... ... : ... .. . ... : ... .. . ... : ... .. . ... ...
ROW 21 : ... .. . ... ... ... : ... .. . ... ... ... : ... .. . ... : ... .. . ... : ... .. . ... ...
ROW 22 : ... .. . ... ... ... : ... .. . ... ... ... : ... .. . ... : ... .. . ... : ... .. . ... ...
ROW 23 : ... .. . ... ... ... : ... .. . ... ... ... : ... .. . ... : ... .. . ... : ... .. . ... ...
ROW 24 : ... .. . ... ... ... : ... .. . ... ... ... : ... .. . ... : ... .. . ... : ... .. . ... ...
ROW 25 : ... .. . ... ... ... : ... .. . ... ... ... : ... .. . ... : ... .. . ... : ... .. . ... ...
ROW 26 : ... .. . ... ... ... : ... .. . ... ... ... : ... .. . ... : ... .. . ... : ... .. . ... ...
ROW 27 : ... .. . ... ... ... : ... .. . ... ... ... : ... .. . ... : ... .. . ... : ... .. . ... ...
ROW 28 : ... .. . ... ... ... : ... .. . ... ... ... : ... .. . ... : ... .. . ... : ... .. . ... ...
ROW 29 : ... .. . ... ... ... : ... .. . ... ... ... : ... .. . ... : ... .. . ... : ... .. . ... ...
ROW 2A : ... .. . ... ... ... : ... .. . ... ... ... : ... .. . ... : ... .. . ... : ... .. . ... ...
ROW 2B : ... .. . ... ... ... : ... .. . ... ... ... : ... .. . ... : ... .. . ... : ... .. . ... ...
ROW 2C : ... .. . ... ... ... : ... .. . ... ... ... : ... .. . ... : ... .. . ... : ... .. . ... ...
ROW 2D : ... .. . ... ... ... : ... .. . ... ... ... : ... .. . ... : ... .. . ... : ... .. . ... ...
ROW 2E : ... .. . ... ... ... : ... .. . ... ... ... : ... .. . ... : ... .. . ... : ... .. . ... ...
ROW 2F : ... .. . ... ... ... : ... .. . ... ... ... : ... .. . ... : ... .. . ... : ... .. . ... ...
ROW 30 : ... .. . ... ... ... : ... .. . ... ... ... : ... .. . ... : ... .. . ... : ... .. . ... ...
ROW 31 : ... .. . ... ... ... : ... .. . ... ... ... : ... .. . ... : ... .. . ... : ... .. . ... ...
ROW 32 : ... .. . ... ... ... : ... .. . ... ... ... : ... .. . ... : ... .. . ... : ... .. . ... ...
ROW 33 : ... .. . ... ... ... : ... .. . ... ... ... : ... .. . ... : ... .. . ... : ... .. . ... ...
ROW 34 : ... .. . ... ... ... : ... .. . ... ... ... : ... .. . ... : ... .. . ... : ... .. . ... ...
ROW 35 : ... .. . ... ... ... : ... .. . ... ... ... : ... .. . ... : ... .. . ... : ... .. . ... ...
ROW 36 : ... .. . ... ... ... : ... .. . ... ... ... : ... .. . ... : ... .. . ... : ... .. . ... ...
ROW 37 : ... .. . ... ... ... : ... .. . ... ... ... : ... .. . ... : ... .. . ... : ... .. . ... ...
ROW 38 : ... .. . ... ... ... : ... .. . ... ... ... : ... .. . ... : ... .. . ... : ... .. . ... ...
ROW 39 : ... .. . ... ... ... : ... .. . ... ... ... : ... .. . ... : ... .. . ... : ... .. . ... ...
ROW 3A : ... .. . ... ... ... : ... .. . ... ... ... : ... .. . ... : ... .. . ... : ... .. . ... ...
ROW 3B : ... .. . ... ... ... : ... .. . ... ... ... : ... .. . ... : ... .. . ... : ... .. . ... ...
ROW 3C : ... .. . ... ... ... : ... .. . ... ... ... : ... .. . ... : ... .. . ... : ... .. . ... ...
ROW 3D : ... .. . ... ... ... : ... .. . ... ... ... : ... .. . ... : ... .. . ... : ... .. . ... ...
ROW 3E : ... .. . ... ... ... : ... .. . ... ... ... : ... .. . ... : ... .. . ... : ... .. . ... ...
ROW 3F : ... .. . ... ... ... : ... .. . ... ... ... : ... .. . ... : ... .. . ... : ... .. . ... ...
ROW 40 : ... .. . ... ... ... : ... .. . ... ... ... : ... .. . ... : ... .. . ... : ... .. . ... ...
ROW 41 : ... .. . ... ... ... : ... .. . ... ... ... : ... .. . ... : ... .. . ... : ... .. . ... ...
ROW 42 : ... .. . ... ... ... : ... .. . ... ... ... : ... .. . ... : ... .. . ... : ... .. . ... ...
ROW 43 : ... .. . ... ... ... : ... .. . ... ... ... : ... .. . ... : ... .. . ... : ... .. . ... ...
ROW 44 : ... .. . ... ... ... : ... .. . ... ... ... : ... .. . ... : ... .. . ... : ... .. . ... ...
ROW 45 : ... .. . ... ... ... : ... .. . ... ... ... : ... .. . ... : ... .. . ... : ... .. . ... ...
ROW 46 : ... .. . ... ... ... : ... .. . ... ... ... : ... .. . ... : ... .. . ... : ... .. . ... ...
ROW 47 : ... .. . ... ... ... : ... .. . ... ... ... : ... .. . ... : ... .. . ... : ... .. . ... ...
ROW 48 : ... .. . ... ... ... : ... .. . ... ... ... : ... .. . ... : ... .. . ... : ... .. . ... ...
ROW 49 : ... .. . ... ... ... : ... .. . ... ... ... : ... .. . ... : ... .. . ... : ... .. . ... ...
ROW 4A : ... .. . ... ... ... : ... .. . ... ... ... : ... .. . ... : ... .. . ... : ... .. . ... ...
ROW 4B : ... .. . ... ... ... : ... .. . ... ... ... : ... .. . ... : ... .. . ... : ... .. . ... ...
ROW 4C : ... .. . ... ... ... : ... .. . ... ... ... : ... .. . ... : ... .. . ... : ... .. . ... ...
ROW 4D : ... .. . ... ... ... : ... .. . ... ... ... : ... .. . ... : ... .. . ... : ... .. . ... ...
ROW 4E : ... .. . ... ... ... : ... .. . ... ... ... : ... .. . ... : ... .. . ... : ... .. . ... ...
ROW 4F : ... .. . ... ... ... : ... .. . ... ... ... : ... .. . ... : ... .. . ... : ... .. . ... ...
ROW 50 : ... .. . ... ... ... : ... .. . ... ... ... : ... .. . ... : ... .. . ... : ... .. . ... ...
ROW 51 : ... .. . ... ... ... : ... .. . ... ... ... : ... .. . ... : ... .. . ... : ... .. . ... ...
ROW 52 : ... .. . ... ... ... : ... .. . ... ... ... : ... .. . ... : ... .. . ... : ... .. . ... ...
ROW 53 : ... .. . ... ... ... : ... .. . ... ... ... : ... .. . ... : ... .. . ... : ... .. . ... ...
ROW 54 : ... .. . ... ... ... : ... .. . ... ... ... : ... .. . ... : ... .. . ... : ... .. . ... ...
ROW 55 : ... .. . ... ... ... : ... .. . ... ... ... : ... .. . ... : ... .. . ... : ... .. . ... ...
ROW 56 : ... .. . ... ... ... : ... .. . ... ... ... : ... .. . ... : ... .. . ... : ... .. . ... ...
ROW 57 : ... .. . ... ... ... : ... .. . ... ... ... : ... .. . ... : ... .. . ... : ... .. . ... ...
ROW 58 : ... .. . ... ... ... : ... .. . ... ... ... : ... .. . ... : ... .. . ... : ... .. . ... ...
ROW 59 : ... .. . ... ... ... : ... .. . ... ... ... : ... .. . ... : ... .. . ... : ... .. . ... ...
ROW 5A : ... .. . ... ... ... : ... .. . ... ... ... : ... .. . ... : ... .. . ... : ... .. . ... ...
ROW 5B : ... .. . ... ... ... : ... .. . ... ... ... : ... .. . ... : ... .. . ... : ... .. . ... ...
ROW 5C : ... .. . ... ... ... : ... .. . ... ... ... : ... .. . ... : ... .. . ... : ... .. . ... ...
ROW 5D : ... .. . ... ... ... : ... .. . ... ... ... : ... .. . ... : ... .. . ... : ... .. . ... ...
ROW 5E : ... .. . ... ... ... : ... .. . ... ... ... : ... .. . ... : ... .. . ... : ... .. . ... ...
ROW 5F : ... .. . ... ... ... : ... .. . ... ... ... : ... .. . ... : ... .. . ... : ... .. . ... ...
ROW 60 : ... .. . ... ... ... : ... .. . ... ... ... : ... .. . ... : ... .. . ... : ... .. . ... ...
ROW 61 : ... .. . ... ... ... : ... .. . ... ... ... : ... .. . ... : ... .. . ... : ... .. . ... ...
ROW 62 : ... .. . ... ... ... : ... .. . ... ... ... : ... .. . ... : ... .. . ... : ... .. . ... ...
ROW 63 : ... .. . ... ... ... : ... .. . ... ... ... : ... .. . ... : ... .. . ... : ... .. . ... ...
ROW 64 : ... .. . ... ... ... : ... .. . ... ... ... : ... .. . ... : ... .. . ... : ... .. . ... ...
ROW 65 : ... .. . ... ... ... : ... .. . ... ... ... : ... .. . ... : ... .. . ... : ... .. . ... ...
ROW 66 : ... .. . ... ... ... : ... .. . ... ... ... : ... .. . ... : ... .. . ... : ... .. . ... ...
ROW 67 : ... .. . ... ... ... : ... .. . ... ... ... : ... .. . ... : ... .. . ... : ... .. . ... ...
ROW 68 : ... .. . ... ... ... : ... .. . ... ... ... : ... .. . ... : ... .. . ... : ... .. . ... ...
ROW 69 : ... .. . ... ... ... : ... .. . ... ... ... : ... .. . ... : ... .. . ... : ... .. . ... ...
ROW 6A : ... .. . ... ... ... : ... .. . ... ... ... : ... .. . ... : ... .. . ... : ... .. . ... ...
ROW 6B : ... .. . ... ... ... : ... .. . ... ... ... : ... .. . ... : ... .. . ... : ... .. . ... ...
ROW 6C : ... .. . ... ... ... : ... .. . ... ... ... : ... .. . ... : ... .. . ... : ... .. . ... ...
ROW 6D : ... .. . ... ... ... : ... .. . ... ... ... : ... .. . ... : ... .. . ... : ... .. . ... ...
ROW 6E : ... .. . ... ... ... : ... .. . ... ... ... : ... .. . ... : ... .. . ... : ... .. . ... ...
ROW 6F : ... .. . ... ... ... : ... .. . ... ... ... : ... .. . ... : ... .. . ... : ... .. . ... ...
ROW 70 : ... .. . ... ... ... : ... .. . ... ... ... : ... .. . ... : ... .. . ... : ... .. . ... ...
ROW 71 : ... .. . ... ... ... : ... .. . ... ... ... : ... .. . ... : ... .. . ... : ... .. . ... ...
ROW 72 : ... .. . ... ... ... : ... .. . ... ... ... : ... .. . ... : ... .. . ... : ... .. . ... ...
ROW 73 : ... .. . ... ... ... : ... .. . ... ... ... : ... .. . ... : ... .. . ... : ... .. . ... ...
ROW 74 : ... .. . ... ... ... : ... .. . ... ... ... : ... .. . ... : ... .. . ... : ... .. . ... ...
ROW 75 : ... .. . ... ... ... : ... .. . ... ... ... : ... .. . ... : ... .. . ... : ... .. . ... ...
ROW 76 : ... .. . ... ... ... : ... .. . ... ... ... : ... .. . ... : ... .. . ... : ... .. . ... ...
ROW 77 : ... .. . ... ... ... : ... .. . ... ... ... : ... .. . ... : ... .. . ... : ... .. . ... ...
ROW 78 : ... .. . ... ... ... : ... .. . ... ... ... : ... .. . ... : ... .. . ... : ... .. . ... ...
ROW 79 : ... .. . ... ... ... : ... .. . ... ... ... : ... .. . ... : ... .. . ... : ... .. . ... ...
ROW 7A : ... .. . ... ... ... : ... .. . ... ... ... : ... .. . ... : ... .. . ... : ... .. . ... ...
ROW 7B : ... .. . ... ... ... : ... .. . ... ... ... : ... .. . ... : ... .. . ... : ... .. . ... ...
ROW 7C : ... .. . ... ... ... : ... .. . ... ... ... : ... .. . ... : ... .. . ... : ... .. . ... ...
ROW 7D : ... .. . ... ... ... : ... .. . ... ... ... : ... .. . ... : ... .. . ... : ... .. . ... ...
ROW 7E : ... .. . ... ... ... : ... .. . ... ... ... : ... .. . ... : ... .. . ... : ... .. . ... ...
ROW 7F : ... .. . ... ... ... : ... .. . ... ... ... : ... .. . ... : ... .. . ... : ... .. . ... ...
ROW 80 : ... .. . ... ... ... : ... .. . ... ... ... : ... .. . ... : ... .. . ... : ... .. . ... ...
ROW 81 : ... .. . ... ... ... : ... .. . ... ... ... : ... .. . ... : ... .. . ... : ... .. . ... ...
ROW 82 : ... .. . ... ... ... : ... .. . ... ... ... : ... .. . ... : ... .. . ... : ... .. . ... ...
ROW 83 : ... .. . ... ... ... : ... .. . ... ... ... : ... .. . ... : ... .. . ... : ... .. . ... ...
ROW 84 : ... .. . ... ... ... : ... .. . ... ... ... : ... .. . ... : ... .. . ... : ... .. . ... ...
ROW 85 : ... .. . ... ... ... : ... .. . ... ... ... : ... .. . ... : ... .. . ... : ... .. . ... ...
ROW 86 : ... .. . ... ... ... : ... .. . ... ... ... : ... .. . ... : ... .. . ... : ... .. . ... ...
ROW 87 : ... .. . ... ... ... : ... .. . ... ... ... : ... .. . ... : ... .. . ... : ... .. . ... ...
ROW 88 : ... .. . ... ... ... : ... .. . ... ... ... : ... .. . ... : ... .. . ... : ... .. . ... ...
ROW 89 : ... .. . ... ... ... : ... .. . ... ... ... : ... .. . ... : ... .. . ... : ... .. . ... ...
ROW 8A : ... .. . ... ... ... : ... .. . ... ... ... : ... .. . ... : ... .. . ... : ... .. . ... ...
ROW 8B : ... .. . ... ... ... : ... .. . ... ... ... : ... .. . ... : ... .. . ... : ... .. . ... ...
ROW 8C : ... .. . ... ... ... : ... .. . ... ... ... : ... .. . ... : ... .. . ... : ... .. . ... ...
ROW 8D : ... .. . ... ... ... : ... .. . ... ... ... : ... .. . ... : ... .. . ... : ... .. . ... ...
ROW 8E : ... .. . ... ... ... : ... .. . ... ... ... : ... .. . ... : ... .. . ... : ... .. . ... ...
ROW 8F : ... .. . ... ... ... : ... .. . ... ... ... : ... .. . ... : ... .. . ... : ... .. . ... ...
ROW 90 : ... .. . ... ... ... : ... .. . ... ... ... : ... .. . ... : ... .. . ... : ... .. . ... ...
ROW 91 : ... .. . ... ... ... : ... .. . ... ... ... : ... .. . ... : ... .. . ... : ... .. . ... ...
ROW 92 : ... .. . ... ... ... : ... .. . ... ... ... : ... .. . ... : ... .. . ... : ... .. . ... ...
ROW 93 : ... .. . ... ... ... : ... .. . ... ... ... : ... .. . ... : ... .. . ... : ... .. . ... ...
ROW 94 : ... .. . ... ... ... : ... .. . ... ... ... : ... .. . ... : ... .. . ... : ... .. . ... ...
ROW 95 : ... .. . ... ... ... : ... .. . ... ... ... : ... .. . ... : ... .. . ... : ... .. . ... ...
ROW 96 : ... .. . ... ... ... : ... .. . ... ... ... : ... .. . ... : ... .. . ... : ... .. . ... ...
ROW 97 : ... .. . ... ... ... : ... .. . ... ... ... : ... .. . ... : ... .. . ... : ... .. . ... ...
ROW 98 : ... .. . ... ... ... : ... .. . ... ... ... : ... .. . ... : ... .. . ... : ... .. . ... ...
ROW 99 : ... .. . ... ... ... : ... .. . ... ... ... : ... .. . ... : ... .. . ... : ... .. . ... ...
ROW 9A : ... .. . ... ... ... : ... .. . ... ... ... : ... .. . ... : ... .. . ... : ... .. . ... ...
ROW 9B : ... .. . ... ... ... : ... .. . ... ... ... : ... .. . ... : ... .. . ... : ... .. . ... ...
ROW 9C : ... .. . ... ... ... : ... .. . ... ... ... : ... .. . ... : ... .. . ... : ... .. . ... ...
ROW 9D : ... .. . ... ... ... : ... .. . ... ... ... : ... .. . ... : ... .. . ... : ... .. . ... ...
ROW 9E : ... .. . ... ... ... : ... .. . ... ... ... : ... .. . ... : ... .. . ... : ... .. . ... ...
ROW 9F : ... .. . ... ... ... : ... .. . ... ... ... : ... .. . ... : ... .. . ... : ... .. . ... ...
ROW A0 : ... .. . ... ... ... : ... .. . ... ... ... : ... .. . ... : ... .. . ... : ... .. . ... ...
ROW A1 : ... .. . ... ... ... : ... .. . ... ... ... : ... .. . ... : ... .. . ... : ... .. . ... ...
ROW A2 : ... .. . ... ... ... : ... .. . ... ... ... : ... .. . ... : ... .. . ... : ... .. . ... ...
ROW A3 : ... .. . ... ... ... : ... .. . ... ... ... : ... .. . ... : ... .. . ... : ... .. . ... ...
ROW A4 : ... .. . ... ... ... : ... .. . ... ... ... : ... .. . ... : ... .. . ... : ... .. . ... ...
ROW A5 : ... .. . ... ... ... : ... .. . ... ... ... : ... .. . ... : ... .. . ... : ... .. . ... ...
ROW A6 : ... .. . ... ... ... : ... .. . ... ... ... : ... .. . ... : ... .. . ... : ... .. . ... ...
ROW A7 : ... .. . ... ... ... : ... .. . ... ... ... : ... .. . ... : ... .. . ... : ... .. . ... ...
ROW A8 : ... .. . ... ... ... : ... .. . ... ... ... : ... .. . ... : ... .. . ... : ... .. . ... ...
ROW A9 : ... .. . ... ... ... : ... .. . ... ... ... : ... .. . ... : ... .. . ... : ... .. . ... ...
ROW AA : ... .. . ... ... ... : ... .. . ... ... ... : ... .. . ... : ... .. . ... : ... .. . ... ...
ROW AB : ... .. . ... ... ... : ... .. . ... ... ... : ... .. . ... : ... .. . ... : ... .. . ... ...
ROW AC : ... .. . ... ... ... : ... .. . ... ... ... : ... .. . ... : ... .. . ... : ... .. . ... ...
ROW AD : ... .. . ... ... ... : ... .. . ... ... ... : ... .. . ... : ... .. . ... : ... .. . ... ...
ROW AE : ... .. . ... ... ... : ... .. . ... ... ... : ... .. . ... : ... .. . ... : ... .. . ... ...
ROW AF : ... .. . ... ... ... : ... .. . ... ... ... : ... .. . ... : ... .. . ... : ... .. . ... ...
ROW B0 : ... .. . ... ... ... : ... .. . ... ... ... : ... .. . ... : ... .. . ... : ... .. . ... ...
ROW B1 : ... .. . ... ... ... : ... .. . ... ... ... : ... .. . ... : ... .. . ... : ... .. . ... ...
ROW B2 : ... .. . ... ... ... : ... .. . ... ... ... : ... .. . ... : ... .. . ... : ... .. . ... ...
ROW B3 : ... .. . ... ... ... : ... .. . ... ... ... : ... .. . ... : ... .. . ... : ... .. . ... ...
ROW B4 : ... .. . ... ... ... : ... .. . ... ... ... : ... .. . ... : ... .. . ... : ... .. . ... ...
ROW B5 : ... .. . ... ... ... : ... .. . ... ... ... : ... .. . ... : ... .. . ... : ... .. . ... ...
ROW B6 : ... .. . ... ... ... : ... .. . ... ... ... : ... .. . ... : ... .. . ... : ... .. . ... ...
ROW B7 : ... .. . ... ... ... : ... .. . ... ... ... : ... .. . ... : ... .. . ... : ... .. . ... ...
ROW B8 : ... .. . ... ... ... : ... .. . ... ... ... : ... .. . ... : ... .. . ... : ... .. . ... ...
ROW B9 : ... .. . ... ... ... : ... .. . ... ... ... : ... .. . ... : ... .. . ... : ... .. . ... ...
ROW BA : ... .. . ... ... ... : ... .. . ... ... ... : ... .. . ... : ... .. . ... : ... .. . ... ...
ROW BB : ... .. . ... ... ... : ... .. . ... ... ... : ... .. . ... : ... .. . ... : ... .. . ... ...
ROW BC : ... .. . ... ... ... : ... .. . ... ... ... : ... .. . ... : ... .. . ... : ... .. . ... ...
ROW BD : ... .. . ... ... ... : ... .. . ... ... ... : ... .. . ... : ... .. . ... : ... .. . ... ...
ROW BE : ... .. . ... ... ... : ... .. . ... ... ... : ... .. . ... : ... .. . ... : ... .. . ... ...
ROW BF : ... .. . ... ... ... : ... .. . ... ... ... : ... .. . ... : ... .. . ... : ... .. . ... ...
ROW C0 : ... .. . ... ... ... : ... .. . ... ... ... : ... .. . ... : ... .. . ... : ... .. . ... ...
ROW C1 : ... .. . ... ... ... : ... .. . ... ... ... : ... .. . ... : ... .. . ... : ... .. . ... ...
ROW C2 : ... .. . ... ... ... : ... .. . ... ... ... : ... .. . ... : ... .. . ... : ... .. . ... ...
ROW C3 : ... .. . ... ... ... : ... .. . ... ... ... : ... .. . ... : ... .. . ... : ... .. . ... ...
ROW C4 : ... .. . ... ... ... : ... .. . ... ... ... : ... .. . ... : ... .. . ... : ... .. . ... ...
ROW C5 : ... .. . ... ... ... : ... .. . ... ... ... : ... .. . ... : ... .. . ... : ... .. . ... ...
ROW C6 : ... .. . ... ... ... : ... .. . ... ... ... : ... .. . ... : ... .. . ... : ... .. . ... ...
ROW C7 : ... .. . ... ... ... : ... .. . ... ... ... : ... .. . ... : ... .. . ... : ... .. . ... ...
ROW C8 : ... .. . ... ... ... : ... .. . ... ... ... : ... .. . ... : ... .. . ... : ... .. . ... ...
ROW C9 : ... .. . ... ... ... : ... .. . ... ... ... : ... .. . ... : ... .. . ... : ... .. . ... ...
ROW CA : ... .. . ... ... ... : ... .. . ... ... ... : ... .. . ... : ... .. . ... : ... .. . ... ...
ROW CB : ... .. . ... ... ... : ... .. . ... ... ... : ... .. . ... : ... .. . ... : ... .. . ... ...
ROW CC : ... .. . ... ... ... : ... .. . ... ... ... : ... .. . ... : ... .. . ... : ... .. . ... ...
ROW CD : ... .. . ... ... ... : ... .. . ... ... ... : ... .. . ... : ... .. . ... : ... .. . ... ...
ROW CE : ... .. . ... ... ... : ... .. . ... ... ... : ... .. . ... : ... .. . ... : ... .. . ... ...
ROW CF : ... .. . ... ... ... : ... .. . ... ... ... : ... .. . ... : ... .. . ... : ... .. . ... ...
ROW D0 : ... .. . ... ... ... : ... .. . ... ... ... : ... .. . ... : ... .. . ... : ... .. . ... ...
ROW D1 : ... .. . ... ... ... : ... .. . ... ... ... : ... .. . ... : ... .. . ... : ... .. . ... ...
ROW D2 : ... .. . ... ... ... : ... .. . ... ... ... : ... .. . ... : ... .. . ... : ... .. . ... ...
ROW D3 : ... .. . ... ... ... : ... .. . ... ... ... : ... .. . ... : ... .. . ... : ... .. . ... ...
ROW D4 : ... .. . ... ... ... : ... .. . ... ... ... : ... .. . ... : ... .. . ... : ... .. . ... ...
ROW D5 : ... .. . ... ... ... : ... .. . ... ... ... : ... .. . ... : ... .. . ... : ... .. . ... ...
ROW D6 : ... .. . ... ... ... : ... .. . ... ... ... : ... .. . ... : ... .. . ... : ... .. . ... ...
ROW D7 : ... .. . ... ... ... : ... .. . ... ... ... : ... .. . ... : ... .. . ... : ... .. . ... ...
ROW D8 : ... .. . ... ... ... : ... .. . ... ... ... : ... .. . ... : ... .. . ... : ... .. . ... ...
ROW D9 : ... .. . ... ... ... : ... .. . ... ... ... : ... .. . ... : ... .. . ... : ... .. . ... ...
ROW DA : ... .. . ... ... ... : ... .. . ... ... ... : ... .. . ... : ... .. . ... : ... .. . ... ...
ROW DB : ... .. . ... ... ... : ... .. . ... ... ... : ... .. . ... : ... .. . ... : ... .. . ... ...
ROW DC : ... .. . ... ... ... : ... .. . ... ... ... : ... .. . ... : ... .. . ... : ... .. . ... ...
ROW DD : ... .. . ... ... ... : ... .. . ... ... ... : ... .. . ... : ... .. . ... : ... .. . ... ...
ROW DE : ... .. . ... ... ... : ... .. . ... ... ... : ... .. . ... : ... .. . ... : ... .. . ... ...
ROW DF : ... .. . ... ... ... : ... .. . ... ... ... : ... .. . ... : ... .. . ... : ... .. . ... ...
ROW E0 : ... .. . ... ... ... : ... .. . ... ... ... : ... .. . ... : ... .. . ... : ... .. . ... ...
ROW E1 : ... .. . ... ... ... : ... .. . ... ... ... : ... .. . ... : ... .. . ... : ... .. . ... ...
ROW E2 : ... .. . ... ... ... : ... .. . ... ... ... : ... .. . ... : ... .. . ... : ... .. . ... ...
ROW E3 : ... .. . ... ... ... : ... .. . ... ... ... : ... .. . ... : ... .. . ... : ... .. . ... ...
ROW E4 : ... .. . ... ... ... : ... .. . ... ... ... : ... .. . ... : ... .. . ... : ... .. . ... ...
ROW E5 : ... .. . ... ... ... : ... .. . ... ... ... : ... .. . ... : ... .. . ... : ... .. . ... ...
ROW E6 : ... .. . ... ... ... : ... .. . ... ... ... : ... .. . ... : ... .. . ... : ... .. . ... ...
ROW E7 : ... .. . ... ... ... : ... .. . ... ... ... : ... .. . ... : ... .. . ... : ... .. . ... ...
ROW E8 : ... .. . ... ... ... : ... .. . ... ... ... : ... .. . ... : ... .. . ... : ... .. . ... ...
ROW E9 : ... .. . ... ... ... : ... .. . ... ... ... : ... .. . ... : ... .. . ... : ... .. . ... ...
ROW EA : ... .. . ... ... ... : ... .. . ... ... ... : ... .. . ... : ... .. . ... : ... .. . ... ...
ROW EB : ... .. . ... ... ... : ... .. . ... ... ... : ... .. . ... : ... .. . ... : ... .. . ... ...
ROW EC : ... .. . ... ... ... : ... .. . ... ... ... : ... .. . ... : ... .. . ... : ... .. . ... ...
ROW ED : ... .. . ... ... ... : ... .. . ... ... ... : ... .. . ... : ... .. . ... : ... .. . ... ...
ROW EE : ... .. . ... ... ... : ... .. . ... ... ... : ... .. . ... : ... .. . ... : ... .. . ... ...
ROW EF : ... .. . ... ... ... : ... .. . ... ... ... : ... .. . ... : ... .. . ... : ... .. . ... ...
ROW F0 : ... .. . ... ... ... : ... .. . ... ... ... : ... .. . ... : ... .. . ... : ... .. . ... ...
ROW F1 : ... .. . ... ... ... : ... .. . ... ... ... : ... .. . ... : ... .. . ... : ... .. . ... ...
ROW F2 : ... .. . ... ... ... : ... .. . ... ... ... : ... .. . ... : ... .. . ... : ... .. . ... ...
ROW F3 : ... .. . ... ... ... : ... .. . ... ... ... : ... .. . ... : ... .. . ... : ... .. . ... ...
ROW F4 : ... .. . ... ... ... : ... .. . ... ... ... : ... .. . ... : ... .. . ... : ... .. . ... ...
ROW F5 : ... .. . ... ... ... : ... .. . ... ... ... : ... .. . ... : ... .. . ... : ... .. . ... ...
ROW F6 : ... .. . ... ... ... : ... .. . ... ... ... : ... .. . ... : ... .. . ... : ... .. . ... ...
ROW F7 : ... .. . ... ... ... : ... .. . ... ... ... : ... .. . ... : ... .. . ... : ... .. . ... ...
ROW F8 : ... .. . ... ... ... : ... .. . ... ... ... : ... .. . ... : ... .. . ... : ... .. . ... ...
ROW F9 : ... .. . ... ... ... : ... .. . ... ... ... : ... .. . ... : ... .. . ... : ... .. . ... ...
ROW FA : ... .. . ... ... ... : ... .. . ... ... ... : ... .. . ... : ... .. . ... : ... .. . ... ...
ROW FB : ... .. . ... ... ... : ... .. . ... ... ... : ... .. . ... : ... .. . ... : ... .. . ... ...
ROW FC : ... .. . ... ... ... : ... .. . ... ... ... : ... .. . ... : ... .. . ... : ... .. . ... ...
ROW FD : ... .. . ... ... ... : ... .. . ... ... ... : ... .. . ... : ... .. . ... : ... .. . ... ...
ROW FE : ... .. . ... ... ... : ... .. . ... ... ... : ... .. . ... : ... .. . ... : ... .. . ... ...
ROW FF : ... .. . ... ... ... : ... .. . ... ... ... : ... .. . ... : ... .. . ... : ... .. . ... ...

# End of export
