# FamiTracker text export 0.4.2

# Song information
TITLE           ""
AUTHOR          ""
COPYRIGHT       ""

# Song comment
COMMENT ""

# Global settings
MACHINE         0
FRAMERATE       0
EXPANSION       1
VIBRATO         1
SPLIT           32

# Macros
#	type, index, loop, release, setting : macro
#	type: 0=volume, 1=arpeggio, 2=pitch, 3=hi-pitch, 4=duty
MACRO       0   0  -1  -1   0 : 15 15 15 15 15 15 0
MACRO       0   1  -1  -1   0 : 15 13 12 11 10 9 9 8 7 6 6 5 4 4 4 3 3 2 1 1 1 0
MACRO       0   2  -1  -1   0 : 15 9 3 0
MACRO       0   3  -1  -1   0 : 13 9 4 1 0
MACRO       0   4  -1  -1   0 : 15 12 9 7 5 4 3 2 2 1 1 0
MACRO       0   5  -1  -1   0 : 15 9 6 3 0
MACRO       0   6  -1  -1   0 : 15 11 8 6 4 3 2 1 1 0
MACRO       0   7  -1  -1   0 : 15 10 5 2 1 0
MACRO       0   8  -1  -1   0 : 15 15 15 15 15 15 15
MACRO       1   0   0  -1   0 : 21 21 16 16 14 14 12 12 9 9 4 4 2 2 0 0
MACRO       1   1   0  -1   0 : 19 19 17 17 14 14 12 12 7 7 5 5 2 2 0 0 0
MACRO       1   2   0  -1   0 : 12 0
MACRO       1   3   0  -1   0 : 19 19 16 16 12 12 7 7 4 4 0 0
MACRO       1   4   0  -1   0 : 24 24 24 19 19 19 16 16 16 14 14 14 12 12 12 7 7 7 4 4 4 2 2 2 0 0 0 2 2 2 4 4 4 7 7 7 12 12 12 14 14 14 16 16 16 19 19 19
MACRO       1   5   0  -1   0 : 19 19 16 16 14 14 12 12 7 7 4 4 2 2 0 0
MACRO       2   0   0  -1   0 : 89
MACRO       2   1   0  -1   0 : 21
MACRO       4   0  -1  -1   0 : 1
MACRO       4   1  -1  -1   0 : 2
MACRO       4   2  -1  -1   0 : 2
MACRO       4   3  -1  -1   0 : 2
MACROVRC6   0   0  -1  -1   0 : 15 15 15 15 15 15 0
MACROVRC6   0   1  -1  -1   0 : 15 12 10 8 6 4 2 1 0

# DPCM samples

# Instruments
#	index, seq_vol, seq_arp, seq_pit, seq_hpi, seq_dut, name
INST2A03   0    -1  -1  -1  -1  -1 "New instrument"
INST2A03   1     0  -1  -1  -1  -1 " basse"
INST2A03   2    -1  -1  -1  -1  -1 "lead"
INST2A03   3    -1   3  -1  -1  -1 "Arp Maj "
INST2A03   4     1  -1  -1  -1  -1 "hat open"
INST2A03   5     2  -1  -1  -1  -1 "hh-close"
INST2A03   6     3  -1  -1  -1  -1 "noise k"
INST2A03   7     4  -1  -1  -1  -1 "noise snare"
INST2A03   8     5  -1   0  -1  -1 "t/kck"
INST2A03   9     6  -1   1  -1  -1 "t/sn"
INST2A03  10    -1   0  -1  -1  -1 "arp b3 4 5 1 sur 2 oct desc"
INST2A03  11     7  -1  -1  -1   1 "pluck acc"
INST2A03  12    -1   4  -1  -1  -1 "long arp maj #11"
INST2A03  13    -1   5  -1  -1  -1 "arp 1 2 3 5 2 oct desc"
INST2A03  14    -1   4  -1  -1  -1 "long arp 1 2 3 5"
INSTVRC6  15     0  -1  -1  -1  -1 "saw pluck"
INSTVRC6  16    -1  -1  -1  -1  -1 "pulse vrc"
INSTVRC6  17    -1  -1  -1  -1  -1 "saw long"
INSTVRC6  18     1  -1  -1  -1  -1 "pluck"

# Tracks

#	pattern, speed, tempo, name
TRACK  64   4 150 "New song"
#	number of effect per channel
COLUMNS : 3 3 3 2 1 4 4 4

#	frame : list
ORDER 00 : 08 08 08 08 01 00 00 00
ORDER 01 : 00 00 00 00 00 01 01 01
ORDER 02 : 01 01 01 01 00 02 02 02
ORDER 03 : 02 02 02 02 00 03 03 03
ORDER 04 : 03 03 03 03 00 04 04 04
ORDER 05 : 04 04 04 04 00 05 05 05
ORDER 06 : 05 05 05 05 00 06 06 06
ORDER 07 : 06 06 06 06 00 07 07 07
ORDER 08 : 07 07 07 07 00 08 08 08
ORDER 09 : 09 09 09 0A 00 09 09 09
ORDER 0A : 0A 0A 0A 09 00 0A 0A 0A
ORDER 0B : 0B 0B 0C 0C 00 0B 0B 0B
ORDER 0C : 0D 0E 0E 0D 00 0C 0C 0C
ORDER 0D : 0C 0C 0D 0E 00 0D 0D 0D
ORDER 0E : 0E 0F 0F 0F 00 0E 0E 0E
ORDER 0F : 10 10 10 10 00 0F 0F 0F
ORDER 10 : 11 11 11 11 00 10 10 10

#	pattern
PATTERN 00
#	row : c0 : c1 : c2 : ...
#		cX - nnn ii v eee [eee ...]
#			nnn - note
#			ii - instrument
#			v - volume
#			eee - effect
ROW 00 : A-3 02 F V01 100 ... : D-3 0D C A00 100 ... : F#3 08 . ... ... ... : E-# 00 F 422 A01 : ... .. . F03 : F#1 10 8 V03 ... ... ... : C#2 10 8 ... ... ... ... : E-1 10 8 P78 ... ... ...
ROW 01 : ... .. . ... ... ... : ... .. . ... ... ... : D-3 00 . ... ... ... : ... .. . ... ... : ... .. . F02 : ... .. . ... ... ... ... : ... .. . ... ... ... ... : ... .. . ... ... ... ...
ROW 02 : ... .. . ... ... ... : ... .. . ... ... ... : ... .. . ... ... ... : ... .. . ... ... : ... .. . F03 : ... .. . ... ... ... ... : ... .. . ... ... ... ... : ... .. . ... ... ... ...
ROW 03 : ... .. . ... ... ... : ... .. . ... ... ... : ... .. . ... ... ... : ... .. . ... ... : ... .. . F02 : ... .. . ... ... ... ... : ... .. . ... ... ... ... : ... .. . ... ... ... ...
ROW 04 : ... .. . 206 ... ... : ... .. A ... ... ... : ... .. . 208 ... ... : ... .. . ... ... : ... .. . F03 : B-1 10 . ... ... ... ... : F#2 10 . ... ... ... ... : A-1 10 . ... ... ... ...
ROW 05 : ... .. . ... ... ... : ... .. . ... ... ... : ... .. . ... ... ... : ... .. . ... ... : ... .. . F02 : ... .. . ... ... ... ... : ... .. . ... ... ... ... : ... .. . ... ... ... ...
ROW 06 : ... .. . ... ... ... : ... .. . ... ... ... : ... .. . ... ... ... : ... .. . ... ... : ... .. . F03 : ... .. 9 ... ... ... ... : ... .. 9 ... ... ... ... : ... .. 9 ... ... ... ...
ROW 07 : ... .. . ... ... ... : ... .. . ... ... ... : ... .. . 200 ... ... : ... .. . ... ... : ... .. . F02 : ... .. . ... ... ... ... : ... .. . ... ... ... ... : ... .. . ... ... ... ...
ROW 08 : A-3 02 4 200 ... ... : ... .. 8 ... ... ... : A#3 09 . ... ... ... : 6-# 07 . 400 A00 : ... .. . F03 : E-2 10 . ... ... ... ... : B-2 10 . ... ... ... ... : D-2 10 . ... ... ... ...
ROW 09 : ... .. . ... ... ... : ... .. . ... ... ... : D-3 01 . ... ... ... : ... .. . ... ... : ... .. . F02 : ... .. . ... ... ... ... : ... .. . ... ... ... ... : ... .. . ... ... ... ...
ROW 0A : ... .. . ... ... ... : ... .. . ... ... ... : ... .. . ... ... ... : ... .. . ... ... : ... .. . F03 : ... .. A ... ... ... ... : ... .. A ... ... ... ... : ... .. A ... ... ... ...
ROW 0B : ... .. . ... ... ... : ... .. . ... ... ... : ... .. . ... ... ... : ... .. . ... ... : ... .. . F02 : ... .. . ... ... ... ... : ... .. . ... ... ... ... : ... .. . ... ... ... ...
ROW 0C : D-3 02 F ... ... ... : ... .. 4 ... ... ... : ... .. . ... ... ... : E-# 05 . S03 ... : ... .. . F03 : G-1 10 . ... ... ... ... : D-2 10 . ... ... ... ... : F-1 10 . ... ... ... ...
ROW 0D : ... .. . ... ... ... : ... .. . ... ... ... : ... .. . ... ... ... : ... .. . ... ... : ... .. . F02 : ... .. . ... ... ... ... : ... .. . ... ... ... ... : ... .. . ... ... ... ...
ROW 0E : ... .. . ... ... ... : ... .. . ... ... ... : ... .. . ... ... ... : ... .. . ... ... : ... .. . F03 : ... .. B ... ... ... ... : ... .. B ... ... ... ... : ... .. B ... ... ... ...
ROW 0F : ... .. . S01 ... ... : ... .. . ... ... ... : ... .. . ... ... ... : ... .. . ... ... : ... .. . F02 : ... .. . ... ... ... ... : ... .. . ... ... ... ... : ... .. . ... ... ... ...
ROW 10 : C-3 02 . Q52 ... ... : A-4 0B 9 300 ... ... : F#3 08 . ... ... ... : E-# 05 . ... ... : ... .. . F03 : C-2 10 . ... ... ... ... : G-2 10 . ... ... ... ... : A#1 10 . ... ... ... ...
ROW 11 : ... .. . ... ... ... : ... .. . ... ... ... : A-2 01 . ... ... ... : ... .. . ... ... : ... .. . F02 : ... .. . ... ... ... ... : ... .. . ... ... ... ... : ... .. . ... ... ... ...
ROW 12 : ... .. . ... ... ... : A-4 0B 7 ... ... ... : ... .. . ... ... ... : ... .. . ... ... : ... .. . F03 : ... .. . ... ... ... ... : ... .. . ... ... ... ... : ... .. . ... ... ... ...
ROW 13 : ... .. . ... ... ... : ... .. . ... ... ... : ... .. . ... ... ... : ... .. . ... ... : ... .. . F02 : ... .. . ... ... ... ... : ... .. . ... ... ... ... : ... .. . ... ... ... ...
ROW 14 : ... .. . ... ... ... : G-4 0B 9 ... ... ... : D-3 08 . ... ... ... : E-# 05 . S03 ... : ... .. . F03 : F-2 10 C ... ... ... ... : C-3 10 C ... ... ... ... : D#2 10 C ... ... ... ...
ROW 15 : ... .. . ... ... ... : ... .. . ... ... ... : C-3 01 . ... ... ... : ... .. . ... ... : ... .. . F02 : ... .. . ... ... ... ... : ... .. . ... ... ... ... : ... .. . ... ... ... ...
ROW 16 : ... .. . ... ... ... : G-4 0B 7 ... ... ... : ... .. . ... ... ... : ... .. . ... ... : ... .. . F03 : ... .. . ... ... ... ... : ... .. . ... ... ... ... : ... .. . ... ... ... ...
ROW 17 : ... .. . ... ... ... : ... .. . ... ... ... : ... .. . ... ... ... : ... .. . ... ... : ... .. . F02 : ... .. . ... ... ... ... : ... .. . ... ... ... ... : ... .. . ... ... ... ...
ROW 18 : ... .. . ... 468 ... : A-4 0B 9 ... ... ... : A#3 09 . ... ... ... : 6-# 07 . ... ... : ... .. . F03 : G#1 10 D ... ... ... ... : D#2 10 D ... ... ... ... : F#1 10 D ... ... ... ...
ROW 19 : ... .. . ... ... ... : ... .. . ... ... ... : --- .. . ... ... ... : ... .. . ... ... : ... .. . F02 : ... .. . ... ... ... ... : ... .. . ... ... ... ... : ... .. . ... ... ... ...
ROW 1A : ... .. . ... ... ... : A-4 0B 7 ... ... ... : ... .. . ... ... ... : ... .. . ... ... : ... .. . F03 : C#2 10 . ... ... ... ... : G#2 10 . ... ... ... ... : B-1 10 . ... ... ... ...
ROW 1B : ... .. . ... ... ... : ... .. . ... ... ... : ... .. . ... ... ... : ... .. . ... ... : ... .. . F02 : ... .. . ... ... ... ... : ... .. . ... ... ... ... : ... .. . ... ... ... ...
ROW 1C : ... .. . ... ... ... : D-4 0B 9 ... ... ... : F#3 08 . ... ... ... : E-# 05 . S03 ... : ... .. . F03 : F#2 10 E ... ... ... ... : C#3 10 E ... ... ... ... : E-2 10 E ... ... ... ...
ROW 1D : ... .. . ... ... ... : ... .. . ... ... ... : D-3 00 . ... ... ... : ... .. . ... ... : ... .. . F02 : ... .. . ... ... ... ... : ... .. . ... ... ... ... : ... .. . ... ... ... ...
ROW 1E : ... .. . ... ... ... : D-4 0B 7 ... ... ... : ... .. . ... ... ... : ... .. . ... ... : ... .. . F03 : B-2 10 . ... ... ... ... : F#3 10 . ... ... ... ... : A-2 10 . ... ... ... ...
ROW 1F : ... .. . ... ... ... : ... .. . ... ... ... : ... .. . ... ... ... : ... .. . ... ... : ... .. . F02 : ... .. . ... ... ... ... : ... .. . ... ... ... ... : ... .. . ... ... ... ...
ROW 20 : ... .. 5 ... 400 ... : A-4 0B 9 ... ... ... : ... .. . 208 ... ... : E-# 05 . ... ... : ... .. . F03 : ... .. . ... ... ... ... : ... .. . ... ... ... ... : ... .. . ... ... ... ...
ROW 21 : ... .. . ... ... ... : ... .. . ... ... ... : ... .. . ... ... ... : ... .. . ... ... : ... .. . F02 : ... .. . ... ... ... ... : ... .. . ... ... ... ... : ... .. . ... ... ... ...
ROW 22 : ... .. 3 ... ... ... : A-4 0B 7 ... ... ... : ... .. . ... ... ... : ... .. . ... ... : ... .. . F03 : ... .. . ... ... ... ... : ... .. . ... ... ... ... : ... .. . ... ... ... ...
ROW 23 : ... .. . ... ... ... : ... .. . ... ... ... : ... .. . 200 ... ... : ... .. . ... ... : ... .. . F02 : ... .. . ... ... ... ... : ... .. . ... ... ... ... : ... .. . ... ... ... ...
ROW 24 : ... .. . ... ... ... : G-4 0B 9 ... ... ... : F#3 08 . ... ... ... : E-# 05 . S03 ... : ... .. . F03 : ... .. . ... ... ... ... : ... .. . ... ... ... ... : ... .. . ... ... ... ...
ROW 25 : C-3 02 F ... ... ... : ... .. . ... ... ... : D-3 01 . ... ... ... : ... .. . ... ... : ... .. . F02 : ... .. . ... ... ... ... : ... .. . ... ... ... ... : ... .. . ... ... ... ...
ROW 26 : B-2 02 . ... ... ... : G-4 0B 7 ... ... ... : ... .. . ... ... ... : E-# 05 . S03 ... : ... .. . F03 : ... .. . ... ... ... ... : ... .. . ... ... ... ... : ... .. . ... ... ... ...
ROW 27 : A#2 02 . ... ... ... : ... .. . ... ... ... : ... .. . ... ... ... : ... .. . ... ... : ... .. . F02 : ... .. . ... ... ... ... : ... .. . ... ... ... ... : ... .. . ... ... ... ...
ROW 28 : A-2 02 . ... ... ... : A-4 0B 9 ... ... ... : A#3 09 . ... ... ... : 6-# 07 . ... ... : ... .. . F03 : ... .. . ... ... ... ... : ... .. . ... ... ... ... : ... .. . ... ... ... ...
ROW 29 : ... .. . ... ... ... : ... .. . ... ... ... : --- .. . ... ... ... : ... .. . ... ... : ... .. . F02 : ... .. . ... ... ... ... : ... .. . ... ... ... ... : ... .. . ... ... ... ...
ROW 2A : ... .. . ... ... ... : A-4 0B 7 ... ... ... : ... .. . ... ... ... : ... .. . ... ... : ... .. . F03 : ... .. . ... ... ... ... : ... .. . ... ... ... ... : ... .. . ... ... ... ...
ROW 2B : ... .. . ... ... ... : ... .. . ... ... ... : ... .. . ... ... ... : ... .. . ... ... : ... .. . F02 : ... .. . ... ... ... ... : ... .. . ... ... ... ... : ... .. . ... ... ... ...
ROW 2C : ... .. . ... ... ... : D-4 0B 9 ... ... ... : A-2 01 . ... ... ... : E-# 05 . S03 ... : ... .. . F03 : ... .. . ... ... ... ... : ... .. . ... ... ... ... : ... .. . ... ... ... ...
ROW 2D : ... .. . ... ... ... : ... .. . ... ... ... : ... .. . ... ... ... : ... .. . ... ... : ... .. . F02 : ... .. . ... ... ... ... : ... .. . ... ... ... ... : ... .. . ... ... ... ...
ROW 2E : ... .. . ... ... ... : D-4 0B 7 ... ... ... : ... .. . ... ... ... : E-# 05 . S03 ... : ... .. . F03 : ... .. . ... ... ... ... : ... .. . ... ... ... ... : ... .. . ... ... ... ...
ROW 2F : ... .. . ... ... ... : ... .. . ... ... ... : --- .. . ... ... ... : ... .. . ... ... : ... .. . F02 : ... .. . ... ... ... ... : ... .. . ... ... ... ... : ... .. . ... ... ... ...
ROW 30 : A#2 02 . Q54 ... ... : D-6 00 6 V01 ... ... : F#3 08 . ... ... ... : E-# 04 . ... ... : ... .. . F03 : ... .. . ... ... ... ... : ... .. . ... ... ... ... : ... .. . ... ... ... ...
ROW 31 : ... .. . ... ... ... : D-6 00 4 ... ... ... : C-3 01 . ... ... ... : ... .. . ... ... : ... .. . F02 : ... .. . ... ... ... ... : ... .. . ... ... ... ... : ... .. . ... ... ... ...
ROW 32 : ... .. . ... ... ... : A-5 00 6 ... ... ... : ... .. . ... ... ... : ... .. . ... ... : ... .. . F03 : ... .. . ... ... ... ... : ... .. . ... ... ... ... : ... .. . ... ... ... ...
ROW 33 : ... .. . ... ... ... : A-5 00 4 ... ... ... : ... .. . ... ... ... : ... .. . ... ... : ... .. . F02 : ... .. . ... ... ... ... : ... .. . ... ... ... ... : ... .. . ... ... ... ...
ROW 34 : ... .. . ... ... ... : G-5 00 6 ... ... ... : F#3 08 . ... ... ... : E-# 05 . S03 ... : ... .. . F03 : ... .. . ... ... ... ... : ... .. . ... ... ... ... : ... .. . ... ... ... ...
ROW 35 : ... .. . ... ... ... : G-5 00 4 ... ... ... : A-2 00 . ... ... ... : ... .. . ... ... : ... .. . F02 : ... .. . ... ... ... ... : ... .. . ... ... ... ... : ... .. . ... ... ... ...
ROW 36 : ... .. . ... ... ... : F#5 00 6 ... ... ... : ... .. . ... ... ... : E-# 05 . S03 ... : ... .. . F03 : ... .. . ... ... ... ... : ... .. . ... ... ... ... : ... .. . ... ... ... ...
ROW 37 : ... .. . ... ... ... : F#5 00 4 ... ... ... : ... .. . ... ... ... : ... .. . ... ... : ... .. . F02 : ... .. . ... ... ... ... : ... .. . ... ... ... ... : ... .. . ... ... ... ...
ROW 38 : A-3 02 . 32A ... ... : D-5 00 6 ... ... ... : A#3 09 . ... ... ... : 6-# 07 . ... ... : ... .. . F03 : ... .. . ... ... ... ... : ... .. . ... ... ... ... : ... .. . ... ... ... ...
ROW 39 : ... .. . ... ... ... : D-5 00 4 ... ... ... : C-3 00 . ... ... ... : ... .. . ... ... : ... .. . F02 : ... .. . ... ... ... ... : ... .. . ... ... ... ... : ... .. . ... ... ... ...
ROW 3A : ... .. . ... ... ... : C-5 00 6 ... ... ... : ... .. . ... ... ... : ... .. . ... ... : ... .. . F03 : ... .. . ... ... ... ... : ... .. . ... ... ... ... : ... .. . ... ... ... ...
ROW 3B : ... .. . ... ... ... : C-5 00 4 ... ... ... : ... .. . ... ... ... : ... .. . ... ... : ... .. . F02 : ... .. . ... ... ... ... : ... .. . ... ... ... ... : ... .. . ... ... ... ...
ROW 3C : ... .. . ... ... ... : A-4 00 6 ... ... ... : ... .. . 208 ... ... : E-# 05 . ... ... : ... .. . F03 : ... .. . ... ... ... ... : ... .. . ... ... ... ... : ... .. . ... ... ... ...
ROW 3D : ... .. . ... ... ... : A-4 00 4 ... ... ... : ... .. . ... ... ... : ... .. . ... ... : ... .. . F02 : ... .. . ... ... ... ... : ... .. . ... ... ... ... : ... .. . ... ... ... ...
ROW 3E : ... .. . ... ... ... : G-4 00 6 ... ... ... : ... .. . ... ... ... : ... .. . ... ... : ... .. . F03 : ... .. . ... ... ... ... : ... .. . ... ... ... ... : ... .. . ... ... ... ...
ROW 3F : ... .. . ... ... ... : G-4 00 4 ... ... ... : ... .. . 200 ... ... : ... .. . ... ... : ... .. . F02 : ... .. . ... ... ... ... : ... .. . ... ... ... ... : ... .. . ... ... ... ...

PATTERN 01
ROW 00 : C-4 02 F 200 300 V01 : F-3 0A C ... ... ... : F#3 08 . ... ... ... : E-# 04 F ... ... : ... .. . F03 : --- .. . 100 ... ... ... : D-5 10 8 V05 100 ... ... : D-1 11 9 P78 ... ... ...
ROW 01 : ... .. . ... ... ... : ... .. . ... ... ... : D-3 00 . ... ... ... : ... .. . ... ... : ... .. . F02 : ... .. . ... ... ... ... : ... .. . ... ... ... ... : ... .. . ... ... ... ...
ROW 02 : ... .. . ... ... ... : ... .. . ... ... ... : ... .. . ... ... ... : ... .. . ... ... : ... .. . F03 : ... .. . ... ... ... ... : ... .. . ... ... ... ... : ... .. . ... ... ... ...
ROW 03 : ... .. . ... ... ... : ... .. . ... ... ... : ... .. . ... ... ... : ... .. . ... ... : ... .. . F02 : ... .. . ... ... ... ... : ... .. . 205 ... ... ... : ... .. . ... ... ... ...
ROW 04 : ... .. . 206 ... ... : ... .. A ... ... ... : ... .. . 208 ... ... : E-# 05 . S03 ... : ... .. . F03 : ... .. . ... ... ... ... : ... .. . ... ... ... ... : ... .. . ... ... 208 ...
ROW 05 : ... .. . ... ... ... : ... .. . ... ... ... : ... .. . ... ... ... : ... .. . ... ... : ... .. . F02 : ... .. . ... ... ... ... : ... .. . ... ... ... ... : ... .. . ... ... ... ...
ROW 06 : ... .. . ... ... ... : ... .. . ... ... ... : ... .. . ... ... ... : ... .. . ... ... : ... .. . F03 : ... .. . ... ... ... ... : D-5 10 6 200 ... ... ... : ... .. . ... ... ... ...
ROW 07 : ... .. . ... ... ... : ... .. . ... ... ... : ... .. . 200 ... ... : ... .. . ... ... : ... .. . F02 : ... .. . ... ... ... ... : ... .. . ... ... ... ... : ... .. . ... ... 200 ...
ROW 08 : C-4 02 6 200 ... ... : ... .. 8 ... ... ... : A#3 09 . ... ... ... : 6-# 07 . ... ... : ... .. . F03 : A-3 12 8 V02 ... ... ... : ... .. . ... ... ... ... : --- .. . ... ... ... ...
ROW 09 : ... .. . ... ... ... : ... .. . ... ... ... : D-3 01 . ... ... ... : ... .. . ... ... : ... .. . F02 : A-3 12 6 ... ... ... ... : ... .. . 205 ... ... ... : ... .. . ... ... ... ...
ROW 0A : ... .. . ... ... ... : ... .. . ... ... ... : ... .. . ... ... ... : ... .. . ... ... : ... .. . F03 : A-3 12 4 ... ... ... ... : ... .. . ... ... ... ... : ... .. . ... ... ... ...
ROW 0B : ... .. . ... ... ... : ... .. . ... ... ... : ... .. . ... ... ... : ... .. . ... ... : ... .. . F02 : A-3 12 2 ... ... ... ... : ... .. . ... ... ... ... : ... .. . ... ... ... ...
ROW 0C : ... .. . 206 ... ... : ... .. 4 ... ... ... : ... .. . ... ... ... : E-# 05 . S03 ... : ... .. . F03 : D-4 12 8 ... ... ... ... : D-5 10 4 200 ... ... ... : ... .. . ... ... ... ...
ROW 0D : ... .. . ... ... ... : ... .. . ... ... ... : ... .. . ... ... ... : ... .. . ... ... : ... .. . F02 : D-4 12 6 ... ... ... ... : ... .. . ... ... ... ... : ... .. . ... ... ... ...
ROW 0E : ... .. . ... ... ... : ... .. . ... ... ... : ... .. . ... ... ... : ... .. . ... ... : ... .. . F03 : D-4 12 4 ... ... ... ... : ... .. . ... ... ... ... : ... .. . ... ... ... ...
ROW 0F : ... .. . ... ... ... : ... .. . ... ... ... : ... .. . ... ... ... : ... .. . ... ... : ... .. . F02 : D-4 12 2 ... ... ... ... : ... .. . 205 ... ... ... : ... .. . ... ... ... ...
ROW 10 : C-4 02 3 200 ... ... : A-4 0B 9 300 ... ... : D-3 08 . ... ... ... : E-# 05 . ... ... : ... .. . F03 : F#3 12 8 ... ... ... ... : ... .. . ... ... ... ... : A-0 11 . ... ... ... ...
ROW 11 : ... .. . ... ... ... : ... .. . ... ... ... : A-2 01 . ... ... ... : ... .. . ... ... : ... .. . F02 : F#3 12 6 ... ... ... ... : ... .. . ... ... ... ... : ... .. . S06 ... ... ...
ROW 12 : ... .. . ... ... ... : A-4 0B 7 ... ... ... : ... .. . ... ... ... : ... .. . ... ... : ... .. . F03 : F#3 12 4 ... ... ... ... : D-5 10 2 200 ... ... ... : ... .. . ... ... ... ...
ROW 13 : ... .. . ... ... ... : ... .. . ... ... ... : ... .. . ... ... ... : ... .. . ... ... : ... .. . F02 : F#3 12 2 ... ... ... ... : ... .. . ... ... ... ... : ... .. . ... ... ... ...
ROW 14 : D-3 02 F 312 ... ... : G-4 0B 9 ... ... ... : D-3 08 . ... ... ... : E-# 05 . S03 ... : ... .. . F03 : G-3 12 8 ... ... ... ... : ... .. . ... ... ... ... : C-1 11 . ... ... ... ...
ROW 15 : ... .. . ... ... ... : ... .. . ... ... ... : C-3 01 . ... ... ... : ... .. . ... ... : ... .. . F02 : G-3 12 6 ... ... ... ... : ... .. . 205 ... ... ... : ... .. . S06 ... ... ...
ROW 16 : ... .. . ... ... ... : G-4 0B 7 ... ... ... : ... .. . ... ... ... : ... .. . ... ... : ... .. . F03 : G-3 12 4 ... ... ... ... : ... .. . ... ... ... ... : ... .. . ... ... ... ...
ROW 17 : ... .. . ... ... ... : ... .. . ... ... ... : ... .. . ... ... ... : ... .. . ... ... : ... .. . F02 : G-3 12 2 ... ... ... ... : ... .. . ... ... ... ... : ... .. . ... ... ... ...
ROW 18 : C-4 02 . 300 ... ... : A-4 0B 9 ... ... ... : A#3 09 . ... ... ... : 6-# 07 . ... ... : ... .. . F03 : A-3 12 8 ... ... ... ... : --- .. . 200 ... ... ... : --- .. . ... ... ... ...
ROW 19 : ... .. . ... ... ... : ... .. . ... ... ... : --- .. . ... ... ... : ... .. . ... ... : ... .. . F02 : A-3 12 6 ... ... ... ... : ... .. . ... ... ... ... : ... .. . ... ... ... ...
ROW 1A : ... .. . ... ... ... : A-4 0B 7 ... ... ... : ... .. . ... ... ... : ... .. . ... ... : ... .. . F03 : A-3 12 4 ... ... ... ... : ... .. . ... ... ... ... : ... .. . ... ... ... ...
ROW 1B : ... .. . ... ... ... : ... .. . ... ... ... : ... .. . ... ... ... : ... .. . ... ... : ... .. . F02 : A-3 12 2 ... ... ... ... : ... .. . ... ... ... ... : ... .. . ... ... ... ...
ROW 1C : G-3 02 . Q54 ... ... : D-4 0B 9 ... ... ... : F#3 08 . ... ... ... : E-# 05 . S03 ... : ... .. . F03 : D-4 12 8 ... ... ... ... : ... .. . ... ... ... ... : D-1 11 . ... ... ... ...
ROW 1D : ... .. . ... ... ... : ... .. . ... ... ... : D-3 00 . ... ... ... : ... .. . ... ... : ... .. . F02 : D-4 12 6 ... ... ... ... : ... .. . ... ... ... ... : ... .. . ... ... ... ...
ROW 1E : ... .. . ... ... ... : D-4 0B 7 ... ... ... : ... .. . ... ... ... : ... .. . ... ... : ... .. . F03 : D-4 12 4 ... ... ... ... : ... .. . ... ... ... ... : ... .. . ... ... ... ...
ROW 1F : ... .. . ... ... ... : ... .. . ... ... ... : ... .. . ... ... ... : ... .. . ... ... : ... .. . F02 : D-4 12 2 ... ... ... ... : ... .. . ... ... ... ... : ... .. . ... ... ... ...
ROW 20 : ... .. . ... ... ... : B-4 0B 9 ... ... ... : ... .. . ... ... ... : E-# 05 . ... ... : ... .. . F03 : F#3 12 8 ... ... ... ... : ... .. . ... ... ... ... : ... .. . 208 ... ... ...
ROW 21 : ... .. . ... ... ... : ... .. . ... ... ... : ... .. . ... ... ... : ... .. . ... ... : ... .. . F02 : F#3 12 6 ... ... ... ... : ... .. . ... ... ... ... : ... .. . ... ... ... ...
ROW 22 : ... .. . ... ... ... : B-4 0B 7 ... ... ... : ... .. . ... ... ... : ... .. . ... ... : ... .. . F02 : F#3 12 4 ... ... ... ... : ... .. . ... ... ... ... : ... .. . ... ... ... ...
ROW 23 : ... .. . ... ... ... : ... .. . ... ... ... : ... .. . ... ... ... : ... .. . ... ... : ... .. . F03 : F#3 12 2 ... ... ... ... : ... .. . ... ... ... ... : --- .. . 200 ... ... ...
ROW 24 : ... .. . 466 ... ... : A-4 0B 9 ... ... ... : F#3 08 . ... ... ... : E-# 05 . S03 ... : ... .. . F02 : G-3 12 8 ... ... ... ... : ... .. . ... ... ... ... : D-1 11 . ... ... ... ...
ROW 25 : ... .. . ... ... ... : ... .. . ... ... ... : D-3 01 . ... ... ... : ... .. . ... ... : ... .. . F03 : G-3 12 6 ... ... ... ... : D#2 10 . ... ... ... ... : ... .. . S06 ... ... ...
ROW 26 : ... .. . ... ... ... : A-4 0B 7 ... ... ... : ... .. . ... ... ... : E-# 05 . S03 ... : ... .. . F02 : G-3 12 4 ... ... ... ... : E-2 10 . ... ... ... ... : ... .. . ... ... ... ...
ROW 27 : ... .. . ... ... ... : ... .. . ... ... ... : ... .. . ... ... ... : ... .. . ... ... : ... .. . F02 : G-3 12 2 ... ... ... ... : F-2 10 . ... ... ... ... : ... .. . ... ... ... ...
ROW 28 : ... .. . ... ... ... : B-4 0B 9 ... ... ... : A#3 09 . ... ... ... : 6-# 07 . ... ... : ... .. . F03 : A-3 12 8 ... ... ... ... : F#2 10 7 V02 ... ... ... : --- .. . ... ... ... ...
ROW 29 : ... .. . ... ... ... : ... .. . ... ... ... : D-3 00 . ... ... ... : ... .. . ... ... : ... .. . F02 : A-3 12 6 ... ... ... ... : ... .. . ... ... ... ... : ... .. . ... ... ... ...
ROW 2A : ... .. . ... ... ... : B-4 0B 7 ... ... ... : ... .. . ... ... ... : ... .. . ... ... : ... .. . F03 : A-3 12 4 ... ... ... ... : ... .. . ... ... ... ... : ... .. . ... ... ... ...
ROW 2B : ... .. . ... ... ... : ... .. . ... ... ... : ... .. . ... ... ... : ... .. . ... ... : ... .. . F02 : A-3 12 2 ... ... ... ... : ... .. . ... ... ... ... : ... .. . ... ... ... ...
ROW 2C : D-3 02 . 400 ... ... : D-4 0B 9 ... ... ... : ... .. . 208 ... ... : E-# 05 . S03 ... : ... .. . F02 : D-4 12 8 ... ... ... ... : ... .. . ... ... ... ... : A-0 11 . ... ... ... ...
ROW 2D : ... .. . ... ... ... : ... .. . ... ... ... : ... .. . ... ... ... : ... .. . ... ... : ... .. . F03 : D-4 12 6 ... ... ... ... : ... .. . ... ... ... ... : ... .. . S06 ... ... ...
ROW 2E : ... .. . ... ... ... : D-4 0B 7 ... ... ... : ... .. . ... ... ... : E-# 05 . S03 ... : ... .. . F02 : D-4 12 4 ... ... ... ... : ... .. . ... ... ... ... : ... .. . ... ... ... ...
ROW 2F : ... .. . ... ... ... : ... .. . ... ... ... : --- .. . 200 ... ... : ... .. . ... ... : ... .. . F03 : D-4 12 2 ... ... ... ... : ... .. . ... ... ... ... : ... .. . ... ... ... ...
ROW 30 : A-3 02 . Q22 ... ... : A-2 00 8 V00 ... ... : F#3 08 . ... ... ... : E-# 04 . ... ... : ... .. . F02 : A-5 10 7 ... ... ... ... : F-2 10 . Q54 ... ... ... : C-1 11 . ... ... ... ...
ROW 31 : ... .. . ... ... ... : A-2 00 6 ... ... ... : G-1 00 . ... ... ... : ... .. . ... ... : ... .. . F02 : A-5 10 5 ... ... ... ... : ... .. . ... ... ... ... : ... .. . S06 ... ... ...
ROW 32 : ... .. . ... ... ... : B-2 00 8 ... ... ... : ... .. . ... ... ... : ... .. . ... ... : ... .. . F03 : F#5 10 7 ... ... ... ... : ... .. . ... ... ... ... : ... .. . ... ... ... ...
ROW 33 : ... .. . ... ... ... : B-2 00 6 ... ... ... : ... .. . ... ... ... : ... .. . ... ... : ... .. . F02 : F#5 10 5 ... ... ... ... : ... .. . ... ... ... ... : ... .. . ... ... ... ...
ROW 34 : A-3 02 . 305 ... ... : D-3 00 8 ... ... ... : F#3 08 . ... ... ... : E-# 05 . S03 ... : ... .. . F03 : E-5 10 7 ... ... ... ... : ... .. . ... ... ... ... : A-0 11 . ... ... ... ...
ROW 35 : ... .. . ... ... ... : D-3 00 6 ... ... ... : G-2 00 . ... ... ... : ... .. . ... ... : ... .. . F02 : E-5 10 5 ... ... ... ... : ... .. . ... ... ... ... : ... .. . S06 ... ... ...
ROW 36 : ... .. . ... ... ... : G-3 00 8 ... ... ... : ... .. . ... ... ... : E-# 05 . S03 ... : ... .. . F02 : D-5 10 7 ... ... ... ... : ... .. . ... ... ... ... : ... .. . ... ... ... ...
ROW 37 : ... .. . ... ... ... : G-3 00 6 ... ... ... : ... .. . ... ... ... : ... .. . ... ... : ... .. . F03 : D-5 10 5 ... ... ... ... : ... .. . ... ... ... ... : ... .. . ... ... ... ...
ROW 38 : G-3 02 . 300 ... ... : A-3 00 8 ... ... ... : A#3 09 . ... ... ... : 6-# 07 . ... ... : ... .. . F02 : A-4 10 7 ... ... ... ... : D-3 10 . 32A ... ... ... : C-1 11 . ... ... ... ...
ROW 39 : ... .. . ... ... ... : A-3 00 6 ... ... ... : A-1 00 . ... ... ... : ... .. . ... ... : ... .. . F03 : A-4 10 5 ... ... ... ... : ... .. . ... ... ... ... : ... .. . ... ... ... ...
ROW 3A : ... .. . ... ... ... : B-3 00 8 ... ... ... : ... .. . ... ... ... : ... .. . ... ... : ... .. . F02 : F#4 10 7 ... ... ... ... : ... .. . ... ... ... ... : ... .. . ... ... ... ...
ROW 3B : ... .. . ... ... ... : B-3 00 6 ... ... ... : ... .. . ... ... ... : ... .. . ... ... : ... .. . F02 : F#4 11 5 ... ... ... ... : ... .. . ... ... ... ... : ... .. . ... ... ... ...
ROW 3C : D-4 02 . ... ... ... : D-4 00 8 ... ... ... : A#3 09 . ... ... ... : 6-# 07 . ... ... : ... .. . F03 : E-4 10 7 ... ... ... ... : ... .. . ... ... ... ... : ... .. . 208 ... ... ...
ROW 3D : ... .. . ... ... ... : D-4 00 6 ... ... ... : A-2 00 . ... ... ... : ... .. . ... ... : ... .. . F02 : E-4 10 5 ... ... ... ... : ... .. . ... ... ... ... : ... .. . ... ... ... ...
ROW 3E : ... .. . ... ... ... : G-4 00 8 ... ... ... : ... .. . ... ... ... : ... .. . ... ... : ... .. . F03 : D-4 10 7 ... ... ... ... : ... .. . ... ... ... ... : ... .. . ... ... ... ...
ROW 3F : ... .. . ... ... ... : G-4 00 6 ... ... ... : ... .. . ... ... ... : ... .. . ... ... : ... .. . F02 : D-4 10 5 ... ... ... ... : ... .. . ... ... ... ... : --- .. . 200 ... ... ...

PATTERN 02
ROW 00 : ... .. F ... V01 ... : A#4 00 5 V02 ... ... : F#3 08 . ... ... ... : E-# 04 F ... ... : ... .. . F03 : --- 12 . ... ... ... ... : D-5 10 6 V05 300 ... ... : D-1 11 9 P78 ... ... ...
ROW 01 : ... .. . ... ... ... : ... .. . ... ... ... : A#2 00 . ... ... ... : ... .. . ... ... : ... .. . F02 : ... .. . ... ... ... ... : ... .. . ... ... ... ... : ... .. . ... ... ... ...
ROW 02 : ... .. . ... ... ... : ... .. . ... ... ... : ... .. . ... ... ... : ... .. . ... ... : ... .. . ... : ... .. . ... ... ... ... : ... .. . ... ... ... ... : ... .. . ... ... ... ...
ROW 03 : ... .. . ... ... ... : ... .. . ... ... ... : ... .. . ... ... ... : ... .. . ... ... : ... .. . F03 : ... .. . ... ... ... ... : ... .. . 205 ... ... ... : ... .. . ... ... ... ...
ROW 04 : ... .. . ... ... ... : A-4 00 . ... ... ... : ... .. . 208 ... ... : E-# 05 . S03 ... : ... .. . F02 : ... .. . ... ... ... ... : ... .. . ... ... ... ... : ... .. . ... ... 208 ...
ROW 05 : ... .. . ... ... ... : ... .. . ... ... ... : ... .. . ... ... ... : ... .. . ... ... : ... .. . ... : ... .. . ... ... ... ... : ... .. . ... ... ... ... : ... .. . ... ... ... ...
ROW 06 : ... .. . ... ... ... : ... .. . ... ... ... : ... .. . ... ... ... : ... .. . ... ... : ... .. . F03 : ... .. . ... ... ... ... : D-5 10 4 200 ... ... ... : ... .. . ... ... ... ...
ROW 07 : ... .. . ... ... ... : ... .. . ... ... ... : ... .. . 200 ... ... : ... .. . ... ... : ... .. . F02 : ... .. . ... ... ... ... : ... .. . ... ... ... ... : ... .. . ... ... 200 ...
ROW 08 : ... .. . 466 ... ... : A#4 00 . ... ... ... : A#3 09 . ... ... ... : 6-# 07 . ... ... : ... .. . ... : A-3 12 8 ... ... ... ... : ... .. . ... ... ... ... : --- .. . ... ... ... ...
ROW 09 : ... .. . ... ... ... : ... .. . ... ... ... : A#2 01 . ... ... ... : ... .. . ... ... : ... .. . F03 : A-3 12 6 ... ... ... ... : ... .. . 205 ... ... ... : ... .. . ... ... ... ...
ROW 0A : ... .. . ... ... ... : ... .. . ... ... ... : ... .. . ... ... ... : ... .. . ... ... : ... .. . F02 : A-3 12 4 ... ... ... ... : ... .. . ... ... ... ... : ... .. . ... ... ... ...
ROW 0B : ... .. . ... ... ... : ... .. . ... ... ... : ... .. . ... ... ... : ... .. . ... ... : ... .. . ... : A-3 12 2 ... ... ... ... : ... .. . ... ... ... ... : ... .. . ... ... ... ...
ROW 0C : ... .. . ... ... ... : F-4 00 . 308 ... ... : ... .. . ... ... ... : E-# 05 . S03 ... : ... .. . F03 : D-4 12 8 ... ... ... ... : D-5 10 2 200 ... ... ... : ... .. . ... ... ... ...
ROW 0D : ... .. . ... ... ... : ... .. . ... ... ... : ... .. . ... ... ... : ... .. . ... ... : ... .. . F02 : D-4 12 6 ... ... ... ... : ... .. . ... ... ... ... : ... .. . ... ... ... ...
ROW 0E : ... .. . ... ... ... : ... .. . ... ... ... : ... .. . ... ... ... : ... .. . ... ... : ... .. . ... : D-4 12 4 ... ... ... ... : ... .. . ... ... ... ... : ... .. . ... ... ... ...
ROW 0F : ... .. . ... ... ... : --- .. . ... ... ... : ... .. . ... ... ... : ... .. . ... ... : ... .. . F03 : D-4 12 2 ... ... ... ... : ... .. . 205 ... ... ... : ... .. . ... ... ... ...
ROW 10 : === .. . 400 ... ... : F-4 00 6 300 V00 ... : F#3 08 . ... ... ... : E-# 05 . ... ... : ... .. . F02 : F-3 12 8 ... ... ... ... : ... .. . ... ... ... ... : A-0 11 A P78 ... ... ...
ROW 11 : ... .. . ... ... ... : F-4 00 4 ... ... ... : A#2 01 . ... ... ... : ... .. . ... ... : ... .. . ... : F-3 12 6 ... ... ... ... : ... .. . ... ... ... ... : ... .. . S06 ... ... ...
ROW 12 : ... .. . ... ... ... : D-4 00 6 ... ... ... : ... .. . ... ... ... : ... .. . ... ... : ... .. . F03 : F-3 12 4 ... ... ... ... : D-5 10 1 200 ... ... ... : ... .. . ... ... ... ...
ROW 13 : ... .. . ... ... ... : D-4 00 4 ... ... ... : ... .. . ... ... ... : ... .. . ... ... : ... .. . F02 : F-3 12 2 ... ... ... ... : ... .. . ... ... ... ... : ... .. . ... ... ... ...
ROW 14 : F-3 02 . ... ... ... : C-4 00 6 ... ... ... : F#3 08 . ... ... ... : E-# 05 . S03 ... : ... .. . ... : G-3 12 8 ... ... ... ... : ... .. . ... ... ... ... : C-1 11 . ... ... ... ...
ROW 15 : ... .. . ... ... ... : C-4 00 4 ... ... ... : A#2 01 . ... ... ... : ... .. . ... ... : ... .. . F03 : G-3 12 6 ... ... ... ... : ... .. . 205 ... ... ... : ... .. . S06 ... ... ...
ROW 16 : ... .. . ... ... ... : A#3 00 6 ... ... ... : ... .. . ... ... ... : ... .. . ... ... : ... .. . F02 : G-3 12 4 ... ... ... ... : ... .. . ... ... ... ... : ... .. . ... ... ... ...
ROW 17 : ... .. . ... ... ... : A#3 00 4 ... ... ... : ... .. . ... ... ... : ... .. . ... ... : ... .. . ... : G-3 12 2 ... ... ... ... : ... .. . ... ... ... ... : ... .. . ... ... ... ...
ROW 18 : D-4 02 . 338 ... ... : C-4 00 6 ... ... ... : A#3 09 . ... ... ... : 6-# 07 . ... ... : ... .. . F03 : A-3 12 8 ... ... ... ... : --- .. . 200 ... ... ... : ... .. . ... ... ... ...
ROW 19 : ... .. . ... ... ... : C-4 00 4 ... ... ... : --- 01 . ... ... ... : ... .. . ... ... : ... .. . F02 : A-3 12 6 ... ... ... ... : ... .. . ... ... ... ... : ... .. . ... ... ... ...
ROW 1A : ... .. . ... ... ... : D-4 00 6 ... ... ... : ... .. . ... ... ... : ... .. . ... ... : ... .. . ... : A-3 12 4 ... ... ... ... : ... .. . ... ... ... ... : ... .. . ... ... ... ...
ROW 1B : ... .. . ... ... ... : D-4 00 4 ... ... ... : ... .. . ... ... ... : ... .. . ... ... : ... .. . F03 : A-3 12 2 ... ... ... ... : ... .. . ... ... ... ... : ... .. . ... ... ... ...
ROW 1C : C-4 02 . 300 ... ... : F-4 00 6 ... ... ... : F#3 08 . ... ... ... : E-# 04 . ... ... : ... .. . F02 : D-4 12 8 ... ... ... ... : ... .. . ... ... ... ... : D-1 11 . ... ... ... ...
ROW 1D : ... .. . ... ... ... : F-4 00 4 ... ... ... : F-2 00 . ... ... ... : ... .. . ... ... : ... .. . ... : D-4 12 6 ... ... ... ... : ... .. . ... ... ... ... : ... .. . ... ... ... ...
ROW 1E : ... .. . ... ... ... : G-4 00 6 ... ... ... : ... .. . ... ... ... : ... .. . ... ... : ... .. . F03 : D-4 12 4 ... ... ... ... : ... .. . ... ... ... ... : ... .. . ... ... ... ...
ROW 1F : ... .. . ... ... ... : G-4 00 4 ... ... ... : ... .. . ... ... ... : ... .. . ... ... : ... .. . F02 : D-4 12 2 ... ... ... ... : ... .. . ... ... ... ... : ... .. . ... ... ... ...
ROW 20 : ... .. . 206 ... ... : G-5 02 5 Q22 V02 ... : ... .. . 208 ... ... : E-# 05 . ... ... : ... .. . ... : G-3 10 8 ... ... ... ... : ... .. . ... ... ... ... : ... .. . ... ... ... ...
ROW 21 : ... .. . ... ... ... : ... .. . ... ... ... : ... .. . ... ... ... : ... .. . ... ... : ... .. . F03 : G-3 10 6 ... ... ... ... : ... .. . ... ... ... ... : ... .. . ... ... ... ...
ROW 22 : ... .. . ... ... ... : ... .. . ... ... ... : ... .. . ... ... ... : ... .. . ... ... : ... .. . F02 : G-3 10 4 ... ... ... ... : ... .. . ... ... ... ... : ... .. . ... ... ... ...
ROW 23 : ... .. . ... ... ... : ... .. . ... ... ... : --- .. . 200 ... ... : ... .. . ... ... : ... .. . ... : G-3 10 2 ... ... ... ... : ... .. . ... ... ... ... : --- .. . ... ... ... ...
ROW 24 : A-3 02 . 200 ... ... : G-5 00 . 305 ... ... : F#3 08 . ... ... ... : E-# 05 . S03 ... : ... .. . F03 : A-3 10 8 ... ... ... ... : ... .. . ... ... ... ... : D-1 11 . ... ... ... ...
ROW 25 : ... .. . ... ... ... : ... .. . ... ... ... : F-2 01 . ... ... ... : ... .. . ... ... : ... .. . F02 : A-3 10 6 ... ... ... ... : ... .. . ... ... ... ... : ... .. . S06 ... ... ...
ROW 26 : ... .. . ... ... ... : ... .. . ... ... ... : ... .. . ... ... ... : E-# 05 . S03 ... : ... .. . ... : A-3 10 4 ... ... ... ... : ... .. . ... ... ... ... : ... .. . ... ... ... ...
ROW 27 : ... .. . ... ... ... : ... .. . ... ... ... : ... .. . ... ... ... : ... .. . ... ... : ... .. . F03 : A-3 10 2 ... ... ... ... : ... .. . ... ... ... ... : ... .. . ... ... ... ...
ROW 28 : ... .. . ... ... ... : F-5 00 . 300 ... ... : A#3 09 . ... ... ... : 6-# 07 . ... ... : ... .. . F02 : B-3 10 8 ... ... ... ... : ... .. . ... ... ... ... : ... .. . ... ... ... ...
ROW 29 : G#3 02 . ... ... ... : ... .. . ... ... ... : F-2 01 . ... ... ... : ... .. . ... ... : ... .. . ... : B-3 10 6 ... ... ... ... : ... .. . ... ... ... ... : ... .. . ... ... ... ...
ROW 2A : G-3 02 . ... ... ... : ... .. . ... ... ... : ... .. . ... ... ... : ... .. . ... ... : ... .. . F03 : B-3 10 4 ... ... ... ... : ... .. . ... ... ... ... : ... .. . ... ... ... ...
ROW 2B : F#3 02 . ... ... ... : ... .. . ... ... ... : ... .. . ... ... ... : ... .. . ... ... : ... .. . F02 : B-3 10 2 ... ... ... ... : ... .. . ... ... ... ... : ... .. . ... ... ... ...
ROW 2C : F-3 02 . ... ... ... : C-5 00 . ... ... ... : ... .. . ... ... ... : E-# 05 . S03 ... : ... .. . ... : D-4 10 8 ... ... ... ... : D-4 11 7 V02 P81 ... ... : ... .. . ... ... ... ...
ROW 2D : ... .. . ... ... ... : ... .. . ... ... ... : ... .. . ... ... ... : ... .. . ... ... : ... .. . F03 : D-4 10 6 ... ... ... ... : ... .. . ... ... ... ... : ... .. . ... ... ... ...
ROW 2E : ... .. . ... ... ... : ... .. . ... ... ... : ... .. . ... ... ... : E-# 05 . S03 ... : ... .. . F02 : D-4 10 4 ... ... ... ... : ... .. . ... ... ... ... : ... .. . ... ... ... ...
ROW 2F : ... .. . ... ... ... : ... .. . ... ... ... : ... .. . ... ... ... : ... .. . ... ... : ... .. . ... : D-4 10 2 ... ... ... ... : ... .. . ... ... ... ... : ... .. . ... ... ... ...
ROW 30 : ... .. . ... ... ... : F-3 03 3 ... ... ... : F#3 08 . ... ... ... : E-# 04 . ... ... : ... .. . F03 : D-2 10 8 V00 ... ... ... : A-4 11 . Q32 ... ... ... : G-0 11 . ... ... ... ...
ROW 31 : ... .. . ... ... ... : ... .. . ... ... ... : F-2 01 . ... ... ... : ... .. . ... ... : ... .. . F02 : D-2 10 6 ... ... ... ... : ... .. . ... ... ... ... : ... .. . ... ... ... ...
ROW 32 : ... .. . ... ... ... : ... .. . ... ... ... : ... .. . ... ... ... : ... .. . ... ... : ... .. . ... : G-2 10 8 ... ... ... ... : ... .. . ... ... ... ... : ... .. . ... ... ... ...
ROW 33 : ... .. . ... ... ... : ... .. 0 ... ... ... : ... .. . ... ... ... : ... .. . ... ... : ... .. . F03 : G-2 10 6 ... ... ... ... : ... .. . ... ... ... ... : ... .. . ... ... ... ...
ROW 34 : --- .. . ... ... ... : ... .. 5 ... ... ... : F#3 08 . ... ... ... : E-# 05 . S03 ... : ... .. . F02 : A-2 10 8 ... ... ... ... : A-4 11 . 306 ... ... ... : G-1 11 . ... ... ... ...
ROW 35 : G-3 02 . ... ... ... : ... .. . ... ... ... : F-2 01 . ... ... ... : ... .. . ... ... : ... .. . ... : A-2 10 6 ... ... ... ... : ... .. . ... ... ... ... : ... .. . ... ... ... ...
ROW 36 : ... .. . ... ... ... : ... .. . ... ... ... : ... .. . ... ... ... : E-# 05 . S03 ... : ... .. . F03 : B-2 10 8 ... ... ... ... : ... .. . ... ... ... ... : ... .. . ... ... ... ...
ROW 37 : ... .. . ... ... ... : ... .. 0 ... ... ... : ... .. . ... ... ... : ... .. . ... ... : ... .. . F02 : B-2 10 6 ... ... ... ... : ... .. . ... ... ... ... : ... .. . ... ... ... ...
ROW 38 : ... .. . ... ... ... : ... .. 6 ... ... ... : A#3 09 . ... ... ... : 6-# 07 . ... ... : ... .. . ... : D-3 10 8 ... ... ... ... : G-4 11 . 300 ... ... ... : A-0 11 . ... ... ... ...
ROW 39 : ... .. . ... ... ... : ... .. . ... ... ... : --- 00 . ... ... ... : ... .. . ... ... : ... .. . F03 : D-3 10 6 ... ... ... ... : ... .. . ... ... ... ... : ... .. . ... ... ... ...
ROW 3A : A-3 02 . ... ... ... : ... .. . ... ... ... : ... .. . ... ... ... : ... .. . ... ... : ... .. . F02 : G-3 10 8 ... ... ... ... : ... .. . ... ... ... ... : ... .. . ... ... ... ...
ROW 3B : ... .. . ... ... ... : ... .. 0 ... ... ... : ... .. . ... ... ... : ... .. . ... ... : ... .. . ... : G-3 10 6 ... ... ... ... : ... .. . ... ... ... ... : ... .. . ... ... ... ...
ROW 3C : ... .. . ... ... ... : ... .. 8 ... ... ... : F#3 08 . ... ... ... : E-# 04 . ... ... : ... .. . F03 : A-3 10 8 ... ... ... ... : D-5 11 . ... ... ... ... : A-1 11 . ... ... ... ...
ROW 3D : ... .. . ... ... ... : ... .. . ... ... ... : C-3 00 . ... ... ... : ... .. . ... ... : ... .. . F02 : A-3 10 6 ... ... ... ... : ... .. . ... ... ... ... : ... .. . ... ... ... ...
ROW 3E : ... .. . ... ... ... : ... .. . ... ... ... : ... .. . ... ... ... : ... .. . ... ... : ... .. . ... : B-3 10 8 ... ... ... ... : ... .. . ... ... ... ... : ... .. . ... ... ... ...
ROW 3F : ... .. . ... ... ... : ... .. . ... ... ... : ... .. . ... ... ... : ... .. . ... ... : ... .. . F03 : B-3 10 6 ... ... ... ... : ... .. . ... ... ... ... : ... .. . ... ... ... ...

PATTERN 03
ROW 00 : G-3 02 F Q42 V01 ... : C-2 0C 4 A20 V01 ... : ... .. . ... ... ... : E-# 05 F S03 ... : ... .. . F03 : D-4 10 5 V02 ... ... ... : ... .. 7 V05 P81 ... ... : A#0 11 9 P78 ... ... ...
ROW 01 : ... .. . ... ... ... : ... .. . ... ... ... : ... .. . ... ... ... : ... .. . ... ... : ... .. . ... : ... .. . ... ... ... ... : ... .. . ... ... ... ... : ... .. . ... ... ... ...
ROW 02 : ... .. . ... ... ... : ... .. . ... ... ... : ... .. . ... ... ... : ... .. . ... ... : ... .. . F02 : ... .. . ... ... ... ... : ... .. . ... ... ... ... : ... .. . ... ... ... ...
ROW 03 : ... .. . ... ... ... : ... .. . ... ... ... : ... .. . ... ... ... : ... .. . ... ... : ... .. . F03 : ... .. . ... ... ... ... : ... .. . ... ... ... ... : ... .. . ... ... ... ...
ROW 04 : ... .. . 482 ... ... : ... .. . ... ... ... : ... .. . 208 ... ... : E-# 05 . S03 ... : ... .. . ... : C-4 10 . ... ... ... ... : ... .. . ... ... ... ... : ... .. . ... 208 ... ...
ROW 05 : ... .. . ... ... ... : ... .. . ... ... ... : ... .. . ... ... ... : ... .. . ... ... : ... .. . F02 : ... .. . ... ... ... ... : ... .. . ... ... ... ... : ... .. . ... ... ... ...
ROW 06 : ... .. . ... ... ... : ... .. . ... ... ... : ... .. . ... ... ... : ... .. . ... ... : ... .. . F03 : ... .. . ... ... ... ... : ... .. . ... ... ... ... : ... .. . ... ... ... ...
ROW 07 : ... .. . ... ... ... : ... .. . ... ... ... : ... .. . 200 ... ... : ... .. . ... ... : ... .. . ... : ... .. . ... ... ... ... : ... .. . ... ... ... ... : ... .. . ... 200 ... ...
ROW 08 : ... .. . ... ... ... : ... .. 4 V02 ... ... : A#3 09 . ... ... ... : 6-# 07 . ... ... : ... .. . F02 : D-4 10 . ... ... ... ... : ... .. . 466 ... ... ... : --- .. . ... ... ... ...
ROW 09 : ... .. . ... ... ... : ... .. . ... ... ... : C-3 01 . ... ... ... : ... .. . ... ... : ... .. . F03 : ... .. . ... ... ... ... : ... .. . ... ... ... ... : ... .. . ... ... ... ...
ROW 0A : ... .. . ... ... ... : ... .. . ... ... ... : ... .. . ... ... ... : ... .. . ... ... : ... .. . ... : ... .. . ... ... ... ... : ... .. . ... ... ... ... : ... .. . ... ... ... ...
ROW 0B : ... .. . ... ... ... : ... .. . ... ... ... : ... .. . ... ... ... : ... .. . ... ... : ... .. . F02 : ... .. . ... ... ... ... : ... .. . ... ... ... ... : ... .. . ... ... ... ...
ROW 0C : A#3 02 . 400 ... ... : ... .. . ... ... ... : ... .. . ... ... ... : E-# 05 . S03 ... : ... .. . F03 : A#4 10 . 328 ... ... ... : ... .. . ... ... ... ... : ... .. . ... ... ... ...
ROW 0D : ... .. . ... ... ... : ... .. . ... ... ... : ... .. . ... ... ... : ... .. . ... ... : ... .. . ... : ... .. . ... ... ... ... : ... .. . ... ... ... ... : ... .. . ... ... ... ...
ROW 0E : A-3 02 . ... ... ... : ... .. . ... ... ... : ... .. . ... ... ... : ... .. . ... ... : ... .. . F02 : ... .. . ... ... ... ... : ... .. . ... ... ... ... : ... .. . ... ... ... ...
ROW 0F : ... .. . ... ... ... : ... .. . ... ... ... : ... .. . ... ... ... : ... .. . ... ... : ... .. . F03 : --- .. . ... ... ... ... : ... .. . ... ... ... ... : ... .. . ... ... ... ...
ROW 10 : G-3 02 . ... ... ... : C-3 0C 4 ... V01 ... : D-3 08 . ... ... ... : E-# 05 . ... ... : ... .. . ... : C-4 10 6 ... V00 ... ... : === .. . 400 ... ... ... : A#0 11 . ... ... ... ...
ROW 11 : ... .. . ... ... ... : ... .. . ... ... ... : C-3 00 . ... ... ... : ... .. . ... ... : ... .. . F02 : C-4 10 4 ... ... ... ... : ... .. . ... ... ... ... : ... .. . S06 ... ... ...
ROW 12 : ... .. . ... ... ... : ... .. . ... ... ... : ... .. . ... ... ... : ... .. . ... ... : ... .. . F03 : A#3 10 6 ... ... ... ... : ... .. . ... ... ... ... : ... .. . ... ... ... ...
ROW 13 : ... .. . ... ... ... : ... .. . ... ... ... : ... .. . ... ... ... : ... .. . ... ... : ... .. . ... : A#3 10 4 ... ... ... ... : ... .. . ... ... ... ... : ... .. . ... ... ... ...
ROW 14 : ... .. . ... ... ... : ... .. . ... ... ... : D-3 08 . ... ... ... : E-# 05 . S03 ... : ... .. . F02 : A-3 10 6 ... ... ... ... : F-4 11 . ... ... ... ... : --- .. . ... ... ... ...
ROW 15 : ... .. . ... ... ... : ... .. . ... ... ... : C-3 01 . ... ... ... : ... .. . ... ... : ... .. . F03 : A-3 10 4 ... ... ... ... : ... .. . ... ... ... ... : ... .. . ... ... ... ...
ROW 16 : --- .. . ... ... ... : ... .. . ... ... ... : ... .. . ... ... ... : ... .. . ... ... : ... .. . ... : F-3 10 6 ... ... ... ... : ... .. . ... ... ... ... : ... .. . ... ... ... ...
ROW 17 : ... .. . ... ... ... : ... .. . ... ... ... : ... .. . ... ... ... : ... .. . ... ... : ... .. . F02 : F-3 10 4 ... ... ... ... : ... .. . ... ... ... ... : ... .. . ... ... ... ...
ROW 18 : G-3 02 8 ... ... ... : ... .. 4 V02 ... ... : A#3 09 . ... ... ... : 6-# 07 . ... ... : ... .. . F03 : A-3 10 6 ... ... ... ... : D-5 11 . 338 ... ... ... : ... .. . ... ... ... ...
ROW 19 : ... .. . ... ... ... : ... .. . ... ... ... : --- .. . ... ... ... : ... .. . ... ... : ... .. . ... : A-3 10 4 ... ... ... ... : ... .. . ... ... ... ... : ... .. . ... ... ... ...
ROW 1A : ... .. . ... ... ... : ... .. . ... ... ... : ... .. . ... ... ... : ... .. . ... ... : ... .. . F02 : A#3 10 6 ... ... ... ... : ... .. . ... ... ... ... : ... .. . ... ... ... ...
ROW 1B : ... .. . ... ... ... : ... .. . ... ... ... : ... .. . ... ... ... : ... .. . ... ... : ... .. . F03 : A#3 10 4 ... ... ... ... : ... .. . ... ... ... ... : ... .. . ... ... ... ...
ROW 1C : ... .. . ... ... ... : ... .. . ... ... ... : F#3 08 . ... ... ... : E-# 04 . ... ... : ... .. . ... : C-4 10 6 ... ... ... ... : C-5 11 . 300 ... ... ... : F-0 11 . ... ... ... ...
ROW 1D : ... .. . ... ... ... : ... .. . ... ... ... : A#2 00 . ... ... ... : ... .. . ... ... : ... .. . F02 : C-4 10 4 ... ... ... ... : ... .. . ... ... ... ... : ... .. . ... ... ... ...
ROW 1E : --- .. . ... ... ... : ... .. . ... ... ... : ... .. . ... ... ... : ... .. . ... ... : ... .. . F03 : C-5 10 6 ... ... ... ... : ... .. . ... ... ... ... : ... .. . ... ... ... ...
ROW 1F : ... .. . ... ... ... : ... .. . ... ... ... : ... .. . ... ... ... : ... .. . ... ... : ... .. . ... : C-5 10 4 ... ... ... ... : ... .. . ... ... ... ... : ... .. . ... ... ... ...
ROW 20 : G-3 02 4 ... ... ... : C-4 0C 4 ... V01 ... : ... .. . 208 ... ... : E-# 05 . ... ... : ... .. . F02 : A#4 10 5 Q22 V02 ... ... : ... .. . 206 ... ... ... : ... .. . 208 ... ... ...
ROW 21 : ... .. . ... ... ... : ... .. . ... ... ... : ... .. . ... ... ... : ... .. . ... ... : ... .. . F03 : ... .. . ... ... ... ... : ... .. . ... ... ... ... : ... .. . ... ... ... ...
ROW 22 : ... .. . ... ... ... : ... .. . ... ... ... : ... .. . ... ... ... : ... .. . ... ... : ... .. . ... : ... .. . ... ... ... ... : ... .. . ... ... ... ... : ... .. . ... ... ... ...
ROW 23 : ... .. . ... ... ... : ... .. . ... ... ... : ... .. . 200 ... ... : ... .. . ... ... : ... .. . F02 : ... .. . ... ... ... ... : ... .. . ... ... ... ... : --- .. . 200 ... ... ...
ROW 24 : ... .. . ... ... ... : ... .. . ... ... ... : F#3 08 . ... ... ... : E-# 05 . ... ... : ... .. . F03 : A#4 10 . ... ... ... ... : F-4 10 . 200 V03 P80 ... : F-0 11 . ... ... ... ...
ROW 25 : ... .. . ... ... ... : ... .. . ... ... ... : A#2 00 . ... ... ... : ... .. . ... ... : ... .. . ... : ... .. . ... ... ... ... : ... .. . ... ... ... ... : ... .. . S06 ... ... ...
ROW 26 : --- .. . ... ... ... : ... .. . ... ... ... : ... .. . ... ... ... : ... .. . ... ... : ... .. . F02 : ... .. . ... ... ... ... : ... .. . ... ... ... ... : ... .. . ... ... ... ...
ROW 27 : ... .. . ... ... ... : ... .. . ... ... ... : ... .. . ... ... ... : ... .. . ... ... : ... .. . F03 : ... .. . ... ... ... ... : ... .. . ... ... ... ... : ... .. . ... ... ... ...
ROW 28 : G-3 02 2 ... ... ... : ... .. 4 V02 ... ... : A#3 09 . ... ... ... : 6-# 07 . ... ... : ... .. . ... : A-4 10 . ... ... ... ... : ... .. . ... ... ... ... : --- .. . ... ... ... ...
ROW 29 : ... .. . ... ... ... : ... .. . ... ... ... : A#3 00 . ... ... ... : ... .. . ... ... : ... .. . F02 : ... .. . ... ... ... ... : G#3 11 . ... ... ... ... : ... .. . ... ... ... ...
ROW 2A : ... .. . ... ... ... : ... .. . ... ... ... : ... .. . ... ... ... : ... .. . ... ... : ... .. . F03 : ... .. . ... ... ... ... : G-3 11 . ... ... ... ... : ... .. . ... ... ... ...
ROW 2B : ... .. . ... ... ... : ... .. . ... ... ... : ... .. . ... ... ... : ... .. . ... ... : ... .. . ... : ... .. . ... ... ... ... : F#3 11 . ... ... ... ... : ... .. . ... ... ... ...
ROW 2C : ... .. . ... ... ... : ... .. . ... ... ... : F#3 08 . ... ... ... : E-# 04 . ... ... : ... .. . F02 : F-4 10 . ... ... ... ... : C-4 10 . ... ... ... ... : ... .. . ... ... ... ...
ROW 2D : G-3 02 F ... ... ... : ... .. . ... ... ... : C-3 00 . ... ... ... : ... .. . ... ... : ... .. . F03 : ... .. . ... ... ... ... : ... .. . ... ... ... ... : ... .. . ... ... ... ...
ROW 2E : F#3 02 . ... ... ... : ... .. . ... ... ... : ... .. . ... ... ... : ... .. . ... ... : ... .. . ... : ... .. . ... ... ... ... : ... .. . ... ... ... ... : ... .. . ... ... ... ...
ROW 2F : F-3 02 . ... ... ... : ... .. . ... ... ... : ... .. . ... ... ... : ... .. . ... ... : ... .. . F02 : ... .. . ... ... ... ... : ... .. . ... ... ... ... : ... .. . ... ... ... ...
ROW 30 : E-3 02 . ... ... ... : A#3 00 8 A00 ... ... : ... .. . 208 ... ... : E-# 05 . S03 ... : ... .. . F03 : C-4 10 . ... ... ... ... : ... .. . ... ... ... ... : F-0 11 . ... ... ... ...
ROW 31 : ... .. . ... ... ... : A#3 00 6 ... ... ... : ... .. . ... ... ... : ... .. . ... ... : ... .. . ... : ... .. . ... ... ... ... : ... .. . ... ... ... ... : ... .. . S06 ... ... ...
ROW 32 : ... .. . ... ... ... : C-4 00 8 ... ... ... : ... .. . ... ... ... : ... .. . ... ... : ... .. . F02 : F-4 10 . ... ... ... ... : ... .. . ... ... ... ... : ... .. . ... ... ... ...
ROW 33 : ... .. . ... ... ... : C-4 00 6 ... ... ... : ... .. . 200 ... ... : ... .. . ... ... : ... .. . F03 : ... .. . ... ... ... ... : ... .. . ... ... ... ... : ... .. . ... ... ... ...
ROW 34 : ... .. . ... ... ... : D-4 00 8 ... ... ... : F#3 08 . ... ... ... : E-# 05 . S03 ... : ... .. . ... : G-4 10 . ... ... ... ... : --- .. . ... ... ... ... : F-0 11 . ... ... ... ...
ROW 35 : ... .. . ... ... ... : D-4 00 6 ... ... ... : C-2 01 . ... ... ... : ... .. . ... ... : ... .. . F02 : ... .. . ... ... ... ... : D-4 10 . ... ... ... ... : ... .. . S06 ... ... ...
ROW 36 : F-3 02 . ... ... ... : F-4 00 8 ... ... ... : ... .. . ... ... ... : E-# 05 . S03 ... : ... .. . F03 : A-4 10 . ... ... ... ... : ... .. . ... ... ... ... : ... .. . ... ... ... ...
ROW 37 : ... .. . ... ... ... : F-4 00 6 ... ... ... : ... .. . ... ... ... : ... .. . ... ... : ... .. . ... : ... .. . ... ... ... ... : ... .. . ... ... ... ... : ... .. . ... ... ... ...
ROW 38 : ... .. . ... ... ... : C-4 00 8 ... ... ... : A#3 09 . ... ... ... : 6-# 07 . ... ... : ... .. . F02 : C-5 10 . ... ... ... ... : ... .. . ... ... ... ... : ... .. . ... ... ... ...
ROW 39 : ... .. . ... ... ... : C-4 00 6 ... ... ... : C-3 01 . ... ... ... : ... .. . ... ... : ... .. . F03 : ... .. . ... ... ... ... : ... .. . ... ... ... ... : --- 00 . ... ... ... ...
ROW 3A : ... .. . ... ... ... : D-4 00 8 ... ... ... : A#3 09 . ... ... ... : 6-# 07 . ... ... : ... .. . ... : F-4 10 . ... ... ... ... : F-4 10 . ... ... ... ... : ... .. . ... ... ... ...
ROW 3B : ... .. . ... ... ... : D-4 00 6 ... ... ... : ... .. . ... ... ... : ... .. . ... ... : ... .. . F02 : ... .. . ... ... ... ... : ... .. . ... ... ... ... : ... .. . ... ... ... ...
ROW 3C : G-3 02 . ... ... ... : E-4 00 8 ... ... ... : A#3 09 . ... ... ... : 4-# 07 . ... ... : ... .. . F03 : G-5 10 . ... ... ... ... : ... .. . ... ... ... ... : C-1 11 . ... ... ... ...
ROW 3D : ... .. . ... ... ... : E-4 00 6 ... ... ... : C-3 01 . ... ... ... : ... .. . ... ... : ... .. . ... : ... .. . ... ... ... ... : ... .. . ... ... ... ... : ... .. . ... ... ... ...
ROW 3E : ... .. . ... ... ... : G-4 00 8 ... ... ... : A#3 09 . ... ... ... : 4-# 07 . ... ... : ... .. . F02 : A-5 10 . ... ... ... ... : ... .. . ... ... ... ... : ... .. . ... ... ... ...
ROW 3F : ... .. . ... ... ... : G-4 00 6 ... ... ... : C-2 02 . ... ... ... : ... .. . ... ... : ... .. . F03 : ... .. . ... ... ... ... : ... .. . ... ... ... ... : ... .. . ... ... ... ...

PATTERN 04
ROW 00 : A-3 02 F ... V01 ... : D-3 0D F ... ... ... : F#3 08 . ... ... ... : E-# 00 A 422 A01 : ... .. . F03 : C-3 10 2 103 A10 ... ... : D#4 10 5 Q42 V03 ... ... : ... .. 9 P78 ... ... ...
ROW 01 : ... .. . ... ... ... : ... .. . ... ... ... : D-3 00 . ... ... ... : ... .. . ... ... : ... .. . ... : ... .. . ... ... ... ... : ... .. . ... ... ... ... : ... .. . ... ... ... ...
ROW 02 : ... .. . ... ... ... : ... .. . ... ... ... : ... .. . ... ... ... : ... .. . ... ... : ... .. . ... : ... .. . ... ... ... ... : ... .. . ... ... ... ... : ... .. . ... ... ... ...
ROW 03 : ... .. . ... ... ... : ... .. . ... ... ... : ... .. . ... ... ... : ... .. . ... ... : ... .. . ... : ... .. . ... ... ... ... : ... .. . ... ... ... ... : ... .. . ... ... ... ...
ROW 04 : ... .. . 206 ... ... : ... .. A ... ... ... : ... .. . 208 ... ... : ... .. . ... ... : ... .. . ... : ... .. . ... ... ... ... : ... .. . 482 ... ... ... : ... .. . ... 208 ... ...
ROW 05 : ... .. . ... ... ... : ... .. . ... ... ... : ... .. . ... ... ... : ... .. . ... ... : ... .. . ... : ... .. . ... ... ... ... : ... .. . ... ... ... ... : ... .. . ... ... ... ...
ROW 06 : ... .. . ... ... ... : ... .. . ... ... ... : ... .. . ... ... ... : ... .. . ... ... : ... .. . ... : ... .. . ... ... ... ... : ... .. . ... ... ... ... : ... .. . ... ... ... ...
ROW 07 : ... .. . ... ... ... : ... .. . ... ... ... : ... .. . 200 ... ... : ... .. . ... ... : ... .. . ... : ... .. . ... ... ... ... : ... .. . ... ... ... ... : ... .. . ... 200 ... ...
ROW 08 : A-3 02 4 200 ... ... : ... .. 8 ... ... ... : A#3 09 . ... ... ... : 6-# 07 F 400 A00 : ... .. . ... : ... .. . ... ... ... ... : ... .. . ... ... ... ... : --- .. . ... ... ... ...
ROW 09 : ... .. . ... ... ... : ... .. . ... ... ... : D-3 01 . ... ... ... : ... .. . ... ... : ... .. . ... : ... .. . ... ... ... ... : ... .. . ... ... ... ... : ... .. . ... ... ... ...
ROW 0A : ... .. . ... ... ... : ... .. . ... ... ... : ... .. . ... ... ... : ... .. . ... ... : ... .. . ... : ... .. . ... ... ... ... : ... .. . ... ... ... ... : ... .. . ... ... ... ...
ROW 0B : ... .. . ... ... ... : ... .. . ... ... ... : ... .. . ... ... ... : ... .. . ... ... : ... .. . ... : ... .. . ... ... ... ... : ... .. . ... ... ... ... : ... .. . ... ... ... ...
ROW 0C : D-3 02 F ... ... ... : ... .. 4 ... ... ... : ... .. . ... ... ... : E-# 05 . S03 ... : ... .. . ... : ... .. . ... ... ... ... : G-4 10 . 400 ... ... ... : ... .. . ... ... ... ...
ROW 0D : ... .. . ... ... ... : ... .. . ... ... ... : ... .. . ... ... ... : ... .. . ... ... : ... .. . ... : ... .. . ... ... ... ... : ... .. . ... ... ... ... : ... .. . ... ... ... ...
ROW 0E : ... .. . ... ... ... : ... .. . ... ... ... : ... .. . ... ... ... : ... .. . ... ... : ... .. . ... : ... .. . ... ... ... ... : F-4 10 . ... ... ... ... : ... .. . ... ... ... ...
ROW 0F : ... .. . S01 ... ... : ... .. . ... ... ... : ... .. . ... ... ... : ... .. . ... ... : ... .. . ... : ... .. . ... ... ... ... : ... .. . ... ... ... ... : ... .. . ... ... ... ...
ROW 10 : C-3 02 . Q52 ... ... : A-4 0B A 300 ... ... : F#3 08 . ... ... ... : E-# 05 . ... ... : ... .. . ... : ... .. . ... ... ... ... : E-4 10 . ... ... ... ... : C-1 11 . ... ... ... ...
ROW 11 : ... .. . ... ... ... : ... .. . ... ... ... : A-2 01 . ... ... ... : ... .. . ... ... : ... .. . ... : ... .. . ... ... ... ... : ... .. . ... ... ... ... : ... .. . ... ... ... ...
ROW 12 : ... .. . ... ... ... : A-4 0B 8 ... ... ... : ... .. . ... ... ... : ... .. . ... ... : ... .. . ... : ... .. . ... ... ... ... : ... .. . ... ... ... ... : ... .. . ... ... ... ...
ROW 13 : ... .. . ... ... ... : ... .. . ... ... ... : ... .. . ... ... ... : ... .. . ... ... : ... .. . ... : ... .. . ... ... ... ... : ... .. . ... ... ... ... : ... .. . ... ... ... ...
ROW 14 : ... .. . ... ... ... : G-4 0B A ... ... ... : D-3 08 . ... ... ... : E-# 05 . S03 ... : ... .. . ... : ... .. . ... ... ... ... : ... .. . ... ... ... ... : --- .. . ... ... ... ...
ROW 15 : ... .. . ... ... ... : ... .. . ... ... ... : C-3 01 . ... ... ... : ... .. . ... ... : ... .. . ... : ... .. . ... ... ... ... : ... .. . ... ... ... ... : ... .. . ... ... ... ...
ROW 16 : ... .. . ... ... ... : G-4 0B 8 ... ... ... : ... .. . ... ... ... : ... .. . ... ... : ... .. . ... : ... .. . ... ... ... ... : --- .. . ... ... ... ... : ... .. . ... ... ... ...
ROW 17 : ... .. . ... ... ... : ... .. . ... ... ... : ... .. . ... ... ... : ... .. . ... ... : ... .. . ... : ... .. . ... ... ... ... : ... .. . ... ... ... ... : ... .. . ... ... ... ...
ROW 18 : ... .. . ... 468 ... : A-4 0B A ... ... ... : A#3 09 . ... ... ... : 6-# 07 . ... ... : ... .. . ... : ... .. . ... ... ... ... : E-4 10 . ... ... ... ... : ... .. . ... ... ... ...
ROW 19 : ... .. . ... ... ... : ... .. . ... ... ... : --- .. . ... ... ... : ... .. . ... ... : ... .. . ... : ... .. . ... ... ... ... : ... .. . ... ... ... ... : ... .. . ... ... ... ...
ROW 1A : ... .. . ... ... ... : A-4 0B 8 ... ... ... : ... .. . ... ... ... : ... .. . ... ... : ... .. . ... : ... .. . ... ... ... ... : ... .. . ... ... ... ... : ... .. . ... ... ... ...
ROW 1B : ... .. . ... ... ... : ... .. . ... ... ... : ... .. . ... ... ... : ... .. . ... ... : ... .. . ... : ... .. . ... ... ... ... : ... .. . ... ... ... ... : ... .. . ... ... ... ...
ROW 1C : ... .. . ... ... ... : D-4 0B A ... ... ... : F#3 08 . ... ... ... : E-# 05 . S03 ... : ... .. . ... : ... .. . ... ... ... ... : ... .. . ... ... ... ... : ... .. . ... ... ... ...
ROW 1D : ... .. . ... ... ... : ... .. . ... ... ... : D-3 00 . ... ... ... : ... .. . ... ... : ... .. . ... : ... .. . ... ... ... ... : ... .. . ... ... ... ... : ... .. . ... ... ... ...
ROW 1E : ... .. . ... ... ... : D-4 0B 8 ... ... ... : ... .. . ... ... ... : ... .. . ... ... : ... .. . ... : ... .. . ... ... ... ... : --- .. . ... ... ... ... : ... .. . ... ... ... ...
ROW 1F : ... .. . ... ... ... : ... .. . ... ... ... : ... .. . ... ... ... : ... .. . ... ... : ... .. . ... : --- .. . 100 A00 ... ... : ... .. . ... ... ... ... : ... .. . ... ... ... ...
ROW 20 : ... .. 8 ... 400 ... : A-4 0B A ... ... ... : ... .. . 208 ... ... : E-# 05 . ... ... : ... .. . ... : E-4 10 8 V01 482 S02 ... : G-3 10 8 V01 S02 482 ... : ... .. . ... ... ... ...
ROW 21 : ... .. . ... ... ... : ... .. . ... ... ... : ... .. . ... ... ... : ... .. . ... ... : ... .. . ... : E-4 10 . ... ... S01 ... : E-4 10 . ... S01 ... ... : ... .. . ... ... ... ...
ROW 22 : ... .. 3 ... ... ... : A-4 0B 8 ... ... ... : ... .. . ... ... ... : ... .. . ... ... : ... .. . ... : E-4 10 . ... G02 S04 ... : G-3 10 . G02 S04 ... ... : ... .. . ... ... ... ...
ROW 23 : ... .. . ... ... ... : ... .. . ... ... ... : ... .. . 200 ... ... : ... .. . ... ... : ... .. . ... : ... .. . ... ... ... ... : ... .. . ... ... ... ... : ... .. . ... ... ... ...
ROW 24 : ... .. . ... ... ... : G-4 0B A ... ... ... : F#3 08 . ... ... ... : E-# 05 . S03 ... : ... .. . ... : ... .. . ... ... ... ... : ... .. . ... ... ... ... : A#0 11 . ... ... ... ...
ROW 25 : C-3 02 F ... ... ... : ... .. . ... ... ... : D-3 01 . ... ... ... : ... .. . ... ... : ... .. . ... : E-4 10 . ... G01 S04 ... : G-3 10 . G01 S04 ... ... : ... .. . ... ... ... ...
ROW 26 : B-2 02 . ... ... ... : G-4 0B 8 ... ... ... : ... .. . ... ... ... : E-# 05 . S03 ... : ... .. . ... : ... .. . ... ... ... ... : ... .. . ... ... ... ... : ... .. . ... ... ... ...
ROW 27 : A#2 02 . ... ... ... : ... .. . ... ... ... : ... .. . ... ... ... : ... .. . ... ... : ... .. . ... : ... .. . ... ... ... ... : ... .. . ... ... ... ... : ... .. . ... ... ... ...
ROW 28 : A-2 02 . ... ... ... : A-4 0B A ... ... ... : A#3 09 . ... ... ... : 6-# 07 . ... ... : ... .. . ... : G-4 10 A ... ... S04 ... : C-4 10 A ... S04 ... ... : --- .. . ... ... ... ...
ROW 29 : ... .. . ... ... ... : ... .. . ... ... ... : --- .. . ... ... ... : ... .. . ... ... : ... .. . ... : ... .. . ... ... ... ... : ... .. . ... ... ... ... : ... .. . ... ... ... ...
ROW 2A : ... .. . ... ... ... : A-4 0B 8 ... ... ... : ... .. . ... ... ... : ... .. . ... ... : ... .. . ... : E-4 10 . ... G02 S04 ... : G-3 10 . G02 S04 ... ... : ... .. . ... ... ... ...
ROW 2B : ... .. . ... ... ... : ... .. . ... ... ... : ... .. . ... ... ... : ... .. . ... ... : ... .. . ... : ... .. . ... ... ... ... : ... .. . ... ... ... ... : ... .. . ... ... ... ...
ROW 2C : ... .. . ... ... ... : D-4 0B A ... ... ... : A-2 01 . ... ... ... : E-# 05 . S03 ... : ... .. . ... : ... .. . ... ... ... ... : ... .. . ... ... ... ... : ... .. . ... ... ... ...
ROW 2D : ... .. . ... ... ... : ... .. . ... ... ... : ... .. . ... ... ... : ... .. . ... ... : ... .. . ... : G-4 10 . ... G01 ... ... : C-4 10 . G01 S04 ... ... : ... .. . ... ... ... ...
ROW 2E : ... .. . ... ... ... : D-4 0B 8 ... ... ... : ... .. . ... ... ... : E-# 05 . S03 ... : ... .. . ... : ... .. . ... ... ... ... : ... .. . ... ... ... ... : ... .. . ... ... ... ...
ROW 2F : ... .. . ... ... ... : ... .. . ... ... ... : --- .. . ... ... ... : ... .. . ... ... : ... .. . ... : ... .. . ... ... ... ... : ... .. . ... ... ... ... : ... .. . ... ... ... ...
ROW 30 : A#2 02 . Q54 ... ... : D-6 00 7 V01 ... ... : F#3 08 . ... ... ... : E-# 04 . ... ... : ... .. . ... : C-5 10 8 ... 317 ... ... : E-4 10 8 ... 327 ... ... : ... .. . ... ... ... ...
ROW 31 : ... .. . ... ... ... : D-6 00 5 ... ... ... : C-3 01 . ... ... ... : ... .. . ... ... : ... .. . ... : ... .. . ... ... ... ... : ... .. . ... ... ... ... : ... .. . ... ... ... ...
ROW 32 : ... .. . ... ... ... : A-5 00 7 ... ... ... : ... .. . ... ... ... : ... .. . ... ... : ... .. . ... : ... .. . ... ... ... ... : ... .. . ... ... ... ... : ... .. . ... ... ... ...
ROW 33 : ... .. . ... ... ... : A-5 00 5 ... ... ... : ... .. . ... ... ... : ... .. . ... ... : ... .. . ... : ... .. . ... ... ... ... : ... .. . ... ... ... ... : ... .. . ... ... ... ...
ROW 34 : ... .. . ... ... ... : G-5 00 7 ... ... ... : F#3 08 . ... ... ... : E-# 05 . S03 ... : ... .. . ... : ... .. . ... 466 ... ... : ... .. . ... 466 ... ... : C-1 11 . ... ... ... ...
ROW 35 : ... .. . ... ... ... : G-5 00 5 ... ... ... : A-2 00 . ... ... ... : ... .. . ... ... : ... .. . ... : ... .. . ... ... ... ... : ... .. . ... ... ... ... : ... .. . S06 ... ... ...
ROW 36 : ... .. . ... ... ... : F#5 00 7 ... ... ... : ... .. . ... ... ... : E-# 05 . S03 ... : ... .. . ... : ... .. . ... ... ... ... : ... .. . ... ... ... ... : ... .. . ... ... ... ...
ROW 37 : ... .. . ... ... ... : F#5 00 5 ... ... ... : ... .. . ... ... ... : ... .. . ... ... : ... .. . ... : ... .. . ... ... ... ... : ... .. . ... ... ... ... : ... .. . ... ... ... ...
ROW 38 : A-3 02 . 32A ... ... : D-5 00 7 ... ... ... : A#3 09 . ... ... ... : 6-# 07 . ... ... : ... .. . ... : ... .. 8 ... ... ... ... : ... .. 8 ... ... ... ... : C-2 11 . ... ... ... ...
ROW 39 : ... .. . ... ... ... : D-5 00 5 ... ... ... : C-3 00 . ... ... ... : ... .. . ... ... : ... .. . ... : ... .. . ... ... ... ... : ... .. . ... ... ... ... : ... .. . S06 ... ... ...
ROW 3A : ... .. . ... ... ... : C-5 00 7 ... ... ... : ... .. . ... ... ... : ... .. . ... ... : ... .. . ... : ... .. . ... ... ... ... : ... .. . ... ... ... ... : ... .. . ... ... ... ...
ROW 3B : ... .. . ... ... ... : C-5 00 5 ... ... ... : ... .. . ... ... ... : ... .. . ... ... : ... .. . ... : ... .. . ... ... ... ... : ... .. . ... ... ... ... : ... .. . ... ... ... ...
ROW 3C : ... .. . ... ... ... : A-4 00 7 ... ... ... : ... .. . 208 ... ... : E-# 04 . ... ... : ... .. . ... : ... .. 4 ... ... ... ... : ... .. 4 ... ... ... ... : C-1 11 . ... ... ... ...
ROW 3D : ... .. . ... ... ... : A-4 00 5 ... ... ... : ... .. . ... ... ... : ... .. . ... ... : ... .. . ... : ... .. . ... ... ... ... : ... .. . ... ... ... ... : ... .. . ... ... ... ...
ROW 3E : ... .. . ... ... ... : G-4 00 7 ... ... ... : ... .. . ... ... ... : ... .. . ... ... : ... .. . ... : ... .. . ... ... ... ... : ... .. . ... ... ... ... : ... .. . ... ... ... ...
ROW 3F : ... .. . ... ... ... : G-4 00 5 ... ... ... : ... .. . 200 ... ... : ... .. . ... ... : ... .. . ... : ... .. . ... ... ... ... : ... .. . ... ... ... ... : ... .. . ... ... ... ...

PATTERN 05
ROW 00 : C-4 02 F 200 300 V01 : F-3 0A 9 ... ... ... : F#3 08 . ... ... ... : E-# 05 F S03 ... : ... .. . ... : F#3 12 A V02 400 300 ... : D-5 10 6 V05 400 ... ... : D-1 11 9 P78 ... ... ...
ROW 01 : ... .. . ... ... ... : ... .. . ... ... ... : D-3 00 . ... ... ... : ... .. . ... ... : ... .. . ... : F#3 12 6 ... ... ... ... : ... .. . ... ... ... ... : ... .. . ... ... ... ...
ROW 02 : ... .. . ... ... ... : ... .. . ... ... ... : ... .. . ... ... ... : ... .. . ... ... : ... .. . ... : F#3 12 8 ... ... ... ... : ... .. . ... ... ... ... : ... .. . ... ... ... ...
ROW 03 : ... .. . ... ... ... : ... .. . ... ... ... : ... .. . ... ... ... : ... .. . ... ... : ... .. . ... : F#3 12 4 ... ... ... ... : ... .. . 205 ... ... ... : ... .. . ... ... ... ...
ROW 04 : ... .. . 206 ... ... : ... .. 6 ... ... ... : ... .. . 208 ... ... : E-# 05 . S03 ... : ... .. . ... : G-3 12 A ... ... ... ... : ... .. . ... ... ... ... : ... .. . ... ... 208 ...
ROW 05 : ... .. . ... ... ... : ... .. . ... ... ... : ... .. . ... ... ... : ... .. . ... ... : ... .. . ... : G-3 12 6 ... ... ... ... : ... .. . ... ... ... ... : ... .. . ... ... ... ...
ROW 06 : ... .. . ... ... ... : ... .. . ... ... ... : ... .. . ... ... ... : ... .. . ... ... : ... .. . ... : G-3 12 8 ... ... ... ... : D-5 10 4 200 ... ... ... : ... .. . ... ... ... ...
ROW 07 : ... .. . ... ... ... : ... .. . ... ... ... : ... .. . 200 ... ... : ... .. . ... ... : ... .. . ... : G-3 12 4 ... ... ... ... : ... .. . ... ... ... ... : ... .. . ... ... 200 ...
ROW 08 : C-4 02 4 200 ... ... : ... .. 4 ... ... ... : A#3 09 . ... ... ... : 6-# 07 . ... ... : ... .. . ... : A-3 12 A ... ... ... ... : ... .. . ... ... ... ... : --- .. . ... ... ... ...
ROW 09 : ... .. . ... ... ... : ... .. . ... ... ... : D-3 01 . ... ... ... : ... .. . ... ... : ... .. . ... : A-3 12 6 ... ... ... ... : ... .. . 205 ... ... ... : ... .. . ... ... ... ...
ROW 0A : ... .. . ... ... ... : ... .. . ... ... ... : ... .. . ... ... ... : ... .. . ... ... : ... .. . ... : A-3 12 8 ... ... ... ... : ... .. . ... ... ... ... : ... .. . ... ... ... ...
ROW 0B : ... .. . ... ... ... : ... .. . ... ... ... : ... .. . ... ... ... : ... .. . ... ... : ... .. . ... : A-3 12 4 ... ... ... ... : ... .. . ... ... ... ... : ... .. . ... ... ... ...
ROW 0C : ... .. . 206 ... ... : ... .. 2 ... ... ... : ... .. . ... ... ... : E-# 05 . S03 ... : ... .. . ... : D-4 12 A ... ... ... ... : D-5 10 5 200 ... ... ... : ... .. . ... ... ... ...
ROW 0D : ... .. . ... ... ... : ... .. . ... ... ... : ... .. . ... ... ... : ... .. . ... ... : ... .. . ... : D-4 12 6 ... ... ... ... : ... .. . ... ... ... ... : ... .. . ... ... ... ...
ROW 0E : ... .. . ... ... ... : ... .. . ... ... ... : ... .. . ... ... ... : ... .. . ... ... : ... .. . ... : D-4 12 8 ... ... ... ... : ... .. . ... ... ... ... : ... .. . ... ... ... ...
ROW 0F : ... .. . ... ... ... : ... .. . ... ... ... : ... .. . ... ... ... : ... .. . ... ... : ... .. . ... : D-4 12 4 ... ... ... ... : ... .. . 205 ... ... ... : ... .. . ... ... ... ...
ROW 10 : C-4 02 2 200 ... ... : A-4 0B A 300 ... ... : D-3 08 . ... ... ... : E-# 05 . ... ... : ... .. . ... : F#3 12 A ... ... ... ... : ... .. . ... ... ... ... : A-0 11 . ... ... ... ...
ROW 11 : ... .. . ... ... ... : ... .. . ... ... ... : A-2 01 . ... ... ... : ... .. . ... ... : ... .. . ... : F#3 12 6 ... ... ... ... : ... .. . ... ... ... ... : ... .. . S06 ... ... ...
ROW 12 : ... .. . ... ... ... : A-4 0B 8 ... ... ... : ... .. . ... ... ... : ... .. . ... ... : ... .. . ... : F#3 12 8 ... ... ... ... : D-5 10 1 200 ... ... ... : ... .. . ... ... ... ...
ROW 13 : ... .. . ... ... ... : ... .. . ... ... ... : ... .. . ... ... ... : ... .. . ... ... : ... .. . ... : F#3 12 4 ... ... ... ... : ... .. . ... ... ... ... : ... .. . ... ... ... ...
ROW 14 : D-3 02 F 312 400 ... : G-4 0B A ... ... ... : D-3 08 . ... ... ... : E-# 05 . S03 ... : ... .. . ... : G-3 12 A ... ... ... ... : ... .. . ... ... ... ... : C-1 11 . ... ... ... ...
ROW 15 : ... .. . ... ... ... : ... .. . ... ... ... : C-3 01 . ... ... ... : ... .. . ... ... : ... .. . ... : G-3 12 6 ... ... ... ... : ... .. . 205 ... ... ... : ... .. . S06 ... ... ...
ROW 16 : ... .. . ... ... ... : G-4 0B 8 ... ... ... : ... .. . ... ... ... : ... .. . ... ... : ... .. . ... : G-3 12 8 ... ... ... ... : ... .. . ... ... ... ... : ... .. . ... ... ... ...
ROW 17 : ... .. . ... ... ... : ... .. . ... ... ... : ... .. . ... ... ... : ... .. . ... ... : ... .. . ... : G-3 12 4 ... ... ... ... : ... .. . ... ... ... ... : ... .. . ... ... ... ...
ROW 18 : C-4 02 . 300 ... ... : A-4 0B A ... ... ... : A#3 09 . ... ... ... : 6-# 07 . ... ... : ... .. . ... : A-3 12 A ... ... ... ... : --- .. . 200 ... ... ... : --- .. . ... ... ... ...
ROW 19 : ... .. . ... ... ... : ... .. . ... ... ... : --- .. . ... ... ... : ... .. . ... ... : ... .. . ... : A-3 12 6 ... ... ... ... : ... .. . ... ... ... ... : ... .. . ... ... ... ...
ROW 1A : ... .. . ... ... ... : A-4 0B 8 ... ... ... : ... .. . ... ... ... : ... .. . ... ... : ... .. . ... : A-3 12 8 ... ... ... ... : ... .. . ... ... ... ... : ... .. . ... ... ... ...
ROW 1B : ... .. . ... ... ... : ... .. . ... ... ... : ... .. . ... ... ... : ... .. . ... ... : ... .. . ... : A-3 12 4 ... ... ... ... : ... .. . ... ... ... ... : ... .. . ... ... ... ...
ROW 1C : G-3 02 . Q54 ... ... : D-4 0B A ... ... ... : F#3 08 . ... ... ... : E-# 05 . S03 ... : ... .. . ... : D-4 12 A ... ... ... ... : ... .. . ... ... ... ... : D-1 11 . ... ... ... ...
ROW 1D : ... .. . ... ... ... : ... .. . ... ... ... : D-3 00 . ... ... ... : ... .. . ... ... : ... .. . ... : D-4 12 6 ... ... ... ... : ... .. . ... ... ... ... : ... .. . ... ... ... ...
ROW 1E : ... .. . ... ... ... : D-4 0B 8 ... ... ... : ... .. . ... ... ... : ... .. . ... ... : ... .. . ... : D-4 12 8 ... ... ... ... : ... .. . ... ... ... ... : ... .. . ... ... ... ...
ROW 1F : ... .. . ... ... ... : ... .. . ... ... ... : ... .. . ... ... ... : ... .. . ... ... : ... .. . ... : D-4 12 4 ... ... ... ... : ... .. . ... ... ... ... : ... .. . ... ... ... ...
ROW 20 : ... .. . ... ... ... : B-4 0B A ... ... ... : ... .. . ... ... ... : E-# 05 . ... ... : ... .. . ... : F#3 12 A ... ... ... ... : ... .. . ... ... ... ... : ... .. . 208 ... ... ...
ROW 21 : ... .. . ... ... ... : ... .. . ... ... ... : ... .. . ... ... ... : ... .. . ... ... : ... .. . ... : F#3 12 6 ... ... ... ... : ... .. . ... ... ... ... : ... .. . ... ... ... ...
ROW 22 : ... .. . ... ... ... : B-4 0B 8 ... ... ... : ... .. . ... ... ... : ... .. . ... ... : ... .. . ... : F#3 12 8 ... ... ... ... : ... .. . ... ... ... ... : ... .. . ... ... ... ...
ROW 23 : ... .. . ... ... ... : ... .. . ... ... ... : ... .. . ... ... ... : ... .. . ... ... : ... .. . ... : F#3 12 4 ... ... ... ... : ... .. . ... ... ... ... : --- .. . 200 ... ... ...
ROW 24 : ... .. . 466 ... ... : A-4 0B A ... ... ... : F#3 08 . ... ... ... : E-# 05 . S03 ... : ... .. . ... : G-3 12 A ... ... ... ... : ... .. . ... ... ... ... : D-1 11 . ... ... ... ...
ROW 25 : ... .. . ... ... ... : ... .. . ... ... ... : D-3 01 . ... ... ... : ... .. . ... ... : ... .. . ... : G-3 12 6 ... ... ... ... : D#2 10 . ... ... ... ... : ... .. . S06 ... ... ...
ROW 26 : ... .. . ... ... ... : A-4 0B 8 ... ... ... : ... .. . ... ... ... : E-# 05 . S03 ... : ... .. . ... : G-3 12 8 ... ... ... ... : E-2 10 . ... ... ... ... : ... .. . ... ... ... ...
ROW 27 : ... .. . ... ... ... : ... .. . ... ... ... : ... .. . ... ... ... : ... .. . ... ... : ... .. . ... : G-3 12 4 ... ... ... ... : F-2 10 . ... ... ... ... : ... .. . ... ... ... ...
ROW 28 : ... .. 8 ... ... ... : B-4 0B A ... ... ... : A#3 09 . ... ... ... : 6-# 07 . ... ... : ... .. . ... : A-3 12 A ... ... ... ... : F#2 10 7 V02 ... ... ... : --- .. . ... ... ... ...
ROW 29 : ... .. . ... ... ... : ... .. . ... ... ... : D-3 00 . ... ... ... : ... .. . ... ... : ... .. . ... : A-3 12 6 ... ... ... ... : ... .. . ... ... ... ... : ... .. . ... ... ... ...
ROW 2A : ... .. 3 ... ... ... : B-4 0B 8 ... ... ... : ... .. . ... ... ... : ... .. . ... ... : ... .. . ... : A-3 12 8 ... ... ... ... : ... .. . ... ... ... ... : ... .. . ... ... ... ...
ROW 2B : ... .. . ... ... ... : ... .. . ... ... ... : ... .. . ... ... ... : ... .. . ... ... : ... .. . ... : A-3 12 4 ... ... ... ... : ... .. . ... ... ... ... : ... .. . ... ... ... ...
ROW 2C : D-3 02 F 400 ... ... : D-4 0B A ... ... ... : ... .. . 208 ... ... : E-# 05 . S03 ... : ... .. . ... : D-4 12 A ... ... ... ... : ... .. . ... ... ... ... : A-0 11 . ... ... ... ...
ROW 2D : ... .. . ... ... ... : ... .. . ... ... ... : ... .. . ... ... ... : ... .. . ... ... : ... .. . ... : D-4 12 6 ... ... ... ... : ... .. . ... ... ... ... : ... .. . S06 ... ... ...
ROW 2E : ... .. . ... ... ... : D-4 0B 8 ... ... ... : ... .. . ... ... ... : E-# 05 . S03 ... : ... .. . ... : D-4 12 8 ... ... ... ... : ... .. . ... ... ... ... : ... .. . ... ... ... ...
ROW 2F : ... .. . ... ... ... : ... .. . ... ... ... : --- .. . 200 ... ... : ... .. . ... ... : ... .. . ... : D-4 12 4 ... ... ... ... : ... .. . ... ... ... ... : ... .. . ... ... ... ...
ROW 30 : B-3 02 . ... ... ... : C-3 00 9 V00 ... ... : A#3 09 . ... ... ... : 6-# 07 . ... ... : ... .. . ... : A-5 10 7 ... ... ... ... : F-2 10 . Q54 ... ... ... : C-1 11 . ... ... ... ...
ROW 31 : ... .. . ... ... ... : C-3 00 7 ... ... ... : F-1 00 . ... ... ... : ... .. . ... ... : ... .. . ... : A-5 10 5 ... ... ... ... : ... .. . ... ... ... ... : ... .. . S06 ... ... ...
ROW 32 : ... .. . ... ... ... : F-3 00 9 ... ... ... : ... .. . ... ... ... : ... .. . ... ... : ... .. . ... : F#5 10 7 ... ... ... ... : ... .. . ... ... ... ... : ... .. . ... ... ... ...
ROW 33 : ... .. . ... ... ... : F-3 00 7 ... ... ... : ... .. . ... ... ... : ... .. . ... ... : ... .. . ... : F#5 10 5 ... ... ... ... : ... .. . ... ... ... ... : ... .. . ... ... ... ...
ROW 34 : A-3 02 . ... ... ... : G-3 00 9 ... ... ... : F#3 08 . ... ... ... : E-# 05 . S03 ... : ... .. . ... : E-5 10 7 ... ... ... ... : ... .. . ... ... ... ... : A-0 11 . ... ... ... ...
ROW 35 : ... .. . ... ... ... : G-3 00 7 ... ... ... : F-2 00 . ... ... ... : ... .. . ... ... : ... .. . ... : E-5 10 5 ... ... ... ... : ... .. . ... ... ... ... : ... .. . S06 ... ... ...
ROW 36 : ... .. . ... ... ... : A-3 00 9 ... ... ... : ... .. . ... ... ... : E-# 05 . S03 ... : ... .. . ... : D-5 10 7 ... ... ... ... : ... .. . ... ... ... ... : ... .. . ... ... ... ...
ROW 37 : ... .. . ... ... ... : A-3 00 7 ... ... ... : ... .. . ... ... ... : ... .. . ... ... : ... .. . ... : D-5 10 5 ... ... ... ... : ... .. . ... ... ... ... : ... .. . ... ... ... ...
ROW 38 : G-3 02 . ... ... ... : C-4 00 9 ... ... ... : A#3 09 . ... ... ... : 6-# 07 . ... ... : ... .. . ... : A-4 10 7 ... ... ... ... : D-3 10 . 32A ... ... ... : C-1 11 . ... ... ... ...
ROW 39 : ... .. . ... ... ... : C-4 00 7 ... ... ... : F-1 00 . ... ... ... : ... .. . ... ... : ... .. . ... : A-4 10 5 ... ... ... ... : ... .. . ... ... ... ... : ... .. . ... ... ... ...
ROW 3A : ... .. . ... ... ... : F-4 00 9 ... ... ... : ... .. . ... ... ... : ... .. . ... ... : ... .. . ... : F#4 10 7 ... ... ... ... : ... .. . ... ... ... ... : ... .. . ... ... ... ...
ROW 3B : ... .. . ... ... ... : F-4 00 7 ... ... ... : ... .. . ... ... ... : ... .. . ... ... : ... .. . ... : F#4 11 5 ... ... ... ... : ... .. . ... ... ... ... : ... .. . ... ... ... ...
ROW 3C : D-4 02 . ... ... ... : A#3 0E A ... ... ... : F#3 08 . ... ... ... : E-# 00 F ... ... : ... .. . ... : E-4 10 7 ... ... ... ... : ... .. . ... ... ... ... : ... .. . 208 ... ... ...
ROW 3D : ... .. . ... ... ... : ... .. . ... ... ... : A#1 00 . ... ... ... : ... .. . ... ... : ... .. . ... : E-4 10 5 ... ... ... ... : ... .. . ... ... ... ... : ... .. . ... ... ... ...
ROW 3E : ... .. . ... ... ... : ... .. . ... ... ... : ... .. . ... ... ... : ... .. A ... ... : ... .. . ... : D-4 10 7 ... ... ... ... : ... .. . ... ... ... ... : ... .. . ... ... ... ...
ROW 3F : ... .. . ... ... ... : ... .. . ... ... ... : ... .. . ... ... ... : ... .. . ... ... : ... .. . ... : D-4 10 5 ... ... ... ... : ... .. . ... ... ... ... : ... .. . 200 ... ... ...

PATTERN 06
ROW 00 : ... .. F 206 V01 ... : ... .. 8 ... ... ... : ... .. . 206 ... ... : ... .. 8 ... ... : --- .. . ... : --- 12 . ... ... ... ... : D-5 10 6 V05 300 ... ... : D-1 11 9 P78 ... ... ...
ROW 01 : ... .. . ... ... ... : ... .. . ... ... ... : ... .. . ... ... ... : ... .. . ... ... : ... .. . ... : ... .. . ... ... ... ... : ... .. . ... ... ... ... : ... .. . ... ... ... ...
ROW 02 : ... .. . ... ... ... : ... .. . ... ... ... : ... .. . ... ... ... : ... .. 6 ... ... : ... .. . ... : ... .. . ... ... ... ... : ... .. . ... ... ... ... : ... .. . ... ... ... ...
ROW 03 : ... .. . ... ... ... : ... .. . ... ... ... : ... .. . 200 ... ... : ... .. . ... ... : ... .. . ... : ... .. . ... ... ... ... : ... .. . 205 ... ... ... : ... .. . ... ... ... ...
ROW 04 : F-4 02 . 400 200 ... : ... .. 4 ... ... ... : F#3 08 . ... ... ... : ... .. 4 ... ... : ... .. . ... : ... .. . ... ... ... ... : ... .. . ... ... ... ... : ... .. . ... ... 208 ...
ROW 05 : ... .. . ... ... ... : ... .. . ... ... ... : F-2 00 . ... ... ... : ... .. . ... ... : ... .. . ... : ... .. . ... ... ... ... : ... .. . ... ... ... ... : ... .. . ... ... ... ...
ROW 06 : ... .. . ... ... ... : ... .. . ... ... ... : ... .. . ... ... ... : ... .. 2 ... ... : ... .. . ... : ... .. . ... ... ... ... : D-5 10 4 200 ... ... ... : ... .. . ... ... ... ...
ROW 07 : ... .. . ... ... ... : ... .. . ... ... ... : ... .. . ... ... ... : ... .. . ... ... : ... .. . ... : ... .. . ... ... ... ... : ... .. . ... ... ... ... : ... .. . ... ... 200 ...
ROW 08 : G-4 02 . 306 ... ... : ... .. 2 ... ... ... : A#3 09 . ... ... ... : 6-# 07 F ... ... : ... .. . ... : A-3 12 A ... ... ... ... : ... .. . ... ... ... ... : --- .. . ... ... ... ...
ROW 09 : ... .. . ... ... ... : ... .. . ... ... ... : A#1 00 . ... ... ... : ... .. . ... ... : ... .. . ... : A-3 12 6 ... ... ... ... : ... .. . 205 ... ... ... : ... .. . ... ... ... ...
ROW 0A : ... .. . ... ... ... : ... .. . ... ... ... : ... .. . ... ... ... : ... .. . ... ... : ... .. . ... : A-3 12 8 ... ... ... ... : ... .. . ... ... ... ... : ... .. . ... ... ... ...
ROW 0B : ... .. . ... ... ... : ... .. . ... ... ... : ... .. . ... ... ... : ... .. . ... ... : ... .. . ... : A-3 12 4 ... ... ... ... : ... .. . ... ... ... ... : ... .. . ... ... ... ...
ROW 0C : C#4 02 . Q33 ... ... : C-3 0E A ... ... ... : F#3 08 . ... ... ... : E-# 04 . ... ... : ... .. . ... : D-4 12 A ... ... ... ... : D-5 10 2 200 ... ... ... : ... .. . ... ... ... ...
ROW 0D : ... .. . ... ... ... : ... .. . ... ... ... : C-2 00 . ... ... ... : ... .. . ... ... : ... .. . ... : D-4 12 6 ... ... ... ... : ... .. . ... ... ... ... : ... .. . ... ... ... ...
ROW 0E : ... .. . ... ... ... : ... .. . ... ... ... : ... .. . ... ... ... : ... .. . ... ... : ... .. . ... : D-4 12 8 ... ... ... ... : ... .. . ... ... ... ... : ... .. . ... ... ... ...
ROW 0F : ... .. . ... ... ... : ... .. . ... ... ... : ... .. . ... ... ... : ... .. . ... ... : ... .. . ... : D-4 12 4 ... ... ... ... : ... .. . 205 ... ... ... : ... .. . ... ... ... ...
ROW 10 : ... .. . ... ... ... : ... .. 8 ... ... ... : ... .. . 208 ... ... : ... .. . ... ... : ... .. . ... : F-3 12 A ... ... ... ... : ... .. . ... ... ... ... : A-0 11 A P78 ... ... ...
ROW 11 : ... .. . ... ... ... : ... .. . ... ... ... : ... .. . ... ... ... : ... .. . ... ... : ... .. . ... : F-3 12 6 ... ... ... ... : ... .. . ... ... ... ... : ... .. . S06 ... ... ...
ROW 12 : ... .. . 202 ... ... : ... .. . ... ... ... : ... .. . ... ... ... : ... .. . ... ... : ... .. . ... : F-3 12 8 ... ... ... ... : D-5 10 1 200 ... ... ... : ... .. . ... ... ... ...
ROW 13 : ... .. . ... ... ... : ... .. . ... ... ... : --- .. . 200 ... ... : ... .. . ... ... : ... .. . ... : F-3 12 4 ... ... ... ... : ... .. . ... ... ... ... : ... .. . ... ... ... ...
ROW 14 : C-4 02 . 200 ... ... : ... .. 4 ... ... ... : F#3 08 . ... ... ... : ... .. . ... ... : ... .. . ... : G-3 12 A ... ... ... ... : ... .. . ... ... ... ... : C-1 11 . ... ... ... ...
ROW 15 : ... .. . ... ... ... : ... .. . ... ... ... : G-2 00 . ... ... ... : ... .. . ... ... : ... .. . ... : G-3 12 6 ... ... ... ... : ... .. . 205 ... ... ... : ... .. . S06 ... ... ...
ROW 16 : ... .. . ... ... ... : ... .. . ... ... ... : ... .. . ... ... ... : ... .. . ... ... : ... .. . ... : G-3 12 8 ... ... ... ... : ... .. . ... ... ... ... : ... .. . ... ... ... ...
ROW 17 : ... .. . ... ... ... : ... .. . ... ... ... : ... .. . ... ... ... : ... .. . ... ... : ... .. . ... : G-3 12 4 ... ... ... ... : ... .. . ... ... ... ... : ... .. . ... ... ... ...
ROW 18 : G-3 02 . ... ... ... : ... .. 2 ... ... ... : A#3 09 . ... ... ... : 6-# 07 . ... ... : ... .. . ... : A-3 12 A ... ... ... ... : --- .. . 200 ... ... ... : ... .. . ... ... ... ...
ROW 19 : ... .. . ... ... ... : ... .. . ... ... ... : C-2 00 . ... ... ... : ... .. . ... ... : ... .. . ... : A-3 12 6 ... ... ... ... : ... .. . ... ... ... ... : ... .. . ... ... ... ...
ROW 1A : ... .. . ... ... ... : ... .. . ... ... ... : ... .. . ... ... ... : ... .. . ... ... : ... .. . ... : A-3 12 8 ... ... ... ... : ... .. . ... ... ... ... : ... .. . ... ... ... ...
ROW 1B : ... .. . ... ... ... : ... .. . ... ... ... : ... .. . ... ... ... : ... .. . ... ... : ... .. . ... : A-3 12 4 ... ... ... ... : ... .. . ... ... ... ... : ... .. . ... ... ... ...
ROW 1C : A-3 02 . ... ... ... : G-3 0E A ... ... ... : F#3 08 . ... ... ... : E-# 04 . ... ... : ... .. . ... : D-4 12 A ... ... ... ... : ... .. . ... ... ... ... : D-1 11 . ... ... ... ...
ROW 1D : ... .. . ... ... ... : ... .. . ... ... ... : G-1 00 . ... ... ... : ... .. . ... ... : ... .. . ... : D-4 12 6 ... ... ... ... : ... .. . ... ... ... ... : ... .. . ... ... ... ...
ROW 1E : ... .. . ... ... ... : ... .. . ... ... ... : ... .. . ... ... ... : ... .. . ... ... : ... .. . ... : D-4 12 8 ... ... ... ... : ... .. . ... ... ... ... : ... .. . ... ... ... ...
ROW 1F : ... .. . ... ... ... : ... .. . ... ... ... : ... .. . ... ... ... : ... .. . ... ... : ... .. . ... : D-4 12 4 ... ... ... ... : ... .. . ... ... ... ... : ... .. . ... ... ... ...
ROW 20 : B-3 02 . 305 ... ... : ... .. 8 ... ... ... : ... .. . 208 ... ... : ... .. . ... ... : ... .. . ... : G-3 10 A ... ... ... ... : C-3 10 2 103 A10 ... ... : ... .. . ... ... ... ...
ROW 21 : ... .. . ... ... ... : ... .. . ... ... ... : ... .. . ... ... ... : ... .. . ... ... : ... .. . ... : G-3 10 6 ... ... ... ... : ... .. . ... ... ... ... : ... .. . ... ... ... ...
ROW 22 : ... .. . ... ... ... : ... .. . ... ... ... : ... .. . 200 ... ... : ... .. . ... ... : ... .. . ... : G-3 10 8 ... ... ... ... : ... .. . ... ... ... ... : ... .. . ... ... ... ...
ROW 23 : ... .. . ... ... ... : ... .. . ... ... ... : --- .. . ... ... ... : ... .. . ... ... : ... .. . ... : G-3 10 4 ... ... ... ... : ... .. . ... ... ... ... : --- .. . ... ... ... ...
ROW 24 : D-4 02 . 300 ... ... : ... .. 4 ... ... ... : F#3 08 . ... ... ... : ... .. . ... ... : ... .. . ... : A-3 10 A ... ... ... ... : ... .. . ... ... ... ... : D-1 11 . ... ... ... ...
ROW 25 : ... .. . ... ... ... : ... .. . ... ... ... : D-2 00 . ... ... ... : ... .. . ... ... : ... .. . ... : A-3 10 6 ... ... ... ... : ... .. . ... ... ... ... : ... .. . S06 ... ... ...
ROW 26 : ... .. . ... ... ... : ... .. . ... ... ... : ... .. . ... ... ... : ... .. . ... ... : ... .. . ... : A-3 10 8 ... ... ... ... : ... .. . ... ... ... ... : ... .. . ... ... ... ...
ROW 27 : ... .. . ... ... ... : ... .. . ... ... ... : ... .. . ... ... ... : ... .. . ... ... : ... .. . ... : A-3 10 4 ... ... ... ... : ... .. . ... ... ... ... : ... .. . ... ... ... ...
ROW 28 : G-4 02 . ... ... ... : ... .. 2 ... ... ... : A#3 09 . ... ... ... : 6-# 07 . ... ... : ... .. . ... : B-3 10 A ... ... ... ... : ... .. . ... ... ... ... : ... .. . ... ... ... ...
ROW 29 : ... .. . ... ... ... : ... .. . ... ... ... : G-1 00 . ... ... ... : ... .. . ... ... : ... .. . ... : B-3 10 6 ... ... ... ... : ... .. . ... ... ... ... : ... .. . ... ... ... ...
ROW 2A : ... .. . ... ... ... : ... .. . ... ... ... : ... .. . ... ... ... : 6-# 07 . ... ... : ... .. . ... : B-3 10 8 ... ... ... ... : ... .. . ... ... ... ... : ... .. . ... ... ... ...
ROW 2B : ... .. . ... ... ... : ... .. . ... ... ... : ... .. . ... ... ... : ... .. . ... ... : ... .. . ... : B-3 10 4 ... ... ... ... : ... .. . ... ... ... ... : ... .. . ... ... ... ...
ROW 2C : A-4 02 . ... ... ... : F-3 0A A V00 ... ... : F#3 08 . ... ... ... : 2-# 06 . ... ... : ... .. . ... : D-4 10 A ... ... ... ... : ... .. . ... ... ... ... : ... .. . ... ... ... ...
ROW 2D : ... .. . ... ... ... : ... .. . ... ... ... : D-2 00 . ... ... ... : ... .. . ... ... : ... .. . ... : D-4 10 6 ... ... ... ... : ... .. . ... ... ... ... : ... .. . ... ... ... ...
ROW 2E : ... .. . ... ... ... : ... .. . ... ... ... : ... .. . ... ... ... : 2-# 06 . ... ... : ... .. . ... : D-4 10 8 ... ... ... ... : ... .. . ... ... ... ... : ... .. . ... ... ... ...
ROW 2F : ... .. . ... ... ... : ... .. . ... ... ... : ... .. . ... ... ... : ... .. . ... ... : ... .. . ... : D-4 10 4 ... ... ... ... : ... .. . ... ... ... ... : ... .. . ... ... ... ...
ROW 30 : A#4 02 . 302 ... ... : ... .. 8 ... ... ... : A#3 09 . ... ... ... : 6-# 07 . ... ... : ... .. . ... : D-2 10 9 V00 ... ... ... : ... .. . ... ... ... ... : F-0 11 . ... ... ... ...
ROW 31 : ... .. . ... ... ... : ... .. . ... ... ... : G-2 00 . ... ... ... : ... .. . ... ... : ... .. . ... : D-2 10 7 ... ... ... ... : ... .. . ... ... ... ... : ... .. . ... ... ... ...
ROW 32 : ... .. . ... ... ... : ... .. . ... ... ... : ... .. . ... ... ... : ... .. . ... ... : ... .. . ... : G-2 10 9 ... ... ... ... : ... .. . ... ... ... ... : ... .. . ... ... ... ...
ROW 33 : ... .. . ... ... ... : ... .. . ... ... ... : ... .. . ... ... ... : ... .. . ... ... : ... .. . ... : G-2 10 7 ... ... ... ... : ... .. . ... ... ... ... : ... .. . ... ... ... ...
ROW 34 : A-4 02 . ... ... ... : ... .. 4 ... ... ... : F#3 08 . ... ... ... : ... .. . ... ... : ... .. . ... : A-2 10 9 ... ... ... ... : ... .. . ... ... ... ... : F-1 11 . ... ... ... ...
ROW 35 : ... .. . ... ... ... : ... .. . ... ... ... : D-1 00 . ... ... ... : ... .. . ... ... : ... .. . ... : A-2 10 7 ... ... ... ... : ... .. . ... ... ... ... : ... .. . ... ... ... ...
ROW 36 : ... .. . ... ... ... : ... .. . ... ... ... : ... .. . ... ... ... : ... .. . ... ... : ... .. . ... : B-2 10 9 ... ... ... ... : ... .. . ... ... ... ... : ... .. . ... ... ... ...
ROW 37 : ... .. . ... ... ... : ... .. . ... ... ... : ... .. . ... ... ... : ... .. . ... ... : ... .. . ... : B-2 10 7 ... ... ... ... : ... .. . ... ... ... ... : ... .. . ... ... ... ...
ROW 38 : G-4 02 . 300 ... ... : F-3 00 9 ... ... ... : A#3 09 . ... ... ... : 6-# 07 . ... ... : ... .. . ... : D-3 10 9 ... ... ... ... : ... .. . ... ... ... ... : F-0 11 . ... ... ... ...
ROW 39 : ... .. . ... ... ... : D-3 00 7 ... ... ... : A-1 00 . ... ... ... : ... .. . ... ... : ... .. . ... : D-3 10 7 ... ... ... ... : ... .. . ... ... ... ... : ... .. . ... ... ... ...
ROW 3A : ... .. . ... ... ... : A-3 00 9 ... ... ... : ... .. . ... ... ... : ... .. . ... ... : ... .. . ... : G-3 10 9 ... ... ... ... : ... .. . ... ... ... ... : ... .. . ... ... ... ...
ROW 3B : ... .. . ... ... ... : F-3 00 7 ... ... ... : ... .. . ... ... ... : ... .. . ... ... : ... .. . ... : G-3 10 7 ... ... ... ... : ... .. . ... ... ... ... : ... .. . ... ... ... ...
ROW 3C : C-4 02 . V02 ... ... : D-4 00 9 ... ... ... : F#3 08 . ... ... ... : 6-# 07 . ... ... : ... .. . ... : F-4 10 8 ... V03 ... ... : A#4 10 8 A00 100 V03 ... : A#0 11 . ... ... ... ...
ROW 3D : C#4 02 . ... ... ... : A-3 00 7 ... ... ... : D-2 00 . ... ... ... : ... .. . ... ... : ... .. . ... : ... .. . ... ... ... ... : ... .. . ... ... ... ... : ... .. . ... ... ... ...
ROW 3E : D-4 02 . ... ... ... : F-4 00 9 ... ... ... : ... .. . ... ... ... : 6-# 07 . ... ... : ... .. . ... : ... .. . ... ... ... ... : ... .. . ... ... ... ... : ... .. . ... ... ... ...
ROW 3F : ... .. . ... ... ... : D-4 00 7 ... ... ... : ... .. . ... ... ... : ... .. . ... ... : ... .. . ... : ... .. . 205 ... ... ... : ... .. . 205 ... ... ... : ... .. . ... ... ... ...

PATTERN 07
ROW 00 : ... .. F ... ... ... : G-4 00 9 ... ... ... : F#3 08 . ... ... ... : E-# 00 A 421 ... : ... .. . ... : ... .. . ... ... ... ... : ... .. . ... ... ... ... : ... .. 9 206 ... ... ...
ROW 01 : ... .. . ... ... ... : G-4 00 7 ... ... ... : D#3 01 . ... ... ... : ... .. . ... ... : ... .. . ... : ... .. . ... ... ... ... : ... .. . ... ... ... ... : ... .. . ... ... ... ...
ROW 02 : ... .. . ... ... ... : F-4 00 9 ... ... ... : ... .. . ... ... ... : ... .. . ... ... : ... .. . ... : F-4 10 4 200 ... ... ... : A#4 10 4 200 ... ... ... : ... .. . ... ... ... ...
ROW 03 : ... .. . ... ... ... : F-4 00 7 ... ... ... : ... .. . ... ... ... : ... .. . ... ... : ... .. . ... : ... .. . ... ... ... ... : ... .. . ... ... ... ... : ... .. . 200 ... ... ...
ROW 04 : ... .. . ... ... ... : D#4 00 9 ... ... ... : F#3 08 . ... ... ... : ... .. . ... ... : ... .. . ... : A#3 10 . ... V02 ... ... : C-4 10 . ... V02 ... ... : --- .. . ... ... ... ...
ROW 05 : ... .. . ... ... ... : D#4 00 7 ... ... ... : D#3 01 . ... ... ... : ... .. . ... ... : ... .. . ... : ... .. . ... ... ... ... : ... .. . ... ... ... ... : ... .. . ... ... ... ...
ROW 06 : ... .. . ... ... ... : A#3 00 9 ... ... ... : ... .. . ... ... ... : ... .. . ... ... : ... .. . ... : C-4 10 6 ... ... ... ... : D-4 10 6 ... ... ... ... : ... .. . ... ... ... ...
ROW 07 : ... .. . ... ... ... : A#3 00 7 ... ... ... : ... .. . ... ... ... : --- .. . ... ... : ... .. . ... : ... .. . ... ... ... ... : ... .. . ... ... ... ... : ... .. . ... ... ... ...
ROW 08 : ... .. . 486 ... ... : G-4 0B 9 ... ... ... : A#3 09 . ... ... ... : 6-# 07 A ... ... : ... .. . ... : D-4 10 . ... ... ... ... : F-4 10 . ... ... ... ... : A#0 11 . ... ... ... ...
ROW 09 : ... .. . ... ... ... : G-4 0B 7 ... ... ... : ... .. . ... ... ... : ... .. . ... ... : ... .. . ... : ... .. . ... ... ... ... : ... .. . ... ... ... ... : ... .. . ... ... ... ...
ROW 0A : ... .. . ... ... ... : F-4 0B 9 ... ... ... : ... .. . ... ... ... : E-# 05 . ... ... : ... .. . ... : F-4 10 . ... ... ... ... : A#4 10 . ... ... ... ... : ... .. . ... ... ... ...
ROW 0B : ... .. . ... ... ... : F-4 0B 7 ... ... ... : ... .. . ... ... ... : ... .. . ... ... : ... .. . ... : ... .. . ... ... ... ... : ... .. . ... ... ... ... : ... .. . ... ... ... ...
ROW 0C : ... .. . ... ... ... : D#4 0B 9 ... ... ... : ... .. . ... ... ... : E-# 04 . ... ... : ... .. . ... : G-4 10 8 ... V01 ... ... : C-5 10 8 A00 100 V01 ... : C-1 11 . ... ... ... ...
ROW 0D : ... .. . ... ... ... : D#4 0B 7 ... ... ... : ... .. . ... ... ... : ... .. . ... ... : ... .. . ... : ... .. . ... ... ... ... : ... .. . ... ... ... ... : ... .. . ... ... ... ...
ROW 0E : ... .. . ... ... ... : A#3 0B 9 ... ... ... : ... .. . ... ... ... : E-# 05 . ... ... : ... .. . ... : ... .. . ... ... ... ... : ... .. . ... ... ... ... : ... .. . ... ... ... ...
ROW 0F : ... .. . ... ... ... : A#3 0B 7 ... ... ... : ... .. . ... ... ... : --- .. . ... ... : ... .. . ... : ... .. . 205 ... ... ... : ... .. . 205 ... ... ... : ... .. . ... ... ... ...
ROW 10 : ... .. 8 ... ... ... : G-4 00 9 ... ... ... : ... .. . ... ... ... : E-# 05 F 400 A00 : ... .. . ... : ... .. . ... ... ... ... : ... .. . ... ... ... ... : ... .. . 208 ... ... ...
ROW 11 : ... .. . ... ... ... : G-4 00 7 ... ... ... : ... .. . ... ... ... : ... .. . ... ... : ... .. . ... : ... .. . ... ... ... ... : ... .. . ... ... ... ... : ... .. . ... ... ... ...
ROW 12 : ... .. 3 ... ... ... : F-4 00 9 ... ... ... : ... .. . ... ... ... : E-# 05 . ... ... : ... .. . ... : G-4 10 4 200 ... ... ... : C-5 10 4 200 ... ... ... : ... .. . ... ... ... ...
ROW 13 : ... .. . ... ... ... : F-4 00 7 ... ... ... : ... .. . ... ... ... : ... .. . ... ... : ... .. . ... : ... .. . ... ... ... ... : ... .. . ... ... ... ... : ... .. . 200 ... ... ...
ROW 14 : G-5 0B 6 400 ... ... : D#4 00 9 ... ... ... : F#3 08 . ... ... ... : E-# 04 . ... ... : ... .. . ... : ... .. . ... ... ... ... : ... .. . ... ... ... ... : --- 11 . ... ... ... ...
ROW 15 : ... .. . ... ... ... : D#4 00 7 ... ... ... : A#2 01 . ... ... ... : ... .. . ... ... : ... .. . ... : ... .. . 205 ... ... ... : ... .. . 205 ... ... ... : ... .. . ... ... ... ...
ROW 16 : G-5 0B . ... ... ... : A#3 00 9 ... ... ... : ... .. . ... ... ... : E-# 05 . ... ... : ... .. . ... : ... .. . ... ... ... ... : ... .. . ... ... ... ... : ... .. . ... ... ... ...
ROW 17 : ... .. . ... ... ... : A#3 00 7 ... ... ... : ... .. . ... ... ... : ... .. . ... ... : ... .. . ... : ... .. . ... ... ... ... : ... .. . ... ... ... ... : ... .. . ... ... ... ...
ROW 18 : F-5 0B . ... ... ... : G-4 0B 9 ... ... ... : A#3 09 . ... ... ... : 6-# 07 . ... ... : ... .. . ... : G-4 10 2 200 ... ... ... : C-5 10 2 200 ... ... ... : C-1 11 . ... ... ... ...
ROW 19 : ... .. . ... ... ... : G-4 0B 7 ... ... ... : ... .. . ... ... ... : ... .. . ... ... : ... .. . ... : ... .. . ... ... ... ... : ... .. . ... ... ... ... : ... .. . ... ... ... ...
ROW 1A : F-5 0B . ... ... ... : F-4 0B 9 ... ... ... : ... .. . ... ... ... : E-# 05 . ... ... : ... .. . ... : ... .. . ... ... ... ... : ... .. . ... ... ... ... : ... .. . ... ... ... ...
ROW 1B : ... .. . ... ... ... : F-4 0B 7 ... ... ... : ... .. . ... ... ... : ... .. . ... ... : ... .. . ... : ... .. . ... ... ... ... : ... .. . ... ... ... ... : ... .. . ... ... ... ...
ROW 1C : D#5 0B . ... ... ... : D#4 0B 9 ... ... ... : F#3 08 . ... ... ... : E-# 04 . ... ... : ... .. . ... : D-4 10 8 ... V02 ... ... : G-4 10 8 A00 100 V02 ... : G-0 11 . ... ... ... ...
ROW 1D : ... .. . ... ... ... : D#4 0B 7 ... ... ... : D#3 01 . ... ... ... : ... .. . ... ... : ... .. . ... : ... .. . ... ... ... ... : ... .. . ... ... ... ... : ... .. . ... ... ... ...
ROW 1E : ... .. . ... ... ... : A#3 0B 9 ... ... ... : ... .. . ... ... ... : E-# 05 . ... ... : ... .. . ... : ... .. . ... ... ... ... : ... .. . ... ... ... ... : ... .. . ... ... ... ...
ROW 1F : ... .. . ... ... ... : A#3 0B 7 ... ... ... : ... .. . ... ... ... : ... .. . ... ... : ... .. . ... : ... .. . 205 ... ... ... : ... .. . 205 ... ... ... : ... .. . ... ... ... ...
ROW 20 : D#5 0B 4 ... ... ... : G-4 00 9 ... ... ... : ... .. . ... ... ... : E-# 05 . ... ... : ... .. . ... : ... .. . ... ... ... ... : ... .. . ... ... ... ... : ... .. . 208 ... ... ...
ROW 21 : ... .. . ... ... ... : G-4 00 7 ... ... ... : ... .. . ... ... ... : ... .. . ... ... : ... .. . ... : ... .. . ... ... ... ... : ... .. . ... ... ... ... : ... .. . ... ... ... ...
ROW 22 : ... .. . ... ... ... : F-4 00 9 ... ... ... : ... .. . ... ... ... : E-# 05 . ... ... : ... .. . ... : D-4 10 4 200 ... ... ... : G-4 10 4 200 ... ... ... : ... .. . 200 ... ... ...
ROW 23 : ... .. . ... ... ... : F-4 00 7 ... ... ... : ... .. . ... ... ... : ... .. . ... ... : ... .. . ... : ... .. . ... ... ... ... : ... .. . ... ... ... ... : ... .. . ... ... ... ...
ROW 24 : D#5 0B 2 ... ... ... : D#4 00 9 ... ... ... : F#3 08 . ... ... ... : E-# 04 . ... ... : ... .. . ... : B-5 10 . ... V04 ... ... : D-6 10 . ... V00 400 ... : --- 11 . ... ... ... ...
ROW 25 : ... .. . ... ... ... : D#4 00 7 ... ... ... : D#3 01 . ... ... ... : ... .. . ... ... : ... .. . ... : ... .. . ... ... ... ... : ... .. . ... ... ... ... : ... .. . ... ... ... ...
ROW 26 : ... .. . ... ... ... : A#3 00 9 ... ... ... : ... .. . ... ... ... : E-# 05 . ... ... : ... .. . ... : G-5 10 6 ... ... ... ... : B-5 10 6 ... ... ... ... : ... .. . ... ... ... ...
ROW 27 : ... .. . ... ... ... : A#3 00 7 ... ... ... : ... .. . ... ... ... : ... .. . ... ... : ... .. . ... : ... .. . ... ... ... ... : ... .. . ... ... ... ... : ... .. . ... ... ... ...
ROW 28 : ... .. . ... ... ... : G-4 0B 9 ... ... ... : A#3 09 . ... ... ... : 6-# 07 . ... ... : ... .. . ... : D-5 10 . ... ... ... ... : A-5 10 . ... ... ... ... : G-0 11 . ... ... ... ...
ROW 29 : ... .. . ... ... ... : G-4 0B 7 ... ... ... : ... .. . ... ... ... : ... .. . ... ... : ... .. . ... : ... .. . ... ... ... ... : ... .. . ... ... ... ... : ... .. . ... ... ... ...
ROW 2A : ... .. . ... ... ... : F-4 0B 9 ... ... ... : ... .. . ... ... ... : E-# 05 . ... ... : ... .. . ... : B-4 10 . ... ... ... ... : G-5 10 . ... ... ... ... : ... .. . ... ... ... ...
ROW 2B : ... .. . ... ... ... : F-4 0B 7 ... ... ... : ... .. . ... ... ... : ... .. . ... ... : ... .. . ... : ... .. . ... ... ... ... : ... .. . ... ... ... ... : ... .. . ... ... ... ...
ROW 2C : G-3 02 F V02 ... ... : D#4 0B 9 ... ... ... : ... .. . ... ... ... : E-# 04 . ... ... : ... .. . ... : A-4 10 8 200 V01 ... ... : D-4 10 8 A00 100 V01 ... : D-1 11 . ... ... ... ...
ROW 2D : ... .. . ... ... ... : D#4 0B 7 ... ... ... : ... .. . ... ... ... : ... .. . ... ... : ... .. . ... : ... .. . ... ... ... ... : ... .. . ... ... ... ... : ... .. . ... ... ... ...
ROW 2E : ... .. . ... ... ... : A#3 0B 9 ... ... ... : ... .. . ... ... ... : E-# 05 . ... ... : ... .. . ... : ... .. . ... ... ... ... : ... .. . ... ... ... ... : ... .. . ... ... ... ...
ROW 2F : ... .. . ... ... ... : A#3 0B 7 ... ... ... : ... .. . ... ... ... : ... .. . ... ... : ... .. . ... : ... .. . 205 ... ... ... : ... .. . 205 ... ... ... : ... .. . ... ... ... ...
ROW 30 : C-4 02 . Q22 ... ... : G-2 00 9 ... ... ... : F#3 08 . ... ... ... : E-# 04 . ... ... : ... .. . ... : ... .. . ... ... ... ... : ... .. . ... ... ... ... : --- 11 . ... ... ... ...
ROW 31 : ... .. . ... ... ... : G-2 00 7 ... ... ... : D#3 01 . ... ... ... : ... .. . ... ... : ... .. . ... : ... .. . ... ... ... ... : ... .. . ... ... ... ... : ... .. . ... ... ... ...
ROW 32 : ... .. . ... ... ... : A#2 00 9 ... ... ... : ... .. . ... ... ... : E-# 05 . ... ... : ... .. . ... : A-4 10 4 200 ... ... ... : D-4 10 4 200 ... ... ... : ... .. . ... ... ... ...
ROW 33 : ... .. . ... ... ... : A#2 00 7 ... ... ... : ... .. . ... ... ... : ... .. . ... ... : ... .. . ... : ... .. . ... ... ... ... : ... .. . ... ... ... ... : ... .. . ... ... ... ...
ROW 34 : C-4 02 . ... ... ... : D#3 00 9 ... ... ... : F#3 08 . ... ... ... : E-# 04 . ... ... : ... .. . ... : ... .. . ... ... ... ... : ... .. . ... ... ... ... : D-0 11 . ... ... ... ...
ROW 35 : ... .. . ... ... ... : D#3 00 7 ... ... ... : D#3 01 . ... ... ... : ... .. . ... ... : ... .. . ... : ... .. . 205 ... ... ... : ... .. . 205 ... ... ... : ... .. . ... ... ... ...
ROW 36 : ... .. . ... ... ... : F-3 00 9 ... ... ... : ... .. . ... ... ... : E-# 05 . ... ... : ... .. . ... : ... .. . ... ... ... ... : ... .. . ... ... ... ... : ... .. . ... ... ... ...
ROW 37 : ... .. . ... ... ... : F-3 00 7 ... ... ... : ... .. . ... ... ... : ... .. . ... ... : ... .. . ... : ... .. . ... ... ... ... : ... .. . ... ... ... ... : ... .. . ... ... ... ...
ROW 38 : A#3 02 . ... ... ... : G-3 00 9 ... ... ... : A#3 09 . ... ... ... : 6-# 07 . ... ... : ... .. . ... : A-4 10 2 200 ... ... ... : D-4 10 2 200 ... ... ... : A-0 11 . ... ... ... ...
ROW 39 : ... .. . ... ... ... : G-3 00 7 ... ... ... : ... .. . ... ... ... : ... .. . ... ... : ... .. . ... : ... .. . ... ... ... ... : ... .. . ... ... ... ... : ... .. . ... ... ... ...
ROW 3A : ... .. . ... ... ... : A#3 00 9 ... ... ... : ... .. . ... ... ... : E-# 05 . ... ... : ... .. . ... : ... .. . ... ... ... ... : ... .. . ... ... ... ... : ... .. . ... ... ... ...
ROW 3B : ... .. . ... ... ... : A#3 00 7 ... ... ... : ... .. . ... ... ... : ... .. . ... ... : ... .. . ... : ... .. . ... ... ... ... : ... .. . ... ... ... ... : ... .. . ... ... ... ...
ROW 3C : C-4 02 . 305 ... ... : D#4 00 9 ... ... ... : ... .. . ... ... ... : E-# 04 . ... ... : ... .. . ... : --- .. . ... ... ... ... : --- .. . ... ... ... ... : D-1 11 . ... ... ... ...
ROW 3D : ... .. . ... ... ... : D#4 00 7 ... ... ... : ... .. . ... ... ... : ... .. . ... ... : ... .. . ... : ... .. . ... ... ... ... : ... .. . ... ... ... ... : ... .. . ... ... ... ...
ROW 3E : ... .. . ... ... ... : G-4 00 9 ... ... ... : ... .. . ... ... ... : E-# 05 . ... ... : ... .. . ... : ... .. . ... ... ... ... : ... .. . ... ... ... ... : ... .. . ... ... ... ...
ROW 3F : ... .. . ... ... ... : G-4 00 7 ... ... ... : ... .. . ... ... ... : ... .. . ... ... : ... .. . ... : ... .. . ... ... ... ... : ... .. . ... ... ... ... : ... .. . ... ... ... ...

PATTERN 08
ROW 00 : B-2 00 8 ... ... ... : D-6 00 8 V02 202 ... : E-3 00 . ... ... ... : F-# 00 A ... ... : ... .. . ... : ... .. . ... ... ... ... : ... .. . ... ... ... ... : D#1 11 9 ... ... ... ...
ROW 01 : ... .. . ... ... ... : ... .. . ... ... ... : ... .. . ... ... ... : E-# 00 8 ... ... : ... .. . ... : ... .. . ... ... ... ... : ... .. . ... ... ... ... : ... .. . S06 ... ... ...
ROW 02 : ... .. . ... ... ... : ... .. . ... ... ... : ... .. . ... ... ... : D-# 00 A ... ... : ... .. . ... : ... .. . ... ... ... ... : ... .. . ... ... ... ... : ... .. . ... ... ... ...
ROW 03 : ... .. . ... ... ... : ... .. . ... ... ... : ... .. . ... ... ... : C-# 00 8 ... ... : ... .. . ... : ... .. . ... ... ... ... : ... .. . ... ... ... ... : ... .. . ... ... ... ...
ROW 04 : E-3 00 . ... ... ... : ... .. . ... ... ... : A-3 00 . ... ... ... : B-# 00 A ... ... : ... .. . ... : ... .. . ... ... ... ... : ... .. . ... ... ... ... : D#1 11 . ... ... ... ...
ROW 05 : ... .. . ... ... ... : ... .. . ... ... ... : ... .. . ... ... ... : A-# 00 8 ... ... : ... .. . ... : ... .. . ... ... ... ... : ... .. . ... ... ... ... : ... .. . S06 ... ... ...
ROW 06 : ... .. 9 ... ... ... : ... .. . ... ... ... : ... .. . ... ... ... : 9-# 00 A ... ... : ... .. . ... : ... .. . ... ... ... ... : ... .. . ... ... ... ... : ... .. . ... ... ... ...
ROW 07 : ... .. . ... ... ... : ... .. . ... ... ... : ... .. . ... ... ... : 8-# 00 8 ... ... : ... .. . ... : ... .. . ... ... ... ... : ... .. . ... ... ... ... : ... .. . ... ... ... ...
ROW 08 : A-3 00 . ... ... ... : ... .. . ... ... ... : D-4 00 . ... ... ... : 7-# 00 A ... ... : ... .. . ... : ... .. . ... ... ... ... : ... .. . ... ... ... ... : ... .. . ... ... ... ...
ROW 09 : ... .. . ... ... ... : ... .. . ... ... ... : ... .. . ... ... ... : 6-# 00 8 ... ... : ... .. . ... : ... .. . ... ... ... ... : ... .. . ... ... ... ... : ... .. . ... ... ... ...
ROW 0A : ... .. A ... ... ... : ... .. . ... ... ... : ... .. . ... ... ... : 5-# 00 A ... ... : ... .. . ... : ... .. . ... ... ... ... : ... .. . ... ... ... ... : ... .. . ... ... ... ...
ROW 0B : ... .. . ... ... ... : ... .. . ... ... ... : ... .. . ... ... ... : 4-# 00 8 ... ... : ... .. . ... : ... .. . ... ... ... ... : ... .. . ... ... ... ... : ... .. . ... ... ... ...
ROW 0C : C-3 00 . ... ... ... : ... .. . ... ... ... : F-3 00 . ... ... ... : 3-# 00 A ... ... : ... .. . ... : ... .. . ... ... ... ... : ... .. . ... ... ... ... : ... .. . ... ... ... ...
ROW 0D : ... .. . ... ... ... : ... .. . ... ... ... : ... .. . ... ... ... : 2-# 00 8 ... ... : ... .. . ... : ... .. . ... ... ... ... : ... .. . ... ... ... ... : ... .. . ... ... ... ...
ROW 0E : ... .. B ... ... ... : ... .. . ... ... ... : ... .. . ... ... ... : 1-# 00 A ... ... : ... .. . ... : ... .. . ... ... ... ... : ... .. . ... ... ... ... : ... .. . ... ... ... ...
ROW 0F : ... .. . ... ... ... : ... .. . ... ... ... : ... .. . ... ... ... : 0-# 00 8 ... ... : ... .. . ... : ... .. . ... ... ... ... : ... .. . ... ... ... ... : ... .. . ... ... ... ...
ROW 10 : F-3 00 . ... ... ... : ... .. . ... ... ... : A#3 00 . ... ... ... : ... .. A ... ... : ... .. . ... : D#3 10 1 ... V04 ... ... : G-3 10 1 ... V01 ... ... : ... .. . ... ... ... ...
ROW 11 : ... .. . ... ... ... : ... .. . ... ... ... : ... .. . ... ... ... : ... .. . ... ... : ... .. . ... : ... .. . ... ... ... ... : ... .. . ... ... ... ... : ... .. . ... ... ... ...
ROW 12 : ... .. . ... ... ... : ... .. . ... ... ... : ... .. . ... ... ... : ... .. . ... ... : ... .. . ... : ... .. 2 ... ... ... ... : ... .. 2 ... ... ... ... : ... .. . ... ... ... ...
ROW 13 : ... .. . ... ... ... : ... .. . ... ... ... : ... .. . ... ... ... : ... .. . ... ... : ... .. . ... : ... .. . ... ... ... ... : ... .. . ... ... ... ... : ... .. . ... ... ... ...
ROW 14 : A#3 00 C ... ... ... : ... .. . ... ... ... : D#4 00 . ... ... ... : ... .. . ... ... : ... .. . ... : ... .. 3 ... ... ... ... : ... .. 3 ... ... ... ... : A#0 11 . ... ... ... ...
ROW 15 : ... .. . ... ... ... : ... .. . ... ... ... : ... .. . ... ... ... : ... .. . ... ... : ... .. . ... : ... .. 4 ... ... ... ... : ... .. 4 ... ... ... ... : ... .. . S06 ... ... ...
ROW 16 : ... .. . ... ... ... : ... .. . ... ... ... : ... .. . ... ... ... : ... .. . ... ... : ... .. . ... : ... .. . ... ... ... ... : ... .. . ... ... ... ... : ... .. . ... ... ... ...
ROW 17 : ... .. . ... ... ... : ... .. . ... ... ... : ... .. . ... ... ... : ... .. . ... ... : ... .. . ... : ... .. . ... ... ... ... : ... .. . ... ... ... ... : ... .. . ... ... ... ...
ROW 18 : C#3 00 D ... ... ... : ... .. . ... ... ... : F#3 00 . ... ... ... : 7-# 07 A ... ... : ... .. . ... : ... .. 5 486 ... ... ... : ... .. 5 486 ... ... ... : ... .. . ... ... ... ...
ROW 19 : ... .. . ... ... ... : ... .. . ... ... ... : ... .. . ... ... ... : ... .. . ... ... : ... .. . ... : ... .. . ... ... ... ... : ... .. . ... ... ... ... : ... .. . ... ... ... ...
ROW 1A : F#3 00 . ... ... ... : ... .. . ... ... ... : B-3 00 . ... ... ... : 7-# 07 . ... ... : ... .. . ... : ... .. . ... ... ... ... : ... .. . ... ... ... ... : ... .. . ... ... ... ...
ROW 1B : ... .. . ... ... ... : ... .. . ... ... ... : ... .. . ... ... ... : --- .. . ... ... : ... .. . ... : ... .. . ... ... ... ... : ... .. . ... ... ... ... : ... .. . ... ... ... ...
ROW 1C : B-3 00 E ... ... ... : ... .. . ... ... ... : E-4 00 . ... ... ... : 7-# 07 F ... ... : ... .. . ... : ... .. . ... ... ... ... : ... .. . ... ... ... ... : D#1 11 . ... ... ... ...
ROW 1D : ... .. . ... ... ... : ... .. . ... ... ... : ... .. . ... ... ... : --- .. . ... ... : ... .. . ... : ... .. . ... ... ... ... : ... .. . ... ... ... ... : ... .. . S06 ... ... ...
ROW 1E : E-4 00 . ... ... ... : ... .. . ... ... ... : A-4 00 . ... ... ... : 7-# 07 . ... ... : ... .. . ... : ... .. . ... ... ... ... : ... .. . ... ... ... ... : ... .. . ... ... ... ...
ROW 1F : ... .. . ... ... ... : ... .. . ... ... ... : ... .. . ... ... ... : --- .. . G02 D00 : ... .. . ... : ... .. . ... ... ... ... : ... .. . ... ... ... ... : ... .. . ... ... ... ...
ROW 20 : ... .. . ... ... ... : ... .. . ... ... ... : ... .. . ... ... ... : ... .. . ... ... : ... .. . ... : G-3 10 1 400 ... ... ... : A#3 10 1 400 ... ... ... : ... .. . ... ... ... ...
ROW 21 : ... .. . ... ... ... : ... .. . ... ... ... : ... .. . ... ... ... : ... .. . ... ... : ... .. . ... : ... .. . ... ... ... ... : ... .. . ... ... ... ... : ... .. . ... ... ... ...
ROW 22 : ... .. . ... ... ... : ... .. . ... ... ... : ... .. . ... ... ... : ... .. . ... ... : ... .. . ... : ... .. 2 ... ... ... ... : ... .. 2 ... ... ... ... : ... .. . ... ... ... ...
ROW 23 : ... .. . ... ... ... : ... .. . ... ... ... : ... .. . ... ... ... : ... .. . ... ... : ... .. . ... : ... .. . ... ... ... ... : ... .. . ... ... ... ... : ... .. . ... ... ... ...
ROW 24 : ... .. . ... ... ... : ... .. . ... ... ... : ... .. . ... ... ... : ... .. . ... ... : ... .. . ... : ... .. 3 ... ... ... ... : ... .. 3 ... ... ... ... : D#1 11 . ... ... ... ...
ROW 25 : ... .. . ... ... ... : ... .. . ... ... ... : ... .. . ... ... ... : ... .. . ... ... : ... .. . ... : ... .. 4 ... ... ... ... : ... .. 4 ... ... ... ... : ... .. . S06 ... ... ...
ROW 26 : ... .. . ... ... ... : ... .. . ... ... ... : ... .. . ... ... ... : ... .. . ... ... : ... .. . ... : ... .. . ... ... ... ... : ... .. . ... ... ... ... : ... .. . ... ... ... ...
ROW 27 : ... .. . ... ... ... : ... .. . ... ... ... : ... .. . ... ... ... : ... .. . ... ... : ... .. . ... : ... .. . ... ... ... ... : ... .. . ... ... ... ... : ... .. . ... ... ... ...
ROW 28 : ... .. . ... ... ... : ... .. . ... ... ... : ... .. . ... ... ... : ... .. . ... ... : ... .. . ... : ... .. 5 486 ... ... ... : ... .. 5 486 ... ... ... : ... .. . ... ... ... ...
ROW 29 : ... .. . ... ... ... : ... .. . ... ... ... : ... .. . ... ... ... : ... .. . ... ... : ... .. . ... : ... .. . ... ... ... ... : ... .. . ... ... ... ... : ... .. . ... ... ... ...
ROW 2A : ... .. . ... ... ... : ... .. . ... ... ... : ... .. . ... ... ... : ... .. . ... ... : ... .. . ... : G-3 10 . 400 ... ... ... : A#3 10 . 400 ... ... ... : ... .. . ... ... ... ...
ROW 2B : ... .. . ... ... ... : ... .. . ... ... ... : ... .. . ... ... ... : ... .. . ... ... : ... .. . ... : G#3 10 . ... ... ... ... : C-4 10 . ... ... ... ... : ... .. . ... ... ... ...
ROW 2C : ... .. . ... ... ... : ... .. . ... ... ... : ... .. . ... ... ... : ... .. . ... ... : ... .. . ... : G-3 10 . ... ... ... ... : A#3 10 . ... ... ... ... : ... .. . ... ... ... ...
ROW 2D : ... .. . ... ... ... : ... .. . ... ... ... : ... .. . ... ... ... : ... .. . ... ... : ... .. . ... : F#3 10 . ... ... ... ... : A-3 10 . ... ... ... ... : ... .. . ... ... ... ...
ROW 2E : ... .. . ... ... ... : ... .. . ... ... ... : ... .. . ... ... ... : ... .. . ... ... : ... .. . ... : G-3 10 . ... ... ... ... : A#3 10 . ... ... ... ... : ... .. . ... ... ... ...
ROW 2F : ... .. . ... ... ... : ... .. . ... ... ... : ... .. . ... ... ... : ... .. . ... ... : ... .. . ... : ... .. . ... ... ... ... : ... .. . ... ... ... ... : ... .. . ... ... ... ...
ROW 30 : ... .. . ... ... ... : ... .. . ... ... ... : ... .. . ... ... ... : ... .. . ... ... : ... .. . ... : A#3 10 1 400 ... ... ... : D#4 10 1 400 ... ... ... : D#1 11 . ... ... ... ...
ROW 31 : ... .. . ... ... ... : ... .. . ... ... ... : ... .. . ... ... ... : ... .. . ... ... : ... .. . ... : ... .. . ... ... ... ... : ... .. . ... ... ... ... : ... .. . S06 ... ... ...
ROW 32 : ... .. . ... ... ... : ... .. . ... ... ... : ... .. . ... ... ... : ... .. . ... ... : ... .. . ... : ... .. 2 ... ... ... ... : ... .. 2 ... ... ... ... : ... .. . ... ... ... ...
ROW 33 : ... .. . ... ... ... : ... .. . ... ... ... : ... .. . ... ... ... : ... .. . ... ... : ... .. . ... : ... .. . ... ... ... ... : ... .. . ... ... ... ... : ... .. . ... ... ... ...
ROW 34 : ... .. . ... ... ... : ... .. . ... ... ... : ... .. . ... ... ... : ... .. . ... ... : ... .. . ... : ... .. 3 ... ... ... ... : ... .. 3 ... ... ... ... : D#1 11 . ... ... ... ...
ROW 35 : ... .. . ... ... ... : ... .. . ... ... ... : ... .. . ... ... ... : ... .. . ... ... : ... .. . ... : ... .. 4 ... ... ... ... : ... .. 4 ... ... ... ... : ... .. . S06 ... ... ...
ROW 36 : ... .. . ... ... ... : ... .. . ... ... ... : ... .. . ... ... ... : ... .. . ... ... : ... .. . ... : ... .. . ... ... ... ... : ... .. . ... ... ... ... : ... .. . ... ... ... ...
ROW 37 : ... .. . ... ... ... : ... .. . ... ... ... : ... .. . ... ... ... : ... .. . ... ... : ... .. . ... : ... .. . ... ... ... ... : ... .. . ... ... ... ... : ... .. . ... ... ... ...
ROW 38 : ... .. . ... ... ... : ... .. . ... ... ... : ... .. . ... ... ... : ... .. . ... ... : ... .. . ... : ... .. 5 486 ... ... ... : ... .. 5 486 ... ... ... : ... .. . ... ... ... ...
ROW 39 : ... .. . ... ... ... : ... .. . ... ... ... : ... .. . ... ... ... : ... .. . ... ... : ... .. . ... : ... .. . ... ... ... ... : ... .. . ... ... ... ... : ... .. . ... ... ... ...
ROW 3A : ... .. . ... ... ... : ... .. . ... ... ... : ... .. . ... ... ... : ... .. . ... ... : ... .. . ... : ... .. . ... ... ... ... : ... .. . ... ... ... ... : ... .. . ... ... ... ...
ROW 3B : ... .. . ... ... ... : ... .. . ... ... ... : ... .. . ... ... ... : ... .. . ... ... : ... .. . ... : ... .. . ... ... ... ... : ... .. . ... ... ... ... : ... .. . ... ... ... ...
ROW 3C : ... .. . ... ... ... : ... .. . ... ... ... : ... .. . ... ... ... : ... .. . ... ... : ... .. . ... : A#3 10 . 400 ... ... ... : C#4 10 . 400 ... ... ... : ... .. . ... ... ... ...
ROW 3D : ... .. . ... ... ... : ... .. . ... ... ... : ... .. . ... ... ... : ... .. . ... ... : ... .. . ... : B-3 10 . ... ... ... ... : D-4 10 . ... ... ... ... : ... .. . ... ... ... ...
ROW 3E : ... .. . ... ... ... : ... .. . ... ... ... : ... .. . ... ... ... : ... .. . ... ... : ... .. . ... : C-4 10 . ... ... ... ... : D#4 10 . ... ... ... ... : ... .. . ... ... ... ...
ROW 3F : ... .. . ... ... ... : ... .. . ... ... ... : ... .. . ... ... ... : ... .. . ... ... : ... .. . ... : C#4 10 . ... ... ... ... : E-4 10 . ... ... ... ... : ... .. . ... ... ... ...

PATTERN 09
ROW 00 : ... .. F V02 ... ... : F-4 00 A ... ... ... : F#3 08 . ... ... ... : E-# 04 F ... ... : ... .. . ... : D-4 10 5 ... V04 ... ... : F-4 10 5 ... V01 ... ... : D-1 11 9 ... ... ... ...
ROW 01 : ... .. . ... ... ... : F-4 00 7 ... ... ... : D-3 01 . ... ... ... : ... .. . ... ... : ... .. . ... : ... .. . ... ... ... ... : ... .. . ... ... ... ... : ... .. . S06 ... ... ...
ROW 02 : ... .. . ... ... ... : E-4 00 9 ... ... ... : ... .. . ... ... ... : ... .. . ... ... : ... .. . ... : ... .. . ... ... ... ... : ... .. . ... ... ... ... : ... .. . ... ... ... ...
ROW 03 : ... .. . ... ... ... : E-4 00 7 ... ... ... : ... .. . ... ... ... : ... .. . ... ... : ... .. . ... : ... .. . ... ... ... ... : ... .. . ... ... ... ... : ... .. . ... ... ... ...
ROW 04 : A-3 02 . 300 ... ... : D-4 00 9 ... ... ... : F#3 08 . ... ... ... : ... .. . ... ... : ... .. . ... : ... .. . ... ... ... ... : ... .. . ... ... ... ... : D-1 11 . ... ... ... ...
ROW 05 : ... .. . ... ... ... : D-4 00 7 ... ... ... : D-3 01 . ... ... ... : ... .. . ... ... : ... .. . ... : ... .. . ... ... ... ... : ... .. . ... ... ... ... : ... .. . S06 ... ... ...
ROW 06 : ... .. . ... ... ... : A-3 00 9 ... ... ... : ... .. . ... ... ... : E-# 05 . ... ... : ... .. . ... : ... .. . ... ... ... ... : ... .. . ... ... ... ... : ... .. . ... ... ... ...
ROW 07 : ... .. . ... ... ... : A-3 00 7 ... ... ... : ... .. . ... ... ... : ... .. . ... ... : ... .. . ... : ... .. . ... ... ... ... : ... .. . ... ... ... ... : ... .. . ... ... ... ...
ROW 08 : ... .. . ... ... ... : F-4 0B 9 ... ... ... : A#3 09 . ... ... ... : 6-# 07 . ... ... : ... .. . ... : ... .. . ... ... ... ... : ... .. . ... ... ... ... : ... .. . ... ... ... ...
ROW 09 : ... .. . ... ... ... : F-4 0B 7 ... ... ... : ... .. . ... ... ... : ... .. . ... ... : ... .. . ... : ... .. . ... ... ... ... : ... .. . ... ... ... ... : ... .. . ... ... ... ...
ROW 0A : ... .. . ... ... ... : E-4 0B 9 ... ... ... : ... .. . ... ... ... : E-# 05 . ... ... : ... .. . ... : ... .. . ... ... ... ... : ... .. . ... ... ... ... : ... .. . ... ... ... ...
ROW 0B : ... .. . ... ... ... : E-4 0B 7 ... ... ... : ... .. . ... ... ... : ... .. . ... ... : ... .. . ... : ... .. . ... ... ... ... : ... .. . ... ... ... ... : ... .. . ... ... ... ...
ROW 0C : G-3 02 . ... ... ... : D-4 0B 9 ... ... ... : ... .. . ... ... ... : E-# 04 . ... ... : ... .. . ... : C#4 10 . ... ... ... ... : F-4 10 . ... ... ... ... : ... .. . ... ... ... ...
ROW 0D : ... .. . ... ... ... : D-4 0B 7 ... ... ... : ... .. . ... ... ... : ... .. . ... ... : ... .. . ... : D-4 10 . ... ... ... ... : F#4 10 . ... ... ... ... : ... .. . ... ... ... ...
ROW 0E : ... .. . ... ... ... : A-3 0B 9 ... ... ... : ... .. . ... ... ... : E-# 05 . ... ... : ... .. . ... : D#4 10 . ... ... ... ... : G-4 10 . ... ... ... ... : ... .. . ... ... ... ...
ROW 0F : ... .. . ... ... ... : A-3 0B 7 ... ... ... : ... .. . ... ... ... : ... .. . ... ... : ... .. . ... : E-4 10 . ... ... ... ... : G#4 10 . ... ... ... ... : ... .. . ... ... ... ...
ROW 10 : ... .. . ... ... ... : F-4 00 9 ... ... ... : ... .. . ... ... ... : E-# 05 . ... ... : ... .. . ... : F-4 10 . ... ... ... ... : A-4 10 . ... ... ... ... : ... .. . ... ... ... ...
ROW 11 : ... .. . ... ... ... : F-4 00 7 ... ... ... : ... .. . ... ... ... : ... .. . ... ... : ... .. . ... : ... .. . ... ... ... ... : ... .. . ... ... ... ... : ... .. . ... ... ... ...
ROW 12 : ... .. . ... ... ... : E-4 00 9 ... ... ... : ... .. . ... ... ... : E-# 05 . ... ... : ... .. . ... : ... .. . ... ... ... ... : ... .. . ... ... ... ... : ... .. . ... ... ... ...
ROW 13 : ... .. . ... ... ... : E-4 00 7 ... ... ... : ... .. . ... ... ... : ... .. . ... ... : ... .. . ... : ... .. . ... ... ... ... : ... .. . ... ... ... ... : ... .. . ... ... ... ...
ROW 14 : A-3 02 . ... ... ... : D-4 00 9 ... ... ... : F#3 08 . ... ... ... : E-# 04 . ... ... : ... .. . ... : ... .. . ... ... ... ... : ... .. . ... ... ... ... : A-0 11 . ... ... ... ...
ROW 15 : G#3 02 . ... ... ... : D-4 00 7 ... ... ... : A-2 01 . ... ... ... : ... .. . ... ... : ... .. . ... : ... .. . ... ... ... ... : ... .. . ... ... ... ... : ... .. . S06 ... ... ...
ROW 16 : G-3 02 . ... ... ... : A-3 00 9 ... ... ... : ... .. . ... ... ... : E-# 05 . ... ... : ... .. . ... : ... .. . ... ... ... ... : ... .. . ... ... ... ... : ... .. . ... ... ... ...
ROW 17 : F#3 02 . ... ... ... : A-3 00 7 ... ... ... : ... .. . ... ... ... : ... .. . ... ... : ... .. . ... : ... .. . ... ... ... ... : ... .. . ... ... ... ... : ... .. . ... ... ... ...
ROW 18 : F-3 02 . 300 ... ... : F-4 0B 9 ... ... ... : A#3 09 . ... ... ... : 6-# 07 . ... ... : ... .. . ... : ... .. 4 486 ... ... ... : ... .. 4 486 ... ... ... : ... .. . ... ... ... ...
ROW 19 : ... .. . ... ... ... : F-4 0B 7 ... ... ... : ... .. . ... ... ... : ... .. . ... ... : ... .. . ... : ... .. . ... ... ... ... : ... .. . ... ... ... ... : ... .. . ... ... ... ...
ROW 1A : ... .. . ... ... ... : E-4 0B 9 ... ... ... : ... .. . ... ... ... : E-# 05 . ... ... : ... .. . ... : ... .. . ... ... ... ... : ... .. . ... ... ... ... : ... .. . ... ... ... ...
ROW 1B : ... .. . ... ... ... : E-4 0B 7 ... ... ... : ... .. . ... ... ... : ... .. . ... ... : ... .. . ... : ... .. . ... ... ... ... : ... .. . ... ... ... ... : ... .. . ... ... ... ...
ROW 1C : ... .. . ... ... ... : D-4 0B 9 ... ... ... : F#3 08 . ... ... ... : E-# 04 . ... ... : ... .. . ... : ... .. 3 ... ... ... ... : ... .. 3 ... ... ... ... : A-0 11 . ... ... ... ...
ROW 1D : ... .. . ... ... ... : D-4 0B 7 ... ... ... : A-2 01 . ... ... ... : ... .. . ... ... : ... .. . ... : ... .. . ... ... ... ... : ... .. . ... ... ... ... : ... .. . S06 ... ... ...
ROW 1E : ... .. . ... ... ... : A-3 0B 9 ... ... ... : ... .. . ... ... ... : E-# 05 . ... ... : ... .. . ... : ... .. . ... ... ... ... : ... .. . ... ... ... ... : ... .. . ... ... ... ...
ROW 1F : ... .. . ... ... ... : A-3 0B 7 ... ... ... : ... .. . ... ... ... : ... .. . ... ... : ... .. . ... : ... .. . ... ... ... ... : ... .. . ... ... ... ... : ... .. . ... ... ... ...
ROW 20 : ... .. . 466 ... ... : F-4 00 9 ... ... ... : F#3 08 . ... ... ... : E-# 04 . ... ... : ... .. . ... : ... .. 2 ... ... ... ... : ... .. 2 ... ... ... ... : D-1 11 . ... ... ... ...
ROW 21 : ... .. . ... ... ... : F-4 00 7 ... ... ... : D-3 01 . ... ... ... : ... .. . ... ... : ... .. . ... : ... .. . ... ... ... ... : ... .. . ... ... ... ... : ... .. . S06 ... ... ...
ROW 22 : ... .. . ... ... ... : E-4 00 9 ... ... ... : ... .. . ... ... ... : ... .. . ... ... : ... .. . ... : ... .. . ... ... ... ... : ... .. . ... ... ... ... : ... .. . ... ... ... ...
ROW 23 : ... .. . ... ... ... : E-4 00 7 ... ... ... : ... .. . ... ... ... : ... .. . ... ... : ... .. . ... : ... .. . ... ... ... ... : ... .. . ... ... ... ... : ... .. . ... ... ... ...
ROW 24 : ... .. 6 ... ... ... : D-4 00 9 ... ... ... : F#3 08 . ... ... ... : ... .. . ... ... : ... .. . ... : ... .. 1 ... ... ... ... : ... .. 1 ... ... ... ... : D-1 11 . ... ... ... ...
ROW 25 : ... .. . ... ... ... : D-4 00 7 ... ... ... : D-3 01 . ... ... ... : ... .. . ... ... : ... .. . ... : ... .. . ... ... ... ... : ... .. . ... ... ... ... : ... .. . S06 ... ... ...
ROW 26 : ... .. 3 ... ... ... : A-3 00 9 ... ... ... : ... .. . ... ... ... : E-# 05 . ... ... : ... .. . ... : ... .. . ... ... ... ... : ... .. . ... ... ... ... : ... .. . ... ... ... ...
ROW 27 : ... .. 1 ... ... ... : A-3 00 7 ... ... ... : ... .. . ... ... ... : ... .. . ... ... : ... .. . ... : ... .. . ... ... ... ... : ... .. . ... ... ... ... : ... .. . ... ... ... ...
ROW 28 : F-3 02 4 ... ... ... : F-4 0B 9 ... ... ... : A#3 09 . ... ... ... : 6-# 07 . ... ... : ... .. . ... : --- .. 5 400 ... ... ... : --- .. . 400 ... ... ... : ... .. . ... ... ... ...
ROW 29 : ... .. . ... ... ... : F-4 0B 7 ... ... ... : ... .. . ... ... ... : ... .. . ... ... : ... .. . ... : ... .. . ... ... ... ... : ... .. . ... ... ... ... : ... .. . ... ... ... ...
ROW 2A : ... .. . ... ... ... : E-4 0B 9 ... ... ... : ... .. . ... ... ... : E-# 05 . ... ... : ... .. . ... : ... .. . ... ... ... ... : ... .. . ... ... ... ... : ... .. . ... ... ... ...
ROW 2B : ... .. . ... ... ... : E-4 0B 7 ... ... ... : ... .. . ... ... ... : ... .. . ... ... : ... .. . ... : ... .. . ... ... ... ... : ... .. . ... ... ... ... : ... .. . ... ... ... ...
ROW 2C : ... .. . ... ... ... : D-4 0B 9 ... ... ... : ... .. . ... ... ... : E-# 04 . ... ... : ... .. . ... : ... .. . ... ... ... ... : ... .. . ... ... ... ... : ... .. . ... ... ... ...
ROW 2D : ... .. . ... ... ... : D-4 0B 7 ... ... ... : ... .. . ... ... ... : ... .. . ... ... : ... .. . ... : ... .. . ... ... ... ... : ... .. . ... ... ... ... : ... .. . ... ... ... ...
ROW 2E : ... .. 2 ... ... ... : A-3 0B 9 ... ... ... : ... .. . ... ... ... : E-# 05 . ... ... : ... .. . ... : ... .. . ... ... ... ... : ... .. . ... ... ... ... : ... .. . ... ... ... ...
ROW 2F : ... .. 1 ... ... ... : A-3 0B 7 ... ... ... : ... .. . ... ... ... : ... .. . ... ... : ... .. . ... : ... .. . ... ... ... ... : ... .. . ... ... ... ... : ... .. . ... ... ... ...
ROW 30 : F-3 02 2 ... ... ... : F-4 00 9 ... ... ... : F#3 08 . ... ... ... : E-# 04 . ... ... : ... .. . ... : ... .. . ... ... ... ... : ... .. . ... ... ... ... : D-1 11 . ... ... ... ...
ROW 31 : ... .. . ... ... ... : F-4 00 7 ... ... ... : D-3 01 . ... ... ... : ... .. . ... ... : ... .. . ... : ... .. . ... ... ... ... : ... .. . ... ... ... ... : ... .. . S06 ... ... ...
ROW 32 : ... .. . ... ... ... : E-4 00 9 ... ... ... : ... .. . ... ... ... : E-# 05 . ... ... : ... .. . ... : ... .. . ... ... ... ... : ... .. . ... ... ... ... : ... .. . ... ... ... ...
ROW 33 : ... .. . ... ... ... : E-4 00 7 ... ... ... : ... .. . ... ... ... : ... .. . ... ... : ... .. . ... : ... .. . ... ... ... ... : ... .. . ... ... ... ... : ... .. . ... ... ... ...
ROW 34 : D#3 02 F 400 V01 ... : D-4 00 9 ... ... ... : F#3 08 . ... ... ... : E-# 04 . ... ... : ... .. . ... : G-3 10 5 ... V02 ... ... : D#5 10 3 ... V04 P81 ... : D-1 11 . ... ... ... ...
ROW 35 : E-3 02 . ... ... ... : D-4 00 7 ... ... ... : D-3 01 . ... ... ... : ... .. . ... ... : ... .. . ... : G#3 10 . ... ... ... ... : E-5 10 . ... ... ... ... : ... .. . S06 ... ... ...
ROW 36 : F-3 02 . ... ... ... : A-3 00 9 ... ... ... : ... .. . ... ... ... : E-# 05 . ... ... : ... .. . ... : A-3 10 . ... ... ... ... : F-5 10 . ... ... ... ... : ... .. . ... ... ... ...
ROW 37 : ... .. . ... ... ... : A-3 00 7 ... ... ... : ... .. . ... ... ... : ... .. . ... ... : ... .. . ... : ... .. . ... ... ... ... : ... .. . ... ... ... ... : ... .. . ... ... ... ...
ROW 38 : G-3 02 . ... ... ... : F-3 00 9 ... ... ... : A#3 09 . ... ... ... : 6-# 07 . ... ... : ... .. . ... : C-4 10 . ... ... ... ... : G-5 10 . ... ... ... ... : ... .. . ... ... ... ...
ROW 39 : ... .. . ... ... ... : F-3 00 7 ... ... ... : ... .. . ... ... ... : ... .. . ... ... : ... .. . ... : ... .. . ... ... ... ... : ... .. . ... ... ... ... : ... .. . ... ... ... ...
ROW 3A : ... .. . ... ... ... : E-3 00 9 ... ... ... : ... .. . ... ... ... : E-# 05 . ... ... : ... .. . ... : ... .. . ... ... ... ... : ... .. . ... ... ... ... : ... .. . ... ... ... ...
ROW 3B : ... .. . S01 ... ... : E-3 00 7 ... ... ... : ... .. . ... ... ... : ... .. . ... ... : ... .. . ... : ... .. . ... ... ... ... : ... .. . S01 ... ... ... : ... .. . ... ... ... ...
ROW 3C : G-3 02 . ... ... ... : D-3 00 9 ... ... ... : F#3 08 . ... ... ... : E-# 04 . ... ... : ... .. . ... : E-4 10 . ... ... ... ... : G-5 10 . ... ... ... ... : F-1 11 . ... ... ... ...
ROW 3D : ... .. . ... ... ... : D-3 00 7 ... ... ... : F-3 00 . ... ... ... : ... .. . ... ... : ... .. . ... : ... .. . ... ... ... ... : ... .. . ... ... ... ... : ... .. . ... ... ... ...
ROW 3E : ... .. . ... ... ... : A-2 00 9 ... ... ... : ... .. . ... ... ... : E-# 05 . ... ... : ... .. . ... : ... .. . ... ... ... ... : ... .. . ... ... ... ... : ... .. . ... ... ... ...
ROW 3F : ... .. . ... ... ... : A-2 00 7 ... ... ... : ... .. . ... ... ... : ... .. . ... ... : ... .. . ... : ... .. . ... ... ... ... : ... .. . ... ... ... ... : ... .. . ... ... ... ...

PATTERN 0A
ROW 00 : ... .. F Q22 V01 ... : F-3 0E 4 A30 V01 ... : ... .. . 206 ... ... : E-# 04 F ... ... : ... .. . ... : ... .. 5 Q21 V02 ... ... : ... .. 3 Q22 V04 P81 ... : ... .. 9 206 ... ... ...
ROW 01 : ... .. . ... ... ... : ... .. . ... ... ... : ... .. . ... ... ... : ... .. . ... ... : ... .. . ... : ... .. . ... ... ... ... : ... .. . ... ... ... ... : ... .. . ... ... ... ...
ROW 02 : ... .. . ... ... ... : ... .. . ... ... ... : ... .. . ... ... ... : E-# 05 . ... ... : ... .. . ... : ... .. . ... ... ... ... : ... .. . ... ... ... ... : ... .. . ... ... ... ...
ROW 03 : ... .. . ... ... ... : ... .. . ... ... ... : ... .. . ... ... ... : ... .. . ... ... : ... .. . ... : ... .. . ... ... ... ... : ... .. . ... ... ... ... : --- .. . 200 ... ... ...
ROW 04 : ... .. . ... ... ... : ... .. . ... ... ... : F#3 08 . 200 ... ... : E-# 04 . ... ... : ... .. . ... : ... .. . ... ... ... ... : ... .. . ... ... ... ... : F-1 11 . ... ... ... ...
ROW 05 : ... .. . ... ... ... : ... .. . ... ... ... : F-3 01 . ... ... ... : ... .. . ... ... : ... .. . ... : ... .. . ... ... ... ... : ... .. . ... ... ... ... : ... .. . S06 ... ... ...
ROW 06 : ... .. . ... ... ... : ... .. . ... ... ... : ... .. . ... ... ... : E-# 05 . ... ... : ... .. . ... : ... .. . ... ... ... ... : ... .. . ... ... ... ... : ... .. . ... ... ... ...
ROW 07 : ... .. . S01 ... ... : ... .. . ... ... ... : ... .. . ... ... ... : ... .. . ... ... : ... .. . ... : ... .. . S01 ... ... ... : ... .. . S01 ... ... ... : ... .. . ... ... ... ...
ROW 08 : A-3 02 . ... ... ... : ... .. 4 V02 ... ... : A#3 09 . ... ... ... : 6-# 07 . ... ... : ... .. . ... : F-4 10 . ... ... ... ... : A-5 10 . ... ... ... ... : ... .. . ... ... ... ...
ROW 09 : ... .. . ... ... ... : ... .. . ... ... ... : ... .. . ... ... ... : ... .. . ... ... : ... .. . ... : ... .. . ... ... ... ... : ... .. . ... ... ... ... : ... .. . ... ... ... ...
ROW 0A : ... .. . ... ... ... : ... .. . ... ... ... : ... .. . ... ... ... : E-# 05 . ... ... : ... .. . ... : ... .. . ... ... ... ... : ... .. . ... ... ... ... : ... .. . ... ... ... ...
ROW 0B : ... .. . ... ... ... : ... .. . ... ... ... : ... .. . ... ... ... : ... .. . ... ... : ... .. . ... : ... .. . ... ... ... ... : ... .. . ... ... ... ... : ... .. . ... ... ... ...
ROW 0C : G#3 02 . ... ... ... : ... .. . ... ... ... : ... .. . ... ... ... : E-# 04 . ... ... : ... .. . ... : E-4 10 . ... ... ... ... : G#5 10 . ... ... ... ... : ... .. . ... ... ... ...
ROW 0D : G-3 02 . ... ... ... : ... .. . ... ... ... : ... .. . ... ... ... : ... .. . ... ... : ... .. . ... : D#4 10 . ... ... ... ... : G-5 10 . ... ... ... ... : ... .. . ... ... ... ...
ROW 0E : F#3 02 . ... ... ... : ... .. . ... ... ... : ... .. . ... ... ... : E-# 05 . ... ... : ... .. . ... : D-4 10 . ... ... ... ... : F#5 10 . ... ... ... ... : ... .. . ... ... ... ...
ROW 0F : F-3 02 . ... ... ... : ... .. . ... ... ... : ... .. . ... ... ... : ... .. . ... ... : ... .. . ... : C#4 10 . ... ... ... ... : F-5 10 . ... ... ... ... : ... .. . ... ... ... ...
ROW 10 : A#3 02 . 200 ... ... : F-5 0B 9 A00 ... ... : ... .. . ... ... ... : E-# 05 . ... ... : ... .. . ... : C-4 10 . ... ... ... ... : A#5 10 . 200 ... ... ... : ... .. . ... ... ... ...
ROW 11 : ... .. . ... ... ... : F-5 0B 7 ... ... ... : ... .. . ... ... ... : ... .. . ... ... : ... .. . ... : ... .. . ... ... ... ... : ... .. . ... ... ... ... : ... .. . ... ... ... ...
ROW 12 : ... .. . ... ... ... : C-5 0B 9 ... ... ... : ... .. . ... ... ... : E-# 05 . ... ... : ... .. . ... : ... .. . ... ... ... ... : ... .. . ... ... ... ... : ... .. . ... ... ... ...
ROW 13 : ... .. . ... ... ... : C-5 0B 7 ... ... ... : ... .. . ... ... ... : ... .. . ... ... : ... .. . ... : ... .. . ... ... ... ... : ... .. . ... ... ... ... : ... .. . ... ... ... ...
ROW 14 : C-4 02 . 322 ... ... : A#4 0B 9 ... ... ... : F#3 08 . ... ... ... : E-# 04 . ... ... : ... .. . ... : F-4 10 . 322 ... ... ... : C-6 10 . 322 ... ... ... : F-1 11 . ... ... ... ...
ROW 15 : ... .. . ... ... ... : A#4 0B 7 ... ... ... : F-3 01 . ... ... ... : ... .. . ... ... : ... .. . ... : ... .. . ... ... ... ... : ... .. . ... ... ... ... : ... .. . S06 ... ... ...
ROW 16 : ... .. . ... ... ... : A-4 0B 9 ... ... ... : ... .. . ... ... ... : E-# 05 . ... ... : ... .. . ... : ... .. . ... ... ... ... : ... .. . ... ... ... ... : ... .. . ... ... ... ...
ROW 17 : ... .. . ... ... ... : A-4 0B 7 ... ... ... : ... .. . ... ... ... : ... .. . ... ... : ... .. . ... : ... .. . ... ... ... ... : ... .. . ... ... ... ... : ... .. . ... ... ... ...
ROW 18 : --- .. . ... ... ... : F-4 00 9 ... ... ... : A#3 09 . ... ... ... : 6-# 07 . ... ... : ... .. . ... : --- .. . ... ... ... ... : --- .. . ... ... ... ... : ... .. . ... ... ... ...
ROW 19 : ... .. . ... ... ... : F-4 00 7 ... ... ... : ... .. . ... ... ... : ... .. . ... ... : ... .. . ... : ... .. . ... ... ... ... : ... .. . ... ... ... ... : ... .. . ... ... ... ...
ROW 1A : ... .. . ... ... ... : C-4 00 9 ... ... ... : ... .. . ... ... ... : E-# 05 . ... ... : ... .. . ... : ... .. . ... ... ... ... : ... .. . ... ... ... ... : ... .. . ... ... ... ...
ROW 1B : ... .. . ... ... ... : C-4 00 7 ... ... ... : ... .. . ... ... ... : ... .. . ... ... : ... .. . ... : ... .. . ... ... ... ... : ... .. . ... ... ... ... : ... .. . ... ... ... ...
ROW 1C : G-3 02 . Q22 ... ... : A#3 00 9 ... ... ... : F#3 08 . ... ... ... : E-# 04 . ... ... : ... .. . ... : F-4 10 . ... ... ... ... : G-5 10 . Q22 ... ... ... : C-1 11 . ... ... ... ...
ROW 1D : ... .. . ... ... ... : A#3 00 7 ... ... ... : C-3 00 . ... ... ... : ... .. . ... ... : ... .. . ... : ... .. . ... ... ... ... : ... .. . ... ... ... ... : ... .. . ... ... ... ...
ROW 1E : ... .. . ... ... ... : A-3 00 9 ... ... ... : ... .. . ... ... ... : E-# 05 . ... ... : ... .. . ... : ... .. . ... ... ... ... : ... .. . ... ... ... ... : ... .. . ... ... ... ...
ROW 1F : ... .. . ... ... ... : A-3 00 7 ... ... ... : ... .. . ... ... ... : ... .. . ... ... : ... .. . ... : ... .. . ... ... ... ... : ... .. . ... ... ... ... : ... .. . ... ... ... ...
ROW 20 : --- .. . ... ... ... : C-4 0E 4 A30 V01 ... : ... .. . 204 ... ... : E-# 05 . ... ... : ... .. . ... : --- .. . ... ... ... ... : --- .. . ... ... ... ... : ... .. . 204 ... ... ...
ROW 21 : ... .. . ... ... ... : ... .. . ... ... ... : ... .. . ... ... ... : ... .. . ... ... : ... .. . ... : ... .. . ... ... ... ... : ... .. . ... ... ... ... : ... .. . ... ... ... ...
ROW 22 : ... .. . ... ... ... : ... .. . ... ... ... : ... .. . ... ... ... : E-# 05 . ... ... : ... .. . ... : ... .. . ... ... ... ... : ... .. . ... ... ... ... : ... .. . ... ... ... ...
ROW 23 : ... .. . ... ... ... : ... .. . ... ... ... : ... .. . ... ... ... : ... .. . ... ... : ... .. . ... : ... .. . ... ... ... ... : ... .. . ... ... ... ... : --- .. . ... ... ... ...
ROW 24 : G-3 00 . ... ... ... : ... .. . ... ... ... : F#3 08 . 200 ... ... : E-# 04 . ... ... : ... .. . ... : E-4 10 . ... ... ... ... : G-5 10 . ... ... ... ... : C-1 11 . 200 ... ... ...
ROW 25 : ... .. . ... ... ... : ... .. . ... ... ... : C-3 01 . ... ... ... : ... .. . ... ... : ... .. . ... : ... .. . ... ... ... ... : ... .. . ... ... ... ... : ... .. . S06 ... ... ...
ROW 26 : ... .. . ... ... ... : ... .. . ... ... ... : ... .. . ... ... ... : E-# 05 . ... ... : ... .. . ... : ... .. . ... ... ... ... : ... .. . ... ... ... ... : ... .. . ... ... ... ...
ROW 27 : ... .. . ... ... ... : ... .. . ... ... ... : ... .. . ... ... ... : ... .. . ... ... : ... .. . ... : ... .. . ... ... ... ... : ... .. . ... ... ... ... : ... .. . ... ... ... ...
ROW 28 : ... .. . ... ... ... : ... .. 4 V02 ... ... : A#3 09 . ... ... ... : 6-# 07 . ... ... : ... .. . ... : ... .. . ... ... ... ... : ... .. . ... ... ... ... : ... .. . ... ... ... ...
ROW 29 : ... .. . ... ... ... : ... .. . ... ... ... : ... .. . ... ... ... : ... .. . ... ... : ... .. . ... : ... .. . ... ... ... ... : ... .. . ... ... ... ... : ... .. . ... ... ... ...
ROW 2A : ... .. . ... ... ... : ... .. . ... ... ... : ... .. . ... ... ... : E-# 05 . ... ... : ... .. . ... : ... .. . ... ... ... ... : ... .. . ... ... ... ... : ... .. . ... ... ... ...
ROW 2B : ... .. . ... ... ... : ... .. . ... ... ... : ... .. . ... ... ... : ... .. . ... ... : ... .. . ... : ... .. . ... ... ... ... : ... .. . ... ... ... ... : ... .. . ... ... ... ...
ROW 2C : ... .. . 466 ... ... : ... .. . ... ... ... : ... .. . ... ... ... : E-# 04 . ... ... : ... .. . ... : ... .. . 466 ... ... ... : ... .. . 466 ... ... ... : ... .. . ... ... ... ...
ROW 2D : ... .. . ... ... ... : ... .. . ... ... ... : ... .. . ... ... ... : ... .. . ... ... : ... .. . ... : ... .. . ... ... ... ... : ... .. . ... ... ... ... : ... .. . ... ... ... ...
ROW 2E : ... .. . ... ... ... : ... .. . ... ... ... : ... .. . ... ... ... : E-# 05 . ... ... : ... .. . ... : ... .. . ... ... ... ... : ... .. . ... ... ... ... : ... .. . ... ... ... ...
ROW 2F : ... .. . ... ... ... : ... .. . ... ... ... : ... .. . ... ... ... : ... .. . ... ... : ... .. . ... : ... .. . ... ... ... ... : ... .. . ... ... ... ... : ... .. . ... ... ... ...
ROW 30 : ... .. . ... ... ... : G-4 0B 9 ... ... ... : F#3 08 . ... ... ... : E-# 04 . ... ... : ... .. . ... : ... .. . ... ... ... ... : ... .. . ... ... ... ... : C-1 11 . ... ... ... ...
ROW 31 : ... .. . ... ... ... : G-4 0B 7 ... ... ... : C-3 01 . ... ... ... : ... .. . ... ... : ... .. . ... : ... .. . ... ... ... ... : ... .. . ... ... ... ... : ... .. . S06 ... ... ...
ROW 32 : ... .. . ... ... ... : E-4 0B 9 ... ... ... : ... .. . ... ... ... : E-# 05 . ... ... : ... .. . ... : ... .. . ... ... ... ... : ... .. . ... ... ... ... : ... .. . ... ... ... ...
ROW 33 : ... .. . ... ... ... : E-4 0B 7 ... ... ... : ... .. . ... ... ... : ... .. . ... ... : ... .. . ... : ... .. . ... ... ... ... : ... .. . ... ... ... ... : ... .. . ... ... ... ...
ROW 34 : E-3 02 . 400 ... ... : D-4 0B 9 ... ... ... : F#3 08 . ... ... ... : E-# 04 . ... ... : ... .. . ... : G-3 10 . 400 ... ... ... : E-5 10 . 400 ... ... ... : C-1 11 . ... ... ... ...
ROW 35 : ... .. . ... ... ... : D-4 0B 7 ... ... ... : C-3 01 . ... ... ... : ... .. . ... ... : ... .. . ... : ... .. . ... ... ... ... : ... .. . ... ... ... ... : ... .. . S06 ... ... ...
ROW 36 : ... .. . ... ... ... : C-4 0B 9 ... ... ... : ... .. . ... ... ... : E-# 05 . ... ... : ... .. . ... : ... .. . ... ... ... ... : ... .. . ... ... ... ... : ... .. . ... ... ... ...
ROW 37 : ... .. . ... ... ... : C-4 0B 7 ... ... ... : ... .. . ... ... ... : ... .. . ... ... : ... .. . ... : ... .. . ... ... ... ... : ... .. . ... ... ... ... : ... .. . ... ... ... ...
ROW 38 : D-3 02 . ... ... ... : G-3 00 9 ... ... ... : A#3 09 . ... ... ... : 6-# 07 . ... ... : ... .. . ... : B-3 10 . ... ... ... ... : D-5 10 . ... ... ... ... : ... .. . ... ... ... ...
ROW 39 : ... .. . ... ... ... : G-3 00 7 ... ... ... : ... .. . ... ... ... : ... .. . ... ... : ... .. . ... : ... .. . ... ... ... ... : ... .. . ... ... ... ... : ... .. . ... ... ... ...
ROW 3A : ... .. . ... ... ... : E-3 00 9 ... ... ... : ... .. . ... ... ... : E-# 05 . ... ... : ... .. . ... : ... .. . ... ... ... ... : ... .. . ... ... ... ... : ... .. . ... ... ... ...
ROW 3B : ... .. . ... ... ... : E-3 00 7 ... ... ... : ... .. . ... ... ... : ... .. . ... ... : ... .. . ... : ... .. . ... ... ... ... : ... .. . ... ... ... ... : ... .. . ... ... ... ...
ROW 3C : A#2 02 . Q32 ... ... : D-3 00 9 ... ... ... : F#3 08 . ... ... ... : E-# 04 . ... ... : ... .. . ... : G-4 10 . ... ... ... ... : A#4 10 . Q32 ... ... ... : G-0 11 . ... ... ... ...
ROW 3D : ... .. . ... ... ... : D-3 00 7 ... ... ... : G-2 00 . ... ... ... : ... .. . ... ... : ... .. . ... : ... .. . ... ... ... ... : ... .. . ... ... ... ... : ... .. . ... ... ... ...
ROW 3E : ... .. . ... ... ... : C-3 00 9 ... ... ... : ... .. . ... ... ... : E-# 05 . ... ... : ... .. . ... : ... .. . ... ... ... ... : ... .. . ... ... ... ... : ... .. . ... ... ... ...
ROW 3F : ... .. . ... ... ... : C-3 00 7 ... ... ... : ... .. . ... ... ... : ... .. . ... ... : ... .. . ... : ... .. . ... ... ... ... : ... .. . ... ... ... ... : ... .. . ... ... ... ...

PATTERN 0B
ROW 00 : ... .. F ... ... ... : G-4 0B 9 ... ... ... : D-3 00 . ... ... ... : ... .. . ... ... : ... .. . ... : ... .. . 206 ... ... ... : ... .. . ... 206 ... ... : ... .. 9 204 ... ... ...
ROW 01 : ... .. . ... ... ... : G-4 0B 7 ... ... ... : ... .. . ... ... ... : ... .. . ... ... : ... .. . ... : ... .. . ... ... ... ... : ... .. . ... ... ... ... : ... .. . ... ... ... ...
ROW 02 : ... .. . ... ... ... : D-4 0B 9 ... ... ... : ... .. . ... ... ... : ... .. . ... ... : ... .. . ... : ... .. . ... ... ... ... : ... .. . ... ... ... ... : ... .. . ... ... ... ...
ROW 03 : ... .. . ... ... ... : D-4 0B 7 ... ... ... : ... .. . ... ... ... : ... .. . ... ... : ... .. . ... : ... .. . ... ... ... ... : ... .. . ... ... ... ... : --- .. . ... ... ... ...
ROW 04 : ... .. . ... ... ... : C-4 0B 9 ... ... ... : ... .. . 203 ... ... : ... .. . ... ... : ... .. . ... : G-4 10 7 322 V04 200 ... : B-3 10 5 322 V04 200 ... : G-0 11 . 200 ... ... ...
ROW 05 : ... .. . ... ... ... : C-4 0B 7 ... ... ... : ... .. . ... ... ... : ... .. . ... ... : ... .. . ... : ... .. . ... ... ... ... : ... .. . ... ... ... ... : ... .. . S06 ... ... ...
ROW 06 : ... .. . ... ... ... : D-4 0B 9 ... ... ... : ... .. . ... ... ... : ... .. . ... ... : ... .. . ... : ... .. . ... ... ... ... : ... .. . ... ... ... ... : ... .. . ... ... ... ...
ROW 07 : ... .. . ... ... ... : D-4 0B 7 ... ... ... : ... .. . ... ... ... : ... .. . ... ... : ... .. . ... : ... .. . ... ... ... ... : ... .. . ... ... ... ... : ... .. . ... ... ... ...
ROW 08 : ... .. . 466 ... ... : G-4 0B 9 ... ... ... : D-2 00 . 338 ... ... : ... .. . ... ... : ... .. . ... : A-4 10 . 300 ... ... ... : D-4 10 . 300 ... ... ... : ... .. . ... ... ... ...
ROW 09 : ... .. . ... ... ... : G-4 0B 7 ... ... ... : ... .. . ... ... ... : ... .. . ... ... : ... .. . ... : ... .. . ... ... ... ... : ... .. . ... ... ... ... : ... .. . ... ... ... ...
ROW 0A : ... .. . ... ... ... : D-4 0B 9 ... ... ... : ... .. . ... ... ... : ... .. . ... ... : ... .. . ... : ... .. . ... ... ... ... : ... .. . ... ... ... ... : ... .. . ... ... ... ...
ROW 0B : ... .. . ... ... ... : D-4 0B 7 ... ... ... : ... .. . ... ... ... : ... .. . ... ... : ... .. . ... : ... .. . ... ... ... ... : ... .. . ... ... ... ... : ... .. . ... ... ... ...
ROW 0C : ... .. . ... ... ... : C-4 0B 9 ... ... ... : --- .. . ... ... ... : ... .. . ... ... : ... .. . ... : B-4 10 . ... ... ... ... : G-4 10 . ... ... ... ... : ... .. . ... ... ... ...
ROW 0D : ... .. . ... ... ... : C-4 0B 7 ... ... ... : ... .. . ... ... ... : ... .. . ... ... : ... .. . ... : ... .. . ... ... ... ... : ... .. . ... ... ... ... : ... .. . ... ... ... ...
ROW 0E : ... .. . ... ... ... : D-4 0B 9 ... ... ... : ... .. . ... ... ... : ... .. . ... ... : ... .. . ... : ... .. . ... ... ... ... : ... .. . ... ... ... ... : ... .. . ... ... ... ...
ROW 0F : ... .. . ... ... ... : D-4 0B 7 ... ... ... : ... .. . ... ... ... : ... .. . ... ... : ... .. . ... : ... .. . ... ... ... ... : ... .. . ... ... ... ... : ... .. . ... ... ... ...
ROW 10 : ... .. . ... ... ... : G-4 00 9 V00 ... ... : D-2 00 . ... ... ... : ... .. . ... ... : ... .. . ... : C-5 10 . ... ... ... ... : A-4 10 . ... ... ... ... : ... .. . ... ... ... ...
ROW 11 : ... .. . ... ... ... : G-4 00 7 ... ... ... : ... .. . ... ... ... : ... .. . ... ... : ... .. . ... : ... .. . ... ... ... ... : ... .. . ... ... ... ... : ... .. . ... ... ... ...
ROW 12 : ... .. . ... ... ... : D-4 00 9 ... ... ... : ... .. . ... ... ... : ... .. . ... ... : ... .. . ... : ... .. . ... ... ... ... : ... .. . ... ... ... ... : ... .. . ... ... ... ...
ROW 13 : ... .. . ... ... ... : D-4 00 7 ... ... ... : ... .. . ... ... ... : ... .. . ... ... : ... .. . ... : ... .. . ... ... ... ... : ... .. . ... ... ... ... : ... .. . ... ... ... ...
ROW 14 : D-3 02 . 400 ... ... : C-4 00 9 ... ... ... : --- .. . ... ... ... : ... .. . ... ... : ... .. . ... : B-4 10 . ... ... ... ... : G-4 10 . ... ... ... ... : G-0 11 . ... ... ... ...
ROW 15 : ... .. . ... ... ... : C-4 00 7 ... ... ... : ... .. . ... ... ... : ... .. . ... ... : ... .. . ... : ... .. . ... ... ... ... : ... .. . ... ... ... ... : ... .. . S06 ... ... ...
ROW 16 : ... .. . ... ... ... : D-4 00 9 ... ... ... : ... .. . ... ... ... : ... .. . ... ... : ... .. . ... : ... .. . ... ... ... ... : ... .. . ... ... ... ... : ... .. . ... ... ... ...
ROW 17 : ... .. . ... ... ... : D-4 00 7 ... ... ... : ... .. . ... ... ... : ... .. . ... ... : ... .. . ... : ... .. . ... ... ... ... : ... .. . ... ... ... ... : ... .. . ... ... ... ...
ROW 18 : C-3 02 . ... ... ... : G-4 00 9 V01 ... ... : D-2 01 . ... ... ... : ... .. . ... ... : ... .. . ... : A-4 10 . ... ... ... ... : D-4 10 . ... ... ... ... : ... .. . ... ... ... ...
ROW 19 : ... .. . ... ... ... : G-4 00 7 ... ... ... : ... .. . ... ... ... : ... .. . ... ... : ... .. . ... : ... .. . ... ... ... ... : ... .. . ... ... ... ... : ... .. . ... ... ... ...
ROW 1A : ... .. . ... ... ... : D-4 00 9 ... ... ... : ... .. . ... ... ... : ... .. . ... ... : ... .. . ... : ... .. . ... ... ... ... : ... .. . ... ... ... ... : ... .. . ... ... ... ...
ROW 1B : ... .. . ... ... ... : D-4 00 7 ... ... ... : ... .. . ... ... ... : ... .. . ... ... : ... .. . ... : ... .. . ... ... ... ... : ... .. . ... ... ... ... : ... .. . ... ... ... ...
ROW 1C : A-2 02 . Q22 ... ... : C-4 00 9 ... ... ... : D-3 00 . ... ... ... : ... .. . ... ... : ... .. . ... : D-5 10 . 300 ... ... ... : B-4 10 . 300 ... ... ... : G-0 11 . ... ... ... ...
ROW 1D : ... .. . ... ... ... : C-4 00 7 ... ... ... : ... .. . ... ... ... : ... .. . ... ... : ... .. . ... : ... .. . ... ... ... ... : ... .. . ... ... ... ... : ... .. . ... ... ... ...
ROW 1E : ... .. . ... ... ... : D-4 00 9 ... ... ... : ... .. . ... ... ... : ... .. . ... ... : ... .. . ... : ... .. . ... ... ... ... : ... .. . ... ... ... ... : ... .. . ... ... ... ...
ROW 1F : ... .. . ... ... ... : D-4 00 7 ... ... ... : ... .. . ... ... ... : ... .. . ... ... : ... .. . ... : ... .. . ... ... ... ... : ... .. . ... ... ... ... : ... .. . ... ... ... ...
ROW 20 : ... .. . ... ... ... : G-4 0B 9 ... ... ... : ... .. . 203 ... ... : ... .. . ... ... : ... .. . ... : ... .. . 206 ... ... ... : ... .. . 206 ... ... ... : ... .. . 206 ... ... ...
ROW 21 : ... .. . ... ... ... : G-4 0B 7 ... ... ... : ... .. . ... ... ... : ... .. . ... ... : ... .. . ... : ... .. . ... ... ... ... : ... .. . ... ... ... ... : ... .. . ... ... ... ...
ROW 22 : ... .. . ... ... ... : D-4 0B 9 ... ... ... : ... .. . ... ... ... : ... .. . ... ... : ... .. . ... : ... .. . ... ... ... ... : ... .. . ... ... ... ... : ... .. . ... ... ... ...
ROW 23 : ... .. . ... ... ... : D-4 0B 7 ... ... ... : ... .. . ... ... ... : ... .. . ... ... : ... .. . ... : ... .. . ... ... ... ... : ... .. . ... ... ... ... : --- .. . ... ... ... ...
ROW 24 : D-3 02 . ... ... ... : B-3 0B 9 ... ... ... : D-2 00 . 338 ... ... : ... .. . ... ... : ... .. . ... : B-4 10 . 200 ... ... ... : G-4 10 . 200 ... ... ... : G-0 11 . 200 ... ... ...
ROW 25 : ... .. . ... ... ... : B-3 0B 7 ... ... ... : ... .. . ... ... ... : ... .. . ... ... : ... .. . ... : ... .. . ... ... ... ... : ... .. . ... ... ... ... : ... .. . S06 ... ... ...
ROW 26 : ... .. . ... ... ... : D-4 0B 9 ... ... ... : ... .. . ... ... ... : ... .. . ... ... : ... .. . ... : ... .. . ... ... ... ... : ... .. . ... ... ... ... : ... .. . ... ... ... ...
ROW 27 : ... .. . ... ... ... : D-4 0B 7 ... ... ... : ... .. . ... ... ... : ... .. . ... ... : ... .. . ... : ... .. . ... ... ... ... : ... .. . ... ... ... ... : ... .. . ... ... ... ...
ROW 28 : G-3 02 . ... ... ... : G-4 0B 9 ... ... ... : --- .. . ... ... ... : ... .. . ... ... : ... .. . ... : ... .. . ... ... ... ... : ... .. . ... ... ... ... : ... .. . ... ... ... ...
ROW 29 : ... .. . ... ... ... : G-4 0B 7 ... ... ... : ... .. . ... ... ... : ... .. . ... ... : ... .. . ... : ... .. . ... ... ... ... : ... .. . ... ... ... ... : ... .. . ... ... ... ...
ROW 2A : ... .. . ... ... ... : D-4 0B 9 ... ... ... : ... .. . ... ... ... : ... .. . ... ... : ... .. . ... : ... .. . ... ... ... ... : ... .. . ... ... ... ... : ... .. . ... ... ... ...
ROW 2B : ... .. . ... ... ... : D-4 0B 7 ... ... ... : ... .. . ... ... ... : ... .. . ... ... : ... .. . ... : ... .. . ... ... ... ... : ... .. . ... ... ... ... : ... .. . ... ... ... ...
ROW 2C : A-3 02 . ... ... ... : B-3 0B 9 ... ... ... : ... .. . ... ... ... : ... .. . ... ... : ... .. . ... : A-4 10 . 305 ... ... ... : D-4 10 . 305 ... ... ... : ... .. . ... ... ... ...
ROW 2D : ... .. . ... ... ... : B-3 0B 7 ... ... ... : ... .. . ... ... ... : ... .. . ... ... : ... .. . ... : ... .. . ... ... ... ... : ... .. . ... ... ... ... : ... .. . ... ... ... ...
ROW 2E : ... .. . ... ... ... : D-4 0B 9 ... ... ... : ... .. . ... ... ... : ... .. . ... ... : ... .. . ... : ... .. . ... ... ... ... : ... .. . ... ... ... ... : ... .. . ... ... ... ...
ROW 2F : ... .. . ... ... ... : D-4 0B 7 ... ... ... : ... .. . ... ... ... : ... .. . ... ... : ... .. . ... : ... .. . ... ... ... ... : ... .. . ... ... ... ... : ... .. . ... ... ... ...
ROW 30 : ... .. . Q22 ... ... : G-3 00 9 V00 ... ... : ... .. . ... ... ... : ... .. . ... ... : ... .. . ... : ... .. . ... ... ... ... : ... .. . ... ... ... ... : F-0 11 . 200 ... ... ...
ROW 31 : ... .. . ... ... ... : G-3 00 7 ... ... ... : ... .. . ... ... ... : ... .. . ... ... : ... .. . ... : ... .. . ... ... ... ... : ... .. . ... ... ... ... : ... .. . S06 ... ... ...
ROW 32 : ... .. . ... ... ... : A-3 00 9 ... ... ... : ... .. . ... ... ... : ... .. . ... ... : ... .. . ... : ... .. . ... ... ... ... : ... .. . ... ... ... ... : ... .. . ... ... ... ...
ROW 33 : ... .. . ... ... ... : A-3 00 7 ... ... ... : ... .. . ... ... ... : ... .. . ... ... : ... .. . ... : --- .. . ... ... ... ... : --- .. . ... ... ... ... : ... .. . ... ... ... ...
ROW 34 : ... .. . R22 ... ... : B-3 00 9 V01 ... ... : ... .. . ... ... ... : ... .. . ... ... : ... .. . ... : G-4 10 . 300 ... ... ... : B-3 10 . 300 ... ... ... : F-0 11 . 200 ... ... ...
ROW 35 : ... .. . ... ... ... : B-3 00 7 ... ... ... : ... .. . ... ... ... : ... .. . ... ... : ... .. . ... : ... .. . ... ... ... ... : ... .. . ... ... ... ... : ... .. . S06 ... ... ...
ROW 36 : ... .. . ... ... ... : D-4 00 9 ... ... ... : ... .. . ... ... ... : ... .. . ... ... : ... .. . ... : ... .. . ... ... ... ... : ... .. . ... ... ... ... : ... .. . ... ... ... ...
ROW 37 : ... .. . ... ... ... : D-4 00 7 ... ... ... : ... .. . ... ... ... : ... .. . ... ... : ... .. . ... : ... .. . ... ... ... ... : ... .. . ... ... ... ... : ... .. . ... ... ... ...
ROW 38 : G-3 02 . ... ... ... : G-4 00 9 V00 ... ... : ... .. . ... ... ... : ... .. . ... ... : ... .. . ... : ... .. . 466 ... ... ... : ... .. . 466 ... ... ... : ... .. . ... ... ... ...
ROW 39 : ... .. . ... ... ... : G-4 00 7 ... ... ... : ... .. . ... ... ... : ... .. . ... ... : ... .. . ... : ... .. . ... ... ... ... : ... .. . ... ... ... ... : ... .. . ... ... ... ...
ROW 3A : ... .. . ... ... ... : A-4 00 9 ... ... ... : ... .. . ... ... ... : ... .. . ... ... : ... .. . ... : ... .. . ... ... ... ... : ... .. . ... ... ... ... : ... .. . ... ... ... ...
ROW 3B : ... .. . ... ... ... : A-4 00 7 ... ... ... : ... .. . ... ... ... : ... .. . ... ... : ... .. . ... : ... .. . ... ... ... ... : ... .. . ... ... ... ... : ... .. . ... ... ... ...
ROW 3C : D-4 02 F V02 ... ... : B-4 00 9 V01 ... ... : ... .. . ... ... ... : ... .. . ... ... : ... .. . ... : ... .. . ... ... ... ... : ... .. . ... ... ... ... : F-0 11 . 200 ... ... ...
ROW 3D : ... .. . ... ... ... : B-4 00 7 ... ... ... : ... .. . ... ... ... : ... .. . ... ... : ... .. . ... : ... .. . ... ... ... ... : ... .. . ... ... ... ... : ... .. . S06 ... ... ...
ROW 3E : ... .. . ... ... ... : D-5 00 9 ... ... ... : ... .. . ... ... ... : ... .. . ... ... : ... .. . ... : ... .. . ... ... ... ... : ... .. . ... ... ... ... : ... .. . ... ... ... ...
ROW 3F : ... .. . ... ... ... : D-5 00 7 ... ... ... : ... .. . ... ... ... : ... .. . ... ... : ... .. . ... : ... .. . 400 ... ... ... : ... .. . 400 ... ... ... : ... .. . ... ... ... ...

PATTERN 0C
ROW 00 : ... .. . ... ... ... : F-4 00 9 ... ... ... : ... .. . 204 ... ... : E-# 04 F ... ... : ... .. . ... : --- .. . ... ... ... ... : --- .. . ... ... ... ... : D#1 11 9 ... ... ... ...
ROW 01 : ... .. . ... ... ... : F-4 00 7 ... ... ... : ... .. . ... ... ... : ... .. . ... ... : ... .. . ... : ... .. . ... ... ... ... : ... .. . ... ... ... ... : ... .. . S06 ... ... ...
ROW 02 : ... .. . ... ... ... : E-4 00 9 ... ... ... : ... .. . ... ... ... : E-# 05 . ... ... : ... .. . ... : ... .. . ... ... ... ... : ... .. . ... ... ... ... : ... .. . ... ... ... ...
ROW 03 : ... .. . ... ... ... : E-4 00 7 ... ... ... : ... .. . ... ... ... : ... .. . ... ... : ... .. . ... : ... .. . ... ... ... ... : ... .. . ... ... ... ... : ... .. . ... ... ... ...
ROW 04 : ... .. . ... ... ... : D-4 00 9 ... ... ... : F#3 08 . 200 ... ... : E-# 04 . ... ... : ... .. . ... : ... .. . ... ... ... ... : ... .. . ... ... ... ... : D#1 11 . ... ... ... ...
ROW 05 : ... .. . ... ... ... : D-4 00 7 ... ... ... : G-2 01 . ... ... ... : ... .. . ... ... : ... .. . ... : ... .. . ... ... ... ... : ... .. . ... ... ... ... : ... .. . S06 ... ... ...
ROW 06 : ... .. . ... ... ... : A-3 00 9 ... ... ... : ... .. . ... ... ... : E-# 05 . ... ... : ... .. . ... : ... .. . ... ... ... ... : ... .. . ... ... ... ... : ... .. . ... ... ... ...
ROW 07 : ... .. . ... ... ... : A-3 00 7 ... ... ... : ... .. . ... ... ... : ... .. . ... ... : ... .. . ... : ... .. . ... ... ... ... : ... .. . ... ... ... ... : ... .. . ... ... ... ...
ROW 08 : ... .. . 466 ... ... : F-4 0B 9 ... ... ... : A#3 09 . ... ... ... : 6-# 07 . ... ... : ... .. . ... : ... .. . ... ... ... ... : ... .. . ... ... ... ... : ... .. . ... ... ... ...
ROW 09 : ... .. . ... ... ... : F-4 0B 7 ... ... ... : ... .. . ... ... ... : ... .. . ... ... : ... .. . ... : ... .. . ... ... ... ... : ... .. . ... ... ... ... : ... .. . ... ... ... ...
ROW 0A : ... .. . ... ... ... : E-4 0B 9 ... ... ... : ... .. . ... ... ... : E-# 05 . ... ... : ... .. . ... : ... .. . ... ... ... ... : ... .. . ... ... ... ... : ... .. . ... ... ... ...
ROW 0B : ... .. . ... ... ... : E-4 0B 7 ... ... ... : ... .. . ... ... ... : ... .. . ... ... : ... .. . ... : ... .. . ... ... ... ... : ... .. . ... ... ... ... : ... .. . ... ... ... ...
ROW 0C : ... .. 6 ... ... ... : D-4 0B 9 ... ... ... : ... .. . ... ... ... : E-# 04 . ... ... : ... .. . ... : ... .. . ... ... ... ... : ... .. . ... ... ... ... : ... .. . ... ... ... ...
ROW 0D : ... .. . ... ... ... : D-4 0B 7 ... ... ... : ... .. . ... ... ... : ... .. . ... ... : ... .. . ... : ... .. . ... ... ... ... : ... .. . ... ... ... ... : ... .. . ... ... ... ...
ROW 0E : ... .. 3 ... ... ... : A-3 0B 9 ... ... ... : ... .. . ... ... ... : E-# 05 . ... ... : ... .. . ... : ... .. . ... ... ... ... : ... .. . ... ... ... ... : ... .. . ... ... ... ...
ROW 0F : ... .. 1 ... ... ... : A-3 0B 7 ... ... ... : ... .. . ... ... ... : ... .. . ... ... : ... .. . ... : ... .. . ... ... ... ... : ... .. . ... ... ... ... : ... .. . ... ... ... ...
ROW 10 : A-3 02 4 ... ... ... : F-4 00 9 ... ... ... : ... .. . ... ... ... : E-# 05 . ... ... : ... .. . ... : D#3 10 1 ... V04 ... ... : G-3 10 1 ... V01 ... ... : ... .. . ... ... ... ...
ROW 11 : ... .. . ... ... ... : F-4 00 7 ... ... ... : ... .. . ... ... ... : ... .. . ... ... : ... .. . ... : ... .. . ... ... ... ... : ... .. . ... ... ... ... : ... .. . ... ... ... ...
ROW 12 : ... .. . ... ... ... : E-4 00 9 ... ... ... : ... .. . ... ... ... : E-# 05 . ... ... : ... .. . ... : ... .. 2 ... ... ... ... : ... .. 2 ... ... ... ... : ... .. . ... ... ... ...
ROW 13 : ... .. . ... ... ... : E-4 00 7 ... ... ... : ... .. . ... ... ... : ... .. . ... ... : ... .. . ... : ... .. . ... ... ... ... : ... .. . ... ... ... ... : ... .. . ... ... ... ...
ROW 14 : ... .. . ... ... ... : D-4 00 9 ... ... ... : F#3 08 . ... ... ... : E-# 04 . ... ... : ... .. . ... : ... .. 3 ... ... ... ... : ... .. 3 ... ... ... ... : A#0 11 . ... ... ... ...
ROW 15 : ... .. . ... ... ... : D-4 00 7 ... ... ... : G-2 01 . ... ... ... : ... .. . ... ... : ... .. . ... : ... .. 4 ... ... ... ... : ... .. 4 ... ... ... ... : ... .. . S06 ... ... ...
ROW 16 : ... .. 2 ... ... ... : A-3 00 9 ... ... ... : ... .. . ... ... ... : E-# 05 . ... ... : ... .. . ... : ... .. . ... ... ... ... : ... .. . ... ... ... ... : ... .. . ... ... ... ...
ROW 17 : ... .. 1 ... ... ... : A-3 00 7 ... ... ... : ... .. . ... ... ... : ... .. . ... ... : ... .. . ... : ... .. . ... ... ... ... : ... .. . ... ... ... ... : ... .. . ... ... ... ...
ROW 18 : A-3 02 2 ... ... ... : F-4 0B 9 ... ... ... : A#3 09 . ... ... ... : 6-# 07 . ... ... : ... .. . ... : ... .. 5 486 ... ... ... : ... .. 5 486 ... ... ... : ... .. . ... ... ... ...
ROW 19 : ... .. . ... ... ... : F-4 0B 7 ... ... ... : ... .. . ... ... ... : ... .. . ... ... : ... .. . ... : ... .. . ... ... ... ... : ... .. . ... ... ... ... : ... .. . ... ... ... ...
ROW 1A : ... .. . ... ... ... : E-4 0B 9 ... ... ... : ... .. . ... ... ... : E-# 05 . ... ... : ... .. . ... : ... .. . ... ... ... ... : ... .. . ... ... ... ... : ... .. . ... ... ... ...
ROW 1B : ... .. . ... ... ... : E-4 0B 7 ... ... ... : ... .. . ... ... ... : ... .. . ... ... : ... .. . ... : ... .. . ... ... ... ... : ... .. . ... ... ... ... : ... .. . ... ... ... ...
ROW 1C : ... .. . ... ... ... : D-4 0B 9 ... ... ... : F#3 08 . ... ... ... : E-# 04 . ... ... : ... .. . ... : ... .. . ... ... ... ... : ... .. . ... ... ... ... : D#1 11 . ... ... ... ...
ROW 1D : ... .. . ... ... ... : D-4 0B 7 ... ... ... : G-2 00 . ... ... ... : ... .. . ... ... : ... .. . ... : ... .. . ... ... ... ... : ... .. . ... ... ... ... : ... .. . S06 ... ... ...
ROW 1E : ... .. . ... ... ... : A-3 0B 9 ... ... ... : ... .. . ... ... ... : E-# 05 . ... ... : ... .. . ... : ... .. . ... ... ... ... : ... .. . ... ... ... ... : ... .. . ... ... ... ...
ROW 1F : ... .. . ... ... ... : A-3 0B 7 ... ... ... : ... .. . ... ... ... : ... .. . ... ... : ... .. . ... : ... .. . ... ... ... ... : ... .. . ... ... ... ... : ... .. . ... ... ... ...
ROW 20 : A-3 02 1 ... ... ... : F-4 00 9 ... ... ... : ... .. . 206 ... ... : E-# 05 . ... ... : ... .. . ... : G-3 10 1 400 ... ... ... : A#3 10 1 400 ... ... ... : ... .. . ... ... ... ...
ROW 21 : ... .. . ... ... ... : F-4 00 7 ... ... ... : ... .. . ... ... ... : ... .. . ... ... : ... .. . ... : ... .. . ... ... ... ... : ... .. . ... ... ... ... : ... .. . ... ... ... ...
ROW 22 : ... .. . ... ... ... : E-4 00 9 ... ... ... : ... .. . ... ... ... : E-# 05 . ... ... : ... .. . ... : ... .. 2 ... ... ... ... : ... .. 2 ... ... ... ... : ... .. . ... ... ... ...
ROW 23 : ... .. . ... ... ... : E-4 00 7 ... ... ... : ... .. . ... ... ... : ... .. . ... ... : ... .. . ... : ... .. . ... ... ... ... : ... .. . ... ... ... ... : ... .. . ... ... ... ...
ROW 24 : ... .. . ... ... ... : D-4 00 9 ... ... ... : F#3 08 . 200 ... ... : E-# 04 . ... ... : ... .. . ... : ... .. 3 ... ... ... ... : ... .. 3 ... ... ... ... : D#1 11 . ... ... ... ...
ROW 25 : ... .. . ... ... ... : D-4 00 7 ... ... ... : G-2 01 . ... ... ... : ... .. . ... ... : ... .. . ... : ... .. 4 ... ... ... ... : ... .. 4 ... ... ... ... : ... .. . S06 ... ... ...
ROW 26 : ... .. . ... ... ... : A-3 00 9 ... ... ... : ... .. . ... ... ... : E-# 05 . ... ... : ... .. . ... : ... .. . ... ... ... ... : ... .. . ... ... ... ... : ... .. . ... ... ... ...
ROW 27 : ... .. . ... ... ... : A-3 00 7 ... ... ... : ... .. . ... ... ... : ... .. . ... ... : ... .. . ... : ... .. . ... ... ... ... : ... .. . ... ... ... ... : ... .. . ... ... ... ...
ROW 28 : ... .. 0 ... ... ... : F-4 0B 9 ... ... ... : A#3 09 . ... ... ... : 6-# 07 . ... ... : ... .. . ... : ... .. 5 486 ... ... ... : ... .. 5 486 ... ... ... : ... .. . ... ... ... ...
ROW 29 : ... .. . ... ... ... : F-4 0B 7 ... ... ... : ... .. . ... ... ... : ... .. . ... ... : ... .. . ... : ... .. . ... ... ... ... : ... .. . ... ... ... ... : ... .. . ... ... ... ...
ROW 2A : ... .. . ... ... ... : E-4 0B 9 ... ... ... : ... .. . ... ... ... : E-# 05 . ... ... : ... .. . ... : G-3 10 . 400 ... ... ... : A#3 10 . 400 ... ... ... : ... .. . ... ... ... ...
ROW 2B : ... .. . ... ... ... : E-4 0B 7 ... ... ... : ... .. . ... ... ... : ... .. . ... ... : ... .. . ... : G#3 10 . ... ... ... ... : C-4 10 . ... ... ... ... : ... .. . ... ... ... ...
ROW 2C : A#2 02 F 400 V00 ... : D-4 0B 9 ... ... ... : ... .. . ... ... ... : E-# 04 . ... ... : ... .. . ... : G-3 10 . ... ... ... ... : A#3 10 . ... ... ... ... : ... .. . ... ... ... ...
ROW 2D : ... .. . ... ... ... : D-4 0B 7 ... ... ... : ... .. . ... ... ... : ... .. . ... ... : ... .. . ... : F#3 10 . ... ... ... ... : A-3 10 . ... ... ... ... : ... .. . ... ... ... ...
ROW 2E : ... .. . ... ... ... : A-3 0B 9 ... ... ... : ... .. . ... ... ... : E-# 05 . ... ... : ... .. . ... : G-3 10 . ... ... ... ... : A#3 10 . ... ... ... ... : ... .. . ... ... ... ...
ROW 2F : ... .. . ... ... ... : A-3 0B 7 ... ... ... : ... .. . ... ... ... : ... .. . ... ... : ... .. . ... : ... .. . ... ... ... ... : ... .. . ... ... ... ... : ... .. . ... ... ... ...
ROW 30 : G-3 02 . 338 ... ... : F-4 00 9 ... ... ... : F#3 08 . ... ... ... : B-# 00 A 422 A01 : ... .. . ... : A#3 10 1 400 ... ... ... : D#4 10 1 400 ... ... ... : D#1 11 . ... ... ... ...
ROW 31 : ... .. . ... ... ... : F-4 00 7 ... ... ... : F-2 00 . ... ... ... : ... .. . ... ... : ... .. . ... : ... .. . ... ... ... ... : ... .. . ... ... ... ... : ... .. . S06 ... ... ...
ROW 32 : ... .. . ... ... ... : C-4 00 9 ... ... ... : ... .. . ... ... ... : ... .. . ... ... : ... .. . ... : ... .. 2 ... ... ... ... : ... .. 2 ... ... ... ... : ... .. . ... ... ... ...
ROW 33 : ... .. . ... ... ... : C-4 00 7 ... ... ... : ... .. . ... ... ... : ... .. . ... ... : ... .. . ... : ... .. . ... ... ... ... : ... .. . ... ... ... ... : ... .. . ... ... ... ...
ROW 34 : F-3 02 . 300 ... ... : A-3 00 9 ... ... ... : F#3 08 . ... ... ... : ... .. . ... ... : ... .. . ... : ... .. 3 ... ... ... ... : ... .. 3 ... ... ... ... : D#1 11 . ... ... ... ...
ROW 35 : ... .. . ... ... ... : A-3 00 7 ... ... ... : F-2 00 . ... ... ... : ... .. . ... ... : ... .. . ... : ... .. 4 ... ... ... ... : ... .. 4 ... ... ... ... : ... .. . S06 ... ... ...
ROW 36 : ... .. . ... ... ... : G-3 00 9 ... ... ... : ... .. . ... ... ... : ... .. . ... ... : ... .. . ... : ... .. . ... ... ... ... : ... .. . ... ... ... ... : ... .. . ... ... ... ...
ROW 37 : ... .. . ... ... ... : G-3 00 7 ... ... ... : ... .. . ... ... ... : ... .. . ... ... : ... .. . ... : ... .. . ... ... ... ... : ... .. . ... ... ... ... : ... .. . ... ... ... ...
ROW 38 : E-3 02 . ... ... ... : F-3 00 9 ... ... ... : A#3 09 . ... ... ... : 7-# 07 F 400 A00 : ... .. . ... : ... .. 5 486 ... ... ... : ... .. 5 486 ... ... ... : ... .. . ... ... ... ...
ROW 39 : ... .. . ... ... ... : F-3 00 7 ... ... ... : ... .. . ... ... ... : ... .. . ... ... : ... .. . ... : ... .. . ... ... ... ... : ... .. . ... ... ... ... : ... .. . ... ... ... ...
ROW 3A : ... .. . ... ... ... : C-3 00 9 ... ... ... : ... .. . ... ... ... : 7-# 07 . ... ... : ... .. . ... : ... .. . ... ... ... ... : ... .. . ... ... ... ... : ... .. . ... ... ... ...
ROW 3B : ... .. . ... ... ... : C-3 00 7 ... ... ... : ... .. . ... ... ... : ... .. . ... ... : ... .. . ... : ... .. . ... ... ... ... : ... .. . ... ... ... ... : ... .. . ... ... ... ...
ROW 3C : D-3 02 . ... ... ... : A#3 0D A ... ... ... : F#3 08 . ... ... ... : 5-# 07 . ... ... : ... .. . ... : A#3 10 . 400 ... ... ... : C#4 10 . 400 ... ... ... : ... .. . ... ... ... ...
ROW 3D : ... .. . ... ... ... : ... .. . ... ... ... : F-2 00 . ... ... ... : ... .. . ... ... : ... .. . ... : B-3 10 . ... ... ... ... : D-4 10 . ... ... ... ... : ... .. . ... ... ... ...
ROW 3E : ... .. . ... ... ... : ... .. . ... ... ... : ... .. . ... ... ... : 3-# 07 . ... ... : ... .. . ... : C-4 10 . ... ... ... ... : D#4 10 . ... ... ... ... : ... .. . ... ... ... ...
ROW 3F : ... .. . ... ... ... : ... .. . ... ... ... : ... .. . ... ... ... : ... .. . ... ... : ... .. . ... : C#4 10 . ... ... ... ... : E-4 10 . ... ... ... ... : ... .. . ... ... ... ...

PATTERN 0D
ROW 00 : D-4 02 F V02 ... ... : --- .. . ... ... ... : F#3 08 . ... ... ... : E-# 04 F ... ... : ... .. . ... : D-4 10 5 ... V04 ... ... : F-4 10 5 ... V01 ... ... : D-1 11 9 ... ... ... ...
ROW 01 : ... .. . ... ... ... : ... .. . ... ... ... : D-3 01 . ... ... ... : ... .. . ... ... : ... .. . ... : ... .. . ... ... ... ... : ... .. . ... ... ... ... : ... .. . S06 ... ... ...
ROW 02 : ... .. . ... ... ... : ... .. . ... ... ... : ... .. . ... ... ... : E-# 05 . ... ... : ... .. . ... : ... .. . ... ... ... ... : ... .. . ... ... ... ... : ... .. . ... ... ... ...
ROW 03 : ... .. . ... ... ... : ... .. . ... ... ... : ... .. . ... ... ... : ... .. . ... ... : ... .. . ... : ... .. . ... ... ... ... : ... .. . ... ... ... ... : ... .. . ... ... ... ...
ROW 04 : ... .. . ... ... ... : ... .. . ... ... ... : F#3 08 . ... ... ... : E-# 04 . ... ... : ... .. . ... : ... .. . ... ... ... ... : ... .. . ... ... ... ... : D-1 11 . ... ... ... ...
ROW 05 : ... .. . ... ... ... : ... .. . ... ... ... : D-3 01 . ... ... ... : ... .. . ... ... : ... .. . ... : ... .. . ... ... ... ... : ... .. . ... ... ... ... : ... .. . S06 ... ... ...
ROW 06 : ... .. . ... ... ... : ... .. . ... ... ... : ... .. . ... ... ... : E-# 05 . ... ... : ... .. . ... : ... .. . ... ... ... ... : ... .. . ... ... ... ... : ... .. . ... ... ... ...
ROW 07 : ... .. . ... ... ... : ... .. . ... ... ... : ... .. . ... ... ... : ... .. . ... ... : ... .. . ... : ... .. . ... ... ... ... : ... .. . ... ... ... ... : ... .. . ... ... ... ...
ROW 08 : ... .. . 466 ... ... : ... .. . ... ... ... : A#3 09 . ... ... ... : 6-# 07 . ... ... : ... .. . ... : ... .. . ... ... ... ... : ... .. . ... ... ... ... : ... .. . ... ... ... ...
ROW 09 : ... .. . ... ... ... : ... .. . ... ... ... : ... .. . ... ... ... : ... .. . ... ... : ... .. . ... : ... .. . ... ... ... ... : ... .. . ... ... ... ... : ... .. . ... ... ... ...
ROW 0A : ... .. . ... ... ... : ... .. . ... ... ... : ... .. . ... ... ... : E-# 05 . ... ... : ... .. . ... : ... .. . ... ... ... ... : ... .. . ... ... ... ... : ... .. . ... ... ... ...
ROW 0B : ... .. . ... ... ... : ... .. . ... ... ... : ... .. . ... ... ... : ... .. . ... ... : ... .. . ... : ... .. . ... ... ... ... : ... .. . ... ... ... ... : ... .. . ... ... ... ...
ROW 0C : ... .. . ... ... ... : ... .. . ... ... ... : ... .. . ... ... ... : E-# 04 . ... ... : ... .. . ... : C#4 10 . ... ... ... ... : F-4 10 . ... ... ... ... : ... .. . ... ... ... ...
ROW 0D : ... .. . ... ... ... : ... .. . ... ... ... : ... .. . ... ... ... : ... .. . ... ... : ... .. . ... : C-4 10 . ... ... ... ... : F-4 10 . ... ... ... ... : ... .. . ... ... ... ...
ROW 0E : ... .. . ... ... ... : ... .. . ... ... ... : ... .. . ... ... ... : E-# 05 . ... ... : ... .. . ... : B-3 10 . ... ... ... ... : E-4 10 . ... ... ... ... : ... .. . ... ... ... ...
ROW 0F : ... .. . ... ... ... : ... .. . ... ... ... : ... .. . ... ... ... : ... .. . ... ... : ... .. . ... : A#3 10 . ... ... ... ... : D#4 10 . ... ... ... ... : ... .. . ... ... ... ...
ROW 10 : ... .. 8 ... ... ... : ... .. . ... ... ... : ... .. . ... ... ... : E-# 05 . ... ... : ... .. . ... : A-3 10 . ... ... ... ... : D-4 10 . ... ... ... ... : ... .. . ... ... ... ...
ROW 11 : ... .. . ... ... ... : ... .. . ... ... ... : ... .. . ... ... ... : ... .. . ... ... : ... .. . ... : ... .. . ... ... ... ... : ... .. . ... ... ... ... : ... .. . ... ... ... ...
ROW 12 : ... .. 3 ... ... ... : ... .. . ... ... ... : ... .. . ... ... ... : E-# 05 . ... ... : ... .. . ... : ... .. . ... ... ... ... : ... .. . ... ... ... ... : ... .. . ... ... ... ...
ROW 13 : ... .. . ... ... ... : ... .. . ... ... ... : ... .. . ... ... ... : ... .. . ... ... : ... .. . ... : ... .. . ... ... ... ... : ... .. . ... ... ... ... : ... .. . ... ... ... ...
ROW 14 : F-4 02 F 400 Q12 ... : ... .. . ... ... ... : F#3 08 . ... ... ... : E-# 04 . ... ... : ... .. . ... : ... .. . ... ... ... ... : ... .. . ... ... ... ... : A-0 11 . ... ... ... ...
ROW 15 : ... .. . ... ... ... : ... .. . ... ... ... : A-2 01 . ... ... ... : ... .. . ... ... : ... .. . ... : ... .. . ... ... ... ... : ... .. . ... ... ... ... : ... .. . S06 ... ... ...
ROW 16 : ... .. . ... ... ... : ... .. . ... ... ... : ... .. . ... ... ... : E-# 05 . ... ... : ... .. . ... : ... .. . ... ... ... ... : ... .. . ... ... ... ... : ... .. . ... ... ... ...
ROW 17 : ... .. . ... ... ... : ... .. . ... ... ... : ... .. . ... ... ... : ... .. . ... ... : ... .. . ... : ... .. . ... ... ... ... : ... .. . ... ... ... ... : ... .. . ... ... ... ...
ROW 18 : ... .. . ... ... ... : ... .. . ... ... ... : A#3 09 . ... ... ... : 6-# 07 . ... ... : ... .. . ... : ... .. 4 486 ... ... ... : ... .. 4 486 ... ... ... : ... .. . ... ... ... ...
ROW 19 : ... .. . ... ... ... : ... .. . ... ... ... : ... .. . ... ... ... : ... .. . ... ... : ... .. . ... : ... .. . ... ... ... ... : ... .. . ... ... ... ... : ... .. . ... ... ... ...
ROW 1A : ... .. . ... ... ... : ... .. . ... ... ... : ... .. . ... ... ... : E-# 05 . ... ... : ... .. . ... : ... .. . ... ... ... ... : ... .. . ... ... ... ... : ... .. . ... ... ... ...
ROW 1B : ... .. . ... ... ... : ... .. . ... ... ... : ... .. . ... ... ... : ... .. . ... ... : ... .. . ... : ... .. . ... ... ... ... : ... .. . ... ... ... ... : ... .. . ... ... ... ...
ROW 1C : C-4 02 . ... ... ... : ... .. . ... ... ... : F#3 08 . ... ... ... : E-# 04 . ... ... : ... .. . ... : ... .. 3 ... ... ... ... : ... .. 3 ... ... ... ... : A-0 11 . ... ... ... ...
ROW 1D : D-4 02 . 302 ... ... : ... .. . ... ... ... : A-2 01 . ... ... ... : ... .. . ... ... : ... .. . ... : ... .. . ... ... ... ... : ... .. . ... ... ... ... : ... .. . S06 ... ... ...
ROW 1E : ... .. . ... ... ... : ... .. . ... ... ... : ... .. . ... ... ... : E-# 05 . ... ... : ... .. . ... : ... .. . ... ... ... ... : ... .. . ... ... ... ... : ... .. . ... ... ... ...
ROW 1F : ... .. . ... ... ... : ... .. . ... ... ... : ... .. . ... ... ... : ... .. . ... ... : ... .. . ... : ... .. . ... ... ... ... : ... .. . ... ... ... ... : ... .. . ... ... ... ...
ROW 20 : ... .. . ... ... ... : ... .. . ... ... ... : F#3 08 . ... ... ... : E-# 05 . ... ... : ... .. . ... : ... .. 2 ... ... ... ... : ... .. 2 ... ... ... ... : D-1 11 . ... ... ... ...
ROW 21 : ... .. . ... ... ... : ... .. . ... ... ... : D-3 01 . ... ... ... : ... .. . ... ... : ... .. . ... : ... .. . ... ... ... ... : ... .. . ... ... ... ... : ... .. . S06 ... ... ...
ROW 22 : ... .. . ... ... ... : ... .. . ... ... ... : ... .. . ... ... ... : E-# 05 . ... ... : ... .. . ... : ... .. . ... ... ... ... : ... .. . ... ... ... ... : ... .. . ... ... ... ...
ROW 23 : ... .. . ... ... ... : ... .. . ... ... ... : ... .. . ... ... ... : ... .. . ... ... : ... .. . ... : ... .. . ... ... ... ... : ... .. . ... ... ... ... : ... .. . ... ... ... ...
ROW 24 : C-4 02 . 305 ... ... : ... .. . ... ... ... : F#3 08 . ... ... ... : E-# 04 . ... ... : ... .. . ... : ... .. 1 ... ... ... ... : ... .. 1 ... ... ... ... : D-1 11 . ... ... ... ...
ROW 25 : ... .. . ... ... ... : ... .. . ... ... ... : D-3 01 . ... ... ... : ... .. . ... ... : ... .. . ... : ... .. . ... ... ... ... : ... .. . ... ... ... ... : ... .. . S06 ... ... ...
ROW 26 : ... .. . ... ... ... : ... .. . ... ... ... : ... .. . ... ... ... : E-# 05 . ... ... : ... .. . ... : ... .. . ... ... ... ... : ... .. . ... ... ... ... : ... .. . ... ... ... ...
ROW 27 : ... .. . ... ... ... : ... .. . ... ... ... : ... .. . ... ... ... : ... .. . ... ... : ... .. . ... : ... .. . ... ... ... ... : ... .. . ... ... ... ... : ... .. . ... ... ... ...
ROW 28 : ... .. . ... ... ... : ... .. . ... ... ... : A#3 09 . ... ... ... : 6-# 07 . ... ... : ... .. . ... : --- .. 5 400 ... ... ... : --- .. . 400 ... ... ... : ... .. . ... ... ... ...
ROW 29 : ... .. . ... ... ... : ... .. . ... ... ... : ... .. . ... ... ... : ... .. . ... ... : ... .. . ... : ... .. . ... ... ... ... : ... .. . ... ... ... ... : ... .. . ... ... ... ...
ROW 2A : ... .. . ... ... ... : ... .. . ... ... ... : ... .. . ... ... ... : E-# 05 . ... ... : ... .. . ... : ... .. . ... ... ... ... : ... .. . ... ... ... ... : ... .. . ... ... ... ...
ROW 2B : ... .. . S01 ... ... : ... .. . ... ... ... : ... .. . ... ... ... : ... .. . ... ... : ... .. . ... : ... .. . ... ... ... ... : ... .. . ... ... ... ... : ... .. . ... ... ... ...
ROW 2C : C-4 02 . 300 ... ... : ... .. . ... ... ... : ... .. . ... ... ... : E-# 04 . ... ... : ... .. . ... : D-3 10 . 105 A10 ... ... : A-3 10 . 105 A10 ... ... : ... .. . ... ... ... ...
ROW 2D : ... .. . ... ... ... : ... .. . ... ... ... : ... .. . ... ... ... : ... .. . ... ... : ... .. . ... : ... .. . ... ... ... ... : ... .. . ... ... ... ... : ... .. . ... ... ... ...
ROW 2E : ... .. . ... ... ... : ... .. . ... ... ... : ... .. . ... ... ... : E-# 05 . ... ... : ... .. . ... : ... .. . ... ... ... ... : ... .. . ... ... ... ... : ... .. . ... ... ... ...
ROW 2F : ... .. . ... ... ... : ... .. . ... ... ... : ... .. . ... ... ... : ... .. . ... ... : ... .. . ... : ... .. . ... ... ... ... : ... .. . ... ... ... ... : ... .. . ... ... ... ...
ROW 30 : ... .. . ... ... ... : ... .. . ... ... ... : F#3 08 . ... ... ... : E-# 04 . ... ... : ... .. . ... : ... .. . ... ... ... ... : ... .. . ... ... ... ... : D-1 11 . ... ... ... ...
ROW 31 : ... .. . ... ... ... : ... .. . ... ... ... : D-3 01 . ... ... ... : ... .. . ... ... : ... .. . ... : ... .. . ... ... ... ... : ... .. . ... ... ... ... : ... .. . S06 ... ... ...
ROW 32 : ... .. . ... ... ... : ... .. . ... ... ... : ... .. . ... ... ... : E-# 05 . ... ... : ... .. . ... : ... .. . ... ... ... ... : ... .. . ... ... ... ... : ... .. . ... ... ... ...
ROW 33 : ... .. . ... ... ... : ... .. . ... ... ... : ... .. . ... ... ... : ... .. . ... ... : ... .. . ... : ... .. . ... ... ... ... : ... .. . ... ... ... ... : ... .. . ... ... ... ...
ROW 34 : A#3 02 . ... ... ... : ... .. . ... ... ... : F#3 08 . ... ... ... : E-# 04 . ... ... : ... .. . ... : ... .. . ... ... ... ... : ... .. . ... ... ... ... : E-1 11 . ... ... ... ...
ROW 35 : ... .. . ... ... ... : ... .. . ... ... ... : E-3 01 . ... ... ... : ... .. . ... ... : ... .. . ... : ... .. . ... ... ... ... : ... .. . ... ... ... ... : ... .. . S06 ... ... ...
ROW 36 : ... .. . ... ... ... : ... .. . ... ... ... : ... .. . ... ... ... : E-# 05 . ... ... : ... .. . ... : ... .. . ... ... ... ... : ... .. . ... ... ... ... : ... .. . ... ... ... ...
ROW 37 : ... .. . ... ... ... : ... .. . ... ... ... : ... .. . ... ... ... : ... .. . ... ... : ... .. . ... : ... .. . ... ... ... ... : ... .. . ... ... ... ... : ... .. . ... ... ... ...
ROW 38 : C-4 02 . ... ... ... : ... .. . ... ... ... : A#3 09 . ... ... ... : 6-# 07 . ... ... : ... .. . ... : ... .. . ... ... ... ... : ... .. . ... ... ... ... : ... .. . ... ... ... ...
ROW 39 : ... .. . ... ... ... : ... .. . ... ... ... : ... .. . ... ... ... : ... .. . ... ... : ... .. . ... : ... .. . ... ... ... ... : ... .. . ... ... ... ... : ... .. . ... ... ... ...
ROW 3A : ... .. . ... ... ... : ... .. . ... ... ... : ... .. . ... ... ... : E-# 05 . ... ... : ... .. . ... : ... .. . ... ... ... ... : ... .. . ... ... ... ... : ... .. . ... ... ... ...
ROW 3B : ... .. . ... ... ... : ... .. . ... ... ... : ... .. . ... ... ... : ... .. . ... ... : ... .. . ... : --- .. . ... ... ... ... : --- .. . ... ... ... ... : ... .. . ... ... ... ...
ROW 3C : G-3 02 . ... ... ... : ... .. . ... ... ... : F#3 08 . ... ... ... : E-# 04 . ... ... : ... .. . ... : D-4 10 7 100 A00 ... ... : F-4 10 7 100 A00 ... ... : A#0 11 . ... ... ... ...
ROW 3D : G#3 02 . ... ... ... : ... .. . ... ... ... : A#2 00 . ... ... ... : ... .. . ... ... : ... .. . ... : ... .. . ... ... ... ... : ... .. . ... ... ... ... : ... .. . ... ... ... ...
ROW 3E : A-3 02 . ... ... ... : ... .. . ... ... ... : ... .. . ... ... ... : E-# 05 . ... ... : ... .. . ... : ... .. . ... ... ... ... : ... .. . ... ... ... ... : ... .. . ... ... ... ...
ROW 3F : ... .. . ... ... ... : ... .. . ... ... ... : ... .. . ... ... ... : ... .. . ... ... : ... .. . ... : ... .. . ... ... ... ... : ... .. . ... ... ... ... : ... .. . ... ... ... ...

PATTERN 0E
ROW 00 : ... .. . ... ... ... : G-4 00 9 ... ... ... : F#3 08 . ... ... ... : E-# 04 F ... ... : ... .. . ... : ... .. 7 206 V04 ... ... : ... .. 7 206 V01 ... ... : ... .. 9 204 ... ... ...
ROW 01 : ... .. . ... ... ... : G-4 00 7 ... ... ... : D#3 01 . ... ... ... : ... .. . ... ... : ... .. . ... : ... .. . ... ... ... ... : ... .. . ... ... ... ... : ... .. . ... ... ... ...
ROW 02 : ... .. . ... ... ... : F-4 00 9 ... ... ... : ... .. . ... ... ... : E-# 05 . ... ... : ... .. . ... : ... .. . ... ... ... ... : ... .. . ... ... ... ... : ... .. . ... ... ... ...
ROW 03 : ... .. . ... ... ... : F-4 00 7 ... ... ... : ... .. . ... ... ... : ... .. . ... ... : ... .. . ... : ... .. . ... ... ... ... : ... .. . ... ... ... ... : --- .. . ... ... ... ...
ROW 04 : ... .. . ... ... ... : D#4 00 9 ... ... ... : F#3 08 . ... ... ... : E-# 04 . ... ... : ... .. . ... : C-3 10 . 200 ... ... ... : E-3 10 . 200 ... ... ... : A#0 11 . 200 ... ... ...
ROW 05 : ... .. . ... ... ... : D#4 00 7 ... ... ... : D#3 01 . ... ... ... : ... .. . ... ... : ... .. . ... : ... .. . ... ... ... ... : ... .. . ... ... ... ... : ... .. . S06 ... ... ...
ROW 06 : ... .. . ... ... ... : A#3 00 9 ... ... ... : ... .. . ... ... ... : E-# 05 . ... ... : ... .. . ... : ... .. . ... ... ... ... : ... .. . ... ... ... ... : ... .. . ... ... ... ...
ROW 07 : ... .. . ... ... ... : A#3 00 7 ... ... ... : ... .. . ... ... ... : ... .. . ... ... : ... .. . ... : ... .. . ... ... ... ... : ... .. . ... ... ... ... : ... .. . ... ... ... ...
ROW 08 : ... .. . 466 ... ... : G-4 0B 9 ... ... ... : A#3 09 . ... ... ... : 6-# 07 . ... ... : ... .. . ... : D-3 10 . ... ... ... ... : F-3 10 . ... ... ... ... : ... .. . ... ... ... ...
ROW 09 : ... .. . ... ... ... : G-4 0B 7 ... ... ... : ... .. . ... ... ... : ... .. . ... ... : ... .. . ... : ... .. . ... ... ... ... : ... .. . ... ... ... ... : ... .. . ... ... ... ...
ROW 0A : ... .. . ... ... ... : F-4 0B 9 ... ... ... : ... .. . ... ... ... : E-# 05 . ... ... : ... .. . ... : ... .. . ... ... ... ... : ... .. . ... ... ... ... : ... .. . ... ... ... ...
ROW 0B : ... .. . ... ... ... : F-4 0B 7 ... ... ... : ... .. . ... ... ... : ... .. . ... ... : ... .. . ... : ... .. . ... ... ... ... : ... .. . ... ... ... ... : ... .. . ... ... ... ...
ROW 0C : ... .. . ... ... ... : D#4 0B 9 ... ... ... : ... .. . ... ... ... : E-# 04 . ... ... : ... .. . ... : F-3 10 . ... ... ... ... : A-3 10 . ... ... ... ... : ... .. . ... ... ... ...
ROW 0D : ... .. . ... ... ... : D#4 0B 7 ... ... ... : ... .. . ... ... ... : ... .. . ... ... : ... .. . ... : ... .. . ... ... ... ... : ... .. . ... ... ... ... : ... .. . ... ... ... ...
ROW 0E : ... .. . ... ... ... : A#3 0B 9 ... ... ... : ... .. . ... ... ... : E-# 05 . ... ... : ... .. . ... : ... .. . ... ... ... ... : ... .. . ... ... ... ... : ... .. . ... ... ... ...
ROW 0F : ... .. . ... ... ... : A#3 0B 7 ... ... ... : ... .. . ... ... ... : ... .. . ... ... : ... .. . ... : ... .. . ... ... ... ... : ... .. . ... ... ... ... : ... .. . ... ... ... ...
ROW 10 : ... .. . ... ... ... : G-4 00 9 ... ... ... : ... .. . ... ... ... : E-# 05 . ... ... : ... .. . ... : ... .. . 206 ... ... ... : ... .. . 206 ... ... ... : ... .. . ... ... ... ...
ROW 11 : ... .. . ... ... ... : G-4 00 7 ... ... ... : ... .. . ... ... ... : ... .. . ... ... : ... .. . ... : ... .. . ... ... ... ... : ... .. . ... ... ... ... : ... .. . ... ... ... ...
ROW 12 : ... .. 3 ... ... ... : F-4 00 9 ... ... ... : ... .. . ... ... ... : E-# 05 . ... ... : ... .. . ... : ... .. . ... ... ... ... : ... .. . ... ... ... ... : ... .. . ... ... ... ...
ROW 13 : ... .. . ... ... ... : F-4 00 7 ... ... ... : ... .. . ... ... ... : ... .. . ... ... : ... .. . ... : ... .. . ... ... ... ... : ... .. . ... ... ... ... : ... .. . ... ... ... ...
ROW 14 : E-3 02 F 400 ... ... : D#4 00 9 ... ... ... : F#3 08 . ... ... ... : E-# 04 . ... ... : ... .. . ... : G-3 10 . 200 ... ... ... : A#3 10 . 200 ... ... ... : F-0 11 . ... ... ... ...
ROW 15 : F-3 02 . ... ... ... : D#4 00 7 ... ... ... : A#2 01 . ... ... ... : ... .. . ... ... : ... .. . ... : ... .. . ... ... ... ... : ... .. . ... ... ... ... : ... .. . S06 ... ... ...
ROW 16 : ... .. . ... ... ... : A#3 00 9 ... ... ... : ... .. . ... ... ... : E-# 05 . ... ... : ... .. . ... : ... .. . ... ... ... ... : ... .. . ... ... ... ... : ... .. . ... ... ... ...
ROW 17 : ... .. . ... ... ... : A#3 00 7 ... ... ... : ... .. . ... ... ... : ... .. . ... ... : ... .. . ... : ... .. . ... ... ... ... : ... .. . ... ... ... ... : ... .. . ... ... ... ...
ROW 18 : E-3 02 . ... ... ... : G-4 0B 9 ... ... ... : A#3 09 . ... ... ... : 6-# 07 . ... ... : ... .. . ... : A-3 10 . ... ... ... ... : C-4 10 . ... ... ... ... : A#0 11 . ... ... ... ...
ROW 19 : ... .. . ... ... ... : G-4 0B 7 ... ... ... : ... .. . ... ... ... : ... .. . ... ... : ... .. . ... : ... .. . ... ... ... ... : ... .. . ... ... ... ... : ... .. . S06 ... ... ...
ROW 1A : ... .. . ... ... ... : F-4 0B 9 ... ... ... : ... .. . ... ... ... : E-# 05 . ... ... : ... .. . ... : ... .. . ... ... ... ... : ... .. . ... ... ... ... : ... .. . ... ... ... ...
ROW 1B : ... .. . ... ... ... : F-4 0B 7 ... ... ... : ... .. . ... ... ... : ... .. . ... ... : ... .. . ... : ... .. . ... ... ... ... : ... .. . ... ... ... ... : ... .. . ... ... ... ...
ROW 1C : D-3 02 . ... ... ... : D#4 0B 9 ... ... ... : F#3 08 . ... ... ... : E-# 04 . ... ... : ... .. . ... : F-3 10 . ... ... ... ... : A-3 10 . ... ... ... ... : C-1 11 . ... ... ... ...
ROW 1D : ... .. . ... ... ... : D#4 0B 7 ... ... ... : D#3 01 . ... ... ... : ... .. . ... ... : ... .. . ... : ... .. . ... ... ... ... : ... .. . ... ... ... ... : ... .. . ... ... ... ...
ROW 1E : ... .. . ... ... ... : A#3 0B 9 ... ... ... : ... .. . ... ... ... : E-# 05 . ... ... : ... .. . ... : ... .. . ... ... ... ... : ... .. . ... ... ... ... : ... .. . ... ... ... ...
ROW 1F : ... .. . ... ... ... : A#3 0B 7 ... ... ... : ... .. . ... ... ... : ... .. . ... ... : ... .. . ... : ... .. . ... ... ... ... : ... .. . ... ... ... ... : ... .. . ... ... ... ...
ROW 20 : ... .. . 206 ... ... : G-4 00 9 ... ... ... : ... .. . ... ... ... : E-# 05 . ... ... : ... .. . ... : ... .. . 466 ... ... ... : ... .. . 466 ... ... ... : ... .. . 206 ... ... ...
ROW 21 : ... .. . ... ... ... : G-4 00 7 ... ... ... : ... .. . ... ... ... : ... .. . ... ... : ... .. . ... : ... .. . ... ... ... ... : ... .. . ... ... ... ... : ... .. . ... ... ... ...
ROW 22 : ... .. . ... ... ... : F-4 00 9 ... ... ... : ... .. . ... ... ... : E-# 05 . ... ... : ... .. . ... : ... .. . ... ... ... ... : ... .. . ... ... ... ... : ... .. . ... ... ... ...
ROW 23 : ... .. . ... ... ... : F-4 00 7 ... ... ... : ... .. . ... ... ... : ... .. . ... ... : ... .. . ... : ... .. . ... ... ... ... : ... .. . ... ... ... ... : --- .. . ... ... ... ...
ROW 24 : F-3 02 . 200 ... ... : D#4 00 9 ... ... ... : F#3 08 . ... ... ... : E-# 04 . ... ... : ... .. . ... : G-3 10 9 400 ... ... ... : C-4 10 9 400 ... ... ... : C-1 11 . 200 ... ... ...
ROW 25 : ... .. . ... ... ... : D#4 00 7 ... ... ... : D#3 01 . ... ... ... : ... .. . ... ... : ... .. . ... : ... .. . ... ... ... ... : ... .. . ... ... ... ... : ... .. . S06 ... ... ...
ROW 26 : ... .. . ... ... ... : A#3 00 9 ... ... ... : ... .. . ... ... ... : E-# 05 . ... ... : ... .. . ... : ... .. . ... ... ... ... : ... .. . ... ... ... ... : ... .. . ... ... ... ...
ROW 27 : ... .. . ... ... ... : A#3 00 7 ... ... ... : ... .. . ... ... ... : ... .. . ... ... : ... .. . ... : ... .. . ... ... ... ... : ... .. . ... ... ... ... : ... .. . ... ... ... ...
ROW 28 : ... .. . ... ... ... : G-4 0B 9 ... ... ... : A#3 09 . ... ... ... : 6-# 07 . ... ... : ... .. . ... : C-4 10 . ... ... ... ... : E-4 10 . ... ... ... ... : C-1 11 . 200 ... ... ...
ROW 29 : ... .. . ... ... ... : G-4 0B 7 ... ... ... : ... .. . ... ... ... : ... .. . ... ... : ... .. . ... : ... .. . ... ... ... ... : ... .. . ... ... ... ... : ... .. . S06 ... ... ...
ROW 2A : ... .. . ... ... ... : F-4 0B 9 ... ... ... : ... .. . ... ... ... : E-# 05 . ... ... : ... .. . ... : ... .. . ... ... ... ... : ... .. . ... ... ... ... : ... .. . ... ... ... ...
ROW 2B : ... .. . ... ... ... : F-4 0B 7 ... ... ... : ... .. . ... ... ... : ... .. . ... ... : ... .. . ... : ... .. . ... ... ... ... : ... .. . ... ... ... ... : ... .. . ... ... ... ...
ROW 2C : F-3 02 . ... ... ... : D#4 0B 9 ... ... ... : ... .. . ... ... ... : E-# 04 . ... ... : ... .. . ... : A#3 10 . 305 ... ... ... : F-4 10 . 305 ... ... ... : ... .. . ... ... ... ...
ROW 2D : F#3 02 . ... ... ... : D#4 0B 7 ... ... ... : ... .. . ... ... ... : ... .. . ... ... : ... .. . ... : ... .. . ... ... ... ... : ... .. . ... ... ... ... : ... .. . ... ... ... ...
ROW 2E : G-3 02 . ... ... ... : A#3 0B 9 ... ... ... : ... .. . ... ... ... : E-# 05 . ... ... : ... .. . ... : ... .. . ... ... ... ... : ... .. . ... ... ... ... : ... .. . ... ... ... ...
ROW 2F : ... .. . ... ... ... : A#3 0B 7 ... ... ... : ... .. . ... ... ... : ... .. . ... ... : ... .. . ... : ... .. . ... ... ... ... : ... .. . ... ... ... ... : ... .. . ... ... ... ...
ROW 30 : ... .. . ... ... ... : G-2 00 9 ... ... ... : F#3 08 . ... ... ... : B-# 00 A 421 A01 : ... .. . ... : ... .. . 466 ... ... ... : ... .. . 466 ... ... ... : G-0 11 . 200 ... ... ...
ROW 31 : ... .. . ... ... ... : G-2 00 7 ... ... ... : D#3 01 . ... ... ... : ... .. . ... ... : ... .. . ... : ... .. . ... ... ... ... : ... .. . ... ... ... ... : ... .. . S06 ... ... ...
ROW 32 : ... .. . ... ... ... : A#2 00 9 ... ... ... : ... .. . ... ... ... : ... .. . ... ... : ... .. . ... : ... .. . ... ... ... ... : ... .. . ... ... ... ... : ... .. . ... ... ... ...
ROW 33 : ... .. . ... ... ... : A#2 00 7 ... ... ... : ... .. . ... ... ... : ... .. . ... ... : ... .. . ... : ... .. . ... ... ... ... : ... .. . ... ... ... ... : ... .. . ... ... ... ...
ROW 34 : F-3 02 . ... ... ... : D#3 00 9 ... ... ... : F#3 08 . ... ... ... : 6-# 07 F 400 A00 : ... .. . ... : A-4 10 . 400 300 ... ... : C-5 10 . 400 300 ... ... : G-0 11 . 200 ... ... ...
ROW 35 : ... .. . ... ... ... : D#3 00 7 ... ... ... : D#3 01 . ... ... ... : ... .. . ... ... : ... .. . ... : ... .. . ... ... ... ... : ... .. . ... ... ... ... : ... .. . S06 ... ... ...
ROW 36 : ... .. . ... ... ... : F-3 00 9 ... ... ... : ... .. . ... ... ... : ... .. . ... ... : ... .. . ... : ... .. . ... ... ... ... : ... .. . ... ... ... ... : ... .. . ... ... ... ...
ROW 37 : ... .. . ... ... ... : F-3 00 7 ... ... ... : ... .. . ... ... ... : ... .. . ... ... : ... .. . ... : ... .. . ... ... ... ... : ... .. . ... ... ... ... : ... .. . ... ... ... ...
ROW 38 : ... .. . ... ... ... : G-3 00 9 ... ... ... : A#3 09 . ... ... ... : 6-# 07 . ... ... : ... .. . ... : C-5 10 . ... ... ... ... : E-5 10 . ... ... ... ... : C-1 11 . 200 ... ... ...
ROW 39 : ... .. . ... ... ... : G-3 00 7 ... ... ... : ... .. . ... ... ... : ... .. . ... ... : ... .. . ... : ... .. . ... ... ... ... : ... .. . ... ... ... ... : ... .. . S06 ... ... ...
ROW 3A : E-3 02 . ... ... ... : A#3 00 9 ... ... ... : ... .. . ... ... ... : ... .. . ... ... : ... .. . ... : ... .. . ... ... ... ... : ... .. . ... ... ... ... : ... .. . ... ... ... ...
ROW 3B : ... .. . ... ... ... : A#3 00 7 ... ... ... : ... .. . ... ... ... : ... .. . ... ... : ... .. . ... : ... .. . ... ... ... ... : ... .. . ... ... ... ... : ... .. . ... ... ... ...
ROW 3C : ... .. . ... ... ... : D#4 00 9 ... ... ... : ... .. . ... ... ... : B-# 00 A 421 A01 : ... .. . ... : ... .. . ... ... ... ... : ... .. . ... ... ... ... : ... .. . ... ... ... ...
ROW 3D : ... .. . ... ... ... : D#4 00 7 ... ... ... : ... .. . ... ... ... : ... .. . ... ... : ... .. . ... : ... .. . ... ... ... ... : ... .. . ... ... ... ... : ... .. . ... ... ... ...
ROW 3E : ... .. . ... ... ... : G-4 00 9 ... ... ... : ... .. . ... ... ... : ... .. . ... ... : ... .. . ... : ... .. . ... ... ... ... : ... .. . ... ... ... ... : ... .. . ... ... ... ...
ROW 3F : ... .. . ... ... ... : G-4 00 7 ... ... ... : ... .. . ... ... ... : ... .. . ... ... : ... .. . ... : ... .. . ... ... ... ... : ... .. . ... ... ... ... : ... .. . ... ... ... ...

PATTERN 0F
ROW 00 : E-3 00 . ... ... ... : ... .. 8 ... ... ... : ... .. . 204 ... ... : ... .. . ... ... : ... .. . ... : D-5 10 6 ... V04 ... ... : F#5 10 6 ... V01 ... ... : D-1 11 9 ... ... ... ...
ROW 01 : ... .. . ... ... ... : ... .. . ... ... ... : ... .. . ... ... ... : ... .. . ... ... : ... .. . ... : ... .. . ... ... ... ... : ... .. . ... ... ... ... : ... .. . ... ... ... ...
ROW 02 : ... .. . ... ... ... : ... .. . ... ... ... : ... .. . ... ... ... : ... .. . ... ... : ... .. . ... : ... .. . ... ... ... ... : ... .. . ... ... ... ... : ... .. . ... ... ... ...
ROW 03 : ... .. . ... ... ... : ... .. . ... ... ... : ... .. . ... ... ... : ... .. . ... ... : ... .. . ... : ... .. . ... ... ... ... : ... .. . ... ... ... ... : ... .. . ... ... ... ...
ROW 04 : ... .. . ... ... ... : ... .. 4 ... ... ... : F#3 08 . 200 ... ... : E-# 04 F 400 A00 : ... .. . ... : ... .. . 206 ... ... ... : ... .. . 206 ... ... ... : D-0 11 . ... ... ... ...
ROW 05 : ... .. . ... ... ... : ... .. . ... ... ... : A#2 02 . ... ... ... : ... .. . ... ... : ... .. . ... : ... .. . ... ... ... ... : ... .. . ... ... ... ... : ... .. . S06 ... ... ...
ROW 06 : ... .. . ... ... ... : ... .. . ... ... ... : ... .. . ... ... ... : E-# 05 . ... ... : ... .. . ... : ... .. . ... ... ... ... : ... .. . ... ... ... ... : ... .. . ... ... ... ...
ROW 07 : ... .. . ... ... ... : ... .. . ... ... ... : ... .. . ... ... ... : ... .. . ... ... : ... .. . ... : ... .. . ... ... ... ... : ... .. . ... ... ... ... : ... .. . ... ... ... ...
ROW 08 : ... .. . ... ... ... : A#5 0B 9 ... ... ... : A#3 09 . ... ... ... : 6-# 07 . ... ... : ... .. . ... : D-5 10 2 200 ... ... ... : F#5 10 2 200 ... ... ... : D-0 11 . ... ... ... ...
ROW 09 : ... .. . ... ... ... : A#5 0B 7 ... ... ... : ... .. . ... ... ... : ... .. . ... ... : ... .. . ... : ... .. . ... ... ... ... : ... .. . ... ... ... ... : ... .. . S06 ... ... ...
ROW 0A : F-3 00 . ... ... ... : F-5 0B 9 ... ... ... : ... .. . ... ... ... : E-# 05 . ... ... : ... .. . ... : ... .. . ... ... ... ... : ... .. . ... ... ... ... : ... .. . ... ... ... ...
ROW 0B : ... .. . ... ... ... : F-5 0B 7 ... ... ... : ... .. . ... ... ... : ... .. . ... ... : ... .. . ... : ... .. . ... ... ... ... : ... .. . ... ... ... ... : ... .. . ... ... ... ...
ROW 0C : ... .. . ... ... ... : D-5 0B 9 ... ... ... : ... .. . ... ... ... : E-# 04 . ... ... : ... .. . ... : ... .. . 206 ... ... ... : ... .. . 206 ... ... ... : D-0 11 . ... ... ... ...
ROW 0D : E-3 00 . ... ... ... : D-5 0B 7 ... ... ... : ... .. . ... ... ... : ... .. . ... ... : ... .. . ... : ... .. . ... ... ... ... : ... .. . ... ... ... ... : ... .. . S06 ... ... ...
ROW 0E : ... .. . ... ... ... : C-5 0B 9 ... ... ... : ... .. . ... ... ... : E-# 05 . ... ... : ... .. . ... : ... .. . ... ... ... ... : ... .. . ... ... ... ... : ... .. . ... ... ... ...
ROW 0F : ... .. . ... ... ... : C-5 0B 7 ... ... ... : ... .. . ... ... ... : ... .. . ... ... : ... .. . ... : ... .. . ... ... ... ... : ... .. . ... ... ... ... : ... .. . ... ... ... ...
ROW 10 : D-3 00 . ... ... ... : A#4 00 9 ... ... ... : ... .. . ... ... ... : E-# 05 . ... ... : ... .. . ... : D-5 10 2 200 ... ... ... : F#5 10 2 200 ... ... ... : ... .. . ... ... ... ...
ROW 11 : ... .. . ... ... ... : A#4 00 7 ... ... ... : ... .. . ... ... ... : ... .. . ... ... : ... .. . ... : ... .. . ... ... ... ... : ... .. . ... ... ... ... : ... .. . ... ... ... ...
ROW 12 : ... .. . ... ... ... : F-4 00 9 ... ... ... : ... .. . ... ... ... : E-# 05 . ... ... : ... .. . ... : ... .. . ... ... ... ... : ... .. . ... ... ... ... : ... .. . ... ... ... ...
ROW 13 : ... .. . ... ... ... : F-4 00 7 ... ... ... : ... .. . ... ... ... : ... .. . ... ... : ... .. . ... : ... .. . ... ... ... ... : ... .. . ... ... ... ... : ... .. . ... ... ... ...
ROW 14 : ... .. . ... ... ... : D-4 00 9 ... ... ... : F#3 08 . ... ... ... : 6-# 07 . ... ... : ... .. . ... : ... .. . 206 ... ... ... : ... .. . 206 ... ... ... : D-1 11 . ... ... ... ...
ROW 15 : ... .. . ... ... ... : D-4 00 7 ... ... ... : F-2 01 . ... ... ... : ... .. . ... ... : ... .. . ... : ... .. . ... ... ... ... : ... .. . ... ... ... ... : ... .. . S06 ... ... ...
ROW 16 : ... .. . ... ... ... : C-4 00 9 ... ... ... : ... .. . ... ... ... : ... .. . ... ... : ... .. . ... : ... .. . ... ... ... ... : ... .. . ... ... ... ... : ... .. . ... ... ... ...
ROW 17 : ... .. . ... ... ... : C-4 00 7 ... ... ... : ... .. . ... ... ... : ... .. . ... ... : ... .. . ... : ... .. . ... ... ... ... : ... .. . ... ... ... ... : ... .. . ... ... ... ...
ROW 18 : ... .. . ... ... ... : A#3 00 9 ... ... ... : A#3 09 . ... ... ... : 6-# 07 . ... ... : ... .. . ... : --- .. . 200 ... ... ... : --- .. . 200 ... ... ... : ... .. . ... ... ... ...
ROW 19 : ... .. . ... ... ... : A#3 00 7 ... ... ... : A#2 01 . ... ... ... : ... .. . ... ... : ... .. . ... : ... .. . ... ... ... ... : ... .. . ... ... ... ... : ... .. . ... ... ... ...
ROW 1A : ... .. . ... ... ... : F-3 00 9 ... ... ... : ... .. . ... ... ... : ... .. . ... ... : ... .. . ... : ... .. . ... ... ... ... : ... .. . ... ... ... ... : ... .. . ... ... ... ...
ROW 1B : ... .. . ... ... ... : F-3 00 7 ... ... ... : ... .. . ... ... ... : ... .. . ... ... : ... .. . ... : ... .. . ... ... ... ... : ... .. . ... ... ... ... : ... .. . ... ... ... ...
ROW 1C : ... .. . ... ... ... : C-3 0D A ... ... ... : F#3 08 . ... ... ... : B-# 00 A 422 A01 : ... .. . ... : E-5 10 6 ... ... ... ... : G#5 10 6 ... ... ... ... : D-1 11 . ... ... ... ...
ROW 1D : ... .. . ... ... ... : ... .. . ... ... ... : C-3 00 . ... ... ... : ... .. . ... ... : ... .. . ... : ... .. . ... ... ... ... : ... .. . ... ... ... ... : ... .. . ... ... ... ...
ROW 1E : ... .. . ... ... ... : ... .. . ... ... ... : ... .. . ... ... ... : ... .. . ... ... : ... .. . ... : ... .. . ... ... ... ... : ... .. . ... ... ... ... : ... .. . ... ... ... ...
ROW 1F : ... .. . ... ... ... : ... .. . ... ... ... : ... .. . ... ... ... : ... .. . ... ... : ... .. . ... : ... .. . ... ... ... ... : ... .. . ... ... ... ... : ... .. . ... ... ... ...
ROW 20 : ... .. . ... ... ... : ... .. 8 ... ... ... : ... .. . 206 ... ... : E-# 04 F 400 A00 : ... .. . ... : ... .. . 206 ... ... ... : ... .. . 206 ... ... ... : ... .. . 206 ... ... ...
ROW 21 : ... .. . ... ... ... : ... .. . ... ... ... : ... .. . ... ... ... : ... .. . ... ... : ... .. . ... : ... .. . ... ... ... ... : ... .. . ... ... ... ... : ... .. . ... ... ... ...
ROW 22 : ... .. . ... ... ... : ... .. . ... ... ... : ... .. . ... ... ... : E-# 05 . ... ... : ... .. . ... : ... .. . ... ... ... ... : ... .. . ... ... ... ... : ... .. . ... ... ... ...
ROW 23 : ... .. . ... ... ... : ... .. . ... ... ... : ... .. . ... ... ... : ... .. . ... ... : ... .. . ... : ... .. . ... ... ... ... : ... .. . ... ... ... ... : --- .. . ... ... ... ...
ROW 24 : ... .. . ... ... ... : ... .. 4 ... ... ... : F#3 08 . 200 ... ... : E-# 04 . ... ... : ... .. . ... : E-5 10 4 200 ... ... ... : G#5 10 4 200 ... ... ... : D-0 11 . 200 ... ... ...
ROW 25 : ... .. . ... ... ... : ... .. . ... ... ... : C-3 00 . ... ... ... : ... .. . ... ... : ... .. . ... : ... .. . ... ... ... ... : ... .. . ... ... ... ... : ... .. . S06 ... ... ...
ROW 26 : ... .. . ... ... ... : ... .. . ... ... ... : ... .. . ... ... ... : E-# 05 . ... ... : ... .. . ... : ... .. . ... ... ... ... : ... .. . ... ... ... ... : ... .. . ... ... ... ...
ROW 27 : ... .. . ... ... ... : ... .. . ... ... ... : ... .. . ... ... ... : ... .. . ... ... : ... .. . ... : ... .. . ... ... ... ... : ... .. . ... ... ... ... : ... .. . ... ... ... ...
ROW 28 : ... .. . ... ... ... : C-6 0B 9 ... ... ... : A#3 09 . ... ... ... : B-# 00 A 422 A01 : ... .. . ... : ... .. . 206 ... ... ... : ... .. . 206 ... ... ... : D-0 11 . ... ... ... ...
ROW 29 : ... .. . ... ... ... : C-6 0B 7 ... ... ... : C-3 01 . ... ... ... : ... .. . ... ... : ... .. . ... : ... .. . ... ... ... ... : ... .. . ... ... ... ... : ... .. . S06 ... ... ...
ROW 2A : ... .. . ... ... ... : G-5 0B 9 ... ... ... : ... .. . ... ... ... : ... .. . ... ... : ... .. . ... : ... .. . ... ... ... ... : ... .. . ... ... ... ... : ... .. . ... ... ... ...
ROW 2B : ... .. . ... ... ... : G-5 0B 7 ... ... ... : ... .. . ... ... ... : ... .. . ... ... : ... .. . ... : ... .. . ... ... ... ... : ... .. . ... ... ... ... : ... .. . ... ... ... ...
ROW 2C : ... .. . ... ... ... : E-5 0B 9 ... ... ... : ... .. . ... ... ... : ... .. . ... ... : ... .. . ... : E-5 10 2 200 ... ... ... : G#5 10 2 200 ... ... ... : D-0 11 . ... ... ... ...
ROW 2D : ... .. . ... ... ... : E-5 0B 7 ... ... ... : ... .. . ... ... ... : ... .. . ... ... : ... .. . ... : ... .. . ... ... ... ... : ... .. . ... ... ... ... : ... .. . S06 ... ... ...
ROW 2E : ... .. . ... ... ... : D-5 0B 9 ... ... ... : ... .. . ... ... ... : ... .. . ... ... : ... .. . ... : ... .. . ... ... ... ... : ... .. . ... ... ... ... : ... .. . ... ... ... ...
ROW 2F : ... .. . ... ... ... : D-5 0B 7 ... ... ... : ... .. . ... ... ... : ... .. . ... ... : ... .. . ... : ... .. . ... ... ... ... : ... .. . ... ... ... ... : ... .. . ... ... ... ...
ROW 30 : ... .. . ... ... ... : C-3 03 6 ... ... ... : F#3 08 . ... ... ... : 6-# 07 F 400 A00 : ... .. . ... : ... .. . 206 ... ... ... : ... .. . 206 ... ... ... : ... .. . ... ... ... ...
ROW 31 : ... .. . ... ... ... : ... .. . ... ... ... : G-2 01 . ... ... ... : ... .. . ... ... : ... .. . ... : ... .. . ... ... ... ... : ... .. . ... ... ... ... : ... .. . ... ... ... ...
ROW 32 : ... .. . ... ... ... : ... .. . ... ... ... : ... .. . ... ... ... : 6-# 07 . ... ... : ... .. . ... : ... .. . ... ... ... ... : ... .. . ... ... ... ... : ... .. . ... ... ... ...
ROW 33 : ... .. . ... ... ... : ... .. 0 ... ... ... : ... .. . ... ... ... : ... .. . ... ... : ... .. . ... : ... .. . ... ... ... ... : ... .. . ... ... ... ... : ... .. . ... ... ... ...
ROW 34 : ... .. . ... ... ... : ... .. 6 ... ... ... : F#3 08 . ... ... ... : 6-# 07 . ... ... : ... .. . ... : --- .. . 200 ... ... ... : --- .. . 200 ... ... ... : D-1 11 . ... ... ... ...
ROW 35 : ... .. . ... ... ... : ... .. . ... ... ... : G-2 01 . ... ... ... : ... .. . ... ... : ... .. . ... : ... .. . ... ... ... ... : ... .. . ... ... ... ... : ... .. . S06 ... ... ...
ROW 36 : ... .. . ... ... ... : ... .. . ... ... ... : ... .. . ... ... ... : 6-# 07 . ... ... : ... .. . ... : ... .. . ... ... ... ... : ... .. . ... ... ... ... : ... .. . ... ... ... ...
ROW 37 : ... .. . ... ... ... : ... .. 0 ... ... ... : ... .. . ... ... ... : ... .. . ... ... : ... .. . ... : ... .. . ... ... ... ... : ... .. . ... ... ... ... : ... .. . ... ... ... ...
ROW 38 : ... .. . ... ... ... : ... .. 8 ... ... ... : A#3 09 . ... ... ... : 6-# 07 . ... ... : ... .. . ... : ... .. . ... ... ... ... : ... .. . ... ... ... ... : ... .. . ... ... ... ...
ROW 39 : ... .. . ... ... ... : ... .. . ... ... ... : C-3 01 . ... ... ... : ... .. . ... ... : ... .. . ... : ... .. . ... ... ... ... : ... .. . ... ... ... ... : ... .. . ... ... ... ...
ROW 3A : ... .. . ... ... ... : ... .. . ... ... ... : ... .. . ... ... ... : ... .. . ... ... : ... .. . ... : ... .. . ... ... ... ... : ... .. . ... ... ... ... : ... .. . ... ... ... ...
ROW 3B : ... .. . ... ... ... : ... .. 0 ... ... ... : ... .. . ... ... ... : ... .. . ... ... : ... .. . ... : ... .. . ... ... ... ... : ... .. . ... ... ... ... : ... .. . ... ... ... ...
ROW 3C : ... .. . ... ... ... : ... .. A ... ... ... : ... .. . 206 ... ... : 7-# 07 . ... ... : ... .. . ... : G-5 10 6 ... V04 ... ... : B-5 10 6 ... V01 ... ... : D-1 11 . ... ... ... ...
ROW 3D : ... .. . ... ... ... : ... .. . ... ... ... : ... .. . ... ... ... : ... .. . ... ... : ... .. . ... : ... .. . ... ... ... ... : ... .. . ... ... ... ... : ... .. . ... ... ... ...
ROW 3E : ... .. . ... ... ... : ... .. . ... ... ... : ... .. . ... ... ... : 7-# 07 . ... ... : ... .. . ... : ... .. . ... ... ... ... : ... .. . ... ... ... ... : ... .. . ... ... ... ...
ROW 3F : ... .. . ... ... ... : ... .. . ... ... ... : ... .. . 200 ... ... : ... .. . ... ... : ... .. . ... : ... .. . ... ... ... ... : ... .. . ... ... ... ... : ... .. . ... ... ... ...

PATTERN 10
ROW 00 : E-3 02 F ... ... ... : D-3 0E A ... ... ... : F#3 08 . ... ... ... : F-# 04 . ... ... : ... .. . ... : ... .. . 206 ... ... ... : ... .. . 206 ... ... ... : ... .. 9 206 ... ... ...
ROW 01 : ... .. . ... ... ... : ... .. . ... ... ... : D-3 00 . ... ... ... : ... .. . ... ... : ... .. . ... : ... .. . ... ... ... ... : ... .. . ... ... ... ... : ... .. . ... ... ... ...
ROW 02 : ... .. . ... ... ... : ... .. . ... ... ... : ... .. . ... ... ... : D-# 05 . S02 ... : ... .. . ... : ... .. . ... ... ... ... : ... .. . ... ... ... ... : ... .. . ... ... ... ...
ROW 03 : ... .. . ... ... ... : ... .. . ... ... ... : ... .. . ... ... ... : ... .. . ... ... : ... .. . ... : ... .. . ... ... ... ... : ... .. . ... ... ... ... : --- .. . ... ... ... ...
ROW 04 : ... .. . ... ... ... : ... .. 8 ... ... ... : F#3 08 . ... ... ... : E-# 05 . S02 ... : ... .. . ... : G-5 10 3 200 ... ... ... : B-5 10 3 200 ... ... ... : D-0 11 . 200 ... ... ...
ROW 05 : ... .. . ... ... ... : ... .. . ... ... ... : D-2 00 . ... ... ... : ... .. . ... ... : ... .. . ... : ... .. . ... ... ... ... : ... .. . ... ... ... ... : ... .. . S06 ... ... ...
ROW 06 : ... .. . ... ... ... : ... .. . ... ... ... : ... .. . ... ... ... : D-# 05 . S02 ... : ... .. . ... : ... .. . ... ... ... ... : ... .. . ... ... ... ... : ... .. . ... ... ... ...
ROW 07 : ... .. . ... ... ... : ... .. . ... ... ... : ... .. . ... ... ... : ... .. . ... ... : ... .. . ... : ... .. . ... ... ... ... : ... .. . ... ... ... ... : ... .. . ... ... ... ...
ROW 08 : ... .. . ... ... ... : ... .. 4 ... ... ... : A#3 09 . ... ... ... : 6-# 07 . ... ... : ... .. . ... : A-6 10 5 203 A20 ... ... : D#4 10 5 206 A20 ... ... : D-0 11 . ... ... ... ...
ROW 09 : ... .. . ... ... ... : ... .. . ... ... ... : D-2 01 . ... ... ... : ... .. . ... ... : ... .. . ... : ... .. . ... ... ... ... : ... .. . ... ... ... ... : ... .. . S06 ... ... ...
ROW 0A : F#3 02 . G02 ... ... : ... .. . ... ... ... : ... .. . ... ... ... : D-# 05 . S02 ... : ... .. . ... : ... .. 0 ... ... ... ... : ... .. 0 ... ... ... ... : ... .. . ... ... ... ...
ROW 0B : ... .. . ... ... ... : ... .. . ... ... ... : ... .. . ... ... ... : ... .. . ... ... : ... .. . ... : ... .. . ... ... ... ... : ... .. . ... ... ... ... : ... .. . ... ... ... ...
ROW 0C : ... .. . ... ... ... : D-4 0E A ... ... ... : F#3 08 . ... ... ... : E-# 05 . S02 ... : ... .. . ... : ... .. 5 ... ... ... ... : ... .. 5 ... ... ... ... : D-0 11 . ... ... ... ...
ROW 0D : E-3 02 . G01 ... ... : ... .. . ... ... ... : D-2 01 . ... ... ... : ... .. . ... ... : ... .. . ... : ... .. . ... ... ... ... : ... .. . ... ... ... ... : ... .. . S06 ... ... ...
ROW 0E : ... .. . ... ... ... : ... .. . ... ... ... : ... .. . ... ... ... : D-# 05 . S02 ... : ... .. . ... : ... .. 0 ... ... ... ... : ... .. 0 ... ... ... ... : ... .. . ... ... ... ...
ROW 0F : ... .. . ... ... ... : ... .. . ... ... ... : ... .. . ... ... ... : ... .. . ... ... : ... .. . ... : ... .. . ... ... ... ... : ... .. . ... ... ... ... : ... .. . ... ... ... ...
ROW 10 : D-3 02 . ... ... ... : ... .. 8 ... ... ... : ... .. . ... ... ... : F-# 04 . ... ... : ... .. . ... : ... .. 7 ... ... ... ... : ... .. 7 ... ... ... ... : ... .. . ... ... ... ...
ROW 11 : ... .. . ... ... ... : ... .. . ... ... ... : ... .. . ... ... ... : ... .. . ... ... : ... .. . ... : ... .. 0 ... ... ... ... : ... .. 0 ... ... ... ... : ... .. . ... ... ... ...
ROW 12 : ... .. . ... ... ... : ... .. . ... ... ... : ... .. . ... ... ... : D-# 05 . S02 ... : ... .. . ... : ... .. 7 ... ... ... ... : ... .. 7 ... ... ... ... : ... .. . ... ... ... ...
ROW 13 : ... .. . ... ... ... : ... .. . ... ... ... : ... .. . ... ... ... : ... .. . ... ... : ... .. . ... : ... .. 0 ... ... ... ... : ... .. 0 ... ... ... ... : ... .. . ... ... ... ...
ROW 14 : ... .. . ... ... ... : D-3 0E A ... ... ... : F#3 08 . ... ... ... : E-# 05 . S02 ... : ... .. . ... : ... .. 7 ... ... ... ... : ... .. 7 ... ... ... ... : ... .. . ... ... ... ...
ROW 15 : ... .. . ... ... ... : ... .. . ... ... ... : D-3 01 . ... ... ... : ... .. . ... ... : ... .. . ... : ... .. 0 ... ... ... ... : ... .. 0 ... ... ... ... : ... .. . ... ... ... ...
ROW 16 : ... .. . ... ... ... : ... .. . ... ... ... : ... .. . ... ... ... : D-# 05 . S02 ... : ... .. . ... : ... .. 7 ... A00 ... ... : ... .. 7 ... A00 ... ... : ... .. . ... ... ... ...
ROW 17 : ... .. . ... ... ... : ... .. . ... ... ... : ... .. . ... ... ... : ... .. . ... ... : ... .. . ... : ... .. 0 ... ... ... ... : ... .. 0 ... ... ... ... : ... .. . ... ... ... ...
ROW 18 : ... .. . 466 ... ... : ... .. 8 ... ... ... : A#3 09 . ... ... ... : 6-# 07 . ... ... : ... .. . ... : ... .. 8 ... ... ... ... : ... .. 8 ... ... ... ... : ... .. . ... ... ... ...
ROW 19 : ... .. . ... ... ... : ... .. . ... ... ... : --- .. . ... ... ... : ... .. . ... ... : ... .. . ... : ... .. 0 ... ... ... ... : ... .. 0 ... ... ... ... : ... .. . ... ... ... ...
ROW 1A : ... .. . ... ... ... : ... .. . ... ... ... : ... .. . ... ... ... : D-# 05 . S02 ... : ... .. . ... : ... .. 8 ... ... ... ... : ... .. 8 ... ... ... ... : ... .. . ... ... ... ...
ROW 1B : ... .. . ... ... ... : ... .. . ... ... ... : ... .. . ... ... ... : ... .. . ... ... : ... .. . ... : ... .. 0 ... ... ... ... : ... .. 0 ... ... ... ... : ... .. . ... ... ... ...
ROW 1C : ... .. . ... ... ... : E-3 0E A ... ... ... : F#3 08 . ... ... ... : E-# 05 . S02 ... : ... .. . ... : ... .. 9 ... ... ... ... : ... .. 9 ... ... ... ... : ... .. . ... ... ... ...
ROW 1D : ... .. . ... ... ... : ... .. . ... ... ... : D-3 00 . ... ... ... : ... .. . ... ... : ... .. . ... : ... .. 0 ... ... ... ... : ... .. 0 ... ... ... ... : ... .. . ... ... ... ...
ROW 1E : ... .. . ... ... ... : ... .. . ... ... ... : ... .. . ... ... ... : D-# 05 . S02 ... : ... .. . ... : ... .. 9 ... ... ... ... : ... .. 9 ... ... ... ... : ... .. . ... ... ... ...
ROW 1F : ... .. . ... ... ... : ... .. . ... ... ... : ... .. . ... ... ... : ... .. . ... ... : ... .. . ... : ... .. 0 ... ... ... ... : ... .. 0 ... ... ... ... : ... .. . ... ... ... ...
ROW 20 : D-3 02 4 ... ... ... : ... .. 8 ... ... ... : ... .. . 206 ... ... : F-# 04 . ... ... : ... .. . ... : C-4 10 6 200 A00 ... ... : A#3 10 6 200 A00 ... ... : A#0 11 . ... ... ... ...
ROW 21 : ... .. . ... ... ... : ... .. . ... ... ... : ... .. . ... ... ... : ... .. . ... ... : ... .. . ... : ... .. . ... ... ... ... : ... .. . ... ... ... ... : ... .. . ... ... ... ...
ROW 22 : ... .. . ... ... ... : ... .. . ... ... ... : ... .. . ... ... ... : D-# 05 . S02 ... : ... .. . ... : ... .. . ... ... ... ... : ... .. . ... ... ... ... : ... .. . ... ... ... ...
ROW 23 : ... .. . ... ... ... : ... .. . ... ... ... : ... .. . ... ... ... : ... .. . ... ... : ... .. . ... : --- .. . ... ... ... ... : --- .. . ... ... ... ... : --- .. . ... ... ... ...
ROW 24 : ... .. . ... ... ... : ... .. 4 ... ... ... : F#3 08 . 200 ... ... : E-# 05 . S02 ... : ... .. . ... : C-4 10 6 200 A00 ... ... : A#3 10 6 200 A00 ... ... : A#0 11 . ... ... ... ...
ROW 25 : ... .. . ... ... ... : ... .. . ... ... ... : D-2 00 . ... ... ... : ... .. . ... ... : ... .. . ... : ... .. . ... ... ... ... : ... .. . ... ... ... ... : ... .. . ... ... ... ...
ROW 26 : ... .. . ... ... ... : ... .. . ... ... ... : ... .. . ... ... ... : D-# 05 . S02 ... : ... .. . ... : ... .. . ... S01 ... ... : ... .. . S01 ... ... ... : ... .. . S01 ... ... ...
ROW 27 : ... .. . ... ... ... : ... .. . ... ... ... : ... .. . ... ... ... : ... .. . ... ... : ... .. . ... : ... .. . ... ... ... ... : ... .. . ... ... ... ... : ... .. . ... ... ... ...
ROW 28 : G#2 00 9 400 ... ... : E-3 00 9 ... ... ... : A#3 09 . ... ... ... : 6-# 07 . ... ... : ... .. . ... : ... .. . ... ... ... ... : ... .. . ... ... ... ... : ... .. . ... ... ... ...
ROW 29 : G#2 00 7 ... ... ... : E-3 00 7 ... ... ... : D-2 00 . ... ... ... : ... .. . ... ... : ... .. . ... : ... .. . ... ... ... ... : ... .. . ... ... ... ... : ... .. . ... ... ... ...
ROW 2A : B-2 00 9 ... ... ... : F#3 00 9 ... ... ... : ... .. . ... ... ... : D-# 05 . S02 ... : ... .. . ... : ... .. . ... ... ... ... : ... .. . ... ... ... ... : ... .. . ... ... ... ...
ROW 2B : B-2 00 7 ... ... ... : F#3 00 7 ... ... ... : ... .. . ... ... ... : ... .. . ... ... : ... .. . ... : ... .. . ... ... ... ... : ... .. . ... ... ... ... : ... .. . ... ... ... ...
ROW 2C : E-3 00 9 ... ... ... : G#3 00 9 ... ... ... : F#3 08 . ... ... ... : E-# 05 . S02 ... : ... .. . ... : ... .. . ... ... ... ... : ... .. . ... ... ... ... : ... .. . ... ... ... ...
ROW 2D : E-3 00 7 ... ... ... : G#3 00 7 ... ... ... : D-2 01 . ... ... ... : ... .. . ... ... : ... .. . ... : ... .. . ... ... ... ... : ... .. . ... ... ... ... : ... .. . ... ... ... ...
ROW 2E : F#3 00 9 ... ... ... : B-3 00 9 ... ... ... : ... .. . ... ... ... : D-# 05 . S02 ... : ... .. . ... : ... .. . ... ... ... ... : ... .. . ... ... ... ... : ... .. . ... ... ... ...
ROW 2F : F#3 00 7 ... ... ... : B-3 00 7 ... ... ... : ... .. . ... ... ... : ... .. . ... ... : ... .. . ... : ... .. . ... ... ... ... : ... .. . ... ... ... ... : ... .. . ... ... ... ...
ROW 30 : G#3 00 9 ... ... ... : E-4 00 9 ... ... ... : ... .. . ... ... ... : F-# 04 . ... ... : ... .. . ... : C-4 10 . ... ... ... ... : D-4 10 . ... ... ... ... : ... .. . ... ... ... ...
ROW 31 : G#3 00 7 ... ... ... : E-4 00 7 ... ... ... : ... .. . ... ... ... : ... .. . ... ... : ... .. . ... : ... .. . ... ... ... ... : ... .. . ... ... ... ... : ... .. . ... ... ... ...
ROW 32 : B-3 00 9 ... ... ... : F#4 00 9 ... ... ... : ... .. . ... ... ... : D-# 05 . S02 ... : ... .. . ... : ... .. . ... ... ... ... : ... .. . ... ... ... ... : ... .. . ... ... ... ...
ROW 33 : B-3 00 7 ... ... ... : F#4 00 7 ... ... ... : ... .. . ... ... ... : ... .. . ... ... : ... .. . ... : --- .. . ... ... ... ... : --- .. . ... ... ... ... : ... .. . ... ... ... ...
ROW 34 : E-4 00 9 ... ... ... : G#4 00 9 ... ... ... : F#3 08 . ... ... ... : E-# 05 . S02 ... : ... .. . ... : C-4 10 . ... ... ... ... : D-4 10 . ... ... ... ... : ... .. . ... ... ... ...
ROW 35 : E-4 00 7 ... ... ... : G#4 00 7 ... ... ... : D-3 01 . ... ... ... : ... .. . ... ... : ... .. . ... : ... .. . ... ... ... ... : ... .. . ... ... ... ... : ... .. . ... ... ... ...
ROW 36 : F#4 00 9 ... ... ... : B-4 00 9 ... ... ... : ... .. . ... ... ... : D-# 05 . S02 ... : ... .. . ... : --- .. . ... ... ... ... : --- .. . ... ... ... ... : ... .. . ... ... ... ...
ROW 37 : F#4 00 7 ... ... ... : B-4 00 7 ... ... ... : ... .. . ... ... ... : ... .. . ... ... : ... .. . ... : ... .. . ... ... ... ... : ... .. . ... ... ... ... : ... .. . ... ... ... ...
ROW 38 : G#4 00 9 ... ... ... : E-5 00 9 ... ... ... : A#3 09 . ... ... ... : 6-# 07 . ... ... : ... .. . ... : C-1 10 . 125 ... ... ... : G-2 10 . 125 ... ... ... : ... .. . ... ... ... ...
ROW 39 : G#4 00 7 ... ... ... : E-5 00 7 ... ... ... : --- .. . ... ... ... : ... .. . ... ... : ... .. . ... : ... .. . ... ... ... ... : ... .. . ... ... ... ... : ... .. . ... ... ... ...
ROW 3A : B-4 00 9 ... ... ... : F#5 00 9 ... ... ... : ... .. . ... ... ... : D-# 05 . S02 ... : ... .. . ... : ... .. . ... ... ... ... : ... .. . ... ... ... ... : ... .. . ... ... ... ...
ROW 3B : B-4 00 7 ... ... ... : F#5 00 7 ... ... ... : ... .. . ... ... ... : ... .. . ... ... : ... .. . ... : ... .. . ... ... ... ... : ... .. . ... ... ... ... : ... .. . ... ... ... ...
ROW 3C : D-5 00 9 ... ... ... : G-3 0E 9 ... ... ... : F#3 08 . ... ... ... : E-# 05 . S02 ... : ... .. . ... : ... .. . ... ... ... ... : ... .. . ... ... ... ... : ... .. . ... ... ... ...
ROW 3D : ... .. . ... ... ... : ... .. . ... ... ... : D-3 00 . ... ... ... : ... .. . ... ... : ... .. . ... : ... .. . ... ... ... ... : ... .. . ... ... ... ... : ... .. . ... ... ... ...
ROW 3E : ... .. . ... ... ... : ... .. . ... ... ... : ... .. . ... ... ... : D-# 05 . S02 ... : ... .. . ... : ... .. . ... ... ... ... : ... .. . ... ... ... ... : ... .. . ... ... ... ...
ROW 3F : ... .. . ... ... ... : ... .. . ... ... ... : ... .. . ... ... ... : ... .. . ... ... : ... .. . ... : ... .. . ... ... ... ... : ... .. . ... ... ... ... : ... .. . ... ... ... ...

PATTERN 11
ROW 00 : ... .. . 206 ... ... : ... .. 4 ... ... ... : ... .. . 206 ... ... : F-# 04 . ... ... : ... .. . ... : ... .. . ... ... ... ... : ... .. . ... ... ... ... : ... .. . ... ... ... ...
ROW 01 : ... .. . ... ... ... : ... .. . ... ... ... : ... .. . ... ... ... : ... .. . ... ... : ... .. . ... : ... .. . ... ... ... ... : ... .. . ... ... ... ... : ... .. . ... ... ... ...
ROW 02 : ... .. . ... ... ... : ... .. . ... ... ... : ... .. . ... ... ... : D-# 05 . S02 ... : ... .. . ... : ... .. . ... ... ... ... : ... .. . ... ... ... ... : ... .. . ... ... ... ...
ROW 03 : ... .. . ... ... ... : ... .. . ... ... ... : ... .. . ... ... ... : ... .. . ... ... : ... .. . ... : ... .. . ... ... ... ... : ... .. . ... ... ... ... : ... .. . ... ... ... ...
ROW 04 : D-5 00 3 200 ... ... : ... .. 2 ... ... ... : F#3 08 . 200 ... ... : E-# 05 . S02 ... : ... .. . ... : ... .. . ... ... ... ... : ... .. . ... ... ... ... : ... .. . ... ... ... ...
ROW 05 : ... .. . ... ... ... : ... .. . ... ... ... : D-2 00 . ... ... ... : ... .. . ... ... : ... .. . ... : ... .. . ... ... ... ... : ... .. . ... ... ... ... : ... .. . ... ... ... ...
ROW 06 : ... .. . ... ... ... : ... .. . ... ... ... : ... .. . ... ... ... : D-# 05 . S02 ... : ... .. . ... : ... .. . ... ... ... ... : ... .. . ... ... ... ... : ... .. . ... ... ... ...
ROW 07 : ... .. . ... ... ... : ... .. . ... ... ... : ... .. . ... ... ... : ... .. . ... ... : ... .. . ... : ... .. . ... ... ... ... : ... .. . ... ... ... ... : ... .. . ... ... ... ...
ROW 08 : ... .. . 206 ... ... : ... .. . ... ... ... : A#3 09 . ... ... ... : 6-# 07 . ... ... : ... .. . ... : ... .. . ... ... ... ... : ... .. . ... ... ... ... : ... .. . ... ... ... ...
ROW 09 : ... .. . ... ... ... : ... .. . ... ... ... : D-2 00 . ... ... ... : ... .. . ... ... : ... .. . ... : ... .. . ... ... ... ... : ... .. . ... ... ... ... : ... .. . ... ... ... ...
ROW 0A : ... .. . ... ... ... : ... .. . ... ... ... : ... .. . ... ... ... : D-# 05 . S02 ... : ... .. . ... : ... .. . ... ... ... ... : ... .. . ... ... ... ... : ... .. . ... ... ... ...
ROW 0B : ... .. . ... ... ... : ... .. . ... ... ... : ... .. . ... ... ... : ... .. . ... ... : ... .. . ... : ... .. . ... ... ... ... : ... .. . ... ... ... ... : ... .. . ... ... ... ...
ROW 0C : D-5 00 1 200 ... ... : ... .. . ... ... ... : F#3 08 . ... ... ... : E-# 05 . S02 ... : ... .. . ... : ... .. . ... ... ... ... : ... .. . ... ... ... ... : ... .. . ... ... ... ...
ROW 0D : ... .. . ... ... ... : ... .. . ... ... ... : D-2 01 . ... ... ... : ... .. . ... ... : ... .. . ... : ... .. . ... ... ... ... : ... .. . ... ... ... ... : ... .. . ... ... ... ...
ROW 0E : A-4 00 . ... ... ... : F-5 00 . ... ... ... : ... .. . ... ... ... : D-# 05 . S02 ... : ... .. . ... : ... .. . ... ... ... ... : ... .. . ... ... ... ... : ... .. . ... ... ... ...
ROW 0F : A#4 00 . ... ... ... : F#5 00 . ... ... ... : ... .. . ... ... ... : ... .. . ... ... : ... .. . ... : ... .. . ... ... ... ... : ... .. . ... ... ... ... : ... .. . ... ... ... ...
ROW 10 : B-4 00 9 ... ... ... : G-5 00 9 ... ... ... : ... .. . ... ... ... : F-# 04 . ... ... : ... .. . ... : ... .. . ... ... ... ... : ... .. . ... ... ... ... : ... .. . ... ... ... ...
ROW 11 : B-4 00 7 ... ... ... : G-5 00 7 ... ... ... : ... .. . ... ... ... : ... .. . ... ... : ... .. . ... : ... .. . ... ... ... ... : ... .. . ... ... ... ... : ... .. . ... ... ... ...
ROW 12 : A-4 00 9 ... ... ... : D-5 00 9 ... ... ... : ... .. . ... ... ... : D-# 05 . S02 ... : ... .. . ... : ... .. . ... ... ... ... : ... .. . ... ... ... ... : ... .. . ... ... ... ...
ROW 13 : A-4 00 7 ... ... ... : D-5 00 7 ... ... ... : ... .. . ... ... ... : ... .. . ... ... : ... .. . ... : ... .. . ... ... ... ... : ... .. . ... ... ... ... : ... .. . ... ... ... ...
ROW 14 : G-4 00 9 ... ... ... : A#4 00 9 ... ... ... : F#3 08 . ... ... ... : E-# 05 . S02 ... : ... .. . ... : ... .. . ... ... ... ... : ... .. . ... ... ... ... : ... .. . ... ... ... ...
ROW 15 : G-4 00 7 ... ... ... : A#4 00 7 ... ... ... : F-2 00 . ... ... ... : ... .. . ... ... : ... .. . ... : ... .. . ... ... ... ... : ... .. . ... ... ... ... : ... .. . ... ... ... ...
ROW 16 : D-4 00 9 ... ... ... : A-4 00 9 ... ... ... : ... .. . ... ... ... : D-# 05 . S02 ... : ... .. . ... : ... .. . ... ... ... ... : ... .. . ... ... ... ... : ... .. . ... ... ... ...
ROW 17 : D-4 00 7 ... ... ... : A-4 00 7 ... ... ... : ... .. . ... ... ... : ... .. . ... ... : ... .. . ... : ... .. . ... ... ... ... : ... .. . ... ... ... ... : ... .. . ... ... ... ...
ROW 18 : A#3 00 9 ... ... ... : G-4 00 9 ... ... ... : A#3 09 . ... ... ... : 6-# 07 . ... ... : ... .. . ... : ... .. . ... ... ... ... : ... .. . ... ... ... ... : ... .. . ... ... ... ...
ROW 19 : A#3 00 7 ... ... ... : G-4 00 7 ... ... ... : D-2 00 . ... ... ... : ... .. . ... ... : ... .. . ... : ... .. . ... ... ... ... : ... .. . ... ... ... ... : ... .. . ... ... ... ...
ROW 1A : G-3 00 9 ... ... ... : D-4 00 9 ... ... ... : ... .. . ... ... ... : D-# 05 . S02 ... : ... .. . ... : ... .. . ... ... ... ... : ... .. . ... ... ... ... : ... .. . ... ... ... ...
ROW 1B : G-3 00 7 ... ... ... : D-4 00 7 ... ... ... : ... .. . ... ... ... : ... .. . ... ... : ... .. . ... : ... .. . ... ... ... ... : ... .. . ... ... ... ... : ... .. . ... ... ... ...
ROW 1C : E-3 00 9 ... ... ... : G-3 00 9 ... ... ... : F#3 08 . ... ... ... : E-# 04 . S02 ... : ... .. . ... : ... .. . ... ... ... ... : ... .. . ... ... ... ... : ... .. . ... ... ... ...
ROW 1D : E-3 00 7 ... ... ... : G-3 00 7 ... ... ... : G-1 04 . ... ... ... : ... .. . ... ... : ... .. . ... : ... .. . ... ... ... ... : ... .. . ... ... ... ... : ... .. . ... ... ... ...
ROW 1E : D#3 00 9 ... ... ... : F#3 00 9 ... ... ... : ... .. . ... ... ... : D-# 05 . S02 ... : ... .. . ... : ... .. . ... ... ... ... : ... .. . ... ... ... ... : ... .. . ... ... ... ...
ROW 1F : D#3 00 7 ... ... ... : F#3 00 7 ... ... ... : ... .. . ... ... ... : ... .. . ... ... : ... .. . ... : ... .. . ... ... ... ... : ... .. . ... ... ... ... : ... .. . ... ... ... ...
ROW 20 : D-3 00 6 ... ... ... : F-3 00 6 ... ... ... : F#3 08 . ... ... ... : E-# 04 . ... ... : ... .. . ... : ... .. . ... ... ... ... : ... .. . ... ... ... ... : ... .. . ... ... ... ...
ROW 21 : ... .. . ... ... ... : ... .. . ... ... ... : A#1 00 . ... ... ... : ... .. . ... ... : ... .. . ... : ... .. . ... ... ... ... : ... .. . ... ... ... ... : ... .. . ... ... ... ...
ROW 22 : ... .. . ... ... ... : ... .. . ... ... ... : ... .. . ... ... ... : ... .. . ... ... : ... .. . ... : ... .. . ... ... ... ... : ... .. . ... ... ... ... : ... .. . ... ... ... ...
ROW 23 : --- .. . ... ... ... : --- .. . ... ... ... : ... .. . ... ... ... : ... .. . ... ... : ... .. . ... : ... .. . ... ... ... ... : ... .. . ... ... ... ... : ... .. . ... ... ... ...
ROW 24 : D-3 00 4 ... ... ... : F-3 00 . ... ... ... : F#3 08 . ... ... ... : E-# 05 . ... ... : ... .. . ... : ... .. . ... ... ... ... : ... .. . ... ... ... ... : ... .. . ... ... ... ...
ROW 25 : ... .. . ... ... ... : ... .. . ... ... ... : A#1 00 . ... ... ... : ... .. . ... ... : ... .. . ... : ... .. . ... ... ... ... : ... .. . ... ... ... ... : ... .. . ... ... ... ...
ROW 26 : ... .. . S01 ... ... : ... .. . S01 ... ... : ... .. . S01 ... ... : ... .. . S01 ... : ... .. . ... : ... .. . ... ... ... ... : ... .. . ... ... ... ... : ... .. . ... ... ... ...
ROW 27 : ... .. . ... ... ... : ... .. . ... ... ... : ... .. . ... ... ... : ... .. . ... ... : ... .. . ... : ... .. . ... ... ... ... : ... .. . ... ... ... ... : ... .. . ... ... ... ...
ROW 28 : A#5 00 2 205 ... ... : D#5 00 2 101 ... ... : A#3 09 . ... ... ... : 6-# 07 . ... ... : ... .. . ... : ... .. . ... ... ... ... : ... .. . ... ... ... ... : ... .. . ... ... ... ...
ROW 29 : ... .. . ... ... ... : ... .. . ... ... ... : --- 00 . ... ... ... : ... .. . ... ... : ... .. . ... : ... .. . ... ... ... ... : ... .. . ... ... ... ... : ... .. . ... ... ... ...
ROW 2A : ... .. . ... ... ... : ... .. . ... ... ... : ... .. . ... ... ... : ... .. . ... ... : ... .. . ... : ... .. . ... ... ... ... : ... .. . ... ... ... ... : ... .. . ... ... ... ...
ROW 2B : ... .. . ... ... ... : ... .. . ... ... ... : ... .. . ... ... ... : ... .. . ... ... : ... .. . ... : ... .. . ... ... ... ... : ... .. . ... ... ... ... : ... .. . ... ... ... ...
ROW 2C : ... .. . ... ... ... : ... .. . ... ... ... : ... .. . ... ... ... : ... .. . ... ... : ... .. . ... : ... .. . ... ... ... ... : ... .. . ... ... ... ... : ... .. . ... ... ... ...
ROW 2D : ... .. . ... ... ... : ... .. . ... ... ... : ... .. . ... ... ... : ... .. . ... ... : ... .. . ... : ... .. . ... ... ... ... : ... .. . ... ... ... ... : ... .. . ... ... ... ...
ROW 2E : ... .. . ... ... ... : ... .. . ... ... ... : ... .. . ... ... ... : ... .. . ... ... : ... .. . ... : ... .. . ... ... ... ... : ... .. . ... ... ... ... : ... .. . ... ... ... ...
ROW 2F : ... .. . ... ... ... : ... .. . ... ... ... : ... .. . ... ... ... : ... .. . ... ... : ... .. . ... : ... .. . ... ... ... ... : ... .. . ... ... ... ... : ... .. . ... ... ... ...
ROW 30 : E-3 00 6 200 ... ... : G-3 00 6 100 ... ... : F#3 08 . ... ... ... : E-# 04 . ... ... : ... .. . ... : ... .. . ... ... ... ... : ... .. . ... ... ... ... : ... .. . ... ... ... ...
ROW 31 : ... .. . ... ... ... : ... .. . ... ... ... : C-2 00 . ... ... ... : ... .. . ... ... : ... .. . ... : ... .. . ... ... ... ... : ... .. . ... ... ... ... : ... .. . ... ... ... ...
ROW 32 : ... .. . ... ... ... : ... .. . ... ... ... : ... .. . ... ... ... : ... .. . ... ... : ... .. . ... : ... .. . ... ... ... ... : ... .. . ... ... ... ... : ... .. . ... ... ... ...
ROW 33 : --- .. . ... ... ... : --- .. . ... ... ... : ... .. . ... ... ... : ... .. . ... ... : ... .. . ... : ... .. . ... ... ... ... : ... .. . ... ... ... ... : ... .. . ... ... ... ...
ROW 34 : E-3 00 . ... ... ... : G-3 00 . ... ... ... : F#3 08 . ... ... ... : 6-# 07 . ... ... : ... .. . ... : ... .. . ... ... ... ... : ... .. . ... ... ... ... : ... .. . ... ... ... ...
ROW 35 : ... .. . ... ... ... : ... .. . ... ... ... : C-2 00 . ... ... ... : ... .. . ... ... : ... .. . ... : ... .. . ... ... ... ... : ... .. . ... ... ... ... : ... .. . ... ... ... ...
ROW 36 : --- .. . ... ... ... : --- .. . ... ... ... : ... .. . ... ... ... : ... .. . ... ... : ... .. . ... : ... .. . ... ... ... ... : ... .. . ... ... ... ... : ... .. . ... ... ... ...
ROW 37 : ... .. . ... ... ... : ... .. . ... ... ... : ... .. . ... ... ... : ... .. . ... ... : ... .. . ... : ... .. . ... ... ... ... : ... .. . ... ... ... ... : ... .. . ... ... ... ...
ROW 38 : ... .. . ... ... ... : ... .. . ... ... ... : A#3 09 . ... ... ... : 6-# 07 . ... ... : ... .. . ... : ... .. . ... ... ... ... : ... .. . ... ... ... ... : ... .. . ... ... ... ...
ROW 39 : ... .. . ... ... ... : ... .. . ... ... ... : --- 00 . ... ... ... : ... .. . ... ... : ... .. . ... : ... .. . ... ... ... ... : ... .. . ... ... ... ... : ... .. . ... ... ... ...
ROW 3A : ... .. . ... ... ... : ... .. . ... ... ... : ... .. . ... ... ... : ... .. . ... ... : ... .. . ... : ... .. . ... ... ... ... : ... .. . ... ... ... ... : ... .. . ... ... ... ...
ROW 3B : ... .. . ... ... ... : ... .. . ... ... ... : ... .. . ... ... ... : ... .. . ... ... : ... .. . ... : ... .. . ... ... ... ... : ... .. . ... ... ... ... : ... .. . ... ... ... ...
ROW 3C : ... .. . ... ... ... : ... .. . ... ... ... : ... .. . ... ... ... : 6-# 07 . ... ... : ... .. . ... : ... .. . ... ... ... ... : ... .. . ... ... ... ... : ... .. . ... ... ... ...
ROW 3D : ... .. . ... ... ... : ... .. . ... ... ... : ... .. . ... ... ... : ... .. . ... ... : ... .. . ... : ... .. . ... ... ... ... : ... .. . ... ... ... ... : ... .. . ... ... ... ...
ROW 3E : ... .. . ... ... ... : ... .. . ... ... ... : ... .. . ... ... ... : 6-# 07 . ... ... : ... .. . ... : ... .. . ... ... ... ... : ... .. . ... ... ... ... : ... .. . ... ... ... ...
ROW 3F : ... .. . ... ... ... : ... .. . ... ... ... : ... .. . B01 ... ... : ... .. . ... ... : ... .. . ... : ... .. . ... ... ... ... : ... .. . ... ... ... ... : ... .. . ... ... ... ...

# End of export
