# FamiTracker text export 0.4.2

# Song information
TITLE           "Sinbad"
AUTHOR          "Kiliran"
COPYRIGHT       "CC-BY"

# Song comment
COMMENT         ""
# Global settings
MACHINE         0
FRAMERATE       0
EXPANSION       0
VIBRATO         1
SPLIT           32

# Macros
MACRO       0    0   -1   -1   0 : 13 15 14 12 11 10 9
MACRO       0    1   -1   -1   0 : 1 6 9 11
MACRO       0    2   -1   -1   0 : 15 15 15 15 15 15 15 15 15 15 15 14 13 12 11 10 9 8 7 7
MACRO       0    3   -1   -1   0 : 9 10 11 11 11 11 11 11 11 11 11 11 11 11 11 11 11 11 11 11 11 11 11 11 11 11 10 10 10 9 9 9 8 8 8 7 7 7 6 6
MACRO       0    4    9   -1   0 : 11 11 11 11 7 6 5 4 4 4
MACRO       1    0   -1   -1   0 : -4 0 0 0 0 0 0 0
MACRO       2    0   -1   -1   0 : -2 1 1 0 0 2 -1 -1
MACRO       2    1   -1   -1   0 : -10 8 2 0 0 0 0 0
MACRO       2    2    7   -1   0 : 0 0 0 0 0 0 0 0 3 1 0 -1 -3 -3 -1 0 4
MACRO       2    3    1   -1   0 : 0 -1 0 0 1 1 0 0 -1
MACRO       2    4   12   -1   0 : 0 0 0 0 0 0 0 0 0 0 0 0 0 -1 0 0 0 1 1 0 -1
MACRO       4    0   -1   -1   0 : 2
MACRO       4    1   -1   -1   0 : 0 1
MACRO       4    2   -1   -1   0 : 0 2
MACRO       4    3   -1   -1   0 : 2
MACRO       4    4   -1   -1   0 : 2 0

# DPCM samples
DPCMDEF   0   176 "pouk_nes2"
DPCM : 2B 00 A4 95 85 F6 D6 B6 AC 8C C3 FF FF FF F9 7B 4B 8A 24 12 25 49 12 21 12 09 00 00 C0 0C 7A 84 07 C7 E2 F0 F0 87 FF FF 7D EA F3 79 DD 9B DB F6 DB 2D E7 1D 3B 3C 74 F5 AC 3E 7C 79 A4 9A A4 29 A5 81 52 50 44 42 42 82 42 44 42 42 22 92 50 52 12 00 00 00 00 00 00 5B DB DA 6D DB 6D B7 6D D7 BB ED BA 6D D7 B6 56 5B AD 55 AB 55 2D 2D B5 94 55 A9 A9 A1 AA 34 49 AA A4 12 55 A5 26 A9 8A 52 A5 52 A9 45 2B 95 AA 2A 55 2D B5 CA AA AC AA 5A 2A AB AA AA 56 55 2D 55 55 A9 55 55 D5 AA AA 6A 55 55 55 55 55 55 55 55 55 55 55 55 55 55 55 55
DPCMDEF   1   304 "tchak_nes2"
DPCM : FF 47 90 13 3A F8 C0 07 00 60 BC F6 A3 9F F8 03 3F E0 2F FC FB FF 13 A3 00 F8 80 3F E8 03 04 0A AA 03 4B 62 E1 F1 FE 17 FB FC CF BB 67 80 F8 80 FF 84 3F 88 30 04 80 C0 1C 9E 47 CF 1B B9 43 7C C7 FB 9E FB F1 F0 60 0F 07 71 64 38 1B CC C1 3B 18 3C 00 69 C0 3B F2 6F F6 73 4F F8 87 38 BE 2F FC 87 E1 68 38 1C C0 03 9C 88 C2 03 F0 9C 31 1F F3 87 FB C7 FF BB 2C A7 2C 75 E4 01 F1 38 A0 03 1E 61 82 42 C1 6D 7E 1C CF F3 73 E6 EE B1 67 87 CB 98 06 3E D0 62 9C 19 3C E4 04 0E D3 31 BC 72 5C D7 C7 9E E6 B8 BC 91 E6 A6 32 0F E6 90 3D 28 8A C3 13 8E 78 E2 0E 72 CD 89 CD 1D E7 C9 B7 BC BC 71 CC 2C 16 56 2C EA 44 0E 71 11 CE 28 EC F0 D8 07 F7 98 C7 B3 9B F3 9C 0F C7 83 33 3C 83 82 0F 8C 63 88 67 78 E4 E8 03 3F EC 3C CE E3 B8 5E 16 C7 38 E6 A1 69 1D F2 18 8B 91 1E 8C F3 88 8F C2 E3 87 1B 8F 71 B6 78 1C 8F 79 38 34 B3 A4 2E F1 19 46 2D 9C 83 99 39 BA 71 F8 74 AC 8D A7 93 3C 89 E7 60 B7 8C 3A 4B 59 1C CE 61 5C 72 9C 52
DPCMDEF   2   256 "plok_nes2"
DPCM : 3F F8 03 00 C0 FF FF 3F 81 04 88 07 00 80 FE FF FF 33 C3 FE FD 07 06 00 C0 21 1F 40 FF FF 39 F8 03 F9 1F 00 00 1E F8 FF 03 3E F8 FF 1F 00 00 E0 DF C3 03 08 FE FF 1F 00 60 E8 7F FE 00 C0 1D FE 1F FE 67 3F 00 06 00 00 EF 91 F9 93 FF BF 03 87 EF E1 0A 00 00 FF 1F C9 04 E0 FF FF 01 0C E0 DF E3 03 C0 81 FF FF 07 C0 F8 F0 1A 62 60 F8 DC E7 C2 42 68 EC D3 79 30 78 F0 3E F8 0F F3 C3 FB 20 C1 20 12 F0 7C 1C 24 7B E3 FF EC 05 F7 38 32 43 60 30 5E 37 C7 B0 7C 9C 1B 99 5C 38 CE F9 1C 90 31 FE 8B 77 70 32 B8 1C 38 96 3A 66 7B 2C 9C 99 4B 0C 3B BE 20 DC FC 38 CE 1F F1 3C 30 0F 3C 43 E4 81 0F 70 42 FF F1 C7 07 F3 29 38 CD 98 C3 8F A1 07 78 96 DE 83 1D C3 7C 88 0F 7A 18 76 3F F6 C0 84 4D 3A 6B 6C C8 6F F0 01 7D B1 EB 43 D8 C1 B3 63 00 4E C3 FE C7 8F 78 55 55 55 55 55 55 55
DPCMDEF   3   464 "hit_nes3"
DPCM : 57 39 39 38 A3 25 80 FD FF F3 FF B3 01 00 C0 00 DE 3E 9F FF D9 40 78 E4 B2 15 33 39 0C 93 32 E2 0C 87 EB F3 6F 7E 8B 79 EC 58 2C 01 80 04 89 83 F3 03 FE FD E1 E9 C3 07 1E C0 81 23 F9 E1 C8 19 67 33 F7 F1 FF E1 FF C3 39 77 66 1C C4 84 C7 C0 03 A4 A0 02 18 20 82 4A CC 48 E6 D8 ED CE B7 9C 7B F6 58 8E CB EF CC 61 9A 2D 9B 8F A9 6A C6 F1 1C 3F FE CD 9F ED 26 93 35 C9 B0 87 18 11 11 9C 80 0C 80 88 40 98 D9 88 E1 B0 93 24 DE B9 F3 BD CF 71 F3 92 6F CC 5D 6C A6 89 A9 27 3C B2 E8 39 79 27 9E 53 76 26 FE F0 1C 8F 36 63 34 C7 D9 99 0C 43 C6 E6 79 98 67 CC 66 E2 19 C7 92 67 99 0F BB 88 B5 19 63 1A 20 63 80 41 73 98 8C C9 32 86 EF F0 6E 9A C9 88 79 66 4E CD D8 6C CC 9C B9 4A BB 89 79 AA 26 1F CF DA 49 67 F6 98 D3 F8 E6 18 B6 A3 39 4E 47 22 57 AE C4 27 32 96 0D B7 33 0D 73 9E 91 6A E8 CC 8E 31 E3 51 B6 30 E3 A4 85 63 99 B1 C6 81 87 33 8D 39 33 78 A3 23 73 8F EC 98 EC 08 EB 54 CC 1C 8D CD 71 69 1C 6B AE 8B 9E B3 99 8B CD D9 31 2B 7C 8C 2D 9B 96 C7 78 C6 D8 46 86 4E 78 26 37 13 3B 69 23 93 C3 2B D6 16 1D 39 4C 96 33 4A 1A 6F D8 0C 9B 38 33 53 8A 33 67 F3 99 39 9B B1 C5 4A 4E 2D 3C 55 8E 65 AE 31 79 EE 38 73 CC 66 96 B9 31 B1 45 66 76 9C 39 6D 9C 38 CE 98 4C 1C 67 78 A4 A3 09 73 8B 19 36 2D 67 32 4E CD 70 63 4E 5B 78 E4 18 1E 9B 71 2A 37 71 4C 9B 75 B9 96 0B 73 8E E1 71 CE DA 98 F1 9C 66 69 96 39 6D 8D 53 8C 66 AC 62 E3 9C D9 4C 9C 9C 6A CE 99 C8 99 8C 33 D3 18 C6 A9 54 39 53 35 AE AA

# Instruments
INST2A03   0    -1  -1   0  -1  -1 "bass2"
INST2A03   1     0   0   1  -1   0 "Instrument 1"
INST2A03   2     1  -1   2  -1   1 "Instrument 2"
INST2A03   3     2  -1   3  -1   2 "Instrument 5"
INST2A03   4     3  -1   4  -1   3 "Instrument 6"
INST2A03   5     4  -1  -1  -1   4 "Instrument 8"
INST2A03   6    -1  -1  -1  -1  -1 "DPCM"
KEYDPCM   6   3  11     0  15   0     0  -1
KEYDPCM   6   4   0     1  15   0     0  -1
KEYDPCM   6   4   2     2  15   0     0  -1
KEYDPCM   6   4   4     3  15   0     0  -1

# Tracks
TRACK 224   1 150 " "
COLUMNS : 3 3 3 3 3

ORDER 00 : 00 00 00 00 00
ORDER 01 : 01 01 01 01 01
ORDER 02 : 02 02 02 02 02
ORDER 03 : 03 02 02 02 02
ORDER 04 : 04 02 03 02 03
ORDER 05 : 05 02 03 02 04
ORDER 06 : 06 03 04 02 05
ORDER 07 : 07 03 05 02 05
ORDER 08 : 08 03 04 02 05
ORDER 09 : 09 03 05 02 06
ORDER 0A : 0A 02 03 02 02
ORDER 0B : 0B 02 03 02 02
ORDER 0C : 02 04 00 00 07
ORDER 0D : 03 05 01 00 08
ORDER 0E : 0C 06 00 00 09
ORDER 0F : 0D 07 01 00 0A

PATTERN 00
ROW 00 : B-1 01 . ... ... ... : B-2 04 . ... ... ... : B-3 05 . ... ... ... : ... .. . ... ... ... : ... .. . ... ... ...
ROW 01 : ... .. . ... ... ... : ... .. . ... ... ... : ... .. . ... ... ... : ... .. . ... ... ... : ... .. . ... ... ...
ROW 02 : ... .. . ... ... ... : ... .. . ... ... ... : ... .. . ... ... ... : ... .. . ... ... ... : ... .. . ... ... ...
ROW 03 : ... .. . ... ... ... : ... .. . ... ... ... : ... .. . ... ... ... : ... .. . ... ... ... : ... .. . ... ... ...
ROW 04 : ... .. . ... ... ... : ... .. . ... ... ... : ... .. . ... ... ... : ... .. . ... ... ... : ... .. . ... ... ...
ROW 05 : ... .. . ... ... ... : ... .. . ... ... ... : ... .. . ... ... ... : ... .. . ... ... ... : ... .. . ... ... ...
ROW 06 : --- .. . ... ... ... : ... .. . ... ... ... : ... .. . ... ... ... : ... .. . ... ... ... : ... .. . ... ... ...
ROW 07 : B-1 01 . ... ... ... : ... .. . ... ... ... : ... .. . ... ... ... : ... .. . ... ... ... : ... .. . ... ... ...
ROW 08 : ... .. . ... ... ... : ... .. . ... ... ... : ... .. . ... ... ... : ... .. . ... ... ... : ... .. . ... ... ...
ROW 09 : ... .. . ... ... ... : ... .. . ... ... ... : ... .. . ... ... ... : ... .. . ... ... ... : ... .. . ... ... ...
ROW 0A : ... .. . ... ... ... : ... .. . ... ... ... : ... .. . ... ... ... : ... .. . ... ... ... : ... .. . ... ... ...
ROW 0B : ... .. . ... ... ... : ... .. . ... ... ... : ... .. . ... ... ... : ... .. . ... ... ... : ... .. . ... ... ...
ROW 0C : ... .. . ... ... ... : ... .. . ... ... ... : ... .. . ... ... ... : ... .. . ... ... ... : ... .. . ... ... ...
ROW 0D : --- .. . ... ... ... : ... .. . ... ... ... : ... .. . ... ... ... : ... .. . ... ... ... : ... .. . ... ... ...
ROW 0E : B-1 01 . ... ... ... : ... .. . ... ... ... : ... .. . ... ... ... : ... .. . ... ... ... : ... .. . ... ... ...
ROW 0F : ... .. . ... ... ... : ... .. . ... ... ... : ... .. . ... ... ... : ... .. . ... ... ... : ... .. . ... ... ...
ROW 10 : ... .. . ... ... ... : ... .. . ... ... ... : ... .. . ... ... ... : ... .. . ... ... ... : ... .. . ... ... ...
ROW 11 : ... .. . ... ... ... : ... .. . ... ... ... : ... .. . ... ... ... : ... .. . ... ... ... : ... .. . ... ... ...
ROW 12 : ... .. . ... ... ... : ... .. . ... ... ... : ... .. . ... ... ... : ... .. . ... ... ... : ... .. . ... ... ...
ROW 13 : ... .. . ... ... ... : ... .. . ... ... ... : ... .. . ... ... ... : ... .. . ... ... ... : ... .. . ... ... ...
ROW 14 : ... .. . ... ... ... : ... .. . ... ... ... : ... .. . ... ... ... : ... .. . ... ... ... : ... .. . ... ... ...
ROW 15 : ... .. . ... ... ... : ... .. . ... ... ... : ... .. . ... ... ... : ... .. . ... ... ... : ... .. . ... ... ...
ROW 16 : ... .. . ... ... ... : ... .. . ... ... ... : ... .. . ... ... ... : ... .. . ... ... ... : ... .. . ... ... ...
ROW 17 : ... .. . ... ... ... : ... .. . ... ... ... : ... .. . ... ... ... : ... .. . ... ... ... : ... .. . ... ... ...
ROW 18 : ... .. . ... ... ... : ... .. . ... ... ... : ... .. . ... ... ... : ... .. . ... ... ... : ... .. . ... ... ...
ROW 19 : ... .. . ... ... ... : ... .. . ... ... ... : ... .. . ... ... ... : ... .. . ... ... ... : ... .. . ... ... ...
ROW 1A : ... .. . ... ... ... : ... .. . ... ... ... : ... .. . ... ... ... : ... .. . ... ... ... : ... .. . ... ... ...
ROW 1B : ... .. . ... ... ... : ... .. . ... ... ... : ... .. . ... ... ... : ... .. . ... ... ... : ... .. . ... ... ...
ROW 1C : ... .. . ... ... ... : ... .. . ... ... ... : ... .. . ... ... ... : C-# 00 . ... ... ... : ... .. . ... ... ...
ROW 1D : ... .. . ... ... ... : ... .. . ... ... ... : ... .. . ... ... ... : ... .. . ... ... ... : ... .. . ... ... ...
ROW 1E : ... .. . ... ... ... : ... .. . ... ... ... : ... .. . ... ... ... : ... .. . ... ... ... : ... .. . ... ... ...
ROW 1F : ... .. . ... ... ... : ... .. . ... ... ... : ... .. . ... ... ... : --- .. . ... ... ... : ... .. . ... ... ...
ROW 20 : ... .. . ... ... ... : ... .. . ... ... ... : ... .. . ... ... ... : ... .. . ... ... ... : ... .. . ... ... ...
ROW 21 : ... .. . ... ... ... : ... .. . ... ... ... : ... .. . ... ... ... : ... .. . ... ... ... : ... .. . ... ... ...
ROW 22 : ... .. . ... ... ... : ... .. . ... ... ... : ... .. . ... ... ... : ... .. . ... ... ... : ... .. . ... ... ...
ROW 23 : ... .. . ... ... ... : ... .. . ... ... ... : ... .. . ... ... ... : ... .. . ... ... ... : ... .. . ... ... ...
ROW 24 : ... .. . ... ... ... : ... .. . ... ... ... : ... .. . ... ... ... : ... .. . ... ... ... : ... .. . ... ... ...
ROW 25 : ... .. . ... ... ... : ... .. . ... ... ... : ... .. . ... ... ... : ... .. . ... ... ... : ... .. . ... ... ...
ROW 26 : ... .. . ... ... ... : ... .. . ... ... ... : ... .. . ... ... ... : ... .. . ... ... ... : ... .. . ... ... ...
ROW 27 : ... .. . ... ... ... : ... .. . ... ... ... : ... .. . ... ... ... : ... .. . ... ... ... : ... .. . ... ... ...
ROW 28 : ... .. . ... ... ... : ... .. . ... ... ... : ... .. . ... ... ... : ... .. . ... ... ... : ... .. . ... ... ...
ROW 29 : ... .. . ... ... ... : ... .. . ... ... ... : ... .. . ... ... ... : ... .. . ... ... ... : ... .. . ... ... ...
ROW 2A : ... .. . ... ... ... : ... .. . ... ... ... : ... .. . ... ... ... : ... .. . ... ... ... : ... .. . ... ... ...
ROW 2B : ... .. . ... ... ... : ... .. . ... ... ... : ... .. . ... ... ... : ... .. . ... ... ... : ... .. . ... ... ...
ROW 2C : ... .. . ... ... ... : ... .. . ... ... ... : ... .. . ... ... ... : ... .. . ... ... ... : ... .. . ... ... ...
ROW 2D : ... .. . ... ... ... : ... .. . ... ... ... : ... .. . ... ... ... : ... .. . ... ... ... : ... .. . ... ... ...
ROW 2E : ... .. . ... ... ... : ... .. . ... ... ... : ... .. . ... ... ... : ... .. . ... ... ... : ... .. . ... ... ...
ROW 2F : ... .. . ... ... ... : ... .. . ... ... ... : ... .. . ... ... ... : ... .. . ... ... ... : ... .. . ... ... ...
ROW 30 : ... .. . ... ... ... : ... .. . ... ... ... : ... .. . ... ... ... : ... .. . ... ... ... : ... .. . ... ... ...
ROW 31 : ... .. . ... ... ... : ... .. . ... ... ... : ... .. . ... ... ... : ... .. . ... ... ... : ... .. . ... ... ...
ROW 32 : ... .. . ... ... ... : ... .. . ... ... ... : ... .. . ... ... ... : ... .. . ... ... ... : ... .. . ... ... ...
ROW 33 : ... .. . ... ... ... : ... .. . ... ... ... : ... .. . ... ... ... : ... .. . ... ... ... : ... .. . ... ... ...
ROW 34 : ... .. . ... ... ... : ... .. . ... ... ... : ... .. . ... ... ... : ... .. . ... ... ... : ... .. . ... ... ...
ROW 35 : ... .. . ... ... ... : ... .. . ... ... ... : ... .. . ... ... ... : ... .. . ... ... ... : ... .. . ... ... ...
ROW 36 : ... .. . ... ... ... : ... .. . ... ... ... : ... .. . ... ... ... : ... .. . ... ... ... : ... .. . ... ... ...
ROW 37 : ... .. . ... ... ... : ... .. . ... ... ... : ... .. . ... ... ... : ... .. . ... ... ... : ... .. . ... ... ...
ROW 38 : ... .. . ... ... ... : F#4 04 . ... ... ... : ... .. . ... ... ... : ... .. . ... ... ... : ... .. . ... ... ...
ROW 39 : ... .. . ... ... ... : ... .. . ... ... ... : ... .. . ... ... ... : ... .. . ... ... ... : ... .. . ... ... ...
ROW 3A : ... .. . ... ... ... : ... .. . ... ... ... : ... .. . ... ... ... : ... .. . ... ... ... : ... .. . ... ... ...
ROW 3B : ... .. . ... ... ... : ... .. . ... ... ... : ... .. . ... ... ... : ... .. . ... ... ... : ... .. . ... ... ...
ROW 3C : ... .. . ... ... ... : ... .. . ... ... ... : ... .. . ... ... ... : ... .. . ... ... ... : ... .. . ... ... ...
ROW 3D : ... .. . ... ... ... : ... .. . ... ... ... : ... .. . ... ... ... : ... .. . ... ... ... : ... .. . ... ... ...
ROW 3E : ... .. . ... ... ... : ... .. . ... ... ... : ... .. . ... ... ... : ... .. . ... ... ... : ... .. . ... ... ...
ROW 3F : ... .. . ... ... ... : ... .. . ... ... ... : ... .. . ... ... ... : ... .. . ... ... ... : ... .. . ... ... ...
ROW 40 : ... .. . ... ... ... : ... .. . ... ... ... : ... .. . ... ... ... : ... .. . ... ... ... : ... .. . ... ... ...
ROW 41 : ... .. . ... ... ... : ... .. . ... ... ... : ... .. . ... ... ... : ... .. . ... ... ... : ... .. . ... ... ...
ROW 42 : ... .. . ... ... ... : ... .. . ... ... ... : ... .. . ... ... ... : ... .. . ... ... ... : ... .. . ... ... ...
ROW 43 : ... .. . ... ... ... : ... .. . ... ... ... : ... .. . ... ... ... : ... .. . ... ... ... : ... .. . ... ... ...
ROW 44 : ... .. . ... ... ... : ... .. . ... ... ... : ... .. . ... ... ... : ... .. . ... ... ... : ... .. . ... ... ...
ROW 45 : ... .. . ... ... ... : ... .. . ... ... ... : ... .. . ... ... ... : ... .. . ... ... ... : ... .. . ... ... ...
ROW 46 : ... .. . ... ... ... : ... .. . ... ... ... : ... .. . ... ... ... : ... .. . ... ... ... : ... .. . ... ... ...
ROW 47 : ... .. . ... ... ... : ... .. . ... ... ... : ... .. . ... ... ... : ... .. . ... ... ... : ... .. . ... ... ...
ROW 48 : ... .. . ... ... ... : ... .. . ... ... ... : ... .. . ... ... ... : ... .. . ... ... ... : ... .. . ... ... ...
ROW 49 : ... .. . ... ... ... : ... .. . ... ... ... : ... .. . ... ... ... : ... .. . ... ... ... : ... .. . ... ... ...
ROW 4A : ... .. . ... ... ... : ... .. . ... ... ... : ... .. . ... ... ... : ... .. . ... ... ... : ... .. . ... ... ...
ROW 4B : ... .. . ... ... ... : ... .. . ... ... ... : ... .. . ... ... ... : ... .. . ... ... ... : ... .. . ... ... ...
ROW 4C : ... .. . ... ... ... : ... .. . ... ... ... : ... .. . ... ... ... : ... .. . ... ... ... : ... .. . ... ... ...
ROW 4D : ... .. . ... ... ... : ... .. . ... ... ... : ... .. . ... ... ... : ... .. . ... ... ... : ... .. . ... ... ...
ROW 4E : ... .. . ... ... ... : ... .. . ... ... ... : ... .. . ... ... ... : ... .. . ... ... ... : ... .. . ... ... ...
ROW 4F : ... .. . ... ... ... : ... .. . ... ... ... : ... .. . ... ... ... : ... .. . ... ... ... : ... .. . ... ... ...
ROW 50 : ... .. . ... ... ... : ... .. . ... ... ... : ... .. . ... ... ... : ... .. . ... ... ... : ... .. . ... ... ...
ROW 51 : ... .. . ... ... ... : ... .. . ... ... ... : ... .. . ... ... ... : ... .. . ... ... ... : ... .. . ... ... ...
ROW 52 : ... .. . ... ... ... : ... .. . ... ... ... : ... .. . ... ... ... : ... .. . ... ... ... : ... .. . ... ... ...
ROW 53 : ... .. . ... ... ... : ... .. . ... ... ... : ... .. . ... ... ... : ... .. . ... ... ... : ... .. . ... ... ...
ROW 54 : ... .. . ... ... ... : ... .. . ... ... ... : ... .. . ... ... ... : C-# 00 . ... ... ... : ... .. . ... ... ...
ROW 55 : ... .. . ... ... ... : ... .. . ... ... ... : ... .. . ... ... ... : ... .. . ... ... ... : ... .. . ... ... ...
ROW 56 : ... .. . ... ... ... : ... .. . ... ... ... : ... .. . ... ... ... : ... .. . ... ... ... : ... .. . ... ... ...
ROW 57 : ... .. . ... ... ... : ... .. . ... ... ... : ... .. . ... ... ... : --- .. . ... ... ... : ... .. . ... ... ...
ROW 58 : ... .. . ... ... ... : ... .. . ... ... ... : ... .. . ... ... ... : ... .. . ... ... ... : ... .. . ... ... ...
ROW 59 : ... .. . ... ... ... : ... .. . ... ... ... : ... .. . ... ... ... : ... .. . ... ... ... : ... .. . ... ... ...
ROW 5A : ... .. . ... ... ... : ... .. . ... ... ... : ... .. . ... ... ... : ... .. . ... ... ... : ... .. . ... ... ...
ROW 5B : ... .. . ... ... ... : ... .. . ... ... ... : ... .. . ... ... ... : ... .. . ... ... ... : ... .. . ... ... ...
ROW 5C : ... .. . ... ... ... : ... .. . ... ... ... : ... .. . ... ... ... : ... .. . ... ... ... : ... .. . ... ... ...
ROW 5D : ... .. . ... ... ... : ... .. . ... ... ... : ... .. . ... ... ... : ... .. . ... ... ... : ... .. . ... ... ...
ROW 5E : ... .. . ... ... ... : ... .. . ... ... ... : ... .. . ... ... ... : ... .. . ... ... ... : ... .. . ... ... ...
ROW 5F : ... .. . ... ... ... : ... .. . ... ... ... : ... .. . ... ... ... : ... .. . ... ... ... : ... .. . ... ... ...
ROW 60 : ... .. . ... ... ... : ... .. . ... ... ... : ... .. . ... ... ... : ... .. . ... ... ... : ... .. . ... ... ...
ROW 61 : ... .. . ... ... ... : ... .. . ... ... ... : ... .. . ... ... ... : ... .. . ... ... ... : ... .. . ... ... ...
ROW 62 : ... .. . ... ... ... : ... .. . ... ... ... : ... .. . ... ... ... : ... .. . ... ... ... : ... .. . ... ... ...
ROW 63 : ... .. . ... ... ... : ... .. . ... ... ... : ... .. . ... ... ... : ... .. . ... ... ... : ... .. . ... ... ...
ROW 64 : ... .. . ... ... ... : ... .. . ... ... ... : ... .. . ... ... ... : ... .. . ... ... ... : ... .. . ... ... ...
ROW 65 : ... .. . ... ... ... : ... .. . ... ... ... : ... .. . ... ... ... : ... .. . ... ... ... : ... .. . ... ... ...
ROW 66 : ... .. . ... ... ... : ... .. . ... ... ... : ... .. . ... ... ... : ... .. . ... ... ... : ... .. . ... ... ...
ROW 67 : ... .. . ... ... ... : ... .. . ... ... ... : ... .. . ... ... ... : ... .. . ... ... ... : ... .. . ... ... ...
ROW 68 : ... .. . ... ... ... : ... .. . ... ... ... : ... .. . ... ... ... : ... .. . ... ... ... : ... .. . ... ... ...
ROW 69 : ... .. . ... ... ... : ... .. . ... ... ... : ... .. . ... ... ... : ... .. . ... ... ... : ... .. . ... ... ...
ROW 6A : ... .. . ... ... ... : ... .. . ... ... ... : ... .. . ... ... ... : ... .. . ... ... ... : ... .. . ... ... ...
ROW 6B : ... .. . ... ... ... : ... .. . ... ... ... : ... .. . ... ... ... : ... .. . ... ... ... : ... .. . ... ... ...
ROW 6C : ... .. . ... ... ... : ... .. . ... ... ... : ... .. . ... ... ... : ... .. . ... ... ... : ... .. . ... ... ...
ROW 6D : ... .. . ... ... ... : ... .. . ... ... ... : ... .. . ... ... ... : ... .. . ... ... ... : ... .. . ... ... ...
ROW 6E : ... .. . ... ... ... : ... .. . ... ... ... : ... .. . ... ... ... : ... .. . ... ... ... : ... .. . ... ... ...
ROW 6F : --- .. . ... ... ... : ... .. . ... ... ... : ... .. . ... ... ... : ... .. . ... ... ... : ... .. . ... ... ...
ROW 70 : C#2 01 . ... ... ... : A-2 04 . ... ... ... : C#4 05 . ... ... ... : ... .. . ... ... ... : ... .. . ... ... ...
ROW 71 : ... .. . ... ... ... : ... .. . ... ... ... : ... .. . ... ... ... : ... .. . ... ... ... : ... .. . ... ... ...
ROW 72 : ... .. . ... ... ... : ... .. . ... ... ... : ... .. . ... ... ... : ... .. . ... ... ... : ... .. . ... ... ...
ROW 73 : ... .. . ... ... ... : ... .. . ... ... ... : ... .. . ... ... ... : ... .. . ... ... ... : ... .. . ... ... ...
ROW 74 : ... .. . ... ... ... : ... .. . ... ... ... : ... .. . ... ... ... : ... .. . ... ... ... : ... .. . ... ... ...
ROW 75 : ... .. . ... ... ... : ... .. . ... ... ... : ... .. . ... ... ... : ... .. . ... ... ... : ... .. . ... ... ...
ROW 76 : --- .. . ... ... ... : ... .. . ... ... ... : ... .. . ... ... ... : ... .. . ... ... ... : ... .. . ... ... ...
ROW 77 : C#2 01 . ... ... ... : ... .. . ... ... ... : ... .. . ... ... ... : ... .. . ... ... ... : ... .. . ... ... ...
ROW 78 : ... .. . ... ... ... : ... .. . ... ... ... : ... .. . ... ... ... : ... .. . ... ... ... : ... .. . ... ... ...
ROW 79 : ... .. . ... ... ... : ... .. . ... ... ... : ... .. . ... ... ... : ... .. . ... ... ... : ... .. . ... ... ...
ROW 7A : ... .. . ... ... ... : ... .. . ... ... ... : ... .. . ... ... ... : ... .. . ... ... ... : ... .. . ... ... ...
ROW 7B : ... .. . ... ... ... : ... .. . ... ... ... : ... .. . ... ... ... : ... .. . ... ... ... : ... .. . ... ... ...
ROW 7C : ... .. . ... ... ... : ... .. . ... ... ... : ... .. . ... ... ... : ... .. . ... ... ... : ... .. . ... ... ...
ROW 7D : --- .. . ... ... ... : ... .. . ... ... ... : ... .. . ... ... ... : ... .. . ... ... ... : ... .. . ... ... ...
ROW 7E : C#2 01 . ... ... ... : ... .. . ... ... ... : ... .. . ... ... ... : ... .. . ... ... ... : ... .. . ... ... ...
ROW 7F : ... .. . ... ... ... : ... .. . ... ... ... : ... .. . ... ... ... : ... .. . ... ... ... : ... .. . ... ... ...
ROW 80 : ... .. . ... ... ... : ... .. . ... ... ... : ... .. . ... ... ... : ... .. . ... ... ... : ... .. . ... ... ...
ROW 81 : ... .. . ... ... ... : ... .. . ... ... ... : ... .. . ... ... ... : ... .. . ... ... ... : ... .. . ... ... ...
ROW 82 : ... .. . ... ... ... : ... .. . ... ... ... : ... .. . ... ... ... : ... .. . ... ... ... : ... .. . ... ... ...
ROW 83 : ... .. . ... ... ... : ... .. . ... ... ... : ... .. . ... ... ... : ... .. . ... ... ... : ... .. . ... ... ...
ROW 84 : ... .. . ... ... ... : ... .. . ... ... ... : ... .. . ... ... ... : ... .. . ... ... ... : ... .. . ... ... ...
ROW 85 : ... .. . ... ... ... : ... .. . ... ... ... : ... .. . ... ... ... : ... .. . ... ... ... : ... .. . ... ... ...
ROW 86 : ... .. . ... ... ... : ... .. . ... ... ... : ... .. . ... ... ... : ... .. . ... ... ... : ... .. . ... ... ...
ROW 87 : ... .. . ... ... ... : ... .. . ... ... ... : ... .. . ... ... ... : ... .. . ... ... ... : ... .. . ... ... ...
ROW 88 : ... .. . ... ... ... : ... .. . ... ... ... : ... .. . ... ... ... : ... .. . ... ... ... : ... .. . ... ... ...
ROW 89 : ... .. . ... ... ... : ... .. . ... ... ... : ... .. . ... ... ... : ... .. . ... ... ... : ... .. . ... ... ...
ROW 8A : ... .. . ... ... ... : ... .. . ... ... ... : ... .. . ... ... ... : ... .. . ... ... ... : ... .. . ... ... ...
ROW 8B : ... .. . ... ... ... : ... .. . ... ... ... : ... .. . ... ... ... : ... .. . ... ... ... : ... .. . ... ... ...
ROW 8C : ... .. . ... ... ... : ... .. . ... ... ... : ... .. . ... ... ... : C-# 00 . ... ... ... : ... .. . ... ... ...
ROW 8D : ... .. . ... ... ... : ... .. . ... ... ... : ... .. . ... ... ... : ... .. . ... ... ... : ... .. . ... ... ...
ROW 8E : ... .. . ... ... ... : ... .. . ... ... ... : ... .. . ... ... ... : ... .. . ... ... ... : ... .. . ... ... ...
ROW 8F : ... .. . ... ... ... : ... .. . ... ... ... : ... .. . ... ... ... : --- .. . ... ... ... : ... .. . ... ... ...
ROW 90 : ... .. . ... ... ... : ... .. . ... ... ... : ... .. . ... ... ... : ... .. . ... ... ... : ... .. . ... ... ...
ROW 91 : ... .. . ... ... ... : ... .. . ... ... ... : ... .. . ... ... ... : ... .. . ... ... ... : ... .. . ... ... ...
ROW 92 : ... .. . ... ... ... : ... .. . ... ... ... : ... .. . ... ... ... : ... .. . ... ... ... : ... .. . ... ... ...
ROW 93 : ... .. . ... ... ... : ... .. . ... ... ... : ... .. . ... ... ... : ... .. . ... ... ... : ... .. . ... ... ...
ROW 94 : ... .. . ... ... ... : ... .. . ... ... ... : ... .. . ... ... ... : ... .. . ... ... ... : ... .. . ... ... ...
ROW 95 : ... .. . ... ... ... : ... .. . ... ... ... : ... .. . ... ... ... : ... .. . ... ... ... : ... .. . ... ... ...
ROW 96 : ... .. . ... ... ... : ... .. . ... ... ... : ... .. . ... ... ... : ... .. . ... ... ... : ... .. . ... ... ...
ROW 97 : ... .. . ... ... ... : ... .. . ... ... ... : ... .. . ... ... ... : ... .. . ... ... ... : ... .. . ... ... ...
ROW 98 : ... .. . ... ... ... : ... .. . ... ... ... : ... .. . ... ... ... : ... .. . ... ... ... : ... .. . ... ... ...
ROW 99 : ... .. . ... ... ... : ... .. . ... ... ... : ... .. . ... ... ... : ... .. . ... ... ... : ... .. . ... ... ...
ROW 9A : ... .. . ... ... ... : ... .. . ... ... ... : ... .. . ... ... ... : ... .. . ... ... ... : ... .. . ... ... ...
ROW 9B : ... .. . ... ... ... : ... .. . ... ... ... : ... .. . ... ... ... : ... .. . ... ... ... : ... .. . ... ... ...
ROW 9C : ... .. . ... ... ... : ... .. . ... ... ... : ... .. . ... ... ... : ... .. . ... ... ... : ... .. . ... ... ...
ROW 9D : ... .. . ... ... ... : ... .. . ... ... ... : ... .. . ... ... ... : ... .. . ... ... ... : ... .. . ... ... ...
ROW 9E : ... .. . ... ... ... : ... .. . ... ... ... : ... .. . ... ... ... : ... .. . ... ... ... : ... .. . ... ... ...
ROW 9F : ... .. . ... ... ... : ... .. . ... ... ... : ... .. . ... ... ... : ... .. . ... ... ... : ... .. . ... ... ...
ROW A0 : ... .. . ... ... ... : ... .. . ... ... ... : ... .. . ... ... ... : ... .. . ... ... ... : ... .. . ... ... ...
ROW A1 : ... .. . ... ... ... : ... .. . ... ... ... : ... .. . ... ... ... : ... .. . ... ... ... : ... .. . ... ... ...
ROW A2 : ... .. . ... ... ... : ... .. . ... ... ... : ... .. . ... ... ... : ... .. . ... ... ... : ... .. . ... ... ...
ROW A3 : ... .. . ... ... ... : ... .. . ... ... ... : ... .. . ... ... ... : ... .. . ... ... ... : ... .. . ... ... ...
ROW A4 : ... .. . ... ... ... : ... .. . ... ... ... : ... .. . ... ... ... : ... .. . ... ... ... : ... .. . ... ... ...
ROW A5 : ... .. . ... ... ... : ... .. . ... ... ... : ... .. . ... ... ... : ... .. . ... ... ... : ... .. . ... ... ...
ROW A6 : ... .. . ... ... ... : ... .. . ... ... ... : ... .. . ... ... ... : ... .. . ... ... ... : ... .. . ... ... ...
ROW A7 : ... .. . ... ... ... : ... .. . ... ... ... : ... .. . ... ... ... : ... .. . ... ... ... : ... .. . ... ... ...
ROW A8 : ... .. . ... ... ... : E-4 04 . ... ... ... : ... .. . ... ... ... : ... .. . ... ... ... : ... .. . ... ... ...
ROW A9 : ... .. . ... ... ... : ... .. . ... ... ... : ... .. . ... ... ... : ... .. . ... ... ... : ... .. . ... ... ...
ROW AA : ... .. . ... ... ... : ... .. . ... ... ... : ... .. . ... ... ... : ... .. . ... ... ... : ... .. . ... ... ...
ROW AB : ... .. . ... ... ... : ... .. . ... ... ... : ... .. . ... ... ... : ... .. . ... ... ... : ... .. . ... ... ...
ROW AC : ... .. . ... ... ... : ... .. . ... ... ... : ... .. . ... ... ... : ... .. . ... ... ... : ... .. . ... ... ...
ROW AD : ... .. . ... ... ... : ... .. . ... ... ... : ... .. . ... ... ... : ... .. . ... ... ... : ... .. . ... ... ...
ROW AE : ... .. . ... ... ... : ... .. . ... ... ... : ... .. . ... ... ... : ... .. . ... ... ... : ... .. . ... ... ...
ROW AF : ... .. . ... ... ... : ... .. . ... ... ... : ... .. . ... ... ... : ... .. . ... ... ... : ... .. . ... ... ...
ROW B0 : ... .. . ... ... ... : ... .. . ... ... ... : ... .. . ... ... ... : ... .. . ... ... ... : ... .. . ... ... ...
ROW B1 : ... .. . ... ... ... : ... .. . ... ... ... : ... .. . ... ... ... : ... .. . ... ... ... : ... .. . ... ... ...
ROW B2 : ... .. . ... ... ... : ... .. . ... ... ... : ... .. . ... ... ... : ... .. . ... ... ... : ... .. . ... ... ...
ROW B3 : ... .. . ... ... ... : ... .. . ... ... ... : ... .. . ... ... ... : ... .. . ... ... ... : ... .. . ... ... ...
ROW B4 : ... .. . ... ... ... : ... .. . ... ... ... : ... .. . ... ... ... : ... .. . ... ... ... : ... .. . ... ... ...
ROW B5 : ... .. . ... ... ... : ... .. . ... ... ... : ... .. . ... ... ... : ... .. . ... ... ... : ... .. . ... ... ...
ROW B6 : ... .. . ... ... ... : F#4 04 . ... ... ... : ... .. . ... ... ... : ... .. . ... ... ... : ... .. . ... ... ...
ROW B7 : ... .. . ... ... ... : ... .. . ... ... ... : ... .. . ... ... ... : ... .. . ... ... ... : ... .. . ... ... ...
ROW B8 : ... .. . ... ... ... : ... .. . ... ... ... : ... .. . ... ... ... : ... .. . ... ... ... : ... .. . ... ... ...
ROW B9 : ... .. . ... ... ... : ... .. . ... ... ... : ... .. . ... ... ... : ... .. . ... ... ... : ... .. . ... ... ...
ROW BA : ... .. . ... ... ... : ... .. . ... ... ... : ... .. . ... ... ... : ... .. . ... ... ... : ... .. . ... ... ...
ROW BB : ... .. . ... ... ... : ... .. . ... ... ... : ... .. . ... ... ... : ... .. . ... ... ... : ... .. . ... ... ...
ROW BC : ... .. . ... ... ... : ... .. . ... ... ... : ... .. . ... ... ... : ... .. . ... ... ... : ... .. . ... ... ...
ROW BD : ... .. . ... ... ... : ... .. . ... ... ... : ... .. . ... ... ... : ... .. . ... ... ... : ... .. . ... ... ...
ROW BE : ... .. . ... ... ... : ... .. . ... ... ... : ... .. . ... ... ... : ... .. . ... ... ... : ... .. . ... ... ...
ROW BF : ... .. . ... ... ... : ... .. . ... ... ... : ... .. . ... ... ... : ... .. . ... ... ... : ... .. . ... ... ...
ROW C0 : ... .. . ... ... ... : ... .. . ... ... ... : ... .. . ... ... ... : ... .. . ... ... ... : ... .. . ... ... ...
ROW C1 : ... .. . ... ... ... : ... .. . ... ... ... : ... .. . ... ... ... : ... .. . ... ... ... : ... .. . ... ... ...
ROW C2 : ... .. . ... ... ... : ... .. . ... ... ... : ... .. . ... ... ... : ... .. . ... ... ... : ... .. . ... ... ...
ROW C3 : ... .. . ... ... ... : ... .. . ... ... ... : ... .. . ... ... ... : ... .. . ... ... ... : ... .. . ... ... ...
ROW C4 : ... .. . ... ... ... : ... .. . ... ... ... : ... .. . ... ... ... : C-# 00 . ... ... ... : ... .. . ... ... ...
ROW C5 : ... .. . ... ... ... : ... .. . ... ... ... : ... .. . ... ... ... : ... .. . ... ... ... : ... .. . ... ... ...
ROW C6 : ... .. . ... ... ... : ... .. . ... ... ... : ... .. . ... ... ... : ... .. . ... ... ... : ... .. . ... ... ...
ROW C7 : ... .. . ... ... ... : ... .. . ... ... ... : ... .. . ... ... ... : --- .. . ... ... ... : ... .. . ... ... ...
ROW C8 : ... .. . ... ... ... : ... .. . ... ... ... : ... .. . ... ... ... : ... .. . ... ... ... : ... .. . ... ... ...
ROW C9 : ... .. . ... ... ... : ... .. . ... ... ... : ... .. . ... ... ... : ... .. . ... ... ... : ... .. . ... ... ...
ROW CA : ... .. . ... ... ... : ... .. . ... ... ... : ... .. . ... ... ... : ... .. . ... ... ... : ... .. . ... ... ...
ROW CB : ... .. . ... ... ... : ... .. . ... ... ... : ... .. . ... ... ... : ... .. . ... ... ... : ... .. . ... ... ...
ROW CC : ... .. . ... ... ... : ... .. . ... ... ... : ... .. . ... ... ... : ... .. . ... ... ... : ... .. . ... ... ...
ROW CD : ... .. . ... ... ... : ... .. . ... ... ... : ... .. . ... ... ... : ... .. . ... ... ... : ... .. . ... ... ...
ROW CE : ... .. . ... ... ... : ... .. . ... ... ... : ... .. . ... ... ... : ... .. . ... ... ... : ... .. . ... ... ...
ROW CF : ... .. . ... ... ... : ... .. . ... ... ... : ... .. . ... ... ... : ... .. . ... ... ... : ... .. . ... ... ...
ROW D0 : ... .. . ... ... ... : ... .. . ... ... ... : ... .. . ... ... ... : ... .. . ... ... ... : ... .. . ... ... ...
ROW D1 : ... .. . ... ... ... : ... .. . ... ... ... : ... .. . ... ... ... : ... .. . ... ... ... : ... .. . ... ... ...
ROW D2 : ... .. . ... ... ... : ... .. . ... ... ... : ... .. . ... ... ... : ... .. . ... ... ... : ... .. . ... ... ...
ROW D3 : ... .. . ... ... ... : ... .. . ... ... ... : ... .. . ... ... ... : ... .. . ... ... ... : ... .. . ... ... ...
ROW D4 : ... .. . ... ... ... : ... .. . ... ... ... : ... .. . ... ... ... : ... .. . ... ... ... : ... .. . ... ... ...
ROW D5 : ... .. . ... ... ... : ... .. . ... ... ... : ... .. . ... ... ... : ... .. . ... ... ... : ... .. . ... ... ...
ROW D6 : ... .. . ... ... ... : ... .. . ... ... ... : ... .. . ... ... ... : ... .. . ... ... ... : ... .. . ... ... ...
ROW D7 : ... .. . ... ... ... : ... .. . ... ... ... : ... .. . ... ... ... : ... .. . ... ... ... : ... .. . ... ... ...
ROW D8 : ... .. . ... ... ... : ... .. . ... ... ... : ... .. . ... ... ... : ... .. . ... ... ... : ... .. . ... ... ...
ROW D9 : ... .. . ... ... ... : ... .. . ... ... ... : ... .. . ... ... ... : ... .. . ... ... ... : ... .. . ... ... ...
ROW DA : ... .. . ... ... ... : ... .. . ... ... ... : ... .. . ... ... ... : ... .. . ... ... ... : ... .. . ... ... ...
ROW DB : ... .. . ... ... ... : ... .. . ... ... ... : ... .. . ... ... ... : ... .. . ... ... ... : ... .. . ... ... ...
ROW DC : ... .. . ... ... ... : ... .. . ... ... ... : ... .. . ... ... ... : ... .. . ... ... ... : ... .. . ... ... ...
ROW DD : ... .. . ... ... ... : ... .. . ... ... ... : ... .. . ... ... ... : ... .. . ... ... ... : ... .. . ... ... ...
ROW DE : ... .. . ... ... ... : ... .. . ... ... ... : ... .. . ... ... ... : ... .. . ... ... ... : ... .. . ... ... ...
ROW DF : ... .. . ... ... ... : ... .. . ... ... ... : ... .. . ... ... ... : ... .. . ... ... ... : ... .. . ... ... ...

PATTERN 01
ROW 00 : D-2 01 . ... ... ... : D-4 04 . ... ... ... : D-4 05 . ... ... ... : ... .. . ... ... ... : ... .. . ... ... ...
ROW 01 : ... .. . ... ... ... : ... .. . ... ... ... : ... .. . ... ... ... : ... .. . ... ... ... : ... .. . ... ... ...
ROW 02 : ... .. . ... ... ... : ... .. . ... ... ... : ... .. . ... ... ... : ... .. . ... ... ... : ... .. . ... ... ...
ROW 03 : ... .. . ... ... ... : ... .. . ... ... ... : ... .. . ... ... ... : ... .. . ... ... ... : ... .. . ... ... ...
ROW 04 : ... .. . ... ... ... : ... .. . ... ... ... : ... .. . ... ... ... : ... .. . ... ... ... : ... .. . ... ... ...
ROW 05 : ... .. . ... ... ... : ... .. . ... ... ... : ... .. . ... ... ... : ... .. . ... ... ... : ... .. . ... ... ...
ROW 06 : --- .. . ... ... ... : ... .. . ... ... ... : ... .. . ... ... ... : ... .. . ... ... ... : ... .. . ... ... ...
ROW 07 : D-2 01 . ... ... ... : ... .. . ... ... ... : ... .. . ... ... ... : ... .. . ... ... ... : ... .. . ... ... ...
ROW 08 : ... .. . ... ... ... : ... .. . ... ... ... : ... .. . ... ... ... : ... .. . ... ... ... : ... .. . ... ... ...
ROW 09 : ... .. . ... ... ... : ... .. . ... ... ... : ... .. . ... ... ... : ... .. . ... ... ... : ... .. . ... ... ...
ROW 0A : ... .. . ... ... ... : ... .. . ... ... ... : ... .. . ... ... ... : ... .. . ... ... ... : ... .. . ... ... ...
ROW 0B : ... .. . ... ... ... : ... .. . ... ... ... : ... .. . ... ... ... : ... .. . ... ... ... : ... .. . ... ... ...
ROW 0C : ... .. . ... ... ... : ... .. . ... ... ... : ... .. . ... ... ... : ... .. . ... ... ... : ... .. . ... ... ...
ROW 0D : --- .. . ... ... ... : ... .. . ... ... ... : ... .. . ... ... ... : ... .. . ... ... ... : ... .. . ... ... ...
ROW 0E : D-2 01 . ... ... ... : ... .. . ... ... ... : ... .. . ... ... ... : ... .. . ... ... ... : ... .. . ... ... ...
ROW 0F : ... .. . ... ... ... : ... .. . ... ... ... : ... .. . ... ... ... : ... .. . ... ... ... : ... .. . ... ... ...
ROW 10 : ... .. . ... ... ... : ... .. . ... ... ... : ... .. . ... ... ... : ... .. . ... ... ... : ... .. . ... ... ...
ROW 11 : ... .. . ... ... ... : ... .. . ... ... ... : ... .. . ... ... ... : ... .. . ... ... ... : ... .. . ... ... ...
ROW 12 : ... .. . ... ... ... : ... .. . ... ... ... : ... .. . ... ... ... : ... .. . ... ... ... : ... .. . ... ... ...
ROW 13 : ... .. . ... ... ... : ... .. . ... ... ... : ... .. . ... ... ... : ... .. . ... ... ... : ... .. . ... ... ...
ROW 14 : ... .. . ... ... ... : ... .. . ... ... ... : ... .. . ... ... ... : ... .. . ... ... ... : ... .. . ... ... ...
ROW 15 : ... .. . ... ... ... : ... .. . ... ... ... : ... .. . ... ... ... : ... .. . ... ... ... : ... .. . ... ... ...
ROW 16 : ... .. . ... ... ... : ... .. . ... ... ... : ... .. . ... ... ... : ... .. . ... ... ... : ... .. . ... ... ...
ROW 17 : ... .. . ... ... ... : ... .. . ... ... ... : ... .. . ... ... ... : ... .. . ... ... ... : ... .. . ... ... ...
ROW 18 : ... .. . ... ... ... : ... .. . ... ... ... : ... .. . ... ... ... : ... .. . ... ... ... : ... .. . ... ... ...
ROW 19 : ... .. . ... ... ... : ... .. . ... ... ... : ... .. . ... ... ... : ... .. . ... ... ... : ... .. . ... ... ...
ROW 1A : ... .. . ... ... ... : ... .. . ... ... ... : ... .. . ... ... ... : ... .. . ... ... ... : ... .. . ... ... ...
ROW 1B : ... .. . ... ... ... : ... .. . ... ... ... : ... .. . ... ... ... : ... .. . ... ... ... : ... .. . ... ... ...
ROW 1C : ... .. . ... ... ... : ... .. . ... ... ... : ... .. . ... ... ... : C-# 00 . ... ... ... : ... .. . ... ... ...
ROW 1D : ... .. . ... ... ... : ... .. . ... ... ... : ... .. . ... ... ... : ... .. . ... ... ... : ... .. . ... ... ...
ROW 1E : ... .. . ... ... ... : ... .. . ... ... ... : ... .. . ... ... ... : ... .. . ... ... ... : ... .. . ... ... ...
ROW 1F : ... .. . ... ... ... : ... .. . ... ... ... : ... .. . ... ... ... : --- .. . ... ... ... : ... .. . ... ... ...
ROW 20 : ... .. . ... ... ... : ... .. . ... ... ... : ... .. . ... ... ... : ... .. . ... ... ... : ... .. . ... ... ...
ROW 21 : ... .. . ... ... ... : ... .. . ... ... ... : ... .. . ... ... ... : ... .. . ... ... ... : ... .. . ... ... ...
ROW 22 : ... .. . ... ... ... : ... .. . ... ... ... : ... .. . ... ... ... : ... .. . ... ... ... : ... .. . ... ... ...
ROW 23 : ... .. . ... ... ... : ... .. . ... ... ... : ... .. . ... ... ... : ... .. . ... ... ... : ... .. . ... ... ...
ROW 24 : ... .. . ... ... ... : ... .. . ... ... ... : ... .. . ... ... ... : ... .. . ... ... ... : ... .. . ... ... ...
ROW 25 : ... .. . ... ... ... : ... .. . ... ... ... : ... .. . ... ... ... : ... .. . ... ... ... : ... .. . ... ... ...
ROW 26 : ... .. . ... ... ... : ... .. . ... ... ... : ... .. . ... ... ... : ... .. . ... ... ... : ... .. . ... ... ...
ROW 27 : ... .. . ... ... ... : ... .. . ... ... ... : ... .. . ... ... ... : ... .. . ... ... ... : ... .. . ... ... ...
ROW 28 : ... .. . ... ... ... : ... .. . ... ... ... : ... .. . ... ... ... : ... .. . ... ... ... : ... .. . ... ... ...
ROW 29 : ... .. . ... ... ... : ... .. . ... ... ... : ... .. . ... ... ... : ... .. . ... ... ... : ... .. . ... ... ...
ROW 2A : ... .. . ... ... ... : ... .. . ... ... ... : ... .. . ... ... ... : ... .. . ... ... ... : ... .. . ... ... ...
ROW 2B : ... .. . ... ... ... : ... .. . ... ... ... : ... .. . ... ... ... : ... .. . ... ... ... : ... .. . ... ... ...
ROW 2C : ... .. . ... ... ... : ... .. . ... ... ... : ... .. . ... ... ... : ... .. . ... ... ... : ... .. . ... ... ...
ROW 2D : ... .. . ... ... ... : ... .. . ... ... ... : ... .. . ... ... ... : ... .. . ... ... ... : ... .. . ... ... ...
ROW 2E : ... .. . ... ... ... : ... .. . ... ... ... : ... .. . ... ... ... : ... .. . ... ... ... : ... .. . ... ... ...
ROW 2F : ... .. . ... ... ... : ... .. . ... ... ... : ... .. . ... ... ... : ... .. . ... ... ... : ... .. . ... ... ...
ROW 30 : ... .. . ... ... ... : ... .. . ... ... ... : ... .. . ... ... ... : ... .. . ... ... ... : ... .. . ... ... ...
ROW 31 : ... .. . ... ... ... : ... .. . ... ... ... : ... .. . ... ... ... : ... .. . ... ... ... : ... .. . ... ... ...
ROW 32 : ... .. . ... ... ... : ... .. . ... ... ... : ... .. . ... ... ... : ... .. . ... ... ... : ... .. . ... ... ...
ROW 33 : ... .. . ... ... ... : ... .. . ... ... ... : ... .. . ... ... ... : ... .. . ... ... ... : ... .. . ... ... ...
ROW 34 : ... .. . ... ... ... : ... .. . ... ... ... : ... .. . ... ... ... : ... .. . ... ... ... : ... .. . ... ... ...
ROW 35 : ... .. . ... ... ... : ... .. . ... ... ... : ... .. . ... ... ... : ... .. . ... ... ... : ... .. . ... ... ...
ROW 36 : ... .. . ... ... ... : ... .. . ... ... ... : ... .. . ... ... ... : ... .. . ... ... ... : ... .. . ... ... ...
ROW 37 : ... .. . ... ... ... : ... .. . ... ... ... : ... .. . ... ... ... : ... .. . ... ... ... : ... .. . ... ... ...
ROW 38 : ... .. . ... ... ... : A-2 04 . ... ... ... : ... .. . ... ... ... : ... .. . ... ... ... : ... .. . ... ... ...
ROW 39 : ... .. . ... ... ... : ... .. . ... ... ... : ... .. . ... ... ... : ... .. . ... ... ... : ... .. . ... ... ...
ROW 3A : ... .. . ... ... ... : ... .. . ... ... ... : ... .. . ... ... ... : ... .. . ... ... ... : ... .. . ... ... ...
ROW 3B : ... .. . ... ... ... : ... .. . ... ... ... : ... .. . ... ... ... : ... .. . ... ... ... : ... .. . ... ... ...
ROW 3C : ... .. . ... ... ... : ... .. . ... ... ... : ... .. . ... ... ... : ... .. . ... ... ... : ... .. . ... ... ...
ROW 3D : ... .. . ... ... ... : ... .. . ... ... ... : ... .. . ... ... ... : ... .. . ... ... ... : ... .. . ... ... ...
ROW 3E : ... .. . ... ... ... : ... .. . ... ... ... : ... .. . ... ... ... : ... .. . ... ... ... : ... .. . ... ... ...
ROW 3F : ... .. . ... ... ... : ... .. . ... ... ... : ... .. . ... ... ... : ... .. . ... ... ... : ... .. . ... ... ...
ROW 40 : ... .. . ... ... ... : ... .. . ... ... ... : ... .. . ... ... ... : ... .. . ... ... ... : ... .. . ... ... ...
ROW 41 : ... .. . ... ... ... : ... .. . ... ... ... : ... .. . ... ... ... : ... .. . ... ... ... : ... .. . ... ... ...
ROW 42 : ... .. . ... ... ... : ... .. . ... ... ... : ... .. . ... ... ... : ... .. . ... ... ... : ... .. . ... ... ...
ROW 43 : ... .. . ... ... ... : ... .. . ... ... ... : ... .. . ... ... ... : ... .. . ... ... ... : ... .. . ... ... ...
ROW 44 : ... .. . ... ... ... : ... .. . ... ... ... : ... .. . ... ... ... : ... .. . ... ... ... : ... .. . ... ... ...
ROW 45 : ... .. . ... ... ... : ... .. . ... ... ... : ... .. . ... ... ... : ... .. . ... ... ... : ... .. . ... ... ...
ROW 46 : ... .. . ... ... ... : ... .. . ... ... ... : ... .. . ... ... ... : ... .. . ... ... ... : ... .. . ... ... ...
ROW 47 : ... .. . ... ... ... : ... .. . ... ... ... : ... .. . ... ... ... : ... .. . ... ... ... : ... .. . ... ... ...
ROW 48 : ... .. . ... ... ... : ... .. . ... ... ... : ... .. . ... ... ... : ... .. . ... ... ... : ... .. . ... ... ...
ROW 49 : ... .. . ... ... ... : ... .. . ... ... ... : ... .. . ... ... ... : ... .. . ... ... ... : ... .. . ... ... ...
ROW 4A : ... .. . ... ... ... : ... .. . ... ... ... : ... .. . ... ... ... : ... .. . ... ... ... : ... .. . ... ... ...
ROW 4B : ... .. . ... ... ... : ... .. . ... ... ... : ... .. . ... ... ... : ... .. . ... ... ... : ... .. . ... ... ...
ROW 4C : ... .. . ... ... ... : ... .. . ... ... ... : ... .. . ... ... ... : ... .. . ... ... ... : ... .. . ... ... ...
ROW 4D : ... .. . ... ... ... : ... .. . ... ... ... : ... .. . ... ... ... : ... .. . ... ... ... : ... .. . ... ... ...
ROW 4E : ... .. . ... ... ... : ... .. . ... ... ... : ... .. . ... ... ... : ... .. . ... ... ... : ... .. . ... ... ...
ROW 4F : ... .. . ... ... ... : ... .. . ... ... ... : ... .. . ... ... ... : ... .. . ... ... ... : ... .. . ... ... ...
ROW 50 : ... .. . ... ... ... : ... .. . ... ... ... : ... .. . ... ... ... : ... .. . ... ... ... : ... .. . ... ... ...
ROW 51 : ... .. . ... ... ... : ... .. . ... ... ... : ... .. . ... ... ... : ... .. . ... ... ... : ... .. . ... ... ...
ROW 52 : ... .. . ... ... ... : ... .. . ... ... ... : ... .. . ... ... ... : ... .. . ... ... ... : ... .. . ... ... ...
ROW 53 : ... .. . ... ... ... : ... .. . ... ... ... : ... .. . ... ... ... : ... .. . ... ... ... : ... .. . ... ... ...
ROW 54 : ... .. . ... ... ... : ... .. . ... ... ... : ... .. . ... ... ... : C-# 00 . ... ... ... : ... .. . ... ... ...
ROW 55 : ... .. . ... ... ... : ... .. . ... ... ... : ... .. . ... ... ... : ... .. . ... ... ... : ... .. . ... ... ...
ROW 56 : ... .. . ... ... ... : ... .. . ... ... ... : ... .. . ... ... ... : ... .. . ... ... ... : ... .. . ... ... ...
ROW 57 : ... .. . ... ... ... : ... .. . ... ... ... : ... .. . ... ... ... : --- .. . ... ... ... : ... .. . ... ... ...
ROW 58 : ... .. . ... ... ... : ... .. . ... ... ... : ... .. . ... ... ... : ... .. . ... ... ... : ... .. . ... ... ...
ROW 59 : ... .. . ... ... ... : ... .. . ... ... ... : ... .. . ... ... ... : ... .. . ... ... ... : ... .. . ... ... ...
ROW 5A : ... .. . ... ... ... : ... .. . ... ... ... : ... .. . ... ... ... : ... .. . ... ... ... : ... .. . ... ... ...
ROW 5B : ... .. . ... ... ... : ... .. . ... ... ... : ... .. . ... ... ... : ... .. . ... ... ... : ... .. . ... ... ...
ROW 5C : ... .. . ... ... ... : ... .. . ... ... ... : ... .. . ... ... ... : ... .. . ... ... ... : ... .. . ... ... ...
ROW 5D : ... .. . ... ... ... : ... .. . ... ... ... : ... .. . ... ... ... : ... .. . ... ... ... : ... .. . ... ... ...
ROW 5E : ... .. . ... ... ... : ... .. . ... ... ... : ... .. . ... ... ... : ... .. . ... ... ... : ... .. . ... ... ...
ROW 5F : ... .. . ... ... ... : ... .. . ... ... ... : ... .. . ... ... ... : ... .. . ... ... ... : ... .. . ... ... ...
ROW 60 : ... .. . ... ... ... : ... .. . ... ... ... : ... .. . ... ... ... : ... .. . ... ... ... : ... .. . ... ... ...
ROW 61 : ... .. . ... ... ... : ... .. . ... ... ... : ... .. . ... ... ... : ... .. . ... ... ... : ... .. . ... ... ...
ROW 62 : ... .. . ... ... ... : ... .. . ... ... ... : ... .. . ... ... ... : ... .. . ... ... ... : ... .. . ... ... ...
ROW 63 : ... .. . ... ... ... : ... .. . ... ... ... : ... .. . ... ... ... : ... .. . ... ... ... : ... .. . ... ... ...
ROW 64 : ... .. . ... ... ... : ... .. . ... ... ... : ... .. . ... ... ... : ... .. . ... ... ... : ... .. . ... ... ...
ROW 65 : ... .. . ... ... ... : ... .. . ... ... ... : ... .. . ... ... ... : ... .. . ... ... ... : ... .. . ... ... ...
ROW 66 : ... .. . ... ... ... : ... .. . ... ... ... : ... .. . ... ... ... : ... .. . ... ... ... : ... .. . ... ... ...
ROW 67 : ... .. . ... ... ... : ... .. . ... ... ... : ... .. . ... ... ... : ... .. . ... ... ... : ... .. . ... ... ...
ROW 68 : ... .. . ... ... ... : ... .. . ... ... ... : ... .. . ... ... ... : ... .. . ... ... ... : ... .. . ... ... ...
ROW 69 : ... .. . ... ... ... : ... .. . ... ... ... : ... .. . ... ... ... : ... .. . ... ... ... : ... .. . ... ... ...
ROW 6A : ... .. . ... ... ... : ... .. . ... ... ... : ... .. . ... ... ... : ... .. . ... ... ... : ... .. . ... ... ...
ROW 6B : ... .. . ... ... ... : ... .. . ... ... ... : ... .. . ... ... ... : ... .. . ... ... ... : ... .. . ... ... ...
ROW 6C : ... .. . ... ... ... : ... .. . ... ... ... : ... .. . ... ... ... : ... .. . ... ... ... : ... .. . ... ... ...
ROW 6D : ... .. . ... ... ... : ... .. . ... ... ... : ... .. . ... ... ... : ... .. . ... ... ... : ... .. . ... ... ...
ROW 6E : ... .. . ... ... ... : ... .. . ... ... ... : ... .. . ... ... ... : ... .. . ... ... ... : ... .. . ... ... ...
ROW 6F : --- .. . ... ... ... : ... .. . ... ... ... : ... .. . ... ... ... : ... .. . ... ... ... : ... .. . ... ... ...
ROW 70 : E-2 01 . ... ... ... : C#4 04 . ... ... ... : E-4 05 . ... ... ... : ... .. . ... ... ... : ... .. . ... ... ...
ROW 71 : ... .. . ... ... ... : ... .. . ... ... ... : ... .. . ... ... ... : ... .. . ... ... ... : ... .. . ... ... ...
ROW 72 : ... .. . ... ... ... : ... .. . ... ... ... : ... .. . ... ... ... : ... .. . ... ... ... : ... .. . ... ... ...
ROW 73 : ... .. . ... ... ... : ... .. . ... ... ... : ... .. . ... ... ... : ... .. . ... ... ... : ... .. . ... ... ...
ROW 74 : ... .. . ... ... ... : ... .. . ... ... ... : ... .. . ... ... ... : ... .. . ... ... ... : ... .. . ... ... ...
ROW 75 : ... .. . ... ... ... : ... .. . ... ... ... : ... .. . ... ... ... : ... .. . ... ... ... : ... .. . ... ... ...
ROW 76 : --- .. . ... ... ... : ... .. . ... ... ... : ... .. . ... ... ... : ... .. . ... ... ... : ... .. . ... ... ...
ROW 77 : E-2 01 . ... ... ... : ... .. . ... ... ... : ... .. . ... ... ... : ... .. . ... ... ... : ... .. . ... ... ...
ROW 78 : ... .. . ... ... ... : ... .. . ... ... ... : ... .. . ... ... ... : ... .. . ... ... ... : ... .. . ... ... ...
ROW 79 : ... .. . ... ... ... : ... .. . ... ... ... : ... .. . ... ... ... : ... .. . ... ... ... : ... .. . ... ... ...
ROW 7A : ... .. . ... ... ... : ... .. . ... ... ... : ... .. . ... ... ... : ... .. . ... ... ... : ... .. . ... ... ...
ROW 7B : ... .. . ... ... ... : ... .. . ... ... ... : ... .. . ... ... ... : ... .. . ... ... ... : ... .. . ... ... ...
ROW 7C : ... .. . ... ... ... : ... .. . ... ... ... : ... .. . ... ... ... : ... .. . ... ... ... : ... .. . ... ... ...
ROW 7D : --- .. . ... ... ... : ... .. . ... ... ... : ... .. . ... ... ... : ... .. . ... ... ... : ... .. . ... ... ...
ROW 7E : E-2 01 . ... ... ... : ... .. . ... ... ... : ... .. . ... ... ... : ... .. . ... ... ... : ... .. . ... ... ...
ROW 7F : ... .. . ... ... ... : ... .. . ... ... ... : ... .. . ... ... ... : ... .. . ... ... ... : ... .. . ... ... ...
ROW 80 : ... .. . ... ... ... : ... .. . ... ... ... : ... .. . ... ... ... : ... .. . ... ... ... : ... .. . ... ... ...
ROW 81 : ... .. . ... ... ... : ... .. . ... ... ... : ... .. . ... ... ... : ... .. . ... ... ... : ... .. . ... ... ...
ROW 82 : ... .. . ... ... ... : ... .. . ... ... ... : ... .. . ... ... ... : ... .. . ... ... ... : ... .. . ... ... ...
ROW 83 : ... .. . ... ... ... : ... .. . ... ... ... : ... .. . ... ... ... : ... .. . ... ... ... : ... .. . ... ... ...
ROW 84 : ... .. . ... ... ... : ... .. . ... ... ... : ... .. . ... ... ... : ... .. . ... ... ... : ... .. . ... ... ...
ROW 85 : ... .. . ... ... ... : ... .. . ... ... ... : ... .. . ... ... ... : ... .. . ... ... ... : ... .. . ... ... ...
ROW 86 : ... .. . ... ... ... : ... .. . ... ... ... : ... .. . ... ... ... : ... .. . ... ... ... : ... .. . ... ... ...
ROW 87 : ... .. . ... ... ... : ... .. . ... ... ... : ... .. . ... ... ... : ... .. . ... ... ... : ... .. . ... ... ...
ROW 88 : ... .. . ... ... ... : ... .. . ... ... ... : ... .. . ... ... ... : ... .. . ... ... ... : ... .. . ... ... ...
ROW 89 : ... .. . ... ... ... : ... .. . ... ... ... : ... .. . ... ... ... : ... .. . ... ... ... : ... .. . ... ... ...
ROW 8A : ... .. . ... ... ... : ... .. . ... ... ... : ... .. . ... ... ... : ... .. . ... ... ... : ... .. . ... ... ...
ROW 8B : ... .. . ... ... ... : ... .. . ... ... ... : ... .. . ... ... ... : ... .. . ... ... ... : ... .. . ... ... ...
ROW 8C : ... .. . ... ... ... : ... .. . ... ... ... : ... .. . ... ... ... : C-# 00 . ... ... ... : ... .. . ... ... ...
ROW 8D : ... .. . ... ... ... : ... .. . ... ... ... : ... .. . ... ... ... : ... .. . ... ... ... : ... .. . ... ... ...
ROW 8E : ... .. . ... ... ... : ... .. . ... ... ... : ... .. . ... ... ... : ... .. . ... ... ... : ... .. . ... ... ...
ROW 8F : ... .. . ... ... ... : ... .. . ... ... ... : ... .. . ... ... ... : --- .. . ... ... ... : ... .. . ... ... ...
ROW 90 : ... .. . ... ... ... : ... .. . ... ... ... : ... .. . ... ... ... : ... .. . ... ... ... : ... .. . ... ... ...
ROW 91 : ... .. . ... ... ... : ... .. . ... ... ... : ... .. . ... ... ... : ... .. . ... ... ... : ... .. . ... ... ...
ROW 92 : ... .. . ... ... ... : ... .. . ... ... ... : ... .. . ... ... ... : ... .. . ... ... ... : ... .. . ... ... ...
ROW 93 : ... .. . ... ... ... : ... .. . ... ... ... : ... .. . ... ... ... : ... .. . ... ... ... : ... .. . ... ... ...
ROW 94 : ... .. . ... ... ... : ... .. . ... ... ... : ... .. . ... ... ... : ... .. . ... ... ... : ... .. . ... ... ...
ROW 95 : ... .. . ... ... ... : ... .. . ... ... ... : ... .. . ... ... ... : ... .. . ... ... ... : ... .. . ... ... ...
ROW 96 : ... .. . ... ... ... : ... .. . ... ... ... : ... .. . ... ... ... : ... .. . ... ... ... : ... .. . ... ... ...
ROW 97 : ... .. . ... ... ... : ... .. . ... ... ... : ... .. . ... ... ... : ... .. . ... ... ... : ... .. . ... ... ...
ROW 98 : ... .. . ... ... ... : ... .. . ... ... ... : ... .. . ... ... ... : ... .. . ... ... ... : ... .. . ... ... ...
ROW 99 : ... .. . ... ... ... : ... .. . ... ... ... : ... .. . ... ... ... : ... .. . ... ... ... : ... .. . ... ... ...
ROW 9A : ... .. . ... ... ... : A-3 04 . ... ... ... : ... .. . ... ... ... : ... .. . ... ... ... : ... .. . ... ... ...
ROW 9B : ... .. . ... ... ... : ... .. . ... ... ... : ... .. . ... ... ... : ... .. . ... ... ... : ... .. . ... ... ...
ROW 9C : ... .. . ... ... ... : ... .. . ... ... ... : ... .. . ... ... ... : ... .. . ... ... ... : ... .. . ... ... ...
ROW 9D : ... .. . ... ... ... : ... .. . ... ... ... : ... .. . ... ... ... : ... .. . ... ... ... : ... .. . ... ... ...
ROW 9E : ... .. . ... ... ... : ... .. . ... ... ... : ... .. . ... ... ... : ... .. . ... ... ... : ... .. . ... ... ...
ROW 9F : ... .. . ... ... ... : ... .. . ... ... ... : ... .. . ... ... ... : ... .. . ... ... ... : ... .. . ... ... ...
ROW A0 : ... .. . ... ... ... : ... .. . ... ... ... : ... .. . ... ... ... : ... .. . ... ... ... : ... .. . ... ... ...
ROW A1 : ... .. . ... ... ... : ... .. . ... ... ... : ... .. . ... ... ... : ... .. . ... ... ... : ... .. . ... ... ...
ROW A2 : ... .. . ... ... ... : ... .. . ... ... ... : ... .. . ... ... ... : ... .. . ... ... ... : ... .. . ... ... ...
ROW A3 : ... .. . ... ... ... : ... .. . ... ... ... : ... .. . ... ... ... : ... .. . ... ... ... : ... .. . ... ... ...
ROW A4 : ... .. . ... ... ... : ... .. . ... ... ... : ... .. . ... ... ... : ... .. . ... ... ... : ... .. . ... ... ...
ROW A5 : ... .. . ... ... ... : ... .. . ... ... ... : ... .. . ... ... ... : ... .. . ... ... ... : ... .. . ... ... ...
ROW A6 : ... .. . ... ... ... : ... .. . ... ... ... : ... .. . ... ... ... : ... .. . ... ... ... : ... .. . ... ... ...
ROW A7 : ... .. . ... ... ... : ... .. . ... ... ... : ... .. . ... ... ... : ... .. . ... ... ... : ... .. . ... ... ...
ROW A8 : ... .. . ... ... ... : ... .. . ... ... ... : ... .. . ... ... ... : ... .. . ... ... ... : ... .. . ... ... ...
ROW A9 : ... .. . ... ... ... : ... .. . ... ... ... : ... .. . ... ... ... : ... .. . ... ... ... : ... .. . ... ... ...
ROW AA : ... .. . ... ... ... : ... .. . ... ... ... : ... .. . ... ... ... : ... .. . ... ... ... : ... .. . ... ... ...
ROW AB : ... .. . ... ... ... : ... .. . ... ... ... : ... .. . ... ... ... : ... .. . ... ... ... : ... .. . ... ... ...
ROW AC : ... .. . ... ... ... : ... .. . ... ... ... : ... .. . ... ... ... : ... .. . ... ... ... : ... .. . ... ... ...
ROW AD : ... .. . ... ... ... : ... .. . ... ... ... : ... .. . ... ... ... : ... .. . ... ... ... : ... .. . ... ... ...
ROW AE : ... .. . ... ... ... : ... .. . ... ... ... : ... .. . ... ... ... : ... .. . ... ... ... : ... .. . ... ... ...
ROW AF : ... .. . ... ... ... : ... .. . ... ... ... : ... .. . ... ... ... : ... .. . ... ... ... : ... .. . ... ... ...
ROW B0 : ... .. . ... ... ... : ... .. . ... ... ... : ... .. . ... ... ... : ... .. . ... ... ... : ... .. . ... ... ...
ROW B1 : ... .. . ... ... ... : ... .. . ... ... ... : ... .. . ... ... ... : ... .. . ... ... ... : ... .. . ... ... ...
ROW B2 : ... .. . ... ... ... : ... .. . ... ... ... : ... .. . ... ... ... : ... .. . ... ... ... : ... .. . ... ... ...
ROW B3 : ... .. . ... ... ... : ... .. . ... ... ... : ... .. . ... ... ... : ... .. . ... ... ... : ... .. . ... ... ...
ROW B4 : ... .. . ... ... ... : ... .. . ... ... ... : ... .. . ... ... ... : ... .. . ... ... ... : ... .. . ... ... ...
ROW B5 : ... .. . ... ... ... : ... .. . ... ... ... : ... .. . ... ... ... : ... .. . ... ... ... : ... .. . ... ... ...
ROW B6 : ... .. . ... ... ... : ... .. . ... ... ... : ... .. . ... ... ... : ... .. . ... ... ... : ... .. . ... ... ...
ROW B7 : ... .. . ... ... ... : ... .. . ... ... ... : ... .. . ... ... ... : ... .. . ... ... ... : ... .. . ... ... ...
ROW B8 : ... .. . ... ... ... : ... .. . ... ... ... : ... .. . ... ... ... : ... .. . ... ... ... : ... .. . ... ... ...
ROW B9 : ... .. . ... ... ... : ... .. . ... ... ... : ... .. . ... ... ... : ... .. . ... ... ... : ... .. . ... ... ...
ROW BA : ... .. . ... ... ... : ... .. . ... ... ... : ... .. . ... ... ... : ... .. . ... ... ... : ... .. . ... ... ...
ROW BB : ... .. . ... ... ... : ... .. . ... ... ... : ... .. . ... ... ... : ... .. . ... ... ... : ... .. . ... ... ...
ROW BC : ... .. . ... ... ... : ... .. . ... ... ... : ... .. . ... ... ... : ... .. . ... ... ... : ... .. . ... ... ...
ROW BD : ... .. . ... ... ... : ... .. . ... ... ... : ... .. . ... ... ... : ... .. . ... ... ... : ... .. . ... ... ...
ROW BE : ... .. . ... ... ... : ... .. . ... ... ... : ... .. . ... ... ... : ... .. . ... ... ... : ... .. . ... ... ...
ROW BF : ... .. . ... ... ... : ... .. . ... ... ... : ... .. . ... ... ... : ... .. . ... ... ... : ... .. . ... ... ...
ROW C0 : ... .. . ... ... ... : ... .. . ... ... ... : ... .. . ... ... ... : ... .. . ... ... ... : ... .. . ... ... ...
ROW C1 : ... .. . ... ... ... : ... .. . ... ... ... : ... .. . ... ... ... : ... .. . ... ... ... : ... .. . ... ... ...
ROW C2 : ... .. . ... ... ... : ... .. . ... ... ... : ... .. . ... ... ... : ... .. . ... ... ... : ... .. . ... ... ...
ROW C3 : ... .. . ... ... ... : ... .. . ... ... ... : ... .. . ... ... ... : ... .. . ... ... ... : ... .. . ... ... ...
ROW C4 : F#2 05 . ... ... ... : F#3 04 . ... ... ... : ... .. . ... ... ... : 4-# 00 . ... ... ... : D-4 06 . ... ... ...
ROW C5 : ... .. . ... ... ... : ... .. . ... ... ... : ... .. . ... ... ... : ... .. . ... ... ... : ... .. . ... ... ...
ROW C6 : ... .. . ... ... ... : ... .. . ... ... ... : ... .. . ... ... ... : --- .. . ... ... ... : ... .. . ... ... ...
ROW C7 : ... .. . ... ... ... : ... .. . ... ... ... : ... .. . ... ... ... : ... .. . ... ... ... : ... .. . ... ... ...
ROW C8 : ... .. . ... ... ... : ... .. . ... ... ... : ... .. . ... ... ... : ... .. . ... ... ... : ... .. . ... ... ...
ROW C9 : ... .. . ... ... ... : ... .. . ... ... ... : ... .. . ... ... ... : ... .. . ... ... ... : ... .. . ... ... ...
ROW CA : ... .. . ... ... ... : ... .. . ... ... ... : ... .. . ... ... ... : ... .. . ... ... ... : ... .. . ... ... ...
ROW CB : E-2 05 . ... ... ... : ... .. . ... ... ... : ... .. . ... ... ... : ... .. . ... ... ... : D-4 06 . ... ... ...
ROW CC : ... .. . ... ... ... : ... .. . ... ... ... : ... .. . ... ... ... : ... .. . ... ... ... : ... .. . ... ... ...
ROW CD : ... .. . ... ... ... : ... .. . ... ... ... : ... .. . ... ... ... : ... .. . ... ... ... : ... .. . ... ... ...
ROW CE : ... .. . ... ... ... : ... .. . ... ... ... : ... .. . ... ... ... : ... .. . ... ... ... : ... .. . ... ... ...
ROW CF : ... .. . ... ... ... : ... .. . ... ... ... : ... .. . ... ... ... : ... .. . ... ... ... : ... .. . ... ... ...
ROW D0 : ... .. . ... ... ... : ... .. . ... ... ... : ... .. . ... ... ... : ... .. . ... ... ... : ... .. . ... ... ...
ROW D1 : ... .. . ... ... ... : ... .. . ... ... ... : ... .. . ... ... ... : ... .. . ... ... ... : ... .. . ... ... ...
ROW D2 : D-2 05 . ... ... ... : ... .. . ... ... ... : ... .. . ... ... ... : 4-# 00 . ... ... ... : E-4 06 . ... ... ...
ROW D3 : ... .. . ... ... ... : ... .. . ... ... ... : ... .. . ... ... ... : ... .. . ... ... ... : ... .. . ... ... ...
ROW D4 : ... .. . ... ... ... : ... .. . ... ... ... : ... .. . ... ... ... : --- .. . ... ... ... : ... .. . ... ... ...
ROW D5 : ... .. . ... ... ... : ... .. . ... ... ... : ... .. . ... ... ... : ... .. . ... ... ... : ... .. . ... ... ...
ROW D6 : ... .. . ... ... ... : ... .. . ... ... ... : ... .. . ... ... ... : ... .. . ... ... ... : ... .. . ... ... ...
ROW D7 : ... .. . ... ... ... : ... .. . ... ... ... : ... .. . ... ... ... : ... .. . ... ... ... : ... .. . ... ... ...
ROW D8 : ... .. . ... ... ... : ... .. . ... ... ... : ... .. . ... ... ... : ... .. . ... ... ... : --- .. . ... ... ...
ROW D9 : C#2 05 . ... ... ... : ... .. . ... ... ... : ... .. . ... ... ... : ... .. . ... ... ... : E-4 06 . ... ... ...
ROW DA : ... .. . ... ... ... : ... .. . ... ... ... : ... .. . ... ... ... : ... .. . ... ... ... : ... .. . ... ... ...
ROW DB : ... .. . ... ... ... : ... .. . ... ... ... : ... .. . ... ... ... : ... .. . ... ... ... : ... .. . ... ... ...
ROW DC : ... .. . ... ... ... : ... .. . ... ... ... : ... .. . ... ... ... : ... .. . ... ... ... : ... .. . ... ... ...
ROW DD : ... .. . ... ... ... : ... .. . ... ... ... : ... .. . ... ... ... : ... .. . ... ... ... : ... .. . ... ... ...
ROW DE : ... .. . ... ... ... : ... .. . ... ... ... : ... .. . ... ... ... : ... .. . ... ... ... : ... .. . ... ... ...
ROW DF : ... .. . ... ... ... : ... .. . ... ... ... : ... .. . ... ... ... : ... .. . ... ... ... : --- .. . ... ... ...

PATTERN 02
ROW 00 : B-3 03 . ... ... ... : B-1 05 . ... ... ... : B-4 00 . ... ... ... : 4-# 00 . ... ... ... : B-3 06 . ... ... ...
ROW 01 : ... .. . ... ... ... : ... .. . ... ... ... : ... .. . ... ... ... : ... .. . ... ... ... : ... .. . ... ... ...
ROW 02 : ... .. . ... ... ... : ... .. . ... ... ... : ... .. . ... ... ... : ... .. . ... ... ... : ... .. . ... ... ...
ROW 03 : ... .. . ... ... ... : ... .. . ... ... ... : ... .. . ... ... ... : --- .. . ... ... ... : ... .. . ... ... ...
ROW 04 : ... .. . ... ... ... : ... .. . ... ... ... : ... .. . ... ... ... : ... .. . ... ... ... : ... .. . ... ... ...
ROW 05 : ... .. . ... ... ... : ... .. . ... ... ... : ... .. . ... ... ... : ... .. . ... ... ... : ... .. . ... ... ...
ROW 06 : ... .. . ... ... ... : ... .. . ... ... ... : ... .. . ... ... ... : ... .. . ... ... ... : --- .. . ... ... ...
ROW 07 : ... .. . ... ... ... : ... .. . ... ... ... : ... .. . ... ... ... : ... .. . ... ... ... : ... .. . ... ... ...
ROW 08 : ... .. . ... ... ... : ... .. . ... ... ... : ... .. . ... ... ... : ... .. . ... ... ... : ... .. . ... ... ...
ROW 09 : ... .. . ... ... ... : ... .. . ... ... ... : ... .. . ... ... ... : ... .. . ... ... ... : ... .. . ... ... ...
ROW 0A : ... .. . ... ... ... : ... .. . ... ... ... : ... .. . ... ... ... : ... .. . ... ... ... : ... .. . ... ... ...
ROW 0B : ... .. . ... ... ... : ... .. . ... ... ... : ... .. . ... ... ... : ... .. . ... ... ... : ... .. . ... ... ...
ROW 0C : ... .. . ... ... ... : ... .. . ... ... ... : ... .. . ... ... ... : ... .. . ... ... ... : ... .. . ... ... ...
ROW 0D : ... .. . ... ... ... : --- .. . ... ... ... : ... .. . ... ... ... : ... .. . ... ... ... : ... .. . ... ... ...
ROW 0E : ... .. . ... ... ... : B-1 05 . ... ... ... : ... .. . ... ... ... : C-# 00 . ... ... ... : E-4 06 . ... ... ...
ROW 0F : ... .. . ... ... ... : ... .. . ... ... ... : ... .. . ... ... ... : ... .. . ... ... ... : ... .. . ... ... ...
ROW 10 : ... .. . ... ... ... : ... .. . ... ... ... : ... .. . ... ... ... : ... .. . ... ... ... : ... .. . ... ... ...
ROW 11 : ... .. . ... ... ... : ... .. . ... ... ... : ... .. . ... ... ... : --- .. . ... ... ... : ... .. . ... ... ...
ROW 12 : ... .. . ... ... ... : ... .. . ... ... ... : ... .. . ... ... ... : ... .. . ... ... ... : ... .. . ... ... ...
ROW 13 : ... .. . ... ... ... : ... .. . ... ... ... : ... .. . ... ... ... : ... .. . ... ... ... : ... .. . ... ... ...
ROW 14 : ... .. . ... ... ... : --- .. . ... ... ... : ... .. . ... ... ... : ... .. . ... ... ... : ... .. . ... ... ...
ROW 15 : ... .. . ... ... ... : B-1 05 . ... ... ... : A-4 00 . ... ... ... : C-# 00 . ... ... ... : E-4 06 . ... ... ...
ROW 16 : ... .. . ... ... ... : ... .. . ... ... ... : ... .. . ... ... ... : ... .. . ... ... ... : ... .. . ... ... ...
ROW 17 : ... .. . ... ... ... : ... .. . ... ... ... : ... .. . ... ... ... : ... .. . ... ... ... : ... .. . ... ... ...
ROW 18 : ... .. . ... ... ... : ... .. . ... ... ... : ... .. . ... ... ... : --- .. . ... ... ... : ... .. . ... ... ...
ROW 19 : ... .. . ... ... ... : ... .. . ... ... ... : ... .. . ... ... ... : ... .. . ... ... ... : ... .. . ... ... ...
ROW 1A : ... .. . ... ... ... : ... .. . ... ... ... : ... .. . ... ... ... : ... .. . ... ... ... : ... .. . ... ... ...
ROW 1B : ... .. . ... ... ... : --- .. . ... ... ... : ... .. . ... ... ... : ... .. . ... ... ... : ... .. . ... ... ...
ROW 1C : ... .. . ... ... ... : B-1 05 . ... ... ... : F#4 00 . ... ... ... : 4-# 00 . ... ... ... : C-4 06 . ... ... ...
ROW 1D : ... .. . ... ... ... : ... .. . ... ... ... : ... .. . ... ... ... : ... .. . ... ... ... : ... .. . ... ... ...
ROW 1E : ... .. . ... ... ... : ... .. . ... ... ... : ... .. . ... ... ... : ... .. . ... ... ... : ... .. . ... ... ...
ROW 1F : ... .. . ... ... ... : ... .. . ... ... ... : ... .. . ... ... ... : --- .. . ... ... ... : ... .. . ... ... ...
ROW 20 : ... .. . ... ... ... : ... .. . ... ... ... : ... .. . ... ... ... : ... .. . ... ... ... : ... .. . ... ... ...
ROW 21 : ... .. . ... ... ... : ... .. . ... ... ... : ... .. . ... ... ... : ... .. . ... ... ... : ... .. . ... ... ...
ROW 22 : ... .. . ... ... ... : ... .. . ... ... ... : ... .. . ... ... ... : ... .. . ... ... ... : ... .. . ... ... ...
ROW 23 : ... .. . ... ... ... : ... .. . ... ... ... : ... .. . ... ... ... : ... .. . ... ... ... : ... .. . ... ... ...
ROW 24 : ... .. . ... ... ... : ... .. . ... ... ... : ... .. . ... ... ... : ... .. . ... ... ... : ... .. . ... ... ...
ROW 25 : ... .. . ... ... ... : ... .. . ... ... ... : ... .. . ... ... ... : ... .. . ... ... ... : ... .. . ... ... ...
ROW 26 : ... .. . ... ... ... : ... .. . ... ... ... : ... .. . ... ... ... : ... .. . ... ... ... : ... .. . ... ... ...
ROW 27 : ... .. . ... ... ... : ... .. . ... ... ... : ... .. . ... ... ... : ... .. . ... ... ... : ... .. . ... ... ...
ROW 28 : ... .. . ... ... ... : ... .. . ... ... ... : ... .. . ... ... ... : ... .. . ... ... ... : ... .. . ... ... ...
ROW 29 : ... .. . ... ... ... : --- .. . ... ... ... : ... .. . ... ... ... : ... .. . ... ... ... : ... .. . ... ... ...
ROW 2A : ... .. . ... ... ... : B-1 05 . ... ... ... : ... .. . ... ... ... : C-# 00 . ... ... ... : E-4 06 . ... ... ...
ROW 2B : ... .. . ... ... ... : ... .. . ... ... ... : ... .. . ... ... ... : ... .. . ... ... ... : ... .. . ... ... ...
ROW 2C : ... .. . ... ... ... : ... .. . ... ... ... : ... .. . ... ... ... : ... .. . ... ... ... : ... .. . ... ... ...
ROW 2D : ... .. . ... ... ... : ... .. . ... ... ... : ... .. . ... ... ... : --- .. . ... ... ... : ... .. . ... ... ...
ROW 2E : ... .. . ... ... ... : ... .. . ... ... ... : ... .. . ... ... ... : ... .. . ... ... ... : ... .. . ... ... ...
ROW 2F : ... .. . ... ... ... : ... .. . ... ... ... : ... .. . ... ... ... : ... .. . ... ... ... : ... .. . ... ... ...
ROW 30 : ... .. . ... ... ... : --- .. . ... ... ... : ... .. . ... ... ... : ... .. . ... ... ... : ... .. . ... ... ...
ROW 31 : ... .. . ... ... ... : B-1 05 . ... ... ... : A-4 00 . ... ... ... : C-# 00 . ... ... ... : E-4 06 . ... ... ...
ROW 32 : ... .. . ... ... ... : ... .. . ... ... ... : ... .. . ... ... ... : ... .. . ... ... ... : ... .. . ... ... ...
ROW 33 : ... .. . ... ... ... : ... .. . ... ... ... : ... .. . ... ... ... : ... .. . ... ... ... : ... .. . ... ... ...
ROW 34 : ... .. . ... ... ... : ... .. . ... ... ... : ... .. . ... ... ... : --- .. . ... ... ... : ... .. . ... ... ...
ROW 35 : ... .. . ... ... ... : ... .. . ... ... ... : ... .. . ... ... ... : ... .. . ... ... ... : ... .. . ... ... ...
ROW 36 : ... .. . ... ... ... : ... .. . ... ... ... : ... .. . ... ... ... : ... .. . ... ... ... : ... .. . ... ... ...
ROW 37 : ... .. . ... ... ... : --- .. . ... ... ... : ... .. . ... ... ... : ... .. . ... ... ... : ... .. . ... ... ...
ROW 38 : ... .. . ... ... ... : B-1 05 . ... ... ... : B-4 00 . ... ... ... : 4-# 00 . ... ... ... : B-3 06 . ... ... ...
ROW 39 : ... .. . ... ... ... : ... .. . ... ... ... : ... .. . ... ... ... : ... .. . ... ... ... : ... .. . ... ... ...
ROW 3A : ... .. . ... ... ... : ... .. . ... ... ... : ... .. . ... ... ... : ... .. . ... ... ... : ... .. . ... ... ...
ROW 3B : ... .. . ... ... ... : ... .. . ... ... ... : ... .. . ... ... ... : --- .. . ... ... ... : ... .. . ... ... ...
ROW 3C : ... .. . ... ... ... : ... .. . ... ... ... : ... .. . ... ... ... : ... .. . ... ... ... : ... .. . ... ... ...
ROW 3D : ... .. . ... ... ... : ... .. . ... ... ... : ... .. . ... ... ... : ... .. . ... ... ... : ... .. . ... ... ...
ROW 3E : ... .. . ... ... ... : ... .. . ... ... ... : --- .. . ... ... ... : ... .. . ... ... ... : --- .. . ... ... ...
ROW 3F : ... .. . ... ... ... : ... .. . ... ... ... : ... .. . ... ... ... : ... .. . ... ... ... : ... .. . ... ... ...
ROW 40 : ... .. . ... ... ... : ... .. . ... ... ... : ... .. . ... ... ... : ... .. . ... ... ... : ... .. . ... ... ...
ROW 41 : ... .. . ... ... ... : ... .. . ... ... ... : ... .. . ... ... ... : ... .. . ... ... ... : ... .. . ... ... ...
ROW 42 : ... .. . ... ... ... : ... .. . ... ... ... : ... .. . ... ... ... : ... .. . ... ... ... : ... .. . ... ... ...
ROW 43 : ... .. . ... ... ... : ... .. . ... ... ... : ... .. . ... ... ... : ... .. . ... ... ... : ... .. . ... ... ...
ROW 44 : ... .. . ... ... ... : ... .. . ... ... ... : ... .. . ... ... ... : ... .. . ... ... ... : ... .. . ... ... ...
ROW 45 : ... .. . ... ... ... : --- .. . ... ... ... : ... .. . ... ... ... : ... .. . ... ... ... : ... .. . ... ... ...
ROW 46 : F#3 03 . ... ... ... : B-1 05 . ... ... ... : B-4 00 . ... ... ... : C-# 00 . ... ... ... : E-4 06 . ... ... ...
ROW 47 : ... .. . ... ... ... : ... .. . ... ... ... : ... .. . ... ... ... : ... .. . ... ... ... : ... .. . ... ... ...
ROW 48 : ... .. . ... ... ... : ... .. . ... ... ... : ... .. . ... ... ... : ... .. . ... ... ... : ... .. . ... ... ...
ROW 49 : ... .. . ... ... ... : ... .. . ... ... ... : ... .. . ... ... ... : --- .. . ... ... ... : ... .. . ... ... ...
ROW 4A : ... .. . ... ... ... : ... .. . ... ... ... : ... .. . ... ... ... : ... .. . ... ... ... : ... .. . ... ... ...
ROW 4B : ... .. . ... ... ... : ... .. . ... ... ... : ... .. . ... ... ... : ... .. . ... ... ... : ... .. . ... ... ...
ROW 4C : ... .. . ... ... ... : --- .. . ... ... ... : ... .. . ... ... ... : ... .. . ... ... ... : --- .. . ... ... ...
ROW 4D : ... .. . ... ... ... : B-1 05 . ... ... ... : A-4 00 . ... ... ... : C-# 00 . ... ... ... : E-4 06 . ... ... ...
ROW 4E : ... .. . ... ... ... : ... .. . ... ... ... : ... .. . ... ... ... : ... .. . ... ... ... : ... .. . ... ... ...
ROW 4F : ... .. . ... ... ... : ... .. . ... ... ... : ... .. . ... ... ... : ... .. . ... ... ... : ... .. . ... ... ...
ROW 50 : ... .. . ... ... ... : ... .. . ... ... ... : ... .. . ... ... ... : --- .. . ... ... ... : ... .. . ... ... ...
ROW 51 : ... .. . ... ... ... : ... .. . ... ... ... : ... .. . ... ... ... : ... .. . ... ... ... : ... .. . ... ... ...
ROW 52 : ... .. . ... ... ... : ... .. . ... ... ... : ... .. . ... ... ... : ... .. . ... ... ... : ... .. . ... ... ...
ROW 53 : ... .. . ... ... ... : --- .. . ... ... ... : ... .. . ... ... ... : ... .. . ... ... ... : ... .. . ... ... ...
ROW 54 : B-3 03 . ... ... ... : B-1 05 . ... ... ... : F#4 00 . ... ... ... : 4-# 00 . ... ... ... : C-4 06 . ... ... ...
ROW 55 : ... .. . ... ... ... : ... .. . ... ... ... : ... .. . ... ... ... : ... .. . ... ... ... : ... .. . ... ... ...
ROW 56 : ... .. . ... ... ... : ... .. . ... ... ... : ... .. . ... ... ... : ... .. . ... ... ... : ... .. . ... ... ...
ROW 57 : ... .. . ... ... ... : ... .. . ... ... ... : ... .. . ... ... ... : --- .. . ... ... ... : ... .. . ... ... ...
ROW 58 : ... .. . ... ... ... : ... .. . ... ... ... : ... .. . ... ... ... : ... .. . ... ... ... : ... .. . ... ... ...
ROW 59 : ... .. . ... ... ... : ... .. . ... ... ... : ... .. . ... ... ... : ... .. . ... ... ... : ... .. . ... ... ...
ROW 5A : ... .. . ... ... ... : ... .. . ... ... ... : ... .. . ... ... ... : ... .. . ... ... ... : --- .. . ... ... ...
ROW 5B : ... .. . ... ... ... : ... .. . ... ... ... : ... .. . ... ... ... : ... .. . ... ... ... : ... .. . ... ... ...
ROW 5C : ... .. . ... ... ... : ... .. . ... ... ... : ... .. . ... ... ... : ... .. . ... ... ... : ... .. . ... ... ...
ROW 5D : ... .. . ... ... ... : ... .. . ... ... ... : ... .. . ... ... ... : ... .. . ... ... ... : ... .. . ... ... ...
ROW 5E : ... .. . ... ... ... : ... .. . ... ... ... : ... .. . ... ... ... : ... .. . ... ... ... : ... .. . ... ... ...
ROW 5F : ... .. . ... ... ... : ... .. . ... ... ... : ... .. . ... ... ... : ... .. . ... ... ... : ... .. . ... ... ...
ROW 60 : ... .. . ... ... ... : ... .. . ... ... ... : ... .. . ... ... ... : ... .. . ... ... ... : ... .. . ... ... ...
ROW 61 : ... .. . ... ... ... : --- .. . ... ... ... : ... .. . ... ... ... : ... .. . ... ... ... : ... .. . ... ... ...
ROW 62 : D-4 03 . ... ... ... : B-1 05 . ... ... ... : ... .. . ... ... ... : C-# 00 . ... ... ... : E-4 06 . ... ... ...
ROW 63 : ... .. . ... ... ... : ... .. . ... ... ... : ... .. . ... ... ... : ... .. . ... ... ... : ... .. . ... ... ...
ROW 64 : ... .. . ... ... ... : ... .. . ... ... ... : ... .. . ... ... ... : ... .. . ... ... ... : ... .. . ... ... ...
ROW 65 : ... .. . ... ... ... : ... .. . ... ... ... : ... .. . ... ... ... : --- .. . ... ... ... : ... .. . ... ... ...
ROW 66 : ... .. . ... ... ... : ... .. . ... ... ... : ... .. . ... ... ... : ... .. . ... ... ... : ... .. . ... ... ...
ROW 67 : ... .. . ... ... ... : ... .. . ... ... ... : ... .. . ... ... ... : ... .. . ... ... ... : ... .. . ... ... ...
ROW 68 : ... .. . ... ... ... : --- .. . ... ... ... : ... .. . ... ... ... : ... .. . ... ... ... : --- .. . ... ... ...
ROW 69 : ... .. . ... ... ... : B-1 05 . ... ... ... : A-4 00 . ... ... ... : C-# 00 . ... ... ... : E-4 06 . ... ... ...
ROW 6A : ... .. . ... ... ... : ... .. . ... ... ... : ... .. . ... ... ... : ... .. . ... ... ... : ... .. . ... ... ...
ROW 6B : ... .. . ... ... ... : ... .. . ... ... ... : ... .. . ... ... ... : ... .. . ... ... ... : ... .. . ... ... ...
ROW 6C : ... .. . ... ... ... : ... .. . ... ... ... : ... .. . ... ... ... : --- .. . ... ... ... : ... .. . ... ... ...
ROW 6D : ... .. . ... ... ... : ... .. . ... ... ... : ... .. . ... ... ... : ... .. . ... ... ... : ... .. . ... ... ...
ROW 6E : ... .. . ... ... ... : ... .. . ... ... ... : ... .. . ... ... ... : ... .. . ... ... ... : ... .. . ... ... ...
ROW 6F : ... .. . ... ... ... : --- .. . ... ... ... : ... .. . ... ... ... : ... .. . ... ... ... : ... .. . ... ... ...
ROW 70 : C#4 03 . ... ... ... : A-1 05 . ... ... ... : C#5 00 . ... ... ... : 4-# 00 . ... ... ... : B-3 06 . ... ... ...
ROW 71 : ... .. . ... ... ... : ... .. . ... ... ... : ... .. . ... ... ... : ... .. . ... ... ... : ... .. . ... ... ...
ROW 72 : ... .. . ... ... ... : ... .. . ... ... ... : ... .. . ... ... ... : ... .. . ... ... ... : ... .. . ... ... ...
ROW 73 : ... .. . ... ... ... : ... .. . ... ... ... : ... .. . ... ... ... : --- .. . ... ... ... : ... .. . ... ... ...
ROW 74 : ... .. . ... ... ... : ... .. . ... ... ... : ... .. . ... ... ... : ... .. . ... ... ... : ... .. . ... ... ...
ROW 75 : ... .. . ... ... ... : ... .. . ... ... ... : ... .. . ... ... ... : ... .. . ... ... ... : ... .. . ... ... ...
ROW 76 : --- .. . ... ... ... : ... .. . ... ... ... : ... .. . ... ... ... : ... .. . ... ... ... : ... .. . ... ... ...
ROW 77 : ... .. . ... ... ... : ... .. . ... ... ... : ... .. . ... ... ... : ... .. . ... ... ... : ... .. . ... ... ...
ROW 78 : ... .. . ... ... ... : ... .. . ... ... ... : ... .. . ... ... ... : ... .. . ... ... ... : ... .. . ... ... ...
ROW 79 : ... .. . ... ... ... : ... .. . ... ... ... : ... .. . ... ... ... : ... .. . ... ... ... : ... .. . ... ... ...
ROW 7A : ... .. . ... ... ... : ... .. . ... ... ... : ... .. . ... ... ... : ... .. . ... ... ... : ... .. . ... ... ...
ROW 7B : ... .. . ... ... ... : ... .. . ... ... ... : ... .. . ... ... ... : ... .. . ... ... ... : ... .. . ... ... ...
ROW 7C : ... .. . ... ... ... : ... .. . ... ... ... : ... .. . ... ... ... : ... .. . ... ... ... : ... .. . ... ... ...
ROW 7D : ... .. . ... ... ... : --- .. . ... ... ... : ... .. . ... ... ... : ... .. . ... ... ... : ... .. . ... ... ...
ROW 7E : ... .. . ... ... ... : A-1 05 . ... ... ... : ... .. . ... ... ... : C-# 00 . ... ... ... : E-4 06 . ... ... ...
ROW 7F : ... .. . ... ... ... : ... .. . ... ... ... : ... .. . ... ... ... : ... .. . ... ... ... : ... .. . ... ... ...
ROW 80 : ... .. . ... ... ... : ... .. . ... ... ... : ... .. . ... ... ... : ... .. . ... ... ... : ... .. . ... ... ...
ROW 81 : ... .. . ... ... ... : ... .. . ... ... ... : ... .. . ... ... ... : --- .. . ... ... ... : ... .. . ... ... ...
ROW 82 : ... .. . ... ... ... : ... .. . ... ... ... : ... .. . ... ... ... : ... .. . ... ... ... : ... .. . ... ... ...
ROW 83 : ... .. . ... ... ... : ... .. . ... ... ... : ... .. . ... ... ... : ... .. . ... ... ... : ... .. . ... ... ...
ROW 84 : ... .. . ... ... ... : --- .. . ... ... ... : ... .. . ... ... ... : ... .. . ... ... ... : ... .. . ... ... ...
ROW 85 : A-3 03 . ... ... ... : A-1 05 . ... ... ... : A-4 00 . ... ... ... : C-# 00 . ... ... ... : E-4 06 . ... ... ...
ROW 86 : ... .. . ... ... ... : ... .. . ... ... ... : ... .. . ... ... ... : ... .. . ... ... ... : ... .. . ... ... ...
ROW 87 : ... .. . ... ... ... : ... .. . ... ... ... : ... .. . ... ... ... : ... .. . ... ... ... : ... .. . ... ... ...
ROW 88 : ... .. . ... ... ... : ... .. . ... ... ... : ... .. . ... ... ... : --- .. . ... ... ... : ... .. . ... ... ...
ROW 89 : ... .. . ... ... ... : ... .. . ... ... ... : ... .. . ... ... ... : ... .. . ... ... ... : ... .. . ... ... ...
ROW 8A : ... .. . ... ... ... : ... .. . ... ... ... : ... .. . ... ... ... : ... .. . ... ... ... : ... .. . ... ... ...
ROW 8B : ... .. . ... ... ... : --- .. . ... ... ... : ... .. . ... ... ... : ... .. . ... ... ... : ... .. . ... ... ...
ROW 8C : E-3 03 . ... ... ... : A-1 05 . ... ... ... : E-4 00 . ... ... ... : 4-# 00 . ... ... ... : C-4 06 . ... ... ...
ROW 8D : ... .. . ... ... ... : ... .. . ... ... ... : ... .. . ... ... ... : ... .. . ... ... ... : ... .. . ... ... ...
ROW 8E : ... .. . ... ... ... : ... .. . ... ... ... : ... .. . ... ... ... : ... .. . ... ... ... : ... .. . ... ... ...
ROW 8F : ... .. . ... ... ... : ... .. . ... ... ... : ... .. . ... ... ... : --- .. . ... ... ... : ... .. . ... ... ...
ROW 90 : ... .. . ... ... ... : ... .. . ... ... ... : ... .. . ... ... ... : ... .. . ... ... ... : ... .. . ... ... ...
ROW 91 : ... .. . ... ... ... : ... .. . ... ... ... : ... .. . ... ... ... : ... .. . ... ... ... : ... .. . ... ... ...
ROW 92 : ... .. . ... ... ... : ... .. . ... ... ... : ... .. . ... ... ... : ... .. . ... ... ... : ... .. . ... ... ...
ROW 93 : ... .. . ... ... ... : ... .. . ... ... ... : ... .. . ... ... ... : ... .. . ... ... ... : ... .. . ... ... ...
ROW 94 : ... .. . ... ... ... : ... .. . ... ... ... : ... .. . ... ... ... : ... .. . ... ... ... : ... .. . ... ... ...
ROW 95 : ... .. . ... ... ... : ... .. . ... ... ... : ... .. . ... ... ... : ... .. . ... ... ... : ... .. . ... ... ...
ROW 96 : ... .. . ... ... ... : ... .. . ... ... ... : ... .. . ... ... ... : ... .. . ... ... ... : ... .. . ... ... ...
ROW 97 : ... .. . ... ... ... : ... .. . ... ... ... : ... .. . ... ... ... : ... .. . ... ... ... : ... .. . ... ... ...
ROW 98 : ... .. . ... ... ... : ... .. . ... ... ... : ... .. . ... ... ... : ... .. . ... ... ... : ... .. . ... ... ...
ROW 99 : ... .. . ... ... ... : --- .. . ... ... ... : ... .. . ... ... ... : ... .. . ... ... ... : ... .. . ... ... ...
ROW 9A : ... .. . ... ... ... : A-1 05 . ... ... ... : ... .. . ... ... ... : C-# 00 . ... ... ... : E-4 06 . ... ... ...
ROW 9B : ... .. . ... ... ... : ... .. . ... ... ... : ... .. . ... ... ... : ... .. . ... ... ... : ... .. . ... ... ...
ROW 9C : ... .. . ... ... ... : ... .. . ... ... ... : ... .. . ... ... ... : ... .. . ... ... ... : ... .. . ... ... ...
ROW 9D : ... .. . ... ... ... : ... .. . ... ... ... : ... .. . ... ... ... : --- .. . ... ... ... : ... .. . ... ... ...
ROW 9E : ... .. . ... ... ... : ... .. . ... ... ... : ... .. . ... ... ... : ... .. . ... ... ... : ... .. . ... ... ...
ROW 9F : ... .. . ... ... ... : ... .. . ... ... ... : ... .. . ... ... ... : ... .. . ... ... ... : ... .. . ... ... ...
ROW A0 : ... .. . ... ... ... : --- .. . ... ... ... : ... .. . ... ... ... : ... .. . ... ... ... : ... .. . ... ... ...
ROW A1 : ... .. . ... ... ... : A-1 05 . ... ... ... : A-4 00 . ... ... ... : C-# 00 . ... ... ... : E-4 06 . ... ... ...
ROW A2 : ... .. . ... ... ... : ... .. . ... ... ... : ... .. . ... ... ... : ... .. . ... ... ... : ... .. . ... ... ...
ROW A3 : ... .. . ... ... ... : ... .. . ... ... ... : ... .. . ... ... ... : ... .. . ... ... ... : ... .. . ... ... ...
ROW A4 : ... .. . ... ... ... : ... .. . ... ... ... : ... .. . ... ... ... : --- .. . ... ... ... : ... .. . ... ... ...
ROW A5 : ... .. . ... ... ... : ... .. . ... ... ... : ... .. . ... ... ... : ... .. . ... ... ... : ... .. . ... ... ...
ROW A6 : ... .. . ... ... ... : ... .. . ... ... ... : ... .. . ... ... ... : ... .. . ... ... ... : ... .. . ... ... ...
ROW A7 : ... .. . ... ... ... : --- .. . ... ... ... : ... .. . ... ... ... : ... .. . ... ... ... : ... .. . ... ... ...
ROW A8 : ... .. . ... ... ... : A-1 05 . ... ... ... : C#5 00 . ... ... ... : 4-# 00 . ... ... ... : B-3 06 . ... ... ...
ROW A9 : ... .. . ... ... ... : ... .. . ... ... ... : ... .. . ... ... ... : ... .. . ... ... ... : ... .. . ... ... ...
ROW AA : ... .. . ... ... ... : ... .. . ... ... ... : ... .. . ... ... ... : ... .. . ... ... ... : ... .. . ... ... ...
ROW AB : ... .. . ... ... ... : ... .. . ... ... ... : ... .. . ... ... ... : --- .. . ... ... ... : ... .. . ... ... ...
ROW AC : ... .. . ... ... ... : ... .. . ... ... ... : ... .. . ... ... ... : ... .. . ... ... ... : ... .. . ... ... ...
ROW AD : ... .. . ... ... ... : ... .. . ... ... ... : ... .. . ... ... ... : ... .. . ... ... ... : ... .. . ... ... ...
ROW AE : ... .. . ... ... ... : ... .. . ... ... ... : --- .. . ... ... ... : ... .. . ... ... ... : ... .. . ... ... ...
ROW AF : ... .. . ... ... ... : ... .. . ... ... ... : ... .. . ... ... ... : ... .. . ... ... ... : ... .. . ... ... ...
ROW B0 : ... .. . ... ... ... : ... .. . ... ... ... : ... .. . ... ... ... : ... .. . ... ... ... : ... .. . ... ... ...
ROW B1 : ... .. . ... ... ... : ... .. . ... ... ... : ... .. . ... ... ... : ... .. . ... ... ... : ... .. . ... ... ...
ROW B2 : ... .. . ... ... ... : ... .. . ... ... ... : ... .. . ... ... ... : ... .. . ... ... ... : ... .. . ... ... ...
ROW B3 : ... .. . ... ... ... : ... .. . ... ... ... : ... .. . ... ... ... : ... .. . ... ... ... : ... .. . ... ... ...
ROW B4 : ... .. . ... ... ... : ... .. . ... ... ... : ... .. . ... ... ... : ... .. . ... ... ... : ... .. . ... ... ...
ROW B5 : ... .. . ... ... ... : --- .. . ... ... ... : ... .. . ... ... ... : ... .. . ... ... ... : ... .. . ... ... ...
ROW B6 : ... .. . ... ... ... : A-1 05 . ... ... ... : C#5 00 . ... ... ... : C-# 00 . ... ... ... : E-4 06 . ... ... ...
ROW B7 : ... .. . ... ... ... : ... .. . ... ... ... : ... .. . ... ... ... : ... .. . ... ... ... : ... .. . ... ... ...
ROW B8 : ... .. . ... ... ... : ... .. . ... ... ... : ... .. . ... ... ... : ... .. . ... ... ... : ... .. . ... ... ...
ROW B9 : ... .. . ... ... ... : ... .. . ... ... ... : ... .. . ... ... ... : --- .. . ... ... ... : ... .. . ... ... ...
ROW BA : ... .. . ... ... ... : ... .. . ... ... ... : ... .. . ... ... ... : ... .. . ... ... ... : ... .. . ... ... ...
ROW BB : ... .. . ... ... ... : ... .. . ... ... ... : ... .. . ... ... ... : ... .. . ... ... ... : ... .. . ... ... ...
ROW BC : ... .. . ... ... ... : --- .. . ... ... ... : ... .. . ... ... ... : ... .. . ... ... ... : ... .. . ... ... ...
ROW BD : ... .. . ... ... ... : A-1 05 . ... ... ... : A-4 00 . ... ... ... : C-# 00 . ... ... ... : E-4 06 . ... ... ...
ROW BE : ... .. . ... ... ... : ... .. . ... ... ... : ... .. . ... ... ... : ... .. . ... ... ... : ... .. . ... ... ...
ROW BF : ... .. . ... ... ... : ... .. . ... ... ... : ... .. . ... ... ... : ... .. . ... ... ... : ... .. . ... ... ...
ROW C0 : ... .. . ... ... ... : ... .. . ... ... ... : ... .. . ... ... ... : --- .. . ... ... ... : ... .. . ... ... ...
ROW C1 : ... .. . ... ... ... : ... .. . ... ... ... : ... .. . ... ... ... : ... .. . ... ... ... : ... .. . ... ... ...
ROW C2 : ... .. . ... ... ... : ... .. . ... ... ... : ... .. . ... ... ... : ... .. . ... ... ... : ... .. . ... ... ...
ROW C3 : ... .. . ... ... ... : --- .. . ... ... ... : ... .. . ... ... ... : ... .. . ... ... ... : ... .. . ... ... ...
ROW C4 : ... .. . ... ... ... : F#1 05 . ... ... ... : E-4 00 . ... ... ... : 4-# 00 . ... ... ... : C-4 06 . ... ... ...
ROW C5 : ... .. . ... ... ... : ... .. . ... ... ... : ... .. . ... ... ... : ... .. . ... ... ... : ... .. . ... ... ...
ROW C6 : ... .. . ... ... ... : ... .. . ... ... ... : ... .. . ... ... ... : ... .. . ... ... ... : ... .. . ... ... ...
ROW C7 : ... .. . ... ... ... : ... .. . ... ... ... : ... .. . ... ... ... : --- .. . ... ... ... : ... .. . ... ... ...
ROW C8 : ... .. . ... ... ... : ... .. . ... ... ... : ... .. . ... ... ... : ... .. . ... ... ... : ... .. . ... ... ...
ROW C9 : ... .. . ... ... ... : ... .. . ... ... ... : ... .. . ... ... ... : ... .. . ... ... ... : ... .. . ... ... ...
ROW CA : ... .. . ... ... ... : ... .. . ... ... ... : ... .. . ... ... ... : ... .. . ... ... ... : ... .. . ... ... ...
ROW CB : ... .. . ... ... ... : ... .. . ... ... ... : ... .. . ... ... ... : ... .. . ... ... ... : ... .. . ... ... ...
ROW CC : ... .. . ... ... ... : ... .. . ... ... ... : ... .. . ... ... ... : ... .. . ... ... ... : ... .. . ... ... ...
ROW CD : ... .. . ... ... ... : ... .. . ... ... ... : ... .. . ... ... ... : ... .. . ... ... ... : ... .. . ... ... ...
ROW CE : ... .. . ... ... ... : ... .. . ... ... ... : ... .. . ... ... ... : ... .. . ... ... ... : ... .. . ... ... ...
ROW CF : ... .. . ... ... ... : ... .. . ... ... ... : ... .. . ... ... ... : ... .. . ... ... ... : ... .. . ... ... ...
ROW D0 : ... .. . ... ... ... : ... .. . ... ... ... : ... .. . ... ... ... : ... .. . ... ... ... : ... .. . ... ... ...
ROW D1 : ... .. . ... ... ... : ... .. . ... ... ... : ... .. . ... ... ... : ... .. . ... ... ... : ... .. . ... ... ...
ROW D2 : B-3 03 . ... ... ... : A-1 05 . ... ... ... : ... .. . ... ... ... : C-# 00 . ... ... ... : E-4 06 . ... ... ...
ROW D3 : ... .. . ... ... ... : ... .. . ... ... ... : ... .. . ... ... ... : ... .. . ... ... ... : ... .. . ... ... ...
ROW D4 : ... .. . ... ... ... : ... .. . ... ... ... : ... .. . ... ... ... : ... .. . ... ... ... : ... .. . ... ... ...
ROW D5 : ... .. . ... ... ... : ... .. . ... ... ... : ... .. . ... ... ... : --- .. . ... ... ... : ... .. . ... ... ...
ROW D6 : ... .. . ... ... ... : ... .. . ... ... ... : ... .. . ... ... ... : ... .. . ... ... ... : ... .. . ... ... ...
ROW D7 : ... .. . ... ... ... : ... .. . ... ... ... : ... .. . ... ... ... : ... .. . ... ... ... : ... .. . ... ... ...
ROW D8 : ... .. . ... ... ... : ... .. . ... ... ... : ... .. . ... ... ... : ... .. . ... ... ... : --- .. . ... ... ...
ROW D9 : C#4 03 . ... ... ... : ... .. . ... ... ... : A-4 00 . ... ... ... : ... .. . ... ... ... : E-4 06 . ... ... ...
ROW DA : ... .. . ... ... ... : ... .. . ... ... ... : ... .. . ... ... ... : ... .. . ... ... ... : ... .. . ... ... ...
ROW DB : ... .. . ... ... ... : ... .. . ... ... ... : ... .. . ... ... ... : ... .. . ... ... ... : ... .. . ... ... ...
ROW DC : ... .. . ... ... ... : ... .. . ... ... ... : ... .. . ... ... ... : ... .. . ... ... ... : ... .. . ... ... ...
ROW DD : ... .. . ... ... ... : ... .. . ... ... ... : ... .. . ... ... ... : ... .. . ... ... ... : ... .. . ... ... ...
ROW DE : ... .. . ... ... ... : ... .. . ... ... ... : ... .. . ... ... ... : ... .. . ... ... ... : ... .. . ... ... ...
ROW DF : ... .. . ... ... ... : ... .. . ... ... ... : --- .. . ... ... ... : ... .. . ... ... ... : --- .. . ... ... ...

PATTERN 03
ROW 00 : D-4 03 . ... ... ... : B-1 05 . ... ... ... : B-4 00 . ... ... ... : ... .. . ... ... ... : B-3 06 . ... ... ...
ROW 01 : ... .. . ... ... ... : ... .. . ... ... ... : ... .. . ... ... ... : ... .. . ... ... ... : ... .. . ... ... ...
ROW 02 : ... .. . ... ... ... : ... .. . ... ... ... : ... .. . ... ... ... : ... .. . ... ... ... : ... .. . ... ... ...
ROW 03 : ... .. . ... ... ... : ... .. . ... ... ... : ... .. . ... ... ... : ... .. . ... ... ... : ... .. . ... ... ...
ROW 04 : ... .. . ... ... ... : ... .. . ... ... ... : ... .. . ... ... ... : ... .. . ... ... ... : ... .. . ... ... ...
ROW 05 : ... .. . ... ... ... : ... .. . ... ... ... : ... .. . ... ... ... : ... .. . ... ... ... : ... .. . ... ... ...
ROW 06 : ... .. . ... ... ... : --- .. . ... ... ... : --- .. . ... ... ... : ... .. . ... ... ... : ... .. . ... ... ...
ROW 07 : ... .. . ... ... ... : B-1 05 . ... ... ... : ... .. . ... ... ... : ... .. . ... ... ... : ... .. . ... ... ...
ROW 08 : ... .. . ... ... ... : ... .. . ... ... ... : ... .. . ... ... ... : ... .. . ... ... ... : ... .. . ... ... ...
ROW 09 : ... .. . ... ... ... : ... .. . ... ... ... : ... .. . ... ... ... : ... .. . ... ... ... : ... .. . ... ... ...
ROW 0A : ... .. . ... ... ... : ... .. . ... ... ... : ... .. . ... ... ... : ... .. . ... ... ... : ... .. . ... ... ...
ROW 0B : ... .. . ... ... ... : ... .. . ... ... ... : ... .. . ... ... ... : ... .. . ... ... ... : ... .. . ... ... ...
ROW 0C : ... .. . ... ... ... : ... .. . ... ... ... : ... .. . ... ... ... : ... .. . ... ... ... : ... .. . ... ... ...
ROW 0D : ... .. . ... ... ... : --- .. . ... ... ... : ... .. . ... ... ... : ... .. . ... ... ... : --- .. . ... ... ...
ROW 0E : ... .. . ... ... ... : B-1 05 . ... ... ... : B-4 00 . ... ... ... : ... .. . ... ... ... : C-4 06 . ... ... ...
ROW 0F : ... .. . ... ... ... : ... .. . ... ... ... : ... .. . ... ... ... : ... .. . ... ... ... : ... .. . ... ... ...
ROW 10 : ... .. . ... ... ... : ... .. . ... ... ... : ... .. . ... ... ... : ... .. . ... ... ... : ... .. . ... ... ...
ROW 11 : ... .. . ... ... ... : ... .. . ... ... ... : ... .. . ... ... ... : ... .. . ... ... ... : ... .. . ... ... ...
ROW 12 : ... .. . ... ... ... : ... .. . ... ... ... : ... .. . ... ... ... : ... .. . ... ... ... : ... .. . ... ... ...
ROW 13 : ... .. . ... ... ... : ... .. . ... ... ... : ... .. . ... ... ... : ... .. . ... ... ... : ... .. . ... ... ...
ROW 14 : ... .. . ... ... ... : --- .. . ... ... ... : ... .. . ... ... ... : ... .. . ... ... ... : ... .. . ... ... ...
ROW 15 : ... .. . ... ... ... : B-1 05 . ... ... ... : C#5 00 . ... ... ... : ... .. . ... ... ... : D-4 06 . ... ... ...
ROW 16 : ... .. . ... ... ... : ... .. . ... ... ... : ... .. . ... ... ... : ... .. . ... ... ... : ... .. . ... ... ...
ROW 17 : ... .. . ... ... ... : ... .. . ... ... ... : ... .. . ... ... ... : ... .. . ... ... ... : ... .. . ... ... ...
ROW 18 : ... .. . ... ... ... : ... .. . ... ... ... : ... .. . ... ... ... : ... .. . ... ... ... : ... .. . ... ... ...
ROW 19 : ... .. . ... ... ... : ... .. . ... ... ... : ... .. . ... ... ... : ... .. . ... ... ... : ... .. . ... ... ...
ROW 1A : ... .. . ... ... ... : ... .. . ... ... ... : ... .. . ... ... ... : ... .. . ... ... ... : ... .. . ... ... ...
ROW 1B : ... .. . ... ... ... : --- .. . ... ... ... : ... .. . ... ... ... : ... .. . ... ... ... : ... .. . ... ... ...
ROW 1C : ... .. . ... ... ... : B-1 05 . ... ... ... : D-5 00 . ... ... ... : ... .. . ... ... ... : C-4 06 . ... ... ...
ROW 1D : ... .. . ... ... ... : ... .. . ... ... ... : ... .. . ... ... ... : ... .. . ... ... ... : ... .. . ... ... ...
ROW 1E : ... .. . ... ... ... : ... .. . ... ... ... : ... .. . ... ... ... : ... .. . ... ... ... : ... .. . ... ... ...
ROW 1F : ... .. . ... ... ... : ... .. . ... ... ... : ... .. . ... ... ... : ... .. . ... ... ... : ... .. . ... ... ...
ROW 20 : ... .. . ... ... ... : ... .. . ... ... ... : ... .. . ... ... ... : ... .. . ... ... ... : ... .. . ... ... ...
ROW 21 : ... .. . ... ... ... : ... .. . ... ... ... : ... .. . ... ... ... : ... .. . ... ... ... : ... .. . ... ... ...
ROW 22 : ... .. . ... ... ... : ... .. . ... ... ... : ... .. . ... ... ... : ... .. . ... ... ... : ... .. . ... ... ...
ROW 23 : ... .. . ... ... ... : ... .. . ... ... ... : ... .. . ... ... ... : ... .. . ... ... ... : ... .. . ... ... ...
ROW 24 : ... .. . ... ... ... : ... .. . ... ... ... : ... .. . ... ... ... : ... .. . ... ... ... : ... .. . ... ... ...
ROW 25 : ... .. . ... ... ... : ... .. . ... ... ... : ... .. . ... ... ... : ... .. . ... ... ... : ... .. . ... ... ...
ROW 26 : ... .. . ... ... ... : ... .. . ... ... ... : ... .. . ... ... ... : ... .. . ... ... ... : ... .. . ... ... ...
ROW 27 : ... .. . ... ... ... : ... .. . ... ... ... : ... .. . ... ... ... : ... .. . ... ... ... : ... .. . ... ... ...
ROW 28 : ... .. . ... ... ... : ... .. . ... ... ... : ... .. . ... ... ... : ... .. . ... ... ... : ... .. . ... ... ...
ROW 29 : ... .. . ... ... ... : ... .. . ... ... ... : ... .. . ... ... ... : ... .. . ... ... ... : ... .. . ... ... ...
ROW 2A : ... .. . ... ... ... : ... .. . ... ... ... : E-5 00 . ... ... ... : ... .. . ... ... ... : D-4 06 . ... ... ...
ROW 2B : ... .. . ... ... ... : ... .. . ... ... ... : ... .. . ... ... ... : ... .. . ... ... ... : ... .. . ... ... ...
ROW 2C : ... .. . ... ... ... : ... .. . ... ... ... : ... .. . ... ... ... : ... .. . ... ... ... : ... .. . ... ... ...
ROW 2D : ... .. . ... ... ... : ... .. . ... ... ... : ... .. . ... ... ... : ... .. . ... ... ... : ... .. . ... ... ...
ROW 2E : ... .. . ... ... ... : ... .. . ... ... ... : ... .. . ... ... ... : ... .. . ... ... ... : ... .. . ... ... ...
ROW 2F : ... .. . ... ... ... : ... .. . ... ... ... : ... .. . ... ... ... : ... .. . ... ... ... : ... .. . ... ... ...
ROW 30 : ... .. . ... ... ... : ... .. . ... ... ... : ... .. . ... ... ... : ... .. . ... ... ... : ... .. . ... ... ...
ROW 31 : ... .. . ... ... ... : A-1 05 . ... ... ... : ... .. . ... ... ... : ... .. . ... ... ... : D-4 06 . ... ... ...
ROW 32 : ... .. . ... ... ... : ... .. . ... ... ... : ... .. . ... ... ... : ... .. . ... ... ... : ... .. . ... ... ...
ROW 33 : ... .. . ... ... ... : ... .. . ... ... ... : ... .. . ... ... ... : ... .. . ... ... ... : ... .. . ... ... ...
ROW 34 : ... .. . ... ... ... : ... .. . ... ... ... : ... .. . ... ... ... : ... .. . ... ... ... : ... .. . ... ... ...
ROW 35 : ... .. . ... ... ... : ... .. . ... ... ... : ... .. . ... ... ... : ... .. . ... ... ... : ... .. . ... ... ...
ROW 36 : ... .. . ... ... ... : ... .. . ... ... ... : ... .. . ... ... ... : ... .. . ... ... ... : ... .. . ... ... ...
ROW 37 : ... .. . ... ... ... : --- .. . ... ... ... : ... .. . ... ... ... : ... .. . ... ... ... : ... .. . ... ... ...
ROW 38 : ... .. . ... ... ... : F#1 05 . ... ... ... : F#5 00 . ... ... ... : ... .. . ... ... ... : B-3 06 . ... ... ...
ROW 39 : ... .. . ... ... ... : ... .. . ... ... ... : ... .. . ... ... ... : ... .. . ... ... ... : ... .. . ... ... ...
ROW 3A : ... .. . ... ... ... : ... .. . ... ... ... : ... .. . ... ... ... : ... .. . ... ... ... : ... .. . ... ... ...
ROW 3B : ... .. . ... ... ... : ... .. . ... ... ... : ... .. . ... ... ... : ... .. . ... ... ... : ... .. . ... ... ...
ROW 3C : ... .. . ... ... ... : ... .. . ... ... ... : ... .. . ... ... ... : ... .. . ... ... ... : ... .. . ... ... ...
ROW 3D : ... .. . ... ... ... : ... .. . ... ... ... : ... .. . ... ... ... : ... .. . ... ... ... : ... .. . ... ... ...
ROW 3E : ... .. . ... ... ... : --- .. . ... ... ... : ... .. . ... ... ... : ... .. . ... ... ... : ... .. . ... ... ...
ROW 3F : ... .. . ... ... ... : F#1 05 . ... ... ... : ... .. . ... ... ... : ... .. . ... ... ... : ... .. . ... ... ...
ROW 40 : ... .. . ... ... ... : ... .. . ... ... ... : ... .. . ... ... ... : ... .. . ... ... ... : ... .. . ... ... ...
ROW 41 : ... .. . ... ... ... : ... .. . ... ... ... : ... .. . ... ... ... : ... .. . ... ... ... : ... .. . ... ... ...
ROW 42 : ... .. . ... ... ... : ... .. . ... ... ... : ... .. . ... ... ... : ... .. . ... ... ... : ... .. . ... ... ...
ROW 43 : ... .. . ... ... ... : ... .. . ... ... ... : ... .. . ... ... ... : ... .. . ... ... ... : ... .. . ... ... ...
ROW 44 : ... .. . ... ... ... : ... .. . ... ... ... : ... .. . ... ... ... : ... .. . ... ... ... : ... .. . ... ... ...
ROW 45 : ... .. . ... ... ... : --- .. . ... ... ... : ... .. . ... ... ... : ... .. . ... ... ... : ... .. . ... ... ...
ROW 46 : B-3 03 . ... ... ... : F#1 05 . ... ... ... : ... .. . ... ... ... : ... .. . ... ... ... : D-4 06 . ... ... ...
ROW 47 : ... .. . ... ... ... : ... .. . ... ... ... : ... .. . ... ... ... : ... .. . ... ... ... : ... .. . ... ... ...
ROW 48 : ... .. . ... ... ... : ... .. . ... ... ... : ... .. . ... ... ... : ... .. . ... ... ... : ... .. . ... ... ...
ROW 49 : ... .. . ... ... ... : ... .. . ... ... ... : ... .. . ... ... ... : ... .. . ... ... ... : ... .. . ... ... ...
ROW 4A : ... .. . ... ... ... : ... .. . ... ... ... : ... .. . ... ... ... : ... .. . ... ... ... : ... .. . ... ... ...
ROW 4B : ... .. . ... ... ... : ... .. . ... ... ... : ... .. . ... ... ... : ... .. . ... ... ... : ... .. . ... ... ...
ROW 4C : ... .. . ... ... ... : --- .. . ... ... ... : ... .. . ... ... ... : ... .. . ... ... ... : ... .. . ... ... ...
ROW 4D : ... .. . ... ... ... : F#1 05 . ... ... ... : ... .. . ... ... ... : ... .. . ... ... ... : D-4 06 . ... ... ...
ROW 4E : ... .. . ... ... ... : ... .. . ... ... ... : ... .. . ... ... ... : ... .. . ... ... ... : ... .. . ... ... ...
ROW 4F : ... .. . ... ... ... : ... .. . ... ... ... : ... .. . ... ... ... : ... .. . ... ... ... : ... .. . ... ... ...
ROW 50 : ... .. . ... ... ... : ... .. . ... ... ... : ... .. . ... ... ... : ... .. . ... ... ... : ... .. . ... ... ...
ROW 51 : ... .. . ... ... ... : ... .. . ... ... ... : ... .. . ... ... ... : ... .. . ... ... ... : ... .. . ... ... ...
ROW 52 : ... .. . ... ... ... : ... .. . ... ... ... : ... .. . ... ... ... : ... .. . ... ... ... : ... .. . ... ... ...
ROW 53 : ... .. . ... ... ... : --- .. . ... ... ... : ... .. . ... ... ... : ... .. . ... ... ... : ... .. . ... ... ...
ROW 54 : D-4 03 . ... ... ... : F#1 05 . ... ... ... : ... .. . ... ... ... : ... .. . ... ... ... : C-4 06 . ... ... ...
ROW 55 : ... .. . ... ... ... : ... .. . ... ... ... : ... .. . ... ... ... : ... .. . ... ... ... : ... .. . ... ... ...
ROW 56 : ... .. . ... ... ... : ... .. . ... ... ... : ... .. . ... ... ... : ... .. . ... ... ... : ... .. . ... ... ...
ROW 57 : ... .. . ... ... ... : ... .. . ... ... ... : ... .. . ... ... ... : ... .. . ... ... ... : ... .. . ... ... ...
ROW 58 : ... .. . ... ... ... : ... .. . ... ... ... : ... .. . ... ... ... : ... .. . ... ... ... : ... .. . ... ... ...
ROW 59 : ... .. . ... ... ... : ... .. . ... ... ... : ... .. . ... ... ... : ... .. . ... ... ... : ... .. . ... ... ...
ROW 5A : ... .. . ... ... ... : ... .. . ... ... ... : ... .. . ... ... ... : ... .. . ... ... ... : ... .. . ... ... ...
ROW 5B : ... .. . ... ... ... : ... .. . ... ... ... : ... .. . ... ... ... : ... .. . ... ... ... : ... .. . ... ... ...
ROW 5C : ... .. . ... ... ... : ... .. . ... ... ... : ... .. . ... ... ... : ... .. . ... ... ... : ... .. . ... ... ...
ROW 5D : ... .. . ... ... ... : ... .. . ... ... ... : ... .. . ... ... ... : ... .. . ... ... ... : ... .. . ... ... ...
ROW 5E : ... .. . ... ... ... : ... .. . ... ... ... : ... .. . ... ... ... : ... .. . ... ... ... : ... .. . ... ... ...
ROW 5F : ... .. . ... ... ... : ... .. . ... ... ... : ... .. . ... ... ... : ... .. . ... ... ... : ... .. . ... ... ...
ROW 60 : ... .. . ... ... ... : ... .. . ... ... ... : ... .. . ... ... ... : ... .. . ... ... ... : ... .. . ... ... ...
ROW 61 : ... .. . ... ... ... : ... .. . ... ... ... : ... .. . ... ... ... : ... .. . ... ... ... : ... .. . ... ... ...
ROW 62 : F#4 03 . ... ... ... : ... .. . ... ... ... : ... .. . ... ... ... : ... .. . ... ... ... : C-4 06 . ... ... ...
ROW 63 : ... .. . ... ... ... : ... .. . ... ... ... : ... .. . ... ... ... : ... .. . ... ... ... : ... .. . ... ... ...
ROW 64 : ... .. . ... ... ... : ... .. . ... ... ... : ... .. . ... ... ... : ... .. . ... ... ... : ... .. . ... ... ...
ROW 65 : ... .. . ... ... ... : ... .. . ... ... ... : ... .. . ... ... ... : ... .. . ... ... ... : ... .. . ... ... ...
ROW 66 : ... .. . ... ... ... : ... .. . ... ... ... : ... .. . ... ... ... : ... .. . ... ... ... : ... .. . ... ... ...
ROW 67 : ... .. . ... ... ... : ... .. . ... ... ... : ... .. . ... ... ... : ... .. . ... ... ... : ... .. . ... ... ...
ROW 68 : ... .. . ... ... ... : ... .. . ... ... ... : ... .. . ... ... ... : ... .. . ... ... ... : ... .. . ... ... ...
ROW 69 : ... .. . ... ... ... : B-1 05 . ... ... ... : D-5 00 . ... ... ... : ... .. . ... ... ... : ... .. . ... ... ...
ROW 6A : ... .. . ... ... ... : ... .. . ... ... ... : ... .. . ... ... ... : ... .. . ... ... ... : ... .. . ... ... ...
ROW 6B : ... .. . ... ... ... : ... .. . ... ... ... : ... .. . ... ... ... : ... .. . ... ... ... : ... .. . ... ... ...
ROW 6C : ... .. . ... ... ... : ... .. . ... ... ... : ... .. . ... ... ... : ... .. . ... ... ... : ... .. . ... ... ...
ROW 6D : ... .. . ... ... ... : ... .. . ... ... ... : ... .. . ... ... ... : ... .. . ... ... ... : ... .. . ... ... ...
ROW 6E : ... .. . ... ... ... : ... .. . ... ... ... : ... .. . ... ... ... : ... .. . ... ... ... : ... .. . ... ... ...
ROW 6F : ... .. . ... ... ... : ... .. . ... ... ... : ... .. . ... ... ... : ... .. . ... ... ... : ... .. . ... ... ...
ROW 70 : A-4 03 . ... ... ... : A-1 05 . ... ... ... : E-5 00 . ... ... ... : ... .. . ... ... ... : B-3 06 . ... ... ...
ROW 71 : ... .. . ... ... ... : ... .. . ... ... ... : ... .. . ... ... ... : ... .. . ... ... ... : ... .. . ... ... ...
ROW 72 : ... .. . ... ... ... : ... .. . ... ... ... : ... .. . ... ... ... : ... .. . ... ... ... : ... .. . ... ... ...
ROW 73 : ... .. . ... ... ... : ... .. . ... ... ... : ... .. . ... ... ... : ... .. . ... ... ... : ... .. . ... ... ...
ROW 74 : ... .. . ... ... ... : ... .. . ... ... ... : ... .. . ... ... ... : ... .. . ... ... ... : ... .. . ... ... ...
ROW 75 : ... .. . ... ... ... : ... .. . ... ... ... : ... .. . ... ... ... : ... .. . ... ... ... : ... .. . ... ... ...
ROW 76 : --- .. . ... ... ... : --- .. . ... ... ... : --- .. . ... ... ... : ... .. . ... ... ... : ... .. . ... ... ...
ROW 77 : ... .. . ... ... ... : A-1 05 . ... ... ... : ... .. . ... ... ... : ... .. . ... ... ... : ... .. . ... ... ...
ROW 78 : ... .. . ... ... ... : ... .. . ... ... ... : ... .. . ... ... ... : ... .. . ... ... ... : ... .. . ... ... ...
ROW 79 : ... .. . ... ... ... : ... .. . ... ... ... : ... .. . ... ... ... : ... .. . ... ... ... : ... .. . ... ... ...
ROW 7A : ... .. . ... ... ... : ... .. . ... ... ... : ... .. . ... ... ... : ... .. . ... ... ... : ... .. . ... ... ...
ROW 7B : ... .. . ... ... ... : ... .. . ... ... ... : ... .. . ... ... ... : ... .. . ... ... ... : ... .. . ... ... ...
ROW 7C : ... .. . ... ... ... : ... .. . ... ... ... : ... .. . ... ... ... : ... .. . ... ... ... : ... .. . ... ... ...
ROW 7D : ... .. . ... ... ... : --- .. . ... ... ... : ... .. . ... ... ... : ... .. . ... ... ... : ... .. . ... ... ...
ROW 7E : ... .. . ... ... ... : A-1 05 . ... ... ... : E-5 00 . ... ... ... : ... .. . ... ... ... : C-4 06 . ... ... ...
ROW 7F : ... .. . ... ... ... : ... .. . ... ... ... : ... .. . ... ... ... : ... .. . ... ... ... : ... .. . ... ... ...
ROW 80 : ... .. . ... ... ... : ... .. . ... ... ... : ... .. . ... ... ... : ... .. . ... ... ... : ... .. . ... ... ...
ROW 81 : ... .. . ... ... ... : ... .. . ... ... ... : ... .. . ... ... ... : ... .. . ... ... ... : ... .. . ... ... ...
ROW 82 : ... .. . ... ... ... : ... .. . ... ... ... : ... .. . ... ... ... : ... .. . ... ... ... : ... .. . ... ... ...
ROW 83 : ... .. . ... ... ... : ... .. . ... ... ... : ... .. . ... ... ... : ... .. . ... ... ... : ... .. . ... ... ...
ROW 84 : ... .. . ... ... ... : --- .. . ... ... ... : ... .. . ... ... ... : ... .. . ... ... ... : ... .. . ... ... ...
ROW 85 : E-4 03 . ... ... ... : A-1 05 . ... ... ... : D-5 00 . ... ... ... : ... .. . ... ... ... : D-4 06 . ... ... ...
ROW 86 : ... .. . ... ... ... : ... .. . ... ... ... : ... .. . ... ... ... : ... .. . ... ... ... : ... .. . ... ... ...
ROW 87 : ... .. . ... ... ... : ... .. . ... ... ... : ... .. . ... ... ... : ... .. . ... ... ... : ... .. . ... ... ...
ROW 88 : ... .. . ... ... ... : ... .. . ... ... ... : ... .. . ... ... ... : ... .. . ... ... ... : ... .. . ... ... ...
ROW 89 : ... .. . ... ... ... : ... .. . ... ... ... : ... .. . ... ... ... : ... .. . ... ... ... : ... .. . ... ... ...
ROW 8A : ... .. . ... ... ... : ... .. . ... ... ... : ... .. . ... ... ... : ... .. . ... ... ... : ... .. . ... ... ...
ROW 8B : --- .. . ... ... ... : --- .. . ... ... ... : ... .. . ... ... ... : ... .. . ... ... ... : ... .. . ... ... ...
ROW 8C : C#4 03 . ... ... ... : A-1 05 . ... ... ... : C#5 00 . ... ... ... : ... .. . ... ... ... : C-4 06 . ... ... ...
ROW 8D : ... .. . ... ... ... : ... .. . ... ... ... : ... .. . ... ... ... : ... .. . ... ... ... : ... .. . ... ... ...
ROW 8E : ... .. . ... ... ... : ... .. . ... ... ... : ... .. . ... ... ... : ... .. . ... ... ... : ... .. . ... ... ...
ROW 8F : ... .. . ... ... ... : ... .. . ... ... ... : ... .. . ... ... ... : ... .. . ... ... ... : ... .. . ... ... ...
ROW 90 : ... .. . ... ... ... : ... .. . ... ... ... : ... .. . ... ... ... : ... .. . ... ... ... : ... .. . ... ... ...
ROW 91 : ... .. . ... ... ... : ... .. . ... ... ... : ... .. . ... ... ... : ... .. . ... ... ... : ... .. . ... ... ...
ROW 92 : ... .. . ... ... ... : ... .. . ... ... ... : ... .. . ... ... ... : ... .. . ... ... ... : ... .. . ... ... ...
ROW 93 : ... .. . ... ... ... : ... .. . ... ... ... : ... .. . ... ... ... : ... .. . ... ... ... : ... .. . ... ... ...
ROW 94 : ... .. . ... ... ... : ... .. . ... ... ... : ... .. . ... ... ... : ... .. . ... ... ... : ... .. . ... ... ...
ROW 95 : ... .. . ... ... ... : ... .. . ... ... ... : ... .. . ... ... ... : ... .. . ... ... ... : ... .. . ... ... ...
ROW 96 : ... .. . ... ... ... : ... .. . ... ... ... : ... .. . ... ... ... : ... .. . ... ... ... : ... .. . ... ... ...
ROW 97 : ... .. . ... ... ... : ... .. . ... ... ... : ... .. . ... ... ... : ... .. . ... ... ... : ... .. . ... ... ...
ROW 98 : ... .. . ... ... ... : ... .. . ... ... ... : ... .. . ... ... ... : ... .. . ... ... ... : ... .. . ... ... ...
ROW 99 : ... .. . ... ... ... : ... .. . ... ... ... : ... .. . ... ... ... : ... .. . ... ... ... : ... .. . ... ... ...
ROW 9A : ... .. . ... ... ... : ... .. . ... ... ... : B-4 00 . ... ... ... : ... .. . ... ... ... : D-4 06 . ... ... ...
ROW 9B : ... .. . ... ... ... : ... .. . ... ... ... : ... .. . ... ... ... : ... .. . ... ... ... : ... .. . ... ... ...
ROW 9C : ... .. . ... ... ... : ... .. . ... ... ... : ... .. . ... ... ... : ... .. . ... ... ... : ... .. . ... ... ...
ROW 9D : ... .. . ... ... ... : ... .. . ... ... ... : ... .. . ... ... ... : ... .. . ... ... ... : ... .. . ... ... ...
ROW 9E : ... .. . ... ... ... : ... .. . ... ... ... : ... .. . ... ... ... : ... .. . ... ... ... : ... .. . ... ... ...
ROW 9F : ... .. . ... ... ... : ... .. . ... ... ... : ... .. . ... ... ... : ... .. . ... ... ... : ... .. . ... ... ...
ROW A0 : ... .. . ... ... ... : ... .. . ... ... ... : ... .. . ... ... ... : ... .. . ... ... ... : ... .. . ... ... ...
ROW A1 : ... .. . ... ... ... : F#1 05 . ... ... ... : ... .. . ... ... ... : ... .. . ... ... ... : D-4 06 . ... ... ...
ROW A2 : ... .. . ... ... ... : ... .. . ... ... ... : ... .. . ... ... ... : ... .. . ... ... ... : ... .. . ... ... ...
ROW A3 : ... .. . ... ... ... : ... .. . ... ... ... : ... .. . ... ... ... : ... .. . ... ... ... : ... .. . ... ... ...
ROW A4 : ... .. . ... ... ... : ... .. . ... ... ... : ... .. . ... ... ... : ... .. . ... ... ... : ... .. . ... ... ...
ROW A5 : ... .. . ... ... ... : ... .. . ... ... ... : ... .. . ... ... ... : ... .. . ... ... ... : ... .. . ... ... ...
ROW A6 : ... .. . ... ... ... : ... .. . ... ... ... : ... .. . ... ... ... : ... .. . ... ... ... : ... .. . ... ... ...
ROW A7 : ... .. . ... ... ... : ... .. . ... ... ... : ... .. . ... ... ... : ... .. . ... ... ... : ... .. . ... ... ...
ROW A8 : ... .. . ... ... ... : E-1 05 . ... ... ... : A-4 00 . ... ... ... : ... .. . ... ... ... : B-3 06 . ... ... ...
ROW A9 : ... .. . ... ... ... : ... .. . ... ... ... : ... .. . ... ... ... : ... .. . ... ... ... : ... .. . ... ... ...
ROW AA : ... .. . ... ... ... : ... .. . ... ... ... : ... .. . ... ... ... : ... .. . ... ... ... : ... .. . ... ... ...
ROW AB : ... .. . ... ... ... : ... .. . ... ... ... : ... .. . ... ... ... : ... .. . ... ... ... : ... .. . ... ... ...
ROW AC : ... .. . ... ... ... : ... .. . ... ... ... : ... .. . ... ... ... : ... .. . ... ... ... : ... .. . ... ... ...
ROW AD : ... .. . ... ... ... : ... .. . ... ... ... : ... .. . ... ... ... : ... .. . ... ... ... : ... .. . ... ... ...
ROW AE : ... .. . ... ... ... : --- .. . ... ... ... : ... .. . ... ... ... : ... .. . ... ... ... : ... .. . ... ... ...
ROW AF : ... .. . ... ... ... : E-1 05 . ... ... ... : ... .. . ... ... ... : ... .. . ... ... ... : ... .. . ... ... ...
ROW B0 : ... .. . ... ... ... : ... .. . ... ... ... : ... .. . ... ... ... : ... .. . ... ... ... : ... .. . ... ... ...
ROW B1 : ... .. . ... ... ... : ... .. . ... ... ... : ... .. . ... ... ... : ... .. . ... ... ... : ... .. . ... ... ...
ROW B2 : ... .. . ... ... ... : ... .. . ... ... ... : ... .. . ... ... ... : ... .. . ... ... ... : ... .. . ... ... ...
ROW B3 : ... .. . ... ... ... : ... .. . ... ... ... : ... .. . ... ... ... : ... .. . ... ... ... : ... .. . ... ... ...
ROW B4 : ... .. . ... ... ... : ... .. . ... ... ... : ... .. . ... ... ... : ... .. . ... ... ... : ... .. . ... ... ...
ROW B5 : ... .. . ... ... ... : --- .. . ... ... ... : ... .. . ... ... ... : ... .. . ... ... ... : ... .. . ... ... ...
ROW B6 : ... .. . ... ... ... : E-1 05 . ... ... ... : ... .. . ... ... ... : ... .. . ... ... ... : D-4 06 . ... ... ...
ROW B7 : ... .. . ... ... ... : ... .. . ... ... ... : ... .. . ... ... ... : ... .. . ... ... ... : ... .. . ... ... ...
ROW B8 : ... .. . ... ... ... : ... .. . ... ... ... : ... .. . ... ... ... : ... .. . ... ... ... : ... .. . ... ... ...
ROW B9 : ... .. . ... ... ... : ... .. . ... ... ... : ... .. . ... ... ... : ... .. . ... ... ... : ... .. . ... ... ...
ROW BA : ... .. . ... ... ... : ... .. . ... ... ... : ... .. . ... ... ... : ... .. . ... ... ... : ... .. . ... ... ...
ROW BB : ... .. . ... ... ... : ... .. . ... ... ... : ... .. . ... ... ... : ... .. . ... ... ... : ... .. . ... ... ...
ROW BC : ... .. . ... ... ... : --- .. . ... ... ... : ... .. . ... ... ... : ... .. . ... ... ... : ... .. . ... ... ...
ROW BD : ... .. . ... ... ... : E-1 05 . ... ... ... : ... .. . ... ... ... : ... .. . ... ... ... : D-4 06 . ... ... ...
ROW BE : ... .. . ... ... ... : ... .. . ... ... ... : ... .. . ... ... ... : ... .. . ... ... ... : ... .. . ... ... ...
ROW BF : ... .. . ... ... ... : ... .. . ... ... ... : ... .. . ... ... ... : ... .. . ... ... ... : ... .. . ... ... ...
ROW C0 : ... .. . ... ... ... : ... .. . ... ... ... : ... .. . ... ... ... : ... .. . ... ... ... : ... .. . ... ... ...
ROW C1 : ... .. . ... ... ... : ... .. . ... ... ... : ... .. . ... ... ... : ... .. . ... ... ... : ... .. . ... ... ...
ROW C2 : ... .. . ... ... ... : ... .. . ... ... ... : ... .. . ... ... ... : ... .. . ... ... ... : ... .. . ... ... ...
ROW C3 : ... .. . ... ... ... : --- .. . ... ... ... : ... .. . ... ... ... : ... .. . ... ... ... : ... .. . ... ... ...
ROW C4 : ... .. . ... ... ... : E-1 05 . ... ... ... : ... .. . ... ... ... : ... .. . ... ... ... : C-4 06 . ... ... ...
ROW C5 : ... .. . ... ... ... : ... .. . ... ... ... : ... .. . ... ... ... : ... .. . ... ... ... : ... .. . ... ... ...
ROW C6 : ... .. . ... ... ... : ... .. . ... ... ... : ... .. . ... ... ... : ... .. . ... ... ... : ... .. . ... ... ...
ROW C7 : ... .. . ... ... ... : ... .. . ... ... ... : ... .. . ... ... ... : ... .. . ... ... ... : ... .. . ... ... ...
ROW C8 : ... .. . ... ... ... : ... .. . ... ... ... : ... .. . ... ... ... : ... .. . ... ... ... : ... .. . ... ... ...
ROW C9 : ... .. . ... ... ... : ... .. . ... ... ... : ... .. . ... ... ... : ... .. . ... ... ... : ... .. . ... ... ...
ROW CA : ... .. . ... ... ... : ... .. . ... ... ... : ... .. . ... ... ... : ... .. . ... ... ... : ... .. . ... ... ...
ROW CB : ... .. . ... ... ... : ... .. . ... ... ... : ... .. . ... ... ... : ... .. . ... ... ... : ... .. . ... ... ...
ROW CC : ... .. . ... ... ... : ... .. . ... ... ... : ... .. . ... ... ... : ... .. . ... ... ... : ... .. . ... ... ...
ROW CD : ... .. . ... ... ... : ... .. . ... ... ... : ... .. . ... ... ... : ... .. . ... ... ... : ... .. . ... ... ...
ROW CE : ... .. . ... ... ... : ... .. . ... ... ... : ... .. . ... ... ... : ... .. . ... ... ... : ... .. . ... ... ...
ROW CF : ... .. . ... ... ... : ... .. . ... ... ... : ... .. . ... ... ... : ... .. . ... ... ... : ... .. . ... ... ...
ROW D0 : ... .. . ... ... ... : ... .. . ... ... ... : ... .. . ... ... ... : ... .. . ... ... ... : ... .. . ... ... ...
ROW D1 : ... .. . ... ... ... : ... .. . ... ... ... : ... .. . ... ... ... : ... .. . ... ... ... : ... .. . ... ... ...
ROW D2 : D-4 03 . ... ... ... : ... .. . ... ... ... : ... .. . ... ... ... : ... .. . ... ... ... : C-4 06 . ... ... ...
ROW D3 : ... .. . ... ... ... : ... .. . ... ... ... : ... .. . ... ... ... : ... .. . ... ... ... : ... .. . ... ... ...
ROW D4 : ... .. . ... ... ... : ... .. . ... ... ... : ... .. . ... ... ... : ... .. . ... ... ... : ... .. . ... ... ...
ROW D5 : ... .. . ... ... ... : ... .. . ... ... ... : ... .. . ... ... ... : ... .. . ... ... ... : ... .. . ... ... ...
ROW D6 : ... .. . ... ... ... : ... .. . ... ... ... : ... .. . ... ... ... : ... .. . ... ... ... : ... .. . ... ... ...
ROW D7 : ... .. . ... ... ... : ... .. . ... ... ... : ... .. . ... ... ... : ... .. . ... ... ... : ... .. . ... ... ...
ROW D8 : ... .. . ... ... ... : ... .. . ... ... ... : ... .. . ... ... ... : ... .. . ... ... ... : ... .. . ... ... ...
ROW D9 : C#4 03 . ... ... ... : A-1 05 . ... ... ... : ... .. . ... ... ... : ... .. . ... ... ... : ... .. . ... ... ...
ROW DA : ... .. . ... ... ... : ... .. . ... ... ... : ... .. . ... ... ... : ... .. . ... ... ... : ... .. . ... ... ...
ROW DB : ... .. . ... ... ... : ... .. . ... ... ... : ... .. . ... ... ... : ... .. . ... ... ... : ... .. . ... ... ...
ROW DC : ... .. . ... ... ... : ... .. . ... ... ... : ... .. . ... ... ... : ... .. . ... ... ... : ... .. . ... ... ...
ROW DD : ... .. . ... ... ... : ... .. . ... ... ... : ... .. . ... ... ... : ... .. . ... ... ... : ... .. . ... ... ...
ROW DE : ... .. . ... ... ... : ... .. . ... ... ... : ... .. . ... ... ... : ... .. . ... ... ... : ... .. . ... ... ...
ROW DF : ... .. . ... ... ... : --- .. . ... ... ... : --- .. . ... ... ... : ... .. . ... ... ... : --- .. . ... ... ...

PATTERN 04
ROW 00 : B-3 04 . ... ... ... : B-3 04 . ... ... ... : B-4 05 . ... ... ... : ... .. . ... ... ... : B-3 06 . ... ... ...
ROW 01 : ... .. . ... ... ... : ... .. . ... ... ... : ... .. . ... ... ... : ... .. . ... ... ... : ... .. . ... ... ...
ROW 02 : ... .. . ... ... ... : ... .. . ... ... ... : ... .. . ... ... ... : ... .. . ... ... ... : ... .. . ... ... ...
ROW 03 : ... .. . ... ... ... : ... .. . ... ... ... : ... .. . ... ... ... : ... .. . ... ... ... : ... .. . ... ... ...
ROW 04 : ... .. . ... ... ... : ... .. . ... ... ... : ... .. . ... ... ... : ... .. . ... ... ... : ... .. . ... ... ...
ROW 05 : ... .. . ... ... ... : ... .. . ... ... ... : ... .. . ... ... ... : ... .. . ... ... ... : ... .. . ... ... ...
ROW 06 : ... .. . ... ... ... : ... .. . ... ... ... : ... .. . ... ... ... : ... .. . ... ... ... : ... .. . ... ... ...
ROW 07 : ... .. . ... ... ... : ... .. . ... ... ... : ... .. . ... ... ... : ... .. . ... ... ... : ... .. . ... ... ...
ROW 08 : ... .. . ... ... ... : ... .. . ... ... ... : ... .. . ... ... ... : ... .. . ... ... ... : ... .. . ... ... ...
ROW 09 : ... .. . ... ... ... : ... .. . ... ... ... : ... .. . ... ... ... : ... .. . ... ... ... : ... .. . ... ... ...
ROW 0A : ... .. . ... ... ... : ... .. . ... ... ... : ... .. . ... ... ... : ... .. . ... ... ... : ... .. . ... ... ...
ROW 0B : ... .. . ... ... ... : ... .. . ... ... ... : ... .. . ... ... ... : ... .. . ... ... ... : ... .. . ... ... ...
ROW 0C : ... .. . ... ... ... : ... .. . ... ... ... : ... .. . ... ... ... : ... .. . ... ... ... : ... .. . ... ... ...
ROW 0D : ... .. . ... ... ... : ... .. . ... ... ... : ... .. . ... ... ... : ... .. . ... ... ... : --- .. . ... ... ...
ROW 0E : ... .. . ... ... ... : ... .. . ... ... ... : ... .. . ... ... ... : ... .. . ... ... ... : C-4 06 . ... ... ...
ROW 0F : ... .. . ... ... ... : ... .. . ... ... ... : ... .. . ... ... ... : ... .. . ... ... ... : ... .. . ... ... ...
ROW 10 : ... .. . ... ... ... : ... .. . ... ... ... : ... .. . ... ... ... : ... .. . ... ... ... : ... .. . ... ... ...
ROW 11 : ... .. . ... ... ... : ... .. . ... ... ... : ... .. . ... ... ... : ... .. . ... ... ... : ... .. . ... ... ...
ROW 12 : ... .. . ... ... ... : ... .. . ... ... ... : ... .. . ... ... ... : ... .. . ... ... ... : ... .. . ... ... ...
ROW 13 : ... .. . ... ... ... : ... .. . ... ... ... : ... .. . ... ... ... : ... .. . ... ... ... : ... .. . ... ... ...
ROW 14 : ... .. . ... ... ... : ... .. . ... ... ... : ... .. . ... ... ... : ... .. . ... ... ... : ... .. . ... ... ...
ROW 15 : ... .. . ... ... ... : ... .. . ... ... ... : ... .. . ... ... ... : ... .. . ... ... ... : D-4 06 . ... ... ...
ROW 16 : ... .. . ... ... ... : ... .. . ... ... ... : ... .. . ... ... ... : ... .. . ... ... ... : ... .. . ... ... ...
ROW 17 : ... .. . ... ... ... : ... .. . ... ... ... : ... .. . ... ... ... : ... .. . ... ... ... : ... .. . ... ... ...
ROW 18 : ... .. . ... ... ... : ... .. . ... ... ... : ... .. . ... ... ... : ... .. . ... ... ... : ... .. . ... ... ...
ROW 19 : ... .. . ... ... ... : ... .. . ... ... ... : ... .. . ... ... ... : ... .. . ... ... ... : ... .. . ... ... ...
ROW 1A : ... .. . ... ... ... : ... .. . ... ... ... : ... .. . ... ... ... : ... .. . ... ... ... : ... .. . ... ... ...
ROW 1B : ... .. . ... ... ... : ... .. . ... ... ... : ... .. . ... ... ... : ... .. . ... ... ... : ... .. . ... ... ...
ROW 1C : ... .. . ... ... ... : ... .. . ... ... ... : ... .. . ... ... ... : ... .. . ... ... ... : C-4 06 . ... ... ...
ROW 1D : ... .. . ... ... ... : ... .. . ... ... ... : ... .. . ... ... ... : ... .. . ... ... ... : ... .. . ... ... ...
ROW 1E : ... .. . ... ... ... : ... .. . ... ... ... : ... .. . ... ... ... : ... .. . ... ... ... : ... .. . ... ... ...
ROW 1F : ... .. . ... ... ... : ... .. . ... ... ... : ... .. . ... ... ... : ... .. . ... ... ... : ... .. . ... ... ...
ROW 20 : ... .. . ... ... ... : ... .. . ... ... ... : ... .. . ... ... ... : ... .. . ... ... ... : ... .. . ... ... ...
ROW 21 : ... .. . ... ... ... : ... .. . ... ... ... : ... .. . ... ... ... : ... .. . ... ... ... : ... .. . ... ... ...
ROW 22 : ... .. . ... ... ... : ... .. . ... ... ... : ... .. . ... ... ... : ... .. . ... ... ... : ... .. . ... ... ...
ROW 23 : ... .. . ... ... ... : ... .. . ... ... ... : ... .. . ... ... ... : ... .. . ... ... ... : ... .. . ... ... ...
ROW 24 : ... .. . ... ... ... : ... .. . ... ... ... : ... .. . ... ... ... : ... .. . ... ... ... : ... .. . ... ... ...
ROW 25 : ... .. . ... ... ... : ... .. . ... ... ... : ... .. . ... ... ... : ... .. . ... ... ... : ... .. . ... ... ...
ROW 26 : ... .. . ... ... ... : ... .. . ... ... ... : ... .. . ... ... ... : ... .. . ... ... ... : ... .. . ... ... ...
ROW 27 : ... .. . ... ... ... : ... .. . ... ... ... : ... .. . ... ... ... : ... .. . ... ... ... : ... .. . ... ... ...
ROW 28 : ... .. . ... ... ... : ... .. . ... ... ... : ... .. . ... ... ... : ... .. . ... ... ... : ... .. . ... ... ...
ROW 29 : ... .. . ... ... ... : ... .. . ... ... ... : ... .. . ... ... ... : ... .. . ... ... ... : ... .. . ... ... ...
ROW 2A : ... .. . ... ... ... : ... .. . ... ... ... : ... .. . ... ... ... : ... .. . ... ... ... : D-4 06 . ... ... ...
ROW 2B : ... .. . ... ... ... : ... .. . ... ... ... : ... .. . ... ... ... : ... .. . ... ... ... : ... .. . ... ... ...
ROW 2C : ... .. . ... ... ... : ... .. . ... ... ... : ... .. . ... ... ... : ... .. . ... ... ... : ... .. . ... ... ...
ROW 2D : ... .. . ... ... ... : ... .. . ... ... ... : ... .. . ... ... ... : ... .. . ... ... ... : ... .. . ... ... ...
ROW 2E : ... .. . ... ... ... : ... .. . ... ... ... : ... .. . ... ... ... : ... .. . ... ... ... : ... .. . ... ... ...
ROW 2F : ... .. . ... ... ... : ... .. . ... ... ... : ... .. . ... ... ... : ... .. . ... ... ... : ... .. . ... ... ...
ROW 30 : ... .. . ... ... ... : ... .. . ... ... ... : ... .. . ... ... ... : ... .. . ... ... ... : ... .. . ... ... ...
ROW 31 : ... .. . ... ... ... : ... .. . ... ... ... : ... .. . ... ... ... : ... .. . ... ... ... : D-4 06 . ... ... ...
ROW 32 : ... .. . ... ... ... : ... .. . ... ... ... : ... .. . ... ... ... : ... .. . ... ... ... : ... .. . ... ... ...
ROW 33 : ... .. . ... ... ... : ... .. . ... ... ... : ... .. . ... ... ... : ... .. . ... ... ... : ... .. . ... ... ...
ROW 34 : ... .. . ... ... ... : ... .. . ... ... ... : ... .. . ... ... ... : ... .. . ... ... ... : ... .. . ... ... ...
ROW 35 : ... .. . ... ... ... : ... .. . ... ... ... : ... .. . ... ... ... : ... .. . ... ... ... : ... .. . ... ... ...
ROW 36 : ... .. . ... ... ... : ... .. . ... ... ... : ... .. . ... ... ... : ... .. . ... ... ... : ... .. . ... ... ...
ROW 37 : ... .. . ... ... ... : ... .. . ... ... ... : ... .. . ... ... ... : ... .. . ... ... ... : ... .. . ... ... ...
ROW 38 : ... .. . ... ... ... : ... .. . ... ... ... : ... .. . ... ... ... : ... .. . ... ... ... : B-3 06 . ... ... ...
ROW 39 : ... .. . ... ... ... : ... .. . ... ... ... : ... .. . ... ... ... : ... .. . ... ... ... : ... .. . ... ... ...
ROW 3A : ... .. . ... ... ... : ... .. . ... ... ... : ... .. . ... ... ... : ... .. . ... ... ... : ... .. . ... ... ...
ROW 3B : ... .. . ... ... ... : ... .. . ... ... ... : ... .. . ... ... ... : ... .. . ... ... ... : ... .. . ... ... ...
ROW 3C : ... .. . ... ... ... : ... .. . ... ... ... : ... .. . ... ... ... : ... .. . ... ... ... : ... .. . ... ... ...
ROW 3D : ... .. . ... ... ... : ... .. . ... ... ... : ... .. . ... ... ... : ... .. . ... ... ... : ... .. . ... ... ...
ROW 3E : ... .. . ... ... ... : ... .. . ... ... ... : ... .. . ... ... ... : ... .. . ... ... ... : ... .. . ... ... ...
ROW 3F : ... .. . ... ... ... : ... .. . ... ... ... : ... .. . ... ... ... : ... .. . ... ... ... : ... .. . ... ... ...
ROW 40 : ... .. . ... ... ... : ... .. . ... ... ... : ... .. . ... ... ... : ... .. . ... ... ... : ... .. . ... ... ...
ROW 41 : ... .. . ... ... ... : ... .. . ... ... ... : ... .. . ... ... ... : ... .. . ... ... ... : ... .. . ... ... ...
ROW 42 : ... .. . ... ... ... : ... .. . ... ... ... : ... .. . ... ... ... : ... .. . ... ... ... : ... .. . ... ... ...
ROW 43 : ... .. . ... ... ... : ... .. . ... ... ... : ... .. . ... ... ... : ... .. . ... ... ... : ... .. . ... ... ...
ROW 44 : ... .. . ... ... ... : ... .. . ... ... ... : ... .. . ... ... ... : ... .. . ... ... ... : ... .. . ... ... ...
ROW 45 : ... .. . ... ... ... : ... .. . ... ... ... : ... .. . ... ... ... : ... .. . ... ... ... : ... .. . ... ... ...
ROW 46 : ... .. . ... ... ... : ... .. . ... ... ... : ... .. . ... ... ... : ... .. . ... ... ... : D-4 06 . ... ... ...
ROW 47 : ... .. . ... ... ... : ... .. . ... ... ... : ... .. . ... ... ... : ... .. . ... ... ... : ... .. . ... ... ...
ROW 48 : ... .. . ... ... ... : ... .. . ... ... ... : ... .. . ... ... ... : ... .. . ... ... ... : ... .. . ... ... ...
ROW 49 : ... .. . ... ... ... : ... .. . ... ... ... : ... .. . ... ... ... : ... .. . ... ... ... : ... .. . ... ... ...
ROW 4A : ... .. . ... ... ... : ... .. . ... ... ... : ... .. . ... ... ... : ... .. . ... ... ... : ... .. . ... ... ...
ROW 4B : ... .. . ... ... ... : ... .. . ... ... ... : ... .. . ... ... ... : ... .. . ... ... ... : ... .. . ... ... ...
ROW 4C : ... .. . ... ... ... : ... .. . ... ... ... : ... .. . ... ... ... : ... .. . ... ... ... : ... .. . ... ... ...
ROW 4D : ... .. . ... ... ... : ... .. . ... ... ... : ... .. . ... ... ... : ... .. . ... ... ... : D-4 06 . ... ... ...
ROW 4E : ... .. . ... ... ... : ... .. . ... ... ... : ... .. . ... ... ... : ... .. . ... ... ... : ... .. . ... ... ...
ROW 4F : ... .. . ... ... ... : ... .. . ... ... ... : ... .. . ... ... ... : ... .. . ... ... ... : ... .. . ... ... ...
ROW 50 : ... .. . ... ... ... : ... .. . ... ... ... : ... .. . ... ... ... : ... .. . ... ... ... : ... .. . ... ... ...
ROW 51 : ... .. . ... ... ... : ... .. . ... ... ... : ... .. . ... ... ... : ... .. . ... ... ... : ... .. . ... ... ...
ROW 52 : ... .. . ... ... ... : ... .. . ... ... ... : ... .. . ... ... ... : ... .. . ... ... ... : ... .. . ... ... ...
ROW 53 : ... .. . ... ... ... : ... .. . ... ... ... : ... .. . ... ... ... : ... .. . ... ... ... : ... .. . ... ... ...
ROW 54 : ... .. . ... ... ... : ... .. . ... ... ... : ... .. . ... ... ... : ... .. . ... ... ... : C-4 06 . ... ... ...
ROW 55 : ... .. . ... ... ... : ... .. . ... ... ... : ... .. . ... ... ... : ... .. . ... ... ... : ... .. . ... ... ...
ROW 56 : ... .. . ... ... ... : ... .. . ... ... ... : ... .. . ... ... ... : ... .. . ... ... ... : ... .. . ... ... ...
ROW 57 : ... .. . ... ... ... : ... .. . ... ... ... : ... .. . ... ... ... : ... .. . ... ... ... : ... .. . ... ... ...
ROW 58 : ... .. . ... ... ... : ... .. . ... ... ... : ... .. . ... ... ... : ... .. . ... ... ... : ... .. . ... ... ...
ROW 59 : ... .. . ... ... ... : ... .. . ... ... ... : ... .. . ... ... ... : ... .. . ... ... ... : ... .. . ... ... ...
ROW 5A : ... .. . ... ... ... : ... .. . ... ... ... : ... .. . ... ... ... : ... .. . ... ... ... : ... .. . ... ... ...
ROW 5B : ... .. . ... ... ... : ... .. . ... ... ... : ... .. . ... ... ... : ... .. . ... ... ... : ... .. . ... ... ...
ROW 5C : ... .. . ... ... ... : ... .. . ... ... ... : ... .. . ... ... ... : ... .. . ... ... ... : ... .. . ... ... ...
ROW 5D : ... .. . ... ... ... : ... .. . ... ... ... : ... .. . ... ... ... : ... .. . ... ... ... : ... .. . ... ... ...
ROW 5E : ... .. . ... ... ... : ... .. . ... ... ... : ... .. . ... ... ... : ... .. . ... ... ... : ... .. . ... ... ...
ROW 5F : ... .. . ... ... ... : ... .. . ... ... ... : ... .. . ... ... ... : ... .. . ... ... ... : ... .. . ... ... ...
ROW 60 : ... .. . ... ... ... : ... .. . ... ... ... : ... .. . ... ... ... : ... .. . ... ... ... : ... .. . ... ... ...
ROW 61 : ... .. . ... ... ... : ... .. . ... ... ... : ... .. . ... ... ... : ... .. . ... ... ... : ... .. . ... ... ...
ROW 62 : ... .. . ... ... ... : ... .. . ... ... ... : ... .. . R12 ... ... : ... .. . ... ... ... : C-4 06 . ... ... ...
ROW 63 : ... .. . ... ... ... : ... .. . ... ... ... : ... .. . ... ... ... : ... .. . ... ... ... : ... .. . ... ... ...
ROW 64 : ... .. . ... ... ... : ... .. . ... ... ... : ... .. . ... ... ... : ... .. . ... ... ... : ... .. . ... ... ...
ROW 65 : ... .. . ... ... ... : ... .. . ... ... ... : ... .. . ... ... ... : ... .. . ... ... ... : ... .. . ... ... ...
ROW 66 : ... .. . ... ... ... : ... .. . ... ... ... : ... .. . ... ... ... : ... .. . ... ... ... : ... .. . ... ... ...
ROW 67 : ... .. . ... ... ... : ... .. . ... ... ... : ... .. . ... ... ... : ... .. . ... ... ... : ... .. . ... ... ...
ROW 68 : ... .. . ... ... ... : ... .. . ... ... ... : ... .. . ... ... ... : ... .. . ... ... ... : ... .. . ... ... ...
ROW 69 : ... .. . ... ... ... : ... .. . ... ... ... : ... .. . ... ... ... : ... .. . ... ... ... : ... .. . ... ... ...
ROW 6A : ... .. . ... ... ... : ... .. . ... ... ... : ... .. . ... ... ... : ... .. . ... ... ... : ... .. . ... ... ...
ROW 6B : ... .. . ... ... ... : ... .. . ... ... ... : ... .. . ... ... ... : ... .. . ... ... ... : ... .. . ... ... ...
ROW 6C : ... .. . ... ... ... : ... .. . ... ... ... : ... .. . ... ... ... : ... .. . ... ... ... : ... .. . ... ... ...
ROW 6D : ... .. . ... ... ... : ... .. . ... ... ... : ... .. . ... ... ... : ... .. . ... ... ... : ... .. . ... ... ...
ROW 6E : ... .. . ... ... ... : ... .. . ... ... ... : ... .. . ... ... ... : ... .. . ... ... ... : ... .. . ... ... ...
ROW 6F : ... .. . ... ... ... : ... .. . ... ... ... : A-4 05 . ... ... ... : ... .. . ... ... ... : ... .. . ... ... ...
ROW 70 : ... .. . ... ... ... : A-3 04 . ... ... ... : ... .. . ... ... ... : ... .. . ... ... ... : B-3 06 . ... ... ...
ROW 71 : A-3 04 . ... ... ... : ... .. . ... ... ... : ... .. . ... ... ... : ... .. . ... ... ... : ... .. . ... ... ...
ROW 72 : ... .. . ... ... ... : ... .. . ... ... ... : ... .. . ... ... ... : ... .. . ... ... ... : ... .. . ... ... ...
ROW 73 : ... .. . ... ... ... : ... .. . ... ... ... : ... .. . ... ... ... : ... .. . ... ... ... : ... .. . ... ... ...
ROW 74 : ... .. . ... ... ... : ... .. . ... ... ... : ... .. . ... ... ... : ... .. . ... ... ... : ... .. . ... ... ...
ROW 75 : ... .. . ... ... ... : ... .. . ... ... ... : ... .. . ... ... ... : ... .. . ... ... ... : ... .. . ... ... ...
ROW 76 : ... .. . ... ... ... : ... .. . ... ... ... : ... .. . ... ... ... : ... .. . ... ... ... : ... .. . ... ... ...
ROW 77 : ... .. . ... ... ... : ... .. . ... ... ... : ... .. . ... ... ... : ... .. . ... ... ... : ... .. . ... ... ...
ROW 78 : ... .. . ... ... ... : ... .. . ... ... ... : ... .. . ... ... ... : ... .. . ... ... ... : ... .. . ... ... ...
ROW 79 : ... .. . ... ... ... : ... .. . ... ... ... : ... .. . ... ... ... : ... .. . ... ... ... : ... .. . ... ... ...
ROW 7A : ... .. . ... ... ... : ... .. . ... ... ... : ... .. . ... ... ... : ... .. . ... ... ... : ... .. . ... ... ...
ROW 7B : ... .. . ... ... ... : ... .. . ... ... ... : ... .. . ... ... ... : ... .. . ... ... ... : ... .. . ... ... ...
ROW 7C : ... .. . ... ... ... : ... .. . ... ... ... : ... .. . ... ... ... : ... .. . ... ... ... : ... .. . ... ... ...
ROW 7D : ... .. . ... ... ... : ... .. . ... ... ... : ... .. . ... ... ... : ... .. . ... ... ... : ... .. . ... ... ...
ROW 7E : ... .. . ... ... ... : ... .. . ... ... ... : ... .. . ... ... ... : ... .. . ... ... ... : C-4 06 . ... ... ...
ROW 7F : ... .. . ... ... ... : ... .. . ... ... ... : ... .. . ... ... ... : ... .. . ... ... ... : ... .. . ... ... ...
ROW 80 : ... .. . ... ... ... : ... .. . ... ... ... : ... .. . ... ... ... : ... .. . ... ... ... : ... .. . ... ... ...
ROW 81 : ... .. . ... ... ... : ... .. . ... ... ... : ... .. . ... ... ... : ... .. . ... ... ... : ... .. . ... ... ...
ROW 82 : ... .. . ... ... ... : ... .. . ... ... ... : ... .. . ... ... ... : ... .. . ... ... ... : ... .. . ... ... ...
ROW 83 : ... .. . ... ... ... : ... .. . ... ... ... : ... .. . ... ... ... : ... .. . ... ... ... : ... .. . ... ... ...
ROW 84 : ... .. . ... ... ... : ... .. . ... ... ... : ... .. . ... ... ... : ... .. . ... ... ... : ... .. . ... ... ...
ROW 85 : ... .. . ... ... ... : ... .. . ... ... ... : ... .. . ... ... ... : ... .. . ... ... ... : D-4 06 . ... ... ...
ROW 86 : ... .. . ... ... ... : ... .. . ... ... ... : ... .. . ... ... ... : ... .. . ... ... ... : ... .. . ... ... ...
ROW 87 : ... .. . ... ... ... : ... .. . ... ... ... : ... .. . ... ... ... : ... .. . ... ... ... : ... .. . ... ... ...
ROW 88 : ... .. . ... ... ... : ... .. . ... ... ... : ... .. . ... ... ... : ... .. . ... ... ... : ... .. . ... ... ...
ROW 89 : ... .. . ... ... ... : ... .. . ... ... ... : ... .. . ... ... ... : ... .. . ... ... ... : ... .. . ... ... ...
ROW 8A : ... .. . ... ... ... : ... .. . ... ... ... : ... .. . ... ... ... : ... .. . ... ... ... : ... .. . ... ... ...
ROW 8B : ... .. . ... ... ... : ... .. . ... ... ... : ... .. . ... ... ... : ... .. . ... ... ... : ... .. . ... ... ...
ROW 8C : ... .. . ... ... ... : ... .. . ... ... ... : ... .. . ... ... ... : ... .. . ... ... ... : C-4 06 . ... ... ...
ROW 8D : ... .. . ... ... ... : ... .. . ... ... ... : ... .. . ... ... ... : ... .. . ... ... ... : ... .. . ... ... ...
ROW 8E : ... .. . ... ... ... : ... .. . ... ... ... : ... .. . ... ... ... : ... .. . ... ... ... : ... .. . ... ... ...
ROW 8F : ... .. . ... ... ... : ... .. . ... ... ... : ... .. . ... ... ... : ... .. . ... ... ... : ... .. . ... ... ...
ROW 90 : ... .. . ... ... ... : ... .. . ... ... ... : ... .. . ... ... ... : ... .. . ... ... ... : ... .. . ... ... ...
ROW 91 : ... .. . ... ... ... : ... .. . ... ... ... : ... .. . ... ... ... : ... .. . ... ... ... : ... .. . ... ... ...
ROW 92 : ... .. . ... ... ... : ... .. . ... ... ... : ... .. . ... ... ... : ... .. . ... ... ... : ... .. . ... ... ...
ROW 93 : ... .. . ... ... ... : ... .. . ... ... ... : ... .. . ... ... ... : ... .. . ... ... ... : ... .. . ... ... ...
ROW 94 : ... .. . ... ... ... : ... .. . ... ... ... : ... .. . ... ... ... : ... .. . ... ... ... : ... .. . ... ... ...
ROW 95 : ... .. . ... ... ... : ... .. . ... ... ... : ... .. . ... ... ... : ... .. . ... ... ... : ... .. . ... ... ...
ROW 96 : ... .. . ... ... ... : ... .. . ... ... ... : ... .. . ... ... ... : ... .. . ... ... ... : ... .. . ... ... ...
ROW 97 : ... .. . ... ... ... : ... .. . ... ... ... : ... .. . ... ... ... : ... .. . ... ... ... : ... .. . ... ... ...
ROW 98 : ... .. . ... ... ... : ... .. . ... ... ... : ... .. . ... ... ... : ... .. . ... ... ... : ... .. . ... ... ...
ROW 99 : ... .. . ... ... ... : ... .. . ... ... ... : ... .. . ... ... ... : ... .. . ... ... ... : ... .. . ... ... ...
ROW 9A : E-3 04 . ... ... ... : E-3 04 . ... ... ... : E-4 05 . ... ... ... : ... .. . ... ... ... : D-4 06 . ... ... ...
ROW 9B : ... .. . ... ... ... : ... .. . ... ... ... : ... .. . ... ... ... : ... .. . ... ... ... : ... .. . ... ... ...
ROW 9C : ... .. . ... ... ... : ... .. . ... ... ... : ... .. . ... ... ... : ... .. . ... ... ... : ... .. . ... ... ...
ROW 9D : ... .. . ... ... ... : ... .. . ... ... ... : ... .. . ... ... ... : ... .. . ... ... ... : ... .. . ... ... ...
ROW 9E : ... .. . ... ... ... : ... .. . ... ... ... : ... .. . ... ... ... : ... .. . ... ... ... : ... .. . ... ... ...
ROW 9F : ... .. . ... ... ... : ... .. . ... ... ... : ... .. . ... ... ... : ... .. . ... ... ... : ... .. . ... ... ...
ROW A0 : ... .. . ... ... ... : ... .. . ... ... ... : ... .. . ... ... ... : ... .. . ... ... ... : ... .. . ... ... ...
ROW A1 : ... .. . ... ... ... : ... .. . ... ... ... : ... .. . ... ... ... : ... .. . ... ... ... : D-4 06 . ... ... ...
ROW A2 : ... .. . ... ... ... : ... .. . ... ... ... : ... .. . ... ... ... : ... .. . ... ... ... : ... .. . ... ... ...
ROW A3 : ... .. . ... ... ... : ... .. . ... ... ... : ... .. . ... ... ... : ... .. . ... ... ... : ... .. . ... ... ...
ROW A4 : ... .. . ... ... ... : ... .. . ... ... ... : ... .. . ... ... ... : ... .. . ... ... ... : ... .. . ... ... ...
ROW A5 : ... .. . ... ... ... : ... .. . ... ... ... : ... .. . ... ... ... : ... .. . ... ... ... : ... .. . ... ... ...
ROW A6 : ... .. . ... ... ... : ... .. . ... ... ... : ... .. . ... ... ... : ... .. . ... ... ... : ... .. . ... ... ...
ROW A7 : ... .. . ... ... ... : ... .. . ... ... ... : ... .. . ... ... ... : ... .. . ... ... ... : ... .. . ... ... ...
ROW A8 : ... .. . ... ... ... : ... .. . ... ... ... : ... .. . ... ... ... : ... .. . ... ... ... : B-3 06 . ... ... ...
ROW A9 : ... .. . ... ... ... : ... .. . ... ... ... : ... .. . ... ... ... : ... .. . ... ... ... : ... .. . ... ... ...
ROW AA : ... .. . ... ... ... : ... .. . ... ... ... : ... .. . ... ... ... : ... .. . ... ... ... : ... .. . ... ... ...
ROW AB : ... .. . ... ... ... : ... .. . ... ... ... : ... .. . ... ... ... : ... .. . ... ... ... : ... .. . ... ... ...
ROW AC : ... .. . ... ... ... : ... .. . ... ... ... : ... .. . ... ... ... : ... .. . ... ... ... : ... .. . ... ... ...
ROW AD : ... .. . ... ... ... : ... .. . ... ... ... : ... .. . ... ... ... : ... .. . ... ... ... : ... .. . ... ... ...
ROW AE : ... .. . ... ... ... : ... .. . ... ... ... : ... .. . ... ... ... : ... .. . ... ... ... : ... .. . ... ... ...
ROW AF : ... .. . ... ... ... : ... .. . ... ... ... : ... .. . ... ... ... : ... .. . ... ... ... : ... .. . ... ... ...
ROW B0 : ... .. . ... ... ... : ... .. . ... ... ... : ... .. . ... ... ... : ... .. . ... ... ... : ... .. . ... ... ...
ROW B1 : ... .. . ... ... ... : ... .. . ... ... ... : ... .. . ... ... ... : ... .. . ... ... ... : ... .. . ... ... ...
ROW B2 : ... .. . ... ... ... : ... .. . ... ... ... : ... .. . ... ... ... : ... .. . ... ... ... : ... .. . ... ... ...
ROW B3 : ... .. . ... ... ... : ... .. . ... ... ... : ... .. . ... ... ... : ... .. . ... ... ... : ... .. . ... ... ...
ROW B4 : ... .. . ... ... ... : ... .. . ... ... ... : ... .. . ... ... ... : ... .. . ... ... ... : ... .. . ... ... ...
ROW B5 : ... .. . ... ... ... : ... .. . ... ... ... : ... .. . ... ... ... : ... .. . ... ... ... : ... .. . ... ... ...
ROW B6 : ... .. . ... ... ... : ... .. . ... ... ... : ... .. . ... ... ... : ... .. . ... ... ... : D-4 06 . ... ... ...
ROW B7 : ... .. . ... ... ... : ... .. . ... ... ... : ... .. . ... ... ... : ... .. . ... ... ... : ... .. . ... ... ...
ROW B8 : ... .. . ... ... ... : ... .. . ... ... ... : ... .. . ... ... ... : ... .. . ... ... ... : ... .. . ... ... ...
ROW B9 : ... .. . ... ... ... : ... .. . ... ... ... : ... .. . ... ... ... : ... .. . ... ... ... : ... .. . ... ... ...
ROW BA : ... .. . ... ... ... : ... .. . ... ... ... : ... .. . ... ... ... : ... .. . ... ... ... : ... .. . ... ... ...
ROW BB : ... .. . ... ... ... : ... .. . ... ... ... : ... .. . ... ... ... : ... .. . ... ... ... : ... .. . ... ... ...
ROW BC : ... .. . ... ... ... : ... .. . ... ... ... : ... .. . ... ... ... : ... .. . ... ... ... : ... .. . ... ... ...
ROW BD : ... .. . ... ... ... : ... .. . ... ... ... : ... .. . ... ... ... : ... .. . ... ... ... : D-4 06 . ... ... ...
ROW BE : ... .. . ... ... ... : ... .. . ... ... ... : ... .. . ... ... ... : ... .. . ... ... ... : ... .. . ... ... ...
ROW BF : ... .. . ... ... ... : ... .. . ... ... ... : ... .. . ... ... ... : ... .. . ... ... ... : ... .. . ... ... ...
ROW C0 : ... .. . ... ... ... : ... .. . ... ... ... : ... .. . ... ... ... : ... .. . ... ... ... : ... .. . ... ... ...
ROW C1 : ... .. . ... ... ... : ... .. . ... ... ... : ... .. . ... ... ... : ... .. . ... ... ... : ... .. . ... ... ...
ROW C2 : ... .. . ... ... ... : ... .. . ... ... ... : ... .. . ... ... ... : ... .. . ... ... ... : ... .. . ... ... ...
ROW C3 : ... .. . ... ... ... : ... .. . ... ... ... : ... .. . ... ... ... : ... .. . ... ... ... : ... .. . ... ... ...
ROW C4 : C#3 04 . ... ... ... : C#3 04 . ... ... ... : C#4 05 . ... ... ... : ... .. . ... ... ... : C-4 06 . ... ... ...
ROW C5 : ... .. . ... ... ... : ... .. . ... ... ... : ... .. . ... ... ... : ... .. . ... ... ... : ... .. . ... ... ...
ROW C6 : ... .. . ... ... ... : ... .. . ... ... ... : ... .. . ... ... ... : ... .. . ... ... ... : ... .. . ... ... ...
ROW C7 : ... .. . ... ... ... : ... .. . ... ... ... : ... .. . ... ... ... : ... .. . ... ... ... : ... .. . ... ... ...
ROW C8 : ... .. . ... ... ... : ... .. . ... ... ... : ... .. . ... ... ... : ... .. . ... ... ... : ... .. . ... ... ...
ROW C9 : ... .. . ... ... ... : ... .. . ... ... ... : ... .. . ... ... ... : ... .. . ... ... ... : ... .. . ... ... ...
ROW CA : ... .. . ... ... ... : ... .. . ... ... ... : ... .. . ... ... ... : ... .. . ... ... ... : ... .. . ... ... ...
ROW CB : ... .. . ... ... ... : ... .. . ... ... ... : ... .. . ... ... ... : ... .. . ... ... ... : C-4 06 . ... ... ...
ROW CC : ... .. . ... ... ... : ... .. . ... ... ... : ... .. . ... ... ... : ... .. . ... ... ... : ... .. . ... ... ...
ROW CD : ... .. . ... ... ... : ... .. . ... ... ... : ... .. . ... ... ... : ... .. . ... ... ... : ... .. . ... ... ...
ROW CE : ... .. . ... ... ... : ... .. . ... ... ... : ... .. . ... ... ... : ... .. . ... ... ... : ... .. . ... ... ...
ROW CF : ... .. . ... ... ... : ... .. . ... ... ... : ... .. . ... ... ... : ... .. . ... ... ... : ... .. . ... ... ...
ROW D0 : ... .. . ... ... ... : ... .. . ... ... ... : ... .. . ... ... ... : ... .. . ... ... ... : ... .. . ... ... ...
ROW D1 : ... .. . ... ... ... : ... .. . ... ... ... : ... .. . ... ... ... : ... .. . ... ... ... : ... .. . ... ... ...
ROW D2 : ... .. . ... ... ... : ... .. . ... ... ... : ... .. . ... ... ... : ... .. . ... ... ... : C-4 06 . ... ... ...
ROW D3 : ... .. . ... ... ... : ... .. . ... ... ... : ... .. . ... ... ... : ... .. . ... ... ... : ... .. . ... ... ...
ROW D4 : ... .. . ... ... ... : ... .. . ... ... ... : ... .. . ... ... ... : ... .. . ... ... ... : ... .. . ... ... ...
ROW D5 : ... .. . ... ... ... : ... .. . ... ... ... : ... .. . ... ... ... : ... .. . ... ... ... : ... .. . ... ... ...
ROW D6 : ... .. . ... ... ... : ... .. . ... ... ... : ... .. . ... ... ... : ... .. . ... ... ... : ... .. . ... ... ...
ROW D7 : ... .. . ... ... ... : ... .. . ... ... ... : ... .. . ... ... ... : ... .. . ... ... ... : ... .. . ... ... ...
ROW D8 : ... .. . ... ... ... : ... .. . ... ... ... : ... .. . ... ... ... : ... .. . ... ... ... : ... .. . ... ... ...
ROW D9 : ... .. . ... ... ... : ... .. . ... ... ... : ... .. . ... ... ... : ... .. . ... ... ... : C-4 06 . ... ... ...
ROW DA : ... .. . ... ... ... : ... .. . ... ... ... : ... .. . ... ... ... : ... .. . ... ... ... : ... .. . ... ... ...
ROW DB : ... .. . ... ... ... : ... .. . ... ... ... : ... .. . ... ... ... : ... .. . ... ... ... : ... .. . ... ... ...
ROW DC : ... .. . ... ... ... : ... .. . ... ... ... : ... .. . ... ... ... : ... .. . ... ... ... : ... .. . ... ... ...
ROW DD : ... .. . ... ... ... : ... .. . ... ... ... : ... .. . ... ... ... : ... .. . ... ... ... : ... .. . ... ... ...
ROW DE : ... .. . ... ... ... : ... .. . ... ... ... : ... .. . ... ... ... : ... .. . ... ... ... : ... .. . ... ... ...
ROW DF : ... .. . ... ... ... : ... .. . ... ... ... : ... .. . ... ... ... : ... .. . ... ... ... : --- .. . ... ... ...

PATTERN 05
ROW 00 : B-2 04 . ... ... ... : B-2 04 . ... ... ... : B-3 05 . ... ... ... : ... .. . ... ... ... : B-3 06 . ... ... ...
ROW 01 : ... .. . ... ... ... : ... .. . ... ... ... : ... .. . ... ... ... : ... .. . ... ... ... : ... .. . ... ... ...
ROW 02 : ... .. . ... ... ... : ... .. . ... ... ... : ... .. . ... ... ... : ... .. . ... ... ... : ... .. . ... ... ...
ROW 03 : ... .. . ... ... ... : ... .. . ... ... ... : ... .. . ... ... ... : ... .. . ... ... ... : ... .. . ... ... ...
ROW 04 : ... .. . ... ... ... : ... .. . ... ... ... : ... .. . ... ... ... : ... .. . ... ... ... : ... .. . ... ... ...
ROW 05 : ... .. . ... ... ... : ... .. . ... ... ... : ... .. . ... ... ... : ... .. . ... ... ... : ... .. . ... ... ...
ROW 06 : ... .. . ... ... ... : ... .. . ... ... ... : ... .. . ... ... ... : ... .. . ... ... ... : ... .. . ... ... ...
ROW 07 : ... .. . ... ... ... : ... .. . ... ... ... : ... .. . ... ... ... : ... .. . ... ... ... : ... .. . ... ... ...
ROW 08 : ... .. . ... ... ... : ... .. . ... ... ... : ... .. . ... ... ... : ... .. . ... ... ... : ... .. . ... ... ...
ROW 09 : ... .. . ... ... ... : ... .. . ... ... ... : ... .. . ... ... ... : ... .. . ... ... ... : ... .. . ... ... ...
ROW 0A : ... .. . ... ... ... : ... .. . ... ... ... : ... .. . ... ... ... : ... .. . ... ... ... : ... .. . ... ... ...
ROW 0B : ... .. . ... ... ... : ... .. . ... ... ... : ... .. . ... ... ... : ... .. . ... ... ... : ... .. . ... ... ...
ROW 0C : ... .. . ... ... ... : ... .. . ... ... ... : ... .. . ... ... ... : ... .. . ... ... ... : ... .. . ... ... ...
ROW 0D : ... .. . ... ... ... : ... .. . ... ... ... : ... .. . ... ... ... : ... .. . ... ... ... : ... .. . ... ... ...
ROW 0E : ... .. . ... ... ... : ... .. . ... ... ... : ... .. . ... ... ... : ... .. . ... ... ... : D-4 06 . ... ... ...
ROW 0F : ... .. . ... ... ... : ... .. . ... ... ... : ... .. . ... ... ... : ... .. . ... ... ... : ... .. . ... ... ...
ROW 10 : ... .. . ... ... ... : ... .. . ... ... ... : ... .. . ... ... ... : ... .. . ... ... ... : ... .. . ... ... ...
ROW 11 : ... .. . ... ... ... : ... .. . ... ... ... : ... .. . ... ... ... : ... .. . ... ... ... : ... .. . ... ... ...
ROW 12 : ... .. . ... ... ... : ... .. . ... ... ... : ... .. . ... ... ... : ... .. . ... ... ... : ... .. . ... ... ...
ROW 13 : ... .. . ... ... ... : ... .. . ... ... ... : ... .. . ... ... ... : ... .. . ... ... ... : ... .. . ... ... ...
ROW 14 : ... .. . ... ... ... : ... .. . ... ... ... : ... .. . ... ... ... : ... .. . ... ... ... : ... .. . ... ... ...
ROW 15 : ... .. . ... ... ... : ... .. . ... ... ... : ... .. . ... ... ... : ... .. . ... ... ... : ... .. . ... ... ...
ROW 16 : ... .. . ... ... ... : ... .. . ... ... ... : ... .. . ... ... ... : ... .. . ... ... ... : ... .. . ... ... ...
ROW 17 : ... .. . ... ... ... : ... .. . ... ... ... : ... .. . ... ... ... : ... .. . ... ... ... : ... .. . ... ... ...
ROW 18 : ... .. . ... ... ... : ... .. . ... ... ... : ... .. . ... ... ... : ... .. . ... ... ... : ... .. . ... ... ...
ROW 19 : ... .. . ... ... ... : ... .. . ... ... ... : ... .. . ... ... ... : ... .. . ... ... ... : ... .. . ... ... ...
ROW 1A : ... .. . ... ... ... : ... .. . ... ... ... : ... .. . ... ... ... : ... .. . ... ... ... : ... .. . ... ... ...
ROW 1B : ... .. . ... ... ... : ... .. . ... ... ... : ... .. . ... ... ... : ... .. . ... ... ... : ... .. . ... ... ...
ROW 1C : ... .. . ... ... ... : ... .. . ... ... ... : ... .. . ... ... ... : ... .. . ... ... ... : B-3 06 . ... ... ...
ROW 1D : ... .. . ... ... ... : ... .. . ... ... ... : ... .. . ... ... ... : ... .. . ... ... ... : ... .. . ... ... ...
ROW 1E : ... .. . ... ... ... : ... .. . ... ... ... : ... .. . ... ... ... : ... .. . ... ... ... : ... .. . ... ... ...
ROW 1F : ... .. . ... ... ... : ... .. . ... ... ... : ... .. . ... ... ... : ... .. . ... ... ... : ... .. . ... ... ...
ROW 20 : ... .. . ... ... ... : ... .. . ... ... ... : ... .. . ... ... ... : ... .. . ... ... ... : ... .. . ... ... ...
ROW 21 : ... .. . ... ... ... : ... .. . ... ... ... : ... .. . ... ... ... : ... .. . ... ... ... : ... .. . ... ... ...
ROW 22 : ... .. . ... ... ... : ... .. . ... ... ... : ... .. . ... ... ... : ... .. . ... ... ... : ... .. . ... ... ...
ROW 23 : ... .. . ... ... ... : ... .. . ... ... ... : ... .. . ... ... ... : ... .. . ... ... ... : ... .. . ... ... ...
ROW 24 : ... .. . ... ... ... : ... .. . ... ... ... : ... .. . ... ... ... : ... .. . ... ... ... : ... .. . ... ... ...
ROW 25 : ... .. . ... ... ... : ... .. . ... ... ... : ... .. . ... ... ... : ... .. . ... ... ... : ... .. . ... ... ...
ROW 26 : ... .. . ... ... ... : ... .. . ... ... ... : ... .. . ... ... ... : ... .. . ... ... ... : ... .. . ... ... ...
ROW 27 : ... .. . ... ... ... : ... .. . ... ... ... : ... .. . ... ... ... : ... .. . ... ... ... : ... .. . ... ... ...
ROW 28 : ... .. . ... ... ... : ... .. . ... ... ... : ... .. . ... ... ... : ... .. . ... ... ... : ... .. . ... ... ...
ROW 29 : ... .. . ... ... ... : ... .. . ... ... ... : ... .. . ... ... ... : ... .. . ... ... ... : ... .. . ... ... ...
ROW 2A : ... .. . ... ... ... : ... .. . ... ... ... : ... .. . ... ... ... : ... .. . ... ... ... : C-4 06 . ... ... ...
ROW 2B : ... .. . ... ... ... : ... .. . ... ... ... : ... .. . ... ... ... : ... .. . ... ... ... : ... .. . ... ... ...
ROW 2C : ... .. . ... ... ... : ... .. . ... ... ... : ... .. . ... ... ... : ... .. . ... ... ... : ... .. . ... ... ...
ROW 2D : ... .. . ... ... ... : ... .. . ... ... ... : ... .. . ... ... ... : ... .. . ... ... ... : ... .. . ... ... ...
ROW 2E : ... .. . ... ... ... : ... .. . ... ... ... : ... .. . ... ... ... : ... .. . ... ... ... : ... .. . ... ... ...
ROW 2F : ... .. . ... ... ... : ... .. . ... ... ... : ... .. . ... ... ... : ... .. . ... ... ... : ... .. . ... ... ...
ROW 30 : ... .. . ... ... ... : ... .. . ... ... ... : ... .. . ... ... ... : ... .. . ... ... ... : ... .. . ... ... ...
ROW 31 : ... .. . ... ... ... : ... .. . ... ... ... : ... .. . ... ... ... : ... .. . ... ... ... : C-4 06 . ... ... ...
ROW 32 : ... .. . ... ... ... : ... .. . ... ... ... : ... .. . ... ... ... : ... .. . ... ... ... : ... .. . ... ... ...
ROW 33 : ... .. . ... ... ... : ... .. . ... ... ... : ... .. . ... ... ... : ... .. . ... ... ... : ... .. . ... ... ...
ROW 34 : ... .. . ... ... ... : ... .. . ... ... ... : ... .. . ... ... ... : ... .. . ... ... ... : ... .. . ... ... ...
ROW 35 : ... .. . ... ... ... : ... .. . ... ... ... : ... .. . ... ... ... : ... .. . ... ... ... : ... .. . ... ... ...
ROW 36 : ... .. . ... ... ... : ... .. . ... ... ... : ... .. . ... ... ... : ... .. . ... ... ... : ... .. . ... ... ...
ROW 37 : ... .. . ... ... ... : ... .. . ... ... ... : ... .. . ... ... ... : ... .. . ... ... ... : ... .. . ... ... ...
ROW 38 : ... .. . ... ... ... : ... .. . ... ... ... : ... .. . ... ... ... : ... .. . ... ... ... : B-3 06 . ... ... ...
ROW 39 : ... .. . ... ... ... : ... .. . ... ... ... : ... .. . ... ... ... : ... .. . ... ... ... : ... .. . ... ... ...
ROW 3A : ... .. . ... ... ... : ... .. . ... ... ... : ... .. . ... ... ... : ... .. . ... ... ... : ... .. . ... ... ...
ROW 3B : ... .. . ... ... ... : ... .. . ... ... ... : ... .. . ... ... ... : ... .. . ... ... ... : ... .. . ... ... ...
ROW 3C : ... .. . ... ... ... : ... .. . ... ... ... : ... .. . ... ... ... : ... .. . ... ... ... : ... .. . ... ... ...
ROW 3D : ... .. . ... ... ... : ... .. . ... ... ... : ... .. . ... ... ... : ... .. . ... ... ... : ... .. . ... ... ...
ROW 3E : ... .. . ... ... ... : ... .. . ... ... ... : ... .. . ... ... ... : ... .. . ... ... ... : ... .. . ... ... ...
ROW 3F : ... .. . ... ... ... : ... .. . ... ... ... : ... .. . ... ... ... : ... .. . ... ... ... : ... .. . ... ... ...
ROW 40 : ... .. . ... ... ... : ... .. . ... ... ... : ... .. . ... ... ... : ... .. . ... ... ... : ... .. . ... ... ...
ROW 41 : ... .. . ... ... ... : ... .. . ... ... ... : ... .. . ... ... ... : ... .. . ... ... ... : ... .. . ... ... ...
ROW 42 : ... .. . ... ... ... : ... .. . ... ... ... : ... .. . ... ... ... : ... .. . ... ... ... : ... .. . ... ... ...
ROW 43 : ... .. . ... ... ... : ... .. . ... ... ... : ... .. . ... ... ... : ... .. . ... ... ... : ... .. . ... ... ...
ROW 44 : ... .. . ... ... ... : ... .. . ... ... ... : ... .. . ... ... ... : ... .. . ... ... ... : ... .. . ... ... ...
ROW 45 : ... .. . ... ... ... : ... .. . ... ... ... : ... .. . ... ... ... : ... .. . ... ... ... : ... .. . ... ... ...
ROW 46 : ... .. . ... ... ... : ... .. . ... ... ... : ... .. . ... ... ... : ... .. . ... ... ... : D-4 06 . ... ... ...
ROW 47 : ... .. . ... ... ... : ... .. . ... ... ... : ... .. . ... ... ... : ... .. . ... ... ... : ... .. . ... ... ...
ROW 48 : ... .. . ... ... ... : ... .. . ... ... ... : ... .. . ... ... ... : ... .. . ... ... ... : ... .. . ... ... ...
ROW 49 : ... .. . ... ... ... : ... .. . ... ... ... : ... .. . ... ... ... : ... .. . ... ... ... : ... .. . ... ... ...
ROW 4A : ... .. . ... ... ... : ... .. . ... ... ... : ... .. . ... ... ... : ... .. . ... ... ... : ... .. . ... ... ...
ROW 4B : ... .. . ... ... ... : ... .. . ... ... ... : ... .. . ... ... ... : ... .. . ... ... ... : ... .. . ... ... ...
ROW 4C : ... .. . ... ... ... : ... .. . ... ... ... : ... .. . ... ... ... : ... .. . ... ... ... : ... .. . ... ... ...
ROW 4D : ... .. . ... ... ... : ... .. . ... ... ... : ... .. . ... ... ... : ... .. . ... ... ... : ... .. . ... ... ...
ROW 4E : ... .. . ... ... ... : ... .. . ... ... ... : ... .. . ... ... ... : ... .. . ... ... ... : ... .. . ... ... ...
ROW 4F : ... .. . ... ... ... : ... .. . ... ... ... : ... .. . ... ... ... : ... .. . ... ... ... : ... .. . ... ... ...
ROW 50 : ... .. . ... ... ... : ... .. . ... ... ... : ... .. . ... ... ... : ... .. . ... ... ... : ... .. . ... ... ...
ROW 51 : ... .. . ... ... ... : ... .. . ... ... ... : ... .. . ... ... ... : ... .. . ... ... ... : ... .. . ... ... ...
ROW 52 : ... .. . ... ... ... : ... .. . ... ... ... : ... .. . ... ... ... : ... .. . ... ... ... : ... .. . ... ... ...
ROW 53 : ... .. . ... ... ... : ... .. . ... ... ... : ... .. . ... ... ... : ... .. . ... ... ... : ... .. . ... ... ...
ROW 54 : ... .. . ... ... ... : ... .. . ... ... ... : ... .. . ... ... ... : ... .. . ... ... ... : B-3 06 . ... ... ...
ROW 55 : ... .. . ... ... ... : ... .. . ... ... ... : ... .. . ... ... ... : ... .. . ... ... ... : ... .. . ... ... ...
ROW 56 : ... .. . ... ... ... : ... .. . ... ... ... : ... .. . ... ... ... : ... .. . ... ... ... : ... .. . ... ... ...
ROW 57 : ... .. . ... ... ... : ... .. . ... ... ... : ... .. . ... ... ... : ... .. . ... ... ... : ... .. . ... ... ...
ROW 58 : ... .. . ... ... ... : ... .. . ... ... ... : ... .. . ... ... ... : ... .. . ... ... ... : ... .. . ... ... ...
ROW 59 : ... .. . ... ... ... : ... .. . ... ... ... : ... .. . ... ... ... : ... .. . ... ... ... : ... .. . ... ... ...
ROW 5A : ... .. . ... ... ... : ... .. . ... ... ... : ... .. . ... ... ... : ... .. . ... ... ... : ... .. . ... ... ...
ROW 5B : ... .. . ... ... ... : ... .. . ... ... ... : ... .. . ... ... ... : ... .. . ... ... ... : ... .. . ... ... ...
ROW 5C : ... .. . ... ... ... : ... .. . ... ... ... : ... .. . ... ... ... : ... .. . ... ... ... : ... .. . ... ... ...
ROW 5D : ... .. . ... ... ... : ... .. . ... ... ... : ... .. . ... ... ... : ... .. . ... ... ... : ... .. . ... ... ...
ROW 5E : ... .. . ... ... ... : ... .. . ... ... ... : ... .. . ... ... ... : ... .. . ... ... ... : ... .. . ... ... ...
ROW 5F : ... .. . ... ... ... : ... .. . ... ... ... : ... .. . ... ... ... : ... .. . ... ... ... : ... .. . ... ... ...
ROW 60 : ... .. . ... ... ... : ... .. . ... ... ... : ... .. . ... ... ... : ... .. . ... ... ... : ... .. . ... ... ...
ROW 61 : ... .. . ... ... ... : ... .. . ... ... ... : ... .. . ... ... ... : ... .. . ... ... ... : ... .. . ... ... ...
ROW 62 : ... .. . ... ... ... : ... .. . ... ... ... : ... .. . Q4A ... ... : ... .. . ... ... ... : C-4 06 . ... ... ...
ROW 63 : ... .. . ... ... ... : ... .. . ... ... ... : ... .. . ... ... ... : ... .. . ... ... ... : ... .. . ... ... ...
ROW 64 : ... .. . ... ... ... : ... .. . ... ... ... : ... .. . ... ... ... : ... .. . ... ... ... : ... .. . ... ... ...
ROW 65 : ... .. . ... ... ... : ... .. . ... ... ... : ... .. . ... ... ... : ... .. . ... ... ... : ... .. . ... ... ...
ROW 66 : ... .. . ... ... ... : ... .. . ... ... ... : ... .. . ... ... ... : ... .. . ... ... ... : ... .. . ... ... ...
ROW 67 : ... .. . ... ... ... : ... .. . ... ... ... : ... .. . ... ... ... : ... .. . ... ... ... : ... .. . ... ... ...
ROW 68 : ... .. . ... ... ... : ... .. . ... ... ... : ... .. . ... ... ... : ... .. . ... ... ... : ... .. . ... ... ...
ROW 69 : ... .. . ... ... ... : ... .. . ... ... ... : ... .. . ... ... ... : ... .. . ... ... ... : C-4 06 . ... ... ...
ROW 6A : ... .. . ... ... ... : ... .. . ... ... ... : ... .. . ... ... ... : ... .. . ... ... ... : ... .. . ... ... ...
ROW 6B : ... .. . ... ... ... : ... .. . ... ... ... : ... .. . ... ... ... : ... .. . ... ... ... : ... .. . ... ... ...
ROW 6C : ... .. . ... ... ... : ... .. . ... ... ... : ... .. . ... ... ... : ... .. . ... ... ... : ... .. . ... ... ...
ROW 6D : ... .. . ... ... ... : ... .. . ... ... ... : ... .. . ... ... ... : ... .. . ... ... ... : ... .. . ... ... ...
ROW 6E : ... .. . ... ... ... : ... .. . ... ... ... : ... .. . ... ... ... : ... .. . ... ... ... : ... .. . ... ... ...
ROW 6F : ... .. . ... ... ... : ... .. . ... ... ... : ... .. . ... ... ... : ... .. . ... ... ... : ... .. . ... ... ...
ROW 70 : ... .. . ... ... ... : ... .. . ... ... ... : A-4 05 . ... ... ... : ... .. . ... ... ... : B-3 06 . ... ... ...
ROW 71 : A-3 04 . ... ... ... : A-3 04 . ... ... ... : ... .. . ... ... ... : ... .. . ... ... ... : ... .. . ... ... ...
ROW 72 : ... .. . ... ... ... : ... .. . ... ... ... : ... .. . ... ... ... : ... .. . ... ... ... : ... .. . ... ... ...
ROW 73 : ... .. . ... ... ... : ... .. . ... ... ... : ... .. . ... ... ... : ... .. . ... ... ... : ... .. . ... ... ...
ROW 74 : ... .. . ... ... ... : ... .. . ... ... ... : ... .. . ... ... ... : ... .. . ... ... ... : ... .. . ... ... ...
ROW 75 : ... .. . ... ... ... : ... .. . ... ... ... : ... .. . ... ... ... : ... .. . ... ... ... : ... .. . ... ... ...
ROW 76 : ... .. . ... ... ... : ... .. . ... ... ... : ... .. . ... ... ... : ... .. . ... ... ... : ... .. . ... ... ...
ROW 77 : ... .. . ... ... ... : ... .. . ... ... ... : ... .. . ... ... ... : ... .. . ... ... ... : ... .. . ... ... ...
ROW 78 : ... .. . ... ... ... : ... .. . ... ... ... : ... .. . ... ... ... : ... .. . ... ... ... : ... .. . ... ... ...
ROW 79 : ... .. . ... ... ... : ... .. . ... ... ... : ... .. . ... ... ... : ... .. . ... ... ... : ... .. . ... ... ...
ROW 7A : ... .. . ... ... ... : ... .. . ... ... ... : ... .. . ... ... ... : ... .. . ... ... ... : ... .. . ... ... ...
ROW 7B : ... .. . ... ... ... : ... .. . ... ... ... : ... .. . ... ... ... : ... .. . ... ... ... : ... .. . ... ... ...
ROW 7C : ... .. . ... ... ... : ... .. . ... ... ... : ... .. . ... ... ... : ... .. . ... ... ... : ... .. . ... ... ...
ROW 7D : ... .. . ... ... ... : ... .. . ... ... ... : ... .. . ... ... ... : ... .. . ... ... ... : ... .. . ... ... ...
ROW 7E : ... .. . ... ... ... : ... .. . ... ... ... : ... .. . ... ... ... : ... .. . ... ... ... : D-4 06 . ... ... ...
ROW 7F : ... .. . ... ... ... : ... .. . ... ... ... : ... .. . ... ... ... : ... .. . ... ... ... : ... .. . ... ... ...
ROW 80 : ... .. . ... ... ... : ... .. . ... ... ... : ... .. . ... ... ... : ... .. . ... ... ... : ... .. . ... ... ...
ROW 81 : ... .. . ... ... ... : ... .. . ... ... ... : ... .. . ... ... ... : ... .. . ... ... ... : ... .. . ... ... ...
ROW 82 : ... .. . ... ... ... : ... .. . ... ... ... : ... .. . ... ... ... : ... .. . ... ... ... : ... .. . ... ... ...
ROW 83 : ... .. . ... ... ... : ... .. . ... ... ... : ... .. . ... ... ... : ... .. . ... ... ... : ... .. . ... ... ...
ROW 84 : ... .. . ... ... ... : ... .. . ... ... ... : ... .. . ... ... ... : ... .. . ... ... ... : D-4 06 . ... ... ...
ROW 85 : ... .. . ... ... ... : ... .. . ... ... ... : ... .. . ... ... ... : ... .. . ... ... ... : ... .. . ... ... ...
ROW 86 : ... .. . ... ... ... : ... .. . ... ... ... : ... .. . ... ... ... : ... .. . ... ... ... : ... .. . ... ... ...
ROW 87 : ... .. . ... ... ... : ... .. . ... ... ... : ... .. . ... ... ... : ... .. . ... ... ... : ... .. . ... ... ...
ROW 88 : ... .. . ... ... ... : ... .. . ... ... ... : ... .. . ... ... ... : ... .. . ... ... ... : ... .. . ... ... ...
ROW 89 : ... .. . ... ... ... : ... .. . ... ... ... : ... .. . ... ... ... : ... .. . ... ... ... : ... .. . ... ... ...
ROW 8A : ... .. . ... ... ... : ... .. . ... ... ... : ... .. . ... ... ... : ... .. . ... ... ... : ... .. . ... ... ...
ROW 8B : ... .. . ... ... ... : ... .. . ... ... ... : ... .. . ... ... ... : ... .. . ... ... ... : ... .. . ... ... ...
ROW 8C : ... .. . ... ... ... : ... .. . ... ... ... : ... .. . ... ... ... : ... .. . ... ... ... : B-3 06 . ... ... ...
ROW 8D : ... .. . ... ... ... : ... .. . ... ... ... : ... .. . ... ... ... : ... .. . ... ... ... : ... .. . ... ... ...
ROW 8E : ... .. . ... ... ... : ... .. . ... ... ... : ... .. . ... ... ... : ... .. . ... ... ... : ... .. . ... ... ...
ROW 8F : ... .. . ... ... ... : ... .. . ... ... ... : ... .. . ... ... ... : ... .. . ... ... ... : ... .. . ... ... ...
ROW 90 : ... .. . ... ... ... : ... .. . ... ... ... : ... .. . ... ... ... : ... .. . ... ... ... : ... .. . ... ... ...
ROW 91 : ... .. . ... ... ... : ... .. . ... ... ... : ... .. . ... ... ... : ... .. . ... ... ... : ... .. . ... ... ...
ROW 92 : ... .. . ... ... ... : ... .. . ... ... ... : ... .. . ... ... ... : ... .. . ... ... ... : ... .. . ... ... ...
ROW 93 : ... .. . ... ... ... : ... .. . ... ... ... : ... .. . ... ... ... : ... .. . ... ... ... : ... .. . ... ... ...
ROW 94 : ... .. . ... ... ... : ... .. . ... ... ... : ... .. . ... ... ... : ... .. . ... ... ... : ... .. . ... ... ...
ROW 95 : ... .. . ... ... ... : ... .. . ... ... ... : ... .. . ... ... ... : ... .. . ... ... ... : ... .. . ... ... ...
ROW 96 : ... .. . ... ... ... : ... .. . ... ... ... : ... .. . ... ... ... : ... .. . ... ... ... : ... .. . ... ... ...
ROW 97 : ... .. . ... ... ... : ... .. . ... ... ... : ... .. . ... ... ... : ... .. . ... ... ... : ... .. . ... ... ...
ROW 98 : ... .. . ... ... ... : ... .. . ... ... ... : ... .. . ... ... ... : ... .. . ... ... ... : ... .. . ... ... ...
ROW 99 : ... .. . ... ... ... : ... .. . ... ... ... : ... .. . ... ... ... : ... .. . ... ... ... : ... .. . ... ... ...
ROW 9A : E-3 04 . ... ... ... : E-3 04 . ... ... ... : E-4 05 . ... ... ... : ... .. . ... ... ... : C-4 06 . ... ... ...
ROW 9B : ... .. . ... ... ... : ... .. . ... ... ... : ... .. . ... ... ... : ... .. . ... ... ... : ... .. . ... ... ...
ROW 9C : ... .. . ... ... ... : ... .. . ... ... ... : ... .. . ... ... ... : ... .. . ... ... ... : ... .. . ... ... ...
ROW 9D : ... .. . ... ... ... : ... .. . ... ... ... : ... .. . ... ... ... : ... .. . ... ... ... : ... .. . ... ... ...
ROW 9E : ... .. . ... ... ... : ... .. . ... ... ... : ... .. . ... ... ... : ... .. . ... ... ... : ... .. . ... ... ...
ROW 9F : ... .. . ... ... ... : ... .. . ... ... ... : ... .. . ... ... ... : ... .. . ... ... ... : ... .. . ... ... ...
ROW A0 : ... .. . ... ... ... : ... .. . ... ... ... : ... .. . ... ... ... : ... .. . ... ... ... : ... .. . ... ... ...
ROW A1 : ... .. . ... ... ... : ... .. . ... ... ... : ... .. . ... ... ... : ... .. . ... ... ... : C-4 06 . ... ... ...
ROW A2 : ... .. . ... ... ... : ... .. . ... ... ... : ... .. . ... ... ... : ... .. . ... ... ... : ... .. . ... ... ...
ROW A3 : ... .. . ... ... ... : ... .. . ... ... ... : ... .. . ... ... ... : ... .. . ... ... ... : ... .. . ... ... ...
ROW A4 : ... .. . ... ... ... : ... .. . ... ... ... : ... .. . ... ... ... : ... .. . ... ... ... : ... .. . ... ... ...
ROW A5 : ... .. . ... ... ... : ... .. . ... ... ... : ... .. . ... ... ... : ... .. . ... ... ... : ... .. . ... ... ...
ROW A6 : ... .. . ... ... ... : ... .. . ... ... ... : ... .. . ... ... ... : ... .. . ... ... ... : ... .. . ... ... ...
ROW A7 : ... .. . ... ... ... : ... .. . ... ... ... : ... .. . ... ... ... : ... .. . ... ... ... : ... .. . ... ... ...
ROW A8 : ... .. . ... ... ... : ... .. . ... ... ... : ... .. . ... ... ... : ... .. . ... ... ... : B-3 06 . ... ... ...
ROW A9 : ... .. . ... ... ... : ... .. . ... ... ... : ... .. . ... ... ... : ... .. . ... ... ... : ... .. . ... ... ...
ROW AA : ... .. . ... ... ... : ... .. . ... ... ... : ... .. . ... ... ... : ... .. . ... ... ... : ... .. . ... ... ...
ROW AB : ... .. . ... ... ... : ... .. . ... ... ... : ... .. . ... ... ... : ... .. . ... ... ... : ... .. . ... ... ...
ROW AC : ... .. . ... ... ... : ... .. . ... ... ... : ... .. . ... ... ... : ... .. . ... ... ... : ... .. . ... ... ...
ROW AD : ... .. . ... ... ... : ... .. . ... ... ... : ... .. . ... ... ... : ... .. . ... ... ... : ... .. . ... ... ...
ROW AE : ... .. . ... ... ... : ... .. . ... ... ... : ... .. . ... ... ... : ... .. . ... ... ... : ... .. . ... ... ...
ROW AF : ... .. . ... ... ... : ... .. . ... ... ... : ... .. . ... ... ... : ... .. . ... ... ... : ... .. . ... ... ...
ROW B0 : ... .. . ... ... ... : ... .. . ... ... ... : ... .. . ... ... ... : ... .. . ... ... ... : ... .. . ... ... ...
ROW B1 : ... .. . ... ... ... : ... .. . ... ... ... : ... .. . ... ... ... : ... .. . ... ... ... : ... .. . ... ... ...
ROW B2 : ... .. . ... ... ... : ... .. . ... ... ... : ... .. . ... ... ... : ... .. . ... ... ... : ... .. . ... ... ...
ROW B3 : ... .. . ... ... ... : ... .. . ... ... ... : ... .. . ... ... ... : ... .. . ... ... ... : ... .. . ... ... ...
ROW B4 : ... .. . ... ... ... : ... .. . ... ... ... : ... .. . ... ... ... : ... .. . ... ... ... : ... .. . ... ... ...
ROW B5 : ... .. . ... ... ... : ... .. . ... ... ... : ... .. . ... ... ... : ... .. . ... ... ... : ... .. . ... ... ...
ROW B6 : ... .. . ... ... ... : ... .. . ... ... ... : ... .. . ... ... ... : ... .. . ... ... ... : D-4 06 . ... ... ...
ROW B7 : ... .. . ... ... ... : ... .. . ... ... ... : ... .. . ... ... ... : ... .. . ... ... ... : ... .. . ... ... ...
ROW B8 : ... .. . ... ... ... : ... .. . ... ... ... : ... .. . ... ... ... : ... .. . ... ... ... : ... .. . ... ... ...
ROW B9 : ... .. . ... ... ... : ... .. . ... ... ... : ... .. . ... ... ... : ... .. . ... ... ... : ... .. . ... ... ...
ROW BA : ... .. . ... ... ... : ... .. . ... ... ... : ... .. . ... ... ... : ... .. . ... ... ... : ... .. . ... ... ...
ROW BB : ... .. . ... ... ... : ... .. . ... ... ... : ... .. . ... ... ... : ... .. . ... ... ... : ... .. . ... ... ...
ROW BC : ... .. . ... ... ... : ... .. . ... ... ... : ... .. . ... ... ... : ... .. . ... ... ... : ... .. . ... ... ...
ROW BD : ... .. . ... ... ... : ... .. . ... ... ... : ... .. . ... ... ... : ... .. . ... ... ... : ... .. . ... ... ...
ROW BE : ... .. . ... ... ... : ... .. . ... ... ... : ... .. . ... ... ... : ... .. . ... ... ... : ... .. . ... ... ...
ROW BF : ... .. . ... ... ... : ... .. . ... ... ... : ... .. . ... ... ... : ... .. . ... ... ... : ... .. . ... ... ...
ROW C0 : ... .. . ... ... ... : ... .. . ... ... ... : ... .. . ... ... ... : ... .. . ... ... ... : ... .. . ... ... ...
ROW C1 : ... .. . ... ... ... : ... .. . ... ... ... : ... .. . ... ... ... : ... .. . ... ... ... : ... .. . ... ... ...
ROW C2 : ... .. . ... ... ... : ... .. . ... ... ... : ... .. . ... ... ... : ... .. . ... ... ... : ... .. . ... ... ...
ROW C3 : ... .. . ... ... ... : ... .. . ... ... ... : ... .. . ... ... ... : ... .. . ... ... ... : ... .. . ... ... ...
ROW C4 : C#4 04 . ... ... ... : C#4 04 . ... ... ... : C#5 05 . ... ... ... : ... .. . ... ... ... : B-3 06 . ... ... ...
ROW C5 : ... .. . ... ... ... : ... .. . ... ... ... : ... .. . ... ... ... : ... .. . ... ... ... : ... .. . ... ... ...
ROW C6 : ... .. . ... ... ... : ... .. . ... ... ... : ... .. . ... ... ... : ... .. . ... ... ... : ... .. . ... ... ...
ROW C7 : ... .. . ... ... ... : ... .. . ... ... ... : ... .. . ... ... ... : ... .. . ... ... ... : ... .. . ... ... ...
ROW C8 : ... .. . ... ... ... : ... .. . ... ... ... : ... .. . ... ... ... : ... .. . ... ... ... : ... .. . ... ... ...
ROW C9 : ... .. . ... ... ... : ... .. . ... ... ... : ... .. . ... ... ... : ... .. . ... ... ... : ... .. . ... ... ...
ROW CA : ... .. . ... ... ... : ... .. . ... ... ... : ... .. . ... ... ... : ... .. . ... ... ... : ... .. . ... ... ...
ROW CB : ... .. . ... ... ... : ... .. . ... ... ... : ... .. . ... ... ... : ... .. . ... ... ... : ... .. . ... ... ...
ROW CC : ... .. . ... ... ... : ... .. . ... ... ... : ... .. . ... ... ... : ... .. . ... ... ... : ... .. . ... ... ...
ROW CD : ... .. . ... ... ... : ... .. . ... ... ... : ... .. . ... ... ... : ... .. . ... ... ... : ... .. . ... ... ...
ROW CE : ... .. . ... ... ... : ... .. . ... ... ... : ... .. . ... ... ... : ... .. . ... ... ... : ... .. . ... ... ...
ROW CF : ... .. . ... ... ... : ... .. . ... ... ... : ... .. . ... ... ... : ... .. . ... ... ... : ... .. . ... ... ...
ROW D0 : ... .. . ... ... ... : ... .. . ... ... ... : ... .. . ... ... ... : ... .. . ... ... ... : ... .. . ... ... ...
ROW D1 : ... .. . ... ... ... : ... .. . ... ... ... : ... .. . ... ... ... : ... .. . ... ... ... : ... .. . ... ... ...
ROW D2 : ... .. . ... ... ... : ... .. . ... ... ... : ... .. . ... ... ... : ... .. . ... ... ... : E-4 06 . ... ... ...
ROW D3 : ... .. . ... ... ... : ... .. . ... ... ... : ... .. . ... ... ... : ... .. . ... ... ... : ... .. . ... ... ...
ROW D4 : ... .. . ... ... ... : ... .. . ... ... ... : D-5 05 . ... ... ... : ... .. . ... ... ... : ... .. . ... ... ...
ROW D5 : ... .. . ... ... ... : ... .. . ... ... ... : ... .. . ... ... ... : ... .. . ... ... ... : ... .. . ... ... ...
ROW D6 : ... .. . ... ... ... : ... .. . ... ... ... : ... .. . ... ... ... : ... .. . ... ... ... : ... .. . ... ... ...
ROW D7 : ... .. . ... ... ... : ... .. . ... ... ... : ... .. . ... ... ... : ... .. . ... ... ... : ... .. . ... ... ...
ROW D8 : ... .. . ... ... ... : ... .. . ... ... ... : ... .. . ... ... ... : ... .. . ... ... ... : ... .. . ... ... ...
ROW D9 : ... .. . ... ... ... : ... .. . ... ... ... : ... .. . ... ... ... : ... .. . ... ... ... : ... .. . ... ... ...
ROW DA : ... .. . ... ... ... : ... .. . ... ... ... : C#5 05 . ... ... ... : ... .. . ... ... ... : ... .. . ... ... ...
ROW DB : ... .. . ... ... ... : ... .. . ... ... ... : ... .. . ... ... ... : ... .. . ... ... ... : ... .. . ... ... ...
ROW DC : ... .. . ... ... ... : ... .. . ... ... ... : ... .. . ... ... ... : ... .. . ... ... ... : ... .. . ... ... ...
ROW DD : ... .. . ... ... ... : ... .. . ... ... ... : ... .. . ... ... ... : ... .. . ... ... ... : ... .. . ... ... ...
ROW DE : ... .. . ... ... ... : ... .. . ... ... ... : ... .. . ... ... ... : ... .. . ... ... ... : ... .. . ... ... ...
ROW DF : ... .. . ... ... ... : ... .. . ... ... ... : ... .. . ... ... ... : ... .. . ... ... ... : --- .. . ... ... ...

PATTERN 06
ROW 00 : B-2 01 . ... ... ... : B-3 04 . ... ... ... : ... .. . ... ... ... : ... .. . ... ... ... : B-3 06 . ... ... ...
ROW 01 : ... .. . ... ... ... : ... .. . ... ... ... : ... .. . ... ... ... : ... .. . ... ... ... : ... .. . ... ... ...
ROW 02 : ... .. . ... ... ... : ... .. . ... ... ... : ... .. . ... ... ... : ... .. . ... ... ... : ... .. . ... ... ...
ROW 03 : ... .. . ... ... ... : ... .. . ... ... ... : ... .. . ... ... ... : ... .. . ... ... ... : ... .. . ... ... ...
ROW 04 : ... .. . ... ... ... : ... .. . ... ... ... : ... .. . ... ... ... : ... .. . ... ... ... : ... .. . ... ... ...
ROW 05 : ... .. . ... ... ... : ... .. . ... ... ... : ... .. . ... ... ... : ... .. . ... ... ... : ... .. . ... ... ...
ROW 06 : ... .. . ... ... ... : ... .. . ... ... ... : ... .. . ... ... ... : ... .. . ... ... ... : ... .. . ... ... ...
ROW 07 : ... .. . ... ... ... : ... .. . ... ... ... : ... .. . ... ... ... : ... .. . ... ... ... : ... .. . ... ... ...
ROW 08 : ... .. . ... ... ... : ... .. . ... ... ... : ... .. . ... ... ... : ... .. . ... ... ... : ... .. . ... ... ...
ROW 09 : ... .. . ... ... ... : ... .. . ... ... ... : ... .. . ... ... ... : ... .. . ... ... ... : ... .. . ... ... ...
ROW 0A : ... .. . ... ... ... : ... .. . ... ... ... : ... .. . ... ... ... : ... .. . ... ... ... : ... .. . ... ... ...
ROW 0B : ... .. . ... ... ... : ... .. . ... ... ... : ... .. . ... ... ... : ... .. . ... ... ... : ... .. . ... ... ...
ROW 0C : ... .. . ... ... ... : ... .. . ... ... ... : ... .. . ... ... ... : ... .. . ... ... ... : ... .. . ... ... ...
ROW 0D : ... .. . ... ... ... : ... .. . ... ... ... : ... .. . ... ... ... : ... .. . ... ... ... : ... .. . ... ... ...
ROW 0E : ... .. . ... ... ... : A-3 04 . ... ... ... : ... .. . ... ... ... : ... .. . ... ... ... : D-4 06 . ... ... ...
ROW 0F : ... .. . ... ... ... : ... .. . ... ... ... : ... .. . ... ... ... : ... .. . ... ... ... : ... .. . ... ... ...
ROW 10 : ... .. . ... ... ... : ... .. . ... ... ... : ... .. . ... ... ... : ... .. . ... ... ... : ... .. . ... ... ...
ROW 11 : ... .. . ... ... ... : ... .. . ... ... ... : ... .. . ... ... ... : ... .. . ... ... ... : ... .. . ... ... ...
ROW 12 : ... .. . ... ... ... : ... .. . ... ... ... : ... .. . ... ... ... : ... .. . ... ... ... : ... .. . ... ... ...
ROW 13 : ... .. . ... ... ... : ... .. . ... ... ... : ... .. . ... ... ... : ... .. . ... ... ... : ... .. . ... ... ...
ROW 14 : ... .. . ... ... ... : ... .. . ... ... ... : ... .. . ... ... ... : ... .. . ... ... ... : ... .. . ... ... ...
ROW 15 : F#2 01 . ... ... ... : ... .. . ... ... ... : ... .. . ... ... ... : ... .. . ... ... ... : ... .. . ... ... ...
ROW 16 : ... .. . ... ... ... : ... .. . ... ... ... : ... .. . ... ... ... : ... .. . ... ... ... : ... .. . ... ... ...
ROW 17 : ... .. . ... ... ... : ... .. . ... ... ... : ... .. . ... ... ... : ... .. . ... ... ... : ... .. . ... ... ...
ROW 18 : ... .. . ... ... ... : ... .. . ... ... ... : ... .. . ... ... ... : ... .. . ... ... ... : ... .. . ... ... ...
ROW 19 : ... .. . ... ... ... : ... .. . ... ... ... : ... .. . ... ... ... : ... .. . ... ... ... : ... .. . ... ... ...
ROW 1A : ... .. . ... ... ... : ... .. . ... ... ... : ... .. . ... ... ... : ... .. . ... ... ... : ... .. . ... ... ...
ROW 1B : ... .. . ... ... ... : ... .. . ... ... ... : ... .. . ... ... ... : ... .. . ... ... ... : ... .. . ... ... ...
ROW 1C : B-2 01 . ... ... ... : F#3 04 . ... ... ... : ... .. . ... ... ... : ... .. . ... ... ... : B-3 06 . ... ... ...
ROW 1D : ... .. . ... ... ... : ... .. . ... ... ... : ... .. . ... ... ... : ... .. . ... ... ... : ... .. . ... ... ...
ROW 1E : ... .. . ... ... ... : ... .. . ... ... ... : ... .. . ... ... ... : ... .. . ... ... ... : ... .. . ... ... ...
ROW 1F : ... .. . ... ... ... : ... .. . ... ... ... : ... .. . ... ... ... : ... .. . ... ... ... : ... .. . ... ... ...
ROW 20 : ... .. . ... ... ... : ... .. . ... ... ... : ... .. . ... ... ... : ... .. . ... ... ... : ... .. . ... ... ...
ROW 21 : ... .. . ... ... ... : ... .. . ... ... ... : ... .. . ... ... ... : ... .. . ... ... ... : ... .. . ... ... ...
ROW 22 : ... .. . ... ... ... : ... .. . ... ... ... : ... .. . ... ... ... : ... .. . ... ... ... : ... .. . ... ... ...
ROW 23 : ... .. . ... ... ... : ... .. . ... ... ... : ... .. . ... ... ... : ... .. . ... ... ... : ... .. . ... ... ...
ROW 24 : ... .. . ... ... ... : ... .. . ... ... ... : ... .. . ... ... ... : ... .. . ... ... ... : ... .. . ... ... ...
ROW 25 : ... .. . ... ... ... : ... .. . ... ... ... : ... .. . ... ... ... : ... .. . ... ... ... : ... .. . ... ... ...
ROW 26 : ... .. . ... ... ... : ... .. . ... ... ... : ... .. . ... ... ... : ... .. . ... ... ... : ... .. . ... ... ...
ROW 27 : ... .. . ... ... ... : ... .. . ... ... ... : ... .. . ... ... ... : ... .. . ... ... ... : ... .. . ... ... ...
ROW 28 : ... .. . ... ... ... : ... .. . ... ... ... : ... .. . ... ... ... : ... .. . ... ... ... : ... .. . ... ... ...
ROW 29 : ... .. . ... ... ... : ... .. . ... ... ... : ... .. . ... ... ... : ... .. . ... ... ... : ... .. . ... ... ...
ROW 2A : ... .. . ... ... ... : A-3 04 . ... ... ... : ... .. . ... ... ... : ... .. . ... ... ... : C-4 06 . ... ... ...
ROW 2B : ... .. . ... ... ... : ... .. . ... ... ... : ... .. . ... ... ... : ... .. . ... ... ... : ... .. . ... ... ...
ROW 2C : ... .. . ... ... ... : ... .. . ... ... ... : ... .. . ... ... ... : ... .. . ... ... ... : ... .. . ... ... ...
ROW 2D : ... .. . ... ... ... : ... .. . ... ... ... : ... .. . ... ... ... : ... .. . ... ... ... : ... .. . ... ... ...
ROW 2E : ... .. . ... ... ... : ... .. . ... ... ... : ... .. . ... ... ... : ... .. . ... ... ... : ... .. . ... ... ...
ROW 2F : ... .. . ... ... ... : ... .. . ... ... ... : ... .. . ... ... ... : ... .. . ... ... ... : ... .. . ... ... ...
ROW 30 : ... .. . ... ... ... : ... .. . ... ... ... : ... .. . ... ... ... : ... .. . ... ... ... : ... .. . ... ... ...
ROW 31 : C#3 01 . ... ... ... : ... .. . ... ... ... : ... .. . ... ... ... : ... .. . ... ... ... : C-4 06 . ... ... ...
ROW 32 : ... .. . ... ... ... : ... .. . ... ... ... : ... .. . ... ... ... : ... .. . ... ... ... : ... .. . ... ... ...
ROW 33 : ... .. . ... ... ... : ... .. . ... ... ... : ... .. . ... ... ... : ... .. . ... ... ... : ... .. . ... ... ...
ROW 34 : ... .. . ... ... ... : ... .. . ... ... ... : ... .. . ... ... ... : ... .. . ... ... ... : ... .. . ... ... ...
ROW 35 : ... .. . ... ... ... : ... .. . ... ... ... : ... .. . ... ... ... : ... .. . ... ... ... : ... .. . ... ... ...
ROW 36 : ... .. . ... ... ... : ... .. . ... ... ... : ... .. . ... ... ... : ... .. . ... ... ... : ... .. . ... ... ...
ROW 37 : ... .. . ... ... ... : ... .. . ... ... ... : ... .. . ... ... ... : ... .. . ... ... ... : ... .. . ... ... ...
ROW 38 : D-3 01 . ... ... ... : B-3 04 . ... ... ... : ... .. . ... ... ... : ... .. . ... ... ... : B-3 06 . ... ... ...
ROW 39 : ... .. . ... ... ... : ... .. . ... ... ... : ... .. . ... ... ... : ... .. . ... ... ... : ... .. . ... ... ...
ROW 3A : ... .. . ... ... ... : ... .. . ... ... ... : ... .. . ... ... ... : ... .. . ... ... ... : ... .. . ... ... ...
ROW 3B : ... .. . ... ... ... : ... .. . ... ... ... : ... .. . ... ... ... : ... .. . ... ... ... : ... .. . ... ... ...
ROW 3C : ... .. . ... ... ... : ... .. . ... ... ... : ... .. . ... ... ... : ... .. . ... ... ... : ... .. . ... ... ...
ROW 3D : ... .. . ... ... ... : ... .. . ... ... ... : ... .. . ... ... ... : ... .. . ... ... ... : ... .. . ... ... ...
ROW 3E : --- .. . ... ... ... : ... .. . ... ... ... : ... .. . ... ... ... : ... .. . ... ... ... : ... .. . ... ... ...
ROW 3F : ... .. . ... ... ... : ... .. . ... ... ... : ... .. . ... ... ... : ... .. . ... ... ... : ... .. . ... ... ...
ROW 40 : ... .. . ... ... ... : ... .. . ... ... ... : ... .. . ... ... ... : ... .. . ... ... ... : ... .. . ... ... ...
ROW 41 : ... .. . ... ... ... : ... .. . ... ... ... : ... .. . ... ... ... : ... .. . ... ... ... : ... .. . ... ... ...
ROW 42 : ... .. . ... ... ... : ... .. . ... ... ... : ... .. . ... ... ... : ... .. . ... ... ... : ... .. . ... ... ...
ROW 43 : ... .. . ... ... ... : ... .. . ... ... ... : ... .. . ... ... ... : ... .. . ... ... ... : ... .. . ... ... ...
ROW 44 : ... .. . ... ... ... : ... .. . ... ... ... : ... .. . ... ... ... : ... .. . ... ... ... : ... .. . ... ... ...
ROW 45 : ... .. . ... ... ... : ... .. . ... ... ... : ... .. . ... ... ... : ... .. . ... ... ... : ... .. . ... ... ...
ROW 46 : D-3 01 . ... ... ... : A-3 04 . ... ... ... : ... .. . ... ... ... : ... .. . ... ... ... : D-4 06 . ... ... ...
ROW 47 : ... .. . ... ... ... : ... .. . ... ... ... : ... .. . ... ... ... : ... .. . ... ... ... : ... .. . ... ... ...
ROW 48 : ... .. . ... ... ... : ... .. . ... ... ... : ... .. . ... ... ... : ... .. . ... ... ... : ... .. . ... ... ...
ROW 49 : ... .. . ... ... ... : ... .. . ... ... ... : ... .. . ... ... ... : ... .. . ... ... ... : ... .. . ... ... ...
ROW 4A : ... .. . ... ... ... : ... .. . ... ... ... : ... .. . ... ... ... : ... .. . ... ... ... : ... .. . ... ... ...
ROW 4B : ... .. . ... ... ... : ... .. . ... ... ... : ... .. . ... ... ... : ... .. . ... ... ... : ... .. . ... ... ...
ROW 4C : ... .. . ... ... ... : ... .. . ... ... ... : ... .. . ... ... ... : ... .. . ... ... ... : ... .. . ... ... ...
ROW 4D : B-2 01 . ... ... ... : ... .. . ... ... ... : ... .. . ... ... ... : ... .. . ... ... ... : ... .. . ... ... ...
ROW 4E : ... .. . ... ... ... : ... .. . ... ... ... : ... .. . ... ... ... : ... .. . ... ... ... : ... .. . ... ... ...
ROW 4F : ... .. . ... ... ... : ... .. . ... ... ... : ... .. . ... ... ... : ... .. . ... ... ... : ... .. . ... ... ...
ROW 50 : ... .. . ... ... ... : ... .. . ... ... ... : ... .. . ... ... ... : ... .. . ... ... ... : ... .. . ... ... ...
ROW 51 : ... .. . ... ... ... : ... .. . ... ... ... : ... .. . ... ... ... : ... .. . ... ... ... : ... .. . ... ... ...
ROW 52 : ... .. . ... ... ... : ... .. . ... ... ... : ... .. . ... ... ... : ... .. . ... ... ... : ... .. . ... ... ...
ROW 53 : ... .. . ... ... ... : ... .. . ... ... ... : ... .. . ... ... ... : ... .. . ... ... ... : ... .. . ... ... ...
ROW 54 : D-3 01 . ... ... ... : D-4 04 . ... ... ... : ... .. . ... ... ... : ... .. . ... ... ... : B-3 06 . ... ... ...
ROW 55 : ... .. . ... ... ... : ... .. . ... ... ... : ... .. . ... ... ... : ... .. . ... ... ... : ... .. . ... ... ...
ROW 56 : ... .. . ... ... ... : ... .. . ... ... ... : ... .. . ... ... ... : ... .. . ... ... ... : ... .. . ... ... ...
ROW 57 : ... .. . ... ... ... : ... .. . ... ... ... : ... .. . ... ... ... : ... .. . ... ... ... : ... .. . ... ... ...
ROW 58 : ... .. . ... ... ... : ... .. . ... ... ... : ... .. . ... ... ... : ... .. . ... ... ... : ... .. . ... ... ...
ROW 59 : ... .. . ... ... ... : ... .. . ... ... ... : ... .. . ... ... ... : ... .. . ... ... ... : ... .. . ... ... ...
ROW 5A : ... .. . ... ... ... : ... .. . ... ... ... : ... .. . ... ... ... : ... .. . ... ... ... : ... .. . ... ... ...
ROW 5B : ... .. . ... ... ... : ... .. . ... ... ... : ... .. . ... ... ... : ... .. . ... ... ... : ... .. . ... ... ...
ROW 5C : ... .. . ... ... ... : ... .. . ... ... ... : ... .. . ... ... ... : ... .. . ... ... ... : ... .. . ... ... ...
ROW 5D : ... .. . ... ... ... : ... .. . ... ... ... : ... .. . ... ... ... : ... .. . ... ... ... : ... .. . ... ... ...
ROW 5E : ... .. . ... ... ... : ... .. . ... ... ... : ... .. . ... ... ... : ... .. . ... ... ... : ... .. . ... ... ...
ROW 5F : ... .. . ... ... ... : ... .. . ... ... ... : ... .. . ... ... ... : ... .. . ... ... ... : ... .. . ... ... ...
ROW 60 : ... .. . ... ... ... : ... .. . ... ... ... : ... .. . ... ... ... : ... .. . ... ... ... : ... .. . ... ... ...
ROW 61 : ... .. . ... ... ... : ... .. . ... ... ... : ... .. . ... ... ... : ... .. . ... ... ... : ... .. . ... ... ...
ROW 62 : ... .. . ... ... ... : E-4 04 . ... ... ... : ... .. . ... ... ... : ... .. . ... ... ... : C-4 06 . ... ... ...
ROW 63 : ... .. . ... ... ... : ... .. . ... ... ... : ... .. . ... ... ... : ... .. . ... ... ... : ... .. . ... ... ...
ROW 64 : ... .. . ... ... ... : ... .. . ... ... ... : ... .. . ... ... ... : ... .. . ... ... ... : ... .. . ... ... ...
ROW 65 : ... .. . ... ... ... : ... .. . ... ... ... : ... .. . ... ... ... : ... .. . ... ... ... : ... .. . ... ... ...
ROW 66 : ... .. . ... ... ... : ... .. . ... ... ... : ... .. . ... ... ... : ... .. . ... ... ... : ... .. . ... ... ...
ROW 67 : ... .. . ... ... ... : ... .. . ... ... ... : ... .. . ... ... ... : ... .. . ... ... ... : ... .. . ... ... ...
ROW 68 : ... .. . ... ... ... : ... .. . ... ... ... : ... .. . ... ... ... : ... .. . ... ... ... : ... .. . ... ... ...
ROW 69 : F#3 01 . ... ... ... : ... .. . ... ... ... : ... .. . ... ... ... : ... .. . ... ... ... : C-4 06 . ... ... ...
ROW 6A : ... .. . ... ... ... : ... .. . ... ... ... : ... .. . ... ... ... : ... .. . ... ... ... : ... .. . ... ... ...
ROW 6B : ... .. . ... ... ... : ... .. . ... ... ... : ... .. . ... ... ... : ... .. . ... ... ... : ... .. . ... ... ...
ROW 6C : ... .. . ... ... ... : ... .. . ... ... ... : ... .. . ... ... ... : ... .. . ... ... ... : ... .. . ... ... ...
ROW 6D : ... .. . ... ... ... : ... .. . ... ... ... : ... .. . ... ... ... : ... .. . ... ... ... : ... .. . ... ... ...
ROW 6E : ... .. . ... ... ... : ... .. . ... ... ... : ... .. . ... ... ... : ... .. . ... ... ... : ... .. . ... ... ...
ROW 6F : ... .. . ... ... ... : --- .. . ... ... ... : ... .. . ... ... ... : ... .. . ... ... ... : ... .. . ... ... ...
ROW 70 : E-3 01 . ... ... ... : C#4 04 . ... ... ... : ... .. . ... ... ... : ... .. . ... ... ... : B-3 06 . ... ... ...
ROW 71 : ... .. . ... ... ... : ... .. . ... ... ... : ... .. . ... ... ... : ... .. . ... ... ... : ... .. . ... ... ...
ROW 72 : ... .. . ... ... ... : ... .. . ... ... ... : ... .. . ... ... ... : ... .. . ... ... ... : ... .. . ... ... ...
ROW 73 : ... .. . ... ... ... : ... .. . ... ... ... : ... .. . ... ... ... : ... .. . ... ... ... : ... .. . ... ... ...
ROW 74 : ... .. . ... ... ... : ... .. . ... ... ... : ... .. . ... ... ... : ... .. . ... ... ... : ... .. . ... ... ...
ROW 75 : ... .. . ... ... ... : ... .. . ... ... ... : ... .. . ... ... ... : ... .. . ... ... ... : ... .. . ... ... ...
ROW 76 : ... .. . ... ... ... : ... .. . ... ... ... : ... .. . ... ... ... : ... .. . ... ... ... : ... .. . ... ... ...
ROW 77 : ... .. . ... ... ... : ... .. . ... ... ... : ... .. . ... ... ... : ... .. . ... ... ... : ... .. . ... ... ...
ROW 78 : ... .. . ... ... ... : ... .. . ... ... ... : ... .. . ... ... ... : ... .. . ... ... ... : ... .. . ... ... ...
ROW 79 : ... .. . ... ... ... : ... .. . ... ... ... : ... .. . ... ... ... : ... .. . ... ... ... : ... .. . ... ... ...
ROW 7A : ... .. . ... ... ... : ... .. . ... ... ... : ... .. . ... ... ... : ... .. . ... ... ... : ... .. . ... ... ...
ROW 7B : ... .. . ... ... ... : ... .. . ... ... ... : ... .. . ... ... ... : ... .. . ... ... ... : ... .. . ... ... ...
ROW 7C : ... .. . ... ... ... : ... .. . ... ... ... : ... .. . ... ... ... : ... .. . ... ... ... : ... .. . ... ... ...
ROW 7D : ... .. . ... ... ... : ... .. . ... ... ... : ... .. . ... ... ... : ... .. . ... ... ... : ... .. . ... ... ...
ROW 7E : ... .. . ... ... ... : ... .. . ... ... ... : ... .. . ... ... ... : ... .. . ... ... ... : D-4 06 . ... ... ...
ROW 7F : ... .. . ... ... ... : ... .. . ... ... ... : ... .. . ... ... ... : ... .. . ... ... ... : ... .. . ... ... ...
ROW 80 : ... .. . ... ... ... : ... .. . ... ... ... : ... .. . ... ... ... : ... .. . ... ... ... : ... .. . ... ... ...
ROW 81 : ... .. . ... ... ... : ... .. . ... ... ... : ... .. . ... ... ... : ... .. . ... ... ... : ... .. . ... ... ...
ROW 82 : ... .. . ... ... ... : ... .. . ... ... ... : ... .. . ... ... ... : ... .. . ... ... ... : ... .. . ... ... ...
ROW 83 : ... .. . ... ... ... : ... .. . ... ... ... : ... .. . ... ... ... : ... .. . ... ... ... : ... .. . ... ... ...
ROW 84 : ... .. . ... ... ... : ... .. . ... ... ... : ... .. . ... ... ... : ... .. . ... ... ... : ... .. . ... ... ...
ROW 85 : F#3 01 . ... ... ... : ... .. . ... ... ... : ... .. . ... ... ... : ... .. . ... ... ... : ... .. . ... ... ...
ROW 86 : ... .. . ... ... ... : ... .. . ... ... ... : ... .. . ... ... ... : ... .. . ... ... ... : ... .. . ... ... ...
ROW 87 : ... .. . ... ... ... : ... .. . ... ... ... : ... .. . ... ... ... : ... .. . ... ... ... : ... .. . ... ... ...
ROW 88 : ... .. . ... ... ... : ... .. . ... ... ... : ... .. . ... ... ... : ... .. . ... ... ... : ... .. . ... ... ...
ROW 89 : ... .. . ... ... ... : ... .. . ... ... ... : ... .. . ... ... ... : ... .. . ... ... ... : ... .. . ... ... ...
ROW 8A : ... .. . ... ... ... : ... .. . ... ... ... : ... .. . ... ... ... : ... .. . ... ... ... : ... .. . ... ... ...
ROW 8B : ... .. . ... ... ... : ... .. . ... ... ... : ... .. . ... ... ... : ... .. . ... ... ... : ... .. . ... ... ...
ROW 8C : E-3 01 . ... ... ... : ... .. . ... ... ... : ... .. . ... ... ... : ... .. . ... ... ... : B-3 06 . ... ... ...
ROW 8D : ... .. . ... ... ... : ... .. . ... ... ... : ... .. . ... ... ... : ... .. . ... ... ... : ... .. . ... ... ...
ROW 8E : ... .. . ... ... ... : ... .. . ... ... ... : ... .. . ... ... ... : ... .. . ... ... ... : ... .. . ... ... ...
ROW 8F : ... .. . ... ... ... : ... .. . ... ... ... : ... .. . ... ... ... : ... .. . ... ... ... : ... .. . ... ... ...
ROW 90 : ... .. . ... ... ... : ... .. . ... ... ... : ... .. . ... ... ... : ... .. . ... ... ... : ... .. . ... ... ...
ROW 91 : ... .. . ... ... ... : ... .. . ... ... ... : ... .. . ... ... ... : ... .. . ... ... ... : ... .. . ... ... ...
ROW 92 : ... .. . ... ... ... : ... .. . ... ... ... : ... .. . ... ... ... : ... .. . ... ... ... : ... .. . ... ... ...
ROW 93 : ... .. . ... ... ... : ... .. . ... ... ... : ... .. . ... ... ... : ... .. . ... ... ... : ... .. . ... ... ...
ROW 94 : ... .. . ... ... ... : ... .. . ... ... ... : ... .. . ... ... ... : ... .. . ... ... ... : ... .. . ... ... ...
ROW 95 : ... .. . ... ... ... : ... .. . ... ... ... : ... .. . ... ... ... : ... .. . ... ... ... : ... .. . ... ... ...
ROW 96 : ... .. . ... ... ... : ... .. . ... ... ... : ... .. . ... ... ... : ... .. . ... ... ... : ... .. . ... ... ...
ROW 97 : ... .. . ... ... ... : ... .. . ... ... ... : ... .. . ... ... ... : ... .. . ... ... ... : ... .. . ... ... ...
ROW 98 : ... .. . ... ... ... : ... .. . ... ... ... : ... .. . ... ... ... : ... .. . ... ... ... : ... .. . ... ... ...
ROW 99 : ... .. . ... ... ... : ... .. . ... ... ... : ... .. . ... ... ... : ... .. . ... ... ... : ... .. . ... ... ...
ROW 9A : ... .. . ... ... ... : ... .. . ... ... ... : ... .. . ... ... ... : ... .. . ... ... ... : C-4 06 . ... ... ...
ROW 9B : ... .. . ... ... ... : ... .. . ... ... ... : ... .. . ... ... ... : ... .. . ... ... ... : ... .. . ... ... ...
ROW 9C : ... .. . ... ... ... : ... .. . ... ... ... : ... .. . ... ... ... : ... .. . ... ... ... : ... .. . ... ... ...
ROW 9D : ... .. . ... ... ... : ... .. . ... ... ... : ... .. . ... ... ... : ... .. . ... ... ... : ... .. . ... ... ...
ROW 9E : ... .. . ... ... ... : ... .. . ... ... ... : ... .. . ... ... ... : ... .. . ... ... ... : ... .. . ... ... ...
ROW 9F : ... .. . ... ... ... : ... .. . ... ... ... : ... .. . ... ... ... : ... .. . ... ... ... : ... .. . ... ... ...
ROW A0 : ... .. . ... ... ... : ... .. . ... ... ... : ... .. . ... ... ... : ... .. . ... ... ... : ... .. . ... ... ...
ROW A1 : C#3 01 . ... ... ... : ... .. . ... ... ... : ... .. . ... ... ... : ... .. . ... ... ... : C-4 06 . ... ... ...
ROW A2 : ... .. . ... ... ... : ... .. . ... ... ... : ... .. . ... ... ... : ... .. . ... ... ... : ... .. . ... ... ...
ROW A3 : ... .. . ... ... ... : ... .. . ... ... ... : ... .. . ... ... ... : ... .. . ... ... ... : ... .. . ... ... ...
ROW A4 : ... .. . ... ... ... : ... .. . ... ... ... : ... .. . ... ... ... : ... .. . ... ... ... : ... .. . ... ... ...
ROW A5 : ... .. . ... ... ... : ... .. . ... ... ... : ... .. . ... ... ... : ... .. . ... ... ... : ... .. . ... ... ...
ROW A6 : ... .. . ... ... ... : ... .. . ... ... ... : ... .. . ... ... ... : ... .. . ... ... ... : ... .. . ... ... ...
ROW A7 : ... .. . ... ... ... : ... .. . ... ... ... : ... .. . ... ... ... : ... .. . ... ... ... : ... .. . ... ... ...
ROW A8 : A-2 01 . ... ... ... : ... .. . ... ... ... : ... .. . ... ... ... : ... .. . ... ... ... : B-3 06 . ... ... ...
ROW A9 : ... .. . ... ... ... : ... .. . ... ... ... : ... .. . ... ... ... : ... .. . ... ... ... : ... .. . ... ... ...
ROW AA : ... .. . ... ... ... : ... .. . ... ... ... : ... .. . ... ... ... : ... .. . ... ... ... : ... .. . ... ... ...
ROW AB : ... .. . ... ... ... : ... .. . ... ... ... : ... .. . ... ... ... : ... .. . ... ... ... : ... .. . ... ... ...
ROW AC : ... .. . ... ... ... : ... .. . ... ... ... : ... .. . ... ... ... : ... .. . ... ... ... : ... .. . ... ... ...
ROW AD : ... .. . ... ... ... : ... .. . ... ... ... : ... .. . ... ... ... : ... .. . ... ... ... : ... .. . ... ... ...
ROW AE : --- .. . ... ... ... : ... .. . ... ... ... : ... .. . ... ... ... : ... .. . ... ... ... : ... .. . ... ... ...
ROW AF : ... .. . ... ... ... : ... .. . ... ... ... : ... .. . ... ... ... : ... .. . ... ... ... : ... .. . ... ... ...
ROW B0 : ... .. . ... ... ... : ... .. . ... ... ... : ... .. . ... ... ... : ... .. . ... ... ... : ... .. . ... ... ...
ROW B1 : ... .. . ... ... ... : ... .. . ... ... ... : ... .. . ... ... ... : ... .. . ... ... ... : ... .. . ... ... ...
ROW B2 : ... .. . ... ... ... : ... .. . ... ... ... : ... .. . ... ... ... : ... .. . ... ... ... : ... .. . ... ... ...
ROW B3 : ... .. . ... ... ... : ... .. . ... ... ... : ... .. . ... ... ... : ... .. . ... ... ... : ... .. . ... ... ...
ROW B4 : ... .. . ... ... ... : ... .. . ... ... ... : ... .. . ... ... ... : ... .. . ... ... ... : ... .. . ... ... ...
ROW B5 : ... .. . ... ... ... : ... .. . ... ... ... : ... .. . ... ... ... : ... .. . ... ... ... : ... .. . ... ... ...
ROW B6 : A-2 01 . ... ... ... : ... .. . ... ... ... : ... .. . ... ... ... : ... .. . ... ... ... : D-4 06 . ... ... ...
ROW B7 : ... .. . ... ... ... : ... .. . ... ... ... : ... .. . ... ... ... : ... .. . ... ... ... : ... .. . ... ... ...
ROW B8 : ... .. . ... ... ... : ... .. . ... ... ... : ... .. . ... ... ... : ... .. . ... ... ... : ... .. . ... ... ...
ROW B9 : ... .. . ... ... ... : ... .. . ... ... ... : ... .. . ... ... ... : ... .. . ... ... ... : ... .. . ... ... ...
ROW BA : ... .. . ... ... ... : ... .. . ... ... ... : ... .. . ... ... ... : ... .. . ... ... ... : ... .. . ... ... ...
ROW BB : ... .. . ... ... ... : ... .. . ... ... ... : ... .. . ... ... ... : ... .. . ... ... ... : ... .. . ... ... ...
ROW BC : ... .. . ... ... ... : ... .. . ... ... ... : ... .. . ... ... ... : ... .. . ... ... ... : ... .. . ... ... ...
ROW BD : F#2 01 . ... ... ... : ... .. . ... ... ... : ... .. . ... ... ... : ... .. . ... ... ... : ... .. . ... ... ...
ROW BE : ... .. . ... ... ... : ... .. . ... ... ... : ... .. . ... ... ... : ... .. . ... ... ... : ... .. . ... ... ...
ROW BF : ... .. . ... ... ... : ... .. . ... ... ... : ... .. . ... ... ... : ... .. . ... ... ... : ... .. . ... ... ...
ROW C0 : ... .. . ... ... ... : ... .. . ... ... ... : ... .. . ... ... ... : ... .. . ... ... ... : ... .. . ... ... ...
ROW C1 : ... .. . ... ... ... : ... .. . ... ... ... : ... .. . ... ... ... : ... .. . ... ... ... : ... .. . ... ... ...
ROW C2 : ... .. . ... ... ... : ... .. . ... ... ... : ... .. . ... ... ... : ... .. . ... ... ... : ... .. . ... ... ...
ROW C3 : ... .. . ... ... ... : ... .. . ... ... ... : ... .. . ... ... ... : ... .. . ... ... ... : ... .. . ... ... ...
ROW C4 : C#3 01 . ... ... ... : ... .. . ... ... ... : ... .. . ... ... ... : ... .. . ... ... ... : E-4 06 . ... ... ...
ROW C5 : ... .. . ... ... ... : ... .. . ... ... ... : ... .. . ... ... ... : ... .. . ... ... ... : ... .. . ... ... ...
ROW C6 : ... .. . ... ... ... : ... .. . ... ... ... : ... .. . ... ... ... : ... .. . ... ... ... : ... .. . ... ... ...
ROW C7 : ... .. . ... ... ... : ... .. . ... ... ... : ... .. . ... ... ... : ... .. . ... ... ... : ... .. . ... ... ...
ROW C8 : ... .. . ... ... ... : ... .. . ... ... ... : ... .. . ... ... ... : ... .. . ... ... ... : ... .. . ... ... ...
ROW C9 : ... .. . ... ... ... : ... .. . ... ... ... : ... .. . ... ... ... : ... .. . ... ... ... : ... .. . ... ... ...
ROW CA : ... .. . ... ... ... : ... .. . ... ... ... : ... .. . ... ... ... : ... .. . ... ... ... : ... .. . ... ... ...
ROW CB : ... .. . ... ... ... : ... .. . ... ... ... : ... .. . ... ... ... : ... .. . ... ... ... : E-4 06 . ... ... ...
ROW CC : ... .. . ... ... ... : ... .. . ... ... ... : ... .. . ... ... ... : ... .. . ... ... ... : ... .. . ... ... ...
ROW CD : ... .. . ... ... ... : ... .. . ... ... ... : ... .. . ... ... ... : ... .. . ... ... ... : ... .. . ... ... ...
ROW CE : ... .. . ... ... ... : ... .. . ... ... ... : ... .. . ... ... ... : ... .. . ... ... ... : ... .. . ... ... ...
ROW CF : ... .. . ... ... ... : ... .. . ... ... ... : ... .. . ... ... ... : ... .. . ... ... ... : ... .. . ... ... ...
ROW D0 : ... .. . ... ... ... : ... .. . ... ... ... : ... .. . ... ... ... : ... .. . ... ... ... : ... .. . ... ... ...
ROW D1 : ... .. . ... ... ... : ... .. . ... ... ... : ... .. . ... ... ... : ... .. . ... ... ... : ... .. . ... ... ...
ROW D2 : ... .. . ... ... ... : ... .. . ... ... ... : ... .. . ... ... ... : ... .. . ... ... ... : E-4 06 . ... ... ...
ROW D3 : ... .. . ... ... ... : ... .. . ... ... ... : ... .. . ... ... ... : ... .. . ... ... ... : ... .. . ... ... ...
ROW D4 : ... .. . ... ... ... : ... .. . ... ... ... : ... .. . ... ... ... : ... .. . ... ... ... : ... .. . ... ... ...
ROW D5 : ... .. . ... ... ... : ... .. . ... ... ... : ... .. . ... ... ... : ... .. . ... ... ... : ... .. . ... ... ...
ROW D6 : ... .. . ... ... ... : ... .. . ... ... ... : ... .. . ... ... ... : ... .. . ... ... ... : ... .. . ... ... ...
ROW D7 : ... .. . ... ... ... : ... .. . ... ... ... : ... .. . ... ... ... : ... .. . ... ... ... : ... .. . ... ... ...
ROW D8 : ... .. . ... ... ... : ... .. . ... ... ... : ... .. . ... ... ... : ... .. . ... ... ... : ... .. . ... ... ...
ROW D9 : A-2 01 . ... ... ... : ... .. . ... ... ... : ... .. . ... ... ... : ... .. . ... ... ... : E-4 06 . ... ... ...
ROW DA : ... .. . ... ... ... : ... .. . ... ... ... : ... .. . ... ... ... : ... .. . ... ... ... : ... .. . ... ... ...
ROW DB : ... .. . ... ... ... : ... .. . ... ... ... : ... .. . ... ... ... : ... .. . ... ... ... : ... .. . ... ... ...
ROW DC : ... .. . ... ... ... : ... .. . ... ... ... : ... .. . ... ... ... : ... .. . ... ... ... : ... .. . ... ... ...
ROW DD : ... .. . ... ... ... : ... .. . ... ... ... : ... .. . ... ... ... : ... .. . ... ... ... : ... .. . ... ... ...
ROW DE : ... .. . ... ... ... : ... .. . ... ... ... : ... .. . ... ... ... : ... .. . ... ... ... : ... .. . ... ... ...
ROW DF : --- .. . ... ... ... : ... .. . ... ... ... : ... .. . ... ... ... : ... .. . ... ... ... : --- .. . ... ... ...

PATTERN 07
ROW 00 : B-2 01 . ... ... ... : D-4 04 . ... ... ... : ... .. . ... ... ... : ... .. . ... ... ... : E-4 06 . ... ... ...
ROW 01 : ... .. . ... ... ... : ... .. . ... ... ... : ... .. . ... ... ... : ... .. . ... ... ... : ... .. . ... ... ...
ROW 02 : ... .. . ... ... ... : ... .. . ... ... ... : ... .. . ... ... ... : ... .. . ... ... ... : ... .. . ... ... ...
ROW 03 : ... .. . ... ... ... : ... .. . ... ... ... : ... .. . ... ... ... : ... .. . ... ... ... : ... .. . ... ... ...
ROW 04 : ... .. . ... ... ... : ... .. . ... ... ... : ... .. . ... ... ... : ... .. . ... ... ... : ... .. . ... ... ...
ROW 05 : ... .. . ... ... ... : ... .. . ... ... ... : ... .. . ... ... ... : ... .. . ... ... ... : ... .. . ... ... ...
ROW 06 : ... .. . ... ... ... : ... .. . ... ... ... : ... .. . ... ... ... : ... .. . ... ... ... : ... .. . ... ... ...
ROW 07 : ... .. . ... ... ... : ... .. . ... ... ... : ... .. . ... ... ... : ... .. . ... ... ... : ... .. . ... ... ...
ROW 08 : ... .. . ... ... ... : ... .. . ... ... ... : ... .. . ... ... ... : ... .. . ... ... ... : ... .. . ... ... ...
ROW 09 : ... .. . ... ... ... : ... .. . ... ... ... : ... .. . ... ... ... : ... .. . ... ... ... : ... .. . ... ... ...
ROW 0A : ... .. . ... ... ... : ... .. . ... ... ... : ... .. . ... ... ... : ... .. . ... ... ... : ... .. . ... ... ...
ROW 0B : ... .. . ... ... ... : ... .. . ... ... ... : ... .. . ... ... ... : ... .. . ... ... ... : ... .. . ... ... ...
ROW 0C : ... .. . ... ... ... : ... .. . ... ... ... : ... .. . ... ... ... : ... .. . ... ... ... : ... .. . ... ... ...
ROW 0D : ... .. . ... ... ... : ... .. . ... ... ... : ... .. . ... ... ... : ... .. . ... ... ... : ... .. . ... ... ...
ROW 0E : ... .. . ... ... ... : A-3 04 . ... ... ... : ... .. . ... ... ... : ... .. . ... ... ... : ... .. . ... ... ...
ROW 0F : ... .. . ... ... ... : ... .. . ... ... ... : ... .. . ... ... ... : ... .. . ... ... ... : ... .. . ... ... ...
ROW 10 : ... .. . ... ... ... : ... .. . ... ... ... : ... .. . ... ... ... : ... .. . ... ... ... : ... .. . ... ... ...
ROW 11 : ... .. . ... ... ... : ... .. . ... ... ... : ... .. . ... ... ... : ... .. . ... ... ... : ... .. . ... ... ...
ROW 12 : ... .. . ... ... ... : ... .. . ... ... ... : ... .. . ... ... ... : ... .. . ... ... ... : ... .. . ... ... ...
ROW 13 : ... .. . ... ... ... : ... .. . ... ... ... : ... .. . ... ... ... : ... .. . ... ... ... : ... .. . ... ... ...
ROW 14 : ... .. . ... ... ... : ... .. . ... ... ... : ... .. . ... ... ... : ... .. . ... ... ... : ... .. . ... ... ...
ROW 15 : F#2 01 . ... ... ... : ... .. . ... ... ... : ... .. . ... ... ... : ... .. . ... ... ... : ... .. . ... ... ...
ROW 16 : ... .. . ... ... ... : ... .. . ... ... ... : ... .. . ... ... ... : ... .. . ... ... ... : ... .. . ... ... ...
ROW 17 : ... .. . ... ... ... : ... .. . ... ... ... : ... .. . ... ... ... : ... .. . ... ... ... : ... .. . ... ... ...
ROW 18 : ... .. . ... ... ... : ... .. . ... ... ... : ... .. . ... ... ... : ... .. . ... ... ... : ... .. . ... ... ...
ROW 19 : ... .. . ... ... ... : ... .. . ... ... ... : ... .. . ... ... ... : ... .. . ... ... ... : ... .. . ... ... ...
ROW 1A : ... .. . ... ... ... : ... .. . ... ... ... : ... .. . ... ... ... : ... .. . ... ... ... : ... .. . ... ... ...
ROW 1B : ... .. . ... ... ... : ... .. . ... ... ... : ... .. . ... ... ... : ... .. . ... ... ... : ... .. . ... ... ...
ROW 1C : B-2 01 . ... ... ... : D-4 04 . ... ... ... : ... .. . ... ... ... : ... .. . ... ... ... : ... .. . ... ... ...
ROW 1D : ... .. . ... ... ... : ... .. . ... ... ... : ... .. . ... ... ... : ... .. . ... ... ... : ... .. . ... ... ...
ROW 1E : ... .. . ... ... ... : ... .. . ... ... ... : ... .. . ... ... ... : ... .. . ... ... ... : ... .. . ... ... ...
ROW 1F : ... .. . ... ... ... : ... .. . ... ... ... : ... .. . ... ... ... : ... .. . ... ... ... : ... .. . ... ... ...
ROW 20 : ... .. . ... ... ... : ... .. . ... ... ... : ... .. . ... ... ... : ... .. . ... ... ... : ... .. . ... ... ...
ROW 21 : ... .. . ... ... ... : ... .. . ... ... ... : ... .. . ... ... ... : ... .. . ... ... ... : ... .. . ... ... ...
ROW 22 : ... .. . ... ... ... : ... .. . ... ... ... : ... .. . ... ... ... : ... .. . ... ... ... : ... .. . ... ... ...
ROW 23 : ... .. . ... ... ... : ... .. . ... ... ... : ... .. . ... ... ... : ... .. . ... ... ... : ... .. . ... ... ...
ROW 24 : ... .. . ... ... ... : ... .. . ... ... ... : ... .. . ... ... ... : ... .. . ... ... ... : ... .. . ... ... ...
ROW 25 : ... .. . ... ... ... : ... .. . ... ... ... : ... .. . ... ... ... : ... .. . ... ... ... : ... .. . ... ... ...
ROW 26 : ... .. . ... ... ... : ... .. . ... ... ... : ... .. . ... ... ... : ... .. . ... ... ... : ... .. . ... ... ...
ROW 27 : ... .. . ... ... ... : ... .. . ... ... ... : ... .. . ... ... ... : ... .. . ... ... ... : ... .. . ... ... ...
ROW 28 : ... .. . ... ... ... : ... .. . ... ... ... : ... .. . ... ... ... : ... .. . ... ... ... : ... .. . ... ... ...
ROW 29 : ... .. . ... ... ... : ... .. . ... ... ... : ... .. . ... ... ... : ... .. . ... ... ... : ... .. . ... ... ...
ROW 2A : ... .. . ... ... ... : E-4 04 . ... ... ... : ... .. . ... ... ... : ... .. . ... ... ... : ... .. . ... ... ...
ROW 2B : ... .. . ... ... ... : ... .. . ... ... ... : ... .. . ... ... ... : ... .. . ... ... ... : ... .. . ... ... ...
ROW 2C : ... .. . ... ... ... : ... .. . ... ... ... : ... .. . ... ... ... : ... .. . ... ... ... : ... .. . ... ... ...
ROW 2D : ... .. . ... ... ... : ... .. . ... ... ... : ... .. . ... ... ... : ... .. . ... ... ... : ... .. . ... ... ...
ROW 2E : ... .. . ... ... ... : ... .. . ... ... ... : ... .. . ... ... ... : ... .. . ... ... ... : ... .. . ... ... ...
ROW 2F : ... .. . ... ... ... : ... .. . ... ... ... : ... .. . ... ... ... : ... .. . ... ... ... : ... .. . ... ... ...
ROW 30 : ... .. . ... ... ... : ... .. . ... ... ... : ... .. . ... ... ... : ... .. . ... ... ... : ... .. . ... ... ...
ROW 31 : C#3 01 . ... ... ... : ... .. . ... ... ... : ... .. . ... ... ... : ... .. . ... ... ... : ... .. . ... ... ...
ROW 32 : ... .. . ... ... ... : ... .. . ... ... ... : ... .. . ... ... ... : ... .. . ... ... ... : ... .. . ... ... ...
ROW 33 : ... .. . ... ... ... : ... .. . ... ... ... : ... .. . ... ... ... : ... .. . ... ... ... : ... .. . ... ... ...
ROW 34 : ... .. . ... ... ... : ... .. . ... ... ... : ... .. . ... ... ... : ... .. . ... ... ... : ... .. . ... ... ...
ROW 35 : ... .. . ... ... ... : ... .. . ... ... ... : ... .. . ... ... ... : ... .. . ... ... ... : ... .. . ... ... ...
ROW 36 : ... .. . ... ... ... : ... .. . ... ... ... : ... .. . ... ... ... : ... .. . ... ... ... : ... .. . ... ... ...
ROW 37 : ... .. . ... ... ... : ... .. . ... ... ... : ... .. . ... ... ... : ... .. . ... ... ... : ... .. . ... ... ...
ROW 38 : D-3 01 . ... ... ... : F#4 04 . ... ... ... : ... .. . ... ... ... : ... .. . ... ... ... : D-4 06 . ... ... ...
ROW 39 : ... .. . ... ... ... : ... .. . ... ... ... : ... .. . ... ... ... : ... .. . ... ... ... : ... .. . ... ... ...
ROW 3A : ... .. . ... ... ... : ... .. . ... ... ... : ... .. . ... ... ... : ... .. . ... ... ... : ... .. . ... ... ...
ROW 3B : ... .. . ... ... ... : ... .. . ... ... ... : ... .. . ... ... ... : ... .. . ... ... ... : ... .. . ... ... ...
ROW 3C : ... .. . ... ... ... : ... .. . ... ... ... : ... .. . ... ... ... : ... .. . ... ... ... : ... .. . ... ... ...
ROW 3D : ... .. . ... ... ... : ... .. . ... ... ... : ... .. . ... ... ... : ... .. . ... ... ... : ... .. . ... ... ...
ROW 3E : --- .. . ... ... ... : ... .. . ... ... ... : ... .. . ... ... ... : ... .. . ... ... ... : ... .. . ... ... ...
ROW 3F : ... .. . ... ... ... : ... .. . ... ... ... : ... .. . ... ... ... : ... .. . ... ... ... : D-4 06 . ... ... ...
ROW 40 : ... .. . ... ... ... : ... .. . ... ... ... : ... .. . ... ... ... : ... .. . ... ... ... : ... .. . ... ... ...
ROW 41 : ... .. . ... ... ... : ... .. . ... ... ... : ... .. . ... ... ... : ... .. . ... ... ... : ... .. . ... ... ...
ROW 42 : ... .. . ... ... ... : ... .. . ... ... ... : ... .. . ... ... ... : ... .. . ... ... ... : ... .. . ... ... ...
ROW 43 : ... .. . ... ... ... : ... .. . ... ... ... : ... .. . ... ... ... : ... .. . ... ... ... : ... .. . ... ... ...
ROW 44 : ... .. . ... ... ... : ... .. . ... ... ... : ... .. . ... ... ... : ... .. . ... ... ... : ... .. . ... ... ...
ROW 45 : ... .. . ... ... ... : ... .. . ... ... ... : ... .. . ... ... ... : ... .. . ... ... ... : ... .. . ... ... ...
ROW 46 : D-3 01 . ... ... ... : D-4 04 . ... ... ... : ... .. . ... ... ... : ... .. . ... ... ... : ... .. . ... ... ...
ROW 47 : ... .. . ... ... ... : ... .. . ... ... ... : ... .. . ... ... ... : ... .. . ... ... ... : ... .. . ... ... ...
ROW 48 : ... .. . ... ... ... : ... .. . ... ... ... : ... .. . ... ... ... : ... .. . ... ... ... : ... .. . ... ... ...
ROW 49 : ... .. . ... ... ... : ... .. . ... ... ... : ... .. . ... ... ... : ... .. . ... ... ... : ... .. . ... ... ...
ROW 4A : ... .. . ... ... ... : ... .. . ... ... ... : ... .. . ... ... ... : ... .. . ... ... ... : ... .. . ... ... ...
ROW 4B : ... .. . ... ... ... : ... .. . ... ... ... : ... .. . ... ... ... : ... .. . ... ... ... : ... .. . ... ... ...
ROW 4C : ... .. . ... ... ... : ... .. . ... ... ... : ... .. . ... ... ... : ... .. . ... ... ... : ... .. . ... ... ...
ROW 4D : B-2 01 . ... ... ... : ... .. . ... ... ... : ... .. . ... ... ... : ... .. . ... ... ... : ... .. . ... ... ...
ROW 4E : ... .. . ... ... ... : ... .. . ... ... ... : ... .. . ... ... ... : ... .. . ... ... ... : ... .. . ... ... ...
ROW 4F : ... .. . ... ... ... : ... .. . ... ... ... : ... .. . ... ... ... : ... .. . ... ... ... : ... .. . ... ... ...
ROW 50 : ... .. . ... ... ... : ... .. . ... ... ... : ... .. . ... ... ... : ... .. . ... ... ... : ... .. . ... ... ...
ROW 51 : ... .. . ... ... ... : ... .. . ... ... ... : ... .. . ... ... ... : ... .. . ... ... ... : ... .. . ... ... ...
ROW 52 : ... .. . ... ... ... : ... .. . ... ... ... : ... .. . ... ... ... : ... .. . ... ... ... : ... .. . ... ... ...
ROW 53 : ... .. . ... ... ... : ... .. . ... ... ... : ... .. . ... ... ... : ... .. . ... ... ... : ... .. . ... ... ...
ROW 54 : D-3 01 . ... ... ... : A-4 04 . ... ... ... : ... .. . ... ... ... : ... .. . ... ... ... : ... .. . ... ... ...
ROW 55 : ... .. . ... ... ... : ... .. . ... ... ... : ... .. . ... ... ... : ... .. . ... ... ... : ... .. . ... ... ...
ROW 56 : ... .. . ... ... ... : ... .. . ... ... ... : ... .. . ... ... ... : ... .. . ... ... ... : ... .. . ... ... ...
ROW 57 : ... .. . ... ... ... : ... .. . ... ... ... : ... .. . ... ... ... : ... .. . ... ... ... : ... .. . ... ... ...
ROW 58 : ... .. . ... ... ... : ... .. . ... ... ... : ... .. . ... ... ... : ... .. . ... ... ... : ... .. . ... ... ...
ROW 59 : ... .. . ... ... ... : ... .. . ... ... ... : ... .. . ... ... ... : ... .. . ... ... ... : ... .. . ... ... ...
ROW 5A : ... .. . ... ... ... : ... .. . ... ... ... : ... .. . ... ... ... : ... .. . ... ... ... : ... .. . ... ... ...
ROW 5B : ... .. . ... ... ... : ... .. . ... ... ... : ... .. . ... ... ... : ... .. . ... ... ... : ... .. . ... ... ...
ROW 5C : ... .. . ... ... ... : ... .. . ... ... ... : ... .. . ... ... ... : ... .. . ... ... ... : ... .. . ... ... ...
ROW 5D : ... .. . ... ... ... : ... .. . ... ... ... : ... .. . ... ... ... : ... .. . ... ... ... : ... .. . ... ... ...
ROW 5E : ... .. . ... ... ... : ... .. . ... ... ... : ... .. . ... ... ... : ... .. . ... ... ... : ... .. . ... ... ...
ROW 5F : ... .. . ... ... ... : ... .. . ... ... ... : ... .. . ... ... ... : ... .. . ... ... ... : ... .. . ... ... ...
ROW 60 : ... .. . ... ... ... : ... .. . ... ... ... : ... .. . ... ... ... : ... .. . ... ... ... : ... .. . ... ... ...
ROW 61 : ... .. . ... ... ... : ... .. . ... ... ... : ... .. . ... ... ... : ... .. . ... ... ... : ... .. . ... ... ...
ROW 62 : ... .. . ... ... ... : ... .. . ... ... ... : ... .. . ... ... ... : ... .. . ... ... ... : ... .. . ... ... ...
ROW 63 : ... .. . ... ... ... : ... .. . ... ... ... : ... .. . ... ... ... : ... .. . ... ... ... : ... .. . ... ... ...
ROW 64 : ... .. . ... ... ... : ... .. . ... ... ... : ... .. . ... ... ... : ... .. . ... ... ... : ... .. . ... ... ...
ROW 65 : ... .. . ... ... ... : ... .. . ... ... ... : ... .. . ... ... ... : ... .. . ... ... ... : ... .. . ... ... ...
ROW 66 : ... .. . ... ... ... : ... .. . ... ... ... : ... .. . ... ... ... : ... .. . ... ... ... : ... .. . ... ... ...
ROW 67 : ... .. . ... ... ... : ... .. . ... ... ... : ... .. . ... ... ... : ... .. . ... ... ... : ... .. . ... ... ...
ROW 68 : ... .. . ... ... ... : ... .. . ... ... ... : ... .. . ... ... ... : ... .. . ... ... ... : ... .. . ... ... ...
ROW 69 : F#3 01 . ... ... ... : E-4 04 . ... ... ... : ... .. . ... ... ... : ... .. . ... ... ... : ... .. . ... ... ...
ROW 6A : ... .. . ... ... ... : ... .. . ... ... ... : ... .. . ... ... ... : ... .. . ... ... ... : ... .. . ... ... ...
ROW 6B : ... .. . ... ... ... : ... .. . ... ... ... : ... .. . ... ... ... : ... .. . ... ... ... : ... .. . ... ... ...
ROW 6C : ... .. . ... ... ... : ... .. . ... ... ... : ... .. . ... ... ... : ... .. . ... ... ... : ... .. . ... ... ...
ROW 6D : ... .. . ... ... ... : ... .. . ... ... ... : ... .. . ... ... ... : ... .. . ... ... ... : ... .. . ... ... ...
ROW 6E : ... .. . ... ... ... : ... .. . ... ... ... : ... .. . ... ... ... : ... .. . ... ... ... : ... .. . ... ... ...
ROW 6F : ... .. . ... ... ... : ... .. . ... ... ... : ... .. . ... ... ... : ... .. . ... ... ... : ... .. . ... ... ...
ROW 70 : A-3 01 . ... ... ... : C#4 04 . ... ... ... : ... .. . ... ... ... : ... .. . ... ... ... : E-4 06 . ... ... ...
ROW 71 : ... .. . ... ... ... : ... .. . ... ... ... : ... .. . ... ... ... : ... .. . ... ... ... : ... .. . ... ... ...
ROW 72 : ... .. . ... ... ... : ... .. . ... ... ... : ... .. . ... ... ... : ... .. . ... ... ... : ... .. . ... ... ...
ROW 73 : ... .. . ... ... ... : ... .. . ... ... ... : ... .. . ... ... ... : ... .. . ... ... ... : ... .. . ... ... ...
ROW 74 : ... .. . ... ... ... : ... .. . ... ... ... : ... .. . ... ... ... : ... .. . ... ... ... : ... .. . ... ... ...
ROW 75 : ... .. . ... ... ... : ... .. . ... ... ... : ... .. . ... ... ... : ... .. . ... ... ... : ... .. . ... ... ...
ROW 76 : ... .. . ... ... ... : ... .. . ... ... ... : ... .. . ... ... ... : ... .. . ... ... ... : ... .. . ... ... ...
ROW 77 : ... .. . ... ... ... : ... .. . ... ... ... : ... .. . ... ... ... : ... .. . ... ... ... : ... .. . ... ... ...
ROW 78 : ... .. . ... ... ... : ... .. . ... ... ... : ... .. . ... ... ... : ... .. . ... ... ... : ... .. . ... ... ...
ROW 79 : ... .. . ... ... ... : ... .. . ... ... ... : ... .. . ... ... ... : ... .. . ... ... ... : ... .. . ... ... ...
ROW 7A : ... .. . ... ... ... : ... .. . ... ... ... : ... .. . ... ... ... : ... .. . ... ... ... : ... .. . ... ... ...
ROW 7B : ... .. . ... ... ... : ... .. . ... ... ... : ... .. . ... ... ... : ... .. . ... ... ... : ... .. . ... ... ...
ROW 7C : ... .. . ... ... ... : ... .. . ... ... ... : ... .. . ... ... ... : ... .. . ... ... ... : ... .. . ... ... ...
ROW 7D : ... .. . ... ... ... : ... .. . ... ... ... : ... .. . ... ... ... : ... .. . ... ... ... : ... .. . ... ... ...
ROW 7E : ... .. . ... ... ... : ... .. . ... ... ... : ... .. . ... ... ... : ... .. . ... ... ... : ... .. . ... ... ...
ROW 7F : ... .. . ... ... ... : ... .. . ... ... ... : ... .. . ... ... ... : ... .. . ... ... ... : ... .. . ... ... ...
ROW 80 : ... .. . ... ... ... : ... .. . ... ... ... : ... .. . ... ... ... : ... .. . ... ... ... : ... .. . ... ... ...
ROW 81 : ... .. . ... ... ... : ... .. . ... ... ... : ... .. . ... ... ... : ... .. . ... ... ... : ... .. . ... ... ...
ROW 82 : ... .. . ... ... ... : ... .. . ... ... ... : ... .. . ... ... ... : ... .. . ... ... ... : ... .. . ... ... ...
ROW 83 : ... .. . ... ... ... : ... .. . ... ... ... : ... .. . ... ... ... : ... .. . ... ... ... : ... .. . ... ... ...
ROW 84 : ... .. . ... ... ... : ... .. . ... ... ... : ... .. . ... ... ... : ... .. . ... ... ... : ... .. . ... ... ...
ROW 85 : F#3 01 . ... ... ... : ... .. . ... ... ... : ... .. . ... ... ... : ... .. . ... ... ... : ... .. . ... ... ...
ROW 86 : ... .. . ... ... ... : ... .. . ... ... ... : ... .. . ... ... ... : ... .. . ... ... ... : ... .. . ... ... ...
ROW 87 : ... .. . ... ... ... : ... .. . ... ... ... : ... .. . ... ... ... : ... .. . ... ... ... : ... .. . ... ... ...
ROW 88 : ... .. . ... ... ... : ... .. . ... ... ... : ... .. . ... ... ... : ... .. . ... ... ... : ... .. . ... ... ...
ROW 89 : ... .. . ... ... ... : ... .. . ... ... ... : ... .. . ... ... ... : ... .. . ... ... ... : ... .. . ... ... ...
ROW 8A : ... .. . ... ... ... : ... .. . ... ... ... : ... .. . ... ... ... : ... .. . ... ... ... : ... .. . ... ... ...
ROW 8B : ... .. . ... ... ... : ... .. . ... ... ... : ... .. . ... ... ... : ... .. . ... ... ... : ... .. . ... ... ...
ROW 8C : E-3 01 . ... ... ... : ... .. . ... ... ... : ... .. . ... ... ... : ... .. . ... ... ... : ... .. . ... ... ...
ROW 8D : ... .. . ... ... ... : ... .. . ... ... ... : ... .. . ... ... ... : ... .. . ... ... ... : ... .. . ... ... ...
ROW 8E : ... .. . ... ... ... : ... .. . ... ... ... : ... .. . ... ... ... : ... .. . ... ... ... : ... .. . ... ... ...
ROW 8F : ... .. . ... ... ... : ... .. . ... ... ... : ... .. . ... ... ... : ... .. . ... ... ... : ... .. . ... ... ...
ROW 90 : ... .. . ... ... ... : ... .. . ... ... ... : ... .. . ... ... ... : ... .. . ... ... ... : ... .. . ... ... ...
ROW 91 : ... .. . ... ... ... : ... .. . ... ... ... : ... .. . ... ... ... : ... .. . ... ... ... : ... .. . ... ... ...
ROW 92 : ... .. . ... ... ... : ... .. . ... ... ... : ... .. . ... ... ... : ... .. . ... ... ... : ... .. . ... ... ...
ROW 93 : ... .. . ... ... ... : ... .. . ... ... ... : ... .. . ... ... ... : ... .. . ... ... ... : ... .. . ... ... ...
ROW 94 : ... .. . ... ... ... : ... .. . ... ... ... : ... .. . ... ... ... : ... .. . ... ... ... : ... .. . ... ... ...
ROW 95 : ... .. . ... ... ... : ... .. . ... ... ... : ... .. . ... ... ... : ... .. . ... ... ... : ... .. . ... ... ...
ROW 96 : ... .. . ... ... ... : ... .. . ... ... ... : ... .. . ... ... ... : ... .. . ... ... ... : ... .. . ... ... ...
ROW 97 : ... .. . ... ... ... : ... .. . ... ... ... : ... .. . ... ... ... : ... .. . ... ... ... : ... .. . ... ... ...
ROW 98 : ... .. . ... ... ... : ... .. . ... ... ... : ... .. . ... ... ... : ... .. . ... ... ... : ... .. . ... ... ...
ROW 99 : ... .. . ... ... ... : ... .. . ... ... ... : ... .. . ... ... ... : ... .. . ... ... ... : ... .. . ... ... ...
ROW 9A : ... .. . ... ... ... : ... .. . ... ... ... : ... .. . ... ... ... : ... .. . ... ... ... : ... .. . ... ... ...
ROW 9B : ... .. . ... ... ... : ... .. . ... ... ... : ... .. . ... ... ... : ... .. . ... ... ... : ... .. . ... ... ...
ROW 9C : ... .. . ... ... ... : ... .. . ... ... ... : ... .. . ... ... ... : ... .. . ... ... ... : ... .. . ... ... ...
ROW 9D : ... .. . ... ... ... : ... .. . ... ... ... : ... .. . ... ... ... : ... .. . ... ... ... : ... .. . ... ... ...
ROW 9E : ... .. . ... ... ... : ... .. . ... ... ... : ... .. . ... ... ... : ... .. . ... ... ... : ... .. . ... ... ...
ROW 9F : ... .. . ... ... ... : ... .. . ... ... ... : ... .. . ... ... ... : ... .. . ... ... ... : ... .. . ... ... ...
ROW A0 : ... .. . ... ... ... : ... .. . ... ... ... : ... .. . ... ... ... : ... .. . ... ... ... : ... .. . ... ... ...
ROW A1 : F#3 01 . ... ... ... : ... .. . ... ... ... : ... .. . ... ... ... : ... .. . ... ... ... : ... .. . ... ... ...
ROW A2 : ... .. . ... ... ... : ... .. . ... ... ... : ... .. . ... ... ... : ... .. . ... ... ... : ... .. . ... ... ...
ROW A3 : ... .. . ... ... ... : ... .. . ... ... ... : ... .. . ... ... ... : ... .. . ... ... ... : ... .. . ... ... ...
ROW A4 : ... .. . ... ... ... : ... .. . ... ... ... : ... .. . ... ... ... : ... .. . ... ... ... : ... .. . ... ... ...
ROW A5 : ... .. . ... ... ... : ... .. . ... ... ... : ... .. . ... ... ... : ... .. . ... ... ... : ... .. . ... ... ...
ROW A6 : ... .. . ... ... ... : ... .. . ... ... ... : ... .. . ... ... ... : ... .. . ... ... ... : ... .. . ... ... ...
ROW A7 : ... .. . ... ... ... : ... .. . ... ... ... : ... .. . ... ... ... : ... .. . ... ... ... : ... .. . ... ... ...
ROW A8 : C#3 01 . ... ... ... : ... .. . ... ... ... : ... .. . ... ... ... : ... .. . ... ... ... : C-4 06 . ... ... ...
ROW A9 : ... .. . ... ... ... : ... .. . ... ... ... : ... .. . ... ... ... : ... .. . ... ... ... : ... .. . ... ... ...
ROW AA : ... .. . ... ... ... : ... .. . ... ... ... : ... .. . ... ... ... : ... .. . ... ... ... : ... .. . ... ... ...
ROW AB : ... .. . ... ... ... : ... .. . ... ... ... : ... .. . ... ... ... : ... .. . ... ... ... : ... .. . ... ... ...
ROW AC : ... .. . ... ... ... : ... .. . ... ... ... : ... .. . ... ... ... : ... .. . ... ... ... : ... .. . ... ... ...
ROW AD : ... .. . ... ... ... : ... .. . ... ... ... : ... .. . ... ... ... : ... .. . ... ... ... : ... .. . ... ... ...
ROW AE : --- .. . ... ... ... : ... .. . ... ... ... : ... .. . ... ... ... : ... .. . ... ... ... : ... .. . ... ... ...
ROW AF : ... .. . ... ... ... : ... .. . ... ... ... : ... .. . ... ... ... : ... .. . ... ... ... : ... .. . ... ... ...
ROW B0 : ... .. . ... ... ... : ... .. . ... ... ... : ... .. . ... ... ... : ... .. . ... ... ... : ... .. . ... ... ...
ROW B1 : ... .. . ... ... ... : ... .. . ... ... ... : ... .. . ... ... ... : ... .. . ... ... ... : ... .. . ... ... ...
ROW B2 : ... .. . ... ... ... : ... .. . ... ... ... : ... .. . ... ... ... : ... .. . ... ... ... : ... .. . ... ... ...
ROW B3 : ... .. . ... ... ... : ... .. . ... ... ... : ... .. . ... ... ... : ... .. . ... ... ... : ... .. . ... ... ...
ROW B4 : ... .. . ... ... ... : ... .. . ... ... ... : ... .. . ... ... ... : ... .. . ... ... ... : ... .. . ... ... ...
ROW B5 : ... .. . ... ... ... : ... .. . ... ... ... : ... .. . ... ... ... : ... .. . ... ... ... : ... .. . ... ... ...
ROW B6 : C#3 01 . ... ... ... : ... .. . ... ... ... : ... .. . ... ... ... : ... .. . ... ... ... : ... .. . ... ... ...
ROW B7 : ... .. . ... ... ... : ... .. . ... ... ... : ... .. . ... ... ... : ... .. . ... ... ... : ... .. . ... ... ...
ROW B8 : ... .. . ... ... ... : ... .. . ... ... ... : ... .. . ... ... ... : ... .. . ... ... ... : ... .. . ... ... ...
ROW B9 : ... .. . ... ... ... : ... .. . ... ... ... : ... .. . ... ... ... : ... .. . ... ... ... : ... .. . ... ... ...
ROW BA : ... .. . ... ... ... : ... .. . ... ... ... : ... .. . ... ... ... : ... .. . ... ... ... : ... .. . ... ... ...
ROW BB : ... .. . ... ... ... : ... .. . ... ... ... : ... .. . ... ... ... : ... .. . ... ... ... : ... .. . ... ... ...
ROW BC : ... .. . ... ... ... : ... .. . ... ... ... : ... .. . ... ... ... : ... .. . ... ... ... : ... .. . ... ... ...
ROW BD : B-2 01 . ... ... ... : ... .. . ... ... ... : ... .. . ... ... ... : ... .. . ... ... ... : ... .. . ... ... ...
ROW BE : ... .. . ... ... ... : ... .. . ... ... ... : ... .. . ... ... ... : ... .. . ... ... ... : ... .. . ... ... ...
ROW BF : ... .. . ... ... ... : ... .. . ... ... ... : ... .. . ... ... ... : ... .. . ... ... ... : ... .. . ... ... ...
ROW C0 : ... .. . ... ... ... : ... .. . ... ... ... : ... .. . ... ... ... : ... .. . ... ... ... : ... .. . ... ... ...
ROW C1 : ... .. . ... ... ... : ... .. . ... ... ... : ... .. . ... ... ... : ... .. . ... ... ... : ... .. . ... ... ...
ROW C2 : ... .. . ... ... ... : ... .. . ... ... ... : ... .. . ... ... ... : ... .. . ... ... ... : ... .. . ... ... ...
ROW C3 : ... .. . ... ... ... : ... .. . ... ... ... : ... .. . ... ... ... : ... .. . ... ... ... : ... .. . ... ... ...
ROW C4 : A-2 01 . ... ... ... : F#2 01 . ... ... ... : ... .. . ... ... ... : ... .. . ... ... ... : ... .. . ... ... ...
ROW C5 : ... .. . ... ... ... : ... .. . ... ... ... : ... .. . ... ... ... : ... .. . ... ... ... : ... .. . ... ... ...
ROW C6 : ... .. . ... ... ... : ... .. . ... ... ... : ... .. . ... ... ... : ... .. . ... ... ... : ... .. . ... ... ...
ROW C7 : ... .. . ... ... ... : ... .. . ... ... ... : ... .. . ... ... ... : ... .. . ... ... ... : ... .. . ... ... ...
ROW C8 : ... .. . ... ... ... : ... .. . ... ... ... : ... .. . ... ... ... : ... .. . ... ... ... : ... .. . ... ... ...
ROW C9 : ... .. . ... ... ... : ... .. . ... ... ... : ... .. . ... ... ... : ... .. . ... ... ... : ... .. . ... ... ...
ROW CA : ... .. . ... ... ... : ... .. . ... ... ... : ... .. . ... ... ... : ... .. . ... ... ... : ... .. . ... ... ...
ROW CB : ... .. . ... ... ... : E-2 01 . ... ... ... : ... .. . ... ... ... : ... .. . ... ... ... : ... .. . ... ... ...
ROW CC : ... .. . ... ... ... : ... .. . ... ... ... : ... .. . ... ... ... : ... .. . ... ... ... : ... .. . ... ... ...
ROW CD : ... .. . ... ... ... : ... .. . ... ... ... : ... .. . ... ... ... : ... .. . ... ... ... : ... .. . ... ... ...
ROW CE : ... .. . ... ... ... : ... .. . ... ... ... : ... .. . ... ... ... : ... .. . ... ... ... : ... .. . ... ... ...
ROW CF : ... .. . ... ... ... : ... .. . ... ... ... : ... .. . ... ... ... : ... .. . ... ... ... : ... .. . ... ... ...
ROW D0 : ... .. . ... ... ... : ... .. . ... ... ... : ... .. . ... ... ... : ... .. . ... ... ... : ... .. . ... ... ...
ROW D1 : ... .. . ... ... ... : ... .. . ... ... ... : ... .. . ... ... ... : ... .. . ... ... ... : ... .. . ... ... ...
ROW D2 : ... .. . ... ... ... : D-2 01 . ... ... ... : ... .. . ... ... ... : ... .. . ... ... ... : C-4 06 . ... ... ...
ROW D3 : ... .. . ... ... ... : ... .. . ... ... ... : ... .. . ... ... ... : ... .. . ... ... ... : ... .. . ... ... ...
ROW D4 : ... .. . ... ... ... : ... .. . ... ... ... : ... .. . ... ... ... : ... .. . ... ... ... : ... .. . ... ... ...
ROW D5 : ... .. . ... ... ... : ... .. . ... ... ... : ... .. . ... ... ... : ... .. . ... ... ... : ... .. . ... ... ...
ROW D6 : ... .. . ... ... ... : ... .. . ... ... ... : ... .. . ... ... ... : ... .. . ... ... ... : ... .. . ... ... ...
ROW D7 : ... .. . ... ... ... : ... .. . ... ... ... : ... .. . ... ... ... : ... .. . ... ... ... : ... .. . ... ... ...
ROW D8 : ... .. . ... ... ... : ... .. . ... ... ... : ... .. . ... ... ... : ... .. . ... ... ... : ... .. . ... ... ...
ROW D9 : ... .. . ... ... ... : C#2 01 . ... ... ... : ... .. . ... ... ... : ... .. . ... ... ... : C-4 06 . ... ... ...
ROW DA : ... .. . ... ... ... : ... .. . ... ... ... : ... .. . ... ... ... : ... .. . ... ... ... : ... .. . ... ... ...
ROW DB : ... .. . ... ... ... : ... .. . ... ... ... : ... .. . ... ... ... : ... .. . ... ... ... : ... .. . ... ... ...
ROW DC : ... .. . ... ... ... : ... .. . ... ... ... : ... .. . ... ... ... : ... .. . ... ... ... : ... .. . ... ... ...
ROW DD : ... .. . ... ... ... : ... .. . ... ... ... : ... .. . ... ... ... : ... .. . ... ... ... : ... .. . ... ... ...
ROW DE : ... .. . ... ... ... : ... .. . ... ... ... : ... .. . ... ... ... : ... .. . ... ... ... : ... .. . ... ... ...
ROW DF : --- .. . ... ... ... : ... .. . B00 ... ... : ... .. . ... ... ... : ... .. . ... ... ... : ... .. . ... ... ...

PATTERN 08
ROW 00 : B-3 04 . ... ... ... : ... .. . ... ... ... : ... .. . ... ... ... : ... .. . ... ... ... : E-4 06 . ... ... ...
ROW 01 : ... .. . ... ... ... : ... .. . ... ... ... : ... .. . ... ... ... : ... .. . ... ... ... : ... .. . ... ... ...
ROW 02 : C#4 04 . ... ... ... : ... .. . ... ... ... : ... .. . ... ... ... : ... .. . ... ... ... : ... .. . ... ... ...
ROW 03 : ... .. . ... ... ... : ... .. . ... ... ... : ... .. . ... ... ... : ... .. . ... ... ... : ... .. . ... ... ...
ROW 04 : B-3 04 . ... ... ... : ... .. . ... ... ... : ... .. . ... ... ... : ... .. . ... ... ... : ... .. . ... ... ...
ROW 05 : ... .. . ... ... ... : ... .. . ... ... ... : ... .. . ... ... ... : ... .. . ... ... ... : ... .. . ... ... ...
ROW 06 : ... .. . ... ... ... : ... .. . ... ... ... : ... .. . ... ... ... : ... .. . ... ... ... : ... .. . ... ... ...
ROW 07 : ... .. . ... ... ... : ... .. . ... ... ... : ... .. . ... ... ... : ... .. . ... ... ... : ... .. . ... ... ...
ROW 08 : ... .. . ... ... ... : ... .. . ... ... ... : ... .. . ... ... ... : ... .. . ... ... ... : ... .. . ... ... ...
ROW 09 : ... .. . ... ... ... : ... .. . ... ... ... : ... .. . ... ... ... : ... .. . ... ... ... : ... .. . ... ... ...
ROW 0A : ... .. . ... ... ... : ... .. . ... ... ... : ... .. . ... ... ... : ... .. . ... ... ... : ... .. . ... ... ...
ROW 0B : ... .. . ... ... ... : ... .. . ... ... ... : ... .. . ... ... ... : ... .. . ... ... ... : ... .. . ... ... ...
ROW 0C : ... .. . ... ... ... : ... .. . ... ... ... : ... .. . ... ... ... : ... .. . ... ... ... : ... .. . ... ... ...
ROW 0D : ... .. . ... ... ... : ... .. . ... ... ... : ... .. . ... ... ... : ... .. . ... ... ... : ... .. . ... ... ...
ROW 0E : ... .. . ... ... ... : ... .. . ... ... ... : ... .. . ... ... ... : ... .. . ... ... ... : ... .. . ... ... ...
ROW 0F : ... .. . ... ... ... : ... .. . ... ... ... : ... .. . ... ... ... : ... .. . ... ... ... : ... .. . ... ... ...
ROW 10 : ... .. . ... ... ... : ... .. . ... ... ... : ... .. . ... ... ... : ... .. . ... ... ... : ... .. . ... ... ...
ROW 11 : ... .. . ... ... ... : ... .. . ... ... ... : ... .. . ... ... ... : ... .. . ... ... ... : ... .. . ... ... ...
ROW 12 : ... .. . ... ... ... : ... .. . ... ... ... : ... .. . ... ... ... : ... .. . ... ... ... : ... .. . ... ... ...
ROW 13 : ... .. . ... ... ... : ... .. . ... ... ... : ... .. . ... ... ... : ... .. . ... ... ... : ... .. . ... ... ...
ROW 14 : ... .. . ... ... ... : ... .. . ... ... ... : ... .. . ... ... ... : ... .. . ... ... ... : ... .. . ... ... ...
ROW 15 : F#3 04 . ... ... ... : ... .. . ... ... ... : ... .. . ... ... ... : ... .. . ... ... ... : ... .. . ... ... ...
ROW 16 : ... .. . ... ... ... : ... .. . ... ... ... : ... .. . ... ... ... : ... .. . ... ... ... : ... .. . ... ... ...
ROW 17 : ... .. . ... ... ... : ... .. . ... ... ... : ... .. . ... ... ... : ... .. . ... ... ... : ... .. . ... ... ...
ROW 18 : ... .. . ... ... ... : ... .. . ... ... ... : ... .. . ... ... ... : ... .. . ... ... ... : ... .. . ... ... ...
ROW 19 : ... .. . ... ... ... : ... .. . ... ... ... : ... .. . ... ... ... : ... .. . ... ... ... : ... .. . ... ... ...
ROW 1A : ... .. . ... ... ... : ... .. . ... ... ... : ... .. . ... ... ... : ... .. . ... ... ... : ... .. . ... ... ...
ROW 1B : ... .. . ... ... ... : ... .. . ... ... ... : ... .. . ... ... ... : ... .. . ... ... ... : ... .. . ... ... ...
ROW 1C : A-3 04 . ... ... ... : ... .. . ... ... ... : ... .. . ... ... ... : ... .. . ... ... ... : ... .. . ... ... ...
ROW 1D : ... .. . ... ... ... : ... .. . ... ... ... : ... .. . ... ... ... : ... .. . ... ... ... : ... .. . ... ... ...
ROW 1E : B-3 04 . ... ... ... : ... .. . ... ... ... : ... .. . ... ... ... : ... .. . ... ... ... : ... .. . ... ... ...
ROW 1F : ... .. . ... ... ... : ... .. . ... ... ... : ... .. . ... ... ... : ... .. . ... ... ... : ... .. . ... ... ...
ROW 20 : ... .. . ... ... ... : ... .. . ... ... ... : ... .. . ... ... ... : ... .. . ... ... ... : ... .. . ... ... ...
ROW 21 : ... .. . ... ... ... : ... .. . ... ... ... : ... .. . ... ... ... : ... .. . ... ... ... : ... .. . ... ... ...
ROW 22 : ... .. . ... ... ... : ... .. . ... ... ... : ... .. . ... ... ... : ... .. . ... ... ... : ... .. . ... ... ...
ROW 23 : ... .. . ... ... ... : ... .. . ... ... ... : ... .. . ... ... ... : ... .. . ... ... ... : ... .. . ... ... ...
ROW 24 : ... .. . ... ... ... : ... .. . ... ... ... : ... .. . ... ... ... : ... .. . ... ... ... : ... .. . ... ... ...
ROW 25 : ... .. . ... ... ... : ... .. . ... ... ... : ... .. . ... ... ... : ... .. . ... ... ... : ... .. . ... ... ...
ROW 26 : ... .. . ... ... ... : ... .. . ... ... ... : ... .. . ... ... ... : ... .. . ... ... ... : ... .. . ... ... ...
ROW 27 : ... .. . ... ... ... : ... .. . ... ... ... : ... .. . ... ... ... : ... .. . ... ... ... : ... .. . ... ... ...
ROW 28 : ... .. . ... ... ... : ... .. . ... ... ... : ... .. . ... ... ... : ... .. . ... ... ... : ... .. . ... ... ...
ROW 29 : ... .. . ... ... ... : ... .. . ... ... ... : ... .. . ... ... ... : ... .. . ... ... ... : ... .. . ... ... ...
ROW 2A : ... .. . ... ... ... : ... .. . ... ... ... : ... .. . ... ... ... : ... .. . ... ... ... : ... .. . ... ... ...
ROW 2B : ... .. . ... ... ... : ... .. . ... ... ... : ... .. . ... ... ... : ... .. . ... ... ... : ... .. . ... ... ...
ROW 2C : ... .. . ... ... ... : ... .. . ... ... ... : ... .. . ... ... ... : ... .. . ... ... ... : ... .. . ... ... ...
ROW 2D : ... .. . ... ... ... : ... .. . ... ... ... : ... .. . ... ... ... : ... .. . ... ... ... : ... .. . ... ... ...
ROW 2E : ... .. . ... ... ... : ... .. . ... ... ... : ... .. . ... ... ... : ... .. . ... ... ... : ... .. . ... ... ...
ROW 2F : ... .. . ... ... ... : ... .. . ... ... ... : ... .. . ... ... ... : ... .. . ... ... ... : ... .. . ... ... ...
ROW 30 : ... .. . ... ... ... : ... .. . ... ... ... : ... .. . ... ... ... : ... .. . ... ... ... : ... .. . ... ... ...
ROW 31 : C#4 04 . ... ... ... : ... .. . ... ... ... : ... .. . ... ... ... : ... .. . ... ... ... : ... .. . ... ... ...
ROW 32 : ... .. . ... ... ... : ... .. . ... ... ... : ... .. . ... ... ... : ... .. . ... ... ... : ... .. . ... ... ...
ROW 33 : ... .. . ... ... ... : ... .. . ... ... ... : ... .. . ... ... ... : ... .. . ... ... ... : ... .. . ... ... ...
ROW 34 : ... .. . ... ... ... : ... .. . ... ... ... : ... .. . ... ... ... : ... .. . ... ... ... : ... .. . ... ... ...
ROW 35 : ... .. . ... ... ... : ... .. . ... ... ... : ... .. . ... ... ... : ... .. . ... ... ... : ... .. . ... ... ...
ROW 36 : ... .. . ... ... ... : ... .. . ... ... ... : ... .. . ... ... ... : ... .. . ... ... ... : ... .. . ... ... ...
ROW 37 : ... .. . ... ... ... : ... .. . ... ... ... : ... .. . ... ... ... : ... .. . ... ... ... : ... .. . ... ... ...
ROW 38 : B-3 04 . ... ... ... : ... .. . ... ... ... : ... .. . ... ... ... : ... .. . ... ... ... : D-4 06 . ... ... ...
ROW 39 : ... .. . ... ... ... : ... .. . ... ... ... : ... .. . ... ... ... : ... .. . ... ... ... : ... .. . ... ... ...
ROW 3A : D-4 04 . ... ... ... : ... .. . ... ... ... : ... .. . ... ... ... : ... .. . ... ... ... : ... .. . ... ... ...
ROW 3B : ... .. . ... ... ... : ... .. . ... ... ... : ... .. . ... ... ... : ... .. . ... ... ... : ... .. . ... ... ...
ROW 3C : ... .. . ... ... ... : ... .. . ... ... ... : ... .. . ... ... ... : ... .. . ... ... ... : ... .. . ... ... ...
ROW 3D : ... .. . ... ... ... : ... .. . ... ... ... : ... .. . ... ... ... : ... .. . ... ... ... : ... .. . ... ... ...
ROW 3E : --- .. . ... ... ... : ... .. . ... ... ... : ... .. . ... ... ... : ... .. . ... ... ... : ... .. . ... ... ...
ROW 3F : ... .. . ... ... ... : ... .. . ... ... ... : ... .. . ... ... ... : ... .. . ... ... ... : D-4 06 . ... ... ...
ROW 40 : ... .. . ... ... ... : ... .. . ... ... ... : ... .. . ... ... ... : ... .. . ... ... ... : ... .. . ... ... ...
ROW 41 : ... .. . ... ... ... : ... .. . ... ... ... : ... .. . ... ... ... : ... .. . ... ... ... : ... .. . ... ... ...
ROW 42 : ... .. . ... ... ... : ... .. . ... ... ... : ... .. . ... ... ... : ... .. . ... ... ... : ... .. . ... ... ...
ROW 43 : ... .. . ... ... ... : ... .. . ... ... ... : ... .. . ... ... ... : ... .. . ... ... ... : ... .. . ... ... ...
ROW 44 : ... .. . ... ... ... : ... .. . ... ... ... : ... .. . ... ... ... : ... .. . ... ... ... : ... .. . ... ... ...
ROW 45 : ... .. . ... ... ... : ... .. . ... ... ... : ... .. . ... ... ... : ... .. . ... ... ... : ... .. . ... ... ...
ROW 46 : D-4 04 . ... ... ... : ... .. . ... ... ... : ... .. . ... ... ... : ... .. . ... ... ... : ... .. . ... ... ...
ROW 47 : ... .. . ... ... ... : ... .. . ... ... ... : ... .. . ... ... ... : ... .. . ... ... ... : ... .. . ... ... ...
ROW 48 : ... .. . ... ... ... : ... .. . ... ... ... : ... .. . ... ... ... : ... .. . ... ... ... : ... .. . ... ... ...
ROW 49 : ... .. . ... ... ... : ... .. . ... ... ... : ... .. . ... ... ... : ... .. . ... ... ... : ... .. . ... ... ...
ROW 4A : ... .. . ... ... ... : ... .. . ... ... ... : ... .. . ... ... ... : ... .. . ... ... ... : ... .. . ... ... ...
ROW 4B : ... .. . ... ... ... : ... .. . ... ... ... : ... .. . ... ... ... : ... .. . ... ... ... : ... .. . ... ... ...
ROW 4C : ... .. . ... ... ... : ... .. . ... ... ... : ... .. . ... ... ... : ... .. . ... ... ... : ... .. . ... ... ...
ROW 4D : B-3 04 . ... ... ... : ... .. . ... ... ... : ... .. . ... ... ... : ... .. . ... ... ... : ... .. . ... ... ...
ROW 4E : ... .. . ... ... ... : ... .. . ... ... ... : ... .. . ... ... ... : ... .. . ... ... ... : ... .. . ... ... ...
ROW 4F : ... .. . ... ... ... : ... .. . ... ... ... : ... .. . ... ... ... : ... .. . ... ... ... : ... .. . ... ... ...
ROW 50 : ... .. . ... ... ... : ... .. . ... ... ... : ... .. . ... ... ... : ... .. . ... ... ... : ... .. . ... ... ...
ROW 51 : ... .. . ... ... ... : ... .. . ... ... ... : ... .. . ... ... ... : ... .. . ... ... ... : ... .. . ... ... ...
ROW 52 : ... .. . ... ... ... : ... .. . ... ... ... : ... .. . ... ... ... : ... .. . ... ... ... : ... .. . ... ... ...
ROW 53 : ... .. . ... ... ... : ... .. . ... ... ... : ... .. . ... ... ... : ... .. . ... ... ... : ... .. . ... ... ...
ROW 54 : C#4 04 . ... ... ... : ... .. . ... ... ... : ... .. . ... ... ... : ... .. . ... ... ... : ... .. . ... ... ...
ROW 55 : ... .. . ... ... ... : ... .. . ... ... ... : ... .. . ... ... ... : ... .. . ... ... ... : ... .. . ... ... ...
ROW 56 : D-4 04 . ... ... ... : ... .. . ... ... ... : ... .. . ... ... ... : ... .. . ... ... ... : ... .. . ... ... ...
ROW 57 : ... .. . ... ... ... : ... .. . ... ... ... : ... .. . ... ... ... : ... .. . ... ... ... : ... .. . ... ... ...
ROW 58 : ... .. . ... ... ... : ... .. . ... ... ... : ... .. . ... ... ... : ... .. . ... ... ... : ... .. . ... ... ...
ROW 59 : ... .. . ... ... ... : ... .. . ... ... ... : ... .. . ... ... ... : ... .. . ... ... ... : ... .. . ... ... ...
ROW 5A : ... .. . ... ... ... : ... .. . ... ... ... : ... .. . ... ... ... : ... .. . ... ... ... : ... .. . ... ... ...
ROW 5B : ... .. . ... ... ... : ... .. . ... ... ... : ... .. . ... ... ... : ... .. . ... ... ... : ... .. . ... ... ...
ROW 5C : ... .. . ... ... ... : ... .. . ... ... ... : ... .. . ... ... ... : ... .. . ... ... ... : ... .. . ... ... ...
ROW 5D : ... .. . ... ... ... : ... .. . ... ... ... : ... .. . ... ... ... : ... .. . ... ... ... : ... .. . ... ... ...
ROW 5E : ... .. . ... ... ... : ... .. . ... ... ... : ... .. . ... ... ... : ... .. . ... ... ... : ... .. . ... ... ...
ROW 5F : ... .. . ... ... ... : ... .. . ... ... ... : ... .. . ... ... ... : ... .. . ... ... ... : ... .. . ... ... ...
ROW 60 : ... .. . ... ... ... : ... .. . ... ... ... : ... .. . ... ... ... : ... .. . ... ... ... : ... .. . ... ... ...
ROW 61 : ... .. . ... ... ... : ... .. . ... ... ... : ... .. . ... ... ... : ... .. . ... ... ... : ... .. . ... ... ...
ROW 62 : ... .. . ... ... ... : ... .. . ... ... ... : ... .. . ... ... ... : ... .. . ... ... ... : ... .. . ... ... ...
ROW 63 : ... .. . ... ... ... : ... .. . ... ... ... : ... .. . ... ... ... : ... .. . ... ... ... : ... .. . ... ... ...
ROW 64 : ... .. . ... ... ... : ... .. . ... ... ... : ... .. . ... ... ... : ... .. . ... ... ... : ... .. . ... ... ...
ROW 65 : ... .. . ... ... ... : ... .. . ... ... ... : ... .. . ... ... ... : ... .. . ... ... ... : ... .. . ... ... ...
ROW 66 : ... .. . ... ... ... : ... .. . ... ... ... : ... .. . ... ... ... : ... .. . ... ... ... : ... .. . ... ... ...
ROW 67 : ... .. . ... ... ... : ... .. . ... ... ... : ... .. . ... ... ... : ... .. . ... ... ... : ... .. . ... ... ...
ROW 68 : ... .. . ... ... ... : ... .. . ... ... ... : ... .. . ... ... ... : ... .. . ... ... ... : ... .. . ... ... ...
ROW 69 : F#4 04 . ... ... ... : ... .. . ... ... ... : ... .. . ... ... ... : ... .. . ... ... ... : ... .. . ... ... ...
ROW 6A : ... .. . ... ... ... : ... .. . ... ... ... : ... .. . ... ... ... : ... .. . ... ... ... : ... .. . ... ... ...
ROW 6B : ... .. . ... ... ... : ... .. . ... ... ... : ... .. . ... ... ... : ... .. . ... ... ... : ... .. . ... ... ...
ROW 6C : ... .. . ... ... ... : ... .. . ... ... ... : ... .. . ... ... ... : ... .. . ... ... ... : ... .. . ... ... ...
ROW 6D : ... .. . ... ... ... : ... .. . ... ... ... : ... .. . ... ... ... : ... .. . ... ... ... : ... .. . ... ... ...
ROW 6E : ... .. . ... ... ... : ... .. . ... ... ... : ... .. . ... ... ... : ... .. . ... ... ... : ... .. . ... ... ...
ROW 6F : ... .. . ... ... ... : ... .. . ... ... ... : ... .. . ... ... ... : ... .. . ... ... ... : ... .. . ... ... ...
ROW 70 : F-4 04 . ... ... ... : ... .. . ... ... ... : ... .. . ... ... ... : ... .. . ... ... ... : B-3 06 . ... ... ...
ROW 71 : ... .. . ... ... ... : ... .. . ... ... ... : ... .. . ... ... ... : ... .. . ... ... ... : ... .. . ... ... ...
ROW 72 : E-4 04 . ... ... ... : ... .. . ... ... ... : ... .. . ... ... ... : ... .. . ... ... ... : ... .. . ... ... ...
ROW 73 : ... .. . ... ... ... : ... .. . ... ... ... : ... .. . ... ... ... : ... .. . ... ... ... : ... .. . ... ... ...
ROW 74 : ... .. . ... ... ... : ... .. . ... ... ... : ... .. . ... ... ... : ... .. . ... ... ... : ... .. . ... ... ...
ROW 75 : ... .. . ... ... ... : ... .. . ... ... ... : ... .. . ... ... ... : ... .. . ... ... ... : ... .. . ... ... ...
ROW 76 : ... .. . ... ... ... : ... .. . ... ... ... : ... .. . ... ... ... : ... .. . ... ... ... : ... .. . ... ... ...
ROW 77 : ... .. . ... ... ... : ... .. . ... ... ... : ... .. . ... ... ... : ... .. . ... ... ... : ... .. . ... ... ...
ROW 78 : ... .. . ... ... ... : ... .. . ... ... ... : ... .. . ... ... ... : ... .. . ... ... ... : ... .. . ... ... ...
ROW 79 : ... .. . ... ... ... : ... .. . ... ... ... : ... .. . ... ... ... : ... .. . ... ... ... : ... .. . ... ... ...
ROW 7A : ... .. . ... ... ... : ... .. . ... ... ... : ... .. . ... ... ... : ... .. . ... ... ... : ... .. . ... ... ...
ROW 7B : ... .. . ... ... ... : ... .. . ... ... ... : ... .. . ... ... ... : ... .. . ... ... ... : ... .. . ... ... ...
ROW 7C : ... .. . ... ... ... : ... .. . ... ... ... : ... .. . ... ... ... : ... .. . ... ... ... : ... .. . ... ... ...
ROW 7D : ... .. . ... ... ... : ... .. . ... ... ... : ... .. . ... ... ... : ... .. . ... ... ... : ... .. . ... ... ...
ROW 7E : ... .. . ... ... ... : ... .. . ... ... ... : ... .. . ... ... ... : ... .. . ... ... ... : ... .. . ... ... ...
ROW 7F : ... .. . ... ... ... : ... .. . ... ... ... : ... .. . ... ... ... : ... .. . ... ... ... : ... .. . ... ... ...
ROW 80 : ... .. . ... ... ... : ... .. . ... ... ... : ... .. . ... ... ... : ... .. . ... ... ... : ... .. . ... ... ...
ROW 81 : ... .. . ... ... ... : ... .. . ... ... ... : ... .. . ... ... ... : ... .. . ... ... ... : ... .. . ... ... ...
ROW 82 : ... .. . ... ... ... : ... .. . ... ... ... : ... .. . ... ... ... : ... .. . ... ... ... : ... .. . ... ... ...
ROW 83 : ... .. . ... ... ... : ... .. . ... ... ... : ... .. . ... ... ... : ... .. . ... ... ... : ... .. . ... ... ...
ROW 84 : ... .. . ... ... ... : ... .. . ... ... ... : ... .. . ... ... ... : ... .. . ... ... ... : ... .. . ... ... ...
ROW 85 : F#4 04 . ... ... ... : ... .. . ... ... ... : ... .. . ... ... ... : ... .. . ... ... ... : E-4 06 . ... ... ...
ROW 86 : ... .. . ... ... ... : ... .. . ... ... ... : ... .. . ... ... ... : ... .. . ... ... ... : ... .. . ... ... ...
ROW 87 : ... .. . ... ... ... : ... .. . ... ... ... : ... .. . ... ... ... : ... .. . ... ... ... : ... .. . ... ... ...
ROW 88 : ... .. . ... ... ... : ... .. . ... ... ... : ... .. . ... ... ... : ... .. . ... ... ... : ... .. . ... ... ...
ROW 89 : ... .. . ... ... ... : ... .. . ... ... ... : ... .. . ... ... ... : ... .. . ... ... ... : ... .. . ... ... ...
ROW 8A : ... .. . ... ... ... : ... .. . ... ... ... : ... .. . ... ... ... : ... .. . ... ... ... : ... .. . ... ... ...
ROW 8B : ... .. . ... ... ... : ... .. . ... ... ... : ... .. . ... ... ... : ... .. . ... ... ... : ... .. . ... ... ...
ROW 8C : D-4 04 . ... ... ... : ... .. . ... ... ... : ... .. . ... ... ... : ... .. . ... ... ... : E-4 06 . ... ... ...
ROW 8D : ... .. . ... ... ... : ... .. . ... ... ... : ... .. . ... ... ... : ... .. . ... ... ... : ... .. . ... ... ...
ROW 8E : E-4 04 . ... ... ... : ... .. . ... ... ... : ... .. . ... ... ... : ... .. . ... ... ... : ... .. . ... ... ...
ROW 8F : ... .. . ... ... ... : ... .. . ... ... ... : ... .. . ... ... ... : ... .. . ... ... ... : ... .. . ... ... ...
ROW 90 : ... .. . ... ... ... : ... .. . ... ... ... : ... .. . ... ... ... : ... .. . ... ... ... : ... .. . ... ... ...
ROW 91 : ... .. . ... ... ... : ... .. . ... ... ... : ... .. . ... ... ... : ... .. . ... ... ... : ... .. . ... ... ...
ROW 92 : ... .. . ... ... ... : ... .. . ... ... ... : ... .. . ... ... ... : ... .. . ... ... ... : ... .. . ... ... ...
ROW 93 : ... .. . ... ... ... : ... .. . ... ... ... : ... .. . ... ... ... : ... .. . ... ... ... : ... .. . ... ... ...
ROW 94 : ... .. . ... ... ... : ... .. . ... ... ... : ... .. . ... ... ... : ... .. . ... ... ... : ... .. . ... ... ...
ROW 95 : ... .. . ... ... ... : ... .. . ... ... ... : ... .. . ... ... ... : ... .. . ... ... ... : ... .. . ... ... ...
ROW 96 : ... .. . ... ... ... : ... .. . ... ... ... : ... .. . ... ... ... : ... .. . ... ... ... : ... .. . ... ... ...
ROW 97 : ... .. . ... ... ... : ... .. . ... ... ... : ... .. . ... ... ... : ... .. . ... ... ... : ... .. . ... ... ...
ROW 98 : ... .. . ... ... ... : ... .. . ... ... ... : ... .. . ... ... ... : ... .. . ... ... ... : ... .. . ... ... ...
ROW 99 : ... .. . ... ... ... : ... .. . ... ... ... : ... .. . ... ... ... : ... .. . ... ... ... : ... .. . ... ... ...
ROW 9A : ... .. . ... ... ... : ... .. . ... ... ... : ... .. . ... ... ... : ... .. . ... ... ... : ... .. . ... ... ...
ROW 9B : ... .. . ... ... ... : ... .. . ... ... ... : ... .. . ... ... ... : ... .. . ... ... ... : ... .. . ... ... ...
ROW 9C : ... .. . ... ... ... : ... .. . ... ... ... : ... .. . ... ... ... : ... .. . ... ... ... : ... .. . ... ... ...
ROW 9D : ... .. . ... ... ... : ... .. . ... ... ... : ... .. . ... ... ... : ... .. . ... ... ... : ... .. . ... ... ...
ROW 9E : ... .. . ... ... ... : ... .. . ... ... ... : ... .. . ... ... ... : ... .. . ... ... ... : ... .. . ... ... ...
ROW 9F : ... .. . ... ... ... : ... .. . ... ... ... : ... .. . ... ... ... : ... .. . ... ... ... : ... .. . ... ... ...
ROW A0 : ... .. . ... ... ... : ... .. . ... ... ... : ... .. . ... ... ... : ... .. . ... ... ... : ... .. . ... ... ...
ROW A1 : C#4 04 . ... ... ... : ... .. . ... ... ... : ... .. . ... ... ... : ... .. . ... ... ... : ... .. . ... ... ...
ROW A2 : ... .. . ... ... ... : ... .. . ... ... ... : ... .. . ... ... ... : ... .. . ... ... ... : ... .. . ... ... ...
ROW A3 : ... .. . ... ... ... : ... .. . ... ... ... : ... .. . ... ... ... : ... .. . ... ... ... : ... .. . ... ... ...
ROW A4 : ... .. . ... ... ... : ... .. . ... ... ... : ... .. . ... ... ... : ... .. . ... ... ... : ... .. . ... ... ...
ROW A5 : ... .. . ... ... ... : ... .. . ... ... ... : ... .. . ... ... ... : ... .. . ... ... ... : ... .. . ... ... ...
ROW A6 : ... .. . ... ... ... : ... .. . ... ... ... : ... .. . ... ... ... : ... .. . ... ... ... : ... .. . ... ... ...
ROW A7 : ... .. . ... ... ... : ... .. . ... ... ... : ... .. . ... ... ... : ... .. . ... ... ... : ... .. . ... ... ...
ROW A8 : B-3 04 . ... ... ... : ... .. . ... ... ... : ... .. . ... ... ... : ... .. . ... ... ... : ... .. . ... ... ...
ROW A9 : ... .. . ... ... ... : ... .. . ... ... ... : ... .. . ... ... ... : ... .. . ... ... ... : ... .. . ... ... ...
ROW AA : A-3 04 . ... ... ... : ... .. . ... ... ... : ... .. . ... ... ... : ... .. . ... ... ... : ... .. . ... ... ...
ROW AB : ... .. . ... ... ... : ... .. . ... ... ... : ... .. . ... ... ... : ... .. . ... ... ... : ... .. . ... ... ...
ROW AC : ... .. . ... ... ... : ... .. . ... ... ... : ... .. . ... ... ... : ... .. . ... ... ... : ... .. . ... ... ...
ROW AD : ... .. . ... ... ... : ... .. . ... ... ... : ... .. . ... ... ... : ... .. . ... ... ... : ... .. . ... ... ...
ROW AE : --- .. . ... ... ... : ... .. . ... ... ... : ... .. . ... ... ... : ... .. . ... ... ... : ... .. . ... ... ...
ROW AF : ... .. . ... ... ... : ... .. . ... ... ... : ... .. . ... ... ... : ... .. . ... ... ... : ... .. . ... ... ...
ROW B0 : ... .. . ... ... ... : ... .. . ... ... ... : ... .. . ... ... ... : ... .. . ... ... ... : ... .. . ... ... ...
ROW B1 : ... .. . ... ... ... : ... .. . ... ... ... : ... .. . ... ... ... : ... .. . ... ... ... : ... .. . ... ... ...
ROW B2 : ... .. . ... ... ... : ... .. . ... ... ... : ... .. . ... ... ... : ... .. . ... ... ... : ... .. . ... ... ...
ROW B3 : ... .. . ... ... ... : ... .. . ... ... ... : ... .. . ... ... ... : ... .. . ... ... ... : ... .. . ... ... ...
ROW B4 : ... .. . ... ... ... : ... .. . ... ... ... : ... .. . ... ... ... : ... .. . ... ... ... : ... .. . ... ... ...
ROW B5 : ... .. . ... ... ... : ... .. . ... ... ... : ... .. . ... ... ... : ... .. . ... ... ... : ... .. . ... ... ...
ROW B6 : A-3 04 . ... ... ... : ... .. . ... ... ... : ... .. . ... ... ... : ... .. . ... ... ... : ... .. . ... ... ...
ROW B7 : ... .. . ... ... ... : ... .. . ... ... ... : ... .. . ... ... ... : ... .. . ... ... ... : ... .. . ... ... ...
ROW B8 : ... .. . ... ... ... : ... .. . ... ... ... : ... .. . ... ... ... : ... .. . ... ... ... : ... .. . ... ... ...
ROW B9 : ... .. . ... ... ... : ... .. . ... ... ... : ... .. . ... ... ... : ... .. . ... ... ... : ... .. . ... ... ...
ROW BA : ... .. . ... ... ... : ... .. . ... ... ... : ... .. . ... ... ... : ... .. . ... ... ... : ... .. . ... ... ...
ROW BB : ... .. . ... ... ... : ... .. . ... ... ... : ... .. . ... ... ... : ... .. . ... ... ... : ... .. . ... ... ...
ROW BC : ... .. . ... ... ... : ... .. . ... ... ... : ... .. . ... ... ... : ... .. . ... ... ... : ... .. . ... ... ...
ROW BD : F#3 04 . ... ... ... : ... .. . ... ... ... : ... .. . ... ... ... : ... .. . ... ... ... : ... .. . ... ... ...
ROW BE : ... .. . ... ... ... : ... .. . ... ... ... : ... .. . ... ... ... : ... .. . ... ... ... : ... .. . ... ... ...
ROW BF : ... .. . ... ... ... : ... .. . ... ... ... : ... .. . ... ... ... : ... .. . ... ... ... : ... .. . ... ... ...
ROW C0 : ... .. . ... ... ... : ... .. . ... ... ... : ... .. . ... ... ... : ... .. . ... ... ... : ... .. . ... ... ...
ROW C1 : ... .. . ... ... ... : ... .. . ... ... ... : ... .. . ... ... ... : ... .. . ... ... ... : ... .. . ... ... ...
ROW C2 : ... .. . ... ... ... : ... .. . ... ... ... : ... .. . ... ... ... : ... .. . ... ... ... : ... .. . ... ... ...
ROW C3 : ... .. . ... ... ... : ... .. . ... ... ... : ... .. . ... ... ... : ... .. . ... ... ... : ... .. . ... ... ...
ROW C4 : B-3 04 . ... ... ... : ... .. . ... ... ... : ... .. . ... ... ... : ... .. . ... ... ... : ... .. . ... ... ...
ROW C5 : ... .. . ... ... ... : ... .. . ... ... ... : ... .. . ... ... ... : ... .. . ... ... ... : ... .. . ... ... ...
ROW C6 : C#4 04 . ... ... ... : ... .. . ... ... ... : ... .. . ... ... ... : ... .. . ... ... ... : ... .. . ... ... ...
ROW C7 : ... .. . ... ... ... : ... .. . ... ... ... : ... .. . ... ... ... : ... .. . ... ... ... : ... .. . ... ... ...
ROW C8 : ... .. . ... ... ... : ... .. . ... ... ... : ... .. . ... ... ... : ... .. . ... ... ... : ... .. . ... ... ...
ROW C9 : ... .. . ... ... ... : ... .. . ... ... ... : ... .. . ... ... ... : ... .. . ... ... ... : ... .. . ... ... ...
ROW CA : ... .. . ... ... ... : ... .. . ... ... ... : ... .. . ... ... ... : ... .. . ... ... ... : ... .. . ... ... ...
ROW CB : ... .. . ... ... ... : ... .. . ... ... ... : ... .. . ... ... ... : ... .. . ... ... ... : ... .. . ... ... ...
ROW CC : ... .. . ... ... ... : ... .. . ... ... ... : ... .. . ... ... ... : ... .. . ... ... ... : ... .. . ... ... ...
ROW CD : ... .. . ... ... ... : ... .. . ... ... ... : ... .. . ... ... ... : ... .. . ... ... ... : ... .. . ... ... ...
ROW CE : ... .. . ... ... ... : ... .. . ... ... ... : ... .. . ... ... ... : ... .. . ... ... ... : ... .. . ... ... ...
ROW CF : ... .. . ... ... ... : ... .. . ... ... ... : ... .. . ... ... ... : ... .. . ... ... ... : ... .. . ... ... ...
ROW D0 : ... .. . ... ... ... : ... .. . ... ... ... : ... .. . ... ... ... : ... .. . ... ... ... : ... .. . ... ... ...
ROW D1 : ... .. . ... ... ... : ... .. . ... ... ... : ... .. . ... ... ... : ... .. . ... ... ... : ... .. . ... ... ...
ROW D2 : ... .. . ... ... ... : ... .. . ... ... ... : ... .. . ... ... ... : ... .. . ... ... ... : ... .. . ... ... ...
ROW D3 : ... .. . ... ... ... : ... .. . ... ... ... : ... .. . ... ... ... : ... .. . ... ... ... : ... .. . ... ... ...
ROW D4 : ... .. . ... ... ... : ... .. . ... ... ... : ... .. . ... ... ... : ... .. . ... ... ... : ... .. . ... ... ...
ROW D5 : ... .. . ... ... ... : ... .. . ... ... ... : ... .. . ... ... ... : ... .. . ... ... ... : ... .. . ... ... ...
ROW D6 : ... .. . ... ... ... : ... .. . ... ... ... : ... .. . ... ... ... : ... .. . ... ... ... : ... .. . ... ... ...
ROW D7 : ... .. . ... ... ... : ... .. . ... ... ... : ... .. . ... ... ... : ... .. . ... ... ... : ... .. . ... ... ...
ROW D8 : ... .. . ... ... ... : ... .. . ... ... ... : ... .. . ... ... ... : ... .. . ... ... ... : ... .. . ... ... ...
ROW D9 : D-4 04 . ... ... ... : ... .. . ... ... ... : ... .. . ... ... ... : ... .. . ... ... ... : ... .. . ... ... ...
ROW DA : ... .. . ... ... ... : ... .. . ... ... ... : ... .. . ... ... ... : ... .. . ... ... ... : ... .. . ... ... ...
ROW DB : ... .. . ... ... ... : ... .. . ... ... ... : ... .. . ... ... ... : ... .. . ... ... ... : ... .. . ... ... ...
ROW DC : C#4 04 . ... ... ... : ... .. . ... ... ... : ... .. . ... ... ... : ... .. . ... ... ... : ... .. . ... ... ...
ROW DD : ... .. . ... ... ... : ... .. . ... ... ... : ... .. . ... ... ... : ... .. . ... ... ... : ... .. . ... ... ...
ROW DE : ... .. . ... ... ... : ... .. . ... ... ... : ... .. . ... ... ... : ... .. . ... ... ... : ... .. . ... ... ...
ROW DF : --- .. . ... ... ... : ... .. . ... ... ... : ... .. . ... ... ... : ... .. . ... ... ... : ... .. . ... ... ...

PATTERN 09
ROW 00 : B-3 04 . ... ... ... : ... .. . ... ... ... : ... .. . ... ... ... : ... .. . ... ... ... : B-3 06 . ... ... ...
ROW 01 : ... .. . ... ... ... : ... .. . ... ... ... : ... .. . ... ... ... : ... .. . ... ... ... : ... .. . ... ... ...
ROW 02 : ... .. . ... ... ... : ... .. . ... ... ... : ... .. . ... ... ... : ... .. . ... ... ... : ... .. . ... ... ...
ROW 03 : ... .. . ... ... ... : ... .. . ... ... ... : ... .. . ... ... ... : ... .. . ... ... ... : ... .. . ... ... ...
ROW 04 : ... .. . ... ... ... : ... .. . ... ... ... : ... .. . ... ... ... : ... .. . ... ... ... : ... .. . ... ... ...
ROW 05 : ... .. . ... ... ... : ... .. . ... ... ... : ... .. . ... ... ... : ... .. . ... ... ... : ... .. . ... ... ...
ROW 06 : ... .. . ... ... ... : ... .. . ... ... ... : ... .. . ... ... ... : ... .. . ... ... ... : ... .. . ... ... ...
ROW 07 : ... .. . ... ... ... : ... .. . ... ... ... : ... .. . ... ... ... : ... .. . ... ... ... : ... .. . ... ... ...
ROW 08 : ... .. . ... ... ... : ... .. . ... ... ... : ... .. . ... ... ... : ... .. . ... ... ... : ... .. . ... ... ...
ROW 09 : ... .. . ... ... ... : ... .. . ... ... ... : ... .. . ... ... ... : ... .. . ... ... ... : ... .. . ... ... ...
ROW 0A : ... .. . ... ... ... : ... .. . ... ... ... : ... .. . ... ... ... : ... .. . ... ... ... : ... .. . ... ... ...
ROW 0B : ... .. . ... ... ... : ... .. . ... ... ... : ... .. . ... ... ... : ... .. . ... ... ... : ... .. . ... ... ...
ROW 0C : ... .. . ... ... ... : ... .. . ... ... ... : ... .. . ... ... ... : ... .. . ... ... ... : ... .. . ... ... ...
ROW 0D : ... .. . ... ... ... : ... .. . ... ... ... : ... .. . ... ... ... : ... .. . ... ... ... : ... .. . ... ... ...
ROW 0E : ... .. . ... ... ... : ... .. . ... ... ... : ... .. . ... ... ... : ... .. . ... ... ... : ... .. . ... ... ...
ROW 0F : ... .. . ... ... ... : ... .. . ... ... ... : ... .. . ... ... ... : ... .. . ... ... ... : ... .. . ... ... ...
ROW 10 : ... .. . ... ... ... : ... .. . ... ... ... : ... .. . ... ... ... : ... .. . ... ... ... : ... .. . ... ... ...
ROW 11 : ... .. . ... ... ... : ... .. . ... ... ... : ... .. . ... ... ... : ... .. . ... ... ... : ... .. . ... ... ...
ROW 12 : ... .. . ... ... ... : ... .. . ... ... ... : ... .. . ... ... ... : ... .. . ... ... ... : ... .. . ... ... ...
ROW 13 : ... .. . ... ... ... : ... .. . ... ... ... : ... .. . ... ... ... : ... .. . ... ... ... : ... .. . ... ... ...
ROW 14 : ... .. . ... ... ... : ... .. . ... ... ... : ... .. . ... ... ... : ... .. . ... ... ... : ... .. . ... ... ...
ROW 15 : F#3 04 . ... ... ... : ... .. . ... ... ... : ... .. . ... ... ... : ... .. . ... ... ... : ... .. . ... ... ...
ROW 16 : ... .. . ... ... ... : ... .. . ... ... ... : ... .. . ... ... ... : ... .. . ... ... ... : ... .. . ... ... ...
ROW 17 : ... .. . ... ... ... : ... .. . ... ... ... : ... .. . ... ... ... : ... .. . ... ... ... : ... .. . ... ... ...
ROW 18 : ... .. . ... ... ... : ... .. . ... ... ... : ... .. . ... ... ... : ... .. . ... ... ... : ... .. . ... ... ...
ROW 19 : ... .. . ... ... ... : ... .. . ... ... ... : ... .. . ... ... ... : ... .. . ... ... ... : ... .. . ... ... ...
ROW 1A : ... .. . ... ... ... : ... .. . ... ... ... : ... .. . ... ... ... : ... .. . ... ... ... : ... .. . ... ... ...
ROW 1B : ... .. . ... ... ... : ... .. . ... ... ... : ... .. . ... ... ... : ... .. . ... ... ... : ... .. . ... ... ...
ROW 1C : A-3 04 . ... ... ... : ... .. . ... ... ... : ... .. . ... ... ... : ... .. . ... ... ... : ... .. . ... ... ...
ROW 1D : ... .. . ... ... ... : ... .. . ... ... ... : ... .. . ... ... ... : ... .. . ... ... ... : ... .. . ... ... ...
ROW 1E : B-3 04 . ... ... ... : ... .. . ... ... ... : ... .. . ... ... ... : ... .. . ... ... ... : ... .. . ... ... ...
ROW 1F : ... .. . ... ... ... : ... .. . ... ... ... : ... .. . ... ... ... : ... .. . ... ... ... : ... .. . ... ... ...
ROW 20 : ... .. . ... ... ... : ... .. . ... ... ... : ... .. . ... ... ... : ... .. . ... ... ... : ... .. . ... ... ...
ROW 21 : ... .. . ... ... ... : ... .. . ... ... ... : ... .. . ... ... ... : ... .. . ... ... ... : ... .. . ... ... ...
ROW 22 : ... .. . ... ... ... : ... .. . ... ... ... : ... .. . ... ... ... : ... .. . ... ... ... : ... .. . ... ... ...
ROW 23 : ... .. . ... ... ... : ... .. . ... ... ... : ... .. . ... ... ... : ... .. . ... ... ... : ... .. . ... ... ...
ROW 24 : ... .. . ... ... ... : ... .. . ... ... ... : ... .. . ... ... ... : ... .. . ... ... ... : ... .. . ... ... ...
ROW 25 : ... .. . ... ... ... : ... .. . ... ... ... : ... .. . ... ... ... : ... .. . ... ... ... : ... .. . ... ... ...
ROW 26 : ... .. . ... ... ... : ... .. . ... ... ... : ... .. . ... ... ... : ... .. . ... ... ... : ... .. . ... ... ...
ROW 27 : ... .. . ... ... ... : ... .. . ... ... ... : ... .. . ... ... ... : ... .. . ... ... ... : ... .. . ... ... ...
ROW 28 : ... .. . ... ... ... : ... .. . ... ... ... : ... .. . ... ... ... : ... .. . ... ... ... : ... .. . ... ... ...
ROW 29 : ... .. . ... ... ... : ... .. . ... ... ... : ... .. . ... ... ... : ... .. . ... ... ... : ... .. . ... ... ...
ROW 2A : ... .. . ... ... ... : ... .. . ... ... ... : ... .. . ... ... ... : ... .. . ... ... ... : ... .. . ... ... ...
ROW 2B : ... .. . ... ... ... : ... .. . ... ... ... : ... .. . ... ... ... : ... .. . ... ... ... : ... .. . ... ... ...
ROW 2C : ... .. . ... ... ... : ... .. . ... ... ... : ... .. . ... ... ... : ... .. . ... ... ... : ... .. . ... ... ...
ROW 2D : ... .. . ... ... ... : ... .. . ... ... ... : ... .. . ... ... ... : ... .. . ... ... ... : ... .. . ... ... ...
ROW 2E : ... .. . ... ... ... : ... .. . ... ... ... : ... .. . ... ... ... : ... .. . ... ... ... : ... .. . ... ... ...
ROW 2F : ... .. . ... ... ... : ... .. . ... ... ... : ... .. . ... ... ... : ... .. . ... ... ... : ... .. . ... ... ...
ROW 30 : ... .. . ... ... ... : ... .. . ... ... ... : ... .. . ... ... ... : ... .. . ... ... ... : ... .. . ... ... ...
ROW 31 : C#4 04 . ... ... ... : ... .. . ... ... ... : ... .. . ... ... ... : ... .. . ... ... ... : ... .. . ... ... ...
ROW 32 : ... .. . ... ... ... : ... .. . ... ... ... : ... .. . ... ... ... : ... .. . ... ... ... : ... .. . ... ... ...
ROW 33 : ... .. . ... ... ... : ... .. . ... ... ... : ... .. . ... ... ... : ... .. . ... ... ... : ... .. . ... ... ...
ROW 34 : ... .. . ... ... ... : ... .. . ... ... ... : ... .. . ... ... ... : ... .. . ... ... ... : ... .. . ... ... ...
ROW 35 : ... .. . ... ... ... : ... .. . ... ... ... : ... .. . ... ... ... : ... .. . ... ... ... : ... .. . ... ... ...
ROW 36 : ... .. . ... ... ... : ... .. . ... ... ... : ... .. . ... ... ... : ... .. . ... ... ... : ... .. . ... ... ...
ROW 37 : ... .. . ... ... ... : ... .. . ... ... ... : ... .. . ... ... ... : ... .. . ... ... ... : ... .. . ... ... ...
ROW 38 : B-3 04 . ... ... ... : ... .. . ... ... ... : ... .. . ... ... ... : ... .. . ... ... ... : ... .. . ... ... ...
ROW 39 : ... .. . ... ... ... : ... .. . ... ... ... : ... .. . ... ... ... : ... .. . ... ... ... : ... .. . ... ... ...
ROW 3A : D-4 04 . ... ... ... : ... .. . ... ... ... : ... .. . ... ... ... : ... .. . ... ... ... : ... .. . ... ... ...
ROW 3B : ... .. . ... ... ... : ... .. . ... ... ... : ... .. . ... ... ... : ... .. . ... ... ... : ... .. . ... ... ...
ROW 3C : ... .. . ... ... ... : ... .. . ... ... ... : ... .. . ... ... ... : ... .. . ... ... ... : ... .. . ... ... ...
ROW 3D : ... .. . ... ... ... : ... .. . ... ... ... : ... .. . ... ... ... : ... .. . ... ... ... : ... .. . ... ... ...
ROW 3E : --- .. . ... ... ... : ... .. . ... ... ... : ... .. . ... ... ... : ... .. . ... ... ... : ... .. . ... ... ...
ROW 3F : ... .. . ... ... ... : ... .. . ... ... ... : ... .. . ... ... ... : ... .. . ... ... ... : ... .. . ... ... ...
ROW 40 : ... .. . ... ... ... : ... .. . ... ... ... : ... .. . ... ... ... : ... .. . ... ... ... : ... .. . ... ... ...
ROW 41 : ... .. . ... ... ... : ... .. . ... ... ... : ... .. . ... ... ... : ... .. . ... ... ... : ... .. . ... ... ...
ROW 42 : ... .. . ... ... ... : ... .. . ... ... ... : ... .. . ... ... ... : ... .. . ... ... ... : ... .. . ... ... ...
ROW 43 : ... .. . ... ... ... : ... .. . ... ... ... : ... .. . ... ... ... : ... .. . ... ... ... : ... .. . ... ... ...
ROW 44 : ... .. . ... ... ... : ... .. . ... ... ... : ... .. . ... ... ... : ... .. . ... ... ... : ... .. . ... ... ...
ROW 45 : ... .. . ... ... ... : ... .. . ... ... ... : ... .. . ... ... ... : ... .. . ... ... ... : ... .. . ... ... ...
ROW 46 : D-4 04 . ... ... ... : ... .. . ... ... ... : ... .. . ... ... ... : ... .. . ... ... ... : ... .. . ... ... ...
ROW 47 : ... .. . ... ... ... : ... .. . ... ... ... : ... .. . ... ... ... : ... .. . ... ... ... : ... .. . ... ... ...
ROW 48 : ... .. . ... ... ... : ... .. . ... ... ... : ... .. . ... ... ... : ... .. . ... ... ... : ... .. . ... ... ...
ROW 49 : ... .. . ... ... ... : ... .. . ... ... ... : ... .. . ... ... ... : ... .. . ... ... ... : ... .. . ... ... ...
ROW 4A : ... .. . ... ... ... : ... .. . ... ... ... : ... .. . ... ... ... : ... .. . ... ... ... : ... .. . ... ... ...
ROW 4B : ... .. . ... ... ... : ... .. . ... ... ... : ... .. . ... ... ... : ... .. . ... ... ... : ... .. . ... ... ...
ROW 4C : ... .. . ... ... ... : ... .. . ... ... ... : ... .. . ... ... ... : ... .. . ... ... ... : ... .. . ... ... ...
ROW 4D : A-3 04 . ... ... ... : ... .. . ... ... ... : ... .. . ... ... ... : ... .. . ... ... ... : ... .. . ... ... ...
ROW 4E : ... .. . ... ... ... : ... .. . ... ... ... : ... .. . ... ... ... : ... .. . ... ... ... : ... .. . ... ... ...
ROW 4F : B-3 04 . ... ... ... : ... .. . ... ... ... : ... .. . ... ... ... : ... .. . ... ... ... : ... .. . ... ... ...
ROW 50 : ... .. . ... ... ... : ... .. . ... ... ... : ... .. . ... ... ... : ... .. . ... ... ... : ... .. . ... ... ...
ROW 51 : ... .. . ... ... ... : ... .. . ... ... ... : ... .. . ... ... ... : ... .. . ... ... ... : ... .. . ... ... ...
ROW 52 : ... .. . ... ... ... : ... .. . ... ... ... : ... .. . ... ... ... : ... .. . ... ... ... : ... .. . ... ... ...
ROW 53 : ... .. . ... ... ... : ... .. . ... ... ... : ... .. . ... ... ... : ... .. . ... ... ... : ... .. . ... ... ...
ROW 54 : D-4 04 . ... ... ... : ... .. . ... ... ... : ... .. . ... ... ... : ... .. . ... ... ... : ... .. . ... ... ...
ROW 55 : ... .. . ... ... ... : ... .. . ... ... ... : ... .. . ... ... ... : ... .. . ... ... ... : ... .. . ... ... ...
ROW 56 : ... .. . ... ... ... : ... .. . ... ... ... : ... .. . ... ... ... : ... .. . ... ... ... : ... .. . ... ... ...
ROW 57 : ... .. . ... ... ... : ... .. . ... ... ... : ... .. . ... ... ... : ... .. . ... ... ... : ... .. . ... ... ...
ROW 58 : ... .. . ... ... ... : ... .. . ... ... ... : ... .. . ... ... ... : ... .. . ... ... ... : ... .. . ... ... ...
ROW 59 : ... .. . ... ... ... : ... .. . ... ... ... : ... .. . ... ... ... : ... .. . ... ... ... : ... .. . ... ... ...
ROW 5A : ... .. . ... ... ... : ... .. . ... ... ... : ... .. . ... ... ... : ... .. . ... ... ... : ... .. . ... ... ...
ROW 5B : ... .. . ... ... ... : ... .. . ... ... ... : ... .. . ... ... ... : ... .. . ... ... ... : ... .. . ... ... ...
ROW 5C : ... .. . ... ... ... : ... .. . ... ... ... : ... .. . ... ... ... : ... .. . ... ... ... : ... .. . ... ... ...
ROW 5D : ... .. . ... ... ... : ... .. . ... ... ... : ... .. . ... ... ... : ... .. . ... ... ... : ... .. . ... ... ...
ROW 5E : ... .. . ... ... ... : ... .. . ... ... ... : ... .. . ... ... ... : ... .. . ... ... ... : ... .. . ... ... ...
ROW 5F : ... .. . ... ... ... : ... .. . ... ... ... : ... .. . ... ... ... : ... .. . ... ... ... : ... .. . ... ... ...
ROW 60 : ... .. . ... ... ... : ... .. . ... ... ... : ... .. . ... ... ... : ... .. . ... ... ... : ... .. . ... ... ...
ROW 61 : ... .. . ... ... ... : ... .. . ... ... ... : ... .. . ... ... ... : ... .. . ... ... ... : ... .. . ... ... ...
ROW 62 : ... .. . ... ... ... : ... .. . ... ... ... : ... .. . ... ... ... : ... .. . ... ... ... : ... .. . ... ... ...
ROW 63 : ... .. . ... ... ... : ... .. . ... ... ... : ... .. . ... ... ... : ... .. . ... ... ... : ... .. . ... ... ...
ROW 64 : ... .. . ... ... ... : ... .. . ... ... ... : ... .. . ... ... ... : ... .. . ... ... ... : ... .. . ... ... ...
ROW 65 : ... .. . ... ... ... : ... .. . ... ... ... : ... .. . ... ... ... : ... .. . ... ... ... : ... .. . ... ... ...
ROW 66 : ... .. . ... ... ... : ... .. . ... ... ... : ... .. . ... ... ... : ... .. . ... ... ... : ... .. . ... ... ...
ROW 67 : ... .. . ... ... ... : ... .. . ... ... ... : ... .. . ... ... ... : ... .. . ... ... ... : ... .. . ... ... ...
ROW 68 : ... .. . ... ... ... : ... .. . ... ... ... : ... .. . ... ... ... : ... .. . ... ... ... : ... .. . ... ... ...
ROW 69 : F#4 04 . ... ... ... : ... .. . ... ... ... : ... .. . ... ... ... : ... .. . ... ... ... : ... .. . ... ... ...
ROW 6A : ... .. . ... ... ... : ... .. . ... ... ... : ... .. . ... ... ... : ... .. . ... ... ... : ... .. . ... ... ...
ROW 6B : ... .. . ... ... ... : ... .. . ... ... ... : ... .. . ... ... ... : ... .. . ... ... ... : ... .. . ... ... ...
ROW 6C : ... .. . ... ... ... : ... .. . ... ... ... : ... .. . ... ... ... : ... .. . ... ... ... : ... .. . ... ... ...
ROW 6D : ... .. . ... ... ... : ... .. . ... ... ... : ... .. . ... ... ... : ... .. . ... ... ... : ... .. . ... ... ...
ROW 6E : ... .. . ... ... ... : ... .. . ... ... ... : ... .. . ... ... ... : ... .. . ... ... ... : ... .. . ... ... ...
ROW 6F : ... .. . ... ... ... : ... .. . ... ... ... : ... .. . ... ... ... : ... .. . ... ... ... : ... .. . ... ... ...
ROW 70 : G#4 04 . ... ... ... : ... .. . ... ... ... : ... .. . ... ... ... : ... .. . ... ... ... : B-3 06 . ... ... ...
ROW 71 : ... .. . ... ... ... : ... .. . ... ... ... : ... .. . ... ... ... : ... .. . ... ... ... : ... .. . ... ... ...
ROW 72 : A-4 04 . ... ... ... : ... .. . ... ... ... : ... .. . ... ... ... : ... .. . ... ... ... : ... .. . ... ... ...
ROW 73 : ... .. . ... ... ... : ... .. . ... ... ... : ... .. . ... ... ... : ... .. . ... ... ... : ... .. . ... ... ...
ROW 74 : ... .. . ... ... ... : ... .. . ... ... ... : ... .. . ... ... ... : ... .. . ... ... ... : ... .. . ... ... ...
ROW 75 : ... .. . ... ... ... : ... .. . ... ... ... : ... .. . ... ... ... : ... .. . ... ... ... : ... .. . ... ... ...
ROW 76 : --- .. . ... ... ... : ... .. . ... ... ... : ... .. . ... ... ... : ... .. . ... ... ... : ... .. . ... ... ...
ROW 77 : ... .. . ... ... ... : ... .. . ... ... ... : ... .. . ... ... ... : ... .. . ... ... ... : ... .. . ... ... ...
ROW 78 : ... .. . ... ... ... : ... .. . ... ... ... : ... .. . ... ... ... : ... .. . ... ... ... : ... .. . ... ... ...
ROW 79 : ... .. . ... ... ... : ... .. . ... ... ... : ... .. . ... ... ... : ... .. . ... ... ... : ... .. . ... ... ...
ROW 7A : ... .. . ... ... ... : ... .. . ... ... ... : ... .. . ... ... ... : ... .. . ... ... ... : ... .. . ... ... ...
ROW 7B : ... .. . ... ... ... : ... .. . ... ... ... : ... .. . ... ... ... : ... .. . ... ... ... : ... .. . ... ... ...
ROW 7C : ... .. . ... ... ... : ... .. . ... ... ... : ... .. . ... ... ... : ... .. . ... ... ... : ... .. . ... ... ...
ROW 7D : ... .. . ... ... ... : ... .. . ... ... ... : ... .. . ... ... ... : ... .. . ... ... ... : ... .. . ... ... ...
ROW 7E : A-4 04 . ... ... ... : ... .. . ... ... ... : ... .. . ... ... ... : ... .. . ... ... ... : ... .. . ... ... ...
ROW 7F : ... .. . ... ... ... : ... .. . ... ... ... : ... .. . ... ... ... : ... .. . ... ... ... : ... .. . ... ... ...
ROW 80 : ... .. . ... ... ... : ... .. . ... ... ... : ... .. . ... ... ... : ... .. . ... ... ... : ... .. . ... ... ...
ROW 81 : ... .. . ... ... ... : ... .. . ... ... ... : ... .. . ... ... ... : ... .. . ... ... ... : ... .. . ... ... ...
ROW 82 : ... .. . ... ... ... : ... .. . ... ... ... : ... .. . ... ... ... : ... .. . ... ... ... : ... .. . ... ... ...
ROW 83 : ... .. . ... ... ... : ... .. . ... ... ... : ... .. . ... ... ... : ... .. . ... ... ... : ... .. . ... ... ...
ROW 84 : ... .. . ... ... ... : ... .. . ... ... ... : ... .. . ... ... ... : ... .. . ... ... ... : ... .. . ... ... ...
ROW 85 : F#4 04 . ... ... ... : ... .. . ... ... ... : ... .. . ... ... ... : ... .. . ... ... ... : ... .. . ... ... ...
ROW 86 : ... .. . ... ... ... : ... .. . ... ... ... : ... .. . ... ... ... : ... .. . ... ... ... : ... .. . ... ... ...
ROW 87 : ... .. . ... ... ... : ... .. . ... ... ... : ... .. . ... ... ... : ... .. . ... ... ... : ... .. . ... ... ...
ROW 88 : ... .. . ... ... ... : ... .. . ... ... ... : ... .. . ... ... ... : ... .. . ... ... ... : ... .. . ... ... ...
ROW 89 : ... .. . ... ... ... : ... .. . ... ... ... : ... .. . ... ... ... : ... .. . ... ... ... : ... .. . ... ... ...
ROW 8A : ... .. . ... ... ... : ... .. . ... ... ... : ... .. . ... ... ... : ... .. . ... ... ... : ... .. . ... ... ...
ROW 8B : ... .. . ... ... ... : ... .. . ... ... ... : ... .. . ... ... ... : ... .. . ... ... ... : ... .. . ... ... ...
ROW 8C : F-4 04 . ... ... ... : ... .. . ... ... ... : ... .. . ... ... ... : ... .. . ... ... ... : ... .. . ... ... ...
ROW 8D : ... .. . ... ... ... : ... .. . ... ... ... : ... .. . ... ... ... : ... .. . ... ... ... : ... .. . ... ... ...
ROW 8E : E-4 04 . ... ... ... : ... .. . ... ... ... : ... .. . ... ... ... : ... .. . ... ... ... : ... .. . ... ... ...
ROW 8F : ... .. . ... ... ... : ... .. . ... ... ... : ... .. . ... ... ... : ... .. . ... ... ... : ... .. . ... ... ...
ROW 90 : ... .. . ... ... ... : ... .. . ... ... ... : ... .. . ... ... ... : ... .. . ... ... ... : ... .. . ... ... ...
ROW 91 : ... .. . ... ... ... : ... .. . ... ... ... : ... .. . ... ... ... : ... .. . ... ... ... : ... .. . ... ... ...
ROW 92 : ... .. . ... ... ... : ... .. . ... ... ... : ... .. . ... ... ... : ... .. . ... ... ... : ... .. . ... ... ...
ROW 93 : --- .. . ... ... ... : ... .. . ... ... ... : ... .. . ... ... ... : ... .. . ... ... ... : ... .. . ... ... ...
ROW 94 : ... .. . ... ... ... : ... .. . ... ... ... : ... .. . ... ... ... : ... .. . ... ... ... : ... .. . ... ... ...
ROW 95 : ... .. . ... ... ... : ... .. . ... ... ... : ... .. . ... ... ... : ... .. . ... ... ... : ... .. . ... ... ...
ROW 96 : ... .. . ... ... ... : ... .. . ... ... ... : ... .. . ... ... ... : ... .. . ... ... ... : ... .. . ... ... ...
ROW 97 : ... .. . ... ... ... : ... .. . ... ... ... : ... .. . ... ... ... : ... .. . ... ... ... : ... .. . ... ... ...
ROW 98 : ... .. . ... ... ... : ... .. . ... ... ... : ... .. . ... ... ... : ... .. . ... ... ... : ... .. . ... ... ...
ROW 99 : ... .. . ... ... ... : ... .. . ... ... ... : ... .. . ... ... ... : ... .. . ... ... ... : ... .. . ... ... ...
ROW 9A : E-4 04 . ... ... ... : ... .. . ... ... ... : ... .. . ... ... ... : ... .. . ... ... ... : ... .. . ... ... ...
ROW 9B : ... .. . ... ... ... : ... .. . ... ... ... : ... .. . ... ... ... : ... .. . ... ... ... : ... .. . ... ... ...
ROW 9C : ... .. . ... ... ... : ... .. . ... ... ... : ... .. . ... ... ... : ... .. . ... ... ... : ... .. . ... ... ...
ROW 9D : ... .. . ... ... ... : ... .. . ... ... ... : ... .. . ... ... ... : ... .. . ... ... ... : ... .. . ... ... ...
ROW 9E : ... .. . ... ... ... : ... .. . ... ... ... : ... .. . ... ... ... : ... .. . ... ... ... : ... .. . ... ... ...
ROW 9F : ... .. . ... ... ... : ... .. . ... ... ... : ... .. . ... ... ... : ... .. . ... ... ... : ... .. . ... ... ...
ROW A0 : ... .. . ... ... ... : ... .. . ... ... ... : ... .. . ... ... ... : ... .. . ... ... ... : ... .. . ... ... ...
ROW A1 : F#4 04 . ... ... ... : ... .. . ... ... ... : ... .. . ... ... ... : ... .. . ... ... ... : ... .. . ... ... ...
ROW A2 : ... .. . ... ... ... : ... .. . ... ... ... : ... .. . ... ... ... : ... .. . ... ... ... : ... .. . ... ... ...
ROW A3 : ... .. . ... ... ... : ... .. . ... ... ... : ... .. . ... ... ... : ... .. . ... ... ... : ... .. . ... ... ...
ROW A4 : ... .. . ... ... ... : ... .. . ... ... ... : ... .. . ... ... ... : ... .. . ... ... ... : ... .. . ... ... ...
ROW A5 : ... .. . ... ... ... : ... .. . ... ... ... : ... .. . ... ... ... : ... .. . ... ... ... : ... .. . ... ... ...
ROW A6 : ... .. . ... ... ... : ... .. . ... ... ... : ... .. . ... ... ... : ... .. . ... ... ... : ... .. . ... ... ...
ROW A7 : ... .. . ... ... ... : ... .. . ... ... ... : ... .. . ... ... ... : ... .. . ... ... ... : ... .. . ... ... ...
ROW A8 : E-4 04 . ... ... ... : ... .. . ... ... ... : ... .. . ... ... ... : ... .. . ... ... ... : ... .. . ... ... ...
ROW A9 : ... .. . ... ... ... : ... .. . ... ... ... : ... .. . ... ... ... : ... .. . ... ... ... : ... .. . ... ... ...
ROW AA : C#4 04 . ... ... ... : ... .. . ... ... ... : ... .. . ... ... ... : ... .. . ... ... ... : ... .. . ... ... ...
ROW AB : ... .. . ... ... ... : ... .. . ... ... ... : ... .. . ... ... ... : ... .. . ... ... ... : ... .. . ... ... ...
ROW AC : ... .. . ... ... ... : ... .. . ... ... ... : ... .. . ... ... ... : ... .. . ... ... ... : ... .. . ... ... ...
ROW AD : ... .. . ... ... ... : ... .. . ... ... ... : ... .. . ... ... ... : ... .. . ... ... ... : ... .. . ... ... ...
ROW AE : ... .. . ... ... ... : ... .. . ... ... ... : ... .. . ... ... ... : ... .. . ... ... ... : ... .. . ... ... ...
ROW AF : --- .. . ... ... ... : ... .. . ... ... ... : ... .. . ... ... ... : ... .. . ... ... ... : ... .. . ... ... ...
ROW B0 : ... .. . ... ... ... : ... .. . ... ... ... : ... .. . ... ... ... : ... .. . ... ... ... : ... .. . ... ... ...
ROW B1 : ... .. . ... ... ... : ... .. . ... ... ... : ... .. . ... ... ... : ... .. . ... ... ... : ... .. . ... ... ...
ROW B2 : ... .. . ... ... ... : ... .. . ... ... ... : ... .. . ... ... ... : ... .. . ... ... ... : ... .. . ... ... ...
ROW B3 : ... .. . ... ... ... : ... .. . ... ... ... : ... .. . ... ... ... : ... .. . ... ... ... : ... .. . ... ... ...
ROW B4 : ... .. . ... ... ... : ... .. . ... ... ... : ... .. . ... ... ... : ... .. . ... ... ... : ... .. . ... ... ...
ROW B5 : ... .. . ... ... ... : ... .. . ... ... ... : ... .. . ... ... ... : ... .. . ... ... ... : ... .. . ... ... ...
ROW B6 : C#4 04 . ... ... ... : ... .. . ... ... ... : ... .. . ... ... ... : ... .. . ... ... ... : ... .. . ... ... ...
ROW B7 : ... .. . ... ... ... : ... .. . ... ... ... : ... .. . ... ... ... : ... .. . ... ... ... : ... .. . ... ... ...
ROW B8 : ... .. . ... ... ... : ... .. . ... ... ... : ... .. . ... ... ... : ... .. . ... ... ... : ... .. . ... ... ...
ROW B9 : ... .. . ... ... ... : ... .. . ... ... ... : ... .. . ... ... ... : ... .. . ... ... ... : ... .. . ... ... ...
ROW BA : ... .. . ... ... ... : ... .. . ... ... ... : ... .. . ... ... ... : ... .. . ... ... ... : ... .. . ... ... ...
ROW BB : ... .. . ... ... ... : ... .. . ... ... ... : ... .. . ... ... ... : ... .. . ... ... ... : ... .. . ... ... ...
ROW BC : ... .. . ... ... ... : ... .. . ... ... ... : ... .. . ... ... ... : ... .. . ... ... ... : ... .. . ... ... ...
ROW BD : C-4 04 . ... ... ... : ... .. . ... ... ... : ... .. . ... ... ... : ... .. . ... ... ... : ... .. . ... ... ...
ROW BE : ... .. . ... ... ... : ... .. . ... ... ... : ... .. . ... ... ... : ... .. . ... ... ... : ... .. . ... ... ...
ROW BF : B-3 04 . ... ... ... : ... .. . ... ... ... : ... .. . ... ... ... : ... .. . ... ... ... : ... .. . ... ... ...
ROW C0 : ... .. . ... ... ... : ... .. . ... ... ... : ... .. . ... ... ... : ... .. . ... ... ... : ... .. . ... ... ...
ROW C1 : ... .. . ... ... ... : ... .. . ... ... ... : ... .. . ... ... ... : ... .. . ... ... ... : ... .. . ... ... ...
ROW C2 : ... .. . ... ... ... : ... .. . ... ... ... : ... .. . ... ... ... : ... .. . ... ... ... : ... .. . ... ... ...
ROW C3 : ... .. . ... ... ... : ... .. . ... ... ... : ... .. . ... ... ... : ... .. . ... ... ... : ... .. . ... ... ...
ROW C4 : A-3 04 . ... ... ... : ... .. . ... ... ... : ... .. . ... ... ... : ... .. . ... ... ... : ... .. . ... ... ...
ROW C5 : ... .. . ... ... ... : ... .. . ... ... ... : ... .. . ... ... ... : ... .. . ... ... ... : ... .. . ... ... ...
ROW C6 : ... .. . ... ... ... : ... .. . ... ... ... : ... .. . ... ... ... : ... .. . ... ... ... : ... .. . ... ... ...
ROW C7 : ... .. . ... ... ... : ... .. . ... ... ... : ... .. . ... ... ... : ... .. . ... ... ... : ... .. . ... ... ...
ROW C8 : ... .. . ... ... ... : ... .. . ... ... ... : ... .. . ... ... ... : ... .. . ... ... ... : ... .. . ... ... ...
ROW C9 : ... .. . ... ... ... : ... .. . ... ... ... : ... .. . ... ... ... : ... .. . ... ... ... : ... .. . ... ... ...
ROW CA : ... .. . ... ... ... : ... .. . ... ... ... : ... .. . ... ... ... : ... .. . ... ... ... : ... .. . ... ... ...
ROW CB : ... .. . ... ... ... : ... .. . ... ... ... : ... .. . ... ... ... : ... .. . ... ... ... : ... .. . ... ... ...
ROW CC : ... .. . ... ... ... : ... .. . ... ... ... : ... .. . ... ... ... : ... .. . ... ... ... : ... .. . ... ... ...
ROW CD : ... .. . ... ... ... : ... .. . ... ... ... : ... .. . ... ... ... : ... .. . ... ... ... : ... .. . ... ... ...
ROW CE : ... .. . ... ... ... : ... .. . ... ... ... : ... .. . ... ... ... : ... .. . ... ... ... : ... .. . ... ... ...
ROW CF : ... .. . ... ... ... : ... .. . ... ... ... : ... .. . ... ... ... : ... .. . ... ... ... : ... .. . ... ... ...
ROW D0 : ... .. . ... ... ... : ... .. . ... ... ... : ... .. . ... ... ... : ... .. . ... ... ... : ... .. . ... ... ...
ROW D1 : ... .. . ... ... ... : ... .. . ... ... ... : ... .. . ... ... ... : ... .. . ... ... ... : ... .. . ... ... ...
ROW D2 : C#4 04 . ... ... ... : ... .. . ... ... ... : ... .. . ... ... ... : ... .. . ... ... ... : ... .. . ... ... ...
ROW D3 : ... .. . ... ... ... : ... .. . ... ... ... : ... .. . ... ... ... : ... .. . ... ... ... : ... .. . ... ... ...
ROW D4 : ... .. . ... ... ... : ... .. . ... ... ... : ... .. . ... ... ... : ... .. . ... ... ... : ... .. . ... ... ...
ROW D5 : ... .. . ... ... ... : ... .. . ... ... ... : ... .. . ... ... ... : ... .. . ... ... ... : ... .. . ... ... ...
ROW D6 : ... .. . ... ... ... : ... .. . ... ... ... : ... .. . ... ... ... : ... .. . ... ... ... : ... .. . ... ... ...
ROW D7 : ... .. . ... ... ... : ... .. . ... ... ... : ... .. . ... ... ... : ... .. . ... ... ... : ... .. . ... ... ...
ROW D8 : ... .. . ... ... ... : ... .. . ... ... ... : ... .. . ... ... ... : ... .. . ... ... ... : ... .. . ... ... ...
ROW D9 : D-4 04 . ... ... ... : ... .. . ... ... ... : ... .. . ... ... ... : ... .. . ... ... ... : ... .. . ... ... ...
ROW DA : ... .. . ... ... ... : ... .. . ... ... ... : ... .. . ... ... ... : ... .. . ... ... ... : ... .. . ... ... ...
ROW DB : ... .. . ... ... ... : ... .. . ... ... ... : ... .. . ... ... ... : ... .. . ... ... ... : ... .. . ... ... ...
ROW DC : C#4 04 . ... ... ... : ... .. . ... ... ... : ... .. . ... ... ... : ... .. . ... ... ... : ... .. . ... ... ...
ROW DD : ... .. . ... ... ... : ... .. . ... ... ... : ... .. . ... ... ... : ... .. . ... ... ... : ... .. . ... ... ...
ROW DE : ... .. . ... ... ... : ... .. . ... ... ... : ... .. . ... ... ... : ... .. . ... ... ... : ... .. . ... ... ...
ROW DF : --- .. . ... ... ... : ... .. . ... ... ... : ... .. . ... ... ... : ... .. . ... ... ... : ... .. . ... ... ...

PATTERN 0A
ROW 00 : B-3 04 . ... ... ... : ... .. . ... ... ... : ... .. . ... ... ... : ... .. . ... ... ... : ... .. . ... ... ...
ROW 01 : ... .. . ... ... ... : ... .. . ... ... ... : ... .. . ... ... ... : ... .. . ... ... ... : B-3 06 . ... ... ...
ROW 02 : ... .. . ... ... ... : ... .. . ... ... ... : ... .. . ... ... ... : ... .. . ... ... ... : ... .. . ... ... ...
ROW 03 : ... .. . ... ... ... : ... .. . ... ... ... : ... .. . ... ... ... : ... .. . ... ... ... : ... .. . ... ... ...
ROW 04 : ... .. . ... ... ... : ... .. . ... ... ... : ... .. . ... ... ... : ... .. . ... ... ... : ... .. . ... ... ...
ROW 05 : ... .. . ... ... ... : ... .. . ... ... ... : ... .. . ... ... ... : ... .. . ... ... ... : ... .. . ... ... ...
ROW 06 : ... .. . ... ... ... : ... .. . ... ... ... : ... .. . ... ... ... : ... .. . ... ... ... : ... .. . ... ... ...
ROW 07 : ... .. . ... ... ... : ... .. . ... ... ... : ... .. . ... ... ... : ... .. . ... ... ... : ... .. . ... ... ...
ROW 08 : ... .. . ... ... ... : ... .. . ... ... ... : ... .. . ... ... ... : ... .. . ... ... ... : ... .. . ... ... ...
ROW 09 : ... .. . ... ... ... : ... .. . ... ... ... : ... .. . ... ... ... : ... .. . ... ... ... : ... .. . ... ... ...
ROW 0A : ... .. . ... ... ... : ... .. . ... ... ... : ... .. . ... ... ... : ... .. . ... ... ... : ... .. . ... ... ...
ROW 0B : ... .. . ... ... ... : ... .. . ... ... ... : ... .. . ... ... ... : ... .. . ... ... ... : ... .. . ... ... ...
ROW 0C : ... .. . ... ... ... : ... .. . ... ... ... : ... .. . ... ... ... : ... .. . ... ... ... : ... .. . ... ... ...
ROW 0D : ... .. . ... ... ... : ... .. . ... ... ... : ... .. . ... ... ... : ... .. . ... ... ... : ... .. . ... ... ...
ROW 0E : ... .. . ... ... ... : ... .. . ... ... ... : ... .. . ... ... ... : ... .. . ... ... ... : ... .. . ... ... ...
ROW 0F : ... .. . ... ... ... : ... .. . ... ... ... : ... .. . ... ... ... : ... .. . ... ... ... : ... .. . ... ... ...
ROW 10 : ... .. . ... ... ... : ... .. . ... ... ... : ... .. . ... ... ... : ... .. . ... ... ... : ... .. . ... ... ...
ROW 11 : ... .. . ... ... ... : ... .. . ... ... ... : ... .. . ... ... ... : ... .. . ... ... ... : ... .. . ... ... ...
ROW 12 : ... .. . ... ... ... : ... .. . ... ... ... : ... .. . ... ... ... : ... .. . ... ... ... : ... .. . ... ... ...
ROW 13 : ... .. . ... ... ... : ... .. . ... ... ... : ... .. . ... ... ... : ... .. . ... ... ... : ... .. . ... ... ...
ROW 14 : ... .. . ... ... ... : ... .. . ... ... ... : ... .. . ... ... ... : ... .. . ... ... ... : ... .. . ... ... ...
ROW 15 : ... .. . ... ... ... : ... .. . ... ... ... : ... .. . ... ... ... : ... .. . ... ... ... : ... .. . ... ... ...
ROW 16 : ... .. . ... ... ... : ... .. . ... ... ... : ... .. . ... ... ... : ... .. . ... ... ... : ... .. . ... ... ...
ROW 17 : ... .. . ... ... ... : ... .. . ... ... ... : ... .. . ... ... ... : ... .. . ... ... ... : ... .. . ... ... ...
ROW 18 : ... .. . ... ... ... : ... .. . ... ... ... : ... .. . ... ... ... : ... .. . ... ... ... : ... .. . ... ... ...
ROW 19 : ... .. . ... ... ... : ... .. . ... ... ... : ... .. . ... ... ... : ... .. . ... ... ... : ... .. . ... ... ...
ROW 1A : ... .. . ... ... ... : ... .. . ... ... ... : ... .. . ... ... ... : ... .. . ... ... ... : ... .. . ... ... ...
ROW 1B : ... .. . ... ... ... : ... .. . ... ... ... : ... .. . ... ... ... : ... .. . ... ... ... : ... .. . ... ... ...
ROW 1C : ... .. . ... ... ... : ... .. . ... ... ... : ... .. . ... ... ... : ... .. . ... ... ... : ... .. . ... ... ...
ROW 1D : ... .. . ... ... ... : ... .. . ... ... ... : ... .. . ... ... ... : ... .. . ... ... ... : ... .. . ... ... ...
ROW 1E : ... .. . ... ... ... : ... .. . ... ... ... : ... .. . ... ... ... : ... .. . ... ... ... : ... .. . ... ... ...
ROW 1F : ... .. . ... ... ... : ... .. . ... ... ... : ... .. . ... ... ... : ... .. . ... ... ... : ... .. . ... ... ...
ROW 20 : ... .. . ... ... ... : ... .. . ... ... ... : ... .. . ... ... ... : ... .. . ... ... ... : ... .. . ... ... ...
ROW 21 : ... .. . ... ... ... : ... .. . ... ... ... : ... .. . ... ... ... : ... .. . ... ... ... : ... .. . ... ... ...
ROW 22 : ... .. . ... ... ... : ... .. . ... ... ... : ... .. . ... ... ... : ... .. . ... ... ... : ... .. . ... ... ...
ROW 23 : ... .. . ... ... ... : ... .. . ... ... ... : ... .. . ... ... ... : ... .. . ... ... ... : ... .. . ... ... ...
ROW 24 : ... .. . ... ... ... : ... .. . ... ... ... : ... .. . ... ... ... : ... .. . ... ... ... : ... .. . ... ... ...
ROW 25 : ... .. . ... ... ... : ... .. . ... ... ... : ... .. . ... ... ... : ... .. . ... ... ... : ... .. . ... ... ...
ROW 26 : ... .. . ... ... ... : ... .. . ... ... ... : ... .. . ... ... ... : ... .. . ... ... ... : ... .. . ... ... ...
ROW 27 : ... .. . ... ... ... : ... .. . ... ... ... : ... .. . ... ... ... : ... .. . ... ... ... : ... .. . ... ... ...
ROW 28 : ... .. . ... ... ... : ... .. . ... ... ... : ... .. . ... ... ... : ... .. . ... ... ... : ... .. . ... ... ...
ROW 29 : ... .. . ... ... ... : ... .. . ... ... ... : ... .. . ... ... ... : ... .. . ... ... ... : ... .. . ... ... ...
ROW 2A : ... .. . ... ... ... : ... .. . ... ... ... : ... .. . ... ... ... : ... .. . ... ... ... : ... .. . ... ... ...
ROW 2B : ... .. . ... ... ... : ... .. . ... ... ... : ... .. . ... ... ... : ... .. . ... ... ... : ... .. . ... ... ...
ROW 2C : ... .. . ... ... ... : ... .. . ... ... ... : ... .. . ... ... ... : ... .. . ... ... ... : ... .. . ... ... ...
ROW 2D : ... .. . ... ... ... : ... .. . ... ... ... : ... .. . ... ... ... : ... .. . ... ... ... : ... .. . ... ... ...
ROW 2E : ... .. . ... ... ... : ... .. . ... ... ... : ... .. . ... ... ... : ... .. . ... ... ... : ... .. . ... ... ...
ROW 2F : ... .. . ... ... ... : ... .. . ... ... ... : ... .. . ... ... ... : ... .. . ... ... ... : ... .. . ... ... ...
ROW 30 : ... .. . ... ... ... : ... .. . ... ... ... : ... .. . ... ... ... : ... .. . ... ... ... : ... .. . ... ... ...
ROW 31 : ... .. . ... ... ... : ... .. . ... ... ... : ... .. . ... ... ... : ... .. . ... ... ... : ... .. . ... ... ...
ROW 32 : ... .. . ... ... ... : ... .. . ... ... ... : ... .. . ... ... ... : ... .. . ... ... ... : ... .. . ... ... ...
ROW 33 : ... .. . ... ... ... : ... .. . ... ... ... : ... .. . ... ... ... : ... .. . ... ... ... : ... .. . ... ... ...
ROW 34 : ... .. . ... ... ... : ... .. . ... ... ... : ... .. . ... ... ... : ... .. . ... ... ... : ... .. . ... ... ...
ROW 35 : ... .. . ... ... ... : ... .. . ... ... ... : ... .. . ... ... ... : ... .. . ... ... ... : ... .. . ... ... ...
ROW 36 : ... .. . ... ... ... : ... .. . ... ... ... : ... .. . ... ... ... : ... .. . ... ... ... : ... .. . ... ... ...
ROW 37 : ... .. . ... ... ... : ... .. . ... ... ... : ... .. . ... ... ... : ... .. . ... ... ... : ... .. . ... ... ...
ROW 38 : ... .. . ... ... ... : ... .. . ... ... ... : ... .. . ... ... ... : ... .. . ... ... ... : ... .. . ... ... ...
ROW 39 : ... .. . ... ... ... : ... .. . ... ... ... : ... .. . ... ... ... : ... .. . ... ... ... : ... .. . ... ... ...
ROW 3A : ... .. . ... ... ... : ... .. . ... ... ... : ... .. . ... ... ... : ... .. . ... ... ... : ... .. . ... ... ...
ROW 3B : ... .. . ... ... ... : ... .. . ... ... ... : ... .. . ... ... ... : ... .. . ... ... ... : ... .. . ... ... ...
ROW 3C : ... .. . ... ... ... : ... .. . ... ... ... : ... .. . ... ... ... : ... .. . ... ... ... : ... .. . ... ... ...
ROW 3D : ... .. . ... ... ... : ... .. . ... ... ... : ... .. . ... ... ... : ... .. . ... ... ... : ... .. . ... ... ...
ROW 3E : ... .. . ... ... ... : ... .. . ... ... ... : ... .. . ... ... ... : ... .. . ... ... ... : ... .. . ... ... ...
ROW 3F : ... .. . ... ... ... : ... .. . ... ... ... : ... .. . ... ... ... : ... .. . ... ... ... : ... .. . ... ... ...
ROW 40 : ... .. . ... ... ... : ... .. . ... ... ... : ... .. . ... ... ... : ... .. . ... ... ... : ... .. . ... ... ...
ROW 41 : ... .. . ... ... ... : ... .. . ... ... ... : ... .. . ... ... ... : ... .. . ... ... ... : ... .. . ... ... ...
ROW 42 : ... .. . ... ... ... : ... .. . ... ... ... : ... .. . ... ... ... : ... .. . ... ... ... : ... .. . ... ... ...
ROW 43 : ... .. . ... ... ... : ... .. . ... ... ... : ... .. . ... ... ... : ... .. . ... ... ... : ... .. . ... ... ...
ROW 44 : ... .. . ... ... ... : ... .. . ... ... ... : ... .. . ... ... ... : ... .. . ... ... ... : ... .. . ... ... ...
ROW 45 : ... .. . ... ... ... : ... .. . ... ... ... : ... .. . ... ... ... : ... .. . ... ... ... : ... .. . ... ... ...
ROW 46 : ... .. . ... ... ... : ... .. . ... ... ... : ... .. . ... ... ... : ... .. . ... ... ... : ... .. . ... ... ...
ROW 47 : ... .. . ... ... ... : ... .. . ... ... ... : ... .. . ... ... ... : ... .. . ... ... ... : ... .. . ... ... ...
ROW 48 : ... .. . ... ... ... : ... .. . ... ... ... : ... .. . ... ... ... : ... .. . ... ... ... : ... .. . ... ... ...
ROW 49 : ... .. . ... ... ... : ... .. . ... ... ... : ... .. . ... ... ... : ... .. . ... ... ... : ... .. . ... ... ...
ROW 4A : ... .. . ... ... ... : ... .. . ... ... ... : ... .. . ... ... ... : ... .. . ... ... ... : ... .. . ... ... ...
ROW 4B : ... .. . ... ... ... : ... .. . ... ... ... : ... .. . ... ... ... : ... .. . ... ... ... : ... .. . ... ... ...
ROW 4C : ... .. . ... ... ... : ... .. . ... ... ... : ... .. . ... ... ... : ... .. . ... ... ... : ... .. . ... ... ...
ROW 4D : ... .. . ... ... ... : ... .. . ... ... ... : ... .. . ... ... ... : ... .. . ... ... ... : ... .. . ... ... ...
ROW 4E : ... .. . ... ... ... : ... .. . ... ... ... : ... .. . ... ... ... : ... .. . ... ... ... : ... .. . ... ... ...
ROW 4F : ... .. . ... ... ... : ... .. . ... ... ... : ... .. . ... ... ... : ... .. . ... ... ... : ... .. . ... ... ...
ROW 50 : ... .. . ... ... ... : ... .. . ... ... ... : ... .. . ... ... ... : ... .. . ... ... ... : ... .. . ... ... ...
ROW 51 : ... .. . ... ... ... : ... .. . ... ... ... : ... .. . ... ... ... : ... .. . ... ... ... : ... .. . ... ... ...
ROW 52 : ... .. . ... ... ... : ... .. . ... ... ... : ... .. . ... ... ... : ... .. . ... ... ... : ... .. . ... ... ...
ROW 53 : --- .. . ... ... ... : ... .. . ... ... ... : ... .. . ... ... ... : ... .. . ... ... ... : ... .. . ... ... ...
ROW 54 : B-2 04 . ... ... ... : ... .. . ... ... ... : ... .. . ... ... ... : ... .. . ... ... ... : ... .. . ... ... ...
ROW 55 : ... .. . ... ... ... : ... .. . ... ... ... : ... .. . ... ... ... : ... .. . ... ... ... : ... .. . ... ... ...
ROW 56 : ... .. . ... ... ... : ... .. . ... ... ... : ... .. . ... ... ... : ... .. . ... ... ... : ... .. . ... ... ...
ROW 57 : ... .. . ... ... ... : ... .. . ... ... ... : ... .. . ... ... ... : ... .. . ... ... ... : ... .. . ... ... ...
ROW 58 : ... .. . ... ... ... : ... .. . ... ... ... : ... .. . ... ... ... : ... .. . ... ... ... : ... .. . ... ... ...
ROW 59 : ... .. . ... ... ... : ... .. . ... ... ... : ... .. . ... ... ... : ... .. . ... ... ... : ... .. . ... ... ...
ROW 5A : ... .. . ... ... ... : ... .. . ... ... ... : ... .. . ... ... ... : ... .. . ... ... ... : ... .. . ... ... ...
ROW 5B : ... .. . ... ... ... : ... .. . ... ... ... : ... .. . ... ... ... : ... .. . ... ... ... : ... .. . ... ... ...
ROW 5C : ... .. . ... ... ... : ... .. . ... ... ... : ... .. . ... ... ... : ... .. . ... ... ... : ... .. . ... ... ...
ROW 5D : ... .. . ... ... ... : ... .. . ... ... ... : ... .. . ... ... ... : ... .. . ... ... ... : ... .. . ... ... ...
ROW 5E : ... .. . ... ... ... : ... .. . ... ... ... : ... .. . ... ... ... : ... .. . ... ... ... : ... .. . ... ... ...
ROW 5F : ... .. . ... ... ... : ... .. . ... ... ... : ... .. . ... ... ... : ... .. . ... ... ... : ... .. . ... ... ...
ROW 60 : ... .. . ... ... ... : ... .. . ... ... ... : ... .. . ... ... ... : ... .. . ... ... ... : ... .. . ... ... ...
ROW 61 : ... .. . ... ... ... : ... .. . ... ... ... : ... .. . ... ... ... : ... .. . ... ... ... : ... .. . ... ... ...
ROW 62 : ... .. . ... ... ... : ... .. . ... ... ... : ... .. . ... ... ... : ... .. . ... ... ... : ... .. . ... ... ...
ROW 63 : ... .. . ... ... ... : ... .. . ... ... ... : ... .. . ... ... ... : ... .. . ... ... ... : ... .. . ... ... ...
ROW 64 : ... .. . ... ... ... : ... .. . ... ... ... : ... .. . ... ... ... : ... .. . ... ... ... : ... .. . ... ... ...
ROW 65 : ... .. . ... ... ... : ... .. . ... ... ... : ... .. . ... ... ... : ... .. . ... ... ... : ... .. . ... ... ...
ROW 66 : ... .. . ... ... ... : ... .. . ... ... ... : ... .. . ... ... ... : ... .. . ... ... ... : ... .. . ... ... ...
ROW 67 : ... .. . ... ... ... : ... .. . ... ... ... : ... .. . ... ... ... : ... .. . ... ... ... : ... .. . ... ... ...
ROW 68 : ... .. . ... ... ... : ... .. . ... ... ... : ... .. . ... ... ... : ... .. . ... ... ... : ... .. . ... ... ...
ROW 69 : ... .. . ... ... ... : ... .. . ... ... ... : ... .. . ... ... ... : ... .. . ... ... ... : ... .. . ... ... ...
ROW 6A : ... .. . ... ... ... : ... .. . ... ... ... : ... .. . ... ... ... : ... .. . ... ... ... : ... .. . ... ... ...
ROW 6B : ... .. . ... ... ... : ... .. . ... ... ... : ... .. . ... ... ... : ... .. . ... ... ... : ... .. . ... ... ...
ROW 6C : ... .. . ... ... ... : ... .. . ... ... ... : ... .. . ... ... ... : ... .. . ... ... ... : ... .. . ... ... ...
ROW 6D : ... .. . ... ... ... : ... .. . ... ... ... : ... .. . ... ... ... : ... .. . ... ... ... : ... .. . ... ... ...
ROW 6E : ... .. . ... ... ... : ... .. . ... ... ... : ... .. . ... ... ... : ... .. . ... ... ... : ... .. . ... ... ...
ROW 6F : --- .. . ... ... ... : ... .. . ... ... ... : ... .. . ... ... ... : ... .. . ... ... ... : ... .. . ... ... ...
ROW 70 : A-2 04 . ... ... ... : ... .. . ... ... ... : ... .. . ... ... ... : ... .. . ... ... ... : B-3 06 . ... ... ...
ROW 71 : ... .. . ... ... ... : ... .. . ... ... ... : ... .. . ... ... ... : ... .. . ... ... ... : ... .. . ... ... ...
ROW 72 : ... .. . ... ... ... : ... .. . ... ... ... : ... .. . ... ... ... : ... .. . ... ... ... : ... .. . ... ... ...
ROW 73 : ... .. . ... ... ... : ... .. . ... ... ... : ... .. . ... ... ... : ... .. . ... ... ... : ... .. . ... ... ...
ROW 74 : ... .. . ... ... ... : ... .. . ... ... ... : ... .. . ... ... ... : ... .. . ... ... ... : ... .. . ... ... ...
ROW 75 : ... .. . ... ... ... : ... .. . ... ... ... : ... .. . ... ... ... : ... .. . ... ... ... : ... .. . ... ... ...
ROW 76 : ... .. . ... ... ... : ... .. . ... ... ... : ... .. . ... ... ... : ... .. . ... ... ... : ... .. . ... ... ...
ROW 77 : ... .. . ... ... ... : ... .. . ... ... ... : ... .. . ... ... ... : ... .. . ... ... ... : ... .. . ... ... ...
ROW 78 : ... .. . ... ... ... : ... .. . ... ... ... : ... .. . ... ... ... : ... .. . ... ... ... : ... .. . ... ... ...
ROW 79 : ... .. . ... ... ... : ... .. . ... ... ... : ... .. . ... ... ... : ... .. . ... ... ... : ... .. . ... ... ...
ROW 7A : ... .. . ... ... ... : ... .. . ... ... ... : ... .. . ... ... ... : ... .. . ... ... ... : ... .. . ... ... ...
ROW 7B : ... .. . ... ... ... : ... .. . ... ... ... : ... .. . ... ... ... : ... .. . ... ... ... : ... .. . ... ... ...
ROW 7C : ... .. . ... ... ... : ... .. . ... ... ... : ... .. . ... ... ... : ... .. . ... ... ... : ... .. . ... ... ...
ROW 7D : ... .. . ... ... ... : ... .. . ... ... ... : ... .. . ... ... ... : ... .. . ... ... ... : ... .. . ... ... ...
ROW 7E : ... .. . ... ... ... : ... .. . ... ... ... : ... .. . ... ... ... : ... .. . ... ... ... : ... .. . ... ... ...
ROW 7F : ... .. . ... ... ... : ... .. . ... ... ... : ... .. . ... ... ... : ... .. . ... ... ... : ... .. . ... ... ...
ROW 80 : ... .. . ... ... ... : ... .. . ... ... ... : ... .. . ... ... ... : ... .. . ... ... ... : ... .. . ... ... ...
ROW 81 : ... .. . ... ... ... : ... .. . ... ... ... : ... .. . ... ... ... : ... .. . ... ... ... : ... .. . ... ... ...
ROW 82 : ... .. . ... ... ... : ... .. . ... ... ... : ... .. . ... ... ... : ... .. . ... ... ... : ... .. . ... ... ...
ROW 83 : ... .. . ... ... ... : ... .. . ... ... ... : ... .. . ... ... ... : ... .. . ... ... ... : ... .. . ... ... ...
ROW 84 : ... .. . ... ... ... : ... .. . ... ... ... : ... .. . ... ... ... : ... .. . ... ... ... : ... .. . ... ... ...
ROW 85 : ... .. . ... ... ... : ... .. . ... ... ... : ... .. . ... ... ... : ... .. . ... ... ... : ... .. . ... ... ...
ROW 86 : ... .. . ... ... ... : ... .. . ... ... ... : ... .. . ... ... ... : ... .. . ... ... ... : ... .. . ... ... ...
ROW 87 : ... .. . ... ... ... : ... .. . ... ... ... : ... .. . ... ... ... : ... .. . ... ... ... : ... .. . ... ... ...
ROW 88 : ... .. . ... ... ... : ... .. . ... ... ... : ... .. . ... ... ... : ... .. . ... ... ... : ... .. . ... ... ...
ROW 89 : ... .. . ... ... ... : ... .. . ... ... ... : ... .. . ... ... ... : ... .. . ... ... ... : ... .. . ... ... ...
ROW 8A : ... .. . ... ... ... : ... .. . ... ... ... : ... .. . ... ... ... : ... .. . ... ... ... : ... .. . ... ... ...
ROW 8B : ... .. . ... ... ... : ... .. . ... ... ... : ... .. . ... ... ... : ... .. . ... ... ... : ... .. . ... ... ...
ROW 8C : ... .. . ... ... ... : ... .. . ... ... ... : ... .. . ... ... ... : ... .. . ... ... ... : ... .. . ... ... ...
ROW 8D : ... .. . ... ... ... : ... .. . ... ... ... : ... .. . ... ... ... : ... .. . ... ... ... : ... .. . ... ... ...
ROW 8E : ... .. . ... ... ... : ... .. . ... ... ... : ... .. . ... ... ... : ... .. . ... ... ... : ... .. . ... ... ...
ROW 8F : ... .. . ... ... ... : ... .. . ... ... ... : ... .. . ... ... ... : ... .. . ... ... ... : ... .. . ... ... ...
ROW 90 : ... .. . ... ... ... : ... .. . ... ... ... : ... .. . ... ... ... : ... .. . ... ... ... : ... .. . ... ... ...
ROW 91 : ... .. . ... ... ... : ... .. . ... ... ... : ... .. . ... ... ... : ... .. . ... ... ... : ... .. . ... ... ...
ROW 92 : ... .. . ... ... ... : ... .. . ... ... ... : ... .. . ... ... ... : ... .. . ... ... ... : ... .. . ... ... ...
ROW 93 : ... .. . ... ... ... : ... .. . ... ... ... : ... .. . ... ... ... : ... .. . ... ... ... : ... .. . ... ... ...
ROW 94 : ... .. . ... ... ... : ... .. . ... ... ... : ... .. . ... ... ... : ... .. . ... ... ... : ... .. . ... ... ...
ROW 95 : ... .. . ... ... ... : ... .. . ... ... ... : ... .. . ... ... ... : ... .. . ... ... ... : ... .. . ... ... ...
ROW 96 : ... .. . ... ... ... : ... .. . ... ... ... : ... .. . ... ... ... : ... .. . ... ... ... : ... .. . ... ... ...
ROW 97 : ... .. . ... ... ... : ... .. . ... ... ... : ... .. . ... ... ... : ... .. . ... ... ... : ... .. . ... ... ...
ROW 98 : ... .. . ... ... ... : ... .. . ... ... ... : ... .. . ... ... ... : ... .. . ... ... ... : ... .. . ... ... ...
ROW 99 : ... .. . ... ... ... : ... .. . ... ... ... : ... .. . ... ... ... : ... .. . ... ... ... : ... .. . ... ... ...
ROW 9A : ... .. . ... ... ... : ... .. . ... ... ... : ... .. . ... ... ... : ... .. . ... ... ... : ... .. . ... ... ...
ROW 9B : ... .. . ... ... ... : ... .. . ... ... ... : ... .. . ... ... ... : ... .. . ... ... ... : ... .. . ... ... ...
ROW 9C : ... .. . ... ... ... : ... .. . ... ... ... : ... .. . ... ... ... : ... .. . ... ... ... : ... .. . ... ... ...
ROW 9D : ... .. . ... ... ... : ... .. . ... ... ... : ... .. . ... ... ... : ... .. . ... ... ... : ... .. . ... ... ...
ROW 9E : ... .. . ... ... ... : ... .. . ... ... ... : ... .. . ... ... ... : ... .. . ... ... ... : ... .. . ... ... ...
ROW 9F : ... .. . ... ... ... : ... .. . ... ... ... : ... .. . ... ... ... : ... .. . ... ... ... : ... .. . ... ... ...
ROW A0 : ... .. . ... ... ... : ... .. . ... ... ... : ... .. . ... ... ... : ... .. . ... ... ... : ... .. . ... ... ...
ROW A1 : ... .. . ... ... ... : ... .. . ... ... ... : ... .. . ... ... ... : ... .. . ... ... ... : ... .. . ... ... ...
ROW A2 : ... .. . ... ... ... : ... .. . ... ... ... : ... .. . ... ... ... : ... .. . ... ... ... : ... .. . ... ... ...
ROW A3 : ... .. . ... ... ... : ... .. . ... ... ... : ... .. . ... ... ... : ... .. . ... ... ... : ... .. . ... ... ...
ROW A4 : ... .. . ... ... ... : ... .. . ... ... ... : ... .. . ... ... ... : ... .. . ... ... ... : ... .. . ... ... ...
ROW A5 : ... .. . ... ... ... : ... .. . ... ... ... : ... .. . ... ... ... : ... .. . ... ... ... : ... .. . ... ... ...
ROW A6 : ... .. . ... ... ... : ... .. . ... ... ... : ... .. . ... ... ... : ... .. . ... ... ... : ... .. . ... ... ...
ROW A7 : ... .. . ... ... ... : ... .. . ... ... ... : ... .. . ... ... ... : ... .. . ... ... ... : ... .. . ... ... ...
ROW A8 : ... .. . ... ... ... : ... .. . ... ... ... : ... .. . ... ... ... : ... .. . ... ... ... : ... .. . ... ... ...
ROW A9 : ... .. . ... ... ... : ... .. . ... ... ... : ... .. . ... ... ... : ... .. . ... ... ... : ... .. . ... ... ...
ROW AA : ... .. . ... ... ... : ... .. . ... ... ... : ... .. . ... ... ... : ... .. . ... ... ... : ... .. . ... ... ...
ROW AB : ... .. . ... ... ... : ... .. . ... ... ... : ... .. . ... ... ... : ... .. . ... ... ... : ... .. . ... ... ...
ROW AC : ... .. . ... ... ... : ... .. . ... ... ... : ... .. . ... ... ... : ... .. . ... ... ... : ... .. . ... ... ...
ROW AD : ... .. . ... ... ... : ... .. . ... ... ... : ... .. . ... ... ... : ... .. . ... ... ... : ... .. . ... ... ...
ROW AE : ... .. . ... ... ... : ... .. . ... ... ... : ... .. . ... ... ... : ... .. . ... ... ... : ... .. . ... ... ...
ROW AF : ... .. . ... ... ... : ... .. . ... ... ... : ... .. . ... ... ... : ... .. . ... ... ... : ... .. . ... ... ...
ROW B0 : ... .. . ... ... ... : ... .. . ... ... ... : ... .. . ... ... ... : ... .. . ... ... ... : ... .. . ... ... ...
ROW B1 : ... .. . ... ... ... : ... .. . ... ... ... : ... .. . ... ... ... : ... .. . ... ... ... : ... .. . ... ... ...
ROW B2 : ... .. . ... ... ... : ... .. . ... ... ... : ... .. . ... ... ... : ... .. . ... ... ... : ... .. . ... ... ...
ROW B3 : ... .. . ... ... ... : ... .. . ... ... ... : ... .. . ... ... ... : ... .. . ... ... ... : ... .. . ... ... ...
ROW B4 : ... .. . ... ... ... : ... .. . ... ... ... : ... .. . ... ... ... : ... .. . ... ... ... : ... .. . ... ... ...
ROW B5 : ... .. . ... ... ... : ... .. . ... ... ... : ... .. . ... ... ... : ... .. . ... ... ... : ... .. . ... ... ...
ROW B6 : ... .. . ... ... ... : ... .. . ... ... ... : ... .. . ... ... ... : ... .. . ... ... ... : ... .. . ... ... ...
ROW B7 : ... .. . ... ... ... : ... .. . ... ... ... : ... .. . ... ... ... : ... .. . ... ... ... : ... .. . ... ... ...
ROW B8 : ... .. . ... ... ... : ... .. . ... ... ... : ... .. . ... ... ... : ... .. . ... ... ... : ... .. . ... ... ...
ROW B9 : ... .. . ... ... ... : ... .. . ... ... ... : ... .. . ... ... ... : ... .. . ... ... ... : ... .. . ... ... ...
ROW BA : ... .. . ... ... ... : ... .. . ... ... ... : ... .. . ... ... ... : ... .. . ... ... ... : ... .. . ... ... ...
ROW BB : ... .. . ... ... ... : ... .. . ... ... ... : ... .. . ... ... ... : ... .. . ... ... ... : ... .. . ... ... ...
ROW BC : ... .. . ... ... ... : ... .. . ... ... ... : ... .. . ... ... ... : ... .. . ... ... ... : ... .. . ... ... ...
ROW BD : ... .. . ... ... ... : ... .. . ... ... ... : ... .. . ... ... ... : ... .. . ... ... ... : ... .. . ... ... ...
ROW BE : ... .. . ... ... ... : ... .. . ... ... ... : ... .. . ... ... ... : ... .. . ... ... ... : ... .. . ... ... ...
ROW BF : ... .. . ... ... ... : ... .. . ... ... ... : ... .. . ... ... ... : ... .. . ... ... ... : ... .. . ... ... ...
ROW C0 : ... .. . ... ... ... : ... .. . ... ... ... : ... .. . ... ... ... : ... .. . ... ... ... : ... .. . ... ... ...
ROW C1 : ... .. . ... ... ... : ... .. . ... ... ... : ... .. . ... ... ... : ... .. . ... ... ... : ... .. . ... ... ...
ROW C2 : ... .. . ... ... ... : ... .. . ... ... ... : ... .. . ... ... ... : ... .. . ... ... ... : ... .. . ... ... ...
ROW C3 : --- .. . ... ... ... : ... .. . ... ... ... : ... .. . ... ... ... : ... .. . ... ... ... : ... .. . ... ... ...
ROW C4 : C#3 04 . ... ... ... : ... .. . ... ... ... : ... .. . ... ... ... : ... .. . ... ... ... : ... .. . ... ... ...
ROW C5 : ... .. . ... ... ... : ... .. . ... ... ... : ... .. . ... ... ... : ... .. . ... ... ... : ... .. . ... ... ...
ROW C6 : ... .. . ... ... ... : ... .. . ... ... ... : ... .. . ... ... ... : ... .. . ... ... ... : ... .. . ... ... ...
ROW C7 : ... .. . ... ... ... : ... .. . ... ... ... : ... .. . ... ... ... : ... .. . ... ... ... : ... .. . ... ... ...
ROW C8 : ... .. . ... ... ... : ... .. . ... ... ... : ... .. . ... ... ... : ... .. . ... ... ... : ... .. . ... ... ...
ROW C9 : ... .. . ... ... ... : ... .. . ... ... ... : ... .. . ... ... ... : ... .. . ... ... ... : ... .. . ... ... ...
ROW CA : ... .. . ... ... ... : ... .. . ... ... ... : ... .. . ... ... ... : ... .. . ... ... ... : ... .. . ... ... ...
ROW CB : ... .. . ... ... ... : ... .. . ... ... ... : ... .. . ... ... ... : ... .. . ... ... ... : ... .. . ... ... ...
ROW CC : ... .. . ... ... ... : ... .. . ... ... ... : ... .. . ... ... ... : ... .. . ... ... ... : ... .. . ... ... ...
ROW CD : ... .. . ... ... ... : ... .. . ... ... ... : ... .. . ... ... ... : ... .. . ... ... ... : ... .. . ... ... ...
ROW CE : ... .. . ... ... ... : ... .. . ... ... ... : ... .. . ... ... ... : ... .. . ... ... ... : ... .. . ... ... ...
ROW CF : ... .. . ... ... ... : ... .. . ... ... ... : ... .. . ... ... ... : ... .. . ... ... ... : ... .. . ... ... ...
ROW D0 : ... .. . ... ... ... : ... .. . ... ... ... : ... .. . ... ... ... : ... .. . ... ... ... : ... .. . ... ... ...
ROW D1 : ... .. . ... ... ... : ... .. . ... ... ... : ... .. . ... ... ... : ... .. . ... ... ... : ... .. . ... ... ...
ROW D2 : ... .. . ... ... ... : ... .. . ... ... ... : ... .. . ... ... ... : ... .. . ... ... ... : ... .. . ... ... ...
ROW D3 : ... .. . ... ... ... : ... .. . ... ... ... : ... .. . ... ... ... : ... .. . ... ... ... : ... .. . ... ... ...
ROW D4 : ... .. . ... ... ... : ... .. . ... ... ... : ... .. . ... ... ... : ... .. . ... ... ... : ... .. . ... ... ...
ROW D5 : ... .. . ... ... ... : ... .. . ... ... ... : ... .. . ... ... ... : ... .. . ... ... ... : ... .. . ... ... ...
ROW D6 : ... .. . ... ... ... : ... .. . ... ... ... : ... .. . ... ... ... : ... .. . ... ... ... : ... .. . ... ... ...
ROW D7 : ... .. . ... ... ... : ... .. . ... ... ... : ... .. . ... ... ... : ... .. . ... ... ... : ... .. . ... ... ...
ROW D8 : ... .. . ... ... ... : ... .. . ... ... ... : ... .. . ... ... ... : ... .. . ... ... ... : ... .. . ... ... ...
ROW D9 : ... .. . ... ... ... : ... .. . ... ... ... : ... .. . ... ... ... : ... .. . ... ... ... : ... .. . ... ... ...
ROW DA : ... .. . ... ... ... : ... .. . ... ... ... : ... .. . ... ... ... : ... .. . ... ... ... : ... .. . ... ... ...
ROW DB : ... .. . ... ... ... : ... .. . ... ... ... : ... .. . ... ... ... : ... .. . ... ... ... : ... .. . ... ... ...
ROW DC : ... .. . ... ... ... : ... .. . ... ... ... : ... .. . ... ... ... : ... .. . ... ... ... : ... .. . ... ... ...
ROW DD : ... .. . ... ... ... : ... .. . ... ... ... : ... .. . ... ... ... : ... .. . ... ... ... : ... .. . ... ... ...
ROW DE : ... .. . ... ... ... : ... .. . ... ... ... : ... .. . ... ... ... : ... .. . ... ... ... : ... .. . ... ... ...
ROW DF : --- .. . ... ... ... : ... .. . ... ... ... : ... .. . ... ... ... : ... .. . ... ... ... : ... .. . B00 ... ...

PATTERN 0B
ROW 00 : D-3 04 . ... ... ... : ... .. . ... ... ... : ... .. . ... ... ... : ... .. . ... ... ... : ... .. . ... ... ...
ROW 01 : ... .. . ... ... ... : ... .. . ... ... ... : ... .. . ... ... ... : ... .. . ... ... ... : ... .. . ... ... ...
ROW 02 : ... .. . ... ... ... : ... .. . ... ... ... : ... .. . ... ... ... : ... .. . ... ... ... : ... .. . ... ... ...
ROW 03 : ... .. . ... ... ... : ... .. . ... ... ... : ... .. . ... ... ... : ... .. . ... ... ... : ... .. . ... ... ...
ROW 04 : ... .. . ... ... ... : ... .. . ... ... ... : ... .. . ... ... ... : ... .. . ... ... ... : ... .. . ... ... ...
ROW 05 : ... .. . ... ... ... : ... .. . ... ... ... : ... .. . ... ... ... : ... .. . ... ... ... : ... .. . ... ... ...
ROW 06 : ... .. . ... ... ... : ... .. . ... ... ... : ... .. . ... ... ... : ... .. . ... ... ... : ... .. . ... ... ...
ROW 07 : ... .. . ... ... ... : ... .. . ... ... ... : ... .. . ... ... ... : ... .. . ... ... ... : ... .. . ... ... ...
ROW 08 : ... .. . ... ... ... : ... .. . ... ... ... : ... .. . ... ... ... : ... .. . ... ... ... : ... .. . ... ... ...
ROW 09 : ... .. . ... ... ... : ... .. . ... ... ... : ... .. . ... ... ... : ... .. . ... ... ... : ... .. . ... ... ...
ROW 0A : ... .. . ... ... ... : ... .. . ... ... ... : ... .. . ... ... ... : ... .. . ... ... ... : ... .. . ... ... ...
ROW 0B : ... .. . ... ... ... : ... .. . ... ... ... : ... .. . ... ... ... : ... .. . ... ... ... : ... .. . ... ... ...
ROW 0C : ... .. . ... ... ... : ... .. . ... ... ... : ... .. . ... ... ... : ... .. . ... ... ... : ... .. . ... ... ...
ROW 0D : ... .. . ... ... ... : ... .. . ... ... ... : ... .. . ... ... ... : ... .. . ... ... ... : ... .. . ... ... ...
ROW 0E : ... .. . ... ... ... : ... .. . ... ... ... : ... .. . ... ... ... : ... .. . ... ... ... : ... .. . ... ... ...
ROW 0F : ... .. . ... ... ... : ... .. . ... ... ... : ... .. . ... ... ... : ... .. . ... ... ... : ... .. . ... ... ...
ROW 10 : ... .. . ... ... ... : ... .. . ... ... ... : ... .. . ... ... ... : ... .. . ... ... ... : ... .. . ... ... ...
ROW 11 : ... .. . ... ... ... : ... .. . ... ... ... : ... .. . ... ... ... : ... .. . ... ... ... : ... .. . ... ... ...
ROW 12 : ... .. . ... ... ... : ... .. . ... ... ... : ... .. . ... ... ... : ... .. . ... ... ... : ... .. . ... ... ...
ROW 13 : ... .. . ... ... ... : ... .. . ... ... ... : ... .. . ... ... ... : ... .. . ... ... ... : ... .. . ... ... ...
ROW 14 : ... .. . ... ... ... : ... .. . ... ... ... : ... .. . ... ... ... : ... .. . ... ... ... : ... .. . ... ... ...
ROW 15 : ... .. . ... ... ... : ... .. . ... ... ... : ... .. . ... ... ... : ... .. . ... ... ... : ... .. . ... ... ...
ROW 16 : ... .. . ... ... ... : ... .. . ... ... ... : ... .. . ... ... ... : ... .. . ... ... ... : ... .. . ... ... ...
ROW 17 : ... .. . ... ... ... : ... .. . ... ... ... : ... .. . ... ... ... : ... .. . ... ... ... : ... .. . ... ... ...
ROW 18 : ... .. . ... ... ... : ... .. . ... ... ... : ... .. . ... ... ... : ... .. . ... ... ... : ... .. . ... ... ...
ROW 19 : ... .. . ... ... ... : ... .. . ... ... ... : ... .. . ... ... ... : ... .. . ... ... ... : ... .. . ... ... ...
ROW 1A : ... .. . ... ... ... : ... .. . ... ... ... : ... .. . ... ... ... : ... .. . ... ... ... : ... .. . ... ... ...
ROW 1B : ... .. . ... ... ... : ... .. . ... ... ... : ... .. . ... ... ... : ... .. . ... ... ... : ... .. . ... ... ...
ROW 1C : ... .. . ... ... ... : ... .. . ... ... ... : ... .. . ... ... ... : ... .. . ... ... ... : ... .. . ... ... ...
ROW 1D : ... .. . ... ... ... : ... .. . ... ... ... : ... .. . ... ... ... : ... .. . ... ... ... : ... .. . ... ... ...
ROW 1E : ... .. . ... ... ... : ... .. . ... ... ... : ... .. . ... ... ... : ... .. . ... ... ... : ... .. . ... ... ...
ROW 1F : ... .. . ... ... ... : ... .. . ... ... ... : ... .. . ... ... ... : ... .. . ... ... ... : ... .. . ... ... ...
ROW 20 : ... .. . ... ... ... : ... .. . ... ... ... : ... .. . ... ... ... : ... .. . ... ... ... : ... .. . ... ... ...
ROW 21 : ... .. . ... ... ... : ... .. . ... ... ... : ... .. . ... ... ... : ... .. . ... ... ... : ... .. . ... ... ...
ROW 22 : ... .. . ... ... ... : ... .. . ... ... ... : ... .. . ... ... ... : ... .. . ... ... ... : ... .. . ... ... ...
ROW 23 : ... .. . ... ... ... : ... .. . ... ... ... : ... .. . ... ... ... : ... .. . ... ... ... : ... .. . ... ... ...
ROW 24 : ... .. . ... ... ... : ... .. . ... ... ... : ... .. . ... ... ... : ... .. . ... ... ... : ... .. . ... ... ...
ROW 25 : ... .. . ... ... ... : ... .. . ... ... ... : ... .. . ... ... ... : ... .. . ... ... ... : ... .. . ... ... ...
ROW 26 : ... .. . ... ... ... : ... .. . ... ... ... : ... .. . ... ... ... : ... .. . ... ... ... : ... .. . ... ... ...
ROW 27 : ... .. . ... ... ... : ... .. . ... ... ... : ... .. . ... ... ... : ... .. . ... ... ... : ... .. . ... ... ...
ROW 28 : ... .. . ... ... ... : ... .. . ... ... ... : ... .. . ... ... ... : ... .. . ... ... ... : ... .. . ... ... ...
ROW 29 : ... .. . ... ... ... : ... .. . ... ... ... : ... .. . ... ... ... : ... .. . ... ... ... : ... .. . ... ... ...
ROW 2A : ... .. . ... ... ... : ... .. . ... ... ... : ... .. . ... ... ... : ... .. . ... ... ... : ... .. . ... ... ...
ROW 2B : ... .. . ... ... ... : ... .. . ... ... ... : ... .. . ... ... ... : ... .. . ... ... ... : ... .. . ... ... ...
ROW 2C : ... .. . ... ... ... : ... .. . ... ... ... : ... .. . ... ... ... : ... .. . ... ... ... : ... .. . ... ... ...
ROW 2D : ... .. . ... ... ... : ... .. . ... ... ... : ... .. . ... ... ... : ... .. . ... ... ... : ... .. . ... ... ...
ROW 2E : ... .. . ... ... ... : ... .. . ... ... ... : ... .. . ... ... ... : ... .. . ... ... ... : ... .. . ... ... ...
ROW 2F : ... .. . ... ... ... : ... .. . ... ... ... : ... .. . ... ... ... : ... .. . ... ... ... : ... .. . ... ... ...
ROW 30 : ... .. . ... ... ... : ... .. . ... ... ... : ... .. . ... ... ... : ... .. . ... ... ... : ... .. . ... ... ...
ROW 31 : ... .. . ... ... ... : ... .. . ... ... ... : ... .. . ... ... ... : ... .. . ... ... ... : ... .. . ... ... ...
ROW 32 : ... .. . ... ... ... : ... .. . ... ... ... : ... .. . ... ... ... : ... .. . ... ... ... : ... .. . ... ... ...
ROW 33 : ... .. . ... ... ... : ... .. . ... ... ... : ... .. . ... ... ... : ... .. . ... ... ... : ... .. . ... ... ...
ROW 34 : ... .. . ... ... ... : ... .. . ... ... ... : ... .. . ... ... ... : ... .. . ... ... ... : ... .. . ... ... ...
ROW 35 : ... .. . ... ... ... : ... .. . ... ... ... : ... .. . ... ... ... : ... .. . ... ... ... : ... .. . ... ... ...
ROW 36 : ... .. . ... ... ... : ... .. . ... ... ... : ... .. . ... ... ... : ... .. . ... ... ... : ... .. . ... ... ...
ROW 37 : ... .. . ... ... ... : ... .. . ... ... ... : ... .. . ... ... ... : ... .. . ... ... ... : ... .. . ... ... ...
ROW 38 : ... .. . ... ... ... : ... .. . ... ... ... : ... .. . ... ... ... : ... .. . ... ... ... : ... .. . ... ... ...
ROW 39 : ... .. . ... ... ... : ... .. . ... ... ... : ... .. . ... ... ... : ... .. . ... ... ... : ... .. . ... ... ...
ROW 3A : ... .. . ... ... ... : ... .. . ... ... ... : ... .. . ... ... ... : ... .. . ... ... ... : ... .. . ... ... ...
ROW 3B : ... .. . ... ... ... : ... .. . ... ... ... : ... .. . ... ... ... : ... .. . ... ... ... : ... .. . ... ... ...
ROW 3C : ... .. . ... ... ... : ... .. . ... ... ... : ... .. . ... ... ... : ... .. . ... ... ... : ... .. . ... ... ...
ROW 3D : ... .. . ... ... ... : ... .. . ... ... ... : ... .. . ... ... ... : ... .. . ... ... ... : ... .. . ... ... ...
ROW 3E : ... .. . ... ... ... : ... .. . ... ... ... : ... .. . ... ... ... : ... .. . ... ... ... : ... .. . ... ... ...
ROW 3F : ... .. . ... ... ... : ... .. . ... ... ... : ... .. . ... ... ... : ... .. . ... ... ... : ... .. . ... ... ...
ROW 40 : ... .. . ... ... ... : ... .. . ... ... ... : ... .. . ... ... ... : ... .. . ... ... ... : ... .. . ... ... ...
ROW 41 : ... .. . ... ... ... : ... .. . ... ... ... : ... .. . ... ... ... : ... .. . ... ... ... : ... .. . ... ... ...
ROW 42 : ... .. . ... ... ... : ... .. . ... ... ... : ... .. . ... ... ... : ... .. . ... ... ... : ... .. . ... ... ...
ROW 43 : ... .. . ... ... ... : ... .. . ... ... ... : ... .. . ... ... ... : ... .. . ... ... ... : ... .. . ... ... ...
ROW 44 : ... .. . ... ... ... : ... .. . ... ... ... : ... .. . ... ... ... : ... .. . ... ... ... : ... .. . ... ... ...
ROW 45 : ... .. . ... ... ... : ... .. . ... ... ... : ... .. . ... ... ... : ... .. . ... ... ... : ... .. . ... ... ...
ROW 46 : ... .. . ... ... ... : ... .. . ... ... ... : ... .. . ... ... ... : ... .. . ... ... ... : ... .. . ... ... ...
ROW 47 : ... .. . ... ... ... : ... .. . ... ... ... : ... .. . ... ... ... : ... .. . ... ... ... : ... .. . ... ... ...
ROW 48 : ... .. . ... ... ... : ... .. . ... ... ... : ... .. . ... ... ... : ... .. . ... ... ... : ... .. . ... ... ...
ROW 49 : ... .. . ... ... ... : ... .. . ... ... ... : ... .. . ... ... ... : ... .. . ... ... ... : ... .. . ... ... ...
ROW 4A : ... .. . ... ... ... : ... .. . ... ... ... : ... .. . ... ... ... : ... .. . ... ... ... : ... .. . ... ... ...
ROW 4B : ... .. . ... ... ... : ... .. . ... ... ... : ... .. . ... ... ... : ... .. . ... ... ... : ... .. . ... ... ...
ROW 4C : ... .. . ... ... ... : ... .. . ... ... ... : ... .. . ... ... ... : ... .. . ... ... ... : ... .. . ... ... ...
ROW 4D : ... .. . ... ... ... : ... .. . ... ... ... : ... .. . ... ... ... : ... .. . ... ... ... : ... .. . ... ... ...
ROW 4E : ... .. . ... ... ... : ... .. . ... ... ... : ... .. . ... ... ... : ... .. . ... ... ... : ... .. . ... ... ...
ROW 4F : ... .. . ... ... ... : ... .. . ... ... ... : ... .. . ... ... ... : ... .. . ... ... ... : ... .. . ... ... ...
ROW 50 : ... .. . ... ... ... : ... .. . ... ... ... : ... .. . ... ... ... : ... .. . ... ... ... : ... .. . ... ... ...
ROW 51 : ... .. . ... ... ... : ... .. . ... ... ... : ... .. . ... ... ... : ... .. . ... ... ... : ... .. . ... ... ...
ROW 52 : ... .. . ... ... ... : ... .. . ... ... ... : ... .. . ... ... ... : ... .. . ... ... ... : ... .. . ... ... ...
ROW 53 : --- .. . ... ... ... : ... .. . ... ... ... : ... .. . ... ... ... : ... .. . ... ... ... : ... .. . ... ... ...
ROW 54 : D-3 04 . ... ... ... : ... .. . ... ... ... : ... .. . ... ... ... : ... .. . ... ... ... : ... .. . ... ... ...
ROW 55 : ... .. . ... ... ... : ... .. . ... ... ... : ... .. . ... ... ... : ... .. . ... ... ... : ... .. . ... ... ...
ROW 56 : ... .. . ... ... ... : ... .. . ... ... ... : ... .. . ... ... ... : ... .. . ... ... ... : ... .. . ... ... ...
ROW 57 : ... .. . ... ... ... : ... .. . ... ... ... : ... .. . ... ... ... : ... .. . ... ... ... : ... .. . ... ... ...
ROW 58 : ... .. . ... ... ... : ... .. . ... ... ... : ... .. . ... ... ... : ... .. . ... ... ... : ... .. . ... ... ...
ROW 59 : ... .. . ... ... ... : ... .. . ... ... ... : ... .. . ... ... ... : ... .. . ... ... ... : ... .. . ... ... ...
ROW 5A : ... .. . ... ... ... : ... .. . ... ... ... : ... .. . ... ... ... : ... .. . ... ... ... : ... .. . ... ... ...
ROW 5B : ... .. . ... ... ... : ... .. . ... ... ... : ... .. . ... ... ... : ... .. . ... ... ... : ... .. . ... ... ...
ROW 5C : ... .. . ... ... ... : ... .. . ... ... ... : ... .. . ... ... ... : ... .. . ... ... ... : ... .. . ... ... ...
ROW 5D : ... .. . ... ... ... : ... .. . ... ... ... : ... .. . ... ... ... : ... .. . ... ... ... : ... .. . ... ... ...
ROW 5E : ... .. . ... ... ... : ... .. . ... ... ... : ... .. . ... ... ... : ... .. . ... ... ... : ... .. . ... ... ...
ROW 5F : ... .. . ... ... ... : ... .. . ... ... ... : ... .. . ... ... ... : ... .. . ... ... ... : ... .. . ... ... ...
ROW 60 : ... .. . ... ... ... : ... .. . ... ... ... : ... .. . ... ... ... : ... .. . ... ... ... : ... .. . ... ... ...
ROW 61 : ... .. . ... ... ... : ... .. . ... ... ... : ... .. . ... ... ... : ... .. . ... ... ... : ... .. . ... ... ...
ROW 62 : ... .. . ... ... ... : ... .. . ... ... ... : ... .. . ... ... ... : ... .. . ... ... ... : ... .. . ... ... ...
ROW 63 : ... .. . ... ... ... : ... .. . ... ... ... : ... .. . ... ... ... : ... .. . ... ... ... : ... .. . ... ... ...
ROW 64 : ... .. . ... ... ... : ... .. . ... ... ... : ... .. . ... ... ... : ... .. . ... ... ... : ... .. . ... ... ...
ROW 65 : ... .. . ... ... ... : ... .. . ... ... ... : ... .. . ... ... ... : ... .. . ... ... ... : ... .. . ... ... ...
ROW 66 : ... .. . ... ... ... : ... .. . ... ... ... : ... .. . ... ... ... : ... .. . ... ... ... : ... .. . ... ... ...
ROW 67 : ... .. . ... ... ... : ... .. . ... ... ... : ... .. . ... ... ... : ... .. . ... ... ... : ... .. . ... ... ...
ROW 68 : ... .. . ... ... ... : ... .. . ... ... ... : ... .. . ... ... ... : ... .. . ... ... ... : ... .. . ... ... ...
ROW 69 : ... .. . ... ... ... : ... .. . ... ... ... : ... .. . ... ... ... : ... .. . ... ... ... : ... .. . ... ... ...
ROW 6A : ... .. . ... ... ... : ... .. . ... ... ... : ... .. . ... ... ... : ... .. . ... ... ... : ... .. . ... ... ...
ROW 6B : ... .. . ... ... ... : ... .. . ... ... ... : ... .. . ... ... ... : ... .. . ... ... ... : ... .. . ... ... ...
ROW 6C : ... .. . ... ... ... : ... .. . ... ... ... : ... .. . ... ... ... : ... .. . ... ... ... : ... .. . ... ... ...
ROW 6D : ... .. . ... ... ... : ... .. . ... ... ... : ... .. . ... ... ... : ... .. . ... ... ... : ... .. . ... ... ...
ROW 6E : ... .. . ... ... ... : ... .. . ... ... ... : ... .. . ... ... ... : ... .. . ... ... ... : ... .. . ... ... ...
ROW 6F : --- .. . ... ... ... : ... .. . ... ... ... : ... .. . ... ... ... : ... .. . ... ... ... : ... .. . ... ... ...
ROW 70 : C#3 04 . ... ... ... : ... .. . ... ... ... : ... .. . ... ... ... : ... .. . ... ... ... : ... .. . ... ... ...
ROW 71 : ... .. . ... ... ... : ... .. . ... ... ... : ... .. . ... ... ... : ... .. . ... ... ... : ... .. . ... ... ...
ROW 72 : ... .. . ... ... ... : ... .. . ... ... ... : ... .. . ... ... ... : ... .. . ... ... ... : ... .. . ... ... ...
ROW 73 : ... .. . ... ... ... : ... .. . ... ... ... : ... .. . ... ... ... : ... .. . ... ... ... : ... .. . ... ... ...
ROW 74 : ... .. . ... ... ... : ... .. . ... ... ... : ... .. . ... ... ... : ... .. . ... ... ... : ... .. . ... ... ...
ROW 75 : ... .. . ... ... ... : ... .. . ... ... ... : ... .. . ... ... ... : ... .. . ... ... ... : ... .. . ... ... ...
ROW 76 : ... .. . ... ... ... : ... .. . ... ... ... : ... .. . ... ... ... : ... .. . ... ... ... : ... .. . ... ... ...
ROW 77 : ... .. . ... ... ... : ... .. . ... ... ... : ... .. . ... ... ... : ... .. . ... ... ... : ... .. . ... ... ...
ROW 78 : ... .. . ... ... ... : ... .. . ... ... ... : ... .. . ... ... ... : ... .. . ... ... ... : ... .. . ... ... ...
ROW 79 : ... .. . ... ... ... : ... .. . ... ... ... : ... .. . ... ... ... : ... .. . ... ... ... : ... .. . ... ... ...
ROW 7A : ... .. . ... ... ... : ... .. . ... ... ... : ... .. . ... ... ... : ... .. . ... ... ... : ... .. . ... ... ...
ROW 7B : ... .. . ... ... ... : ... .. . ... ... ... : ... .. . ... ... ... : ... .. . ... ... ... : ... .. . ... ... ...
ROW 7C : ... .. . ... ... ... : ... .. . ... ... ... : ... .. . ... ... ... : ... .. . ... ... ... : ... .. . ... ... ...
ROW 7D : ... .. . ... ... ... : ... .. . ... ... ... : ... .. . ... ... ... : ... .. . ... ... ... : ... .. . ... ... ...
ROW 7E : ... .. . ... ... ... : ... .. . ... ... ... : ... .. . ... ... ... : ... .. . ... ... ... : ... .. . ... ... ...
ROW 7F : ... .. . ... ... ... : ... .. . ... ... ... : ... .. . ... ... ... : ... .. . ... ... ... : ... .. . ... ... ...
ROW 80 : ... .. . ... ... ... : ... .. . ... ... ... : ... .. . ... ... ... : ... .. . ... ... ... : ... .. . ... ... ...
ROW 81 : ... .. . ... ... ... : ... .. . ... ... ... : ... .. . ... ... ... : ... .. . ... ... ... : ... .. . ... ... ...
ROW 82 : ... .. . ... ... ... : ... .. . ... ... ... : ... .. . ... ... ... : ... .. . ... ... ... : ... .. . ... ... ...
ROW 83 : ... .. . ... ... ... : ... .. . ... ... ... : ... .. . ... ... ... : ... .. . ... ... ... : ... .. . ... ... ...
ROW 84 : ... .. . ... ... ... : ... .. . ... ... ... : ... .. . ... ... ... : ... .. . ... ... ... : ... .. . ... ... ...
ROW 85 : ... .. . ... ... ... : ... .. . ... ... ... : ... .. . ... ... ... : ... .. . ... ... ... : ... .. . ... ... ...
ROW 86 : ... .. . ... ... ... : ... .. . ... ... ... : ... .. . ... ... ... : ... .. . ... ... ... : ... .. . ... ... ...
ROW 87 : ... .. . ... ... ... : ... .. . ... ... ... : ... .. . ... ... ... : ... .. . ... ... ... : ... .. . ... ... ...
ROW 88 : ... .. . ... ... ... : ... .. . ... ... ... : ... .. . ... ... ... : ... .. . ... ... ... : ... .. . ... ... ...
ROW 89 : ... .. . ... ... ... : ... .. . ... ... ... : ... .. . ... ... ... : ... .. . ... ... ... : ... .. . ... ... ...
ROW 8A : ... .. . ... ... ... : ... .. . ... ... ... : ... .. . ... ... ... : ... .. . ... ... ... : ... .. . ... ... ...
ROW 8B : ... .. . ... ... ... : ... .. . ... ... ... : ... .. . ... ... ... : ... .. . ... ... ... : ... .. . ... ... ...
ROW 8C : ... .. . ... ... ... : ... .. . ... ... ... : ... .. . ... ... ... : ... .. . ... ... ... : ... .. . ... ... ...
ROW 8D : ... .. . ... ... ... : ... .. . ... ... ... : ... .. . ... ... ... : ... .. . ... ... ... : ... .. . ... ... ...
ROW 8E : ... .. . ... ... ... : ... .. . ... ... ... : ... .. . ... ... ... : ... .. . ... ... ... : ... .. . ... ... ...
ROW 8F : ... .. . ... ... ... : ... .. . ... ... ... : ... .. . ... ... ... : ... .. . ... ... ... : ... .. . ... ... ...
ROW 90 : ... .. . ... ... ... : ... .. . ... ... ... : ... .. . ... ... ... : ... .. . ... ... ... : ... .. . ... ... ...
ROW 91 : ... .. . ... ... ... : ... .. . ... ... ... : ... .. . ... ... ... : ... .. . ... ... ... : ... .. . ... ... ...
ROW 92 : ... .. . ... ... ... : ... .. . ... ... ... : ... .. . ... ... ... : ... .. . ... ... ... : ... .. . ... ... ...
ROW 93 : ... .. . ... ... ... : ... .. . ... ... ... : ... .. . ... ... ... : ... .. . ... ... ... : ... .. . ... ... ...
ROW 94 : ... .. . ... ... ... : ... .. . ... ... ... : ... .. . ... ... ... : ... .. . ... ... ... : ... .. . ... ... ...
ROW 95 : ... .. . ... ... ... : ... .. . ... ... ... : ... .. . ... ... ... : ... .. . ... ... ... : ... .. . ... ... ...
ROW 96 : ... .. . ... ... ... : ... .. . ... ... ... : ... .. . ... ... ... : ... .. . ... ... ... : ... .. . ... ... ...
ROW 97 : ... .. . ... ... ... : ... .. . ... ... ... : ... .. . ... ... ... : ... .. . ... ... ... : ... .. . ... ... ...
ROW 98 : ... .. . ... ... ... : ... .. . ... ... ... : ... .. . ... ... ... : ... .. . ... ... ... : ... .. . ... ... ...
ROW 99 : ... .. . ... ... ... : ... .. . ... ... ... : ... .. . ... ... ... : ... .. . ... ... ... : ... .. . ... ... ...
ROW 9A : ... .. . ... ... ... : ... .. . ... ... ... : ... .. . ... ... ... : ... .. . ... ... ... : ... .. . ... ... ...
ROW 9B : ... .. . ... ... ... : ... .. . ... ... ... : ... .. . ... ... ... : ... .. . ... ... ... : ... .. . ... ... ...
ROW 9C : ... .. . ... ... ... : ... .. . ... ... ... : ... .. . ... ... ... : ... .. . ... ... ... : ... .. . ... ... ...
ROW 9D : ... .. . ... ... ... : ... .. . ... ... ... : ... .. . ... ... ... : ... .. . ... ... ... : ... .. . ... ... ...
ROW 9E : ... .. . ... ... ... : ... .. . ... ... ... : ... .. . ... ... ... : ... .. . ... ... ... : ... .. . ... ... ...
ROW 9F : ... .. . ... ... ... : ... .. . ... ... ... : ... .. . ... ... ... : ... .. . ... ... ... : ... .. . ... ... ...
ROW A0 : ... .. . ... ... ... : ... .. . ... ... ... : ... .. . ... ... ... : ... .. . ... ... ... : ... .. . ... ... ...
ROW A1 : ... .. . ... ... ... : ... .. . ... ... ... : ... .. . ... ... ... : ... .. . ... ... ... : ... .. . ... ... ...
ROW A2 : ... .. . ... ... ... : ... .. . ... ... ... : ... .. . ... ... ... : ... .. . ... ... ... : ... .. . ... ... ...
ROW A3 : ... .. . ... ... ... : ... .. . ... ... ... : ... .. . ... ... ... : ... .. . ... ... ... : ... .. . ... ... ...
ROW A4 : ... .. . ... ... ... : ... .. . ... ... ... : ... .. . ... ... ... : ... .. . ... ... ... : ... .. . ... ... ...
ROW A5 : ... .. . ... ... ... : ... .. . ... ... ... : ... .. . ... ... ... : ... .. . ... ... ... : ... .. . ... ... ...
ROW A6 : ... .. . ... ... ... : ... .. . ... ... ... : ... .. . ... ... ... : ... .. . ... ... ... : ... .. . ... ... ...
ROW A7 : ... .. . ... ... ... : ... .. . ... ... ... : ... .. . ... ... ... : ... .. . ... ... ... : ... .. . ... ... ...
ROW A8 : ... .. . ... ... ... : ... .. . ... ... ... : ... .. . ... ... ... : ... .. . ... ... ... : ... .. . ... ... ...
ROW A9 : ... .. . ... ... ... : ... .. . ... ... ... : ... .. . ... ... ... : ... .. . ... ... ... : ... .. . ... ... ...
ROW AA : ... .. . ... ... ... : ... .. . ... ... ... : ... .. . ... ... ... : ... .. . ... ... ... : ... .. . ... ... ...
ROW AB : ... .. . ... ... ... : ... .. . ... ... ... : ... .. . ... ... ... : ... .. . ... ... ... : ... .. . ... ... ...
ROW AC : ... .. . ... ... ... : ... .. . ... ... ... : ... .. . ... ... ... : ... .. . ... ... ... : ... .. . ... ... ...
ROW AD : ... .. . ... ... ... : ... .. . ... ... ... : ... .. . ... ... ... : ... .. . ... ... ... : ... .. . ... ... ...
ROW AE : ... .. . ... ... ... : ... .. . ... ... ... : ... .. . ... ... ... : ... .. . ... ... ... : ... .. . ... ... ...
ROW AF : ... .. . ... ... ... : ... .. . ... ... ... : ... .. . ... ... ... : ... .. . ... ... ... : ... .. . ... ... ...
ROW B0 : ... .. . ... ... ... : ... .. . ... ... ... : ... .. . ... ... ... : ... .. . ... ... ... : ... .. . ... ... ...
ROW B1 : ... .. . ... ... ... : ... .. . ... ... ... : ... .. . ... ... ... : ... .. . ... ... ... : ... .. . ... ... ...
ROW B2 : ... .. . ... ... ... : ... .. . ... ... ... : ... .. . ... ... ... : ... .. . ... ... ... : ... .. . ... ... ...
ROW B3 : ... .. . ... ... ... : ... .. . ... ... ... : ... .. . ... ... ... : ... .. . ... ... ... : ... .. . ... ... ...
ROW B4 : ... .. . ... ... ... : ... .. . ... ... ... : ... .. . ... ... ... : ... .. . ... ... ... : ... .. . ... ... ...
ROW B5 : ... .. . ... ... ... : ... .. . ... ... ... : ... .. . ... ... ... : ... .. . ... ... ... : ... .. . ... ... ...
ROW B6 : ... .. . ... ... ... : ... .. . ... ... ... : ... .. . ... ... ... : ... .. . ... ... ... : ... .. . ... ... ...
ROW B7 : ... .. . ... ... ... : ... .. . ... ... ... : ... .. . ... ... ... : ... .. . ... ... ... : ... .. . ... ... ...
ROW B8 : ... .. . ... ... ... : ... .. . ... ... ... : ... .. . ... ... ... : ... .. . ... ... ... : ... .. . ... ... ...
ROW B9 : ... .. . ... ... ... : ... .. . ... ... ... : ... .. . ... ... ... : ... .. . ... ... ... : ... .. . ... ... ...
ROW BA : ... .. . ... ... ... : ... .. . ... ... ... : ... .. . ... ... ... : ... .. . ... ... ... : ... .. . ... ... ...
ROW BB : ... .. . ... ... ... : ... .. . ... ... ... : ... .. . ... ... ... : ... .. . ... ... ... : ... .. . ... ... ...
ROW BC : ... .. . ... ... ... : ... .. . ... ... ... : ... .. . ... ... ... : ... .. . ... ... ... : ... .. . ... ... ...
ROW BD : ... .. . ... ... ... : ... .. . ... ... ... : ... .. . ... ... ... : ... .. . ... ... ... : ... .. . ... ... ...
ROW BE : ... .. . ... ... ... : ... .. . ... ... ... : ... .. . ... ... ... : ... .. . ... ... ... : ... .. . ... ... ...
ROW BF : ... .. . ... ... ... : ... .. . ... ... ... : ... .. . ... ... ... : ... .. . ... ... ... : ... .. . ... ... ...
ROW C0 : ... .. . ... ... ... : ... .. . ... ... ... : ... .. . ... ... ... : ... .. . ... ... ... : ... .. . ... ... ...
ROW C1 : ... .. . ... ... ... : ... .. . ... ... ... : ... .. . ... ... ... : ... .. . ... ... ... : ... .. . ... ... ...
ROW C2 : ... .. . ... ... ... : ... .. . ... ... ... : ... .. . ... ... ... : ... .. . ... ... ... : ... .. . ... ... ...
ROW C3 : ... .. . ... ... ... : ... .. . ... ... ... : ... .. . ... ... ... : ... .. . ... ... ... : ... .. . ... ... ...
ROW C4 : ... .. . ... ... ... : ... .. . ... ... ... : ... .. . ... ... ... : ... .. . ... ... ... : ... .. . ... ... ...
ROW C5 : ... .. . ... ... ... : ... .. . ... ... ... : ... .. . ... ... ... : ... .. . ... ... ... : ... .. . ... ... ...
ROW C6 : ... .. . ... ... ... : ... .. . ... ... ... : ... .. . ... ... ... : ... .. . ... ... ... : ... .. . ... ... ...
ROW C7 : ... .. . ... ... ... : ... .. . ... ... ... : ... .. . ... ... ... : ... .. . ... ... ... : ... .. . ... ... ...
ROW C8 : ... .. . ... ... ... : ... .. . ... ... ... : ... .. . ... ... ... : ... .. . ... ... ... : ... .. . ... ... ...
ROW C9 : ... .. . ... ... ... : ... .. . ... ... ... : ... .. . ... ... ... : ... .. . ... ... ... : ... .. . ... ... ...
ROW CA : ... .. . ... ... ... : ... .. . ... ... ... : ... .. . ... ... ... : ... .. . ... ... ... : ... .. . ... ... ...
ROW CB : ... .. . ... ... ... : ... .. . ... ... ... : ... .. . ... ... ... : ... .. . ... ... ... : ... .. . ... ... ...
ROW CC : ... .. . ... ... ... : ... .. . ... ... ... : ... .. . ... ... ... : ... .. . ... ... ... : ... .. . ... ... ...
ROW CD : ... .. . ... ... ... : ... .. . ... ... ... : ... .. . ... ... ... : ... .. . ... ... ... : ... .. . ... ... ...
ROW CE : ... .. . ... ... ... : ... .. . ... ... ... : ... .. . ... ... ... : ... .. . ... ... ... : ... .. . ... ... ...
ROW CF : ... .. . ... ... ... : ... .. . ... ... ... : ... .. . ... ... ... : ... .. . ... ... ... : ... .. . ... ... ...
ROW D0 : ... .. . ... ... ... : ... .. . ... ... ... : ... .. . ... ... ... : ... .. . ... ... ... : ... .. . ... ... ...
ROW D1 : ... .. . ... ... ... : ... .. . ... ... ... : ... .. . ... ... ... : ... .. . ... ... ... : ... .. . ... ... ...
ROW D2 : ... .. . ... ... ... : ... .. . ... ... ... : ... .. . ... ... ... : ... .. . ... ... ... : ... .. . ... ... ...
ROW D3 : ... .. . ... ... ... : ... .. . ... ... ... : ... .. . ... ... ... : ... .. . ... ... ... : ... .. . ... ... ...
ROW D4 : ... .. . ... ... ... : ... .. . ... ... ... : ... .. . ... ... ... : ... .. . ... ... ... : ... .. . ... ... ...
ROW D5 : ... .. . ... ... ... : ... .. . ... ... ... : ... .. . ... ... ... : ... .. . ... ... ... : ... .. . ... ... ...
ROW D6 : ... .. . ... ... ... : ... .. . ... ... ... : ... .. . ... ... ... : ... .. . ... ... ... : ... .. . ... ... ...
ROW D7 : ... .. . ... ... ... : ... .. . ... ... ... : ... .. . ... ... ... : ... .. . ... ... ... : ... .. . ... ... ...
ROW D8 : ... .. . ... ... ... : ... .. . ... ... ... : ... .. . ... ... ... : ... .. . ... ... ... : ... .. . ... ... ...
ROW D9 : ... .. . ... ... ... : ... .. . ... ... ... : ... .. . ... ... ... : ... .. . ... ... ... : ... .. . ... ... ...
ROW DA : ... .. . ... ... ... : ... .. . ... ... ... : ... .. . ... ... ... : ... .. . ... ... ... : ... .. . ... ... ...
ROW DB : ... .. . ... ... ... : ... .. . ... ... ... : ... .. . ... ... ... : ... .. . ... ... ... : ... .. . ... ... ...
ROW DC : ... .. . ... ... ... : ... .. . ... ... ... : ... .. . ... ... ... : ... .. . ... ... ... : ... .. . ... ... ...
ROW DD : ... .. . ... ... ... : ... .. . ... ... ... : ... .. . ... ... ... : ... .. . ... ... ... : ... .. . ... ... ...
ROW DE : ... .. . ... ... ... : ... .. . ... ... ... : ... .. . ... ... ... : ... .. . ... ... ... : ... .. . ... ... ...
ROW DF : ... .. . ... ... ... : ... .. . ... ... ... : ... .. . ... ... ... : ... .. . ... ... ... : ... .. . ... ... ...

PATTERN 0C
ROW 00 : F#2 02 . ... ... ... : ... .. . ... ... ... : ... .. . ... ... ... : ... .. . ... ... ... : ... .. . ... ... ...
ROW 01 : ... .. . ... ... ... : ... .. . ... ... ... : ... .. . ... ... ... : ... .. . ... ... ... : ... .. . ... ... ...
ROW 02 : ... .. . ... ... ... : ... .. . ... ... ... : ... .. . ... ... ... : ... .. . ... ... ... : ... .. . ... ... ...
ROW 03 : ... .. . ... ... ... : ... .. . ... ... ... : ... .. . ... ... ... : ... .. . ... ... ... : ... .. . ... ... ...
ROW 04 : ... .. . ... ... ... : ... .. . ... ... ... : ... .. . ... ... ... : ... .. . ... ... ... : ... .. . ... ... ...
ROW 05 : ... .. . ... ... ... : ... .. . ... ... ... : ... .. . ... ... ... : ... .. . ... ... ... : ... .. . ... ... ...
ROW 06 : ... .. . ... ... ... : ... .. . ... ... ... : ... .. . ... ... ... : ... .. . ... ... ... : ... .. . ... ... ...
ROW 07 : ... .. . ... ... ... : ... .. . ... ... ... : ... .. . ... ... ... : ... .. . ... ... ... : ... .. . ... ... ...
ROW 08 : ... .. . ... ... ... : ... .. . ... ... ... : ... .. . ... ... ... : ... .. . ... ... ... : ... .. . ... ... ...
ROW 09 : ... .. . ... ... ... : ... .. . ... ... ... : ... .. . ... ... ... : ... .. . ... ... ... : ... .. . ... ... ...
ROW 0A : ... .. . ... ... ... : ... .. . ... ... ... : ... .. . ... ... ... : ... .. . ... ... ... : ... .. . ... ... ...
ROW 0B : ... .. . ... ... ... : ... .. . ... ... ... : ... .. . ... ... ... : ... .. . ... ... ... : ... .. . ... ... ...
ROW 0C : ... .. . ... ... ... : ... .. . ... ... ... : ... .. . ... ... ... : ... .. . ... ... ... : ... .. . ... ... ...
ROW 0D : ... .. . ... ... ... : ... .. . ... ... ... : ... .. . ... ... ... : ... .. . ... ... ... : ... .. . ... ... ...
ROW 0E : ... .. . ... ... ... : ... .. . ... ... ... : ... .. . ... ... ... : ... .. . ... ... ... : ... .. . ... ... ...
ROW 0F : ... .. . ... ... ... : ... .. . ... ... ... : ... .. . ... ... ... : ... .. . ... ... ... : ... .. . ... ... ...
ROW 10 : ... .. . ... ... ... : ... .. . ... ... ... : ... .. . ... ... ... : ... .. . ... ... ... : ... .. . ... ... ...
ROW 11 : ... .. . ... ... ... : ... .. . ... ... ... : ... .. . ... ... ... : ... .. . ... ... ... : ... .. . ... ... ...
ROW 12 : ... .. . ... ... ... : ... .. . ... ... ... : ... .. . ... ... ... : ... .. . ... ... ... : ... .. . ... ... ...
ROW 13 : ... .. . ... ... ... : ... .. . ... ... ... : ... .. . ... ... ... : ... .. . ... ... ... : ... .. . ... ... ...
ROW 14 : ... .. . ... ... ... : ... .. . ... ... ... : ... .. . ... ... ... : ... .. . ... ... ... : ... .. . ... ... ...
ROW 15 : ... .. . ... ... ... : ... .. . ... ... ... : ... .. . ... ... ... : ... .. . ... ... ... : ... .. . ... ... ...
ROW 16 : ... .. . ... ... ... : ... .. . ... ... ... : ... .. . ... ... ... : ... .. . ... ... ... : ... .. . ... ... ...
ROW 17 : ... .. . ... ... ... : ... .. . ... ... ... : ... .. . ... ... ... : ... .. . ... ... ... : ... .. . ... ... ...
ROW 18 : ... .. . ... ... ... : ... .. . ... ... ... : ... .. . ... ... ... : ... .. . ... ... ... : ... .. . ... ... ...
ROW 19 : ... .. . ... ... ... : ... .. . ... ... ... : ... .. . ... ... ... : ... .. . ... ... ... : ... .. . ... ... ...
ROW 1A : ... .. . ... ... ... : ... .. . ... ... ... : ... .. . ... ... ... : ... .. . ... ... ... : ... .. . ... ... ...
ROW 1B : ... .. . ... ... ... : ... .. . ... ... ... : ... .. . ... ... ... : ... .. . ... ... ... : ... .. . ... ... ...
ROW 1C : ... .. . ... ... ... : ... .. . ... ... ... : ... .. . ... ... ... : ... .. . ... ... ... : ... .. . ... ... ...
ROW 1D : ... .. . ... ... ... : ... .. . ... ... ... : ... .. . ... ... ... : ... .. . ... ... ... : ... .. . ... ... ...
ROW 1E : ... .. . ... ... ... : ... .. . ... ... ... : ... .. . ... ... ... : ... .. . ... ... ... : ... .. . ... ... ...
ROW 1F : ... .. . ... ... ... : ... .. . ... ... ... : ... .. . ... ... ... : ... .. . ... ... ... : ... .. . ... ... ...
ROW 20 : ... .. . ... ... ... : ... .. . ... ... ... : ... .. . ... ... ... : ... .. . ... ... ... : ... .. . ... ... ...
ROW 21 : ... .. . ... ... ... : ... .. . ... ... ... : ... .. . ... ... ... : ... .. . ... ... ... : ... .. . ... ... ...
ROW 22 : ... .. . ... ... ... : ... .. . ... ... ... : ... .. . ... ... ... : ... .. . ... ... ... : ... .. . ... ... ...
ROW 23 : ... .. . ... ... ... : ... .. . ... ... ... : ... .. . ... ... ... : ... .. . ... ... ... : ... .. . ... ... ...
ROW 24 : ... .. . ... ... ... : ... .. . ... ... ... : ... .. . ... ... ... : ... .. . ... ... ... : ... .. . ... ... ...
ROW 25 : ... .. . ... ... ... : ... .. . ... ... ... : ... .. . ... ... ... : ... .. . ... ... ... : ... .. . ... ... ...
ROW 26 : ... .. . ... ... ... : ... .. . ... ... ... : ... .. . ... ... ... : ... .. . ... ... ... : ... .. . ... ... ...
ROW 27 : ... .. . ... ... ... : ... .. . ... ... ... : ... .. . ... ... ... : ... .. . ... ... ... : ... .. . ... ... ...
ROW 28 : ... .. . ... ... ... : ... .. . ... ... ... : ... .. . ... ... ... : ... .. . ... ... ... : ... .. . ... ... ...
ROW 29 : ... .. . ... ... ... : ... .. . ... ... ... : ... .. . ... ... ... : ... .. . ... ... ... : ... .. . ... ... ...
ROW 2A : ... .. . ... ... ... : ... .. . ... ... ... : ... .. . ... ... ... : ... .. . ... ... ... : ... .. . ... ... ...
ROW 2B : ... .. . ... ... ... : ... .. . ... ... ... : ... .. . ... ... ... : ... .. . ... ... ... : ... .. . ... ... ...
ROW 2C : ... .. . ... ... ... : ... .. . ... ... ... : ... .. . ... ... ... : ... .. . ... ... ... : ... .. . ... ... ...
ROW 2D : ... .. . ... ... ... : ... .. . ... ... ... : ... .. . ... ... ... : ... .. . ... ... ... : ... .. . ... ... ...
ROW 2E : ... .. . ... ... ... : ... .. . ... ... ... : ... .. . ... ... ... : ... .. . ... ... ... : ... .. . ... ... ...
ROW 2F : ... .. . ... ... ... : ... .. . ... ... ... : ... .. . ... ... ... : ... .. . ... ... ... : ... .. . ... ... ...
ROW 30 : ... .. . ... ... ... : ... .. . ... ... ... : ... .. . ... ... ... : ... .. . ... ... ... : ... .. . ... ... ...
ROW 31 : ... .. . ... ... ... : ... .. . ... ... ... : ... .. . ... ... ... : ... .. . ... ... ... : ... .. . ... ... ...
ROW 32 : ... .. . ... ... ... : ... .. . ... ... ... : ... .. . ... ... ... : ... .. . ... ... ... : ... .. . ... ... ...
ROW 33 : ... .. . ... ... ... : ... .. . ... ... ... : ... .. . ... ... ... : ... .. . ... ... ... : ... .. . ... ... ...
ROW 34 : ... .. . ... ... ... : ... .. . ... ... ... : ... .. . ... ... ... : ... .. . ... ... ... : ... .. . ... ... ...
ROW 35 : ... .. . ... ... ... : ... .. . ... ... ... : ... .. . ... ... ... : ... .. . ... ... ... : ... .. . ... ... ...
ROW 36 : ... .. . ... ... ... : ... .. . ... ... ... : ... .. . ... ... ... : ... .. . ... ... ... : ... .. . ... ... ...
ROW 37 : ... .. . ... ... ... : ... .. . ... ... ... : ... .. . ... ... ... : ... .. . ... ... ... : ... .. . ... ... ...
ROW 38 : ... .. . ... ... ... : ... .. . ... ... ... : ... .. . ... ... ... : ... .. . ... ... ... : ... .. . ... ... ...
ROW 39 : ... .. . ... ... ... : ... .. . ... ... ... : ... .. . ... ... ... : ... .. . ... ... ... : ... .. . ... ... ...
ROW 3A : ... .. . ... ... ... : ... .. . ... ... ... : ... .. . ... ... ... : ... .. . ... ... ... : ... .. . ... ... ...
ROW 3B : ... .. . ... ... ... : ... .. . ... ... ... : ... .. . ... ... ... : ... .. . ... ... ... : ... .. . ... ... ...
ROW 3C : ... .. . ... ... ... : ... .. . ... ... ... : ... .. . ... ... ... : ... .. . ... ... ... : ... .. . ... ... ...
ROW 3D : ... .. . ... ... ... : ... .. . ... ... ... : ... .. . ... ... ... : ... .. . ... ... ... : ... .. . ... ... ...
ROW 3E : ... .. . ... ... ... : ... .. . ... ... ... : ... .. . ... ... ... : ... .. . ... ... ... : ... .. . ... ... ...
ROW 3F : ... .. . ... ... ... : ... .. . ... ... ... : ... .. . ... ... ... : ... .. . ... ... ... : ... .. . ... ... ...
ROW 40 : ... .. . ... ... ... : ... .. . ... ... ... : ... .. . ... ... ... : ... .. . ... ... ... : ... .. . ... ... ...
ROW 41 : ... .. . ... ... ... : ... .. . ... ... ... : ... .. . ... ... ... : ... .. . ... ... ... : ... .. . ... ... ...
ROW 42 : ... .. . ... ... ... : ... .. . ... ... ... : ... .. . ... ... ... : ... .. . ... ... ... : ... .. . ... ... ...
ROW 43 : ... .. . ... ... ... : ... .. . ... ... ... : ... .. . ... ... ... : ... .. . ... ... ... : ... .. . ... ... ...
ROW 44 : ... .. . ... ... ... : ... .. . ... ... ... : ... .. . ... ... ... : ... .. . ... ... ... : ... .. . ... ... ...
ROW 45 : ... .. . ... ... ... : ... .. . ... ... ... : ... .. . ... ... ... : ... .. . ... ... ... : ... .. . ... ... ...
ROW 46 : ... .. . ... ... ... : ... .. . ... ... ... : ... .. . ... ... ... : ... .. . ... ... ... : ... .. . ... ... ...
ROW 47 : ... .. . ... ... ... : ... .. . ... ... ... : ... .. . ... ... ... : ... .. . ... ... ... : ... .. . ... ... ...
ROW 48 : ... .. . ... ... ... : ... .. . ... ... ... : ... .. . ... ... ... : ... .. . ... ... ... : ... .. . ... ... ...
ROW 49 : ... .. . ... ... ... : ... .. . ... ... ... : ... .. . ... ... ... : ... .. . ... ... ... : ... .. . ... ... ...
ROW 4A : ... .. . ... ... ... : ... .. . ... ... ... : ... .. . ... ... ... : ... .. . ... ... ... : ... .. . ... ... ...
ROW 4B : ... .. . ... ... ... : ... .. . ... ... ... : ... .. . ... ... ... : ... .. . ... ... ... : ... .. . ... ... ...
ROW 4C : ... .. . ... ... ... : ... .. . ... ... ... : ... .. . ... ... ... : ... .. . ... ... ... : ... .. . ... ... ...
ROW 4D : ... .. . ... ... ... : ... .. . ... ... ... : ... .. . ... ... ... : ... .. . ... ... ... : ... .. . ... ... ...
ROW 4E : ... .. . ... ... ... : ... .. . ... ... ... : ... .. . ... ... ... : ... .. . ... ... ... : ... .. . ... ... ...
ROW 4F : ... .. . ... ... ... : ... .. . ... ... ... : ... .. . ... ... ... : ... .. . ... ... ... : ... .. . ... ... ...
ROW 50 : ... .. . ... ... ... : ... .. . ... ... ... : ... .. . ... ... ... : ... .. . ... ... ... : ... .. . ... ... ...
ROW 51 : ... .. . ... ... ... : ... .. . ... ... ... : ... .. . ... ... ... : ... .. . ... ... ... : ... .. . ... ... ...
ROW 52 : ... .. . ... ... ... : ... .. . ... ... ... : ... .. . ... ... ... : ... .. . ... ... ... : ... .. . ... ... ...
ROW 53 : ... .. . ... ... ... : ... .. . ... ... ... : ... .. . ... ... ... : ... .. . ... ... ... : ... .. . ... ... ...
ROW 54 : ... .. . ... ... ... : ... .. . ... ... ... : ... .. . ... ... ... : ... .. . ... ... ... : ... .. . ... ... ...
ROW 55 : ... .. . ... ... ... : ... .. . ... ... ... : ... .. . ... ... ... : ... .. . ... ... ... : ... .. . ... ... ...
ROW 56 : ... .. . ... ... ... : ... .. . ... ... ... : ... .. . ... ... ... : ... .. . ... ... ... : ... .. . ... ... ...
ROW 57 : ... .. . ... ... ... : ... .. . ... ... ... : ... .. . ... ... ... : ... .. . ... ... ... : ... .. . ... ... ...
ROW 58 : ... .. . ... ... ... : ... .. . ... ... ... : ... .. . ... ... ... : ... .. . ... ... ... : ... .. . ... ... ...
ROW 59 : ... .. . ... ... ... : ... .. . ... ... ... : ... .. . ... ... ... : ... .. . ... ... ... : ... .. . ... ... ...
ROW 5A : ... .. . ... ... ... : ... .. . ... ... ... : ... .. . ... ... ... : ... .. . ... ... ... : ... .. . ... ... ...
ROW 5B : ... .. . ... ... ... : ... .. . ... ... ... : ... .. . ... ... ... : ... .. . ... ... ... : ... .. . ... ... ...
ROW 5C : ... .. . ... ... ... : ... .. . ... ... ... : ... .. . ... ... ... : ... .. . ... ... ... : ... .. . ... ... ...
ROW 5D : ... .. . ... ... ... : ... .. . ... ... ... : ... .. . ... ... ... : ... .. . ... ... ... : ... .. . ... ... ...
ROW 5E : ... .. . ... ... ... : ... .. . ... ... ... : ... .. . ... ... ... : ... .. . ... ... ... : ... .. . ... ... ...
ROW 5F : ... .. . ... ... ... : ... .. . ... ... ... : ... .. . ... ... ... : ... .. . ... ... ... : ... .. . ... ... ...
ROW 60 : ... .. . ... ... ... : ... .. . ... ... ... : ... .. . ... ... ... : ... .. . ... ... ... : ... .. . ... ... ...
ROW 61 : ... .. . ... ... ... : ... .. . ... ... ... : ... .. . ... ... ... : ... .. . ... ... ... : ... .. . ... ... ...
ROW 62 : ... .. . ... ... ... : ... .. . ... ... ... : ... .. . ... ... ... : ... .. . ... ... ... : ... .. . ... ... ...
ROW 63 : ... .. . ... ... ... : ... .. . ... ... ... : ... .. . ... ... ... : ... .. . ... ... ... : ... .. . ... ... ...
ROW 64 : ... .. . ... ... ... : ... .. . ... ... ... : ... .. . ... ... ... : ... .. . ... ... ... : ... .. . ... ... ...
ROW 65 : ... .. . ... ... ... : ... .. . ... ... ... : ... .. . ... ... ... : ... .. . ... ... ... : ... .. . ... ... ...
ROW 66 : ... .. . ... ... ... : ... .. . ... ... ... : ... .. . ... ... ... : ... .. . ... ... ... : ... .. . ... ... ...
ROW 67 : ... .. . ... ... ... : ... .. . ... ... ... : ... .. . ... ... ... : ... .. . ... ... ... : ... .. . ... ... ...
ROW 68 : ... .. . ... ... ... : ... .. . ... ... ... : ... .. . ... ... ... : ... .. . ... ... ... : ... .. . ... ... ...
ROW 69 : ... .. . ... ... ... : ... .. . ... ... ... : ... .. . ... ... ... : ... .. . ... ... ... : ... .. . ... ... ...
ROW 6A : ... .. . ... ... ... : ... .. . ... ... ... : ... .. . ... ... ... : ... .. . ... ... ... : ... .. . ... ... ...
ROW 6B : ... .. . ... ... ... : ... .. . ... ... ... : ... .. . ... ... ... : ... .. . ... ... ... : ... .. . ... ... ...
ROW 6C : ... .. . ... ... ... : ... .. . ... ... ... : ... .. . ... ... ... : ... .. . ... ... ... : ... .. . ... ... ...
ROW 6D : ... .. . ... ... ... : ... .. . ... ... ... : ... .. . ... ... ... : ... .. . ... ... ... : ... .. . ... ... ...
ROW 6E : ... .. . ... ... ... : ... .. . ... ... ... : ... .. . ... ... ... : ... .. . ... ... ... : ... .. . ... ... ...
ROW 6F : ... .. . ... ... ... : ... .. . ... ... ... : ... .. . ... ... ... : ... .. . ... ... ... : ... .. . ... ... ...
ROW 70 : A-2 02 . ... ... ... : ... .. . ... ... ... : ... .. . ... ... ... : ... .. . ... ... ... : ... .. . ... ... ...
ROW 71 : ... .. . ... ... ... : ... .. . ... ... ... : ... .. . ... ... ... : ... .. . ... ... ... : ... .. . ... ... ...
ROW 72 : ... .. . ... ... ... : ... .. . ... ... ... : ... .. . ... ... ... : ... .. . ... ... ... : ... .. . ... ... ...
ROW 73 : ... .. . ... ... ... : ... .. . ... ... ... : ... .. . ... ... ... : ... .. . ... ... ... : ... .. . ... ... ...
ROW 74 : ... .. . ... ... ... : ... .. . ... ... ... : ... .. . ... ... ... : ... .. . ... ... ... : ... .. . ... ... ...
ROW 75 : ... .. . ... ... ... : ... .. . ... ... ... : ... .. . ... ... ... : ... .. . ... ... ... : ... .. . ... ... ...
ROW 76 : ... .. . ... ... ... : ... .. . ... ... ... : ... .. . ... ... ... : ... .. . ... ... ... : ... .. . ... ... ...
ROW 77 : ... .. . ... ... ... : ... .. . ... ... ... : ... .. . ... ... ... : ... .. . ... ... ... : ... .. . ... ... ...
ROW 78 : ... .. . ... ... ... : ... .. . ... ... ... : ... .. . ... ... ... : ... .. . ... ... ... : ... .. . ... ... ...
ROW 79 : ... .. . ... ... ... : ... .. . ... ... ... : ... .. . ... ... ... : ... .. . ... ... ... : ... .. . ... ... ...
ROW 7A : ... .. . ... ... ... : ... .. . ... ... ... : ... .. . ... ... ... : ... .. . ... ... ... : ... .. . ... ... ...
ROW 7B : ... .. . ... ... ... : ... .. . ... ... ... : ... .. . ... ... ... : ... .. . ... ... ... : ... .. . ... ... ...
ROW 7C : ... .. . ... ... ... : ... .. . ... ... ... : ... .. . ... ... ... : ... .. . ... ... ... : ... .. . ... ... ...
ROW 7D : ... .. . ... ... ... : ... .. . ... ... ... : ... .. . ... ... ... : ... .. . ... ... ... : ... .. . ... ... ...
ROW 7E : ... .. . ... ... ... : ... .. . ... ... ... : ... .. . ... ... ... : ... .. . ... ... ... : ... .. . ... ... ...
ROW 7F : ... .. . ... ... ... : ... .. . ... ... ... : ... .. . ... ... ... : ... .. . ... ... ... : ... .. . ... ... ...
ROW 80 : ... .. . ... ... ... : ... .. . ... ... ... : ... .. . ... ... ... : ... .. . ... ... ... : ... .. . ... ... ...
ROW 81 : ... .. . ... ... ... : ... .. . ... ... ... : ... .. . ... ... ... : ... .. . ... ... ... : ... .. . ... ... ...
ROW 82 : ... .. . ... ... ... : ... .. . ... ... ... : ... .. . ... ... ... : ... .. . ... ... ... : ... .. . ... ... ...
ROW 83 : ... .. . ... ... ... : ... .. . ... ... ... : ... .. . ... ... ... : ... .. . ... ... ... : ... .. . ... ... ...
ROW 84 : ... .. . ... ... ... : ... .. . ... ... ... : ... .. . ... ... ... : ... .. . ... ... ... : ... .. . ... ... ...
ROW 85 : ... .. . ... ... ... : ... .. . ... ... ... : ... .. . ... ... ... : ... .. . ... ... ... : ... .. . ... ... ...
ROW 86 : ... .. . ... ... ... : ... .. . ... ... ... : ... .. . ... ... ... : ... .. . ... ... ... : ... .. . ... ... ...
ROW 87 : ... .. . ... ... ... : ... .. . ... ... ... : ... .. . ... ... ... : ... .. . ... ... ... : ... .. . ... ... ...
ROW 88 : ... .. . ... ... ... : ... .. . ... ... ... : ... .. . ... ... ... : ... .. . ... ... ... : ... .. . ... ... ...
ROW 89 : ... .. . ... ... ... : ... .. . ... ... ... : ... .. . ... ... ... : ... .. . ... ... ... : ... .. . ... ... ...
ROW 8A : ... .. . ... ... ... : ... .. . ... ... ... : ... .. . ... ... ... : ... .. . ... ... ... : ... .. . ... ... ...
ROW 8B : ... .. . ... ... ... : ... .. . ... ... ... : ... .. . ... ... ... : ... .. . ... ... ... : ... .. . ... ... ...
ROW 8C : ... .. . ... ... ... : ... .. . ... ... ... : ... .. . ... ... ... : ... .. . ... ... ... : ... .. . ... ... ...
ROW 8D : ... .. . ... ... ... : ... .. . ... ... ... : ... .. . ... ... ... : ... .. . ... ... ... : ... .. . ... ... ...
ROW 8E : ... .. . ... ... ... : ... .. . ... ... ... : ... .. . ... ... ... : ... .. . ... ... ... : ... .. . ... ... ...
ROW 8F : ... .. . ... ... ... : ... .. . ... ... ... : ... .. . ... ... ... : ... .. . ... ... ... : ... .. . ... ... ...
ROW 90 : ... .. . ... ... ... : ... .. . ... ... ... : ... .. . ... ... ... : ... .. . ... ... ... : ... .. . ... ... ...
ROW 91 : ... .. . ... ... ... : ... .. . ... ... ... : ... .. . ... ... ... : ... .. . ... ... ... : ... .. . ... ... ...
ROW 92 : ... .. . ... ... ... : ... .. . ... ... ... : ... .. . ... ... ... : ... .. . ... ... ... : ... .. . ... ... ...
ROW 93 : ... .. . ... ... ... : ... .. . ... ... ... : ... .. . ... ... ... : ... .. . ... ... ... : ... .. . ... ... ...
ROW 94 : ... .. . ... ... ... : ... .. . ... ... ... : ... .. . ... ... ... : ... .. . ... ... ... : ... .. . ... ... ...
ROW 95 : ... .. . ... ... ... : ... .. . ... ... ... : ... .. . ... ... ... : ... .. . ... ... ... : ... .. . ... ... ...
ROW 96 : ... .. . ... ... ... : ... .. . ... ... ... : ... .. . ... ... ... : ... .. . ... ... ... : ... .. . ... ... ...
ROW 97 : ... .. . ... ... ... : ... .. . ... ... ... : ... .. . ... ... ... : ... .. . ... ... ... : ... .. . ... ... ...
ROW 98 : ... .. . ... ... ... : ... .. . ... ... ... : ... .. . ... ... ... : ... .. . ... ... ... : ... .. . ... ... ...
ROW 99 : ... .. . ... ... ... : ... .. . ... ... ... : ... .. . ... ... ... : ... .. . ... ... ... : ... .. . ... ... ...
ROW 9A : ... .. . ... ... ... : ... .. . ... ... ... : ... .. . ... ... ... : ... .. . ... ... ... : ... .. . ... ... ...
ROW 9B : ... .. . ... ... ... : ... .. . ... ... ... : ... .. . ... ... ... : ... .. . ... ... ... : ... .. . ... ... ...
ROW 9C : ... .. . ... ... ... : ... .. . ... ... ... : ... .. . ... ... ... : ... .. . ... ... ... : ... .. . ... ... ...
ROW 9D : ... .. . ... ... ... : ... .. . ... ... ... : ... .. . ... ... ... : ... .. . ... ... ... : ... .. . ... ... ...
ROW 9E : ... .. . ... ... ... : ... .. . ... ... ... : ... .. . ... ... ... : ... .. . ... ... ... : ... .. . ... ... ...
ROW 9F : ... .. . ... ... ... : ... .. . ... ... ... : ... .. . ... ... ... : ... .. . ... ... ... : ... .. . ... ... ...
ROW A0 : ... .. . ... ... ... : ... .. . ... ... ... : ... .. . ... ... ... : ... .. . ... ... ... : ... .. . ... ... ...
ROW A1 : ... .. . ... ... ... : ... .. . ... ... ... : ... .. . ... ... ... : ... .. . ... ... ... : ... .. . ... ... ...
ROW A2 : ... .. . ... ... ... : ... .. . ... ... ... : ... .. . ... ... ... : ... .. . ... ... ... : ... .. . ... ... ...
ROW A3 : ... .. . ... ... ... : ... .. . ... ... ... : ... .. . ... ... ... : ... .. . ... ... ... : ... .. . ... ... ...
ROW A4 : ... .. . ... ... ... : ... .. . ... ... ... : ... .. . ... ... ... : ... .. . ... ... ... : ... .. . ... ... ...
ROW A5 : ... .. . ... ... ... : ... .. . ... ... ... : ... .. . ... ... ... : ... .. . ... ... ... : ... .. . ... ... ...
ROW A6 : ... .. . ... ... ... : ... .. . ... ... ... : ... .. . ... ... ... : ... .. . ... ... ... : ... .. . ... ... ...
ROW A7 : ... .. . ... ... ... : ... .. . ... ... ... : ... .. . ... ... ... : ... .. . ... ... ... : ... .. . ... ... ...
ROW A8 : ... .. . ... ... ... : ... .. . ... ... ... : ... .. . ... ... ... : ... .. . ... ... ... : ... .. . ... ... ...
ROW A9 : ... .. . ... ... ... : ... .. . ... ... ... : ... .. . ... ... ... : ... .. . ... ... ... : ... .. . ... ... ...
ROW AA : ... .. . ... ... ... : ... .. . ... ... ... : ... .. . ... ... ... : ... .. . ... ... ... : ... .. . ... ... ...
ROW AB : ... .. . ... ... ... : ... .. . ... ... ... : ... .. . ... ... ... : ... .. . ... ... ... : ... .. . ... ... ...
ROW AC : ... .. . ... ... ... : ... .. . ... ... ... : ... .. . ... ... ... : ... .. . ... ... ... : ... .. . ... ... ...
ROW AD : ... .. . ... ... ... : ... .. . ... ... ... : ... .. . ... ... ... : ... .. . ... ... ... : ... .. . ... ... ...
ROW AE : ... .. . ... ... ... : ... .. . ... ... ... : ... .. . ... ... ... : ... .. . ... ... ... : ... .. . ... ... ...
ROW AF : ... .. . ... ... ... : ... .. . ... ... ... : ... .. . ... ... ... : ... .. . ... ... ... : ... .. . ... ... ...
ROW B0 : ... .. . ... ... ... : ... .. . ... ... ... : ... .. . ... ... ... : ... .. . ... ... ... : ... .. . ... ... ...
ROW B1 : ... .. . ... ... ... : ... .. . ... ... ... : ... .. . ... ... ... : ... .. . ... ... ... : ... .. . ... ... ...
ROW B2 : ... .. . ... ... ... : ... .. . ... ... ... : ... .. . ... ... ... : ... .. . ... ... ... : ... .. . ... ... ...
ROW B3 : ... .. . ... ... ... : ... .. . ... ... ... : ... .. . ... ... ... : ... .. . ... ... ... : ... .. . ... ... ...
ROW B4 : ... .. . ... ... ... : ... .. . ... ... ... : ... .. . ... ... ... : ... .. . ... ... ... : ... .. . ... ... ...
ROW B5 : ... .. . ... ... ... : ... .. . ... ... ... : ... .. . ... ... ... : ... .. . ... ... ... : ... .. . ... ... ...
ROW B6 : ... .. . ... ... ... : ... .. . ... ... ... : ... .. . ... ... ... : ... .. . ... ... ... : ... .. . ... ... ...
ROW B7 : ... .. . ... ... ... : ... .. . ... ... ... : ... .. . ... ... ... : ... .. . ... ... ... : ... .. . ... ... ...
ROW B8 : ... .. . ... ... ... : ... .. . ... ... ... : ... .. . ... ... ... : ... .. . ... ... ... : ... .. . ... ... ...
ROW B9 : ... .. . ... ... ... : ... .. . ... ... ... : ... .. . ... ... ... : ... .. . ... ... ... : ... .. . ... ... ...
ROW BA : ... .. . ... ... ... : ... .. . ... ... ... : ... .. . ... ... ... : ... .. . ... ... ... : ... .. . ... ... ...
ROW BB : ... .. . ... ... ... : ... .. . ... ... ... : ... .. . ... ... ... : ... .. . ... ... ... : ... .. . ... ... ...
ROW BC : ... .. . ... ... ... : ... .. . ... ... ... : ... .. . ... ... ... : ... .. . ... ... ... : ... .. . ... ... ...
ROW BD : ... .. . ... ... ... : ... .. . ... ... ... : ... .. . ... ... ... : ... .. . ... ... ... : ... .. . ... ... ...
ROW BE : ... .. . ... ... ... : ... .. . ... ... ... : ... .. . ... ... ... : ... .. . ... ... ... : ... .. . ... ... ...
ROW BF : ... .. . ... ... ... : ... .. . ... ... ... : ... .. . ... ... ... : ... .. . ... ... ... : ... .. . ... ... ...
ROW C0 : ... .. . ... ... ... : ... .. . ... ... ... : ... .. . ... ... ... : ... .. . ... ... ... : ... .. . ... ... ...
ROW C1 : ... .. . ... ... ... : ... .. . ... ... ... : ... .. . ... ... ... : ... .. . ... ... ... : ... .. . ... ... ...
ROW C2 : ... .. . ... ... ... : ... .. . ... ... ... : ... .. . ... ... ... : ... .. . ... ... ... : ... .. . ... ... ...
ROW C3 : ... .. . ... ... ... : ... .. . ... ... ... : ... .. . ... ... ... : ... .. . ... ... ... : ... .. . ... ... ...
ROW C4 : ... .. . ... ... ... : ... .. . ... ... ... : ... .. . ... ... ... : ... .. . ... ... ... : ... .. . ... ... ...
ROW C5 : ... .. . ... ... ... : ... .. . ... ... ... : ... .. . ... ... ... : ... .. . ... ... ... : ... .. . ... ... ...
ROW C6 : ... .. . ... ... ... : ... .. . ... ... ... : ... .. . ... ... ... : ... .. . ... ... ... : ... .. . ... ... ...
ROW C7 : ... .. . ... ... ... : ... .. . ... ... ... : ... .. . ... ... ... : ... .. . ... ... ... : ... .. . ... ... ...
ROW C8 : ... .. . ... ... ... : ... .. . ... ... ... : ... .. . ... ... ... : ... .. . ... ... ... : ... .. . ... ... ...
ROW C9 : ... .. . ... ... ... : ... .. . ... ... ... : ... .. . ... ... ... : ... .. . ... ... ... : ... .. . ... ... ...
ROW CA : ... .. . ... ... ... : ... .. . ... ... ... : ... .. . ... ... ... : ... .. . ... ... ... : ... .. . ... ... ...
ROW CB : ... .. . ... ... ... : ... .. . ... ... ... : ... .. . ... ... ... : ... .. . ... ... ... : ... .. . ... ... ...
ROW CC : ... .. . ... ... ... : ... .. . ... ... ... : ... .. . ... ... ... : ... .. . ... ... ... : ... .. . ... ... ...
ROW CD : ... .. . ... ... ... : ... .. . ... ... ... : ... .. . ... ... ... : ... .. . ... ... ... : ... .. . ... ... ...
ROW CE : ... .. . ... ... ... : ... .. . ... ... ... : ... .. . ... ... ... : ... .. . ... ... ... : ... .. . ... ... ...
ROW CF : ... .. . ... ... ... : ... .. . ... ... ... : ... .. . ... ... ... : ... .. . ... ... ... : ... .. . ... ... ...
ROW D0 : ... .. . ... ... ... : ... .. . ... ... ... : ... .. . ... ... ... : ... .. . ... ... ... : ... .. . ... ... ...
ROW D1 : ... .. . ... ... ... : ... .. . ... ... ... : ... .. . ... ... ... : ... .. . ... ... ... : ... .. . ... ... ...
ROW D2 : ... .. . ... ... ... : ... .. . ... ... ... : ... .. . ... ... ... : ... .. . ... ... ... : ... .. . ... ... ...
ROW D3 : ... .. . ... ... ... : ... .. . ... ... ... : ... .. . ... ... ... : ... .. . ... ... ... : ... .. . ... ... ...
ROW D4 : ... .. . ... ... ... : ... .. . ... ... ... : ... .. . ... ... ... : ... .. . ... ... ... : ... .. . ... ... ...
ROW D5 : ... .. . ... ... ... : ... .. . ... ... ... : ... .. . ... ... ... : ... .. . ... ... ... : ... .. . ... ... ...
ROW D6 : ... .. . ... ... ... : ... .. . ... ... ... : ... .. . ... ... ... : ... .. . ... ... ... : ... .. . ... ... ...
ROW D7 : ... .. . ... ... ... : ... .. . ... ... ... : ... .. . ... ... ... : ... .. . ... ... ... : ... .. . ... ... ...
ROW D8 : ... .. . ... ... ... : ... .. . ... ... ... : ... .. . ... ... ... : ... .. . ... ... ... : ... .. . ... ... ...
ROW D9 : ... .. . ... ... ... : ... .. . ... ... ... : ... .. . ... ... ... : ... .. . ... ... ... : ... .. . ... ... ...
ROW DA : ... .. . ... ... ... : ... .. . ... ... ... : ... .. . ... ... ... : ... .. . ... ... ... : ... .. . ... ... ...
ROW DB : ... .. . ... ... ... : ... .. . ... ... ... : ... .. . ... ... ... : ... .. . ... ... ... : ... .. . ... ... ...
ROW DC : ... .. . ... ... ... : ... .. . ... ... ... : ... .. . ... ... ... : ... .. . ... ... ... : ... .. . ... ... ...
ROW DD : ... .. . ... ... ... : ... .. . ... ... ... : ... .. . ... ... ... : ... .. . ... ... ... : ... .. . ... ... ...
ROW DE : ... .. . ... ... ... : ... .. . ... ... ... : ... .. . ... ... ... : ... .. . ... ... ... : ... .. . ... ... ...
ROW DF : ... .. . ... ... ... : ... .. . ... ... ... : ... .. . ... ... ... : ... .. . ... ... ... : ... .. . ... ... ...

PATTERN 0D
ROW 00 : F#2 02 . ... ... ... : ... .. . ... ... ... : ... .. . ... ... ... : ... .. . ... ... ... : ... .. . ... ... ...
ROW 01 : ... .. . ... ... ... : ... .. . ... ... ... : ... .. . ... ... ... : ... .. . ... ... ... : ... .. . ... ... ...
ROW 02 : ... .. . ... ... ... : ... .. . ... ... ... : ... .. . ... ... ... : ... .. . ... ... ... : ... .. . ... ... ...
ROW 03 : ... .. . ... ... ... : ... .. . ... ... ... : ... .. . ... ... ... : ... .. . ... ... ... : ... .. . ... ... ...
ROW 04 : ... .. . ... ... ... : ... .. . ... ... ... : ... .. . ... ... ... : ... .. . ... ... ... : ... .. . ... ... ...
ROW 05 : ... .. . ... ... ... : ... .. . ... ... ... : ... .. . ... ... ... : ... .. . ... ... ... : ... .. . ... ... ...
ROW 06 : ... .. . ... ... ... : ... .. . ... ... ... : ... .. . ... ... ... : ... .. . ... ... ... : ... .. . ... ... ...
ROW 07 : ... .. . ... ... ... : ... .. . ... ... ... : ... .. . ... ... ... : ... .. . ... ... ... : ... .. . ... ... ...
ROW 08 : ... .. . ... ... ... : ... .. . ... ... ... : ... .. . ... ... ... : ... .. . ... ... ... : ... .. . ... ... ...
ROW 09 : ... .. . ... ... ... : ... .. . ... ... ... : ... .. . ... ... ... : ... .. . ... ... ... : ... .. . ... ... ...
ROW 0A : ... .. . ... ... ... : ... .. . ... ... ... : ... .. . ... ... ... : ... .. . ... ... ... : ... .. . ... ... ...
ROW 0B : ... .. . ... ... ... : ... .. . ... ... ... : ... .. . ... ... ... : ... .. . ... ... ... : ... .. . ... ... ...
ROW 0C : ... .. . ... ... ... : ... .. . ... ... ... : ... .. . ... ... ... : ... .. . ... ... ... : ... .. . ... ... ...
ROW 0D : ... .. . ... ... ... : ... .. . ... ... ... : ... .. . ... ... ... : ... .. . ... ... ... : ... .. . ... ... ...
ROW 0E : ... .. . ... ... ... : ... .. . ... ... ... : ... .. . ... ... ... : ... .. . ... ... ... : ... .. . ... ... ...
ROW 0F : ... .. . ... ... ... : ... .. . ... ... ... : ... .. . ... ... ... : ... .. . ... ... ... : ... .. . ... ... ...
ROW 10 : ... .. . ... ... ... : ... .. . ... ... ... : ... .. . ... ... ... : ... .. . ... ... ... : ... .. . ... ... ...
ROW 11 : ... .. . ... ... ... : ... .. . ... ... ... : ... .. . ... ... ... : ... .. . ... ... ... : ... .. . ... ... ...
ROW 12 : ... .. . ... ... ... : ... .. . ... ... ... : ... .. . ... ... ... : ... .. . ... ... ... : ... .. . ... ... ...
ROW 13 : ... .. . ... ... ... : ... .. . ... ... ... : ... .. . ... ... ... : ... .. . ... ... ... : ... .. . ... ... ...
ROW 14 : ... .. . ... ... ... : ... .. . ... ... ... : ... .. . ... ... ... : ... .. . ... ... ... : ... .. . ... ... ...
ROW 15 : ... .. . ... ... ... : ... .. . ... ... ... : ... .. . ... ... ... : ... .. . ... ... ... : ... .. . ... ... ...
ROW 16 : ... .. . ... ... ... : ... .. . ... ... ... : ... .. . ... ... ... : ... .. . ... ... ... : ... .. . ... ... ...
ROW 17 : ... .. . ... ... ... : ... .. . ... ... ... : ... .. . ... ... ... : ... .. . ... ... ... : ... .. . ... ... ...
ROW 18 : ... .. . ... ... ... : ... .. . ... ... ... : ... .. . ... ... ... : ... .. . ... ... ... : ... .. . ... ... ...
ROW 19 : ... .. . ... ... ... : ... .. . ... ... ... : ... .. . ... ... ... : ... .. . ... ... ... : ... .. . ... ... ...
ROW 1A : ... .. . ... ... ... : ... .. . ... ... ... : ... .. . ... ... ... : ... .. . ... ... ... : ... .. . ... ... ...
ROW 1B : ... .. . ... ... ... : ... .. . ... ... ... : ... .. . ... ... ... : ... .. . ... ... ... : ... .. . ... ... ...
ROW 1C : ... .. . ... ... ... : ... .. . ... ... ... : ... .. . ... ... ... : ... .. . ... ... ... : ... .. . ... ... ...
ROW 1D : ... .. . ... ... ... : ... .. . ... ... ... : ... .. . ... ... ... : ... .. . ... ... ... : ... .. . ... ... ...
ROW 1E : ... .. . ... ... ... : ... .. . ... ... ... : ... .. . ... ... ... : ... .. . ... ... ... : ... .. . ... ... ...
ROW 1F : ... .. . ... ... ... : ... .. . ... ... ... : ... .. . ... ... ... : ... .. . ... ... ... : ... .. . ... ... ...
ROW 20 : ... .. . ... ... ... : ... .. . ... ... ... : ... .. . ... ... ... : ... .. . ... ... ... : ... .. . ... ... ...
ROW 21 : ... .. . ... ... ... : ... .. . ... ... ... : ... .. . ... ... ... : ... .. . ... ... ... : ... .. . ... ... ...
ROW 22 : ... .. . ... ... ... : ... .. . ... ... ... : ... .. . ... ... ... : ... .. . ... ... ... : ... .. . ... ... ...
ROW 23 : ... .. . ... ... ... : ... .. . ... ... ... : ... .. . ... ... ... : ... .. . ... ... ... : ... .. . ... ... ...
ROW 24 : ... .. . ... ... ... : ... .. . ... ... ... : ... .. . ... ... ... : ... .. . ... ... ... : ... .. . ... ... ...
ROW 25 : ... .. . ... ... ... : ... .. . ... ... ... : ... .. . ... ... ... : ... .. . ... ... ... : ... .. . ... ... ...
ROW 26 : ... .. . ... ... ... : ... .. . ... ... ... : ... .. . ... ... ... : ... .. . ... ... ... : ... .. . ... ... ...
ROW 27 : ... .. . ... ... ... : ... .. . ... ... ... : ... .. . ... ... ... : ... .. . ... ... ... : ... .. . ... ... ...
ROW 28 : ... .. . ... ... ... : ... .. . ... ... ... : ... .. . ... ... ... : ... .. . ... ... ... : ... .. . ... ... ...
ROW 29 : ... .. . ... ... ... : ... .. . ... ... ... : ... .. . ... ... ... : ... .. . ... ... ... : ... .. . ... ... ...
ROW 2A : ... .. . ... ... ... : ... .. . ... ... ... : ... .. . ... ... ... : ... .. . ... ... ... : ... .. . ... ... ...
ROW 2B : ... .. . ... ... ... : ... .. . ... ... ... : ... .. . ... ... ... : ... .. . ... ... ... : ... .. . ... ... ...
ROW 2C : ... .. . ... ... ... : ... .. . ... ... ... : ... .. . ... ... ... : ... .. . ... ... ... : ... .. . ... ... ...
ROW 2D : ... .. . ... ... ... : ... .. . ... ... ... : ... .. . ... ... ... : ... .. . ... ... ... : ... .. . ... ... ...
ROW 2E : ... .. . ... ... ... : ... .. . ... ... ... : ... .. . ... ... ... : ... .. . ... ... ... : ... .. . ... ... ...
ROW 2F : ... .. . ... ... ... : ... .. . ... ... ... : ... .. . ... ... ... : ... .. . ... ... ... : ... .. . ... ... ...
ROW 30 : ... .. . ... ... ... : ... .. . ... ... ... : ... .. . ... ... ... : ... .. . ... ... ... : ... .. . ... ... ...
ROW 31 : ... .. . ... ... ... : ... .. . ... ... ... : ... .. . ... ... ... : ... .. . ... ... ... : ... .. . ... ... ...
ROW 32 : ... .. . ... ... ... : ... .. . ... ... ... : ... .. . ... ... ... : ... .. . ... ... ... : ... .. . ... ... ...
ROW 33 : ... .. . ... ... ... : ... .. . ... ... ... : ... .. . ... ... ... : ... .. . ... ... ... : ... .. . ... ... ...
ROW 34 : ... .. . ... ... ... : ... .. . ... ... ... : ... .. . ... ... ... : ... .. . ... ... ... : ... .. . ... ... ...
ROW 35 : ... .. . ... ... ... : ... .. . ... ... ... : ... .. . ... ... ... : ... .. . ... ... ... : ... .. . ... ... ...
ROW 36 : ... .. . ... ... ... : ... .. . ... ... ... : ... .. . ... ... ... : ... .. . ... ... ... : ... .. . ... ... ...
ROW 37 : ... .. . ... ... ... : ... .. . ... ... ... : ... .. . ... ... ... : ... .. . ... ... ... : ... .. . ... ... ...
ROW 38 : ... .. . ... ... ... : ... .. . ... ... ... : ... .. . ... ... ... : ... .. . ... ... ... : ... .. . ... ... ...
ROW 39 : ... .. . ... ... ... : ... .. . ... ... ... : ... .. . ... ... ... : ... .. . ... ... ... : ... .. . ... ... ...
ROW 3A : ... .. . ... ... ... : ... .. . ... ... ... : ... .. . ... ... ... : ... .. . ... ... ... : ... .. . ... ... ...
ROW 3B : ... .. . ... ... ... : ... .. . ... ... ... : ... .. . ... ... ... : ... .. . ... ... ... : ... .. . ... ... ...
ROW 3C : ... .. . ... ... ... : ... .. . ... ... ... : ... .. . ... ... ... : ... .. . ... ... ... : ... .. . ... ... ...
ROW 3D : ... .. . ... ... ... : ... .. . ... ... ... : ... .. . ... ... ... : ... .. . ... ... ... : ... .. . ... ... ...
ROW 3E : ... .. . ... ... ... : ... .. . ... ... ... : ... .. . ... ... ... : ... .. . ... ... ... : ... .. . ... ... ...
ROW 3F : ... .. . ... ... ... : ... .. . ... ... ... : ... .. . ... ... ... : ... .. . ... ... ... : ... .. . ... ... ...
ROW 40 : ... .. . ... ... ... : ... .. . ... ... ... : ... .. . ... ... ... : ... .. . ... ... ... : ... .. . ... ... ...
ROW 41 : ... .. . ... ... ... : ... .. . ... ... ... : ... .. . ... ... ... : ... .. . ... ... ... : ... .. . ... ... ...
ROW 42 : ... .. . ... ... ... : ... .. . ... ... ... : ... .. . ... ... ... : ... .. . ... ... ... : ... .. . ... ... ...
ROW 43 : ... .. . ... ... ... : ... .. . ... ... ... : ... .. . ... ... ... : ... .. . ... ... ... : ... .. . ... ... ...
ROW 44 : ... .. . ... ... ... : ... .. . ... ... ... : ... .. . ... ... ... : ... .. . ... ... ... : ... .. . ... ... ...
ROW 45 : ... .. . ... ... ... : ... .. . ... ... ... : ... .. . ... ... ... : ... .. . ... ... ... : ... .. . ... ... ...
ROW 46 : ... .. . ... ... ... : ... .. . ... ... ... : ... .. . ... ... ... : ... .. . ... ... ... : ... .. . ... ... ...
ROW 47 : ... .. . ... ... ... : ... .. . ... ... ... : ... .. . ... ... ... : ... .. . ... ... ... : ... .. . ... ... ...
ROW 48 : ... .. . ... ... ... : ... .. . ... ... ... : ... .. . ... ... ... : ... .. . ... ... ... : ... .. . ... ... ...
ROW 49 : ... .. . ... ... ... : ... .. . ... ... ... : ... .. . ... ... ... : ... .. . ... ... ... : ... .. . ... ... ...
ROW 4A : ... .. . ... ... ... : ... .. . ... ... ... : ... .. . ... ... ... : ... .. . ... ... ... : ... .. . ... ... ...
ROW 4B : ... .. . ... ... ... : ... .. . ... ... ... : ... .. . ... ... ... : ... .. . ... ... ... : ... .. . ... ... ...
ROW 4C : ... .. . ... ... ... : ... .. . ... ... ... : ... .. . ... ... ... : ... .. . ... ... ... : ... .. . ... ... ...
ROW 4D : ... .. . ... ... ... : ... .. . ... ... ... : ... .. . ... ... ... : ... .. . ... ... ... : ... .. . ... ... ...
ROW 4E : ... .. . ... ... ... : ... .. . ... ... ... : ... .. . ... ... ... : ... .. . ... ... ... : ... .. . ... ... ...
ROW 4F : ... .. . ... ... ... : ... .. . ... ... ... : ... .. . ... ... ... : ... .. . ... ... ... : ... .. . ... ... ...
ROW 50 : ... .. . ... ... ... : ... .. . ... ... ... : ... .. . ... ... ... : ... .. . ... ... ... : ... .. . ... ... ...
ROW 51 : ... .. . ... ... ... : ... .. . ... ... ... : ... .. . ... ... ... : ... .. . ... ... ... : ... .. . ... ... ...
ROW 52 : ... .. . ... ... ... : ... .. . ... ... ... : ... .. . ... ... ... : ... .. . ... ... ... : ... .. . ... ... ...
ROW 53 : ... .. . ... ... ... : ... .. . ... ... ... : ... .. . ... ... ... : ... .. . ... ... ... : ... .. . ... ... ...
ROW 54 : ... .. . ... ... ... : ... .. . ... ... ... : ... .. . ... ... ... : ... .. . ... ... ... : ... .. . ... ... ...
ROW 55 : ... .. . ... ... ... : ... .. . ... ... ... : ... .. . ... ... ... : ... .. . ... ... ... : ... .. . ... ... ...
ROW 56 : ... .. . ... ... ... : ... .. . ... ... ... : ... .. . ... ... ... : ... .. . ... ... ... : ... .. . ... ... ...
ROW 57 : ... .. . ... ... ... : ... .. . ... ... ... : ... .. . ... ... ... : ... .. . ... ... ... : ... .. . ... ... ...
ROW 58 : ... .. . ... ... ... : ... .. . ... ... ... : ... .. . ... ... ... : ... .. . ... ... ... : ... .. . ... ... ...
ROW 59 : ... .. . ... ... ... : ... .. . ... ... ... : ... .. . ... ... ... : ... .. . ... ... ... : ... .. . ... ... ...
ROW 5A : ... .. . ... ... ... : ... .. . ... ... ... : ... .. . ... ... ... : ... .. . ... ... ... : ... .. . ... ... ...
ROW 5B : ... .. . ... ... ... : ... .. . ... ... ... : ... .. . ... ... ... : ... .. . ... ... ... : ... .. . ... ... ...
ROW 5C : ... .. . ... ... ... : ... .. . ... ... ... : ... .. . ... ... ... : ... .. . ... ... ... : ... .. . ... ... ...
ROW 5D : ... .. . ... ... ... : ... .. . ... ... ... : ... .. . ... ... ... : ... .. . ... ... ... : ... .. . ... ... ...
ROW 5E : ... .. . ... ... ... : ... .. . ... ... ... : ... .. . ... ... ... : ... .. . ... ... ... : ... .. . ... ... ...
ROW 5F : ... .. . ... ... ... : ... .. . ... ... ... : ... .. . ... ... ... : ... .. . ... ... ... : ... .. . ... ... ...
ROW 60 : ... .. . ... ... ... : ... .. . ... ... ... : ... .. . ... ... ... : ... .. . ... ... ... : ... .. . ... ... ...
ROW 61 : ... .. . ... ... ... : ... .. . ... ... ... : ... .. . ... ... ... : ... .. . ... ... ... : ... .. . ... ... ...
ROW 62 : ... .. . ... ... ... : ... .. . ... ... ... : ... .. . ... ... ... : ... .. . ... ... ... : ... .. . ... ... ...
ROW 63 : ... .. . ... ... ... : ... .. . ... ... ... : ... .. . ... ... ... : ... .. . ... ... ... : ... .. . ... ... ...
ROW 64 : ... .. . ... ... ... : ... .. . ... ... ... : ... .. . ... ... ... : ... .. . ... ... ... : ... .. . ... ... ...
ROW 65 : ... .. . ... ... ... : ... .. . ... ... ... : ... .. . ... ... ... : ... .. . ... ... ... : ... .. . ... ... ...
ROW 66 : ... .. . ... ... ... : ... .. . ... ... ... : ... .. . ... ... ... : ... .. . ... ... ... : ... .. . ... ... ...
ROW 67 : ... .. . ... ... ... : ... .. . ... ... ... : ... .. . ... ... ... : ... .. . ... ... ... : ... .. . ... ... ...
ROW 68 : ... .. . ... ... ... : ... .. . ... ... ... : ... .. . ... ... ... : ... .. . ... ... ... : ... .. . ... ... ...
ROW 69 : ... .. . ... ... ... : ... .. . ... ... ... : ... .. . ... ... ... : ... .. . ... ... ... : ... .. . ... ... ...
ROW 6A : ... .. . ... ... ... : ... .. . ... ... ... : ... .. . ... ... ... : ... .. . ... ... ... : ... .. . ... ... ...
ROW 6B : ... .. . ... ... ... : ... .. . ... ... ... : ... .. . ... ... ... : ... .. . ... ... ... : ... .. . ... ... ...
ROW 6C : ... .. . ... ... ... : ... .. . ... ... ... : ... .. . ... ... ... : ... .. . ... ... ... : ... .. . ... ... ...
ROW 6D : ... .. . ... ... ... : ... .. . ... ... ... : ... .. . ... ... ... : ... .. . ... ... ... : ... .. . ... ... ...
ROW 6E : ... .. . ... ... ... : ... .. . ... ... ... : ... .. . ... ... ... : ... .. . ... ... ... : ... .. . ... ... ...
ROW 6F : ... .. . ... ... ... : ... .. . ... ... ... : ... .. . ... ... ... : ... .. . ... ... ... : ... .. . ... ... ...
ROW 70 : E-2 02 . ... ... ... : ... .. . ... ... ... : ... .. . ... ... ... : ... .. . ... ... ... : ... .. . ... ... ...
ROW 71 : ... .. . ... ... ... : ... .. . ... ... ... : ... .. . ... ... ... : ... .. . ... ... ... : ... .. . ... ... ...
ROW 72 : ... .. . ... ... ... : ... .. . ... ... ... : ... .. . ... ... ... : ... .. . ... ... ... : ... .. . ... ... ...
ROW 73 : ... .. . ... ... ... : ... .. . ... ... ... : ... .. . ... ... ... : ... .. . ... ... ... : ... .. . ... ... ...
ROW 74 : ... .. . ... ... ... : ... .. . ... ... ... : ... .. . ... ... ... : ... .. . ... ... ... : ... .. . ... ... ...
ROW 75 : ... .. . ... ... ... : ... .. . ... ... ... : ... .. . ... ... ... : ... .. . ... ... ... : ... .. . ... ... ...
ROW 76 : ... .. . ... ... ... : ... .. . ... ... ... : ... .. . ... ... ... : ... .. . ... ... ... : ... .. . ... ... ...
ROW 77 : ... .. . ... ... ... : ... .. . ... ... ... : ... .. . ... ... ... : ... .. . ... ... ... : ... .. . ... ... ...
ROW 78 : ... .. . ... ... ... : ... .. . ... ... ... : ... .. . ... ... ... : ... .. . ... ... ... : ... .. . ... ... ...
ROW 79 : ... .. . ... ... ... : ... .. . ... ... ... : ... .. . ... ... ... : ... .. . ... ... ... : ... .. . ... ... ...
ROW 7A : ... .. . ... ... ... : ... .. . ... ... ... : ... .. . ... ... ... : ... .. . ... ... ... : ... .. . ... ... ...
ROW 7B : ... .. . ... ... ... : ... .. . ... ... ... : ... .. . ... ... ... : ... .. . ... ... ... : ... .. . ... ... ...
ROW 7C : ... .. . ... ... ... : ... .. . ... ... ... : ... .. . ... ... ... : ... .. . ... ... ... : ... .. . ... ... ...
ROW 7D : ... .. . ... ... ... : ... .. . ... ... ... : ... .. . ... ... ... : ... .. . ... ... ... : ... .. . ... ... ...
ROW 7E : ... .. . ... ... ... : ... .. . ... ... ... : ... .. . ... ... ... : ... .. . ... ... ... : ... .. . ... ... ...
ROW 7F : ... .. . ... ... ... : ... .. . ... ... ... : ... .. . ... ... ... : ... .. . ... ... ... : ... .. . ... ... ...
ROW 80 : ... .. . ... ... ... : ... .. . ... ... ... : ... .. . ... ... ... : ... .. . ... ... ... : ... .. . ... ... ...
ROW 81 : ... .. . ... ... ... : ... .. . ... ... ... : ... .. . ... ... ... : ... .. . ... ... ... : ... .. . ... ... ...
ROW 82 : ... .. . ... ... ... : ... .. . ... ... ... : ... .. . ... ... ... : ... .. . ... ... ... : ... .. . ... ... ...
ROW 83 : ... .. . ... ... ... : ... .. . ... ... ... : ... .. . ... ... ... : ... .. . ... ... ... : ... .. . ... ... ...
ROW 84 : ... .. . ... ... ... : ... .. . ... ... ... : ... .. . ... ... ... : ... .. . ... ... ... : ... .. . ... ... ...
ROW 85 : ... .. . ... ... ... : ... .. . ... ... ... : ... .. . ... ... ... : ... .. . ... ... ... : ... .. . ... ... ...
ROW 86 : ... .. . ... ... ... : ... .. . ... ... ... : ... .. . ... ... ... : ... .. . ... ... ... : ... .. . ... ... ...
ROW 87 : ... .. . ... ... ... : ... .. . ... ... ... : ... .. . ... ... ... : ... .. . ... ... ... : ... .. . ... ... ...
ROW 88 : ... .. . ... ... ... : ... .. . ... ... ... : ... .. . ... ... ... : ... .. . ... ... ... : ... .. . ... ... ...
ROW 89 : ... .. . ... ... ... : ... .. . ... ... ... : ... .. . ... ... ... : ... .. . ... ... ... : ... .. . ... ... ...
ROW 8A : ... .. . ... ... ... : ... .. . ... ... ... : ... .. . ... ... ... : ... .. . ... ... ... : ... .. . ... ... ...
ROW 8B : ... .. . ... ... ... : ... .. . ... ... ... : ... .. . ... ... ... : ... .. . ... ... ... : ... .. . ... ... ...
ROW 8C : ... .. . ... ... ... : ... .. . ... ... ... : ... .. . ... ... ... : ... .. . ... ... ... : ... .. . ... ... ...
ROW 8D : ... .. . ... ... ... : ... .. . ... ... ... : ... .. . ... ... ... : ... .. . ... ... ... : ... .. . ... ... ...
ROW 8E : ... .. . ... ... ... : ... .. . ... ... ... : ... .. . ... ... ... : ... .. . ... ... ... : ... .. . ... ... ...
ROW 8F : ... .. . ... ... ... : ... .. . ... ... ... : ... .. . ... ... ... : ... .. . ... ... ... : ... .. . ... ... ...
ROW 90 : ... .. . ... ... ... : ... .. . ... ... ... : ... .. . ... ... ... : ... .. . ... ... ... : ... .. . ... ... ...
ROW 91 : ... .. . ... ... ... : ... .. . ... ... ... : ... .. . ... ... ... : ... .. . ... ... ... : ... .. . ... ... ...
ROW 92 : ... .. . ... ... ... : ... .. . ... ... ... : ... .. . ... ... ... : ... .. . ... ... ... : ... .. . ... ... ...
ROW 93 : ... .. . ... ... ... : ... .. . ... ... ... : ... .. . ... ... ... : ... .. . ... ... ... : ... .. . ... ... ...
ROW 94 : ... .. . ... ... ... : ... .. . ... ... ... : ... .. . ... ... ... : ... .. . ... ... ... : ... .. . ... ... ...
ROW 95 : ... .. . ... ... ... : ... .. . ... ... ... : ... .. . ... ... ... : ... .. . ... ... ... : ... .. . ... ... ...
ROW 96 : ... .. . ... ... ... : ... .. . ... ... ... : ... .. . ... ... ... : ... .. . ... ... ... : ... .. . ... ... ...
ROW 97 : ... .. . ... ... ... : ... .. . ... ... ... : ... .. . ... ... ... : ... .. . ... ... ... : ... .. . ... ... ...
ROW 98 : ... .. . ... ... ... : ... .. . ... ... ... : ... .. . ... ... ... : ... .. . ... ... ... : ... .. . ... ... ...
ROW 99 : ... .. . ... ... ... : ... .. . ... ... ... : ... .. . ... ... ... : ... .. . ... ... ... : ... .. . ... ... ...
ROW 9A : ... .. . ... ... ... : ... .. . ... ... ... : ... .. . ... ... ... : ... .. . ... ... ... : ... .. . ... ... ...
ROW 9B : ... .. . ... ... ... : ... .. . ... ... ... : ... .. . ... ... ... : ... .. . ... ... ... : ... .. . ... ... ...
ROW 9C : ... .. . ... ... ... : ... .. . ... ... ... : ... .. . ... ... ... : ... .. . ... ... ... : ... .. . ... ... ...
ROW 9D : ... .. . ... ... ... : ... .. . ... ... ... : ... .. . ... ... ... : ... .. . ... ... ... : ... .. . ... ... ...
ROW 9E : ... .. . ... ... ... : ... .. . ... ... ... : ... .. . ... ... ... : ... .. . ... ... ... : ... .. . ... ... ...
ROW 9F : ... .. . ... ... ... : ... .. . ... ... ... : ... .. . ... ... ... : ... .. . ... ... ... : ... .. . ... ... ...
ROW A0 : ... .. . ... ... ... : ... .. . ... ... ... : ... .. . ... ... ... : ... .. . ... ... ... : ... .. . ... ... ...
ROW A1 : ... .. . ... ... ... : ... .. . ... ... ... : ... .. . ... ... ... : ... .. . ... ... ... : ... .. . ... ... ...
ROW A2 : ... .. . ... ... ... : ... .. . ... ... ... : ... .. . ... ... ... : ... .. . ... ... ... : ... .. . ... ... ...
ROW A3 : ... .. . ... ... ... : ... .. . ... ... ... : ... .. . ... ... ... : ... .. . ... ... ... : ... .. . ... ... ...
ROW A4 : ... .. . ... ... ... : ... .. . ... ... ... : ... .. . ... ... ... : ... .. . ... ... ... : ... .. . ... ... ...
ROW A5 : ... .. . ... ... ... : ... .. . ... ... ... : ... .. . ... ... ... : ... .. . ... ... ... : ... .. . ... ... ...
ROW A6 : ... .. . ... ... ... : ... .. . ... ... ... : ... .. . ... ... ... : ... .. . ... ... ... : ... .. . ... ... ...
ROW A7 : ... .. . ... ... ... : ... .. . ... ... ... : ... .. . ... ... ... : ... .. . ... ... ... : ... .. . ... ... ...
ROW A8 : ... .. . ... ... ... : ... .. . ... ... ... : ... .. . ... ... ... : ... .. . ... ... ... : ... .. . ... ... ...
ROW A9 : ... .. . ... ... ... : ... .. . ... ... ... : ... .. . ... ... ... : ... .. . ... ... ... : ... .. . ... ... ...
ROW AA : ... .. . ... ... ... : ... .. . ... ... ... : ... .. . ... ... ... : ... .. . ... ... ... : ... .. . ... ... ...
ROW AB : ... .. . ... ... ... : ... .. . ... ... ... : ... .. . ... ... ... : ... .. . ... ... ... : ... .. . ... ... ...
ROW AC : ... .. . ... ... ... : ... .. . ... ... ... : ... .. . ... ... ... : ... .. . ... ... ... : ... .. . ... ... ...
ROW AD : ... .. . ... ... ... : ... .. . ... ... ... : ... .. . ... ... ... : ... .. . ... ... ... : ... .. . ... ... ...
ROW AE : ... .. . ... ... ... : ... .. . ... ... ... : ... .. . ... ... ... : ... .. . ... ... ... : ... .. . ... ... ...
ROW AF : ... .. . ... ... ... : ... .. . ... ... ... : ... .. . ... ... ... : ... .. . ... ... ... : ... .. . ... ... ...
ROW B0 : ... .. . ... ... ... : ... .. . ... ... ... : ... .. . ... ... ... : ... .. . ... ... ... : ... .. . ... ... ...
ROW B1 : ... .. . ... ... ... : ... .. . ... ... ... : ... .. . ... ... ... : ... .. . ... ... ... : ... .. . ... ... ...
ROW B2 : ... .. . ... ... ... : ... .. . ... ... ... : ... .. . ... ... ... : ... .. . ... ... ... : ... .. . ... ... ...
ROW B3 : ... .. . ... ... ... : ... .. . ... ... ... : ... .. . ... ... ... : ... .. . ... ... ... : ... .. . ... ... ...
ROW B4 : ... .. . ... ... ... : ... .. . ... ... ... : ... .. . ... ... ... : ... .. . ... ... ... : ... .. . ... ... ...
ROW B5 : ... .. . ... ... ... : ... .. . ... ... ... : ... .. . ... ... ... : ... .. . ... ... ... : ... .. . ... ... ...
ROW B6 : ... .. . ... ... ... : ... .. . ... ... ... : ... .. . ... ... ... : ... .. . ... ... ... : ... .. . ... ... ...
ROW B7 : ... .. . ... ... ... : ... .. . ... ... ... : ... .. . ... ... ... : ... .. . ... ... ... : ... .. . ... ... ...
ROW B8 : ... .. . ... ... ... : ... .. . ... ... ... : ... .. . ... ... ... : ... .. . ... ... ... : ... .. . ... ... ...
ROW B9 : ... .. . ... ... ... : ... .. . ... ... ... : ... .. . ... ... ... : ... .. . ... ... ... : ... .. . ... ... ...
ROW BA : ... .. . ... ... ... : ... .. . ... ... ... : ... .. . ... ... ... : ... .. . ... ... ... : ... .. . ... ... ...
ROW BB : ... .. . ... ... ... : ... .. . ... ... ... : ... .. . ... ... ... : ... .. . ... ... ... : ... .. . ... ... ...
ROW BC : ... .. . ... ... ... : ... .. . ... ... ... : ... .. . ... ... ... : ... .. . ... ... ... : ... .. . ... ... ...
ROW BD : ... .. . ... ... ... : ... .. . ... ... ... : ... .. . ... ... ... : ... .. . ... ... ... : ... .. . ... ... ...
ROW BE : ... .. . ... ... ... : ... .. . ... ... ... : ... .. . ... ... ... : ... .. . ... ... ... : ... .. . ... ... ...
ROW BF : ... .. . ... ... ... : ... .. . ... ... ... : ... .. . ... ... ... : ... .. . ... ... ... : ... .. . ... ... ...
ROW C0 : ... .. . ... ... ... : ... .. . ... ... ... : ... .. . ... ... ... : ... .. . ... ... ... : ... .. . ... ... ...
ROW C1 : ... .. . ... ... ... : ... .. . ... ... ... : ... .. . ... ... ... : ... .. . ... ... ... : ... .. . ... ... ...
ROW C2 : ... .. . ... ... ... : ... .. . ... ... ... : ... .. . ... ... ... : ... .. . ... ... ... : ... .. . ... ... ...
ROW C3 : ... .. . ... ... ... : ... .. . ... ... ... : ... .. . ... ... ... : ... .. . ... ... ... : ... .. . ... ... ...
ROW C4 : ... .. . ... ... ... : ... .. . ... ... ... : ... .. . ... ... ... : ... .. . ... ... ... : ... .. . ... ... ...
ROW C5 : ... .. . ... ... ... : ... .. . ... ... ... : ... .. . ... ... ... : ... .. . ... ... ... : ... .. . ... ... ...
ROW C6 : ... .. . ... ... ... : ... .. . ... ... ... : ... .. . ... ... ... : ... .. . ... ... ... : ... .. . ... ... ...
ROW C7 : ... .. . ... ... ... : ... .. . ... ... ... : ... .. . ... ... ... : ... .. . ... ... ... : ... .. . ... ... ...
ROW C8 : ... .. . ... ... ... : ... .. . ... ... ... : ... .. . ... ... ... : ... .. . ... ... ... : ... .. . ... ... ...
ROW C9 : ... .. . ... ... ... : ... .. . ... ... ... : ... .. . ... ... ... : ... .. . ... ... ... : ... .. . ... ... ...
ROW CA : ... .. . ... ... ... : ... .. . ... ... ... : ... .. . ... ... ... : ... .. . ... ... ... : ... .. . ... ... ...
ROW CB : ... .. . ... ... ... : ... .. . ... ... ... : ... .. . ... ... ... : ... .. . ... ... ... : ... .. . ... ... ...
ROW CC : ... .. . ... ... ... : ... .. . ... ... ... : ... .. . ... ... ... : ... .. . ... ... ... : ... .. . ... ... ...
ROW CD : ... .. . ... ... ... : ... .. . ... ... ... : ... .. . ... ... ... : ... .. . ... ... ... : ... .. . ... ... ...
ROW CE : ... .. . ... ... ... : ... .. . ... ... ... : ... .. . ... ... ... : ... .. . ... ... ... : ... .. . ... ... ...
ROW CF : ... .. . ... ... ... : ... .. . ... ... ... : ... .. . ... ... ... : ... .. . ... ... ... : ... .. . ... ... ...
ROW D0 : ... .. . ... ... ... : ... .. . ... ... ... : ... .. . ... ... ... : ... .. . ... ... ... : ... .. . ... ... ...
ROW D1 : ... .. . ... ... ... : ... .. . ... ... ... : ... .. . ... ... ... : ... .. . ... ... ... : ... .. . ... ... ...
ROW D2 : ... .. . ... ... ... : ... .. . ... ... ... : ... .. . ... ... ... : ... .. . ... ... ... : ... .. . ... ... ...
ROW D3 : ... .. . ... ... ... : ... .. . ... ... ... : ... .. . ... ... ... : ... .. . ... ... ... : ... .. . ... ... ...
ROW D4 : ... .. . ... ... ... : ... .. . ... ... ... : ... .. . ... ... ... : ... .. . ... ... ... : ... .. . ... ... ...
ROW D5 : ... .. . ... ... ... : ... .. . ... ... ... : ... .. . ... ... ... : ... .. . ... ... ... : ... .. . ... ... ...
ROW D6 : ... .. . ... ... ... : ... .. . ... ... ... : ... .. . ... ... ... : ... .. . ... ... ... : ... .. . ... ... ...
ROW D7 : ... .. . ... ... ... : ... .. . ... ... ... : ... .. . ... ... ... : ... .. . ... ... ... : ... .. . ... ... ...
ROW D8 : ... .. . ... ... ... : ... .. . ... ... ... : ... .. . ... ... ... : ... .. . ... ... ... : ... .. . ... ... ...
ROW D9 : ... .. . ... ... ... : ... .. . ... ... ... : ... .. . ... ... ... : ... .. . ... ... ... : ... .. . ... ... ...
ROW DA : ... .. . ... ... ... : ... .. . ... ... ... : ... .. . ... ... ... : ... .. . ... ... ... : ... .. . ... ... ...
ROW DB : ... .. . ... ... ... : ... .. . ... ... ... : ... .. . ... ... ... : ... .. . ... ... ... : ... .. . ... ... ...
ROW DC : ... .. . ... ... ... : ... .. . ... ... ... : ... .. . ... ... ... : ... .. . ... ... ... : ... .. . ... ... ...
ROW DD : ... .. . ... ... ... : ... .. . ... ... ... : ... .. . ... ... ... : ... .. . ... ... ... : ... .. . ... ... ...
ROW DE : ... .. . ... ... ... : ... .. . ... ... ... : ... .. . ... ... ... : ... .. . ... ... ... : ... .. . ... ... ...
ROW DF : ... .. . B00 ... ... : ... .. . ... ... ... : ... .. . ... ... ... : ... .. . ... ... ... : ... .. . ... ... ...

# End of export
